<svg width="1336" height="172" viewBox="0 0 1336 172" fill="none" xmlns="http://www.w3.org/2000/svg">
<path d="M153.194 160.462V149.297L148.622 149.968L144.05 150.639V141.324C144.05 132.403 143.889 132.008 140.24 132.008C136.493 132.008 136.43 132.211 136.43 144.198C136.43 156.185 136.366 156.389 132.62 156.389H128.81L128.582 130.103C128.456 115.646 128.068 105.703 127.718 108.008C127.226 111.257 126.251 112.198 123.375 112.198C119.995 112.198 119.666 111.59 119.666 105.341C119.666 99.5001 119.214 98.4842 116.618 98.4842C113.664 98.4842 113.57 99.5001 113.57 131.246V164.008H109.76H105.95V127.436C105.95 93.8436 105.245 87.3646 102.14 92.389C101.622 93.2271 99.1809 93.9128 96.7157 93.9128C93.2497 93.9128 92.2337 94.6036 92.2337 96.9604C92.2337 98.9921 91.2177 100.008 89.1856 100.008C86.6456 100.008 86.1376 101.024 86.1376 106.103C86.1376 111.254 85.648 112.198 82.9791 112.198C80.1543 112.198 79.846 113.044 80.061 120.198C80.1933 124.598 80.243 134.884 80.1715 143.055C80.0421 157.852 80.0262 157.912 76.2315 157.912H72.4215V121.341C72.4215 85.7859 72.3369 84.77 69.3735 84.77C66.6949 84.77 66.3255 85.7859 66.3255 93.1508C66.3255 100.998 66.0907 101.532 62.6424 101.532C60.6168 101.532 58.5768 100.675 58.1093 99.627C57.6417 98.5794 57.3206 99.0937 57.3958 100.77C57.8257 110.358 57.2118 112.198 53.5837 112.198C50.3816 112.198 49.8802 113.078 49.0249 120.198C48.4964 124.598 48.0579 132.484 48.0506 137.722C48.038 146.861 47.8835 147.246 44.2273 147.246H40.4173V120.791V94.3354L36.5129 95.0817C33.1791 95.7189 32.678 96.523 33.0839 100.585C33.5021 104.769 33.1012 105.341 29.7492 105.341C27.6537 105.341 25.886 104.656 25.821 103.818C25.4034 98.4315 23.0804 90.8652 21.8444 90.8652C21.0362 90.8652 20.5777 94.1223 20.8257 98.1032C21.2295 104.582 20.9219 105.392 17.8928 105.828C15.7339 106.139 14.5091 107.38 14.5091 109.257C14.5091 111.183 13.4565 112.198 11.461 112.198C8.60652 112.198 8.41304 113.214 8.41304 128.198V144.198H4.60301H0.792969V80.9605C0.792969 18.7386 0.839071 17.7227 3.84101 17.7227C5.87298 17.7227 6.88899 16.7069 6.88899 14.6751C6.88899 12.4402 7.90501 11.6275 10.699 11.6275C14.1986 11.6275 14.5091 12.1862 14.5091 18.4846C14.5091 22.256 15.1949 25.3417 16.0331 25.3417C16.8713 25.3417 17.5571 24.0108 17.5571 22.3841C17.5571 20.7574 18.2429 19.0026 19.0811 18.4846C19.9193 17.9667 20.6051 16.2119 20.6051 14.5852C20.6051 10.9577 26.3581 10.4845 27.7077 14.0009C28.4436 15.9183 28.9537 15.6987 30.3626 12.8581C31.6859 10.1899 33.6123 9.23114 38.3498 8.88292C44.9919 8.39475 46.4406 10.1868 46.4925 18.9555C46.504 20.9092 47.1911 22.0552 48.0373 21.5322C48.8755 21.0142 49.5613 17.8881 49.5613 14.5852C49.5613 9.19543 49.9519 8.5799 53.3714 8.5799C55.742 8.5799 57.1814 9.44336 57.1814 10.8656C57.1814 12.1227 57.8887 13.1513 58.7532 13.1513C59.6177 13.1513 60.7198 12.1227 61.2023 10.8656C61.6848 9.60844 63.7207 8.5799 65.7265 8.5799C67.9522 8.5799 69.3735 9.47061 69.3735 10.8656C69.3735 12.1227 70.4022 13.1513 71.6595 13.1513C73.0742 13.1513 73.9455 14.5851 73.9455 16.913C73.9455 19.6307 74.5799 20.4312 76.2315 19.7976C77.4888 19.3152 78.5175 17.9653 78.5175 16.7978C78.5175 13.919 85.5754 14.0599 86.6887 16.9608C88.1963 20.8889 90.7096 19.4601 90.7096 14.6751C90.7096 11.1469 91.3929 10.1037 93.704 10.1037C95.351 10.1037 97.4325 11.4752 98.3297 13.1513C100.581 17.3565 102.902 16.9697 102.902 12.3894C102.902 9.34181 103.664 8.5799 106.712 8.5799C109.76 8.5799 110.522 9.34181 110.522 12.3894C110.522 15.183 111.335 16.1989 113.57 16.1989C115.805 16.1989 116.618 17.2148 116.618 20.0084C116.618 22.1037 117.304 23.8179 118.142 23.8179C118.98 23.8179 119.666 21.5036 119.666 18.6751C119.666 14.1342 120.223 13.4208 124.428 12.5799C132.226 11.0206 133.382 11.3893 133.382 15.437C133.382 18.986 133.896 19.2465 140.905 19.2465C148.251 19.2465 148.443 19.3633 149.044 24.1989C149.383 26.9332 149.768 24.8857 149.902 19.6274C150.134 10.5798 150.334 10.1037 153.913 10.1037C156.852 10.1037 157.993 11.1904 159.109 15.0561C160.125 18.5732 160.579 19.0663 160.677 16.7576C160.758 14.8449 162.087 13.174 163.906 12.6983C165.606 12.2537 166.897 11.3167 166.773 10.6159C166.65 9.91517 166.631 8.14183 166.73 6.67517C166.952 3.38543 173.006 3.01794 173.006 6.29419C173.006 7.7164 174.446 8.5799 176.816 8.5799C179.547 8.5799 180.626 9.40229 180.626 11.4825C180.626 13.9893 181.458 14.2736 186.722 13.5676C191.678 12.903 192.818 13.2153 192.818 15.2364C192.818 16.6039 193.791 17.7227 194.98 17.7227C199.461 17.7227 201.962 15.7535 201.962 12.2264C201.962 9.26481 202.75 8.57951 206.154 8.57783C210.281 8.57631 210.337 8.70264 209.822 16.9588C209.279 25.6871 211.727 28.7084 213.529 21.5322C214.055 19.437 215.439 17.7227 216.606 17.7227C217.772 17.7227 218.727 17.037 218.727 16.1989C218.727 15.3608 220.393 14.6751 222.431 14.6751C225.06 14.6751 226.326 15.6697 226.795 18.1036C227.158 19.9894 227.549 18.1874 227.663 14.0994L227.871 6.66658L234.118 7.66538C240.243 8.64467 244.635 11.467 244.635 14.4236C244.635 15.2431 246.006 15.555 247.683 15.1166C249.37 14.6756 250.731 13.0381 250.731 11.4498C250.731 9.40444 251.825 8.5799 254.541 8.5799C257.589 8.5799 258.351 9.34181 258.351 12.3894C258.351 14.6728 259.222 16.1989 260.525 16.1989C261.721 16.1989 263.013 17.3989 263.396 18.8656C263.921 20.8723 264.137 20.6837 264.27 18.1036C264.511 13.4415 272.067 13.0723 272.067 17.7227C272.067 19.3989 272.753 20.7703 273.591 20.7703C274.429 20.7703 275.115 20.0977 275.115 19.2756C275.115 18.4534 276.83 17.3505 278.925 16.8247C281.66 16.1382 282.735 14.8407 282.735 12.2242C282.735 9.35284 283.543 8.5799 286.545 8.5799C289.339 8.5799 290.355 9.39263 290.355 11.6275C290.355 13.3822 291.371 14.6751 292.75 14.6751C296.242 14.6751 299.158 18.1494 299.909 23.2045C300.564 27.611 300.567 27.609 300.795 22.6751C300.946 19.3904 301.793 17.7228 303.309 17.7228C304.732 17.7228 305.595 16.2836 305.595 13.9133C305.595 10.8657 306.357 10.1037 309.405 10.1037C311.501 10.1037 313.215 10.7116 313.215 11.4545C313.215 12.1975 316.301 13.2681 320.073 13.8336C324.547 14.5044 326.931 15.6241 326.931 17.0542C326.931 18.26 327.617 19.2466 328.455 19.2466C329.294 19.2466 329.979 20.1564 329.979 21.2684C329.979 24.9967 338.306 22.341 341.483 17.5993C343.294 14.8968 345.799 13.1584 347.887 13.1557C350.703 13.1527 351.348 14.0358 351.496 18.1037L351.676 23.0561L352.654 18.4847C353.544 14.3239 354.433 13.7441 358.848 14.4466C359.638 14.5723 360.552 17.5894 360.88 21.1513C361.374 26.53 361.677 27.0465 362.669 24.1989C363.326 22.3132 365.075 20.7703 366.556 20.7703C368.037 20.7703 369.607 19.3989 370.045 17.7228C370.584 15.6634 372.124 14.6752 374.795 14.6752C378.296 14.6752 378.748 15.2842 378.748 20.0085C378.748 22.9418 379.434 25.3418 380.272 25.3418C381.11 25.3418 381.796 23.2895 381.796 20.7813C381.796 16.4369 382.085 16.2322 387.892 16.4597C391.245 16.5911 393.988 17.2719 393.988 17.9726C393.988 20.6838 399.856 19.0592 403.606 15.3098C408.304 10.612 412.507 10.9761 413.962 16.207C414.991 19.9024 415.024 19.911 415.172 16.5162C415.372 11.9224 420.41 6.63818 423.941 7.3182C426.129 7.73935 426.643 9.01786 426.296 13.1709C425.962 17.1577 426.615 18.9544 428.91 20.3654C431.615 22.028 432.434 21.6379 435.97 17.0027C438.17 14.1188 439.527 11.0439 438.987 10.1696C438.389 9.20246 439.774 8.58 442.524 8.58C446.134 8.58 446.898 9.13467 446.322 11.3367C445.83 13.2185 446.842 14.659 449.513 15.8754C451.664 16.8555 453.424 17.0507 453.424 16.309C453.424 15.5673 454.796 15.3191 456.472 15.7574C458.922 16.3981 459.52 15.8038 459.52 12.7302C459.52 8.96202 463.048 6.23065 465.754 7.90307C466.517 8.37429 467.162 10.2622 467.189 12.0985C467.215 13.9347 468.244 16.7682 469.475 18.395C471.557 21.1473 471.712 20.909 471.712 14.9664C471.712 9.17008 472.065 8.58 475.522 8.58C477.893 8.58 479.333 9.44346 479.333 10.8657C479.333 12.1228 480.018 13.1514 480.857 13.1514C481.695 13.1514 482.381 12.1228 482.381 10.8657C482.381 9.44346 483.82 8.58 486.191 8.58C488.3 8.58 490.001 9.46388 490.001 10.5597C490.001 11.925 491.656 12.3462 495.335 11.9168C499.531 11.427 500.669 11.8316 500.669 13.8134C500.669 16.6793 504.859 16.5191 508.017 13.5323C512.866 8.94569 522.005 12.6808 522.005 19.2494C522.005 21.52 522.805 22.3636 524.626 22.0129C526.345 21.6819 527.687 19.2835 528.526 15.044C529.77 8.75077 529.963 8.57995 535.811 8.57995C540.686 8.57995 541.817 9.12257 541.817 11.4624C541.817 13.2661 543.243 14.7026 545.627 15.3009C548.636 16.0561 549.485 17.2917 549.665 21.1803C549.879 25.7893 549.934 25.8361 550.529 21.9132C550.878 19.6085 552.073 17.7228 553.185 17.7228C554.297 17.7228 555.563 16.7957 555.998 15.6626C556.432 14.5295 559.964 13.1672 563.845 12.6353C570.549 11.7166 571.146 11.9446 575.791 17.1981C578.479 20.2395 581.125 24.1732 581.67 25.9396C582.449 28.4626 582.694 28.5795 582.813 26.4846C582.897 25.0179 583.651 23.8179 584.489 23.8179C585.327 23.8179 586.013 20.7322 586.013 16.9608C586.013 11.0174 586.438 10.1037 589.204 10.1037C591.053 10.1037 592.712 11.3168 593.149 12.9882C593.777 15.3878 594.97 15.7561 600.245 15.1794C610.93 14.0113 613.446 13.1837 613.446 10.8366C613.446 9.44537 614.907 8.57995 617.256 8.57995C620.304 8.57995 621.066 9.34181 621.066 12.3894C621.066 14.4846 621.701 16.1989 622.478 16.1989C623.255 16.1989 624.204 17.3989 624.587 18.8656C625.016 20.5062 625.352 19.9199 625.461 17.3418C625.603 13.9751 626.362 13.1513 629.321 13.1513C631.346 13.1513 633.252 13.8966 633.556 14.8074C634.37 17.2508 645.45 14.8405 645.45 12.2198C645.45 10.9991 647.005 10.1037 649.126 10.1037C652.227 10.1037 652.963 11.0571 653.832 16.1989C654.398 19.5513 655.166 22.2941 655.539 22.2941C655.912 22.2941 658.647 21.2784 661.619 20.037C666.104 18.1629 666.974 17.0637 666.742 13.5608C666.082 3.59281 666.722 0.960938 669.781 0.960938C672.225 0.960938 672.963 2.36413 673.788 8.57995C674.924 17.147 677.456 18.4134 681.404 12.3894C684.789 7.22382 686.168 7.60169 685.574 13.5323C685.302 16.2561 685.478 17.6275 685.965 16.5799C686.453 15.5323 688.509 14.6751 690.535 14.6751C693.989 14.6751 694.225 15.2207 694.338 23.437C694.465 32.7082 694.897 32.7082 696.448 23.437C697.259 18.5914 697.99 17.7227 701.26 17.7227C704.696 17.7227 705.062 17.1834 704.62 12.7704C704.179 8.37154 704.55 7.81803 707.934 7.81803C710.029 7.81803 711.6 8.59197 711.425 9.53788C711.249 10.4838 713.821 11.6919 717.14 12.2226C722.347 13.055 723.174 13.7222 723.174 17.0877C723.174 20.5546 723.428 20.734 725.46 18.7023C726.717 17.4452 727.746 15.3391 727.746 14.0221C727.746 12.7051 728.432 11.6275 729.27 11.6275C730.108 11.6275 730.794 9.91326 730.794 7.81803C730.794 4.2625 731.302 4.00852 738.414 4.00852C745.526 4.00852 746.034 4.26251 746.034 7.81803C746.034 10.5822 746.852 11.6275 749.013 11.6275C751.227 11.6275 752.257 13.0367 753.021 17.1116C753.588 20.1278 754.475 21.9409 754.995 21.1408C755.515 20.3407 758.684 19.0508 762.036 18.2743C767.849 16.9282 768.154 16.563 768.601 10.4355C769.014 4.76416 769.507 4.00852 772.792 4.00852C776.326 4.00852 776.515 4.47226 776.515 13.1513C776.515 18.2307 777.192 22.2941 778.039 22.2941C778.877 22.2941 779.563 20.2129 779.563 17.6691C779.563 11.8257 783.605 5.53232 787.358 5.53232C788.938 5.53232 790.231 6.22615 790.231 7.07415C790.231 8.01949 792.589 8.2389 796.327 7.64133L802.423 6.66663V14.4804C802.423 22.1869 802.489 22.2942 807.104 22.2942C812.753 22.2942 815.863 19.4804 817.112 13.2398C818.344 7.08018 823.345 6.7413 824.039 12.7704C824.417 16.0618 825.42 17.0643 828.712 17.443C831.705 17.7874 832.903 17.2432 832.903 15.5383C832.903 14.0081 834.27 13.1514 836.713 13.1514C839.789 13.1514 840.523 13.906 840.523 17.0697C840.523 20.5527 840.777 20.7341 842.809 18.7024C844.066 17.4453 845.095 14.9229 845.095 13.0972C845.095 10.5587 845.722 10.0204 847.762 10.8094C849.229 11.3768 852.315 12.2216 854.62 12.6867C856.925 13.1518 858.811 14.1813 858.811 14.9745C858.811 16.4701 862.598 20.7704 863.915 20.7704C864.328 20.7704 865.117 18.7133 865.669 16.199C866.448 12.6553 867.503 11.6276 870.362 11.6276C873.445 11.6276 874.051 12.3787 874.051 16.199C874.051 19.7545 874.728 20.7704 877.099 20.7704C879.778 20.7704 880.147 19.7545 880.147 12.3895V4.00857H885.481C890.344 4.00857 890.815 4.39684 890.815 8.40229C890.815 11.5144 891.704 13.0284 893.863 13.5929C895.844 14.1109 896.911 13.6393 896.911 12.2468C896.911 10.9924 898.449 10.1038 900.62 10.1038C903.533 10.1038 904.432 11.0029 904.811 14.2942C905.474 20.0544 908.325 18.8337 908.412 12.7527C908.471 8.54592 909.09 7.74699 912.603 7.33594C916.325 6.90035 916.738 7.34225 916.876 11.9073C916.959 14.6868 917.577 18.6752 918.248 20.7704L919.468 24.5799L919.62 20.3895C919.715 17.748 920.617 16.199 922.058 16.199C923.603 16.199 924.344 14.653 924.344 11.4282C924.344 6.76326 924.471 6.67842 930.059 7.60197C933.202 8.12147 936.855 8.55401 938.177 8.56323C939.978 8.57515 940.412 9.7255 939.909 13.1514C939.506 15.8955 939.915 17.7228 940.935 17.7228C941.869 17.7228 942.632 17.0371 942.632 16.199C942.632 15.3609 944.347 14.6752 946.442 14.6752C949.236 14.6752 950.252 15.4879 950.252 17.7228C950.252 19.4159 951.268 20.7704 952.538 20.7704C953.917 20.7704 954.824 22.1814 954.824 24.326C954.824 28.9122 956.304 30.3233 958.875 28.1896C960.074 27.1943 960.92 23.4187 960.92 19.06C960.92 12.148 961.187 11.6276 964.73 11.6276C967.101 11.6276 968.54 12.4911 968.54 13.9133C968.54 15.1831 969.895 16.199 971.588 16.199C973.527 16.199 974.636 17.2149 974.636 18.9909C974.636 20.8541 976.411 22.3274 979.97 23.4197C984.314 24.7526 985.304 24.6586 985.304 22.9135C985.304 21.7348 986.333 20.7704 987.59 20.7704C988.981 20.7704 989.877 19.3524 989.877 17.1514C989.877 14.3171 990.909 13.3258 994.639 12.58C1002.93 10.9229 1003.58 11.2611 1003.82 17.3418C1004 21.9383 1004.17 22.2363 1004.68 18.8656C1005.17 15.6571 1006.16 14.6752 1008.92 14.6752C1011.06 14.6752 1012.79 15.7522 1013.21 17.3418C1013.87 19.8815 1013.92 19.8815 1014.08 17.3418C1014.2 15.5604 1015.53 14.6752 1018.07 14.6752C1021.11 14.6752 1021.88 15.4403 1021.88 18.4369C1021.88 21.2507 1022.49 21.9641 1024.31 21.268C1026.09 20.582 1026.58 18.7918 1026.17 14.4587C1025.64 8.88666 1025.84 8.57995 1029.93 8.57995C1032.31 8.57995 1033.87 9.19524 1033.41 9.94726C1031.61 12.8608 1034.41 20.0963 1038 21.7892C1041.46 23.4215 1041.69 23.2522 1041.69 19.1032C1041.69 15.625 1042.38 14.6752 1044.88 14.6752C1046.79 14.6752 1048.39 13.451 1048.87 11.6276C1049.31 9.94087 1050.95 8.57995 1052.54 8.57995C1054.8 8.57995 1055.41 9.70595 1055.41 13.9133C1055.41 18.1534 1056.01 19.2466 1058.33 19.2466C1059.94 19.2466 1061.6 20.1037 1062.02 21.1513C1062.44 22.1989 1062.84 19.799 1062.91 15.818C1063.02 9.14539 1063.33 8.57995 1066.84 8.57995C1070.06 8.57995 1070.65 9.2911 1070.65 13.1514C1070.65 16.199 1071.41 17.7228 1072.94 17.7228C1074.19 17.7228 1075.22 16.6942 1075.22 15.4371C1075.22 12.4541 1081.15 12.4541 1082.29 15.4371C1082.77 16.6942 1084.81 17.7228 1086.81 17.7228C1088.82 17.7228 1090.46 18.4085 1090.46 19.2466C1090.46 20.0847 1091.15 20.7704 1091.99 20.7704C1092.82 20.7704 1093.51 18.9685 1093.51 16.7661C1093.51 12.9231 1093.76 12.8026 1099.84 13.7742C1107.43 14.9882 1108.75 15.6972 1108.75 18.5746C1108.75 19.7823 1109.14 20.7704 1109.62 20.7704C1111.12 20.7704 1114.85 16.4974 1114.85 14.784C1114.85 13.8861 1116.56 13.1514 1118.66 13.1514C1121.73 13.1514 1122.47 13.9069 1122.47 17.0575C1122.47 20.5463 1122.99 20.9125 1127.42 20.486C1132.25 20.0203 1132.38 19.8099 1132.83 12.0085C1133.25 4.6621 1133.6 4.00857 1137.02 4.00857C1140.15 4.00857 1140.75 4.7457 1140.75 8.57995C1140.75 12.4108 1141.36 13.1514 1144.47 13.1514C1146.52 13.1514 1148.62 13.8371 1149.14 14.6752C1150.52 16.91 1155.96 16.5332 1156.88 14.1392C1157.9 11.4688 1165.14 12.7612 1165.14 15.6147C1165.14 16.7741 1165.82 17.7228 1166.66 17.7228C1167.5 17.7228 1168.19 17.0371 1168.19 16.199C1168.19 15.3609 1169.9 14.6752 1172 14.6752C1174.09 14.6752 1175.81 15.3609 1175.81 16.199C1175.81 17.0371 1178.21 17.7228 1181.14 17.7228C1186.05 17.7228 1186.47 17.36 1186.47 13.1514C1186.47 9.54736 1187.14 8.57995 1189.62 8.57995C1194.53 8.57995 1198.23 11.188 1199.28 15.3969C1200.53 20.3593 1203.24 20.3869 1203.24 15.4373C1203.24 12.3897 1204 11.6278 1207.05 11.6278C1210.55 11.6278 1210.86 12.1865 1210.86 18.4849C1210.86 22.2563 1211.54 25.342 1212.38 25.342C1213.22 25.342 1213.91 23.6277 1213.91 21.5325C1213.91 16.9551 1218.92 16.269 1223.31 20.2449C1224.98 21.7537 1226.1 22.0598 1226.1 21.0068C1226.1 20.0388 1227.47 19.2468 1229.15 19.2468C1231.61 19.2468 1232.19 18.2309 1232.19 13.9135C1232.19 10.1887 1232.88 8.58021 1234.48 8.58021C1235.74 8.58021 1236.77 7.89446 1236.77 7.05636C1236.77 6.21828 1238.48 5.53257 1240.58 5.53257C1242.95 5.53257 1244.39 6.39608 1244.39 7.81828C1244.39 9.07542 1245.07 10.104 1245.91 10.104C1246.75 10.104 1247.43 12.1149 1247.43 14.5727C1247.43 17.7031 1248.35 19.3311 1250.48 20.0087C1252.64 20.692 1253.53 22.3142 1253.53 25.5346C1253.53 28.1857 1254.17 29.6992 1255.05 29.1515C1255.89 28.6335 1256.58 24.4788 1256.58 19.9187C1256.58 12.6009 1256.94 11.6278 1259.67 11.6278C1261.38 11.6278 1263.21 12.8278 1263.75 14.2944C1264.76 17.0282 1267.12 19.182 1269.15 19.2235C1269.78 19.2354 1270.29 16.8468 1270.29 13.9135C1270.29 9.66012 1270.89 8.58021 1273.24 8.58021C1275.13 8.58021 1276.35 7.35499 1276.67 5.15163C1276.97 2.98805 1278.38 1.54874 1280.47 1.25057C1283.12 0.873791 1283.89 1.64564 1284.28 5.06008C1284.75 9.15951 1285.08 9.3226 1292.01 8.88484C1299.05 8.44025 1299.25 8.54672 1299.25 12.7412C1299.25 16.1348 1300.23 17.4229 1303.82 18.7804C1306.91 19.9467 1308.39 19.9903 1308.39 18.9151C1308.39 17.948 1310.49 17.6636 1313.73 18.1897C1318.45 18.956 1319.07 18.6731 1319.12 15.7224C1319.18 12.7664 1319.47 12.9064 1321.72 16.9611C1323.72 20.5676 1324.37 20.9697 1324.82 18.8659C1325.67 14.8308 1332.2 15.4098 1333.41 19.6277C1333.95 21.5134 1334.82 36.9231 1335.34 53.8714C1336.2 81.67 1336.05 84.7811 1333.77 85.6533C1331.77 86.4231 1331.25 88.7596 1331.25 97.1237C1331.25 103.55 1330.62 107.627 1329.63 107.627C1328.62 107.627 1328.08 111.504 1328.22 117.913C1328.34 123.57 1328.39 132.141 1328.32 136.96C1328.21 145.26 1328.01 145.722 1324.4 145.722C1322.3 145.722 1320.59 146.456 1320.59 147.352C1320.59 148.248 1319.04 148.763 1317.16 148.495C1313.96 148.041 1313.7 147.157 1313.29 135.437C1312.93 125.389 1312.38 122.865 1310.52 122.865C1309.23 122.865 1308.32 124.041 1308.47 125.532C1309.26 133.206 1308.33 136.579 1305.45 136.579C1303.4 136.579 1302.31 135.297 1301.87 132.389C1301.36 129.018 1301.19 129.316 1301 133.913C1300.81 138.86 1300.29 139.627 1297.13 139.627H1293.48L1292.94 116.28C1292.48 96.7912 1291.96 92.5034 1289.79 90.3341C1287.34 87.8848 1287.17 88.3733 1286.75 98.8242C1286.33 109.004 1286.02 109.953 1282.87 110.4C1279.61 110.862 1279.44 110.389 1279.44 100.876C1279.44 90.6152 1276.55 86.4411 1276.2 96.1987C1276.1 99.132 1275.84 102.218 1275.63 103.056C1275.42 103.894 1275.16 106.637 1275.06 109.151C1274.91 112.643 1274.15 113.722 1271.82 113.722C1269.43 113.722 1268.73 112.648 1268.59 108.77C1268.5 106.046 1268.12 104.947 1267.75 106.328C1267.07 108.905 1262.87 110.617 1257.15 110.654C1253.18 110.677 1252.01 115.426 1252.01 131.437C1252.01 142.408 1251.92 142.675 1248.2 142.675H1244.39V122.266C1244.39 105.71 1243.96 101.696 1242.14 100.998C1240.91 100.525 1238.85 101.186 1237.57 102.467C1235.72 104.318 1235.24 108.852 1235.24 124.498V144.198H1231.43C1229.34 144.198 1227.62 144.884 1227.62 145.722C1227.62 146.56 1226.25 147.246 1224.57 147.246C1221.89 147.246 1221.5 146.167 1221.34 138.103C1221.1 126.896 1221.04 126.446 1219.62 125.024C1218.99 124.395 1218.35 116.281 1218.2 106.992C1218.04 97.7035 1217.66 93.8749 1217.35 98.4844C1216.67 108.487 1215.66 109.778 1209.56 108.44C1205.31 107.505 1204.87 106.822 1204.35 100.285C1204.04 96.3616 1203.66 103.209 1203.51 115.503C1203.36 127.796 1202.82 138.939 1202.31 140.264C1201.8 141.59 1199.69 142.675 1197.62 142.675C1194.34 142.675 1193.9 143.303 1194.13 147.627C1194.28 150.351 1194.33 155.836 1194.25 159.817C1194.11 166.481 1193.79 167.055 1190.28 167.055H1186.47V144.96C1186.47 131.246 1185.9 122.865 1184.95 122.865C1184.07 122.865 1183.3 116.952 1183.13 108.77C1182.86 96.1033 1182.78 95.7559 1182.36 105.342C1181.71 120.024 1180.89 122.865 1177.3 122.865C1174.63 122.865 1174.28 123.91 1174.28 132.008C1174.28 140.596 1174.06 141.151 1170.69 141.151C1167.15 141.151 1167.09 140.859 1166.2 121.722C1165.11 98.2542 1164.42 95.4368 1159.75 95.4368C1157.83 95.4368 1155.98 94.6277 1155.65 93.6389C1155.32 92.6494 1153.91 92.2778 1152.52 92.8126C1150.36 93.6402 1149.99 96.3342 1150.02 110.991C1150.09 140.112 1150.38 138.103 1146.09 138.103C1142.66 138.103 1142.28 137.494 1142.28 132.008C1142.28 127.606 1141.64 125.913 1139.99 125.913C1138.46 125.913 1137.71 127.448 1137.71 130.59C1137.71 134.569 1137.19 135.195 1134.28 134.781C1131.06 134.324 1130.8 133.397 1130.07 119.818C1129.35 106.278 1129.22 105.801 1128.02 112.442C1127.14 117.299 1125.87 119.768 1123.99 120.258C1121.6 120.884 1121.23 122.937 1121.07 136.595C1120.96 145.187 1120.51 152.813 1120.06 153.541C1118.62 155.871 1114.08 154.962 1111.37 151.8C1109.18 149.24 1108.7 145.036 1108.45 126.276C1108.29 113.924 1107.91 108.528 1107.62 114.286C1107.3 120.498 1106.22 125.609 1104.97 126.857C1102.16 129.676 1096.56 129.555 1096.56 126.675C1096.56 125.405 1095.2 124.389 1093.51 124.389C1090.78 124.389 1090.45 123.324 1090.31 114.103C1090.23 108.446 1090.29 101.246 1090.43 98.1034C1090.68 92.6813 1090.45 92.3891 1086.01 92.3891C1083.43 92.3891 1081.32 91.7034 1081.32 90.8653C1081.32 90.0272 1080.63 89.3414 1079.79 89.3414C1078.85 89.3414 1078.27 97.7224 1078.27 111.437V133.532H1074.46H1070.65L1070.31 108.008L1069.97 82.4844L1069.51 104.96L1069.04 127.437H1065.27H1061.5V111.437C1061.5 101.786 1060.9 95.4367 1059.98 95.4367C1059.03 95.4367 1058.46 104.57 1058.46 119.788V144.14L1054.73 145.075C1052.69 145.589 1050.29 145.561 1049.4 145.015C1048.42 144.409 1047.7 136.165 1047.57 123.919C1047.4 107.776 1047.13 105.469 1046.2 112.2C1045.56 116.809 1044.97 127.609 1044.89 136.2C1044.74 151.562 1044.68 151.819 1041.14 151.819C1038.01 151.819 1037.41 150.892 1036.57 144.749C1036.03 140.86 1035.6 131.554 1035.6 124.069C1035.6 114.002 1035 109.863 1033.31 108.173C1031.28 106.141 1031.02 107.837 1031.02 123.444C1031.02 137.681 1030.58 141.249 1028.67 142.316C1027.05 143.224 1026.04 147.026 1025.4 154.582C1024.55 164.807 1024.25 165.533 1020.9 165.533H1017.31L1017.06 128.581C1016.93 108.257 1016.54 93.8571 1016.21 96.5809C1015.76 100.167 1014.81 101.533 1012.76 101.533C1007.77 101.533 1005.12 99.7656 1005.09 96.4179C1005.08 94.6219 1004.5 92.2491 1003.8 91.1453C1002.26 88.7236 1000.55 103.283 1000.53 118.9C1000.53 124.853 1000.09 134.352 999.551 140.009C998.653 149.521 998.31 150.295 994.99 150.295C991.565 150.295 991.393 149.789 991.239 139.247C991.15 133.171 991.193 126.382 991.338 124.16C991.481 121.939 990.868 119.67 989.976 119.118C989.083 118.566 988.353 116.441 988.353 114.396C988.353 110.214 986.117 109.411 984.706 113.086C984.197 114.412 983.781 124.355 983.781 135.182L983.781 154.866H979.971H976.161L975.998 119.438C975.877 93.1786 975.459 85.6856 974.384 90.4857C973.287 95.3825 972.212 96.9618 969.975 96.9618C967.704 96.9618 967.017 98.0239 967.017 101.533C967.017 104.048 966.331 106.105 965.493 106.105C964.547 106.105 963.969 114.486 963.969 128.2V150.295H960.293H956.617L956.102 126.038C955.818 112.697 955.105 101.3 954.515 100.712C953.925 100.124 951.718 100.076 949.609 100.605C945.804 101.56 945.771 101.714 945.347 120.217C944.933 138.248 944.806 138.882 941.49 139.353C938.112 139.832 938.061 139.591 938.061 123.02C938.061 108.695 937.722 106.33 935.775 107.077C934.518 107.56 933.489 109.595 933.489 111.601C933.489 113.757 932.593 115.247 931.296 115.247C929.534 115.247 929.092 118.317 929.047 130.854C929.014 140.104 928.356 146.672 927.43 146.981C926.571 147.267 925.869 150.187 925.869 153.469C925.869 158.819 925.474 159.437 922.059 159.437H918.249V127.438C918.249 107.12 917.692 95.4378 916.725 95.4378C915.886 95.4378 915.201 97.7973 915.201 100.681C915.201 103.565 914.471 106.375 913.579 106.926C912.659 107.495 912.05 112.311 912.171 118.064C912.57 137.051 912.415 138.104 909.214 138.104C906.21 138.104 905.631 135.643 904.021 116.009C903.746 112.657 903.406 119.685 903.265 131.628L903.008 153.342H899.198C895.465 153.342 895.388 153.103 895.35 141.533C895.284 122.049 894.099 108.468 892.409 107.905C891.533 107.613 890.816 105.448 890.816 103.093C890.816 100.693 889.812 98.426 888.53 97.9343C886.594 97.1914 886.244 99.3448 886.244 112.01C886.244 120.235 885.797 134.27 885.251 143.2C884.287 158.942 884.148 159.437 880.679 159.437H877.1L877.08 126.295C877.067 108.066 876.409 92.1275 875.617 90.8751C874.655 89.3535 874.185 93.3499 874.2 102.924C874.214 111.043 873.55 117.666 872.669 118.21C871.747 118.78 871.161 126.28 871.23 136.637C871.345 153.971 871.319 154.104 867.776 154.104C865.273 154.104 864.163 153.194 864.058 151.057C863.708 143.907 863.214 142.863 859.959 142.401C857.723 142.083 856.356 140.688 856.03 138.392C855.755 136.455 854.556 134.496 853.363 134.039C852.093 133.551 851.195 131.118 851.195 128.163C851.195 125.39 850.451 122.872 849.542 122.569C848.564 122.244 847.473 114.914 846.874 104.66C846.187 92.8854 845.249 87.0991 843.956 86.6715C842.6 86.2222 842.051 88.2698 842.051 93.787C842.051 99.4835 841.475 101.533 839.875 101.533C838.131 101.533 837.752 104.234 837.97 115.114L838.241 128.696L832.682 129.583C829.625 130.072 824.995 130.046 822.395 129.524L817.667 128.578V138.868V149.158L811.247 148.132C807.716 147.568 804.632 146.91 804.393 146.671C804.153 146.432 803.785 135.32 803.573 121.979C803.195 98.1162 803.134 97.7136 799.76 97.2346C797.278 96.8821 796.331 95.7247 796.331 93.0441C796.331 91.0072 795.704 89.3406 794.937 89.3406C794.17 89.3406 793.061 94.4834 792.472 100.769C791.467 111.494 791.177 112.198 787.77 112.198C783.905 112.198 783.524 110.729 784.108 98.1025C784.332 93.2491 783.895 92.3882 781.207 92.3882C778.215 92.3882 778.043 93.217 778.043 107.626V122.864H774.233C770.99 122.864 770.423 122.163 770.423 118.15C770.423 114.718 769.594 113.219 767.375 112.639C765.485 112.145 764.254 110.462 764.136 108.21C763.847 102.705 763.661 101.881 762.422 100.642C761.793 100.013 761.279 100.642 761.279 102.039C761.279 103.839 759.961 104.579 756.755 104.579C753.359 104.579 752.449 104.008 753.108 102.293C753.663 100.845 753.088 100.007 751.536 100.007C749.753 100.007 749.087 98.5565 749.087 94.6739C749.087 91.7405 748.49 89.3406 747.762 89.3406C745.669 89.3406 744.55 99.3286 744.521 118.293C744.501 127.931 744.056 140.445 743.521 146.102C742.626 155.585 742.272 156.388 738.993 156.388H735.436L735.022 127.055C734.612 97.9378 734.583 97.7179 731.179 97.2346C728.629 96.8723 727.75 95.7341 727.75 92.7901C727.75 90.6135 727.44 89.1429 727.061 89.5221C725.839 90.7443 724.888 104.881 724.794 123.245L724.703 141.15H720.892C718.035 141.15 717.017 142.007 716.822 144.578C716.678 146.464 716.408 149.035 716.222 150.293C716.035 151.55 715.809 153.778 715.721 155.245C715.612 157.03 714.3 157.912 711.749 157.912C708.076 157.912 707.939 157.556 707.939 148.007C707.939 139.118 707.626 138.102 704.891 138.102C703.214 138.102 701.843 137.416 701.843 136.578C701.843 135.74 701.245 135.055 700.515 135.055C699.784 135.055 698.695 143.283 698.095 153.34C697.138 169.376 696.673 171.626 694.317 171.626C692.019 171.626 691.488 169.609 690.641 157.678C690.096 150.006 689.651 132.177 689.651 118.059C689.651 101.961 689.082 92.3882 688.127 92.3882C687.288 92.3882 686.603 96.1596 686.603 100.769C686.603 105.379 685.917 109.15 685.079 109.15C684.232 109.15 683.555 113.213 683.555 118.293C683.555 125.404 683.047 127.436 681.269 127.436C679.397 127.436 678.983 130.06 678.983 141.912C678.983 156.337 678.969 156.388 675.173 156.388H671.363L671.182 130.102C671.083 115.645 671.083 103.302 671.182 102.674C671.282 102.045 670.677 101.531 669.839 101.531C668.992 101.531 668.315 105.594 668.315 110.674C668.315 119.41 668.145 119.817 664.505 119.817C661.711 119.817 660.695 119.004 660.695 116.769C660.695 115.076 659.679 113.721 658.409 113.721C657.151 113.721 656.123 114.75 656.123 116.007C656.123 117.429 654.683 118.293 652.313 118.293C648.858 118.293 648.496 117.689 648.43 111.817C648.335 103.257 647.254 91.1226 646.123 85.912C644.432 78.1258 642.407 81.6549 642.407 92.3882C642.407 102.75 642.298 103.055 638.597 103.055C635.525 103.055 634.787 102.299 634.787 99.1553C634.787 96.7988 634.148 95.6505 633.173 96.2533C632.285 96.8016 631.675 98.728 631.817 100.534C631.96 102.339 632 108.445 631.907 114.102C631.746 123.917 631.57 124.388 628.055 124.388C626.03 124.388 624.026 123.531 623.604 122.483C623.181 121.436 622.781 127.264 622.715 135.436C622.608 148.612 622.288 150.293 619.885 150.293C615.129 150.293 611.94 144.76 611.75 136.18C611.652 131.79 611.259 129.397 610.876 130.864C610.454 132.48 608.721 133.531 606.481 133.531C603.387 133.531 602.782 134.279 602.782 138.102C602.782 141.962 602.19 142.674 598.972 142.674C596.877 142.674 595.156 142.159 595.149 141.531C595.143 140.902 594.39 132.502 593.477 122.864C592.565 113.226 591.919 102.083 592.042 98.1025C592.237 91.7495 591.883 90.8644 589.141 90.8644C586.078 90.8644 586.018 91.5801 586.018 128.197V165.531H582.208C577.848 165.531 578.161 168.512 578.331 128.578C578.395 113.35 577.869 104.579 576.891 104.579C575.938 104.579 575.35 111.555 575.35 122.864C575.35 140.134 575.181 141.15 572.302 141.15C569.706 141.15 569.254 142.166 569.254 148.007C569.254 154.255 568.925 154.864 565.545 154.864C562.635 154.864 561.733 153.964 561.354 150.687C561.063 148.167 559.814 146.308 558.205 146.003C555.843 145.556 555.538 146.907 555.538 157.8C555.538 169.701 555.421 170.102 551.952 170.102C548.502 170.102 548.327 169.539 547.341 155.245C546.777 147.074 545.891 131.988 545.371 121.721C544.651 107.501 543.935 103.055 542.362 103.055C541.038 103.055 540.298 101.231 540.298 97.9661C540.298 93.9918 539.448 92.4901 536.416 91.109C529.159 87.803 527.857 88.6628 528.128 96.5787C528.719 113.788 528.42 115.245 524.296 115.245C521.248 115.245 520.486 114.483 520.486 111.436C520.486 109.065 519.622 107.626 518.2 107.626C516.942 107.626 515.914 106.549 515.914 105.232C515.914 102.922 512.477 98.4834 510.688 98.4834C510.209 98.4834 509.818 107.398 509.818 118.293V138.102H506.008H502.198V117.694C502.198 100.959 501.786 97.1278 499.912 96.4085C498.502 95.8678 497.538 93.3212 497.397 89.7693C497.226 85.4414 497.015 85.0116 496.549 88.0426C496.183 90.424 494.715 92.3952 492.967 92.8522C490.259 93.5604 490.005 95.0723 490.005 110.531V127.436H486.195C482.468 127.436 482.383 127.178 482.278 115.626C482.206 107.613 481.75 104.796 480.861 106.864C480.141 108.541 479.503 115.912 479.445 123.245C479.339 136.423 479.293 136.578 475.527 136.578C471.802 136.578 471.717 136.325 471.717 125.15C471.717 118.547 471.074 113.721 470.193 113.721C469.355 113.721 468.669 112.35 468.669 110.674C468.669 108.642 467.653 107.626 465.621 107.626C462.273 107.626 462.207 107.37 462.554 95.8167C462.699 90.9893 462.146 87.8168 461.16 87.8168C460.261 87.8168 459.525 88.8454 459.525 90.1025C459.525 93.201 453.835 93.0159 450.653 89.8139C448.254 87.3998 448.063 87.518 447.577 91.7137C447.292 94.1745 446.448 96.5646 445.703 97.0251C444.958 97.4852 443.882 114.459 443.312 134.744L442.276 171.626H438.704H435.136L434.975 137.721C434.886 119.074 434.93 101.999 435.074 99.7775C435.217 97.5559 434.604 95.2868 433.711 94.7352C432.738 94.134 432.012 95.2944 431.898 97.6316C431.793 99.7763 431.536 102.217 431.326 103.055C431.117 103.893 430.86 105.169 430.755 105.891C430.438 108.071 422.944 105.908 422.944 103.639C422.944 102.48 422.258 101.531 421.42 101.531C420.582 101.531 419.977 102.045 420.077 102.674C420.176 103.303 420.176 111.874 420.077 121.721L419.896 139.626H416.086C411.95 139.626 411.716 138.462 412.24 120.553C412.368 116.178 411.45 110.964 410.093 108.363C408.79 105.862 407.637 102.103 407.533 100.007C407.357 96.4726 407.259 96.5276 406.18 100.769C405.54 103.283 404.936 107.912 404.836 111.055C404.711 115.038 403.964 116.769 402.37 116.769C400.948 116.769 399.996 118.354 399.852 120.96C399.724 123.264 399.46 125.836 399.266 126.674C399.071 127.512 398.832 129.055 398.736 130.102C398.639 131.15 397.188 132.007 395.512 132.007C392.084 132.007 392.175 132.471 392.453 116.388C392.589 108.55 392.082 104.579 390.947 104.579C390.006 104.579 389.599 103.992 390.042 103.275C390.485 102.558 389.171 102.292 387.123 102.683L383.397 103.395L382.978 126.463C382.566 149.08 382.491 149.54 379.129 150.018C375.899 150.476 375.7 149.971 375.7 141.346C375.7 136.308 375.014 131.763 374.176 131.245C373.289 130.697 372.652 122.184 372.652 110.875C372.652 96.1517 372.11 90.7307 370.414 88.4891C368.344 85.7529 368.173 86.0738 368.128 92.7693C368.102 96.7502 367.411 100.007 366.593 100.007C365.702 100.007 364.938 110.238 364.688 125.531C364.278 150.517 364.199 151.065 360.918 151.531C357.615 152.002 357.557 151.671 356.897 128.674C356.528 115.841 356.184 102.084 356.133 98.1026C356.081 94.1216 355.319 90.8645 354.439 90.8645C353.448 90.8645 352.84 95.7911 352.84 103.817C352.84 116.617 352.795 116.769 349.03 116.769C345.592 116.769 345.202 116.137 345.039 110.293C344.94 106.731 344.94 103.303 345.039 102.674C345.138 102.045 344.191 101.531 342.934 101.531C341.676 101.531 340.648 102.169 340.648 102.949C340.648 103.729 339.104 104.586 337.219 104.854C333.537 105.377 333.388 106.598 333.116 138.589C333.032 148.473 332.86 148.957 329.598 148.494C326.226 148.014 326.153 147.545 325.168 119.817C324.123 90.3796 322.956 81.3795 320.654 85.0102C319.941 86.1348 319.348 88.5979 319.335 90.4836C319.319 92.8885 318.401 93.9121 316.263 93.9121C314.028 93.9121 313.215 92.8962 313.215 90.1026C313.215 88.0074 312.61 86.2931 311.869 86.2931C310.328 86.2931 308.695 91.5341 308.664 96.5788C308.652 98.4909 307.7 100.007 306.511 100.007C303.956 100.007 302.645 108.008 301.58 130.102C300.841 145.431 300.758 145.721 297.115 145.721H293.403L293.253 124.769C293.042 95.3139 293.176 96.2737 289.212 95.7109C286.254 95.2911 285.752 94.245 285.555 88.0919C285.417 83.7996 285.077 82.5916 284.701 85.058C284.224 88.1766 283.095 89.2692 279.976 89.6294C275.281 90.1713 275.434 89.0615 275.232 124.113C275.116 144.261 275.09 144.406 271.686 143.923C268.329 143.446 268.248 142.962 267.835 120.96L267.414 98.4835H263.644C259.899 98.4835 259.875 98.5762 259.875 112.96C259.875 127.385 259.861 127.436 256.065 127.436H252.255V108.509V89.5829L247.776 88.5992C244.813 87.9486 243.077 86.4887 242.649 84.2877C242.205 82.002 241.937 82.5108 241.794 85.9122C241.618 90.1234 241.017 90.8645 237.777 90.8645C235.248 90.8645 233.967 90.0168 233.967 88.3426C233.967 85.996 233.773 85.996 231.18 88.3426C227.677 91.5123 221.775 91.6606 221.775 88.5788C221.775 87.3216 220.746 86.2931 219.489 86.2931C218.231 86.2931 217.05 85.0931 216.863 83.6264C216.677 82.1598 216.162 97.4168 215.72 117.531L214.917 154.102H211.295C207.869 154.102 207.636 153.489 206.96 142.674C206.568 136.388 206.066 129.188 205.845 126.674C205.625 124.16 205.347 118.502 205.228 114.102C205.065 108.104 204.439 106.102 202.725 106.102C200.883 106.102 200.439 108.473 200.439 118.293C200.439 129.467 200.185 130.483 197.391 130.483C195.155 130.483 194.343 131.499 194.343 134.293C194.343 137.34 193.581 138.102 190.532 138.102H186.722L186.429 113.341C186.267 99.7216 185.892 92.8645 185.594 98.1026C185.086 107.049 184.826 107.626 181.316 107.626C179.01 107.626 177.578 106.751 177.578 105.341C177.578 104.083 176.55 103.055 175.292 103.055C174.035 103.055 173.006 102.369 173.006 101.531C173.006 100.693 171.716 100.007 170.139 100.007C167.64 100.007 167.132 101.677 166.192 112.96C165.39 122.58 164.56 125.912 162.964 125.912C161.209 125.912 160.814 130.114 160.814 148.769V171.626H157.004C153.287 171.626 153.194 171.354 153.194 160.461L153.194 160.462Z" fill="black"/>
</svg>
