<svg width="1333" height="171" viewBox="0 0 1333 171" fill="none" xmlns="http://www.w3.org/2000/svg">
<path d="M571.828 168.465C571.828 167.207 571.142 166.179 570.304 166.179C569.407 166.179 568.779 160.846 568.779 153.227C568.779 145.608 568.152 140.274 567.256 140.274C566.417 140.274 565.732 142.922 565.732 146.157C565.732 149.392 565.295 155.221 564.762 159.109L563.793 166.179H553.332C543.19 166.179 542.871 166.063 542.871 162.369C542.871 159.999 542.008 158.56 540.585 158.56C538.936 158.56 538.257 156.757 538.147 152.084C537.818 138.03 535.555 138.03 535.403 152.084C535.253 166.062 535.219 166.179 531.441 166.179C528.012 166.179 527.631 165.57 527.631 160.084C527.631 154.598 527.25 153.989 523.821 153.989C520.18 153.989 520.011 153.582 520.011 144.846C520.011 136.859 519.643 135.703 517.097 135.703C514.885 135.703 513.935 137.171 513.153 141.798C512.371 146.425 511.421 147.893 509.209 147.893C506.663 147.893 506.295 149.049 506.295 157.036V166.179H498.767H491.239L490.641 160.465L490.043 154.75L489.787 160.465L489.531 166.179H482.672H475.814V153.989C475.814 146.877 475.179 141.798 474.29 141.798C473.452 141.798 472.766 143.17 472.766 144.846C472.766 147.385 471.75 147.893 466.67 147.893C463.318 147.893 460.574 148.579 460.574 149.417C460.574 150.255 458.86 150.941 456.764 150.941C453.014 150.941 452.954 150.748 452.954 138.588C452.954 127.949 452.62 126.362 450.544 127.159C449.218 127.668 447.503 128.084 446.734 128.084C445.964 128.084 445.334 131.855 445.334 136.465C445.334 141.074 444.648 144.846 443.81 144.846C442.939 144.846 442.286 149.417 442.286 155.512C442.286 165.874 442.177 166.179 438.476 166.179C435.138 166.179 434.666 165.519 434.666 160.846C434.666 157.912 433.98 155.512 433.142 155.512C432.304 155.512 431.618 157.912 431.618 160.846C431.618 165.905 431.35 166.179 426.385 166.179C421.866 166.179 421.087 165.63 420.67 162.153C420.368 159.634 418.904 157.656 416.759 156.869C413.62 155.717 413.33 156.058 413.33 160.895C413.33 165.515 412.851 166.179 409.52 166.179H405.71V150.179C405.71 136.973 405.311 134.179 403.424 134.179C401.9 134.179 401.138 135.703 401.138 138.751C401.138 142.306 400.461 143.322 398.09 143.322C395.752 143.322 395.042 144.338 395.042 147.681C395.042 150.078 394.606 155.221 394.073 159.109L393.104 166.179H383.405H373.706L373.544 160.465C373.456 157.322 373.51 152.865 373.659 150.56C373.811 148.255 373.198 146.37 372.297 146.37C371.37 146.37 370.658 149.351 370.658 153.227C370.658 159.525 370.347 160.084 366.848 160.084C363.509 160.084 363.038 159.423 363.038 154.75C363.038 150.077 362.566 149.417 359.228 149.417C356.01 149.417 355.418 148.706 355.418 144.846C355.418 141.894 354.644 140.274 353.234 140.274C350.663 140.274 348.988 144.747 349.371 150.589C350.142 162.332 349.377 166.179 346.274 166.179C343.903 166.179 343.225 165.163 343.225 161.608C343.225 158.56 342.463 157.036 340.939 157.036C339.415 157.036 338.653 158.56 338.653 161.608C338.653 166.077 338.484 166.179 331.033 166.179H323.413L323.273 160.465C322.973 148.194 322.584 145.854 320.746 145.234C319.648 144.864 318.841 145.867 318.841 147.603C318.841 149.26 317.806 151.012 316.541 151.497C315.276 151.983 314.329 152.913 314.436 153.565C314.543 154.217 314.549 157.322 314.447 160.465C314.288 165.496 313.811 166.179 310.456 166.179C307.045 166.179 306.646 165.558 306.646 160.247C306.646 156.523 305.839 154.005 304.479 153.483C303.286 153.026 301.974 151.066 301.562 149.129C300.968 146.341 300.819 146.559 300.843 150.179C300.944 165.391 300.742 166.179 296.74 166.179C293.523 166.179 292.93 165.468 292.93 161.608C292.93 159.093 292.309 157.036 291.549 157.036C290.789 157.036 289.593 150.35 288.891 142.179C288.045 132.327 287.454 129.504 287.137 133.798C286.73 139.311 286.162 140.271 283.318 140.251C278.909 140.224 276.686 138.659 275.757 134.941C275.339 133.265 274.916 139.608 274.819 149.036L274.643 166.179H270.833C267.494 166.179 267.023 165.519 267.023 160.846C267.023 155.936 266.66 155.512 262.451 155.512C258.241 155.512 257.879 155.936 257.879 160.846C257.879 163.779 257.364 166.275 256.736 166.392C256.107 166.509 253.021 166.753 249.878 166.935C244.656 167.236 244.161 166.921 244.142 163.293C244.101 155.116 242.546 152.465 237.799 152.465C235.197 152.465 233.71 153.104 234.256 153.988C234.774 154.826 234.472 155.512 233.584 155.512C232.697 155.512 231.97 156.884 231.97 158.56C231.97 160.795 230.954 161.607 228.16 161.607C224.661 161.607 224.35 161.048 224.35 154.75C224.35 149.532 223.778 147.893 221.955 147.893C220.405 147.893 219.658 149.103 219.838 151.322C219.991 153.207 220.04 157.322 219.947 160.465C219.798 165.499 219.325 166.179 215.968 166.179C212.63 166.179 212.158 165.519 212.158 160.846C212.158 157.121 211.469 155.512 209.872 155.512C208.276 155.512 207.586 157.121 207.586 160.846C207.586 165.925 207.332 166.179 202.252 166.179C198.711 166.179 196.918 165.466 196.918 164.058C196.918 162.892 195.203 161.508 193.108 160.982C189.791 160.149 188.47 157.708 189.117 153.607C189.217 152.979 188.662 152.465 187.886 152.465C187.109 152.465 186.16 151.265 185.776 149.798C185.393 148.331 185 149.703 184.903 152.846C184.779 156.83 184.034 158.56 182.44 158.56C181.017 158.56 180.154 159.999 180.154 162.369C180.154 165.798 179.544 166.179 174.058 166.179C168.571 166.179 167.962 165.798 167.962 162.369C167.962 159.322 167.2 158.56 164.152 158.56C161.781 158.56 160.342 157.696 160.342 156.274C160.342 154.852 158.902 153.988 156.532 153.988C152.976 153.988 152.722 153.48 152.722 146.369C152.722 142.179 152.036 138.75 151.198 138.75C150.303 138.75 149.674 144.029 149.674 151.54C149.674 164.969 149.033 166.179 141.929 166.179C139.401 166.179 139.006 165.044 139.006 157.798C139.006 153.188 138.32 149.417 137.481 149.417C136.643 149.417 135.958 148.331 135.958 147.004C135.958 145.677 135.1 144.875 134.052 145.221C132.846 145.62 131.982 149.579 131.697 156.015C131.269 165.668 131.058 166.179 127.506 166.179C123.932 166.179 123.753 165.721 123.484 155.893C123.219 146.258 123.166 146.113 122.642 153.607C122.13 160.927 121.765 161.607 118.352 161.607C114.996 161.607 114.611 160.957 114.514 155.131C114.431 150.116 114.112 149.342 113.097 151.703C112.377 153.379 111.739 157.322 111.68 160.465C111.586 165.515 111.131 166.179 107.763 166.179C104.334 166.179 103.953 165.569 103.953 160.084C103.953 156.731 103.267 153.988 102.429 153.988C101.591 153.988 100.905 152.617 100.905 150.941C100.905 148.874 99.8892 147.893 97.7482 147.893C95.4079 147.893 94.6629 148.78 94.8688 151.322C95.0214 153.207 95.0705 157.322 94.9777 160.465C94.8291 165.499 94.3557 166.179 90.999 166.179C87.57 166.179 87.189 165.569 87.189 160.084C87.189 155.004 86.681 153.988 84.141 153.988C82.4476 153.988 81.093 152.973 81.093 151.703C81.093 150.445 80.364 149.417 79.4731 149.417C78.5822 149.417 77.9754 150.617 78.1247 152.084C78.2738 153.55 78.317 157.322 78.2203 160.465C78.078 165.104 77.4717 166.179 74.9967 166.179C72.5293 166.179 71.9488 165.163 71.9488 160.846C71.9488 156.173 71.477 155.512 68.1387 155.512C64.4375 155.512 64.3287 155.208 64.3287 144.846C64.3287 138.75 63.6756 134.179 62.8047 134.179C61.9665 134.179 61.2806 133.15 61.2806 131.893C61.2806 130.636 60.5949 129.608 59.7567 129.608C58.9169 129.608 58.1156 134.226 57.972 139.893C57.8286 145.55 57.5584 151.207 57.3719 152.465C57.1853 153.722 56.9595 157.322 56.8708 160.465L56.7089 166.179H47.6709C39.5098 166.179 38.5687 165.846 37.9724 162.75C37.3243 159.386 37.308 159.39 37.1043 162.962C36.9068 166.431 36.5267 166.559 29.0701 165.676C24.7654 165.166 20.9702 164.476 20.6364 164.143C20.3029 163.809 19.9658 160.359 19.8879 156.476L19.7462 149.417H13.9448C8.80257 149.417 8.06333 148.941 7.4394 145.226C6.9953 142.582 6.72884 143.566 6.71749 147.893C6.67139 165.635 6.57119 166.179 3.36883 166.179C0.370503 166.179 0.320965 165.166 0.331622 104.084C0.343147 36.416 1.07271 21.4175 4.35121 21.4175C5.89266 21.4175 6.41682 18.7106 6.41682 10.7508C6.41682 0.389006 6.52568 0.0842875 10.2269 0.0842875H14.0369L14.3186 17.9889C14.4735 27.8364 14.8525 32.2936 15.1602 27.8937C15.56 22.1845 16.3517 19.8936 17.9264 19.8936C19.5253 19.8936 20.1327 18.0059 20.1327 13.0366C20.1327 6.73823 20.4432 6.17946 23.9427 6.17946C27.5811 6.17946 27.7609 6.60858 27.933 15.7032C28.0321 20.9413 28.5775 27.2841 29.1447 29.7984C30.105 34.0554 30.2499 33.8575 31.2504 26.9191C31.8413 22.8211 32.3248 16.4783 32.3248 12.8239C32.3248 6.80592 32.6733 6.17946 36.0231 6.17946C38.2637 6.17946 39.9961 7.23051 40.4183 8.84616C40.802 10.3128 41.1949 8.9415 41.2921 5.79847C41.4476 0.766267 41.9236 0.0842875 45.2789 0.0842875C48.0729 0.0842875 49.0889 0.896978 49.0889 3.13187C49.0889 5.36677 50.105 6.17946 52.8989 6.17946C56.5882 6.17946 56.7174 6.52982 56.9752 17.227C57.1509 24.5089 57.4401 26.067 57.8248 21.7984C58.1457 18.2365 59.0546 15.3222 59.8446 15.3222C60.6347 15.3222 61.281 12.5794 61.281 9.22705C61.281 3.74137 61.6617 3.13187 65.091 3.13187C68.8376 3.13187 68.9011 3.33518 68.9011 15.3222C68.9011 22.4334 69.536 27.5127 70.4251 27.5127C71.2633 27.5127 71.9491 24.7699 71.9491 21.4175C71.9491 15.9318 72.3298 15.3222 75.7591 15.3222C78.1298 15.3222 79.5691 16.1857 79.5691 17.6079C79.5691 18.865 80.5979 19.8936 81.8552 19.8936C83.4766 19.8936 84.148 21.5548 84.1645 25.6078C84.193 32.1952 86.5209 37.3562 87.756 33.5652C89.5802 27.9667 91.4652 14.5044 91.644 5.79847C91.7401 1.10913 92.3165 0.0842875 94.8571 0.0842875C96.5598 0.0842875 98.3477 1.11274 98.8302 2.3699C99.3716 3.78018 101.688 4.65562 104.878 4.65562H110.049V17.6079C110.049 25.227 110.677 30.5603 111.573 30.5603C112.412 30.5603 113.097 29.5317 113.097 28.2745C113.097 27.0047 114.452 25.9888 116.145 25.9888C118.855 25.9888 119.193 24.973 119.193 16.8461C119.193 8.10961 119.363 7.7033 123.003 7.7033C126.503 7.7033 126.813 8.26221 126.813 14.5602C126.813 18.3317 127.499 21.4175 128.337 21.4175C129.176 21.4175 129.861 17.9411 129.861 13.6925C129.861 6.55292 130.121 6.00441 133.291 6.45444C136.328 6.88559 136.772 7.94137 137.177 15.7032C137.428 20.5222 138.285 24.4651 139.082 24.4651C139.878 24.4651 140.53 26.5222 140.53 29.0364C140.53 31.5507 141.215 33.6078 142.054 33.6078C142.973 33.6078 143.578 27.2586 143.578 17.6079C143.578 0.011501 144.07 -0.711919 153.168 3.51276C156.159 4.90158 157.273 6.55256 157.282 9.60803C157.293 14.4652 159.614 15.2219 160.783 10.7508C161.258 8.93439 162.862 7.7033 164.753 7.7033C167.276 7.7033 168.125 8.95138 168.901 13.7985C169.977 20.5301 174.058 22.4098 174.058 16.1741C174.058 11.6737 174.464 11.4116 183.446 10.1103C190.512 9.08659 190.553 9.10623 191.641 14.0566C193.782 23.8067 198.442 27.9187 198.442 20.0588C198.442 16.6296 199.287 15.4407 202.252 14.6966C205.607 13.8546 206.062 12.9248 206.062 6.91233C206.062 0.644885 206.375 0.0842875 209.872 0.0842875C213.02 0.0842875 213.682 0.818397 213.682 4.30919C213.682 8.06497 214.444 8.71079 220.54 10.125L227.398 11.716V5.90004C227.398 0.71239 227.81 0.0842875 231.208 0.0842875C234.746 0.0842875 235.018 0.610145 235.018 7.43934C235.018 14.745 235.047 14.7899 239.59 14.1235C243.675 13.5241 244.162 13.8771 244.162 17.435C244.162 19.6253 244.897 21.4175 245.795 21.4175C248.849 21.4175 251.413 25.3885 252.495 31.7918C253.727 39.0829 256.354 40.4041 256.354 33.7324C256.354 25.889 257.651 24.4651 264.794 24.4651C270.415 24.4651 271.48 24.9684 272.043 27.8937C272.406 29.7793 272.797 28.0652 272.911 24.0841C273.102 17.4347 273.428 16.8461 276.929 16.8461C280.04 16.8461 280.761 17.6147 280.859 21.0365C280.925 23.3412 281.325 24.3698 281.748 23.3222C282.171 22.2746 283.488 21.4175 284.676 21.4175C286.059 21.4175 286.835 19.7741 286.835 16.8461C286.835 12.9858 287.427 12.2746 290.645 12.2746C293.439 12.2746 294.455 13.0874 294.455 15.3222C294.455 16.9985 295.141 18.3698 295.979 18.3698C296.817 18.3698 297.503 21.4555 297.503 25.227C297.503 28.9983 297.838 32.0841 298.247 32.0841C298.657 32.0841 300.371 30.9031 302.057 29.4597C304.645 27.2442 305.123 24.9722 305.123 14.8776C305.123 3.34857 305.246 2.93735 308.552 3.40685C311.603 3.83999 312.073 4.98645 312.814 13.7985L313.648 23.7031L314.338 15.3222C314.938 8.04127 315.479 6.87744 318.458 6.45444C321.375 6.04051 321.887 6.66571 321.887 10.6449C321.887 14.6182 322.461 15.3222 325.697 15.3222C327.985 15.3222 329.507 16.1928 329.507 17.502C329.507 18.7008 331.05 19.9008 332.936 20.1686C335.743 20.5673 336.531 21.8994 337.279 27.5127C337.88 32.0203 338.272 28.4597 338.422 17.1209C338.647 0.161429 338.708 -0.119504 342.08 0.359265C345.316 0.818893 345.534 1.63832 345.947 14.9413C346.294 26.094 346.851 29.0364 348.614 29.0364C349.84 29.0364 350.843 27.665 350.843 25.9888C350.843 21.3263 358.428 21.7007 358.56 26.3696C358.828 35.8714 362.779 16.6089 362.958 4.93039C363.025 0.574051 363.511 -0.0602992 366.464 0.359062C369.579 0.801472 369.973 1.89251 370.762 12.2744C371.239 18.5602 371.754 22.906 371.905 21.9321C372.336 19.1497 384.451 17.5989 386.15 20.1086C387.137 21.5669 387.484 20.8274 387.324 17.6077C386.79 6.88619 387.33 4.65552 390.467 4.65552C393.808 4.65552 393.911 5.2847 393.529 23.322C393.393 29.7305 393.924 33.6076 394.937 33.6076C395.832 33.6076 396.563 32.9219 396.563 32.0838C396.563 31.2457 397.592 30.5601 398.849 30.5601C400.543 30.5601 401.136 28.7823 401.136 23.7029C401.136 17.8616 401.587 16.8459 404.183 16.8459C406.554 16.8459 407.232 17.8617 407.232 21.4173C407.232 24.9205 407.92 25.9886 410.178 25.9886C412.26 25.9886 413.267 27.2188 413.607 30.1792C414.358 36.7058 418.564 35.5463 419.135 28.6553C419.444 24.9174 420.366 22.941 421.802 22.941C423.008 22.941 423.996 21.5696 423.996 19.8934C423.996 18.2004 425.012 16.8459 426.282 16.8459C427.878 16.8459 428.568 15.2374 428.568 11.5126C428.568 6.83951 429.039 6.17926 432.378 6.17926C435.458 6.17926 436.188 6.93261 436.188 10.1156C436.188 15.5419 439.854 14.0433 440.514 8.34744C441.154 2.82183 443.317 0.0840854 447.042 0.0840854C449.365 0.0840854 449.937 1.30302 450.08 6.56014C450.176 10.1221 450.415 13.7221 450.61 14.5601C450.804 15.3982 451.155 19.5125 451.388 23.7029L451.813 31.3219L453.413 25.6077C454.293 22.4648 455.921 19.8934 457.03 19.8934C458.327 19.8934 459.048 17.9511 459.048 14.4541C459.048 9.68499 459.47 9.07491 462.477 9.50182C464.894 9.84489 466.044 11.1796 466.373 14.0264L466.841 18.0639L470.565 14.6135C473.198 12.1736 474.288 9.54072 474.288 5.62354C474.288 1.34522 474.895 0.0950063 476.955 0.132492C483.385 0.249717 484.945 3.59541 485.185 17.7757C485.35 27.5486 485.668 29.5517 486.328 24.9664C487.373 17.7001 492.916 12.2744 499.294 12.2744C502.492 12.2744 503.244 13.0002 503.244 16.084C503.244 19.1316 504.006 19.8934 507.054 19.8934C510.317 19.8934 510.878 20.6049 510.961 24.8458C511.05 29.4344 511.161 29.5394 512.471 26.2748C513.248 24.337 514.87 21.7654 516.076 20.5605C518.966 17.6704 524.581 17.733 524.581 20.6553C524.581 21.9125 525.266 22.9409 526.104 22.9409C526.953 22.9409 527.628 18.8413 527.628 13.6893C527.628 7.70303 528.397 3.66942 529.806 2.26086C532.977 -0.91038 536.773 -0.435984 536.773 3.13157C536.773 5.16334 537.789 6.17926 539.821 6.17926C543.026 6.17926 543.409 7.74231 542.9 18.7505C542.755 21.8933 543.343 24.4649 544.206 24.4649C545.085 24.4649 545.976 19.9337 546.228 14.1792C546.664 4.21939 546.811 3.87821 550.87 3.4113C554.478 2.99604 555.061 3.47094 555.061 6.83987C555.061 8.99079 555.747 10.7506 556.585 10.7506C557.423 10.7506 558.109 12.7615 558.109 15.2193C558.109 18.3003 559.025 19.9787 561.059 20.6242C562.681 21.1388 564.348 22.7282 564.762 24.1554C565.176 25.5828 565.5 23.6647 565.481 19.8934C565.386 1.21569 565.575 0.0839844 568.777 0.0839844C571.321 0.0839844 571.825 1.09988 571.825 6.22706C571.825 10.2819 572.602 12.6682 574.111 13.2471C575.509 13.7836 576.397 16.0931 576.397 19.1933C576.397 23.5905 576.953 24.3263 580.588 24.7445C584.392 25.1823 584.862 25.93 585.683 32.8457L586.586 40.4647L586.826 32.2654L587.065 24.0661L592.399 24.9316C597.481 25.756 597.734 25.5852 597.734 21.3214C597.734 17.8617 598.425 16.8458 600.782 16.8458C603.46 16.8458 603.83 15.8299 603.83 8.46487C603.83 0.541109 604.037 0.0839844 607.64 0.0839844C610.833 0.0839844 611.45 0.803411 611.45 4.53071C611.45 10.9216 612.896 13.7982 616.109 13.7982C618.448 13.7982 619.009 15.2615 619.467 22.56L620.018 31.3219L620.306 21.7982C620.58 12.7322 620.777 12.2744 624.404 12.2744C627.452 12.2744 628.214 13.0363 628.214 16.0839C628.214 18.4542 629.077 19.8934 630.5 19.8934C632.237 19.8934 632.786 21.7841 632.786 27.7663C632.786 39.1987 634.241 35.9601 635.02 22.7926C635.646 12.2348 635.913 11.5125 639.19 11.5125C641.812 11.5125 642.563 12.2526 642.18 14.459C641.22 19.9797 643.558 30.5601 645.737 30.5601C646.959 30.5601 648.089 32.6235 648.447 35.5124C648.869 38.9069 649.139 37.9481 649.306 32.4648L649.55 24.4649H657.17C663.859 24.4649 664.79 24.0794 664.79 21.3112C664.79 18.9124 665.611 18.2742 668.219 18.6446C671.026 19.0433 671.814 20.3753 672.562 25.9886C673.065 29.76 673.579 31.9885 673.705 30.9409C673.832 29.8933 675.306 29.0362 676.982 29.0362C679.983 29.0362 680.604 30.9223 680.244 38.9409C680.146 41.1368 680.558 40.8173 681.72 37.7981C682.863 34.8274 684.404 33.6076 687.015 33.6076C689.041 33.6076 690.698 32.9219 690.698 32.0838C690.698 31.2457 692.07 30.5601 693.746 30.5601C696.481 30.5601 696.794 29.5442 696.794 20.6553C696.794 11.1062 696.931 10.7506 700.604 10.7506C703.942 10.7506 704.414 10.0903 704.414 5.41729C704.414 0.33799 704.668 0.0839844 709.748 0.0839844C713.474 0.0839844 715.082 0.773317 715.082 2.3697C715.082 3.62679 716.111 4.65531 717.368 4.65531C719.642 4.65531 720.297 8.18587 719.701 17.2268C719.549 19.5315 720.162 21.4172 721.063 21.4172C721.965 21.4172 722.702 22.7086 722.702 24.2871C722.702 26.1383 724.055 27.4156 726.512 27.8854L730.322 28.6136V15.1107C730.322 1.72345 730.355 1.60783 734.132 1.60783C737.18 1.60783 737.942 2.36976 737.942 5.41729C737.942 11.0511 743.665 10.709 744.318 5.0364C744.663 2.0361 745.774 0.707692 748.229 0.359062C751.314 -0.0793731 751.673 0.53327 751.8 6.45434C751.877 10.0745 751.826 15.934 751.687 19.4756C751.547 23.0172 751.888 26.6504 752.444 27.5496C754.281 30.523 757.755 25.8925 757.755 20.4689C757.755 15.9949 758.253 15.3221 761.565 15.3221C764.613 15.3221 765.375 16.084 765.375 19.1316C765.375 21.2268 766.061 22.9411 766.899 22.9411C767.779 22.9411 768.423 18.1157 768.423 11.5126C768.423 0.338081 768.508 0.0840854 772.233 0.0840854C775.652 0.0840854 776.043 0.699376 776.043 6.08942C776.043 9.39226 776.729 12.5184 777.567 13.0364C778.405 13.5543 779.221 18.9092 779.379 24.9358C779.659 35.5959 779.682 35.6556 780.217 27.1316C780.519 22.3126 781.462 18.3697 782.311 18.3697C783.16 18.3697 783.732 17.1697 783.583 15.7031C782.972 9.69568 783.751 7.7031 786.711 7.7031C789.673 7.7031 790.451 9.69701 789.837 15.7135C789.687 17.1859 790.637 18.8021 791.947 19.3051C793.258 19.8078 794.331 21.5176 794.331 23.1041C794.331 26.9597 798.969 26.826 799.986 22.9412C800.427 21.2545 802.064 19.8936 803.653 19.8936C805.917 19.8936 806.523 21.0196 806.523 25.227C806.523 28.1602 807.209 30.5603 808.047 30.5603C808.885 30.5603 809.571 32.7467 809.571 35.419V40.2777L812.619 37.0065C814.625 34.854 815.667 31.629 815.667 27.5763C815.667 22.0227 816.041 21.4175 819.477 21.4175C822.271 21.4175 823.287 20.6047 823.287 18.3698C823.287 16.3381 824.303 15.3222 826.335 15.3222C828.367 15.3222 829.383 14.3064 829.383 12.2746C829.383 10.2106 830.399 9.22705 832.531 9.22705C837.396 9.22705 841.575 12.0683 841.575 15.3759C841.575 17.354 842.61 18.3698 844.623 18.3698C847.308 18.3698 847.671 19.3858 847.671 26.8777C847.671 37.3375 851.277 37.7822 851.859 27.3942C852.787 10.8149 853.705 7.7033 857.671 7.7033C861.259 7.7033 861.387 8.07412 861.387 18.4597C861.387 25.2428 861.951 28.8685 862.912 28.2746C863.75 27.7567 864.436 23.5542 864.436 18.9358C864.436 11.0995 864.664 10.5715 867.865 11.0259C870.493 11.3994 871.405 12.6694 871.771 16.4652C872.167 20.5668 872.887 21.4175 875.962 21.4175C878.907 21.4175 879.676 20.6292 879.676 17.6079C879.676 15.5127 880.361 13.7986 881.2 13.7986C882.038 13.7986 882.724 12.7699 882.724 11.5128C882.724 8.22814 888.284 8.69145 891.868 12.2746C893.914 14.3212 894.916 17.354 894.916 21.5074C894.916 25.2428 895.519 27.3196 896.44 26.7508C897.278 26.2329 897.964 23.1067 897.964 19.8037C897.964 14.8144 898.479 13.7986 901.012 13.7986C903.747 13.7986 904.06 14.8144 904.06 23.7032C904.06 29.2905 904.724 33.6078 905.584 33.6078C906.422 33.6078 907.108 32.2364 907.108 30.5603C907.108 28.8841 907.794 27.5127 908.632 27.5127C909.47 27.5127 910.156 24.0842 910.156 19.8938C910.156 12.7827 910.41 12.2746 913.966 12.2746C917.681 12.2746 917.782 12.5688 918.02 24.0842C918.154 30.5794 918.535 33.4936 918.867 30.5603C919.199 27.627 920.592 24.3698 921.963 23.3222C925.172 20.8688 930.995 20.8688 932.082 23.3222C932.546 24.3698 932.88 22.4841 932.823 19.1318C932.568 3.95813 932.77 3.13187 936.75 3.13187C940.215 3.13187 940.524 3.76375 941.045 11.8937C941.472 18.5459 941.899 19.83 942.823 17.227C943.501 15.3157 945.31 13.7986 946.91 13.7986C949.35 13.7986 949.787 14.9967 949.829 21.7985C949.882 30.6192 952.623 35.6839 956.904 34.8714C959.077 34.4588 959.853 32.5099 960.448 25.9757C961.107 18.7345 961.672 17.5425 964.639 17.1211C967.248 16.7509 968.068 17.3887 968.068 19.7877C968.068 21.5751 969.059 22.9413 970.354 22.9413C971.777 22.9413 972.64 21.5021 972.64 19.1318C972.64 16.0841 973.402 15.3222 976.45 15.3222C979.498 15.3222 980.26 16.0841 980.26 19.1318C980.26 21.227 980.946 22.9413 981.784 22.9413C982.665 22.9413 983.308 18.1159 983.308 11.5128C983.308 0.338217 983.393 0.0842875 987.118 0.0842875H990.928V17.6079C990.928 33.4668 991.189 35.1317 993.672 35.1317C995.18 35.1317 997.238 35.9545 998.244 36.9602C999.666 38.3825 1000.07 37.4034 1000.07 32.5519C1000.07 28.2789 1000.83 26.0246 1002.48 25.393C1004.15 24.7519 1004.8 22.7301 1004.61 18.7538C1004.2 9.92359 1004.43 9.22705 1007.69 9.22705C1010.06 9.22705 1010.74 8.21128 1010.74 4.65572C1010.74 0.253612 1010.99 0.0842875 1017.6 0.0842875H1024.46V7.7033C1024.46 14.3065 1024.86 15.3222 1027.5 15.3222C1029.88 15.3222 1030.55 16.3382 1030.55 19.8938C1030.55 22.9413 1031.31 24.4651 1032.84 24.4651C1034.1 24.4651 1035.12 23.4366 1035.12 22.1794C1035.12 20.7572 1036.56 19.8938 1038.93 19.8938C1041.98 19.8938 1042.74 20.6556 1042.74 23.7032C1042.74 26.0284 1043.61 27.5127 1044.97 27.5127C1046.72 27.5127 1047.29 24.6566 1047.64 14.1795C1048.05 1.66769 1048.29 0.816244 1051.51 0.359265C1054.8 -0.108312 1054.94 0.319531 1054.94 11.3169C1054.94 23.3142 1056.21 26.024 1060.04 22.1934C1063.1 19.1309 1067.09 19.2844 1069.58 22.5604C1071.32 24.8561 1071.61 23.6757 1071.65 14.0735C1071.7 3.3902 1071.85 2.94047 1075.13 3.40685C1077.59 3.75522 1078.7 5.08389 1079.04 8.08419C1079.32 10.4827 1080.46 12.2746 1081.71 12.2746C1083.34 12.2746 1083.89 14.3943 1083.89 20.6556C1083.89 27.9495 1084.28 29.0364 1086.87 29.0364C1088.5 29.0364 1090.51 30.2364 1091.33 31.7031C1092.52 33.8135 1093.05 32.7011 1093.89 26.3698C1094.74 19.9481 1095.52 18.3698 1097.81 18.3698C1099.87 18.3698 1100.66 17.2625 1100.66 14.3827C1100.66 10.9514 1101.19 10.4971 1104.47 11.1238C1107.66 11.7344 1108.28 11.2702 1108.28 8.25386C1108.28 5.45788 1109.1 4.65562 1111.99 4.65562C1114.9 4.65562 1115.8 5.55478 1116.18 8.84616C1116.52 11.8465 1117.63 13.1749 1120.09 13.5235C1123.16 13.9599 1123.52 14.8641 1123.52 22.2854C1123.52 26.8366 1124.2 30.5603 1125.04 30.5603C1125.88 30.5603 1126.57 28.1602 1126.57 25.227C1126.57 22.2936 1127.22 19.8936 1128.02 19.8936C1128.81 19.8936 1129.67 15.608 1129.92 10.3699C1130.37 0.885986 1130.4 0.844237 1135.24 0.375535C1139.96 -0.0821072 1140.11 0.0887889 1140.57 6.47081C1140.88 10.7234 1141.71 12.9023 1142.95 12.6556C1144.27 12.3914 1144.85 14.6112 1144.85 19.8936C1144.85 24.0842 1145.54 27.5127 1146.38 27.5127C1147.22 27.5127 1147.9 26.1413 1147.9 24.4651C1147.9 22.2302 1148.92 21.4175 1151.71 21.4175C1154.76 21.4175 1155.52 22.1793 1155.52 25.227C1155.52 27.3222 1156.21 29.0364 1157.05 29.0364C1157.88 29.0364 1158.57 27.3222 1158.57 25.227C1158.57 22.4333 1159.38 21.4175 1161.62 21.4175C1163.96 21.4175 1164.67 20.4016 1164.67 17.0091C1164.67 12.5266 1166.86 10.7508 1172.41 10.7508C1175.01 10.7508 1175.33 11.9183 1175.33 21.4175C1175.33 29.883 1175.81 32.0841 1177.62 32.0841C1179.27 32.0841 1179.91 30.391 1179.91 25.9889C1179.91 20.9096 1180.41 19.8936 1182.95 19.8936C1184.65 19.8936 1186 18.8777 1186 17.6079C1186 16.3508 1187.03 15.3222 1188.29 15.3222C1189.98 15.3222 1190.57 13.5445 1190.57 8.46518C1190.57 2.1668 1190.88 1.60803 1194.38 1.60803C1197.72 1.60803 1198.19 2.26838 1198.19 6.94143C1198.19 9.87471 1198.88 12.2746 1199.72 12.2746C1200.56 12.2746 1201.24 13.646 1201.24 15.3222C1201.24 17.3539 1202.26 18.3698 1204.29 18.3698C1206.84 18.3698 1207.34 19.3857 1207.34 24.5739C1207.34 29.9834 1209.89 35.1317 1212.56 35.1317C1213.04 35.1317 1213.43 31.7031 1213.43 27.5127C1213.43 20.4016 1213.69 19.8936 1217.24 19.8936C1220.02 19.8936 1221.05 20.71 1221.05 22.8877C1221.05 24.5343 1222.43 26.6156 1224.1 27.5127C1227.05 29.0877 1227.15 28.6715 1227.15 15.3759C1227.15 1.7061 1227.18 1.60803 1230.96 1.60803C1233.54 1.60803 1234.8 2.47191 1234.87 4.27473C1234.94 6.25094 1235.33 6.01904 1236.39 3.37896C1237.68 0.158643 1238.44 -0.0807615 1244.3 0.88638C1247.86 1.47449 1250.9 2.06677 1251.07 2.20194C1251.23 2.33705 1251.57 11.2885 1251.83 22.0941C1252.16 36.1115 1252.84 41.9215 1254.2 42.3725C1255.64 42.8501 1256.11 39.2952 1256.11 27.851V12.6973L1259.92 13.4255C1262.93 14.0017 1263.73 15.0709 1263.73 18.5476C1263.73 21.4372 1264.51 22.9412 1266.01 22.9412C1267.66 22.9412 1268.34 24.7441 1268.45 29.4174C1268.57 34.6103 1268.81 35.1387 1269.66 32.0841C1270.32 29.6971 1272.01 28.0875 1274.18 27.7737C1277.27 27.328 1277.63 26.4872 1277.41 20.1547C1276.83 2.9135 1277.26 0.0842875 1280.49 0.0842875C1282.6 0.0842875 1283.58 1.14017 1283.66 3.51276C1283.73 5.3985 1284.13 6.08421 1284.55 5.0366C1285.46 2.78217 1292.68 2.44384 1292.68 4.65582C1292.68 5.49388 1294.05 6.17966 1295.73 6.17966C1298.97 6.17966 1299.28 7.52755 1298.8 19.5129C1298.66 23.2766 1299.24 25.9889 1300.19 25.9889C1301.09 25.9889 1301.83 23.2461 1301.83 19.8938C1301.83 14.4081 1302.21 13.7986 1305.64 13.7986C1308.85 13.7986 1309.45 14.5097 1309.45 18.37C1309.45 21.4175 1310.21 22.9414 1311.73 22.9414C1313.49 22.9414 1314.02 20.9825 1314.02 14.4545C1314.02 6.56886 1314.26 6.00213 1317.39 6.45454C1321.09 6.99099 1322.77 11.1067 1323.01 20.2748C1323.09 23.4177 1323.81 25.9889 1324.6 25.9889C1325.39 25.9889 1326.3 28.9033 1326.62 32.4652C1327.13 38.0822 1327.24 37.779 1327.47 30.1795C1327.67 23.5253 1328.28 21.4176 1330.02 21.4176C1332.01 21.4176 1332.3 29.0696 1332.29 81.2268C1332.27 114.122 1331.85 142.579 1331.35 144.465C1330.79 146.537 1329.25 147.893 1327.45 147.893C1325.29 147.893 1324.55 148.84 1324.75 151.322C1324.9 153.207 1324.95 157.322 1324.86 160.464C1324.71 165.328 1324.18 166.177 1321.26 166.167C1316.49 166.147 1314.04 160.078 1313.91 147.97C1313.84 140.981 1313.41 138.902 1312.49 141.036C1311.77 142.712 1311.14 146.312 1311.08 149.036C1310.99 152.937 1310.32 153.988 1307.92 153.988C1305.59 153.988 1304.87 152.972 1304.87 149.671C1304.87 144.6 1303.85 143.225 1300.92 144.352C1299.42 144.927 1298.78 147.853 1298.78 154.151C1298.78 162.714 1298.6 163.131 1294.97 163.131C1291.33 163.131 1291.16 162.728 1291.16 153.94C1291.16 147.463 1290.53 144.508 1289.02 143.93C1286.96 143.14 1284.21 133.901 1284.87 129.988C1285.05 128.941 1284.48 128.084 1283.6 128.084C1282.63 128.084 1282.01 132.822 1282.01 140.274C1282.01 151.449 1281.76 152.464 1278.97 152.464C1276.37 152.464 1275.92 153.48 1275.92 159.322C1275.92 165.753 1275.66 166.187 1271.73 166.314C1261.65 166.641 1255.93 166.51 1255.36 165.94C1255.02 165.602 1254.57 162.432 1254.37 158.895C1253.86 150.293 1251.53 150.643 1251.53 159.321V166.178H1242.39C1233.65 166.178 1233.25 166.009 1233.25 162.369C1233.25 159.647 1232.42 158.559 1230.36 158.559C1226.73 158.559 1225.63 155.699 1225.63 146.244C1225.63 142.122 1224.94 138.75 1224.1 138.75C1223.22 138.75 1222.58 143.575 1222.58 150.178C1222.58 161.353 1222.49 161.607 1218.77 161.607C1215.43 161.607 1214.96 160.946 1214.96 156.273C1214.96 152.648 1214.25 150.94 1212.76 150.94C1211.35 150.94 1210.36 148.906 1209.97 145.226C1209.64 142.083 1209.26 145.511 1209.12 152.845L1208.86 166.178H1204.34H1199.83L1199.39 151.321C1199.04 139.325 1198.52 136.464 1196.67 136.464C1194.43 136.464 1194.22 138.016 1193.72 158.94C1193.64 162.367 1192.93 163.131 1189.81 163.131C1185.75 163.131 1185.39 161.797 1185.96 149.19C1186.1 146.133 1185.48 143.178 1184.58 142.624C1183.53 141.973 1182.95 143.801 1182.95 147.803C1182.95 153.339 1182.56 153.988 1179.24 153.988C1176.37 153.988 1175.39 153.047 1174.9 149.797C1174.55 147.493 1174.16 150.236 1174.04 155.892C1173.82 165.787 1173.66 166.178 1170 166.178C1167.9 166.178 1166.19 165.54 1166.19 164.76C1166.19 163.981 1164.65 163.123 1162.76 162.856C1159.73 162.425 1159.29 161.389 1158.97 153.988C1158.24 136.99 1156.79 126.535 1155.29 127.461C1154.47 127.973 1154.1 129.208 1154.49 130.206C1154.87 131.204 1154.23 133.323 1153.07 134.914C1151.62 136.893 1150.95 142.295 1150.95 151.993C1150.95 166.014 1150.91 166.178 1147.23 166.178C1144.06 166.178 1143.43 165.342 1142.92 160.464L1142.32 154.75L1142.06 160.464C1141.83 165.74 1141.45 166.178 1137.23 166.178C1132.71 166.178 1132.66 166.093 1132.66 157.797C1132.66 149.501 1132.61 149.416 1128.09 149.416C1125.57 149.416 1123.52 150.18 1123.52 151.113C1123.52 152.132 1121.69 152.542 1118.95 152.139C1114.4 151.472 1114.37 151.518 1114.37 158.823V166.178H1106.75C1099.21 166.178 1099.13 166.125 1098.95 161.226L1098.77 156.273L1097.8 160.845C1097.12 164.044 1095.8 165.562 1093.41 165.903C1091.53 166.171 1089.99 165.657 1089.99 164.76C1089.99 163.864 1088.96 163.131 1087.7 163.131C1086.18 163.131 1085.34 161.468 1085.2 158.178C1085 153.522 1084.93 153.59 1084.06 159.321C1083.35 163.99 1082.38 165.524 1079.92 165.875C1077.15 166.269 1076.57 165.34 1075.73 159.186C1075.19 155.255 1074.75 148.02 1074.75 143.109C1074.75 136.186 1074.24 134.178 1072.46 134.178C1070.94 134.178 1070.18 135.702 1070.18 138.75C1070.18 141.797 1069.41 143.321 1067.89 143.321C1066.06 143.321 1065.6 145.607 1065.6 154.75V166.178H1060.27H1054.94V153.988C1054.94 144.168 1054.49 141.797 1052.65 141.797C1050.81 141.797 1050.36 144.168 1050.36 153.988C1050.36 165.975 1050.3 166.178 1046.55 166.178C1043.34 166.178 1042.74 165.467 1042.74 161.607C1042.74 159.092 1042.06 157.035 1041.22 157.035C1040.38 157.035 1039.7 159.092 1039.7 161.607C1039.7 165.467 1039.1 166.178 1035.89 166.178C1033.09 166.178 1032.08 165.365 1032.08 163.131C1032.08 161.099 1031.06 160.083 1029.03 160.083C1027 160.083 1025.98 161.099 1025.98 163.131C1025.98 165.772 1024.96 166.178 1018.36 166.178H1010.74V156.131C1010.74 147.365 1010.35 145.982 1007.69 145.286C1005.39 144.684 1004.64 143.208 1004.64 139.244C1004.64 135.921 1004.05 134.366 1003.02 135.002C1002.11 135.561 1001.49 140.147 1001.62 145.377C1002.09 165.432 1001.95 166.178 997.913 166.178C995.888 166.178 993.885 165.321 993.462 164.273C992.847 162.75 992.669 162.75 992.573 164.273C992.491 165.572 989.543 166.178 983.308 166.178H974.164L974.144 152.083C974.125 137.992 972.575 131.236 970.57 136.461C970.034 137.857 969.596 142.029 969.596 145.731C969.596 151.363 969.115 152.464 966.659 152.464C965.044 152.464 963.409 151.264 963.026 149.797C962.643 148.331 962.25 151.416 962.152 156.654C961.984 165.75 961.805 166.178 958.166 166.178H954.356V150.178C954.356 133.567 952.432 128.989 950.596 141.23C949.15 150.871 948.377 152.464 945.145 152.464C943.141 152.464 942.184 151.07 941.742 147.512C941.403 144.788 941.018 147.873 940.883 154.369L940.64 166.178H930.734H920.827V160.845C920.827 156.527 920.247 155.511 917.779 155.511C915.312 155.511 914.731 156.527 914.731 160.845C914.731 166.051 914.586 166.178 908.635 166.178C902.637 166.178 902.537 166.087 902.371 160.464C902.278 157.321 902.324 153.207 902.479 151.321C902.632 149.435 902.022 147.893 901.124 147.893C900.226 147.893 899.491 149.95 899.491 152.464C899.491 154.978 898.805 157.035 897.967 157.035C897.129 157.035 896.443 159.092 896.443 161.607C896.443 165.879 896.067 166.178 890.685 166.178C884.727 166.178 879.679 162.326 879.679 157.78C879.679 156.532 878.993 155.511 878.155 155.511C877.317 155.511 876.583 153.626 876.524 151.321C876.464 149.016 875.827 145.759 875.107 144.083C874.097 141.733 873.772 142.542 873.69 147.618C873.593 153.547 873.242 154.151 870.154 153.713C867.036 153.27 866.684 152.287 866.273 142.894C865.628 128.131 862.915 131.626 862.915 147.221C862.915 159.925 862.868 160.083 859.105 160.083C856.734 160.083 855.295 159.22 855.295 157.797C855.295 156.54 854.609 155.511 853.77 155.511C852.932 155.511 852.246 154.483 852.246 153.226C852.246 151.969 850.911 150.94 849.278 150.94C846.784 150.94 846.22 149.661 845.75 142.94C845.226 135.446 845.172 135.59 844.908 145.226C844.637 155.106 844.476 155.511 840.816 155.511C837.317 155.511 837.006 154.953 837.006 148.654C837.006 143.754 836.39 141.797 834.847 141.797C833.66 141.797 832.342 140.94 831.92 139.893C831.497 138.845 831.097 140.238 831.031 142.988C830.96 145.939 829.974 148.348 828.624 148.865C826.983 149.495 826.338 152.061 826.338 157.96V166.178H821.004C816.796 166.178 815.67 165.572 815.67 163.308C815.67 161.457 814.318 160.18 811.86 159.71C808.9 159.144 808.05 159.615 808.05 161.818C808.05 163.828 806.939 164.654 804.24 164.654C800.638 164.654 800.43 164.197 800.43 156.273C800.43 148.287 800.245 147.893 796.511 147.893C793.38 147.893 792.648 148.582 792.87 151.321C793.022 153.207 793.071 157.321 792.979 160.464L792.81 166.178H782.904H772.998V155.511C772.998 149.416 772.345 144.845 771.474 144.845C770.636 144.845 769.95 145.873 769.95 147.131C769.95 148.568 768.5 149.416 766.044 149.416C763.19 149.416 762.244 150.134 762.533 152.083C762.75 153.55 762.419 157.321 761.798 160.464C760.859 165.208 760.033 166.178 756.927 166.178C753.214 166.178 753.185 166.067 753.139 151.321C753.073 130.957 749.176 138.999 748.706 160.464C748.637 163.608 747.853 164.654 745.566 164.654C743.872 164.654 742.518 163.638 742.518 162.369C742.518 161.111 741.489 160.083 740.232 160.083C738.974 160.083 737.946 159.054 737.946 157.797C737.946 156.54 737.26 155.511 736.422 155.511C735.583 155.511 734.898 157.912 734.898 160.845V166.178H725.754H716.609L716.429 149.035C716.33 139.607 716.33 131.378 716.429 130.75C716.528 130.121 715.581 129.607 714.324 129.607C712.42 129.607 712.038 132.632 712.038 147.694V165.781L696.417 166.037C687.825 166.178 679.767 166.375 678.51 166.476C672.219 166.977 670.889 166.128 670.889 161.607C670.889 158.664 670.115 157.035 668.715 157.035C667.519 157.035 666.227 155.836 665.844 154.369C665.46 152.902 665.067 154.96 664.97 158.94L664.793 166.178H644.981H625.169L625.039 160.464C624.968 157.321 625.016 151.219 625.143 146.904C625.271 142.588 624.644 138.605 623.749 138.052C622.638 137.366 622.121 141.673 622.121 151.612C622.121 166.134 622.11 166.178 618.311 166.178C614.973 166.178 614.501 165.518 614.501 160.845C614.501 156.172 614.029 155.512 610.691 155.512C608.32 155.512 606.881 154.648 606.881 153.226C606.881 151.969 605.888 150.94 604.675 150.94C603.1 150.94 602.308 148.65 601.908 142.94C601.576 138.193 601.234 140.981 601.067 149.797C600.787 164.554 600.759 164.654 596.975 164.654C594.604 164.654 593.165 163.791 593.165 162.369C593.165 161.112 592.535 160.083 591.766 160.083C588.639 160.083 585.545 162.059 585.545 164.056C585.545 165.223 584.516 166.178 583.259 166.178C582.001 166.178 580.973 167.207 580.973 168.464C580.973 169.988 579.449 170.75 576.401 170.75C573.353 170.75 571.829 169.988 571.829 168.464L571.828 168.465Z" fill="black"/>
</svg>
