<svg width="464" height="38" viewBox="0 0 464 38" fill="none" xmlns="http://www.w3.org/2000/svg">
<path d="M125.051 36.1816C125.053 35.6422 125.263 34.7628 125.517 34.2273L125.979 33.2538L126.127 35.6039C126.246 37.5076 126.289 37.0515 126.351 33.2036C126.43 28.2577 126.783 27.6945 126.93 32.2799L127.01 34.7871L127.166 31.3562C127.298 28.4661 127.336 28.2373 127.409 29.9047C127.493 31.8159 127.503 31.8431 127.707 30.6964C127.823 30.0432 127.927 28.8189 127.938 27.9757C127.95 27.0253 128.057 26.5046 128.221 26.6057C128.366 26.6954 128.485 27.5338 128.485 28.4687C128.485 29.426 128.6 30.1686 128.748 30.1686C128.912 30.1686 129.012 31.6201 129.012 33.9953C129.012 37.0323 129.085 37.8221 129.368 37.8221C129.742 37.8221 130.03 35.1364 130.102 30.9857C130.131 29.456 130.18 29.1999 130.321 29.9047C130.577 31.1924 130.778 30.5905 131.243 27.1336C131.823 22.8248 131.949 22.2695 132.199 22.9115C132.372 23.3531 132.409 23.3102 132.428 22.6468C132.44 22.2114 132.565 21.6769 132.706 21.4592C132.891 21.173 132.968 21.4307 132.984 22.3829C133.001 23.3343 133.067 23.5552 133.222 23.1747C133.424 22.6793 133.447 22.6875 133.591 23.3068C133.676 23.6697 133.792 24.2635 133.849 24.6264C133.906 24.9893 133.97 24.6794 133.989 23.9374C134.048 21.7339 134.321 20.2685 134.78 19.6847C135.142 19.2256 135.32 19.1812 135.872 19.4135C136.734 19.7768 137.216 19.807 137.801 19.5342C138.065 19.4115 142.695 19.3177 148.091 19.325C153.487 19.3332 158.66 19.3373 159.587 19.3332C160.513 19.3302 161.47 19.2219 161.712 19.0922C161.972 18.9532 162.308 18.9552 162.533 19.0963C163.084 19.4453 166.577 19.4037 166.937 19.0437C167.163 18.817 167.444 18.8268 168.062 19.0845C168.655 19.3303 169.651 19.3784 171.625 19.2578C173.438 19.1468 174.423 19.1844 174.537 19.3687C174.631 19.522 174.845 19.5962 175.012 19.5338C175.179 19.4714 175.55 19.5052 175.837 19.6064C176.124 19.7087 176.489 19.6627 176.647 19.504C176.848 19.303 180.206 19.2313 187.724 19.2671C195.059 19.3038 198.621 19.2304 198.852 19.0372C199.094 18.8357 199.419 18.8496 199.989 19.0861C200.892 19.4604 203.312 19.473 204.271 19.1106C204.634 18.9723 205.067 18.9666 205.278 19.0983C205.481 19.2239 207.311 19.3197 209.345 19.3116C214.912 19.2871 214.489 19.2153 214.525 20.2089C214.545 20.772 214.6 20.8853 214.685 20.5388C214.913 19.6119 215.346 19.3005 216.26 19.4072C216.852 19.4765 217.132 19.3991 217.132 19.1663C217.132 18.6446 218.017 18.7569 218.665 19.3608C219.091 19.7583 219.363 19.8332 219.707 19.649C220.411 19.2727 223.355 19.1396 224.874 19.4158C225.966 19.6144 226.358 19.5781 226.958 19.2233C227.571 18.8613 227.855 18.8384 228.615 19.0892C229.172 19.2731 229.534 19.5653 229.536 19.8334C229.538 20.094 229.62 20.1629 229.734 20.0014C229.841 19.851 230.551 19.6043 231.313 19.4533L232.698 19.1785L232.74 20.6503C232.769 21.6203 232.815 21.8071 232.878 21.1984C233.056 19.4631 233.229 18.9842 233.557 19.3128C233.723 19.4788 234.122 19.615 234.444 19.615C234.766 19.615 235.089 19.7634 235.162 19.9448C235.246 20.1532 235.302 20.1149 235.315 19.8413C235.344 19.2552 235.934 19.0684 236.89 19.3427C237.352 19.4752 237.715 19.4703 237.762 19.3305C237.809 19.1922 238.263 19.2081 238.841 19.3671C239.39 19.5188 240.099 19.5608 240.416 19.4601C240.733 19.3594 242.362 19.2905 244.035 19.3064C245.708 19.3227 248.584 19.3504 250.425 19.368C252.267 19.3843 253.904 19.3194 254.063 19.2208C254.223 19.1221 255.157 19.1841 256.139 19.3606C257.711 19.6416 258.028 19.6261 258.797 19.2281C259.424 18.9035 259.75 18.8571 259.956 19.063C260.125 19.2318 261.358 19.3492 262.96 19.3492C264.956 19.3492 265.678 19.4369 265.681 19.6791C265.685 19.9107 265.756 19.8976 265.922 19.6342C266.164 19.2522 267.443 19.0495 267.92 19.3178C268.414 19.5959 268.88 19.5722 269.697 19.2285C270.377 18.9423 270.663 18.9476 271.406 19.2571C272.009 19.5091 272.573 19.5604 273.143 19.4153C274.096 19.1727 286.838 19.2175 288.516 19.4691C289.325 19.5906 289.691 19.5282 289.942 19.2265C290.306 18.7877 291.152 18.681 291.377 19.0454C291.454 19.169 292.316 19.3451 293.293 19.4365C294.673 19.5653 295.211 19.5103 295.7 19.1894C296.219 18.8493 296.465 18.8322 297.092 19.0923C297.512 19.266 298.129 19.3394 298.464 19.2554C298.799 19.1714 299.394 19.2677 299.788 19.474C300.181 19.6783 300.504 19.7631 300.505 19.6628C300.509 19.3093 301.903 18.8234 302.202 19.0715C302.363 19.2049 303.62 19.3362 304.995 19.3635C306.37 19.392 307.643 19.5315 307.825 19.677C308.059 19.865 308.154 19.8267 308.154 19.5433C308.154 19.2236 308.479 19.1588 309.803 19.2142C310.71 19.2509 311.766 19.3671 312.149 19.4695C312.602 19.5902 313.141 19.5021 313.686 19.2212C314.409 18.8473 314.606 18.8371 315.1 19.1482C315.566 19.4422 316.082 19.4556 317.849 19.2204C319.699 18.9745 320.083 18.9904 320.42 19.3268C320.742 19.6489 321.024 19.6709 321.938 19.4442C322.818 19.2261 326.184 19.1963 328.074 19.39C328.219 19.4063 328.781 19.3292 329.324 19.222C330.124 19.0638 330.343 19.1115 330.482 19.4736C330.618 19.8291 330.699 19.8483 330.877 19.5686C331.03 19.326 331.101 19.4373 331.104 19.9266C331.108 20.8912 331.579 21.1212 331.683 20.2104C331.729 19.8087 331.886 19.4725 332.031 19.4631C332.176 19.4549 332.753 19.311 333.314 19.1463C334.154 18.8992 334.443 18.9192 334.964 19.2604C335.476 19.5964 335.806 19.6225 336.715 19.3983C337.332 19.2466 338.853 19.1887 340.097 19.2694C341.553 19.364 342.558 19.3102 342.918 19.1177C343.284 18.9216 343.532 18.9098 343.639 19.0851C343.852 19.4301 345.539 19.4284 345.752 19.083C345.857 18.9142 346.126 18.9628 346.486 19.2151C347.22 19.7295 347.757 19.718 348.921 19.1625C349.663 18.8082 349.971 18.7768 350.353 19.0154C350.689 19.2253 353.236 19.3269 358.585 19.3432C362.844 19.3554 366.626 19.3513 366.989 19.335C368.28 19.2694 369.007 19.2714 372.134 19.3513C373.875 19.3954 375.609 19.3473 375.987 19.2408C376.463 19.1091 376.802 19.1772 377.087 19.4626C377.394 19.7697 377.53 19.7917 377.619 19.5479C377.713 19.2877 377.853 19.289 378.299 19.5519C378.634 19.7493 378.861 19.7762 378.861 19.618C378.861 19.2486 379.743 19.2841 380.128 19.6686C380.337 19.8781 380.445 19.8883 380.445 19.6971C380.445 19.3126 382.042 19.0881 382.621 19.3913C382.875 19.5242 383.083 19.7941 383.083 19.9912C383.083 20.4504 383.803 20.7353 384.031 20.3664C384.146 20.18 384.28 20.2057 384.431 20.4438C384.599 20.7089 384.659 20.6559 384.662 20.2404C384.666 19.3589 385.201 19.0849 386.39 19.3519C387.607 19.6255 387.921 19.5974 389.097 19.1093C389.75 18.8382 390.122 18.8198 390.595 19.0351C391.197 19.3095 392.283 19.345 400.232 19.347C402.191 19.3476 404.269 19.3593 404.849 19.3715C405.43 19.3837 406.32 19.3756 406.828 19.3552C407.336 19.3348 408.812 19.3267 410.109 19.3389C411.406 19.3511 412.579 19.2488 412.715 19.1122C412.861 18.9658 413.209 18.9577 413.563 19.0918C414.236 19.3479 422.457 19.5086 422.838 19.2728C422.973 19.1897 423.515 19.219 424.044 19.3381C424.573 19.4575 425.072 19.4894 425.152 19.409C425.327 19.2341 459.333 19.2663 459.508 19.4417C459.575 19.5089 460.048 19.4498 460.56 19.3071C461.071 19.166 461.952 19.1285 462.518 19.2239L463.545 19.3976L463.618 28.678C463.659 33.7821 463.691 29.4075 463.69 18.9565C463.69 8.5055 463.658 4.27193 463.617 9.54851C463.549 18.5506 463.516 19.1292 463.086 18.9285C462.65 18.7246 461.454 18.6924 459.726 18.8372C459.29 18.8739 458.163 18.8873 457.219 18.8657C456.276 18.8453 454.317 18.82 452.866 18.8078C451.415 18.7956 449.931 18.7793 449.568 18.7752C448.354 18.7548 442.322 18.7791 441.587 18.8078C440.584 18.8486 439.154 18.8364 438.289 18.7833C437.61 18.7426 433.694 18.7711 431.628 18.8339C431.12 18.8502 430.229 18.8584 429.649 18.8543C428.662 18.8461 425.389 18.8522 424.504 18.8624C423.845 18.8706 422.785 18.6671 422.471 18.473C422.308 18.3723 422.135 18.3952 422.086 18.524C421.99 18.7772 415.534 19.08 415.534 18.8311C415.534 18.6818 412.532 18.7328 410.827 18.911C410.13 18.984 409.899 18.8865 409.722 18.4503C409.503 17.9078 409.499 17.9087 409.482 18.4964C409.466 19.0143 409.368 19.0714 408.74 18.919C408.341 18.8219 407.777 18.6568 407.487 18.5516C407.197 18.4464 406.722 18.4419 406.431 18.5394C406.141 18.6384 405.607 18.7086 405.244 18.6947C404.881 18.6825 404.5 18.7917 404.398 18.9406C404.274 19.1196 404.1 19.1004 403.883 18.8835C403.474 18.4744 402.021 18.4549 401.623 18.8549C401.434 19.0437 401.053 19.0751 400.58 18.9414C400.171 18.8252 399.064 18.72 398.121 18.7069C397.177 18.6947 396.257 18.5887 396.076 18.4729C395.871 18.342 395.746 18.3971 395.746 18.6185C395.746 19.0703 391.772 19.0477 390.638 18.5899C390.033 18.3453 389.724 18.364 389.08 18.6853C388.128 19.1609 387 19.2047 386.578 18.7828C386.412 18.616 385.943 18.4676 385.536 18.4529C384.906 18.4284 384.773 18.2902 384.634 17.5024C384.502 16.7565 384.464 16.7114 384.436 17.268C384.408 17.8322 384.286 17.9448 383.766 17.8876C383.339 17.8408 383.09 17.9729 383.007 18.2897C382.917 18.6322 382.703 18.7267 382.223 18.6346C381.859 18.5653 381.481 18.6386 381.383 18.7969C381.11 19.239 380.444 19.1402 380.444 18.6575C380.444 18.3044 380.374 18.2876 380.043 18.5621C379.716 18.8336 379.551 18.812 379.144 18.443C378.673 18.0168 378.631 18.0169 378.392 18.4435C378.233 18.7286 378.012 18.817 377.795 18.6833C377.341 18.4019 375.469 18.4431 374.64 18.7526C373.785 19.0719 371.906 18.9316 371.775 18.5385C371.71 18.3432 371.614 18.3294 371.508 18.5018C371.282 18.8643 370.208 18.9606 369.148 18.7134C368.597 18.585 367.981 18.6303 367.486 18.8354C366.853 19.0976 366.572 19.0939 366.055 18.8191C365.532 18.5389 365.222 18.5369 364.402 18.8068C363.723 19.0311 363.097 19.0637 362.487 18.9067C361.782 18.7253 359.469 18.6568 359.469 18.8174C359.469 19.0099 356.364 18.9524 355.743 18.7489C355.29 18.6001 354.696 18.5703 354.424 18.6829C353.914 18.8937 352.067 18.9075 349.642 18.7196C348.88 18.6605 348.257 18.7073 348.257 18.8219C348.257 19.2207 347.529 19.3098 346.904 18.9875C346.255 18.6527 343.005 18.6083 342.032 18.9206C341.728 19.018 340.681 18.985 339.707 18.8468C338.381 18.6592 337.688 18.6821 336.961 18.9385C336 19.2774 335.023 19.1338 334.698 18.6066C334.548 18.3652 333.614 18.4892 332.229 18.9336C331.72 19.0967 331.635 19.0291 331.635 18.4621C331.635 17.5341 331.112 17.2988 331.087 18.215C331.074 18.6228 331.012 18.8247 330.945 18.6637C330.86 18.4569 330.498 18.4459 329.713 18.627C328.483 18.9095 328.011 18.9193 324.839 18.7273C323.263 18.6319 322.461 18.6987 321.944 18.9662C321.344 19.2773 321.143 19.2802 320.69 18.9825C320.021 18.5439 317.779 18.4757 317.141 18.8745C316.862 19.049 316.462 19.0828 316.17 18.9564C315.235 18.5532 314.354 18.5213 313.343 18.8537C312.533 19.1199 312.225 19.1204 311.803 18.8567C311.5 18.6671 310.956 18.5974 310.524 18.6924C310.11 18.7833 309.342 18.7389 308.816 18.5937C308.114 18.3996 307.829 18.4127 307.741 18.6426C307.607 18.9917 303.376 19.0149 302.509 18.6712C302.234 18.5619 301.669 18.6006 301.256 18.7572C300.697 18.9684 300.502 18.9623 300.499 18.7327C300.495 18.5505 300.397 18.5798 300.255 18.8045C300.055 19.1217 299.947 19.1262 299.592 18.833C299.275 18.5701 299.014 18.5517 298.558 18.7592C298.19 18.9268 297.8 18.944 297.576 18.8021C297.056 18.4726 295.838 18.502 295.267 18.8583C294.803 19.1482 292.345 18.9109 290.846 18.4313C290.491 18.3176 290.138 18.4069 289.861 18.6845C289.491 19.0548 289.168 19.0788 287.553 18.855C286.246 18.6739 285.484 18.6813 285.05 18.8794C284.627 19.0719 284.315 19.078 284.087 18.8958C283.901 18.7494 282.859 18.6715 281.771 18.7233C280.682 18.7751 278.902 18.8085 277.813 18.7975C274.186 18.7608 273.73 18.7771 272.766 18.9557C272.168 19.0674 271.74 19.0258 271.629 18.8456C271.387 18.4546 270.015 18.4795 269.359 18.8864C268.935 19.149 268.785 19.1494 268.623 18.8885C268.51 18.7082 267.95 18.5643 267.377 18.5688C266.805 18.5729 266.158 18.5689 265.941 18.5606C265.442 18.5362 262.61 18.7955 261.673 18.9492C261.284 19.0128 260.604 18.884 260.16 18.6626C259.423 18.2948 259.284 18.3005 258.56 18.7286C257.85 19.1479 257.635 19.1601 256.511 18.8444C255.132 18.4567 253.597 18.4473 253.143 18.824C252.966 18.9712 252.169 18.9529 251.105 18.7763C250.144 18.6169 249.142 18.581 248.877 18.6964C248.612 18.8118 248.277 18.8721 248.132 18.831C247.39 18.6202 240.349 18.6805 240.349 18.8978C240.349 19.0381 239.976 19.0695 239.492 18.9704C239.02 18.8738 237.981 18.7396 237.183 18.6724C236.385 18.6051 235.584 18.4962 235.402 18.4306C235.221 18.3649 235.072 18.4856 235.072 18.6989C235.072 18.9121 234.835 19.0866 234.545 19.0866C234.255 19.0866 234.017 18.9121 234.017 18.6989C234.017 18.4783 233.861 18.3714 233.653 18.451C233.386 18.5533 233.221 18.1843 233.028 17.0571L232.766 15.5237L232.733 17.0413C232.713 17.8759 232.61 18.5687 232.502 18.5808C232.13 18.622 231.249 18.7965 230.523 18.9722C229.931 19.1157 229.793 19.057 229.776 18.6554C229.764 18.3843 229.7 18.2974 229.632 18.4621C229.551 18.6611 229.208 18.6933 228.612 18.5588C228.007 18.4222 227.484 18.4756 227.01 18.721C226.155 19.1647 225.403 19.1824 224.265 18.7855C223.61 18.5571 222.959 18.5641 221.555 18.814C220.389 19.0224 219.646 19.0505 219.542 18.8907C219.45 18.7512 219.198 18.6187 218.98 18.5959C218.762 18.5714 218.198 18.5078 217.727 18.4503C217.255 18.3928 216.869 18.4503 216.869 18.5783C216.869 18.7064 216.576 18.8845 216.217 18.9747C215.381 19.1846 214.831 18.6444 214.688 17.474C214.586 16.6353 214.577 16.6486 214.537 17.6803C214.496 18.7582 214.476 18.7803 213.656 18.6765C213.195 18.6182 212.675 18.6888 212.499 18.8347C212.285 19.0125 211.781 18.9921 210.958 18.7719C210.061 18.5318 209.536 18.5204 208.985 18.7287C208.206 19.0227 206.825 19.0039 205.305 18.679C204.753 18.5611 204.193 18.6158 203.8 18.8262C203.298 19.0953 202.776 19.0973 201.161 18.8384C199.62 18.5897 198.974 18.5856 198.407 18.8221C197.868 19.0455 197.391 19.0529 196.657 18.8506C195.987 18.6655 195.33 18.6573 194.704 18.8262C194.186 18.966 193.47 19.0039 193.113 18.9114C192.524 18.7581 192.042 18.7487 189.76 18.8457C189.361 18.862 188.56 18.862 187.979 18.8447C187.399 18.8284 186.538 18.8162 186.067 18.8243C185.595 18.8325 184.497 18.8406 183.626 18.8406C182.756 18.8437 181.598 18.8488 181.054 18.8529C180.51 18.8559 179.144 18.8003 178.02 18.7289C176.847 18.6547 175.975 18.7044 175.975 18.8439C175.975 18.9784 175.797 19.0885 175.579 19.0885C175.362 19.0885 175.183 18.9719 175.183 18.8292C175.183 18.6702 174.547 18.6323 173.534 18.7309C171.299 18.9487 169.229 18.9373 167.765 18.6983C166.952 18.5658 166.485 18.5976 166.364 18.7941C166.13 19.1721 164.922 19.1697 163.406 18.7901C162.477 18.556 161.889 18.567 160.758 18.8382C159.73 19.0849 159.175 19.1065 158.864 18.9124C158.623 18.7611 157.654 18.6853 156.712 18.7436C155.771 18.8019 154.644 18.8467 154.209 18.8431C153.773 18.8391 152.646 18.8268 151.702 18.8186C150.759 18.8105 149.394 18.8023 148.668 18.8023C143.477 18.8105 137.983 18.6885 137.983 18.5654C137.983 18.4843 137.478 18.4419 136.862 18.4712C136.245 18.4997 135.422 18.4035 135.033 18.2555C134.394 18.0125 134.309 17.8176 134.144 16.2297C133.921 14.0729 133.533 13.2125 133.471 14.7366L133.428 15.7923L133.234 14.8688C133.066 14.0737 133.035 14.1725 133.005 15.579C132.964 17.4541 132.457 18.1643 132.416 16.4018C132.396 15.4409 132.357 15.3669 132.178 15.9244C132.014 16.437 131.96 16.2604 131.937 15.1327C131.916 14.2459 131.821 13.8162 131.686 14.0282C131.554 14.237 131.385 13.3417 131.263 11.785C131.151 10.3603 130.985 8.24455 130.893 7.08334C130.751 5.27055 130.693 5.08396 130.486 5.76375L130.246 6.55546L130.056 5.76375C129.952 5.32828 129.852 3.93285 129.835 2.66272C129.811 0.799904 129.727 0.353516 129.408 0.353516C129.089 0.353516 129.012 0.769905 129.012 2.51762C129.012 3.81441 128.917 4.58121 128.774 4.43096C128.643 4.29314 128.489 3.94273 128.431 3.65245C128.374 3.36214 128.241 4.78724 128.137 6.8194C128.032 8.85151 127.866 11.2862 127.767 12.2296C127.478 14.9746 127.233 13.0701 127.197 7.80908C127.18 5.30521 127.06 3.25657 126.932 3.25657C126.804 3.25657 126.605 2.57368 126.491 1.73907C126.306 0.382382 126.264 0.305475 126.096 1.01328C125.993 1.44875 125.873 3.28955 125.83 5.10397C125.757 8.15141 125.739 8.252 125.596 6.42351C125.497 5.15796 125.385 4.68212 125.284 5.10397C125.198 5.46686 125.107 4.57611 125.083 3.12462C125.024 -0.408808 124.554 0.359998 124.31 4.38851L124.132 7.34721L123.988 3.7844C123.893 1.41777 123.826 3.25632 123.79 9.2606C123.739 17.6554 123.703 18.3025 123.274 18.3398C123.02 18.3602 122.672 18.3933 122.501 18.4092C122.33 18.4255 122.111 18.5176 122.014 18.6147C121.917 18.7117 121.698 18.7374 121.527 18.6722C120.753 18.3749 118.22 18.4373 117.183 18.779C116.318 19.0644 115.9 19.0852 115.468 18.8646C114.761 18.5033 112.438 18.4008 111.747 18.7003C111.414 18.845 111.199 18.8145 111.132 18.6134C111.06 18.3961 110.913 18.4214 110.636 18.6978C110.197 19.1371 109.753 19.216 109.753 18.8544C109.753 18.7219 107.804 18.6399 105.333 18.6681C102.903 18.6966 100.706 18.6701 100.452 18.6102C100.115 18.5311 99.9784 18.2089 99.9446 17.4112L99.8986 16.3203L99.7975 17.4419C99.7021 18.4984 99.6475 18.5653 98.8542 18.5939C98.391 18.6103 97.7971 18.6021 97.5345 18.5736C97.272 18.545 96.8825 18.669 96.6692 18.8459C96.3728 19.0918 96.1249 19.0967 95.6172 18.8663C94.7661 18.4786 93.7897 18.4822 92.6974 18.8786C92.0201 19.1236 91.6968 19.1203 91.2185 18.8622C90.76 18.6168 89.9465 18.5931 87.9772 18.7681C86.1447 18.9307 85.2892 18.9148 85.1541 18.7163C85.0473 18.5593 84.9585 18.5042 84.9564 18.5935C84.9545 18.6828 84.4836 18.6702 83.9107 18.565C83.1402 18.4239 82.8333 18.4676 82.7317 18.7322C82.565 19.1671 81.4788 19.2047 81.0641 18.7901C80.8497 18.5756 80.4674 18.565 79.7259 18.7534C79.0286 18.9303 78.5305 18.9291 78.2087 18.7493C77.6104 18.4145 75.9801 18.4594 75.619 18.8206C75.0338 19.4059 74.6628 19.0885 74.6232 17.9692L74.5825 16.8476L74.408 18.0352C74.2409 19.1723 74.2209 19.1947 73.9367 18.563C73.7732 18.2001 73.6326 18.0443 73.6232 18.2168C73.6151 18.3893 73.3986 18.5345 73.1448 18.5394C69.9254 18.6034 66.478 18.7987 66.2664 18.9296C66.1196 19.0201 65.6774 18.972 65.2836 18.8223C64.7821 18.6315 64.1089 18.6401 63.0369 18.8509C61.6514 19.1237 61.4356 19.1024 60.7626 18.6282C60.1783 18.2166 59.8919 18.1621 59.4255 18.3738C59.099 18.5222 58.8319 18.7583 58.8319 18.8992C58.8319 19.0399 58.6537 19.0073 58.4361 18.8267C58.1813 18.615 57.9228 18.5861 57.7105 18.7447C57.3339 19.0264 56.8958 19.0199 55.8637 18.7161C55.3179 18.5563 55.133 18.3308 55.1173 17.8065L55.0969 17.1093L54.8491 17.7839C54.5116 18.7022 53.0862 19.2242 52.1194 18.7836C51.6175 18.5548 51.1796 18.5397 50.5745 18.7301C49.4519 19.0837 45.9718 18.9976 45.5807 18.6062C45.1523 18.1777 44.5493 18.2192 43.8239 18.7277C43.4855 18.9646 43.1327 19.0539 43.0396 18.9259C42.7853 18.5756 41.7541 18.4965 41.5591 18.8121C41.3337 19.177 40.1802 19.1676 39.9525 18.7999C39.8307 18.6025 39.0417 18.5683 37.4739 18.6926C35.5196 18.8472 35.1083 18.8088 34.7351 18.4353C34.4933 18.1935 34.2959 18.1218 34.2959 18.2759C34.2959 18.43 34.0289 18.5405 33.7023 18.5222C33.3758 18.5018 32.7991 18.6143 32.4209 18.7681C31.9487 18.9597 31.163 18.9658 29.9144 18.7884C27.6594 18.4659 27.1308 18.4667 26.9293 18.7924C26.8384 18.9392 26.0372 18.9922 25.0588 18.9164C23.0893 18.7634 21.315 18.7471 20.187 18.8715C19.5008 18.9473 19.3799 18.8593 19.2289 18.1664L19.056 17.3747L19.0234 18.1314L18.9908 18.8882L17.0015 18.7018C15.5889 18.5693 14.9004 18.608 14.627 18.8352C14.3987 19.0248 14.2418 19.0456 14.2418 18.8861C14.2418 18.7381 13.5889 18.6093 12.7907 18.5999C11.9926 18.5917 11.3396 18.6814 11.3396 18.8025C11.3396 18.9236 10.7766 18.9171 10.0885 18.7903C9.40038 18.6619 8.47574 18.5807 8.0338 18.6105C7.59182 18.639 7.09644 18.582 6.93294 18.4808C6.76949 18.3797 6.57547 18.4482 6.50205 18.6284C6.42379 18.8225 6.3598 18.7622 6.34757 18.4825C6.33534 18.2199 6.20775 18.0784 6.06305 18.1681C5.89674 18.2709 5.78016 17.521 5.74755 16.1383L5.69578 13.9455L5.60202 15.7929C5.44672 18.852 5.01106 18.4746 4.97723 15.2519C4.95277 12.996 4.89896 12.5936 4.72858 13.4177C4.60833 13.9983 4.50357 15.1166 4.49501 15.9028C4.47463 17.6929 4.21008 17.4821 3.95296 15.4732L3.75731 13.9455L3.68108 15.9249C3.60648 17.8678 3.60159 17.8799 3.42428 16.5846L3.2433 15.2651L3.20172 16.635C3.14057 18.654 2.6401 18.6797 2.59669 16.6676C2.57631 15.7519 2.51598 15.2995 2.46136 15.6624C2.40674 16.0253 2.28608 16.8566 2.19355 17.5098C2.04559 18.5533 2.00157 18.6173 1.82752 18.0376C1.66447 17.4939 1.62452 17.4707 1.59966 17.9055C1.5752 18.3452 1.52669 18.3672 1.3135 18.0376C1.17287 17.8199 1.03837 16.4541 1.01432 15.0026L0.9707 12.3635L0.722049 15.8864C0.566339 18.0915 0.56594 20.6584 0.721692 22.7482L0.970327 26.087L1.02536 23.5798C1.07264 21.4312 1.45732 18.2816 1.54737 19.3068C1.56367 19.4968 1.68147 19.5881 1.80864 19.5095C1.93541 19.4308 2.13108 19.8695 2.24285 20.4835C2.44217 21.5792 2.4495 21.5854 2.61295 20.8085C2.75073 20.1533 2.81228 20.1001 2.97003 20.5003C3.07479 20.7661 3.17751 21.4194 3.1983 21.9518L3.23498 22.9199L3.42412 21.8643C3.58554 20.9614 3.62548 21.1141 3.69885 22.9199L3.78487 25.0312L3.95199 22.9199C4.04412 21.7587 4.14072 21.0521 4.16721 21.3496C4.19575 21.6473 4.32291 22.0035 4.45376 22.1414C4.58501 22.2792 4.7493 22.6296 4.819 22.9199C4.8887 23.2102 4.95962 22.7743 4.97633 21.9518C5.03258 19.2059 5.39814 19.4028 5.54892 22.2601L5.69526 25.0311L5.75109 22.2601C5.78778 20.3573 5.88683 19.613 6.06252 19.8848C6.24839 20.1723 6.31931 20.1862 6.32216 19.935C6.32404 19.745 6.44486 19.663 6.58997 19.7527C6.73508 19.8424 6.8537 19.798 6.8537 19.6536C6.8537 19.4208 10.4846 19.2581 12.7899 19.3878C14.0523 19.4587 14.5922 19.4559 15.2963 19.3755C15.6591 19.3335 16.6386 19.3124 17.473 19.3287C18.9348 19.3572 18.9915 19.3841 19.0295 20.0836L19.0703 20.8094L19.1767 20.1222C19.2986 19.3351 19.1522 19.3585 23.7815 19.3795C25.863 19.3876 27.0335 19.2828 27.4038 19.0516C27.8622 18.7654 28.0694 18.7797 28.6819 19.1405C29.2969 19.5026 29.7686 19.5344 31.6554 19.3395C33.5059 19.1487 33.9487 19.1752 34.1879 19.4928C34.3473 19.7044 34.5483 19.8072 34.6342 19.7212C35.0137 19.3415 38.3221 19.1675 40.3619 19.4198C41.0149 19.5006 41.6924 19.4484 41.8674 19.3077C42.0423 19.165 42.3392 19.145 42.527 19.2625C42.9386 19.5206 43.8003 19.4072 44.2535 19.0357C44.4817 18.8486 44.7029 18.8645 44.9724 19.0883C45.2354 19.3065 46.2426 19.3921 48.0725 19.3522C54.6148 19.2086 54.6471 19.2102 54.8884 19.6217C55.0812 19.9503 55.122 19.9344 55.1285 19.5275C55.1326 19.1577 55.25 19.0889 55.5983 19.2469C56.2944 19.5634 58.627 19.5691 59.226 19.2551C59.9713 18.8657 60.2187 18.8747 60.7382 19.3106C61.2233 19.7175 63.4589 19.5825 63.9228 19.1185C64.0577 18.9835 64.4447 19.0353 64.841 19.2412C65.6085 19.6396 67.8057 19.4688 68.1223 18.9864C68.258 18.7797 68.4643 18.7915 68.8442 19.0272C69.482 19.4227 71.4535 19.4598 72.4138 19.0944C73.042 18.8555 73.1373 18.9089 73.4759 19.6882C73.7971 20.4275 73.8493 20.4612 73.8583 19.9353C73.8787 18.7952 74.396 19.645 74.4406 20.8902L74.4851 22.1282L74.5923 21.0759C74.7268 19.7566 75.053 19.3571 75.9961 19.3571C76.4051 19.3571 76.8133 19.238 76.9032 19.0925C77.0116 18.9167 77.2411 18.9212 77.5858 19.1047C78.0552 19.3559 79.0505 19.4146 82.1639 19.3742C82.7359 19.3661 83.318 19.2466 83.4575 19.1067C83.6202 18.944 83.9045 18.9563 84.2484 19.1393C84.8444 19.4586 88.4042 19.4464 89.5953 19.119C90.1043 18.9799 90.5415 19.0288 90.9089 19.2662C91.3178 19.53 91.8613 19.5667 93.0196 19.4093C93.8776 19.2927 94.9913 19.282 95.4946 19.3848C95.9979 19.4884 96.5915 19.4831 96.8138 19.3726C97.0359 19.2625 97.5741 19.203 98.0094 19.2409C98.4447 19.2776 99.0086 19.3192 99.2626 19.331C99.6286 19.3473 99.7325 19.6123 99.7639 20.606L99.8047 21.8596L99.9628 20.672L100.121 19.4844L105.464 19.4558C109.938 19.4314 110.806 19.4885 110.806 19.8045C110.806 20.1168 110.878 20.1107 111.221 19.7678C111.72 19.2689 112.122 19.2314 112.133 19.6829C112.137 19.8644 112.268 19.7951 112.423 19.5288C112.636 19.161 112.872 19.09 113.404 19.2328C113.996 19.3918 120.031 19.6304 122.877 19.6075L123.734 19.5994L123.788 28.6467C123.825 34.6524 123.891 36.4962 123.986 34.1312L124.13 30.5683L124.328 32.6535C124.436 33.8003 124.527 35.463 124.529 36.3483C124.533 37.4849 124.609 37.8416 124.789 37.562C124.93 37.3443 125.047 36.7249 125.049 36.1855L125.051 36.1816Z" fill="black"/>
</svg>
