<svg width="464" height="38" viewBox="0 0 464 38" fill="none" xmlns="http://www.w3.org/2000/svg">
<path d="M221.741 28.6453C221.807 21.3188 221.833 20.8803 221.958 24.9505L222.099 29.5691L222.348 24.5547C222.503 21.4105 222.663 19.8848 222.775 20.464L222.953 21.3877L222.986 20.5383C223.01 19.8994 223.119 19.7265 223.416 19.8408C223.642 19.9276 223.827 19.8389 223.847 19.6345C223.867 19.4375 223.967 19.6919 224.072 20.2L224.262 21.1238L224.465 20.266C224.686 19.3381 224.852 19.2353 225.342 19.725C225.588 19.9713 225.658 19.9643 225.658 19.6923C225.658 19.4558 225.765 19.4241 225.988 19.5933C226.492 19.9753 227.78 19.7572 228.172 19.2238C228.508 18.7657 228.552 18.7659 229.335 19.2258C229.782 19.4888 230.409 19.6668 230.728 19.6217C231.13 19.5646 231.412 19.7424 231.646 20.1993C231.96 20.8148 231.983 20.8213 231.986 20.2959C231.99 19.6328 232.725 19.3294 234.2 19.3809C234.763 19.4013 235.386 19.2814 235.585 19.1159C235.857 18.8904 236.041 18.8929 236.322 19.124C236.832 19.5473 240.204 19.5538 240.877 19.1322C241.324 18.8533 241.516 18.8671 242.011 19.2141C242.407 19.4914 242.797 19.5619 243.169 19.4233C243.478 19.3087 243.957 19.2496 244.233 19.2928C245.392 19.4731 246.938 19.4931 247.2 19.3295C247.354 19.2341 247.884 19.2268 248.376 19.3132C248.869 19.4001 249.657 19.4645 250.129 19.4563C250.6 19.4482 250.986 19.5513 250.986 19.6863C250.986 19.8213 251.105 19.9314 251.25 19.9314C251.395 19.9314 251.514 19.7602 251.514 19.551C251.514 18.7278 252.623 18.7814 252.979 19.6219C253.082 19.8645 253.251 21.1915 253.355 22.5705L253.543 25.0777L253.584 23.1391C253.612 21.8502 253.779 20.9214 254.086 20.3679C254.677 19.3021 254.84 19.1931 255.62 19.3422C256.233 19.4597 256.265 19.5624 256.308 21.6116L256.354 23.7581L256.506 21.4697C256.59 20.211 256.737 19.103 256.834 19.0074C256.93 18.912 257.287 19.0155 257.628 19.2394C258.14 19.575 258.563 19.6007 260.066 19.3878C261.067 19.2459 262.089 19.1946 262.337 19.2737C263.235 19.5587 264.755 19.4865 264.964 19.1485C265.12 18.8961 265.222 18.9536 265.354 19.3687C265.453 19.6806 265.754 19.9314 266.029 19.9314C266.302 19.9314 266.643 20.1393 266.785 20.3932C267.062 20.8869 267.159 20.7581 267.43 19.5355C267.494 19.2452 267.582 21.7986 267.625 25.2097L267.704 31.4116L267.885 26.2653C267.984 23.4348 268.081 20.7146 268.1 20.2204C268.133 19.3389 268.145 19.3309 268.663 19.7994C268.983 20.0893 269.191 20.1529 269.191 19.9604C269.191 19.7863 269.398 19.6791 269.652 19.7215C269.954 19.7721 270.164 20.1199 270.258 20.7228L270.403 21.6465L270.762 20.5249C271.013 19.7414 271.267 19.4032 271.607 19.4032C271.985 19.4032 272.103 19.6238 272.137 20.3929L272.182 21.3825L272.283 20.4209C272.367 19.6369 272.509 19.4356 273.057 19.3309C274.375 19.0789 274.728 19.3594 274.767 20.6876C274.788 21.3601 274.851 21.6135 274.91 21.2506C275.127 19.9109 275.561 19.4032 276.49 19.4032C276.998 19.4032 277.369 19.5369 277.369 19.72C277.369 19.9663 277.44 19.9663 277.686 19.72C278.287 19.1185 278.689 19.3689 278.689 20.3459C278.689 21.1874 278.731 21.2456 279.088 20.889C279.307 20.6692 279.56 20.1264 279.648 19.6826C279.789 18.9774 280.271 18.5149 280.271 19.0848C280.271 19.3372 282.312 19.9132 282.509 19.7163C282.823 19.4024 284.493 19.3975 284.493 19.7122C284.493 19.8957 284.635 19.8395 284.824 19.5814C285.072 19.2409 285.367 19.1713 286.011 19.3001C286.861 19.4701 286.868 19.4843 286.899 21.0879C286.923 22.3848 286.969 22.5478 287.131 21.9125C287.323 21.1599 287.336 21.1534 287.394 21.7805C287.426 22.1433 287.54 23.9842 287.644 25.8712L287.833 29.302L287.878 26.7687C287.942 23.1633 288.225 20.1894 288.488 20.3525C288.613 20.4295 288.718 20.2179 288.723 19.8827C288.731 19.29 288.743 19.2874 289.119 19.7857C289.407 20.1665 289.514 21.1475 289.539 23.6124C289.563 26.1622 289.621 26.6528 289.783 25.7393C289.899 25.086 290.031 23.6609 290.075 22.5723C290.119 21.4836 290.219 24.4527 290.298 29.1701L290.441 37.7474L290.516 29.3021C290.596 20.4762 290.952 15.9935 291.114 21.7805L291.199 24.8155L291.286 22.3743C291.371 20.005 291.697 19.2374 292.039 20.6013C292.195 21.2246 292.23 21.2379 292.563 20.7991C292.866 20.3999 292.929 21.4242 292.979 27.5865L293.039 34.8441L293.203 28.3782C293.319 23.7919 293.474 21.6438 293.736 20.9886L294.104 20.0649L294.281 20.8567C294.441 21.5758 294.46 21.5455 294.488 20.5268C294.512 19.6342 294.616 19.4052 294.994 19.4052C295.759 19.4052 296.1 19.9562 296.131 21.2394L296.16 22.4402L296.493 20.8567C296.805 19.3714 296.831 19.633 296.907 25.0793L296.989 30.8855L297.139 25.2992C297.221 22.2268 297.358 19.6436 297.443 19.5589C297.749 19.2531 299.779 19.3273 300.178 19.6588C300.413 19.8537 300.587 20.4156 300.587 20.9818C300.587 22.1142 301.054 23.6279 301.404 23.6279C301.535 23.6279 301.662 22.767 301.686 21.7146L301.731 19.8012L301.906 21.3847C302.058 22.7605 302.087 22.8232 302.125 21.8621C302.207 19.8184 302.695 20.3211 302.735 22.4907L302.772 24.5517L303.041 22.5755C303.19 21.4886 303.469 20.441 303.663 20.2474C303.956 19.9543 304.015 19.9828 304.015 20.4203C304.015 21.8269 304.782 22.291 304.846 20.9226C304.878 20.2052 304.913 20.2591 305.052 21.2525L305.218 22.4401L305.424 21.5164C305.828 19.7098 306.128 19.2072 306.803 19.2072C307.197 19.2072 307.444 19.3596 307.444 19.6022C307.444 19.9235 307.518 19.9362 307.84 19.6687C308.168 19.3967 308.237 19.4253 308.24 19.8343C308.244 20.2499 308.285 20.2655 308.5 19.9326C308.672 19.6651 308.768 20.6905 308.794 23.0995L308.83 26.6623L309.175 23.6273C309.364 21.9581 309.528 20.3548 309.54 20.0645C309.561 19.6242 309.605 19.6023 309.822 19.9324C310.053 20.2843 310.11 20.2843 310.341 19.9324C310.516 19.6665 310.617 21.8775 310.649 26.6621C310.686 32.2445 310.738 33.1877 310.885 31.0168C310.988 29.4927 311.088 26.5236 311.108 24.4189C311.128 22.3142 311.215 20.3263 311.302 20.0013C311.532 19.1436 311.923 19.541 311.963 20.6737L311.996 21.6479L312.19 20.7242C312.364 19.8981 312.392 19.9678 312.451 21.3839C312.575 24.3648 312.917 24.7233 312.955 21.9119C312.975 20.3562 313.081 19.4174 313.213 19.6251C313.336 19.8188 313.512 19.9672 313.605 19.955C314.47 19.8392 314.544 19.9754 314.633 21.8458L314.724 23.7593L314.785 21.516C314.837 19.5875 314.895 19.3375 315.196 19.7345C315.678 20.3695 315.831 20.3161 315.955 19.4707L316.061 18.745L316.269 19.6027C316.384 20.0744 316.574 20.4604 316.691 20.4604C316.808 20.4604 316.954 20.787 317.014 21.1862C317.101 21.7604 317.132 21.702 317.163 20.9064C317.184 20.3536 317.309 19.967 317.439 20.0473C317.569 20.1276 317.743 20.0147 317.827 19.799C317.91 19.5821 318.201 19.4046 318.473 19.4046C318.885 19.4046 319.036 19.7704 319.37 21.582L319.771 23.7593L319.841 22.0438L319.912 20.3284L320.117 21.6479C320.23 22.3737 320.35 24.0958 320.385 25.4747C320.445 27.9348 320.45 27.9522 320.643 26.3984C320.751 25.5275 320.866 23.5679 320.899 22.0438C320.931 20.5197 321.012 19.4806 321.078 19.7346C321.217 20.2673 321.844 20.3533 322.041 19.8667C322.114 19.6852 322.202 20.9619 322.236 22.7038L322.298 25.8707L322.478 22.7687C322.576 21.0626 322.736 19.5879 322.832 19.4917C322.929 19.3955 323.009 19.6039 323.011 19.9546C323.015 20.4633 323.067 20.5123 323.271 20.1965C323.446 19.9266 323.546 20.8077 323.586 22.9676L323.645 26.1346L323.731 23.5861C323.797 21.6493 323.91 21.002 324.204 20.8892C324.518 20.7685 324.595 21.0719 324.617 22.514C324.646 24.3915 324.766 24.2239 325.333 21.516L325.582 20.3284L325.635 21.648C325.696 23.2012 325.805 23.0059 326.04 20.9187C326.255 19.0175 326.69 19.1956 326.732 21.2017L326.764 22.7036L327.086 20.8562L327.408 19.0088L327.62 20.1519C327.759 20.907 327.905 21.1768 328.047 20.9469C328.171 20.7451 328.299 21.5399 328.351 22.8389L328.441 25.0788L328.495 22.6376C328.528 21.2219 328.66 20.1964 328.812 20.1964C328.958 20.1964 329.3 19.9729 329.573 19.6993C329.904 19.3686 330.301 19.2463 330.76 19.3343C331.319 19.4412 331.458 19.6239 331.487 20.2933C331.515 20.9107 331.552 20.9703 331.637 20.5286C331.765 19.8643 332.654 19.1407 333.341 19.1407C333.591 19.1407 333.964 19.3809 334.169 19.6744C334.517 20.1711 334.568 20.1771 334.91 19.7624C335.236 19.3661 335.292 19.4602 335.42 20.6143L335.564 21.9119L335.771 20.8563C336.087 19.2389 336.129 19.1716 336.712 19.3241C337.195 19.4505 337.255 19.6702 337.255 21.2985C337.255 22.4528 337.353 23.0703 337.519 22.9676C337.664 22.8779 337.791 22.0692 337.802 21.1706C337.814 20.0134 337.886 19.6907 338.047 20.0645C338.263 20.5682 338.274 20.5651 338.292 19.9984C338.309 19.4999 338.47 19.3974 339.3 19.3595C339.844 19.335 340.527 19.2959 340.817 19.2731C341.107 19.2486 341.538 19.3264 341.773 19.4414C342.008 19.5564 342.543 19.5585 342.96 19.4452C344.186 19.1141 344.64 19.3367 344.664 20.2809L344.684 21.1193L344.949 20.393C345.099 19.9816 345.462 19.6171 345.786 19.5523C347.257 19.258 348.406 19.2176 350.921 19.3713C352.415 19.4626 353.731 19.4439 353.846 19.3289C353.96 19.2143 354.358 19.2359 354.73 19.3774C355.101 19.5189 355.475 19.5645 355.559 19.4797C355.689 19.3501 364.964 19.3269 368.189 19.4471L369.179 19.4838L369.221 21.2247L369.264 22.9655L369.442 21.514L369.62 20.0625L369.71 21.7778L369.801 23.4933L369.951 21.514C370.079 19.8205 370.168 19.5458 370.563 19.6121C370.817 19.6549 371.028 19.5359 371.033 19.3483C371.037 19.1343 371.138 19.1726 371.3 19.4507C371.466 19.7357 371.785 19.8536 372.191 19.7797C372.81 19.6676 372.828 19.7186 372.999 21.9751C373.229 25.0045 373.349 25.2639 373.397 22.8337C373.417 21.745 373.538 20.6168 373.663 20.3265C373.798 20.0134 373.912 23.075 373.944 27.848C373.976 32.8438 374.075 35.3968 374.203 34.5778C374.316 33.8521 374.421 30.1705 374.436 26.3965C374.456 21.8606 374.549 19.6689 374.719 19.9306C374.859 20.1484 374.999 21.1578 375.028 22.1739L375.082 24.0213L375.179 22.4419C375.232 21.5734 375.432 20.6827 375.622 20.4626C375.813 20.2425 376.034 19.8844 376.114 19.6667C376.194 19.449 376.286 19.8053 376.318 20.4584L376.376 21.646L376.537 20.6206C376.638 19.9712 376.915 19.4514 377.291 19.2029C377.875 18.8172 377.885 18.8298 377.919 19.9644L377.956 21.1182L378.151 20.1945C378.323 19.3753 378.349 19.352 378.38 19.9882C378.42 20.8333 379.079 20.7451 379.361 19.8569C379.526 19.3364 379.556 19.3313 379.878 19.7709C380.199 20.2094 380.239 20.2015 380.539 19.6408C380.847 19.0651 380.871 19.0614 381.219 19.5376C381.418 19.8092 381.6 20.5729 381.625 21.2346L381.669 22.4378L381.775 21.4111C381.833 20.8465 382.05 20.2145 382.258 20.0067C382.586 19.6789 382.642 19.8848 382.682 21.5612L382.729 23.4935L382.88 21.6667C382.972 20.5561 383.161 19.7975 383.361 19.7314C383.557 19.667 383.703 19.8729 383.722 20.2385C383.751 20.7799 383.774 20.7646 383.92 20.1117L384.087 19.369L384.653 19.899C385.211 20.4206 385.222 20.4209 385.354 19.9153C385.428 19.6331 385.618 19.4023 385.777 19.4023C385.979 19.4023 386.078 21.8825 386.108 27.6496L386.15 35.8968L386.349 27.9302C386.54 20.3123 386.808 17.9337 387.271 19.7776C387.45 20.4932 387.485 20.5106 387.819 20.0532C388.122 19.6396 388.176 20.9071 388.176 28.3689C388.176 33.2108 388.261 37.0875 388.365 36.9836C388.469 36.8797 388.617 32.8518 388.694 28.0325L388.836 19.2703L389.62 19.2712C390.179 19.2722 390.493 19.4506 390.714 19.8943C391.021 20.5103 391.026 20.5108 391.201 19.9579C391.363 19.4476 391.414 19.4359 391.798 19.8201C392.182 20.2046 392.241 20.1997 392.483 19.7667C392.734 19.3178 392.759 19.32 392.95 19.8091C393.132 20.2751 393.153 20.2789 393.17 19.8498C393.178 19.5872 393.307 19.4458 393.452 19.5355C393.598 19.6252 393.716 19.564 393.716 19.4033C393.716 19.2317 393.854 19.1958 394.046 19.3177C394.227 19.4331 394.493 19.5289 394.637 19.5314C394.781 19.5333 394.975 19.8918 395.067 20.3272C395.235 21.1118 395.237 21.1125 395.268 20.4087C395.331 18.9664 395.827 19.3722 395.874 20.9054L395.922 22.4385L396.014 21.119C396.065 20.3932 396.179 19.6212 396.267 19.4035C396.616 18.5419 396.832 20.4638 396.904 25.0776L396.979 29.8281L397.158 25.4735C397.257 23.0785 397.354 20.6472 397.374 20.0705C397.41 19.0766 397.43 19.0505 397.792 19.5679C398.026 19.9023 398.268 21.2805 398.415 23.1235L398.655 26.1333L398.696 23.7581C398.725 22.1157 398.817 21.505 398.994 21.7787C399.182 22.0707 399.263 21.8623 399.301 20.987C399.338 20.1024 399.395 20.3044 399.521 21.7787L399.69 23.7581L399.781 22.1746L399.871 20.5911L400.049 22.0426L400.227 23.4942L400.269 21.8603C400.294 20.9617 400.431 20.153 400.576 20.0633C400.721 19.9736 400.84 20.1379 400.84 20.4282C400.84 20.7185 400.959 21.0294 401.104 21.1191C401.267 21.2198 401.388 23.974 401.421 28.3263L401.474 35.3705L401.64 27.453C401.731 23.0984 401.826 19.5312 401.851 19.5258C402.46 19.392 402.996 19.5462 403.368 19.9559C403.726 20.3515 403.885 20.3934 404.048 20.1354C404.166 19.9507 404.282 23.8372 404.308 28.7723L404.354 37.7454L404.574 31.4114C404.941 20.8695 405.038 19.7106 405.546 19.786C405.787 19.8227 406.18 19.7297 406.419 19.5809C406.975 19.2347 407.486 19.7257 407.883 20.9869L408.173 21.9106L408.202 20.8434C408.226 19.8286 408.28 19.7625 409.284 19.4945C409.864 19.3396 410.339 19.2854 410.339 19.3738C410.339 19.4627 411.17 19.5349 412.186 19.5349C413.565 19.5349 414.033 19.444 414.033 19.1769C414.033 18.9282 414.174 18.8858 414.495 19.0379C414.749 19.1586 415.708 19.2691 416.627 19.2834C417.761 19.3038 418.375 19.4306 418.54 19.6862C418.723 19.9708 418.832 19.9851 418.988 19.7449C419.101 19.57 419.428 19.4252 419.714 19.4232C419.999 19.4213 420.856 19.3804 421.618 19.3327L423.003 19.2462L423.052 20.5782L423.101 21.9102L423.199 20.4977C423.29 19.181 423.336 19.0977 423.876 19.2688C424.194 19.3695 424.775 19.5131 425.166 19.5877C425.781 19.7043 425.892 19.8715 425.978 20.8167L426.077 21.9103L426.123 20.6567C426.152 19.8747 426.293 19.3911 426.499 19.371C427.066 19.3156 428.109 19.3107 429.146 19.3588C429.91 19.3955 430.2 19.5431 430.382 19.998C430.613 20.5736 430.622 20.5701 430.637 19.8826C430.654 19.2144 430.711 19.1821 431.644 19.3232C432.188 19.4056 432.743 19.5735 432.877 19.6963C433.012 19.8198 433.278 19.7896 433.472 19.629C434.064 19.1375 435.872 19.1336 436.06 19.6249C436.201 19.9939 436.256 19.9988 436.473 19.6616C436.678 19.3427 436.763 19.3362 436.95 19.6249C437.075 19.8186 437.282 19.9634 437.412 19.9462C437.54 19.9299 437.715 20.3642 437.799 20.9133L437.952 21.9117L438.157 20.8265C438.531 18.843 438.981 18.6277 439.365 20.2489L439.571 21.12L439.599 20.1441C439.628 19.1761 439.632 19.1704 440.421 19.4453C440.858 19.5978 441.393 19.6545 441.609 19.5717C441.93 19.4481 442.008 19.7425 442.038 21.1942L442.075 22.9673L442.257 21.1868C442.356 20.2076 442.493 19.3513 442.56 19.2839C442.627 19.2167 442.934 19.2273 443.241 19.3084C443.751 19.4417 443.815 19.699 443.974 22.267C444.208 26.0409 444.256 26.0854 444.474 22.7269C444.683 19.501 444.876 18.8533 445.447 19.4645C445.738 19.7756 446.006 19.7936 446.871 19.5591C447.457 19.4005 448.53 19.2847 449.255 19.3027C452.822 19.3895 452.817 19.3887 452.834 19.8672C452.846 20.2125 452.912 20.175 453.096 19.7183C453.23 19.3824 453.438 19.1676 453.556 19.2409C453.675 19.3143 454.447 19.4015 455.273 19.4349C456.76 19.4953 456.775 19.5039 456.779 20.3083C456.782 20.93 456.843 21.0279 457.038 20.7249C457.179 20.5072 457.296 20.0015 457.298 19.6011C457.302 18.9394 457.35 18.9031 457.83 19.2027C458.217 19.4445 458.369 19.8495 458.402 20.7224C458.445 21.8809 458.449 21.8861 458.55 20.9173C458.607 20.37 458.761 19.9886 458.893 20.0699C459.024 20.151 459.283 19.9753 459.467 19.6796C460.01 18.8105 460.728 18.9891 460.753 19.9993C460.765 20.4711 460.832 20.6789 460.904 20.4611C461.355 19.0906 461.527 18.9576 462.464 19.2508L463.364 19.5326L463.436 28.772C463.477 33.8536 463.509 29.4606 463.509 19.0096C463.509 8.55859 463.476 4.31291 463.436 9.57469C463.395 14.8365 463.311 19.1415 463.247 19.1415C462.835 19.1415 461.581 18.4238 461.199 17.9691L460.743 17.4261L460.739 18.0199C460.736 18.4389 460.576 18.6137 460.198 18.6137C459.903 18.6137 459.593 18.7919 459.51 19.0096C459.255 19.6723 458.953 19.4565 458.676 18.4158C458.499 17.7487 458.405 17.6197 458.386 18.0199C458.362 18.596 457.831 18.8953 457.831 18.3343C457.831 18.1805 457.713 18.1284 457.567 18.2177C457.422 18.3074 457.304 18.1891 457.304 17.9539C457.304 17.719 457.185 17.6004 457.04 17.6901C456.895 17.7798 456.776 18.068 456.776 18.3305C456.776 18.7534 456.551 18.8015 454.798 18.7525C453.709 18.724 452.819 18.7729 452.819 18.8618C452.819 19.1399 451.536 19.1501 451.365 18.8741C451.161 18.543 449.734 18.534 449.531 18.8618C449.437 19.0143 449.067 19.0021 448.572 18.8292C447.989 18.6261 447.684 18.6306 447.469 18.8455C446.987 19.3283 446.222 19.1852 445.994 18.5695C445.854 18.1899 445.718 18.1008 445.591 18.3056C445.486 18.4757 445.229 18.6147 445.02 18.6147C444.727 18.6147 444.639 18.2065 444.636 16.8333C444.632 14.533 444.249 13.8655 444.022 15.7591C443.929 16.5313 443.852 17.5381 443.851 17.9962C443.848 18.7282 443.777 18.811 443.255 18.6791C442.427 18.47 442.281 18.1625 442.222 16.5034C442.174 15.1498 442.16 15.1853 442.02 17.0312C441.874 18.9516 441.848 19.0131 441.144 19.0941C440.745 19.1402 440.419 19.0509 440.419 18.896C440.419 18.741 440.272 18.6444 440.093 18.6807C439.897 18.7215 439.701 18.3247 439.602 17.691C439.498 17.0181 439.424 16.8745 439.397 17.2951C439.355 17.9712 438.942 18.8298 438.767 18.607C438.713 18.5385 438.472 18.067 438.231 17.559L437.793 16.6353L437.789 17.8449C437.786 18.5102 437.703 19.134 437.606 19.2311C437.294 19.543 436.464 18.5558 436.442 17.848L436.422 17.1631L436.148 17.917C435.883 18.6452 435.825 18.6664 434.454 18.5362C433.347 18.4314 433.034 18.4832 433.034 18.7719C433.034 19.2254 432.677 19.2382 431.536 18.8257C431.054 18.6512 430.654 18.3248 430.648 18.1C430.639 17.8578 430.506 17.9601 430.318 18.3507C430 19.0101 429.584 19.1244 428.783 18.7727C428.549 18.67 427.872 18.6443 427.28 18.7161L426.202 18.8461L426.104 17.6089L426.005 16.3716L425.958 17.729C425.905 19.2173 425.501 19.6211 424.683 19.001C424.414 18.798 423.987 18.6279 423.733 18.6234C423.354 18.6153 423.263 18.3442 423.222 17.0976L423.172 15.58L423.078 17.0721C422.994 18.3996 422.912 18.582 422.336 18.7266C421.98 18.8159 421.405 18.8179 421.058 18.7303C420.711 18.6435 420.348 18.7018 420.251 18.8571C420.019 19.2319 419.05 19.2261 419.05 18.849C419.05 18.6883 418.887 18.6198 418.687 18.6965C418.487 18.7736 418.21 18.721 418.071 18.5844C417.789 18.3014 416.94 18.5424 416.94 18.9057C416.94 19.2111 415.433 19.2139 415.244 18.9094C415.033 18.5673 413.838 18.3911 413.568 18.6619C413.244 18.9856 410.851 19.0048 410.644 18.6863C410.552 18.5428 410.241 18.4617 409.955 18.5057C409.668 18.5498 409.359 18.4646 409.268 18.317C409.164 18.1494 408.944 18.2056 408.684 18.4662C408.302 18.8478 408.258 18.7977 408.175 17.8919L408.085 16.8995L407.812 17.8232C407.537 18.7568 407.312 18.8483 406.189 18.4827C405.753 18.3408 405.586 18.0698 405.56 17.4625L405.527 16.6356L405.355 17.5592C405.19 18.4495 405.177 18.4304 404.997 17.0314C404.894 16.2331 404.794 13.9766 404.775 12.0171C404.755 10.0575 404.657 6.79157 404.555 4.75941C404.4 1.68221 404.361 2.47618 404.32 9.50986C404.272 17.7557 404.186 19.1427 403.728 19.1427C403.605 19.1427 403.114 18.7619 402.638 18.2959L401.771 17.4491L401.626 11.3682L401.48 5.28726L401.401 10.3016C401.335 14.5524 401.017 19.1379 400.881 17.8232C400.844 17.4713 400.811 17.4713 400.583 17.8232C400.385 18.1302 400.319 18.0417 400.288 17.4273C400.251 16.6755 400.24 16.6688 400.091 17.2952C399.99 17.717 399.877 17.2413 399.778 15.9756L399.624 13.9962L399.555 16.3714C399.518 17.6778 399.422 18.5847 399.344 18.3869C399.223 18.0831 399.165 18.0831 398.973 18.3869C398.835 18.6034 398.721 17.5398 398.686 15.7117L398.627 12.6767L398.539 15.1741C398.467 17.2434 398.363 17.7542 397.934 18.1535C397.427 18.6266 397.417 18.615 397.383 17.5034C397.363 16.8808 397.267 14.59 397.166 12.4127L396.983 8.45404L396.936 13.2893C396.899 17.19 396.813 18.2011 396.494 18.5205C396.142 18.8724 396.093 18.7162 396.049 17.1161C396.002 15.3774 395.997 15.3655 395.91 16.7675C395.793 18.6565 395.567 19.2382 395.297 18.3509L395.095 17.6911L395.071 18.4112C395.046 19.0814 394.999 19.1105 394.385 18.8307C394.022 18.6651 393.725 18.4503 393.725 18.3526C393.725 18.2547 393.547 18.1752 393.329 18.1752C393.112 18.1752 392.934 18.2743 392.934 18.395C392.934 18.8349 392.405 18.6017 392.385 18.1532C392.369 17.7894 392.332 17.7744 392.211 18.0827C392.126 18.2979 391.898 18.6328 391.704 18.8272C391.409 19.1224 391.351 19.1126 391.351 18.766C391.351 18.5381 391.232 18.3513 391.087 18.3513C390.942 18.3513 390.823 18.4578 390.823 18.5874C390.823 18.7203 390.425 18.7338 389.913 18.62C389.412 18.5071 388.937 18.4798 388.858 18.5597C388.778 18.6396 388.696 16.8739 388.676 14.6362C388.655 12.3984 388.559 8.60793 388.46 6.21292C388.295 2.2156 388.275 2.54037 388.214 10.1716C388.178 14.7439 388.046 18.7224 387.921 19.0127C387.727 19.4641 387.691 19.4737 387.675 19.0788C387.667 18.8248 387.551 18.6169 387.422 18.6169C386.924 18.6169 386.766 17.5073 386.465 11.8872L386.155 6.08102L386.106 12.5469L386.057 19.0128L385.538 18.3898C385.031 17.7808 385.019 17.7793 385.019 18.3237C385.019 19.1244 384.272 19.0161 384.063 18.1854L383.889 17.4899L383.55 18.1195C383.095 18.9627 382.943 18.5068 382.834 15.9779L382.749 13.9986L382.697 16.1758C382.66 17.7554 382.554 18.335 382.314 18.2872C382.133 18.2505 381.913 17.8055 381.824 17.2975L381.664 16.3737L381.627 17.3964C381.59 18.3791 381.56 18.4131 380.822 18.2655C380.247 18.1505 380.011 18.2247 379.881 18.5624C379.718 18.9838 379.69 18.983 379.447 18.5501C379.242 18.1856 379.077 18.1452 378.673 18.3613C378.215 18.6064 378.155 18.5423 378.12 17.7692C378.083 16.9708 378.072 16.9597 377.971 17.6282C377.857 18.3806 377.531 18.5681 377.219 18.0618C377.093 17.8584 376.97 17.8784 376.811 18.1279C376.648 18.386 376.576 18.3016 376.554 17.8261L376.526 17.1663L376.315 17.8263C376.135 18.3867 376.096 18.4066 376.059 17.9584L376.014 17.4306L375.797 17.9584C375.473 18.7469 375.286 18.0628 375.185 15.7151C375.103 13.7932 375.099 13.8085 375.044 16.2429C375.003 17.9752 374.908 18.6278 374.732 18.3543C374.583 18.1235 374.454 14.3274 374.424 9.24923C374.378 1.56545 374.351 1.05278 374.192 4.89467C374.094 7.28968 373.997 11.1127 373.977 13.3903C373.956 15.8252 373.832 17.5985 373.676 17.6944C373.52 17.7911 373.4 17.4486 373.381 16.8523L373.348 15.8471L373.066 17.0347C372.767 18.2933 372.165 19.1409 371.871 18.7181C371.775 18.5807 371.518 18.4763 371.301 18.4861C371.083 18.4943 370.818 18.3809 370.711 18.2309C370.588 18.058 370.516 18.0845 370.514 18.3035C370.51 18.4935 370.391 18.5754 370.246 18.4857C370.101 18.396 369.961 17.4092 369.935 16.2929L369.887 14.2631L369.725 16.2425L369.564 18.2218L369.428 16.5064L369.292 14.791L369.238 16.9022C369.205 18.2014 369.095 18.8758 368.956 18.6555C368.814 18.432 368.667 18.3978 368.564 18.5646C368.473 18.7114 368.161 18.7697 367.871 18.6938C367.581 18.618 367.344 18.6816 367.344 18.8353C367.344 18.989 367.136 19.0763 366.882 19.0294C364.971 18.6747 364.115 18.6412 362.759 18.8683C361.704 19.0453 361.045 19.0404 360.694 18.852C360.411 18.7004 359.981 18.6629 359.738 18.7685C358.94 19.1159 358.516 19.1277 357.671 18.8255C357.095 18.6196 356.563 18.6078 355.956 18.7888C355.315 18.978 354.842 18.9531 354.218 18.6983C353.465 18.3904 353.361 18.3986 353.361 18.7636C353.361 19.0983 353.143 19.1521 352.239 19.0404C349.349 18.6828 348.14 18.6388 347.219 18.8578C346.469 19.0359 346.132 19.0041 345.855 18.7273C345.573 18.4447 345.461 18.4357 345.369 18.6865C345.303 18.8667 345.126 18.5984 344.976 18.0903L344.701 17.1666L344.677 17.9873L344.652 18.808L342.643 18.6979C341.538 18.6375 340.274 18.7142 339.834 18.8667C338.857 19.2071 338.335 18.8667 338.289 17.86C338.261 17.181 338.253 17.183 338.057 17.9582C337.891 18.6085 337.846 18.4671 337.805 17.1665C337.723 14.5572 337.305 14.2093 337.284 16.7329C337.267 18.6311 337.207 18.916 336.848 18.7782C336.618 18.6901 336.321 18.618 336.188 18.618C336.055 18.618 335.937 18.2913 335.927 17.8922C335.919 17.493 335.807 16.9289 335.682 16.6386C335.503 16.221 335.45 16.3312 335.428 17.1665C335.412 17.7471 335.256 18.4002 335.079 18.618C334.708 19.0736 334.099 19.2567 334.099 18.9128C334.099 18.5743 333.183 18.3873 332.739 18.6355C332.303 18.8793 331.871 18.664 331.653 18.0902C331.567 17.8655 331.493 18.0213 331.481 18.4502C331.461 19.1953 331.453 19.2001 330.801 18.774C330.438 18.5363 330.141 18.4184 330.141 18.5122C330.141 18.606 329.965 18.5367 329.749 18.3568C329.533 18.1778 329.177 18.1 328.957 18.1844C328.626 18.3116 328.551 18.0136 328.513 16.4325L328.467 14.5274L328.294 16.2429C328.199 17.1864 328.093 17.8395 328.059 17.6944C328.026 17.5492 327.872 17.727 327.72 18.0903C327.39 18.8751 327.307 18.7058 327.005 16.6328L326.775 15.0553L326.743 16.5572C326.702 18.447 326.28 18.7683 326.021 17.1057C325.852 16.0185 325.799 15.9369 325.635 16.5068C325.472 17.0692 325.438 17.0107 325.399 16.1109C325.375 15.5303 325.263 14.8229 325.153 14.5388C324.99 14.1236 324.917 14.2269 324.778 15.0666C324.683 15.6409 324.591 16.7641 324.573 17.5624C324.552 18.3607 324.485 18.8061 324.418 18.5521C324.352 18.2981 324.188 18.0902 324.053 18.0902C323.919 18.0902 323.785 16.873 323.756 15.3852C323.711 13.051 323.693 12.9515 323.624 14.6594C323.523 17.1564 323.368 17.8264 322.893 17.8264C322.615 17.8264 322.49 17.3894 322.421 16.1769L322.327 14.5274L322.276 16.3244C322.244 17.4436 322.126 18.0599 321.962 17.9583C321.817 17.8686 321.698 17.9216 321.698 18.0749C321.698 18.2287 321.55 18.3249 321.368 18.2886C321.137 18.2421 320.953 17.0038 320.751 14.1319L320.464 10.0413L320.403 13.3402C320.332 17.131 319.918 18.8765 319.838 15.7154C319.779 13.3532 319.405 14.2972 319.355 16.9382C319.33 18.3109 319.244 18.5775 318.805 18.6925C318.087 18.8801 317.221 18.0534 317.173 17.136L317.132 16.3752L317.018 17.147C316.932 17.7277 316.845 17.8257 316.666 17.5429C316.484 17.2547 316.427 17.3056 316.424 17.7606C316.421 18.0872 316.302 18.3544 316.157 18.3544C316.011 18.3544 315.881 18.0874 315.866 17.7606C315.842 17.1824 315.834 17.1837 315.661 17.8071C315.563 18.1594 315.337 18.4958 315.16 18.5549C314.922 18.634 314.823 17.9483 314.784 15.9353L314.73 13.2082L314.652 15.4514C314.608 16.6853 314.509 17.974 314.43 18.3154L314.286 18.936L313.791 18.3647L313.296 17.7933L313.179 18.4038C313.115 18.7398 313.047 18.2126 313.027 17.2329C312.981 14.9871 312.472 14.8731 312.437 17.1008C312.416 18.2796 312.354 18.562 312.211 18.0904C312.013 17.4319 312.012 17.4322 311.893 18.2226L311.773 19.0143L311.458 18.2714C311.247 17.772 311.144 15.6353 311.144 11.7551C311.144 8.19086 311.043 5.91931 310.88 5.81859C310.707 5.71176 310.61 7.86582 310.598 12.071C310.589 15.5995 310.49 18.2576 310.38 17.9779C310.183 17.4759 310.178 17.4759 309.959 17.9779C309.643 18.7033 309.311 16.8868 309.061 13.0763L308.862 10.0413L308.797 14.5278C308.756 17.32 308.647 18.815 308.506 18.4865L308.279 17.9587L308.238 18.4865C308.206 18.9128 308.128 18.8621 307.836 18.2227C307.555 17.6094 307.471 17.5499 307.461 17.9588C307.453 18.3535 307.249 18.5006 306.659 18.5419C305.93 18.5929 305.856 18.5175 305.702 17.5523C305.465 16.0662 305.083 16.2591 305.029 17.8927C304.986 19.1822 304.976 19.2022 304.883 18.1794C304.758 16.8019 304.031 16.3575 303.996 17.637C303.976 18.2877 303.871 18.0852 303.536 16.771L303.099 15.0556L303.016 16.3261C302.908 17.9961 302.346 17.8366 302.186 16.0904L302.067 14.7915L301.917 16.375L301.768 17.9585L301.481 15.1873L301.195 12.4163L301.112 14.6595L301.029 16.9028L300.854 15.3193C300.687 13.8046 300.677 13.8411 300.635 16.1593C300.594 18.36 300.54 18.5987 300.043 18.7565C299.742 18.8519 299.426 18.8613 299.342 18.7769C299.257 18.6925 299.058 18.7272 298.9 18.8544C298.532 19.15 297.435 18.7451 297.391 18.2972C297.371 18.1108 297.276 15.3461 297.175 12.1527L296.993 6.34663L296.941 12.6805C296.904 16.8842 296.803 18.8813 296.633 18.6186C296.493 18.4009 296.358 17.807 296.334 17.299C296.293 16.4497 296.277 16.4709 296.132 17.5628C296.045 18.216 295.884 18.7207 295.776 18.6845C295.667 18.6478 295.34 18.6185 295.05 18.6185C294.595 18.6185 294.516 18.428 294.479 17.2329L294.437 15.8473L294.282 17.2989C294.185 18.2061 294.058 18.5839 293.944 18.3063C293.614 17.504 293.412 14.8349 293.217 8.69923L293.024 2.65163L292.982 10.3889L292.94 18.1261L292.346 17.9435C291.488 17.6797 291.502 17.7176 291.335 15.3645L291.182 13.2081L291.105 15.8472C290.953 21.0024 290.608 16.4544 290.524 8.19366L290.444 0.276252L290.301 9.51328C290.223 14.5936 290.132 17.5329 290.098 16.0451C290.014 12.2982 289.51 12.4956 289.51 16.2755C289.51 18.8548 289.462 19.171 289.114 18.8823C288.897 18.7017 288.717 18.2417 288.714 17.8603C288.711 17.3157 288.656 17.2518 288.455 17.5627C288.136 18.0553 288.165 18.3978 287.939 11.3607L287.762 5.81847L287.701 10.3051C287.636 15.1483 287.168 19.3234 286.735 18.9238C286.348 18.5675 284.233 18.3547 284.233 18.6722C284.233 18.8235 283.956 18.87 283.596 18.7795C283.201 18.6804 282.907 18.7468 282.824 18.9487C282.724 19.1962 282.621 19.1799 282.411 18.8822C282.221 18.6139 282.129 18.5927 282.127 18.8161C282.123 19.2174 281.167 19.2569 280.926 18.8659C280.83 18.7118 280.467 18.4773 280.119 18.3447C279.77 18.2121 279.485 17.9155 279.485 17.6856C279.485 17.4556 279.376 17.3345 279.243 17.4169C279.11 17.4988 278.942 17.4168 278.868 17.2346C278.795 17.0523 278.725 17.2847 278.714 17.7515C278.702 18.3154 278.516 18.6946 278.165 18.8824C277.79 19.083 277.638 19.083 277.638 18.8824C277.638 18.6879 277.461 18.6944 277.071 18.9028C276.611 19.1491 276.46 19.1262 276.267 18.78C276.136 18.546 275.805 18.3542 275.531 18.3542C275.192 18.3542 275 18.1242 274.924 17.6284C274.829 17.0013 274.809 17.0282 274.775 17.8262C274.734 18.7318 274.712 18.7508 273.548 18.7957L272.361 18.8414L272.318 17.8719L272.276 16.9023L272.17 17.7601C272.097 18.348 271.923 18.6177 271.617 18.6177C271.37 18.6177 270.994 18.2345 270.776 17.7601L270.382 16.9023L270.224 18.0899C270.137 18.7431 270.046 19.0994 270.022 18.8817C269.985 18.5392 269.946 18.5375 269.737 18.8695C269.491 19.2572 269.443 19.1463 269.114 17.4317L269.013 16.9038L268.814 17.4317C268.706 17.722 268.566 18.1249 268.503 18.3272C268.211 19.2802 268.076 17.9301 267.893 12.239L267.695 6.08339L267.635 12.1534C267.598 15.8273 267.485 18.0151 267.348 17.6956C267.139 17.211 267.119 17.2218 267.098 17.8277C267.082 18.3114 267.014 18.39 266.845 18.1225C266.675 17.8542 266.565 17.9761 266.432 18.5844C266.212 19.5867 266.072 19.6068 265.379 18.7364L264.841 18.0618L264.278 18.5857C263.717 19.1091 263.404 19.1406 262.529 18.7618C262.274 18.6513 261.68 18.6326 261.21 18.7207C259.136 19.1097 258.155 19.1639 257.991 18.8989C257.896 18.7452 257.529 18.6195 257.174 18.6195C256.545 18.6195 256.529 18.569 256.481 16.3103L256.431 14.001L256.283 16.3576L256.135 18.7142L255.22 18.7346C254.041 18.7591 253.655 18.0473 253.583 15.7182C253.531 14.0194 253.529 14.0246 253.381 16.2461L253.233 18.4894L252.375 18.5325C251.652 18.5692 251.487 18.4649 251.327 17.8728C251.142 17.1847 251.135 17.1893 250.998 18.0938C250.87 18.9414 250.793 19.0096 250.067 18.9216C249.253 18.8229 247.127 18.8115 246.307 18.9012C246.053 18.9298 245.393 18.8686 244.84 18.7679C244.259 18.6618 243.698 18.6974 243.512 18.8519C243.169 19.1361 242.421 19.1112 242.116 18.8054C241.853 18.5436 240.495 18.5778 240.326 18.851C240.084 19.2437 237.236 19.1393 236.587 18.7137C236.183 18.449 235.83 18.3972 235.508 18.5554C235.244 18.6847 234.384 18.7736 233.597 18.7532C232.449 18.7247 232.127 18.615 231.967 18.2069C231.785 17.7418 231.766 17.7391 231.749 18.1743C231.741 18.4369 231.612 18.5784 231.467 18.4887C231.322 18.399 231.203 18.4434 231.203 18.5874C231.203 18.9755 230.171 19.2319 229.805 18.9347C229.363 18.5759 226.984 18.4212 226.973 18.7509C226.969 18.8972 226.777 18.7794 226.547 18.4887C226.256 18.1209 226.092 18.0613 226.005 18.2925C225.937 18.4748 225.773 18.5572 225.64 18.4748C225.507 18.3929 225.398 18.4667 225.398 18.6375C225.398 19.2985 224.607 18.2852 224.587 17.5987L224.566 16.9053L224.257 17.697C223.797 18.8714 223.034 18.8143 222.984 17.6017C222.947 16.6722 222.939 16.6796 222.774 17.8288C222.659 18.6325 222.523 17.3529 222.352 13.8701L222.1 8.72375L221.958 13.2103C221.843 16.8706 221.805 16.0931 221.756 8.98767C221.716 3.24728 221.609 0.413421 221.44 0.674378C221.294 0.901084 221.183 3.73291 221.181 7.29761C221.179 10.7227 221.101 14.5881 221.009 15.8874C220.864 17.9375 220.776 18.2546 220.35 18.2867C220.079 18.3071 219.858 18.1979 219.858 18.0441C219.858 17.8688 219.71 17.8867 219.462 18.093C219.113 18.3821 219.06 17.952 219.014 14.4965L218.963 10.5715L218.816 14.2663C218.67 17.9567 218.445 19.0507 217.982 18.3191C217.857 18.1222 217.753 17.6415 217.751 17.2509C217.747 16.1786 217.301 16.1243 217.104 17.1714C216.722 19.2073 216.427 17.951 216.405 14.2C216.393 12.059 216.23 8.16961 216.044 5.55691L215.706 0.806402L215.669 8.37832C215.649 13.1029 215.535 16.0117 215.371 16.1134C215.226 16.2031 215.105 16.5961 215.103 16.9867C215.099 17.7454 214.704 18.5695 214.461 18.3267C214.381 18.246 214.214 15.1618 214.092 11.4726L213.869 4.76514L213.829 11.4289C213.788 17.9033 213.773 18.0928 213.26 18.0928C212.785 18.0928 212.728 17.9015 212.687 16.1794C212.65 14.5958 212.617 14.4707 212.504 15.4536L212.367 16.6413L212.196 15.3217C212.036 14.0939 212.021 14.1432 211.983 16.0319C211.92 19.0887 211.443 18.9943 211.061 15.8496C210.994 15.2966 210.952 15.4159 210.921 16.2455C210.842 18.434 210.296 19.3865 209.939 17.961C209.848 17.5981 209.667 17.3012 209.538 17.3012C209.409 17.3012 209.28 15.8464 209.253 14.0682L209.204 10.8353L209.03 14.794C208.935 16.9713 208.838 18.7813 208.816 18.8161C208.711 18.9792 207.645 17.9017 207.448 17.4331C207.264 16.9976 207.217 17.067 207.177 17.8291L207.129 18.7527L206.928 17.961C206.765 17.3209 206.72 17.283 206.695 17.7632C206.643 18.7608 206.138 18.4231 206.104 17.3674C206.088 16.823 205.988 14.715 205.886 12.6829L205.7 8.98805L205.65 13.2107C205.618 16.0498 205.517 17.3036 205.345 17.0374C205.154 16.7418 205.088 16.885 205.085 17.603C205.081 18.6458 204.577 19.0574 203.809 18.646C203.565 18.5156 203.247 18.4087 203.102 18.4087C202.957 18.4084 202.697 18.0108 202.524 17.525L202.209 16.6416L202.193 17.6313C202.168 19.2322 201.653 18.7633 201.613 17.1035L201.576 15.586L201.41 16.9554C201.214 18.5655 201.011 18.843 200.338 18.4226C199.955 18.1829 199.812 18.1853 199.712 18.4308C199.64 18.6069 199.56 18.2762 199.534 17.6955C199.51 17.1149 199.392 16.3429 199.276 15.98C199.116 15.4818 199.057 15.708 199.034 16.9037C199.014 18.0306 198.93 18.3731 198.748 18.0913C198.607 17.8736 198.482 17.8141 198.47 17.9592C198.457 18.1044 198.345 17.9837 198.22 17.6954C198.049 17.2966 197.981 17.4899 197.944 18.4871C197.916 19.2129 197.841 19.5692 197.775 19.2788C197.709 18.9885 197.337 18.4857 196.948 18.1613L196.241 17.5715L196.095 12.751L195.949 7.93055L195.867 13.0769C195.822 15.9074 195.73 18.0139 195.663 17.7581C195.596 17.5024 195.432 17.361 195.298 17.4438C195.164 17.5265 195.054 17.343 195.054 17.0355C195.054 16.728 194.936 16.5499 194.791 16.6396C194.622 16.744 194.515 15.8206 194.493 14.082C194.473 12.5856 194.377 9.16422 194.277 6.4789C194.099 1.72444 194.092 1.82127 194.018 10.1737C193.952 17.6964 193.901 18.6211 193.596 17.6952C193.281 16.7415 193.246 16.7112 193.227 17.3809C193.215 17.8039 193.094 18.0522 192.943 17.9591C192.798 17.8694 192.68 18.0162 192.68 18.2857C192.68 18.9592 191.508 18.9159 190.984 18.2229C190.743 17.904 190.582 17.8318 190.577 18.0406C190.573 18.2306 190.45 18.3126 190.305 18.2229C190.16 18.1332 190.041 18.3044 190.041 18.6033C190.041 18.9022 189.98 19.1467 189.906 19.1467C189.598 19.1467 188.573 18.4597 188.349 18.1028C188.148 17.7827 188.074 17.8051 187.906 18.2349C187.782 18.5509 187.686 17.9324 187.659 16.6397C187.608 14.2209 187.21 14.8078 187.165 17.3677C187.141 18.8188 187.115 18.8725 186.612 18.5578C186.242 18.327 186.071 17.9116 186.042 17.17C186 16.125 185.998 16.1231 185.89 17.0183C185.808 17.686 185.717 17.825 185.54 17.5462C185.365 17.2681 185.294 17.3781 185.276 17.9593C185.244 18.9427 185.123 18.6109 184.895 16.9251C184.694 15.4361 184.248 15.7257 184.242 17.35C184.238 18.5126 183.803 18.8969 183.461 18.0423C183.303 17.6501 183.196 17.5732 183.159 17.8274C183.127 18.0452 183.02 17.6888 182.918 17.0357L182.734 15.8481L182.693 17.0734C182.669 17.8915 182.522 18.3493 182.258 18.4507C181.962 18.5645 181.862 18.4088 181.862 17.8348C181.862 17.4124 181.743 16.9935 181.598 16.9038C181.436 16.8039 181.334 17.2255 181.334 17.9936V19.2466L180.767 18.6373C180.455 18.3021 180.111 17.6562 180.002 17.2019C179.817 16.4238 179.803 16.4447 179.76 17.5636C179.723 18.4832 179.663 18.6322 179.488 18.2234C179.363 17.9331 179.239 17.8144 179.211 17.9596C179.183 18.1048 179.071 17.867 178.96 17.4317C178.78 16.725 178.755 16.7746 178.727 17.8936C178.703 18.8181 178.592 19.1472 178.3 19.1472C178.083 19.1472 177.905 18.9809 177.905 18.7778C177.905 18.5226 177.639 18.4292 177.047 18.4765C176.576 18.5132 176.056 18.4398 175.892 18.3126C175.696 18.1596 175.542 18.2799 175.441 18.6685C175.251 19.3969 175.005 19.1777 174.735 18.0392C174.548 17.2502 174.526 17.2338 174.502 17.8655C174.465 18.8627 173.777 19.0242 173.302 18.148C173.048 17.681 172.909 17.5828 172.902 17.8655C172.89 18.4436 172.185 18.6921 171.991 18.1872C171.857 17.8366 171.786 17.8402 171.41 18.2157C171.175 18.451 170.907 18.5689 170.816 18.4775C170.724 18.3862 170.583 14.3128 170.503 9.42587L170.357 0.540549L170.248 7.79815L170.139 15.0558L169.989 10.0414L169.84 5.02701L169.733 11.7568C169.657 16.565 169.579 17.8461 169.461 16.2434C169.32 14.3274 169.282 14.1926 169.199 15.3197C169.108 16.5605 169.092 16.5211 168.934 14.6599C168.77 12.735 168.763 12.7675 168.68 15.8475C168.619 18.1392 168.543 18.7228 168.406 17.9588C168.225 16.9422 168.216 16.9348 168.18 17.7611C168.143 18.6014 167.809 18.8829 167.48 18.3506C167.39 18.203 167.204 18.1508 167.069 18.2343C166.934 18.3179 166.807 18.3493 166.787 18.3045C166.767 18.2596 166.609 14.3038 166.435 9.51378L166.119 0.804598L166.055 9.64574C166.009 15.9381 165.914 18.2776 165.725 17.7611C165.329 16.6765 165.065 16.8769 164.861 18.4178C164.678 19.7976 164.677 19.799 164.22 19.1937C163.875 18.7359 163.491 18.5834 162.655 18.5719L161.547 18.5556L161.498 12.1867L161.45 5.81797L161.268 11.756C161.053 18.7869 161.018 19.3801 160.844 18.9477C160.771 18.7663 160.424 18.6178 160.073 18.6178C159.723 18.6178 159.431 18.4694 159.426 18.288C159.422 18.1065 159.247 18.2554 159.04 18.6178L158.663 19.2777L158.634 18.4859C158.618 18.0504 158.504 17.4566 158.38 17.1663C158.177 16.6952 158.151 16.7148 158.134 17.3494C158.122 17.7715 157.875 18.2301 157.522 18.4785C156.947 18.8838 156.923 18.8703 156.765 18.0316C156.676 17.5557 156.585 17.4039 156.563 17.6944C156.531 18.1347 156.482 18.1566 156.269 17.8265C156.128 17.6088 155.988 16.5399 155.958 15.4513C155.904 13.5002 155.901 13.5096 155.756 16.1111L155.609 18.7502L154.467 18.7934C153.838 18.8179 153.255 18.9051 153.172 18.9891C153.088 19.0731 152.882 19.0258 152.714 18.8876C152.517 18.7245 152.041 18.7351 151.38 18.9161C150.596 19.1326 150.326 19.1237 150.244 18.8795C150.162 18.6352 150.085 18.6417 149.922 18.9039C149.745 19.1906 149.589 19.1881 149.034 18.8917C148.466 18.5879 148.001 18.5867 146.092 18.8835C144.23 19.1734 143.787 19.175 143.612 18.8917C143.481 18.68 143.084 18.594 142.579 18.6682C142.095 18.7392 141.756 18.672 141.754 18.5047C141.75 18.3082 141.69 18.3062 141.556 18.4966C141.449 18.6487 140.828 18.8068 140.175 18.8476C139.522 18.8884 138.884 19.0218 138.758 19.1441C138.521 19.3728 137.771 19.1979 137.537 18.8594C137.464 18.7542 137.168 18.6271 136.877 18.5761C136.587 18.5251 136.251 18.3649 136.132 18.2197C135.991 18.0489 135.867 18.0721 135.78 18.2858C135.561 18.824 135.164 18.6617 135.134 18.0219C135.11 17.475 135.083 17.4855 134.82 18.1541C134.617 18.6664 134.334 18.8884 133.858 18.909C132.689 18.9596 131.867 18.8381 131.78 18.6012C131.687 18.3492 130.173 18.5686 129.751 18.8964C129.605 19.0097 129.011 19.0248 128.432 18.929C127.128 18.7149 125.235 18.7333 124.296 18.9698C123.888 19.0722 123.514 19.0294 123.415 18.8687C123.297 18.6775 123.123 18.6897 122.859 18.9095C122.574 19.1468 122.4 19.1517 122.177 18.9299C121.955 18.7076 121.785 18.7072 121.519 18.9279C121.252 19.1502 121.001 19.1396 120.528 18.8864C120.099 18.6564 119.443 18.6054 118.492 18.7274C115.597 19.0988 113.528 18.9067 113.528 18.2667C113.528 18.1048 113.347 18.23 113.125 18.548C112.681 19.1827 111.955 19.0879 111.928 18.3915C111.916 18.093 111.837 18.1427 111.673 18.5517C111.402 19.2268 111.108 19.2863 110.358 18.818C109.932 18.5517 109.614 18.5693 108.661 18.9122C107.565 19.3065 107.442 19.3032 106.767 18.86C106.308 18.5591 105.781 18.4391 105.322 18.5309C104.684 18.6586 104.585 18.586 104.486 17.921C104.388 17.2663 104.368 17.295 104.334 18.1375C104.301 18.9239 104.181 19.1279 103.7 19.2092C103.374 19.2647 102.712 19.0795 102.23 18.7982C101.502 18.3733 101.239 18.3388 100.679 18.5939C100.308 18.7627 99.9418 18.8385 99.8651 18.7619C99.7884 18.6848 99.5634 18.7578 99.3651 18.9217C98.8641 19.3376 98.6709 19.0559 98.47 17.6172C98.2988 16.3902 98.2959 16.3874 98.2613 17.3925C98.2327 18.16 98.1328 18.3746 97.8473 18.265C97.639 18.1851 97.4312 18.2283 97.3855 18.3621C97.1993 18.9059 96.1051 18.232 95.5999 17.2626C95.1398 16.3795 95.06 15.7379 95.06 12.92C95.06 10.783 94.9667 9.67137 94.7963 9.77677C94.6377 9.87463 94.5326 11.6803 94.5326 14.3071C94.5326 18.0807 94.4787 18.6537 94.1367 18.5224C93.9191 18.4388 93.7409 18.5061 93.7409 18.67C93.7409 18.8348 93.6533 18.882 93.5457 18.7744C93.4381 18.6671 93.2795 17.4893 93.1927 16.1572L93.0346 13.7353L92.9877 16.3744C92.9551 18.1891 92.8609 18.8899 92.6852 18.6177C92.4667 18.2792 92.4288 18.289 92.4255 18.6837C92.4215 19.2201 92.0212 19.294 91.7116 18.8158C91.5942 18.6344 91.4319 14.3886 91.3512 9.38088L91.2045 0.275879L91.1535 9.44689C91.1209 14.9653 91.0035 18.6178 90.8543 18.6178C90.5225 18.6178 90.2676 18.1748 90.0322 17.1894L89.8373 16.3746L89.8088 17.3115C89.7843 18.1309 89.6979 18.2484 89.114 18.2484C88.3167 18.2484 88.2299 17.9695 88.1204 15.0551C88.0528 13.248 88.0304 13.381 87.9672 15.9787C87.9264 17.648 87.8376 18.8774 87.7691 18.7107C87.69 18.5179 87.2568 18.4599 86.576 18.5513C85.8239 18.652 85.4367 18.5839 85.2699 18.3266C85.0828 18.0363 84.9992 18.0799 84.8749 18.5337C84.6283 19.4333 83.9827 18.9696 83.9427 17.864L83.9101 16.9025L83.7157 17.8263L83.5213 18.7499L83.4601 17.9582C83.4006 17.1851 83.3949 17.182 83.2155 17.8261C83.0415 18.4516 83.0199 18.4584 82.7997 17.9582C82.6721 17.6679 82.4899 16.1834 82.3949 14.6593L82.2225 11.8882L82.1776 14.3294C82.1532 15.7509 82.0224 16.7706 81.8687 16.7706C81.7236 16.7706 81.5956 17.1567 81.5842 17.6283C81.5719 18.1 81.5039 18.3386 81.4309 18.1585C81.3335 17.9171 81.1827 17.9477 80.8581 18.2743C80.4462 18.6888 80.4073 18.6417 80.2594 17.5462L80.1012 16.3748L80.0266 17.5624L79.9524 18.75L79.7682 17.8263C79.5864 16.9138 79.4087 17.0266 79.1442 18.2222C79.0798 18.5125 79.0138 18.2977 78.9971 17.7448C78.9808 17.1919 78.8732 16.7974 78.7586 16.8681C78.6441 16.9386 78.3787 16.6193 78.1682 16.1579C77.7936 15.3367 77.7843 15.333 77.7086 15.9789C77.535 17.4637 77.356 17.9451 77.1197 17.5624C76.9489 17.286 76.8462 17.3769 76.7079 17.9277C76.5702 18.4773 76.3998 18.6292 76.0302 18.5325C75.7025 18.4465 75.5366 18.5447 75.5366 18.8187C75.5366 19.0471 75.4478 19.1453 75.3389 19.0369C75.2301 18.9284 75.0711 17.9883 74.9859 16.9476L74.8307 15.0553L74.7785 16.7707C74.7291 18.4002 74.7075 18.4531 74.3494 17.8264C74.1012 17.392 73.9573 17.3018 73.9277 17.5625C73.8181 18.5376 73.4663 15.043 73.41 12.4162L73.3476 9.51316L73.134 13.439C72.9355 17.0834 72.6851 18.689 72.5971 16.8808C72.5645 16.2295 72.5307 16.2735 72.3709 17.1666L72.1818 18.2222L72.1357 17.1666C72.0929 16.1784 72.0652 16.1437 71.7025 16.6232C71.3369 17.107 71.3129 17.085 71.2738 16.2273C71.2412 15.5069 71.1992 15.592 71.0728 16.6387L70.9134 17.9583L70.6741 16.5068L70.4349 15.0552L70.2718 16.2428C70.1822 16.8961 69.9682 17.668 69.7967 17.9583C69.5301 18.4093 69.4771 18.2555 69.4335 16.9026L69.3825 15.3191L69.2048 16.7707L69.0271 18.2222L68.948 16.6387C68.9048 15.7678 68.8147 15.3521 68.7483 15.715C68.6818 16.0779 68.4687 16.9686 68.2739 17.6944L67.9201 19.014L67.8536 16.1109L67.7872 13.2078L67.6217 15.4511L67.4562 17.6944L67.3604 15.5831L67.2646 13.4718L67.0942 15.3191C66.9422 16.9657 66.9186 16.8151 66.877 13.9336C66.8232 10.1797 66.3133 9.38557 66.2842 13.0099C66.2719 14.5456 66.1896 15.1423 66.0388 14.7913C65.877 14.415 65.7979 14.7546 65.7624 15.9789C65.7176 17.529 65.3548 19.754 65.2787 18.948C65.2624 18.7665 65.0781 18.6181 64.871 18.6181C64.664 18.6181 64.4404 18.4101 64.374 18.1562C64.2872 17.8243 64.2448 17.8692 64.2228 18.3165C64.2024 18.7694 64.0789 18.895 63.7748 18.7783C63.5453 18.6902 63.2485 18.618 63.1153 18.618C62.982 18.618 62.8532 18.1133 62.8287 17.4964L62.7843 16.3747L62.682 17.3444C62.5609 18.4925 61.9982 19.0965 61.4636 18.6526C61.2687 18.4912 61.0314 18.437 60.9359 18.5324C60.8405 18.6278 60.7622 18.5731 60.7622 18.4064C60.7622 18.2416 60.5841 18.1752 60.3664 18.2588C60.1488 18.3424 59.9706 18.576 59.9706 18.7783C59.9706 18.9805 59.852 19.1461 59.7069 19.1461C59.5618 19.1461 59.4432 18.961 59.4432 18.7347C59.4432 18.5084 59.3164 18.4015 59.1619 18.497C59.007 18.5924 58.7141 18.4513 58.5108 18.1826C58.1684 17.7303 58.1402 17.7283 58.1325 18.1581C58.1284 18.4122 57.9462 18.62 57.7281 18.62C57.5105 18.62 57.3323 18.7391 57.3323 18.8838C57.3323 19.029 57.2137 19.1476 57.0686 19.1476C56.9235 19.1476 56.8028 18.9397 56.8008 18.6858C56.7971 18.3959 56.7246 18.3339 56.6031 18.5198C56.4963 18.6825 56.0568 18.7771 55.626 18.7294C55.1952 18.6821 54.7594 18.7783 54.6575 18.9431C54.5552 19.109 54.391 18.8081 54.2895 18.2685C54.0518 17.002 53.6411 16.7586 53.6309 17.8783C53.6227 18.6694 53.5942 18.7019 53.317 18.2236C53.1487 17.9333 52.9318 16.9239 52.8348 15.9804L52.6583 14.265L52.6216 16.0464C52.5809 17.9134 52.2385 18.4087 51.9576 17.0031C51.8667 16.5495 51.7844 13.9664 51.7742 11.2629C51.762 8.27155 51.667 6.55413 51.5288 6.87535C51.4041 7.16566 51.2863 9.95656 51.2667 13.0773C51.23 19.0281 50.9211 19.851 50.5527 14.9801C50.3705 12.5695 50.3481 12.4958 50.1752 13.7371C50.0741 14.4629 49.9812 15.9177 49.9686 16.97C49.9523 18.3505 49.8536 18.865 49.6156 18.8174C49.4342 18.7807 49.1946 18.6328 49.0831 18.4876C48.9579 18.3245 48.7765 18.3999 48.6082 18.6854C48.2104 19.3603 47.5968 19.2497 47.2922 18.4484C47.0431 17.7936 47.0044 17.7797 46.6773 18.2274C46.4686 18.5129 46.1566 18.6395 45.9025 18.5418C45.6686 18.4521 45.385 18.5215 45.2725 18.6968C45.1449 18.8954 45.0059 18.6682 44.9032 18.0915L44.7381 17.1678L44.7014 18.0255C44.6688 18.8519 44.1117 19.2157 43.7577 18.6426C43.6762 18.5101 43.3292 18.4327 42.9871 18.4706C42.3992 18.535 42.3464 18.4147 42.0231 16.2699C41.8347 15.022 41.6011 11.0319 41.5036 7.40313L41.3263 0.805282L41.2819 9.40446C41.2574 14.134 41.1482 18.0936 41.0394 18.2035C40.9305 18.3132 40.712 16.6409 40.5538 14.4867L40.266 10.57L40.2053 14.3968C40.1441 18.251 39.7563 20.6461 39.6283 17.9597C39.572 16.7797 39.5545 16.7448 39.4619 17.6298C39.3315 18.8779 38.6742 18.9709 38.5299 17.7619L38.4276 16.9042L38.2165 17.7619C37.9858 18.6984 37.0358 19.0056 36.9921 18.1579C36.9799 17.9039 36.8572 18.082 36.7206 18.5538C36.5845 19.0255 36.3632 19.4115 36.2287 19.4115C35.8122 19.4115 34.6415 18.0923 34.6372 17.6181C34.6335 17.2487 34.5908 17.2352 34.3955 17.5443C34.2166 17.8273 34.1293 17.729 34.0433 17.1483C33.9304 16.3853 33.9288 16.3864 33.8893 17.2499C33.8689 17.7302 33.7433 18.0574 33.6137 17.9771C33.4837 17.8968 33.3031 18.0257 33.2118 18.2634C33.1209 18.5011 32.9754 18.6247 32.889 18.5382C32.8026 18.4518 32.5612 18.5505 32.3525 18.7604C32.0223 19.0907 31.8891 19.085 31.3285 18.7176C30.9739 18.4852 30.6822 18.3979 30.68 18.5235C30.6781 18.6491 30.5609 18.5737 30.4203 18.3559C30.2499 18.0921 30.1631 18.0701 30.1606 18.2899C30.1525 18.9988 29.6677 18.5684 29.4186 17.6301L29.1557 16.6404L29.1271 17.894C29.1027 18.9496 29.0191 19.1476 28.5878 19.1476C28.3061 19.1476 28.0023 19.029 27.9126 18.8838C27.823 18.7387 27.5319 18.62 27.2657 18.62C26.6881 18.62 26.4645 18.1237 26.4531 16.817C26.4491 16.2845 26.2705 15.6183 26.0574 15.3366C25.706 14.8719 25.6701 15.0128 25.6701 16.8541V18.8841L22.702 18.9126C18.9264 18.9533 18.7456 18.933 18.3488 18.4168C18.0826 18.0722 18.0182 18.0632 18.0149 18.3702C18.0112 18.6911 17.9705 18.6887 17.7512 18.3539C17.5343 18.0237 17.4642 18.0567 17.3287 18.5521C17.2394 18.8787 17.0018 19.1459 16.801 19.1459C16.499 19.1459 16.4252 17.6754 16.3739 10.6347L16.3115 2.12347L16.2304 10.7007C16.1587 18.2732 16.1053 19.2006 15.7742 18.6181C15.5447 18.2144 15.3923 18.1119 15.3817 18.3543C15.3695 18.6617 15.279 18.6381 14.9839 18.2478C14.6101 17.754 14.6003 17.754 14.4108 18.2478C14.2363 18.7027 14.2005 18.6878 14.0341 18.0904L13.8503 17.4307L13.8258 18.1647C13.8014 18.8181 13.7052 18.8954 12.9421 18.8686C12.4705 18.8523 11.8472 18.9053 11.557 18.9917C10.8332 19.2017 10.0865 18.5585 9.83872 17.5116L9.63207 16.6392L9.5697 17.4309C9.4519 18.9302 9.09931 15.7188 9.0338 12.5485C8.98652 10.2636 8.92538 9.807 8.78638 10.7011C8.66939 11.453 8.56952 10.049 8.51408 6.87435L8.42644 1.85998L8.24423 7.66612C8.14396 10.8595 8.04695 14.8083 8.02861 16.4412C7.99192 19.6535 7.80156 19.9748 6.80946 18.4917C6.38109 17.8513 6.25457 17.0911 6.12858 14.401L5.97368 11.097L5.89297 14.7918C5.84854 16.8239 5.75439 18.1897 5.68346 17.8268C5.56321 17.2109 5.54038 17.2022 5.34227 17.6947C5.22325 17.9907 5.10586 15.6706 5.0757 12.4164C5.04716 9.22305 4.93955 5.18512 4.83969 3.44328C4.70028 1.0143 4.64729 2.19349 4.61182 8.5035C4.56658 16.5437 4.30651 19.5437 3.67348 19.3326C3.52429 19.2829 3.29888 18.8347 3.17195 18.3365C3.04518 17.8384 2.832 17.3179 2.69814 17.18C2.56444 17.0422 2.43399 16.3889 2.40831 15.7285C2.37163 14.7544 2.32965 14.8766 2.19106 16.3751C2.05206 17.878 2.00314 17.435 1.92692 13.9999L1.83358 9.77727L1.64974 13.604C1.54865 15.7087 1.37785 17.698 1.26983 18.0245C1.05298 18.6809 0.723584 18.7966 0.518592 18.2883C0.445221 18.1069 0.376334 18.4184 0.364513 18.9804C0.344132 19.86 0.397119 19.9567 0.739519 19.6739C0.957187 19.4933 1.14551 19.4488 1.15786 19.5756C1.17009 19.7024 1.33233 20.9341 1.5178 22.313L1.8553 24.8202L1.92174 22.313C1.95843 20.9341 2.04239 20.0135 2.10883 20.2673C2.21318 20.6669 2.27963 20.6783 2.60589 20.3521C2.81296 20.1449 2.99395 19.8186 3.00821 19.6268C3.02452 19.4348 3.18878 19.8123 3.37792 20.4656C3.56705 21.1188 3.73337 21.4217 3.74763 21.1386C3.76802 20.7272 3.83975 20.69 4.10348 20.9535C4.34439 21.1945 4.47197 23.2861 4.57681 28.7259C4.74271 37.331 4.83565 37.0502 5.06172 27.2602C5.16403 22.8394 5.3234 20.1986 5.48861 20.1975C5.63372 20.1968 5.8192 21.177 5.90117 22.3761L6.04995 24.5564L6.10294 22.0492C6.16653 19.0511 6.40294 18.4707 7.08762 19.6304C7.34972 20.0741 7.66098 20.3772 7.77948 20.3039C7.89809 20.2305 8.00896 22.2858 8.02608 24.8708C8.04238 27.4558 8.14225 30.7584 8.2466 32.2099L8.43574 34.8491L8.5189 31.0223C8.57719 28.3504 8.65788 27.554 8.78669 28.3832C8.90572 29.1507 8.99173 28.0301 9.02964 25.2162C9.06225 22.8212 9.18983 20.6242 9.31456 20.3339C9.51185 19.8744 9.54732 19.9086 9.58808 20.5977C9.63047 21.3098 9.65981 21.2778 9.8836 20.2792C10.1074 19.2808 10.1909 19.1909 10.7128 19.3859C11.032 19.505 11.5225 19.5205 11.8027 19.4185C12.6673 19.1086 13.495 19.4223 13.7663 20.1624L14.0218 20.8598L14.0634 20.0681C14.0879 19.6327 14.1645 19.4237 14.2375 19.6039C14.3357 19.8473 14.4788 19.8224 14.7955 19.5056C15.1872 19.1138 15.2367 19.1191 15.4153 19.5741C15.5413 19.8954 15.6159 19.9346 15.6281 19.6859C15.6403 19.4347 15.7357 19.3927 15.9065 19.5631C16.0618 19.7185 16.1963 22.9531 16.2403 27.5993L16.3145 35.3756L16.3765 27.5524C16.4291 20.8808 16.4967 19.7068 16.8341 19.5773C17.1223 19.4668 17.2384 19.6201 17.261 20.1429L17.2936 20.8603L17.495 20.0686C17.6059 19.6331 17.7106 19.4399 17.7277 19.6391C17.7522 19.9008 17.8517 19.9245 18.0934 19.7239C18.3856 19.4813 21.7121 19.3099 24.6847 19.3842L25.6741 19.4087V22.0634C25.6741 23.5235 25.7748 24.6557 25.8983 24.5795C26.0218 24.5033 26.2008 23.4243 26.2961 22.1818C26.3915 20.9393 26.6023 19.7106 26.7641 19.4512C27.0376 19.0133 27.1212 19.0091 27.9407 19.3921C28.7086 19.751 28.8291 19.9414 28.8711 20.8602L28.9192 21.9159L29.09 20.7283C29.2298 19.7555 29.2877 19.66 29.4104 20.2005C29.5596 20.8594 29.56 20.8593 29.5959 20.1344C29.6203 19.6812 29.7805 19.4086 30.0275 19.4086C30.2452 19.4086 30.4233 19.29 30.4233 19.1448C30.4233 18.5196 30.9786 18.9532 31.1267 19.6939C31.2339 20.2292 31.3595 20.3933 31.4948 20.1743C31.763 19.7403 32.5328 19.6308 32.538 20.0259C32.5418 20.218 32.6277 20.1972 32.7712 19.9709C32.9562 19.6789 33.0553 19.7043 33.2868 20.103C33.5105 20.4883 33.5847 20.5099 33.6243 20.2008C33.6528 19.9831 33.7551 20.4582 33.8534 21.2565L34.0311 22.708L34.0739 21.3859C34.1203 19.9636 34.7233 19.2269 35.4597 19.6932C36.1573 20.135 37.019 19.9782 37.019 19.409C37.019 18.8278 37.0517 18.809 37.6571 19.0412C37.9465 19.1525 38.0854 19.5769 38.1103 20.4268C38.1307 21.1007 38.1943 21.3552 38.253 20.9924C38.3895 20.1491 38.8903 19.145 39.1741 19.145C39.2947 19.145 39.4101 19.7091 39.4309 20.3986L39.4676 21.6521L39.6339 20.5965L39.8002 19.5408L39.9897 20.9924C40.0941 21.7907 40.1972 23.4534 40.2188 24.6872C40.2555 26.8755 40.2632 26.8949 40.4589 25.4789C40.5694 24.6806 40.6713 23.114 40.6855 21.9976C40.7018 20.8812 40.8302 19.8945 40.9754 19.8048C41.149 19.6975 41.2534 22.6054 41.2807 28.3003L41.3222 36.9591L41.5326 29.1662C41.6944 23.1745 41.835 21.1615 42.1403 20.4571C42.3677 19.9322 42.5418 19.7425 42.5479 20.013C42.5561 20.4473 42.6046 20.442 43.1356 19.9469C43.4532 19.6509 43.7797 19.4107 43.8612 19.4129C44.3129 19.4251 44.6387 19.9155 44.7371 20.7307C44.8431 21.6088 44.8504 21.5994 44.8904 20.5305C44.9311 19.488 44.9845 19.4089 45.6713 19.4089C46.0777 19.4089 46.5674 19.5573 46.7596 19.7387C47.0393 20.0026 47.1334 20.0026 47.2301 19.7387C47.3854 19.3148 48.1616 19.3135 48.5845 19.7368C48.8453 19.9978 48.9607 19.986 49.1506 19.6785C49.2818 19.4661 49.4652 19.3687 49.5583 19.4616C49.7735 19.6769 50.178 22.789 50.2375 24.6873C50.2742 25.8224 50.3288 25.5923 50.4923 23.6317C50.6076 22.2527 50.8208 20.8276 50.9663 20.4647C51.1547 19.9948 51.2484 21.8937 51.2912 27.0625C51.3381 32.6861 51.3943 33.7259 51.5407 31.681C51.645 30.2295 51.7522 27.2011 51.7796 24.9512C51.8268 21.0371 52.062 19.2802 52.4148 20.2008C52.4983 20.4185 52.6092 21.131 52.661 21.7843C52.7494 22.898 52.758 22.8795 52.8012 21.4866C52.8297 20.5354 52.9895 19.8833 53.2431 19.6729C53.5826 19.3911 53.6389 19.482 53.6389 20.3159C53.6389 20.8964 53.7448 21.2218 53.9026 21.1244C54.0477 21.0347 54.1663 20.6644 54.1663 20.3015C54.1663 19.9386 54.2768 19.71 54.4117 19.7935C54.547 19.8771 54.7321 19.8262 54.823 19.6773C55.0362 19.3324 56.1958 19.3283 56.4081 19.6732C56.5104 19.8388 56.8582 19.7874 57.3471 19.5346C58.0652 19.1632 58.1252 19.1681 58.1444 19.6015C58.1567 19.8779 58.2198 19.9346 58.2981 19.7401C58.4934 19.2562 59.1787 19.3377 59.1787 19.8445C59.1787 20.174 59.3385 20.1067 59.8383 19.5668L60.4979 18.8549L60.5016 19.5943C60.5054 20.1686 60.5628 20.2453 60.7613 19.9376C60.974 19.6085 61.0177 19.6297 61.0209 20.0623C61.0247 20.5528 61.0495 20.549 61.4357 19.9963C61.9953 19.1971 62.5501 19.259 62.6828 20.1353C62.7818 20.7895 62.7965 20.7737 62.8324 19.9751C62.865 19.2839 62.9636 19.1243 63.2892 19.2493C63.5187 19.3374 63.8156 19.4096 63.9488 19.4096C64.0821 19.4096 64.1909 19.6697 64.1909 19.9878C64.1909 20.5376 64.2072 20.5421 64.5468 20.0796C65.0827 19.3464 65.4246 19.7648 65.6682 21.4515L65.8879 22.9725L66.0518 21.521C66.1859 20.3342 66.2238 20.5708 66.2588 22.8185C66.2833 24.3305 66.3909 25.4787 66.4997 25.37C66.6086 25.2611 66.7663 23.9054 66.8507 22.357L67.0035 19.5416L67.0977 22.4446L67.1919 25.3477L67.3574 23.1043L67.5229 20.8611L67.6219 22.8404L67.721 24.8198L67.8689 22.4446L68.0169 20.0693L68.4477 21.7847L68.8786 23.5002L68.956 21.125L69.0335 18.7497L69.1949 20.5972C69.3498 22.3702 69.362 22.3968 69.4982 21.2569C69.6384 20.0803 69.6404 20.084 69.7167 21.6529C69.7586 22.5238 69.8479 23.0271 69.9148 22.7713C69.9816 22.5156 70.1459 22.3741 70.28 22.4569C70.4161 22.5409 70.5258 22.0471 70.5278 21.3385C70.5319 19.7192 71.0328 18.7854 71.066 20.3332C71.0823 21.1409 71.1385 21.2648 71.3011 20.861C71.4988 20.3692 71.5217 20.3783 71.6326 20.9932L71.7516 21.6529L72.0442 20.9932L72.3369 20.3334L72.3736 21.1251C72.4021 21.7801 72.4437 21.8276 72.6108 21.4003C72.8224 20.8591 73.1265 23.5493 73.2032 26.6412C73.2236 27.5264 73.3344 26.4821 73.4461 24.3206C73.5908 21.5175 73.7498 20.3275 73.9998 20.1709C74.2513 20.0135 74.3744 20.1383 74.4346 20.6087C74.5352 21.3993 75.0102 21.2068 75.0102 20.3754C75.0102 19.9315 75.1802 19.7747 75.7084 19.731C76.5444 19.6617 77.1209 20.0825 77.1209 20.7617C77.1209 21.034 77.2395 21.2572 77.3846 21.2572C77.5297 21.2572 77.6504 21.5242 77.6524 21.8509C77.6562 22.3311 77.7054 22.369 77.9121 22.0487C78.0527 21.831 78.1697 21.1411 78.1717 20.5157C78.1755 19.2835 78.6913 19.1888 78.7201 20.4149L78.7365 21.1251L79.0405 20.4653C79.3136 19.8728 79.3609 19.9939 79.5049 21.653C79.6337 23.138 79.6838 23.2933 79.7621 22.4447C79.8212 21.8023 79.9227 22.3705 80.0222 23.8962L80.1852 26.4034L80.2358 23.4188C80.2684 21.5083 80.3813 20.4929 80.55 20.5973C80.6951 20.687 80.8138 20.6258 80.8138 20.4619C80.8138 20.298 80.9919 19.9854 81.2096 19.7677C81.5613 19.4159 81.6054 19.4782 81.6054 20.3299C81.6054 20.9015 81.7117 21.2223 81.8691 21.125C82.0391 21.0198 82.1483 22.2543 82.176 24.6063L82.2192 28.2507L82.3913 24.28C82.5637 20.2998 82.7634 19.2582 83.2175 19.9752C83.4029 20.2683 83.4514 20.2614 83.4832 19.9385C83.5036 19.7207 83.6092 19.9589 83.7164 20.4663L83.9108 21.39L83.9434 20.4003C83.9801 19.3455 84.5631 19.021 84.8911 19.8725C85.0607 20.3123 85.0814 20.3123 85.3282 19.8725C85.6139 19.3632 87.408 19.2059 87.408 19.6902C87.408 19.8439 87.5266 19.8961 87.6717 19.8064C87.8401 19.7021 87.9538 20.6736 87.9868 22.496L88.0377 25.3487L88.1992 22.7095C88.288 21.2579 88.3838 20.174 88.4119 20.3006C88.5032 20.7115 89.2546 19.8889 89.2546 19.3783C89.2546 19.1059 89.3732 18.8828 89.5183 18.8828C89.6634 18.8828 89.782 19.3578 89.782 19.9385C89.782 21.1292 90.0519 21.2713 90.6594 20.4003C91.0397 19.855 91.079 20.5393 91.1405 28.7795L91.2077 37.7526L91.3525 28.8671C91.4319 23.9802 91.5885 19.8904 91.7006 19.7788C91.8123 19.667 92.1388 19.5586 92.4261 19.5374C92.9132 19.5007 92.9518 19.687 92.9992 22.2919C93.0318 24.0793 93.0783 24.4672 93.1284 23.3694C93.2544 20.6148 93.4859 19.2649 93.7587 19.696C93.9495 19.9977 93.9964 19.9777 93.9996 19.5932C94.0015 19.3306 94.1223 19.1891 94.2674 19.2788C94.4289 19.3783 94.5385 21.5675 94.5499 24.9026C94.5581 27.9059 94.6706 30.6008 94.7953 30.8911C94.9343 31.2145 95.0293 29.6552 95.0407 26.8664C95.0488 24.3625 95.1646 22.3139 95.293 22.3139C95.4214 22.3139 95.6064 21.7498 95.7037 21.0603C95.9732 19.1503 96.1258 18.7401 96.4031 19.178C96.5951 19.481 96.6379 19.4757 96.6566 19.1454C96.6729 18.8857 96.75 18.9306 96.8845 19.2759C96.9974 19.5654 97.3156 19.803 97.5915 19.8037C97.9962 19.8047 98.1232 20.0594 98.2494 21.1246L98.406 22.4441L98.4475 21.0706C98.4887 19.7008 98.492 19.6964 99.4784 19.5186C100.023 19.4208 100.619 19.2198 100.804 19.0729C101.039 18.8862 101.405 18.9477 102.017 19.2775C102.527 19.5519 103.187 19.6937 103.594 19.616C104.11 19.5173 104.301 19.5956 104.324 19.9075C104.352 20.2986 104.365 20.2985 104.468 19.9077C104.531 19.674 104.87 19.3512 105.223 19.1906C105.729 18.9598 106.022 18.9891 106.618 19.3312C107.301 19.7235 107.486 19.7268 108.577 19.3679C109.608 19.0283 109.881 19.0233 110.473 19.3353C110.854 19.5347 111.281 19.6264 111.423 19.5388C111.565 19.4511 111.682 19.535 111.685 19.7251C111.689 19.9571 111.753 19.9763 111.883 19.7834C111.989 19.6256 112.344 19.4287 112.67 19.3463C113.101 19.2374 113.272 19.3178 113.294 19.6334C113.319 19.9832 113.346 19.9913 113.433 19.6745C113.523 19.345 114.082 19.2904 116.766 19.3487C122.282 19.4682 125.246 19.4062 125.486 19.166C125.618 19.0339 126.073 19.0393 126.548 19.1783C127.274 19.3907 128.444 19.4356 132.237 19.3977C132.733 19.3936 133.228 19.5346 133.338 19.7128C133.495 19.9664 133.631 19.9607 133.961 19.6884C134.431 19.2981 134.414 19.288 134.828 20.2048L135.126 20.8646L135.147 20.1544C135.167 19.4401 135.674 18.8185 135.713 19.4635C135.729 19.7293 135.764 19.7326 135.867 19.4798C136.017 19.1067 137.011 19.0235 137.011 19.3836C137.011 19.6922 138.578 19.917 138.754 19.6335C138.962 19.2967 141.497 19.3644 141.497 19.7069C141.497 19.868 141.717 19.7273 141.987 19.395C142.46 18.8096 142.506 18.8038 143.376 19.2168C144.304 19.6571 146.323 19.5932 146.945 19.1039C147.305 18.8205 149.712 19.3583 150.001 19.7865C150.138 19.9896 150.196 19.9851 150.199 19.7702C150.203 19.5639 151.078 19.4668 152.973 19.4628L155.743 19.4587L155.798 22.5373C155.852 25.5917 155.853 25.5967 155.94 23.1747C156.009 21.2483 156.108 20.7335 156.413 20.7335C156.651 20.7335 156.799 20.475 156.799 20.0582C156.799 19.6867 156.905 19.4485 157.035 19.5288C157.165 19.6092 157.349 19.471 157.445 19.2219C157.73 18.4776 158.103 19.3421 158.154 20.8654C158.182 21.7104 158.234 21.9002 158.301 21.3932C158.492 19.9296 158.662 19.7491 159.041 20.6014C159.339 21.2696 159.398 21.3051 159.416 20.8286C159.444 20.0359 160.274 19.0975 160.702 19.3719C160.952 19.5329 161.099 21.1253 161.254 25.3744L161.466 31.158L161.507 25.2577C161.544 20.1897 161.603 19.3783 161.935 19.506C162.148 19.5875 162.393 19.5427 162.478 19.4025C162.945 18.6479 164.957 19.9612 165.004 21.0508C165.028 21.646 165.033 21.645 165.242 20.9973C165.358 20.6344 165.476 20.5157 165.505 20.7335C165.534 20.9513 165.653 20.8326 165.769 20.4697C165.886 20.1028 166.012 23.7357 166.053 28.6511L166.125 37.4922L166.352 29.047C166.594 20.0439 166.709 18.5419 167.105 19.1684C167.309 19.4913 167.345 19.4889 167.356 19.148C167.376 18.4602 168.141 19.6957 168.162 20.4521C168.178 21.066 168.203 21.0795 168.407 20.5997C168.557 20.2511 168.656 21.0135 168.698 22.8429C168.758 25.4675 168.771 25.5234 168.935 23.8986C169.083 22.4253 169.121 22.3322 169.201 23.2388C169.268 23.9938 169.343 23.6931 169.462 22.1832C169.576 20.7414 169.663 22.29 169.736 27.0656L169.843 34.0593L169.99 27.8573L170.137 21.6553L170.246 29.5728L170.355 37.4902L170.531 28.5171C170.627 23.5819 170.724 19.5181 170.744 19.4863C170.764 19.4537 170.96 19.4986 171.177 19.5805C171.395 19.6641 171.582 20.0463 171.593 20.4299C171.613 21.1117 171.621 21.1086 171.923 20.2889C172.352 19.1257 172.621 18.9331 172.81 19.6541L172.97 20.269L173.308 19.6427C173.606 19.0888 173.666 19.0696 173.824 19.4767C173.922 19.7299 174.109 19.8714 174.239 19.7911C174.369 19.7107 174.491 20.335 174.51 21.1781L174.547 22.7112L174.721 21.4688C174.918 20.0566 175.185 19.6472 175.542 20.2117C175.688 20.4429 175.789 20.4743 175.792 20.2887C175.796 19.9271 176.52 19.1483 176.851 19.1483C176.975 19.1483 177.264 19.3347 177.492 19.563C177.72 19.791 177.906 19.8505 177.906 19.6951C177.906 19.5394 178.084 19.4125 178.302 19.4125C178.603 19.4125 178.698 19.7408 178.698 20.7826C178.698 22.0438 178.73 22.1119 179.085 21.6403C179.298 21.3586 179.488 20.7124 179.507 20.2043C179.54 19.3751 179.561 19.3481 179.73 19.9405L179.918 20.6003L180.103 19.8785C180.288 19.1586 180.29 19.1581 180.812 19.6808C181.16 20.0286 181.336 20.5591 181.336 21.2602C181.336 21.8408 181.455 22.3159 181.6 22.3159C181.745 22.3159 181.863 21.7347 181.863 21.0245C181.863 20.1201 181.982 19.6877 182.259 19.5813C182.558 19.4667 182.662 19.638 182.681 20.2789C182.706 21.087 182.718 21.0962 182.919 20.4684C183.035 20.1055 183.15 19.9274 183.173 20.0725C183.198 20.2176 183.34 20.0399 183.491 19.6766C183.753 19.048 183.777 19.0417 183.984 19.5444C184.103 19.8348 184.211 20.7255 184.224 21.5238C184.26 23.7479 184.666 23.9954 184.887 21.9267C185.071 20.212 185.09 20.1765 185.58 20.6209C186.065 21.0593 186.085 21.0506 186.085 20.4052C186.085 19.7014 186.813 19.1833 187.011 19.7466C187.073 19.9256 187.231 20.9628 187.362 22.0515L187.6 24.0308L187.66 21.7875C187.703 20.2215 187.784 19.7435 187.932 20.2041L188.143 20.8639L188.167 20.1822C188.196 19.4297 188.683 19.3407 189.711 19.8996C190.15 20.139 190.304 20.1435 190.304 19.9159C190.304 19.6949 190.414 19.701 190.7 19.9404C191.025 20.2103 191.096 20.1896 191.096 19.823C191.096 19.4666 191.295 19.3961 192.085 19.4723C193.018 19.562 193.083 19.6277 193.212 20.6117L193.35 21.6558L193.653 20.8641C193.893 20.2375 193.969 21.916 194.018 28.9134L194.081 37.7546L194.313 29.7052C194.534 22.0299 194.808 19.66 195.372 20.5474C195.494 20.7398 195.597 20.5515 195.635 20.0724C195.667 19.6369 195.763 21.7746 195.845 24.8228L195.993 30.365L196.05 25.0363C196.083 22.0989 196.218 19.6395 196.354 19.5557C196.489 19.4721 196.789 19.6727 197.021 20.002C197.368 20.4947 197.484 20.5331 197.68 20.2193C197.85 19.9461 197.945 20.1321 198.016 20.8791L198.116 21.9196L198.333 20.798C198.452 20.1811 198.639 19.6764 198.746 19.6764C198.854 19.6764 199.041 20.2999 199.162 21.0619L199.381 22.4474L199.526 20.9959C199.647 19.7705 199.757 19.5324 200.231 19.4674C200.899 19.3756 201.107 19.796 201.38 21.7877L201.579 23.2392L201.612 21.7433C201.659 19.7232 201.99 18.9132 202.187 20.3362L202.333 21.3918L202.667 20.2435C202.979 19.1673 203.025 19.1258 203.395 19.5837C203.678 19.9344 203.829 19.9792 203.927 19.7423C204.003 19.5608 204.292 19.4124 204.57 19.4124C205.016 19.4124 205.079 19.6232 205.102 21.1939C205.123 22.4872 205.186 22.7945 205.34 22.3155C205.472 21.9039 205.578 23.095 205.622 25.4825L205.693 29.3092L205.882 25.8783C205.986 23.9913 206.085 21.8833 206.102 21.1939C206.134 19.9012 206.535 19.4836 206.737 20.5341C206.809 20.9104 206.877 20.7412 206.922 20.0722L206.992 19.0166L207.187 19.9403C207.362 20.7711 207.385 20.791 207.416 20.1381C207.436 19.7389 207.599 19.4132 207.78 19.4143C208.453 19.4181 208.876 20.8831 209.037 23.7669L209.199 26.6699L209.252 23.107C209.285 20.971 209.397 19.689 209.535 19.9058C209.721 20.1998 209.812 20.1806 210.023 19.8026C210.457 19.0282 210.878 19.6273 210.92 21.0772L210.961 22.4472L211.129 21.2595L211.297 20.0719L211.611 21.5234C211.783 22.3218 211.965 23.5688 212.015 24.2945C212.081 25.2557 212.13 25.0048 212.195 23.3708C212.278 21.2798 212.296 21.2171 212.465 22.4472C212.635 23.6868 212.65 23.6389 212.706 21.6554C212.739 20.4942 212.863 19.3066 212.982 19.0163C213.496 17.7618 213.785 20.0555 213.84 25.8292C213.873 29.0494 213.926 30.3778 213.961 28.7811C214.042 25.1555 214.583 19.7029 214.88 19.5191C215.003 19.4432 215.104 19.8701 215.104 20.4678C215.104 21.1251 215.208 21.4902 215.367 21.3915C215.541 21.2842 215.649 24.0628 215.683 29.4913C215.738 38.2749 215.871 37.4056 216.298 25.4822C216.474 20.5536 216.732 19.1963 217.091 21.3002C217.25 22.2268 217.328 22.3457 217.496 21.9193C217.611 21.629 217.713 21.0649 217.723 20.6657C217.731 20.2665 217.847 19.94 217.975 19.94C218.425 19.94 218.641 21.1582 218.796 24.5584L218.952 27.9893L219.006 24.1375C219.063 20.0975 219.155 19.7843 220.408 19.3431C220.769 19.2159 220.857 19.545 221.002 21.5868C221.095 22.903 221.18 27.1384 221.19 30.9989C221.202 35.1641 221.301 37.8034 221.435 37.4902C221.56 37.1999 221.696 33.2215 221.737 28.6491L221.741 28.6453Z" fill="black"/>
</svg>
