<svg width="464" height="38" viewBox="0 0 464 38" fill="none" xmlns="http://www.w3.org/2000/svg">
<path d="M367.108 20.823C367.49 19.7275 367.781 20.2146 367.818 22.0106L367.855 23.792L368.048 21.7766C368.154 20.6682 368.317 19.6378 368.41 19.487C368.503 19.3361 368.934 19.2579 369.367 19.3125C369.815 19.3692 370.155 19.288 370.155 19.1286C370.155 18.9313 370.263 18.9345 370.51 19.1368C370.705 19.2982 370.948 19.3459 371.052 19.2428C371.155 19.1396 371.35 19.2305 371.485 19.443C371.662 19.7235 371.732 19.7366 371.735 19.4895C371.738 19.105 372.558 19.1616 372.856 19.5669C372.977 19.7312 373.051 19.7084 373.054 19.5062C373.057 19.2966 373.358 19.2163 373.906 19.2803C374.372 19.3345 375.025 19.2765 375.357 19.1498C375.758 18.9973 375.96 19.0173 375.96 19.2102C375.96 19.4185 376.059 19.4173 376.314 19.2064C376.509 19.0449 376.734 18.9785 376.814 19.0588C376.895 19.1391 379.822 19.217 383.32 19.2313C386.818 19.2476 389.679 19.3569 389.679 19.4784C389.679 19.6003 389.828 19.67 390.009 19.6337C390.241 19.5872 390.411 20.2947 390.58 22.0089C390.712 23.3516 390.919 24.4501 391.041 24.4501C391.163 24.4501 391.284 25.8456 391.311 27.5511L391.361 30.6521L391.526 28.4088C391.617 27.1751 391.714 26.4258 391.741 26.7438C391.77 27.0618 391.909 27.3955 392.054 27.4852C392.223 27.5895 392.32 26.7612 392.322 25.1915C392.326 22.5968 392.75 20.8459 393.47 20.4423C393.77 20.2747 393.907 20.3057 393.921 20.5443C393.933 20.733 394.097 20.4717 394.287 19.9635C394.685 18.8988 394.888 19.1853 395.033 21.0192L395.128 22.2068L395.223 20.7553C395.311 19.4119 395.331 19.4709 395.484 21.547L395.649 23.7903L395.703 21.4151C395.731 20.1087 395.843 19.1586 395.95 19.3038C396.146 19.5712 396.665 19.7582 397.265 19.7772C397.446 19.7813 397.602 20.0349 397.611 20.3374C397.628 20.8828 397.632 20.8827 397.857 20.3211C398.344 19.1132 398.65 19.3865 398.694 21.0703L398.739 22.7353L398.893 21.1724C398.981 20.2761 399.187 19.5631 399.376 19.5009C399.557 19.4414 399.706 19.5335 399.706 19.7089C399.706 19.9197 399.937 19.8736 400.398 19.571C400.969 19.1971 401.131 19.18 401.318 19.4748C401.494 19.7533 401.545 19.7574 401.548 19.4911C401.552 19.1074 403.598 19.1168 403.835 19.4993C403.912 19.6224 404.126 19.5971 404.312 19.4426C404.499 19.2881 405.289 19.1486 406.07 19.1327C408.409 19.0854 408.675 19.1365 408.695 19.6318C408.711 20.0097 408.745 20.022 408.892 19.6978C408.991 19.4801 409.368 19.3035 409.731 19.3052C410.094 19.307 410.514 19.224 410.665 19.1209C410.817 19.0177 411.795 19.0601 412.84 19.215C414.468 19.4568 414.834 19.436 415.392 19.0699C416.193 18.5453 416.827 18.5383 417.499 19.0454C417.78 19.2587 418.344 19.4328 418.752 19.4328C419.235 19.4328 419.493 19.5706 419.493 19.8287C419.493 20.0464 419.612 20.2246 419.757 20.2246C419.921 20.2246 420.032 21.8949 420.052 24.6452C420.072 27.258 420.166 28.7419 420.285 28.274C420.395 27.8385 420.5 25.6838 420.517 23.4858C420.542 20.104 420.613 19.4647 420.966 19.3291C421.719 19.04 421.836 19.1558 421.938 20.2906C422.035 21.3629 422.041 21.3513 422.085 20.0268C422.136 18.4997 422.339 18.3683 423.618 19.0355C424.587 19.5405 425.762 19.5379 427.266 19.0273C428.135 18.7321 428.6 18.6958 428.972 18.8948C429.279 19.0591 431.782 19.17 435.239 19.1729C438.405 19.1766 441.322 19.181 441.721 19.1851C442.219 19.1889 442.453 19.3331 442.468 19.6428C442.48 19.9205 442.54 19.9666 442.622 19.7623C442.695 19.5801 442.864 19.4981 442.997 19.5801C443.13 19.662 443.238 19.6086 443.238 19.4581C443.238 19.3089 443.416 19.2555 443.634 19.3391C443.885 19.4353 444.03 19.3353 444.03 19.0667C444.03 18.5884 444.576 18.5026 444.989 18.9158C445.14 19.0663 445.939 19.1972 446.765 19.2074C447.714 19.2196 448.411 19.368 448.656 19.6127C448.996 19.9531 449.043 19.9499 449.043 19.5841C449.043 19.3562 449.221 19.1694 449.439 19.1694C449.656 19.1694 449.834 19.0508 449.834 18.9056C449.834 18.5011 450.832 18.5921 451.548 19.0614C452.089 19.4161 452.383 19.4332 453.452 19.1731C454.147 19.0039 454.953 18.8824 455.243 18.9028C455.533 18.9231 457.492 18.9627 459.596 18.99L463.422 19.0398L463.559 28.4077C463.65 34.679 463.695 31.4944 463.694 18.7738C463.694 8.32281 463.662 3.93173 463.62 9.01577L463.546 18.2595L462.303 18.5482C461.456 18.7447 460.818 18.7529 460.303 18.5726C459.765 18.3851 459.254 18.4059 458.529 18.6452C457.703 18.918 457.282 18.9172 456.298 18.6415C455.312 18.3654 454.893 18.365 454.064 18.6377C453.445 18.842 452.75 18.8942 452.296 18.7706C451.885 18.6585 450.985 18.5545 450.296 18.5399C449.443 18.5195 449.042 18.4008 449.042 18.1623C449.042 17.8977 448.941 17.9132 448.628 18.2259C448.108 18.7466 447.1 19.008 446.333 18.8212C446.01 18.7421 445.299 18.5631 444.755 18.4232C443.963 18.2193 443.766 18.2422 443.766 18.537C443.766 19.0157 443.561 19.0022 443.049 18.4897C442.734 18.1749 442.586 18.1521 442.435 18.3959C442.326 18.5728 442.054 18.6479 441.831 18.5622C441.608 18.4766 441.382 18.5337 441.33 18.6923C441.264 18.8905 440.939 18.8709 440.271 18.6291C439.544 18.3661 439.149 18.3523 438.667 18.572C438.225 18.7735 437.432 18.789 436.106 18.6226C434.789 18.457 434.078 18.4705 433.844 18.6642C433.62 18.8505 433.349 18.8603 433.051 18.6927C432.771 18.5362 432.285 18.5304 431.783 18.6764C431.262 18.8293 430.519 18.8085 429.711 18.6181C428.744 18.3898 428.054 18.4004 426.727 18.6642C425.312 18.9455 424.849 18.9455 424.16 18.665C423.697 18.4766 423.058 18.2625 422.74 18.1895C422.364 18.103 422.123 17.8111 422.054 17.3585C421.973 16.8308 421.937 16.9019 421.907 17.6504C421.866 18.6487 421.727 18.7722 420.966 18.4799C420.609 18.3429 420.544 17.6471 420.517 13.6635C420.501 11.1026 420.395 8.651 420.284 8.21553C420.169 7.76298 420.07 9.65666 420.052 12.6361C420.031 15.9142 419.922 17.8484 419.757 17.8484C419.611 17.8484 419.493 18.0731 419.493 18.348C419.493 18.9247 418.7 19.329 418.429 18.8904C418.329 18.7277 418.141 18.5907 418.012 18.5859C417.883 18.5818 417.486 18.4656 417.129 18.3298C416.404 18.0542 415.271 18.2462 415.271 18.645C415.271 19.0594 413.522 18.9434 413.158 18.5047C412.939 18.2405 412.724 18.1908 412.523 18.3575C412.34 18.5096 411.823 18.5202 411.222 18.3861C410.469 18.216 410.191 18.2478 410.088 18.5149C409.903 18.9969 408.945 18.8921 408.919 18.3869C408.907 18.1638 408.848 18.0998 408.787 18.245C408.724 18.3946 407.645 18.5039 406.301 18.4978C404.995 18.4937 403.927 18.5769 403.927 18.6874C403.927 18.7979 403.778 18.8362 403.597 18.7722C403.416 18.7086 402.912 18.596 402.478 18.5222C402.043 18.4489 401.655 18.2902 401.615 18.17C401.512 17.8617 400.026 18.0016 399.594 18.36C399.306 18.5993 399.182 18.4603 398.969 17.66L398.704 16.6614L398.676 17.5347C398.66 18.0689 398.542 18.3419 398.373 18.2378C398.222 18.144 397.937 18.2011 397.741 18.3634C397.474 18.5856 397.288 18.5619 396.993 18.2667C396.777 18.051 396.527 17.9479 396.437 18.0376C396.348 18.1273 396.272 18.0335 396.27 17.8272C396.266 17.5193 396.22 17.5234 396.01 17.8476C395.826 18.133 395.741 17.8394 395.707 16.7919L395.66 15.3404L395.483 16.7919L395.305 18.2434L395.218 16.1321C395.169 14.9472 395.091 14.484 395.041 15.0765C394.992 15.6571 394.883 16.5463 394.798 17.0525C394.653 17.9189 394.622 17.943 394.272 17.4639C394.065 17.1809 393.9 17.1031 393.9 17.2882C393.9 17.4717 393.734 17.7875 393.53 17.9906C393.04 18.4808 392.951 18.0893 392.591 13.8889C392.435 12.0745 392.221 9.63987 392.116 8.47865L391.924 6.36735L391.781 8.74259L391.638 11.1178L391.502 9.13846C391.385 7.43046 391.359 7.60445 391.314 10.4076C391.285 12.1943 391.159 13.5931 391.035 13.5161C390.91 13.439 390.726 14.4675 390.625 15.8016C390.431 18.3737 390.325 18.7258 389.932 18.1039C389.797 17.8902 389.685 17.8388 389.683 17.9893C389.679 18.1406 388.972 18.2877 388.095 18.3191C387.044 18.3558 386.512 18.2731 386.512 18.0712C386.512 17.9041 386.279 18.0386 385.993 18.3664C385.619 18.7974 385.341 18.9054 385.003 18.7509C384.745 18.6327 382.801 18.5295 380.683 18.5218C377.942 18.5136 376.714 18.4097 376.421 18.1667C376.126 17.9212 375.982 17.9102 375.91 18.1259C375.855 18.2914 375.447 18.4553 375.004 18.4904C374.562 18.5271 374.061 18.6392 373.892 18.7436C373.723 18.848 373.585 18.7954 373.585 18.6258C373.585 18.4358 373.408 18.3913 373.123 18.5096C372.588 18.7314 372.333 18.7359 371.606 18.534C369.989 18.088 368.976 17.8908 368.814 17.9907C368.383 18.2574 368.063 17.2909 367.977 15.4584C367.887 13.5375 367.884 13.5501 367.833 15.9908C367.782 18.4502 367.773 18.4802 367.319 17.8382C366.91 17.2603 366.84 16.2043 366.711 8.60848L366.564 0.03125L366.513 6.52629C366.485 10.0986 366.372 13.602 366.264 14.3118C366.071 15.5684 366.062 15.5435 365.917 13.3589L365.768 11.1157L365.682 13.4908C365.611 15.4242 365.56 15.6697 365.406 14.8104C365.246 13.9158 365.211 14.0568 365.176 15.7341C365.152 16.9418 365.047 17.5751 364.91 17.3585C364.742 17.0943 364.643 17.1702 364.521 17.655C364.334 18.4008 363.079 19.0351 362.287 18.7839C362.001 18.6929 360.775 18.6248 359.563 18.6322C358.351 18.6403 357.004 18.6327 356.568 18.6159C355.812 18.5873 354.82 18.5996 352.941 18.6583C352.469 18.6746 351.4 18.6216 350.566 18.5425C349.686 18.4597 349.049 18.5058 349.049 18.6501C349.049 19.0093 347.474 18.9368 346.543 18.5351C345.885 18.2513 345.561 18.2579 344.623 18.5759C343.897 18.821 343.098 18.8935 342.381 18.7794C341.768 18.6819 340.761 18.6065 340.145 18.6114C338.288 18.6277 335.415 18.6151 333.945 18.5869C333.183 18.5747 332.114 18.6477 331.57 18.7525C330.827 18.896 330.58 18.856 330.577 18.5922C330.573 18.319 330.519 18.3251 330.333 18.6208C330.158 18.898 329.999 18.9237 329.743 18.7166C329.551 18.5608 328.741 18.4736 327.942 18.5229C327.144 18.5718 325.66 18.6175 324.644 18.624C323.629 18.6322 322.204 18.6403 321.478 18.6444C320.753 18.6485 319.744 18.6689 319.236 18.6897C318.728 18.7101 317.6 18.7019 316.73 18.6774C315.859 18.6489 314.612 18.6448 313.959 18.6652C312.419 18.7154 307.741 18.7247 306.638 18.6815C304.758 18.6049 304.211 18.6024 301.136 18.6611C299.38 18.6937 297.836 18.6571 297.706 18.5775C297.576 18.4988 296.995 18.4944 296.414 18.5694C295.834 18.6428 294.884 18.6901 294.304 18.6746C293.075 18.642 291.468 18.6379 289.884 18.6664C289.268 18.6787 288.332 18.6057 287.805 18.5074C287.238 18.4014 286.779 18.4385 286.68 18.5983C286.577 18.7647 286.225 18.7851 285.761 18.6522C285.347 18.5335 284.844 18.5404 284.643 18.6685C284.161 18.9739 283.091 18.9726 283.091 18.6666C283.091 18.5341 282.427 18.4831 281.615 18.5532C280.803 18.6234 279.942 18.5956 279.702 18.4913C279.15 18.2515 278.024 18.3498 277.695 18.6662C277.357 18.992 275.248 18.974 275.044 18.6417C274.822 18.2829 273.687 18.3094 272.612 18.6984C271.915 18.9504 271.614 18.95 271.209 18.6974C270.856 18.4768 270.34 18.4434 269.571 18.5918C268.263 18.8438 265.812 18.8116 264.941 18.5306C264.608 18.423 263.74 18.4882 263.011 18.675C261.88 18.9649 261.651 18.9584 261.444 18.6305C261.274 18.3618 261.199 18.3468 261.197 18.58C261.193 18.8177 260.946 18.8609 260.335 18.7309C259.863 18.6305 258.914 18.5731 258.224 18.6032C257.504 18.6358 256.971 18.5429 256.971 18.3863C256.971 17.983 256.54 18.0556 256.055 18.5404C255.663 18.9327 255.59 18.9315 255.139 18.5241C254.87 18.2803 254.583 18.1881 254.502 18.319C254.421 18.4503 253.732 18.529 252.971 18.4944C251.907 18.4458 251.544 18.319 251.396 17.9432C251.24 17.5477 251.2 17.5897 251.185 18.165C251.161 19.0819 250.894 19.2267 250.042 18.7844C249.568 18.5381 248.837 18.4725 247.712 18.5744C246.318 18.7008 246.021 18.6503 245.718 18.2364C245.417 17.8235 245.362 17.8142 245.362 18.1753C245.362 18.7957 243.935 19.0453 243.226 18.5487C242.801 18.2511 242.489 18.2168 241.977 18.4117C241.601 18.5545 241.022 18.6034 240.69 18.5198C240.357 18.4362 240.086 18.4729 240.086 18.6005C240.086 19.0313 238.767 18.5883 238.746 18.1495C238.733 17.8735 238.677 17.8376 238.591 18.05C238.24 18.9222 237.972 17.8315 237.938 15.3937L237.902 12.7041L237.675 15.461C237.551 16.9773 237.33 18.3371 237.184 18.4828C237.007 18.6602 236.919 18.5994 236.919 18.2989C236.919 18.0522 236.8 17.8503 236.656 17.8503C236.511 17.8503 236.392 17.9759 236.392 18.1296C236.392 18.2833 236.273 18.3355 236.128 18.2458C235.983 18.1561 235.842 16.9318 235.816 15.5251L235.767 12.9676L235.6 15.0788L235.433 17.1901L235.337 14.419C235.284 12.8949 235.203 12.2418 235.156 12.9676C235.11 13.6933 234.988 14.7028 234.886 15.2108L234.7 16.1345L234.532 14.815C234.392 13.7195 234.357 13.91 234.322 15.9366L234.281 18.3778L233.555 18.4104C233.156 18.4267 232.741 18.4267 232.632 18.4104C232.523 18.3941 232.434 18.4981 232.434 18.6432C232.434 18.9327 231.14 19.0012 230.477 18.7468C230.248 18.6587 230.056 18.3321 230.051 18.021L230.043 17.4555L229.585 18.0035C229.07 18.6193 228.479 18.5618 228.473 17.8955C228.47 17.5387 228.425 17.5252 228.236 17.8237C228.108 18.0263 227.819 18.1214 227.594 18.0349C227.325 17.9317 227.124 18.0716 227.006 18.4418C226.856 18.9149 226.78 18.9445 226.531 18.6261C226.095 18.0683 225.311 18.0065 225.311 18.5299C225.311 18.8569 225.161 18.9266 224.718 18.8047C223.401 18.4418 220.628 18.3251 220.096 18.6098C219.683 18.8312 219.517 18.8227 219.417 18.5731C219.312 18.3163 219.231 18.3195 219.042 18.5894C218.85 18.8618 218.657 18.8679 218.11 18.618C217.574 18.3737 217.247 18.3754 216.641 18.6261C216.056 18.8683 215.723 18.8749 215.308 18.6547C214.714 18.3366 212.384 18.3803 212.384 18.7089C212.384 19.0441 211.606 18.9283 210.944 18.4944C210.296 18.0694 209.481 18.0657 209.176 18.4863C209.081 18.618 208.309 18.7003 207.461 18.6694C205.893 18.6119 202.763 18.6082 201.566 18.6612C201.204 18.6775 200.195 18.6147 199.324 18.5222C198.33 18.4162 197.365 18.4745 196.731 18.6783C195.888 18.9503 195.682 18.9413 195.482 18.6249C195.316 18.3619 195.241 18.3468 195.238 18.576C195.234 19.0345 194.424 18.9878 193.384 18.4688C192.632 18.0936 192.393 18.0806 191.695 18.3778C191.247 18.5682 190.228 18.6955 189.43 18.6604C188.632 18.6237 187.534 18.6025 186.99 18.6102C185.291 18.6347 183.531 18.6347 182.57 18.6121C182.063 18.5999 181.41 18.6325 181.119 18.6827C180.674 18.7597 180.567 18.5889 180.433 17.5863C180.276 16.4089 180.275 16.4072 180.235 17.3886C180.203 18.2484 180.112 18.3783 179.558 18.3783C179.207 18.3783 178.742 18.4464 178.525 18.5295C178.282 18.6229 178.084 18.4969 178.007 18.1997C177.911 17.8303 177.875 17.8633 177.852 18.3412C177.823 18.9112 177.738 18.9497 176.832 18.7966C174.501 18.4027 172.496 18.3217 172.207 18.6102C171.84 18.9776 170.786 18.998 170.566 18.6429C170.349 18.291 169.295 18.3081 168.488 18.6755C167.641 19.0616 165.949 18.7574 165.949 18.2189C165.949 17.9991 165.83 17.8927 165.685 17.9824C165.54 18.0721 165.419 17.9306 165.417 17.6681C165.414 17.2632 165.374 17.2509 165.158 17.5865C165.017 17.8042 164.888 17.8638 164.871 17.7186C164.855 17.5735 164.759 17.7512 164.659 18.1145C164.521 18.6162 164.274 18.7941 163.63 18.857C163.131 18.9059 162.783 18.8162 162.783 18.6434C162.783 18.4803 162.679 18.4113 162.552 18.4896C162.426 18.5679 162.004 18.3375 161.615 17.9774C161.227 17.6173 160.871 17.3225 160.824 17.3225C160.777 17.3225 160.67 17.6634 160.587 18.08C160.342 19.3059 158.305 19.3867 158.294 18.1709C158.29 17.8068 158.244 17.7901 158.056 18.0869C157.924 18.2961 157.634 18.3829 157.386 18.2875C157.146 18.1954 156.538 18.2913 156.036 18.5016C155.533 18.7116 155.035 18.8918 154.929 18.902C154.823 18.9101 154.605 17.7595 154.445 16.3403L154.155 13.7599L154.114 16.3331C154.073 18.9279 153.868 19.3859 153.09 18.6075C152.868 18.3853 152.269 18.3866 150.748 18.6116C149.357 18.8184 148.617 18.8294 148.434 18.6483C148.286 18.5003 147.897 18.3788 147.57 18.3788C146.903 18.3788 146.747 17.8451 146.605 15.0799C146.551 14.0366 146.507 14.3667 146.474 16.0476C146.441 17.7583 146.319 18.6335 146.107 18.7043C145.933 18.7626 145.222 18.6962 144.527 18.56C143.533 18.3634 143.082 18.3977 142.415 18.721C141.434 19.1964 140.619 18.9241 140.619 18.1213C140.619 17.8449 140.501 17.5449 140.356 17.4552C140.21 17.3655 140.092 17.5368 140.092 17.8356C140.092 18.2917 139.926 18.379 139.058 18.379C138.479 18.379 137.967 18.5238 137.892 18.7089C137.813 18.9059 137.751 18.8528 137.738 18.5768C137.714 18.0267 137.19 17.9465 137.19 18.4928C137.19 18.872 136.27 18.9206 135.705 18.5715C135.196 18.2567 133.633 18.2812 133.018 18.6139C132.559 18.8614 132.317 18.8687 132.046 18.6424C131.847 18.4773 131.29 18.3799 130.809 18.4263C130.265 18.4785 129.813 18.3611 129.613 18.1144C129.338 17.776 129.291 17.8045 129.283 18.3126C129.275 18.9389 128.78 19.0977 128.309 18.6257C128.154 18.4712 127.656 18.3346 127.2 18.3216C126.419 18.3012 126.37 18.2371 126.327 17.2165L126.281 16.1342L126.18 17.2618C126.124 17.882 125.966 18.3204 125.83 18.2359C125.693 18.1515 125.582 18.2522 125.582 18.463C125.582 19.1339 124.59 19.1532 123.827 18.4957C123.432 18.156 123.033 17.9245 122.941 17.9813C122.85 18.0379 122.467 18.1403 122.09 18.2084L121.406 18.3323L121.249 15.9128C120.97 11.6323 120.918 11.5747 120.849 15.4726C120.784 19.1049 120.763 19.239 120.437 18.1117C120.183 17.2332 120.084 17.0958 120.058 17.5839L120.021 18.2437L119.644 17.5839L119.267 16.9241L119.259 17.5345C119.251 17.9796 119.117 18.1225 118.762 18.0623C118.494 18.017 117.952 18.1524 117.558 18.3632C116.979 18.6727 116.8 18.6813 116.631 18.4069C116.48 18.163 116.376 18.238 116.262 18.6727L116.104 19.2784L115.456 18.6701C115.008 18.2489 114.64 18.1155 114.259 18.2364C113.731 18.404 113.707 18.3151 113.672 16.0841L113.635 13.757L113.377 15.9846C113.235 17.2097 112.963 18.3677 112.773 18.5577C112.277 19.0541 110.883 18.9923 110.585 18.4607C110.313 17.9743 109.224 17.7726 109.224 18.2083C109.224 18.3816 109.132 18.3889 108.972 18.2287C108.833 18.09 108.679 16.9676 108.63 15.7347L108.54 13.4929L108.486 15.9185C108.432 18.3711 108.199 18.9479 107.497 18.3657C107.184 18.1059 107.112 18.1382 107.109 18.541C107.105 18.9296 107.055 18.9564 106.872 18.6666C106.744 18.4639 106.452 18.3698 106.225 18.457C105.997 18.5443 105.746 18.5104 105.666 18.3808C105.586 18.2515 105.107 18.2128 104.602 18.2947L103.683 18.4435L103.632 16.6276L103.581 14.8116L103.489 16.4309C103.419 17.6393 103.261 18.1724 102.864 18.5317C102.517 18.8457 102.268 18.9158 102.15 18.7336C102.05 18.5795 101.709 18.3172 101.392 18.1503C101.075 17.9836 100.767 17.5204 100.706 17.1212C100.61 16.4903 100.59 16.5161 100.552 17.3189C100.52 18.0203 100.447 18.1473 100.253 17.8467C100.04 17.5173 99.9936 17.5397 99.9748 17.9788L99.9504 18.5067L99.7237 17.9788C99.506 17.4725 99.4963 17.4748 99.4783 18.0363C99.4661 18.4447 99.3402 18.5759 99.0641 18.4699C98.8464 18.3863 98.6683 18.4536 98.6683 18.6167C98.6683 18.8112 98.3752 18.7639 97.8299 18.4818C97.0582 18.0826 96.9668 18.0822 96.6795 18.4736C96.2907 19.0056 95.6977 19.0152 94.712 18.5062C94.0333 18.1552 93.7377 18.1552 92.0664 18.507C90.4413 18.8491 90.1122 18.852 89.6522 18.5315C89.2157 18.2257 88.9793 18.2175 88.3417 18.4854C87.7907 18.717 87.0878 18.7476 85.9318 18.5894C84.8875 18.4467 84.0138 18.4659 83.5058 18.6428C82.9622 18.8324 82.6833 18.8341 82.6212 18.6469C82.5715 18.4973 82.1842 18.3745 81.761 18.3745C80.9972 18.3745 80.9915 18.3623 80.9915 16.8066C80.9915 15.9442 80.8729 15.1653 80.7277 15.0756C80.5614 14.9728 80.464 15.5963 80.464 16.7623C80.464 18.9366 80.0564 19.423 78.838 18.703C78.0913 18.2618 78.0248 17.9309 77.7376 13.2282C77.6931 12.5024 77.6357 13.304 77.6092 15.0096C77.5419 19.3891 77.0424 19.0628 77.003 14.6137C76.9867 12.6904 76.8868 9.92924 76.7824 8.47771C76.6296 6.34603 76.5815 7.10729 76.533 12.4364C76.4865 17.5313 76.4062 18.884 76.18 18.3745C75.8877 17.7162 75.8869 17.7161 75.7826 18.3084C75.7251 18.635 75.5677 18.9023 75.4324 18.9023C75.2975 18.9023 75.1613 17.4474 75.1299 15.6693L75.0729 12.4363L74.9897 15.6947C74.9204 18.4193 74.8475 18.9039 74.5447 18.6526C74.3458 18.4875 73.8152 18.2465 73.3658 18.1178C72.6869 17.9229 72.5443 17.9584 72.5224 18.327C72.5061 18.5994 72.4148 18.5158 72.2848 18.1105C72.0789 17.4676 72.0728 17.4661 72.0471 18.053C72.0064 18.9456 71.0282 19.2275 70.0421 18.6298C69.2826 18.1695 69.1972 18.1689 67.9314 18.6135C66.4004 19.1527 65.9542 19.0788 65.9487 18.2852C65.9468 17.9709 65.8296 17.5353 65.689 17.3175C65.484 17.0003 65.4326 17.0456 65.4294 17.5442C65.4256 18.0616 65.3226 18.1409 64.8176 18.0141C64.3945 17.9081 64.0651 18.0304 63.734 18.4173C63.3476 18.8686 63.2147 18.9043 63.0267 18.6073C62.86 18.3439 62.7939 18.3342 62.7911 18.5706C62.7892 18.7521 62.5518 18.9005 62.2644 18.9005C61.6013 18.9005 61.4866 18.3984 61.3907 15.0738L61.3144 12.4346L61.259 15.2561C61.2305 16.8079 61.0988 18.1425 60.9704 18.2219C60.842 18.301 60.1841 18.387 59.5082 18.4127C58.8323 18.4372 58.2173 18.5595 58.1416 18.6822C58.0657 18.8049 57.2694 18.8212 56.3718 18.7189C54.9378 18.5554 53.7854 18.5383 50.9802 18.6394C49.8854 18.6802 48.2759 18.3458 48.2759 18.08C48.2759 17.6247 47.8081 17.8517 47.6718 18.3728C47.5271 18.9259 46.8405 19.0891 46.561 18.6366C46.4713 18.4914 45.9894 18.3728 45.4901 18.3728H44.5823L44.5346 16.7233C44.4918 15.2308 44.4775 15.1931 44.3883 16.3274C44.334 17.0169 44.1771 17.581 44.0402 17.581C43.8914 17.581 43.7666 14.6877 43.7308 10.3893L43.6708 3.19767L43.5265 10.8512C43.4471 15.0606 43.335 17.8515 43.2771 17.0531L43.1719 15.6016L43.0195 17.2964C42.8495 19.1854 42.4486 19.592 41.9478 18.3827C41.7652 17.9417 41.5115 17.581 41.384 17.581C41.2564 17.581 41.1366 17.3139 41.1174 16.9872C41.093 16.5913 41.018 16.7013 40.8884 17.317C40.7469 17.9888 40.6707 17.485 40.6087 15.4696L40.5235 12.6985L40.3748 15.2057C40.2892 16.6473 40.1575 17.4325 40.0654 17.0531C39.9207 16.4572 39.9015 16.4763 39.8693 17.2513C39.8489 17.723 39.7307 18.109 39.6052 18.109C39.1866 18.109 39.0421 15.7208 38.9918 7.97745L38.9421 0.294777L38.7644 7.81636C38.6665 11.9532 38.5704 16.1039 38.5504 17.0401C38.4978 19.5034 38.0296 18.7278 37.92 15.9962L37.8299 13.7544L37.7761 16.1956C37.7435 17.6113 37.6114 18.6368 37.4586 18.6368C37.289 18.6368 37.1745 15.4099 37.1378 9.59775L37.0807 0.558709L36.9385 8.74002C36.8602 13.2398 36.7077 17.1292 36.5997 17.3832C36.4917 17.6372 36.3372 18.0496 36.2569 18.2995C36.1318 18.6881 36.0751 18.6979 35.8652 18.3656C35.6655 18.05 35.6182 18.076 35.6117 18.505C35.6035 18.9428 35.5599 18.9653 35.3479 18.6371C35.2073 18.4194 35.0903 18.3541 35.0883 18.492C35.0864 18.6298 34.9419 18.6 34.7675 18.4259C34.5934 18.2518 34.1857 18.1091 33.8616 18.1091C33.4213 18.1091 33.2445 17.9256 33.1624 17.3833C33.0784 16.8289 33.0413 16.9068 33.0051 17.7132C32.9635 18.6343 32.9194 18.7034 32.6598 18.2553C32.4959 17.9727 32.2811 15.8351 32.1826 13.5048L32.0032 9.26792L31.9323 12.3029C31.8916 13.9722 31.7848 16.0505 31.6918 16.9214C31.5382 18.3583 31.4615 18.5125 30.863 18.5875C29.903 18.7078 29.3593 18.7 27.3013 18.5381C26.2301 18.4537 25.1496 18.5137 24.7286 18.6788C24.1794 18.8953 23.904 18.8827 23.5962 18.6274C23.3047 18.3857 23.1086 18.3706 22.9045 18.5748C22.5237 18.9557 21.3772 18.4411 21.3315 17.8687C21.3111 17.6379 21.2145 16.1429 21.1126 14.5462L20.9271 11.6432L20.8822 15.14C20.8354 18.7768 20.8496 18.7372 19.6501 18.6873C17.2233 18.5865 16.8798 18.5258 16.8798 18.1982C16.8798 18.0041 16.7612 17.8451 16.6161 17.8451C16.471 17.8451 16.3523 18.0164 16.3523 18.2255C16.3523 18.8139 15.9635 18.9219 15.0248 18.5945C14.3798 18.3695 14.0427 18.3703 13.6789 18.5983C13.0615 18.984 11.7974 18.9901 11.4166 18.6105C11.2327 18.427 10.6491 18.3806 9.84674 18.4862C8.60546 18.6493 8.04695 18.6672 6.26076 18.602C5.78914 18.5857 5.04711 18.6224 4.61177 18.6815C4.17648 18.7422 3.52347 18.6407 3.16068 18.4564C2.52186 18.1314 2.49659 18.0147 2.35711 14.7513L2.21323 11.382L2.15941 14.9931C2.10927 18.3419 2.06729 18.6162 1.58022 18.7708C1.29122 18.8626 0.935134 18.8638 0.788758 18.7727C0.642423 18.6822 0.522583 18.736 0.522583 18.8877C0.522583 19.0414 0.87884 19.167 1.3141 19.167H2.10561L2.15126 22.136L2.19691 25.1051L2.38034 22.0701C2.58944 18.6097 2.55398 18.823 2.88717 19.0289C3.33734 19.3074 5.58834 19.2446 5.7712 18.9486C5.89675 18.7455 6.24078 18.7627 6.95094 19.0069C7.76858 19.2882 8.21985 19.2899 9.3971 19.015C10.6598 18.7215 10.9357 18.7337 11.5989 19.1149C12.2343 19.4799 12.4993 19.4986 13.2352 19.2324C14.173 18.8931 16.101 19.0648 16.3946 19.5137C16.5047 19.6817 16.7052 19.6426 16.9402 19.4069C17.2063 19.1398 17.8116 19.0591 19.0748 19.1227L20.8377 19.2112L20.8879 22.5536L20.938 25.8959L21.086 22.729C21.1675 20.9871 21.3118 19.4433 21.4068 19.2981C21.5018 19.1529 22.0954 19.053 22.726 19.0767C23.3565 19.1012 25.6236 19.144 27.764 19.175C30.4233 19.2117 31.665 19.325 31.6856 19.5285C31.7019 19.6924 31.8005 21.3702 31.9049 23.2572L32.094 26.6881L32.1389 23.8904C32.1633 22.3517 32.3292 20.689 32.5073 20.1956L32.831 19.2985L33.0002 20.2222L33.1693 21.1459L33.2019 20.0566C33.2496 18.565 33.729 18.2147 34.6076 19.0296C34.9835 19.3778 35.3628 19.5909 35.4509 19.5028C35.5389 19.4147 35.6131 19.6296 35.6151 19.9803C35.6189 20.452 35.68 20.5222 35.8524 20.2498C36.0395 19.9538 36.1104 19.9798 36.2135 20.3819C36.3154 20.7798 36.348 20.7517 36.3721 20.2445C36.3884 19.8938 36.4915 19.6957 36.6008 19.8046C36.7096 19.9134 36.8653 23.9414 36.9473 28.7556L37.096 37.5089L37.149 29.1956C37.2028 20.717 37.4564 17.5424 37.7392 21.806L37.888 24.0492L37.9373 21.74C37.9659 20.4092 38.0983 19.4307 38.2504 19.4307C38.4061 19.4307 38.5145 20.3769 38.5149 21.74C38.5154 23.0101 38.6042 26.3057 38.7126 29.0636L38.9099 34.078L39.042 27.0178C39.1247 22.5835 39.2719 19.9546 39.4378 19.9494C39.5829 19.9453 39.7736 20.3904 39.862 20.9395C39.9892 21.731 40.0397 21.8012 40.1066 21.2783C40.1526 20.9155 40.2676 21.45 40.3613 22.466L40.5317 24.3134L40.5823 21.6742C40.6149 19.9739 40.718 19.1697 40.8725 19.4136C41.0482 19.6913 41.1375 19.551 41.2068 18.8857L41.3017 17.9794L41.6629 18.7001C41.8614 19.0964 42.2435 19.4905 42.5117 19.5756C42.9342 19.7098 43.0059 20.0539 43.0491 22.1538L43.0989 24.5772L43.2632 22.202C43.3797 20.5157 43.4596 21.9317 43.5387 27.0844L43.65 34.3421L43.725 27.4143C43.7686 23.3807 43.9023 20.4866 44.045 20.4866C44.1799 20.4866 44.3344 21.0507 44.3886 21.7402C44.475 22.8352 44.4938 22.7767 44.539 21.2783C44.6124 18.8349 44.7269 18.7204 46.57 19.245C48.0301 19.6604 48.0901 19.6573 48.5068 19.1426C48.9181 18.6344 48.981 18.6299 49.9598 19.0391C50.8002 19.3901 51.1199 19.4101 51.7497 19.1487C52.2474 18.9424 53.0455 18.8951 54.024 19.0142C55.4164 19.1834 57.3922 19.2062 60.0167 19.0839L61.0721 19.035L61.2192 21.5422L61.3664 24.0494L61.4169 21.7401C61.4634 19.6112 61.5095 19.4309 62.0036 19.4309C62.313 19.4309 62.6407 19.6821 62.7784 20.0247C62.9096 20.3513 63.0246 20.4826 63.0335 20.3166C63.0417 20.1507 63.3767 19.671 63.7758 19.251C64.6236 18.3586 65.4248 18.3824 65.4248 19.2999C65.4248 19.993 65.5756 19.9761 68.1486 18.9957C69.3554 18.5359 69.4347 18.5346 69.6788 18.9713C69.8459 19.2701 70.2552 19.4313 70.8464 19.4313C71.6933 19.4313 71.7582 19.4912 71.7776 20.289C71.798 21.1917 71.8644 21.1131 72.1477 19.8409C72.2814 19.2402 72.376 19.15 72.5625 19.445C72.7508 19.7427 72.8051 19.6958 72.8083 19.2334C72.8124 18.4615 73.8288 18.423 74.4686 19.1706C74.8416 19.6064 74.9333 20.3272 74.9804 23.1952L75.0379 26.6891L75.1206 23.2631C75.1663 21.3788 75.3187 19.722 75.4589 19.5815C75.6236 19.4168 75.7243 19.6492 75.7422 20.2364L75.7708 21.1469L76.1185 20.0912C76.4278 19.1527 76.4715 19.7528 76.513 25.5015C76.5375 29.1845 76.6504 31.6834 76.7707 31.3076C76.8868 30.9447 76.9957 28.0944 77.0124 24.9737C77.045 18.6393 77.5206 16.2073 77.6043 21.9387C77.6329 23.8257 77.6915 24.8351 77.7368 24.1819C78.142 18.3273 78.1004 18.5671 78.6337 19.05C78.9361 19.3236 79.3857 19.4472 79.7957 19.3685C80.4555 19.2425 80.4646 19.2637 80.4646 20.935C80.4646 21.9974 80.5628 22.5686 80.7283 22.4663C80.8734 22.3766 80.992 21.5345 80.992 20.5951C80.992 18.6944 81.4016 18.2121 82.3143 19.0382C82.7509 19.4334 82.9388 19.4539 83.6042 19.1781C84.0325 19.0007 84.5995 18.9229 84.8641 19.0052C85.8568 19.3143 88.4265 19.2539 88.6347 18.9171C88.7962 18.6562 88.9849 18.6786 89.5064 19.0203C90.0227 19.3587 90.4894 19.4162 91.5843 19.2768C92.361 19.1777 93.2118 18.9856 93.475 18.8499C93.788 18.6884 94.0757 18.7043 94.3069 18.8964C94.7826 19.2915 96.214 19.6877 96.4201 19.4816C96.5114 19.3907 97.1801 19.2916 97.9067 19.261C98.9106 19.2194 99.2669 19.3075 99.3902 19.6292C99.5301 19.9942 99.5802 19.9823 99.7518 19.544C99.932 19.0838 99.9528 19.0935 99.9695 19.6447C99.9776 19.9803 100.106 20.1809 100.252 20.091C100.412 19.9923 100.534 20.4282 100.562 21.1971L100.608 22.4662L100.697 21.2786C100.858 19.1378 100.982 18.852 101.602 19.1839C101.902 19.3446 102.433 19.4045 102.783 19.3169C103.414 19.1582 103.418 19.1693 103.472 21.4717L103.526 23.786L103.614 21.4767C103.701 19.1967 103.776 19.0315 104.671 19.1478C104.852 19.1722 105.001 19.0524 105.001 18.884C105.001 18.7152 105.416 18.8921 105.924 19.2815C106.44 19.675 106.847 19.8442 106.847 19.6648C106.847 19.4878 106.926 19.4218 107.021 19.5172C107.117 19.6126 107.349 19.5628 107.537 19.4067C108.162 18.8879 108.43 19.4434 108.481 21.3606L108.532 23.2584L108.62 21.543C108.728 19.4092 108.881 18.8839 109.232 19.4391C109.44 19.7682 109.478 19.7592 109.482 19.3812C109.486 18.6959 109.991 18.5379 110.552 19.0452C110.922 19.38 111.334 19.4652 112.095 19.3633L113.132 19.2238L113.383 21.3728L113.634 23.5218L113.67 21.5911C113.725 18.7123 114.334 17.952 115.504 19.2992C116.175 20.0704 116.489 20.1167 117.075 19.5308C117.47 19.1357 117.516 19.1398 117.671 19.5826C117.818 19.9998 117.863 19.9781 118.016 19.417C118.161 18.8842 118.238 18.8405 118.452 19.1671C118.671 19.501 118.712 19.4855 118.716 19.0688C118.719 18.6596 118.788 18.6311 119.115 18.9033C119.443 19.1752 119.515 19.1467 119.53 18.7377C119.546 18.2779 119.562 18.2802 119.775 18.7704C119.9 19.0607 120.01 19.6248 120.021 20.0239C120.041 20.7699 120.419 21.0064 120.656 20.4199C120.729 20.2384 120.815 21.0994 120.847 22.3332L120.904 24.5765L121.197 22.1109C121.358 20.7548 121.579 19.7354 121.688 19.8456C121.797 19.9557 121.886 19.8917 121.886 19.7029C121.886 19.5141 122.139 19.1406 122.448 18.8725C122.998 18.3956 123.027 18.3992 123.787 19.0397C124.605 19.7278 124.847 19.8115 125.148 19.5106C125.248 19.4099 125.506 19.3014 125.719 19.27C126.017 19.2264 126.119 19.5603 126.156 20.7072L126.205 22.2013L126.303 20.782C126.426 19.0019 126.899 18.4239 127.747 19.0178C128.071 19.2445 128.547 19.4303 128.805 19.4303C129.063 19.4303 129.274 19.6084 129.274 19.8262C129.274 20.0439 129.393 20.2221 129.537 20.2221C129.682 20.2221 129.801 20.0129 129.801 19.7578C129.801 19.0276 130.646 18.6237 131.25 19.0653C131.908 19.5467 133.083 19.5305 133.495 19.0327C133.894 18.5511 134.458 18.5187 134.64 18.9666C134.741 19.215 134.843 19.1987 135.054 18.9006C135.243 18.6323 135.335 18.6111 135.338 18.8345C135.34 19.016 135.63 19.1644 135.982 19.1644C136.335 19.1644 136.802 19.3434 137.021 19.5628C137.376 19.9179 137.497 19.8894 138.134 19.299C139.125 18.3807 139.759 18.4604 140.217 19.5603C140.384 19.9628 140.459 19.9942 140.534 19.6924C140.598 19.4315 141.011 19.2764 141.746 19.2374C142.359 19.2048 143.098 19.1587 143.388 19.135C143.679 19.1106 144.48 19.1065 145.169 19.1269L146.423 19.1636L146.459 21.2089L146.496 23.2542L146.697 21.3368C146.984 18.602 147.028 18.5249 147.997 19.0264C148.503 19.2882 149.146 19.384 149.783 19.2922C150.33 19.2135 151.042 19.1157 151.364 19.0749C151.687 19.0341 152.017 18.9355 152.097 18.8551C152.177 18.7748 152.651 18.9004 153.151 19.1344L154.058 19.5594L154.101 21.6707L154.145 23.782L154.44 21.5387C154.716 19.442 154.778 19.2894 155.395 19.2023C155.758 19.1509 156.127 18.9923 156.216 18.8492C156.499 18.3957 157.612 18.7436 157.931 19.385C158.1 19.7246 158.28 19.8796 158.333 19.7295C158.386 19.5795 159.052 19.4286 159.814 19.3948C160.955 19.3438 161.199 19.2484 161.199 18.8524C161.199 18.2039 161.64 18.2442 162.005 18.9262C162.262 19.4077 162.454 19.4575 163.465 19.3058C164.105 19.21 164.629 19.2332 164.629 19.3584C164.629 19.4836 164.926 19.5855 165.289 19.5855C165.651 19.5855 165.948 19.4905 165.948 19.3743C165.948 19.2581 166.571 19.1549 167.333 19.1447C168.095 19.1366 168.956 19.033 169.246 18.9193C169.581 18.788 169.992 18.8548 170.372 19.1028C170.86 19.422 171.173 19.4383 172.086 19.1937C173.617 18.7828 174.593 18.7655 175.88 19.126C176.481 19.2944 177.163 19.3592 177.397 19.2695C177.657 19.1696 177.822 19.2451 177.825 19.4648C177.828 19.7625 177.866 19.7633 178.052 19.4689C178.176 19.2748 178.678 19.0966 179.17 19.073L180.063 19.0302L180.218 20.4817L180.373 21.9332L180.416 20.6974C180.469 19.1693 180.772 19.0284 183.844 19.1041C185.053 19.1326 186.269 19.0364 186.548 18.8867C186.902 18.6975 187.223 18.7057 187.613 18.9153C188.593 19.4401 191 19.5201 191.524 19.0453C192.011 18.6043 192.511 18.6219 193.734 19.1228C194.142 19.2904 194.647 19.427 194.855 19.427C195.063 19.427 195.235 19.5754 195.238 19.7569C195.241 20.0068 195.29 20.0105 195.441 19.7732C195.551 19.6007 195.975 19.3989 196.383 19.3247C196.792 19.2505 197.302 19.0442 197.516 18.866C197.829 18.6063 198.065 18.636 198.711 19.0173C199.27 19.348 199.57 19.4034 199.696 19.1991C199.822 18.9969 200.145 18.9826 200.739 19.1531C201.236 19.2954 201.855 19.3039 202.199 19.1735C202.527 19.0483 203.736 19.0059 204.885 19.0789C208.351 19.299 209.579 19.2636 209.687 18.9394C209.828 18.5163 210.551 18.5598 210.903 19.0124C211.35 19.5877 212.523 19.6205 213.127 19.0748C213.546 18.6952 213.77 18.6537 214.19 18.8787C214.483 19.0352 215.68 19.1637 216.851 19.1637C218.698 19.1637 218.98 19.2244 218.987 19.6255C218.995 20.0375 219.038 20.0304 219.395 19.5595C219.746 19.0942 220.06 19.0392 222.038 19.0954C223.272 19.1321 224.521 19.287 224.813 19.4436C225.196 19.6487 225.443 19.6458 225.7 19.4313C225.918 19.2503 226.115 19.2336 226.211 19.3881C226.4 19.6943 227.421 19.4644 227.421 19.1154C227.421 18.9783 227.53 18.9339 227.663 19.0159C227.795 19.0978 227.964 19.0158 228.038 18.8336C228.111 18.6513 228.182 18.7398 228.196 19.0297C228.217 19.469 228.264 19.4911 228.477 19.1618C228.647 18.898 228.734 18.876 228.736 19.0958C228.738 19.2772 228.879 19.3959 229.049 19.3596C229.218 19.3229 229.513 19.5904 229.704 19.9534L230.052 20.6132L230.056 19.8874C230.059 19.2226 230.145 19.1617 231.071 19.1617C231.627 19.1617 232.17 19.2493 232.277 19.3562C232.546 19.6253 233.322 19.6065 233.526 19.3276C233.874 18.8477 234.281 19.4985 234.299 20.5646C234.316 21.4245 234.368 21.5532 234.545 21.1429C234.721 20.7332 234.783 20.8811 234.821 21.8026C234.934 24.4952 235.274 24.5794 235.353 21.9347L235.433 19.2956L235.6 21.4069L235.767 23.5182L235.816 21.8843C235.844 20.9857 235.983 20.1771 236.128 20.0874C236.278 19.9948 236.392 20.2166 236.392 20.5996C236.392 20.971 236.51 21.275 236.656 21.275C236.801 21.275 236.921 20.9484 236.923 20.5492C236.927 19.9205 237.374 18.7967 237.475 19.1636C237.496 19.2362 237.595 20.9583 237.697 22.9904L237.883 26.6852L237.929 22.808C237.957 20.5598 238.085 18.8623 238.239 18.7678C238.385 18.6773 238.504 18.8758 238.506 19.2141C238.51 19.6844 238.566 19.7365 238.751 19.4424C238.945 19.1358 239.123 19.1211 239.661 19.3666C240.079 19.557 240.389 19.5761 240.487 19.4175C240.573 19.2777 240.927 19.1635 241.273 19.1635C241.618 19.1635 241.968 19.0555 242.05 18.9229C242.219 18.6489 242.693 18.6807 243.205 19.0004C243.587 19.2389 245.626 19.3763 245.626 19.1635C245.625 19.0909 246.29 19.073 247.103 19.1227C247.917 19.1733 248.704 19.0901 248.855 18.9417C249.042 18.7537 249.245 18.7867 249.506 19.0477C249.715 19.2561 250.173 19.4265 250.526 19.4265C251.004 19.4265 251.176 19.5774 251.202 20.0203C251.239 20.6007 251.239 20.6013 251.349 20.0488C251.409 19.7373 251.665 19.2962 251.917 19.0684C252.295 18.7267 252.488 18.71 253.024 18.9746C253.596 19.2572 254.185 19.3318 254.596 19.1736C255.162 18.9558 256.443 19.0859 256.443 19.3616C256.443 19.7505 256.887 19.8068 257.014 19.4341C257.107 19.1642 258.169 19.09 261.456 19.1234C262.544 19.1357 266.966 19.1194 271.283 19.0867C276.375 19.05 279.134 19.1234 279.137 19.2947C279.14 19.4708 279.205 19.4708 279.334 19.2947C279.613 18.9147 282.625 18.9575 282.754 19.3432C282.833 19.5793 283.154 19.5666 284.068 19.2914C284.733 19.0912 285.616 18.995 286.03 19.0778C286.444 19.1605 286.936 19.1022 287.125 18.944C287.372 18.7389 287.758 18.7618 288.51 19.0252C289.565 19.3946 290.411 19.3444 291.433 18.8511C291.801 18.6737 292.165 18.6692 292.489 18.8388C293.228 19.2217 304.523 19.2258 304.759 18.8426C304.898 18.6191 305.042 18.6155 305.299 18.8303C305.547 19.0354 309.289 19.1121 317.899 19.088C327.302 19.0636 330.172 19.1288 330.254 19.3743C330.313 19.5508 330.469 19.6283 330.601 19.5467C331.357 19.0789 333.459 18.7704 334.537 18.9687C335.19 19.089 336.615 19.1204 337.703 19.0393C340.019 18.8664 340.141 18.8668 342.662 19.0597C343.934 19.1571 344.712 19.1041 344.954 18.9031C345.224 18.6796 345.464 18.6756 345.862 18.8868C346.501 19.2285 349.052 19.3533 349.517 19.0658C349.694 18.9561 349.958 18.9398 350.103 19.0291C350.249 19.1188 350.367 19.0617 350.367 18.9035C350.367 18.7118 350.523 18.6964 350.829 18.8574C351.083 18.9907 354.234 19.0841 357.832 19.0645L364.373 19.0279L364.522 19.6216C364.604 19.9483 364.777 20.2154 364.907 20.2154C365.036 20.2154 365.161 21.0765 365.184 22.1288C365.224 23.9947 365.23 24.0095 365.406 22.7226L365.587 21.4031L365.673 23.2505L365.759 25.0979L365.912 23.5144C366.058 22.0102 366.076 22.075 366.264 24.8091C366.373 26.392 366.486 29.9548 366.515 32.7264C366.562 37.1113 366.591 36.7032 366.735 29.5844C366.826 25.0847 366.994 21.1358 367.108 20.8092L367.108 20.823Z" fill="black"/>
</svg>
