<svg width="464" height="39" viewBox="0 0 464 39" fill="none" xmlns="http://www.w3.org/2000/svg">
<path d="M122.371 36.5772C122.408 37.9164 122.49 38.1904 122.812 38.0664C123.141 37.9404 123.211 37.1712 123.227 33.5222C123.239 30.8228 123.333 29.3333 123.472 29.6577C123.597 29.948 123.707 30.7323 123.717 31.4004C123.725 32.0686 123.825 33.375 123.934 34.3035L124.131 35.9917L124.32 33.2206C124.698 27.6492 124.927 25.3418 125.121 25.1487C125.23 25.0402 125.343 26.604 125.373 28.6241L125.427 32.2969L125.571 28.734L125.714 25.1712L126.05 27.0186C126.234 28.0347 126.422 29.4004 126.465 30.0536C126.509 30.7068 126.574 29.6972 126.608 27.8103C126.652 25.4486 126.746 24.5645 126.91 24.9732C127.322 25.998 127.693 25.6287 127.693 24.1947C127.693 23.3026 127.783 22.9125 127.951 23.0799C128.092 23.2214 128.296 25.8877 128.404 29.0047C128.616 35.1103 128.786 34.949 129.246 28.2062C129.426 25.5711 129.459 25.4213 129.497 27.069C129.569 30.2409 129.996 29.4719 130.222 25.7625C130.356 23.5598 130.491 22.6096 130.589 23.1918L130.743 24.1155L130.933 23.2248C131.038 22.7349 131.123 21.9403 131.123 21.459C131.123 20.4458 131.572 19.9925 131.698 20.8787C131.806 21.6394 132.285 21.6575 132.392 20.9031C132.473 20.3325 133.234 19.7974 133.234 20.3109C133.234 20.4601 133.352 20.5091 133.496 20.4202C133.975 20.1241 136.12 20.107 136.24 20.3998C136.305 20.5564 136.368 20.4622 136.379 20.1906C136.396 19.7886 136.472 19.7558 136.784 20.0153C136.996 20.1906 137.308 20.2477 137.479 20.1421C137.993 19.8245 141.123 19.6165 143.128 19.767C144.017 19.8338 148.92 19.8518 152.89 19.8037C153.47 19.7955 155.393 19.7914 157.163 19.7914C158.937 19.7924 160.616 19.6675 160.905 19.5129C161.278 19.3131 161.645 19.3164 162.173 19.5252C163.214 19.9333 168.141 19.8803 168.824 19.4538C169.252 19.1867 169.434 19.1835 169.689 19.4375C169.867 19.6153 170.345 19.7609 170.751 19.7609H171.49L171.552 29.0638L171.615 38.3667L171.687 29.0488L171.76 19.7309L173.142 19.7513C173.902 19.7635 176.423 19.7799 178.745 19.788C181.066 19.7962 183.263 19.8125 183.626 19.8206C183.988 19.8288 184.701 19.8166 185.209 19.788C188.404 19.6168 195.498 19.7882 195.498 20.0367C195.498 20.1994 195.637 20.228 195.828 20.1044C196.009 19.987 196.751 19.8598 197.477 19.8214C198.202 19.7847 199.033 19.7399 199.324 19.7248C199.614 19.7085 200.46 19.7774 201.203 19.8744C202.285 20.0159 202.644 19.9621 203.001 19.6057C203.355 19.251 203.565 19.2192 204.023 19.4488C204.381 19.6278 207.593 19.7913 212.492 19.8788C216.832 19.9567 220.419 20.0557 220.462 20.0994C220.506 20.143 220.635 24.0329 220.75 28.744C220.904 35.1011 220.996 36.5951 221.104 34.5384C221.191 32.8975 221.272 32.3594 221.304 33.2189C221.333 34.0172 221.434 35.4781 221.527 36.4652C221.827 39.6436 222.228 37.9938 222.483 32.5332C222.616 29.6831 222.879 26.8604 223.068 26.2604L223.412 25.1695L223.457 26.621C223.489 27.6912 223.561 27.9339 223.728 27.5447C223.866 27.2255 223.97 29.2594 223.992 32.6911C224.016 36.1227 224.119 38.1566 224.256 37.8374C224.38 37.5471 224.492 35.5281 224.503 33.3508C224.515 31.1736 224.612 28.7389 224.72 27.9406L224.915 26.4891L225.066 28.4684L225.216 30.4478L225.292 28.4684L225.369 26.4891L225.68 28.0726L225.991 29.6561L226.169 26.3604C226.27 24.4784 226.464 23.0256 226.62 22.9735C226.771 22.9234 226.894 22.5359 226.894 22.1125C226.894 21.6891 227.013 21.3428 227.158 21.3428C227.303 21.3428 227.423 22.0256 227.425 22.8603C227.434 25.3229 227.854 25.3507 228.067 22.9027C228.237 20.9544 228.339 20.6445 229.028 20.0017C229.676 19.3958 229.833 19.3453 230.022 19.6828C230.168 19.9438 230.605 20.0734 231.274 20.0538C231.84 20.0375 233.562 20.0335 235.103 20.0457C237.42 20.062 237.93 19.9935 238.062 19.6494C238.252 19.1537 238.994 19.0964 239.174 19.5633C239.267 19.8047 240.062 19.8757 242.134 19.8284C243.692 19.7917 245.382 19.755 245.89 19.744C246.398 19.7317 247.347 19.7562 248 19.7941C248.653 19.8308 250.731 19.8308 252.617 19.786C256.398 19.7007 256.962 19.8104 256.989 20.6465C257.005 21.1356 257.033 21.1488 257.193 20.7444C257.294 20.4875 257.75 20.0503 258.205 19.7733C258.961 19.3136 259.139 19.3014 260.243 19.6338C261.059 19.8793 262.076 19.9466 263.367 19.8393C264.42 19.7521 265.697 19.6946 266.205 19.7109C267.102 19.7394 271.598 19.7313 273.196 19.6987C273.632 19.6905 274.463 19.7068 275.043 19.7415C277.976 19.907 283.727 19.7454 283.883 19.4936C283.998 19.308 284.31 19.3509 284.826 19.622C285.307 19.8752 285.889 19.9653 286.374 19.8614C287.013 19.7248 292.196 19.7011 296.282 19.8161C296.79 19.8324 298.096 19.8201 299.184 19.7916C300.272 19.7631 301.581 19.7712 302.091 19.8039C302.602 19.8365 303.225 19.7835 303.476 19.6881C303.867 19.5384 303.939 19.6921 303.973 20.7581L304.013 22.0034L304.172 20.8158C304.288 19.9436 304.435 19.6526 304.726 19.72C304.943 19.7706 305.982 19.8134 307.034 19.8154C308.616 19.8184 308.947 19.8925 308.947 20.2442C308.947 20.5622 309.052 20.5186 309.366 20.0704C309.906 19.2994 310.512 19.7247 310.569 20.9144C310.606 21.7121 310.613 21.7155 310.719 21.0139C310.779 20.6147 311.043 20.1733 311.305 20.0331C311.76 19.7896 312.125 19.7611 315.147 19.7358C315.873 19.7317 317.119 19.695 317.917 19.6592C318.715 19.6225 319.662 19.6673 320.02 19.7599C320.379 19.8512 321.314 19.8251 322.099 19.7024C323.011 19.5593 323.834 19.5801 324.378 19.7595C324.89 19.9287 325.48 19.9503 325.86 19.8141C326.208 19.6897 327.412 19.6396 328.537 19.7032C330.4 19.8084 330.584 19.8687 330.617 20.3836C330.65 20.9061 330.662 20.9022 330.77 20.3314C330.87 19.8077 330.994 19.7419 331.592 19.897C331.979 19.9973 332.474 20.1078 332.692 20.142C332.988 20.1889 333.121 20.6964 333.22 22.1599C333.341 23.9565 333.367 24.0295 333.546 23.0596C333.654 22.479 333.743 21.3659 333.744 20.5861C333.748 19.3558 333.8 19.2117 334.143 19.4968C334.37 19.6855 334.539 20.2609 334.539 20.8486C334.539 21.4115 334.657 21.872 334.802 21.872C334.947 21.872 335.066 21.5156 335.066 21.0802C335.066 20.2064 335.748 19.9595 336.042 20.7267C336.185 21.0998 336.242 21.079 336.425 20.5852C336.59 20.1364 336.804 20.0293 337.37 20.1113C337.771 20.1696 338.219 20.1317 338.364 20.0244C338.98 19.574 340.074 19.5852 340.57 20.0489C340.849 20.3094 341.15 20.4505 341.238 20.3624C341.326 20.2744 341.398 20.7637 341.398 21.4496C341.398 22.2138 341.5 22.6336 341.662 22.5336C341.807 22.4439 341.926 22.1907 341.926 21.9714C341.926 21.4215 342.568 20.8268 342.924 21.0469C343.085 21.1464 343.259 21.9966 343.312 22.9363C343.398 24.4828 343.412 24.4258 343.458 22.3357C343.486 21.0656 343.617 20.0264 343.751 20.0264C343.884 20.0264 344.181 19.9542 344.41 19.8662C344.785 19.7222 344.833 20.6263 344.878 28.7733L344.928 37.8405L345.104 30.0551C345.201 25.7731 345.298 21.8114 345.318 21.2514C345.355 20.3031 345.4 20.2444 346.015 20.3986C346.458 20.51 346.676 20.4545 346.678 20.2294C346.682 19.9995 346.763 20.0186 346.938 20.2902C347.156 20.6286 347.194 20.6188 347.198 20.2241C347.201 19.9701 347.32 19.7623 347.465 19.7623C347.611 19.7623 347.751 20.3264 347.777 21.0159L347.825 22.2695L347.924 21.0018C348.034 19.603 348.618 19.0805 349.193 19.8672C349.409 20.1615 349.588 20.2219 349.701 20.0376C349.798 19.8814 349.987 19.8219 350.122 19.9055C350.258 19.9891 350.368 19.85 350.368 19.5964C350.368 19.2241 350.52 19.2812 351.16 19.8941L351.951 20.6526L351.999 28.9825L352.046 37.3124L352.202 28.8092C352.293 23.8182 352.464 20.2022 352.616 20.0546C353.037 19.645 354.853 19.3914 354.853 19.7423C354.853 20.128 357.018 19.9466 358.229 19.4593C358.936 19.1747 359.137 19.1727 359.308 19.4512C359.445 19.6738 360.056 19.7786 361.077 19.7549C363.171 19.7064 363.629 19.7076 365.934 19.7672C367.022 19.7957 368.293 19.7468 368.758 19.6575C369.317 19.5511 369.72 19.6208 369.945 19.8626C370.191 20.126 370.466 20.1606 370.925 19.9861C371.379 19.8137 371.625 19.8418 371.778 20.0836C371.953 20.3596 371.995 20.3584 371.998 20.0795C372.002 19.8895 372.113 19.8022 372.248 19.8858C372.383 19.9694 372.576 19.9062 372.676 19.7411C372.795 19.5486 373.08 19.7003 373.486 20.1737C374.094 20.8812 374.114 21.0534 374.162 25.9422L374.211 30.9815L374.388 25.4393C374.486 22.3911 374.583 19.8675 374.603 19.8312C374.749 19.5702 375.174 19.8516 375.199 20.2271C375.215 20.4811 375.321 20.3327 375.432 19.8972L375.633 19.1055L375.685 19.8972L375.738 20.689L376.002 19.9635C376.251 19.284 376.303 19.2632 376.832 19.6337C377.142 19.8514 377.667 20.0292 377.997 20.0292C378.328 20.0292 378.598 20.1531 378.598 20.3048C378.598 20.651 379.433 20.5258 379.785 20.1266C380.11 19.7593 382.859 19.4351 383.75 19.6589C384.329 19.8045 384.408 19.9745 384.45 21.1796L384.498 22.5365L384.594 21.3362C384.679 20.2893 384.79 20.0984 385.466 19.8433C385.904 19.6777 386.928 19.6133 387.823 19.6945C388.897 19.7919 389.535 19.7312 389.806 19.5057C390.026 19.3226 390.207 19.2806 390.207 19.4115C390.207 19.5428 390.556 19.7813 390.982 19.9424C391.591 20.1723 391.915 20.1515 392.499 19.8453C393.016 19.5738 393.601 19.5085 394.428 19.6309C395.081 19.7271 395.972 19.8025 396.407 19.7976C396.842 19.7935 397.792 19.7935 398.518 19.7955C401.6 19.8119 401.841 19.7833 402.135 19.3701C402.254 19.2042 402.659 19.2873 403.232 19.596C403.942 19.9789 404.427 20.046 405.455 19.9047C406.54 19.7554 412.153 19.7012 414.743 19.815C415.106 19.8313 415.819 19.8231 416.327 19.8027C417.712 19.7395 418.173 19.8231 418.177 20.1399C418.18 20.2973 418.283 20.2647 418.408 20.0678C418.566 19.8182 418.69 19.7982 418.815 20.0017C418.914 20.1623 419.226 20.2936 419.508 20.2936C419.855 20.2936 420.029 20.4849 420.047 20.8874C420.067 21.3845 420.116 21.3505 420.333 20.6783C420.547 20.0149 420.795 19.8282 421.761 19.6041C422.403 19.4549 422.992 19.3962 423.07 19.4737C423.147 19.5511 423.709 19.8019 424.319 20.0317C425.239 20.3779 425.541 20.3922 426.088 20.1145L426.748 19.7797L426.9 21.4221L427.052 23.0646L427.102 21.745C427.13 21.0192 427.222 20.1582 427.31 19.8316C427.493 19.1467 428.137 19.0517 428.571 19.6457C428.868 20.0526 429.568 20.1962 430.304 20.0012C430.554 19.9348 430.728 20.1305 430.791 20.5493L430.889 21.2006L431.25 20.5493L431.61 19.8979L431.622 20.5577C431.63 21.0092 431.705 21.109 431.853 20.8737C432.108 20.4725 432.415 27.0124 432.422 32.9615C432.43 38.9482 432.791 39.2172 432.955 33.3574L433.096 28.3431L433.153 33.2915C433.199 37.2761 433.281 38.2399 433.571 38.2399C434.093 38.2399 434.253 36.8647 434.309 31.9059L434.359 27.5513L434.513 32.7444C434.655 37.549 434.792 38.5933 435.22 38.1643C435.311 38.0742 435.492 36.1841 435.623 33.9637C435.755 31.7433 435.953 29.0952 436.064 28.0791L436.265 26.2317L436.454 27.6833C436.557 28.4816 436.681 29.6099 436.728 30.1905C436.776 30.7711 436.838 30.2961 436.867 29.1348C436.954 25.6432 437.407 27.4042 437.694 32.3486C438.004 37.6971 437.997 37.6452 438.223 35.9966L438.404 34.677L438.445 36.3421C438.47 37.3755 438.587 37.9452 438.751 37.844C438.912 37.7441 439.016 35.6154 439.018 32.3522C439.021 28.8142 439.109 27.1566 439.278 27.4194C439.419 27.6371 439.557 30.1311 439.585 32.9616L439.637 38.1079L439.827 31.9059C439.932 28.4948 440.143 25.0508 440.296 24.2524C440.943 20.881 441.002 20.695 441.459 20.6071C441.799 20.5414 441.926 20.7098 441.956 21.264L441.997 22.0092L442.105 21.3027C442.164 20.9141 442.396 20.4444 442.619 20.2589C443.183 19.7906 444.359 19.8069 444.749 20.2875C445.037 20.6434 445.103 20.6439 445.338 20.2916C445.562 19.9572 445.604 19.9548 445.607 20.2753C445.61 20.548 445.721 20.5105 445.998 20.1431C446.381 19.6376 446.386 19.6378 446.415 20.1595C446.431 20.4498 446.504 20.5387 446.577 20.3572C446.65 20.1758 446.997 20.0273 447.348 20.0273C447.698 20.0273 447.989 20.1758 447.994 20.3572C447.998 20.5868 448.1 20.5668 448.323 20.2908C448.58 19.9748 449.418 19.8875 452.47 19.8593C454.574 19.8389 456.949 19.8136 457.747 19.801C458.545 19.7887 460.176 19.804 461.371 19.8377L463.544 19.8964L463.617 29.1334C463.658 34.2137 463.69 29.8195 463.69 19.3686C463.69 8.91759 463.657 4.5531 463.617 9.66976L463.544 18.9727H462.508C461.938 18.9727 461.398 19.0917 461.308 19.2373C461.199 19.4134 460.973 19.4102 460.632 19.2292C460.201 18.9984 458.783 18.9205 456.032 18.9763C455.742 18.9804 454.257 18.9743 452.734 18.96C451.21 18.9437 449.658 18.9356 449.284 18.9397C448.788 18.9437 448.528 18.7537 448.323 18.2347C448.06 17.5718 448.039 17.5638 448.013 18.1169C447.997 18.4435 447.896 18.7207 447.787 18.733C445.547 18.9854 445.347 18.9699 445.347 18.5406C445.347 18.1536 445.292 18.1463 444.885 18.4802C444.631 18.6886 444.009 18.8557 443.502 18.8508C442.689 18.8427 442.544 18.7342 442.264 17.9187C441.954 17.0161 441.946 17.0121 441.932 17.743C441.911 18.7751 441.381 18.5185 440.947 17.2668C440.228 15.189 439.978 12.8823 439.815 6.83454L439.648 0.632554L439.595 6.12434C439.562 9.70543 439.451 11.5594 439.279 11.453C439.125 11.358 439.004 9.72733 438.989 7.54472C438.977 5.48488 438.873 3.14634 438.762 2.34802C438.591 1.11211 438.556 1.34737 438.523 3.93149C438.502 5.60075 438.395 7.79784 438.287 8.8139C438.105 10.5343 438.081 10.3982 437.948 6.83454L437.805 3.00779L437.746 8.28608C437.705 11.8102 437.602 13.4328 437.431 13.1685C437.242 12.8749 437.17 13.0453 437.153 13.8282C437.137 14.6615 437.083 14.7727 436.903 14.3561C436.779 14.0658 436.656 13.472 436.632 13.0365C436.588 12.2555 436.584 12.2537 436.376 12.9044C436.238 13.3347 436.155 12.6288 436.138 10.8746C436.122 9.39539 435.993 8.11169 435.848 8.02198C435.703 7.93228 435.577 6.70798 435.569 5.3013C435.561 3.89463 435.461 2.26867 435.346 1.68809L435.139 0.632391L434.834 1.37534C434.666 1.78395 434.512 3.09035 434.492 4.2784L434.455 6.4385L434.245 3.70613C434.052 1.18195 433.909 0.501749 433.631 0.786354C433.572 0.8467 433.412 2.38084 433.274 4.19526L433.024 7.49416L432.984 4.27681C432.963 2.46096 432.83 0.988391 432.681 0.896322C432.508 0.789901 432.417 2.4553 432.416 5.69719C432.416 12.0955 432.134 18.2018 431.849 18.0256C431.726 17.9498 431.622 18.1618 431.617 18.497C431.609 19.053 431.585 19.0643 431.33 18.6263C431.072 18.1818 431.027 18.1787 430.73 18.5851C430.391 19.0488 429.675 19.1189 428.259 18.8273C427.347 18.6393 427.225 18.4005 427.057 16.4675C426.994 15.74 426.951 15.923 426.921 17.0563C426.88 18.5739 426.825 18.7135 426.217 18.8663C425.854 18.9573 425.557 19.197 425.557 19.3992C425.557 19.8439 425.115 19.8891 424.971 19.4591C424.852 19.1003 423.869 18.9285 421.929 18.9275C420.722 18.927 420.527 18.8529 420.422 18.3571C420.355 18.0435 420.251 17.5497 420.189 17.2594C420.128 16.9691 420.062 17.2068 420.043 17.7872C419.997 19.1949 419.654 19.7282 419.041 19.3458C418.786 19.1867 418.498 18.7712 418.4 18.4221C418.238 17.8421 418.22 17.8357 418.196 18.3483C418.172 18.8316 417.96 18.9326 416.653 19.0767C415.818 19.1689 415.017 19.2374 414.872 19.2296C411.408 19.0376 406.687 19.0771 405.71 19.3067C404.755 19.531 404.321 19.5228 403.851 19.27C403.029 18.8302 400.532 18.8721 400.197 19.3312C400.106 19.4551 399.788 19.4254 399.489 19.2651C398.787 18.8892 397.975 18.8965 396.894 19.2855C396.242 19.5212 395.877 19.5248 395.424 19.2977C394.525 18.8509 392.314 18.7576 392.314 19.1664C392.314 19.6161 391.4 19.5849 390.469 19.1032C390.049 18.8859 389.643 18.8109 389.565 18.9361C389.488 19.0612 388.66 19.1151 387.726 19.0559C386.714 18.9915 385.958 19.0589 385.857 19.2231C385.764 19.3744 385.457 19.4983 385.175 19.4983C384.747 19.4983 384.656 19.2937 384.617 18.2447C384.572 17.0131 384.569 17.0096 384.473 18.047L384.374 19.1026H382.132C379.965 19.1026 379.885 19.0822 379.726 18.4475C379.567 17.8118 379.552 17.8196 379.23 18.7113C379.048 19.2168 378.888 19.4522 378.874 19.2345C378.858 18.9821 378.78 18.9413 378.656 19.122C378.223 19.7545 377.589 19.7011 376.782 18.9637C376.328 18.5484 375.944 18.0535 375.93 17.8638C375.913 17.6742 375.808 17.8161 375.692 18.179L375.481 18.8388L375.428 18.179L375.376 17.5192L375.197 18.1594C375.099 18.5117 374.873 18.848 374.695 18.9072C374.452 18.9883 374.36 17.9646 374.32 14.7041L374.266 10.3935L374.122 14.793C374.042 17.2127 373.9 19.2695 373.805 19.3637C373.549 19.619 372.531 18.905 372.496 18.4454C372.475 18.1893 372.419 18.226 372.337 18.5473C372.234 18.9494 372.163 18.9751 371.976 18.6794C371.786 18.3797 371.742 18.3916 371.739 18.7447C371.735 19.3578 371.034 19.5516 370.555 19.0729C370.333 18.8511 370.151 18.7928 370.151 18.9441C370.151 19.2666 369.315 19.0052 369.034 18.5946C368.906 18.4075 368.839 18.4046 368.837 18.5865C368.833 18.7369 368.625 18.8837 368.371 18.9122C367.738 18.9836 367.195 19.1226 366.7 19.3396C366.29 19.5198 365.178 19.4232 363.752 19.0835C363.32 18.9807 362.868 19.0403 362.639 19.2311C362.235 19.5663 359.598 19.3665 359.598 19.0007C359.598 18.7536 357.698 18.9722 357.336 19.2613C356.978 19.5471 355.113 19.4904 355.113 19.1936C355.113 19.0721 354.84 18.9726 354.506 18.9726C354.173 18.9726 353.757 18.8299 353.583 18.6558C353.337 18.4095 353.266 18.4095 353.266 18.6558C353.266 18.918 352.575 19.1255 352.431 18.9065C352.407 18.8698 352.313 14.8621 352.221 9.99946L352.053 1.15834L352 10.0499C351.963 15.8865 351.853 18.9999 351.672 19.1116C351.52 19.2054 351.111 19.0953 350.762 18.8662C350.413 18.6374 350.07 18.5433 350.001 18.6562C349.931 18.7695 349.45 18.8906 348.931 18.9253C348.037 18.9856 347.987 18.9457 347.947 18.1228L347.905 17.2568L347.799 18.1145C347.734 18.6348 347.543 18.9722 347.313 18.9722C347.105 18.9722 346.934 19.1137 346.934 19.2866C346.934 19.4595 346.76 19.3706 346.547 19.0889C346.196 18.6253 346.159 18.6205 346.151 19.0383C346.139 19.703 345.652 19.6075 345.478 18.9062C345.397 18.5796 345.235 14.987 345.118 10.9228L344.906 3.53316L344.865 11.1207C344.84 15.9756 344.729 18.7082 344.56 18.7082C344.415 18.7082 344.296 18.5749 344.296 18.4122C344.296 18.2075 344.174 18.2177 343.9 18.4448C343.554 18.7323 343.499 18.4815 343.457 16.4318L343.409 14.0902L343.259 16.0671C343.142 17.6073 343.014 18.062 342.679 18.1256C342.371 18.1843 342.199 17.9426 342.073 17.2704C341.82 15.9184 341.394 16.1186 341.394 17.5897V18.846L339.481 18.8421C338.429 18.84 337.483 18.9575 337.38 19.103C337.263 19.2686 337.022 19.1989 336.741 18.9179C336.316 18.4932 336.271 18.4932 335.949 18.9179C335.667 19.2886 335.604 19.2983 335.594 18.9726C335.582 18.6207 335.553 18.6207 335.326 18.9726C335.139 19.2621 335.069 19.0627 335.066 18.2312C335.062 17.5411 334.958 17.1581 334.798 17.2571C334.653 17.3468 334.534 17.7658 334.534 18.1881C334.534 18.7622 334.435 18.9176 334.139 18.8041C333.861 18.6977 333.737 18.2451 333.724 17.2949C333.696 15.1368 333.256 14.5464 333.234 16.635C333.222 17.9375 333.114 18.4273 332.819 18.5401C332.602 18.6237 332.424 18.8741 332.424 19.0962C332.424 19.6614 331.838 19.5996 331.154 18.9621C330.837 18.6661 330.576 18.5177 330.575 18.6322C330.575 18.7468 330.277 18.9776 329.915 19.1455C329.554 19.3135 329.258 19.3636 329.258 19.2576C329.258 19.1516 328.456 19.101 327.477 19.1451C326.497 19.1895 325.34 19.2168 324.904 19.2062C323.465 19.1695 322.28 19.1736 321.211 19.2144C320.63 19.2389 318.493 19.2348 316.462 19.2062C314.43 19.1777 312.396 19.2389 311.94 19.3416C311.153 19.5194 311.1 19.4798 310.846 18.5241L310.58 17.52L310.552 18.542C310.527 19.4054 310.465 19.5145 310.14 19.245C309.929 19.0697 309.632 19.0028 309.481 19.0962C309.316 19.1977 309.194 18.9682 309.179 18.5251C309.154 17.7842 309.154 17.7841 308.969 18.4436C308.817 18.9868 308.636 19.0949 307.94 19.0557C307.475 19.0313 307.095 19.1312 307.095 19.282C307.095 19.4415 306.902 19.4741 306.633 19.3599C306.379 19.2523 305.756 19.0896 305.248 18.9987C304.366 18.8409 304.317 18.7736 304.168 17.5168L304.011 16.2004L303.97 17.5916C303.915 19.4411 303.345 19.7497 301.052 19.1718C300.18 18.952 299.402 18.8371 299.323 18.9158C299.244 18.9949 298.645 19.0536 297.992 19.0462C297.339 19.0381 296.805 19.138 296.805 19.266C296.805 19.5657 295.825 19.5706 295.64 19.2701C295.476 19.0046 289.926 19.0507 289.489 19.3211C289.327 19.4218 288.895 19.3679 288.529 19.2016C288.03 18.9741 287.568 18.9741 286.665 19.2016C285.744 19.4336 285.345 19.4299 284.955 19.1853C284.578 18.9496 284.209 18.9402 283.53 19.1486C283.026 19.3031 282.471 19.3414 282.296 19.2334C282.122 19.1253 280.654 19.0862 279.036 19.1461C274.864 19.3007 274.89 19.3011 273.666 19.0915C273.056 18.9871 272.344 18.9941 272.083 19.1078C271.29 19.4503 270.85 19.4793 270.526 19.2101C270.254 18.9838 269.501 18.9406 266.332 18.9675C265.897 18.9715 265.203 19.1107 264.791 19.2774C264.191 19.52 263.996 19.5078 263.816 19.2163C263.633 18.9202 263.379 18.9084 262.464 19.1527C261.754 19.3423 261.169 19.3639 260.884 19.211C260.277 18.8864 258.358 18.9011 258.153 19.2314C257.893 19.6532 257.596 19.54 257.288 18.9015L257.002 18.3077L256.982 18.9297C256.965 19.4285 256.872 19.5078 256.502 19.3297C256.081 19.1271 253.361 19.0508 252.083 19.2054C251.793 19.2421 251.327 19.2217 251.048 19.1622C250.769 19.1034 250.076 19.1418 249.508 19.2437C248.548 19.4194 247.451 19.2192 246.344 18.6659C246.09 18.539 245.883 18.5309 245.883 18.6495C245.883 19.1487 244.115 19.4979 242.826 19.2535C242.113 19.1181 240.777 18.9705 239.857 18.9248C238.937 18.8792 238.119 18.7357 238.038 18.6056C237.958 18.4755 237.736 18.6525 237.544 18.9987C237.352 19.3448 237.191 19.4915 237.185 19.3244C237.181 19.1487 236.759 19.0268 236.187 19.0345C235.643 19.0427 234.5 18.9933 233.648 18.9269C232.48 18.8356 231.999 18.9065 231.691 19.2148C231.386 19.5202 231.254 19.5401 231.173 19.2943C231.112 19.1132 230.963 19.0268 230.84 19.1026C230.718 19.1785 230.548 19.0207 230.463 18.7524C230.265 18.1281 228.733 18.0546 228.733 18.6692C228.733 18.9265 228.641 18.9819 228.481 18.8217C228.342 18.6831 228.14 17.5606 228.032 16.3277C227.924 15.0948 227.808 14.2643 227.774 14.482C227.741 14.6997 227.637 15.4443 227.546 16.1365C227.356 17.5792 226.904 17.5658 226.852 16.1161L226.815 15.1421L226.621 16.0658C226.47 16.7809 226.417 16.5126 226.386 14.8782C226.366 13.7169 226.217 11.9355 226.059 10.9194C225.9 9.90334 225.682 8.3001 225.574 7.35658L225.377 5.64116L225.331 7.62051C225.294 9.25336 225.233 9.50821 224.982 9.07632C224.813 8.78438 224.628 6.9733 224.563 4.98563C224.362 -1.24845 223.999 0.29486 223.991 7.42259C223.987 11.4129 223.882 14.2183 223.738 14.2183C223.603 14.2183 223.439 14.4263 223.373 14.6802C223.29 14.9962 223.241 14.9338 223.217 14.4824C223.196 14.1196 223.059 12.7538 222.91 11.4474C222.761 10.1411 222.548 7.34475 222.436 5.23346C222.232 1.36576 221.977 0.159 221.581 1.17228C221.471 1.45281 221.351 2.69207 221.314 3.92586L221.247 6.16915L221.096 4.05785C220.996 2.65391 220.869 4.75138 220.717 10.3183C220.515 17.6975 220.437 18.7054 220.059 18.8198C219.349 19.0343 204.371 19.0714 203.773 18.8606C203.423 18.737 203.082 18.7982 202.849 19.0265C202.499 19.3703 202.119 19.3821 199.182 19.1411C198.674 19.0995 198.101 19.1847 197.909 19.3303C197.694 19.493 197.49 19.4999 197.381 19.3466C197.283 19.2108 196.966 19.0588 196.676 19.0086C196.385 18.9585 196 18.7953 195.818 18.6465C195.608 18.4736 195.489 18.47 195.489 18.6343C195.489 18.859 192.419 19.2961 191.267 19.2352C187.551 19.0387 184.897 19.0517 184.199 19.2719C183.621 19.453 183.225 19.4554 183.012 19.2801C182.499 18.8565 180.552 18.8188 180.065 19.223C179.698 19.5276 179.291 19.5312 177.538 19.2475C176.389 19.0607 175.253 18.9832 175.014 19.075C174.775 19.1667 174.416 19.1076 174.217 18.9412C173.952 18.7211 173.854 18.7198 173.854 18.9372C173.854 19.1068 173.404 19.2336 172.802 19.2336H171.75L171.678 9.79868L171.605 0.36377L171.542 9.93063C171.484 18.8458 171.448 19.4969 171.018 19.4891C170.764 19.485 170.34 19.317 170.076 19.1168C169.73 18.8538 169.369 18.8184 168.775 18.9888C167.861 19.251 165.502 19.295 160.857 19.1364C159.15 19.0781 157.694 19.1282 157.622 19.2444C157.549 19.3623 157.106 19.3484 156.637 19.2159C155.51 18.8926 153.612 18.904 153.407 19.2363C153.191 19.5857 152.034 19.5751 151.815 19.22C151.627 18.9158 146.594 18.9611 146.092 19.2718C145.931 19.3708 145.543 19.3541 145.228 19.2351C144.914 19.1156 144.505 19.1115 144.319 19.2269C144.133 19.3419 143.431 19.2913 142.758 19.1152C141.48 18.78 139.655 18.8616 139.406 19.2648C139.146 19.6859 138.441 19.5123 137.859 18.8844C137.352 18.3367 137.248 18.3133 136.914 18.6712C136.581 19.0275 136.518 19.0002 136.359 18.4285C136.209 17.8929 136.174 17.8732 136.148 18.3119C136.124 18.7054 136.061 18.7502 135.895 18.4877C135.726 18.2214 135.635 18.2748 135.523 18.7054C135.403 19.163 135.279 19.2245 134.892 19.0177C134.404 18.7564 134.226 18.7079 133.751 18.7079C133.606 18.7079 133.473 18.3812 133.456 17.9821L133.424 17.2563L133.222 18.0481C133.079 18.6113 133.007 18.6875 132.971 18.3119L132.922 17.7841L132.695 18.3119C132.476 18.8208 132.467 18.819 132.45 18.2613C132.425 17.4955 132 17.2615 131.679 17.8366C131.465 18.2178 131.39 18.1265 131.235 17.3014C131.132 16.7542 130.855 16.1131 130.618 15.8768C130.271 15.5294 130.16 14.6341 130.039 11.2053C129.955 8.84896 129.856 7.78459 129.814 8.81084C129.647 12.9701 129.314 11.7437 129.241 6.69954C129.181 2.5284 129.132 1.91944 129.007 3.79649L128.849 6.17168L128.715 3.92843C128.6 2.00543 128.569 2.25036 128.499 5.64385C128.409 10.0158 128.056 15.1575 127.987 13.0994C127.921 11.1073 127.506 11.6435 127.272 14.0231L127.059 16.2004L126.843 13.8262C126.537 10.4541 126.415 10.4854 126.333 13.9571L126.261 16.9921L126.099 14.3529C126.01 12.9014 125.89 12.1295 125.833 12.6375C125.776 13.1455 125.658 12.1361 125.572 10.3942L125.414 7.22725L125.33 11.054C125.239 15.1673 124.867 15.1088 124.811 10.9725C124.795 9.69381 124.676 8.71168 124.55 8.79001C124.423 8.8683 124.219 8.07364 124.096 7.02415L123.873 5.11594L123.73 6.96336C123.597 8.68122 123.572 8.56098 123.373 5.24794C123.115 0.936043 123.071 0.761358 122.27 0.761358H121.643L121.521 8.6128C121.455 12.9311 121.318 16.9548 121.218 17.5544C121.04 18.6246 121.011 18.6497 119.633 18.9266C118.351 19.1843 117.086 19.139 116.566 18.8173C116.453 18.7476 115.943 18.8654 115.432 19.0791C114.812 19.338 114.446 19.3763 114.333 19.194C114.236 19.0367 113.366 18.947 112.283 18.9824C108.662 19.1019 108.73 19.1231 108.616 17.8498C108.519 16.7775 108.513 16.7891 108.469 18.1136C108.436 19.1488 108.322 19.4992 108.027 19.4992C107.781 19.4992 107.631 19.2501 107.631 18.8394C107.631 18.4765 107.512 18.1796 107.367 18.1796C107.222 18.1796 107.103 18.3884 107.103 18.6434C107.103 19.0311 106.909 19.0916 105.916 19.0128C105.036 18.9427 104.725 18.8057 104.712 18.4831C104.7 18.1821 104.622 18.2315 104.456 18.6433C104.22 19.2322 104.162 19.2387 99.2623 19.2297C96.5372 19.2256 93.892 19.2256 93.3841 19.2276C92.8762 19.2315 91.6297 19.2275 90.6139 19.2194C89.5982 19.2113 88.1141 19.2031 87.316 19.2072C86.5179 19.2102 85.301 19.1705 84.6117 19.1187C83.9225 19.0669 83.3585 19.1157 83.3585 19.2276C83.3585 19.3393 82.4384 19.3601 81.3138 19.2737C80.1892 19.1872 78.7348 19.1403 78.0818 19.1693C76.9367 19.2203 76.2068 19.2194 74.5201 19.1654C74.0848 19.1531 72.9569 19.1613 72.0137 19.1858C71.0705 19.2102 69.8565 19.1613 69.316 19.0732C68.7754 18.9868 67.9837 19.0365 67.5565 19.1866C66.51 19.5515 65.9999 19.1271 65.8714 17.7844C65.7728 16.7521 65.7695 16.7567 65.7259 17.9915L65.6815 19.2542L64.2964 19.0744C63.5346 18.9753 62.8692 18.7861 62.8179 18.6533C62.7666 18.5208 62.502 18.6125 62.2302 18.8596C61.863 19.1923 61.4538 19.2693 60.6385 19.1601C60.0187 19.0769 59.3358 19.1397 59.0692 19.3077C58.7186 19.5267 58.4192 19.5214 57.9055 19.2873C57.037 18.8914 55.7234 18.8841 54.6199 19.271C53.99 19.4908 53.692 19.4908 53.4724 19.271C53.0811 18.8796 50.8338 18.889 50.4391 19.2833C50.2023 19.5202 49.97 19.5202 49.4505 19.2833C48.49 18.8455 46.986 18.8996 46.4964 19.3889C46.2396 19.6457 46.0182 19.7024 45.9163 19.5373C45.6664 19.1328 44.2724 18.6678 43.8249 18.8396C43.6077 18.9228 43.3331 18.8389 43.2149 18.6525C43.0596 18.4078 42.9988 18.4506 42.996 18.8062C42.9922 19.1585 42.8501 19.2616 42.4935 19.1683C42.2192 19.0965 41.8392 19.1356 41.6486 19.2523C41.4579 19.3701 41.1829 19.3925 41.037 19.3024C40.5689 19.0129 39.5621 19.0003 39.5621 19.282C39.5621 19.45 39.3832 19.472 39.1004 19.3391C38.8465 19.2196 35.6706 19.0937 32.0429 19.059C28.4152 19.0264 25.2096 18.9913 24.9194 18.9852C24.6292 18.9811 22.963 18.9811 21.2168 18.9882C19.4706 18.9964 17.7094 18.8757 17.3032 18.7211C16.8968 18.5666 16.4259 18.5267 16.2567 18.6323C15.779 18.9303 14.6656 18.9368 14.3001 18.6445C14.0751 18.4639 13.9703 18.474 13.9703 18.6771C13.9703 18.8402 13.7327 18.9731 13.4427 18.9731C13.1524 18.9731 12.915 18.8308 12.915 18.6563C12.915 18.417 12.8404 18.4141 12.6109 18.6441C12.2412 19.0139 11.3321 18.6074 11.3321 18.0724C11.3321 17.8775 11.1593 17.5747 10.9482 17.3992C10.7028 17.1957 10.5308 16.4444 10.4721 15.3215C10.3984 13.9113 10.3694 14.0858 10.3246 16.202C10.2879 18.0194 10.1893 18.7179 10.0132 18.4453C9.80977 18.1305 9.75678 18.1815 9.75351 18.696C9.74536 19.8586 9.25822 18.9036 9.15326 17.5216L9.05339 16.2021L9.0057 17.5876C8.95148 19.1653 8.45104 19.4875 8.39084 17.9835L8.35008 16.9939L8.16544 18.1815C8.03663 19.0095 7.96896 19.1436 7.94124 18.6245C7.90456 17.9364 7.86868 17.9125 7.47182 18.3097C7.22521 18.5564 6.85962 18.6661 6.61439 18.567C6.19504 18.3978 5.58985 18.2416 5.19731 18.2016C5.08848 18.1894 4.99962 17.9509 4.99962 17.6692C4.99962 17.0103 4.48206 16.6759 4.44077 17.3083C4.42447 17.5709 4.3189 17.4295 4.20803 16.994C4.01115 16.2204 4.00543 16.2264 3.94918 17.2578C3.90434 18.0852 3.85462 18.1817 3.7201 17.7041C3.62594 17.3689 3.4315 17.1089 3.28851 17.1263C2.86361 17.1781 2.66225 15.9045 2.41218 11.5837L2.17534 7.49298L2.08567 10.9239L1.996 14.3547L1.83294 11.8476C1.6968 9.74943 1.65523 9.5772 1.57941 10.7919L1.48891 12.2434L1.29612 10.528C1.19013 9.58449 1.07762 7.86247 1.04624 6.70126C1.00547 5.20671 0.92762 4.78265 0.778024 5.24973C0.488614 6.15394 0.456007 33.4885 0.745417 33.4885C0.871779 33.4885 1.07966 31.5586 1.20713 29.1999L1.43866 24.9113L1.58296 28.2102L1.72725 31.5091L1.83364 28.2102L1.94003 24.9113L2.08474 28.0783L2.22944 31.2452L2.42998 27.1087C2.65254 22.5144 2.84433 21.1129 3.17666 21.6507C3.33278 21.9035 3.45956 21.8207 3.65036 21.342C3.7967 20.9747 3.92631 20.862 3.94628 21.0843C3.97074 21.3592 4.05104 21.3188 4.20838 20.9522C4.39752 20.5124 4.43828 20.5702 4.45377 21.2976C4.47823 22.3814 4.99999 22.162 4.99999 21.0685C4.99999 20.4294 5.25883 20.1105 5.59361 20.3369C5.63029 20.3613 5.91602 20.2443 6.22944 20.0763C6.73378 19.8064 6.86227 19.8696 7.34632 20.6255C7.88556 21.4677 7.89384 21.4705 7.93513 20.82C7.96367 20.371 8.03744 20.4975 8.16584 21.2159L8.35497 22.2716L8.39166 21.2975C8.44873 19.8094 8.94928 19.7838 9.00109 21.2649C9.0443 22.5076 9.04757 22.512 9.15069 21.4785C9.27257 20.2535 9.73439 19.5798 9.77458 20.568L9.79904 21.2146L10.0102 20.5548C10.1557 20.1003 10.2409 20.6339 10.2837 22.2703L10.3461 24.6455L10.5385 22.9418C10.6444 22.0047 10.8654 21.1932 11.03 21.1384C11.1943 21.0833 11.3292 20.8831 11.3292 20.693C11.3292 20.2031 12.119 19.9609 12.5499 20.3187C12.8242 20.5462 12.9123 20.5393 12.9123 20.2902C12.9123 20.0651 13.1625 20.0109 13.7038 20.1193C14.1986 20.2184 14.4953 20.1691 14.4953 19.988C14.4953 19.7931 14.6029 19.7838 14.825 19.9595C15.0064 20.103 15.511 20.1687 15.9463 20.1051C16.5465 20.0178 33.3445 19.7018 37.4487 19.7006C40.1494 19.6998 42.8888 19.9187 43.0477 20.148C43.1651 20.3177 43.3983 20.1953 43.6563 19.8288C43.8862 19.5022 44.1949 19.235 44.3422 19.235C44.6952 19.235 45.3637 19.9134 45.3637 20.2718C45.3637 20.66 45.4905 20.6351 46.73 20.0027C47.6893 19.5131 47.9387 19.4865 48.9394 19.7666C49.8101 20.0104 50.2831 20.0112 51.0134 19.7705C51.663 19.556 52.2283 19.5373 52.817 19.711C53.2886 19.85 54.268 19.9149 54.9936 19.8557C55.7191 19.7962 56.4908 19.7509 56.7085 19.7546C56.9262 19.7586 58.3212 19.7628 59.8085 19.7628C62.1986 19.7627 62.5164 19.8166 62.5434 20.2254C62.5719 20.664 62.5801 20.6638 62.695 20.2234C62.7949 19.8413 63.0717 19.769 64.2474 19.8181L65.6785 19.878L65.7229 21.4708C65.7556 22.6182 65.7931 22.7684 65.8591 22.0079C66.0205 20.1546 66.1628 19.8211 66.7978 19.8075C68.7543 19.7655 78.8959 19.717 81.1127 19.739C82.5638 19.7553 85.2944 19.7553 87.1808 19.7472C89.0673 19.739 91.5011 19.7349 92.5894 19.739C93.6777 19.7431 94.8056 19.7308 95.0958 19.7105C95.386 19.6901 97.6121 19.6941 100.043 19.7186C104.051 19.7614 104.463 19.8087 104.479 20.2275C104.491 20.5814 104.551 20.5505 104.734 20.0954C104.995 19.4453 105.068 19.4249 106.276 19.6665C107.007 19.8129 107.1 19.934 107.1 20.7378C107.1 21.2748 107.208 21.5776 107.364 21.481C107.509 21.3913 107.628 21.0407 107.628 20.7019C107.628 20.363 107.806 20.0175 108.023 19.934C108.333 19.8153 108.429 20.0249 108.465 20.8954L108.511 22.0088L108.611 20.8976L108.712 19.7864L110.874 19.7101C112.063 19.6681 113.367 19.7346 113.772 19.861C114.2 19.9935 114.921 19.9837 115.496 19.8365C116.358 19.6176 117.672 19.8243 118.445 20.3003C118.517 20.3451 118.841 20.2399 119.165 20.0667C119.488 19.8934 120.038 19.8232 120.386 19.9109C120.963 20.0557 121.046 20.2754 121.315 22.3764C121.478 23.6449 121.61 27.6538 121.61 31.2848C121.61 37.7007 121.849 40.0178 122.159 36.6138L122.311 34.9398L122.357 36.581L122.371 36.5772Z" fill="black"/>
</svg>
