<svg width="465" height="39" viewBox="0 0 465 39" fill="none" xmlns="http://www.w3.org/2000/svg">
<path d="M366.512 19.8768C367.957 19.8768 367.96 19.8787 367.987 20.7157L368.015 21.5546L368.21 20.7398C368.467 19.6652 368.703 19.3114 369.164 19.3114C369.455 19.3114 369.551 19.7313 369.574 21.0927L369.602 22.8741L369.853 21.5604C369.991 20.8378 370.144 20.2061 370.193 20.1566C370.374 19.9755 371.39 20.7678 371.39 21.0903C371.39 21.2729 371.509 21.4226 371.654 21.4226C371.823 21.4226 371.936 24.161 371.968 29.0101L372.018 36.5976L372.194 29.8678C372.453 20.0155 372.379 20.9703 372.833 21.57C373.152 21.9913 373.229 23.5355 373.271 30.2637L373.321 38.445L373.529 30.1679C373.644 25.6154 373.803 21.8251 373.883 21.7446C373.963 21.6643 374.043 24.142 374.06 27.2506C374.076 30.3593 374.176 34.0904 374.28 35.542C374.436 37.7114 374.477 37.0962 374.513 32.0861C374.537 28.7339 374.645 24.6961 374.754 23.1131L374.952 20.235L375.102 22.3463L375.251 24.4576L375.326 22.2143C375.42 19.3942 375.795 20.2784 375.886 23.5339L375.948 25.7771L376.169 23.2859C376.316 21.6288 376.528 20.6574 376.8 20.3849C377.228 19.9562 380.241 19.6056 381.866 19.7953L382.735 19.8969L382.788 25.2122C382.816 28.1356 382.871 29.6369 382.908 28.5482C382.945 27.4596 383.125 25.025 383.306 23.138C383.553 20.5756 383.681 19.9409 383.811 20.6308L383.985 21.5545L384.022 20.644C384.051 19.9319 384.126 19.803 384.376 20.0527C384.625 20.3027 384.763 20.2436 385.01 19.7828C385.308 19.2266 385.348 19.2671 385.728 20.506C385.958 21.2562 386.138 21.5641 386.149 21.2247C386.157 20.8981 386.286 20.6309 386.431 20.6309C386.599 20.6309 386.707 23.0511 386.729 27.2948C386.75 30.9599 386.848 34.8493 386.95 35.9379C387.068 37.186 387.154 34.846 387.183 29.604C387.208 25.0317 387.3 21.0278 387.386 20.7064C387.652 19.7143 388.274 20.6737 388.308 22.1296L388.337 23.402L388.529 22.4094C388.635 21.8635 388.799 21.339 388.894 21.2438C388.99 21.1488 389.09 24.4456 389.117 28.5703L389.166 36.0699L389.346 28.8123C389.557 20.2454 389.638 19.2111 389.859 22.2144L390.025 24.4577L390.105 22.0824C390.149 20.7761 390.24 19.9236 390.309 20.188C390.416 20.6007 390.477 20.6144 390.74 20.2843C390.909 20.0727 391.67 19.8227 392.432 19.7284L393.817 19.5571L393.825 20.424C393.833 21.2332 393.858 21.2576 394.212 20.7913C394.419 20.5165 394.63 20.1713 394.679 20.0239C394.731 19.8693 395.07 19.8314 395.48 19.9346C396.026 20.072 396.197 20.2803 396.215 20.834C396.24 21.5253 396.248 21.519 396.491 20.6791C396.961 19.0486 397.374 19.8581 397.454 22.5657C397.496 23.9748 397.644 25.1175 397.784 25.1175C397.925 25.1175 398.06 24.0332 398.087 22.6763L398.135 20.2351L398.302 22.3465L398.47 24.4577L398.544 22.8743C398.602 21.6409 398.666 21.4366 398.83 21.9505C398.946 22.3134 399.065 23.3229 399.094 24.1938C399.165 26.3365 399.559 25.1447 399.595 22.6763C399.611 21.6822 399.738 20.895 399.885 20.895C400.03 20.895 400.161 20.6279 400.175 20.3011C400.2 19.7314 400.212 19.7341 400.413 20.3672C400.554 20.807 400.633 20.873 400.651 20.5649C400.667 20.3109 400.796 20.1031 400.941 20.1031C401.096 20.1031 401.22 21.161 401.241 22.6762C401.261 24.0915 401.357 28.159 401.455 31.7153L401.633 38.1811L401.683 29.6699C401.715 24.2047 401.827 21.1588 401.996 21.1588C402.141 21.1588 402.26 20.9496 402.26 20.6944C402.26 20.4392 402.497 20.0817 402.787 19.9004C403.266 19.6015 403.317 19.6387 403.341 20.2988L403.366 21.0267L403.55 20.367C403.722 19.7476 403.746 19.7395 403.938 20.2349C404.134 20.74 404.158 20.7342 404.51 20.1027C404.846 19.5002 404.878 19.6534 404.887 21.8686C404.891 23.2027 405.015 24.3677 405.16 24.4574C405.328 24.5613 405.424 23.8075 405.424 22.3832C405.424 21.1527 405.497 19.9546 405.587 19.7207C405.733 19.3387 405.786 19.3432 406.106 19.7652C406.443 20.2095 406.463 20.2063 406.48 19.7069C406.496 19.2352 406.538 19.2493 406.875 19.839C407.082 20.2019 407.256 20.3541 407.261 20.177C407.273 19.7296 408.062 20.0739 408.062 20.5269C408.062 20.7291 408.181 20.8946 408.326 20.8946C408.471 20.8946 408.589 20.6427 408.589 20.3345C408.589 19.8665 408.655 19.8284 408.985 20.1029C409.203 20.2835 409.389 20.328 409.4 20.2012C409.408 20.0748 409.52 20.2093 409.645 20.4988C409.853 20.984 409.874 20.9733 409.898 20.3667C409.923 19.729 409.939 19.7241 410.313 20.2191C410.696 20.7262 410.7 20.7262 410.738 20.2191C410.758 19.9373 410.86 20.1824 410.964 20.7624L411.153 21.8181L411.211 20.7624C411.268 19.7315 411.276 19.7239 411.534 20.4326C411.838 21.2634 412.547 21.4129 412.547 20.6463C412.547 20.3645 412.666 20.0606 412.811 19.9709C412.983 19.8641 413.092 21.9823 413.126 26.0913L413.178 32.3748L413.335 26.5688C413.421 23.3754 413.588 20.5571 413.705 20.3059C413.857 19.9809 414.158 19.8753 414.749 19.9397C415.42 20.0127 415.613 20.1775 415.747 20.7924L415.914 21.5544L415.976 20.7626L416.039 19.9709L416.24 20.7626L416.441 21.5544L416.474 20.7122C416.511 19.7375 417.023 19.2434 417.054 20.1533C417.066 20.4884 417.135 20.6142 417.208 20.4326C417.281 20.2511 417.569 20.1027 417.847 20.1027C418.125 20.1027 418.352 20.0036 418.352 19.8829C418.352 19.7618 418.53 19.6631 418.748 19.6631C418.966 19.6631 419.144 19.7586 419.144 19.8748C419.144 19.991 419.329 20.0154 419.555 19.9282C419.828 19.8234 420.015 19.9527 420.11 20.3176C420.25 20.8529 420.264 20.8541 420.782 20.3722C421.267 19.9195 422.152 19.857 422.543 20.2478C422.633 20.3367 422.765 23.0423 422.837 26.2602L422.969 32.1108L423.101 26.0625C423.2 21.5544 423.318 19.9862 423.563 19.9045C423.808 19.8229 423.898 20.3591 423.914 21.9941C423.938 24.456 423.964 24.444 424.432 21.7637C424.789 19.724 424.901 19.6159 426.465 19.7971L427.323 19.8966L427.382 24.8162L427.442 29.7357L427.52 24.8929C427.594 20.3254 427.628 20.0425 428.12 19.9138C428.407 19.8388 428.643 19.6426 428.646 19.4782C428.649 19.3135 428.76 19.353 428.894 19.5659C429.063 19.8325 429.492 19.9263 430.275 19.8684C431.689 19.7636 432.119 19.7653 433.853 19.8807C434.615 19.9308 435.238 19.8929 435.238 19.7971C435.238 19.7008 435.584 19.7527 436.006 19.9125C436.501 20.0992 436.826 20.444 436.917 20.8792C436.996 21.2515 437.17 22.0308 437.306 22.6114L437.551 23.667L437.58 22.1339C437.596 21.2702 437.717 20.6667 437.854 20.7517C437.988 20.8344 438.153 20.6929 438.219 20.4373C438.286 20.1816 438.369 20.9817 438.404 22.2154C438.436 23.4492 438.55 26.1214 438.652 28.1535L438.838 31.8483L438.884 29.0518C438.908 27.5137 439.019 25.1385 439.128 23.7735L439.326 21.2918L439.476 23.2711L439.626 25.2505L439.674 23.2381C439.752 19.9258 440.184 18.7154 440.768 20.1701C440.9 20.4967 441.015 20.6155 441.024 20.4339C441.032 20.2525 441.159 20.1041 441.304 20.1041C441.449 20.1041 441.568 20.6979 441.568 21.4236C441.568 22.1494 441.686 22.7432 441.831 22.7432C441.977 22.7432 442.095 22.1531 442.095 21.4319C442.095 20.3747 442.172 20.1501 442.491 20.2725C442.709 20.3561 442.887 20.293 442.887 20.1323C442.887 19.9716 443.005 19.8399 443.151 19.8399C443.308 19.8399 443.429 20.986 443.451 22.677L443.488 25.5141L443.728 22.7435C443.86 21.2197 444.054 19.8867 444.159 19.7813C444.264 19.6761 444.793 19.6615 445.334 19.7487L446.317 19.9081L446.366 23.8983L446.415 27.8885L446.564 24.017C446.71 20.2155 446.894 19.3377 447.383 20.1106C447.549 20.3736 447.629 20.3925 447.632 20.169C447.635 19.9876 447.814 19.8391 448.032 19.8391C448.34 19.8391 448.438 20.2338 448.474 21.6205L448.521 23.4019L448.672 21.6165C448.755 20.6345 448.912 19.8329 449.021 19.8351C449.13 19.837 449.338 19.8388 449.483 19.8388C449.628 19.8388 449.746 20.017 449.746 20.2348C449.746 20.4525 449.865 20.6307 450.01 20.6307C450.155 20.6307 450.274 20.4525 450.274 20.2348C450.274 20.015 450.508 19.8388 450.802 19.8388C451.196 19.8388 451.334 20.0219 451.35 20.5646C451.362 20.9888 451.435 21.1278 451.524 20.8994C451.833 20.1118 452.328 19.8909 453.988 19.7999L455.682 19.707L455.818 28.9439L455.953 38.181L456.082 29.0759L456.21 19.9709L458.123 19.8935L460.036 19.816L460.06 20.5533C460.084 21.2727 460.093 21.2751 460.265 20.6503C460.483 19.8692 461.077 19.611 461.12 20.2789C461.144 20.6699 461.172 20.6809 461.264 20.3376C461.326 20.104 461.669 19.7797 462.025 19.6175C462.6 19.3553 462.672 19.3842 462.672 19.8768C462.672 20.3158 462.747 20.3689 463.033 20.1316C463.876 19.4314 463.983 20.4065 464.057 29.4942C464.098 34.4169 464.13 29.8939 464.13 19.4428C464.13 8.99181 464.098 4.76253 464.057 10.0444L463.985 19.6478L463.445 19.026C463.072 18.5951 462.847 18.4993 462.715 18.714C462.393 19.2346 460.507 18.9733 460.273 18.376C460.099 17.93 460.068 17.9554 460.052 18.5603C460.036 19.1284 459.933 19.2351 459.505 19.123C459.214 19.0468 458.798 19.1312 458.582 19.3118C458.264 19.5752 458.183 19.5682 458.166 19.2751C458.15 19.0084 458.11 18.9995 458.013 19.2425C457.892 19.5414 456.722 19.4545 456.34 19.1185C456.268 19.0545 456.146 15.6568 456.069 11.5681L455.929 4.13406L455.871 11.5583L455.813 18.9825L454.641 19.2778C452.956 19.7021 452.466 19.6479 452.002 18.9866C451.665 18.5045 451.592 18.481 451.592 18.8545C451.592 19.135 451.387 19.3091 451.057 19.3091C450.667 19.3091 450.474 19.0775 450.343 18.4514L450.163 17.5937L450.017 18.3854C449.913 18.9511 449.722 19.1771 449.347 19.1771C448.905 19.1771 448.797 18.9468 448.667 17.7256L448.512 16.2741L448.469 17.7634C448.44 18.8142 448.31 19.2974 448.03 19.4046C447.812 19.4881 447.633 19.4127 447.63 19.2349C447.627 19.0095 447.559 19.0204 447.4 19.2716C446.959 19.9673 446.714 18.9748 446.563 15.8785L446.414 12.8435L446.365 16.0765C446.311 19.5876 446.324 19.5614 444.785 19.0242C443.891 18.7123 443.76 18.2651 443.593 14.9548C443.549 14.0839 443.491 14.7073 443.463 16.3404C443.435 18.1105 443.307 19.3094 443.149 19.3094C443.004 19.3094 442.886 19.1908 442.886 19.0456C442.886 18.598 442.404 18.7545 442.276 19.2438C442.21 19.4978 442.142 19.0823 442.125 18.3201C442.084 16.5526 441.567 16.4912 441.567 18.254C441.567 19.522 441.058 20.1973 441.02 18.9798C441.004 18.4342 440.984 18.4275 440.802 18.8962C440.47 19.744 440.155 18.9044 439.822 16.2746L439.52 13.8994L439.449 15.4828L439.378 17.0663L439.182 15.4828C439.074 14.6119 438.954 12.4149 438.915 10.6004C438.851 7.5729 438.829 7.75376 438.645 12.7993C438.535 15.8231 438.369 18.373 438.276 18.4658C437.992 18.7496 437.617 17.908 437.612 16.9783C437.609 16.3937 437.498 16.1352 437.279 16.2075C437.074 16.2752 436.919 16.9367 436.87 17.945C436.789 19.6292 436.449 20.0057 435.759 19.1743C435.537 18.9073 435.326 18.8596 435.12 19.0304C434.951 19.1707 434.165 19.242 433.374 19.189C432.583 19.1356 431.41 19.1892 430.767 19.3077C429.87 19.4728 429.45 19.4264 428.964 19.1071C428.428 18.7556 428.294 18.7483 428.102 19.059C427.74 19.6444 427.602 18.9607 427.51 16.1424L427.428 13.6352L427.374 16.4754L427.319 19.3156L426.068 19.2341C424.845 19.1542 424.813 19.1297 424.595 18.1093C424.473 17.5356 424.283 16.2943 424.173 15.3508C423.981 13.7141 423.97 13.7686 423.922 16.5384C423.877 19.1535 423.834 19.3906 423.485 18.9291C423.174 18.5172 423.088 17.199 423.047 12.1993L422.996 5.98184L422.823 12.3158C422.728 15.7994 422.632 18.6864 422.61 18.7312C422.59 18.7761 422.451 18.7394 422.306 18.6497C422.161 18.56 422.04 18.7015 422.038 18.9641C422.035 19.3327 421.982 19.36 421.807 19.0835C421.634 18.8091 421.534 18.8001 421.383 19.0468C421.231 19.2923 421.131 19.2833 420.958 19.0102C420.787 18.7406 420.729 18.7826 420.723 19.1798C420.719 19.4746 420.629 19.5886 420.521 19.4378C420.415 19.2894 419.912 19.1292 419.404 19.0815C418.896 19.0338 418.393 18.8581 418.287 18.6913C418.155 18.485 418.089 18.5143 418.08 18.7838C418.072 19.0639 417.915 18.9975 417.548 18.5567C417.041 17.9478 417.03 17.9463 417.03 18.4906C417.03 19.233 416.569 19.2051 416.424 18.454C416.33 17.9662 416.298 18.0015 416.243 18.6517L416.176 19.4434L415.974 18.6517L415.773 17.86L415.74 18.614C415.716 19.204 415.613 19.3312 415.268 19.1989C415.026 19.1059 414.743 19.1662 414.638 19.3362C414.319 19.8533 413.862 19.3281 413.858 18.4381C413.854 17.7973 413.793 17.6906 413.598 17.9918C413.429 18.2536 413.321 15.7943 413.279 10.7342L413.214 3.08067L413.077 11.262C412.965 17.8813 412.879 19.3097 412.626 18.7432C412.21 17.8158 411.752 17.5518 411.752 18.2401C411.752 19.0621 411.229 18.8915 411.193 18.0579L411.16 17.3321L410.959 18.1238C410.82 18.6705 410.745 18.7522 410.717 18.3876C410.68 17.9099 410.64 17.9225 410.299 18.5198C410.056 18.945 409.91 19.0388 409.887 18.7836C409.866 18.5658 409.774 18.6621 409.679 18.9972C409.423 19.9065 408.992 19.8249 408.898 18.8496C408.794 17.7735 408.359 17.7351 408.149 18.7836C407.97 19.68 407.546 19.829 407.346 19.0657C407.267 18.7628 407.063 18.6138 406.844 18.698C406.64 18.7762 406.474 18.6857 406.474 18.4949C406.474 18.2266 406.403 18.2205 406.157 18.4663C405.532 19.092 405.418 18.7428 405.379 16.0779L405.338 13.3728L405.048 16.1991C404.756 19.0431 404.336 20.1133 403.828 19.3087C403.691 19.0922 403.563 18.6181 403.544 18.2552C403.511 17.6416 403.494 17.6508 403.307 18.3874C403.196 18.8228 403.087 19.0009 403.065 18.7833C403.04 18.5252 402.893 18.6169 402.647 19.0471C402.275 19.6973 402.27 19.6907 402.261 18.5852C402.257 17.9683 402.133 17.4636 401.988 17.4636C401.819 17.4636 401.706 14.6812 401.674 9.74409L401.623 2.0246L401.447 8.75447C401.125 21.0249 401.203 19.8162 400.791 18.9151C400.497 18.2736 400.42 18.2235 400.386 18.6513C400.345 19.1479 400.336 19.1495 400.215 18.6798C400.112 18.2778 400.041 18.252 399.854 18.5477C399.703 18.7858 399.614 18.3569 399.602 17.3324C399.589 16.4615 399.484 15.2739 399.364 14.6933L399.145 13.6376L399.089 14.9572C398.986 17.3591 398.617 17.8043 398.542 15.617C398.476 13.6847 398.47 13.6689 398.293 14.9572L398.112 16.2768L398.032 14.9572C397.972 13.9677 397.904 14.2849 397.756 16.2256C397.553 18.9001 397.385 19.4424 396.964 18.7763C396.749 18.4366 396.717 18.4374 396.71 18.7844C396.702 19.1363 396.673 19.1363 396.446 18.7844C396.306 18.5667 396.189 18.5235 396.187 18.6886C396.183 18.8538 395.831 19.0401 395.4 19.1034C394.71 19.205 394.573 19.1075 394.227 18.2756L393.835 17.3331L393.823 18.3278C393.811 19.2547 393.765 19.3112 393.15 19.1569C392.763 19.0598 392.49 19.1047 392.49 19.2657C392.49 19.8118 391.043 19.3978 390.713 18.7574C390.496 18.3354 390.37 18.2566 390.334 18.5206C390.306 18.7383 390.207 17.907 390.116 16.6732L389.95 14.4299L389.901 16.6511C389.872 17.8729 389.767 18.7879 389.664 18.6846C389.561 18.5815 389.404 14.6127 389.315 9.86547L389.154 1.2342L389.108 9.59788C389.079 14.837 388.962 18.0225 388.797 18.1247C388.632 18.2262 388.514 17.6105 388.484 16.4908C388.437 14.7809 388.431 14.7641 388.352 16.1454C388.307 16.9438 388.199 18.0092 388.114 18.513C387.973 19.3497 387.933 19.3839 387.657 18.9089C387.454 18.5598 387.31 15.4783 387.218 9.54767C387.082 0.745575 387.081 0.726946 386.885 5.32508C386.776 7.86524 386.678 11.5468 386.667 13.5064C386.647 16.6625 386.314 20.3185 386.171 18.9166C386.142 18.6227 386.058 18.5342 385.984 18.7164C385.796 19.1822 384.844 18.6357 384.822 18.0495C384.81 17.7314 384.718 17.793 384.509 18.2567L384.212 18.9164L384.08 18.1247C383.953 17.3595 383.943 17.3683 383.786 18.3885C383.657 19.2316 383.584 18.9128 383.422 16.8049C383.141 13.1378 382.873 12.8581 382.79 16.1452C382.754 17.6693 382.669 19.0571 382.607 19.229C382.525 19.4574 382.242 19.472 381.56 19.2837C380.944 19.1136 380.457 19.1156 380.132 19.2877C379.801 19.4651 379.315 19.4627 378.659 19.2837C377.979 19.0961 377.577 19.099 377.343 19.2918C376.825 19.7218 376.36 18.4574 376.137 16.0123L375.944 13.901L375.888 16.0123C375.806 19.0744 375.394 19.7414 375.317 16.936C375.26 14.8528 375.244 14.7964 375.099 16.1443C374.958 17.4608 374.925 17.3281 374.747 14.7177C374.638 13.1347 374.537 10.4626 374.522 8.77966C374.505 7.0967 374.406 4.65084 374.3 3.34447C374.164 1.68173 374.093 3.45618 374.064 9.26054C374.039 13.8207 373.956 17.4861 373.876 17.4057C373.795 17.3254 373.636 13.5348 373.522 8.98243L373.314 0.705354L373.236 9.15054C373.193 13.7954 373.1 17.2989 373.029 16.936C372.909 16.3202 372.886 16.3114 372.688 16.804C372.428 17.4499 372.433 17.5138 372.189 9.5463L372.008 3.60827L371.959 10.9163C371.931 15.4501 371.811 18.2862 371.647 18.3874C371.502 18.4771 371.383 18.7739 371.383 19.0472C371.383 19.3204 371.289 19.6025 371.173 19.674C370.743 19.9399 370.284 19.3535 369.939 18.0973L369.584 16.804L369.559 17.9372C369.539 18.8631 369.451 19.0562 369.074 18.9928C368.82 18.95 368.469 18.6185 368.294 18.2555C367.978 17.599 367.976 17.6003 367.965 18.4842C367.952 19.284 367.888 19.3603 367.302 19.2483C366.945 19.1798 366.609 19.2524 366.556 19.4123C366.488 19.6161 366.253 19.6067 365.755 19.3796L365.051 19.0583L365.002 9.88165L364.953 0.704981L364.774 7.03896C364.676 10.5226 364.579 14.6622 364.559 16.2382C364.53 18.6097 364.458 19.0784 364.145 18.9581C363.936 18.8782 363.724 18.9377 363.673 19.0918C363.547 19.469 362.227 19.5915 361.455 19.2978C361.076 19.1539 360.569 19.1587 360.17 19.31C359.734 19.4759 359.51 19.4698 359.51 19.2896C359.51 19.1416 359.307 19.0556 359.057 19.0984C358.741 19.1526 358.551 18.9377 358.429 18.3842L358.254 17.5924L358.221 18.4291L358.188 19.2657L356.605 19.143C355.602 19.0651 355.022 19.1226 355.022 19.2959C355.022 19.4476 354.874 19.5699 354.693 19.5679C354.034 19.5597 353.625 19.078 353.433 18.0819L353.236 17.0648L353.208 18.0105C353.175 19.0511 352.594 19.2904 351.867 18.5632C351.519 18.215 351.454 18.2427 351.297 18.805C351.199 19.154 351.107 19.3112 351.093 19.154C351.056 18.7392 350.275 18.8021 350.275 19.22C350.275 19.4137 350.157 19.5719 350.012 19.5719C349.866 19.5719 349.748 19.3346 349.748 19.0441C349.748 18.7538 349.629 18.5163 349.484 18.5163C349.339 18.5163 349.22 18.754 349.22 19.0441C349.22 19.8039 347.907 19.7845 347.708 19.0196C347.602 18.6127 347.509 18.5591 347.351 18.8141C347.015 19.3587 346.837 18.9654 346.603 17.1601L346.385 15.4792L346.353 17.0885L346.32 18.698L344.971 19.1339C343.363 19.6532 342.21 19.6933 341.916 19.2399C341.799 19.0585 341.57 18.2568 341.407 17.4585L341.111 16.007L341.074 17.1945C341.054 17.8477 340.949 18.5142 340.843 18.6756C340.434 19.2952 337.298 19.5689 335.176 19.1701C334.632 19.0678 333.979 19.0755 333.725 19.1864C333.47 19.2977 333.143 19.3577 332.998 19.3197C332.203 19.1106 331.019 19.1139 331.019 19.3239C331.019 19.458 330.789 19.5681 330.508 19.5681C330.105 19.5681 329.966 19.3304 329.852 18.4464C329.558 16.1676 329.507 16.0366 329.468 17.4567C329.426 18.9872 329.115 19.852 328.794 19.3323C328.577 18.9804 327.417 18.943 327.208 19.281C327.121 19.4217 326.732 19.3976 326.269 19.2231C325.699 19.0078 325.468 18.7383 325.439 18.2567L325.398 17.5888L325.291 18.2922C325.078 19.6796 323.388 19.5695 323.336 18.1646C323.303 17.3328 323.303 17.3317 323.138 18.046C323.046 18.4427 322.747 19.0271 322.473 19.3449C322.033 19.8558 321.94 19.8752 321.675 19.5126C321.51 19.2867 321.141 19.057 320.854 19.0019C320.358 18.9065 320.326 18.6089 320.194 12.7032L320.054 6.50458L319.952 12.7066C319.895 16.1177 319.802 18.4632 319.745 17.9189C319.603 16.5663 319.148 16.6653 319.137 18.051C319.129 19.0945 319.101 19.137 318.741 18.6603C318.364 18.1605 318.354 18.1623 318.354 18.7357C318.354 19.2435 318.282 19.2845 317.821 19.0378C317.528 18.8809 317.172 18.8242 317.03 18.9123C316.887 19.0004 316.762 18.8573 316.75 18.5947C316.734 18.2363 316.652 18.2872 316.42 18.8006C316.149 19.4014 316.024 19.4545 315.386 19.2404C314.987 19.1067 314.661 18.8641 314.661 18.7022C314.661 18.4975 314.564 18.504 314.344 18.7226C313.764 19.3024 313.605 19.0521 313.605 17.5596C313.605 16.3527 313.532 16.1078 313.209 16.2317C312.864 16.3642 312.807 15.3897 312.762 8.54044L312.709 0.697266L312.529 7.69099C312.359 14.2508 312.14 17.883 311.861 18.7535C311.62 19.5049 311.102 18.5117 310.8 16.7215L310.502 14.9486L310.469 16.9784C310.449 18.2325 310.318 19.0824 310.124 19.2024C309.951 19.3092 309.763 19.2567 309.706 19.0862C309.557 18.6395 309.119 18.7029 309.119 19.1714C309.119 19.3892 309 19.5674 308.855 19.5674C308.71 19.5674 308.584 19.122 308.576 18.5776C308.568 18.0333 308.462 17.1129 308.342 16.5323C308.14 15.5547 308.122 15.6083 308.094 17.2581C308.042 20.2778 307.54 19.3008 307.483 16.0705L307.431 13.1014L307.285 16.0017C307.155 18.5968 307.086 18.9121 306.629 18.9994C306.349 19.0528 305.963 18.8832 305.772 18.6218C305.571 18.3474 305.425 18.2862 305.425 18.4766C305.425 18.6581 305.319 18.7417 305.191 18.6617C305.062 18.5822 304.81 18.6944 304.631 18.9101C304.164 19.4729 303.846 19.3952 303.811 18.709C303.782 18.1676 303.768 18.1618 303.643 18.643C303.51 19.1569 303.502 19.1574 303.325 18.6634C303.149 18.1713 303.125 18.1735 302.569 18.7294C302.253 19.045 301.935 19.3036 301.863 19.3036C301.79 19.3036 301.731 18.8322 301.731 18.2562C301.731 17.4336 301.646 17.2414 301.335 17.3607C301.072 17.4614 300.939 17.8765 300.939 18.5966C300.939 19.6006 300.907 19.6486 300.507 19.2484C300.187 18.928 299.914 18.8778 299.452 19.0536C298.845 19.2844 298.827 19.2517 298.779 17.7797L298.729 16.2687L298.632 17.8437C298.56 19.0105 298.465 19.3183 298.266 19.0313C298.062 18.7381 297.964 18.7239 297.863 18.9738C297.707 19.3604 295.768 19.4236 295.537 19.05C295.447 18.9049 295.13 18.8862 294.796 19.0069C294.299 19.1863 291.73 19.1524 291.542 18.9644C291.509 18.9318 291.369 17.2998 291.235 15.342L290.991 11.7824L290.954 15.5431C290.917 18.931 290.745 19.8312 290.271 19.0648C290.19 18.9331 289.899 18.8841 289.626 18.9559C289.02 19.1141 288.746 18.7104 288.517 17.3246C288.352 16.3216 288.341 16.3433 288.31 17.7583C288.273 19.4018 287.967 19.7238 286.93 19.209C286.401 18.9468 286.273 18.6382 286.145 17.3184L285.991 15.7412L285.891 17.4566C285.83 18.493 285.73 17.4485 285.638 14.8175L285.486 10.4629L285.43 14.7232C285.382 18.3403 285.311 19.0079 284.955 19.1447C284.724 19.2332 284.427 19.2389 284.295 19.1569C284.163 19.0754 284.055 19.1487 284.055 19.3171C284.055 19.4872 283.821 19.3457 283.536 19.0028L283.017 18.3798L283.005 19.0395C282.997 19.5394 282.934 19.6075 282.753 19.3205C282.572 19.0351 282.425 19.0146 282.156 19.2377C281.655 19.6537 280.162 18.8989 280.017 18.1561C279.94 17.7602 279.895 17.8385 279.871 18.4151C279.846 19.002 279.681 19.282 279.307 19.3799C279.017 19.4558 278.721 19.4223 278.648 19.3053C278.493 19.0541 275.837 19.1341 275.402 19.4032C275.214 19.5194 275.04 19.3126 274.938 18.8525C274.671 17.643 274.601 17.5478 274.579 18.3667C274.554 19.2625 274.14 19.0075 273.957 17.9838C273.841 17.3373 273.838 17.3387 273.803 18.0498C273.782 18.449 273.653 18.7756 273.514 18.7756C273.374 18.7756 273.221 17.7958 273.172 16.5983L273.083 14.421L273.029 16.8182C272.972 19.3464 272.849 19.7463 272.274 19.2688C271.995 19.0376 271.907 17.3395 271.86 11.2877L271.8 3.60055L271.662 11.5145C271.537 18.7258 271.484 19.4362 271.07 19.5158C270.821 19.5639 270.286 19.2956 269.883 18.9201C269.36 18.433 269.127 18.3417 269.072 18.6017C268.964 19.1058 267.614 19.7102 267.482 19.3137C267.411 19.0992 267.28 19.1037 267.006 19.33C266.705 19.58 266.496 19.5192 265.976 19.0311C265.381 18.4722 265.322 18.2087 265.293 16.0234C265.243 12.1388 264.864 11.5905 264.824 15.3436C264.803 17.158 264.685 18.806 264.558 19.0057C264.432 19.2055 263.874 19.3836 263.319 19.4016C262.446 19.4301 262.256 19.3273 261.916 18.6426C261.699 18.2071 261.475 17.0195 261.418 16.0034C261.248 12.9942 260.839 13.3488 260.839 16.5054V19.3562L259.075 19.1927C258.106 19.103 257.257 18.9738 257.189 18.9061C257.121 18.8384 256.981 18.0387 256.878 17.1292L256.69 15.4755L256.649 16.7951C256.599 18.4668 256.367 19.3421 256.03 19.1335C255.884 19.0438 255.667 19.1317 255.546 19.3272C255.365 19.6208 255.3 19.615 255.177 19.2946C255.065 19.0034 254.683 18.9293 253.646 18.9994C252.886 19.0504 252.137 19.1955 251.982 19.3215C251.503 19.7109 250.19 19.6599 249.38 19.2204C248.955 18.99 248.514 18.8591 248.399 18.93C248.285 19.001 247.801 19.1005 247.325 19.1515C246.849 19.2024 245.92 19.3293 245.262 19.4332C244.36 19.5755 243.986 19.5278 243.747 19.2396C243.495 18.9358 243.171 18.9072 242.174 19.1017C240.457 19.4365 239.124 19.5316 238.808 19.3423C238.663 19.2554 237.416 19.1658 236.038 19.1437C232.377 19.0842 232.612 19.1478 232.577 18.1804C232.557 17.6735 232.501 17.5386 232.435 17.8506C232.038 19.7274 232.11 19.6339 231.211 19.4421C230.387 19.2663 228.988 19.0959 228.057 19.0571C227.727 19.0449 227.595 18.8182 227.595 18.2679C227.595 16.3767 226.941 16.1382 226.702 17.9421C226.609 18.6458 226.456 19.2979 226.362 19.3914C226.059 19.6943 225.485 18.9922 225.453 18.2799C225.425 17.6118 225.416 17.6155 225.253 18.3782C225.12 19.0006 224.943 19.17 224.426 19.17H223.769L223.632 10.9886L223.494 2.80729L223.434 10.9886L223.374 19.17L221.725 19.2364C220.818 19.2731 219.601 19.2902 219.02 19.2772C217.264 19.2307 216.937 19.2327 216.25 19.2935C215.887 19.3261 215.326 19.2898 215.003 19.212C214.679 19.1345 214.346 19.1834 214.261 19.3188C214.177 19.455 213.72 19.5663 213.245 19.5663C212.269 19.5663 211.846 18.9943 211.683 17.455C211.595 16.6184 211.582 16.64 211.544 17.6838C211.507 18.6902 211.436 18.819 210.983 18.7005C210.63 18.6079 210.414 18.725 210.306 19.0655C210.117 19.6606 209.272 19.7056 208.335 19.1702C207.477 18.6794 207.28 18.6841 207.28 19.1947C207.28 19.5486 207.06 19.5874 205.895 19.4394C203.665 19.1564 203.588 19.1095 203.571 18.0304C203.563 17.4958 203.458 16.5834 203.338 16.0028L203.12 14.9472L203.039 16.3987C202.973 17.5784 202.928 17.3808 202.795 15.343L202.632 12.8358L202.582 15.906C202.533 18.8355 202.504 18.9851 201.937 19.1698C201.207 19.4079 198.601 19.41 198.003 19.1735C197.762 19.0781 197.168 19.0774 196.684 19.1726C196.199 19.2676 195.478 19.4087 195.081 19.4853C194.565 19.5852 194.311 19.5016 194.193 19.1934C194.067 18.8652 193.941 18.8321 193.673 19.0551C193.308 19.3581 193.211 19.1453 192.945 17.4551C192.887 17.0877 192.825 17.3066 192.805 17.9492C192.777 18.8824 192.702 19.047 192.415 18.8093C192.22 18.6478 191.983 18.5936 191.887 18.689C191.792 18.7844 191.705 18.5165 191.694 18.0929L191.673 17.3232L191.328 18.2468C190.961 19.2276 190.77 19.0604 190.577 17.5871C190.497 16.9777 190.464 17.0538 190.434 17.9169C190.406 18.6901 190.279 19.0385 190.021 19.0385C189.816 19.0385 189.599 19.1825 189.541 19.3586C189.457 19.6086 189.195 19.607 188.342 19.3505L187.249 19.023L187.161 16.7214L187.073 14.4197L187.019 16.8609C186.976 18.8137 186.885 19.3087 186.569 19.3351C185.082 19.459 184.333 19.1128 184.29 18.2816C184.254 17.6015 184.254 17.6003 184.134 18.2233C184.068 18.5736 183.847 19.0276 183.642 19.2326C183.321 19.5535 183.248 19.551 183.12 19.2163C182.965 18.8138 182.577 18.778 182.036 19.1164C181.864 19.2236 181.634 19.1653 181.524 18.9867C181.413 18.8081 181.248 15.1544 181.155 10.8671L180.988 3.07196L180.942 11.196L180.896 19.3199L179.379 19.1927C178.544 19.1226 177.781 19.0594 177.683 19.052C177.585 19.0439 177.45 18.831 177.384 18.5769C177.311 18.2968 177.251 18.4048 177.233 18.8513C177.204 19.5636 177.186 19.5721 176.703 19.1151C176.428 18.8554 176.145 18.4054 176.074 18.1151C175.99 17.7746 175.933 17.8982 175.913 18.463C175.885 19.2503 175.823 19.3181 175.289 19.1363C174.963 19.025 174.25 18.9557 173.706 18.9818C172.738 19.0283 172.716 19.0062 172.672 18.0445L172.628 17.0598L172.524 18.0623C172.443 18.8392 172.271 19.1215 171.759 19.316C170.674 19.7287 169.901 19.6055 169.043 18.8838C168.262 18.2263 168.231 18.2213 168.231 18.7516C168.231 19.055 168.113 19.303 167.968 19.303C167.823 19.303 167.702 18.9169 167.7 18.4452C167.698 17.9735 167.581 17.4094 167.44 17.1916C167.249 16.8964 167.173 17.064 167.141 17.8514C167.108 18.651 167.071 18.731 166.987 18.1813C166.828 17.1323 166.43 17.2899 166.335 18.4398L166.253 19.4241L164.934 19.3474C164.208 19.3054 163.08 19.2639 162.427 19.2549C160.307 19.2264 154.136 19.2264 153.391 19.2541C152.753 19.2786 152.66 19.1799 152.623 18.4347L152.581 17.5876L152.474 18.4453C152.369 19.298 151.783 19.6223 151.521 18.9731C151.441 18.7762 151.379 18.8292 151.367 19.1052C151.342 19.6189 150.181 19.7659 149.888 19.2919C149.713 19.009 147.388 19.0127 147.388 19.2957C147.388 19.3826 146.646 19.3805 145.74 19.2916C144.807 19.1995 144.019 19.2362 143.926 19.3761C143.828 19.5224 143.685 19.5012 143.576 19.3247C143.373 18.996 141.625 19.0241 141.418 19.3573C141.346 19.4723 141.049 19.4384 140.756 19.2819C140.463 19.1253 140.05 19.0633 139.838 19.1449C139.6 19.2362 139.363 19.0682 139.216 18.7034L138.979 18.1139L138.963 18.7077C138.951 19.2072 138.8 19.3015 138.023 19.3015H137.099L137.046 16.9923L136.992 14.6831L136.903 16.8603C136.815 19.0182 136.808 19.038 136.099 19.0779C135.024 19.1382 134.885 19.1659 134.527 19.3902C134.277 19.5463 134.186 19.1903 134.153 17.9316C134.124 16.8267 134.074 16.5996 134.005 17.2563C133.948 17.8006 133.789 18.246 133.653 18.246C133.517 18.246 133.405 18.5555 133.405 18.934C133.405 19.4872 133.315 19.584 132.944 19.4279C132.69 19.3211 132.226 19.1779 131.912 19.1094C131.599 19.0413 131.25 18.7298 131.136 18.4176C131.023 18.1053 130.859 15.534 130.771 12.7036L130.613 7.55723L130.558 13.2796C130.497 19.6183 130.663 19.0837 128.656 19.435C128.073 19.5373 127.369 19.4431 126.744 19.1813L125.754 18.7663L125.718 16.0647L125.681 13.3632L125.362 15.2105C125.058 16.9728 125.037 17.0093 124.914 16.0023C124.83 15.313 124.77 15.6826 124.741 17.0678C124.7 18.9835 124.646 19.1927 124.169 19.2287C123.879 19.2491 123.621 19.245 123.596 19.2205C123.571 19.192 123.475 16.8551 123.384 14.0246L123.219 8.87828L123.166 13.9376L123.114 18.997L122.302 19.1757C120.903 19.4831 120.212 19.5034 120.212 19.238C120.212 19.0965 119.917 19.0558 119.553 19.1471C118.893 19.3126 118.893 19.3114 118.86 17.2624L118.827 15.2119L118.595 17.0199C118.295 19.353 117.868 20.1748 117.82 18.5109C117.758 16.3822 117.366 15.7931 117.337 17.7851C117.321 18.7793 117.194 19.5666 117.047 19.5666C116.902 19.5666 116.78 19.2399 116.777 18.8408L116.773 18.115L116.317 18.6769C115.727 19.404 114.423 19.6674 114.379 19.0683C114.351 18.6789 114.339 18.679 114.235 19.0693C114.132 19.4534 114.011 19.4583 113.018 19.1162C112.27 18.8581 111.886 18.8271 111.822 19.0196C111.675 19.4591 109.071 19.3621 108.4 18.8919C108.078 18.6661 107.796 18.5767 107.774 18.6942C107.754 18.8112 107.652 18.3729 107.55 17.7195L107.365 16.5319L107.291 17.7195L107.217 18.9071L107.022 17.9835C106.832 17.0813 106.827 17.089 106.793 18.3133C106.757 19.6627 106.537 19.8238 105.706 19.1124C105.265 18.7344 105.168 18.3002 105.129 16.5392C105.105 15.374 105.045 14.955 104.998 15.6082C104.787 18.5445 104.659 18.9792 103.945 19.1584C103.068 19.3785 102.995 19.2852 102.77 17.6444C102.666 16.8874 102.482 15.7336 102.361 15.0804L102.142 13.8928L101.991 15.8721C101.879 17.3417 101.814 16.5941 101.737 12.969L101.633 8.08663L101.482 12.7052C101.399 15.2453 101.304 16.5517 101.27 15.6082C101.179 13.0055 100.699 14.1853 100.694 17.0261C100.691 19.0938 100.643 19.3286 100.288 19.0338C100.067 18.8503 99.8001 18.7871 99.6948 18.8935C99.5896 18.9999 99.3736 16.8495 99.2153 14.1147L98.9271 9.14226L98.8856 14.1062C98.857 17.338 98.7519 19.0132 98.5799 18.9071C98.4347 18.8174 98.297 17.7712 98.2733 16.5822L98.2305 14.4205L98.0724 16.8425C97.9856 18.1746 97.827 19.3517 97.7206 19.4584C97.6138 19.5652 97.0568 19.4991 96.4824 19.3075C95.775 19.0739 94.9871 19.0282 94.0407 19.1652C92.7291 19.3552 91.7926 19.3613 87.0398 19.2129C85.9894 19.1803 85.0978 19.2496 85.0584 19.3678C85.0177 19.4861 84.1608 19.4657 83.1512 19.3226C81.9571 19.1534 80.9153 19.1521 80.1707 19.3188C79.2693 19.5211 78.9068 19.4921 78.4653 19.1826C78.0524 18.8931 77.813 18.8658 77.5569 19.0787C77.3657 19.2373 77.2092 19.2964 77.2092 19.2096C77.2092 19.1227 76.9283 19.1586 76.5846 19.2895C76.241 19.4199 75.5374 19.4314 75.0208 19.314C74.5041 19.1973 73.2714 19.1896 72.2814 19.2977C71.283 19.4057 70.3469 19.3873 70.1794 19.256C70.0135 19.126 69.7758 19.0379 69.6517 19.0603C68.6176 19.2458 68.2675 19.0073 68.1672 18.0487L68.0637 17.059L68.0192 18.1995C67.9785 19.2123 67.9084 19.3335 67.3813 19.2819C67.0548 19.2493 66.5718 19.3145 66.3081 19.4299C66.0285 19.5502 65.5691 19.4972 65.2061 19.3031C64.8221 19.0976 64.0205 19.0165 63.1132 19.0919L61.6429 19.2138L61.6062 18.1364L61.5695 17.059L61.3804 18.1147C61.2622 18.7746 61.1639 17.4389 61.1183 14.5519C61.0775 12.0117 60.9638 8.03323 60.8647 5.71076C60.7111 2.11927 60.6772 2.83474 60.6365 10.4978C60.592 18.8999 60.5578 19.5051 60.1271 19.4709C59.8732 19.4505 59.5782 19.3156 59.4716 19.1704C59.3505 19.0057 59.2763 19.0273 59.2739 19.2283C59.272 19.4053 59.1214 19.5044 58.94 19.4481C58.7586 19.3922 58.2838 19.2748 57.8847 19.1875L57.1592 19.0285L57.0985 12.7656L57.0377 6.50272L56.9595 12.5727C56.9077 16.5702 56.7948 18.5075 56.6285 18.2468C56.4247 17.9276 56.3749 17.9663 56.3717 18.4446C56.3676 19.1087 56.1075 19.2004 55.6179 18.7108C55.357 18.4499 55.2474 18.4523 55.0801 18.7231C54.9154 18.9893 54.7891 18.9661 54.4975 18.6146C54.2012 18.2579 54.0968 16.4643 53.9858 9.82702L53.8464 1.48785L53.7877 10.483C53.7551 15.4303 53.6549 19.5522 53.5644 19.6428C53.4735 19.7338 52.9445 19.5459 52.3883 19.2256C51.4349 18.6767 51.3718 18.5605 51.2839 17.1913L51.1905 15.7392L51.1008 17.4546C51.0116 19.1697 51.0111 19.1699 50.8269 17.9825L50.6423 16.7949L50.6015 17.9165C50.5811 18.5334 50.4462 19.0381 50.3047 19.0381C49.9652 19.0381 49.2966 17.7211 49.0029 16.4736C48.7694 15.4805 48.7677 15.4829 48.7335 16.9268C48.705 18.165 48.654 18.3007 48.3923 17.8505C48.2162 17.5475 48.0226 15.581 47.9373 13.232L47.789 9.14139L47.6145 13.838C47.5016 16.8772 47.3279 18.6699 47.1218 18.9183C46.6974 19.4298 45.8113 19.4037 45.0304 18.8567C44.5795 18.5407 44.3643 18.5024 44.2902 18.7246C44.2327 18.8971 44.0273 19.0382 43.834 19.0382C43.6403 19.0382 43.4223 19.1866 43.3491 19.368C43.2741 19.5536 43.2068 19.4818 43.1954 19.2037C43.1791 18.8229 43.0939 18.7764 42.8233 19.0014C42.3179 19.421 41.6508 18.8339 41.5157 17.8506C41.4305 17.2293 41.3983 17.3004 41.3673 18.1805C41.3217 19.4696 41.029 19.6238 40.6153 18.5764L40.3288 17.8507L40.3002 18.7083C40.2676 19.6482 40.1156 19.7308 39.4025 19.1897C39.142 18.992 38.7115 18.8868 38.4463 18.9565C38.0395 19.0629 37.923 18.842 37.7009 17.5431L37.4376 16.0035L37.4009 17.455C37.3601 18.9606 37.0002 19.9075 36.6456 19.4344C36.4352 19.1538 35.8287 18.9474 35.3923 19.008C33.7561 19.2356 33.5586 19.1732 33.3851 18.3787L33.2122 17.5869L33.1796 18.42C33.1552 19.1177 33.0626 19.2305 32.6189 19.1144C32.2422 19.0158 32.0345 18.6613 31.8994 17.8856L31.7094 16.7952L31.5716 17.8509C31.4616 18.6933 31.3136 18.9236 30.84 18.9909C30.4846 19.0414 30.2432 18.9354 30.2384 18.727C30.2343 18.5085 30.1304 18.5509 29.9616 18.8408C29.5437 19.5586 29.1948 19.3873 29.1553 18.4449C29.1309 17.8178 29.0885 17.7479 29.0045 18.1847C28.9413 18.5134 28.7795 18.7143 28.6446 18.631C28.5096 18.5478 28.3878 18.6348 28.3731 18.8251C28.3568 19.0151 28.252 18.8736 28.1354 18.5107C27.9386 17.8954 27.9223 17.911 27.8978 18.7411C27.8733 19.5011 27.8138 19.5832 27.4758 19.3026C27.2581 19.122 27.0706 18.7808 27.0592 18.5445C27.047 18.2685 26.9907 18.2334 26.9047 18.4463C26.8313 18.6285 26.6626 18.7109 26.5297 18.6285C26.3968 18.5466 26.2884 18.604 26.2884 18.759C26.2884 19.2064 25.4558 19.0815 25.0727 18.5768C24.7482 18.1491 24.7217 18.1588 24.714 18.7088C24.7058 19.359 23.8005 19.5661 23.5611 18.9726C23.4849 18.7834 23.4193 18.8491 23.4071 19.1264C23.3704 19.9332 22.7378 19.4542 22.5635 18.4896L22.4004 17.5869L22.3638 18.5372L22.3271 19.4875L21.4253 19.2053C20.7715 19.0006 20.4524 18.7029 20.2649 18.1231C20.055 17.4738 20.0012 17.432 19.9796 17.9012C19.9511 18.5175 19.5086 18.946 19.2096 18.6472C19.1105 18.5481 18.9609 16.7844 18.8778 14.728L18.7261 10.9891L18.6801 14.9814C18.6275 19.5121 18.5615 19.6734 16.9099 19.2997C16.3344 19.1692 15.6093 19.1263 15.2987 19.2042C14.9881 19.2817 14.6427 19.2002 14.5313 19.0175C14.42 18.8373 14.2476 17.0758 14.1485 15.1033L13.9684 11.5171L13.9268 15.5418C13.9023 17.8283 13.7788 19.5664 13.639 19.5664C13.5037 19.5664 13.3423 19.2399 13.2803 18.8407C13.1776 18.1763 13.1519 18.1618 12.9787 18.6682C12.8384 19.0786 12.6261 19.1903 12.1568 19.1006C11.5282 18.9803 11.5238 18.9559 11.4439 15.1164L11.3636 11.2531L11.3053 15.2778C11.2482 19.2084 11.0269 20.1106 10.4636 18.7087C10.3022 18.3071 10.2195 18.2537 10.2085 18.5443C10.184 19.223 9.47567 19.6935 9.03389 19.3268C8.77261 19.1099 8.11197 19.0891 6.7336 19.2538C5.66992 19.381 4.39433 19.3937 3.89891 19.2824C3.40096 19.1702 2.69847 19.1931 2.3281 19.3337C1.95962 19.474 1.50048 19.5282 1.30788 19.454C1.111 19.3786 0.957733 19.496 0.957733 19.7227C0.957733 19.9445 1.0735 20.0546 1.21453 19.9669C1.7662 19.6261 8.72918 19.6701 9.59823 20.0204C10.1262 20.2332 10.4557 20.263 10.4557 20.0983C10.4557 19.9511 10.6339 19.8307 10.8515 19.8307C11.1813 19.8307 11.2567 20.4355 11.3049 23.4596L11.3628 27.0884L11.4447 23.5721C11.5291 19.9507 11.7851 19.0112 12.4931 19.7196C12.6786 19.9051 12.8302 20.1842 12.8302 20.3397C12.8302 20.4955 12.9492 20.6227 13.0939 20.6227C13.239 20.6227 13.3577 20.4967 13.3577 20.3434C13.3577 20.1897 13.4767 20.1375 13.6214 20.2272C13.7747 20.3218 13.9026 22.0139 13.9263 24.2675L13.9675 28.1446L14.1586 24.2056C14.4003 19.2205 14.3421 19.2859 17.9088 19.9933C18.6209 20.1344 18.635 20.1747 18.6686 22.1616L18.7012 24.1859L18.9291 22.2065C19.214 19.7317 19.3554 19.2965 19.6982 19.8388C19.8335 20.0524 19.9578 20.5835 19.975 21.019L20.0076 21.8107L20.2053 20.9814C20.6145 19.2649 20.643 19.2372 21.5318 19.697C22.1858 20.0354 22.3351 20.2844 22.3676 21.0917C22.4043 21.9889 22.4173 22.0057 22.5233 21.2837C22.6533 20.3993 23.1321 19.9572 23.4383 20.4391C23.5741 20.6532 23.6405 20.6059 23.6434 20.2931C23.6452 20.0085 23.85 19.8313 24.1751 19.8313C24.6028 19.8313 24.7093 20.0189 24.7375 20.821L24.7742 21.8107L24.9372 20.8869C25.0803 20.077 25.1977 19.9616 25.8919 19.9501C26.4649 19.942 26.7307 20.0863 26.8549 20.4779C26.9968 20.9255 27.031 20.8881 27.0526 20.261C27.073 19.6182 27.1391 19.5529 27.4747 19.8315C27.6924 20.0121 27.8866 20.4127 27.9064 20.7215C27.939 21.2588 27.9471 21.2574 28.0568 20.6888C28.164 20.1314 28.1986 20.1222 28.6145 20.5404C29.0304 20.9586 29.0629 20.9513 29.1402 20.4234C29.1935 20.0593 29.3562 19.9122 29.6019 20.0064C29.8106 20.0864 29.9813 20.0146 29.9813 19.8506C29.9813 19.6749 30.2834 19.5893 30.7069 19.6451C31.374 19.7332 31.4449 19.8559 31.5873 21.1717C31.6729 21.9619 31.763 22.248 31.7887 21.8107C31.8698 20.4282 32.1298 19.8314 32.6503 19.8314C33.0792 19.8314 33.1533 20.0568 33.1916 21.4808L33.236 23.1303L33.3897 21.5563C33.538 20.0351 33.5719 19.9764 34.4006 19.8082C34.8722 19.7123 35.258 19.7079 35.2579 19.8C35.2578 19.8905 35.703 19.9648 36.2473 19.9648H37.2368L37.3689 22.9997L37.501 26.0347L37.6392 23.2106C37.7541 20.8571 37.8642 20.3024 38.2987 19.882C38.8122 19.3853 38.8314 19.3854 39.5458 19.8861C39.9448 20.1662 40.2713 20.625 40.2713 20.9054C40.2713 21.1859 40.3903 21.4153 40.535 21.4153C40.6801 21.4153 40.7987 21.0659 40.7987 20.6391C40.7987 19.7983 41.3067 19.2297 41.357 20.0142C41.3855 20.4554 41.3978 20.4565 41.5082 20.0305C41.6387 19.5321 42.1179 19.3887 42.1179 19.8482C42.1179 20.0019 42.2243 20.0619 42.3539 19.9815C42.484 19.9012 42.6698 20.0427 42.7674 20.2959C42.9354 20.7324 42.9582 20.7325 43.2017 20.2978C43.5189 19.733 44.7482 19.7749 44.7746 20.3512C44.7869 20.6317 44.8627 20.5938 45.02 20.2277C45.1447 19.9374 45.2552 19.773 45.2654 19.8623C45.2735 19.9516 45.7588 19.9378 46.3393 19.8338L47.3946 19.6409L47.4272 20.991C47.4476 21.7336 47.5434 24.0632 47.6449 26.1679L47.8295 29.9947L47.8756 26.9305C47.9282 23.4446 48.1523 21.4174 48.4854 21.4174C48.6109 21.4174 48.7226 21.744 48.734 22.1432C48.7585 22.9555 48.8208 22.8376 49.2413 21.2029C49.4585 20.3581 49.6492 20.0867 49.981 20.1496C50.303 20.2108 50.4718 20.6026 50.5845 21.5517L50.7411 22.869L50.8201 21.4174L50.8992 19.9659L51.0879 21.0216L51.2771 22.0772L51.3138 21.1403C51.3631 19.9052 51.7498 19.5225 52.5708 19.8967C52.9157 20.0541 53.198 20.2893 53.198 20.4197C53.198 20.5502 53.3166 20.5832 53.4618 20.4939C53.6346 20.3871 53.7455 22.7266 53.783 27.2741L53.8404 34.2174L53.9811 27.3557C54.0581 23.5817 54.2175 20.3455 54.3349 20.164C54.6284 19.7106 55.0448 19.7492 55.0448 20.23C55.0448 20.7504 55.4727 20.739 55.6743 20.2137C55.8891 19.6543 56.363 19.992 56.368 20.7079C56.3718 21.1781 56.4198 21.2121 56.6277 20.8902C56.7985 20.6255 56.9041 22.2007 56.9452 25.6406L57.0072 30.787L57.1474 25.2447L57.2876 19.7026L58.211 19.7951C58.7189 19.8461 59.2087 20.0072 59.2994 20.1531C59.407 20.3264 59.5268 20.3174 59.6446 20.1246C59.7437 19.9639 59.9964 19.8327 60.2052 19.8327C60.5281 19.8327 60.5929 21.2171 60.6343 29.0037C60.6811 37.85 60.6893 37.9831 60.8617 32.7644C60.9599 29.7888 61.0708 25.6915 61.1079 23.6594C61.1507 21.3174 61.2494 20.2545 61.3769 20.7563L61.5783 21.5481L61.6109 20.7271C61.6394 19.9456 61.7047 19.8987 62.9465 19.7516C63.6639 19.6668 64.5841 19.6921 64.9912 19.8083C65.3984 19.9245 65.9608 19.9388 66.2411 19.8409C66.5215 19.7423 67.0259 19.7137 67.3623 19.7781C67.9083 19.8825 67.9795 20.055 68.024 21.3819L68.0737 22.8686L68.1683 21.3727L68.2629 19.8769L70.8227 19.8251C76.7511 19.7048 77.7375 19.7097 77.8009 19.8577C77.8376 19.9442 78.6988 19.9254 79.7145 19.8166C80.7303 19.7077 81.5914 19.6966 81.6282 19.792C81.6803 19.9278 85.3375 19.9862 85.9146 19.8602C85.9872 19.8439 88.2831 19.7949 91.0168 19.7505C94.5175 19.6934 96.1679 19.7627 96.5988 19.987C97.0213 20.2063 97.2952 20.2198 97.4842 20.0306C97.8348 19.6799 98.0209 20.4592 98.1305 22.7363C98.2084 24.3509 98.2161 24.3238 98.2638 22.2744C98.2923 21.0327 98.428 20.0971 98.5785 20.0971C98.7456 20.0971 98.8573 22.3454 98.883 26.2331L98.9237 32.3692L99.1467 26.0509C99.3717 19.6827 99.5201 18.89 100.336 19.7064C100.576 19.9461 100.689 20.7845 100.689 22.3215C100.689 24.9304 101.145 25.3992 101.285 22.9342C101.337 22.027 101.428 23.4224 101.487 26.0352L101.594 30.7856L101.745 26.0352C101.879 21.8012 101.906 21.586 101.994 24.0558C102.049 25.5799 102.132 26.4113 102.179 25.9033C102.269 24.9372 102.731 21.8057 102.968 20.559C103.126 19.73 104.105 19.5096 104.14 20.2952C104.153 20.5712 104.215 20.6242 104.294 20.4273C104.537 19.8257 104.876 20.0852 104.984 20.9551C105.075 21.6835 105.097 21.6405 105.133 20.6693C105.162 19.8585 105.271 19.5704 105.505 19.6794C105.687 19.7638 106.043 19.9065 106.297 19.9962C106.675 20.1296 106.768 20.5221 106.81 22.1737L106.862 24.1882L106.995 22.3408L107.129 20.4935L107.293 22.3408L107.457 24.1882L107.504 22.4068C107.567 20.0162 107.912 19.6712 110.123 19.7911C111.144 19.8466 111.773 19.997 111.776 20.1871C111.778 20.3603 111.891 20.3212 112.035 20.0978C112.176 19.88 112.293 19.8054 112.295 19.9322C112.297 20.0586 112.454 20.0341 112.643 19.8771C112.892 19.67 113.182 19.6928 113.698 19.9611C114.089 20.1642 114.41 20.2189 114.41 20.0823C114.41 19.7214 116.095 19.7777 116.468 20.1508C116.714 20.3971 116.784 20.3938 116.784 20.1345C116.784 19.9518 116.903 19.8755 117.048 19.9652C117.193 20.055 117.312 20.544 117.312 21.0521C117.312 22.2148 117.833 21.9806 117.856 20.8074C117.873 19.9713 117.877 19.97 118.155 20.6251C118.31 20.988 118.526 21.7006 118.636 22.2086C118.808 23.0112 118.838 22.9206 118.864 21.517L118.893 19.9017L121.003 19.8731L123.114 19.8446L123.17 25.314L123.225 30.7834L123.382 25.3731C123.468 22.3975 123.562 19.9406 123.59 19.9134C123.619 19.8848 123.88 19.8807 124.17 19.9051C124.659 19.9418 124.698 20.1343 124.698 22.528C124.698 24.074 124.804 25.1109 124.961 25.1109C125.107 25.1109 125.243 24.6655 125.265 24.1212L125.306 23.1315L125.491 24.3192C125.639 25.2739 125.684 25.0152 125.718 22.9996C125.743 21.6206 125.833 20.2242 125.921 19.8964L126.081 19.3005L126.952 19.8391C127.504 20.1799 127.885 20.2777 127.992 20.1049C128.084 19.9553 128.688 19.8325 129.332 19.8325H130.504L130.562 28.2118L130.62 36.5911L130.76 28.6737C130.896 20.9238 131.079 19.3048 131.816 19.3048C131.965 19.3048 132.086 19.4152 132.086 19.5502C132.086 19.6852 132.353 19.8336 132.68 19.8801C133.199 19.9539 133.293 20.1622 133.427 21.5479C133.525 22.5524 133.613 22.8419 133.668 22.3396C133.731 21.7654 133.804 21.9465 133.933 22.9994C134.105 24.4016 134.113 24.3774 134.154 22.2861L134.197 20.1212L135.186 19.8464C136.825 19.391 136.831 19.3961 136.887 21.4819L136.938 23.3953L137.031 21.6139L137.124 19.8324H138.035C138.844 19.8324 138.951 19.914 138.986 20.5582L139.027 21.2839L139.136 20.5582C139.259 19.747 138.58 19.8233 145.873 19.8019C147.288 19.7981 148.445 19.7012 148.445 19.5874C148.445 19.4736 149.059 19.5185 149.809 19.6877C150.73 19.8952 151.238 20.1613 151.374 20.5076C151.559 20.9806 151.576 20.9743 151.593 20.4265C151.621 19.548 152.394 19.6682 152.442 20.5586L152.483 21.2844L152.593 20.5586C152.654 20.1594 152.843 19.8291 153.015 19.8245C153.958 19.8 163.584 19.7837 164.87 19.8082C166.342 19.8326 166.387 19.8559 166.391 20.5599C166.393 20.959 166.51 21.4638 166.651 21.6815C166.845 21.9816 166.916 21.854 166.945 21.1537L166.986 20.2299L167.18 21.1537L167.375 22.0773L167.411 21.1316C167.456 19.9224 167.728 19.6553 168.136 20.4194L168.458 21.0212L168.642 20.2876C168.795 19.6772 168.921 19.5875 169.389 19.7533C169.699 19.863 170.516 19.9221 171.205 19.885L172.459 19.8177L172.508 21.3436L172.556 22.8694L172.654 21.47C172.752 20.0556 173.322 19.3605 173.778 20.0986C173.938 20.3575 174.07 20.3098 174.326 19.9C174.801 19.1394 175.887 19.6265 175.893 20.6025C175.897 21.1407 175.951 21.2018 176.152 20.8899C176.38 20.538 176.41 20.538 176.421 20.8899C176.43 21.1297 176.584 21.0253 176.812 20.6261L177.189 19.9663L177.218 20.89C177.25 21.8423 177.314 21.7877 177.576 20.5891C177.767 19.7177 178.304 19.5048 179.758 19.723L180.9 19.8942L180.943 26.0002L180.986 32.1062L181.171 26.2056C181.314 21.6764 181.44 20.2535 181.715 20.0836C181.912 19.9617 182.136 19.949 182.212 20.055C182.393 20.3058 182.787 20.2805 183.248 19.9878C183.5 19.8288 183.732 19.9094 183.974 20.2401C184.31 20.7 184.33 20.6933 184.33 20.1178C184.33 19.6047 184.423 19.5393 184.923 19.7027C185.25 19.8095 185.84 19.8874 186.235 19.8768L186.952 19.8564L187.035 23.0781L187.118 26.2998L187.175 22.9349C187.207 21.0841 187.321 19.57 187.431 19.57C187.541 19.57 188.041 19.6874 188.542 19.8314C189.144 20.0038 189.542 20.0038 189.714 19.8314C190.217 19.3289 190.398 19.5794 190.433 20.8236C190.465 21.9469 190.484 21.9869 190.63 21.2089C190.811 20.247 191.199 20.0644 191.49 20.804C191.649 21.2085 191.688 21.18 191.729 20.6254C191.77 20.0859 191.802 20.0591 191.909 20.4786C192.03 20.9537 192.066 20.9439 192.396 20.3465C192.741 19.7233 192.755 19.7418 192.793 20.889C192.814 21.5422 192.883 21.8391 192.945 21.5488C193.006 21.2585 193.109 20.7705 193.174 20.4644C193.276 19.9795 193.487 19.9052 194.812 19.8865C195.649 19.8743 197.729 19.8282 199.434 19.7833L202.534 19.7018L202.584 22.6049L202.635 25.5079L202.798 23.0007C202.896 21.4957 202.981 21.0157 203.011 21.7999C203.078 23.5269 203.533 23.0669 203.64 21.1642L203.721 19.7235L205.172 19.8198C208.179 20.0196 210.548 19.9319 210.653 19.6167C210.71 19.4459 210.925 19.3056 211.13 19.3056C211.387 19.3056 211.518 19.6563 211.549 20.4273L211.593 21.5489L211.697 20.5537C211.755 19.9975 211.914 19.6285 212.057 19.7172C212.317 19.8774 213.946 19.888 219.947 19.7677L223.245 19.7017L223.382 28.8067L223.52 37.9117L223.58 28.9963C223.635 21.0285 223.687 20.0634 224.072 19.9157C224.309 19.8247 224.716 19.883 224.976 20.0461C225.322 20.2618 225.477 20.263 225.548 20.0499C225.618 19.8395 225.808 19.8448 226.226 20.0703C226.72 20.3345 226.807 20.6056 226.807 21.8763C226.807 23.0557 226.875 23.3032 227.13 23.0482C227.308 22.8704 227.516 22.1125 227.592 21.3639C227.717 20.1384 227.806 19.9828 228.483 19.8025C228.897 19.6924 229.795 19.6687 230.479 19.7495C231.598 19.882 231.766 19.9929 232.154 20.8555L232.584 21.8142L232.597 20.85L232.609 19.8857L235.181 19.7806C236.596 19.7227 237.872 19.7602 238.017 19.8605C238.163 19.9624 238.756 19.9844 239.337 19.9098C240.324 19.783 242.809 19.7577 244.613 19.8568C246.097 19.9384 247.779 19.7614 248.126 19.4874C248.374 19.2921 248.698 19.3467 249.259 19.6778C249.849 20.0268 250.319 20.0964 251.154 19.9588C251.765 19.8581 252.387 19.677 252.537 19.5567C252.859 19.2982 254.988 19.7321 255.506 20.162C255.778 20.3879 255.92 20.3745 256.086 20.1062C256.3 19.7592 256.507 20.9892 256.705 23.7943C256.757 24.5201 256.809 24.2123 256.839 23.0025C256.919 19.8074 256.9 19.8355 259.023 19.8355H260.839L260.881 25.0478L260.924 30.2601L261.211 25.5096C261.369 22.8969 261.626 20.5441 261.782 20.2811C262.007 19.9015 262.334 19.8198 263.365 19.8851L264.664 19.9675L264.804 26.1694C264.923 31.4863 264.956 31.863 265.034 28.8086C265.084 26.849 265.2 23.9987 265.291 22.4746C265.456 19.7068 265.457 19.7037 266.116 19.7953C266.478 19.8458 266.924 20.009 267.105 20.1574C267.334 20.3449 267.435 20.3368 267.435 20.1329C267.435 19.9698 267.732 19.8365 268.094 19.8365C268.66 19.8365 268.756 19.9592 268.769 20.6942L268.785 21.5519L269.113 20.6282C269.321 20.0422 269.581 19.7409 269.824 19.804C270.034 19.8587 270.531 19.9085 270.928 19.9142L271.65 19.9264L271.724 28.1297L271.797 36.333L271.86 27.9784C271.92 19.7688 271.931 19.6263 272.449 19.7619C272.904 19.881 272.983 20.1415 273.02 21.6506L273.063 23.4012L273.241 21.9497L273.418 20.4981L273.461 21.7674C273.521 23.5199 274.032 23.0921 274.032 21.2899C274.032 19.8507 274.545 18.903 274.576 20.2847C274.592 20.9919 274.605 20.9986 274.831 20.4322C275.084 19.8035 275.726 19.6417 276.028 20.1306C276.146 20.3218 276.265 20.3307 276.373 20.155C276.544 19.879 277.586 19.7284 278.846 19.7974C279.404 19.8259 279.577 19.9748 279.593 20.431C279.605 20.8143 279.667 20.8888 279.765 20.641C279.848 20.4298 280.035 20.1294 280.181 19.9731C280.484 19.6485 282.21 19.7765 282.21 20.1235C282.21 20.2491 282.515 20.2361 282.887 20.095C283.834 19.7349 284.057 19.7712 284.057 20.2837C284.057 20.6727 284.107 20.6646 284.444 20.2177C284.683 19.9017 284.835 19.8377 284.84 20.0509C284.844 20.2409 284.967 20.3229 285.113 20.2332C285.283 20.1276 285.396 21.5857 285.433 24.3743L285.489 28.6785L285.64 24.1919C285.766 20.4551 285.809 20.1023 285.897 22.0806L286.002 24.4559L286.151 22.2126L286.3 19.9693L287.289 19.8874L288.278 19.8054L288.315 21.4708C288.335 22.3867 288.397 22.8393 288.453 22.4764C288.509 22.1135 288.687 21.3115 288.847 20.6943C289.135 19.5906 289.147 19.5809 289.602 20.1059C289.992 20.5551 290.09 20.5761 290.219 20.2384C290.304 20.0179 290.496 19.8373 290.645 19.8373C290.818 19.8373 290.933 21.2604 290.962 23.73L291.006 27.6227L291.193 24.8516C291.295 23.3275 291.394 21.5758 291.412 20.9589C291.441 19.947 291.509 19.8373 292.104 19.8373C292.467 19.8373 292.764 19.9706 292.764 20.1337C292.764 20.3396 292.884 20.3306 293.156 20.1051C293.372 19.9257 293.743 19.8539 293.981 19.9453C294.219 20.0366 294.566 19.9861 294.753 19.8299C294.982 19.6395 295.146 19.6358 295.258 19.8177C295.357 19.9775 295.905 20.022 296.601 19.9266C297.752 19.7688 297.778 19.7814 297.816 20.527L297.857 21.2886L297.967 20.5628C298.152 19.3374 298.567 19.7578 298.617 21.2227L298.664 22.6082L298.763 21.3562C298.834 20.4521 299.004 20.0278 299.375 19.8294C299.712 19.6491 299.888 19.6455 299.888 19.8212C299.888 19.9668 300.067 20.0177 300.284 19.9341C300.592 19.8163 300.68 19.9982 300.68 20.7498C300.68 21.333 300.786 21.6519 300.946 21.5528C301.093 21.4623 301.322 21.6633 301.457 21.9991C301.656 22.4948 301.705 22.3489 301.719 21.2243C301.727 20.4622 301.795 19.8388 301.868 19.8388C302.08 19.8388 302.976 20.7962 303.133 21.1913C303.212 21.3907 303.302 21.1995 303.333 20.7624L303.388 19.9707L303.583 20.8943L303.777 21.8181L303.81 20.8284C303.83 20.2841 303.894 19.8388 303.955 19.8388C304.453 19.8388 304.9 20.2567 304.904 20.7247C304.907 21.1866 304.955 21.2177 305.163 20.8943C305.377 20.5645 305.425 20.5861 305.454 21.0264C305.475 21.3591 305.552 21.2617 305.659 20.7626C305.792 20.1402 305.969 19.9708 306.485 19.9708H307.142L307.284 24.5893L307.425 29.2079L307.481 24.5234C307.518 21.614 307.638 19.8389 307.802 19.8389C307.951 19.8389 308.084 20.7239 308.106 21.8843L308.147 23.9296L308.411 21.8843C308.556 20.7593 308.775 19.8389 308.898 19.8389C309.02 19.8389 309.124 20.0469 309.129 20.3008C309.137 20.7406 309.149 20.7406 309.406 20.3008C309.554 20.0468 309.847 19.8389 310.057 19.8389C310.364 19.8389 310.446 20.3718 310.473 22.544C310.501 24.7782 310.542 25.0424 310.717 24.0615C310.833 23.4083 310.937 22.314 310.948 21.6296C310.964 20.7026 311.092 20.3187 311.455 20.1242C311.912 19.8791 311.956 20.0634 312.149 23.0839C312.263 24.8555 312.437 28.7988 312.537 31.847L312.719 37.3891L312.798 30.2635C312.842 26.298 312.966 23.489 313.078 23.9296C313.249 24.6011 313.287 24.501 313.326 23.2698C313.371 21.8836 313.776 19.3369 313.839 20.0461C313.864 20.2989 314 20.3157 314.38 20.1122C314.661 19.9622 315.195 19.839 315.567 19.839C316.167 19.839 316.249 19.9524 316.284 20.8287C316.316 21.6249 316.345 21.6765 316.433 21.0925C316.632 19.7797 318.316 19.4321 318.391 20.6884L318.427 21.2905L318.542 20.6927C318.702 19.8615 319.147 20.2273 319.147 21.1897C319.147 22.317 319.662 21.8686 319.731 20.6811C319.764 20.1453 319.856 21.8447 319.938 24.4574L320.089 29.2079L320.146 24.5234C320.192 20.6469 320.268 19.8389 320.582 19.8389C320.792 19.8389 321.03 19.9474 321.111 20.0795C321.193 20.2121 321.586 20.2312 321.984 20.1223C322.627 19.9466 322.744 20.0159 323.018 20.7393L323.328 21.5543L323.349 20.6107C323.369 19.7084 323.409 19.6681 324.291 19.6871C325.02 19.7034 325.221 19.8175 325.245 20.2346C325.27 20.6795 325.296 20.6899 325.397 20.3007C325.485 19.9676 325.807 19.8297 326.554 19.8059C327.124 19.7855 327.738 19.7521 327.92 19.7264C328.101 19.7019 328.517 19.7941 328.843 19.9335C329.31 20.1333 329.445 20.4179 329.473 21.2668C329.493 21.9241 329.549 22.0881 329.613 21.6863C329.913 19.7804 329.77 19.8748 332.426 19.8309C333.127 19.8187 334.002 19.6951 334.371 19.5549C334.849 19.373 335.157 19.3959 335.444 19.634C335.957 20.0595 339.472 19.9871 339.745 19.5451C340.133 18.9167 340.746 19.5533 340.929 20.7738C341.12 22.0483 341.56 21.9499 341.57 20.6307C341.574 19.9991 341.65 19.9684 343.332 19.9142C344.299 19.8815 345.213 19.7348 345.363 19.5843C346.061 18.8859 346.322 19.3168 346.356 21.2245L346.388 23.1379L346.633 21.5544L346.878 19.971L348.05 19.9465C349.068 19.9261 349.226 19.9942 349.241 20.4743C349.258 21.0132 349.266 21.0122 349.545 20.4336C349.876 19.7476 350.279 19.6493 350.279 20.2546C350.279 20.613 350.341 20.6064 350.74 20.2056C351.18 19.7637 351.209 19.7845 351.343 20.6486L351.483 21.5551L351.68 20.408C351.831 19.5209 351.969 19.2965 352.286 19.4183C352.512 19.5047 352.805 19.5757 352.939 19.5757C353.072 19.5757 353.201 20.0804 353.225 20.6974C353.268 21.7719 353.274 21.7797 353.37 20.8817C353.464 20.0011 353.53 19.9424 354.447 19.9146C354.984 19.8983 355.748 19.802 356.144 19.7005C356.54 19.599 357.164 19.5912 357.529 19.6842C358.1 19.8273 358.199 20.0088 358.231 20.9676L358.268 22.0842L358.428 21.032C358.578 20.0535 358.66 19.9682 359.606 19.8154C360.166 19.7248 361.385 19.7298 362.316 19.8276C363.247 19.9239 364.095 19.9965 364.201 19.9887C364.446 19.9683 364.703 25.2081 364.821 32.6423C364.899 37.4813 364.926 36.902 364.987 29.1643L365.059 19.8802H366.507L366.512 19.8768Z" fill="black"/>
</svg>
