<svg width="464" height="38" viewBox="0 0 464 38" fill="none" xmlns="http://www.w3.org/2000/svg">
<path d="M24.6125 35.815C24.6537 33.0973 25.0523 32.3336 25.1062 34.8693C25.1722 37.9821 25.5926 36.5745 25.6578 33.0219C25.6944 31.0049 25.7702 30.4008 25.9056 31.0426C26.0735 31.8403 26.109 31.7324 26.1652 30.2508C26.2019 29.3073 26.2834 28.7358 26.3479 28.9808C26.4575 29.3961 26.4999 29.3966 26.9768 28.9877C27.3952 28.6294 27.4968 28.164 27.5351 26.431C27.5795 24.419 27.7568 27.2887 28.0398 34.605C28.0985 36.1193 28.1853 34.9713 28.2799 31.4381L28.4279 25.8959L28.4857 31.5568C28.5697 39.7737 29.148 38.4125 29.8255 28.4031L30.0489 25.1041L30.1064 29.9865C30.1431 32.9939 30.2507 34.6662 30.3905 34.3411C30.5499 33.9702 30.6322 34.3627 30.6669 35.6607C30.7035 37.0918 30.7622 37.3297 30.918 36.7163C31.1087 35.9658 31.1222 35.9589 31.1768 36.5844L31.2343 37.2442L31.4454 36.5844C31.5616 36.2215 31.6949 33.6087 31.7413 30.7783L31.8261 25.632L31.9729 31.702C32.078 36.0579 32.1363 36.8334 32.1783 34.4481C32.2672 29.3838 32.5533 25.4233 32.8014 25.8147C32.9298 26.017 33.0411 25.2865 33.0709 24.0485L33.1214 21.9372L33.2727 23.7846L33.4239 25.632L33.6318 24.3124C33.7463 23.5866 33.9102 22.424 33.9962 21.7288C34.2489 19.6846 34.7276 20.3843 34.8749 23.0138C35 25.2455 35.0171 25.3009 35.2046 24.0776C35.3135 23.3679 35.4044 22.1803 35.4064 21.4385C35.4102 20.0274 35.9022 18.6703 35.9427 19.9578L35.9631 20.6176L36.213 19.9937C36.4196 19.4776 36.5309 19.4262 36.8559 19.6961C37.1657 19.9534 37.2488 19.9538 37.2488 19.6982C37.2488 19.5197 37.4233 19.4406 37.636 19.5223C37.8492 19.6041 38.0935 19.5574 38.1793 19.4186C38.443 18.9917 39.0951 19.1393 39.104 19.6281C39.1122 20.0679 39.1285 20.0679 39.4627 19.6281C39.6971 19.319 40.1746 19.1662 40.9054 19.1662C41.8531 19.1662 42.0017 19.2448 42.0282 19.76C42.0486 20.1661 42.0955 20.2157 42.1746 19.9169C42.2382 19.6766 42.5512 19.4161 42.8695 19.338C43.3691 19.2154 50.1085 19.0655 52.4189 19.1256C52.8542 19.1371 53.6549 19.157 54.1981 19.1702C54.7413 19.1833 55.3913 19.0792 55.6424 18.9386C55.9371 18.7736 56.2689 18.774 56.5785 18.9396C56.8422 19.0808 57.6764 19.1805 58.4322 19.161C59.1879 19.1414 60.6373 19.105 61.6531 19.0798C62.6688 19.0545 63.9415 19.1229 64.4813 19.2315C65.1441 19.3649 65.857 19.2952 66.6767 19.0168C67.439 18.7578 68.0062 18.6948 68.2016 18.8471C68.7443 19.2703 69.6165 19.3743 70.7971 19.1567C71.4271 19.0406 72.833 19.0452 73.9213 19.1669C75.587 19.3533 75.9751 19.3207 76.3749 18.9603C76.7893 18.5868 76.9576 18.5778 77.6941 18.8891C78.1584 19.0853 78.8352 19.2447 79.198 19.2432C79.5607 19.2422 81.7572 19.2236 84.0789 19.2028C86.4006 19.182 88.6399 19.1624 89.0551 19.159C89.4703 19.156 90.0109 19.0453 90.2565 18.9139C90.5235 18.7709 90.8565 18.7712 91.0846 18.9145C91.2946 19.0464 92.7722 19.1435 94.3683 19.1304C98.3079 19.0982 98.1886 19.0787 98.2299 19.7596L98.2665 20.3534L98.3807 19.7596C98.4874 19.2048 98.637 19.1637 100.653 19.1336C107.868 19.026 112.774 19.1287 113.037 19.3925C113.246 19.6013 113.422 19.601 113.675 19.3915C113.995 19.1252 122.421 19.0103 129.343 19.178C130.586 19.2081 131.865 19.1494 132.186 19.0476C132.506 18.9458 133.122 18.9402 133.554 19.0354C134.218 19.1812 134.343 19.3379 134.36 20.0447L134.381 20.8815L134.636 20.1847C134.955 19.315 136.444 18.8754 138.066 19.1722C139.317 19.4009 140.936 19.27 141.295 18.911C141.432 18.7746 141.792 18.7765 142.158 18.9159C142.503 19.0474 144.477 19.1443 146.543 19.1313C150.608 19.1061 151.385 19.1073 154.39 19.1436C155.479 19.1566 158.293 19.1375 160.645 19.101L164.92 19.0343L165.021 19.8261C165.111 20.526 165.128 20.503 165.165 19.6281C165.207 18.6353 165.413 18.4226 165.88 18.8884C166.209 19.2165 169.095 19.3367 170.022 19.061C170.617 18.884 170.748 18.9272 170.748 19.302C170.748 19.649 170.831 19.6897 171.094 19.4714C171.284 19.3133 172.21 19.1971 173.151 19.2131C174.092 19.2295 175.1 19.1147 175.391 18.9588C175.714 18.786 176.07 18.7674 176.302 18.911C176.512 19.0407 179.058 19.1339 181.96 19.1181C184.863 19.1022 187.631 19.1774 188.112 19.2847C188.765 19.4302 189.112 19.3675 189.475 19.0381C189.856 18.6936 190.081 18.6591 190.496 18.8813C190.788 19.038 191.333 19.1662 191.705 19.1662C192.077 19.1662 192.382 19.2935 192.382 19.449C192.382 19.6045 192.568 19.5451 192.797 19.317C193.275 18.8387 193.601 18.7912 193.833 19.1662C194.082 19.569 195.196 19.4806 195.655 19.0217C195.953 18.7227 196.194 18.683 196.55 18.8736C197.199 19.221 209.188 19.2437 209.402 18.8976C209.606 18.5675 210.586 18.5568 210.586 18.8846C210.586 19.1124 236.366 19.3605 239.014 19.1581C239.361 19.1316 248 19.1317 251.48 19.1581C256.152 19.1936 259.999 19.4285 260.324 19.698C260.65 19.9685 260.723 21.2544 260.764 27.4456C260.797 32.2035 260.873 34.016 260.978 32.4936L261.143 30.1184L261.196 32.7576C261.225 34.2091 261.334 35.6936 261.437 36.0565C261.615 36.6834 261.633 36.6703 261.794 35.7926C261.964 34.8726 261.964 34.8736 262.025 36.0565C262.077 37.0658 262.118 37.145 262.297 36.5843C262.498 35.9592 262.51 35.9696 262.535 36.7822C262.551 37.3168 262.697 37.6399 262.92 37.6399C263.41 37.6399 263.6 35.8237 263.666 30.5143L263.72 26.1597L263.873 29.8545C264.046 34.0238 264.611 36.2575 264.675 33.0214C264.695 32.0054 264.806 30.6396 264.922 29.9864C265.119 28.8798 265.138 28.9428 265.202 30.9101C265.268 32.9699 265.275 32.9892 265.476 31.7019C265.589 30.9761 265.716 29.4322 265.758 28.271C265.826 26.4272 265.855 26.5943 265.992 29.5906C266.141 32.8675 266.152 32.9208 266.24 30.7782L266.333 28.5349L266.529 30.1184C266.637 30.9893 266.739 32.9047 266.754 34.3747C266.783 37.1159 267.05 37.8635 267.825 37.3842C268.032 37.2562 268.482 37.2698 268.866 37.4156C269.313 37.5856 269.572 37.5827 269.631 37.4074C269.679 37.2614 269.875 37.2018 270.066 37.275C270.337 37.3789 270.45 36.6641 270.579 34.0273C270.671 32.1678 270.825 29.9931 270.921 29.1948C271.078 27.8967 271.117 27.827 271.283 28.535C271.41 29.0765 271.485 28.6177 271.519 27.0835C271.548 25.8497 271.671 24.6027 271.796 24.3124C271.931 23.9989 272.03 26.5945 272.041 30.704C272.057 36.7413 272.11 37.6041 272.455 37.4716C272.793 37.3419 272.855 36.2344 272.877 29.8923C272.894 25.7584 272.997 22.7575 273.115 23.1248C273.231 23.4877 273.365 26.8724 273.413 30.6463L273.5 37.5081L273.643 28.667C273.721 23.8043 273.826 21.3104 273.876 23.1248L273.966 26.4237L274.326 24.0485C274.523 22.7421 274.764 21.1586 274.86 20.5296C275.041 19.3508 275.478 19.4692 275.486 20.6992C275.489 21.0375 275.607 21.236 275.753 21.1454C275.899 21.0558 276.017 21.1674 276.017 21.3938C276.017 21.6201 276.136 21.8052 276.281 21.8052C276.426 21.8052 276.546 21.538 276.548 21.2114C276.557 19.5113 277.302 18.9297 277.372 20.5672C277.401 21.1999 277.437 21.2599 277.523 20.8085C277.587 20.4781 277.788 19.9205 277.97 19.5693C278.27 18.99 278.362 18.9624 278.956 19.2708C279.319 19.4595 279.838 19.5265 280.122 19.4214C280.767 19.1831 290.862 19.0244 295.099 19.186C296.67 19.246 297.222 19.1742 297.408 18.8855C297.561 18.6465 297.725 18.6039 297.849 18.7703C298.13 19.1446 298.884 19.2697 300.554 19.2186C301.352 19.1941 302.836 19.1803 303.851 19.188C304.867 19.1962 306.054 19.197 306.49 19.191C306.925 19.1849 307.994 19.188 308.864 19.1979C309.735 19.2081 310.803 19.1949 311.239 19.169C312.265 19.1071 313.346 19.1009 316.234 19.1396C317.866 19.1617 318.654 19.0697 318.796 18.8413C318.953 18.5864 319.187 18.6221 319.823 18.9975C320.691 19.5107 322.345 19.4437 323.666 18.842C324.116 18.6364 324.385 18.645 324.66 18.8738C325.13 19.2635 323.494 19.2398 347.78 19.2071C359.026 19.1921 370.126 19.2353 372.448 19.3028C374.77 19.3705 377.193 19.4205 377.832 19.4136C378.513 19.4067 379.085 19.544 379.213 19.7455C379.333 19.9348 379.451 21.2773 379.474 22.7288C379.515 25.2222 379.528 25.2805 379.713 23.7845C379.821 22.9136 379.923 21.5181 379.938 20.6835C379.955 19.8489 380.082 19.166 380.222 19.166C380.965 19.166 381.151 20.5094 381.299 26.9515L381.451 33.5493L381.546 28.403C381.638 23.3998 381.646 23.3374 381.826 26.1597C381.927 27.7564 382.028 30.8442 382.049 33.0215C382.085 36.686 382.347 38.4068 382.715 37.3687C382.791 37.155 382.888 36.4457 382.931 35.7925L383.01 34.605L383.272 36.0565C383.417 36.8548 383.652 37.4797 383.796 37.445C383.94 37.4104 384.124 36.4009 384.206 35.2018L384.355 33.0215L384.403 35.0512C384.452 37.0312 384.793 37.8321 385.27 37.08C385.396 36.8799 385.515 35.2317 385.533 33.4173C385.553 31.6029 385.654 29.4059 385.762 28.5349C385.901 27.4142 385.969 28.47 385.997 32.1482C386.021 35.2846 386.14 37.4096 386.299 37.508C386.464 37.6101 386.581 36.95 386.611 35.7422L386.658 33.8132L386.811 35.7925C386.909 37.0581 387.014 35.2499 387.103 30.7782C387.197 26.1118 387.347 23.6088 387.555 23.2566C387.8 22.8417 387.868 24.263 387.874 29.9049C387.878 34.3954 387.981 37.142 388.146 37.2441C388.317 37.3493 388.41 36.2928 388.41 34.2657C388.41 30.496 388.697 25.4353 388.9 25.6379C388.979 25.7178 389.119 28.4806 389.209 31.7775L389.374 37.7719L389.45 30.5143C389.492 26.5226 389.584 23.4942 389.654 23.7845C389.905 24.8286 390.257 24.8215 390.309 23.7714C390.337 23.1981 390.433 23.9759 390.521 25.5001L390.682 28.2712L390.786 23.9166L390.89 19.562L391.049 22.4651L391.208 25.3681L391.302 22.729C391.354 21.2775 391.445 20.4758 391.503 20.9476C391.662 22.2264 392.104 21.9836 392.104 20.6177C392.104 19.5112 392.448 19.0117 392.697 19.7576C392.777 19.9989 392.917 19.9743 393.227 19.6644C393.591 19.3004 394.672 19.2395 401.252 19.2125C405.435 19.1954 410.341 19.1938 412.155 19.2086C413.969 19.2237 416.106 19.1996 416.904 19.1546C417.702 19.1099 418.771 19.08 419.279 19.0881C424.097 19.1643 433.058 19.1281 433.323 19.0313C433.507 18.9641 434.509 19.0028 435.55 19.117C436.65 19.2378 437.7 19.2213 438.057 19.0775C438.903 18.7363 439.594 18.6815 439.594 18.9555C439.594 19.0815 444.076 19.1728 449.554 19.1584C455.031 19.1441 460.373 19.1396 461.423 19.1494L463.332 19.1661L463.405 28.469C463.446 33.5857 463.478 29.2212 463.478 18.7702C463.478 8.31925 463.445 3.95288 463.405 9.06721L463.332 18.366L462.742 18.4984C462.417 18.5712 461.142 18.6289 459.909 18.6267C458.676 18.6246 457.37 18.6377 457.007 18.6564C456.644 18.6752 453.26 18.6711 449.488 18.6475C445.715 18.6242 442.45 18.6385 442.232 18.6801C442.015 18.7216 441.082 18.6564 440.159 18.5356C438.927 18.374 438.311 18.4069 437.839 18.6593C437.343 18.9251 436.856 18.9401 435.691 18.7253C434.504 18.5063 431.36 18.4767 428.117 18.6537C427.972 18.6618 425.538 18.6557 422.709 18.6406C419.879 18.6255 417.386 18.6251 417.168 18.6397C416.95 18.6543 415.288 18.5896 413.474 18.4961C409.407 18.2864 408.45 18.319 408.013 18.6821C407.767 18.886 407.569 18.8821 407.311 18.6682C407.086 18.4814 406.14 18.4051 404.775 18.4638C403.577 18.5153 401.473 18.4846 400.098 18.3959C398.723 18.307 397.543 18.3251 397.474 18.4358C397.256 18.7896 396.252 18.6525 395.752 18.2007C395.45 17.9267 395.27 17.8806 395.27 18.077C395.27 18.2736 394.909 18.3658 394.3 18.3247C393.697 18.2839 393.287 18.3872 393.217 18.5965C393.014 19.2039 392.106 18.0933 392.083 17.211C392.071 16.7617 392.002 16.5434 391.929 16.7257C391.603 17.5328 391.309 16.5878 391.265 14.5972L391.217 12.4355L391.048 14.4148C390.885 16.3243 390.876 16.2777 390.777 13.0953L390.675 9.79636L390.521 13.4911C390.398 16.4117 390.355 16.7205 390.312 14.9647C390.25 12.4669 390.022 12.3245 389.73 14.6026C389.607 15.5641 389.504 13.1473 389.452 8.08092C389.375 0.56527 389.358 0.311548 389.19 4.25418C389.091 6.57662 388.972 9.60503 388.926 10.984C388.852 13.1839 388.82 12.9576 388.663 9.13658C388.564 6.74157 388.459 3.71315 388.429 2.40678C388.392 0.806968 388.299 0.203865 388.147 0.559377C388.022 0.849691 387.904 3.8781 387.885 7.28918C387.84 15.1278 387.398 14.6755 387.111 6.49744C387.001 3.37666 386.893 1.79335 386.869 2.97899C386.804 6.33297 386.45 6.46624 386.286 3.19852L386.14 0.295485L386.059 4.25418C385.92 11.0655 385.59 12.0429 385.547 5.77168C385.514 0.979834 385.45 0.163523 385.113 0.163523C384.872 0.163523 384.717 0.40911 384.717 0.790326C384.717 1.13507 384.628 1.81794 384.519 2.30782C384.332 3.15065 384.314 3.12049 384.189 1.747C384.094 0.691349 383.95 0.295485 383.662 0.295485C383.334 0.295485 383.241 0.974715 383.123 4.25418C383 7.67534 382.969 7.89035 382.895 5.83766C382.847 4.53129 382.733 2.6905 382.641 1.747C382.483 0.131333 382.454 0.26178 382.142 3.99026C381.959 6.16754 381.787 8.83969 381.76 9.92832C381.714 11.7989 381.703 11.7554 381.551 9.13658C381.408 6.66417 381.382 6.92019 381.312 11.5118C381.229 17.0034 381.108 17.9288 380.453 18.0549C380.109 18.1213 379.998 17.6716 379.805 15.4172L379.572 12.6994L379.506 14.9427C379.395 18.71 379.998 18.336 373.965 18.3818C371.1 18.4034 364.6 18.4676 359.521 18.5241C354.442 18.5806 350.168 18.6262 350.023 18.6255C349.878 18.6248 345.841 18.5913 341.053 18.5507C336.264 18.5103 332.133 18.5801 331.872 18.7054C331.588 18.8422 330.821 18.8045 329.959 18.6114C328.792 18.3503 328.316 18.3566 327.444 18.6444C326.515 18.951 326.215 18.9429 325.25 18.5852C324.281 18.2257 323.995 18.2187 323.095 18.532C321.874 18.9571 320.44 19.0104 320.211 18.6393C320.113 18.4803 319.147 18.4329 317.755 18.5187C315.073 18.684 315.057 18.6839 313.387 18.4755C312.564 18.3729 311.88 18.4356 311.478 18.6512C310.987 18.9136 310.627 18.92 309.827 18.6802C308.602 18.3129 307.35 18.2832 307.005 18.6134C306.855 18.7574 306.122 18.7494 305.172 18.5938C304.069 18.4129 303.005 18.4265 301.667 18.6385C299.907 18.9172 299.67 18.8987 298.858 18.4198C297.982 17.9025 297.963 17.9023 297.137 18.4051C296.677 18.6846 296.167 18.8301 296.002 18.7285C295.571 18.4617 281.41 18.3776 280.508 18.6365C279.96 18.7936 279.712 18.7565 279.615 18.5025C279.541 18.3092 279.261 18.2084 278.993 18.2785C278.633 18.3726 278.387 18.157 278.053 17.4573C277.805 16.9355 277.582 16.2455 277.56 15.9238C277.535 15.6021 277.448 15.9236 277.362 16.6381C277.187 18.0864 276.645 18.5507 276.472 17.3999C276.366 16.6905 276.359 16.6955 276.322 17.5162C276.301 17.988 276.163 18.3739 276.018 18.3739C275.873 18.3739 275.742 18.6411 275.728 18.9677C275.687 19.8195 275.212 18.0691 275.026 16.3946C274.904 15.2904 274.848 15.1827 274.684 15.7348C274.529 16.258 274.483 16.1397 274.462 15.1626C274.42 13.1862 274.065 12.7269 273.885 14.4152C273.8 15.2136 273.684 12.4227 273.629 8.21325L273.527 0.559766L273.388 6.76174C273.219 14.2986 272.853 13.5393 272.853 5.6511C272.853 1.34369 272.78 0.144142 272.523 0.229426C272.275 0.311831 272.152 2.18171 272.029 7.78358C271.938 11.8781 271.79 15.3026 271.699 15.3935C271.608 15.4845 271.52 14.7374 271.503 13.7335C271.487 12.7295 271.385 11.1361 271.279 10.1926L271.086 8.47718L271.028 10.1926C270.913 13.5352 270.516 10.9453 270.497 6.73259C270.489 4.46669 270.403 2.06239 270.31 1.38969L270.143 0.166587L268.53 0.232723L266.916 0.29886L266.844 5.11377C266.803 7.76928 266.665 9.92866 266.533 9.92866C266.401 9.92866 266.242 9.66147 266.179 9.33487C266.116 9.00826 266.033 9.92868 265.993 11.3802C265.93 13.7343 265.9 13.8768 265.717 12.6998C265.604 11.974 265.484 9.59877 265.451 7.42148L265.391 3.46278L265.177 6.06435C264.899 9.43676 264.732 9.78248 264.648 7.15759L264.581 5.04626L264.41 6.89367L264.24 8.74107L264.148 6.10193C264.057 3.48177 264.055 3.47512 263.883 5.17823C263.738 6.62033 263.703 6.3639 263.664 3.56893L263.619 0.244202L262.827 0.221773C262.052 0.199755 262.035 0.227897 261.99 1.56716L261.944 2.93506L261.841 1.74744C261.785 1.09426 261.627 0.447013 261.491 0.30911C261.337 0.153067 261.224 1.64768 261.191 4.26781L261.138 8.47724L260.98 5.31028C260.867 3.04465 260.807 4.40667 260.769 10.0959L260.716 18.0485L260.082 18.1699C259.51 18.2792 255.301 18.4493 253.989 18.4161C253.126 18.394 250.375 18.4275 244.227 18.5332C241.034 18.5883 237.977 18.6316 237.433 18.6295C236.889 18.6275 235.85 18.6226 235.124 18.6193C234.399 18.6154 233.538 18.6373 233.212 18.6672C232.508 18.7318 224.748 18.7094 222.856 18.637C222.131 18.6093 221.062 18.59 220.482 18.5941C219.901 18.5981 218.803 18.6023 218.041 18.6031C217.279 18.6039 216.152 18.6137 215.535 18.6247C212.454 18.6794 211.173 18.6451 210.388 18.4868C209.901 18.3886 209.382 18.4348 209.191 18.5933C209 18.7518 208.285 18.8155 207.544 18.7403C205.928 18.5763 200.541 18.6202 200.25 18.7998C200.133 18.8721 199.078 18.7908 197.905 18.6193C196.193 18.3689 195.645 18.3748 195.133 18.649C194.612 18.9281 194.378 18.9285 193.86 18.6511C193.511 18.4643 193.095 18.3919 192.936 18.4901C192.777 18.5884 192.638 18.5134 192.627 18.3233C192.61 18.058 192.575 18.0543 192.472 18.3074C192.377 18.5453 191.934 18.5894 190.884 18.466C189.807 18.3393 189.372 18.3864 189.211 18.6475C189.033 18.9352 188.684 18.9431 187.311 18.6901C186.185 18.4824 185.341 18.463 184.754 18.6313C184.178 18.7966 183.425 18.7852 182.552 18.5979C181.657 18.406 180.915 18.3978 180.274 18.5726C179.751 18.7153 178.789 18.7815 178.136 18.7198C176.762 18.5899 175.281 18.572 173.783 18.6673C172.335 18.7594 171.608 18.5643 171.153 17.9614C170.802 17.4982 170.765 17.4935 170.758 17.9117C170.753 18.19 170.546 18.3735 170.237 18.3735C169.955 18.3735 169.652 18.4923 169.562 18.6374C169.292 19.074 166.903 18.9403 166.023 18.4395C165.38 18.0734 165.203 17.7861 165.168 17.0539L165.124 16.1302L165.013 17.0539C164.894 18.0446 164.021 19.1394 163.81 18.5637C163.724 18.33 163.607 18.3207 163.384 18.5294C163.171 18.7286 162.635 18.7413 161.644 18.5706C160.795 18.4241 159.925 18.4195 159.507 18.5592C159.079 18.7017 158.294 18.6905 157.514 18.5306C156.59 18.3413 155.891 18.3568 155.036 18.5855C154.136 18.8262 153.558 18.8317 152.668 18.6079C152.021 18.4449 151.224 18.3743 150.897 18.4511C150.569 18.5279 150.037 18.6533 149.714 18.7298C149.39 18.8062 149.063 18.7669 148.985 18.6419C148.908 18.5171 147.808 18.4858 146.539 18.5725C145.271 18.6592 143.937 18.7052 143.574 18.675C142.456 18.5818 136.085 18.5861 135.557 18.6799C135.192 18.7451 134.969 18.5223 134.72 17.8452L134.38 16.9215L134.36 17.7133L134.339 18.505L132.558 18.4756C131.579 18.4593 130.715 18.5422 130.639 18.6592C130.563 18.7762 130.088 18.7854 129.584 18.6795C128.767 18.5082 127.696 18.5023 124.577 18.6522C124.07 18.6767 123.06 18.6808 122.335 18.6612C121.609 18.6416 120.481 18.6274 119.828 18.6294C119.175 18.6315 117.869 18.6264 116.926 18.6176C115.983 18.6086 114.894 18.6599 114.506 18.7304C114.042 18.8148 113.751 18.7284 113.655 18.4781C113.535 18.1653 113.414 18.1562 112.98 18.4272C112.567 18.6855 112.272 18.6891 111.622 18.4436C110.94 18.1861 110.649 18.2041 109.991 18.5445C109.328 18.8873 109.012 18.9056 108.161 18.6507C107.376 18.4153 106.911 18.4159 106.192 18.6528C105.457 18.8956 105.029 18.8897 104.229 18.6259C103.557 18.404 103.003 18.3706 102.613 18.5285C102.287 18.6606 101.218 18.7336 100.239 18.6907C98.6154 18.6196 98.4548 18.5613 98.4221 18.0309L98.3854 17.4492L98.2741 18.0185C98.1808 18.496 97.9419 18.6055 96.793 18.6969C96.0395 18.7569 95.1977 18.6949 94.9224 18.5593C94.6 18.4005 94.0674 18.4189 93.4269 18.6108C92.6777 18.8353 92.2638 18.8323 91.7512 18.599C91.2216 18.3576 90.748 18.366 89.6187 18.6369C88.4984 18.9057 88.0137 18.9154 87.4953 18.6791C86.7667 18.347 85.716 18.2742 85.4528 18.5374C85.238 18.7524 78.7967 18.7054 77.6588 18.4805C77.1294 18.3759 76.5342 18.4383 76.1621 18.6375C75.7585 18.8535 75.2856 18.8924 74.7984 18.7496C73.6399 18.41 72.6059 18.3933 70.8865 18.6865C69.5941 18.9068 69.1644 18.8824 68.5452 18.5536C67.7836 18.1491 67.4441 18.1733 66.3228 18.7121C65.8779 18.926 65.4148 18.9227 64.5827 18.7003C63.9259 18.5246 63.1264 18.4837 62.6825 18.603C62.2606 18.7164 61.5308 18.6911 61.0584 18.5467C60.4212 18.3518 60.0278 18.3769 59.5287 18.6441C58.9853 18.935 58.6317 18.9435 57.6785 18.6885C56.2101 18.2957 55.2733 18.2864 55.041 18.6624C54.9301 18.8417 54.4986 18.8847 53.9041 18.7757C52.2644 18.4747 50.3393 18.443 49.5788 18.7044C49.1781 18.8422 48.6436 18.8652 48.3915 18.7554C47.6053 18.4132 43.7423 18.2416 43.2787 18.5282C43.1645 18.5986 42.8296 18.4145 42.5342 18.1189C42.0321 17.6166 41.9968 17.6132 41.9968 18.066C41.9968 18.4474 41.7751 18.5593 40.9556 18.5914C40.3829 18.6138 39.8515 18.5304 39.7746 18.4061C39.6976 18.2818 39.3353 18.2374 38.9691 18.3074C38.5977 18.3784 38.3032 18.3113 38.3032 18.1564C38.3032 17.8295 37.2517 17.8369 36.8118 18.167C36.6092 18.3192 36.418 18.1499 36.239 17.6585L35.9704 16.9217L35.9231 17.5815L35.8758 18.2413L35.6647 17.5815C35.5485 17.2186 35.4417 16.2318 35.427 15.3887C35.3904 13.2216 34.8741 13.7382 34.869 15.9476C34.8653 17.7164 34.5156 18.9291 34.2483 18.1019C34.1794 17.8883 33.9519 16.2289 33.7431 14.4145L33.3636 11.1156L33.3008 13.095L33.238 15.0743L32.8879 12.831C32.6951 11.5972 32.4399 8.21258 32.3204 5.30953L32.1031 0.03125L31.9629 5.30953L31.8227 10.5878L31.7342 6.2332C31.6853 3.83818 31.5549 1.52235 31.444 1.0869C31.3331 0.651439 31.2267 0.413913 31.2072 0.559066C31.1868 0.704223 31.0567 0.644855 30.9161 0.42712C30.7417 0.156623 30.6426 0.992521 30.6039 3.06628L30.5472 6.10127L30.3887 3.06628C30.27 0.798851 30.2118 1.93354 30.1567 7.55279C30.116 11.6896 30.0393 14.9556 29.9855 14.8104C29.9317 14.6653 29.763 11.6962 29.6109 8.21257C29.339 1.99324 29.2011 0.691043 28.8146 0.691043C28.7082 0.691043 28.5313 2.32401 28.4212 4.31985C27.948 12.9206 27.8481 14.1305 27.7619 12.3032C27.6914 10.8047 27.6563 10.7046 27.4867 11.5115C27.34 12.2084 27.2829 11.8845 27.2536 10.1919C27.225 8.63566 27.1366 8.0699 26.9593 8.34453C26.7795 8.62261 26.6943 8.19077 26.6731 6.89301C26.6527 5.56184 26.5839 5.22998 26.4314 5.70539C26.3152 6.06828 26.2064 6.24642 26.1897 6.10127C26.1734 5.95612 26.0442 6.0155 25.9035 6.23324C25.7299 6.50231 25.6451 5.69918 25.6398 3.72602C25.6361 2.12936 25.5167 0.644847 25.3761 0.42712C25.1759 0.117479 25.1193 0.185944 25.1164 0.741454C25.1146 1.13203 24.9937 1.52503 24.8486 1.61474C24.6958 1.7091 24.5849 1.4562 24.5849 1.01451C24.5849 0.36799 24.2498 0.0754568 23.7362 0.27318C23.7036 0.285004 23.6156 4.33305 23.5385 9.26823L23.3979 18.2413L21.2872 18.2925C20.1264 18.3206 16.3105 18.3649 12.8076 18.391C9.30468 18.417 6.29777 18.5253 6.12555 18.6318C5.95353 18.7383 5.25764 18.7186 4.57948 18.5879C3.24192 18.3304 0.312531 18.5516 0.312531 18.9103C0.312531 19.1505 3.69989 19.2779 7.17215 19.1684C7.95188 19.1439 18.1926 19.2999 22.2766 19.3986L23.5298 19.4288L23.5317 26.3565C23.5336 34.6583 23.7131 37.5509 24.2254 37.5509C24.4903 37.5509 24.5922 37.0924 24.6118 35.8134L24.6125 35.815Z" fill="black"/>
</svg>
