<svg width="464" height="38" viewBox="0 0 464 38" fill="none" xmlns="http://www.w3.org/2000/svg">
<path d="M463.577 18.3595C463.529 3.3911 463.488 1.38664 463.379 8.79261L463.242 18.1616L462.583 18.1597C461.715 18.1578 461.089 17.7585 460.928 17.1059C460.852 16.7997 460.784 16.9938 460.766 17.5677C460.734 18.6775 460.746 18.6723 458.937 18.2546C458.216 18.0882 457.405 18.0446 457.136 18.158C456.167 18.5659 454.931 18.5691 454.314 18.1661C453.759 17.802 453.594 17.8012 452.738 18.158C451.729 18.58 450.446 18.6927 450.446 18.3594C450.446 18.1865 445.116 18.1417 442.531 18.2929C442.023 18.3215 441.549 18.3255 441.476 18.3011C440.897 18.0952 438.888 18.1592 438.506 18.3957C438.14 18.622 437.977 18.6053 437.802 18.3231C437.628 18.0442 437.265 18.003 436.293 18.1523C434.444 18.4356 433.265 18.3765 432.877 17.9806C432.691 17.7906 432.429 16.6253 432.294 15.3915L432.049 13.1482L432.012 15.8534C431.98 18.331 431.934 18.5585 431.471 18.5585C431.193 18.5585 430.905 18.41 430.832 18.2286C430.73 17.977 430.635 17.9884 430.434 18.2775C430.222 18.5813 430.092 18.5919 429.777 18.3301C429.561 18.1507 428.869 18.0076 428.24 18.0117C427.611 18.0154 426.858 18.0122 426.568 18.0035C425.912 17.9831 425.351 18.1136 424.909 18.3901C424.722 18.5067 423.976 18.4504 423.251 18.2645C422.21 17.9974 421.684 17.9929 420.751 18.2441C419.255 18.6441 417.597 18.649 416.862 18.2564C416.042 17.8171 414.3 17.7597 414.3 18.1719C414.3 18.7233 413.585 18.8228 412.721 18.3917C411.913 17.9884 410.333 18.0052 408.301 18.4382C407.666 18.5732 407.408 18.5193 407.296 18.2286C407.181 17.9285 406.799 17.8612 405.661 17.9404C404.844 17.997 404.12 18.0993 404.052 18.1683C403.983 18.2368 403.767 18.1601 403.573 17.999C403.293 17.7666 403.206 15.9603 403.157 9.35817L403.095 1.01122L403.021 9.0174C402.956 16.0693 402.895 17.0758 402.508 17.4626C402.267 17.704 402.035 17.8422 401.993 17.7696C401.951 17.697 401.676 17.8442 401.381 18.097C400.847 18.5542 400.844 18.5441 400.813 15.8537C400.781 13.1216 400.435 13.2655 400.329 16.0544C400.28 17.3764 399.847 18.9607 399.808 17.9677C399.799 17.7137 399.619 17.5059 399.411 17.5059C399.201 17.5059 398.984 17.1833 398.923 16.7801C398.827 16.1456 398.807 16.1705 398.765 16.9782C398.72 17.85 398.695 17.8731 398.33 17.3896C398.117 17.1079 397.921 16.2766 397.895 15.5423C397.854 14.4237 397.822 14.5283 397.693 16.1865L397.538 18.1658L397.336 16.3184C397.224 15.3024 397.034 13.8179 396.912 13.0196C396.709 11.688 396.688 11.7971 396.653 14.3391C396.616 17.0561 396.376 18.173 395.97 17.5162C395.865 17.3458 395.619 17.2675 395.424 17.3421C395.17 17.4396 395.041 17.1636 394.969 16.3705L394.869 15.2627L394.823 16.5603C394.741 18.8642 394.385 17.5527 394.232 14.3842L394.084 11.3039L393.997 14.3389C393.933 16.5758 393.861 17.0963 393.721 16.3183L393.533 15.2626L393.496 16.5007C393.475 17.1815 393.34 17.8121 393.195 17.9018C393.049 17.9915 392.929 17.9099 392.927 17.7195C392.923 17.4683 392.853 17.4822 392.667 17.7701C392.476 18.0657 392.399 17.8985 392.363 17.1103L392.315 16.0546L392.209 17.0705C392.121 17.9222 392.022 18.0649 391.594 17.953C391.314 17.8796 391.084 17.9244 391.084 18.0504C391.084 18.1772 390.906 18.2131 390.688 18.1295C390.465 18.0439 390.277 17.6163 390.258 17.1481L390.221 16.3187L390.058 17.2423C389.873 18.2924 389.061 18.6138 388.362 17.9142C388.123 17.6757 387.884 17.6092 387.792 17.7568C387.706 17.8967 387.473 17.9489 387.275 17.873C387.076 17.7968 386.836 17.8607 386.74 18.0165C386.462 18.466 385.807 18.3427 385.785 17.8367C385.772 17.5607 385.71 17.5077 385.631 17.7046C385.393 18.2938 384.489 18.0899 384.46 17.4408C384.435 16.8712 384.423 16.8738 384.222 17.5068C384.013 18.1597 384.01 18.1584 383.954 17.3747C383.921 16.8993 383.849 16.7675 383.777 17.0449C383.526 18.0064 383.208 17.44 382.964 15.5933L382.71 13.68L382.673 15.345C382.653 16.3877 382.538 16.9487 382.372 16.8458C382.226 16.7553 382.022 16.8968 381.918 17.1602C381.762 17.5537 381.698 17.4982 381.555 16.847C381.411 16.1901 381.375 16.28 381.346 17.3748C381.325 18.1935 381.227 18.5626 381.09 18.347C380.969 18.1558 380.686 17.9726 380.461 17.9396C380.237 17.907 379.863 17.7219 379.63 17.529C379.275 17.2338 379.208 17.2411 379.208 17.5743C379.208 17.792 379.033 18.1152 378.819 18.2926C378.51 18.5498 378.35 18.5344 378.033 18.2163C377.813 17.997 377.403 17.8783 377.12 17.9521C376.7 18.0622 376.587 17.9276 376.498 17.2028L376.39 16.3192L376.348 17.2527C376.315 17.978 376.189 18.195 375.783 18.2256C375.495 18.246 375.192 18.1539 375.108 18.0177C375.024 17.8819 374.496 17.7706 373.935 17.7706C373.185 17.7706 372.882 17.6483 372.794 17.3087C372.705 16.9699 372.665 17.009 372.642 17.4563C372.626 17.7915 372.5 17.9969 372.364 17.9127C372.228 17.8287 372.008 17.9538 371.875 18.1911C371.697 18.5092 371.502 18.5585 371.133 18.3795C370.858 18.2457 370.098 18.1634 369.446 18.196C368.613 18.238 368.16 18.1287 367.929 17.8307C367.747 17.5962 367.599 17.5432 367.599 17.712C367.599 17.8804 367.421 17.9498 367.203 17.8662C366.985 17.7826 366.807 17.8335 366.807 17.9779C366.807 18.3379 365.445 18.6551 365.249 18.3408C365.163 18.2017 364.796 18.0464 364.434 17.9954C363.949 17.9273 363.732 17.6953 363.608 17.1111C363.444 16.3409 363.439 16.346 363.408 17.3007C363.384 18.0575 363.286 18.2473 362.981 18.1302C362.671 18.0111 362.575 17.4035 362.534 15.3014L362.482 12.6245L362.336 15.3956C362.218 17.6179 362.111 18.1667 361.794 18.1667C361.554 18.1667 361.355 17.8539 361.289 17.3749L361.179 16.5832L361.023 17.3695C360.897 18.0023 360.72 18.167 360.112 18.2137C359.698 18.2464 359.294 18.3361 359.215 18.4148C359.136 18.4934 358.913 18.427 358.718 18.2639C358.523 18.1024 358.364 18.0584 358.364 18.1664C358.364 18.2745 358.186 18.2149 357.968 18.0343C357.702 17.8141 357.463 17.7913 357.242 17.965C356.682 18.405 355.305 18.5495 354.305 18.2733C353.438 18.0339 353.348 17.9202 353.316 17.0324L353.283 16.0551L353.089 16.9789C352.928 17.7467 352.889 17.6046 352.86 16.1367C352.809 13.5547 352.298 13.5607 352.298 16.1448C352.298 17.7501 352.206 18.2786 351.909 18.3927C351.694 18.4751 351.402 18.3397 351.257 18.091C351.113 17.8431 350.99 17.7844 350.986 17.9613C350.978 18.2659 350.081 18.354 347.549 18.2977C344.556 18.2313 344.118 18.1648 344.1 17.7742C344.084 17.4227 344.059 17.4231 343.902 17.7779C343.804 17.9985 343.545 18.1766 343.327 18.1738C343.019 18.17 342.899 17.6733 342.783 15.925L342.634 13.6817L342.585 15.7426C342.552 17.038 342.438 17.7429 342.272 17.6404C342.127 17.5507 342.007 17.6922 342.007 17.9548C342.007 18.3654 341.775 18.4309 340.358 18.4223C339.452 18.4183 338.501 18.3147 338.245 18.1948C337.99 18.0753 337.218 18.0729 336.53 18.1907C335.843 18.3073 334.627 18.3644 333.829 18.3175C333.031 18.2706 331.874 18.2486 331.257 18.2686C329.78 18.3163 327.737 18.3179 326.508 18.2723C325.964 18.252 325.103 18.3515 324.595 18.493C323.856 18.6989 323.514 18.6569 322.88 18.2825C322.158 17.8561 321.962 17.848 320.646 18.1904C318.886 18.6482 317.889 18.666 317.225 18.2511C316.836 18.0081 316.342 18.0077 315.052 18.2493C313.733 18.4964 313.327 18.4931 313.118 18.233C312.765 17.7937 311.931 17.6707 311.931 18.0581C311.931 18.2599 311.658 18.3116 311.14 18.2081C310.693 18.1188 310.348 18.162 310.348 18.3072C310.348 18.6611 309.366 18.6326 309.143 18.2705C308.969 17.9883 307.492 18.0955 306.546 18.4584C306.179 18.5991 306.12 18.2142 306.07 15.358L306.013 12.0969L305.93 15.1896L305.846 18.2823L305.047 18.1225C304.594 18.0315 303.978 18.1062 303.624 18.297C303.235 18.5049 302.717 18.5567 302.254 18.434C301.416 18.2118 301.22 18.2093 295.639 18.3487C292.115 18.4368 291.599 18.3965 291.481 18.0242C291.321 17.522 289.952 17.6254 289.117 18.2028C288.424 18.6815 286.897 18.6582 285.682 18.1506C284.786 17.7759 284.616 17.7771 283.806 18.1628C283.149 18.4748 282.782 18.5143 282.406 18.3129C282.034 18.1135 281.864 18.1286 281.777 18.3679C281.681 18.6285 281.584 18.6281 281.307 18.366C281.114 18.1846 280.516 18.0362 279.976 18.0362C279.437 18.0362 278.936 17.8877 278.863 17.7063C278.78 17.5008 278.722 17.5428 278.709 17.8172C278.681 18.4035 277.132 18.767 276.813 18.2623C276.688 18.0653 276.573 17.3104 276.559 16.5846C276.542 15.8589 276.439 14.6712 276.326 13.9455C276.147 12.795 276.116 12.9599 276.085 15.2314C276.052 17.5151 276.001 17.7963 275.654 17.5083C275.38 17.2812 275.258 17.2714 275.258 17.4757C275.258 18.1323 274.729 17.72 274.707 17.0462C274.682 16.3605 274.67 16.3705 274.423 17.2268C274.222 17.9253 274.105 18.0464 273.914 17.7546C273.705 17.4365 273.602 17.4581 273.274 17.8879C273.01 18.2345 272.884 18.2814 272.884 18.0331C272.884 17.7375 272.819 17.7309 272.554 18.0005C272.289 18.2679 272.164 18.0824 271.92 17.0635C271.615 15.7953 271.615 15.7948 271.59 16.7675C271.565 17.7332 271.04 18.5075 271.033 17.5904C271.029 17.1932 270.987 17.1784 270.783 17.5011C270.432 18.056 270.32 17.8399 270.035 16.0567L269.781 14.4738L269.749 16.2222C269.72 17.9027 269.691 17.9706 269.057 17.9706C268.674 17.9706 268.398 17.8189 268.398 17.6077C268.398 17.4083 268.279 17.2448 268.134 17.2448C267.989 17.2448 267.87 17.423 267.87 17.6407C267.87 18.3588 267.343 18.0524 267.303 17.3108L267.262 16.5851L267.152 17.3153C267.091 17.7169 266.931 17.9771 266.795 17.8935C266.66 17.8099 266.55 17.8732 266.55 18.0367C266.55 18.6759 266.021 17.9608 266.001 17.2953C265.989 16.8787 265.919 16.7488 265.831 16.981C265.749 17.1987 265.577 17.6616 265.448 18.0097C265.222 18.6212 265.201 18.6257 264.835 18.1418C264.626 17.8662 264.452 17.7859 264.448 17.9628C264.435 18.4755 262.531 18.2449 261.999 17.6663C261.583 17.214 261.537 16.4594 261.537 10.0788C261.537 5.53125 261.442 2.99351 261.273 2.99351C261.105 2.99351 260.994 5.63829 260.968 10.3171C260.943 14.3451 260.845 17.0469 260.746 16.3212L260.565 15.0016L260.523 16.7831C260.456 19.6539 259.705 18.8808 259.69 15.9253C259.682 14.0808 259.192 14.6513 259.125 16.5851L259.08 17.9046L258.899 16.5851L258.718 15.2655L258.676 16.6333C258.639 17.7866 258.545 18.0296 258.061 18.1831C257.66 18.3103 257.382 18.2198 257.138 17.8867C256.877 17.5308 256.787 17.5054 256.784 17.7884C256.78 18.1093 256.74 18.1069 256.524 17.7721C256.384 17.5544 256.25 16.3074 256.227 15.001L256.185 12.6258L255.984 15.0873C255.832 16.9516 255.665 17.6616 255.296 18.0136C254.83 18.4593 254.797 18.4502 254.501 17.7955C254.268 17.279 254.188 17.2294 254.172 17.5921C254.155 17.9411 254.013 18.028 253.645 17.9113C253.367 17.8228 253.063 17.8746 252.969 18.0255C252.876 18.1767 252.273 18.3003 251.628 18.3003C250.632 18.3003 250.456 18.2212 250.456 17.7724C250.456 17.1247 249.936 17.0619 249.91 17.7064C249.894 18.1015 249.859 18.0917 249.665 17.6403C249.512 17.2848 249.431 17.2416 249.415 17.5083C249.395 17.8601 249.364 17.8601 249.137 17.5083C248.923 17.1776 248.874 17.1992 248.834 17.6403C248.81 17.9307 248.707 17.5147 248.609 16.7167L248.431 15.2652L248.385 16.5847C248.352 17.5447 248.268 17.7964 248.082 17.5084C247.863 17.17 247.825 17.1798 247.822 17.5745C247.82 17.8285 247.712 18.0363 247.582 18.0363C247.236 18.0363 247.026 17.3375 247.026 16.1829C247.026 14.5754 246.505 14.6273 246.459 16.2392C246.439 17.0098 246.37 17.3117 246.309 16.91C246.165 15.9559 245.718 16.2454 245.668 17.326C245.635 18.0321 245.598 17.9763 245.443 16.9806L245.259 15.7929L245.198 17.2445C245.166 18.0428 245.078 18.5478 245.005 18.3666C244.924 18.166 244.629 18.0979 244.253 18.1929C243.817 18.3026 243.493 18.1847 243.16 17.7966C242.556 17.0904 242.278 17.0966 242.278 17.8169C242.278 18.8502 241.897 18.0335 241.727 16.6351L241.56 15.2658L241.523 16.6308C241.487 17.9333 241.447 18.0071 240.629 18.24C239.45 18.5756 237.813 18.4961 237.562 18.0908C237.447 17.9049 237.157 17.8315 236.911 17.9257C236.667 18.0194 236.29 17.9501 236.074 17.7703C235.802 17.544 235.682 17.535 235.682 17.7418C235.682 17.9049 235.504 18.0382 235.286 18.0382C234.99 18.0382 234.879 17.688 234.845 16.6527L234.799 15.2671L234.626 16.9825C234.531 17.926 234.431 18.4605 234.404 18.1702C234.363 17.729 234.313 17.7073 234.099 18.038C233.877 18.3818 233.842 18.3765 233.839 18.0014C233.837 17.7629 233.666 17.5027 233.458 17.4231C233.251 17.3436 233.032 16.9449 232.97 16.5372C232.892 16.02 232.847 16.1482 232.82 16.9614C232.769 18.4504 232.52 18.2044 232.258 16.4069L232.054 15.0041L232.022 16.3681C232.001 17.1182 231.916 17.9199 231.828 18.1495C231.667 18.5687 230.669 18.7487 230.669 18.3586C230.669 18.2441 230.35 18.1551 229.959 18.1608C229.423 18.169 229.204 18.0096 229.062 17.5115L228.875 16.8517L228.851 17.5135C228.826 18.1498 228.762 18.174 227.18 18.1436C226.275 18.1272 225.334 18.2373 225.089 18.3906C224.767 18.592 224.435 18.5737 223.897 18.325C222.766 17.802 220.234 17.7128 219.845 18.1823C219.479 18.6233 218.644 18.6932 218.403 18.303C218.313 18.1578 217.891 18.0392 217.464 18.0392C216.802 18.0392 216.683 17.9327 216.653 17.3134C216.621 16.6687 216.598 16.6908 216.437 17.5112L216.256 18.4349L215.968 17.5112L215.68 16.5874L215.656 17.4452C215.632 18.2846 215.605 18.3036 214.379 18.3342C213.69 18.3505 213.031 18.3504 212.916 18.3304C212.801 18.31 212.445 18.3059 212.125 18.3141C210.794 18.3602 209.35 18.316 208.044 18.1885C207.28 18.1143 206.34 18.1722 205.955 18.3198C205.434 18.518 205.199 18.4992 205.039 18.246C204.871 17.9822 204.822 17.9802 204.819 18.2379C204.815 18.6519 204.18 18.6586 203.069 18.2582C202.459 18.0376 202.031 18.0267 201.599 18.2216C201.186 18.4067 200.743 18.4091 200.226 18.2297C199.677 18.0393 199.197 18.0601 198.523 18.3043C197.889 18.5339 197.554 18.5539 197.491 18.3659C197.431 18.1849 197.122 18.1673 196.604 18.3161C196.135 18.4507 195.539 18.4413 195.15 18.2917C194.354 17.9891 192.943 17.9606 192.943 18.2472C192.943 18.6456 190.26 18.5592 189.438 18.1343C188.703 17.7539 188.6 17.7535 188.325 18.1302C188.131 18.3969 187.739 18.5078 187.224 18.4426C185.909 18.2762 183.426 18.2595 181.539 18.4059C180.547 18.4821 179.696 18.4344 179.61 18.2929C179.39 17.9369 177.728 17.9842 177.12 18.3642C176.715 18.617 176.41 18.6142 175.683 18.352C174.976 18.0964 174.504 18.0874 173.666 18.3112C173.064 18.4731 172.377 18.5228 172.138 18.4209C171.899 18.3194 171.259 18.2611 170.715 18.2917C170.171 18.3202 169.725 18.2423 169.725 18.1139C169.725 17.8187 167.539 17.8346 167.321 18.1302C167.233 18.2513 166.728 18.2314 166.2 18.0854C165.423 17.8705 165.24 17.8913 165.24 18.1951C165.24 18.401 165.003 18.5697 164.713 18.5697C164.342 18.5697 164.184 18.3924 164.181 17.9759C164.179 17.6473 164.09 17.5056 163.983 17.6588C163.695 18.0707 162.588 18.0661 162.174 17.6506C161.974 17.4508 161.809 17.0118 161.807 16.6749C161.803 16.1941 161.75 16.1458 161.557 16.4506C161.178 17.0508 160.988 16.6463 160.798 14.8296L160.624 13.1593L160.492 15.2498C160.339 17.6685 159.791 18.3225 159.631 16.2772L159.531 15.0067L159.484 16.5086C159.401 19.1083 158.975 18.4248 158.751 15.3344L158.536 12.3675L158.337 15.3702C158.227 17.0217 158.091 18.42 158.033 18.4774C157.796 18.7151 157.061 18.2169 157.058 17.8155C157.056 17.5579 156.975 17.493 156.86 17.6553C156.753 17.8057 156.221 17.9631 155.677 18.0056C154.919 18.0643 154.687 17.9851 154.687 17.6659C154.687 17.4371 154.569 17.2497 154.424 17.2497C154.279 17.2497 154.145 16.6263 154.127 15.8642L154.095 14.4787L153.85 16.1941C153.432 19.1299 153.062 18.7302 152.753 15.0065C152.705 14.4259 152.646 14.8157 152.621 15.8725C152.589 17.3631 152.482 17.8306 152.154 17.9563C151.496 18.2091 151.269 17.5551 151.224 15.2704L151.181 13.1591L150.881 15.5343C150.716 16.8407 150.505 17.7315 150.412 17.5137C150.307 17.2654 150.236 17.3942 150.223 17.859C150.211 18.282 150.089 18.5304 149.938 18.4373C149.79 18.3456 149.655 16.8656 149.63 15.0568L149.585 11.8394L149.399 14.7425C149.298 16.3392 149.185 17.705 149.149 17.7775C148.938 18.2073 148.671 15.8729 148.606 13.0271L148.53 9.72817L148.341 13.1591C148.237 15.046 148.138 16.9561 148.121 17.4037C148.081 18.459 147.3 18.5505 147.3 17.4999C147.3 17.1052 147.123 16.4422 146.906 16.0264L146.512 15.2704L146.487 16.722C146.475 17.5203 146.407 18.0318 146.337 17.8585C146.266 17.6852 146.05 17.6044 145.855 17.679C145.584 17.7834 145.462 17.2762 145.332 15.487C145.055 11.6937 145.005 11.665 144.955 15.2704C144.922 17.6588 144.829 18.5664 144.649 18.2575C144.479 17.9663 144.164 17.8546 143.733 17.9329C143.372 17.9985 143.077 17.9348 143.077 17.791C143.077 17.6475 142.898 17.5986 142.681 17.6822C142.374 17.8 142.278 17.6051 142.252 16.8162L142.219 15.7982L142.038 16.915C141.829 18.1958 141.563 18.5796 141.242 18.0614C141.12 17.8628 140.841 17.769 140.623 17.8526C140.368 17.9505 140.16 17.7996 140.04 17.4292C139.868 16.8973 139.841 16.9138 139.679 17.6454C139.571 18.1342 139.429 18.3183 139.308 18.1267C139.17 17.9073 138.862 17.8881 138.26 18.0606C137.792 18.1952 137.378 18.3053 137.34 18.3053C137.304 18.3053 137.257 17.9191 137.238 17.4475L137.201 16.5898L137.038 17.407C136.894 18.13 136.784 18.2143 136.084 18.1379C135.648 18.0906 135.173 18.0404 135.028 18.0274C134.883 18.0152 134.497 18.0849 134.171 18.1852C133.641 18.3475 133.573 18.2717 133.538 17.4786C133.501 16.6801 133.487 16.6636 133.389 17.3159C133.18 18.6933 132.809 18.036 132.718 16.1282L132.627 14.2149L132.574 16.2519C132.531 17.9488 132.455 18.2634 132.123 18.1358C131.903 18.0514 131.538 18.1366 131.311 18.325C131.067 18.5276 130.826 18.5667 130.721 18.4204C130.45 18.0444 129.356 17.965 129.356 18.3213C129.356 18.5529 129.264 18.5578 129.002 18.3416C128.807 18.1802 128.56 18.1357 128.452 18.243C128.345 18.3502 128.089 18.2063 127.883 17.9262C127.583 17.5163 127.509 17.4971 127.509 17.8295C127.509 18.1301 127.274 18.2332 126.661 18.2022C126.003 18.1696 125.774 18.0138 125.632 17.5073C125.511 17.0736 125.442 17.0127 125.425 17.3255C125.392 17.8938 124.343 18.3524 123.897 17.993C123.724 17.854 123.534 17.4223 123.475 17.0338C123.401 16.5525 123.344 16.7059 123.297 17.5149C123.26 18.1681 123.172 18.4947 123.106 18.2407C122.974 17.7349 122.496 17.602 122.496 18.0711C122.496 18.2431 122.306 18.288 122.034 18.1803C121.122 17.8191 120.649 17.8138 120.649 18.164C120.649 18.449 120.518 18.4592 119.992 18.215C119.63 18.0474 119.333 17.8063 119.332 17.6797C119.331 17.5533 119.159 17.5916 118.949 17.7657C118.263 18.3352 117.365 17.9965 117.232 17.118C117.134 16.4677 117.087 16.562 116.968 17.6458C116.826 18.9443 116.818 18.9548 116.444 18.3056C116.236 17.9427 115.986 16.8145 115.89 15.7984L115.714 13.951L115.678 15.9963C115.645 17.6213 115.558 18.0417 115.243 18.0417C115.025 18.0417 114.847 17.8113 114.847 17.5294C114.847 17.2477 114.729 16.9438 114.584 16.854C114.429 16.759 114.32 17.0274 114.32 17.4983C114.32 18.4085 114.336 18.3989 113.414 18.0482C112.93 17.8639 112.726 17.5821 112.697 17.0586C112.673 16.5877 112.601 16.7446 112.499 17.4976C112.359 18.5334 112.295 18.6244 111.945 18.2831C111.512 17.8612 111.184 17.8148 110.72 18.1102C110.249 18.4099 110.103 17.6911 110.045 14.7871L109.992 12.1036L109.848 15.2706L109.703 18.4375L109.269 17.118C108.875 15.921 108.829 15.872 108.776 16.5902L108.717 17.3819L108.516 16.5902L108.314 15.7984L108.282 16.7089C108.227 18.3117 107.755 17.2278 107.656 15.2706L107.562 13.4232L107.476 15.5345C107.406 17.2371 107.352 17.467 107.195 16.7221L107 15.7984L106.96 16.854C106.912 18.1595 106.672 18.5623 105.999 18.4645C105.412 18.3792 105.488 19.3501 105.112 7.10691L104.901 0.227539L104.839 9.33253C104.806 14.3403 104.715 18.2841 104.64 18.0966C104.535 17.8353 104.417 17.8271 104.134 18.064C103.905 18.2536 103.161 18.327 102.186 18.2565C101.318 18.1937 100.576 18.2361 100.537 18.3482C100.496 18.4616 100.322 18.4653 100.147 18.3564C99.9606 18.2402 99.7311 17.0211 99.5903 15.3958L99.351 12.6328L99.3143 15.1425C99.2817 17.3607 99.2153 17.6912 98.7393 17.9885C98.4434 18.1736 98.087 18.2543 97.9478 18.1683C97.8084 18.0823 97.6727 16.6828 97.6458 15.0584C97.6172 13.434 97.5524 12.7536 97.4982 13.5465C97.4289 14.5594 97.3266 14.8734 97.1554 14.6022C96.9927 14.3449 96.91 14.8538 96.9072 16.1296C96.9034 17.9935 96.8868 18.043 96.2436 18.043C95.7416 18.043 95.579 17.9011 95.5632 17.4492C95.5509 17.0659 95.4886 16.9914 95.3912 17.2392C94.9163 18.446 94.2315 18.611 91.5841 18.1566C90.6638 17.9983 90.6114 17.9331 90.4684 16.7633C89.8746 11.9073 89.8629 11.8791 89.8198 15.194L89.779 18.283L88.8354 18.46C87.384 18.7324 86.6222 18.2614 86.5687 17.0589L86.5242 16.0635L86.4207 17.0532C86.3237 17.9812 86.2617 18.0429 85.4253 18.0429C84.9347 18.0429 84.4599 18.1619 84.3703 18.3067C84.1469 18.6679 82.7485 18.6386 81.6741 18.25C80.9781 17.9984 80.6768 17.9984 80.2738 18.25C79.614 18.6622 79.256 18.6525 78.3844 18.1974C77.8376 17.912 77.4449 17.89 76.6695 18.1016C76.1164 18.2525 75.2483 18.3654 74.7404 18.3532C74.2325 18.3409 72.9859 18.341 71.9701 18.3537C70.9544 18.366 69.7078 18.3496 69.1999 18.3121C68.692 18.2754 67.9203 18.2603 67.485 18.2754C63.5151 18.4181 62.0079 18.4088 61.9038 18.2387C61.8365 18.1299 61.4878 18.041 61.1289 18.041C60.6988 18.041 60.3951 17.8387 60.2378 17.4471C60.0214 16.9081 59.9977 16.9325 59.9826 17.711C59.9663 18.4804 59.886 18.5687 59.19 18.5687C58.7632 18.5687 58.3449 18.4565 58.2603 18.3199C58.0626 18.0003 55.4429 18.0125 55.0511 18.3362C54.8677 18.4875 54.499 18.4847 54.0901 18.3281C53.7253 18.1895 53.1765 18.1413 52.8707 18.2213C52.5063 18.3167 52.3133 18.2417 52.3107 18.006C52.3069 17.7573 52.2467 17.7377 52.113 17.944C51.8562 18.3391 48.3812 18.6535 47.9771 18.3179C47.5263 17.9436 44.4336 17.9019 44.0704 18.2653C43.5391 18.7968 43.0809 18.6021 43.0767 17.8433C43.0748 17.4441 42.9577 16.9394 42.8171 16.7217C42.6218 16.4196 42.5602 16.5219 42.5574 17.1527C42.5536 17.7728 42.4127 18.0165 41.9912 18.1268C41.3506 18.2944 38.0368 18.0982 37.8173 17.8789C37.7378 17.7994 37.6074 15.2207 37.5279 12.1479L37.3836 6.56115L37.3302 12.2588L37.2768 17.9567L36.6172 18.2572C36.0527 18.5144 35.9564 18.492 35.9496 18.1014C35.9414 17.6814 35.9211 17.683 35.6643 18.1218C35.4715 18.4533 35.2913 18.5185 35.0721 18.3367C34.8989 18.1927 33.9045 18.1075 32.8625 18.147C31.3448 18.2045 30.9366 18.1389 30.8102 17.8074C30.6728 17.449 30.6206 17.4461 30.4066 17.7829C30.2717 17.9966 30.1413 18.112 30.1172 18.0394C30.0928 17.9668 29.9954 15.1165 29.9 11.7055L29.7263 5.50352L29.6758 11.5809C29.6281 17.2978 29.5938 17.685 29.0976 18.1101C28.8073 18.3589 28.5699 18.4363 28.5699 18.283C28.5699 18.1219 28.3416 18.0763 28.0296 18.1753C27.7324 18.2695 27.3169 18.2039 27.1062 18.0289C26.8176 17.7896 26.6333 17.7855 26.3594 18.0126C26.1047 18.2243 25.789 18.2361 25.3041 18.0535C24.9238 17.9087 24.6106 17.8765 24.6084 17.9817C24.6065 18.0869 24.4873 17.9939 24.3447 17.777C24.1278 17.4467 24.0577 17.4798 23.9222 17.9748C23.8329 18.3014 23.6674 18.5686 23.5545 18.5686C23.0769 18.5686 22.9078 17.3879 22.7606 13.0263L22.6045 8.40787L22.5531 13.2243C22.5062 17.5935 22.32 18.7953 21.8703 17.6233C21.7822 17.3937 21.6885 16.117 21.6616 14.7862L21.6131 12.3666L21.4627 14.4779C21.3787 15.6539 21.2385 16.3554 21.1459 16.0614C21.0408 15.7279 20.967 15.9709 20.945 16.7212C20.9205 17.5925 20.8423 17.8034 20.6544 17.5129C20.4514 17.199 20.3971 17.2536 20.3906 17.7767C20.3865 18.2401 20.316 18.3317 20.1591 18.0842C20.0364 17.8905 19.8301 17.7715 19.7014 17.8204C19.5726 17.8693 19.4161 17.4338 19.3537 16.8532L19.2404 15.7975L19.09 16.796C19.0072 17.3451 18.8687 17.7608 18.7822 17.7197C18.6954 17.6785 18.4402 17.7983 18.2143 17.9859C17.8967 18.2493 17.7793 18.2538 17.6964 18.0063C17.6263 17.7963 17.4572 17.7669 17.209 17.9219C16.5731 18.3186 16.0701 18.2978 15.5806 17.8546C15.2002 17.5105 15.1076 17.5007 15.0792 17.8029C15.0588 18.0067 14.9569 17.758 14.8501 17.2499L14.6557 16.3263L14.6231 17.1684C14.6027 17.6316 14.4833 18.0755 14.3549 18.1548C14.2265 18.2343 14.008 16.3707 13.8695 14.0137L13.6176 9.72842L13.5752 13.7531C13.5508 16.2321 13.4318 17.7778 13.2691 17.7778C13.124 17.7778 13.0033 17.6294 13.0013 17.4479C12.9976 17.2281 12.912 17.2498 12.7417 17.514C12.601 17.7317 12.4738 17.8504 12.4588 17.7778C12.4425 17.7052 12.281 15.8644 12.0972 13.6871L11.7626 9.72836L11.6741 13.5551L11.5856 17.3819L11.423 14.8747L11.26 12.3675L11.2094 14.8615C11.1585 17.3721 10.7736 17.9286 10.5613 15.7984C10.4569 14.752 10.4557 14.7537 10.4117 15.9965C10.3873 16.686 10.2572 17.2501 10.1227 17.2501C9.98819 17.2501 9.82391 17.4581 9.75747 17.712C9.68491 17.9892 9.61399 17.8575 9.58016 17.3821C9.5239 16.5986 9.52105 16.5972 9.31194 17.25C9.15338 17.7453 9.09428 17.7865 9.0743 17.4155C9.05392 17.0265 8.97077 16.9855 8.68462 17.2231C8.39765 17.4612 8.28311 17.3988 8.14 16.9254C7.97043 16.3646 7.93579 16.3855 7.60015 17.2496C7.40287 17.7576 7.23043 18.0545 7.21739 17.9094C7.20516 17.7642 7.07799 17.8233 6.93736 18.0415C6.72051 18.377 6.68098 18.3648 6.67771 17.9599C6.67584 17.6973 6.55502 17.5558 6.40991 17.6455C6.26479 17.7352 6.13435 17.5938 6.11968 17.3312C6.0993 16.9932 6.03163 17.0461 5.88203 17.5134C5.74304 17.9476 5.64276 17.1358 5.58896 15.1382L5.50703 12.1032L5.42103 14.8591C5.34195 17.3876 5.06395 18.4829 4.57738 18.1821C4.3703 18.054 3.7985 13.7625 3.67968 11.4434C3.63891 10.645 3.58347 11.8623 3.55657 14.1485C3.52804 16.4346 3.40371 18.3051 3.27612 18.3051C2.55166 18.3051 2.45734 17.3235 2.38629 9.04559L2.31293 0.490965L2.25056 9.2817C2.2098 15.0595 2.0981 18.0165 1.92446 17.9093C1.77934 17.8196 1.66074 17.8607 1.66074 18.001C1.66074 18.1413 1.43654 18.1971 1.16286 18.1254C0.55135 17.9655 0.135912 18.542 0.637569 18.8544C0.83771 18.9787 1.26827 19.033 1.59478 18.9743L2.18839 18.8679L2.25076 28.0214L2.31313 37.1749L2.38649 28.3565C2.45742 19.8157 2.54915 18.8329 3.27634 18.8329C3.40352 18.8329 3.52172 20.4065 3.53884 22.3297C3.56738 25.7163 3.93464 26.0564 4.0041 22.7625C4.05505 20.3506 4.33346 18.8329 4.72575 18.8329C5.19671 18.8329 5.33925 19.5517 5.43219 22.3958L5.50964 24.7709L5.59034 21.8679C5.64374 19.9397 5.74158 19.1864 5.88221 19.6246C6.07827 20.2375 6.09539 20.2205 6.11985 19.3857C6.14431 18.5042 6.15653 18.4962 6.67384 18.9648C6.96407 19.2273 7.2033 19.335 7.20554 19.2037C7.20742 19.0724 7.32456 19.1433 7.46518 19.3606C7.60581 19.5784 7.73666 20.291 7.75622 20.9442C7.78883 22.0583 7.81208 22.0175 8.12024 20.2844C8.30122 19.2683 8.46507 18.6448 8.48464 18.8989C8.50502 19.1529 8.66481 19.331 8.84171 19.2947C9.02229 19.2581 9.23833 19.6332 9.33465 20.1525C9.50503 21.0708 9.50667 21.0716 9.55966 20.2846C9.60613 19.5938 9.64159 19.5602 9.83969 20.0208C9.96442 20.3111 10.094 20.4299 10.1279 20.2846C10.1605 20.1395 10.2693 20.674 10.3671 21.4723L10.5449 22.9238L10.5877 21.0984C10.6431 18.7535 10.9525 19.0616 11.172 21.6796L11.3423 23.7155L11.4365 22.0001C11.5025 20.7948 11.5735 21.3442 11.6741 23.8475L11.8176 27.4103L12.0279 23.7155C12.1437 21.6833 12.3055 19.7238 12.3879 19.3609C12.5285 18.7422 12.5509 18.734 12.7527 19.2288L12.9679 19.7566L13.0046 19.2288L13.0413 18.701L13.2679 19.2288C13.3927 19.5191 13.5227 21.4193 13.5565 23.4515L13.6185 27.1462L13.8076 24.5071C13.912 23.0556 14.011 21.1851 14.0281 20.3504C14.0607 18.846 14.5625 18.1643 14.6131 19.5587L14.6376 20.2844L14.8487 19.6247C15.0203 19.0884 15.0648 19.0624 15.0864 19.4853C15.1108 19.9739 15.1385 19.9689 15.533 19.4053C15.897 18.8853 16.1457 18.8155 17.3912 18.8839C18.5826 18.9491 18.8478 19.0535 18.9393 19.4914C19 19.7821 19.0999 20.2577 19.161 20.548C19.2221 20.8383 19.2866 20.5765 19.3033 19.9697C19.3318 18.9619 19.8616 17.9921 19.8616 18.9489C19.8616 19.1752 19.9802 19.3604 20.1253 19.3604C20.2704 19.3604 20.4049 19.687 20.4241 20.0861C20.4567 20.7389 20.4783 20.719 20.6532 19.8884L20.8476 18.9647L20.901 19.8884C20.9454 20.6576 20.9919 20.7239 21.181 20.2843C21.3335 19.9292 21.4313 20.577 21.4802 22.2636L21.5524 24.7708L21.6306 22.5276C21.7203 19.9578 21.8736 19.0967 22.2413 19.0967C22.3962 19.0967 22.5234 20.6601 22.5585 22.9894L22.6168 26.8821L22.6983 23.0609C22.7431 20.9593 22.8952 19.1244 23.0358 18.9835C23.2017 18.8179 23.2922 18.831 23.2922 19.0202C23.2922 19.379 24.4682 19.2795 24.9494 18.8803C25.2983 18.5908 26.4582 18.7368 26.4582 19.0703C26.4582 19.1674 26.6958 19.2469 26.9859 19.2469C27.2761 19.2469 27.5135 19.1458 27.5135 19.0218C27.5135 18.8978 27.9587 18.84 28.5029 18.8926L29.4922 18.9888L29.6337 23.595L29.7751 28.2012L29.8359 23.8467C29.8685 21.4516 30.0115 19.3139 30.1522 19.0962C30.3686 18.761 30.4085 18.7741 30.4118 19.181C30.4156 19.618 30.4534 19.6241 30.8304 19.2471C31.3291 18.7483 31.7335 18.7104 31.739 19.1622C31.7428 19.4016 31.7965 19.4089 31.9371 19.1908C32.1299 18.8899 33.3101 18.7218 34.7118 18.7949C35.2049 18.8194 35.5242 19.0281 35.6845 19.427L35.9229 20.0208L35.9393 19.43C35.9515 18.9649 36.0962 18.8508 36.6156 18.8938L37.2751 18.9484L37.3277 25.2907L37.3803 31.6331L37.5254 25.4311C37.6053 22.0201 37.7614 19.089 37.8727 18.9177C38.048 18.6477 39.6484 18.6371 42.2217 18.8891C42.4353 18.9095 42.558 19.394 42.5702 20.2629C42.5825 21.2557 42.6477 21.4673 42.8156 21.0766C42.9404 20.7863 43.0508 20.2512 43.061 19.8875C43.0814 19.0932 44.5651 18.2487 44.9222 18.8267C45.0808 19.0836 45.1672 19.0844 45.3233 18.8307C45.4668 18.5983 45.9727 18.5621 47.1372 18.7007C48.0253 18.8063 49.4939 18.8731 50.4009 18.8491C51.8201 18.8124 52.0541 18.8695 52.0804 19.2809C52.1089 19.722 52.1212 19.723 52.2316 19.2931C52.3262 18.9311 52.6368 18.8313 53.6695 18.8313C54.3939 18.8313 55.2238 18.7045 55.5138 18.5491C55.9011 18.3416 56.146 18.3542 56.4373 18.5956C56.6712 18.7897 57.4751 18.9067 58.3991 18.8814C59.9365 18.839 59.965 18.8529 59.9796 19.5605C59.996 20.2455 60.0123 20.2351 60.3163 19.359C60.5654 18.644 60.7557 18.4617 61.1589 18.5523C61.4454 18.6167 64.3511 18.6844 67.6161 18.7036C70.881 18.724 73.9431 18.8287 74.4206 18.9401C74.9696 19.0681 75.4214 19.0322 75.6494 18.843C75.8931 18.6408 76.7035 18.5995 78.1491 18.7166C79.5129 18.8267 80.4094 18.7892 80.6227 18.6118C80.8343 18.4361 81.0996 18.4238 81.3442 18.5792C81.8341 18.8891 84.6867 18.9086 84.8753 18.6036C84.9527 18.4781 85.3161 18.4324 85.6823 18.5025C86.1792 18.5975 86.3582 18.8063 86.3877 19.3249L86.4285 20.0199L86.5361 19.3169C86.6319 18.6913 86.7224 18.6364 87.3571 18.8185C87.7492 18.9311 88.4548 18.9666 88.9248 18.8977L89.7791 18.7721L89.8346 24.4102L89.89 30.0483L90.0323 25.9577C90.1105 23.7078 90.2475 22.1639 90.3367 22.5268C90.4256 22.8897 90.5149 22.2214 90.5344 21.0416C90.5776 18.4523 90.8817 18.0192 92.2176 18.6446C92.6902 18.8661 93.4257 19.0067 93.8522 18.9574C94.3451 18.9003 94.7414 19.0234 94.9401 19.295C95.2193 19.6771 95.2719 19.6616 95.4357 19.1454C95.6285 18.5373 95.805 18.4673 96.4851 18.7284C96.8267 18.8593 96.9081 19.3989 96.9336 21.6974C96.954 23.5599 97.0326 24.2395 97.1663 23.7145L97.3677 22.9227L97.4504 23.7145C97.4961 24.15 97.5992 23.2592 97.6795 21.7351C97.7623 20.1656 97.94 18.9623 98.0896 18.96C98.2347 18.9581 98.5027 18.8614 98.6851 18.7456C99.1512 18.4495 99.2563 18.8883 99.3379 21.4714L99.4088 23.7147L99.6383 21.3055L99.8678 18.8964L101.861 18.8597C103.225 18.8353 103.922 18.9274 104.068 19.1574C104.24 19.4273 104.283 19.4257 104.286 19.1492C104.288 18.9592 104.409 18.8772 104.554 18.9669C104.72 19.0697 104.833 22.4685 104.859 28.1536L104.901 37.177L105.113 28.8638C105.382 18.3081 105.307 18.9881 106.203 18.921C106.894 18.8692 106.93 18.9248 106.968 20.1044C107 21.1298 107.034 21.2064 107.162 20.5505C107.26 20.0489 107.372 20.6776 107.468 22.2658L107.619 24.7731L107.673 22.134C107.702 20.6824 107.843 19.3167 107.983 19.099C108.171 18.8095 108.246 19.0218 108.264 19.8907C108.276 20.5438 108.349 20.9298 108.422 20.7484C108.614 20.2734 108.98 20.3427 109.121 20.8805C109.187 21.1345 109.255 20.8438 109.272 20.2363C109.288 19.628 109.422 19.0569 109.566 18.9671C109.734 18.8631 109.85 19.7912 109.885 21.5247L109.941 24.2454L110.027 21.6602C110.099 19.5097 110.19 19.0471 110.566 18.9084C110.814 18.8166 111.105 18.6144 111.212 18.4586C111.342 18.2681 111.407 18.2832 111.409 18.505C111.411 18.6865 111.651 18.8349 111.941 18.8349C112.382 18.8349 112.473 19.0196 112.496 19.9565L112.524 21.0782L112.806 20.1545C112.961 19.6465 113.097 19.2159 113.109 19.1976C113.121 19.1772 113.397 19.0822 113.723 18.9819C114.238 18.8237 114.321 18.8979 114.345 19.543L114.374 20.2865L114.657 19.5707C115.207 18.1808 115.633 18.4542 115.683 20.2288C115.72 21.5985 115.744 21.6735 115.823 20.6824C115.959 18.9654 116.082 18.7024 116.563 19.1014C116.794 19.2927 116.972 19.9316 116.995 20.6487C117.024 21.4741 117.067 21.6134 117.134 21.0783C117.316 19.6133 117.497 19.0764 117.755 19.2356C117.896 19.3224 118.011 19.256 118.011 19.0859C118.011 18.8882 118.25 18.8377 118.676 18.9449C119.139 19.0611 119.388 18.9918 119.493 18.7166C119.624 18.3773 119.698 18.3736 120.015 18.6921C120.219 18.8955 120.385 19.1805 120.385 19.3249C120.385 19.4692 120.765 19.3983 121.228 19.1671C121.889 18.8372 122.095 18.8192 122.183 19.0851C122.272 19.3522 122.339 19.3546 122.498 19.0973C122.804 18.6023 123.284 19.0403 123.314 19.8426L123.343 20.5528L123.6 19.7578C123.742 19.3206 124.145 18.8269 124.498 18.6606C125.072 18.3894 125.155 18.4245 125.3 19.0023C125.451 19.6043 125.484 19.6156 125.818 19.176C126.044 18.8775 126.178 18.8298 126.183 19.0451C126.187 19.2983 126.321 19.315 126.702 19.1111C127.397 18.7393 127.506 18.7637 127.541 19.2999C127.57 19.7083 127.587 19.7048 127.698 19.2714C127.801 18.8726 127.996 18.8068 128.723 18.9248C129.241 19.0088 129.621 18.9574 129.621 18.8078C129.621 18.663 129.758 18.6291 129.924 18.7323C130.091 18.8355 130.715 18.9313 131.31 18.946L132.391 18.9705L132.541 21.0818L132.691 23.1931L132.739 21.0158C132.768 19.7725 132.901 18.8385 133.051 18.8385C133.197 18.8385 133.329 19.1651 133.347 19.5643L133.379 20.29L133.546 19.6045C133.678 19.0604 133.862 18.9261 134.438 18.9534C134.837 18.9738 135.164 18.898 135.164 18.7879C135.164 18.6778 135.431 18.6864 135.757 18.8083C136.084 18.929 136.499 18.9755 136.681 18.9119C136.898 18.8352 137.021 19.0949 137.042 19.6755L137.074 20.5552L137.245 19.7635C137.376 19.1563 137.553 18.9791 138.005 19.0033C138.33 19.0196 138.595 18.943 138.595 18.8301C138.595 18.7175 138.833 18.6873 139.123 18.7632C139.472 18.8545 139.659 19.1363 139.676 19.5962C139.7 20.2341 139.735 20.2098 140.108 19.3014C140.582 18.1445 140.893 18.0476 141.128 18.9837C141.221 19.3536 141.367 19.5851 141.454 19.4986C141.54 19.4121 141.751 19.7925 141.922 20.344C142.232 21.3437 142.233 21.3443 142.261 20.5389C142.31 19.0996 144.091 17.9638 144.156 19.3297C144.168 19.6037 144.226 19.6417 144.31 19.4333C144.682 18.5128 144.931 19.3656 144.967 21.6765C145.008 24.3628 145.056 24.2602 145.331 20.9028C145.477 19.1178 145.557 18.88 146.003 18.9136C146.407 18.9422 146.51 19.1546 146.51 19.9513C146.51 20.501 146.629 20.9508 146.774 20.9508C146.919 20.9508 147.038 20.6763 147.038 20.3414C147.038 19.6565 147.693 18.6158 147.958 18.8806C148.053 18.9752 148.223 20.7566 148.336 22.8389L148.541 26.6249L148.584 23.8538C148.667 18.4539 149.309 17.5695 149.446 22.6662L149.517 25.3054L149.662 22.2948C149.788 19.6944 149.871 19.2751 150.269 19.2172C150.644 19.1629 150.734 19.3574 150.746 20.2484C150.754 20.8524 150.86 21.8217 150.98 22.4023C151.175 23.3434 151.202 23.2433 151.233 21.4786C151.269 19.3224 151.504 18.6746 152.156 18.9247C152.444 19.0356 152.588 19.4444 152.608 20.2167L152.637 21.3467L152.829 20.3541C152.935 19.8081 153.082 19.3008 153.157 19.2267C153.278 19.1056 153.75 21.6604 153.989 23.7219C154.039 24.1574 154.098 23.3488 154.12 21.9249C154.144 20.2757 154.255 19.3953 154.423 19.4993C154.568 19.589 154.687 19.4332 154.687 19.1535C154.687 18.7408 154.863 18.6505 155.621 18.6761C156.353 18.7005 156.588 18.8347 156.703 19.2935C156.836 19.8203 156.891 19.8386 157.256 19.4746C157.937 18.7927 158.232 19.4756 158.381 22.0825L158.52 24.5137L158.737 21.779C158.957 19.016 159.316 18.5042 159.505 20.6869C159.6 21.795 159.61 21.7729 159.654 20.357C159.69 19.2046 159.795 18.8396 160.095 18.8396C160.416 18.8396 160.497 19.3011 160.523 21.2808L160.556 23.722L160.783 22.1651C161.036 20.4288 161.197 20.1242 161.557 20.6946C161.742 20.9866 161.804 20.894 161.807 20.3211C161.811 19.3225 163.005 18.1432 163.551 18.5967C163.755 18.7655 163.923 19.0973 163.925 19.3336C163.927 19.5807 164.012 19.6507 164.123 19.4991C164.421 19.0938 165.24 19.0373 165.249 19.4216C165.253 19.6263 165.365 19.5774 165.527 19.2997C165.727 18.956 166.097 18.8476 166.958 18.8802C167.596 18.9047 168.307 18.7676 168.538 18.5764C169.003 18.1899 169.34 18.4117 169.538 19.2355L169.665 19.7632L169.697 19.2355C169.726 18.7311 169.895 18.7099 173.487 18.7599C175.895 18.7925 177.466 18.7028 177.857 18.5087C178.31 18.2828 178.589 18.2816 178.943 18.5047C179.553 18.8855 188.18 18.9196 188.634 18.5414C188.852 18.3607 189.149 18.3847 189.564 18.6163C190.194 18.9674 193.208 19.1128 193.209 18.7921C193.209 18.4459 194.293 18.2713 194.641 18.5609C194.837 18.7232 195.858 18.8398 196.937 18.8231C203.14 18.7285 204.666 18.7823 204.772 19.1004C204.853 19.3418 204.931 19.3479 205.069 19.1248C205.282 18.7795 207.356 18.6788 212.271 18.7754L215.635 18.8414L215.655 19.5672C215.667 19.9664 215.735 20.1148 215.808 19.8971C216.179 18.7845 216.283 18.8284 216.437 20.1609L216.604 21.6124L216.647 20.2269C216.679 19.2072 216.794 18.8326 217.085 18.8083C217.303 18.788 217.629 18.7504 217.811 18.7202C217.992 18.6917 218.408 18.8263 218.734 19.0232C219.082 19.2328 219.328 19.2691 219.328 19.1113C219.328 18.6603 220.339 18.8095 220.626 19.3029C220.882 19.7428 220.895 19.7428 220.903 19.3029C220.911 18.774 221.961 18.6448 221.974 19.1708C221.978 19.3637 222.136 19.298 222.353 19.0126C222.672 18.5907 222.844 18.5646 223.619 18.8202C224.432 19.0889 225.554 19.0497 227.177 18.6962C227.503 18.6253 227.771 18.684 227.771 18.8275C227.771 18.971 227.949 19.02 228.166 18.9364C228.459 18.8243 228.567 18.9812 228.583 19.5385L228.603 20.2925L228.865 19.578C229.108 18.913 229.225 18.8663 230.559 18.9046L231.992 18.9457L232.042 20.6748L232.093 22.4038L232.187 20.7544C232.301 18.7535 232.769 18.5585 232.821 20.4905L232.857 21.8761L233.025 20.497C233.211 18.958 233.702 18.179 233.998 18.9511C234.139 19.3164 234.222 19.3396 234.399 19.0611C234.541 18.836 234.633 19.1378 234.654 19.8967L234.686 21.0843L234.946 19.9199C235.111 19.1781 235.281 18.877 235.412 19.0901C235.574 19.3518 235.769 19.3257 236.312 18.9706C236.765 18.6738 237.004 18.6244 237.004 18.8287C237.004 19.002 237.209 19.0798 237.466 19.0036C237.72 18.9281 238.7 18.8385 239.643 18.8042L241.358 18.7418L241.507 20.8369L241.657 22.9319L241.705 21.0341C241.734 19.9903 241.872 19.0629 242.018 18.9732C242.173 18.877 242.282 19.1685 242.283 19.6834L242.284 20.5566L242.806 19.6989C243.31 18.8727 244.392 18.4895 244.392 19.1375C244.392 19.3422 244.514 19.332 244.788 19.1049C245.132 18.8194 245.189 18.9809 245.225 20.3261L245.267 21.8759L245.434 20.5564L245.601 19.2368L245.845 20.8202L246.089 22.4037L246.259 21.3481C246.401 20.4622 246.441 20.6108 246.505 22.2718L246.582 24.2511L246.824 22.0078C246.957 20.774 247.178 19.4898 247.314 19.154C247.534 18.6125 247.607 18.588 247.956 18.9371C248.172 19.1536 248.366 19.666 248.387 20.0755C248.416 20.6777 248.461 20.6183 248.613 19.7644C248.717 19.1838 248.821 18.9463 248.844 19.2366C248.88 19.6771 248.928 19.699 249.141 19.3687C249.338 19.0629 249.398 19.1473 249.4 19.7393C249.404 20.4893 249.417 20.4956 249.932 20.0284C250.222 19.7658 250.46 19.402 250.46 19.2202C250.46 18.7667 253.378 18.5888 253.824 19.0151C254.005 19.1888 254.163 19.7253 254.174 20.2074C254.195 21.1199 254.262 21.0498 254.531 19.8302C254.637 19.3491 254.86 19.1044 255.193 19.1044C255.708 19.1044 255.81 19.617 256.089 23.5909C256.134 24.2441 256.195 23.5314 256.222 22.0075C256.251 20.4834 256.387 19.0582 256.528 18.8405C256.668 18.6228 256.785 18.5693 256.787 18.7214C256.789 18.8821 257.179 18.953 257.715 18.8907L258.638 18.783L258.683 20.3294L258.727 21.8758L258.902 20.2923C259.074 18.7371 259.078 18.7308 259.122 19.9408C259.193 21.9156 259.541 22.3703 259.694 20.6882C259.883 18.6062 260.329 18.8992 260.497 21.216L260.64 23.1953L260.775 21.348C260.849 20.3319 260.951 23.004 261.003 27.286L261.096 35.0714L261.384 27.286C261.543 23.004 261.773 19.344 261.897 19.1526C262.02 18.9614 262.284 18.8673 262.482 18.9431C262.68 19.0193 262.913 18.9675 262.999 18.8285C263.098 18.6683 263.337 18.6724 263.65 18.8408C263.921 18.9863 264.419 19.0756 264.755 19.0393C265.293 18.981 265.385 19.1139 265.524 20.161C265.626 20.9295 265.696 21.0864 265.722 20.6055C265.742 20.1968 265.893 19.6167 266.054 19.3163C266.288 18.8782 266.392 18.8424 266.577 19.1356C266.77 19.4398 266.812 19.4349 266.831 19.1071C266.848 18.8404 266.928 18.8836 267.081 19.2392C267.275 19.6905 267.31 19.7001 267.326 19.3053C267.351 18.6465 267.781 18.7338 267.973 19.4373C268.109 19.9308 268.179 19.9642 268.39 19.6351C268.53 19.4174 268.886 19.2258 269.182 19.2093C269.674 19.1808 269.724 19.3492 269.772 21.1887L269.824 23.1979L269.915 21.2846C269.965 20.2322 270.12 19.3712 270.258 19.3712C270.397 19.3712 270.524 19.1041 270.541 18.7774C270.566 18.2973 270.611 18.3352 270.774 18.9752C270.885 19.4107 270.989 19.552 271.007 19.2895C271.06 18.4878 271.564 19.0816 271.594 19.9805L271.622 20.8227L271.909 20.0969C272.067 19.6977 272.351 19.3711 272.54 19.3711C272.73 19.3711 272.885 19.2296 272.885 19.0567C272.885 18.8838 273.044 18.9597 273.239 19.2256C273.58 19.6928 273.599 19.6922 273.804 19.2092C273.982 18.7915 274.071 18.8822 274.354 19.766C274.681 20.7877 274.693 20.7963 274.73 20.0298C274.751 19.5944 274.871 19.0005 274.996 18.7102C275.204 18.225 275.225 18.2357 275.249 18.8423C275.274 19.4799 275.29 19.4849 275.664 18.9899C276.012 18.5287 276.054 18.7657 276.084 21.3652C276.112 23.6942 276.158 24.023 276.328 23.0651C276.444 22.4119 276.548 21.254 276.559 20.4919C276.575 19.3637 276.664 19.1027 277.04 19.0868C277.294 19.0745 277.769 19.0174 278.095 18.9567C278.522 18.8772 278.694 18.9771 278.706 19.3061C278.718 19.645 278.788 19.6037 278.97 19.1491C279.189 18.6015 279.34 18.5491 280.308 18.6845C280.908 18.7685 281.561 18.9716 281.759 19.1362C282.023 19.3559 282.119 19.3567 282.119 19.1399C282.119 18.9715 282.564 18.8435 283.152 18.8435C283.744 18.8435 284.233 18.7024 284.297 18.5136C284.384 18.2527 284.615 18.2584 285.404 18.5422C286.602 18.9723 289.524 18.9787 289.788 18.5503C290.036 18.1495 290.561 18.4908 290.566 19.0561C290.57 19.3102 290.653 19.3888 290.764 19.2384C290.976 18.9489 291.547 18.9069 296.234 18.8376C297.975 18.8131 299.621 18.6724 299.891 18.5277C300.242 18.3397 300.708 18.3899 301.529 18.7034C302.596 19.1114 302.74 19.1115 303.596 18.7053C304.464 18.2934 304.553 18.2961 305.176 18.7538C305.799 19.212 305.841 19.3998 305.925 22.1419L306.015 25.0449L306.071 21.9798L306.127 18.9147L307.283 18.7566C307.919 18.6693 308.834 18.7113 309.317 18.8499C309.855 19.004 310.531 19.0089 311.063 18.8622C311.75 18.6726 311.932 18.7007 311.932 18.9967C311.932 19.2026 312.051 19.3714 312.196 19.3714C312.341 19.3714 312.459 19.276 312.459 19.159C312.459 19.0424 312.964 18.9196 313.581 18.8866C314.197 18.854 315.082 18.7043 315.546 18.5551C316.157 18.3586 316.553 18.3704 316.978 18.5975C317.739 19.0049 320.091 18.98 321.275 18.5514C322.086 18.2579 322.266 18.2742 322.716 18.6815C323.129 19.0558 323.479 19.1105 324.506 18.9616C325.208 18.8601 325.924 18.6648 326.096 18.5277C326.296 18.3687 326.623 18.3936 327.003 18.5967C327.393 18.8054 328.326 18.8687 329.724 18.7806C330.894 18.7068 332.62 18.7276 333.56 18.8263C334.501 18.9249 335.787 18.8878 336.419 18.7431C337.154 18.5747 337.82 18.5706 338.271 18.7308C338.658 18.869 339.449 18.9151 340.03 18.834C341.256 18.6623 341.995 18.9359 342.04 19.5778C342.056 19.8266 342.162 19.674 342.273 19.2386C342.453 18.53 342.481 18.5855 342.543 19.7664L342.611 21.086L342.772 20.0329C342.88 19.3206 343.082 18.9513 343.394 18.8919C343.69 18.8356 343.867 18.9771 343.886 19.2854C343.915 19.7156 343.929 19.7186 344.036 19.3139C344.161 18.8354 345.72 18.3961 346.212 18.7004C346.366 18.7958 347.799 18.8778 349.395 18.8823L352.298 18.8904L352.347 21.8356L352.396 24.7808L352.562 22.5375C352.653 21.3037 352.749 20.6872 352.776 21.1675C352.849 22.4534 353.353 21.9257 353.353 20.5642C353.353 19.1954 353.572 18.5196 353.941 18.7477C354.294 18.9663 360.368 18.941 360.727 18.7192C360.888 18.6193 361.017 18.8028 361.035 19.1569C361.059 19.6276 361.094 19.6577 361.189 19.2894C361.259 19.0178 361.502 18.8488 361.752 18.8967C362.121 18.9673 362.211 19.4453 362.314 21.8808L362.437 24.7808L362.578 21.8989C362.675 19.9331 362.824 18.9823 363.049 18.9079C363.282 18.8308 363.393 19.2132 363.427 20.2062L363.474 21.6138L363.572 20.3812C363.685 18.962 364.226 18.3214 364.936 18.7651C365.188 18.9225 365.713 18.991 366.102 18.9163C366.641 18.8132 366.809 18.8878 366.809 19.2234C366.809 19.4668 366.919 19.5977 367.053 19.5149C367.187 19.4322 367.346 19.5732 367.406 19.8293C367.488 20.1762 367.568 20.1062 367.722 19.5533L367.929 18.8121L370.205 18.892C371.92 18.9524 372.525 19.0698 372.661 19.3693C372.789 19.6527 372.845 19.5907 372.858 19.1536C372.883 18.3835 373.661 18.4628 374.066 19.2767L374.346 19.8376L375.077 19.2084C376.075 18.3496 376.301 18.4139 376.341 19.5689L376.378 20.5586L376.541 19.6601C376.661 19.0012 376.859 18.7383 377.285 18.6741C377.604 18.626 377.937 18.7027 378.026 18.8466C378.114 18.9897 378.417 19.1067 378.699 19.1067C379.008 19.1067 379.213 19.2894 379.217 19.5686C379.221 19.9506 379.305 19.9221 379.703 19.4055C380.058 18.9436 380.331 18.8278 380.752 18.9614C381.231 19.1135 381.328 19.359 381.361 20.5099L381.402 21.8776L381.586 20.69C381.767 19.5286 381.773 19.5228 381.845 20.4262L381.919 21.3499L382.102 20.4262L382.285 19.5025L382.486 20.2943C382.826 21.633 382.863 21.651 382.884 20.492C382.905 19.3157 383.221 19.0526 383.675 19.8322C383.887 20.1964 383.947 20.2102 383.956 19.8983C383.969 19.5464 383.997 19.5464 384.224 19.8983C384.431 20.2184 384.48 20.1804 384.484 19.7005C384.487 19.284 384.645 19.1067 385.015 19.1067C385.306 19.1067 385.543 19.2482 385.543 19.4211C385.543 19.594 385.719 19.5051 385.934 19.2234C386.267 18.7867 386.362 18.7683 386.579 19.0986C386.792 19.424 386.92 19.3861 387.375 18.8605L387.918 18.2348L387.922 18.8689C387.925 19.2208 388.012 19.3772 388.119 19.22C388.226 19.0643 388.669 18.9383 389.105 18.9403C389.775 18.9441 389.921 19.0671 390.059 19.7512L390.222 20.5587L390.255 19.701C390.292 18.7743 390.426 18.7076 391.46 19.1007C392.028 19.3168 392.144 19.5387 392.183 20.4863L392.229 21.6144L392.343 20.4268C392.432 19.4944 392.504 19.3526 392.674 19.767C392.864 20.2302 392.893 20.2059 392.909 19.5692C392.938 18.4672 393.451 18.7018 393.487 19.833C393.519 20.818 393.519 20.819 393.719 20.0308C393.852 19.5119 393.951 20.4214 394.007 22.6699C394.094 26.0996 394.094 26.0999 394.175 23.4617C394.265 20.5103 394.483 19.5699 394.785 20.8226C394.969 21.5827 394.978 21.5722 395.016 20.5588C395.044 19.7853 395.22 19.3837 395.671 19.0561L396.286 18.6091L396.454 20.2165C396.546 21.1005 396.637 22.6675 396.657 23.6985L396.693 25.5732L396.909 23.8577C397.027 22.9143 397.235 21.4297 397.37 20.5588L397.615 18.9753L397.686 21.6144L397.757 24.2536L397.945 21.8906C398.055 20.5156 398.259 19.4857 398.434 19.4274C398.599 19.3723 398.74 19.1293 398.746 18.8873C398.754 18.6455 399.033 18.973 399.369 19.6149C399.769 20.3804 400.03 20.6529 400.127 20.4066C400.209 20.1999 400.285 20.6448 400.296 21.3949C400.333 23.865 400.707 23.8367 400.845 21.3533C400.955 19.3659 401.052 18.9664 401.439 18.8927C401.741 18.8352 401.902 18.971 401.904 19.2858C401.908 19.6499 401.963 19.6813 402.131 19.4151C402.646 18.6028 402.83 20.3374 402.964 27.2886L403.104 34.5463L403.166 27.1567C403.225 20.0982 403.351 18.8313 403.959 19.2071C404.108 19.2992 404.27 19.2536 404.319 19.1064C404.368 18.9588 404.676 18.7867 405.003 18.7239C405.329 18.6607 405.715 18.5363 405.859 18.447C406.003 18.3577 406.131 18.5588 406.143 18.8939C406.155 19.2291 406.223 19.3559 406.296 19.1757C406.383 18.96 406.579 18.9266 406.869 19.0779C407.138 19.2181 407.822 19.1708 408.628 18.9555C410.356 18.4942 411.617 18.4943 412.925 18.9557C413.51 19.1624 414.059 19.2615 414.145 19.1754C414.231 19.0898 414.302 19.1876 414.302 19.3935C414.302 19.6023 414.58 19.4221 414.929 18.9847C415.502 18.2691 415.616 18.2295 416.26 18.5228C417.106 18.9086 420.798 18.9528 421.028 18.5799C421.256 18.2109 422.308 18.2505 422.701 18.6427C422.985 18.9273 425.668 19.0003 428.68 18.8058C430.118 18.7128 430.394 18.8343 430.426 19.5698L430.458 20.2956L430.625 19.6358C430.793 18.9693 431.42 18.7539 431.777 19.2399C431.884 19.385 431.989 20.6914 432.011 22.143L432.052 24.7821L432.285 22.0109C432.413 20.4869 432.567 19.102 432.627 18.9335C432.701 18.7251 433.237 18.6725 434.3 18.7688C435.304 18.8597 435.929 18.8054 436.045 18.6191C436.171 18.4144 436.609 18.4735 437.512 18.8169C438.465 19.1789 438.876 19.229 439.096 19.0097C439.301 18.8046 441.018 18.7365 444.656 18.7891C448.815 18.8491 449.921 18.7932 449.924 18.5249C449.927 18.2749 449.992 18.2856 450.168 18.5657C450.422 18.9661 453.014 19.1747 453.238 18.8128C453.304 18.7055 453.683 18.6901 454.08 18.7761C454.98 18.9751 455.831 18.9734 457.14 18.772C457.701 18.6852 458.74 18.6827 459.449 18.7679C460.716 18.9179 460.738 18.9359 460.773 19.8734C460.802 20.5989 460.838 20.6689 460.929 20.1666C461.103 19.2106 461.699 18.6581 462.523 18.6885L463.244 18.7171L463.313 28.02C463.35 33.1366 463.44 37.323 463.511 37.323C463.582 37.323 463.612 28.8019 463.579 18.3872L463.577 18.3595Z" fill="black"/>
</svg>
