<svg width="464" height="38" viewBox="0 0 464 38" fill="none" xmlns="http://www.w3.org/2000/svg">
<path d="M422.814 19.193C425.515 19.0466 426.392 19.2052 426.519 19.8558C426.615 20.3458 426.635 20.3311 426.666 19.7481L426.702 19.073L429.106 19.1881C430.958 19.2765 431.563 19.2207 431.741 18.9393C431.875 18.7273 431.999 22.4807 432.038 27.9446L432.104 37.3136L432.177 28.3171L432.25 19.3206L433.895 19.2496C437.736 19.0836 440.898 19.2031 441.095 19.5207C441.183 19.6647 441.554 19.5575 441.957 19.2692C442.547 18.8496 442.885 18.8011 443.984 18.9785C446.133 19.3254 446.226 19.4014 446.226 20.8065C446.226 21.4945 446.315 23.1741 446.424 24.539L446.622 27.0208L446.754 23.2819C446.826 21.2254 446.968 19.4607 447.068 19.3602C447.169 19.2598 448.742 19.1607 450.564 19.1403L453.877 19.1037L453.881 19.8954L453.885 20.6872L454.211 20.0482C454.72 19.0492 455.191 19.0599 455.232 20.0727C455.257 20.692 455.302 20.7766 455.383 20.3585C455.561 19.4343 455.945 19.6592 456.06 20.7544C456.146 21.5849 456.17 21.5251 456.208 20.3834C456.249 19.1138 456.291 19.0323 456.845 19.1679C457.172 19.2478 457.569 19.4138 457.727 19.5369C457.886 19.66 458.094 19.682 458.189 19.5866C458.284 19.4912 458.363 19.5581 458.363 19.7326C458.363 20.1322 459.195 20.0119 459.551 19.5614C459.716 19.351 460.299 19.2527 461.11 19.2976C462.371 19.3677 462.414 19.3974 462.731 20.425C462.91 21.0056 463.096 21.3025 463.144 21.0848C463.193 20.8671 463.297 24.5487 463.375 29.2661C463.468 34.8021 463.518 31.1058 463.516 18.8415C463.516 8.39055 463.48 3.63416 463.441 8.27175C463.391 13.9763 463.275 16.761 463.081 16.8808C462.924 16.9783 462.713 17.4592 462.612 17.9497C462.429 18.8452 461.958 19.0961 461.334 18.6303C461.154 18.4961 460.811 18.4619 460.571 18.554C459.919 18.8044 459.149 18.4725 458.89 17.8286C458.687 17.3269 458.658 17.3615 458.643 18.1156C458.623 19.1544 458.089 19.2485 457.375 18.3395C456.925 17.7675 456.847 17.7481 456.579 18.1413C456.337 18.4981 456.273 18.3611 456.225 17.3897C456.177 16.3931 456.15 16.34 456.061 17.0599C455.953 17.9297 455.614 18.1892 455.371 17.5877C455.298 17.4063 455.229 17.584 455.217 17.9837C455.193 18.8629 454.852 18.9224 454.463 18.1158C454.253 17.6803 454.172 17.6382 454.159 17.958C454.13 18.6685 452.7 19.0042 450.872 18.7299C449.986 18.597 448.785 18.5248 448.205 18.5696C447.422 18.63 447.103 18.5411 446.97 18.2186C446.872 17.9805 446.764 16.3607 446.732 14.6189C446.678 11.73 446.656 11.6025 446.481 13.1673C446.375 14.1108 446.274 15.8031 446.257 16.9281C446.228 18.7662 446.174 18.9734 445.714 18.9734C445.432 18.9734 445.128 18.8548 445.039 18.7096C444.809 18.3373 442.176 18.3802 441.794 18.7622C441.547 19.0085 441.476 18.9938 441.473 18.6962C441.47 18.3826 441.428 18.3777 441.243 18.6676C440.917 19.183 440.089 18.9351 439.73 18.2142C439.424 17.5999 439.419 17.5992 439.244 18.1498C439.028 18.8282 437.926 19.1547 437.38 18.7017C437.064 18.4391 436.667 18.4403 435.412 18.7057C434.15 18.9736 433.681 18.9744 433.041 18.7095L432.243 18.3788L432.18 9.37175L432.118 0.364746L432.045 9.0079C431.999 14.4647 431.875 17.6511 431.711 17.6511C431.568 17.6511 431.451 17.8252 431.451 18.0376C431.451 18.6624 430.531 18.977 429.164 18.8195C427.093 18.581 426.747 18.4668 426.62 17.9807C426.545 17.6941 426.488 17.792 426.469 18.2384C426.44 18.8997 426.383 18.9368 425.756 18.6984C425.381 18.5557 424.984 18.4953 424.873 18.5638C424.512 18.7869 421.83 18.8301 421.491 18.6181C421.239 18.4603 421.157 16.3312 421.143 9.52038C421.131 4.31088 421.03 0.84743 420.897 1.1567C420.773 1.44702 420.662 5.44818 420.652 10.0482C420.64 14.9525 420.531 18.4752 420.386 18.565C420.25 18.649 420.016 18.5079 419.866 18.2506C419.717 17.9933 419.591 17.9318 419.586 18.1132C419.57 18.8213 419.078 18.3953 418.978 17.5853L418.871 16.7276L418.829 17.6755C418.787 18.6169 418.779 18.6233 417.612 18.6127C416.559 18.6045 416.426 18.5319 416.332 17.9287C416.245 17.3652 416.221 17.3953 416.188 18.1135C416.142 19.1123 415.822 19.2215 415.415 18.3773C415.258 18.0506 415.121 17.9319 415.111 18.1135C415.103 18.2949 414.879 18.4433 414.618 18.4433C414.357 18.4433 414.022 18.5644 413.874 18.7124C413.692 18.8951 413.252 18.8568 412.502 18.5921C411.68 18.3018 411.398 18.2839 411.395 18.5212C411.392 18.7177 411.293 18.6879 411.136 18.4433C410.918 18.1065 410.879 18.1045 410.876 18.4311C410.872 18.7365 410.806 18.7475 410.542 18.4849C410.331 18.2741 410.159 16.9539 410.065 14.8033L409.917 11.4505L409.867 15.2205C409.82 18.7066 409.782 18.9745 409.355 18.7774C409.101 18.6604 408.181 18.5792 407.31 18.5972C406.412 18.6176 405.643 18.5042 405.533 18.3391C405.426 18.1789 405.314 17.098 405.284 15.9367L405.228 13.8254L405.082 15.6728C405.001 16.6889 404.873 13.7199 404.798 9.07497L404.661 0.629727L404.6 9.65321C404.559 15.5728 404.445 18.7352 404.264 18.8469C404.113 18.9407 403.827 18.8836 403.629 18.7184C403.388 18.5182 402.583 18.475 401.192 18.588C399.199 18.749 399.101 18.7307 398.801 18.1383C398.629 17.7986 398.444 17.1048 398.39 16.5967C398.317 15.9054 398.281 16.0134 398.25 17.0263C398.209 18.3295 397.663 19.3208 397.305 18.741C397.152 18.4943 396.128 18.5249 394.813 18.8156C394.47 18.8915 393.664 18.8138 393.023 18.6415C392.098 18.394 391.744 18.3998 391.313 18.6701C391.014 18.8569 390.723 18.9637 390.667 18.9074C390.611 18.8511 390.459 17.9819 390.33 16.9758L390.096 15.1462L390.063 17.1124C390.039 18.5655 389.953 19.0013 389.734 18.7825C389.571 18.6194 389.286 18.5448 389.101 18.6157C388.916 18.6867 388.686 18.6195 388.591 18.464C388.473 18.2732 388.168 18.312 387.64 18.5847C387.044 18.893 386.863 18.9081 386.86 18.6499C386.856 18.4069 386.789 18.4188 386.616 18.6919C386.43 18.9867 386.293 19.0018 386.003 18.7604C385.616 18.44 382.438 18.3996 382.245 18.7128C382.046 19.0341 380.532 18.6541 380.532 18.2833C380.532 18.0819 380.422 17.9175 380.287 17.9175C380.152 17.9175 379.989 17.6505 379.927 17.3237C379.824 16.7914 379.808 16.8017 379.776 17.4232C379.756 17.8045 379.578 18.2515 379.38 18.4162C378.837 18.8666 378.473 18.2649 378.354 16.723L378.253 15.4102L378.205 16.897C378.164 18.1397 378.071 18.4063 377.63 18.5217C377.328 18.6008 377.1 18.5299 377.098 18.3545C377.094 18.1845 376.984 18.2241 376.845 18.4438C376.631 18.7823 376.538 18.7635 376.197 18.3117C375.883 17.8957 375.785 17.8682 375.732 18.1812C375.695 18.3989 375.599 15.5487 375.519 11.8473L375.373 5.11749L375.314 11.9133C375.278 16.2285 375.159 18.7091 374.991 18.7091C374.846 18.7091 374.726 18.5606 374.724 18.3792C374.72 18.1594 374.634 18.181 374.464 18.4453C374.323 18.663 374.205 18.7225 374.2 18.5773C374.196 18.4322 374.077 18.4913 373.937 18.7095C373.756 18.9896 373.67 18.6034 373.645 17.3899C373.585 14.4549 373.211 13.7737 373.176 16.5344C373.148 18.776 373.107 18.9572 372.683 18.7277C372.429 18.5902 371.895 18.4088 371.496 18.3244C370.833 18.1845 370.768 18.0638 370.746 16.9229L370.722 15.6744L370.34 17.1259C369.733 19.4391 369.766 19.3924 369.164 18.745C368.869 18.4286 368.516 18.2388 368.38 18.3232C368.243 18.4076 368.131 18.2906 368.131 18.0651C368.131 17.5735 367.703 17.5168 367.515 17.9835C367.441 18.165 367.361 17.7197 367.335 16.9939L367.289 15.6743L366.985 16.9725C366.817 17.6865 366.532 18.3198 366.351 18.38C366.102 18.4628 366.013 17.7892 365.989 15.6303C365.956 12.6263 365.757 12.8725 365.314 16.4661L365.118 18.0496L364.951 16.7299L364.784 15.4104L364.743 16.796C364.718 17.558 364.582 18.1815 364.437 18.1815C364.292 18.1815 364.166 18.0331 364.157 17.8516C364.149 17.6702 364.029 17.8014 363.892 18.1431C363.738 18.5256 363.498 18.7089 363.266 18.6198C363.058 18.5403 362.831 18.6161 362.761 18.7903C362.69 18.9636 362.623 18.7862 362.611 18.3952C362.587 17.5561 362.156 17.1817 361.982 17.8485C361.915 18.1042 361.824 17.0073 361.779 15.4106L361.698 12.5075L361.544 15.0147C361.42 17.0534 361.363 17.3 361.245 16.3343C361.107 15.2031 361.098 15.2241 361.054 16.7741C361.025 17.8029 360.886 18.4439 360.678 18.5167C359.967 18.7646 359.687 18.3626 359.644 17.0318C359.603 15.8314 359.589 15.7965 359.508 16.7301C359.34 18.6589 359.236 18.8671 358.444 18.8538C357.727 18.8415 357.706 18.7983 357.558 16.994L357.407 15.1466L357.361 16.7961C357.328 17.9559 357.216 18.4259 356.985 18.3796C356.803 18.3429 356.58 18.0167 356.488 17.6538C356.325 17.0081 356.321 17.0101 356.29 17.752C356.266 18.3781 356.193 18.4555 355.882 18.1968C355.58 17.9461 355.446 17.9926 355.213 18.4285C354.9 19.0135 353.777 19.1764 353.471 18.6812C353.345 18.477 353.226 18.4949 353.074 18.7408C352.911 19.0034 352.79 18.9267 352.596 18.439C352.452 18.0798 352.327 17.9496 352.319 18.15C352.306 18.417 352.057 18.4745 351.383 18.3652C350.823 18.2743 350.392 18.3367 350.277 18.519C350.161 18.7074 349.964 18.5271 349.757 18.0397L349.423 17.2577L349.411 17.9834C349.387 19.5329 348.092 18.383 348.054 16.7769C348.001 14.5638 347.606 14.2627 347.579 16.4144L347.554 18.4744L346.697 18.3774C345.954 18.293 345.818 18.1584 345.676 17.3731L345.513 16.4658L345.472 17.5215C345.448 18.2375 345.36 18.4598 345.203 18.2124C345.021 17.9257 344.934 17.9682 344.793 18.4102C344.61 18.9888 343.894 19.1596 343.45 18.731C343.312 18.5977 342.962 18.4497 342.671 18.4011C342.381 18.3526 342.057 18.1945 341.95 18.0493C341.835 17.8923 341.742 17.9457 341.721 18.1814C341.7 18.3991 341.597 18.2222 341.488 17.7855L341.29 16.9937L341.086 17.8728C340.942 18.4927 340.816 18.6482 340.659 18.4006C340.49 18.1331 340.436 18.1608 340.433 18.5164C340.429 18.8577 340.269 18.9528 339.835 18.8699C338.654 18.644 338.382 18.3965 338.12 17.3086L337.854 16.202L337.817 17.2577C337.788 18.0436 337.716 18.2121 337.525 17.9175C337.385 17.6997 337.26 17.1653 337.247 16.7299C337.227 16.0476 337.193 16.0111 336.998 16.4661C336.788 16.9524 336.768 16.9419 336.735 16.3339C336.703 15.7325 336.682 15.7209 336.49 16.2018C336.374 16.4922 336.194 17.3063 336.09 18.0112L335.901 19.2926L335.384 18.7369C335.099 18.4311 334.758 18.1812 334.627 18.1812C334.495 18.1812 334.343 17.5577 334.29 16.7956L334.193 15.4101L334.144 16.9226C334.091 18.561 334.242 18.4165 332.142 18.8427C331.866 18.8986 331.308 18.7726 330.902 18.563C330.241 18.2213 330.138 18.2274 329.918 18.6209C329.699 19.0111 329.468 19.0274 327.86 18.7657C326.647 18.5683 325.438 18.5512 324.201 18.713C321.696 19.0417 321.53 19.0335 321.054 18.5581C320.826 18.3302 320.64 18.2715 320.64 18.4285C320.64 18.6189 320.157 18.6568 319.189 18.543C318.18 18.4243 317.738 18.4639 317.738 18.6727C317.738 18.8378 317.559 18.9728 317.342 18.9728C317.124 18.9728 316.946 18.8301 316.946 18.656C316.946 18.4117 316.874 18.4109 316.633 18.6523C316.392 18.8936 316.21 18.8663 315.841 18.5319C315.578 18.2938 315.363 18.2241 315.363 18.3774C315.363 18.5307 314.918 18.6551 314.374 18.6542C313.829 18.6535 312.755 18.6787 311.985 18.7109C311.216 18.7435 310.512 18.6946 310.42 18.602C310.327 18.5099 310.171 17.9322 310.07 17.318L309.888 16.2013L309.856 17.4092C309.823 18.5955 309.809 18.615 309.031 18.5009L308.24 18.3847L308.191 16.3693L308.143 14.3539L307.993 16.4652C307.907 17.6875 307.754 18.4376 307.63 18.2467C307.306 17.745 306.92 17.8524 306.92 18.4448C306.92 19.0959 306.51 19.1311 306.154 18.5108C305.903 18.0742 305.845 18.0735 305.086 18.4986C304.298 18.9392 304.282 18.9365 304.252 18.3665C304.227 17.9199 304.193 17.8921 304.1 18.247C303.967 18.7568 303.791 18.808 303.283 18.4851C303.024 18.3208 302.893 16.1701 302.731 9.4502L302.519 0.630847L302.477 9.53793C302.453 14.8477 302.336 18.445 302.189 18.445C302.053 18.445 301.893 18.1184 301.833 17.7192C301.727 17.0212 301.721 17.0252 301.683 17.8228C301.642 18.6801 301.153 19.0716 300.456 18.8042C300.239 18.7207 300.06 18.4785 300.06 18.2658C300.06 17.9343 300.008 17.9323 299.691 18.2495C299.442 18.4987 298.818 18.5993 297.778 18.5586C296.929 18.5259 295.653 18.605 294.943 18.7359C294.049 18.9007 293.541 18.8827 293.294 18.6772C293.085 18.5035 292.937 18.4884 292.937 18.6405C292.937 18.8709 290.96 18.5353 290.562 18.2373C290.49 18.183 290.362 16.8121 290.278 15.1909L290.126 12.2435L290.034 15.0146L289.942 17.7856L289.771 15.9382L289.601 14.0909L289.533 16.3341C289.497 17.5679 289.406 18.4289 289.333 18.2475C289.098 17.6643 288.716 17.8956 288.716 18.6214C288.716 19.502 288.504 19.3037 288.055 18.0032L287.707 16.9939L287.523 17.7197C287.403 18.1932 287.165 18.4454 286.837 18.4454C286.561 18.4454 286.083 18.5939 285.776 18.7753C285.365 19.0179 285.188 19.0253 285.107 18.8039C285.046 18.6379 284.765 18.5625 284.482 18.6367C284.113 18.7333 283.958 18.6326 283.936 18.2787C283.908 17.8363 283.894 17.8331 283.785 18.2501C283.638 18.8154 283.456 18.8262 282.724 18.3134C282.397 18.0838 282.09 18.0202 282.001 18.1633C281.917 18.2999 281.553 18.3582 281.192 18.2929C280.808 18.2232 280.537 18.297 280.537 18.4756C280.537 18.6897 280.422 18.6815 280.141 18.4471C279.816 18.1771 279.746 18.198 279.746 18.5645C279.746 18.8614 279.592 18.9682 279.284 18.8838C279.03 18.814 278.347 18.6767 277.767 18.5784C277.186 18.4801 276.563 18.2771 276.382 18.1271C276.146 17.9322 276.051 17.9575 276.048 18.2169C276.044 18.5015 275.989 18.4941 275.788 18.1842C275.602 17.8967 275.531 17.8829 275.529 18.1337C275.525 18.3237 275.406 18.4056 275.261 18.3159C275.116 18.2262 274.997 18.3485 274.997 18.5862C274.997 19.3698 274.341 18.8219 274.174 17.8991C274.065 17.2919 274 17.1959 273.977 17.6059C273.956 17.9411 273.833 18.1481 273.701 18.0661C273.568 17.9841 273.397 18.0661 273.322 18.2484C273.223 18.4849 273.066 18.4331 272.771 18.0678C272.423 17.6354 272.359 17.6226 272.359 17.9862C272.359 18.2231 272.245 18.4873 272.106 18.5734C271.669 18.8433 270.776 18.0854 270.776 17.4454C270.776 17.1045 270.659 16.9058 270.512 16.9966C270.367 17.0863 270.249 17.5646 270.249 18.0595C270.249 18.6703 270.143 18.9191 269.919 18.834C269.264 18.5853 266.673 18.5282 266.076 18.7496C265.701 18.8887 265.261 18.8666 264.936 18.6929C264.57 18.4968 264.17 18.4924 263.634 18.6807C263.112 18.8626 262.861 18.8634 262.861 18.6826C262.861 18.5354 262.638 18.4857 262.365 18.5721C262.035 18.6769 261.809 18.5758 261.691 18.2675C261.54 17.8724 261.478 17.8618 261.268 18.1937C261.082 18.4873 261.013 18.389 260.983 17.7904C260.946 17.0992 260.928 17.0795 260.823 17.6355C260.692 18.3294 260.159 18.9783 259.72 18.9783C259.567 18.9783 259.364 18.67 259.27 18.2934C259.143 17.7874 259.039 17.7012 258.873 17.9635C258.693 18.2485 258.648 18.2506 258.644 17.9717C258.642 17.7817 258.522 17.6997 258.377 17.7894C258.231 17.8791 258.097 17.6781 258.078 17.3431C258.053 16.9176 257.984 17.0125 257.849 17.6575L257.654 18.5813L257.618 17.4752C257.573 16.0387 257.055 15.6807 257.055 17.0858C257.055 17.8098 256.923 18.1797 256.622 18.2952C255.994 18.5362 255.886 18.3238 255.71 16.5141L255.553 14.8863L255.491 16.9977C255.432 19.0172 255.414 19.0746 255.067 18.3172C254.856 17.8565 254.679 17.691 254.643 17.9213C254.611 18.1391 254.508 17.3077 254.417 16.0739L254.251 13.8306L254.202 16.3041C254.16 18.4047 254.097 18.7308 253.779 18.4674C253.49 18.2268 253.386 18.2358 253.318 18.5082C253.25 18.7802 252.92 18.8083 251.845 18.6342C250.472 18.4116 250.459 18.401 250.436 17.4402L250.411 16.4707L250.147 17.394C249.75 18.7773 249.133 19.0807 248.67 18.1201L248.384 17.5263L248.364 18.1294C248.347 18.6429 248.27 18.6918 247.834 18.4584C247.48 18.2688 247.27 18.2693 247.152 18.4594C247.059 18.6107 246.749 18.6609 246.464 18.5704C246.179 18.4799 245.803 18.5243 245.629 18.669C245.038 19.159 243.907 17.8624 243.791 16.563C243.689 15.4187 243.689 15.4196 243.643 16.7844C243.594 18.2299 243.093 19.0178 243.036 17.7393C243.003 17.0565 242.98 17.0761 242.726 17.9876C242.448 18.9804 242.186 19.2055 241.882 18.7134C241.792 18.5683 241.37 18.4495 240.943 18.4495L240.167 18.4497L240.124 16.6683L240.082 14.8869L239.904 16.3384C239.803 17.1608 239.689 17.504 239.64 17.1301C239.591 16.755 239.487 17.0653 239.399 17.8491C239.246 19.2167 239.239 19.2252 238.585 18.8984C238.002 18.6077 237.908 18.3534 237.774 16.7279L237.623 14.8869L237.576 16.6858C237.53 18.4831 237.529 18.4847 236.804 18.4013C236.205 18.3324 236.05 18.1566 235.915 17.394L235.752 16.4704L235.719 17.5582C235.687 18.6231 235.662 18.6498 234.585 18.822C233.981 18.9186 233.417 18.904 233.332 18.7894C233.099 18.4746 231.621 18.4995 231.408 18.822C231.279 19.0181 231.121 19.0043 230.894 18.7772C230.514 18.3968 229.19 18.3369 228.971 18.6899C228.89 18.8224 228.497 18.8791 228.098 18.8167C227.7 18.7539 227.136 18.6756 226.846 18.6422C226.434 18.5949 226.284 18.3225 226.16 17.3939L226.002 16.2062L225.961 17.4648C225.925 18.6613 225.89 18.7154 225.276 18.5614C224.921 18.4721 224.201 18.541 223.676 18.7147C223.15 18.888 222.647 18.9565 222.557 18.8668C222.468 18.7771 222.312 18.2011 222.212 17.5869L222.03 16.4702L221.998 17.4599C221.973 18.248 221.862 18.4495 221.459 18.4495C221.18 18.4495 220.765 18.5217 220.535 18.6098C220.231 18.7264 220.111 18.6016 220.091 18.1479L220.067 17.5259L219.885 18.1856C219.68 18.9273 218.794 19.1844 217.904 18.7609C217.599 18.6162 217.149 18.4339 216.905 18.3565C216.618 18.266 216.423 17.8571 216.355 17.2109L216.251 16.2064L216.207 17.3281C216.17 18.259 216.072 18.4497 215.635 18.4497C215.157 18.4497 215.105 18.2675 215.088 16.5364C215.068 14.3261 214.628 14.784 214.598 17.0486C214.581 18.2839 214.251 19.0015 213.874 18.6239C213.796 18.5457 213.643 17.0789 213.535 15.3646L213.339 12.2477L213.298 15.7951C213.266 18.8149 213.207 19.2711 212.909 18.863C212.716 18.5992 212.241 18.3838 211.853 18.3838C211.224 18.3838 211.146 18.2814 211.121 17.4271L211.093 16.4704L210.83 17.4601C210.55 18.5128 210.451 18.5853 209.828 18.1916C209.494 17.9808 209.409 16.5682 209.286 9.1566C209.16 1.58398 209.128 1.0636 209.053 5.38601C209.006 8.14391 208.893 12.2355 208.804 14.4785L208.641 18.5567L207.849 18.5572C207.13 18.5575 207.043 18.4622 206.897 17.5141L206.737 16.4705L206.7 17.7241C206.671 18.6458 206.558 18.9777 206.267 18.9777C206.049 18.9777 205.847 18.9491 205.818 18.9116C205.79 18.8749 205.696 16.2923 205.61 13.1715L205.454 7.49734L205.399 12.9736C205.343 18.4226 205.013 20.1506 204.694 16.6683C204.375 13.2026 204.175 12.8276 204.023 15.4148C203.895 17.6079 203.858 17.7317 203.551 17.0298C203.366 16.6058 203.123 14.3293 203.001 11.8834L202.783 7.49722L202.74 12.9075C202.715 15.8831 202.596 18.4761 202.473 18.6697C202.288 18.9621 201.998 18.9633 200.762 18.6738C199.577 18.3981 199.269 18.2194 199.248 17.794C199.228 17.3549 199.189 17.3773 199.037 17.92C198.872 18.5061 198.706 18.5818 197.546 18.5986C196.828 18.6108 196.181 18.6471 196.109 18.6838C195.998 18.7392 194.069 18.7429 189.117 18.696C188.682 18.6922 187.435 18.7286 186.347 18.7747C184.114 18.8721 183.073 18.5953 182.689 17.8024C182.443 17.2968 182.424 17.3082 182.407 17.97C182.399 18.3606 182.3 18.7356 182.19 18.8034C181.741 19.0807 180.487 18.6089 180.274 18.0827C180.067 17.5698 180.047 17.5836 180.032 18.2495C180.015 18.9456 179.491 19.3238 179.483 18.6453C179.479 18.4097 179.413 18.4207 179.246 18.6821C178.958 19.1372 178.168 18.8733 178.168 18.322C178.168 18.0998 177.99 17.918 177.772 17.918C177.555 17.918 177.376 18.017 177.376 18.1377C177.376 18.2588 177.228 18.371 177.047 18.3873C176.034 18.4786 175.078 18.6576 174.668 18.8336C174.411 18.9432 173.877 18.9571 173.48 18.8621C172.05 18.5257 169.764 18.4312 169.597 18.7015C169.218 19.3162 168.608 18.8902 168.001 17.5864L167.356 16.2008L167.352 17.1497C167.348 18.268 166.486 19.3244 166.195 18.5659C166.104 18.3298 166.023 17.8796 166.013 17.5648C165.996 17.0247 165.98 17.0296 165.697 17.6525C165.287 18.5605 165.349 18.5177 164.345 18.5851C163.849 18.6177 163.316 18.7245 163.16 18.8212C163.003 18.9178 162.623 18.8619 162.314 18.696C161.952 18.5019 161.662 18.486 161.497 18.6515C161.332 18.8166 160.804 18.7963 160.008 18.5945C158.878 18.3074 158.766 18.2055 158.661 17.3734L158.546 16.4653L158.368 17.521C158.238 18.2973 158.174 17.8782 158.127 15.9375C158.09 14.486 157.973 12.6452 157.863 11.8469C157.71 10.7419 157.653 11.3494 157.625 14.3918C157.596 17.6056 157.513 18.4168 157.207 18.5343C156.927 18.6416 156.799 18.4226 156.724 17.7049C156.625 16.7644 156.619 16.7715 156.577 17.9014C156.536 18.9921 156.506 19.0379 156.145 18.5612C155.848 18.1677 155.754 18.1408 155.741 18.4449C155.729 18.7491 155.635 18.7219 155.337 18.3288C155.048 17.9451 154.95 17.9154 154.95 18.2097C154.95 18.5037 154.717 18.5758 154.027 18.4951C153.519 18.4356 153.103 18.2917 153.103 18.175C153.103 18.0584 152.67 18.1741 152.14 18.4315C151.316 18.8327 151.081 18.8503 150.51 18.5543C150.143 18.3638 149.746 18.2684 149.626 18.3422C149.378 18.4959 149.401 18.7263 149.159 13.6947L148.975 9.86792L148.928 14.0528C148.887 17.5678 148.821 18.2144 148.503 18.0923C148.295 18.0124 148.067 18.0885 147.996 18.2619C147.926 18.4352 147.854 18.2208 147.837 17.7853L147.804 16.9935L147.401 17.9172C147.016 18.8001 146.981 18.8183 146.62 18.3287C146.349 17.9609 146.239 17.9233 146.233 18.1965C146.229 18.4057 146.054 18.2801 145.846 17.9172C145.639 17.5543 145.465 17.4059 145.46 17.5873C145.456 17.7688 145.332 17.9172 145.187 17.9172C145.035 17.9172 144.901 16.9371 144.871 15.608C144.82 13.3201 144.819 13.3157 144.726 15.1461C144.674 16.1621 144.52 17.1063 144.382 17.2442C144.244 17.382 144.132 17.8275 144.132 18.2339V18.9729L143.554 18.3955C143.073 17.9141 142.948 17.3987 142.803 15.2945L142.63 12.7709L142.568 15.9379C142.536 17.6797 142.451 18.969 142.383 18.8029C142.315 18.637 142.028 18.5616 141.744 18.6358C141.42 18.7206 141.228 18.6368 141.225 18.4099C141.222 18.1199 141.174 18.1245 140.98 18.4303C140.722 18.8384 140.561 18.4017 140.352 16.7286C140.29 16.2281 140.239 16.4089 140.214 17.2204C140.173 18.4859 140.163 18.5023 139.393 18.3892C138.862 18.3113 138.563 18.4015 138.46 18.6702C138.328 19.0119 138.247 19.0045 137.856 18.6143C137.543 18.3012 137.357 17.5395 137.25 16.1262L137.096 14.0893L137.048 16.2007C136.998 18.4164 136.708 19.4177 136.371 18.5395C136.218 18.1411 136.15 18.1252 135.953 18.444C135.753 18.7674 135.692 18.7588 135.55 18.3873C135.457 18.1464 135.219 18.0122 135.02 18.0884C134.738 18.1965 134.637 17.7981 134.566 16.2904L134.475 14.3534L134.402 16.5967C134.361 17.8305 134.269 18.6925 134.196 18.5124C134.097 18.2673 133.96 18.289 133.65 18.5989C133.388 18.861 133.033 18.9479 132.682 18.8357C132.377 18.7383 131.808 18.5976 131.417 18.5234C130.96 18.437 130.666 18.1858 130.595 17.8223C130.503 17.3498 130.479 17.3711 130.448 17.9512C130.412 18.6616 129.516 19.1783 129.202 18.6701C129.104 18.5115 128.93 18.5152 128.731 18.6783C127.952 19.3249 127.551 18.0793 127.167 13.8238C127.114 13.2432 127.051 14.0448 127.027 15.6052C126.99 17.9314 126.911 18.4423 126.587 18.4423C126.369 18.4423 126.102 18.4708 125.993 18.5083C125.884 18.545 125.726 17.9212 125.641 17.1228L125.486 15.6713L125.443 17.3515C125.401 18.9714 125.378 19.0244 124.806 18.8272C124.218 18.6246 123.08 18.5858 121.047 18.6995C120.466 18.7322 118.776 18.7403 117.291 18.7118C115.806 18.6873 114.346 18.7444 114.046 18.8394C113.747 18.9344 113.333 18.872 113.126 18.7003C112.836 18.4598 112.454 18.4643 111.458 18.7208C110.713 18.9116 109.955 18.9609 109.67 18.837C108.989 18.5414 104.575 18.4627 104.402 18.7432C104.198 19.0747 102.509 19.0204 102.296 18.6759C102.122 18.395 101.601 18.4227 98.418 18.8826C97.8711 18.9617 97.2775 18.9153 97.0988 18.7803C96.6778 18.4614 94.0038 18.3701 94.0038 18.6743C94.0038 18.8023 93.2024 18.8529 92.2229 18.7864C89.8978 18.6294 88.8632 18.6433 87.3569 18.85C86.4472 18.9752 85.9637 18.9116 85.5352 18.6115C85.1113 18.3147 84.8178 18.2747 84.4611 18.4655C84.0861 18.6661 83.9314 18.627 83.8056 18.2987C83.7151 18.0627 83.5684 17.9709 83.4799 18.0949C83.2427 18.4268 81.9188 18.9693 81.3464 18.9693C81.0733 18.9693 80.6635 18.783 80.4354 18.5546C80.2075 18.3267 80.0209 18.2557 80.0209 18.3976C80.0209 18.5456 79.5734 18.5954 78.968 18.5138C78.3043 18.4249 77.7639 18.4975 77.5058 18.7124C76.9053 19.2109 76.6348 18.7728 76.523 17.1217L76.4248 15.6702L76.3758 17.1877C76.3432 18.1869 76.2144 18.7121 75.9972 18.7254C75.8158 18.7376 75.4596 18.7853 75.2057 18.8339C74.9517 18.8824 74.744 18.8217 74.744 18.7002C74.744 18.5778 74.3893 18.5799 73.956 18.7039C73.4907 18.8372 73.1062 18.8299 73.0171 18.6835C72.9339 18.5489 72.5816 18.4388 72.2339 18.4388C71.5833 18.4388 71.5067 18.2485 71.2254 15.9317C71.1725 15.4962 71.1113 15.9398 71.0897 16.9213L71.049 18.7027L70.0596 18.7468C69.5154 18.7712 68.714 18.7713 68.2787 18.7506C65.7099 18.6225 63.6854 18.6519 62.9257 18.828C62.2665 18.9809 61.9358 18.9189 61.5504 18.5699C61.2711 18.3171 60.8691 18.1772 60.6567 18.2588C60.0175 18.5043 58.9443 17.8339 58.8317 17.1189C58.7747 16.756 58.6923 17.1107 58.6487 17.9106C58.6023 18.7691 58.5248 19.0657 58.4596 18.6365C58.3679 18.0306 58.2713 17.9528 57.8742 18.1654C57.2865 18.4802 57.0732 18.2857 57.0392 17.4048C57.0148 16.7395 57.0107 16.7378 56.8415 17.3323C56.5868 18.2369 56.1821 18.0797 55.8328 16.9404L55.5234 15.931L55.4826 17.3825C55.4541 18.4493 55.3836 18.6941 55.2169 18.3061C55.0078 17.8196 54.9874 17.83 54.9531 18.4383C54.9205 19.0464 54.8981 19.0567 54.6894 18.5704C54.466 18.0501 54.4624 18.05 54.444 18.5622C54.4236 19.0803 54.4236 19.0803 54.0613 18.5622C53.8611 18.276 53.6374 17.8041 53.5642 17.5138C53.4468 17.0483 53.4277 17.0586 53.4008 17.6018C53.3584 18.4519 52.7515 18.1872 52.5439 17.2284L52.3772 16.4584L52.3446 17.1997C52.3283 17.6207 52.1995 17.8706 52.0495 17.778C51.9044 17.6883 51.7858 17.7984 51.7858 18.0263C51.7858 18.2526 51.6671 18.4377 51.522 18.4377C51.3769 18.4377 51.2555 18.1707 51.2522 17.8439L51.2481 17.2501L50.7283 17.9099C50.3017 18.4514 50.1643 18.5018 49.9627 18.1909C49.7887 17.9221 49.615 17.8903 49.3672 18.0812C49.1748 18.2292 48.667 18.3405 48.2389 18.3283C47.6433 18.312 47.4172 18.1509 47.2758 17.6463C47.1059 17.0401 47.0891 17.0335 47.0647 17.5647C47.0321 18.2537 46.5329 18.637 46.254 18.1856C46.1183 17.9659 46.0119 18.0348 45.9153 18.405C45.7938 18.8703 45.6626 18.9126 44.9639 18.712C43.7211 18.3557 43.6745 18.2879 43.4573 16.5249L43.2539 14.8749L43.0154 16.0203C42.8841 16.6503 42.6966 17.0863 42.5991 16.9893C42.5017 16.8922 42.3545 15.486 42.2726 13.8645L42.1238 10.9163L42.0749 14.7934C42.0464 17.038 41.9147 18.7392 41.7622 18.8336C41.6171 18.9233 41.4985 18.8621 41.4985 18.6982C41.4985 18.5343 41.3061 18.2073 41.0706 17.9718C40.6915 17.5926 40.6087 17.589 40.345 17.9433C40.1816 18.1618 39.8419 18.4177 39.5907 18.512C39.2397 18.6437 39.0771 18.4876 38.8889 17.8359L38.6439 16.9883L38.6195 17.9958C38.5991 18.9172 38.5449 18.987 38.0021 18.8128C37.6755 18.708 36.7851 18.6469 36.0233 18.6766L34.6382 18.7309L34.6056 17.4637C34.577 16.338 34.5522 16.285 34.3728 16.9883C34.1849 17.7267 34.167 17.6999 34.1062 16.5924L34.041 15.4048L33.7809 16.9223C33.611 17.915 33.3945 18.4398 33.1552 18.4398C32.9539 18.4398 32.7003 18.4439 32.5915 18.452C32.4827 18.4561 32.3201 18.0716 32.2304 17.5943L32.0669 16.7262L32.0303 17.6049L31.9977 18.4836L30.6125 18.3889C29.6049 18.32 29.1448 18.4012 28.9241 18.6907C28.6563 19.041 28.5361 19.0418 27.8932 18.6989C27.4929 18.4852 27.1049 18.079 27.0309 17.7965C26.8976 17.2875 26.8943 17.2875 26.6954 17.7965C26.5242 18.2345 26.4916 18.2056 26.4757 17.6C26.4471 16.4622 25.9316 16.4337 25.9127 17.5673C25.8964 18.4356 25.8634 18.4917 25.6575 17.9788C25.3384 17.1846 24.8743 17.2236 24.8743 18.0448C24.8743 18.8211 24.6696 18.8799 24.1862 18.243C23.9722 17.9608 23.8324 17.9095 23.8275 18.1109C23.8153 18.5403 22.8479 18.5403 22.6747 18.1109C22.5976 17.9197 22.5328 17.9816 22.521 18.2585C22.5088 18.5211 22.3812 18.6626 22.2365 18.5729C22.0914 18.4832 21.9727 18.5362 21.9727 18.6867C21.9727 19.1237 20.9188 18.1063 20.9055 17.6565C20.8974 17.4347 20.7302 17.6096 20.5313 18.0451C20.2448 18.6714 20.1637 18.7265 20.1433 18.3089C20.1229 17.9032 20.0646 17.8651 19.8873 18.1449C19.4236 18.8773 19.0692 18.1033 19.0187 16.2481L18.9669 14.3503L18.8732 16.1977C18.8214 17.2138 18.6669 18.158 18.5291 18.2959C18.371 18.4541 18.2789 18.3244 18.2789 17.9505C18.2789 17.1908 17.7585 17.4828 17.7298 18.2587C17.7094 18.7615 17.6609 18.7336 17.3458 18.0451L16.9834 17.2534L16.9671 18.0451C16.9549 18.6555 16.8925 18.7462 16.6952 18.441C16.5546 18.2233 16.4376 18.1487 16.4356 18.2755C16.4337 18.4019 16.2721 18.3733 16.0773 18.2119C15.8824 18.0504 15.6451 17.9961 15.5496 18.0916C15.4538 18.187 15.356 17.5032 15.3315 16.5718L15.2871 14.8784L15.1118 16.4618L14.9366 18.0453L14.8921 16.2795C14.8367 14.0661 14.4089 13.7079 14.2421 15.735C14.1235 17.1768 13.6131 19.4495 13.5556 18.7916C13.5393 18.6215 13.1131 18.345 12.6052 18.1773C12.0681 17.9999 11.6687 17.6878 11.6506 17.431C11.6343 17.1884 11.5442 17.3332 11.4529 17.7532C11.1965 18.9282 10.5247 19.2131 9.74296 18.4785C9.33196 18.0923 9.03594 17.9762 8.924 18.1576C8.57834 18.7167 7.98865 18.4479 7.95359 17.7156C7.92506 17.0837 7.89775 17.1093 7.7559 17.9134C7.62954 18.6292 7.45018 18.8571 6.95974 18.9265C6.61163 18.9758 6.07732 18.8837 5.77251 18.7222C5.46761 18.5608 4.59493 18.4727 3.83309 18.5265C3.01826 18.5844 2.44801 18.5143 2.44801 18.3601C2.44801 18.2146 2.23074 18.292 1.96554 18.5326C1.70018 18.7728 1.22527 18.9694 0.910183 18.9694C0.595094 18.9694 0.337311 19.0881 0.337311 19.2332C0.337311 19.5757 1.02541 19.5713 1.67385 19.2251C2.04193 19.0281 2.18419 19.0372 2.18419 19.2577C2.18419 19.4816 2.28773 19.4771 2.57225 19.2414C2.83312 19.0249 3.41641 18.9747 4.35312 19.0893C5.11912 19.1827 6.19108 19.2777 6.73525 19.3005C7.59993 19.3372 7.72854 19.4265 7.75581 20.0143C7.78434 20.6389 7.79903 20.6304 7.95759 19.8953C8.11249 19.176 8.21235 19.1116 9.04768 19.1912C9.55334 19.2398 10.2936 19.2989 10.6926 19.3233C11.365 19.3645 11.4205 19.4546 11.4495 20.5552L11.4821 21.7428L11.8212 20.4233C12.0075 19.6975 12.1718 19.2154 12.1857 19.3521C12.1979 19.4887 12.3793 19.3725 12.5851 19.0883C12.9446 18.5963 12.9667 18.6051 13.1445 19.3142C13.2464 19.7199 13.3964 19.985 13.4783 19.9032C13.7543 19.6272 14.3214 21.3984 14.352 22.6308L14.3805 23.854L14.599 22.7984C14.7193 22.2178 14.8428 21.2083 14.8742 20.5551L14.9308 19.3675L15.1118 20.6871L15.2928 22.0067L15.3344 20.7531C15.3588 20.0636 15.4648 19.4895 15.5736 19.4774C15.6825 19.4652 16.0386 19.4257 16.3651 19.3894C16.8042 19.3405 16.9667 19.4664 16.9894 19.8733C17.0138 20.3188 17.0428 20.3354 17.1406 19.9613C17.3281 19.2439 17.747 19.4174 17.7783 20.2252L17.8068 20.9508L18.0934 20.2252C18.5588 19.047 18.777 19.3791 18.8738 21.4127L18.9651 23.3261L19.0177 21.2808C19.0654 19.42 19.3418 18.7125 19.6876 19.5653C19.7883 19.8137 19.8906 19.7973 20.1013 19.4993C20.3377 19.1649 20.3826 19.1857 20.3912 19.6314C20.3993 20.1284 20.4278 20.1233 20.8735 19.5449C21.2954 18.9963 21.3826 18.9748 21.689 19.3439C21.8777 19.5714 22.1284 19.6978 22.2461 19.6253C22.3639 19.5527 22.5147 19.7023 22.5811 19.958C22.6736 20.3119 22.7095 20.2813 22.7328 19.8291C22.7531 19.4214 22.9288 19.2353 23.291 19.2353C23.5813 19.2353 23.8187 19.3593 23.8187 19.511C23.8187 19.6622 24.0184 19.7515 24.2629 19.7091C24.549 19.659 24.7689 19.8661 24.881 20.2914C25.053 20.9433 25.0599 20.9401 25.4706 20.0276L25.8863 19.1039L25.9385 20.5554C25.9915 22.0331 26.0119 22.0137 26.3515 20.1595L26.5447 19.1038L26.7334 19.8955C26.9185 20.6713 26.923 20.6732 26.9535 19.9897C26.9861 19.2654 27.6322 18.789 27.9295 19.2702C28.0232 19.4215 28.3237 19.4872 28.5975 19.4155C28.8715 19.3437 29.0954 19.3747 29.0954 19.488C29.0954 19.7274 30.429 19.5207 30.8111 19.2226C31.1963 18.9217 31.9269 19.5492 32.0679 20.3022C32.1894 20.9509 32.1894 20.9508 32.2257 20.254C32.2583 19.6362 32.6817 19.2361 33.3048 19.2361C33.4193 19.2361 33.6113 19.7409 33.7306 20.3577L33.9479 21.4794L34.0755 20.4237L34.2035 19.3681L34.3824 20.4237L34.5614 21.4794L34.5981 20.3577L34.6347 19.2361H36.6135H38.5922L38.6289 20.7536C38.6493 21.5883 38.7104 21.9742 38.7663 21.6113C38.8221 21.2485 38.9273 20.5787 39.0007 20.1229C39.1649 19.1012 40.0645 18.7321 40.3324 19.5765C40.4967 20.0946 40.5268 20.0994 40.8483 19.6596C41.4783 18.7978 41.86 20.1475 42.0347 23.8547L42.1966 27.2856L42.2614 24.6465C42.3246 22.0665 42.7127 18.8574 42.7817 20.3423C42.8318 21.4235 43.2933 21.4813 43.4903 20.4312C43.5861 19.9191 43.8001 19.4921 43.9654 19.4823C44.1308 19.4741 44.6517 19.4142 45.1232 19.3526C45.689 19.2788 45.9821 19.3521 45.9847 19.5683C45.9885 19.784 46.0764 19.7604 46.2444 19.5003C46.385 19.2825 46.5036 19.223 46.5081 19.3681C46.5119 19.5133 46.6312 19.4538 46.7719 19.236C46.9838 18.9078 47.0291 18.9302 47.0356 19.3681C47.0397 19.7908 47.0918 19.8199 47.2855 19.5137C47.4742 19.2156 47.5679 19.2939 47.7126 19.8705L47.898 20.6094L48.4141 19.7942C48.8371 19.1258 49.0182 19.0261 49.4193 19.2408C49.6884 19.3848 49.9828 19.6229 50.0734 19.7695C50.1639 19.9163 50.3485 19.9681 50.4838 19.8845C50.6188 19.8009 50.7292 19.9171 50.7292 20.1442C50.7292 20.3705 50.8482 20.5557 50.993 20.5557C51.1381 20.5557 51.2567 20.2589 51.2567 19.8959C51.2567 18.3563 52.2347 19.7198 52.3925 21.4794L52.487 22.535L52.5404 21.3474C52.569 20.6943 52.7638 19.8629 52.9712 19.5L53.3482 18.8402L53.3849 19.5L53.4216 20.1598L53.6221 19.5L53.8227 18.8402L54.1235 19.5832C54.289 19.9918 54.4382 20.5262 54.4557 20.7708C54.472 21.0154 54.5776 20.8593 54.6885 20.4238C54.8805 19.6686 54.8931 19.6625 54.9559 20.2917C55.0117 20.8498 55.0517 20.809 55.2163 20.0279C55.3778 19.261 55.4201 19.4177 55.4662 20.9516C55.529 23.0344 55.6235 22.977 55.8813 20.7004C56.0215 19.4607 56.1149 19.2289 56.3228 19.6011C56.5711 20.0446 56.6184 20.0387 57.1195 19.5004C57.8531 18.7127 58.0836 19.0616 58.3502 21.3628C58.4867 22.5404 58.5915 22.9271 58.6119 22.3287C58.671 20.5985 59.663 18.7542 60.3168 19.1584C60.8287 19.4748 62.9997 19.4552 64.2918 19.1217C65.1818 18.8925 65.855 18.8571 66.2792 19.0169C66.6317 19.1498 67.8489 19.2607 68.9834 19.2632L71.0463 19.2673L71.0907 21.2964C71.1151 22.4124 71.1747 22.8505 71.2228 22.2699C71.2708 21.6893 71.3789 20.6974 71.4624 20.0657C71.6063 18.9789 71.6524 18.9261 72.3198 19.0843C72.7079 19.176 73.7672 19.2413 74.6741 19.2291L76.323 19.2046L76.3687 20.868L76.4144 22.5313L76.5872 20.816C76.6822 19.8725 76.7804 19.1926 76.8053 19.3052C76.8297 19.4178 77.2011 19.3297 77.6292 19.1075C78.657 18.5758 79.0123 18.599 79.7032 19.2428C80.0208 19.5388 80.2806 19.6841 80.2806 19.5658C80.2806 19.4475 80.8446 19.3655 81.5338 19.3843C82.2231 19.4047 82.9354 19.3024 83.1168 19.1609C83.3414 18.986 83.4466 19.0084 83.4466 19.2306C83.4466 19.4569 83.6618 19.4161 84.1469 19.0981C84.8038 18.6675 84.8936 18.6664 85.5942 19.0818C86.2294 19.4573 86.5487 19.4793 87.73 19.2298C88.4939 19.0683 89.3564 18.955 89.6466 18.9774C89.9369 19.0019 91.7771 19.0712 93.736 19.1356C95.695 19.2 97.7264 19.273 98.2504 19.2979C98.7742 19.3223 99.694 19.1805 100.294 18.9823C101.266 18.6614 101.48 18.6728 102.248 19.0866C103.006 19.4949 103.254 19.5104 104.294 19.2139C104.944 19.0284 105.595 18.9174 105.74 18.9672C106.091 19.0879 109.393 19.2335 110.885 19.1943C111.538 19.178 112.369 19.1739 112.732 19.1924C114.076 19.2515 115.252 19.2349 115.729 19.15C115.999 19.1019 116.745 19.1419 117.388 19.2401C118.03 19.3376 118.608 19.3315 118.673 19.2279C118.738 19.1227 119.179 19.1198 119.653 19.2197C120.13 19.3217 121.164 19.2564 121.966 19.0701C123.235 18.7782 123.541 18.7924 124.4 19.1835C125.329 19.606 125.385 19.7025 125.438 20.95L125.493 22.2695L125.588 20.95C125.667 19.8559 125.794 19.5783 126.331 19.3254C126.974 19.0228 126.979 19.0314 126.997 20.381C127.026 22.3606 127.463 23.216 127.492 21.3459C127.504 20.5475 127.602 19.7742 127.709 19.6275C127.815 19.4807 128.466 19.3274 129.156 19.287L130.409 19.2133L130.45 20.3455L130.49 21.4777L130.648 20.29C130.799 19.1619 130.846 19.1057 131.598 19.1685C132.034 19.2052 132.763 19.2469 133.22 19.2615C134.209 19.2942 134.344 19.7219 134.413 23.0283L134.457 25.1725L134.611 22.4892C134.695 21.0134 134.843 19.7271 134.94 19.6308C135.036 19.5346 135.351 19.5819 135.639 19.736C136.048 19.9554 136.197 19.9272 136.319 19.6088C136.626 18.8103 137.008 19.5529 137.051 21.0314C137.088 22.2016 137.116 22.3002 137.188 21.4777C137.333 19.8093 137.517 19.2345 137.907 19.2345C138.106 19.2345 138.346 19.4331 138.439 19.6759C138.589 20.0657 138.655 20.0502 139.01 19.5438C139.725 18.5221 140.169 18.8228 140.209 20.3559C140.229 21.118 140.292 21.4446 140.349 21.0817C140.406 20.7188 140.522 20.125 140.607 19.7621C140.751 19.1429 140.774 19.1348 140.976 19.63C141.168 20.1028 141.193 20.1077 141.21 19.6777C141.222 19.3344 141.398 19.2216 141.822 19.2818C142.361 19.3585 142.429 19.5473 142.566 21.3455L142.716 23.3249L142.764 21.6903C142.805 20.326 142.909 19.9867 143.405 19.6375C143.989 19.2258 144.001 19.2371 144.157 20.3483C144.296 21.3403 144.326 21.3812 144.405 20.6859C144.454 20.2504 144.568 20.9631 144.658 22.2693L144.822 24.6446L144.876 22.2693C144.905 20.963 145.045 19.716 145.186 19.4983C145.327 19.2805 145.445 19.221 145.45 19.3662C145.454 19.5113 145.575 19.4518 145.718 19.234C145.935 18.9025 146.003 18.9315 146.135 19.4135C146.24 19.7968 146.43 19.9367 146.701 19.8324C146.937 19.7419 147.26 19.8826 147.467 20.1652C147.672 20.4465 147.824 20.513 147.824 20.3213C147.824 19.8923 148.502 19.2088 148.716 19.4226C148.806 19.5123 148.901 21.496 148.928 23.8306L148.977 28.0752L149.155 23.5887C149.253 21.121 149.35 19.0829 149.37 19.0595C149.448 18.9702 150.079 19.1247 150.363 19.3025C150.616 19.4607 151.391 19.4338 153.365 19.1981C154.365 19.0786 154.949 19.2593 154.974 19.6959C154.99 19.9984 155.07 19.9299 155.201 19.4977C155.37 18.9451 155.433 18.9103 155.593 19.2833C155.697 19.5279 155.951 19.6637 156.157 19.585C156.435 19.4778 156.542 19.7004 156.575 20.4593L156.619 21.4773L156.722 20.5102C156.778 19.9784 156.995 19.4773 157.205 19.3969C157.525 19.2737 157.592 19.8503 157.625 23.0031C157.658 26.0189 157.702 26.4447 157.86 25.1721C157.968 24.3012 158.084 22.6385 158.117 21.4773C158.161 19.9044 158.228 19.5679 158.378 20.1577C158.575 20.933 158.58 20.935 158.611 20.256C158.653 19.3119 159.281 18.8209 160.035 19.1423C160.357 19.2797 161.155 19.3551 161.808 19.3103C163.79 19.1737 164.957 19.1924 165.236 19.3649C165.382 19.455 165.516 19.8485 165.533 20.2391C165.565 20.9428 165.565 20.9421 165.733 20.1576C165.869 19.5213 166.044 19.3607 166.625 19.3392C167.296 19.3148 167.35 19.3906 167.375 20.3949L167.404 21.4771L167.613 20.595C167.727 20.1098 167.947 19.5868 168.101 19.4329C168.266 19.2673 169.383 19.1748 170.834 19.2066C172.183 19.2351 173.642 19.2661 174.078 19.273C174.513 19.2812 175.225 19.2233 175.661 19.1471C176.096 19.0704 176.683 18.9697 176.964 18.9232C177.297 18.8682 177.597 19.07 177.818 19.498C178.07 19.9842 178.16 20.0363 178.163 19.6958C178.167 19.1934 178.822 19.0638 179.098 19.5107C179.215 19.6998 179.387 19.6897 179.642 19.4781C179.939 19.2314 180.02 19.2685 180.044 19.6631C180.073 20.1021 180.088 20.1061 180.195 19.6999C180.286 19.3521 180.567 19.2505 181.352 19.2813C182.206 19.3139 182.392 19.4187 182.41 19.8724C182.426 20.2972 182.52 20.2215 182.816 19.5418C183.102 18.8859 183.285 18.7302 183.529 18.9332C183.735 19.1041 186.319 19.2117 190.444 19.2211C194.067 19.2293 197.209 19.2537 197.427 19.2773C197.644 19.3018 198.09 19.2329 198.416 19.1273C198.932 18.9614 199.015 19.0335 199.049 19.6796L199.09 20.4232L199.201 19.6889C199.305 18.9979 199.369 18.9653 200.283 19.1362C200.817 19.2361 201.55 19.3968 201.913 19.4934L202.573 19.6687L202.705 25.1922L202.837 30.7157L203.037 25.5761C203.194 21.5769 203.325 20.3491 203.631 20.0433C203.979 19.6951 204.024 19.9601 204.024 22.3615C204.024 24.1018 204.119 25.0143 204.288 24.9096C204.433 24.8199 204.552 23.7362 204.552 22.5015C204.552 21.1889 204.688 20.0171 204.881 19.68C205.156 19.2002 205.235 20.0327 205.351 24.6457L205.491 30.1879L205.549 24.6924C205.602 19.6186 205.642 19.2035 206.068 19.2845C206.432 19.3534 206.562 19.737 206.682 21.0852L206.835 22.7984L206.881 21.0478L206.926 19.2973L207.782 19.3401C208.333 19.3686 208.666 19.5333 208.718 19.8065C208.763 20.0393 208.894 24.133 209.008 28.9035L209.217 37.5773L209.29 29.132C209.331 24.4871 209.438 20.3899 209.53 20.027C209.768 19.0819 210.256 19.1142 210.643 20.1008L210.976 20.9508L211.083 20.1848C211.142 19.7635 211.365 19.244 211.578 19.0303C211.92 18.6882 212.044 18.7143 212.612 19.2485C213.252 19.8497 213.258 19.9028 213.307 25.1533L213.356 30.4518L213.534 25.0415C213.743 18.7163 213.686 19.2354 214.171 19.2354C214.474 19.2354 214.573 19.73 214.633 21.5446L214.709 23.8539L214.937 21.7212C215.113 20.0784 215.279 19.5172 215.662 19.2778C216.119 18.9924 216.163 19.0592 216.197 20.0909L216.234 21.2148L216.395 20.1591C216.554 19.1071 216.558 19.1039 217.61 19.2096C218.191 19.2679 218.903 19.3274 219.193 19.3417C219.484 19.358 219.802 19.5455 219.9 19.7634C220.048 20.0892 220.083 20.0786 220.098 19.7027C220.118 19.2191 221.209 18.8007 221.685 19.0945C221.838 19.1891 221.979 19.7052 221.998 20.241L222.035 21.2151L222.198 20.2941C222.352 19.4214 222.43 19.3629 223.68 19.1804C225.639 18.8942 225.914 19.0536 225.97 20.5071L226.018 21.7429L226.117 20.4893L226.215 19.2358L227.586 19.2154C228.34 19.2072 229.194 19.1008 229.484 18.9842C229.799 18.8574 230.159 18.89 230.378 19.0649C230.606 19.248 231.673 19.3271 233.214 19.2754L235.684 19.1922L235.721 20.0709L235.758 20.9497L235.921 20.0259C236.056 19.2635 236.21 19.0877 236.809 19.0188C237.523 18.9368 237.536 18.9613 237.584 20.4703L237.633 22.0053L237.73 20.6197C237.83 19.178 238.081 18.964 238.92 19.6016C239.248 19.8503 239.394 20.3655 239.424 21.3746C239.457 22.5109 239.492 22.6112 239.594 21.8733C239.714 20.9992 239.731 20.9851 239.921 21.6095C240.076 22.1214 240.127 21.97 240.147 20.9342C240.164 20.1999 240.341 19.3702 240.546 19.0903C240.899 18.6061 240.942 18.6037 241.424 19.0398C241.702 19.2918 242.069 19.4981 242.239 19.4981C242.409 19.4981 242.562 19.706 242.579 19.9599C242.607 20.3708 242.622 20.3733 242.726 19.9844C242.79 19.7426 243.014 19.4792 243.223 19.3989C243.522 19.2843 243.613 19.5494 243.648 20.63C243.685 21.7706 243.71 21.8372 243.796 21.0177C243.853 20.4734 244.011 20.0281 244.147 20.0281C244.283 20.0281 244.395 19.8344 244.395 19.5977C244.395 19.2499 244.58 19.1973 245.356 19.3233C245.884 19.4089 246.537 19.36 246.807 19.2164C247.154 19.0305 247.297 19.0432 247.297 19.2593C247.297 19.4815 247.404 19.4758 247.69 19.2389C248.107 18.8927 248.177 18.9795 248.438 20.1599C248.528 20.5636 248.562 20.5241 248.586 19.9928C248.61 19.4726 248.782 19.2661 249.276 19.1717C249.918 19.049 249.936 19.0885 249.978 20.6584C250.002 21.5889 250.06 21.8804 250.115 21.3475C250.331 19.2375 250.333 19.2358 251.919 19.2724C252.714 19.2928 253.365 19.4159 253.365 19.5504C253.365 19.685 253.476 19.7266 253.612 19.6426C253.857 19.4913 254.079 20.6502 254.243 22.931C254.29 23.5842 254.349 23.0399 254.374 21.7214C254.423 19.1949 254.545 18.7926 255.122 19.2709C255.373 19.4792 255.491 20.4191 255.527 22.5015L255.579 25.4382L255.725 22.6964C255.861 20.1592 255.916 19.9384 256.465 19.7359C257.039 19.5247 257.06 19.5733 257.095 21.1582C257.115 22.0607 257.175 22.5022 257.23 22.1393C257.285 21.7764 257.412 20.9451 257.511 20.2918L257.693 19.1043L257.864 20.2918L258.035 21.4795L258.076 20.4743C258.1 19.8795 258.223 19.5356 258.38 19.6321C258.525 19.7218 258.647 19.5803 258.651 19.3177C258.66 18.8844 258.684 18.8807 258.915 19.277C259.072 19.5473 259.372 19.6615 259.698 19.5762C260.114 19.4674 260.23 19.5721 260.245 20.0626C260.261 20.6443 260.278 20.651 260.481 20.1593C260.647 19.756 260.725 19.9431 260.811 20.951L260.923 22.2705L260.971 20.8002L261.018 19.3299L262.403 19.2451C265.507 19.055 267.674 19.1688 267.905 19.5337C268.072 19.7971 268.135 19.8057 268.138 19.5664C268.142 19.3662 268.505 19.2365 269.065 19.2365C269.945 19.2365 269.989 19.2805 269.989 20.1602C269.989 20.6682 270.099 21.0839 270.233 21.0839C270.368 21.0839 270.532 21.2918 270.599 21.5457C270.675 21.8368 270.731 21.746 270.75 21.2991C270.801 20.1187 271.253 19.2365 271.807 19.2365C272.089 19.2365 272.379 19.385 272.453 19.5664C272.532 19.7633 272.594 19.7104 272.607 19.4343C272.635 18.8067 273.122 18.8533 273.718 19.5407C273.989 19.8534 274.21 19.972 274.21 19.8046C274.21 19.637 274.389 19.5004 274.606 19.5004C274.824 19.5004 275.004 19.6488 275.006 19.8303C275.01 20.05 275.095 20.0284 275.266 19.7642C275.493 19.4123 275.523 19.4123 275.53 19.7642C275.538 20.1161 275.566 20.1161 275.793 19.7642C275.992 19.4572 276.058 19.5456 276.089 20.1601C276.126 20.875 276.14 20.8879 276.244 20.2922C276.306 19.9293 276.529 19.4997 276.738 19.3374C277.237 18.9497 279.273 19.1764 279.654 19.6628C279.91 19.9894 279.978 19.9776 280.13 19.5817C280.281 19.187 280.343 19.176 280.553 19.5079C280.717 19.7681 280.8 19.788 280.802 19.5683C280.806 19.1355 281.837 19.3012 282.143 19.784C282.327 20.0755 282.382 20.0323 282.385 19.5911C282.389 19.133 282.505 19.0513 282.983 19.1721C283.309 19.2544 283.663 19.4514 283.77 19.6092C283.909 19.8143 283.965 19.8126 283.968 19.6051C283.972 19.4184 284.594 19.3197 285.687 19.3336C286.63 19.3458 287.402 19.4714 287.402 19.6137C287.402 19.756 287.541 19.7323 287.712 19.5615C288.219 19.054 288.717 19.703 288.754 20.9203L288.786 22.0096L288.968 20.8929C289.264 19.0784 289.509 19.2769 289.559 21.3718L289.605 23.3292L289.775 21.4818L289.946 19.6344L290.025 21.6138L290.104 23.5931L290.402 21.3498C290.605 19.8159 290.803 19.1275 291.029 19.1726C291.21 19.2093 291.358 19.1012 291.358 18.9336C291.358 18.7432 291.531 18.7823 291.82 19.0384C292.17 19.3491 292.716 19.4229 294.08 19.3434C295.069 19.2859 296.084 19.1285 296.336 18.9936C296.652 18.8244 297.127 18.8977 297.872 19.2309C298.863 19.6751 298.983 19.6796 299.375 19.2875C299.767 18.8953 299.801 18.9026 299.805 19.3801C299.809 19.8101 299.852 19.831 300.061 19.5028C300.269 19.1754 300.405 19.1644 300.848 19.4392C301.279 19.7063 301.392 19.7063 301.428 19.4392C301.453 19.2566 301.551 19.8197 301.647 20.6906L301.823 22.2741L301.867 20.9041C301.892 20.1506 302.03 19.4607 302.175 19.371C302.349 19.2634 302.456 22.3497 302.489 28.3945L302.539 37.581L302.717 29.1358C302.947 18.2413 302.869 19.239 303.495 19.239C303.861 19.239 304.028 19.4205 304.039 19.8328L304.055 20.4266L304.286 19.8538C304.426 19.5064 304.705 19.3113 304.995 19.358C305.258 19.4004 305.601 19.3336 305.758 19.21C305.93 19.0742 306.265 19.1896 306.602 19.5052C306.928 19.809 307.227 19.917 307.321 19.7646C307.677 19.1884 307.956 19.5677 308.049 20.757L308.148 22.0106L308.196 20.625C308.228 19.628 308.348 19.2395 308.617 19.2395C308.822 19.2395 309.051 19.3879 309.125 19.5693C309.225 19.8176 309.328 19.8013 309.538 19.5033C309.755 19.1974 309.829 19.3768 309.866 20.295C309.914 21.4717 309.916 21.4734 310.019 20.4781C310.077 19.9257 310.265 19.4279 310.437 19.3719C310.609 19.3161 311.739 19.2202 312.948 19.1586C314.992 19.0551 315.162 19.0865 315.372 19.605C315.554 20.0562 315.6 20.0745 315.614 19.7009C315.634 19.1728 316.684 19.044 316.69 19.5688C316.694 19.8044 316.76 19.7934 316.927 19.5321C317.056 19.3294 317.35 19.2365 317.583 19.3257C317.815 19.415 318.005 19.3583 318.005 19.1965C318.005 18.9979 318.406 18.9653 319.258 19.0937C321.123 19.3751 325.017 19.2393 325.611 18.8727C325.747 18.7883 326.2 18.8275 326.615 18.96C327.031 19.0925 327.994 19.2519 328.756 19.3139C329.892 19.4065 330.145 19.3506 330.162 19.0036C330.174 18.7308 330.23 18.6974 330.316 18.9103C330.404 19.1296 331.061 19.2401 332.274 19.2401H334.099L334.146 20.7576L334.194 22.2751L334.295 20.9622C334.432 19.183 334.738 18.8603 335.562 19.6243C335.918 19.9542 336.209 20.3662 336.209 20.5395C336.209 20.7128 336.32 20.7863 336.455 20.7027C336.591 20.6191 336.745 20.8792 336.8 21.2808L336.898 22.0111L337.081 21.2853C337.657 19.0027 337.63 19.031 337.787 20.5596L337.936 22.0111L338.152 20.6259C338.37 19.2365 338.667 18.7349 338.977 19.2357C339.068 19.3833 339.432 19.504 339.786 19.504C340.141 19.504 340.432 19.6524 340.434 19.8339C340.438 20.0598 340.515 20.0422 340.681 19.7792C340.854 19.5069 340.954 19.7755 341.026 20.7029L341.127 22.0111L341.174 20.5932C341.215 19.3655 341.275 19.2194 341.618 19.5039C341.94 19.7718 342.013 19.7571 342.013 19.4236C342.013 19.1088 342.211 19.0476 342.871 19.1577C343.342 19.2364 343.995 19.3 344.322 19.2984C344.69 19.2965 344.923 19.4602 344.934 19.7297C344.95 20.0689 345.002 20.0485 345.18 19.6359C345.34 19.2628 345.425 19.6481 345.469 20.9555L345.532 22.8029L345.686 21.2803C345.77 20.443 345.945 19.7702 346.074 19.7854C346.203 19.8017 346.398 19.6667 346.509 19.4881C346.619 19.3095 346.9 19.2361 347.132 19.3254C347.45 19.4474 347.554 19.8536 347.554 20.9629C347.554 21.8793 347.654 22.3765 347.818 22.2753C347.963 22.1856 348.082 21.4858 348.082 20.7201C348.082 19.0896 348.258 18.8147 348.918 19.4125C349.223 19.6889 349.412 20.2478 349.431 20.9306L349.459 22.0113L349.759 20.644C350.074 19.2085 350.452 18.5337 350.459 19.3942C350.463 19.7171 350.534 19.7884 350.66 19.5911C350.768 19.4211 351.181 19.2005 351.579 19.1006C352.209 18.9424 352.306 18.9987 352.333 19.5416C352.353 19.9432 352.404 20.0096 352.479 19.7287C352.569 19.3915 352.888 19.3024 353.899 19.3328C355.001 19.3655 355.209 19.4543 355.24 19.9C355.269 20.3189 355.301 20.2963 355.396 19.7911C355.489 19.2985 355.569 19.2389 355.752 19.5273C355.933 19.8132 355.989 19.8197 355.992 19.5559C355.996 19.3659 356.115 19.2839 356.26 19.3736C356.405 19.4633 356.524 19.328 356.524 19.0727C356.524 18.7013 356.59 18.6743 356.853 18.9381C357.035 19.1196 357.254 20.0043 357.341 20.9043L357.498 22.5407L357.539 21.0515C357.568 19.9632 357.692 19.5191 357.997 19.402C359.037 19.0028 359.161 19.1843 359.198 21.1552L359.235 23.0686L359.488 21.1552C359.723 19.3806 359.788 19.2419 360.376 19.2419C360.909 19.2419 361.016 19.3797 361.047 20.0995C361.079 20.8743 361.098 20.8934 361.243 20.2973C361.335 19.9181 361.466 20.703 361.552 22.1447L361.701 24.6519L361.764 22.0128C361.822 19.5426 361.849 19.4243 362.188 20.1654C362.475 20.7913 362.555 20.8461 362.572 20.4267C362.601 19.7066 363.628 19.0483 363.944 19.5472C364.112 19.8106 364.17 19.8171 364.173 19.5716C364.176 19.3902 364.295 19.2418 364.44 19.2418C364.586 19.2418 364.723 19.8653 364.746 20.6273L364.787 22.0129L364.952 20.6933C365.102 19.4822 365.134 19.5906 365.333 22.0129C365.718 26.6903 365.96 27.1068 365.993 23.1501C366.014 20.908 366.13 19.4708 366.305 19.3629C366.741 19.0938 366.867 19.3647 367.078 21.013L367.274 22.5407L367.351 20.8252C367.405 19.6088 367.463 19.3785 367.549 20.0335L367.67 20.9573L367.969 19.9679C368.261 18.9979 368.281 18.9858 368.974 19.3488C369.363 19.5522 369.748 19.6513 369.831 19.5685C369.914 19.4857 369.991 19.7642 370.002 20.1876C370.014 20.611 370.182 21.3731 370.377 21.8811C370.733 22.8041 370.733 22.8034 370.753 21.0078C370.765 20.0194 370.88 19.2765 371.01 19.3569C371.14 19.4372 371.314 19.3242 371.397 19.1085C371.595 18.5919 371.965 18.6101 372.617 19.1689C373.073 19.5591 373.148 19.9457 373.148 21.907C373.148 25.8377 373.526 26.4024 373.675 22.6944C373.767 20.4046 373.906 19.3838 374.137 19.3075C374.318 19.2475 374.481 19.4159 374.497 19.6822C374.526 20.1239 374.539 20.1259 374.649 19.7026C374.715 19.4486 374.879 19.2407 375.014 19.2407C375.156 19.2407 375.284 21.9824 375.32 25.7726L375.381 32.3045L375.458 25.8385C375.509 21.5861 375.622 19.5082 375.789 19.7685C376.005 20.1066 376.042 20.0968 376.046 19.7025C376.05 19.4484 376.228 19.2406 376.446 19.2406C376.663 19.2406 376.842 19.3678 376.842 19.5236C376.842 19.6794 377.028 19.6198 377.256 19.3915C377.863 18.785 378.156 18.882 378.197 19.7026C378.229 20.3249 378.249 20.3437 378.347 19.8347C378.524 18.9148 379.358 19.0834 379.652 20.0985L379.9 20.9563L380.26 20.1497C380.646 19.2821 380.624 19.2879 384.138 19.1446C385.156 19.103 385.937 19.207 386.233 19.4235C386.492 19.6131 386.771 19.6616 386.852 19.5311C387.002 19.2901 387.991 19.1621 389.308 19.2126C390.015 19.2412 390.034 19.2824 390.068 20.8901L390.105 22.5396L390.3 21.0119C390.408 20.1716 390.58 19.3997 390.683 19.2964C390.83 19.1492 396.283 19.1509 397.884 19.2983C398.1 19.3187 398.226 19.8365 398.25 20.8022L398.286 22.2757L398.461 21.0233C398.557 20.3344 398.749 19.6576 398.887 19.5192C399.241 19.1653 403.237 19.0154 403.954 19.3292L404.548 19.5894L404.608 28.586L404.668 37.5827L404.807 29.1375C404.917 22.4753 404.976 21.4444 405.085 24.2551L405.224 27.8179L405.282 23.6769C405.318 21.1649 405.447 19.4692 405.613 19.3666C405.845 19.2231 407.704 19.1509 409.363 19.221C409.783 19.2373 409.829 19.6664 409.873 23.9251L409.922 28.6095L410.071 24.2018C410.173 21.2045 410.326 19.6886 410.55 19.4646C410.814 19.2012 410.881 19.2117 410.884 19.5179C410.888 19.8433 410.927 19.8413 411.144 19.5057C411.285 19.2879 411.402 19.2134 411.404 19.3402C411.407 19.4666 411.581 19.4262 411.794 19.25C412.099 18.9964 412.347 19.0132 412.98 19.3292C413.732 19.7043 413.805 19.6945 414.169 19.1751L414.556 18.6213L414.812 19.2615C414.952 19.6138 415.075 19.7533 415.084 19.5718C415.092 19.3904 415.339 19.2419 415.629 19.2419C416.039 19.2419 416.166 19.4319 416.198 20.0997L416.241 20.9574L416.346 20.1221C416.46 19.2134 416.996 18.8493 417.693 19.2072C417.936 19.3324 418.284 19.3814 418.465 19.3165C418.702 19.2317 418.807 19.6325 418.838 20.7377L418.881 22.2772L419.036 20.8257C419.179 19.4832 419.245 19.3679 419.916 19.2907L420.642 19.2071V27.6369C420.642 32.2732 420.73 36.4674 420.839 36.9573C420.948 37.4472 421.068 33.6722 421.107 28.5684L421.176 19.2887L422.822 19.1994L422.814 19.193Z" fill="black"/>
</svg>
