<svg width="464" height="39" viewBox="0 0 464 39" fill="none" xmlns="http://www.w3.org/2000/svg">
<path d="M64.5129 37.893C64.7159 38.2212 67.3271 38.2474 67.3271 37.9211C67.3271 37.7823 67.4335 37.7345 67.5631 37.8149C67.9683 38.0653 68.117 37.223 68.1581 34.4454L68.1988 31.7619L68.4858 34.7969L68.7728 37.8319L68.9419 34.1372C69.0349 32.105 69.1457 29.8486 69.1885 29.1228L69.266 27.8032L69.4388 29.5186L69.6116 31.2341L69.6948 28.7269C69.7604 26.738 69.8167 26.438 69.9667 27.2754L70.1554 28.3311L70.2039 27.0115C70.2324 26.2857 70.4155 25.0387 70.6147 24.2404L70.9766 22.7888L71.0011 24.2908C71.0133 25.1168 71.1421 25.8661 71.2872 25.9558C71.4323 26.0455 71.5709 27.0323 71.5958 28.1487L71.6402 30.1784L71.8245 28.0671C71.926 26.9059 72.1404 25.4808 72.3012 24.9002C72.4622 24.3196 72.6086 23.4288 72.6265 22.9208C72.6848 21.2629 73.0781 23.077 73.1079 25.1421C73.1242 26.1461 73.2024 26.899 73.2864 26.8153C73.37 26.7316 73.5314 25.6133 73.6455 24.3301L73.8522 21.9971L73.9121 24.3724C74.0352 29.2578 74.3802 29.6033 74.439 24.9002C74.4716 22.4326 74.5552 20.5628 74.6289 20.7452C74.7023 20.9275 74.8711 21.0095 75.0039 20.9275C75.1364 20.8454 75.2453 20.9634 75.2453 21.1898C75.2453 21.8422 75.7707 21.6672 75.793 21.0074C75.8093 20.5366 75.8867 20.6049 76.1688 21.3373L76.5242 22.261L76.5446 21.3593C76.5691 20.248 76.8618 20.4878 77.2643 21.9495L77.568 23.0528L77.5924 21.6755C77.6128 20.566 77.6956 20.3278 78.0141 20.4501C78.2318 20.5337 78.4197 20.8565 78.4314 21.1676C78.4477 21.616 78.5422 21.5418 78.8846 20.8095L79.3163 19.8858L79.4814 21.2054L79.6464 22.525L79.688 21.3878C79.7125 20.7623 79.8356 20.3162 79.9656 20.3965C80.0956 20.4768 80.275 20.3518 80.3643 20.1185C80.4959 19.7752 80.6015 19.7565 80.9196 20.0204C81.2346 20.2819 81.3158 20.2747 81.3307 19.9841C81.3389 19.7849 81.4514 19.8594 81.5761 20.1497C81.7534 20.5621 81.8068 20.5827 81.8215 20.2438C81.8378 19.8513 82.6324 19.8081 90.1508 19.7898C95.9965 19.7756 98.4615 19.8553 98.4615 20.058C98.4615 20.2618 98.5601 20.2644 98.7978 20.067C98.9828 19.9133 99.7249 19.7659 100.447 19.7392C102.532 19.6623 112.193 19.6665 113.5 19.7454C114.643 19.814 116.608 19.7948 117.985 19.7018C118.348 19.6773 119.339 19.7435 120.187 19.8489C121.186 19.9731 121.851 19.9394 122.075 19.7534C122.325 19.5463 122.899 19.5495 124.135 19.7648C125.432 19.9907 125.99 19.9882 126.427 19.7542C126.747 19.5829 127.317 19.5238 127.705 19.6217C128.091 19.7189 131.196 19.7835 134.606 19.7653C138.016 19.7469 143.003 19.7469 145.687 19.7651C148.372 19.7831 150.806 19.7957 151.096 19.7928C151.386 19.7898 152.455 19.7777 153.47 19.7659C154.486 19.7541 155.792 19.7679 156.373 19.7961C156.953 19.8246 157.843 19.8185 158.351 19.7826C158.859 19.7467 162.569 19.7238 166.596 19.7317L173.918 19.746L173.95 20.7396L173.987 21.7332L174.15 20.8304C174.392 19.4902 174.973 19.4599 174.973 20.7875C174.973 21.3802 175.091 21.8651 175.236 21.8651C175.4 21.8651 175.5 23.3167 175.5 25.6919C175.5 27.9502 175.604 29.5186 175.752 29.5186C175.891 29.5186 176.045 30.3797 176.096 31.432C176.146 32.4844 176.237 30.9702 176.298 28.0671L176.409 22.7888L176.555 29.2547L176.701 35.7206L176.808 30.0464L176.915 24.3723L177.096 29.5186C177.195 32.3491 177.292 35.4473 177.312 36.4036L177.348 38.1422L178.272 38.1769C178.78 38.1961 179.195 38.0895 179.195 37.9402C179.195 37.7909 179.3 37.7336 179.428 37.813C179.711 37.9877 179.949 35.6472 180.15 30.7061C180.349 25.8513 180.764 25.453 180.824 30.0596C180.865 33.0601 180.897 33.3234 181.042 31.7618C181.135 30.7458 181.243 30.2113 181.281 30.5742C181.317 30.9371 181.502 32.7779 181.689 34.6649C182.006 37.8624 182.032 37.9611 182.067 36.1164C182.087 35.0277 182.278 32.1181 182.491 29.6505C182.704 27.1829 182.882 24.3326 182.887 23.3166C182.891 22.3005 183.011 21.291 183.152 21.0733C183.357 20.757 183.415 20.81 183.443 21.3372C183.476 21.9508 183.493 21.9416 183.68 21.2052C183.86 20.4994 183.889 20.5567 183.944 21.7331C183.977 22.4589 184.097 23.4089 184.208 23.8444C184.376 24.5071 184.421 24.378 184.484 23.0526L184.56 21.4692L184.735 23.0526L184.91 24.6361L184.992 22.7888C185.066 21.1185 185.091 21.0426 185.262 21.997C185.429 22.9305 185.455 22.8447 185.488 21.2557C185.513 20.1334 185.625 19.5199 185.79 19.6218C185.935 19.7114 186.053 19.656 186.053 19.4986C186.053 19.3201 186.35 19.3659 186.843 19.6206C187.278 19.8459 187.958 19.9686 188.36 19.8944C188.76 19.8204 192.056 19.762 195.683 19.7645C199.311 19.7675 202.517 19.7685 202.807 19.7665C203.309 19.7645 236.092 19.7914 238.028 19.7955C238.536 19.7965 242.751 19.78 247.395 19.7584C260.541 19.6974 262.096 19.6893 263.224 19.6764C263.805 19.6694 264.695 19.6914 265.203 19.7245C266.704 19.8225 275.984 19.8148 277.933 19.714C278.405 19.6895 279.357 19.7643 280.049 19.8801C281.055 20.0484 281.403 20.0036 281.786 19.6566C282.229 19.2554 282.33 19.2551 283.124 19.6517C283.759 19.9684 284.339 20.035 285.344 19.9067C286.093 19.8113 286.943 19.7248 287.233 19.7148C288.229 19.6801 302.008 20.0429 302.668 20.1211C303.03 20.1641 303.475 20.2178 303.657 20.2405C303.901 20.2711 303.987 21.1426 303.987 23.5962C303.987 25.7387 304.08 26.853 304.25 26.7476C304.395 26.6579 304.535 25.9087 304.561 25.0826C304.614 23.3679 304.961 31.4379 305.01 35.5228C305.03 37.1288 305.149 38.2279 305.306 38.2279C305.47 38.2279 305.582 36.4686 305.602 33.5434C305.658 25.5771 306.002 24.2629 306.103 31.63L306.191 38.0959L306.375 33.3455C306.476 30.7327 306.589 27.8824 306.625 27.0115L306.69 25.4281L306.893 26.8185C307.005 27.5833 307.23 28.3703 307.393 28.5674C307.573 28.7843 307.757 30.7617 307.858 33.5768C308.013 37.8586 308.065 38.2279 308.513 38.2279C308.836 38.2279 309.005 38.0283 309.017 37.634C309.034 37.0675 309.046 37.0644 309.263 37.5681C309.402 37.8925 309.509 36.2142 309.539 33.2135C309.588 28.442 309.906 25.2031 310.058 27.9353L310.124 29.1229L310.318 28.1992C310.597 26.8744 310.634 27.2278 310.815 32.9446L310.978 38.0859L311.703 38.1411C312.367 38.1916 312.432 38.1129 312.473 37.2224L312.517 36.2485L312.621 37.2382C312.715 38.1369 313.215 38.6834 313.224 37.898C313.228 37.6781 313.314 37.7001 313.484 37.9639C313.66 38.2365 313.74 37.6614 313.741 36.1166C313.744 32.9148 314.34 24.9737 314.554 25.3197C314.653 25.4797 314.789 24.9418 314.857 24.1245C315.01 22.2757 315.595 21.4771 315.595 23.1164C315.595 23.7175 315.713 24.2827 315.858 24.3724C316.021 24.4729 316.122 24.0232 316.122 23.2003C316.122 22.3204 316.227 21.8877 316.43 21.9312C316.6 21.9675 316.879 21.7278 317.051 21.3987C317.514 20.5094 317.642 20.4444 318.073 20.8763C318.291 21.094 318.51 21.9036 318.565 22.6891C318.658 24.0482 318.665 24.0322 318.711 22.3115C318.74 21.1918 318.86 20.5759 319.024 20.6776C319.169 20.7672 319.288 20.6694 319.288 20.46C319.288 20.2507 319.525 20.0172 319.815 19.9413C320.298 19.8152 320.347 19.9433 320.386 21.428L320.429 23.0528L320.584 21.6013C320.669 20.8029 320.857 20.1677 321.003 20.1897C321.148 20.2117 321.474 20.1184 321.728 19.9825C322.044 19.8133 322.19 19.8317 322.19 20.0408C322.19 20.2653 322.283 20.2689 322.541 20.0547C322.792 19.8466 329.406 19.7647 345.614 19.7687C363.471 19.7726 368.449 19.7029 368.869 19.4408C369.29 19.1776 369.471 19.1755 369.726 19.4306C369.904 19.6084 370.449 19.7539 370.937 19.7539C371.426 19.7539 372.055 19.8768 372.335 20.0271C372.616 20.1773 372.846 20.1974 372.846 20.0717C372.846 19.5883 374.078 19.1611 374.626 19.4545C375.092 19.7035 377.206 19.8178 379.574 19.7217C380.009 19.7041 381.018 19.7025 381.816 19.7177C382.614 19.7332 383.623 19.7287 384.059 19.7075C384.494 19.6863 385.325 19.7076 385.906 19.7548C386.486 19.8021 387.682 19.7487 388.562 19.6365C389.894 19.4667 390.238 19.507 390.607 19.8757C390.851 20.1196 391.05 20.1915 391.05 20.0354C391.05 19.8 405.552 19.7931 421.787 20.0208C423.419 20.0436 423.356 19.6993 423.518 29.4428L423.667 38.3596L423.72 31.3659C423.748 27.5193 423.872 24.2174 423.992 24.0282C424.232 23.6496 424.552 29.4213 424.56 34.2689C424.563 35.9382 424.673 37.4737 424.804 37.6812C425.074 38.1085 426.14 38.2729 426.14 37.8873C426.14 37.7486 426.317 37.7818 426.533 37.9609C426.763 38.1524 427.117 38.2028 427.39 38.0832C427.646 37.9714 427.966 37.9061 428.102 37.9381C428.72 38.084 431.08 38.0397 431.343 37.8773C431.504 37.7778 431.696 37.8455 431.769 38.0279C431.843 38.2123 431.92 38.1252 431.942 37.8316L431.983 37.3038L432.209 37.8316C432.357 38.1746 432.456 37.2961 432.492 35.3245L432.549 32.2895L432.758 35.0218C432.874 36.5246 433.019 37.8058 433.082 37.8688C433.145 37.9318 433.284 35.8116 433.39 33.1571C433.497 30.5026 433.661 28.212 433.754 28.0669C433.848 27.9217 433.992 28.8124 434.074 30.0462C434.2 31.9462 434.23 31.6787 434.271 28.2978C434.323 24.1095 434.494 22.5695 434.88 22.8084C435.008 22.8873 435.128 23.7463 435.147 24.7175C435.175 26.1854 435.214 26.3275 435.376 25.5597L435.57 24.636L435.607 25.5093C435.627 26.0172 435.752 26.3143 435.906 26.2194C436.064 26.1215 436.185 26.5106 436.207 27.1935C436.227 27.819 436.344 27.025 436.466 25.4292C436.588 23.8333 436.809 22.4874 436.956 22.4382C437.104 22.389 437.236 21.9727 437.251 21.513C437.276 20.7184 437.288 20.7098 437.479 21.337C437.652 21.9061 437.707 21.9334 437.876 21.535C438.271 20.6077 438.545 21.1144 438.591 22.8546L438.637 24.636L438.788 22.8093C438.88 21.6987 439.069 20.94 439.269 20.8739C439.485 20.803 439.612 21.0708 439.637 21.645C439.673 22.5153 439.677 22.5134 439.863 21.469L440.052 20.4134L440.12 21.8649L440.188 23.3164L440.591 21.9309C440.822 21.1393 441.148 20.5453 441.352 20.5453C441.549 20.5453 441.71 20.4181 441.71 20.2626C441.71 20.1071 441.888 19.8017 442.105 19.5839C442.323 19.3662 442.501 19.3079 442.501 19.4544C442.501 19.779 442.291 19.7694 448.437 19.7227C451.194 19.7019 453.806 19.6885 454.242 19.6929C454.677 19.6978 455.746 19.7011 456.616 19.7011C457.487 19.7011 458.496 19.7051 458.859 19.7101C459.222 19.715 460.378 19.7243 461.428 19.7309L463.337 19.7427L463.41 29.0512C463.451 34.1709 463.483 29.8089 463.484 19.358C463.484 6.64168 463.44 3.45385 463.349 9.72077L463.212 19.0854L462.157 19.26C461.576 19.356 460.979 19.3351 460.829 19.2135C460.679 19.0919 459.788 19.0489 458.85 19.1179C457.912 19.187 456.758 19.2368 456.286 19.2286C455.815 19.2205 454.865 19.2021 454.176 19.1883C453.486 19.1744 452.566 19.1944 452.131 19.2334C451.299 19.3078 450.082 19.1131 449.629 18.8328C449.481 18.7416 449.361 18.7631 449.36 18.8804C449.36 19.0648 447.47 19.1082 444.414 18.9941C443.942 18.9765 443.319 18.7245 443.029 18.4342C442.739 18.1439 442.501 18.0146 442.501 18.1469C442.501 18.5109 441.701 18.3174 441.429 17.8878C441.263 17.6247 441.189 17.6103 441.186 17.8404C441.183 18.0219 441.063 18.1703 440.918 18.1703C440.773 18.1703 440.64 17.725 440.623 17.1807C440.59 16.1939 440.59 16.1949 440.275 17.5106C440.086 18.301 439.895 18.6714 439.8 18.4343C439.711 18.213 439.632 18.4098 439.62 18.8805C439.608 19.3437 439.494 19.7877 439.365 19.8672C439.041 20.0675 438.824 19.1177 438.765 17.2466C438.724 15.9163 438.699 15.8434 438.614 16.7908C438.506 17.9978 438.029 18.0833 437.998 16.9012C437.981 16.267 437.955 16.2475 437.752 16.7189C437.534 17.2277 437.525 17.2259 437.507 16.6685C437.47 15.5208 437.033 15.844 436.691 17.2725C436.474 18.1762 436.266 18.5985 436.145 18.382C435.731 17.6413 435.112 13.5166 435.07 11.2135C435.027 8.90008 435.018 8.8662 434.85 10.385C434.724 11.5254 434.648 10.6394 434.577 7.21801L434.479 2.46757L434.322 5.76652C434.236 7.58092 434.12 8.76854 434.064 8.40566C434.009 8.04277 433.894 8.63656 433.811 9.72522C433.683 11.3799 433.616 10.8387 433.404 6.4263L433.15 1.14801L432.856 5.89845L432.562 10.6489L432.471 5.76652C432.401 1.96299 432.343 1.32148 432.212 2.86346L432.043 4.84282L431.996 2.83555L431.948 0.828282L428.521 0.798512C425.182 0.769562 425.091 0.783833 424.976 1.35426C424.816 2.14869 424.53 6.85152 424.33 11.9684L424.165 16.191L423.967 12.1244C423.858 9.88774 423.749 6.56243 423.725 4.73481C423.701 2.90719 423.599 5.18017 423.498 9.78585C423.368 15.7551 423.222 18.2713 422.993 18.5481C422.747 18.844 422.032 18.9354 419.988 18.9322C412.509 18.9204 392.43 19.1964 391.916 19.3182C391.53 19.4096 391.236 19.3036 391.066 19.0122C390.923 18.7669 390.803 18.685 390.798 18.8302C390.79 19.0738 389.982 19.1581 387.228 19.2024C385.942 19.2232 383.293 19.2138 382.215 19.1849C380.403 19.1362 378.463 19.18 377.581 19.2904C377.064 19.3549 376.055 19.2541 375.339 19.0668C374.082 18.7376 373.113 18.7912 373.113 19.1899C373.113 19.561 371.243 19.5029 370.04 19.0944C368.929 18.7169 368.768 18.7184 368.169 19.1115C367.725 19.4022 367.245 19.4863 366.685 19.3715C365.939 19.2184 344.251 18.9268 341.058 19.027C336.163 19.1804 322.585 18.9508 322.506 18.7131C322.452 18.5512 322.234 18.5261 321.974 18.6519C320.992 19.1279 320.747 18.88 320.589 17.2468L320.435 15.6633L320.391 17.322C320.349 18.8934 320.319 18.9659 319.819 18.6983C319.529 18.543 319.291 18.1755 319.291 17.8817C319.291 17.5879 319.172 17.421 319.027 17.5107C318.864 17.6118 318.745 17.0406 318.715 16.0088L318.666 14.3437L318.569 15.7362C318.514 16.5229 318.363 17.0615 318.222 16.9742C318.085 16.8893 317.964 17.1534 317.954 17.5611C317.937 18.2132 317.908 18.2389 317.708 17.7746C317.498 17.286 317.478 17.2958 317.427 17.9066C317.375 18.5384 317.368 18.541 317.258 17.9686C317.122 17.261 316.653 17.4416 316.653 18.2016C316.653 18.9982 316.129 18.511 316.105 17.6931C316.093 17.3025 315.925 16.5672 315.73 16.0592L315.374 15.1355L315.354 15.9052C315.313 17.4765 314.977 16.2444 314.802 13.8823L314.622 11.4407L314.539 13.42C314.458 15.3736 314.455 15.3617 314.272 12.4964C314.171 10.8997 313.994 7.59678 313.879 5.15658C313.764 2.71638 313.584 0.858552 313.479 1.02809C313.339 1.25594 313.232 1.24368 313.069 0.980931C312.906 0.717406 312.802 0.795438 312.667 1.28265C312.493 1.90853 312.483 1.91156 312.458 1.34599C312.429 0.731759 311.92 0.497259 311.883 1.08203C311.867 1.34597 311.836 1.34597 311.73 1.08203C311.656 0.900587 311.428 0.752129 311.223 0.752129C310.912 0.752129 310.849 1.68663 310.849 6.27875C310.849 9.5672 310.745 11.8695 310.593 11.9637C310.245 12.1788 310.105 11.3819 309.943 8.2737C309.868 6.82217 309.729 4.54436 309.636 3.2119L309.467 0.789241L308.745 0.809617L308.022 0.829993L307.815 3.62798C307.702 5.16687 307.528 8.20737 307.429 10.3847L307.25 14.3434L307.184 11.3084C307.147 9.56096 307.032 8.49249 306.916 8.78988C306.669 9.42185 306.364 6.17253 306.364 2.9113C306.364 1.6752 306.3 0.727239 306.223 0.804702C306.146 0.882214 305.985 2.47555 305.866 4.34555L305.649 7.74554L305.594 4.1827C305.503 -1.70021 305.032 1.06449 304.852 8.53728C304.765 12.1661 304.654 15.0159 304.605 14.8702C304.556 14.7245 304.414 13.5369 304.288 12.2311C304.069 9.94012 304.059 10.0104 304.025 14.2334C303.996 17.5199 303.907 18.6183 303.659 18.6432C300.181 18.9932 284.324 19.1502 282.857 18.8492C282.131 18.7003 281.803 18.7591 281.464 19.0987C281.169 19.3937 280.801 19.4881 280.369 19.3796C280.011 19.2898 279.661 19.2108 279.59 19.204C279.52 19.1971 279.093 19.0859 278.642 18.9564C278.053 18.7874 277.533 18.837 276.794 19.1326C276.064 19.4246 275.555 19.4748 275.037 19.3058C274.636 19.1749 272.527 19.1053 270.35 19.1512C268.173 19.1971 266.036 19.2303 265.601 19.2249C265.166 19.22 262.079 19.2259 258.741 19.24C255.404 19.2539 252.287 19.2539 251.816 19.241C249.462 19.1753 248.661 19.1776 248.056 19.252C247.693 19.2966 246.583 19.2451 245.589 19.1375C244.321 19.0003 243.668 19.0356 243.403 19.2558C243.11 19.499 242.706 19.4931 241.609 19.2301C240.809 19.0381 239.867 18.9747 239.442 19.0843C239.028 19.191 238.334 19.2553 237.899 19.2273C237.017 19.1706 235.73 19.1678 234.337 19.2191C233.829 19.2379 231.633 19.2514 229.456 19.2481C227.279 19.2451 225.024 19.2471 224.443 19.2521C221.085 19.281 210.601 19.2423 209.932 19.1985C209.497 19.17 208.666 19.1634 208.086 19.1846C207.505 19.2058 206.615 19.2152 206.107 19.2062C205.599 19.1973 204.798 19.1973 204.326 19.2072C202.627 19.2427 201.415 19.2456 196.741 19.2256C194.129 19.2142 191.695 19.2077 191.332 19.2105C190.969 19.2135 190.435 19.1962 190.145 19.1717C189.855 19.1473 189.178 19.221 188.64 19.3353C187.852 19.5031 187.514 19.4364 186.885 18.9883C186.456 18.683 185.976 18.4333 185.817 18.4333C185.638 18.4333 185.511 17.704 185.483 16.52L185.439 14.6066L185.264 16.1901C185.101 17.6632 185.082 17.5805 184.993 15.0025L184.898 12.2314L184.737 14.8705L184.575 17.5096L184.48 15.5303C184.42 14.2963 184.351 13.9484 184.297 14.6066C184.249 15.1872 184.128 16.1967 184.029 16.8498L183.849 18.0375L183.668 17.1138C183.498 16.2443 183.485 16.2667 183.453 17.4964C183.428 18.3631 183.33 18.7144 183.155 18.5402C182.809 18.1938 182.356 12.7469 182.116 6.02939C181.937 1.0589 181.918 0.903404 181.878 4.11603C181.854 6.24251 181.732 7.61287 181.571 7.61287C181.426 7.61287 181.306 7.88009 181.304 8.20669C181.3 8.65822 181.243 8.7112 181.063 8.42781C180.882 8.14035 180.803 8.2007 180.722 8.69171C180.664 9.04184 180.52 7.39843 180.401 5.0397L180.185 0.751102H179.427C179.01 0.751102 178.669 0.869879 178.669 1.01499C178.669 1.16015 178.491 1.27892 178.273 1.27892C178.056 1.27892 177.878 1.16015 177.878 1.01499C177.878 0.869838 177.759 0.751102 177.614 0.751102C177.444 0.751102 177.35 3.44886 177.35 8.3166C177.35 12.4776 177.281 15.8131 177.197 15.7287C177.112 15.6443 176.954 12.2101 176.843 8.09719L176.643 0.619141L176.542 8.40461L176.441 16.19L176.295 9.5922C176.15 3.04049 176.148 3.02482 176.051 7.34894C175.984 10.2854 175.892 11.3168 175.767 10.5159C175.646 9.73378 175.569 10.6663 175.543 13.2471C175.515 16.2385 175.403 17.3778 175.079 18.0612C174.602 19.0668 174.202 19.0214 174.15 17.9559C174.121 17.3448 174.092 17.3725 173.952 18.1543L173.788 19.0629L168.116 19.1322C164.996 19.1701 162.087 19.1972 161.652 19.1919C161.217 19.187 160.208 19.1731 159.41 19.1621C158.611 19.1511 157.543 19.1624 157.035 19.1874C156.527 19.2123 152.452 19.1972 147.979 19.154C143.506 19.1107 139.794 19.1601 139.73 19.2637C139.666 19.3673 139.289 19.3805 138.892 19.293C138.313 19.1653 133.508 19.1059 129.86 19.1814C129.498 19.1896 128.518 19.1953 127.684 19.1957C126.849 19.196 125.9 19.2165 125.573 19.2415C125.246 19.2664 124.351 19.1961 123.582 19.0855C122.632 18.9487 121.993 18.9874 121.583 19.2067C121.1 19.4655 120.682 19.4506 119.458 19.1312C118.087 18.773 117.806 18.7752 116.637 19.1528C115.549 19.5045 115.235 19.5166 114.696 19.2278C114.236 18.982 113.577 18.939 112.392 19.0776C111.479 19.1844 110.614 19.2552 110.469 19.2348C109.101 19.0433 100.068 19.0954 99.6723 19.2971C99.2847 19.4947 99.083 19.4426 98.8149 19.0757C98.6221 18.8119 98.4643 18.7078 98.4643 18.8444C98.4643 18.9946 95.7262 19.0731 91.5387 19.0431C81.4386 18.9707 81.8458 18.9944 81.8243 18.4801C81.808 18.093 81.7831 18.0893 81.6262 18.4503C81.5202 18.6946 81.1231 18.8628 80.6554 18.8615C79.9324 18.8595 79.8502 18.7665 79.7056 17.7884L79.5475 16.7175L79.5067 17.8547C79.4639 19.085 78.9462 19.1755 78.9301 17.9555L78.9219 17.2453L78.5555 17.9051L78.189 18.5649L77.9053 17.8219C77.7492 17.4133 77.6098 16.7601 77.5955 16.3704C77.5751 15.7959 77.5119 15.8705 77.2657 16.7651C76.8351 18.3283 76.5725 18.4443 76.5266 17.0913C76.498 16.2514 76.4556 16.1369 76.3741 16.6815C76.3048 17.1448 76.0651 17.4887 75.7541 17.57C75.4752 17.643 75.2468 17.874 75.2468 18.0834C75.2468 18.2927 75.1384 18.3969 75.0055 18.3148C74.8727 18.2328 74.7039 18.3149 74.6305 18.4972C74.5572 18.6796 74.4675 15.5034 74.4312 11.4392C74.3786 5.53279 74.3281 4.6323 74.1801 6.95265C74.0782 8.54933 73.9637 11.2808 73.9253 13.0226L73.8556 16.1896L73.5353 13.5505C73.2283 11.0255 73.212 10.9798 73.1525 12.4948C73.1199 13.3658 72.998 14.6721 72.8847 15.3979C72.698 16.5987 72.6731 16.6343 72.6128 15.7938L72.5464 14.87L72.3723 15.6618C72.228 16.3187 72.1661 16.3712 72.0079 15.9701C71.9032 15.7042 71.8171 14.8956 71.8171 14.1731C71.8171 13.432 71.7103 12.9256 71.5722 13.011C71.4372 13.0943 71.2754 12.8935 71.2122 12.5647C71.1491 12.236 71.0814 12.5973 71.0614 13.3681C71.041 14.227 70.9236 14.7061 70.7618 14.6061C70.6118 14.5133 70.4863 14.7626 70.4712 15.1843C70.4467 15.8792 70.4296 15.8677 70.2152 15.002C70.0893 14.494 69.894 11.7625 69.7814 8.93199C69.6522 5.6817 69.5254 4.32046 69.4378 5.23721C69.3057 6.61506 69.2845 6.54807 69.014 3.91763L68.7291 1.14652L68.6663 3.52174C68.6117 5.59155 68.5701 5.77944 68.3415 4.98281C68.1972 4.48001 68.0003 3.35177 67.9036 2.47563L67.7279 0.882629L65.8476 0.856124L63.9674 0.82962L63.7738 9.73769L63.5801 18.6457L62.7517 18.7697C62.296 18.838 61.0328 18.862 59.9445 18.8232C58.6998 18.7788 57.718 18.8806 57.298 19.0976C56.8216 19.3438 56.4916 19.365 56.1463 19.1717C55.8801 19.0226 55.008 18.955 54.2084 19.0213C53.4088 19.0876 52.2781 19.0547 51.6959 18.9483C50.9892 18.819 50.3465 18.8761 49.763 19.12C49.104 19.3954 48.7069 19.4163 48.1506 19.2047C47.7446 19.0503 47.4124 18.9433 47.4124 18.9669C47.4124 18.9905 46.9624 18.9253 46.4125 18.8221C45.6633 18.6815 45.2943 18.7415 44.9412 19.0612C44.5515 19.4138 44.2212 19.446 43.039 19.2466C41.3434 18.9606 34.1655 19.0326 33.4784 19.3424C33.2008 19.4677 32.725 19.433 32.3447 19.2596C31.5397 18.8928 29.539 18.8674 29.1868 19.2197C29.0181 19.3885 28.3596 19.3866 27.2894 19.2148C26.1722 19.0348 25.0952 19.0395 23.9059 19.2295C22.6222 19.4346 22.0654 19.4286 21.7981 19.2066C21.4275 18.8989 19.8172 18.9769 18.9844 19.3428C18.6412 19.4937 18.5148 19.42 18.4921 19.0557C18.4636 18.6135 18.4497 18.6107 18.3409 19.0275C18.1901 19.6052 17.4259 19.618 16.3486 19.0606C15.5771 18.6615 15.4601 18.664 14.6569 19.0969C13.9954 19.4532 13.5299 19.5145 12.6626 19.3593C11.2508 19.1068 9.90075 19.1058 8.96323 19.3563C8.56662 19.4624 8.0323 19.46 7.77595 19.3514C6.95061 19.0006 5.35931 18.9282 4.81999 19.2169C4.44824 19.4159 3.74913 19.4128 2.41846 19.2063C0.661825 18.9337 0.000428246 18.9959 0.400547 19.3961C0.784932 19.7805 4.30198 19.9061 5.11412 19.5646C5.59463 19.3624 6.05177 19.3158 6.2246 19.4513C6.86909 19.9565 8.77433 20.036 9.70065 19.5963C10.346 19.2899 10.7078 19.2443 10.9429 19.4394C11.4562 19.8655 14.425 19.9347 14.9102 19.5319C15.2453 19.2537 15.4379 19.2523 15.9335 19.525C16.2694 19.7094 16.9299 19.846 17.4015 19.8284C18.1106 19.8019 18.2618 19.8954 18.2757 20.369L18.292 20.9416L18.5239 20.3663C18.7901 19.7054 20.619 19.3008 21.6309 19.6789C21.9619 19.8026 22.9711 19.8286 23.8735 19.7366C24.7758 19.6447 26.2828 19.6737 27.2225 19.8011C28.3947 19.96 29.158 19.9386 29.6543 19.7331C30.1997 19.5071 30.7051 19.512 31.7101 19.753C32.443 19.9289 33.367 19.9894 33.7635 19.8875C34.6386 19.6626 41.9598 19.6755 43.4873 19.9046C44.2916 20.0253 44.7661 19.9487 45.2732 19.6163C45.8446 19.2418 46.0347 19.2226 46.3749 19.505C46.6301 19.7168 47.4556 19.8355 48.5502 19.8176C49.5205 19.8017 50.6111 19.7842 50.9739 19.7781C54.0684 19.7278 55.6979 19.8111 56.3012 20.051C56.8545 20.2707 57.1366 20.2455 57.5774 19.9366C58.0044 19.6375 58.3484 19.6008 58.9778 19.7874C59.4368 19.9234 60.5582 20.011 61.4697 19.982C62.3813 19.953 63.2408 20.0429 63.3798 20.1819C63.5232 20.3255 63.7091 24.2802 63.8099 29.3434C63.9077 34.2433 64.072 38.1153 64.1755 37.948C64.286 37.7691 64.427 37.7464 64.5175 37.8929L64.5129 37.893Z" fill="black"/>
</svg>
