<svg width="464" height="39" viewBox="0 0 464 39" fill="none" xmlns="http://www.w3.org/2000/svg">
<path d="M0.878935 20.1512C1.05013 19.98 1.14552 20.1553 1.15775 20.6693C1.1659 21.0975 1.27841 21.6854 1.40314 21.9757C1.59146 22.4145 1.63833 22.3475 1.67909 21.5798C1.70763 21.0718 1.78263 20.8654 1.84948 21.1212C2.02476 21.7944 2.45776 21.4086 2.46249 20.5745C2.46624 20.0191 2.52242 19.9506 2.72215 20.2601C2.92718 20.5774 2.98709 20.5248 3.02337 19.9963C3.04783 19.6335 3.15015 19.9303 3.25002 20.6561L3.431 21.9757L3.49091 20.92C3.53942 20.0706 3.59527 19.9675 3.77747 20.3922C3.90221 20.6825 4.03509 22.7609 4.07259 25.0107L4.14066 29.1013L4.30127 25.1426C4.47369 20.884 4.839 19.1837 5.12315 21.3159L5.28131 22.5035L5.32206 21.3663C5.35059 20.6066 5.45903 20.2893 5.6551 20.4105C5.81652 20.5104 6.04763 20.4308 6.16857 20.2355C6.47347 19.7418 6.60807 20.1813 6.90282 22.6355L7.14046 24.6148L7.17307 22.6223C7.20975 20.5946 7.46084 19.9963 8.28443 19.9963C8.7847 19.9963 9.03038 20.6877 9.08154 22.2396C9.11415 23.2605 9.12311 23.2692 9.31795 22.5034C9.49282 21.8165 9.52992 21.9038 9.59881 23.1632C9.67259 24.5092 9.68929 24.4612 9.82788 22.5034C9.95506 20.7059 10.046 20.3976 10.4391 20.4288C10.6931 20.4492 10.9008 20.3472 10.9008 20.2025C10.9008 20.0581 11.079 20.008 11.2966 20.0916C11.5143 20.1752 11.6924 20.1283 11.6924 19.988C11.6924 19.6137 12.7456 20.7286 12.7596 21.1179C12.7678 21.2994 12.9214 21.0975 13.1049 20.6657C13.3364 20.1228 13.5011 19.9855 13.6441 20.2167C13.8076 20.4813 13.9307 20.4829 14.2422 20.2248C14.5569 19.9639 14.683 19.9741 14.8783 20.2783C15.0887 20.6053 15.1575 20.6032 15.3819 20.262C15.5755 19.9667 15.6436 20.1351 15.6497 20.9218C15.6537 21.7015 15.7247 21.8739 15.9134 21.5815C16.0915 21.3059 16.1861 21.8677 16.2248 23.4289C16.2807 25.6716 16.2807 25.6717 16.3593 23.8249C16.4025 22.8088 16.5154 21.5618 16.6104 21.0538C16.7755 20.1694 16.7914 20.1581 16.9814 20.79C17.1774 21.4414 17.1807 21.4397 17.2516 20.6578C17.2924 20.2224 17.4012 20.6375 17.4962 21.5816L17.669 23.297L17.7147 21.7712C17.7473 20.645 17.8708 20.2029 18.1826 20.0833C18.4149 19.994 18.6851 20.0507 18.7832 20.2097C18.8981 20.396 19.0991 20.4111 19.3502 20.2521C20.0381 19.8168 21.1896 19.9467 21.1941 20.46C21.1978 20.8547 21.2352 20.8641 21.4537 20.5261C21.6481 20.2247 21.7105 20.3316 21.7134 20.9724C21.7174 22.1711 22.1963 22.3138 22.2948 21.1461C22.3657 20.3072 22.4782 20.1583 23.1025 20.0759C23.7771 19.987 23.828 20.0473 23.828 20.9284C23.828 21.4934 23.9348 21.8108 24.0918 21.7137C24.2369 21.624 24.3555 21.136 24.3555 20.6293V19.708L25.5865 19.8528C26.2635 19.9323 26.8868 20.0665 26.9716 20.1505C27.0564 20.2349 27.1938 21.3926 27.2773 22.7239L27.429 25.1443L27.4754 22.7031C27.504 21.2825 27.632 20.262 27.7856 20.262C27.9307 20.262 28.0494 20.4034 28.0494 20.5763C28.0494 20.7492 28.2238 20.6599 28.4366 20.3785C28.6498 20.0968 28.8509 19.9257 28.8839 19.9982C28.9165 20.0707 29.0147 22.4459 29.1015 25.2764L29.2593 30.4227L29.3583 25.5403C29.4289 22.0626 29.5079 21.1135 29.6327 22.2414L29.8075 23.8249L29.852 22.0279C29.8805 20.9072 29.9955 20.2923 30.1601 20.394C30.3052 20.4837 30.4239 20.3271 30.4239 20.0457C30.4239 19.5577 30.4659 19.5535 31.3473 19.9532L32.2707 20.3719L32.3184 24.8694L32.366 29.367L32.5466 25.1444C32.6457 22.8219 32.7431 20.7813 32.7627 20.6096C32.8552 19.8028 36.0955 19.6262 36.6591 20.3972C36.975 20.8293 37.0199 20.8325 37.1726 20.4339C37.2737 20.1705 37.6355 19.9975 38.0861 19.9975C38.4964 19.9975 39.1298 19.8841 39.4934 19.7459C39.9753 19.5624 40.3774 19.6056 40.9763 19.9045C41.8331 20.3321 43.6156 20.2083 43.6156 19.7214C43.6156 19.3259 44.5981 19.427 44.756 19.8384C44.8441 20.0676 45.4007 20.243 46.2247 20.3003C47.3434 20.3786 47.5921 20.3085 47.8084 19.8652L48.0652 19.3374L48.0856 19.8652C48.1019 20.2672 48.1618 20.3071 48.3358 20.0324C48.5221 19.7388 48.7418 19.7303 49.52 19.9871C50.0456 20.1604 50.8017 20.2314 51.2002 20.1441C51.5989 20.0569 53.8245 19.9912 56.1462 19.9985C58.4679 20.0067 60.7831 19.9904 61.2909 19.9659C62.4416 19.9072 64.9197 19.9496 65.7101 20.0421C66.2802 20.1082 66.3058 20.2216 66.3537 22.892C66.3822 24.4418 66.4388 24.9719 66.4833 24.0895C66.6056 21.6648 66.8412 20.2377 67.0939 20.3939C67.2199 20.4714 67.3972 20.4143 67.4885 20.2671C67.8929 19.6128 68.1542 20.1228 68.1969 21.6483C68.2405 23.2202 68.2499 23.242 68.3946 22.1102C68.4781 21.457 68.6082 24.9011 68.6836 29.7637L68.8209 38.6048L68.8817 29.462C68.9497 19.1881 68.7618 19.9988 71.0745 19.9988C71.9345 19.9988 72.3734 20.1102 72.3761 20.3287C72.3799 20.5485 72.4654 20.5265 72.6358 20.2627C72.8633 19.9108 72.8926 19.9108 72.8995 20.2627C72.9036 20.5208 72.9749 20.557 73.1013 20.367C73.3438 20.0021 75.01 19.9401 75.01 20.2961C75.01 20.44 75.125 20.4869 75.2656 20.4001C75.4229 20.3026 75.553 21.4359 75.6047 23.3536L75.6883 26.4648L75.745 23.1346L75.8016 19.8043L76.644 19.9022C77.1073 19.956 77.5772 20.1472 77.6883 20.3272C77.842 20.5759 77.9639 20.5804 78.1973 20.3476C78.525 20.0198 79.2377 20.1731 79.5572 20.64C79.6738 20.8104 79.7525 20.7394 79.7549 20.4614C79.7587 19.9659 80.4127 19.8269 80.6828 20.264C80.7908 20.4389 81.0264 20.432 81.3786 20.2437C82.3978 19.698 82.6578 20.1001 82.7077 22.3002L82.7542 24.3539L82.925 22.5065L83.0954 20.6591L83.1418 22.4405C83.2046 24.8338 83.7032 24.728 83.7645 22.3084L83.813 20.395L83.9626 22.5063L84.1121 24.6176L84.2776 22.1649C84.3685 20.8159 84.5112 19.6439 84.5948 19.5604C84.6783 19.4768 84.9388 19.6012 85.1738 19.836C85.4085 20.0709 85.82 20.2633 86.0878 20.2633C86.3556 20.2633 86.6345 20.4117 86.7077 20.5931C86.7872 20.7901 86.8491 20.7371 86.8617 20.461C86.874 20.207 87.0016 19.9992 87.1463 19.9992C87.2995 19.9992 87.4308 21.0222 87.4597 22.4404L87.5094 24.8816L87.6737 22.5064C87.7985 20.7017 87.8559 20.4481 87.9138 21.4507C87.9754 22.5208 88.028 22.6456 88.191 22.1105C88.3724 21.5154 88.4042 21.5541 88.5159 22.5064C88.6157 23.355 88.6487 23.2402 88.6842 21.9209C88.7168 20.6512 88.8102 20.3112 89.0902 20.4186C89.2891 20.4952 89.525 20.3668 89.6144 20.134C89.786 19.6869 90.5735 19.6852 90.9011 20.1302C91.0201 20.292 91.0963 20.2631 91.0988 20.0548C91.1025 19.7918 91.2276 19.7824 91.6575 20.0123C91.9624 20.1758 92.4374 20.2505 92.7128 20.1783C93.1061 20.0756 93.2212 20.1987 93.2494 20.7484L93.2861 21.4495L93.4149 20.7897C93.5352 20.1739 93.558 20.1651 93.7561 20.6576C93.9493 21.1373 93.9705 21.1252 93.9913 20.5254C94.0117 19.9999 94.0659 19.9462 94.2697 20.2616C94.4401 20.5255 94.5269 20.5475 94.5294 20.3277C94.5312 20.1463 94.7018 19.9978 94.9072 19.9978C95.1126 19.9978 95.3408 20.1463 95.4141 20.3277C95.487 20.5092 95.5563 20.426 95.5681 20.143C95.5967 19.3885 96.1236 20.0027 96.3818 21.095C96.5778 21.924 96.5917 21.9334 96.6174 21.2516C96.6337 20.8525 96.7495 20.5258 96.8774 20.5258C97.2931 20.5258 97.4286 21.6489 97.4323 25.1223C97.4342 26.9973 97.511 28.4564 97.6023 28.3648C97.6936 28.2735 97.8452 26.4065 97.9385 24.2164C98.1134 20.1237 98.2479 19.6784 99.2519 19.8744C99.4863 19.9201 100.836 19.9666 102.251 19.978L104.823 19.9984L104.865 22.1756C104.889 23.3731 104.949 23.9373 104.998 23.4293C105.13 22.0918 105.656 20.521 105.917 20.6825C106.041 20.7587 106.146 20.6063 106.15 20.3441C106.158 19.8987 106.183 19.901 106.546 20.3808C106.929 20.8879 106.933 20.8879 106.964 20.3808C106.985 20.0587 107.07 20.1622 107.197 20.6601L107.399 21.4518L107.431 20.7105C107.473 19.7029 107.983 20.0747 108.016 21.1375C108.041 21.9417 108.053 21.9499 108.254 21.3198C108.418 20.8065 108.481 21.0115 108.538 22.2434L108.611 23.8269L108.762 21.9796C108.898 20.3188 108.973 20.1236 109.507 20.0478C109.998 19.9781 110.105 20.0926 110.127 20.7076C110.152 21.4208 110.16 21.4255 110.33 20.8202C110.536 20.084 111.558 19.5921 111.873 20.0777C111.986 20.2526 112.146 21.8211 112.227 23.5629L112.375 26.7299L112.425 23.3806C112.454 21.5385 112.583 19.9645 112.715 19.8829C112.847 19.8013 113.144 19.807 113.374 19.8951C113.707 20.0232 113.804 20.5263 113.843 22.3371L113.892 24.6182L114.041 22.5069C114.138 21.1285 114.305 20.3726 114.52 20.3295C114.701 20.2928 114.85 20.4645 114.85 20.71C114.85 21.099 114.899 21.0908 115.237 20.6439C115.586 20.1826 115.628 20.4205 115.665 23.0347L115.707 25.9377L116.05 22.7708C116.239 21.0289 116.411 19.5444 116.434 19.4719C116.459 19.3993 116.638 19.6961 116.838 20.1316C117.037 20.5671 117.205 20.7679 117.212 20.5779C117.22 20.3879 117.343 20.306 117.487 20.3957C117.633 20.4854 117.768 21.1753 117.789 21.9287L117.825 23.2987L118.015 22.243L118.204 21.1874L118.282 22.375L118.361 23.5626L118.542 22.243C118.721 20.937 118.724 20.9343 118.769 21.9792C118.801 22.7614 118.879 22.9323 119.067 22.6389C119.233 22.3772 119.346 23.9868 119.398 27.3895L119.478 32.5358L119.583 26.3338C119.654 22.2149 119.747 20.708 119.862 21.8472L120.035 23.5627L120.127 21.5833L120.219 19.604L120.39 21.4514C120.534 23.0111 120.567 23.1061 120.607 22.0608C120.659 20.6927 121.02 20.2069 121.304 21.1245C121.474 21.6735 121.505 21.6546 121.737 20.8578C122.02 19.8912 122.493 19.7798 125.205 20.0421L125.93 20.1123L125.978 29.2272C126.018 36.8264 126.055 37.6618 126.207 34.2513C126.306 32.0015 126.406 28.023 126.427 25.4103C126.452 22.6738 126.562 20.8103 126.691 21.0148C126.856 21.2753 126.973 21.1698 127.132 20.6189C127.346 19.8731 127.349 19.8752 127.525 20.9239L127.702 21.9795L127.739 21.0206C127.768 20.3118 127.91 20.0267 128.289 19.9277C128.934 19.7589 129.089 19.9154 129.122 20.7699L129.146 21.4517L129.326 20.8088C129.496 20.1996 130.707 19.5909 131.056 19.9395C131.138 20.021 131.223 20.7512 131.246 21.5616C131.275 22.5311 131.321 22.7192 131.384 22.1115C131.573 20.2749 131.717 19.9231 132.139 20.2731C132.443 20.5259 132.523 20.5193 132.523 20.2445C132.523 20.0248 132.616 19.9885 132.772 20.1463C132.909 20.2841 133.065 21.0502 133.119 21.8485L133.217 23.3001L133.266 21.6938L133.315 20.0876L134.37 20.0461L135.426 20.0044L135.472 21.652C135.508 23.0169 135.535 23.101 135.621 22.1421C135.677 21.5056 135.906 20.8021 136.129 20.5789C136.555 20.1527 139.119 19.9125 139.119 20.2988C139.119 20.4179 139.424 20.3996 139.796 20.2581C140.168 20.1166 140.524 20.0008 140.588 20.0008C140.651 20.0008 140.723 20.6243 140.748 21.3863L140.794 22.7719L140.897 21.5842C140.953 20.9311 141.098 20.2958 141.22 20.1725C141.589 19.7974 142.508 20.2533 142.628 20.871C142.731 21.4028 142.744 21.3961 142.778 20.7927C142.814 20.1673 142.904 20.1297 144.529 20.0716C146.22 20.0113 146.242 20.0194 146.242 20.7065V21.4026L146.877 20.6639C147.274 20.2011 147.665 19.9844 147.924 20.0836C148.15 20.1704 148.407 20.1264 148.495 19.9853C148.833 19.4373 149.144 20.0917 149.144 21.3519C149.144 22.9633 149.663 22.8568 149.693 21.2393C149.705 20.631 149.776 20.288 149.852 20.4772C149.954 20.734 150.078 20.7006 150.34 20.345C150.809 19.7073 150.942 20.0739 151.228 22.7848L151.449 24.8835L151.485 23.0361C151.506 22.0201 151.602 20.8983 151.697 20.5431C151.856 19.9452 151.884 19.9354 152.07 20.411C152.261 20.8982 152.272 20.8992 152.29 20.4314C152.306 20.02 152.448 19.9644 153.133 20.1015C153.587 20.1924 154.121 20.2666 154.32 20.2666C154.577 20.2666 154.696 20.6736 154.726 21.6522L154.769 23.0378L154.927 21.5862C155.069 20.2929 155.114 20.4943 155.346 23.4336L155.606 26.7326L155.679 23.267L155.752 19.8014L156.47 19.8707C156.865 19.9074 157.384 20.0215 157.623 20.121C157.862 20.2209 158.278 20.2645 158.547 20.2185C158.995 20.1414 159.047 20.4093 159.18 23.4336C159.302 26.2207 159.337 26.4254 159.406 24.7532C159.489 22.7612 159.848 19.3634 159.92 19.8895C159.98 20.326 163.619 20.2201 163.895 19.774C164.071 19.4886 164.303 19.4732 165.006 19.7007C165.981 20.0159 166.89 20.0562 171.892 20.0052C173.738 19.9849 175.319 19.8597 175.403 19.7231C175.638 19.3423 176.307 19.4279 176.778 19.8984C177.106 20.2271 177.492 20.2834 178.497 20.15C179.209 20.0554 180.02 19.8364 180.297 19.6629C180.69 19.4174 180.918 19.4199 181.326 19.6751C181.614 19.8549 182.03 20.0025 182.249 20.0025C182.482 20.0025 182.656 20.2496 182.665 20.5963L182.682 21.1901L182.933 20.5625C183.157 20.0016 183.308 19.9488 184.352 20.0665C185.187 20.1607 185.559 20.095 185.657 19.841C185.839 19.3659 186.605 19.6775 186.61 20.2287C186.613 20.5537 186.668 20.5773 186.829 20.3237C187.159 19.8035 187.925 20.2442 187.925 20.9547C187.925 21.3021 188.043 21.5863 188.188 21.5863C188.358 21.5863 188.467 24.6275 188.495 30.0975L188.537 38.6087L188.756 31.615C188.96 25.096 189.227 22.0655 189.766 20.1348C189.969 19.4075 190.001 19.3889 190.166 19.9068C190.337 20.445 190.403 20.4553 191.625 20.1327C192.33 19.9468 192.979 19.8677 193.068 19.957C193.157 20.0463 193.341 19.9448 193.476 19.7311C193.61 19.5175 193.723 19.4714 193.725 19.6288C193.729 19.9701 194.213 20.0553 195.957 20.0238C196.674 20.0116 197.334 19.882 197.424 19.7372C197.519 19.5827 197.825 19.6964 198.164 20.0128C198.482 20.3089 198.742 20.4209 198.742 20.2616C198.742 20.1021 198.831 20.0267 198.94 20.0936C199.048 20.1609 199.494 20.0691 199.929 19.8889C200.558 19.6292 200.977 19.6296 201.972 19.8899C202.661 20.0701 203.462 20.1553 203.753 20.0791C204.259 19.947 204.285 20.081 204.339 23.0724L204.396 26.2042L204.479 23.1032L204.563 20.0022H206.409C208.503 20.0022 208.424 19.9219 208.745 22.3988C208.951 23.9903 208.966 24.0189 208.998 22.8723C209.047 21.0613 209.315 20.0022 209.724 20.0022C209.923 20.0022 210.086 20.1449 210.086 20.319C210.086 20.5653 210.157 20.5653 210.403 20.319C210.577 20.1449 211.171 20.0022 211.722 20.0022H212.725L212.773 21.6516C212.815 23.1416 212.83 23.18 212.919 22.0492C212.989 21.1572 213.162 20.7201 213.518 20.5291C213.96 20.2926 214.038 20.3782 214.181 21.2533C214.458 22.952 214.51 23.0675 214.541 22.0648C214.557 21.5299 214.707 20.758 214.873 20.3494L215.173 19.6064L215.374 20.2662C215.57 20.9115 215.575 20.9127 215.601 20.3196C215.625 19.7234 215.638 19.7213 216.279 20.1875C216.896 20.6373 216.933 20.8113 216.983 23.5647L217.036 26.4678L217.222 23.5647C217.449 20.0151 217.418 20.2 217.738 20.3978C217.883 20.4875 218.002 20.302 218.002 19.9851C218.002 19.5033 218.066 19.4631 218.398 19.7381C218.615 19.9187 218.794 20.3027 218.794 20.5913C218.794 21.0819 218.826 21.0756 219.316 20.4931C219.726 20.004 219.888 19.9458 220.071 20.2223C220.348 20.6412 220.318 20.6394 221.234 20.2908C221.931 20.0258 221.96 20.0486 221.98 20.8661C222.001 21.7557 222.069 21.6787 222.34 20.4529C222.439 20.0066 222.618 19.7875 222.795 19.8969C222.955 19.9959 223.338 20.0901 223.644 20.1056C224.011 20.126 224.231 20.3376 224.286 20.7276C224.379 21.3822 224.862 21.5532 224.862 20.9315C224.862 20.717 225.164 20.3436 225.533 20.1016C226.106 19.726 226.3 19.7122 226.852 20.0082C227.499 20.3548 227.5 20.3589 227.5 24.6649C227.5 27.3623 227.599 28.9749 227.764 28.9749C227.928 28.9749 228.028 27.4017 228.028 24.783C228.028 21.0297 228.076 20.5739 228.489 20.426C229.912 19.9168 230.402 19.8048 230.402 19.9883C230.402 20.1009 230.726 20.1576 231.122 20.1139C231.995 20.0181 232.239 20.3525 232.245 21.6512C232.247 22.1955 232.367 22.6408 232.513 22.6408C232.658 22.6408 232.776 22.2396 232.776 21.7494C232.776 21.2592 232.954 20.7102 233.172 20.5295C233.518 20.2424 233.574 20.4798 233.62 22.4105L233.671 24.6202L233.753 22.7728C233.862 20.2904 234.01 19.7212 234.494 19.9073C234.769 20.0129 234.901 20.5044 234.935 21.5474L234.982 23.0367L235.083 21.7171C235.246 19.561 235.675 19.6598 235.712 21.8622L235.745 23.8284L235.959 22.1798C236.077 21.273 236.239 20.4246 236.32 20.2943C236.4 20.1638 236.942 20.0121 237.524 19.9567C238.542 19.8596 238.581 19.8849 238.607 20.6545C238.631 21.4352 238.639 21.4384 238.844 20.7936L239.056 20.1338L239.103 20.7936L239.15 21.4534L239.415 20.7276C239.634 20.1292 239.838 20.0018 240.582 20.0018C241.442 20.0018 241.484 20.0471 241.514 20.9916C241.53 21.5359 241.636 22.3375 241.747 22.773C241.903 23.3884 241.955 23.1742 241.98 21.8112C242.008 20.1144 242.032 20.0589 242.67 20.0958L243.33 20.1325L243.392 29.3694L243.455 38.6065L243.528 29.5451C243.588 22.095 243.668 20.4163 243.979 20.1049C244.5 19.584 246.487 19.8904 246.517 20.4963C246.533 20.8563 246.562 20.8612 246.688 20.5289C246.876 20.0372 247.325 19.7294 247.605 19.9021C247.721 19.9739 247.825 20.8268 247.836 21.798C247.86 23.7969 247.961 23.7207 248.21 21.5187C248.329 20.4597 248.495 20.0012 248.758 20.0012C249.029 20.0012 249.139 20.3514 249.15 21.2548C249.158 21.9443 249.253 22.9835 249.361 23.5641C249.539 24.5185 249.577 24.4047 249.753 22.3781C249.861 21.1452 250.05 20.0357 250.173 19.9125C250.621 19.4649 251.508 20.2546 251.544 21.1322L251.581 21.9805L251.775 21.0568C251.956 20.1941 251.974 20.2291 252.044 21.5846C252.089 22.4682 252.157 22.7263 252.216 22.2444C252.425 20.5706 252.586 20.1347 252.844 20.5427C253.024 20.8261 253.087 20.7286 253.09 20.1668C253.098 18.9119 253.879 19.8475 253.917 21.1551C253.945 22.1593 253.962 22.1826 254.123 21.4528C254.288 20.7049 254.315 20.6902 254.611 21.1889C254.899 21.674 254.925 21.6499 254.933 20.8909L254.941 20.0648L256.326 20.135C257.144 20.1766 257.79 20.0823 257.905 19.9054C258.012 19.7407 258.121 20.5559 258.147 21.7171C258.176 22.8883 258.242 23.3584 258.3 22.7728C258.445 21.3186 258.897 20.9323 258.902 22.2581C258.906 23.0284 258.973 23.1972 259.162 22.9047C259.302 22.6869 259.419 22.078 259.421 21.5515C259.423 21.0249 259.603 20.4463 259.821 20.2656C260.162 19.9826 260.223 20.0976 260.263 21.091L260.309 22.2449L260.409 21.1461C260.512 20.0073 261.158 19.3965 261.451 20.1602C261.579 20.4937 261.653 20.5055 261.832 20.2218C262.003 19.9522 262.056 19.9779 262.059 20.3314C262.061 20.5855 262.139 20.7933 262.232 20.7933C262.325 20.7933 262.56 20.5853 262.755 20.3314C263.04 19.9596 263.154 19.938 263.341 20.2218C263.532 20.5117 263.598 20.5071 263.717 20.1972C263.923 19.6591 265.492 19.9196 265.497 20.4929C265.501 20.868 265.534 20.8729 265.757 20.5296C265.897 20.3119 266.014 20.2156 266.016 20.316C266.02 20.4163 266.333 20.3363 266.715 20.1378C267.199 19.8866 267.604 19.8515 268.052 20.0219C268.406 20.1565 268.984 20.194 269.337 20.1055C269.928 19.9571 269.981 20.024 270.022 20.9628L270.067 21.9811L270.17 20.9914C270.237 20.3541 270.409 20.0018 270.654 20.0018C270.862 20.0018 271.035 20.1502 271.038 20.3316C271.041 20.5359 271.115 20.5612 271.236 20.3977C271.342 20.2526 272.023 20.1143 272.749 20.0902C273.474 20.0658 274.276 19.9647 274.53 19.8639C274.901 19.7168 274.996 19.8272 275.018 20.4354C275.042 21.0849 275.068 21.1111 275.215 20.6246C275.356 20.161 275.565 20.0709 276.381 20.1224C276.928 20.155 277.659 20.038 278.005 19.8578C278.45 19.627 278.718 19.6132 278.916 19.8113C279.07 19.9654 279.794 20.0983 280.524 20.1069C281.254 20.1151 281.854 20.2435 281.859 20.3919C281.863 20.5403 281.971 20.4837 282.098 20.2664C282.272 19.9703 282.702 19.8933 283.805 19.9609L285.281 20.0515L285.33 22.3363C285.371 24.1196 285.398 24.2735 285.462 23.0376C285.623 19.9036 285.639 19.8707 287.061 19.8707C287.75 19.8707 288.402 19.9893 288.508 20.1345C288.636 20.3086 288.704 20.3061 288.706 20.1263C288.71 19.9575 289.234 19.9078 290.095 19.9942L291.48 20.1337L291.627 22.7728L291.774 25.412L291.825 22.7634C291.872 20.3078 291.914 20.1148 292.404 20.1148C292.838 20.1148 292.938 20.3032 292.969 21.1799L293.005 22.245L293.166 21.2099C293.254 20.6407 293.475 20.126 293.656 20.0663C293.905 19.9843 293.999 20.6928 294.041 22.9487L294.097 25.9398L294.183 23.3378C294.242 21.5669 294.387 20.6188 294.636 20.3692C294.892 20.1131 295.666 20.0051 297.199 20.0117C300.777 20.028 300.969 20.0442 301.172 20.359C301.316 20.5841 301.366 20.5825 301.37 20.3509C301.374 19.9684 302.825 19.6234 303.27 19.8989C303.983 20.3397 305.247 20.2666 305.842 19.7504C306.385 19.2795 306.496 19.2678 307.04 19.6244C307.82 20.1352 310.768 20.2003 311.748 19.7284C312.328 19.4491 312.536 19.441 312.692 19.6917C312.834 19.9221 314.029 20.0142 316.894 20.0154C319.676 20.0165 320.897 20.1072 320.897 20.3131C320.897 20.4758 321.125 20.4033 321.403 20.1513C321.805 19.788 322.021 19.7537 322.453 19.9849C322.752 20.1451 323.296 20.201 323.662 20.1092C324.293 19.951 324.329 20.0016 324.367 21.0925L324.408 22.2427L324.592 21.0552C324.722 20.2166 324.805 20.9923 324.871 23.6943L324.965 27.521L325.108 23.8293C325.229 20.7126 325.318 20.1249 325.678 20.056C326.226 19.9508 326.428 20.9379 326.472 23.9252C326.5 25.9341 326.53 26.062 326.716 25.0139C326.832 24.3607 326.952 22.9949 326.983 21.9789C327.011 20.9628 327.093 20.4247 327.16 20.7831C327.282 21.4337 327.282 21.4335 327.616 20.6408C327.923 19.9099 328.036 19.8551 329.041 19.9509C330.01 20.0435 330.135 20.1332 330.16 20.7531L330.189 21.4511L330.467 20.7492C330.755 20.024 331.566 19.7736 333.064 19.9476C333.71 20.0226 333.763 20.1364 333.92 21.795C334.011 22.7671 334.114 26.5908 334.149 30.2922L334.211 37.0221L334.348 28.5768L334.486 20.1315L335.079 20.0471C335.643 19.9672 335.674 20.0553 335.701 21.7626L335.73 23.5624L335.974 22.3748C336.108 21.7216 336.276 20.9199 336.347 20.5934C336.539 19.705 336.987 19.8776 337.032 20.8572L337.073 21.7149L337.185 20.9231C337.293 20.1664 337.785 19.3218 337.785 19.8937C337.785 20.0397 338.197 20.1094 338.709 20.0494L339.632 19.9418L339.685 23.0716L339.737 26.2015L339.896 23.1665C339.983 21.4972 340.08 20.3096 340.111 20.5274C340.148 20.7826 340.236 20.8225 340.361 20.6399C340.468 20.4841 340.763 20.2798 341.017 20.1863C341.382 20.0513 341.483 20.1659 341.499 20.7334C341.512 21.1281 341.585 21.289 341.663 21.091C341.784 20.7872 341.842 20.7872 342.034 21.091C342.194 21.3438 342.263 21.2353 342.266 20.7248C342.27 19.9751 342.637 19.7488 342.908 20.3289C343.031 20.5923 343.093 20.5919 343.216 20.327C343.301 20.1448 343.479 20.0624 343.612 20.1447C343.744 20.2267 343.853 20.1815 343.853 20.0392C343.853 19.8989 344.09 19.8463 344.381 19.9226C344.671 19.9984 344.908 20.1766 344.908 20.3181C344.908 20.7213 345.874 21.8478 346.06 21.6615C346.152 21.5697 346.228 21.2174 346.228 20.8787C346.228 20.0909 346.686 20.074 346.822 20.8583C346.919 21.4177 346.946 21.4062 347.297 20.6601C347.657 19.893 347.674 19.9382 347.816 22.1117L347.964 24.3549L348.085 22.2437C348.197 20.2981 348.253 20.1257 348.8 20.048L349.394 19.9636L349.456 28.2293L349.518 36.4949L349.592 28.4549C349.636 23.6325 349.769 20.3106 349.925 20.1548C350.096 19.9843 350.185 20.0035 350.185 20.2114C350.185 20.3855 350.422 20.5282 350.713 20.5282C351.174 20.5282 351.246 20.7191 351.285 22.0458L351.329 23.5632L351.504 21.9798C351.6 21.1088 351.718 20.4557 351.766 20.5282C351.814 20.6008 351.929 24.4606 352.022 29.1055L352.19 37.5506L352.243 29.1714C352.276 24.1221 352.395 20.7921 352.545 20.7921C352.683 20.7921 352.839 21.3563 352.893 22.0458C352.987 23.2383 352.995 23.2222 353.044 21.7159C353.076 20.7341 353.18 20.2661 353.318 20.4844C353.498 20.7678 353.573 20.7552 353.702 20.4184C353.956 19.7572 354.928 19.8919 354.97 20.5941L355.007 21.1879L355.124 20.5739C355.211 20.1187 355.355 20.0084 355.682 20.1473C355.924 20.2504 356.33 20.3263 356.584 20.3157C357 20.2994 357.051 20.6553 357.095 23.9092L357.144 27.5217L357.293 23.6502C357.374 21.5209 357.531 19.69 357.639 19.5815C357.748 19.4731 357.838 19.5937 357.838 19.8523C357.838 20.1601 357.973 20.2683 358.233 20.1687C358.533 20.0537 358.634 20.2237 358.648 20.8662C358.656 21.3334 358.768 21.9531 358.893 22.2434C359.06 22.632 359.125 22.4103 359.138 21.4013C359.147 20.6479 359.276 19.9579 359.421 19.8682C359.566 19.7785 359.685 19.86 359.685 20.0529C359.685 20.5044 361.276 20.5125 361.751 20.0652C361.944 19.8825 362.234 19.8148 362.397 19.9151C362.769 20.1451 363.927 20.1512 364.514 19.9273C364.76 19.8328 364.961 19.8617 364.961 19.9914C364.961 20.256 367.215 20.1642 367.933 19.8702C368.657 19.5738 369.18 20.2123 369.203 21.4207C369.228 22.6026 369.316 22.5056 369.561 21.0366C369.647 20.5165 369.865 20.0807 370.044 20.0681C370.223 20.0559 370.637 19.9833 370.964 19.9075C371.29 19.8317 371.557 19.8871 371.557 20.0339C371.557 20.179 371.676 20.2247 371.821 20.135C371.966 20.0453 372.085 20.0983 372.085 20.2512C372.085 20.6443 373.068 20.6011 373.229 20.2007C373.302 20.0192 373.373 24.0274 373.387 29.1078C373.403 35.1764 373.5 38.2089 373.668 37.9488C373.819 37.7144 373.925 34.0925 373.927 29.0741C373.931 22.5989 374.009 20.5384 374.261 20.355C374.763 19.9896 376.042 19.9234 376.042 20.2628C376.042 20.4569 376.232 20.4276 376.587 20.1788C377.148 19.7858 378.153 19.8718 378.153 20.313C378.153 20.45 378.271 20.4883 378.416 20.3986C378.562 20.3089 378.69 20.5095 378.701 20.8448C378.713 21.237 378.774 21.3133 378.867 21.0585C379.101 20.4236 379.786 19.7391 380.034 19.8927C380.16 19.9702 380.288 21.9568 380.319 24.307L380.375 28.58L380.517 24.3574C380.623 21.2103 380.743 20.1415 380.989 20.1612C381.753 20.2223 381.846 20.2929 381.846 20.8134C381.846 21.2994 381.89 21.3161 382.242 20.9643C382.46 20.7465 382.638 20.4412 382.638 20.2857C382.638 19.7611 383.174 19.9978 383.473 20.6542C383.637 21.0126 383.872 21.2431 383.995 21.1665C384.119 21.0899 384.237 22.9047 384.258 25.1995C384.286 28.3253 384.346 29.0077 384.496 27.9202C384.606 27.1218 384.708 25.2584 384.722 23.7791C384.738 22.2999 384.851 21.0264 384.975 20.9492C385.217 20.8 385.515 23.0683 385.577 25.5177C385.601 26.4762 385.691 25.9752 385.833 24.0935C385.953 22.4968 386.203 20.8934 386.389 20.5305C386.688 19.9477 386.742 20.2248 386.859 22.9058C386.978 25.653 387.009 25.8031 387.186 24.4893C387.294 23.691 387.383 22.4143 387.384 21.6522C387.384 20.8902 387.505 20.2667 387.65 20.2667C387.795 20.2667 387.914 20.497 387.914 20.7789C387.914 21.0607 388.033 21.3646 388.178 21.4543C388.324 21.5448 388.443 21.3462 388.445 21.008C388.454 19.987 388.818 19.6248 389.327 20.1341C389.651 20.4591 389.77 20.4807 389.798 20.2197C389.818 20.0281 389.92 20.3461 390.024 20.9266L390.213 21.9822L390.25 20.9926C390.275 20.3054 390.408 20.0029 390.683 20.0029C390.901 20.0029 391.079 20.1354 391.079 20.2973C391.079 20.4897 391.284 20.4624 391.673 20.217C392.525 19.6794 393.148 19.9148 393.427 20.8795C393.659 21.6799 393.671 21.6864 393.694 21.0209C393.738 19.7354 395.261 19.8619 395.331 21.1571C395.36 21.6869 395.368 21.6889 395.478 21.1898C395.745 19.983 395.835 19.8519 396.106 20.2735C396.325 20.6147 396.387 20.6135 396.615 20.2653C396.824 19.9473 396.883 19.999 396.915 20.5291C396.952 21.151 396.962 21.1548 397.069 20.5951C397.229 19.7647 397.939 19.8313 397.939 20.6767C397.939 21.0596 398.053 21.2814 398.202 21.1889C398.347 21.0992 398.466 20.7716 398.466 20.4608C398.466 20.1044 398.559 19.9882 398.716 20.1464C398.854 20.2842 399.064 24.0787 399.184 28.5785L399.401 36.7599L399.616 28.4466C399.821 20.5648 400.025 18.6772 400.484 20.425L400.685 21.1889L400.864 20.3971C401.024 19.6832 401.047 19.7221 401.1 20.7931C401.157 21.9661 401.161 21.9699 401.365 21.1095C401.618 20.0391 401.856 19.7739 402.144 20.2407C402.266 20.4364 402.482 20.5241 402.626 20.4352C402.77 20.3467 402.964 20.6578 403.059 21.1271C403.194 21.7975 403.285 21.8957 403.483 21.5847C403.621 21.3669 403.736 20.9253 403.739 20.6033C403.743 19.9096 404.523 20.0551 404.553 20.755C404.569 21.0934 404.621 21.0731 404.798 20.6608C404.923 20.3705 405.033 20.2427 405.043 20.377C405.052 20.5111 405.332 20.3688 405.663 20.0565C406.513 19.2572 407.244 19.5335 407.641 20.804C407.819 21.3739 407.985 22.2281 408.01 22.7022C408.034 23.1762 408.124 22.8196 408.208 21.9101C408.365 20.2045 408.804 19.6883 408.997 20.9827L409.107 21.7166L409.263 20.9249C409.4 20.2336 409.537 20.1297 410.341 20.1062C410.848 20.0899 411.529 19.9941 411.856 19.8905C412.412 19.7136 412.452 19.7825 412.496 20.9732L412.542 22.2445L412.643 21.1228C412.741 20.0281 412.819 19.9352 413.637 19.9352C414.807 19.9352 414.823 19.9597 414.866 21.7826C414.891 22.7624 414.95 23.1484 415.001 22.6404C415.052 22.1323 415.165 21.301 415.254 20.793C415.391 20.0048 415.446 19.9467 415.629 20.397C415.81 20.8455 415.845 20.8555 415.861 20.4631C415.873 20.1834 416.087 20.0013 416.407 20.0013C416.797 20.0013 416.945 20.1905 416.974 20.727L417.015 21.4528L417.124 20.7314C417.214 20.1375 417.359 20.0177 417.942 20.0535C418.332 20.078 418.799 20.2089 418.98 20.3454C419.205 20.5143 419.311 20.478 419.314 20.2317C419.317 19.9471 419.373 19.9544 419.574 20.2643C419.791 20.5999 419.83 20.5876 419.834 20.1827C419.838 19.4313 420.362 19.9495 420.397 20.7417L420.429 21.4519L420.631 20.6602L420.832 19.8684L420.864 20.5786C420.907 21.5567 421.423 21.8117 421.423 20.8547C421.423 20.1234 421.475 20.0922 422.784 20.0324C423.674 19.9917 424.219 20.0895 424.363 20.315C424.541 20.5967 424.582 20.5972 424.585 20.3169C424.588 20.0514 425.339 19.9834 427.902 20.0164C429.724 20.0408 431.274 20 431.347 19.9262C431.575 19.6983 432.504 20.0461 432.508 20.3608C432.511 20.5601 432.582 20.5504 432.721 20.3323C432.86 20.1121 433.704 20.0016 435.289 19.9958C436.587 19.9918 438.48 19.9673 439.496 19.9441C440.512 19.9196 441.758 19.9114 442.266 19.9277C442.774 19.944 443.831 19.9645 444.614 19.9779C445.397 19.9902 446.185 20.1226 446.364 20.2715C446.595 20.4635 446.735 20.4252 446.844 20.1389C447.092 19.4922 447.446 19.6714 447.742 20.5941C447.945 21.2293 448.024 21.3062 448.044 20.8901C448.076 20.233 448.734 19.5797 448.974 19.9678C449.076 20.1333 449.438 20.1354 449.987 19.9719C450.457 19.8341 451.316 19.8002 451.896 19.8969C453.35 20.1391 454.661 20.0673 455.075 19.7232C455.331 19.5103 455.593 19.5462 456.073 19.861C456.574 20.1896 457.046 20.245 458.135 20.1035C458.912 20.0028 459.623 19.8034 459.716 19.6612C459.943 19.3117 460.456 19.6607 460.736 20.3547C460.918 20.8069 460.968 20.8281 460.982 20.4599C461.014 19.5823 461.788 19.9478 461.82 20.8559C461.837 21.3276 461.906 21.5043 461.973 21.2485C462.039 20.9929 462.204 20.8514 462.338 20.9341C462.472 21.0169 462.599 20.8106 462.619 20.4755C462.639 20.1294 462.738 20.3218 462.845 20.9218C463.025 21.9253 463.039 21.9383 463.132 21.1856C463.186 20.7502 463.294 24.4911 463.373 29.4989C463.47 35.6936 463.515 32.5301 463.515 19.6021C463.515 6.51707 463.471 3.4765 463.373 9.83727C463.294 14.9176 463.191 18.8368 463.143 18.5464C463.067 18.081 463.032 18.0966 462.854 18.6785L462.652 19.3383L462.37 18.6785C462.09 18.0265 462.087 18.0288 462.07 18.8767C462.05 19.8886 461.548 19.922 461.076 18.9428C460.821 18.4138 460.755 18.3806 460.746 18.7756C460.738 19.1568 460.585 19.2397 460.075 19.1422C459.712 19.0729 459.415 19.1014 459.415 19.2074C459.415 19.6217 457.005 19.7268 456.107 19.3517C455.505 19.1001 455.149 19.0655 455.036 19.2482C454.943 19.3986 454.525 19.4712 454.107 19.41C453.689 19.3484 453.347 19.4101 453.347 19.5466C453.347 19.6894 452.982 19.715 452.489 19.607C452.018 19.5038 451.158 19.4207 450.578 19.4227C449.999 19.4246 449.437 19.2877 449.329 19.1185C449.189 18.8992 449.132 18.9142 449.129 19.1711C449.126 19.4586 448.995 19.4459 448.48 19.1083C448.107 18.8645 447.768 18.7907 447.68 18.9346C447.595 19.072 447.367 19.123 447.172 19.0483C446.978 18.9737 446.758 19.0729 446.683 19.2665C446.582 19.5299 446.051 19.5968 444.605 19.5291C441.633 19.3896 439.322 19.4227 438.374 19.618C437.807 19.7346 437.517 19.6934 437.517 19.4957C437.517 19.1903 434.894 19.2669 434.375 19.5874C434.237 19.6734 434.044 19.6159 433.947 19.4569C433.849 19.2995 433.607 19.2335 433.408 19.3097C433.209 19.3864 432.927 19.2457 432.783 18.9978C432.55 18.5986 432.519 18.5962 432.512 18.9733C432.504 19.3354 432.096 19.4057 429.8 19.4373C428.312 19.4577 426.642 19.4849 426.088 19.4976C425.397 19.5139 424.964 19.3671 424.711 19.0337C424.397 18.6194 424.341 18.61 424.333 18.9705C424.329 19.2576 424.091 19.3913 423.6 19.3846C423.2 19.3805 422.689 19.4596 422.463 19.5631C422.21 19.6789 421.813 19.5427 421.433 19.2149C420.718 18.5941 420.464 18.5488 420.278 19.0082C420.177 19.2565 420.076 19.2406 419.871 18.9434C419.633 18.6013 419.548 18.616 419.229 19.0523C419.002 19.363 418.695 19.4919 418.427 19.389C418.189 19.2977 417.993 19.3377 417.993 19.478C417.993 19.966 417.447 19.7303 417.21 19.1399C417.066 18.7823 416.965 18.7074 416.955 18.9519C416.93 19.5201 415.888 19.5582 415.864 18.9927C415.848 18.6347 415.804 18.651 415.636 19.0751C415.485 19.4563 415.353 19.0547 415.163 17.6235L414.898 15.6442L414.862 17.5576C414.833 19.0312 414.739 19.4709 414.446 19.4709C414.237 19.4709 413.999 19.3629 413.917 19.2304C413.836 19.0983 413.562 19.0216 413.308 19.0604C413.001 19.1072 412.792 18.9018 412.681 18.443L412.514 17.7555L412.482 18.4656C412.445 19.3275 412.338 19.3997 410.818 19.6059C409.524 19.7816 409.357 19.5977 409.251 17.8874C409.222 17.4346 409.159 17.5408 409.049 18.2262C408.812 19.7027 408.383 19.4316 408.208 17.6946L408.054 16.1721L408.009 17.4413C407.981 18.2106 407.861 18.6462 407.701 18.5474C407.556 18.4577 407.438 18.5678 407.438 18.7957C407.438 19.0836 407.16 19.217 406.514 19.2401C404.978 19.2951 404.681 19.338 404.336 19.5578C403.967 19.7922 403.876 19.6026 403.602 18.0195L403.419 16.9638L403.093 18.2217C402.914 18.9135 402.696 19.5512 402.609 19.6387C402.336 19.9114 401.568 18.9465 401.359 18.0673L401.16 17.2277L401.106 18.1514C401.057 19.0101 401.038 19.0287 400.842 18.4153L400.63 17.7555L400.606 18.4373C400.59 18.8556 400.427 19.119 400.184 19.119C399.857 19.119 399.788 18.6324 399.787 16.3259C399.787 14.7897 399.698 11.2764 399.59 8.51846L399.392 3.50409L399.224 6.93498C399.132 8.82198 399.041 12.5036 399.023 15.1163C398.998 18.2912 398.904 19.7354 398.733 19.4709C398.592 19.2531 398.475 18.8078 398.473 18.4812C398.469 18.1546 398.35 17.8874 398.205 17.8874C398.06 17.8874 397.942 18.2535 397.942 18.7011C397.942 19.8025 397.332 19.5752 397.119 18.3941L396.956 17.4914L396.895 18.2831C396.834 19.063 396.831 19.065 396.634 18.4153L396.434 17.7555L396.232 18.497C396.102 18.9737 395.9 19.1887 395.666 19.0991C395.467 19.0224 395.303 19.051 395.303 19.1623C395.303 19.274 395.006 19.3649 394.644 19.3649C394.184 19.3649 393.984 19.2206 393.984 18.8899C393.984 18.2843 393.563 18.2771 393.214 18.8776C393.002 19.2417 392.942 19.2556 392.933 18.9437C392.925 18.6754 392.859 18.6452 392.727 18.8503C392.62 19.0167 392.065 19.1949 391.493 19.2463C390.572 19.329 390.431 19.2625 390.266 18.6799C390.083 18.0335 390.079 18.0325 390.053 18.6294C390.037 18.9645 389.908 19.1654 389.763 19.0757C389.618 18.986 389.499 19.0271 389.499 19.1674C389.499 19.3072 389.262 19.3599 388.971 19.284C388.63 19.1947 388.444 18.924 388.444 18.517C388.444 18.1708 388.325 17.8879 388.18 17.8879C388.035 17.8879 387.914 18.3333 387.912 18.8776C387.908 19.6138 387.842 19.7659 387.653 19.4714C387.512 19.2537 387.381 17.888 387.362 16.4364C387.305 12.2125 386.931 11.706 386.874 15.7767C386.824 19.2971 386.819 19.3269 386.414 18.2838C386.189 17.7032 385.919 16.0405 385.815 14.589L385.625 11.9499L385.565 15.1169C385.449 21.2408 384.833 20.0218 384.498 13.0055L384.309 9.04687L384.266 13.7313C384.237 16.6496 384.123 18.4157 383.959 18.4157C383.814 18.4157 383.683 18.2674 383.669 18.0859C383.652 17.9045 383.561 18.0492 383.46 18.4096C383.298 18.9914 383.135 19.0638 381.97 19.0694L380.661 19.0735L380.519 14.7189L380.377 10.3644L380.321 14.7541C380.269 18.861 380.232 19.1526 379.75 19.2786C379.467 19.3528 379.179 19.2776 379.111 19.1114C379.026 18.9067 378.896 18.937 378.706 19.2053C378.458 19.5571 378.426 19.5571 378.419 19.2053C378.415 18.9561 378.339 18.9137 378.217 19.091C378.002 19.4025 376.856 19.4116 376.361 19.1074C376.187 18.9997 376.044 19.0393 376.044 19.1954C376.044 19.553 374.397 19.4601 374.136 19.0874C374.029 18.9353 373.94 14.8027 373.938 9.90378C373.934 4.14435 373.84 0.996689 373.67 0.996689C373.499 0.996689 373.399 4.24199 373.387 10.1677C373.375 15.5331 373.275 19.1197 373.142 18.8109C372.943 18.348 372.913 18.375 372.896 19.0306C372.876 19.8999 372.374 19.8701 371.923 18.9723C371.7 18.531 371.591 18.4783 371.482 18.7611C371.397 18.9841 371.06 19.1077 370.657 19.0637C370.282 19.0225 369.976 19.1171 369.976 19.2736C369.976 19.8649 369.622 19.1725 369.437 18.2197L369.245 17.2271L369.216 18.303C369.188 19.3406 369.158 19.3749 368.403 19.264C367.972 19.2008 367.262 19.2722 366.826 19.4259C366.294 19.6114 365.977 19.6146 365.867 19.4381C365.777 19.2917 365.567 19.2232 365.4 19.2856C365.233 19.348 364.862 19.3142 364.575 19.213C364.252 19.0981 363.907 19.1722 363.669 19.4108C363.347 19.7329 363.24 19.7369 363.004 19.4352C362.699 19.0466 361.337 19.0915 360.835 19.5062C360.283 19.9629 359.165 18.6267 359.125 17.4621L359.088 16.4367L358.919 17.6243C358.686 19.2583 358.479 19.5457 357.828 19.1389C357.363 18.8486 357.306 18.4679 357.255 15.2516L357.197 11.6862L357.124 15.1171C357.042 18.9942 356.928 19.7357 356.414 19.7357C356.062 19.7357 355.381 18.5499 355.126 17.4924C355.052 17.1849 354.986 17.3655 354.968 17.9256C354.943 18.7186 354.822 18.9156 354.278 19.0523C353.915 19.1432 353.618 19.3414 353.618 19.4923C353.618 19.6432 353.499 19.6933 353.354 19.6036C353.209 19.5139 353.072 18.7053 353.049 17.8066L353.008 16.1727L352.827 17.4923C352.727 18.218 352.603 18.7525 352.551 18.6799C352.498 18.6073 352.387 14.5695 352.303 9.70686L352.15 0.865723L352.092 9.94876C352.06 14.9444 351.956 18.9529 351.86 18.8563C351.763 18.7597 351.603 17.5821 351.504 16.2392L351.323 13.7975L351.283 16.6038C351.246 19.1277 351.192 19.4234 350.738 19.5422C350.39 19.6331 350.169 19.499 350.027 19.1111C349.914 18.8012 349.751 14.8664 349.665 10.3666L349.51 2.18534L349.453 10.8285C349.416 16.3768 349.301 19.4717 349.132 19.4717C348.987 19.4717 348.868 19.3404 348.868 19.1793C348.868 19.0187 348.69 18.9555 348.473 19.0391C348.152 19.1622 348.068 18.9041 348.033 17.6818L347.988 16.1725L347.824 17.756C347.709 18.8646 347.595 19.201 347.444 18.8776C347.131 18.2051 346.758 18.3127 346.758 19.0754C346.758 19.8967 346.285 19.9451 346.113 19.1415C346.044 18.8149 345.936 18.3101 345.875 18.0198C345.799 17.661 345.748 17.7454 345.715 18.2836C345.672 18.9644 345.636 19.0014 345.451 18.5474C345.252 18.0595 345.221 18.0732 345.049 18.7292C344.887 19.3426 344.778 19.4074 344.249 19.2062C343.796 19.0337 343.598 19.0737 343.488 19.3599C343.366 19.68 343.248 19.6894 342.806 19.4133C342.439 19.1838 342.27 18.7915 342.264 18.1538C342.256 17.2822 342.232 17.2578 341.869 17.7399C341.655 18.0216 341.481 18.4749 341.481 18.7471C341.481 19.1312 341.319 19.2233 340.756 19.1585C340.046 19.0769 340.027 19.0284 339.881 16.9636L339.731 14.8524L339.683 17.3111L339.634 19.7698L338.919 19.6863C338.418 19.6275 338.15 19.4057 338.022 18.943C337.922 18.5801 337.824 18.4613 337.805 18.6791C337.777 18.9878 337.685 18.9621 337.383 18.5625C337.004 18.0619 336.996 18.0634 336.996 18.6286C336.996 19.6315 336.243 19.2981 336.067 18.2171C335.778 16.4485 335.738 16.4142 335.707 17.9093C335.671 19.5888 335.543 19.8227 334.851 19.4523C334.386 19.2035 334.354 18.6738 334.3 10.1585L334.242 1.12878L334.09 10.2338C334.006 15.2415 333.913 19.3773 333.883 19.4244C333.719 19.6858 330.988 19.3265 330.598 18.9925C330.179 18.6341 330.136 18.6492 330.136 19.1532C330.136 19.6935 330.099 19.6986 328.885 19.3326C328.197 19.1254 327.589 18.8208 327.534 18.6556C327.463 18.4427 327.374 18.4517 327.228 18.6882C327.116 18.8713 326.946 17.9675 326.852 16.6727C326.582 12.9731 326.526 12.8283 326.455 15.645C326.386 18.4078 326.205 19.4981 325.812 19.5098C325.269 19.5261 325.128 18.5883 325.071 14.5893L325.01 10.3667L324.859 14.8532C324.776 17.3208 324.664 18.746 324.61 18.0202L324.513 16.7006L324.356 18.0202C324.246 18.9477 324.082 19.3398 323.804 19.3398C323.586 19.3398 323.338 19.4348 323.252 19.5514C323.08 19.7855 321.678 19.2424 321.359 18.8175C321.23 18.6463 321.064 18.7033 320.904 18.9741C320.693 19.3308 320.054 19.4053 316.965 19.4332C314.937 19.4535 313.212 19.3594 313.131 19.2285C312.958 18.9471 311.382 19.1453 311.021 19.4939C310.662 19.8409 308.765 19.7957 308.765 19.4397C308.765 19.2313 308.652 19.2378 308.381 19.4641C308.077 19.7169 307.872 19.6961 307.399 19.3642C306.646 18.8368 305.892 18.8267 305.695 19.3398C305.532 19.7639 304.144 19.8926 303.905 19.5058C303.729 19.2195 301.114 19.2382 301.114 19.5261C301.114 19.9404 300.112 19.7255 299.936 19.2738C299.767 18.837 299.738 18.8379 299.406 19.2901C299.182 19.5946 298.991 19.6655 298.88 19.4857C298.698 19.1913 296.356 19.2839 295.492 19.6191C295.14 19.7561 294.976 19.6558 294.868 19.2423C294.787 18.9333 294.623 18.6802 294.503 18.6802C294.383 18.6802 294.24 18.1754 294.184 17.5586C294.099 16.6082 294.076 16.6735 294.037 17.9867C293.996 19.3071 293.934 19.4896 293.609 19.2193C293.399 19.0448 293.182 18.3474 293.129 17.6696L293.031 16.437L292.983 17.7664C292.942 18.8889 292.853 19.1019 292.408 19.1355C291.927 19.1721 291.876 18.9968 291.828 17.1463L291.775 15.1174L291.683 17.0849C291.633 18.1671 291.47 19.1986 291.322 19.377C290.907 19.8775 289.118 19.512 288.652 18.8315C288.522 18.641 288.457 18.6561 288.455 18.8779C288.451 19.0594 288.273 19.2078 288.055 19.2078C287.837 19.2078 287.659 19.3395 287.659 19.5002C287.659 19.8296 286.37 19.5931 285.956 19.1878C285.818 19.0525 285.626 18.3778 285.53 17.689L285.355 16.4366L285.318 17.9795L285.281 19.5225L282.907 19.3834C281.601 19.3068 280.532 19.3427 280.532 19.4666C280.532 19.589 280.206 19.6309 279.807 19.5596C279.408 19.4886 278.488 19.3879 277.762 19.3362C275.704 19.1898 275.52 19.1429 275.52 18.7677C275.52 18.574 275.401 18.4158 275.256 18.4158C275.111 18.4158 274.992 18.6078 274.992 18.8424C274.992 19.1454 274.816 19.2355 274.385 19.1527C274.05 19.0887 273.625 19.1988 273.44 19.3969C273.231 19.6212 272.887 19.6877 272.531 19.5727C272.216 19.4712 271.81 19.3868 271.628 19.3856C271.447 19.3846 271.299 19.2694 271.299 19.1307C271.299 18.9921 271.122 19.0251 270.906 19.2045C270.461 19.5739 270.341 19.3823 270.162 18.0195C270.071 17.3235 270.054 17.3483 270.019 18.2242C269.987 19.043 269.854 19.268 269.276 19.488C268.84 19.6539 268.514 19.6609 268.419 19.5084C268.334 19.3714 267.641 19.2099 266.88 19.1491C265.851 19.0672 265.494 19.1288 265.494 19.3877C265.494 19.861 265.249 19.8266 264.241 19.2115C263.535 18.7808 263.384 18.7585 263.384 19.0847C263.384 19.6396 261.809 19.5116 261.78 18.9547C261.768 18.6831 261.715 18.6582 261.626 18.8788C261.411 19.4116 260.748 19.2576 260.49 18.615L260.251 18.0212L260.235 18.615C260.215 19.2541 259.757 19.4249 259.544 18.8711C259.473 18.6856 259.315 17.4088 259.194 16.034L258.972 13.5345L258.935 16.0197C258.894 18.6885 258.726 18.9672 258.384 16.9252L258.169 15.6458L258.132 17.4932C258.108 18.7794 258.021 19.2203 257.845 18.9447C257.631 18.6087 257.53 18.6389 257.174 19.1437C256.839 19.6191 256.654 19.6845 256.254 19.4699C255.978 19.3223 255.603 19.2326 255.42 19.2709C255.224 19.3121 255.027 18.9635 254.937 18.4168C254.791 17.5228 254.778 17.5143 254.56 18.153C254.346 18.7762 254.322 18.7835 254.127 18.2851C253.959 17.8556 253.918 17.9157 253.903 18.6068C253.891 19.2342 253.785 19.418 253.503 19.31C253.294 19.2297 253.07 18.9663 253.006 18.7245C252.942 18.4827 252.876 18.6316 252.86 19.0548C252.819 20.0424 252.538 19.7596 252.291 18.4859L252.098 17.4933L252.033 18.549L251.968 19.6046L251.773 18.681C251.598 17.8501 251.576 17.8302 251.544 18.4832C251.516 19.0979 251.394 19.2089 250.754 19.2089C250.055 19.2089 249.986 19.1172 249.83 17.9845C249.738 17.3111 249.653 16.3313 249.642 15.8072C249.613 14.4352 249.464 15.0711 249.263 17.4416C249.07 19.7046 248.72 19.9754 248.193 18.2698L247.871 17.2296L247.843 18.2951C247.818 19.1611 247.716 19.368 247.287 19.4003C246.869 19.4329 246.751 19.2649 246.717 18.5988L246.675 17.7574L246.567 18.6466C246.461 19.5108 246.431 19.5312 245.487 19.3752C244.954 19.2868 244.311 19.2134 244.059 19.2117C243.634 19.208 243.595 18.5408 243.528 10.0378L243.455 0.86678L243.392 10.3018C243.352 16.3741 243.236 19.7367 243.066 19.7367C242.921 19.7367 242.803 19.618 242.803 19.4729C242.803 19.3277 242.624 19.209 242.407 19.209C242.109 19.209 242.003 18.8653 241.98 17.8235L241.948 16.4379L241.708 17.8826C241.577 18.6772 241.357 19.4393 241.22 19.5763C240.75 20.0459 239.815 19.341 239.483 18.267C239.167 17.246 239.162 17.2422 239.103 18.0215L239.045 18.8133L238.843 18.0215L238.642 17.2298L238.609 18.1871C238.567 19.4801 238.037 19.9048 237.002 19.4758C236.394 19.2238 236.18 18.9337 236.056 18.1901C235.798 16.6393 235.719 16.6166 235.697 18.0878C235.668 19.9684 235.159 19.8551 235.104 17.9556L235.059 16.4381L234.906 17.948C234.778 19.2032 234.685 19.4164 234.356 19.212C234.075 19.0371 233.917 18.2964 233.808 16.6464L233.656 14.3268L233.592 16.702C233.549 18.3083 233.454 18.9064 233.301 18.5494L233.074 18.0216L233.025 18.5494C232.992 18.9119 232.919 18.8292 232.796 18.2856L232.616 17.4939L232.286 18.4614C231.986 19.3404 231.891 19.4113 231.244 19.2364C230.852 19.1304 230.181 19.0758 229.753 19.1149C229.324 19.1557 228.82 19.0578 228.631 18.9013C228.379 18.6921 228.275 18.7129 228.237 18.9787C228.209 19.1781 228.113 18.0939 228.025 16.5698L227.864 13.7987L227.812 16.7678C227.784 18.4007 227.652 19.7368 227.519 19.7368C227.386 19.7368 227.235 19.6116 227.184 19.4583C227.133 19.3054 226.916 19.1533 226.701 19.1211C226.485 19.0885 226.174 18.9771 226.007 18.8731C225.836 18.7659 225.63 18.8813 225.532 19.1369C225.383 19.5251 225.323 19.5345 225.112 19.2014C224.912 18.8842 224.861 18.9094 224.836 19.3408C224.812 19.7809 224.771 19.759 224.594 19.2087C224.392 18.5758 224.382 18.5731 224.357 19.1427C224.328 19.8311 224.008 19.9064 223.536 19.3372C223.354 19.1174 223.017 18.969 222.787 19.0073C222.511 19.053 222.309 18.8067 222.194 18.285L222.018 17.4933L221.986 18.351C221.961 19.0224 221.84 19.2087 221.427 19.2087C221.137 19.2087 220.89 19.0603 220.878 18.8789C220.862 18.6448 220.816 18.6534 220.715 18.9074C220.594 19.2112 220.536 19.2112 220.344 18.9074C220.165 18.6257 220.115 18.6481 220.112 19.0098C220.108 19.6452 219.692 19.5885 219.199 18.885C218.839 18.3706 218.788 18.3579 218.788 18.7814C218.788 19.1133 218.658 19.2142 218.371 19.104C218.142 19.0159 217.845 18.9437 217.712 18.9437C217.578 18.9437 217.467 18.439 217.465 17.8221C217.464 17.2051 217.346 16.5223 217.206 16.3046C217.027 16.0273 216.949 16.4424 216.946 17.6902C216.944 18.6699 216.846 19.4715 216.729 19.4715C216.274 19.4715 215.655 18.7815 215.546 18.152C215.45 17.6037 215.425 17.6371 215.395 18.3502C215.351 19.3969 214.956 19.4725 214.705 18.4822L214.521 17.7565L214.214 18.4681C213.954 19.0726 213.843 19.1306 213.472 18.8534C213.233 18.674 212.981 18.2351 212.914 17.8779C212.844 17.502 212.778 17.7499 212.757 18.4662C212.724 19.586 212.664 19.6973 212.127 19.6334C211.801 19.5926 211.315 19.4662 211.049 19.348C210.782 19.2297 210.312 19.1204 210.005 19.1045C209.326 19.0678 209.104 18.3829 209.015 16.0407L208.95 14.3253L208.764 16.6482C208.662 17.9258 208.446 19.1035 208.284 19.2654C208.122 19.4272 207.659 19.5365 207.255 19.5079C206.851 19.4794 206.106 19.43 205.598 19.3978L204.674 19.3395L204.529 16.5684L204.383 13.7974L204.331 16.6344C204.302 18.1948 204.19 19.4813 204.081 19.4932C203.972 19.5054 203.565 19.5674 203.177 19.6314C202.788 19.6954 202.396 19.6273 202.304 19.4777C202.089 19.1307 200.822 19.1303 199.91 19.4769C199.407 19.6685 199.096 19.6592 198.838 19.4443C198.561 19.2147 198.474 19.2229 198.474 19.481C198.474 19.7044 198.291 19.6518 197.931 19.326C197.465 18.9047 197.352 18.8893 197.143 19.2192C197.009 19.4312 196.898 19.492 196.895 19.3538C196.893 19.216 196.749 19.2457 196.575 19.4198C196.131 19.8631 195.009 19.8141 194.305 19.3212C193.763 18.9416 193.609 18.9452 192.509 19.3656C191.811 19.6318 191.231 19.7236 191.13 19.5829C191.034 19.4496 190.777 19.3008 190.56 19.2527C189.813 19.0867 189.504 18.6137 189.504 17.6365C189.504 17.0979 189.415 16.5688 189.306 16.4608C189.197 16.3528 188.979 12.7999 188.822 8.56537L188.536 0.866345L188.492 9.37755C188.464 14.8465 188.354 17.8888 188.184 17.8888C188.039 17.8888 187.919 18.3341 187.917 18.8784C187.913 19.6146 187.847 19.7667 187.657 19.4722C187.516 19.2545 187.396 19.195 187.389 19.3401C187.38 19.4853 187.202 19.3728 186.989 19.0918C186.776 18.8101 186.602 18.7212 186.602 18.8941C186.602 19.0669 186.324 19.2084 185.986 19.2084C185.647 19.2084 185.281 19.2974 185.172 19.4062C185.063 19.5151 184.509 19.6044 183.941 19.6044C183.201 19.6044 182.907 19.4922 182.904 19.2084C182.902 18.976 182.82 18.9214 182.706 19.0763C182.599 19.2215 181.859 19.3512 181.061 19.3642C180.263 19.3765 179.165 19.5134 178.621 19.6663C177.78 19.9024 177.536 19.869 176.996 19.4445C176.23 18.8417 176.06 18.8323 175.089 19.3389C174.179 19.8136 173.651 19.835 172.768 19.4327C172.265 19.2032 171.64 19.2056 170.205 19.4409C168.784 19.6757 168.262 19.6786 168.122 19.4531C168.002 19.259 167.877 19.246 167.772 19.4164C167.67 19.582 167.239 19.5982 166.618 19.4588C164.306 18.9416 163.903 18.9242 163.745 19.3352C163.64 19.6105 163.224 19.7361 162.42 19.7361C161.504 19.7361 161.113 19.5897 160.627 19.0654C160.198 18.6026 159.968 18.5003 159.884 18.7355C159.817 18.9231 159.686 18.3044 159.594 17.3609C159.282 14.1625 159.242 14.059 159.184 16.3052C159.151 17.539 159.024 18.786 158.899 19.0763C158.774 19.3667 158.662 19.4854 158.649 19.3401C158.637 19.195 158.514 19.2541 158.375 19.4722C158.168 19.7984 158.03 19.8103 157.591 19.5383C157.298 19.3569 156.761 19.2084 156.396 19.2084H155.733L155.729 15.9755C155.725 13.7906 155.642 12.8708 155.469 13.1384C155.329 13.3561 155.195 14.9 155.172 16.5693C155.144 18.7048 155.075 19.2915 154.942 18.5486L154.753 17.493L154.716 18.5585C154.688 19.4171 154.577 19.6316 154.156 19.6633C153.869 19.6837 153.565 19.5916 153.481 19.4554C153.397 19.3196 153.098 19.2083 152.816 19.2083C152.469 19.2083 152.296 19.0175 152.278 18.6144C152.253 18.0501 152.241 18.0534 152.065 18.6805L151.879 19.3403L151.699 18.6805C151.601 18.3176 151.503 17.5457 151.483 16.9651C151.446 15.9825 151.424 16.019 151.142 17.4929C150.883 18.8455 150.753 19.0808 150.252 19.1063C149.823 19.1267 149.665 18.9868 149.662 18.5785C149.66 18.2719 149.543 17.8426 149.402 17.6248C149.213 17.3317 149.146 17.4935 149.143 18.2494C149.139 19.1389 149.071 19.2522 148.611 19.1319C148.321 19.0561 148.014 19.1074 147.928 19.2461C147.687 19.6359 147.029 18.9603 147.024 18.3185C147.02 17.891 146.964 17.8449 146.787 18.1252C146.6 18.4212 146.529 18.3951 146.426 17.9931C146.355 17.7179 146.284 17.9686 146.267 18.5486L146.234 19.6043H144.915C143.685 19.6043 143.596 19.5598 143.592 18.9444C143.588 18.466 143.525 18.3847 143.358 18.6485C143.231 18.8487 143.009 18.9392 142.865 18.8499C142.721 18.7606 142.296 18.9294 141.92 19.2246L141.238 19.7615L141.104 19.155C141.031 18.8215 140.926 18.1922 140.872 17.7567C140.793 17.1279 140.765 17.1863 140.734 18.0398L140.693 19.1145L138.524 19.0941C136.484 19.0738 136.335 19.0354 136.022 18.4152C135.838 18.0523 135.666 17.3398 135.639 16.8317C135.61 16.316 135.522 16.6658 135.437 17.6235C135.305 19.1091 135.214 19.3399 134.757 19.3457C133.621 19.362 133.336 18.9991 133.237 17.4232L133.142 15.908L133.092 17.5047C133.038 19.2251 132.667 19.9263 132.072 19.4323C131.88 19.2729 131.723 18.7342 131.723 18.2354C131.723 17.698 131.615 17.3949 131.459 17.4915C131.314 17.5812 131.195 17.9779 131.195 18.3729C131.195 18.9317 131.016 19.1589 130.389 19.3957C129.661 19.6705 129.56 19.644 129.35 19.1238C129.133 18.5832 129.117 18.5803 129.101 19.0749C129.085 19.5206 128.961 19.4589 128.293 18.6789L127.503 17.7552L127.503 18.5133C127.502 19.1175 127.43 19.2117 127.148 18.9774C126.953 18.816 126.716 18.7617 126.62 18.8572C126.525 18.9526 126.431 17.7343 126.412 16.1497C126.392 14.5652 126.296 10.5371 126.197 7.19865L126.016 1.12865L125.968 10.3152C125.939 15.7872 125.821 19.4415 125.678 19.3527C125.545 19.2707 125.386 19.3527 125.325 19.5349C125.237 19.7979 125.077 19.7934 124.553 19.5145C124.189 19.3208 123.494 19.2017 123.008 19.2507C122.257 19.3257 122.098 19.2426 121.938 18.6793C121.819 18.2593 121.741 18.1873 121.724 18.4816C121.708 18.7356 121.579 18.9434 121.434 18.9434C121.289 18.9434 121.153 19.1514 121.133 19.4053C121.113 19.6593 120.949 18.917 120.771 17.7558L120.445 15.6445L120.367 17.36L120.29 19.0754L120.115 17.4919L119.94 15.9084L119.837 17.228C119.78 17.9538 119.668 15.6973 119.588 12.2136L119.441 5.87972L119.383 11.8837C119.328 17.4675 119.195 18.4821 118.634 17.5754C118.502 17.3605 118.379 17.4225 118.241 17.7736C118.092 18.1556 118.026 18.0182 117.979 17.2282C117.927 16.3489 117.89 16.437 117.762 17.756C117.459 20.8873 116.212 19.1306 115.889 15.1169L115.719 13.0056L115.675 15.953C115.623 19.3756 115.516 19.8337 114.847 19.4759C114.59 19.3385 114.306 19.3014 114.214 19.3928C114.122 19.4845 114.022 18.1441 113.991 16.4144L113.935 13.2695L113.85 16.2557C113.768 19.1672 113.751 19.2398 113.181 19.1587C112.614 19.078 112.592 18.9533 112.454 15.1169L112.311 11.1581L112.256 14.7654C112.227 16.7494 112.128 18.5605 112.04 18.7901C111.849 19.2891 110.458 19.3577 110.265 18.8778C110.185 18.6808 110.123 18.7338 110.111 19.0098C110.086 19.5539 109.86 19.581 109.245 19.1134C108.91 18.8594 108.772 18.271 108.704 16.8125L108.612 14.8532L108.533 17.0964C108.477 18.6815 108.393 19.1461 108.243 18.6799C108.049 18.0729 108.03 18.094 108.002 18.9437C107.961 20.1494 107.477 19.4881 107.421 18.152L107.38 17.2283L107.186 18.152C107.028 18.9047 106.983 18.9535 106.945 18.4158C106.899 17.7667 106.893 17.7688 106.56 18.5479L106.222 19.3396L105.861 18.6798C105.663 18.3169 105.419 17.545 105.321 16.9645L105.142 15.9088L105.109 17.1452C105.089 17.8252 104.956 18.6977 104.809 19.0841C104.552 19.7612 104.487 19.7808 103.028 19.6266C102.195 19.5385 100.808 19.4052 99.9459 19.3298C99.0834 19.2547 98.3331 19.1483 98.2787 19.0941C98.2245 19.0398 98.0724 17.4825 97.9416 15.6338C97.8107 13.7852 97.6407 12.2099 97.5641 12.1333C97.4875 12.0566 97.4231 13.4685 97.4206 15.2709C97.4169 18.3273 97.1394 19.9416 96.7906 18.9362C96.7164 18.7226 96.6092 18.1915 96.5522 17.756C96.471 17.1368 96.4397 17.2053 96.4091 18.0704C96.3594 19.4667 95.939 19.758 95.6118 18.6232L95.3619 17.756L95.3375 18.6161C95.313 19.4285 95.2808 19.4577 94.7201 19.1439C94.3936 18.9612 94.0392 18.693 93.9326 18.5478C93.8258 18.4027 93.7353 18.5193 93.7308 18.8116C93.7227 19.2494 93.679 19.272 93.4671 18.9438C93.2604 18.6237 93.2107 18.6616 93.2074 19.1415C93.2034 19.9728 91.8202 19.9779 91.2396 19.1496C91.0138 18.8271 90.8289 18.7161 90.8289 18.9034C90.8289 19.1187 90.5627 19.2129 90.1033 19.1603C89.5419 19.0954 89.3066 18.8679 89.0629 18.153L88.7478 17.2293L88.7315 17.9991C88.7112 18.994 88.4242 18.6976 88.1783 17.4302L87.9859 16.4376L87.9182 17.7572L87.8505 19.0767L87.6614 18.0211L87.4723 16.9654L87.4356 18.2513C87.403 19.3114 87.3345 19.4842 87.0345 19.2354C86.7496 18.9989 86.642 19.045 86.536 19.4499C86.4382 19.8242 86.2478 19.9262 85.8442 19.8206C85.5381 19.7407 85.2874 19.5107 85.2874 19.3098C85.2874 19.1092 85.1455 18.9742 84.9723 19.0105C84.5961 19.0892 84.3239 18.0241 84.2142 16.0415C84.1416 14.736 84.1172 14.8158 83.9684 16.8332C83.8416 18.5505 83.7911 18.7552 83.7536 17.7065C83.6867 15.8455 83.1903 15.6108 83.1292 17.4113C83.086 18.687 83.0665 18.6353 82.9128 16.8331L82.744 14.8538L82.6963 16.8775C82.6311 19.6589 82.528 19.874 81.5844 19.2018C81.1744 18.9099 80.7731 18.7777 80.6925 18.9083C80.6118 19.0388 80.2771 19.2039 79.9484 19.2748C79.6199 19.3462 79.1431 19.4918 78.8892 19.5986C78.601 19.7201 78.4275 19.6756 78.4275 19.4819C78.4275 19.3111 78.2494 18.9928 78.0317 18.7751C77.6799 18.4232 77.6359 18.4432 77.6359 18.957C77.6359 19.427 77.5254 19.5048 77.0423 19.3752C76.7158 19.2876 76.3002 19.2146 76.1189 19.2125C75.8816 19.2088 75.7736 18.4867 75.7341 16.6358L75.6786 14.0627L75.5922 16.6454C75.5396 18.2135 75.4059 19.1664 75.2514 19.0711C75.1116 18.9846 74.9975 19.0295 74.9975 19.1705C74.9975 19.5742 73.3425 19.2072 72.9683 18.7228C72.6626 18.3256 72.6161 18.3407 72.4639 18.8822C72.1195 20.107 70.1242 20.0168 69.416 18.7448C68.9872 17.9746 68.9292 17.0326 68.8632 9.77175L68.7895 1.65917L68.6929 10.3683C68.6395 15.1583 68.5086 18.6618 68.4018 18.1538L68.2074 17.2301L68.1707 18.2197C68.134 19.2179 67.9958 19.3417 67.2342 19.0493C66.9651 18.9461 66.8168 18.5653 66.8168 17.978C66.8168 17.4378 66.7096 17.1334 66.5531 17.2301C66.408 17.3198 66.2894 17.8401 66.2894 18.3863V19.3794L64.2447 19.3264C63.1201 19.2979 61.983 19.3867 61.7177 19.5257C61.4018 19.6909 60.6085 19.666 59.419 19.4532C58.2788 19.2493 57.4762 19.22 57.263 19.3745C57.0759 19.5099 55.7984 19.5579 54.4169 19.4809C53.0384 19.4038 51.5992 19.4524 51.2186 19.5845C50.6934 19.7688 50.2486 19.6958 49.3718 19.2811C48.6086 18.9198 48.1122 18.82 47.9084 18.9867C47.6997 19.1571 47.5101 19.085 47.3228 18.7625C47.0851 18.3538 47.0444 18.3471 47.0374 18.7156C47.0252 19.2811 46.2475 19.9693 46.2171 19.44C46.2008 19.1758 46.1604 19.1664 46.0638 19.4074C45.9036 19.8037 45.1951 19.1986 45.1616 18.6368C45.1453 18.3706 45.1094 18.3665 45.0075 18.6164C44.9345 18.7979 44.6696 18.9463 44.4192 18.9463C44.1689 18.9463 43.7334 19.1208 43.4518 19.3337C42.8497 19.7892 41.3336 19.8637 41.0781 19.4503C40.9595 19.2582 40.2969 19.2231 39.0838 19.3451C37.8267 19.4715 37.2673 19.4381 37.2673 19.2371C37.2673 19.0772 37.1482 18.9463 37.0035 18.9463C36.8584 18.9463 36.7398 19.1245 36.7398 19.3423C36.7398 19.767 36.0728 19.8892 35.837 19.5074C35.6634 19.2264 33.5703 19.2656 33.1121 19.5583C32.9307 19.6741 32.7656 19.6729 32.7452 19.5546C32.7249 19.4372 32.6287 15.8376 32.5317 11.5556L32.3552 3.77013L32.305 11.7535C32.2765 16.1444 32.184 19.7369 32.0975 19.7369C31.5762 19.7369 30.405 18.748 30.3893 18.2945C30.369 17.7613 30.369 17.7612 30.1439 18.2863C29.9715 18.6875 29.9026 18.4979 29.8566 17.4946C29.8003 16.2786 29.7836 16.2476 29.6401 17.0987C29.5545 17.6067 29.4212 15.766 29.3438 13.008L29.2032 7.99366L29.1461 13.3568C29.1017 17.5071 29.0067 18.8023 28.7246 19.0843C28.5241 19.2849 28.2868 19.375 28.197 19.2853C28.1073 19.1956 28.0335 19.2609 28.0335 19.4297C28.0335 19.5989 27.9149 19.7375 27.7698 19.7375C27.6112 19.7375 27.4848 18.4488 27.4535 16.5046L27.4009 13.2716L27.2558 16.2854C27.1559 18.3537 27.0071 19.3335 26.7808 19.4084C26.5994 19.4683 26.451 19.4166 26.451 19.2906C26.451 19.1658 25.9761 19.1087 25.3957 19.1646C24.3734 19.262 24.3404 19.24 24.3404 18.4614C24.3404 18.0192 24.2213 17.5841 24.0766 17.4944C23.9221 17.3989 23.8129 17.6738 23.8129 18.1575C23.8129 19.0429 23.4338 19.5585 22.6916 19.6832C22.3076 19.7476 22.2299 19.5564 22.2299 18.546C22.2299 17.8033 22.1275 17.3946 21.9661 17.4944C21.821 17.5841 21.7024 18.0137 21.7024 18.4492C21.7024 18.9098 21.5919 19.1727 21.4387 19.0778C21.2936 18.9881 21.1749 19.0493 21.1749 19.2177C21.1749 19.5541 18.3288 19.3714 17.9693 19.0118C17.8576 18.9 17.7271 17.6819 17.6786 16.3043L17.5906 13.7996L17.5172 16.4387C17.4683 18.2006 17.3684 18.9024 17.2172 18.5501C17.0065 18.0599 16.9889 18.0678 16.9718 18.6601C16.9637 19.0108 16.8642 19.2094 16.7554 19.1012C16.6465 18.9932 16.4896 17.7559 16.4065 16.3521L16.2556 13.7997L16.19 16.1749C16.1456 17.7822 16.051 18.3795 15.8977 18.0223C15.7106 17.5864 15.665 17.6553 15.6356 18.4182C15.603 19.3197 15.5937 19.326 15.3132 18.6821C15.0695 18.1224 15.0087 18.0945 14.9121 18.4985C14.8494 18.7607 14.6598 18.9283 14.4906 18.8712C14.3214 18.8141 13.7793 18.9936 13.286 19.27C12.3934 19.7702 11.9652 19.6252 11.9404 18.8136C11.9367 18.6684 11.8324 18.7076 11.7097 18.9005C11.5833 19.0998 11.1577 19.214 10.7244 19.1643L9.96155 19.0774L9.8144 16.5703C9.67418 14.1844 9.66276 14.146 9.5792 15.7785C9.49686 17.3879 9.47973 17.4287 9.30242 16.4383C9.14019 15.5327 9.10799 15.6546 9.07619 17.296L9.03951 19.2094H8.11609H7.19267L7.15599 17.428C7.11931 15.6876 7.07609 15.7676 6.77282 18.1109C6.62934 19.2216 6.60978 19.2419 6.11676 18.7957C5.83714 18.5429 5.60875 18.0643 5.60875 17.7325C5.60875 17.4006 5.48972 17.0558 5.34501 16.9661C5.18563 16.8674 5.08128 17.2324 5.08128 17.8898C5.08128 18.5472 4.97694 18.9121 4.81756 18.8135C4.67245 18.7238 4.52814 18.8054 4.49716 18.9958C4.46455 19.1858 4.37284 17.2629 4.28969 14.7227L4.13887 10.1042L4.08221 14.7008C4.02637 19.2423 3.78424 20.3164 3.47233 17.4073L3.31174 15.9103L3.27097 17.3114C3.24651 18.1697 3.12993 18.6494 2.96851 18.5495C2.8234 18.4598 2.69092 18.6013 2.67421 18.8639C2.64568 19.3051 2.63346 19.3063 2.52299 18.8802C2.45655 18.6262 2.30084 18.4183 2.17733 18.4183C2.05341 18.4183 1.8977 18.6263 1.83166 18.8802C1.75585 19.1709 1.6996 19.0788 1.68045 18.6319C1.64376 17.7707 1.12216 17.3515 1.12216 18.1828C1.12216 18.5057 1.0333 18.6813 0.924463 18.5726C0.815629 18.4638 0.663179 14.3766 0.586139 9.4896C0.49524 3.7475 0.447555 7.32631 0.450408 19.6059C0.454158 30.0569 0.487094 34.5148 0.528264 29.5124C0.572694 23.9853 0.703534 20.3148 0.86169 20.1566L0.878935 20.1512Z" fill="black"/>
</svg>
