<svg width="464" height="38" viewBox="0 0 464 38" fill="none" xmlns="http://www.w3.org/2000/svg">
<path d="M43.5838 32.9726C43.6246 29.823 43.6698 29.337 43.7746 30.9428L43.9119 33.0541L44.0644 30.0191C44.203 27.2585 44.2217 27.4434 44.2694 32.0645C44.2979 35.005 44.4259 37.1448 44.569 37.1448C44.805 37.1448 44.9 35.941 45.2603 28.3674C45.3524 26.4309 45.5237 25.0639 45.6627 25.15C45.7959 25.2325 45.9207 24.8475 45.9398 24.2946L45.9765 23.2893L46.1709 24.213C46.3389 25.0108 46.3744 24.9028 46.4306 23.4213C46.4966 21.6875 46.5321 21.6941 46.8264 23.4946C47.0693 24.9832 47.4865 24.4111 47.5165 22.548C47.5329 21.6493 47.6307 20.6172 47.7383 20.2543C47.9054 19.6897 47.9731 19.8038 48.2083 21.046L48.4831 22.4976L48.5157 21.1276C48.5483 19.7587 48.9269 19.0428 49.156 19.9212C49.2444 20.2616 49.2966 20.2095 49.3492 19.7267C49.3912 19.341 49.4964 19.615 49.6023 20.3865L49.7833 21.706L49.8249 20.4607C49.8575 19.4721 49.948 19.2467 50.2621 19.3673C50.4798 19.4509 50.6579 19.3877 50.6579 19.227C50.6579 18.7016 51.4612 18.9208 51.6773 19.5051C51.8623 20.0053 51.9092 20.0199 52.0613 19.6238C52.2202 19.209 52.281 19.2155 52.8053 19.7041C53.426 20.2826 53.8061 20.2134 53.8551 19.5129C53.8714 19.2674 53.9769 19.4228 54.0878 19.8582C54.2566 20.5219 54.2945 20.5514 54.3206 20.0405C54.3369 19.7053 54.4706 19.5045 54.6157 19.5942C54.7608 19.6839 54.8994 19.6024 54.9238 19.4119C54.9483 19.2219 55.0469 19.7789 55.1435 20.65L55.3184 22.2334L55.3938 20.518C55.4554 19.1246 55.5071 18.9512 55.6706 19.5943C55.8499 20.2984 55.8756 20.3155 55.9034 19.7481C55.9197 19.3974 56.0126 19.1884 56.1084 19.2839C56.2042 19.3793 56.4606 19.3084 56.679 19.1298C56.9953 18.8688 57.0985 18.8696 57.1875 19.1337C57.2486 19.316 57.4076 19.398 57.5405 19.316C57.6734 19.2341 57.7956 19.6785 57.8124 20.3041C57.8287 20.9295 57.8931 21.2037 57.9546 20.9134C58.0157 20.6231 58.1221 20.1226 58.1906 19.8011C58.2726 19.4154 58.4486 19.2679 58.708 19.3675C58.924 19.4503 59.101 19.3797 59.101 19.2073C59.101 18.9912 59.7642 18.9063 61.2776 18.9292C64.6059 18.9793 69.708 19.0067 70.4458 18.9781C70.8086 18.9659 73.4795 18.9373 76.3812 18.9218C79.6783 18.9014 81.7839 18.7856 81.9954 18.6099C82.2355 18.4105 82.524 18.4154 82.9881 18.6262C83.951 19.0651 87.3377 19.0859 87.6041 18.6548C87.7782 18.3734 88.0085 18.3693 88.828 18.6344C89.3832 18.8134 90.1937 18.963 90.629 18.9675C91.9682 18.9797 98.2486 18.9757 98.8078 18.9594C102.643 18.8607 108.583 19.0054 108.704 19.2007C108.788 19.3381 109.059 19.2171 109.305 18.928C109.8 18.349 110.167 18.2666 110.421 18.6772C110.529 18.8513 112.407 18.9292 115.647 18.8949C119.196 18.8582 120.883 18.9365 121.3 19.1604C121.718 19.3854 121.893 19.3936 121.893 19.1889C121.893 18.985 123.004 18.9198 125.556 18.9736C128.317 19.0319 129.324 18.9655 129.644 18.6984C130.001 18.402 130.217 18.4162 130.997 18.7865C131.507 19.0287 132.049 19.1502 132.201 19.0564C132.353 18.9626 137.724 18.9031 144.136 18.9247C150.549 18.9451 156.211 18.941 156.719 18.9084C157.227 18.8798 157.88 18.8562 158.17 18.8578C159.572 18.866 170.389 18.8823 170.966 18.8782C172.483 18.866 174.918 18.9027 176.77 18.9667C177.859 19.0034 179.135 19.0124 179.607 18.9871C181.539 18.8794 182.002 18.8774 183.96 18.9667C185.096 19.0185 186.006 19.1783 186.009 19.3267C186.01 19.4735 186.102 19.4535 186.21 19.2823C186.434 18.93 189.116 18.799 190.426 19.076C190.953 19.1877 191.429 19.1396 191.655 18.9516C191.896 18.7514 192.486 18.7061 193.353 18.8215C194.599 18.9867 194.689 19.0499 194.782 19.8235L194.882 20.6491L195.095 19.7816L195.309 18.9141L197.516 18.9578C199.564 18.9985 199.726 19.0418 199.76 19.5613L199.796 20.1214L199.907 19.5556C199.977 19.1952 200.272 18.9411 200.719 18.8556C201.64 18.6794 203.235 18.9388 203.48 19.3045C203.616 19.5072 203.675 19.4994 203.678 19.28C203.682 18.8407 219.016 18.854 219.334 19.2923C219.495 19.5137 219.587 19.5059 219.686 19.2637C219.76 19.0823 220.107 18.9339 220.457 18.9339C220.808 18.9339 221.104 19.0823 221.116 19.2637C221.132 19.5275 221.163 19.5275 221.27 19.2637C221.462 18.7863 222.08 18.8588 222.393 19.3958C222.64 19.8207 222.663 19.8155 222.678 19.3298C222.694 18.8089 222.699 18.8087 223.082 19.3135C223.372 19.6968 223.48 19.73 223.511 19.4456C223.535 19.2364 223.634 19.6592 223.733 20.3848L223.914 21.7044L223.956 20.479C223.985 19.6623 224.129 19.203 224.393 19.1018C224.711 18.9799 224.797 19.2208 224.829 20.3271L224.869 21.7044L225.028 20.5405C225.141 19.7077 225.317 19.3578 225.648 19.3103C226.058 19.2512 226.114 19.5293 226.151 21.7937L226.192 24.3435L226.365 21.6447C226.534 18.9859 226.868 17.7227 226.936 19.4831C226.956 19.9791 227.053 21.7506 227.154 23.4198L227.337 26.4548L227.383 24.1824C227.445 21.1172 227.713 19.1822 227.981 19.8683C228.151 20.3025 228.186 20.3125 228.202 19.9311C228.214 19.6396 228.362 19.5319 228.616 19.6294C228.905 19.7403 229.012 19.5968 229.012 19.0933C229.012 18.3182 229.314 18.2175 229.895 18.7989C230.193 19.0969 230.32 19.1132 230.421 18.8649C230.493 18.6847 230.587 19.8437 230.629 21.4404L230.705 24.3435L230.792 21.8363L230.878 19.3291L232.583 18.9203C233.521 18.6956 234.289 18.6063 234.289 18.7225C234.289 18.8383 237.91 18.9333 242.335 18.9333C247.707 18.9333 250.382 18.8424 250.382 18.6602C250.382 18.4718 250.541 18.4718 250.893 18.6602C251.174 18.8106 251.767 18.9333 252.212 18.9333C252.911 18.9333 253.025 19.032 253.051 19.6591C253.076 20.2076 253.113 20.256 253.209 19.8569C253.278 19.5666 253.433 19.2261 253.552 19.1003C253.671 18.9743 256.242 18.8923 259.265 18.918C262.288 18.9425 264.939 18.9596 265.157 18.9547C265.374 18.9506 266.621 18.9506 267.927 18.9586C269.233 18.9668 270.598 18.9749 270.961 18.9708C276.475 18.9464 281.698 18.9464 285.289 18.9748C288.308 18.9993 289.819 18.9141 290.025 18.7086C290.46 18.2736 290.835 18.3342 291.49 18.945C291.808 19.2411 292.068 19.3671 292.068 19.2252C292.068 19.0833 292.276 18.972 292.529 18.9773C292.783 18.9813 298.156 18.9813 304.468 18.9752C310.78 18.9711 316.241 18.9753 316.604 18.9874C316.967 18.9996 317.561 18.9752 317.923 18.9307C318.286 18.8855 319.029 18.9389 319.575 19.0522C320.236 19.188 320.695 19.1501 320.949 18.9389C321.194 18.7358 321.644 18.691 322.2 18.8141C322.677 18.9197 324.285 18.989 325.772 18.9678C327.627 18.9434 328.477 19.0229 328.477 19.2272C328.477 19.4392 328.587 19.4331 328.859 19.2068C329.106 19.0025 330.21 18.894 331.959 18.903C333.454 18.9112 335.033 18.901 335.468 18.8826C337.647 18.7856 343.779 19.0302 343.779 19.2137C343.779 19.4592 345.209 19.0906 346.131 18.6072C346.628 18.3467 346.791 18.3442 346.876 18.595C346.935 18.772 347.39 18.993 347.888 19.0862L348.792 19.2558L348.837 22.0635L348.882 24.8713L349.067 21.9682C349.169 20.3715 349.268 19.0426 349.286 19.015C349.306 18.9864 349.646 18.9905 350.045 19.0272C350.444 19.0598 350.899 18.9192 351.056 18.7124C351.301 18.3907 351.444 18.4038 352.05 18.8005C352.669 19.2062 352.904 19.2235 353.92 18.9387C354.559 18.7597 355.188 18.679 355.318 18.7589C355.579 18.9204 355.777 18.9257 362.907 18.9591C365.664 18.9713 368.038 18.9917 368.184 18.9999C368.329 19.008 368.715 18.931 369.041 18.8258C369.508 18.6753 369.636 18.7365 369.639 19.1141C369.642 19.4329 369.71 19.4884 369.843 19.2792C370.113 18.854 374.188 18.7417 374.326 19.1556C374.4 19.3787 374.569 19.3811 374.972 19.1638C375.442 18.9122 376.646 18.8682 380.282 18.9705C380.696 18.9828 381.305 18.8474 381.634 18.6712C382.078 18.4335 382.373 18.4258 382.776 18.6427C383.476 19.0178 385.937 19.0174 387.014 18.6419C387.664 18.4152 387.944 18.4287 388.275 18.7027C388.814 19.1501 391.635 19.1088 392.51 18.6407C393.034 18.3602 393.248 18.3614 393.707 18.6489C394.067 18.8739 394.974 18.9779 396.263 18.9416C398.859 18.8686 404.493 18.8515 406.175 18.9131C406.901 18.9375 409.425 18.9375 411.784 18.9049C414.143 18.8764 416.131 18.9088 416.203 18.9812C416.403 19.1806 418.808 18.9249 419.064 18.677C419.187 18.5571 419.662 18.5681 420.119 18.7015C420.576 18.8348 422.048 18.949 423.39 18.9547C425.095 18.9628 425.832 19.0603 425.835 19.2796C425.838 19.4892 425.915 19.4741 426.067 19.2344C426.214 19.0024 426.751 18.8866 427.58 18.9082C428.287 18.9286 429.162 18.9367 429.525 18.9286C432.736 18.8584 434.945 18.9706 435.024 19.2075C435.086 19.3938 435.241 19.3824 435.493 19.1708C435.716 18.9861 436.649 18.8707 437.776 18.889C438.824 18.9053 440.978 18.9176 442.563 18.9176C444.483 18.9155 445.507 19.0179 445.634 19.2238C445.764 19.4338 445.922 19.3522 446.127 18.9698C446.411 18.4389 446.466 18.4306 447.07 18.8266C447.74 19.2655 449.609 19.1883 450.205 18.6974C450.386 18.5481 450.783 18.5722 451.239 18.7606C451.728 18.9624 453.026 19.0191 455.065 18.9282C456.762 18.8523 458.491 18.8776 458.907 18.9848C459.323 19.0917 460.25 19.0533 460.966 18.9C461.683 18.7463 462.558 18.6933 462.911 18.7818L463.552 18.9428L463.625 28.2416C463.666 33.356 463.698 28.9896 463.698 18.5386C463.698 8.08763 463.666 3.75286 463.626 8.90577L463.553 18.2747L462.171 18.3277C460.029 18.4097 456.705 18.4557 453.27 18.4513C452.907 18.4507 452.003 18.3665 451.261 18.2641C450.36 18.1397 449.851 18.1764 449.728 18.3742C449.502 18.7412 447.466 18.7705 447.466 18.4068C447.466 18.2617 447.182 18.143 446.834 18.143C446.48 18.143 446.121 17.9404 446.016 17.6812C445.852 17.2746 445.801 17.2934 445.592 17.8361C445.378 18.3942 445.248 18.4356 444.234 18.2695C443.617 18.1688 443.053 18.0697 442.981 18.0494C442.908 18.029 442.337 18.1823 441.712 18.389C440.816 18.6854 440.396 18.7009 439.733 18.462C439.27 18.2952 438.145 18.1965 437.233 18.2422C436.321 18.2883 435.505 18.2137 435.419 18.0738C435.327 17.9238 435.186 17.9466 435.073 18.1301C434.968 18.2997 434.479 18.4285 433.985 18.4171C431.206 18.3527 430.635 18.3698 429.852 18.5419C429.308 18.6614 428.853 18.6149 428.612 18.4151C428.403 18.2414 427.805 18.1362 427.283 18.1815C426.66 18.2353 426.248 18.1289 426.086 17.8728C425.878 17.5437 425.839 17.5552 425.835 17.9442C425.833 18.1982 425.624 18.4197 425.37 18.4364C424.495 18.4939 423.852 18.3548 423.755 18.0869C423.692 17.9132 423.594 17.9206 423.478 18.1073C423.257 18.4649 421.912 18.5314 420.129 18.2721C419.219 18.1399 418.72 18.1726 418.596 18.3724C418.34 18.7871 416.873 18.7438 416.71 18.3165C416.598 18.0258 416.269 18.0217 414.826 18.292C413.864 18.4727 412.831 18.5355 412.529 18.4307C412.227 18.3263 410.793 18.2888 409.342 18.3475C405.667 18.4959 405.505 18.4947 404.412 18.3108C403.876 18.2211 402.82 18.2647 402.065 18.4082C401.21 18.5705 400.578 18.5754 400.393 18.4205C400.228 18.2831 399.219 18.2431 398.123 18.3304C397.038 18.4164 395.675 18.4617 395.095 18.4303C394.515 18.3976 393.446 18.3866 392.721 18.4017C389.819 18.4657 388.985 18.4425 388.013 18.2615C387.37 18.1428 386.778 18.193 386.394 18.3989C386.002 18.608 385.333 18.6619 384.505 18.5497C383.8 18.4543 382.748 18.3846 382.167 18.3948C380.908 18.4193 378.965 18.3866 377.154 18.3194C376.429 18.2908 375.568 18.3662 375.242 18.4849C374.765 18.6582 374.647 18.606 374.644 18.2211C374.64 17.9467 374.557 17.8574 374.446 18.0119C374.134 18.4476 370.173 18.3149 369.885 17.859C369.752 17.649 369.642 17.6066 369.639 17.7648C369.631 18.3107 368.469 18.5928 367.006 18.4035C366.212 18.3008 364.787 18.2673 363.84 18.3293C362.892 18.3909 361.938 18.4345 361.72 18.4255C361.503 18.4174 360.494 18.3705 359.478 18.3228C358.444 18.2743 357.553 18.3513 357.454 18.4985C357.338 18.6702 356.917 18.6535 356.236 18.4492C355.066 18.0985 353.986 18.0447 353.708 18.3232C353.395 18.6359 352.272 18.6946 352.095 18.4076C352.003 18.2588 351.697 18.1373 351.415 18.1373C351.134 18.1373 350.9 17.9888 350.895 17.8074C350.892 17.6243 350.768 17.683 350.619 17.9395C350.231 18.6051 349.359 18.5243 349.194 17.8074C349.119 17.4808 349.022 16.2041 348.979 14.9703C348.908 12.9374 348.895 13.0055 348.847 15.696C348.798 18.4055 348.749 18.6651 348.297 18.6651C348.025 18.6651 347.658 18.4914 347.482 18.2794C347.119 17.8416 345.039 17.9038 344.478 18.3695C344.245 18.5632 343.869 18.5623 343.231 18.3665C342.609 18.1753 341.565 18.1663 339.949 18.3379C338.448 18.4978 337.4 18.4978 337.089 18.3388C336.819 18.2005 336.107 18.161 335.506 18.2511C334.905 18.3412 334.176 18.4105 333.886 18.4048C333.596 18.4008 331.34 18.3543 328.873 18.3053C326.407 18.256 324.094 18.3257 323.734 18.457C323.302 18.6164 323.048 18.603 322.987 18.4162C322.859 18.0338 321.277 18.0623 320.398 18.4627C319.888 18.6951 319.653 18.7053 319.584 18.4994C319.523 18.3163 318.87 18.2393 317.821 18.2919C316.904 18.3379 315.81 18.2837 315.39 18.1683C314.944 18.0472 314.132 18.0896 313.439 18.2703C312.786 18.4403 312.014 18.5447 311.724 18.5023C311.434 18.4599 310.658 18.3477 310 18.2531C309.342 18.1585 308.392 18.1928 307.889 18.3298C307.387 18.4664 306.624 18.4827 306.194 18.3665C305.714 18.2356 305.349 18.2576 305.247 18.424C305.134 18.6071 304.7 18.5985 303.904 18.3995C303.116 18.2014 302.153 18.1802 300.99 18.3363C300.034 18.4644 299.023 18.4843 298.743 18.3808C298.181 18.1728 294.942 18.2744 293.19 18.5549C292.573 18.6536 292.069 18.6303 292.068 18.5031C292.068 18.1361 290.448 18.0958 289.373 18.4358C288.677 18.656 288.294 18.6646 288.054 18.4644C287.85 18.2951 286.487 18.2018 284.615 18.2295C282.677 18.258 281.514 18.1757 281.511 18.0089C281.508 17.8625 281.406 17.9017 281.283 18.0966C281.119 18.3551 280.391 18.4432 278.583 18.4224C277.221 18.406 275.81 18.406 275.447 18.4183C275.085 18.4305 273.957 18.4142 272.941 18.3816C271.925 18.349 270.769 18.3897 270.373 18.4774C269.976 18.563 269.593 18.5386 269.521 18.4224C269.351 18.1475 266.545 18.0827 266.38 18.3498C266.207 18.6295 264.696 18.7257 264.536 18.4676C264.466 18.353 261.979 18.2829 259.009 18.3115C253.707 18.3624 253.606 18.353 253.334 17.7908C253.068 17.2412 253.056 17.2473 253.039 17.9441C253.023 18.5234 252.897 18.6699 252.406 18.6699C252.067 18.6699 251.713 18.5932 251.62 18.499C251.393 18.2723 233.076 18.3196 231.998 18.5496C231.203 18.7192 231.15 18.6813 231.007 17.8416C230.924 17.3537 230.821 16.1231 230.778 15.107C230.706 13.4286 230.694 13.4797 230.648 15.6648C230.598 17.9776 230.573 18.0688 230.002 18.04C229.56 18.0196 229.387 17.8247 229.325 17.2843C229.197 16.168 228.749 16.4243 228.749 17.6142C228.749 18.7062 228.242 19.1292 228.195 18.076C228.171 17.5063 228.158 17.509 227.957 18.1421C227.748 18.7953 227.745 18.794 227.688 18.01C227.655 17.5745 227.546 15.5556 227.443 13.5234L227.258 9.82861L227.208 13.2595C227.18 15.1465 227.081 16.9809 226.986 17.336C226.826 17.934 226.799 17.9437 226.612 17.4682C226.502 17.1856 226.384 16.5982 226.351 16.1627C226.307 15.5775 226.251 15.6961 226.135 16.6172C225.939 18.1794 225.364 17.9844 225.102 16.2666L224.925 15.1069L224.792 16.5584C224.657 18.0427 224.267 18.3896 223.96 17.2997C223.799 16.7269 223.787 16.7339 223.762 17.416C223.742 17.957 223.602 18.1417 223.209 18.1417C222.918 18.1417 222.681 18.0084 222.681 17.8457C222.681 17.6398 222.561 17.6488 222.288 17.8743C222.073 18.0533 221.72 18.1324 221.505 18.05C221.29 17.9676 221.044 18.0133 220.959 18.1524C220.769 18.4602 219.857 18.4879 219.735 18.189C219.686 18.0708 218.635 18.0549 217.399 18.1524C216.164 18.251 213.023 18.3008 210.42 18.2624C207.817 18.2257 205.416 18.2951 205.084 18.4223C204.326 18.711 203.686 18.4785 203.681 17.9126C203.677 17.639 203.605 17.5864 203.483 17.7699C203.376 17.9302 202.547 18.1267 201.64 18.2067C200.089 18.3437 199.989 18.3189 199.961 17.7837C199.932 17.2487 199.924 17.2463 199.798 17.743C199.622 18.4468 199.229 18.6626 198.562 18.4206C198.26 18.3109 197.435 18.244 196.73 18.2726C195.527 18.3211 195.426 18.2735 195.105 17.5084L194.762 16.6928L194.672 17.4818C194.584 18.2605 194.564 18.2697 193.189 18.1798C192.337 18.1244 191.641 18.2165 191.399 18.4171C191.084 18.6793 190.798 18.6777 189.985 18.409C189.39 18.2124 188.406 18.1329 187.619 18.2177C186.682 18.3185 186.27 18.2683 186.268 18.0526C186.264 17.8418 186.194 17.8524 186.045 18.0852C185.926 18.2744 185.72 18.4041 185.588 18.3731C185.456 18.3405 185.125 18.4143 184.851 18.5329C184.552 18.663 184.155 18.6235 183.85 18.433C183.178 18.0132 181.193 17.9914 180.223 18.3923C179.633 18.6369 179.117 18.6447 178.096 18.4249C176.352 18.051 174.585 18.0555 174.205 18.4371C173.994 18.6487 173.571 18.6626 172.767 18.484C172.141 18.345 169.254 18.2761 166.352 18.3307C163.45 18.3853 160.719 18.4041 160.284 18.3727C159.375 18.307 157.482 18.3197 156.327 18.4012C155.891 18.4298 155.2 18.3686 154.79 18.2634C154.342 18.1472 153.807 18.1986 153.445 18.3927C153.026 18.6169 152.572 18.6402 151.947 18.4701C151.454 18.336 150.634 18.2602 150.126 18.3022C149.619 18.3442 148.847 18.3747 148.412 18.3698C144.575 18.3291 141.408 18.3217 140.233 18.3495C138.632 18.3862 137.564 18.3939 136.275 18.3739C135.55 18.3617 134.155 18.4025 133.175 18.4612C132.196 18.5199 131.394 18.4856 131.394 18.3845C131.394 17.9772 129.923 17.9568 129.093 18.3519C128.37 18.6968 128.057 18.7176 127.39 18.4661C126.906 18.2834 125.764 18.2063 124.588 18.2773C123.276 18.3564 122.475 18.2895 122.224 18.0824C121.924 17.8336 121.796 17.8565 121.608 18.1925C121.408 18.5497 121.219 18.5709 120.426 18.3274C119.773 18.1268 119.263 18.1203 118.77 18.307C118.36 18.462 117.39 18.4995 116.482 18.3951C115.614 18.2956 114.088 18.3246 113.09 18.4591C111.842 18.6271 111.186 18.6153 110.992 18.4224C110.628 18.0579 108.777 18.0547 108.656 18.4185C108.597 18.5942 108.342 18.6146 107.96 18.4735C107.628 18.3508 106.447 18.3373 105.335 18.445C104.222 18.5514 103.187 18.5343 103.034 18.4083C102.881 18.2815 102.046 18.2358 101.179 18.3068C99.3418 18.4576 99.7189 18.4482 95.5131 18.447C93.6992 18.4465 91.7403 18.4509 91.1598 18.4552C90.5794 18.4593 89.5415 18.3773 88.8534 18.2697C88.0768 18.1482 87.4761 18.1787 87.2694 18.35C86.8528 18.6958 83.7096 18.7308 83.5002 18.392C83.3008 18.0695 81.6081 18.0658 81.4094 18.3879C81.3258 18.5233 80.6378 18.5608 79.8768 18.4719C79.1173 18.383 78.0803 18.3194 77.5724 18.3312C75.3605 18.381 73.6648 18.3948 72.5596 18.372C71.9066 18.3598 71.0162 18.368 70.5809 18.3924C69.51 18.4556 59.6343 18.2028 58.9722 18.0955C58.6404 18.0417 58.3296 17.6669 58.135 17.0863L57.8257 16.1626L57.8053 17.2266C57.7849 18.165 57.707 18.2972 57.1254 18.3453C56.7626 18.3739 56.4658 18.2756 56.4658 18.1235C56.4658 17.9714 56.3472 17.9205 56.2021 18.0102C56.057 18.0999 55.9298 17.9584 55.9196 17.6958C55.9033 17.2696 55.8768 17.275 55.6742 17.7464C55.4924 18.1697 55.437 18.0652 55.3942 17.2185L55.3408 16.1629L55.1464 17.0866C54.9858 17.8498 54.9426 17.8956 54.8985 17.3504C54.8492 16.7398 54.8284 16.7299 54.6185 17.2183C54.4457 17.6207 54.376 17.4324 54.3258 16.4265L54.2598 15.1069L54.1616 16.3469C54.091 17.2382 53.9655 17.5494 53.7155 17.4534C53.5243 17.38 53.2968 17.5048 53.21 17.7311C52.9993 18.2808 52.335 18.2529 52.0016 17.6801C51.7497 17.2478 51.7322 17.2497 51.7248 17.7086C51.7167 18.1729 51.6792 18.1763 51.0572 17.7686C50.6944 17.5309 50.3976 17.4212 50.3976 17.5247C50.3976 17.6283 50.2231 17.4827 50.0104 17.201C49.628 16.6955 49.6227 16.6957 49.6105 17.2173C49.5983 17.6555 49.5547 17.6779 49.3423 17.3494C49.1254 17.0138 49.0859 17.0261 49.0826 17.431C49.0807 17.6936 48.9599 17.835 48.8148 17.7453C48.6697 17.6556 48.5511 17.2853 48.5511 16.9224C48.5511 16.5498 48.4361 16.3336 48.2874 16.4258C48.1423 16.5155 48.0236 16.8985 48.0236 17.277C48.0236 18.4287 47.7546 17.782 47.3803 15.7317C47.0734 14.0486 47.0216 13.9377 46.9968 14.9083C46.9805 15.5251 46.8496 16.0299 46.7045 16.0299C46.5484 16.0299 46.4237 14.9246 46.3992 13.3247C46.3666 11.124 46.3242 10.8657 46.1766 11.9392C46.0107 13.1502 45.992 13.1774 45.9541 12.2691C45.9296 11.7248 45.8094 11.2794 45.6826 11.2794C45.5562 11.2794 45.3748 9.64643 45.2799 7.6506C44.8849 -0.654451 44.5032 -1.73068 44.3209 4.94548L44.1803 10.0918L44.0967 4.94548C44.0466 1.87284 43.928 0.065025 43.802 0.458947L43.5909 1.11876L43.5664 0.480956C43.5501 0.130296 43.451 -0.0689981 43.3422 0.0383609C43.2334 0.145598 43.0141 1.97665 42.8545 4.10703L42.5647 7.98052L42.5064 4.81353C42.4738 3.07169 42.3572 1.41436 42.246 1.13053C42.0369 0.59557 41.718 5.77221 41.663 10.5954C41.6386 12.7288 41.5892 13.0487 41.4144 12.2031C41.2941 11.6225 41.1894 9.49472 41.1808 7.47467C41.1727 5.45462 41.0964 3.87098 41.0121 3.95547C40.9277 4.03987 40.7675 5.87084 40.6562 8.02414L40.454 11.9392L40.3864 8.2444C40.3497 6.21229 40.2311 3.48078 40.1243 2.1744C39.9735 0.329443 39.9209 1.21889 39.8882 6.15855C39.8638 9.65618 39.7696 13.6008 39.6759 14.9243L39.5051 17.3307L38.5226 17.9811C37.8321 18.4382 37.4572 18.5486 37.2612 18.3526C36.9477 18.0394 35.6615 18.0129 30.8763 18.2221C29.0624 18.3012 27.2815 18.3595 26.9188 18.3513C26.556 18.3432 24.5971 18.3521 22.5655 18.3717C20.534 18.3921 18.2782 18.3921 17.5527 18.3756C16.8272 18.3593 15.6399 18.3552 14.9144 18.3726C13.5178 18.4012 11.7401 18.4012 10.4292 18.3696C9.99393 18.3574 9.34092 18.3778 8.97813 18.4149C8.61535 18.4516 7.96238 18.4646 7.52705 18.4475C5.74583 18.3721 3.26881 18.3338 2.71209 18.3725C0.820041 18.5046 0.535492 18.5674 0.535492 18.8533C0.535492 19.0433 0.770688 19.1151 1.12911 19.0343C2.39269 18.7497 35.3083 18.9711 37.2806 19.2774C37.6834 19.3397 38.0761 19.2896 38.1537 19.1628C38.4341 18.7086 39.2864 18.9438 39.4781 19.5281C39.5853 19.8547 39.7504 23.9816 39.8454 28.6991C39.9657 34.6745 40.037 35.9954 40.081 33.0537C40.1532 28.2174 40.5552 28.1519 40.891 32.9217C41.0655 35.4008 41.0903 35.1158 41.1258 30.2166C41.1502 26.7683 41.2631 24.7404 41.4295 24.7404C41.5795 24.7404 41.6932 25.5181 41.6932 26.5457C41.6932 30.4612 42.0519 37.1444 42.2623 37.1444C42.3846 37.1444 42.5056 35.5114 42.5309 33.5155L42.5769 29.8867L42.7587 33.0537C42.859 34.7955 42.9568 36.4949 42.9764 36.83C42.9968 37.1652 43.1309 37.366 43.276 37.2763C43.4301 37.1812 43.5622 35.3882 43.5927 32.9721L43.5838 32.9726Z" fill="black"/>
</svg>
