<svg width="464" height="39" viewBox="0 0 464 39" fill="none" xmlns="http://www.w3.org/2000/svg">
<path d="M327.724 19.8508C327.821 20.0685 327.96 20.4248 328.033 20.6425C328.121 20.9059 328.172 20.8545 328.186 20.4884C328.198 20.1858 328.355 19.9169 328.536 19.8904C331.059 19.5222 331.204 19.5275 331.55 20.0009C331.743 20.2639 331.9 20.3589 331.9 20.2117C331.9 19.7875 334.929 19.3203 335.89 19.5962C336.349 19.7279 336.822 19.7752 336.94 19.7018C337.059 19.6284 337.269 19.9583 337.407 20.4352C337.544 20.9121 337.669 21.1242 337.685 20.9065C337.733 20.2159 338.133 19.8152 338.853 19.7362C339.449 19.6709 339.552 19.7606 339.555 20.349C339.559 20.891 339.614 20.9538 339.815 20.6425C340.042 20.2906 340.073 20.2906 340.095 20.6425C340.108 20.8603 340.247 20.6833 340.403 20.2466C340.776 19.2018 341.059 19.0516 341.868 19.471C342.246 19.6676 342.879 19.7524 343.315 19.6651C343.829 19.5624 344.169 19.6325 344.327 19.8784C344.523 20.1838 344.603 20.1862 344.792 19.8947C344.927 19.6839 345.381 19.5726 345.917 19.6186C346.41 19.661 346.948 19.6146 347.113 19.5114C347.277 19.4099 347.958 19.4017 348.626 19.491C349.573 19.6211 349.84 19.7654 349.84 20.1471C349.84 20.5467 349.989 20.4814 350.646 19.7927C351.383 19.0217 351.502 18.9804 352.032 19.3131C352.453 19.5782 353.454 19.6626 355.711 19.6238C358.078 19.583 358.812 19.6524 358.815 19.908C358.818 20.1429 358.896 20.1249 359.074 19.8497C359.278 19.5345 359.335 19.5879 359.353 20.1135C359.373 20.7149 359.395 20.7265 359.592 20.2456C360.016 19.2093 360.392 21.0751 360.432 24.4195L360.473 27.6352L360.69 23.8383C360.902 20.1339 360.999 19.574 361.366 19.9402C361.463 20.0381 361.621 24.1258 361.716 29.0233L361.887 37.9279L361.933 29.0396C361.985 19.0253 361.966 19.1195 363.805 19.4239C364.324 19.5099 365.254 19.5813 365.87 19.5829L366.991 19.5867L367.05 23.6114L367.108 27.636L367.188 23.6139L367.269 19.5918L375.902 19.6122C380.651 19.6244 384.655 19.6084 384.8 19.5795C384.945 19.551 386.162 19.5388 387.504 19.5551L389.945 19.5877L389.965 20.4454L389.985 21.3031L390.334 20.5114C390.738 19.5941 391.058 19.5671 391.301 20.4298C391.462 20.9998 391.475 20.9919 391.499 20.3075L391.523 19.5757L396.206 19.6478L400.889 19.72L401.046 21.0396C401.202 22.3575 401.203 22.3578 401.244 21.27C401.268 20.6708 401.444 20.0488 401.638 19.8876C401.87 19.6955 403.369 19.6136 405.991 19.6499L409.992 19.7053L410.039 23.1437L410.086 26.5821L410.265 23.1513C410.363 21.2643 410.461 19.6906 410.482 19.6544C410.502 19.6177 413.784 19.5883 417.775 19.5883C422.6 19.5883 425.03 19.6797 425.03 19.8615C425.03 20.0483 425.195 20.0466 425.55 19.8575C426.072 19.5777 450.585 19.5109 452.403 19.7841L453.26 19.9129L453.31 22.0603L453.359 24.2076L453.508 21.9643L453.656 19.721L455.239 19.571C456.11 19.4886 457.147 19.5094 457.545 19.6175C457.946 19.7267 458.335 19.7035 458.42 19.5653C458.728 19.0664 459.065 19.646 459.065 20.6758C459.065 21.3124 459.17 21.6667 459.329 21.5684C459.474 21.4787 459.593 21.056 459.593 20.6291C459.593 19.6474 460.107 19.6018 460.16 20.5786L460.2 21.3043L460.311 20.5786C460.371 20.1794 460.561 19.8475 460.733 19.841C460.904 19.8329 461.607 19.7884 462.295 19.7387L463.545 19.6482L463.618 28.9214C463.658 34.0217 463.691 29.6438 463.691 19.1928C463.691 8.74182 463.658 4.3803 463.618 9.50059L463.545 18.8102L462.097 18.7629L460.649 18.7156L460.617 17.6347L460.584 16.5538L460.402 17.6705C460.091 19.5826 459.709 19.4424 459.517 17.3455C459.443 16.5428 459.409 16.6634 459.376 17.8483C459.332 19.3664 459.318 19.3948 458.826 18.9488C458.419 18.5806 458.211 18.5497 457.762 18.7898C457.165 19.1091 454.254 19.2157 453.8 18.9346C453.65 18.8416 453.503 17.6742 453.473 16.3401L453.419 13.9145L453.329 16.1563C453.28 17.3893 453.147 18.4908 453.033 18.6042C452.715 18.9226 443.29 19.0959 443.099 18.7864C443.01 18.6421 442.797 18.6144 442.625 18.7249C442.454 18.8354 440.973 18.941 439.335 18.9593C437.697 18.9797 436.291 19.0588 436.211 19.1391C436.131 19.2195 435.542 19.1269 434.902 18.9349C434.263 18.7424 433.739 18.6731 433.739 18.7811C433.739 18.8892 432.673 18.9446 431.37 18.9043C430.067 18.8635 428.943 18.9247 428.872 19.0392C428.661 19.3805 425.723 18.7579 425.373 18.298C425.078 17.9102 425.049 17.9118 425.041 18.3183C425.037 18.5626 424.825 18.8202 424.571 18.8908C423.924 19.0706 412.715 19.0775 411.511 18.8989L410.522 18.7521L410.518 13.827C410.514 6.87207 410.152 6.47044 409.994 13.2442L409.862 18.9061L406.63 18.8898C404.853 18.8817 403.398 18.9751 403.398 19.0998C403.398 19.4501 402.531 19.3522 401.988 18.9408C401.634 18.6729 401.445 18.0424 401.298 16.64L401.095 14.7083L401.059 16.8196L401.022 18.9309L397.339 19.0219C393.08 19.1271 391.606 18.9509 391.438 18.3165C391.36 18.0209 391.312 18.0783 391.291 18.491C391.247 19.376 390.649 19.0588 390.441 18.04C390.184 16.7861 389.941 16.7166 389.941 17.8973V18.931H383.543C380.025 18.931 376.997 18.8352 376.816 18.7173C376.628 18.5954 376.486 18.6199 376.486 18.774C376.486 18.9506 374.884 19.0248 371.876 18.9877L367.266 18.931L367.186 14.5764L367.106 10.2218L367.047 14.8102L366.988 19.3986L365.735 19.198C365.045 19.0879 363.947 18.9232 363.294 18.8322L362.107 18.6671L361.97 9.56208L361.832 0.457031L361.771 9.89195C361.719 18.0756 361.658 19.3269 361.315 19.3269C361.052 19.3269 360.908 19.0402 360.885 18.4692C360.864 17.9974 360.767 16.2457 360.666 14.5764L360.483 11.5414L360.434 14.7084C360.382 18.0349 360.223 19.1527 359.834 18.9125C359.706 18.833 359.584 18.3889 359.564 17.9258C359.536 17.235 359.507 17.1981 359.408 17.7203C359.193 18.8622 358.764 19.0467 356.53 18.9572C355.389 18.9115 354.179 18.9992 353.842 19.1517C353.398 19.3527 353.089 19.3425 352.724 19.115C352.076 18.7101 351.088 18.7109 350.682 19.1159C350.436 19.3622 350.366 19.3329 350.366 18.9838C350.366 18.7371 350.247 18.5351 350.102 18.5351C349.957 18.5351 349.838 18.7272 349.838 18.9618C349.838 19.2843 349.677 19.3488 349.178 19.2256C348.816 19.1363 348.192 18.9859 347.793 18.8917C347.394 18.7975 346.981 18.5895 346.874 18.4298C346.753 18.2484 346.679 18.3059 346.676 18.5835C346.668 19.3373 345.651 19.4511 344.935 18.778C344.584 18.4486 344.298 18.3096 344.298 18.4686C344.298 18.9243 342.465 19.4461 342.11 19.0913C341.949 18.9303 341.545 18.799 341.211 18.799C340.868 18.799 340.604 18.6392 340.604 18.4312C340.604 17.7984 339.781 17.6769 339.621 18.2861C339.403 19.1206 337.892 18.9044 337.671 18.0072C337.513 17.3682 337.502 17.3745 337.308 18.2094C337.147 18.9008 337.035 19.0119 336.745 18.7709C336.521 18.585 336.383 18.5727 336.383 18.7383C336.383 19.0698 333.992 19.0759 333.568 18.7464C333.365 18.5886 333.169 18.6681 332.996 18.9772C332.745 19.4256 332.705 19.4236 332.167 18.9364C331.74 18.5499 331.552 18.5051 331.399 18.753C331.287 18.9336 331.018 19.0131 330.801 18.9295C330.583 18.8459 330.093 18.8969 329.711 19.0416C329.113 19.2692 328.943 19.2117 328.479 18.621L327.94 17.9362V18.5524C327.94 18.9577 327.851 19.0794 327.68 18.9083C327.522 18.7501 327.391 15.1235 327.347 9.68457L327.273 0.721126L327.209 9.69419L327.144 18.6673L326.434 18.9971C325.492 19.435 325.307 19.4142 325.271 18.865C325.243 18.4461 325.229 18.4479 325.116 18.8854C324.998 19.3429 324.966 19.3441 324.487 18.9099C324.209 18.6587 323.982 18.569 323.982 18.7109C323.982 18.863 323.01 18.9478 321.603 18.9172C320.275 18.8887 319.152 18.9804 319.063 19.1243C318.825 19.5105 318.451 18.7835 318.446 17.9253C318.442 17.4991 318.33 17.2533 318.178 17.3471C318.033 17.4368 317.914 17.8449 317.914 18.2539C317.914 18.9791 317.886 18.9943 316.729 18.8641C316.053 18.7878 315.394 18.8559 315.196 19.0198C314.807 19.3424 313.497 19.1833 312.976 18.7507C312.736 18.5517 312.638 18.5538 312.638 18.7589C312.638 18.9175 312.46 18.9786 312.242 18.8951C312.024 18.8115 311.846 18.8787 311.846 19.0418C311.846 19.4235 310.368 18.6883 310.176 18.2111C310.087 17.9897 310.034 18.0207 310.02 18.3025C309.996 18.8011 307.361 19.4649 307.361 18.9724C307.361 18.7869 307.262 18.793 307.065 18.9888C306.903 19.1519 306.606 19.222 306.406 19.1453C306.127 19.0385 306.042 18.3276 306.042 16.1153C306.042 14.2557 305.948 13.2832 305.778 13.3881C305.632 13.479 305.515 14.6963 305.515 16.1324C305.515 18.5742 305.482 18.7286 304.904 18.9919C303.937 19.4328 303.405 18.9633 303.4 17.6635C303.396 16.8506 303.328 16.6606 303.14 16.9509C303 17.1687 302.869 17.6437 302.85 18.0065C302.826 18.4575 302.777 18.5201 302.695 18.2047C302.628 17.9507 302.464 17.7429 302.329 17.7429C302.195 17.7429 302.083 17.4163 302.081 17.0171C302.077 16.4516 302.021 16.3787 301.821 16.6872C301.681 16.905 301.562 17.4988 301.557 18.0068C301.553 18.7012 301.486 18.8322 301.294 18.5347C301.067 18.184 301.037 18.1844 301.034 18.5387C301.03 18.8723 300.602 18.9338 298.495 18.9037C296.655 18.8792 295.896 18.7675 295.729 18.5024C295.562 18.239 295.496 18.2293 295.493 18.4657C295.49 18.6472 295.311 18.7956 295.094 18.7956C294.876 18.7956 294.698 18.6174 294.698 18.3997C294.698 18.182 294.579 18.0038 294.434 18.0038C294.264 18.0038 294.17 14.974 294.17 9.44216C294.17 4.01908 294.074 0.820739 293.907 0.717416C293.733 0.609772 293.643 3.70847 293.643 9.81517C293.643 19.8265 293.676 19.623 292.237 19.0767C291.716 18.8786 291.527 18.6173 291.511 18.0763C291.491 17.3076 291.415 17.413 291.161 18.5744C291.076 18.9609 290.858 19.2504 290.676 19.218C289.876 19.0757 288.991 18.7022 288.564 18.3276C288.15 17.9634 288.103 17.9634 288.103 18.3265C288.103 19.065 287.456 19.3681 286.618 19.0226C286.201 18.8509 285.771 18.7294 285.662 18.7531C285.553 18.7775 285.443 17.9941 285.418 17.0143L285.371 15.2329L285.22 17.0596C285.128 18.1702 284.939 18.9289 284.739 18.995C284.541 19.0602 284.402 18.8571 284.39 18.4878C284.374 17.9333 284.354 17.9226 284.173 18.3806C283.976 18.8827 283.971 18.8827 283.769 18.3806C283.577 17.9016 283.551 17.9077 283.328 18.487C283.123 19.0199 282.977 19.0765 282.233 18.9113C281.761 18.8065 280.811 18.7396 280.122 18.7629C279.419 18.7873 278.868 18.687 278.868 18.5366C278.868 18.389 278.75 18.2679 278.605 18.2679C278.46 18.2679 278.341 18.4379 278.341 18.6458C278.341 19.1614 277.496 19.3902 276.704 19.0891C276.346 18.9529 274.946 18.8608 273.593 18.8844C271.451 18.9211 271.118 18.8681 271.013 18.4657C270.835 17.7832 270.426 17.905 270.426 18.6406C270.426 19.2387 270.378 19.2593 269.634 18.9786C268.997 18.7377 268.842 18.5246 268.839 17.8799C268.837 17.44 268.72 16.9019 268.579 16.6842C268.394 16.398 268.322 16.6353 268.32 17.5419C268.316 18.4785 268.216 18.7955 267.92 18.7955C267.702 18.7955 267.524 18.9142 267.524 19.0593C267.524 19.4982 266.868 19.3566 266.255 18.7853C265.737 18.303 265.672 17.9541 265.629 15.4204L265.58 12.5936L265.431 15.3647C265.348 16.8888 265.185 18.2843 265.068 18.4657C264.709 19.0199 263.574 18.862 263.338 18.2255C263.158 17.7376 263.103 17.7185 262.959 18.0934C262.737 18.6732 261.79 18.6562 261.637 18.069C261.553 17.7452 261.502 17.8043 261.467 18.2667C261.422 18.8767 261.401 18.8867 261.191 18.3988C261.013 17.9836 260.961 17.9639 260.946 18.3067C260.934 18.6304 260.69 18.7357 260.004 18.7163L259.08 18.6918L259.048 14.9833C259.011 10.5458 258.629 11.346 258.583 15.9593C258.562 17.8299 258.447 19.0603 258.288 19.0603C258.142 19.0603 258.012 18.7932 257.997 18.4665C257.973 17.8968 257.961 17.8995 257.76 18.5326C257.61 19 257.541 19.0531 257.522 18.7148C257.506 18.4522 257.376 18.3112 257.23 18.4017C257.084 18.4922 256.893 18.3813 256.807 18.155C256.72 17.9287 256.553 17.8035 256.435 17.8761C256.318 17.9487 256.102 17.6808 255.956 17.2808C255.702 16.5834 255.69 16.5984 255.67 17.6428C255.642 19.11 255.198 19.4465 254.139 18.8023C253.686 18.5271 253.263 18.0271 253.199 17.6915C253.111 17.2304 253.074 17.2907 253.047 17.939C253.018 18.6604 252.909 18.7968 252.373 18.7968C252.022 18.7968 251.549 18.8681 251.322 18.9554C250.954 19.0964 250.9 18.2954 250.834 11.6318L250.76 4.14956L250.698 11.7011L250.636 19.2525L250.05 19.224C249.725 19.2077 249.332 18.9271 249.165 18.5932C248.902 18.0655 248.825 18.0414 248.532 18.3954C248.131 18.8784 247.431 18.9176 246.996 18.4818C246.759 18.2449 246.679 18.2429 246.679 18.4737C246.679 18.6539 246.487 18.7139 246.217 18.6184C245.454 18.3477 244.832 17.6925 244.832 17.1588C244.832 16.8824 244.717 16.7273 244.577 16.8139C244.42 16.9109 244.289 15.8226 244.238 13.9924C244.155 11.0777 244.152 11.0989 244.075 14.9719C243.999 18.8664 243.991 18.9156 243.565 18.0069L243.132 17.0832L243.042 17.9409C242.939 18.9176 242.851 18.9661 242.258 18.3726C241.866 17.9804 241.815 17.9918 241.621 18.5161C241.445 18.9919 241.323 19.0388 240.879 18.8012C240.435 18.5634 240.339 18.2226 240.299 16.7442C240.257 15.1729 240.24 15.1203 240.15 16.2803C240.079 17.207 239.978 17.4763 239.806 17.204C239.636 16.9345 239.562 17.1575 239.559 17.9504C239.556 18.9991 239.517 19.0608 239.028 18.7989C238.737 18.6435 238.5 18.283 238.5 17.9979C238.5 17.7124 238.381 17.4793 238.236 17.4793C238.091 17.4793 237.973 17.7725 237.973 18.1311C237.973 18.7073 237.865 18.7788 237.043 18.7479C236.068 18.7112 235.999 18.6056 235.776 16.8195C235.703 16.2312 235.661 16.333 235.616 17.2154L235.555 18.403L235.193 17.6113L234.831 16.8196L234.818 17.6773C234.81 18.4131 234.713 18.535 234.147 18.535C233.644 18.535 233.487 18.3976 233.487 17.9568C233.487 17.3916 233.479 17.3901 233.1 17.8907C232.731 18.3789 232.711 18.3658 232.678 17.6114C232.645 16.8326 232.641 16.8304 232.432 17.4793C232.235 18.0956 232.219 18.0805 232.195 17.2522L232.17 16.3652L231.651 16.9883L231.132 17.6113L231.084 15.632L231.034 13.6526L230.824 15.2361C230.276 19.3576 230.056 19.7812 229.081 18.5904C228.624 18.0326 228.493 17.975 228.486 18.3287C228.474 18.9162 227.693 18.6467 227.664 18.0449C227.651 17.7692 227.529 17.8642 227.334 18.3046C226.969 19.1241 227.096 19.0988 225.442 18.6822L224.123 18.3495L223.829 16.9246L223.535 15.4998L223.334 17.1492C223.136 18.7677 223.116 18.7993 222.308 18.83C221.855 18.8463 221.366 18.8319 221.221 18.7974C221.076 18.7607 220.809 18.7276 220.627 18.7223C220.406 18.7142 220.282 18.183 220.25 17.1064C220.206 15.6105 220.196 15.5865 220.104 16.7546C220.049 17.444 219.893 18.0081 219.756 18.0081C219.619 18.0081 219.506 18.1863 219.506 18.4041C219.506 18.6218 219.387 18.8 219.242 18.8C219.097 18.8 218.977 18.592 218.975 18.3381C218.971 17.9434 218.933 17.9336 218.715 18.2721C218.544 18.5367 218.443 17.0044 218.409 13.6535L218.358 8.63919L218.203 13.7017C218.021 19.5925 217.781 20.4016 217.158 17.2164C216.97 16.2522 216.92 16.1778 216.893 16.8205C216.869 17.4338 216.802 17.523 216.604 17.2164C216.418 16.9277 216.348 17.1353 216.345 17.9831C216.341 19.1029 216.324 19.1292 215.846 18.6978C215.506 18.3899 215.28 17.6562 215.121 16.3476L214.891 14.4453L214.814 16.6466C214.751 18.4275 214.664 18.8202 214.358 18.7029C214.15 18.6234 213.876 18.7449 213.748 18.9732C213.546 19.3345 213.442 19.3092 212.95 18.7808C212.485 18.2821 212.375 17.8141 212.338 16.1773L212.292 14.1817L212.14 16.5014C211.978 18.9687 211.705 19.4542 210.69 19.0774C210.388 18.9652 209.903 18.9224 209.613 18.9824C209.323 19.0423 208.67 19.0655 208.162 19.0341C207.44 18.9893 202.883 19.0351 199.983 19.1165C198.717 19.1532 196.73 18.8221 196.56 18.5481C196.414 18.3108 196.323 18.3311 196.21 18.6264C196.084 18.9558 195.46 19.0186 192.594 18.9901C190.689 18.9697 189.085 18.882 189.029 18.7915C188.973 18.7014 188.299 18.7271 187.53 18.8486C185.816 19.1197 185.872 19.1152 184.417 19.101C183.764 19.0969 182.933 19.0972 182.57 19.105C182.207 19.1132 181.376 19.1088 180.723 19.0928C179.702 19.0683 170.5 19.0427 168.983 19.0602C163.718 19.125 160.867 19.052 160.492 18.8416C160.166 18.659 159.802 18.6997 159.259 18.9803C158.624 19.3089 158.381 19.3203 157.866 19.0447C157.404 18.7972 157.013 18.7817 156.351 18.9848C155.571 19.2245 155.356 19.178 154.636 18.6141L153.812 17.9696L153.754 14.0961L153.696 10.2225L153.615 14.0366C153.52 18.4819 153.388 18.7556 151.341 18.7556H150.119L150.094 17.7879L150.07 16.8203L149.834 17.6335C149.704 18.0808 149.357 18.6643 149.063 18.9303C148.625 19.3271 148.423 19.3594 147.938 19.1106C147.613 18.9438 146.932 18.8158 146.424 18.8255C145.916 18.8337 144.51 18.8133 143.299 18.7799C141.865 18.7383 141.033 18.8211 140.911 19.0184C140.705 19.3523 139.072 18.8961 138.711 18.4036C138.599 18.2523 138.515 18.3249 138.513 18.5736C138.509 18.9597 138.386 18.9711 137.393 18.678C136.577 18.437 136.235 18.1784 136.119 17.7161C135.969 17.1204 135.949 17.1332 135.763 17.9388C135.535 18.9291 135.117 19.2882 134.797 18.7696C134.629 18.4984 134.498 18.4833 134.272 18.7096C134.053 18.929 133.743 18.9347 133.14 18.73C132.683 18.5763 131.785 18.4397 131.145 18.4262C130.063 18.4018 129.958 18.3373 129.648 17.4783C129.333 16.6041 129.314 16.5928 129.295 17.2679C129.283 17.6602 129.142 18.2733 128.979 18.6303C128.709 19.2244 128.569 19.2687 127.33 19.155C126.586 19.0865 125.627 18.857 125.199 18.6446C124.511 18.3029 124.396 18.3045 124.197 18.6609C123.933 19.1323 123.44 19.1612 122.086 18.7848C121.207 18.541 121.096 18.4154 121.093 17.6648C121.089 17.0219 121.027 16.9142 120.833 17.2153C120.692 17.433 120.575 17.9972 120.573 18.4689C120.571 18.9406 120.456 19.3266 120.318 19.3266C119.627 19.3266 118.694 18.637 118.561 18.0278C118.479 17.6535 118.313 17.0503 118.192 16.6875C118.005 16.1259 117.967 16.2044 117.933 17.2153C117.913 17.8685 117.81 18.6139 117.709 18.8718C117.544 19.2895 117.466 19.299 117.002 18.9582C116.703 18.7393 116.183 18.6349 115.786 18.714C115.367 18.7976 114.818 18.6728 114.401 18.3992C113.883 18.06 113.71 18.0335 113.71 18.2932C113.71 18.5497 113.633 18.5631 113.414 18.3442C113.251 18.1815 112.965 18.1068 112.778 18.1786C112.586 18.252 112.356 18.0485 112.249 17.7128C112.074 17.1597 112.035 17.1498 111.724 17.5758C111.471 17.9211 111.355 17.9497 111.253 17.6912C111.173 17.4885 110.977 17.6952 110.776 18.1978C110.438 19.037 110.41 19.0482 108.708 19.0328C107.759 19.0247 106.863 19.0491 106.718 19.0842C106.482 19.1441 105.436 18.9904 103.769 18.6512C103.453 18.5868 103.038 18.6838 102.846 18.8644C102.372 19.3131 101.511 19.2804 101.12 18.7988C100.929 18.5635 100.795 18.5256 100.79 18.7058C100.778 19.1531 95.7748 19.0483 95.7715 18.6006C95.7705 18.4192 95.6525 18.2708 95.5098 18.2708C95.3484 18.2708 95.222 15.6568 95.1756 11.343L95.101 4.41533L95.0394 11.7103L94.9779 19.0053L94.2844 19.1794C93.9029 19.2752 93.2501 19.2785 92.8334 19.1875C92.0782 19.0216 92.0757 19.0138 92.0407 16.8648C92.0203 15.6788 91.9241 12.3926 91.825 9.56212L91.6444 4.41582L91.5703 10.4858C91.5087 15.5268 91.1969 20.7061 91.0576 19.0053C91.0332 18.717 90.8762 18.6069 90.6247 18.7036C90.2836 18.8345 90.2245 18.2587 90.196 14.5387C90.1715 11.4759 90.1014 10.5668 89.9518 11.4094C89.8357 12.0626 89.7317 13.9852 89.7211 15.6819L89.7007 18.7667L88.5794 18.9274C87.9627 19.0158 87.0131 19.0525 86.4693 19.0093L85.4804 18.9306L85.4438 16.6874C85.4234 15.4535 85.3268 11.4751 85.2289 7.84625L85.0516 1.24842L85.0019 10.2875C84.9734 15.2589 84.8861 19.3265 84.8054 19.3265C84.7247 19.3265 84.1309 19.1936 83.4863 19.0313C82.38 18.7528 82.312 18.6823 82.2766 17.7777L82.24 16.8194L82.0626 17.875C81.9037 18.8217 81.8674 18.8626 81.7109 18.2709C81.6151 17.908 81.492 17.2549 81.4374 16.8194C81.3762 16.33 81.322 16.5315 81.2951 17.3472C81.2364 19.1293 80.9633 19.5397 80.1327 19.095C79.7842 18.9086 79.3313 18.7794 79.1262 18.8087C77.6962 19.011 77.5812 18.6995 77.3208 13.9165L77.1341 10.4857L77.0864 14.8811L77.0387 19.2765L75.9174 19.1342C74.487 18.9524 74.1415 18.667 74.1157 17.6452C74.0954 16.7878 74.024 16.8673 73.7668 18.0419C73.6038 18.7858 72.6874 19.2188 72.356 18.7084C72.2468 18.5409 72.089 17.4532 72.0046 16.292L71.8514 14.1807L71.8069 16.5339C71.7568 19.1692 71.4486 19.3395 71.2089 16.8642L71.0511 15.2365L71.0104 16.9871C70.9737 18.6125 70.9248 18.7464 70.3353 18.8591C69.564 19.0067 69.4132 18.4661 69.3341 15.2694C69.2872 13.3691 69.2644 13.4848 69.1364 16.2873L68.9913 19.4495L68.3977 18.8107C67.9168 18.2932 67.804 18.2565 67.804 18.6174C67.804 19.1349 67.2599 19.2049 66.8015 18.7463C66.5585 18.5033 66.4848 18.5024 66.4848 18.7425C66.4848 18.915 66.2178 19.0369 65.8911 19.0137C65.5646 18.9892 65.0304 19.0589 64.7039 19.1666C64.1835 19.3378 64.1092 19.2701 64.1019 18.6185C64.0937 17.9077 64.0774 17.8975 63.7061 18.3873C63.4929 18.669 63.3189 18.8213 63.3189 18.7257C63.3189 18.6303 63.0519 18.6515 62.7252 18.7734C62.3987 18.8953 61.8645 18.8945 61.538 18.7716C61.2115 18.6484 60.9443 18.6415 60.9443 18.7552C60.9443 18.9208 59.1882 18.9681 58.2401 18.8274C58.1313 18.8111 58.0326 18.3528 58.0212 17.8084C57.9967 16.7241 57.9038 16.8505 57.6658 18.283C57.5178 19.1747 57.466 19.2143 56.5888 19.1119C56.082 19.0527 55.6674 18.8786 55.6674 18.7253C55.6674 18.572 55.594 18.5198 55.5039 18.6095C55.4143 18.6992 55.1803 18.6133 54.9846 18.4166C54.7343 18.1663 54.6039 17.091 54.5454 14.8004L54.4623 11.5402L54.4052 15.1535C54.3644 17.6388 54.2487 18.8283 54.0294 18.9638C53.8541 19.0723 53.0823 19.1685 52.3144 19.1775L50.9183 19.1938L50.8686 16.6866L50.8188 14.1794L50.6668 16.5546C50.5678 18.1003 50.461 18.6533 50.3603 18.1381C50.2123 17.3789 50.2042 17.3871 50.1662 18.3359C50.1239 19.4021 49.8683 19.5722 49.3137 18.9037C49.0707 18.6109 48.913 17.1395 48.7982 14.0873L48.6327 9.69268L48.5882 13.8933C48.5638 16.2037 48.4549 18.0052 48.3457 17.8968C48.2369 17.7883 48.0816 15.7792 48.0004 13.4322L47.8533 9.16485L47.8027 13.8682C47.7612 17.7697 47.6809 18.6431 47.3326 18.9913C47.0709 19.2531 46.8474 19.3106 46.739 19.1442C46.5144 18.8001 45.6416 18.8042 45.6416 19.1483C45.6416 19.2935 45.5528 19.3232 45.4439 19.2144C45.3351 19.1055 45.1749 18.2843 45.0885 17.389L44.9308 15.7612L44.89 17.2464C44.8476 18.8118 44.447 19.4567 43.696 19.1684C43.4379 19.0693 43.2529 18.6728 43.232 18.1742L43.1954 17.3447L43.0319 18.1393C42.9349 18.6122 42.7087 18.9256 42.473 18.9135C42.2553 18.9013 41.8695 18.9943 41.6155 19.1178C41.1914 19.3241 41.1493 19.1015 41.0978 16.3642L41.0416 13.3859L40.9572 16.1802L40.8728 18.9746L38.3627 19.0072C36.3939 19.0317 35.821 18.9574 35.7061 18.6578C35.5891 18.3532 35.4685 18.3886 35.1083 18.8335C34.7553 19.2693 34.5166 19.3433 34.0138 19.1723C33.66 19.052 33.3112 18.944 33.2386 18.9313C33.1661 18.9191 32.8245 18.7523 32.4795 18.5611C31.9578 18.272 31.8143 18.2732 31.6261 18.5693C31.5018 18.7658 31.3982 19.0155 31.3958 19.1243C31.3939 19.2332 31.1745 19.3221 30.9087 19.3221C30.4682 19.3221 30.0597 18.7794 29.717 17.7386C29.6452 17.5209 29.5772 17.684 29.5657 18.1007C29.5494 18.7296 29.4801 18.805 29.1651 18.5434C28.9559 18.3701 28.7349 17.9694 28.6733 17.6534C28.6118 17.3374 28.5453 17.5832 28.5258 18.2003C28.5013 18.9844 28.3753 19.322 28.1097 19.322C27.6488 19.322 27.4124 18.968 27.1556 17.8935C26.9709 17.1202 26.9595 17.1141 26.9338 17.772C26.891 18.8708 26.3446 19.1363 24.5543 18.9285C23.2253 18.7744 22.9624 18.6569 22.8685 18.176C22.7948 17.7977 22.7454 17.8976 22.7214 18.4733C22.6888 19.2324 22.6244 19.3077 22.1951 19.0778C21.9253 18.9335 21.3759 18.8752 20.9739 18.9477C20.0208 19.1206 19.9396 19.1292 19.7833 19.0721C19.3642 18.9192 10.8632 19.0309 10.4654 19.1944C10.1931 19.3066 9.85672 19.2621 9.68711 19.0925C9.30598 18.7112 8.03751 18.7072 7.33221 19.0843C6.92312 19.3033 6.73827 19.2943 6.58639 19.0476C6.44903 18.825 6.14388 18.7879 5.63057 18.9318C5.21594 19.048 4.75797 19.1133 4.61286 19.077C3.64358 18.8352 1.97084 18.8401 1.67495 19.0851C1.48052 19.2462 1.14206 19.3094 0.922559 19.225C0.702853 19.1406 0.523499 19.1769 0.523499 19.3053C0.523499 19.6715 1.12642 19.792 1.7696 19.5545C2.09203 19.4354 3.0558 19.406 3.91094 19.4896C4.76609 19.5732 9.31051 19.658 14.0097 19.6784L22.5536 19.7151L22.7138 20.7708L22.8744 21.8264L22.911 20.733C22.9314 20.1313 23.0969 19.584 23.2783 19.5158C23.4597 19.4477 24.2908 19.4498 25.1251 19.5199C26.5983 19.6442 26.6422 19.6707 26.6422 20.4228C26.6422 20.872 26.7531 21.1289 26.9059 21.0343C27.051 20.9446 27.1696 20.5813 27.1696 20.227C27.1696 19.8727 27.2789 19.5828 27.4118 19.5828C27.979 19.5828 28.4902 19.9339 28.5095 20.3368C28.5258 20.6936 28.5576 20.7009 28.684 20.3792C28.7684 20.1639 28.9966 19.829 29.1908 19.6345C29.4859 19.3393 29.5471 19.3817 29.5626 19.8939C29.5789 20.4714 29.5952 20.4763 29.808 19.9787C29.9327 19.6884 30.0432 19.6121 30.0533 19.8091C30.0656 20.0407 30.2351 20.1034 30.5336 19.9872C31.3591 19.6659 31.4736 19.7051 31.6584 20.3742C31.8284 20.9893 31.8541 20.967 32.0408 20.0443C32.2491 19.0147 32.4186 18.8688 32.8754 19.3256C33.1191 19.5694 34.0066 19.6677 35.0846 19.5698C35.3022 19.5494 36.0146 19.5576 36.6675 19.5902C37.3205 19.6228 37.9735 19.6188 38.1186 19.5821C38.2637 19.5454 38.887 19.5331 39.5037 19.5494L40.625 19.5821L40.6617 21.2315L40.6984 22.881L40.9589 21.2579C41.2181 19.6419 41.223 19.6348 42.1094 19.6348C42.9231 19.6348 43.0032 19.7062 43.0418 20.4661L43.0838 21.2975L43.1902 20.4398C43.2774 19.7359 43.412 19.5821 43.9395 19.5821C44.4831 19.5821 44.5867 19.7146 44.6104 20.4398L44.6389 21.2975L44.9178 20.5945C45.2406 19.7803 45.9921 19.3994 47.0234 19.5272L47.7489 19.6173L47.7982 23.3605L47.8475 27.1038L47.9959 24.0236C48.0774 22.3295 48.2336 20.8548 48.3424 20.7467C48.4512 20.6386 48.5609 22.0245 48.5862 23.8268L48.6318 27.1038L48.7839 23.4969C48.8674 21.5131 49.008 19.8179 49.0961 19.7299C49.5157 19.3103 50.1254 19.9599 50.1607 20.8641L50.1973 21.8255L50.3865 20.7698L50.5752 19.7142L50.6523 20.6379C50.7289 21.5546 50.7301 21.5555 50.8455 20.7704C50.993 19.7647 51.2838 19.591 52.8268 19.586L54.08 19.5822L54.1167 22.2874C54.1453 24.6095 54.1811 24.8056 54.3576 23.6729C54.4705 22.9471 54.5737 21.8027 54.5863 21.1297L54.6108 19.9061L55.8145 19.7254C56.6067 19.6064 57.1479 19.6524 57.3975 19.8596C57.6364 20.0581 57.777 20.0724 57.777 19.9003C57.777 19.5317 63.3804 19.5978 63.6432 19.9697C63.7687 20.147 63.8384 20.1275 63.8409 19.9138C63.8446 19.6794 64.4187 19.5839 65.8237 19.5839C67.1868 19.5839 67.8024 19.6826 67.8024 19.9008C67.8024 20.147 67.8729 20.147 68.1191 19.9008C68.7127 19.307 68.8579 19.5835 68.8885 21.3655C68.9211 23.2262 68.979 23.1836 69.2529 21.1016C69.3984 19.9939 69.4926 19.848 70.0612 19.848C70.6741 19.848 70.7048 19.9263 70.7086 21.4975C70.7124 22.6599 70.7881 23.0301 70.9683 22.7511C71.1089 22.5334 71.2275 21.9396 71.232 21.4315C71.2357 20.9235 71.3551 20.3297 71.4957 20.112C71.682 19.8237 71.7648 20.0753 71.7998 21.0357C71.8459 22.2849 71.854 22.2991 71.9555 21.3027C72.0798 20.0825 72.415 19.5839 73.111 19.5839C73.4636 19.5839 73.6064 19.7744 73.6064 20.2438C73.6064 20.6066 73.725 20.9035 73.8702 20.9035C74.0153 20.9035 74.1339 20.6067 74.1339 20.2438C74.1339 19.628 74.2219 19.5839 75.453 19.5839H76.7722L76.7885 21.6293C76.7967 22.7542 76.9018 24.1497 77.0221 24.7303C77.2165 25.6707 77.2438 25.5698 77.2736 23.8066C77.3172 21.2179 77.5455 19.9118 77.9843 19.7434C78.1799 19.6683 78.9371 19.6777 79.6672 19.7638C80.7119 19.8877 80.9946 20.0223 80.9946 20.3965C80.9946 20.6579 81.1133 20.9454 81.2584 21.0351C81.4125 21.1305 81.5221 20.8618 81.5221 20.3909C81.5221 19.3865 81.9756 19.3251 82.1247 20.3094C82.227 20.9849 82.2371 20.9757 82.2738 20.1772C82.3183 19.2176 82.3236 19.2154 83.6985 19.5974L84.6879 19.8722L84.7286 26.9195C84.7531 31.4291 84.8383 33.3966 84.9638 32.3833C85.0718 31.5124 85.1729 28.4139 85.1888 25.4978L85.2174 20.1958L86.2068 19.9018C86.7509 19.7399 87.7601 19.5576 88.4494 19.4961L89.7025 19.3844L89.7433 23.7725C89.7718 27.0821 89.8301 27.7714 89.9785 26.5771C90.0865 25.7062 90.1912 23.6873 90.2116 22.0906C90.2402 19.7788 90.3095 19.2951 90.5475 19.7154C90.7122 20.0057 90.9405 20.3062 91.055 20.3832C91.1695 20.4603 91.3558 22.5979 91.4689 25.1337L91.6747 29.7441L91.8659 24.895C91.9707 22.228 92.13 19.9728 92.2189 19.8836C92.3082 19.7943 92.9663 19.7099 93.6813 19.6956L94.9814 19.6711L95.0413 24.708L95.1012 29.7448L95.1791 24.8184L95.257 19.892L97.2959 19.7171C98.4173 19.6209 99.5301 19.4884 99.7687 19.4223C100.008 19.3563 100.413 19.5128 100.671 19.7709C101.006 20.1061 101.17 20.1461 101.248 19.912C101.381 19.5141 102.534 19.4756 102.773 19.861C102.883 20.0396 103.052 20.0482 103.25 19.8855C103.418 19.7461 105.116 19.6188 107.022 19.6021C110.473 19.5736 110.488 19.5736 110.647 20.207C110.849 21.0128 111.935 21.2787 112.345 20.6226C112.542 20.3066 112.902 20.1867 113.502 20.2377C113.981 20.2785 114.611 20.1708 114.901 19.9983C115.191 19.8259 115.919 19.6693 116.518 19.6501L117.607 19.6134L117.82 20.9837C117.99 22.0814 118.05 22.1965 118.122 21.5623C118.331 19.7184 118.345 19.7017 119.639 19.8047C120.778 19.8952 120.839 19.9412 120.872 20.7311L120.909 21.5623L121.072 20.7677C121.169 20.2957 121.395 19.9809 121.631 19.9921C121.848 20.0044 122.145 19.9297 122.29 19.8303C122.734 19.5257 124.269 19.3945 124.269 19.661C124.269 19.7989 124.436 19.7724 124.641 19.6023C124.86 19.4201 125.076 19.3944 125.166 19.5399C125.25 19.6753 126.075 19.7259 127 19.6517C128.895 19.4996 129.029 19.5954 129.298 21.2985L129.465 22.3542L129.671 21.2325C129.882 20.0814 130.093 19.9521 131.509 20.1058C131.791 20.1344 132.47 20.0137 133.018 19.833C133.792 19.5774 134.098 19.5745 134.394 19.8208C134.655 20.0377 134.829 20.0495 134.947 19.8575C135.248 19.3707 135.834 20.2322 135.947 21.3272L136.052 22.3539L136.097 21.2424C136.14 20.1709 136.181 20.1202 137.254 19.8312C138.09 19.6062 138.392 19.607 138.468 19.835C138.532 20.0274 138.69 19.9728 138.9 19.6858C139.131 19.3693 139.381 19.2972 139.731 19.4456C140.444 19.7494 141.256 19.7567 141.468 19.4619C141.576 19.311 141.843 19.3816 142.127 19.636C142.556 20.0193 142.815 20.0266 144.643 19.7061C146.882 19.3135 149.227 19.519 149.621 20.1421C149.749 20.3428 149.87 20.8038 149.892 21.1666L149.933 21.8265L150.055 21.1666C150.241 20.1496 150.628 19.8471 151.741 19.8471C152.531 19.8471 152.768 19.9519 152.785 20.309C152.797 20.585 152.859 20.638 152.938 20.4411C153.311 19.5171 153.558 20.3754 153.584 22.6843C153.6 24.0995 153.701 25.97 153.809 26.8409C153.955 28.0169 154.016 27.2356 154.048 23.806C154.076 20.9112 154.18 19.3292 154.331 19.5672C154.531 19.884 154.792 19.8958 155.907 19.6385C156.755 19.4428 157.471 19.4171 157.87 19.5692C158.292 19.7295 158.709 19.6981 159.142 19.4738C159.535 19.2699 160.008 19.2214 160.354 19.3494C160.801 19.515 182.591 19.7079 187.523 19.59C188.275 19.5696 188.646 19.6752 188.649 19.9036C188.652 20.1804 188.693 20.18 188.87 19.9026C189.176 19.4193 196.03 19.4248 196.342 19.9067C196.482 20.122 196.631 20.1481 196.757 19.9784C197.02 19.6278 197.474 19.5899 201.045 19.6184C204.461 19.6469 205.374 19.6347 206.321 19.5434C206.684 19.5107 208.139 19.5026 209.553 19.5311L212.126 19.5817L212.146 21.3631C212.166 23.3319 212.603 22.9794 212.637 20.9672C212.657 19.7194 212.628 19.7477 213.552 20.0994C213.979 20.2621 214.276 20.2621 214.376 20.0994C214.83 19.3652 215.021 20.1577 215.096 23.0786L215.18 26.3115L215.242 22.7486L215.306 19.1858L215.821 19.8456C216.105 20.2085 216.348 20.7429 216.362 21.0332L216.386 21.561L216.613 21.0332C216.81 20.5742 216.846 20.6086 216.884 21.297C216.926 22.0354 216.949 22.0143 217.232 20.9855C217.4 20.3788 217.625 19.7948 217.734 19.688C217.843 19.5811 217.958 21.6215 217.991 24.2221L218.049 28.9506L218.129 24.9146C218.18 22.3837 218.305 20.9379 218.466 21.0374C218.608 21.1247 218.723 20.8923 218.723 20.5209C218.723 19.7435 219.349 19.6015 219.664 20.3072C219.778 20.5613 219.95 21.4817 220.048 22.3526L220.225 23.936L220.266 22.032C220.311 19.8909 220.649 19.4785 222.231 19.6316C223.058 19.7115 223.082 19.7519 223.326 21.4289L223.575 23.1443L223.731 21.9206C223.934 20.3192 224.388 19.7928 225.483 19.8873C225.958 19.928 226.432 19.875 226.537 19.7715C226.869 19.4392 227.1 19.5643 227.281 20.1751L227.457 20.7689L227.699 20.1751C228.052 19.3088 228.482 19.4494 228.507 20.4389L228.527 21.2966L228.902 20.4389C229.429 19.2341 230.12 19.3163 230.531 20.6326C230.711 21.211 230.867 22.072 230.877 22.546C230.885 23.02 230.998 23.6454 231.122 23.9357C231.283 24.3092 231.36 23.9602 231.385 22.7481C231.417 21.2476 231.457 21.1153 231.716 21.6924L232.013 22.3522L232.127 21.5605C232.227 20.8639 232.266 20.8322 232.455 21.2967C232.64 21.7546 232.671 21.7263 232.687 21.083C232.7 20.6386 232.816 20.4099 232.981 20.512C233.132 20.6053 233.544 20.4916 233.895 20.2636C234.747 19.7053 234.767 19.7139 234.889 20.7028C234.979 21.4243 235.002 21.3772 235.038 20.4063C235.075 19.4127 235.136 19.298 235.476 19.5809C235.755 19.8121 235.887 20.505 235.924 21.9225L235.975 23.9355L236.067 22.1913C236.162 20.361 236.099 20.4545 237.785 19.6334C237.893 19.5804 237.982 19.7247 237.982 19.9547C237.982 20.1846 238.101 20.3726 238.246 20.3726C238.391 20.3726 238.51 20.1944 238.51 19.9766C238.51 19.7569 238.744 19.5807 239.038 19.5807C239.466 19.5807 239.565 19.7565 239.565 20.52C239.565 21.04 239.676 21.3907 239.813 21.3057C239.95 21.2213 240.107 21.6596 240.163 22.2798C240.232 23.0487 240.279 22.8105 240.31 21.5307C240.356 19.6803 240.366 19.6557 241.016 19.78C241.39 19.8514 241.682 20.0928 241.689 20.3372C241.702 20.672 241.796 20.6357 242.117 20.1746C242.682 19.3644 242.995 19.4293 242.995 20.3568C242.995 21.4532 243.416 21.5813 243.682 20.566C243.844 19.9516 243.948 20.8955 244.054 23.9352L244.202 28.1578L244.262 24.595C244.303 22.1462 244.403 21.1559 244.582 21.428C244.799 21.7583 244.868 21.7261 245.004 21.2331C245.092 20.9081 245.271 20.7073 245.399 20.7868C245.528 20.8663 245.633 20.7746 245.633 20.5834C245.633 20.1129 246.614 19.5109 246.825 19.852C246.921 20.0069 247.161 19.938 247.417 19.6819C247.814 19.284 247.893 19.3048 248.455 19.9584C248.878 20.4505 249.063 20.5407 249.063 20.2548C249.063 19.9926 249.302 19.8442 249.723 19.8442H250.382L250.403 26.64C250.415 30.3777 250.517 33.9702 250.633 34.6234C250.764 35.3579 250.857 32.8355 250.878 28.0123C250.902 22.3369 250.997 20.1275 251.227 19.897C251.401 19.7229 251.876 19.5802 252.283 19.5802C252.935 19.5802 253.024 19.6801 253.045 20.4379L253.07 21.2956L253.315 20.4464C253.54 19.6694 253.644 19.6021 254.544 19.6546C255.448 19.7077 255.542 19.788 255.689 20.6358L255.85 21.5595L255.886 20.5699C255.923 19.652 256.451 19.0947 256.451 19.9761C256.451 20.1938 256.561 20.372 256.696 20.372C256.83 20.372 256.996 20.5799 257.064 20.8338C257.163 21.2077 257.227 21.1702 257.398 20.6361L257.609 19.9763L257.795 20.6361C257.967 21.2469 257.983 21.2322 258.008 20.4383C258.024 19.9666 258.153 19.5806 258.298 19.5806C258.457 19.5806 258.584 20.9158 258.618 22.9455L258.674 26.3104L258.759 23.2861C258.824 20.9559 258.942 20.1533 259.271 19.7892C259.911 19.0827 260.632 19.1945 260.842 20.0331C261.005 20.681 261.041 20.6999 261.224 20.2308C261.399 19.7851 261.429 19.7772 261.445 20.1746C261.47 20.736 261.992 20.7993 261.992 20.2406C261.992 19.6263 262.814 19.7744 262.983 20.4192L263.133 20.9936L263.341 20.4289C263.5 19.9986 263.744 19.8776 264.365 19.9205C265.288 19.9845 265.372 20.1839 265.501 22.6159C265.572 23.9532 265.593 23.8609 265.635 22.0221C265.683 19.9048 265.703 19.8449 266.327 19.8449C266.681 19.8449 267.274 19.7291 267.646 19.5876L268.323 19.3303L268.374 21.1052L268.425 22.8801L268.519 21.2306L268.613 19.5811H269.523C270.319 19.5811 270.434 19.6647 270.434 20.2409C270.434 21.0612 270.753 21.0929 271.097 20.307C271.321 19.7969 271.581 19.7051 272.941 19.6559C273.811 19.6232 274.939 19.5743 275.447 19.5441C277.016 19.452 278.327 19.671 278.473 20.05C278.59 20.3558 278.668 20.3554 278.977 20.0462C279.217 19.8069 280.039 19.6662 281.353 19.6393C283.089 19.6026 283.363 19.6597 283.371 20.0516C283.38 20.3892 283.477 20.3362 283.758 19.8453C284.097 19.2515 284.138 19.2383 284.165 19.7132C284.181 20.0035 284.255 20.0924 284.328 19.911C284.401 19.7295 284.629 19.5811 284.835 19.5811C285.123 19.5811 285.22 20.079 285.258 21.7584L285.307 23.9357L285.472 21.6924C285.563 20.4586 285.674 19.6867 285.718 19.977C285.79 20.4555 285.809 20.4599 285.921 20.0251C286.018 19.65 286.256 19.5636 287.012 19.6292C287.544 19.6752 288.066 19.8318 288.172 19.977C288.292 20.1405 288.368 20.1152 288.37 19.9109C288.378 19.3617 290.926 19.4783 291.255 20.043C291.51 20.4809 291.525 20.4811 291.532 20.0449C291.536 19.6783 291.755 19.5934 292.595 19.6263L293.651 19.6679V28.7296C293.651 34.5949 293.744 37.7914 293.914 37.7914C294.084 37.7914 294.179 34.9084 294.181 29.6761C294.185 20.596 294.267 19.5814 295.004 19.5814C295.286 19.5814 295.51 19.7791 295.528 20.0432C295.556 20.4781 295.565 20.4779 295.68 20.0391C295.786 19.631 296.118 19.5768 298.334 19.6052C301.166 19.6419 301.55 19.8311 301.592 21.2125L301.621 22.089L301.827 21.2179C301.94 20.7388 302.099 20.2816 302.178 20.2018C302.506 19.874 302.886 20.4624 302.886 21.2973C302.886 21.7882 303.005 22.2633 303.15 22.353C303.306 22.4496 303.414 22.143 303.414 21.5984C303.414 20.4821 303.65 19.798 303.969 19.9948C304.099 20.0752 304.205 20.0071 304.205 19.8431C304.205 19.6792 304.472 19.5834 304.799 19.6295C305.343 19.7065 305.405 19.8896 305.542 21.8251L305.691 23.9364L305.74 21.7789L305.788 19.6212L307.389 19.6791C308.27 19.7117 309.045 19.6465 309.113 19.5388C309.319 19.2049 310.009 19.6114 310.018 20.0718C310.026 20.4563 310.054 20.4535 310.294 20.0433C310.601 19.5168 311.854 19.4112 311.86 19.9112C311.864 20.1317 311.95 20.1097 312.124 19.8451C312.339 19.5169 312.423 19.5103 312.615 19.8084C312.776 20.0579 312.9 20.0779 313.026 19.8745C313.125 19.7138 313.682 19.5825 314.264 19.5825C314.845 19.5825 315.521 19.4802 315.765 19.3554C316.471 18.995 317.924 19.724 317.928 20.441C317.932 21.0212 317.94 21.0198 318.265 20.3741C318.588 19.7353 318.694 19.7122 321.596 19.6464C323.245 19.6098 324.729 19.6913 324.895 19.8291C325.082 19.9841 325.345 19.9865 325.584 19.8332C325.797 19.6986 326.179 19.5865 326.433 19.5845C326.847 19.5807 326.895 19.9029 326.895 22.6814C326.895 24.387 326.985 28.5733 327.093 31.9844L327.29 38.1864L327.422 28.8174C327.495 23.6645 327.634 19.6266 327.731 19.8444L327.724 19.8508Z" fill="black"/>
</svg>
