<svg width="464" height="38" viewBox="0 0 464 38" fill="none" xmlns="http://www.w3.org/2000/svg">
<path d="M1.08948 19.4154C1.38419 19.3661 1.55408 19.5092 1.55921 19.8113C1.56737 20.2644 1.57959 20.2642 1.84455 19.8076C2.072 19.4166 2.40388 19.3445 3.68336 19.408L5.24474 19.4854L5.28674 21.6007C5.3112 22.764 5.36988 23.3001 5.41961 22.792C5.67152 20.2271 5.82234 19.5428 6.0548 19.9105C6.23701 20.1984 6.29286 20.1515 6.29571 19.7074C6.29946 19.1761 6.40006 19.1405 7.55293 19.2632C8.24221 19.3366 9.84501 19.3806 11.1147 19.361L13.4233 19.3244L13.4436 22.4432C13.4559 24.4316 13.5443 25.3709 13.689 25.0344C13.8138 24.7441 13.9242 23.3487 13.9344 21.9334L13.9548 19.3603L15.208 19.3399C15.8973 19.3276 17.2609 19.3361 18.2383 19.3562C19.4609 19.3806 20.1961 19.2674 20.5944 18.9885C21.1243 18.617 21.2483 18.6292 22.0597 19.1307C22.5472 19.432 23.1788 19.6178 23.4633 19.5434C23.8772 19.4354 23.9857 19.5476 24.0067 20.1092L24.0312 20.8103L24.2142 20.1519C24.3149 19.7898 24.6296 19.4495 24.9134 19.3956C25.1971 19.3418 25.5075 19.1738 25.6028 19.0226C25.717 18.8411 26.1069 18.9043 26.7464 19.2081C27.7869 19.7019 28.8068 19.6027 29.5467 18.9361C29.9707 18.554 30.8381 18.6796 30.8381 19.1232C30.8381 19.4804 34.4649 19.4054 35.0565 19.0356C35.4648 18.7804 35.6421 18.7804 35.8971 19.0356C36.0777 19.2162 36.8948 19.3589 37.7505 19.3589C39.0252 19.3589 39.2837 19.4359 39.2986 19.8207C39.3108 20.1571 39.3972 20.1033 39.6141 19.6229C39.7779 19.2601 39.9402 18.9214 39.9748 18.8702C40.0115 18.8193 40.272 18.9416 40.5585 19.1423C40.9331 19.4048 41.567 19.4659 42.8182 19.3611L44.5571 19.2152L44.6101 21.2005L44.6631 23.1858L44.7532 21.1383L44.8433 19.0907L45.5577 19.2804C45.9506 19.3848 46.533 19.4578 46.8519 19.4435C47.1821 19.4272 47.4824 19.6034 47.5494 19.85C47.6444 20.1987 47.7031 20.1713 47.8527 19.7093C47.9893 19.2862 48.1874 19.1717 48.6062 19.2728C48.9185 19.3482 49.4415 19.4 49.768 19.3878C50.3413 19.3674 50.3632 19.4534 50.41 21.9357L50.4585 24.5058L50.6089 22.3946C50.6924 21.2186 50.8331 20.517 50.9256 20.811C51.0511 21.2094 51.0992 21.1308 51.1225 20.4906C51.1592 19.4285 52.108 18.7682 52.6093 19.4541C52.7801 19.6881 52.9746 19.8247 53.0414 19.7578C53.1078 19.691 53.6009 19.5671 54.1366 19.4818C54.842 19.3697 55.1117 19.4223 55.1146 19.6731C55.1184 19.9255 55.188 19.912 55.3743 19.6233C55.5895 19.2902 55.6307 19.2878 55.6339 19.607C55.6377 19.8688 55.8125 19.7995 56.2 19.3832C56.5436 19.0142 56.8284 18.887 56.9328 19.0562C57.0266 19.2082 57.5159 19.3819 58.0198 19.4426C59.6066 19.6335 59.856 19.8451 59.8968 21.0371L59.9334 22.1305L60.1226 21.0748C60.2921 20.1271 60.3191 20.208 60.3839 21.8666L60.456 23.7141L60.6676 21.8885C60.7837 20.8845 60.9525 19.7713 61.0418 19.4149C61.1803 18.8628 61.2513 18.8247 61.521 19.1579C61.9401 19.6761 62.7048 19.9277 62.9001 19.6116C63.1553 19.1987 63.552 19.3245 63.5606 19.8212C63.5687 20.2576 63.585 20.2574 63.8406 19.8172C64.2193 19.1665 64.6026 19.495 64.6351 20.4981L64.6636 21.3402L64.9245 20.3595C65.156 19.4889 65.2787 19.379 66.0185 19.3812C66.4768 19.3821 67.0893 19.3485 67.3795 19.3061C67.8526 19.2368 67.9153 19.4003 67.9859 20.8859C68.0316 21.8487 68.1698 22.478 68.3157 22.3879C68.4718 22.2912 68.5872 25.058 68.6202 29.7038L68.6736 37.1749L68.8179 29.1255C68.9418 22.2066 69.0258 20.9604 69.4138 20.2512C69.8579 19.4398 71.0608 18.9143 71.3612 19.4005C71.4403 19.5285 71.6156 19.5648 71.7505 19.4816C71.8854 19.398 71.9959 19.4775 71.9959 19.6553C71.9959 19.8449 72.2437 19.7486 72.5895 19.4245C73.0697 18.9744 73.2839 18.9235 73.7108 19.1578C74.001 19.3172 74.3126 19.5595 74.4033 19.6964C74.502 19.8452 74.6406 19.8277 74.7486 19.6532C75.0735 19.1276 75.4252 19.3461 75.4464 20.0868L75.4668 20.8127L75.7317 20.0868C76.1569 18.9222 76.4773 19.2441 76.5199 20.8786C76.5403 21.7132 76.6027 22.0398 76.6557 21.6043C76.939 19.2713 76.9826 19.1746 77.7383 19.2025C78.4132 19.2269 78.4691 19.322 78.6141 20.6806C78.7331 21.7968 78.7788 21.9085 78.8118 21.1641C78.8677 19.9047 79.0882 19.361 79.5426 19.361C79.7734 19.361 79.925 19.6804 79.9499 20.2189C79.9865 20.9767 80.002 20.9951 80.0966 20.3778C80.1842 19.8075 80.3685 19.66 81.0997 19.5747C81.9548 19.4748 82.0001 19.5126 82.0958 20.4051C82.1957 21.3362 82.1961 21.3357 82.2405 20.2629C82.2955 18.9299 83.0605 18.6956 83.1027 19.9991C83.1271 20.7717 83.1393 20.7794 83.3126 20.1528C83.5192 19.4101 84.0693 19.2921 84.6595 19.8637C85.0056 20.1993 85.0651 20.1964 85.1331 19.8433C85.1788 19.606 85.5061 19.4296 85.9247 19.4166C88.6043 19.3335 90.7797 19.3627 90.9777 19.4851C91.1057 19.5642 91.2704 19.4811 91.3438 19.2972C91.4171 19.1149 91.5056 19.5002 91.5402 20.1532C91.5952 21.191 91.6168 21.23 91.7114 20.4619C91.7901 19.8214 91.9246 19.6232 92.2068 19.7316C92.42 19.8131 92.6627 19.703 92.7463 19.4841C92.9297 19.0056 93.6409 19.0808 94.083 19.6252C94.3068 19.9008 94.407 19.9208 94.4127 19.6913C94.4168 19.4776 94.8389 19.3614 95.6084 19.3614H96.7956L96.8441 21.5387L96.8926 23.7159L97.0598 21.6047C97.1939 19.91 97.2468 20.4829 97.328 24.5077L97.4291 29.522L97.5742 24.331C97.6541 21.476 97.8085 19.0513 97.9174 18.9428C98.0262 18.8343 98.131 19.2107 98.1501 19.7792C98.1705 20.3477 98.2675 22.1787 98.3682 23.848L98.5516 26.8829L98.6331 23.3201C98.678 21.3605 98.7701 20.0532 98.8374 20.4148L98.9601 21.0723L99.2768 20.2976C99.5682 19.584 99.712 19.5167 101.097 19.4456C102.124 19.393 102.6 19.4661 102.6 19.6818C102.6 19.9216 102.675 19.9206 102.917 19.6779C103.334 19.2609 104.442 19.2707 104.468 19.6903C104.485 19.9541 104.516 19.9541 104.622 19.6903C104.695 19.5088 104.924 19.3604 105.129 19.3604C105.435 19.3604 105.511 20.1647 105.549 23.7809L105.595 28.2015L105.75 23.923C105.854 21.0603 106.013 19.5363 106.232 19.3177C106.491 19.058 106.565 19.7729 106.589 22.8045C106.621 26.8067 106.679 26.9939 106.963 24.0042C107.079 22.7877 107.214 22.3054 107.371 22.5527C107.529 22.8027 107.613 22.5364 107.628 21.7356C107.64 21.0824 107.753 20.3104 107.877 20.0201C108.021 19.6862 108.131 20.9481 108.177 23.451L108.249 27.4097L108.399 23.9789L108.55 20.548L108.687 22.7913L108.826 25.0345L108.879 22.2551L108.933 19.4755L109.642 19.4168C110.033 19.3841 110.446 19.5069 110.562 19.6891C110.713 19.9273 110.773 19.8927 110.776 19.5648C110.78 19.1971 110.899 19.1546 111.396 19.3438C111.734 19.4727 112.169 19.4807 112.361 19.3641C113.177 18.8597 113.418 19.3805 113.445 21.7005C113.485 25.1871 113.888 25.8434 113.92 22.4732C113.944 19.9596 114.003 19.615 114.458 19.3713C114.865 19.1536 115.045 19.2046 115.336 19.6197C115.742 20.1999 116.705 20.1595 117.208 19.5413C117.724 18.9069 118.35 18.853 118.93 19.393C119.236 19.6784 119.486 19.7913 119.486 19.6441C119.486 19.4696 119.71 19.4615 120.128 19.6197C120.557 19.7828 120.802 19.7697 120.865 19.5789C120.924 19.4015 121.277 19.3648 121.806 19.481C122.536 19.6412 122.655 19.7823 122.671 20.5037C122.679 20.9639 122.787 21.578 122.907 21.8683C123.182 22.5372 123.392 22.0685 123.501 20.5487L123.576 19.493L125.159 19.4891C126.029 19.4853 126.89 19.3904 127.071 19.2754C127.288 19.1388 127.401 19.2199 127.401 19.5102C127.401 19.858 127.48 19.8886 127.766 19.6513C128.186 19.3027 129.751 19.3361 130.238 19.7047C130.448 19.8641 130.567 19.8584 130.567 19.6884C130.567 19.3785 131.826 19.0907 132.331 19.2847C132.522 19.3577 132.694 19.8503 132.713 20.3791L132.749 21.3406L132.913 20.417C133.056 19.6038 133.181 19.4831 133.951 19.4092C134.432 19.3631 134.985 19.4582 135.18 19.6201C135.425 19.8231 135.588 19.8287 135.706 19.6404C135.974 19.2069 136.373 19.3158 136.383 19.8255C136.391 20.1872 136.467 20.1517 136.739 19.6624C137.039 19.12 137.107 19.0967 137.257 19.4858C137.351 19.7325 137.449 21.5575 137.473 23.5415L137.518 27.1488L137.774 23.5412C138.01 20.222 138.074 19.9221 138.578 19.7903C138.879 19.7116 139.202 19.7699 139.296 19.9232C139.401 20.0928 139.529 20.0378 139.627 19.7813C139.817 19.287 140.594 19.2166 140.599 19.6932C140.603 19.9375 140.662 19.9305 140.829 19.6687C140.953 19.473 141.278 19.3553 141.55 19.4071C141.917 19.4768 142.088 19.8099 142.205 20.6866L142.363 21.8718L142.404 20.7502C142.424 20.1333 142.562 19.6285 142.707 19.6285C142.852 19.6285 142.971 19.7476 142.971 19.8923C142.971 20.0375 143.205 19.9209 143.492 19.6343C144.001 19.1254 144.818 19.1566 144.818 19.6849C144.818 19.8301 144.996 19.8805 145.213 19.7965C145.551 19.6669 145.615 20.1367 145.65 23.0013C145.679 25.4618 145.74 26.0056 145.873 25.0383C145.979 24.2663 146.071 26.1153 146.096 29.4942C146.132 34.8466 146.4 37.3103 146.94 37.3103C147.308 37.3103 147.449 36.0947 147.494 32.5598L147.539 28.997L147.732 33.3C147.838 35.6667 147.998 37.6757 148.086 37.7646C148.175 37.8535 148.248 36.5405 148.248 34.8471C148.248 30.9306 148.727 30.7358 148.843 34.6053C148.889 36.1758 148.964 34.7916 149.01 31.5043C149.101 24.9167 149.362 22.9106 149.679 26.358C150.091 30.8305 150.297 31.0344 150.348 27.0178C150.376 24.6089 150.48 23.3866 150.622 23.7189C150.794 24.1181 150.861 23.9248 150.899 22.9271C150.95 21.5712 151.317 19.7124 151.394 20.4199C151.419 20.6434 151.576 20.5018 151.756 20.0949C152.237 19.0036 152.689 19.547 152.8 21.3498L152.897 22.927L152.947 21.262C152.975 20.3462 153.102 19.662 153.23 19.7415C153.359 19.821 153.608 19.7131 153.784 19.5006C154.057 19.1712 154.228 19.1667 154.953 19.468C155.649 19.7592 155.885 19.7612 156.269 19.4802C156.527 19.2918 156.994 19.2009 157.307 19.2784C158.164 19.4896 160.221 19.5931 160.474 19.4378C160.596 19.3628 167.007 19.3179 174.721 19.3379C182.435 19.3583 188.924 19.3746 189.142 19.3746C189.359 19.3751 190.19 19.3379 190.989 19.2951C191.787 19.251 192.912 19.2961 193.489 19.3959C194.164 19.5125 194.777 19.4558 195.204 19.2372C195.627 19.0215 196.083 18.9779 196.454 19.1177C196.982 19.3167 199.628 19.375 205.631 19.3196C206.792 19.3073 209.701 19.3192 212.095 19.344C214.489 19.3684 216.508 19.3726 216.58 19.3563C217.482 19.1422 217.89 19.1674 218.126 19.4512C218.281 19.6376 218.446 21.0307 218.494 22.5464L218.58 25.3022L218.636 22.3992C218.691 19.5049 218.693 19.496 219.351 19.4581C219.714 19.4377 220.012 19.5559 220.014 19.7219C220.016 19.8972 220.117 19.8671 220.255 19.6502C220.467 19.3146 221.652 19.2031 222.687 19.421C222.893 19.4642 223.111 20.0003 223.201 20.6836L223.357 21.8712L223.399 20.6265L223.44 19.3817L227.675 19.4465C230.004 19.4832 232.046 19.4261 232.213 19.3229C232.381 19.2198 232.633 19.2064 232.773 19.2944C232.914 19.3813 233.751 19.4833 234.633 19.5208C235.515 19.5575 236.385 19.5978 236.566 19.6093C236.748 19.6215 236.908 19.8967 236.922 20.2232C236.947 20.7879 236.959 20.7847 237.137 20.1571C237.308 19.5572 237.341 19.5932 237.503 20.5531C237.602 21.1337 237.696 22.6181 237.714 23.8519L237.747 26.0952L238.096 23.3242C238.287 21.8001 238.452 20.2757 238.462 19.9366C238.478 19.3405 238.533 19.3257 240.116 19.4847C241.016 19.5752 241.813 19.7093 241.887 19.7831C241.961 19.8569 242.095 21.2479 242.186 22.8743C242.342 25.6724 242.353 25.7179 242.395 23.72C242.42 22.5588 242.559 21.1796 242.704 20.6551C242.965 19.7174 243.108 19.6483 244.349 19.8596C244.458 19.88 244.556 20.2792 244.566 20.7509C244.582 21.4697 244.621 21.5231 244.811 21.0808C244.993 20.6582 245.048 20.7636 245.088 21.6087L245.137 22.6643L245.35 21.3956C245.467 20.6978 245.695 19.9678 245.857 19.7734C246.169 19.3962 247.186 19.5234 247.186 19.9398C247.186 20.0768 247.304 20.1151 247.449 20.0254C247.612 19.9251 247.732 20.4513 247.762 21.3952L247.811 22.9284L247.908 21.5428C247.961 20.7808 248.094 20.1573 248.202 20.1573C248.949 20.1573 249.034 20.9936 249.09 28.8532L249.148 36.9157L249.297 31.5056L249.445 26.0953L249.503 31.424C249.535 34.3547 249.655 36.8112 249.771 36.8827C250.18 37.1355 250.574 36.6361 250.684 35.7259C250.769 35.0162 250.805 35.1228 250.837 36.19C250.87 37.2268 250.979 37.5756 251.275 37.5756C251.589 37.5756 251.681 37.1513 251.718 35.5303L251.766 33.4849L251.935 35.4642C252.104 37.4418 252.104 37.441 252.195 34.4086L252.285 31.3736L252.447 34.4601C252.536 36.1577 252.695 37.6322 252.799 37.737C252.904 37.8417 252.991 37.7574 252.994 37.5535C252.998 37.2347 253.031 37.2338 253.231 37.5494C253.385 37.7916 253.525 37.2008 253.639 35.834C253.873 33.0204 253.971 32.6863 254.055 34.4092C254.095 35.2076 254.218 33.9157 254.33 31.5384C254.446 29.0998 254.658 27.0928 254.818 26.9332C254.973 26.7774 255.101 26.1158 255.101 25.4626C255.101 24.5436 255.171 24.3462 255.415 24.5895C255.629 24.8035 255.777 26.7373 255.88 30.6462L256.03 36.3886L256.275 29.9228C256.539 22.9658 256.844 22.9075 256.967 29.7906L257.033 33.4854L257.215 29.1309C257.315 26.7359 257.486 24.1454 257.595 23.3744C257.787 22.0183 257.809 21.9872 258.294 22.4256C258.763 22.8502 258.794 23.3477 258.794 30.3154C258.794 36.7498 258.848 37.752 259.19 37.752C259.53 37.752 259.588 36.9057 259.604 31.792C259.613 28.514 259.725 25.5944 259.85 25.3041C259.985 24.9885 260.084 27.2913 260.095 31.0286C260.107 34.8916 260.215 37.3434 260.378 37.4442C260.551 37.551 260.641 35.6435 260.641 31.9176C260.641 28.3004 260.738 26.2279 260.905 26.2279C261.053 26.2279 261.188 25.3854 261.212 24.3145L261.255 22.4012L261.433 23.8527L261.61 25.3041L261.653 23.5071C261.682 22.3862 261.795 21.7715 261.96 21.8732C262.11 21.9662 262.236 21.7167 262.253 21.2951C262.273 20.741 262.339 20.8463 262.509 21.7118C262.843 23.4127 263.015 23.3576 263.015 21.5495C263.015 19.9172 263.398 19.3261 264.039 19.9673C264.258 20.1862 264.335 20.1462 264.335 19.8147C264.335 19.0543 264.861 19.3199 264.884 20.0919L264.904 20.8178L265.266 20.026C265.466 19.5906 265.634 19.3898 265.641 19.5798C265.649 19.7698 265.78 19.8468 265.934 19.7506C266.236 19.5643 273.256 19.2768 275.018 19.3787C275.599 19.4113 276.549 19.4358 277.129 19.4309C277.71 19.4269 283.408 19.4187 289.793 19.4146C296.178 19.4109 301.699 19.4024 302.061 19.3983C302.424 19.3946 309.963 19.3945 318.815 19.3981C327.666 19.4018 335.087 19.3976 335.304 19.39C336.687 19.3354 339.376 19.4063 339.529 19.4996C339.629 19.562 339.935 19.4491 340.209 19.2493C340.548 19.0005 340.852 18.9643 341.169 19.1339C341.443 19.2811 347.053 19.3659 354.932 19.3422C362.247 19.3218 368.362 19.383 368.521 19.4817C368.681 19.58 368.811 19.5645 368.811 19.4491C368.811 19.3317 373.916 19.2355 380.156 19.2355C387.145 19.2355 391.5 19.3317 391.5 19.4862C391.5 19.624 391.637 19.6 391.805 19.4328C392.015 19.222 392.26 19.2093 392.602 19.392C392.873 19.5372 393.211 19.5836 393.354 19.4952C393.496 19.4067 395.944 19.3333 398.792 19.3313C402.272 19.3294 404.132 19.2269 404.463 19.0202C404.84 18.7849 405.075 18.7873 405.464 19.0283C405.894 19.297 409.005 19.4291 413.794 19.3827C414.084 19.3789 417.93 19.3704 422.34 19.3623C427.419 19.35 430.548 19.244 430.876 19.0678C431.244 18.8713 431.48 18.8741 431.684 19.08C432.07 19.4662 434.319 19.4491 434.711 19.0557C434.95 18.8163 435.171 18.824 435.666 19.0883C436.11 19.326 436.827 19.3819 437.98 19.2677C438.898 19.1768 439.769 19.1102 439.914 19.1196C440.059 19.1278 441.056 19.1987 442.13 19.2745C443.425 19.3659 444.289 19.3031 444.694 19.0854C445.113 18.8607 445.41 18.8424 445.643 19.0267C446.293 19.5412 448.286 19.6235 449.057 19.1678C449.647 18.8191 449.905 18.7983 450.465 19.0535C451.348 19.456 453.568 19.4577 453.969 19.0574C454.206 18.8205 454.438 18.8205 454.957 19.0574C455.377 19.2486 457.094 19.3669 459.446 19.3669H463.256L463.329 28.6697C463.37 33.7863 463.402 29.422 463.402 18.971C463.402 8.52005 463.369 4.20336 463.329 9.37835L463.257 18.7874L459.632 18.8938C457.639 18.9521 455.895 18.906 455.758 18.7877C455.402 18.4856 453.828 18.524 453.634 18.8391C453.398 19.2212 451.858 19.1629 450.835 18.7327C450.071 18.4114 449.823 18.4151 448.956 18.7612C448.37 18.9953 447.63 19.0944 447.167 18.9994C446.733 18.9105 446.012 18.7637 445.565 18.6728C445.096 18.5774 444.49 18.6484 444.132 18.84C443.707 19.0671 443.068 19.1111 442.108 18.979C441.337 18.8726 440.261 18.7984 439.716 18.8139C437.236 18.884 436.409 18.862 435.363 18.696C434.613 18.577 434.242 18.6148 434.242 18.8101C434.242 19.1739 432.486 19.1984 432.263 18.8388C432.073 18.5309 430.638 18.4808 430.455 18.7752C430.303 19.0227 424.239 18.9651 423.431 18.7082C423.108 18.6059 422.739 18.6267 422.611 18.7551C422.482 18.8844 421.302 18.902 419.957 18.796C418.625 18.6895 417.347 18.6931 417.116 18.804C416.886 18.915 415.866 18.97 414.85 18.9264C411.345 18.7755 410.085 18.7849 408.298 18.9765C406.816 19.1351 406.352 19.0854 405.613 18.6875C404.75 18.2229 404.701 18.2228 404.191 18.6837C403.778 19.0576 403.418 19.125 402.529 18.9936C400.903 18.753 400.744 18.7506 396.437 18.8961L392.536 19.0283L392.018 18.3704C391.686 17.9486 391.501 17.8514 391.501 18.0996C391.501 18.6913 389.988 19.0077 387.939 18.8447C386.923 18.764 385.769 18.7996 385.375 18.9235C384.928 19.0642 384.312 19.0356 383.743 18.8476C383.08 18.6286 382.542 18.6233 381.783 18.8272C381.033 19.0294 380.35 19.0258 379.366 18.815C378.318 18.5903 377.717 18.5989 376.816 18.8517C375.875 19.1155 375.281 19.1159 373.873 18.8554C372.592 18.6177 371.911 18.6051 371.384 18.8098C370.492 19.1564 369.084 18.9069 368.876 18.3652C368.756 18.0528 368.674 18.0939 368.505 18.5531C368.357 18.9518 368.138 19.0966 367.824 19.0021C367.569 18.9255 366.589 18.8496 365.645 18.8333C362.51 18.7799 347.07 18.7892 345.462 18.8455C344.592 18.874 343.523 18.8871 343.088 18.87C342.652 18.8537 340.903 18.8455 339.201 18.8496C337.499 18.8577 335.876 18.7395 335.595 18.5887C335.269 18.4141 335.052 18.4084 334.996 18.5724C334.948 18.7138 334.493 18.8317 333.985 18.8342C332.355 18.8423 324.932 18.8379 323.432 18.8259C321.841 18.8137 308.372 18.8626 306.679 18.8838C306.098 18.892 305.06 18.8097 304.372 18.702C303.499 18.5654 303 18.607 302.72 18.8394C302.397 19.1077 302.013 19.1077 300.755 18.8404C299.84 18.6463 298.884 18.5949 298.45 18.7164C298.042 18.8306 297.59 18.8909 297.445 18.8497C296.869 18.6874 278.406 18.674 277.789 18.8334C277.426 18.9284 276.595 18.8955 275.942 18.7605C274.501 18.462 273.594 18.4857 273.176 18.8327C272.968 19.0051 272.389 18.9696 271.45 18.7258C270.54 18.4897 269.821 18.4417 269.428 18.5909C269.093 18.7185 268.492 18.771 268.093 18.7082C267.694 18.6454 266.93 18.5257 266.395 18.4421C265.589 18.3161 265.403 18.1672 265.311 17.5733C265.205 16.8943 265.189 16.8868 265.004 17.4318C264.879 17.8008 264.667 17.9526 264.413 17.8551C264.195 17.7715 263.912 17.8674 263.783 18.0713C263.602 18.3571 263.549 18.362 263.546 18.0958C263.542 17.9058 263.423 17.8238 263.278 17.9135C263.115 18.0142 263.001 17.4907 262.981 16.5435L262.948 15.0105L262.628 16.5939L262.307 18.1774L262.112 17.1217C262.005 16.5411 261.728 15.3535 261.497 14.4826C261.065 12.8505 260.737 8.57643 260.637 3.26631C260.545 -1.56402 260.187 1.08095 260.1 7.22491C260.029 12.2855 260.012 12.4475 259.839 9.73211C259.737 8.13543 259.638 5.37431 259.62 3.59618C259.6 1.81806 259.481 0.363281 259.351 0.363281C259.222 0.363281 259.042 2.59006 258.951 5.31162C258.742 11.6156 258.471 15.9439 258.327 15.302C258.25 14.9611 258.152 14.9021 258.019 15.1173C257.787 15.4929 257.231 9.21008 257.167 5.49591L257.122 2.87061L256.937 5.77364C256.835 7.37032 256.722 9.86438 256.685 11.3159C256.58 15.4711 256.21 12.5696 256.13 6.96123L256.063 2.34277L255.878 6.96123C255.658 12.4481 255.717 11.9931 255.247 11.8124C254.947 11.697 254.845 11.9943 254.769 13.2063C254.717 14.0535 254.627 12.1934 254.57 9.07262C254.473 3.76327 254.457 3.61049 254.322 6.69731L254.178 9.99641L254.02 5.64187C253.856 1.16089 253.719 0.36353 253.106 0.36353C252.709 0.36353 252.501 1.30901 252.38 3.66251C252.314 4.94388 252.278 4.76756 252.192 2.73871C252.105 0.689029 252.058 1.12254 251.935 5.11402L251.785 9.99641L251.728 5.18159L251.671 0.36689L251.077 0.457353C250.67 0.51933 250.431 0.787669 250.317 1.31345L250.15 2.07922L250.118 1.33784C250.101 0.916848 249.973 0.666962 249.822 0.759601C249.677 0.849305 249.54 1.77668 249.517 2.82047C249.476 4.67945 249.472 4.69129 249.295 3.39871C249.195 2.67292 249.095 5.61933 249.072 9.94614C249.044 15.1133 248.94 17.7572 248.767 17.6501C248.622 17.5604 248.503 17.692 248.503 17.9423C248.503 18.812 248.128 18.017 247.956 16.7813L247.782 15.5388L247.745 16.9244C247.717 17.9846 247.614 18.3099 247.301 18.3099C246.62 18.3099 245.383 17.5549 245.254 17.0599C245.18 16.7753 245.121 16.8826 245.102 17.336C245.086 17.7571 244.957 18.0068 244.808 17.9141C244.663 17.8244 244.544 17.9345 244.544 18.1625C244.544 18.7253 243.692 18.6803 243.002 18.0813C242.619 17.7494 242.422 17.2543 242.4 16.5638C242.371 15.6438 242.339 15.6942 242.106 17.0566L241.846 18.5741H240.325C239.278 18.5741 238.699 18.4477 238.467 18.1684C238.268 17.9279 238.056 16.5564 237.948 14.8035L237.765 11.8445L237.694 14.4836C237.626 16.9767 237.283 19.4046 237.171 18.1784C237.127 17.6866 237.107 17.6912 236.885 18.2445C236.662 18.7986 236.101 19.082 236.101 18.6403C236.102 18.5314 235.063 18.4846 233.793 18.5364C232.523 18.5882 231.069 18.6204 230.561 18.6086C229.603 18.5841 228.463 18.5882 226.208 18.6249C223.415 18.6689 223.441 18.6782 223.4 17.584L223.363 16.5944L223.203 17.6501C223.054 18.6271 222.983 18.7018 222.251 18.6542C220.805 18.5605 220.406 18.4695 220.21 18.1905C220.095 18.0274 220.014 18.1033 220.012 18.3756C220.009 18.816 219.908 18.8825 219.151 18.943C218.91 18.9634 218.782 18.0776 218.677 15.6704L218.532 12.3716L218.479 15.5692L218.426 18.7666L217.415 18.5818C216.859 18.4803 216.176 18.4795 215.898 18.5799C215.62 18.6807 214.026 18.7679 212.357 18.7741C210.689 18.7781 209.205 18.8165 209.06 18.8544C208.914 18.8911 208.466 18.8299 208.063 18.7182C207.661 18.6052 206.858 18.6325 206.281 18.7789C205.593 18.9534 205.175 18.9559 205.07 18.7871C204.98 18.6416 204.372 18.591 203.687 18.6721C201.994 18.8728 197.996 18.8731 196.33 18.6731C195.316 18.5516 194.944 18.5945 194.944 18.8334C194.944 19.0646 194.656 19.1107 193.955 18.9912C192.127 18.6801 190.597 18.6467 189.724 18.8991C189.11 19.0765 188.745 19.0572 188.476 18.8338C188.183 18.5912 187.693 18.5884 186.358 18.8216C185.041 19.0512 184.414 19.0495 183.768 18.8175C183.136 18.5887 182.57 18.5834 181.574 18.7971C180.802 18.9626 179.911 18.9945 179.475 18.8714C179.059 18.7539 178.422 18.6883 178.059 18.7258C176.463 18.8905 172.585 18.8733 171.902 18.6972C171.479 18.5891 170.731 18.6422 170.187 18.8187C169.557 19.023 168.857 19.0544 168.175 18.9092C167.6 18.7869 166.249 18.7889 165.174 18.9133C163.842 19.0682 163.128 19.0507 162.935 18.8571C162.577 18.4991 160.119 18.4815 160.119 18.8367C160.119 19.3403 158.065 18.9652 156.85 18.2399C156.791 18.2072 156.487 18.4098 156.173 18.6942C155.686 19.135 155.565 19.1546 155.357 18.8263C155.223 18.6143 155.112 18.5446 155.11 18.6714C155.108 18.7978 154.946 18.7693 154.751 18.6078C154.557 18.4464 154.322 18.3892 154.23 18.4809C154.138 18.573 153.882 18.4973 153.661 18.3147C153.334 18.0435 153.251 18.0488 153.216 18.3431C153.191 18.5425 153.092 18.0521 152.995 17.2539L152.817 15.8023L152.774 17.0559C152.742 17.9751 152.625 18.3094 152.335 18.3094C152.118 18.3094 151.94 18.1708 151.94 18.0016C151.94 17.8324 151.862 17.7709 151.768 17.8654C151.405 18.2279 150.9 17.0665 150.892 15.8526C150.888 15.0756 150.781 14.6467 150.62 14.7465C150.448 14.8529 150.341 13.0453 150.314 9.54982C150.273 4.43705 150.261 4.32378 150.06 7.09301C149.943 8.68969 149.75 10.5305 149.63 11.1838L149.412 12.3713L149.225 10.6832C149.122 9.75469 149.021 8.15144 149.001 7.12038L148.965 5.24567L148.752 7.45187C148.635 8.66524 148.473 9.72414 148.392 9.80503C148.311 9.88577 148.22 7.88372 148.191 5.35567L148.136 0.759228L147.993 4.322C147.83 8.36579 147.563 8.0814 147.289 3.57204C147.102 0.496845 146.676 -0.717815 146.643 1.73329C146.631 2.75966 146.564 2.99323 146.398 2.60656C146.263 2.29138 146.148 5.00125 146.113 9.33629C146.081 13.328 145.972 16.0595 145.871 15.4063C145.696 14.2826 145.683 14.3182 145.628 16.0661C145.591 17.244 145.496 17.7267 145.368 17.3981C145.196 16.9574 145.142 17.0054 144.997 17.7279C144.876 18.3352 144.682 18.5732 144.31 18.5732C144.024 18.5732 143.704 18.7139 143.598 18.8856C143.466 19.1004 143.342 19.0385 143.205 18.6875C143.031 18.2425 143.003 18.2363 142.987 18.6389C142.978 18.8929 142.849 19.1008 142.704 19.1008C142.559 19.1008 142.42 18.5366 142.394 17.8472L142.348 16.5936L142.248 17.6869C142.164 18.6189 142.073 18.7604 141.635 18.6458C141.352 18.572 141.117 18.3176 141.113 18.0803C141.104 17.6942 141.071 17.6917 140.783 18.0558C140.597 18.2919 140 18.4802 139.367 18.5027C138.043 18.5496 137.964 18.3629 137.959 15.1911C137.957 13.7973 137.859 13.0577 137.691 13.1614C137.544 13.2523 137.428 14.4836 137.428 15.9479C137.428 18.0355 137.351 18.5716 137.054 18.5716C136.848 18.5716 136.62 18.4232 136.547 18.2417C136.472 18.055 136.405 18.1247 136.393 18.4024C136.377 18.791 136.236 18.8584 135.713 18.7273C135.35 18.6363 135.053 18.6531 135.053 18.764C135.053 18.8757 134.633 18.9671 134.118 18.9671C133.335 18.9671 133.16 18.8599 133.04 18.3073C132.792 17.1648 132.721 17.0947 132.7 17.9692C132.683 18.6632 132.594 18.7875 132.217 18.6483C131.963 18.5545 131.668 18.3506 131.561 18.1947C131.433 18.0075 131.366 18.0288 131.364 18.2572C131.362 18.4472 131.241 18.529 131.096 18.4393C130.951 18.3496 130.832 18.3766 130.832 18.4993C130.832 18.622 130.624 18.7354 130.371 18.7513C130.117 18.7676 129.642 18.8451 129.315 18.9246C128.989 19.0041 128.722 18.9572 128.722 18.8202C128.722 18.6832 128.484 18.5715 128.194 18.5715C127.904 18.5715 127.664 18.4231 127.662 18.2416C127.658 17.9904 127.61 17.9868 127.458 18.2253C127.348 18.3986 127.023 18.5054 126.736 18.4626C126.45 18.4198 125.956 18.5536 125.639 18.7599C125.234 19.0237 124.921 19.0591 124.584 18.8785C124.32 18.7374 123.986 18.6399 123.84 18.6619C123.695 18.6823 123.507 18.0487 123.422 17.2504C123.337 16.4521 123.247 16.0732 123.224 16.4083C123.2 16.7435 123.062 16.9443 122.917 16.8546C122.772 16.7648 122.653 16.9443 122.653 17.2537C122.653 17.9418 122.189 18.4109 121.4 18.5207C120.978 18.5794 120.801 18.4652 120.787 18.1248C120.774 17.8544 120.627 18.0318 120.446 18.5317C120.183 19.258 120.07 19.3504 119.818 19.0458C119.648 18.8415 119 18.6466 118.377 18.613C117.754 18.5804 117.037 18.4883 116.783 18.4112C116.508 18.3276 116.318 18.411 116.313 18.6184C116.309 18.8178 116.082 18.6999 115.785 18.3431C115.427 17.9129 115.266 17.8421 115.266 18.1144C115.266 18.5108 114.369 18.9048 114.094 18.6296C114.013 18.5485 113.935 17.2849 113.921 15.8213C113.884 11.9956 113.478 11.1158 113.445 14.788C113.417 17.9615 113.302 18.5704 112.731 18.5704C112.529 18.5704 112.354 18.7188 112.343 18.9002C112.327 19.1453 112.289 19.1494 112.194 18.9165C112.123 18.7432 111.91 18.6609 111.721 18.7339C111.531 18.8064 111.183 18.6727 110.946 18.4362C110.555 18.0448 110.517 18.0439 110.517 18.428C110.517 18.6608 110.333 18.9215 110.108 19.0077C109.351 19.2985 108.954 18.2951 108.89 15.9314L108.829 13.6882L108.689 15.6676C108.56 17.4858 108.536 17.3568 108.4 14.084L108.251 10.5211L108.166 14.6119C108.104 17.621 108.024 18.4234 107.863 17.6468C107.743 17.0662 107.619 16.0568 107.587 15.4037L107.529 14.2159L107.351 15.6676L107.173 17.1191L107.104 15.4037C106.974 12.1839 106.613 12.2298 106.586 15.4697C106.561 18.5267 106.257 19.5137 105.937 17.581C105.847 17.0367 105.747 15.1662 105.715 13.4244L105.656 10.2573L105.514 14.48C105.386 18.2902 105.327 18.699 104.91 18.6659C104.656 18.6455 104.449 18.7239 104.449 18.8393C104.449 19.0945 103.388 18.8597 102.932 18.5004C102.708 18.3259 102.602 18.343 102.602 18.5538C102.602 18.7255 102.497 18.8009 102.369 18.7214C102.24 18.6419 101.558 18.5575 100.852 18.533C100.146 18.5086 99.4807 18.3589 99.3741 18.1999C99.2551 18.0221 99.1788 18.089 99.1764 18.3728C99.1745 18.6268 99.0537 18.8347 98.9086 18.8347C98.7464 18.8347 98.6298 17.3355 98.6065 14.9419L98.5699 11.0492L98.3526 14.4585C98.0065 19.8887 97.6 19.2379 97.5333 13.1473L97.4754 7.88229L97.327 13.2925C97.2141 17.4088 97.1518 18.1031 97.0678 16.1956L96.9569 13.6883L96.8774 15.7996C96.7584 18.9701 96.7445 19.0005 95.4895 18.8808C94.758 18.8111 94.4246 18.6537 94.4246 18.3787C94.4246 18.0534 94.3508 18.0395 94.0305 18.3053C93.8136 18.4851 93.3387 18.5757 92.9751 18.5064C92.5314 18.4216 92.314 18.4982 92.314 18.7392C92.314 18.937 92.1954 19.0985 92.0503 19.0985C91.9051 19.0985 91.7845 18.7718 91.7825 18.3726C91.7806 17.9439 91.6969 17.7751 91.5791 17.9603C91.2179 18.5285 90.0908 18.775 88.2233 18.694C87.0476 18.6431 86.3147 18.7226 86.1959 18.9154C86.0695 19.1205 85.7968 19.0166 85.3441 18.5909L84.6783 17.9651L84.1652 18.5977L83.6521 19.2304L83.4747 18.4386C83.2041 17.2298 83.1234 17.0671 83.1006 17.6846C83.0883 17.9958 82.9016 18.3184 82.684 18.402C82.3864 18.5162 82.2796 18.3434 82.2535 17.7046L82.2168 16.8551L82.0224 17.7787C81.9156 18.2868 81.8124 18.6164 81.7933 18.5111C81.7729 18.4059 81.4619 18.4324 81.0989 18.5706C80.5553 18.7773 80.4363 18.7414 80.4215 18.3663C80.4093 18.0107 80.3408 18.0409 80.1174 18.5049C79.6923 19.3866 79.4427 19.2372 79.0147 17.8452L78.6295 16.5916L78.6091 17.5814C78.5928 18.5028 78.5357 18.571 77.7926 18.571C77.1063 18.571 76.9685 18.4507 76.8083 17.7133L76.622 16.8555L76.485 17.8947C76.3546 18.8854 76.3269 18.9123 75.8864 18.4697C75.4459 18.0268 75.4246 18.0306 75.4246 18.5521C75.4246 18.8526 75.306 19.0987 75.1609 19.0987C75.0158 19.0987 74.8951 18.8908 74.8931 18.6369C74.8893 18.2957 74.8328 18.2638 74.6734 18.515C74.5083 18.7751 74.2821 18.7882 73.7099 18.5709C73.1377 18.3531 72.9116 18.3662 72.7465 18.6267C72.6279 18.8139 72.5272 18.848 72.5227 18.7029C72.519 18.5577 72.4012 18.6169 72.2631 18.835C72.0645 19.1474 71.9084 19.1669 71.5232 18.9284C71.2546 18.762 70.7168 18.687 70.3279 18.7612C69.8096 18.8603 69.6207 18.7898 69.6207 18.4917C69.6207 18.2691 69.4723 18.0377 69.2909 17.9773C69.0403 17.8937 68.9265 15.8168 68.816 9.31215L68.6709 0.756739L68.5995 8.27836C68.5572 12.7728 68.4369 15.5874 68.3016 15.272C68.1475 14.9132 68.0688 15.3951 68.0562 16.7747L68.0358 18.8052L66.5959 18.7566C65.1864 18.7093 65.1508 18.6886 64.9083 17.7818L64.6605 16.8555L64.6319 17.6976C64.6075 18.4942 64.086 19.2545 64.069 18.5205C64.0649 18.3072 63.9581 18.352 63.7922 18.6371C63.4995 19.1398 62.758 19.2706 62.758 18.8194C62.758 18.6656 62.6528 18.605 62.524 18.6845C62.3956 18.764 62.1494 18.66 61.9771 18.4517C61.8046 18.2441 61.4947 18.1392 61.2876 18.2187C60.9904 18.3329 60.9024 18.0374 60.8697 16.8176L60.8281 15.2718L60.6471 16.5914C60.5465 17.3274 60.4372 17.6191 60.4009 17.2511C60.3418 16.6546 60.3113 16.677 60.0789 17.4848C59.7369 18.6742 59.1796 19.2525 58.9506 18.6555C58.8039 18.2726 58.7452 18.2803 58.4134 18.728C58.0971 19.1546 57.9595 19.1806 57.5008 18.9005C57.2037 18.719 56.7909 18.5706 56.5833 18.5706C56.3758 18.5706 56.1367 18.4222 56.0521 18.2407C55.929 17.9773 55.867 17.9779 55.7439 18.2427C55.6591 18.425 55.481 18.5073 55.3481 18.4249C55.2152 18.3429 55.1068 18.4616 55.1068 18.6871C55.1068 19.1301 53.9298 19.2782 53.6758 18.8669C53.5972 18.7397 53.0262 18.643 52.407 18.652C51.3701 18.6683 51.2681 18.6076 51.1146 17.8937C50.9544 17.149 50.945 17.1446 50.8712 17.7787C50.8292 18.1416 50.7167 17.6667 50.6218 16.7232L50.4489 15.0076L50.4033 16.9241L50.3576 18.8406L49.2363 18.6743C48.6196 18.5829 47.9666 18.3212 47.7852 18.0929C47.5003 17.7345 47.4555 17.7744 47.4555 18.3881C47.4555 18.9651 47.3348 19.0983 46.8115 19.0983C46.4573 19.0983 46.0941 18.9796 46.0044 18.8344C45.9147 18.6893 45.611 18.5706 45.3293 18.5706C44.8824 18.5706 44.8107 18.3607 44.7663 16.9212L44.7154 15.2718L44.6224 16.8976C44.5523 18.1203 44.4178 18.5703 44.0796 18.7127C43.4095 18.9949 40.8596 19.0638 40.8596 18.7996C40.8596 18.6736 40.6648 18.5709 40.427 18.5709C40.1889 18.5709 39.8367 18.3629 39.6439 18.109C39.3178 17.6792 39.293 17.6863 39.2852 18.2125C39.2689 19.1954 37.2881 19.4469 35.8886 18.6434C35.1381 18.2126 35.0691 18.2126 34.5932 18.6434C33.9295 19.2443 31.9171 19.2407 30.8606 18.6353C30.1976 18.2561 29.9691 18.2329 29.586 18.504C28.5161 19.2617 27.8814 19.3887 27.2461 18.9723C26.5373 18.5077 25.7338 18.4564 25.0338 18.8312C24.629 19.0481 24.4993 18.9685 24.2805 18.3693L24.0163 17.6457L23.996 18.3431C23.9715 19.1086 23.2504 19.5782 23.0199 18.9774C22.9408 18.7715 22.7199 18.6626 22.5289 18.736C22.3377 18.8094 22.1033 18.7401 22.0075 18.5872C21.7458 18.1634 20.6571 18.2484 20.2631 18.7234C19.9949 19.0468 19.614 19.1063 18.5819 18.9872C17.8479 18.9024 16.535 18.8033 15.6644 18.7675L14.0814 18.7014L13.9351 15.9303C13.8323 13.9802 13.7737 13.637 13.7374 14.7718C13.7088 15.6587 13.6126 16.9187 13.523 17.5718L13.3603 18.7593L10.9509 18.9154C9.55202 19.0063 8.43632 18.9663 8.29064 18.8203C8.15287 18.6825 7.71427 18.5692 7.31652 18.5692C6.91868 18.5692 6.51216 18.4378 6.41291 18.2772C6.28573 18.0713 6.16996 18.0861 6.02159 18.3262C5.87811 18.5586 5.7281 18.3784 5.55066 17.7606L5.29061 16.8539L5.26615 17.9756C5.24169 19.223 4.78829 19.4362 3.73537 18.6985C3.35262 18.4302 3.10952 18.3919 2.99265 18.5811C2.87608 18.7698 2.6103 18.7254 2.18385 18.4457C1.80884 18.1998 1.5487 18.1465 1.5487 18.3153C1.5487 18.4723 1.44232 18.535 1.31229 18.4546C1.18226 18.3743 0.974772 18.5159 0.850611 18.7691C0.71895 19.0374 0.568141 15.2134 0.488247 9.59661C0.39368 2.94273 0.351288 5.83999 0.351288 18.9654C0.351206 31.5826 0.397348 34.8635 0.488247 28.7302C0.614609 20.2002 0.660252 19.4874 1.08695 19.4158L1.08948 19.4154Z" fill="black"/>
</svg>
