<svg width="464" height="39" viewBox="0 0 464 39" fill="none" xmlns="http://www.w3.org/2000/svg">
<path d="M162.425 21.3202C162.648 20.7378 163.098 20.9535 163.098 21.6429C163.098 22.0058 163.335 22.5402 163.626 22.8305C164.093 23.2982 164.158 23.7418 164.194 26.7232L164.235 30.0881L164.436 25.6455C164.547 23.2021 164.707 21.1337 164.792 21.049C164.876 20.9644 164.96 21.1821 164.977 21.5329C165.005 22.1001 165.03 22.0831 165.209 21.379C165.41 20.5916 165.411 20.5911 165.442 21.291C165.458 21.6781 165.611 22.0405 165.778 22.0964C165.97 22.1604 166.155 23.3624 166.28 25.3513C166.389 27.0856 166.504 28.564 166.536 28.6366C166.734 29.084 167.02 25.8846 167.037 23.0369L167.057 19.6805L167.646 19.8983C167.969 20.018 168.314 20.4002 168.411 20.7475C168.562 21.2863 168.593 21.3015 168.623 20.8511C168.656 20.3746 168.695 20.3875 169.036 20.9831L169.413 21.6429L169.441 20.8511C169.458 20.4157 169.534 20.2141 169.609 20.4033C169.718 20.6749 169.811 20.6649 170.05 20.3556C170.579 19.6726 172.064 19.6974 172.077 20.3894C172.085 20.8184 172.113 20.8167 172.453 20.3658C172.771 19.9454 173.187 19.8842 175.545 19.9105C178.931 19.9484 178.669 19.9516 181.038 19.8421C182.127 19.7918 183.165 19.8637 183.345 20.0015C183.525 20.1394 184.059 20.168 184.532 20.065C185.38 19.8802 187.007 19.8026 188.294 19.8854C188.903 19.9245 188.957 20.0348 188.995 21.3133L189.037 22.6989L189.217 21.3793C189.317 20.6536 189.419 20.1785 189.444 20.3237C189.468 20.4688 189.593 20.423 189.721 20.222C189.874 19.98 190.185 19.9148 190.64 20.0291L191.328 20.2018L191.39 28.4441L191.452 36.6863L191.525 28.4689C191.599 20.2529 191.599 20.2513 192.18 20.0995C192.505 20.0144 192.849 20.0885 192.963 20.2676C193.121 20.5153 193.167 20.5131 193.171 20.2578C193.173 20.0764 193.412 19.9279 193.702 19.9279C194.114 19.9279 194.238 20.1163 194.268 20.7856C194.304 21.605 194.312 21.5969 194.465 20.6042C194.618 19.6135 194.647 19.5867 195.087 20.0293C195.423 20.3667 195.549 20.9208 195.549 22.0581C195.549 22.9186 195.662 23.6227 195.8 23.6227C195.938 23.6227 196.093 24.3056 196.146 25.1402C196.225 26.4063 196.252 26.2861 196.306 24.4145C196.343 23.1807 196.459 21.6962 196.567 21.1155C196.792 19.9035 197.091 25.5719 197.192 32.9916C197.233 35.9539 197.3 34.5266 197.391 28.7909C197.496 22.175 197.607 20.0774 197.858 19.9937C198.04 19.9333 198.196 20.1017 198.207 20.3678C198.223 20.8068 198.247 20.8028 198.452 20.3238C198.577 20.0335 198.687 19.9515 198.697 20.1414C198.706 20.3314 198.834 20.4135 198.98 20.3238C199.148 20.2199 199.244 20.9757 199.244 22.404C199.244 23.6378 199.347 24.7113 199.474 24.7895C199.601 24.8678 199.789 23.9566 199.893 22.7645C199.997 21.5725 200.213 20.3576 200.372 20.0646C200.653 19.549 200.669 19.553 200.853 20.1918C201.029 20.8025 201.056 20.8123 201.212 20.3237C201.361 19.8573 201.586 19.8024 203.148 19.8518C204.121 19.8823 205.242 19.9122 205.641 19.9178C206.21 19.9259 206.371 20.0565 206.384 20.5217C206.4 21.1099 206.404 21.1103 206.625 20.5584C206.877 19.9351 207.59 19.5584 207.818 19.9279C207.9 20.0604 208.141 20.1018 208.355 20.0198C208.568 19.938 209.039 19.9454 209.402 20.0361L210.061 20.2016L210.117 25.013L210.174 29.8244L210.315 25.074C210.392 22.4612 210.527 20.6798 210.615 21.1153L210.773 21.907L210.813 21.0796C210.861 20.0867 211.893 19.2271 212.414 19.7469C212.587 19.9189 213.226 20.0596 213.835 20.0596H214.942L215.085 24.1503L215.227 28.2409L215.282 24.4951C215.335 20.9552 215.37 20.7267 215.924 20.3385C216.934 19.6307 217.181 19.8142 217.234 21.3132L217.282 22.6987L217.38 21.296C217.537 19.0374 218.085 19.7195 218.246 22.3734C218.434 25.4785 218.763 25.5825 218.789 22.5448C218.801 21.1779 218.874 20.2215 218.952 20.4193C219.073 20.7231 219.131 20.7231 219.323 20.4193C219.462 20.2002 219.563 20.9878 219.583 22.4348C219.616 24.776 219.62 24.7949 219.962 23.7544C220.154 23.1738 220.32 22.095 220.331 21.3572C220.351 20.047 220.371 20.0156 221.142 20.0156C221.578 20.0156 221.934 20.1117 221.934 20.229C221.934 20.3464 222.238 20.3266 222.611 20.185C222.983 20.0435 223.576 19.9276 223.93 19.9276H224.572L224.627 25.1399L224.681 30.3523L224.827 25.3379C224.907 22.58 225.073 20.1164 225.195 19.8632C225.477 19.2819 225.891 19.5165 225.891 20.2576C225.891 20.7692 225.92 20.7799 226.221 20.3752C226.514 19.9793 227.359 19.9227 233.872 19.8629L241.193 19.7957L241.238 20.7194L241.282 21.6431L241.387 20.6409C241.48 19.7408 241.55 19.6593 242.068 19.8401C242.385 19.9508 242.942 20.0335 243.304 20.0238C246.372 19.9419 249.354 19.9338 249.9 20.0058C250.263 20.0537 250.76 19.996 251.005 19.8776C251.257 19.756 251.519 19.7724 251.607 19.9155C251.693 20.0547 251.908 20.1247 252.085 20.071C252.262 20.0174 252.792 19.9067 253.264 19.8252L254.121 19.677L254.154 22.5075L254.187 25.338L254.416 23.2267C254.779 19.8796 254.779 19.8794 255.81 20.0729C256.297 20.1642 256.762 20.132 256.842 20.0012C257.001 19.7436 258.205 19.7659 259.077 20.0426C259.445 20.1598 259.7 20.0691 259.874 19.7586C260.108 19.3403 260.181 19.3366 260.758 19.7145C261.212 20.0119 261.753 20.0854 262.699 19.9784C263.421 19.8969 264.486 19.8419 265.067 19.8562C265.647 19.8705 267.843 19.8779 269.948 19.8726C272.052 19.8677 274.99 19.8815 276.478 19.9044C278.069 19.9288 279.413 19.8227 279.741 19.6469C280.18 19.4118 280.512 19.444 281.296 19.7977C282.21 20.21 282.438 20.2143 284.035 19.8498C284.994 19.6312 285.778 19.5561 285.778 19.683C285.778 19.9754 294.461 19.9588 295.009 19.6655C295.253 19.5351 295.679 19.5897 296.071 19.8013C296.525 20.0463 297.244 20.1075 298.408 20.0003C299.869 19.8659 300.125 19.91 300.364 20.3369C300.63 20.8122 300.646 20.8114 300.841 20.312C300.952 20.0282 301.075 21.8149 301.114 24.2824L301.185 28.769L301.33 24.6334C301.41 22.3588 301.564 20.4091 301.673 20.3008C301.782 20.1924 301.897 23.7161 301.928 28.1312L301.984 36.1585L302.125 28.3731C302.26 20.9427 302.419 19.3833 302.955 20.2296C303.122 20.4931 303.183 20.5005 303.186 20.2577C303.194 19.5802 303.759 19.9618 304.162 20.9175C304.501 21.7211 304.605 23.4334 304.714 30.0225C304.788 34.486 304.949 38.1379 305.074 38.1379C305.199 38.1379 305.324 34.1891 305.353 29.3628C305.386 23.7157 305.462 21.6225 305.565 23.4907C305.652 25.0874 305.748 25.889 305.776 25.2721C305.805 24.6552 305.942 24.1505 306.08 24.1505C306.219 24.1505 306.367 23.3488 306.41 22.369C306.485 20.6681 306.501 20.7248 306.778 23.6226L307.068 26.6576L307.134 24.6783C307.179 23.3445 307.262 22.9141 307.391 23.3587C307.533 23.851 307.634 23.5159 307.791 22.0391C307.93 20.7253 308.064 20.235 308.192 20.5809C308.364 21.0486 308.413 21.0215 308.668 20.317C308.913 19.6403 308.956 19.6139 308.974 20.1258C308.994 20.6906 309.522 21.0085 309.522 20.4557C309.522 20.3105 309.626 20.1918 309.753 20.1918C309.88 20.1918 310.097 22.8936 310.236 26.1958L310.488 32.1998L310.533 27.1411C310.578 22.1118 310.681 21.1172 311.133 21.3965C311.263 21.4768 311.369 21.2979 311.369 20.9991C311.369 19.857 311.899 20.518 311.939 21.7093L311.98 22.9629L312.149 21.6433C312.316 20.3276 312.317 20.3264 312.492 21.2474C312.589 21.7554 312.744 25.3777 312.837 29.2968C313.09 39.9014 313.414 39.9014 313.454 29.2968C313.474 24.2165 313.584 19.9086 313.702 19.7237C314.005 19.2452 314.67 20.068 314.933 21.2474C315.046 21.7554 315.219 25.0808 315.317 28.637L315.495 35.1029L315.585 27.8453C315.636 23.7054 315.752 21.1545 315.855 21.9072C316.009 23.0245 316.043 23.0852 316.08 22.3031C316.104 21.7951 316.359 21.0231 316.647 20.5876L317.171 19.7959L317.208 24.2824C317.228 26.75 317.326 30.491 317.427 32.5957L317.612 36.4225L317.715 29.9566L317.818 23.4907L317.968 28.3731L318.118 33.2555L318.175 27.2359C318.212 23.3041 318.323 21.2728 318.496 21.3794C318.65 21.4747 318.768 21.18 318.78 20.6692C318.793 20.1889 318.866 19.9578 318.944 20.1557C319.064 20.4579 319.123 20.4582 319.308 20.1577C319.477 19.8849 319.602 19.8733 319.837 20.1086C320.177 20.4476 321.377 20.1249 321.696 19.6088C322.008 19.1025 322.716 19.6223 322.748 20.3813C322.764 20.7933 322.83 20.9204 322.896 20.6709C323.044 20.1072 323.91 19.9473 326.477 20.0098C327.601 20.0371 328.521 19.9647 328.521 19.8486C328.521 19.7325 329.217 19.7163 330.066 19.8123C331.05 19.9236 331.816 19.8776 332.175 19.6855C332.617 19.4486 332.908 19.4717 333.53 19.7933C334.015 20.0444 334.588 20.1357 335.011 20.0295C335.469 19.9146 335.78 19.9793 335.933 20.2218C336.12 20.5177 336.165 20.5047 336.169 20.1538C336.173 19.5824 336.931 19.308 337.409 19.7045C337.857 20.0763 340.898 20.012 341.369 19.6206C341.705 19.3418 342.769 19.5559 342.769 19.9022C342.769 20.1532 345.131 19.9605 345.656 19.6667C345.866 19.5489 346.342 19.5684 346.712 19.7101C347.083 19.8518 348.217 19.9423 349.232 19.9111C350.248 19.8801 351.755 19.8708 352.58 19.8912L354.082 19.9279L354.185 20.9175L354.289 21.9072L354.333 20.7856C354.357 20.1687 354.496 19.6639 354.641 19.6639C354.802 19.6639 354.925 21.0831 354.955 23.2928L355.006 26.9216L355.154 23.5775C355.235 21.7383 355.387 20.1478 355.492 20.0431C355.597 19.9383 355.843 19.9849 356.038 20.1466C356.301 20.3651 356.523 20.349 356.902 20.0838C357.263 19.8313 357.99 19.7618 359.39 19.8461C360.479 19.9116 361.666 19.9441 362.029 19.9182C364.549 19.7388 365.722 19.8835 365.722 20.3741C365.722 20.773 365.759 20.7686 366.079 20.333C366.308 20.0187 366.63 19.8967 366.985 19.9895C367.287 20.0686 367.78 19.9618 368.08 19.7517C368.583 19.3992 368.625 19.4165 368.628 19.9788C368.632 20.3866 368.702 20.4775 368.844 20.254C368.967 20.06 369.462 19.9496 370.027 19.9901L370.998 20.0598L371.049 21.7752L371.1 23.4907L371.194 21.8412C371.246 20.934 371.371 20.1829 371.473 20.1721C371.575 20.1615 371.925 20.1027 372.252 20.0418C372.721 19.9544 372.849 20.0557 372.862 20.5233L372.879 21.1154L373.107 20.5497C373.346 19.9562 374.628 19.7006 376.473 19.8786L377.33 19.9612L377.382 23.4414L377.433 26.9215L377.594 24.2824L377.756 21.6432L377.844 23.6226L377.931 25.6019L378.171 22.8314C378.303 21.3075 378.494 19.9783 378.596 19.8776C378.698 19.7768 379.286 19.7625 379.902 19.8458L381.024 19.9972L381.068 23.5913C381.093 25.568 381.151 26.7103 381.197 26.1297C381.243 25.5491 381.351 24.1167 381.436 22.9467C381.521 21.7767 381.691 20.6568 381.813 20.4581C381.938 20.2559 382.568 20.0688 383.245 20.033L384.453 19.9692L384.498 20.9381L384.542 21.907L384.646 20.9174C384.726 20.1495 384.864 19.9277 385.261 19.9277C385.731 19.9277 385.774 20.1367 385.791 22.5009C385.799 23.9161 385.912 25.3115 386.037 25.6018C386.185 25.9478 386.27 25.2543 386.282 23.5895C386.31 19.6753 386.676 18.6586 387.638 19.8182C387.856 20.0801 388.262 20.1959 388.726 20.1279C389.26 20.0494 389.466 20.1309 389.466 20.4197C389.466 20.7272 389.557 20.7012 389.854 20.308C390.212 19.8341 390.245 19.8945 390.286 21.1153L390.33 22.4349L390.602 21.1813C390.963 19.5167 391.864 19.5545 392.175 21.2474C392.277 21.7994 392.302 21.7657 392.333 21.0411C392.353 20.5648 392.518 20.1175 392.702 20.0472C393.2 19.8561 397.645 19.7578 397.645 19.9378C397.645 20.172 400.907 19.904 401.181 19.6474C401.312 19.5249 401.644 19.5446 401.918 19.6913C402.565 20.0378 406.088 19.993 406.088 19.6384C406.088 19.5414 406.533 19.6192 407.077 19.8113C408.065 20.1599 409.755 20.0721 410.623 19.6269C410.899 19.4853 411.136 19.5068 411.245 19.6833C411.354 19.8606 412.382 19.9515 413.965 19.9239C415.364 19.8994 417.904 19.8905 419.609 19.9035L422.71 19.9276L422.75 20.6533L422.791 21.3791L422.901 20.6533C423.002 19.9873 423.107 19.9276 424.181 19.9276H425.35L425.395 22.8966L425.44 25.8656L425.626 22.9626C425.727 21.3659 425.826 20.037 425.844 20.0094C425.861 19.9816 426.204 19.998 426.604 20.0453C427.003 20.0926 427.656 20.1448 428.055 20.1614L428.78 20.1916L428.83 23.1606L428.879 26.1296L429.028 23.8863C429.11 22.6525 429.252 21.8806 429.344 22.1709C429.437 22.4674 429.524 22.0405 429.541 21.1968C429.578 19.4608 429.967 18.9909 430.33 20.2481C430.552 21.0189 430.583 21.0419 430.614 20.4555C430.646 19.8206 430.661 19.827 431.007 20.6217C431.503 21.7621 431.946 21.9815 431.946 21.0868C431.946 20.6912 432.024 20.4456 432.12 20.5411C432.215 20.6367 432.447 20.5872 432.635 20.4314C432.823 20.2755 433.219 20.2251 433.517 20.3195C434.038 20.4851 434.058 20.6956 434.101 26.4773C434.145 32.4393 434.146 32.4486 434.338 28.7687C434.444 26.7366 434.661 24.0645 434.819 22.8307C434.978 21.5969 435.111 20.4093 435.114 20.1915C435.118 19.8397 435.147 19.8397 435.376 20.1915C435.527 20.4255 435.633 20.4598 435.635 20.2753C435.64 19.8107 436.532 19.6148 437.304 19.9084C437.86 20.1199 438.001 20.3714 438.084 21.3007L438.186 22.4348L438.232 21.2374C438.268 20.2463 438.369 20.0331 438.805 20.0002C439.309 19.9623 439.335 20.1369 439.378 23.8368L439.423 27.7131L439.578 24.1933C439.715 21.0863 439.795 20.6284 440.259 20.2887C440.777 19.9089 440.786 19.9691 440.916 24.9961L441.048 30.0883L441.216 24.8626C441.367 20.1439 441.56 18.6518 441.898 19.5978C441.963 19.7792 442.303 19.9277 442.653 19.9277C443.004 19.9277 443.293 20.0761 443.295 20.2576C443.298 20.4619 443.373 20.487 443.493 20.3236C443.599 20.1784 443.894 20.0248 444.148 19.9821C444.565 19.9122 444.615 20.222 444.663 23.1491L444.717 26.3936L444.874 23.0947C444.96 21.2803 445.056 19.9739 445.088 20.1916C445.13 20.4802 445.2 20.5013 445.348 20.2696C445.459 20.0948 445.783 19.9631 446.069 19.977C446.355 19.9909 446.707 19.9709 446.852 19.9337C446.998 19.8962 447.562 19.8793 448.106 19.8967L449.095 19.928L449.144 22.2373L449.194 24.5465L449.343 22.3033L449.491 20.06L450.811 19.9787C451.536 19.934 453.198 19.9054 454.504 19.915C456.819 19.9322 457.773 19.9199 459.121 19.8574C459.484 19.8407 460.345 19.8492 461.034 19.8774C462.206 19.9248 462.289 19.9752 462.314 20.6538C462.338 21.3684 462.342 21.3697 462.519 20.7394C462.617 20.3873 462.841 20.0513 463.016 19.9928C463.261 19.9112 463.352 22.0612 463.409 29.2102C463.449 34.3383 463.482 29.9832 463.482 19.5322C463.482 9.08124 463.449 4.83555 463.409 10.0973C463.368 15.3591 463.233 19.6642 463.107 19.6642C462.98 19.6642 462.789 19.397 462.681 19.0704L462.485 18.4766L462.368 19.0708C462.271 19.5637 462.134 19.6356 461.565 19.4929C460.931 19.3336 459.5 19.3119 455.631 19.4025C454.8 19.4221 454.004 19.3667 453.864 19.28C453.723 19.1931 453.074 19.2567 452.421 19.421C450.822 19.8238 449.678 19.3518 449.497 18.2141C449.427 17.7778 449.325 17.124 449.269 16.7611C449.213 16.3982 449.152 16.7819 449.132 17.6138C449.099 18.9563 449.029 19.14 448.502 19.2482C447.558 19.4422 445.666 19.3406 445.666 19.0957C445.666 18.9729 445.493 18.8724 445.282 18.8724C444.989 18.8724 444.876 18.4166 444.807 16.959L444.716 15.0456L444.663 17.1922C444.617 19.0931 444.55 19.3545 444.083 19.4767C443.793 19.5526 443.555 19.5176 443.555 19.3989C443.555 19.1467 443.039 19.1939 442.566 19.4893C442.385 19.6026 442.236 19.592 442.236 19.4656C442.236 19.3393 442.003 18.985 441.717 18.6782C441.27 18.1981 441.186 17.6682 441.114 14.8677L441.031 11.6148L440.974 15.3756C440.942 17.444 440.813 19.1364 440.686 19.1364C440.226 19.1364 439.866 18.4058 439.633 17.003L439.396 15.5735L439.363 17.6024C439.334 19.4594 439.288 19.628 438.805 19.5916C438.359 19.5582 438.269 19.3451 438.229 18.2225L438.182 16.8931L438.083 18.1373C437.986 19.3631 437.973 19.3791 437.196 19.2236C436.762 19.1367 436.145 19.0519 435.825 19.035C435.011 18.9922 434.856 18.6789 434.851 17.0754C434.848 16.2386 434.744 15.738 434.591 15.8325C434.433 15.9306 434.304 14.7079 434.253 12.6151C434.184 9.80364 434.161 10.0664 434.113 14.188L434.055 19.1363H433.396C432.966 19.1363 432.736 18.9887 432.736 18.7122C432.736 18.4437 432.591 18.3439 432.341 18.44C432.031 18.559 431.936 18.3506 431.905 17.4786C431.877 16.6904 431.833 16.5772 431.756 17.091C431.695 17.4902 431.535 17.8168 431.399 17.8168C431.264 17.8168 431.153 18.0473 431.153 18.329C431.153 18.9842 430.632 19.3269 430.605 18.6901C430.592 18.4131 430.528 18.3511 430.451 18.5425C430.377 18.724 430.149 18.8724 429.944 18.8724C429.674 18.8724 429.559 18.4877 429.53 17.4869C429.502 16.4936 429.453 16.3255 429.355 16.8931L429.219 17.6848L429.03 16.8931C428.889 16.3033 428.833 16.5558 428.81 17.8828C428.777 19.6297 428.765 19.6642 428.074 19.6642C427.686 19.6642 427.182 19.4954 426.953 19.2891C426.723 19.0828 426.358 18.875 426.14 18.8272C425.864 18.7668 425.698 18.2611 425.592 17.157L425.44 15.5735L425.394 17.1907C425.347 18.8549 425.097 19.3054 424.161 19.4049C423.162 19.5112 422.974 19.398 422.943 18.6745L422.91 17.9487L422.743 18.611C422.57 19.2993 422.611 19.2888 419.675 19.4126C419.239 19.431 417.606 19.4294 416.045 19.4087C414.484 19.3883 413.082 19.4487 412.929 19.5432C412.776 19.6376 412.295 19.5673 411.86 19.3871C411.249 19.1337 410.758 19.1275 409.699 19.3598C408.353 19.6551 407.216 19.4689 406.132 18.7756C405.898 18.6261 405.65 18.7381 405.39 19.1105C404.962 19.7217 403.88 19.8086 402.588 19.3358C402.078 19.1495 401.366 19.1658 400.227 19.3902C398.845 19.6621 398.553 19.6527 398.316 19.3291C398.082 19.0088 397.834 18.9982 396.788 19.264C396.101 19.4384 395.508 19.5498 395.469 19.5114C395.433 19.4731 394.827 19.3743 394.127 19.2919C392.496 19.1001 392.374 19.0118 392.338 17.999L392.309 17.1569L392.126 18.0896C392.026 18.6025 391.851 19.1724 391.738 19.356C391.4 19.9027 390.787 19.191 390.783 18.2462C390.779 17.7923 390.664 17.2427 390.523 17.0249C390.339 16.7398 390.266 16.994 390.263 17.9331C390.26 19.1367 390.231 19.1977 389.872 18.7249C389.499 18.2309 389.485 18.2364 389.476 18.8822C389.468 19.683 388.676 19.8489 387.753 19.2439C387.424 19.0283 386.993 18.8862 386.794 18.9281C386.53 18.984 386.393 18.5454 386.282 17.2889L386.129 15.5734L386.083 17.5822C386.038 19.5733 386.032 19.5898 385.378 19.4648C384.851 19.364 384.712 19.1727 384.688 18.5117L384.655 17.6848L384.483 18.4765C384.373 18.9807 384.238 19.1526 384.11 18.9499C383.899 18.6156 383.125 18.7821 382.828 19.2258C382.587 19.5869 381.815 18.7693 381.815 18.1523C381.815 17.8806 381.702 17.5449 381.563 17.4062C381.424 17.2674 381.27 16.1451 381.221 14.9122C381.152 13.1914 381.118 13.4832 381.077 16.1672C381.049 18.0905 380.948 19.6641 380.856 19.6641C380.362 19.6641 378.49 18.9907 378.323 18.7532C378.217 18.601 378.105 17.2295 378.075 15.7054L378.02 12.9343L377.864 15.4415L377.708 17.9486L377.571 16.1012C377.437 14.3069 377.432 14.3281 377.382 16.8408L377.33 19.4279L375.813 19.3821C374.979 19.3568 374.156 19.38 373.985 19.4342C373.814 19.4881 373.491 19.2946 373.268 19.0043C372.935 18.5716 372.86 18.5531 372.853 18.9017C372.849 19.2067 372.666 19.2928 372.213 19.2061C371.655 19.0995 371.551 18.8791 371.325 17.3294L371.07 15.5734L371.033 17.456C371.005 19.0484 370.922 19.3583 370.509 19.4663C370.24 19.5365 369.744 19.3852 369.406 19.1301C368.869 18.7251 368.743 18.7147 368.409 19.0483C368.199 19.2585 367.868 19.3695 367.674 19.2949C367.479 19.2202 367.246 19.2794 367.156 19.426C367.052 19.5944 366.757 19.5393 366.356 19.2764C366.006 19.0475 365.721 18.982 365.721 19.131C365.721 19.2858 365.071 19.3978 364.204 19.3925C363.369 19.3876 362.271 19.4006 361.763 19.4227C361.255 19.4443 360.068 19.41 359.125 19.3464C358.127 19.2791 357.254 19.3494 357.037 19.5135C356.768 19.7179 356.635 19.709 356.558 19.4808C356.5 19.3075 356.294 19.2266 356.1 19.3009C355.619 19.4856 355.402 19.0565 355.168 17.46L354.969 16.1011L354.937 17.6186C354.9 19.2488 354.478 19.6894 354.303 18.2784C354.197 17.4238 354.196 17.4242 354.154 18.3984C354.118 19.2811 354.028 19.3918 353.252 19.5375C352.779 19.6263 352.059 19.5722 351.652 19.4176C350.687 19.0506 349.363 19.0566 349.363 19.4278C349.363 19.6225 348.99 19.661 348.242 19.5438C346.798 19.3177 345.516 19.3156 344.315 19.5376C343.72 19.6476 343.29 19.6052 343.179 19.4255C342.945 19.0472 341.268 19.0511 341.034 19.4303C340.918 19.6173 340.456 19.6619 339.765 19.5528C339.167 19.4585 338.203 19.3253 337.622 19.257C337.042 19.1887 336.426 19.0809 336.254 19.0174C336.082 18.954 335.898 19.0337 335.844 19.194C335.698 19.6343 334.835 19.7053 333.748 19.3664C333.054 19.1498 332.47 19.1411 331.703 19.3358C331.067 19.4974 330.236 19.5195 329.662 19.3901C329.086 19.2599 328.122 19.287 327.275 19.4572C326.25 19.6631 325.774 19.6621 325.566 19.4542C325.407 19.2953 324.94 19.2328 324.528 19.3152C323.985 19.4239 323.734 19.3478 323.616 19.0385C323.526 18.8039 323.346 18.6777 323.216 18.758C323.086 18.8383 322.978 18.749 322.976 18.5585C322.972 18.3473 322.896 18.3156 322.777 18.4769C322.67 18.6221 322.068 19.0174 321.44 19.3554C320.352 19.9406 320.273 19.948 319.792 19.5124C319.514 19.2608 319.278 18.8061 319.268 18.502C319.247 17.9594 319.243 17.9589 319.022 18.4772C318.833 18.917 318.792 18.8593 318.777 18.1317C318.765 17.6205 318.649 17.326 318.494 17.4215C318.323 17.5275 318.21 15.8926 318.173 12.7526L318.115 7.92058L317.978 11.6154C317.855 14.8977 317.824 14.5 317.699 8.05254L317.559 0.794922L317.499 10.1134C317.458 16.4955 317.353 19.3784 317.164 19.262C317.013 19.1686 316.687 18.5974 316.439 17.9928L315.988 16.8936L315.828 17.9493C315.739 18.5299 315.626 15.9765 315.576 12.2752L315.485 5.54536L315.301 11.3515C315.101 17.6941 314.931 19.1369 314.385 19.1369C313.591 19.1369 313.481 18.0313 313.434 9.5874C313.385 0.5922 313.385 0.588177 312.837 13.4628C312.634 18.2241 312.473 19.2786 312.152 17.9493C311.975 17.2153 311.959 17.2394 311.93 18.2792C311.897 19.4196 311.371 19.905 311.371 18.7938C311.371 18.46 311.224 18.0402 311.045 17.861C310.814 17.6302 310.68 15.786 310.583 11.5403L310.448 5.54536L310.243 12.244C310.131 15.9282 309.927 19.1348 309.79 19.3697C309.582 19.7247 309.539 19.6918 309.532 19.1747C309.528 18.7156 309.414 18.5949 309.104 18.7139C308.817 18.8242 308.636 18.6915 308.532 18.2944C308.387 17.7417 308.371 17.7384 308.189 18.2274C308.05 18.6002 307.937 18.3431 307.778 17.2896L307.559 15.838L307.391 16.8937C307.253 17.7672 307.212 17.6078 307.156 15.97C307.079 13.7235 307 13.8917 306.72 16.8937L306.524 19.005L306.202 16.3659C306.025 14.9143 305.844 13.1329 305.8 12.4072C305.756 11.6814 305.651 12.869 305.567 15.0463C305.446 18.1551 305.4 17.1636 305.354 10.4278C305.321 5.44828 305.188 1.68455 305.039 1.45473C304.87 1.19292 304.782 3.1679 304.779 7.28575C304.775 14.3526 304.539 19.1849 304.208 18.9805C304.084 18.9043 303.984 18.9471 303.984 19.0757C303.984 19.2553 302.624 19.2266 302.347 19.0411C302.318 19.0211 302.225 14.9078 302.141 9.90001L301.988 0.794984L301.93 9.84961C301.894 15.8045 301.782 18.8484 301.609 18.7411C301.464 18.6514 301.322 17.4271 301.293 16.0204L301.241 13.4629L301.082 16.3659C300.994 17.9626 300.899 19.0466 300.87 18.7748C300.827 18.3667 300.749 18.3378 300.422 18.6091C300.204 18.7899 300.025 18.8341 300.022 18.7074C300.019 18.5808 299.922 18.6295 299.803 18.8156C299.685 19.0018 299.182 19.1959 298.686 19.247C298.19 19.298 297.568 19.4287 297.304 19.5374C297.034 19.6486 296.553 19.5895 296.203 19.4022C295.707 19.1369 295.236 19.1347 293.875 19.3916C292.593 19.6336 292.029 19.6392 291.608 19.414C291.273 19.2346 290.655 19.1881 290.069 19.2982C288.836 19.5296 287.578 19.5218 285.979 19.2725C285.061 19.1294 284.439 19.1935 283.64 19.5132C282.635 19.9153 282.501 19.9159 281.899 19.5213C280.929 18.8854 279.977 18.7893 279.443 19.2732C279.072 19.6085 278.658 19.6587 277.431 19.5171C275.602 19.306 273.719 19.2817 272.983 19.4596C272.693 19.5298 272.129 19.4742 271.73 19.3363C271.265 19.1754 270.735 19.1793 270.254 19.3473C269.829 19.4955 269.027 19.5221 268.407 19.4086C267.767 19.2915 267.311 19.3096 267.311 19.4522C267.311 19.5864 267.179 19.6147 267.018 19.515C266.486 19.186 264.564 19.1449 263.127 19.4318C262.111 19.6349 261.633 19.6332 261.426 19.4257C261.267 19.2671 260.924 19.1372 260.662 19.1372C260.401 19.1372 260.185 18.9888 260.182 18.8073C260.178 18.6259 259.952 18.7686 259.679 19.1242C259.299 19.6194 259.099 19.7028 258.827 19.4798C258.44 19.1621 257.181 19.1895 256.392 19.5328C255.574 19.8883 255.069 19.3211 254.607 17.5288L254.171 15.8383L254.147 17.4456L254.122 19.0528L253.075 19.3984C252.228 19.6782 251.952 19.6801 251.624 19.4081C251.402 19.2235 251.22 19.161 251.22 19.2691C251.22 19.3772 251.04 19.316 250.819 19.133C250.493 18.8619 250.331 18.8797 249.945 19.2291C249.642 19.5035 249.38 19.5664 249.218 19.404C249.064 19.2504 248.429 19.2348 247.608 19.3648C246.862 19.4827 246.093 19.5012 245.9 19.4059C245.485 19.2018 245.103 19.2204 243.765 19.5099C242.455 19.7936 241.533 19.217 241.385 18.0209L241.279 17.158L241.236 18.0901C241.196 18.9538 241.108 19.0475 240.021 19.3687C239.102 19.6399 238.644 19.6482 237.913 19.407C237.311 19.2082 236.439 19.1695 235.459 19.2979C234.623 19.4075 233.582 19.4823 233.147 19.4642C230.468 19.3527 228.534 19.3753 227.653 19.5285C226.776 19.681 226.625 19.6323 226.501 19.1568C226.356 18.6031 225.892 18.3871 225.892 18.8735C225.892 19.0961 225.168 19.2699 225.067 19.0714C225.046 19.0351 224.95 17.699 224.848 16.1024L224.662 13.1993L224.617 16.3003C224.593 18.0059 224.483 19.3872 224.375 19.3701C224.266 19.3529 224.117 19.3603 224.045 19.3868C223.517 19.5793 222.198 19.5565 222.198 19.355C222.198 19.2181 222.085 19.1761 221.947 19.2615C221.809 19.3469 221.517 19.0867 221.298 18.6833C221.079 18.2798 220.896 18.0981 220.89 18.2795C220.885 18.461 220.76 18.6095 220.615 18.6095C220.464 18.6095 220.334 17.6801 220.31 16.4322C220.273 14.5046 220.25 14.4062 220.101 15.5745C219.971 16.601 219.901 16.7475 219.783 16.2342C219.697 15.8591 219.603 16.3715 219.565 17.4219C219.528 18.4379 219.437 19.0317 219.362 18.7414L219.225 18.2136L219.015 18.7414C218.871 19.1032 218.791 18.7712 218.76 17.6858C218.728 16.4771 218.665 16.2584 218.504 16.7621C218.388 17.125 218.281 17.8672 218.266 18.4115C218.238 19.4946 217.798 19.7543 217.596 18.8074C217.526 18.4808 217.419 17.9761 217.357 17.6858C217.296 17.3955 217.232 17.6625 217.215 18.2796C217.195 19.087 217.074 19.4012 216.789 19.4012C216.571 19.4012 216.393 19.2231 216.393 19.0053C216.393 18.7876 216.304 18.6235 216.195 18.6407C215.434 18.761 215.353 18.5077 215.271 15.7724L215.186 12.9353L215.126 15.9703C215.094 17.6396 214.97 19.1564 214.853 19.341C214.637 19.6818 212.951 19.6907 212.695 19.3524C212.619 19.253 212.204 19.1243 211.771 19.0665C211.153 18.9838 210.949 18.7969 210.818 18.1916L210.651 17.4219L210.569 18.2136C210.523 18.6491 210.413 17.7584 210.325 16.2343L210.165 13.4632L210.113 16.5928L210.061 19.7224L209.371 19.549C207.674 19.123 207.159 19.0809 207.159 19.3682C207.159 20.0197 206.629 19.6164 206.595 18.9394C206.567 18.3767 206.535 18.3385 206.45 18.7695C206.35 19.2778 206.156 19.3279 204.178 19.3538C201.878 19.384 201.613 19.3075 201.143 18.4775C200.854 17.9685 200.843 17.9716 200.835 18.5655C200.831 18.9361 200.697 19.1378 200.5 19.0721C200.308 19.0082 200.033 17.9854 199.838 16.6089C199.371 13.3195 199.293 13.3222 199.234 16.6301C199.197 18.5715 199.115 19.2709 198.98 18.7414C198.789 17.9909 198.776 17.984 198.721 18.6095L198.664 19.2692L198.453 18.6095C198.294 18.1142 198.235 18.0728 198.215 18.4438C198.195 18.8525 198.121 18.8812 197.793 18.6095C197.46 18.3325 197.39 17.033 197.347 10.3299L197.298 2.37877L197.121 9.10858C197.024 12.81 196.911 16.6103 196.871 17.5538L196.796 19.2693L196.522 17.026C196.371 15.7922 196.201 14.9906 196.144 15.2446C196.087 15.4986 195.93 15.7064 195.796 15.7064C195.661 15.7064 195.549 16.3893 195.547 17.2239C195.543 19.0737 195.283 19.6234 194.694 19.0343C194.329 18.669 194.274 18.6831 194.146 19.1746C193.964 19.8689 193.336 19.6805 193.221 18.8972C193.14 18.3392 193.113 18.3317 192.788 18.776C192.496 19.1753 192.376 19.1947 192.021 18.9001C191.655 18.5962 191.591 17.451 191.527 10.069L191.454 1.58707L191.371 10.6921C191.325 15.6999 191.227 19.6437 191.151 19.4562C191.051 19.2078 190.921 19.1926 190.671 19.4001C190.413 19.6144 190.198 19.5196 189.804 19.0179C189.308 18.3871 189.272 18.3793 189.142 18.8738C189.017 19.3518 188.848 19.3832 187.166 19.2398C185.95 19.1362 185.265 19.1817 185.146 19.374C184.921 19.739 183.503 19.7573 183.281 19.3981C183.12 19.1383 180.091 19.1032 179.615 19.3556C179.484 19.4251 178.772 19.4497 178.032 19.4105C177.292 19.3713 175.782 19.3603 174.677 19.3864C172.965 19.4263 172.639 19.3636 172.486 18.9629C172.341 18.5868 172.261 18.5645 172.083 18.8518C171.825 19.2701 170.223 19.4654 170.223 19.0785C170.223 18.9347 170.045 18.8854 169.827 18.969C169.529 19.0834 169.431 18.9237 169.431 18.3219C169.431 17.3366 168.917 17.5553 168.873 18.5592L168.84 19.2694L168.639 18.4776C168.482 17.8622 168.43 17.8146 168.406 18.2642C168.369 18.9406 168.05 19.1988 167.508 18.9907C167.202 18.8733 167.094 18.0582 166.991 15.0971C166.809 9.83057 166.303 8.8189 166.281 13.6768C166.268 16.0352 166.171 17.2636 166 17.1581C165.847 17.0629 165.737 17.3313 165.737 17.8023C165.737 19.049 165.213 18.7566 165.174 17.488L165.137 16.3664L164.943 17.2901C164.673 18.5732 164.639 18.296 164.43 13.0674L164.245 8.44896L164.198 12.8539C164.17 15.4533 164.044 17.3258 163.888 17.422C163.743 17.5117 163.61 17.3109 163.593 16.9757C163.576 16.6406 163.422 16.9549 163.251 17.6739L162.941 18.9814L162.618 18.2017C162.408 17.6934 162.219 14.6667 162.077 9.50462L161.859 1.58719L161.762 8.18503C161.667 14.7043 161.664 14.7342 161.512 10.6922C161.363 6.69613 161.358 6.74799 161.3 12.9355C161.267 16.5192 161.144 19.1164 161.017 18.917C160.76 18.5106 160.454 18.4639 160.223 18.7956C160.134 18.9227 159.61 19.1612 159.058 19.3256C158.225 19.5736 157.925 19.5505 157.298 19.1902C156.592 18.785 156.476 18.7869 155.572 19.2183C154.759 19.6058 154.461 19.63 153.736 19.3676C153.098 19.1368 152.427 19.1262 151.189 19.3272C150.264 19.4773 149.446 19.5023 149.369 19.3827C149.292 19.2632 149.059 19.271 148.85 19.4002C148.641 19.5294 148.348 19.5403 148.198 19.4243C147.729 19.0624 146.746 18.9112 146.582 19.1761C146.496 19.3153 146.288 19.3818 146.12 19.3239C145.952 19.266 145.488 19.3108 145.089 19.4235C144.69 19.5362 144.35 19.607 144.333 19.5808C144.317 19.5547 144.218 17.9894 144.114 16.1024L143.925 12.6715L143.88 15.7509C143.831 19.1485 143.699 19.8354 143.178 19.4028C142.995 19.2511 142.268 19.175 141.563 19.2338C140.858 19.2926 140.02 19.242 139.701 19.1203C139.368 18.9937 139.086 19.003 139.038 19.1423C138.943 19.4187 138.79 19.4239 133.414 19.3342C131.238 19.2979 129.308 19.1723 129.127 19.0552C128.946 18.9382 128.797 18.9416 128.797 19.0634C128.797 19.1847 127.194 19.2807 125.236 19.2769C123.277 19.2729 121.674 19.3661 121.674 19.4834C121.674 19.6009 121.546 19.6178 121.389 19.5209C121.233 19.4243 119.185 19.3426 116.838 19.3395C113.983 19.3356 112.507 19.2359 112.378 19.0379C112.259 18.8564 112.182 18.8474 112.18 19.0146C112.176 19.2411 111.639 19.2886 110.542 19.1593C110.443 19.1475 110.314 18.6925 110.257 18.1482L110.154 17.1585L110.109 18.2754L110.065 19.3923L108.812 19.4086C108.122 19.4176 107.321 19.4237 107.031 19.4221C106.74 19.42 105.138 19.4215 103.469 19.4241C101.8 19.4271 99.8412 19.429 99.1157 19.4281C98.3902 19.4275 97.3058 19.3505 96.7061 19.2573C96.0238 19.1511 95.5489 19.1956 95.4373 19.3762C95.1935 19.771 93.7144 19.7234 92.9436 19.296C92.4813 19.0398 92.0569 19.0133 91.3606 19.1973C90.8373 19.3356 89.9343 19.4677 89.3538 19.4908C88.7734 19.5141 88.2268 19.6308 88.139 19.7504C88.0514 19.8699 87.7827 19.7707 87.542 19.5302C87.191 19.1791 86.7922 19.1239 85.5249 19.2512C84.5338 19.3507 83.9453 19.3106 83.9453 19.1436C83.9453 18.9864 83.5401 19.0367 82.9559 19.2663C81.9936 19.6446 80.694 19.6675 80.3391 19.3125C80.0526 19.0259 78.4507 19.113 78.2576 19.4256C78.0876 19.7009 77.6106 19.6741 75.204 19.2538C74.6177 19.1514 74.1765 19.1987 74.0672 19.3757C73.8434 19.7375 71.6342 19.7585 71.4132 19.4009C71.1894 19.0386 69.8006 19.0686 69.1917 19.449C68.8037 19.6914 68.3596 19.6812 67.201 19.4032C65.9704 19.1079 65.4777 19.1047 64.3835 19.3852C63.4086 19.6351 62.9794 19.6473 62.7633 19.4311C62.3977 19.0654 61.0801 19.0445 60.8599 19.4009C60.6215 19.7867 59.6094 19.7231 58.9811 19.2829C58.4321 18.8981 57.2981 18.9984 57.2981 19.4316C57.2981 19.7378 55.7893 19.7344 55.5999 19.4277C55.5192 19.2973 54.9484 19.2418 54.3311 19.3041C53.1549 19.423 51.8998 19.4365 50.2406 19.3479C49.6965 19.319 49.0556 19.3862 48.8165 19.4978C48.5214 19.6352 48.2034 19.5092 47.8271 19.1049C47.3658 18.6095 47.2725 18.5843 47.2725 18.9551C47.2725 19.6275 46.2446 19.5112 45.9616 18.8069C45.7553 18.2937 45.7207 18.2814 45.7064 18.7158C45.6901 19.2018 45.6738 19.2026 45.162 18.7407C44.8718 18.478 44.6236 18.0736 44.6106 17.842C44.5983 17.6105 44.483 17.7774 44.3562 18.2129C44.1834 18.806 43.9576 19.0141 43.4566 19.0426L42.7877 19.0806L42.7433 12.1807L42.6988 5.28094L42.5231 11.8131C42.4265 15.4058 42.2684 18.4243 42.1718 18.5209C42.0752 18.6175 41.9769 18.1126 41.9533 17.399L41.9105 16.1014L41.7328 17.5529L41.555 19.0044L41.4707 17.6849L41.3863 16.3653L41.2196 17.6849L41.0529 19.0044L40.8348 17.2262C40.6143 15.4273 40.1756 15.0304 40.1193 16.5788C40.099 17.0994 40.0398 17.23 39.9608 16.9208C39.858 16.5189 39.7867 16.493 39.5996 16.7888C39.4447 17.0333 39.355 16.7135 39.3318 15.8375C39.3114 15.1117 39.2597 14.6961 39.2132 14.9138C39.1671 15.1315 39.0355 15.7847 38.9205 16.3653C38.7192 17.3835 38.7061 17.3554 38.5537 15.5736L38.3959 13.7262L38.2891 15.5736C38.2304 16.5896 38.1179 13.7394 38.0388 9.23964L37.8954 1.05832L37.835 9.90676C37.778 18.2932 37.7482 18.7781 37.2636 19.193C36.9053 19.5001 36.7208 19.5373 36.6469 19.3177C36.5691 19.0862 36.4272 19.099 36.1028 19.3667C35.7058 19.6947 35.6638 19.6199 35.6601 18.5749C35.6583 17.9403 35.5411 17.2428 35.4005 17.0251C35.2171 16.7412 35.1437 17.0149 35.1408 17.992C35.1371 19.3501 35.1327 19.354 34.4112 19.1564C33.9289 19.0245 33.4868 19.0866 33.0921 19.3415C32.7656 19.5525 32.498 19.6223 32.4974 19.4967C32.4969 19.3711 31.5471 19.239 30.3868 19.2031C29.2265 19.1672 28.2771 19.2459 28.2771 19.378C28.2771 19.5101 27.8911 19.5505 27.4197 19.4677C26.9481 19.3849 26.3544 19.3104 26.1005 19.3022C25.8466 19.2941 25.6388 19.1969 25.6388 19.0864C25.6388 18.976 25.3335 19.0017 24.9603 19.1436C24.5459 19.3012 23.7242 19.3143 22.8496 19.1771C21.7129 18.9988 21.4175 19.0259 21.4175 19.3083C21.4175 19.7144 20.2133 19.7999 19.9729 19.4108C19.8208 19.1649 16.3024 19.2693 15.8769 19.5324C15.7623 19.6032 15.0336 19.5405 14.2574 19.3934C13.2804 19.208 12.6382 19.2118 12.1701 19.406C11.6575 19.6184 11.318 19.5948 10.7664 19.3086C10.0861 18.9556 9.01747 18.9902 9.01726 19.3653C9.01718 19.4573 8.61331 19.5546 8.12022 19.5816C7.10199 19.6373 6.93123 19.3193 6.88945 17.2892C6.86092 15.9327 6.75616 16.095 6.51892 17.86L6.35343 19.0906L4.98105 19.2923C4.22622 19.4032 2.86661 19.4666 1.95966 19.4332C0.749435 19.3886 0.31072 19.4637 0.310638 19.7164C0.310557 20.1418 5.30263 20.1254 5.56604 19.6989C5.91985 19.1262 6.39529 19.8967 6.61402 21.3974C6.8215 22.8216 6.84514 22.8637 6.87449 21.8631C6.91118 20.5605 7.13619 19.8758 7.45845 20.075C7.58644 20.1541 8.13791 20.0954 8.68399 19.9443C9.33839 19.7634 9.70708 19.7594 9.76541 19.9325C9.81432 20.077 9.98552 20.1139 10.1461 20.0145C10.3067 19.915 12.0323 19.8579 13.9802 19.8874C16.3238 19.9229 17.6448 19.8391 17.8853 19.6395C18.1617 19.4099 18.3947 19.4335 18.8592 19.7379C19.2101 19.9678 19.7724 20.0801 20.1812 20.002C20.5725 19.9271 21.0701 20.0134 21.2869 20.1932C21.6045 20.4569 21.6811 20.4492 21.6811 20.1536C21.6811 19.894 21.9701 19.8062 22.6704 19.853C23.4793 19.9071 27.3697 19.9256 29.7279 19.8865C30.0182 19.8816 30.8493 19.9069 31.5748 19.9423C33.0102 20.0127 33.5966 19.9174 33.848 19.5738C33.9373 19.4515 34.2638 19.5098 34.5735 19.7032C35.0071 19.9741 35.1366 20.3169 35.1366 21.1946C35.1366 21.8872 35.2401 22.2704 35.4003 22.1712C35.5454 22.0816 35.664 21.5401 35.664 20.9681C35.664 19.9057 36.2322 19.493 36.5509 20.3238C36.6345 20.5416 36.8847 20.7197 37.1068 20.7197C37.329 20.7197 37.5357 20.7495 37.5661 20.7857C37.5947 20.822 37.6892 24.1176 37.7724 28.1093L37.9232 35.367L38.0284 27.9774C38.0964 23.2014 38.1935 21.2879 38.3023 22.5671L38.471 24.5465L38.5522 22.4352L38.6333 20.3239L38.9145 22.0393C39.1681 23.5864 39.2101 23.6661 39.3426 22.852C39.5391 21.6453 40.1492 21.4464 40.1492 22.5891C40.1492 23.7682 40.4838 23.3362 40.8451 21.6912L41.1451 20.3239L41.2144 21.6434L41.2837 22.963L41.4683 21.7754C41.6526 20.5901 41.653 20.5911 41.739 22.3032L41.825 24.0186L41.9954 22.1713C42.1466 20.5325 42.1743 20.7113 42.2392 23.7548C42.3468 28.8216 42.7296 29.2815 42.7608 24.3815L42.7853 20.2579H43.4311C43.9399 20.2579 44.1155 20.4329 44.2582 21.0826L44.4396 21.9073L44.6813 21.2539C44.8782 20.7215 44.9687 20.6726 45.1694 20.99C45.3552 21.2837 45.4213 21.1847 45.4384 20.5878C45.4588 19.9055 45.4922 19.869 45.6879 20.3238C45.8819 20.7752 45.9173 20.7848 45.9332 20.3898C45.9536 19.8512 47.2684 19.722 47.275 20.2578C47.2787 20.5113 47.326 20.5142 47.4809 20.2697C47.7165 19.8988 47.9499 19.8754 51.0637 19.9106C52.4238 19.9261 53.5527 19.8149 53.7565 19.6458C53.9493 19.4856 54.2233 19.4262 54.3651 19.5138C54.507 19.6015 55.1948 19.7805 55.8937 19.9117C56.9135 20.1032 57.2542 20.0695 57.6184 19.7413C58.0289 19.3714 58.162 19.3749 59.0104 19.7776C59.5403 20.0292 60.1832 20.1483 60.4882 20.0515C61.4139 19.7576 66.0739 19.7047 67.3743 19.9734C68.3756 20.1803 68.7941 20.1438 69.5526 19.7838C70.3241 19.4176 70.5643 19.3985 70.8996 19.6769C71.4376 20.1236 73.4799 20.1102 74.3311 19.6545C74.8845 19.3582 75.1035 19.3543 75.5488 19.6325C76.2238 20.0541 78.1641 20.0742 78.9239 19.6675C79.3538 19.4374 79.5822 19.4381 79.862 19.6705C80.0829 19.854 80.864 19.9412 81.8022 19.8871C82.6659 19.8373 83.4497 19.8736 83.5439 19.9681C83.6381 20.0624 84.1245 20.0265 84.6245 19.8884C85.1245 19.7502 85.6268 19.6948 85.7406 19.7652C85.8543 19.8355 86.1172 19.7884 86.3247 19.66C86.5729 19.5065 86.866 19.5755 87.1822 19.8617C87.7279 20.3558 88.4288 20.5282 88.4288 20.1685C88.4288 20.0362 89.0224 19.928 89.7479 19.928C90.4735 19.928 91.0671 19.8092 91.0671 19.664C91.0671 19.5189 91.3043 19.4001 91.5947 19.4001C91.885 19.4001 92.1224 19.4936 92.1224 19.6078C92.1224 20.1034 95.3603 20.1519 95.9466 19.6651C96.247 19.4155 96.519 19.4064 97.069 19.6276C97.4879 19.7958 99.3571 19.9108 101.488 19.8995C103.52 19.8884 106.28 19.8905 107.623 19.9034L110.063 19.9275L110.113 22.1047L110.163 24.282L110.31 21.9238C110.445 19.7802 110.496 19.6034 110.873 19.9816C111.165 20.2751 111.417 20.3245 111.73 20.1494C112.045 19.9731 112.175 20.0006 112.177 20.2442C112.181 20.5243 112.221 20.524 112.4 20.2421C112.572 19.9706 114.254 19.902 120.331 19.9189C128.695 19.9421 128.573 19.9365 128.857 20.3229C128.975 20.4843 129.052 20.4531 129.054 20.2427C129.058 19.9214 130.204 19.8659 135.522 19.9296C136.475 19.941 139.128 19.9117 139.306 19.8879C139.402 19.8748 140.459 19.8789 141.657 19.896L143.833 19.9274L143.877 23.2923L143.921 26.6572L144.08 23.4411C144.168 21.6723 144.302 20.1628 144.377 20.0866C144.515 19.949 147.201 19.8591 148.714 19.9414C149.149 19.965 150.455 19.9777 151.616 19.9695C153.87 19.9536 154.225 19.9536 157.288 19.9693C159.062 19.9782 159.863 20.0182 160.916 20.1502C161.166 20.1816 161.259 21.4896 161.298 25.5357C161.341 30.046 161.374 30.4476 161.51 28.1089C161.636 25.9238 161.69 26.733 161.764 31.9356L161.857 38.5335L162.073 30.0954C162.192 25.4545 162.348 21.5057 162.419 21.3203L162.425 21.3202Z" fill="black"/>
</svg>
