<svg width="464" height="39" viewBox="0 0 464 39" fill="none" xmlns="http://www.w3.org/2000/svg">
<path d="M94.1939 22.3383C94.3027 22.2299 94.3936 22.6057 94.3957 23.1744C94.3997 24.7752 94.8999 23.7187 94.9658 21.9648C95.0065 20.9006 95.0636 21.1823 95.183 23.0205C95.3041 24.8835 95.3587 25.1463 95.3962 24.0432C95.4594 22.1803 95.7076 20.9092 96.0074 20.9092C96.1345 20.9092 96.2576 21.3545 96.2813 21.8988C96.3139 22.6859 96.3559 22.5915 96.479 21.4371C96.6445 19.8884 96.9993 19.6197 97.887 20.3715C98.1935 20.6313 98.3555 21.1636 98.369 21.9576L98.3894 23.1525L98.6988 22.139C98.8692 21.5816 99.0905 21.2087 99.1911 21.3103C99.2918 21.4118 99.4887 21.0957 99.629 20.6082C99.7693 20.1205 99.8948 19.877 99.9079 20.067C99.9201 20.2571 100.051 20.339 100.196 20.2493C100.341 20.1596 100.459 20.2697 100.459 20.4976C100.459 20.7239 100.578 20.909 100.723 20.909C100.868 20.909 100.987 20.7309 100.987 20.5131C100.987 20.2934 101.221 20.1172 101.515 20.1172C101.805 20.1172 102.131 20.1131 102.24 20.105C102.349 20.1009 102.512 20.4854 102.601 20.9627C102.702 21.5005 102.787 21.63 102.825 21.3032C102.878 20.8467 102.915 20.8645 103.098 21.4352C103.306 22.0861 103.309 22.0868 103.335 21.4858C103.352 21.1507 103.48 20.9498 103.626 21.0395C103.791 21.1418 103.908 24.3739 103.939 29.6983L103.988 38.1939L104.137 29.3087C104.218 24.4219 104.374 20.3345 104.483 20.2257C104.592 20.1168 104.693 20.4932 104.707 21.0615C104.731 21.9681 104.759 22.014 104.945 21.4354C105.102 20.9455 105.174 21.2515 105.228 22.623C105.286 24.101 105.321 24.233 105.403 23.2829C105.459 22.6297 105.617 21.9824 105.753 21.8445C105.889 21.7066 106.023 21.3503 106.05 21.0528C106.079 20.7552 106.174 21.64 106.264 23.019L106.427 25.5261L106.477 23.234C106.506 21.9734 106.644 20.6352 106.787 20.2603L107.046 19.5786L107.61 20.1427C108.16 20.6928 108.434 22.1164 108.721 25.922C108.77 26.5752 108.845 25.5656 108.888 23.6787C108.938 21.4451 109.035 20.5242 109.166 21.0396L109.368 21.8314L109.4 21.1211C109.446 20.0679 109.958 19.9196 109.963 20.958C109.967 21.6189 110.029 21.735 110.223 21.4354C110.436 21.106 110.483 21.128 110.503 21.5676C110.532 22.1401 110.616 21.9675 110.864 20.8418C111.042 20.0361 111.525 19.8562 111.572 20.578C111.601 21.0178 111.609 21.0178 111.724 20.578C111.79 20.3239 111.954 20.1162 112.089 20.1162C112.223 20.1162 112.342 20.3241 112.351 20.578C112.368 20.9458 112.428 20.9189 112.655 20.4459C113.12 19.4815 114.17 19.8787 114.19 21.0266C114.198 21.5277 114.226 21.5209 114.55 20.9336C114.807 20.4699 114.94 20.3991 115.047 20.6698C115.154 20.9389 115.199 20.914 115.215 20.5776C115.227 20.3236 115.354 20.1158 115.499 20.1158C115.669 20.1158 115.764 23.2635 115.767 29.0229C115.769 34.3178 115.874 38.0905 116.027 38.3258C116.196 38.5876 116.293 36.4442 116.314 31.9919C116.343 26.2694 116.643 19.1767 116.776 21.121C116.801 21.4562 116.937 21.657 117.082 21.5673C117.24 21.4695 117.364 21.8601 117.392 22.5414L117.438 23.6786L117.587 22.491C117.689 21.6814 117.783 22.3956 117.883 24.7343L118.03 28.1652L118.088 24.2065C118.124 21.7913 118.236 20.3913 118.379 20.6159C118.566 20.9119 118.637 20.8858 118.74 20.4838C118.81 20.2085 118.907 21.6464 118.955 23.6785L119.042 27.3733L119.127 24.3422C119.173 22.6751 119.326 21.1966 119.466 21.0565C119.63 20.893 119.721 21.2453 119.721 22.0422C119.721 22.7244 119.835 23.2825 119.975 23.2825C120.115 23.2825 120.268 24.4403 120.316 25.8557L120.402 28.4289L120.511 25.3939L120.619 22.3589L120.776 25.6578L120.933 28.9567L120.991 24.8661C121.048 20.809 121.282 19.4224 121.697 20.6871L121.899 21.3032L122.015 20.7094C122.16 19.9738 122.623 19.9237 122.623 20.6434C122.623 20.9337 122.742 21.1711 122.887 21.1711C123.032 21.1711 123.151 20.9237 123.151 20.6214C123.151 20.2993 123.287 20.1168 123.48 20.1807C123.704 20.2549 123.853 21.1728 123.942 23.0398L124.074 25.7896L124.258 23.3103C124.358 21.9467 124.558 20.714 124.701 20.5709C124.949 20.3222 125.011 20.5297 125.352 22.7547C125.408 23.1176 125.471 22.8208 125.493 22.0949C125.539 20.5733 125.695 20.2789 126.515 20.165C127.073 20.0875 127.11 20.1812 127.144 21.7484C127.165 22.6647 127.225 23.1176 127.28 22.7547C127.545 20.9898 127.929 20.1154 128.438 20.1154C128.925 20.1154 128.959 20.3369 129.013 23.8763L129.072 27.6371L129.153 23.8763C129.225 20.5229 129.283 20.1159 129.688 20.1196C130.342 20.1236 130.635 20.3915 131.137 21.4351L131.582 22.3587L131.586 21.3691C131.594 20.1593 132.111 20.036 132.14 21.237C132.161 22.121 132.232 22.0521 132.483 20.8981C132.576 20.47 132.822 20.2148 133.165 20.1889C133.637 20.1522 133.707 20.3144 133.74 21.5174L133.776 22.8867L133.966 21.831C134.07 21.2504 134.189 20.8347 134.23 20.9072C134.271 20.9798 134.385 23.1176 134.482 25.6577L134.659 30.2762L134.734 25.9216C134.815 21.2576 135.18 18.7805 135.298 22.0949C135.359 23.7938 135.377 23.8468 135.526 22.7547L135.688 21.5671L135.882 22.8575C135.988 23.5672 136.076 27.345 136.076 31.2524C136.076 35.9214 136.167 38.3009 136.34 38.1937C136.507 38.0905 136.605 34.8656 136.608 29.4029C136.609 24.6577 136.702 20.6335 136.812 20.4601C137.025 20.1254 137.577 20.1286 138.12 20.4682C138.311 20.5873 138.47 21.3083 138.498 22.1762L138.546 23.6781L138.638 22.3586C138.764 20.5562 138.892 20.2427 139.347 20.6205C139.635 20.8603 139.746 20.7722 139.893 20.1884L140.077 19.4556L140.715 20.1961C141.307 20.8832 141.352 20.8962 141.352 20.3783C141.352 20.0712 141.471 19.8936 141.616 19.9832C141.766 20.0757 141.88 21.3884 141.88 23.0182C141.88 26.8286 142.363 27.1045 142.474 23.3582C142.521 21.7923 142.602 24.1335 142.654 28.5606C142.761 37.6842 143.112 37.0785 143.189 27.6368C143.238 21.6747 143.485 19.5674 143.84 22.1073C144.13 24.1912 144.51 24.4734 144.514 22.6093C144.516 21.7311 144.627 20.8998 144.76 20.7619C144.893 20.6241 145.054 20.2143 145.12 19.8514C145.185 19.4885 145.281 22.8732 145.334 27.3729L145.429 35.5543L145.574 28.1647C145.679 22.7962 145.747 21.6774 145.824 24.0741C145.882 25.8885 145.967 26.8385 146.013 26.1853C146.059 25.5321 146.185 24.2258 146.293 23.2823L146.489 21.5668L146.643 23.5462L146.798 25.5256L146.904 23.4142C146.963 22.253 147.076 24.1532 147.157 27.6368L147.303 33.9708L147.362 27.5881C147.418 21.5449 147.65 19.4355 148.2 20.0063C148.327 20.1388 148.485 20.5442 148.55 20.9071L148.668 21.5668L148.705 20.9046C148.725 20.5405 148.978 20.0939 149.268 19.9126C149.777 19.595 149.797 19.6525 149.828 21.4987L149.861 23.4142L150.088 21.8573C150.355 20.025 150.443 19.8978 151.138 20.3322C151.428 20.5132 151.778 20.5907 151.918 20.5047C152.057 20.4186 152.171 20.5927 152.171 20.8915C152.171 21.1904 152.29 21.4349 152.435 21.4349C152.58 21.4349 152.719 22.1772 152.744 23.0844L152.79 24.7339L152.962 23.0185C153.059 22.0539 153.172 25.0572 153.218 29.8803C153.317 40.1196 153.664 39.0644 153.782 28.1648C153.849 21.9933 153.888 21.3626 154.018 24.3381L154.173 27.9009L154.231 24.3381C154.264 22.3786 154.405 20.5971 154.545 20.3794C154.732 20.0899 154.807 20.3027 154.822 21.1711C154.842 22.2634 154.866 22.3058 155.131 21.699C155.407 21.0674 155.433 21.0955 155.748 22.3587C155.93 23.0845 156.109 24.2721 156.148 24.9979L156.219 26.3175L156.392 24.6019C156.487 23.6585 156.585 23.2655 156.611 23.7286C156.635 24.1918 156.775 24.6442 156.92 24.7339C157.089 24.8383 157.184 24.0161 157.184 22.4558C157.184 20.2527 157.22 20.0645 157.571 20.5268C157.784 20.8086 157.962 21.3588 157.967 21.7494C157.971 22.14 158.094 22.5329 158.239 22.6227C158.4 22.7226 158.503 22.3124 158.503 21.567C158.503 20.8217 158.605 20.4115 158.767 20.5113C158.912 20.601 159.046 20.5194 159.065 20.329C159.086 20.139 159.188 20.3991 159.294 20.9072L159.489 21.831L159.526 20.9733C159.566 20.0141 160.078 19.7797 160.105 20.7094L160.121 21.3032L160.359 20.7094C160.491 20.3828 160.78 20.1156 161.002 20.1156C161.356 20.1156 161.414 21.2386 161.469 29.1547L161.531 38.1937L161.604 29.1644L161.677 20.135L162.861 20.1595L164.045 20.1839L164.092 21.536L164.14 22.8881L164.239 21.6345C164.293 20.945 164.45 20.3809 164.587 20.3809C164.736 20.3809 164.856 23.1678 164.885 27.3086L164.933 34.2364L165.113 29.0901C165.213 26.2596 165.31 23.0088 165.329 21.8661C165.357 20.1604 165.427 19.841 165.718 20.0823C165.913 20.2438 166.147 20.3009 166.239 20.2091C166.332 20.117 166.577 20.1847 166.785 20.3564C167.07 20.5928 167.21 20.5953 167.352 20.3646C167.49 20.1419 167.602 20.1562 167.767 20.4179C167.941 20.6915 167.995 20.6598 167.998 20.2818C168.002 19.8726 168.07 19.844 168.398 20.1162C168.616 20.2968 168.802 20.3413 168.812 20.2145C168.821 20.0881 168.933 20.2226 169.058 20.5121C169.224 20.9003 169.289 20.9295 169.303 20.6223C169.332 20.0248 170.126 20.1066 170.853 20.7817C171.449 21.3342 171.484 21.5723 171.677 26.3458L171.878 31.3328L171.919 26.1394C171.956 21.7073 172.024 20.8823 172.394 20.5118C173.123 19.7833 173.268 20.4872 173.321 24.9988L173.372 29.2215L173.528 24.9988C173.615 22.6764 173.779 20.6279 173.894 20.4464C174.417 19.6177 174.601 20.3331 174.641 23.3495L174.683 26.5824L174.867 23.8113C175.053 21.0151 175.251 20.1166 175.682 20.1166C175.812 20.1166 175.942 22.0463 175.972 24.405L176.027 28.6937L176.171 24.9988C176.343 20.5423 176.681 21.1211 176.786 26.0545C176.851 29.0935 176.865 28.9522 176.916 24.8166C176.949 22.0531 177.081 20.0811 177.237 19.9845C177.382 19.8948 177.51 20.0363 177.522 20.2989C177.534 20.5614 177.599 20.6405 177.667 20.4742C177.735 20.3082 178.007 20.2288 178.271 20.2981C178.716 20.4147 178.769 21.0482 179.002 29.0452L179.254 37.6667L179.303 31.0688C179.331 27.44 179.428 23.4912 179.521 22.2937C179.667 20.4202 179.758 20.1164 180.174 20.1164C180.672 20.1164 180.843 20.5454 181.016 22.2277C181.092 22.9677 181.119 22.899 181.153 21.8824C181.177 21.1127 181.299 20.6774 181.459 20.7763C181.604 20.866 181.723 20.7559 181.723 20.5279C181.723 20.3016 181.812 20.1149 181.921 20.113C182.029 20.1111 182.386 20.0379 182.712 19.9502C183.265 19.8022 183.308 19.8793 183.343 21.0755L183.38 22.3599L183.569 21.3042C183.706 20.5381 183.774 20.4296 183.816 20.9083L183.875 21.5681L184.131 20.8669C184.356 20.2537 184.56 20.1522 185.76 20.059C186.514 20.0002 187.279 20.0019 187.461 20.0627C187.711 20.1463 187.802 21.7443 187.84 26.6767L187.889 33.1804L188.037 26.9342C188.119 23.4988 188.264 20.61 188.36 20.5145C188.456 20.4191 188.752 20.2996 189.019 20.2491C189.287 20.1985 189.505 20.1328 189.505 20.103C189.505 20.0745 189.772 20.0212 190.099 19.9869C190.455 19.9502 190.693 20.0689 190.693 20.2846C190.693 20.4823 190.871 20.6445 191.088 20.6445C191.335 20.6445 191.498 20.9174 191.52 21.3704C191.557 22.083 191.557 22.0842 191.677 21.4364C191.839 20.5575 192.23 20.116 192.691 20.2928C192.995 20.4098 193.076 21.3512 193.111 25.2254L193.155 30.0135L193.327 25.2015C193.421 22.5549 193.58 20.3083 193.679 20.2091C193.778 20.1101 193.859 20.3527 193.859 20.7482C193.859 21.1605 193.971 21.3979 194.123 21.3044C194.268 21.2147 194.401 21.4158 194.418 21.7508C194.442 22.2422 194.482 22.2069 194.618 21.5685C194.712 21.133 194.892 20.8165 195.019 20.8652C195.147 20.9141 195.352 20.795 195.474 20.6014C195.614 20.3804 195.717 20.7902 195.748 21.7005C195.797 23.1253 195.8 23.1301 195.9 21.9643C195.957 21.3111 196.114 20.6639 196.25 20.526C196.404 20.3698 196.519 23.7113 196.555 29.3671L196.612 38.4588L196.753 29.4415C196.83 24.4819 196.982 20.3351 197.091 20.2264C197.2 20.1176 197.307 20.7315 197.328 21.5904C197.349 22.4492 197.417 22.8253 197.478 22.4262C197.538 22.027 197.69 21.7004 197.816 21.7004C197.941 21.7004 198.095 21.4333 198.158 21.1066C198.221 20.78 198.316 24.135 198.369 28.5621L198.466 36.6115L198.542 30.2116C198.589 26.2495 198.716 23.8117 198.876 23.8117C199.019 23.8117 199.152 23.1882 199.171 22.4262C199.207 21.0619 199.211 21.0711 199.487 23.02L199.767 24.9993L199.954 23.0674C200.193 20.5793 200.455 20.3253 200.455 22.5801C200.455 24.3906 200.866 25.008 201.055 23.4818C201.113 23.01 201.2 25.4149 201.247 28.8261L201.332 35.028L201.519 28.7494C201.623 25.2961 201.782 22.3963 201.872 22.3055C201.963 22.2146 202.058 25.7525 202.084 30.1676L202.131 38.1949L202.291 31.0167C202.379 27.0686 202.536 23.7532 202.64 23.6491C202.744 23.5451 202.843 23.9842 202.859 24.6254C202.896 26.0847 203.008 25.5916 203.25 22.888C203.388 21.3379 203.491 20.952 203.635 21.4364L203.831 22.0962L203.914 21.4364C203.959 21.0735 204.065 22.855 204.147 25.3952L204.298 30.0136L204.394 25.1312C204.447 22.4459 204.546 20.6051 204.615 21.0406L204.74 21.8324L205.076 20.7767C205.39 19.7861 205.415 19.9242 205.48 23.02C205.53 25.428 205.594 25.9625 205.717 24.9993L205.885 23.6797L206.103 24.6817C206.37 25.9111 206.557 25.7679 206.813 24.1378C207.33 20.8496 207.39 20.6069 207.61 20.9539C207.776 21.2157 207.844 21.1703 207.878 20.7764C208.003 19.3328 208.381 24.6696 208.561 30.4093L208.764 36.8752L208.906 32.6526L209.049 28.43L209.15 33.0485C209.245 37.3414 209.265 37.0995 209.424 29.6176C209.518 25.1905 209.684 21.301 209.791 20.9744C209.899 20.6478 210.157 20.3806 210.365 20.3806C210.642 20.3806 210.743 20.7288 210.743 21.6846C210.743 23.1776 211.183 23.7249 211.343 22.4309C211.402 21.9565 211.483 22.4595 211.522 23.5476C211.601 25.6699 211.658 25.6181 211.959 23.1516C212.128 21.7663 212.176 21.6673 212.339 22.36L212.527 23.1516L212.568 22.36C212.588 21.9245 212.778 21.2712 212.985 20.9083C213.352 20.2672 213.364 20.2858 213.403 21.5682L213.444 22.8877L213.651 21.6552C213.766 20.9773 213.986 20.2053 214.14 19.9397C214.397 19.4978 214.421 19.5087 214.429 20.0682C214.441 20.9705 214.91 21.7045 215.364 21.5303C215.58 21.4475 215.757 21.1849 215.76 20.9463C215.764 20.6205 215.817 20.5969 215.98 20.8526C216.141 21.1074 216.318 21.0286 216.686 20.5385C216.956 20.1789 217.29 19.9549 217.429 20.0405C217.567 20.1262 218.044 20.2081 218.487 20.2223C219.112 20.2427 219.335 20.3977 219.477 20.9086C219.66 21.5647 219.661 21.5642 219.687 20.8205C219.738 19.3676 220.369 20.2435 220.526 21.9847L220.678 23.6796L220.78 22.0961C220.837 21.2252 220.95 22.6503 221.033 25.263L221.183 30.0135L221.24 25.4765C221.273 22.9812 221.408 20.8709 221.544 20.787C221.68 20.703 221.839 21.0228 221.897 21.4973C221.991 22.2512 222.009 22.2186 222.046 21.2383C222.091 20.0538 222.389 19.8607 223.21 20.4841C223.498 20.7027 223.683 21.2218 223.703 21.8613C223.731 22.8653 223.74 22.8704 223.936 22.0961C224.046 21.6606 224.151 21.4674 224.168 21.6666C224.216 22.2195 224.936 21.5349 225.056 20.8234C225.109 20.5073 225.263 23.3958 225.399 27.2424C225.629 33.7487 225.657 34.0246 225.811 31.2011C225.903 29.5319 226.014 26.3847 226.058 24.2074C226.126 20.9219 226.169 20.5629 226.31 22.0961C226.476 23.8872 226.484 23.9033 226.563 22.6239C226.614 21.8131 226.692 21.5587 226.764 21.9642C226.96 23.0538 227.365 23.2217 227.37 22.2149C227.373 21.5909 227.446 21.4193 227.605 21.6695C227.775 21.9382 227.884 21.8158 228.018 21.2076C228.242 20.1871 228.679 20.1224 228.702 21.1064C228.718 21.7461 228.745 21.7697 228.94 21.3043C229.063 21.014 229.411 20.5698 229.715 20.3172C230.265 19.8604 230.268 19.8662 230.304 21.3728C230.324 22.206 230.387 22.5908 230.444 22.228C230.696 20.6265 230.823 20.3345 231.202 20.4803C231.414 20.5614 231.589 20.4839 231.591 20.3061C231.595 20.0941 231.677 20.1132 231.835 20.3632C232.021 20.658 232.158 20.6731 232.449 20.4313C232.655 20.2604 232.911 20.2086 233.019 20.3163C233.303 20.6009 233.8 20.5716 234.024 20.2568C234.13 20.1068 234.234 20.8154 234.254 21.8315L234.29 23.6789L234.52 22.1013C234.851 19.8286 234.912 19.7929 235.21 21.6994L235.478 23.4148L235.51 21.7653C235.531 20.8581 235.595 20.1158 235.659 20.1158C235.722 20.1158 236.07 20.2287 236.433 20.3666C236.901 20.5443 237.129 20.5251 237.22 20.3005C237.291 20.1264 237.359 20.2003 237.37 20.4645C237.39 20.9083 237.424 20.9122 237.82 20.5162C238.215 20.1203 238.286 20.1281 238.743 20.6182C239.046 20.9427 239.255 21.5894 239.282 22.2818C239.319 23.2626 239.347 23.2023 239.48 21.8311C239.59 20.6934 239.734 20.2688 239.991 20.3229C240.187 20.3645 240.514 20.2604 240.716 20.0924C241.03 19.8323 241.092 21.1711 241.134 29.1222L241.184 38.4575L241.361 31.8596C241.458 28.2308 241.563 24.0742 241.594 22.6227C241.63 20.874 241.725 20.1617 241.876 20.5114C242.001 20.8017 242.111 20.8837 242.121 20.6937C242.15 20.1227 242.574 20.568 243.133 21.7615C243.582 22.7186 243.686 23.6742 243.833 28.1648C244.177 38.6658 244.415 39.1309 244.509 29.4843C244.558 24.5491 244.679 21.1051 244.778 21.8309L244.959 23.1504L245.001 21.976C245.029 21.1501 245.125 20.8844 245.321 21.0808C245.832 21.5913 246.361 24.9584 246.413 28.0327L246.466 31.0678L246.612 28.1648C246.692 26.5681 246.833 25.4992 246.925 25.7895C247.034 26.1349 247.102 25.9356 247.122 25.2114C247.139 24.603 247.272 24.0319 247.417 23.9422C247.562 23.8525 247.692 23.2814 247.707 22.6731C247.731 21.7284 247.764 21.6632 247.945 22.2267C248.143 22.8465 248.157 22.8335 248.182 22.0114C248.211 21.0431 248.616 20.1153 249.009 20.1153C249.149 20.1153 249.282 20.7389 249.305 21.5009L249.347 22.8865L249.517 21.567C249.758 19.6975 249.985 20.5332 250.235 24.2061L250.451 27.373L250.595 24.0741C250.675 22.2597 250.779 21.369 250.826 22.0948L250.912 23.4143L251.111 22.0555C251.366 20.3161 251.504 20.1153 252.445 20.1153C253.16 20.1153 253.224 20.1936 253.256 21.1051L253.293 22.0948L253.456 21.192C253.662 20.0526 254.155 19.8658 254.412 20.8296L254.609 21.5668L254.96 20.7751C255.303 19.9998 255.311 19.997 255.339 20.6429C255.367 21.3009 255.367 21.3011 255.606 20.709C256.144 19.3686 256.39 20.1799 256.445 23.4801L256.501 26.8451L256.576 23.942C256.667 20.4153 256.758 19.9757 257.401 19.9272C258.015 19.8807 258.454 20.6876 258.58 22.0946C258.673 23.1324 258.676 23.1293 258.72 21.9058C258.752 20.9908 258.894 20.5916 259.257 20.3975C259.837 20.0868 260.075 20.2605 260.105 21.0167C260.121 21.4354 260.226 21.3463 260.546 20.6429C260.882 19.9059 260.989 19.8203 261.079 20.2193C261.169 20.6202 261.238 20.6465 261.425 20.3515C261.574 20.115 261.674 20.6446 261.702 21.8306L261.746 23.678L261.904 22.0189C262.004 20.9684 262.207 20.2695 262.457 20.114C262.705 19.9598 262.886 19.9643 262.941 20.1261C262.99 20.2676 263.138 20.3162 263.271 20.2343C263.408 20.1499 263.512 20.8544 263.512 21.86C263.512 23.9585 263.776 23.9251 264.008 21.7973C264.183 20.1874 264.512 19.8343 265.197 20.52C265.584 20.9065 265.64 20.9077 265.784 20.5322C265.998 19.9736 266.412 20.0038 266.422 20.5787C266.431 21.0186 266.443 21.0186 266.699 20.5787C266.847 20.3247 267.081 20.1169 267.219 20.1169C267.357 20.1169 267.479 20.3249 267.49 20.5787C267.503 20.8572 267.564 20.9089 267.645 20.7091C267.92 20.0276 268.263 20.7214 268.305 22.0459C268.346 23.2608 268.361 23.2965 268.446 22.3604C268.589 20.8045 268.817 20.3662 269.062 21.1728C269.252 21.7925 269.265 21.7804 269.29 20.9749C269.314 20.1273 269.649 19.8522 269.987 20.3992C270.083 20.5541 270.327 20.6173 270.53 20.5394C270.787 20.4407 270.909 20.6164 270.93 21.1151L270.963 21.8328L271.164 21.041L271.366 20.2492L271.434 21.1729L271.503 22.0966L271.692 21.041C271.875 20.0181 271.883 20.0344 271.962 21.5688L272.044 23.1523L272.198 21.5688C272.283 20.6932 272.474 20.0067 272.627 20.0331C273.977 20.2675 275.145 20.2927 275.271 20.0901C275.74 19.3302 275.918 20.6887 275.96 25.3451L276.006 30.5419L276.162 25.4793C276.248 22.6949 276.405 20.3295 276.511 20.223C276.618 20.1165 276.717 20.435 276.731 20.931C276.748 21.4269 276.852 22.1296 276.969 22.4925C277.125 22.9802 277.187 22.7146 277.207 21.4745C277.227 20.0592 277.298 19.8219 277.65 19.957C277.88 20.0451 278.177 20.1173 278.31 20.1173C278.444 20.1173 278.577 21.9659 278.607 24.2739L278.663 28.4306L278.816 24.3398L278.969 20.2492L279.08 26.3192L279.192 32.3892L279.334 26.4066C279.412 23.1161 279.565 20.3351 279.673 20.2266C279.782 20.1181 279.883 20.3163 279.898 20.6671L279.922 21.3049L280.133 20.6452C280.341 19.9957 280.345 19.9977 280.381 20.7772L280.418 21.569L280.781 20.734C281.121 19.9524 281.203 19.9123 282.069 20.1076C282.577 20.2222 283.3 20.2576 283.674 20.1859L284.355 20.0558L284.404 22.132C284.45 24.0117 284.462 24.0582 284.541 22.6245C284.638 20.8385 285.039 19.8291 285.57 20.0328C285.766 20.1083 286.37 20.1877 286.91 20.2098C287.718 20.2424 287.926 20.3671 288.076 20.9092C288.244 21.5148 288.261 21.5216 288.286 20.9908C288.327 20.1152 288.838 19.9672 288.851 20.8277L288.863 21.5691L289.369 20.6454C289.842 19.7807 289.875 19.7638 289.889 20.3816C289.898 20.7445 289.992 20.9226 290.099 20.7774C290.433 20.3221 290.951 20.3614 290.971 20.8435C290.987 21.2386 291.022 21.2288 291.216 20.7774C291.381 20.3925 291.459 20.6784 291.503 21.8331C291.544 22.8444 291.598 23.0828 291.659 22.4929C291.816 20.9648 292.009 20.3514 292.279 20.5184C292.419 20.6056 292.535 20.5428 292.535 20.3817C292.535 20.2195 292.653 20.1599 292.799 20.2496C292.96 20.3491 293.085 22.8028 293.121 26.5331L293.18 32.6535L293.326 26.4516L293.473 20.2496L293.589 26.5835L293.705 32.9174L293.845 27.5073C293.959 23.1348 294.027 22.4007 294.204 23.6805C294.511 25.9156 294.597 26.0164 294.651 24.2083C294.687 22.9976 294.748 22.7802 294.909 23.2846C295.092 23.857 295.124 23.8034 295.147 22.8814C295.163 22.1687 295.347 21.6694 295.701 21.3664C296.202 20.9371 296.228 20.9397 296.228 21.4181C296.228 22.1054 296.499 22.7568 296.784 22.7568C296.914 22.7568 297.028 22.1927 297.039 21.5033C297.051 20.56 297.113 20.3803 297.284 20.7774C297.409 21.0677 297.519 21.6318 297.529 22.031C297.537 22.4302 297.66 22.7568 297.797 22.7568C297.934 22.7568 298.091 23.2615 298.146 23.8784C298.203 24.5069 298.281 23.9555 298.324 22.6249C298.389 20.5836 298.431 20.398 298.618 21.3053C298.739 21.8859 298.858 23.6673 298.883 25.264C298.942 28.9381 299.295 27.815 299.423 23.5486C299.478 21.709 299.571 23.4242 299.658 27.9031L299.803 35.2926L299.889 28.1671C299.936 24.2479 300.058 20.7445 300.16 20.3816C300.582 18.884 300.978 22.9548 301.032 29.3326C301.061 32.901 301.118 34.6923 301.157 33.3134C301.261 29.5756 301.771 21.3912 301.941 20.7115C302.067 20.2085 302.267 20.1177 303.249 20.1177C304.126 20.1177 304.407 20.2184 304.407 20.5324C304.407 20.9055 304.448 20.9067 304.813 20.5405C305.091 20.2628 305.674 20.1466 306.66 20.1723C307.453 20.1927 308.101 20.2882 308.101 20.3836C308.101 20.6735 309.011 20.585 309.218 20.2751C309.345 20.0859 309.42 20.1226 309.435 20.3811C309.451 20.6792 309.502 20.6625 309.641 20.313C309.809 19.887 309.872 19.8827 310.414 20.262C310.871 20.5821 311.011 20.9536 311.036 21.9136L311.069 23.1523L311.273 21.7495C311.644 19.1978 312.282 19.7071 312.369 22.6244L312.424 24.4719L312.564 22.7564C312.697 21.1369 312.713 21.2033 312.857 23.944L313.009 26.8471L313.062 23.6141C313.094 21.6695 313.219 20.3812 313.377 20.3812C313.523 20.3812 313.655 20.8265 313.672 21.3709C313.688 21.9152 313.752 22.1231 313.814 21.8328C313.875 21.5424 313.987 21.0205 314.062 20.6729C314.209 19.9915 314.564 20.1756 314.772 21.0411C314.868 21.4399 314.907 21.3918 314.93 20.8434C314.959 20.1371 315.752 19.7428 315.752 20.4342C315.752 20.6752 315.825 20.6776 316.059 20.4423C316.293 20.2083 316.449 20.243 316.711 20.5875C317.035 21.0141 317.055 21.0135 317.063 20.5793C317.071 20.2091 317.307 20.1176 318.258 20.1176H319.446L319.466 21.635C319.491 23.3161 319.583 23.2489 319.837 21.3712C320.018 20.0249 320.498 19.6456 320.505 20.8435C320.509 21.3415 320.579 21.4587 320.732 21.2173C321.103 20.6314 321.289 21.5182 321.323 24.0321C321.347 25.9611 321.387 26.1543 321.571 25.2641C321.691 24.6836 321.817 23.5554 321.85 22.757L321.911 21.3054L322.072 23.021L322.234 24.7363L322.47 22.757C322.648 21.2594 322.752 20.9382 322.896 21.4374C323.071 22.0455 323.088 22.0519 323.112 21.5189C323.158 20.5267 323.6 20.6025 323.804 21.6376C323.912 22.1808 324.073 26.2473 324.163 30.6745L324.328 38.7239L324.458 29.6749C324.569 22.0774 324.652 20.5874 324.979 20.3853C325.242 20.2231 325.521 20.2826 325.837 20.568C326.122 20.8261 326.304 20.8727 326.304 20.6867C326.304 19.9878 326.807 20.4507 326.905 21.2397C327.004 22.0353 327.015 22.0209 327.058 21.0415C327.091 20.2534 327.169 20.0862 327.36 20.3817C327.579 20.7202 327.616 20.7104 327.62 20.3157C327.624 19.6779 328.078 19.7348 328.289 20.4C328.439 20.8715 328.504 20.8921 328.769 20.5501C329.232 19.9508 329.8 19.9407 330.48 20.5175C331.647 21.5111 331.687 21.7929 331.853 30.1447L332.012 38.194L332.081 31.7282C332.118 28.172 332.191 25.381 332.242 25.5262C332.292 25.6714 332.423 26.6215 332.532 27.6376L332.731 29.4849L332.928 28.2973C333.036 27.6441 333.134 25.7143 333.144 24.0087C333.157 22.1304 333.268 20.9077 333.428 20.9077C333.573 20.9077 333.711 21.5311 333.735 22.2932L333.777 23.6787L333.932 22.2477C334.018 21.4592 334.235 20.768 334.417 20.7082C334.663 20.6275 334.76 21.2277 334.797 23.063L334.848 25.5262L334.997 23.019C335.083 21.5774 335.214 20.7923 335.306 21.1716C335.461 21.8092 335.469 21.8047 335.54 21.0395C335.58 20.6041 335.756 21.5541 335.931 23.1508C336.107 24.7474 336.27 25.5789 336.294 24.9982C336.319 24.4176 336.453 23.7644 336.594 23.5467C336.771 23.2723 336.86 23.8394 336.883 25.394C336.904 26.6278 336.993 28.7656 337.086 30.1446L337.256 32.6516L337.451 29.2209C337.559 27.3339 337.656 25.0774 337.667 24.2065C337.679 23.0769 337.751 22.7742 337.913 23.1508C338.073 23.5243 338.158 23.1386 338.203 21.8313L338.267 19.9838L338.44 21.6992C338.535 22.6428 338.642 23.2959 338.677 23.1508C338.714 23.0056 338.843 23.1263 338.968 23.4146C339.128 23.7885 339.214 23.4024 339.261 22.0951L339.328 20.2476L339.495 22.359C339.614 23.8609 339.676 24.1136 339.711 23.2346C339.752 22.1905 339.882 21.9116 340.551 21.4352L341.342 20.8715L341.392 28.8728L341.441 36.8742L341.619 30.4084C341.897 20.3372 341.923 19.6854 342.043 20.2476C342.104 20.5379 342.23 21.0723 342.322 21.4352C342.484 22.071 342.496 22.0641 342.642 21.2444C342.76 20.5779 342.877 20.4464 343.182 20.6367C343.497 20.8332 343.601 21.9749 343.729 26.6335L343.888 32.3877L343.959 26.4496C344.025 21.0239 344.06 20.6254 344.37 21.8311L344.709 23.1508L344.742 21.9607C344.766 21.0784 344.91 20.6852 345.301 20.4408C345.651 20.2219 345.829 20.2072 345.829 20.3964C345.829 20.7887 346.52 21.4479 346.721 21.247C346.81 21.1573 346.897 21.9644 346.912 23.0409L346.941 24.9983L347.229 23.8108L347.516 22.623L347.69 23.6787C347.83 24.526 347.872 24.3338 347.902 22.7047C347.922 21.5883 348.045 20.6097 348.174 20.5301C348.517 20.318 348.773 22.353 348.986 26.9777L349.175 31.0683L349.221 25.6581C349.262 21.007 349.315 20.3405 349.614 20.9077C349.805 21.2706 350.1 21.5378 350.27 21.5015C350.462 21.4603 350.595 21.8587 350.622 22.5572L350.667 23.6787L350.784 22.623C350.878 21.767 350.941 21.6673 351.117 22.0953C351.293 22.5261 351.341 22.4533 351.377 21.6994C351.419 20.8438 351.438 20.8244 351.633 21.4356C351.822 22.0235 351.852 21.9804 351.915 21.0396C351.977 20.1162 352.008 20.1823 352.161 21.5675L352.336 23.1509L352.381 21.7654C352.432 20.1484 352.911 19.9927 353.394 21.4356L353.703 22.3592L353.724 21.5193C353.74 20.895 353.893 20.6319 354.326 20.4946C354.698 20.3768 354.948 20.4286 355.018 20.6386C355.101 20.8906 355.181 20.8832 355.355 20.606C355.536 20.3205 355.584 20.3177 355.587 20.5897C355.591 20.7797 355.71 20.8615 355.855 20.7718C356.025 20.6662 356.131 21.9437 356.156 24.3851L356.192 28.1615L356.408 25.5223C356.741 21.4641 357.014 21.0919 357.186 24.4666L357.333 27.3698L357.389 24.4666C357.426 22.4784 357.526 21.6883 357.701 21.9594C357.888 22.2493 357.964 22.037 357.982 21.1678L358.007 19.9802L358.358 20.7718L358.709 21.5636L358.893 20.8379C359.164 19.7693 359.503 19.9542 359.618 21.2337L359.719 22.3554L359.774 21.0358C359.818 19.9532 359.886 19.7874 360.149 20.1122C360.482 20.5217 361.486 20.6359 361.82 20.3022C361.924 20.1978 362.212 20.1122 362.459 20.1122C363.05 20.1122 363.221 21.2067 363.286 25.3904L363.337 28.6893L363.537 25.9183C363.813 22.0814 364.117 20.0982 364.428 20.1014C364.573 20.1033 364.76 20.9075 364.843 21.8895L364.994 23.675L365.041 21.8936C365.077 20.5067 365.175 20.1122 365.483 20.1122C365.75 20.1122 365.884 20.3906 365.896 20.9698L365.912 21.8275L366.224 21.1678C366.487 20.6116 366.557 21.0675 366.672 24.0708L366.807 27.6337L366.964 24.8626C367.05 23.3385 367.244 21.6758 367.396 21.1678C367.665 20.2647 367.673 20.2794 367.732 21.8275C367.765 22.6984 367.875 25.6082 367.975 28.2935L368.158 33.1759L368.214 26.9739C368.259 21.9938 368.346 20.671 368.657 20.2597C368.87 19.9779 369.044 19.844 369.044 19.962C369.044 20.0803 369.219 20.0313 369.434 19.8535C369.754 19.5873 369.878 19.6517 370.137 20.2213L370.452 20.9123L371.03 20.3692L371.608 19.8261L371.777 21.0615C371.87 21.741 371.948 24.9821 371.95 28.264C371.954 31.6607 372.064 34.4018 372.21 34.6271C372.379 34.8889 372.472 32.8345 372.485 28.557C372.506 21.822 372.648 20.0979 373.2 19.9136C373.45 19.8304 373.538 20.5897 373.565 23.0589C373.606 26.6359 373.68 26.5598 373.936 22.685C374.029 21.2698 374.208 20.1118 374.333 20.1118C374.909 20.1118 375.112 22.6086 375.158 30.2725C375.212 39.2167 375.287 39.1727 375.609 30.0087C375.822 23.9412 375.822 23.9402 375.908 27.7654L375.995 31.5922L376.178 28.5572C376.279 26.8879 376.386 24.2752 376.415 22.7511C376.452 20.9298 376.546 20.1609 376.695 20.5078C376.82 20.7981 376.93 20.8871 376.941 20.7056C376.949 20.5242 377.134 20.3758 377.347 20.3758C377.664 20.3758 377.75 20.9933 377.817 23.7406L377.9 27.1055L377.957 23.6087L378.015 20.1118H378.917C379.717 20.1118 379.84 20.2072 380.004 20.9541L380.189 21.7964L380.487 21.1521C380.651 20.7978 380.992 20.4728 381.246 20.4301C381.63 20.3657 381.708 20.5562 381.708 21.5518C381.708 22.2114 381.827 22.751 381.972 22.751C382.117 22.751 382.236 22.5063 382.236 22.2076C382.236 21.9087 382.354 21.7375 382.499 21.8272C382.644 21.9169 382.788 23.1411 382.817 24.5478L382.871 27.1054L382.961 24.8636C383.01 23.6306 383.164 22.5084 383.303 22.3697C383.441 22.2311 383.567 21.6958 383.581 21.1805C383.602 20.4211 383.64 20.3591 383.779 20.8531C383.985 21.5864 384.387 21.6493 384.647 20.9888C384.772 20.672 384.849 20.9135 384.874 21.6951C384.902 22.5646 384.966 22.7413 385.117 22.3549C385.23 22.0646 385.488 21.827 385.689 21.827C385.891 21.827 386.116 21.5302 386.19 21.1673C386.264 20.8044 386.443 20.4866 386.589 20.4611C386.734 20.4367 387.06 20.3339 387.314 20.2348C387.733 20.0717 387.78 20.2955 387.818 22.6564L387.861 25.2578L388.016 23.3655C388.221 20.8727 388.56 20.6016 388.594 22.9046C388.614 24.2204 388.679 24.5458 388.831 24.0702C388.997 23.5522 389.052 23.7224 389.087 24.862C389.112 25.6603 389.234 26.551 389.359 26.8413C389.501 27.1736 389.592 26.0841 389.604 23.9005C389.621 21.1809 389.702 20.4013 389.993 20.2899C390.499 20.0954 390.678 20.3323 390.678 21.1955C390.678 21.5984 390.797 22.0011 390.942 22.0908C391.099 22.1879 391.206 21.8736 391.206 21.3147C391.206 19.6583 391.732 20.3129 391.776 22.0249L391.819 23.6744L391.997 22.2229C392.095 21.4245 392.194 20.9198 392.218 21.1012C392.282 21.5914 392.732 21.5004 392.87 20.9691C392.937 20.715 393.028 21.873 393.074 23.5422L393.158 26.5773L393.316 23.4103L393.474 20.2432L393.581 23.4103C393.687 26.5309 393.69 26.5433 393.776 24.2588C393.829 22.8652 393.966 22.003 394.118 22.0972C394.259 22.184 394.372 21.901 394.372 21.4621C394.372 20.0573 394.867 20.3028 394.961 21.754L395.051 23.1465L395.274 22.016C395.397 21.3943 395.57 20.9586 395.66 21.0478C395.749 21.1371 395.891 22.5958 395.974 24.2896L396.126 27.3691L396.172 23.7248C396.201 21.3735 396.312 20.1382 396.483 20.2434C396.628 20.3331 396.746 20.8153 396.746 21.3147C396.746 21.8142 396.865 22.2227 397.01 22.2227C397.155 22.2227 397.274 21.8071 397.274 21.2991C397.274 20.2731 397.7 20.0406 397.879 20.9692C397.977 21.4783 397.999 21.4596 398.029 20.8372C398.076 19.895 398.743 19.8853 398.978 20.8248C399.119 21.3832 399.209 21.4544 399.399 21.1547C399.586 20.8591 399.641 20.9102 399.644 21.3819C399.648 21.7204 399.766 21.9187 399.912 21.8282C400.057 21.7384 400.176 21.2564 400.176 20.7569C400.176 20.2575 400.295 19.8488 400.44 19.8488C400.585 19.8488 400.703 20.0233 400.703 20.2365C400.703 20.4726 400.858 20.5648 401.099 20.4722C401.322 20.3866 401.495 20.4681 401.495 20.6532C401.495 20.873 401.674 20.8241 402.023 20.5089C402.313 20.2463 402.55 20.1273 402.55 20.2451C402.55 20.3625 402.788 20.2441 403.078 19.9813C403.587 19.5202 403.606 19.5203 403.606 19.985C403.606 20.2493 403.685 20.3862 403.782 20.2892C403.879 20.1921 404.176 20.3096 404.442 20.5502C404.874 20.9412 404.925 21.4593 404.925 25.4331C404.925 28.2209 405.023 29.8788 405.189 29.8788C405.354 29.8788 405.452 28.2073 405.452 25.3922C405.452 22.8138 405.556 20.9057 405.697 20.9057C405.831 20.9057 405.996 20.6977 406.062 20.4438C406.129 20.1898 406.218 21.4072 406.262 23.149L406.341 26.316L406.49 23.4871C406.607 21.2841 406.742 20.5563 407.101 20.1976C407.541 19.7592 407.564 19.7684 407.572 20.3872C407.58 20.9842 407.608 20.9997 407.93 20.5756C408.123 20.3216 408.357 20.1137 408.45 20.1137C408.542 20.1137 408.639 21.2123 408.664 22.555L408.71 24.9961L408.862 22.7076C408.946 21.449 409.105 20.3287 409.217 20.2181C409.737 19.7006 410.012 20.8748 410.191 24.3795C410.297 26.4605 410.411 27.7474 410.443 27.2394C410.803 21.6129 410.914 20.3688 411.071 20.2119C411.171 20.1116 411.492 20.3039 411.783 20.6396C412.074 20.9755 412.312 21.1132 412.312 20.9458C412.312 20.7782 412.431 20.6417 412.576 20.6417C412.721 20.6417 412.862 21.384 412.89 22.2912L412.94 23.9405L413.036 22.3571C413.089 21.4862 413.245 20.6608 413.382 20.523C413.54 20.3648 413.632 20.3998 413.632 20.6172C413.632 20.8153 413.8 20.8972 414.028 20.8099C414.33 20.6937 414.423 20.8634 414.423 21.5295C414.423 22.9233 414.757 22.876 415.2 21.4194C415.426 20.6779 415.729 20.0511 415.875 20.0265C416.02 20.002 416.174 20.6645 416.217 21.4991C416.261 22.3338 416.38 23.0156 416.481 23.0145C416.761 23.0108 417.321 21.6792 417.361 20.9187C417.381 20.5484 417.489 21.1241 417.601 22.198C417.714 23.2718 417.935 24.4001 418.093 24.7052C418.26 25.0261 418.412 27.2062 418.453 29.8784C418.511 33.5843 418.538 33.141 418.589 27.6351C418.626 23.7724 418.764 20.6003 418.908 20.3775C419.107 20.0701 419.165 20.1475 419.168 20.7228C419.172 21.149 419.284 21.3948 419.436 21.3011C419.604 21.1967 419.699 22.0022 419.699 23.5288C419.699 24.9467 419.807 25.9195 419.963 25.9195C420.112 25.9195 420.227 25.179 420.227 24.2257C420.227 23.2941 420.299 22.3446 420.386 22.1158C420.825 20.9727 421.023 22.4771 421.072 27.3207L421.127 32.6494L421.285 27.767C421.373 25.0817 421.492 22.8251 421.551 22.7526C421.611 22.68 421.727 24.699 421.809 27.2391L421.96 31.8576L422.021 26.3154C422.053 23.2671 422.196 20.5951 422.337 20.3774C422.52 20.094 422.594 20.3754 422.597 21.367C422.6 22.1291 422.719 22.7526 422.864 22.7526C423.023 22.7526 423.146 24.0366 423.174 25.9855L423.219 29.2185L423.371 26.2396C423.462 24.4776 423.645 23.1838 423.821 23.0726C423.985 22.969 424.215 22.3502 424.331 21.697C424.448 21.0438 424.59 20.7172 424.647 20.9712C424.789 21.6108 425.357 21.5486 425.852 20.839C426.252 20.2664 426.268 20.297 426.311 21.6967L426.357 23.1483L426.659 21.8767C427.027 20.3298 427.337 20.5258 427.384 22.3346C427.417 23.6371 427.425 23.6235 427.629 21.8701C427.828 20.1483 428.136 19.1928 428.145 20.2673C428.148 20.6905 428.191 20.7084 428.405 20.3773C428.595 20.082 428.672 20.2497 428.704 21.0371C428.741 21.9362 428.764 21.9753 428.86 21.3009C429 20.3173 429.391 19.8648 429.583 20.465C430.016 21.8193 430.05 21.8463 430.281 21.014C430.476 20.3151 430.638 20.1942 431.42 20.1648C432.286 20.1322 432.336 20.1811 432.427 21.1115L432.523 22.0927L432.746 20.9309C432.95 19.873 433.002 19.8126 433.326 20.2556C433.521 20.523 433.681 21.2014 433.681 21.7628C433.681 22.3762 433.787 22.7184 433.945 22.6204C434.09 22.5307 434.209 21.9963 434.209 21.4328C434.209 20.8693 434.328 20.3349 434.473 20.2452C434.646 20.138 434.753 23.2675 434.784 29.4007C434.829 37.9794 434.847 38.3211 435.014 33.7048C435.114 30.9469 435.211 26.787 435.23 24.4605L435.263 20.2305L436.648 20.251C437.41 20.2632 438.224 20.1809 438.458 20.0708C439.018 19.8074 439.681 20.3406 439.825 21.1698C439.939 21.8276 439.94 21.8275 439.975 21.1193C439.996 20.7286 440.13 20.3357 440.275 20.246C440.445 20.1408 440.539 21.167 440.539 23.1335C440.539 24.9913 440.642 26.1841 440.803 26.1841C440.963 26.1841 441.068 24.9718 441.07 23.0831C441.073 21.2498 441.167 20.1285 441.301 20.3402C441.459 20.5897 441.583 20.6096 441.708 20.4061C441.807 20.2455 442.06 20.1142 442.269 20.1142C442.54 20.1142 442.663 20.4743 442.697 21.3679L442.744 22.6214L442.843 21.3695C442.914 20.4761 443.086 20.0404 443.444 19.8485C443.844 19.6341 444.005 19.6887 444.234 20.1184C444.393 20.4145 444.636 20.5868 444.775 20.5009C444.914 20.4149 445.096 20.5254 445.181 20.7456C445.306 21.0714 445.464 21.0176 446.023 20.4581C446.436 20.0459 446.753 19.8923 446.814 20.0756C446.87 20.244 447.024 20.3146 447.157 20.2327C447.29 20.1507 447.415 20.417 447.434 20.8248C447.471 21.54 447.475 21.5429 447.593 20.9063C447.754 20.0396 447.927 19.9579 449.357 20.0718C450.374 20.1529 450.569 20.2573 450.595 20.735C450.62 21.1631 450.676 21.108 450.828 20.5103C451.026 19.7325 451.031 19.7372 451.1 20.7741C451.163 21.712 451.184 21.7416 451.288 21.0387C451.432 20.0533 451.911 19.7198 452.346 20.3015C452.653 20.7134 452.675 20.7132 452.675 20.2975C452.675 20.052 452.781 19.8511 452.911 19.8511C453.307 19.8511 453.556 20.6882 453.737 22.6223L453.909 24.4696L453.955 22.3582C453.988 20.8851 454.079 20.3667 454.258 20.6429C454.399 20.8607 454.534 20.9201 454.559 20.7749C454.584 20.6298 454.679 21.1049 454.77 21.8306L454.935 23.1503L455.225 21.6987C455.51 20.2689 455.515 20.2925 455.585 23.2822C455.66 26.4821 455.713 26.4066 455.981 22.715C456.138 20.5686 456.186 20.4252 456.786 20.3104C457.396 20.1938 457.425 20.253 457.461 21.6694L457.498 23.1503L457.663 21.8306C457.864 20.2277 458.17 19.62 458.508 20.153C458.667 20.4042 458.736 20.4148 458.738 20.1897C458.741 20.0128 458.921 19.9365 459.138 20.0201C459.377 20.1119 459.551 20.5529 459.576 21.1334L459.619 22.0949L459.726 21.222C459.853 20.195 460.376 19.912 461.267 20.389C461.858 20.7054 461.913 20.9019 461.96 22.8653L462.012 24.998L462.105 23.2165C462.156 22.2367 462.302 21.4351 462.43 21.4351C462.558 21.4351 462.716 21.2272 462.783 20.9733C462.849 20.7193 462.917 24.579 462.934 29.5505C462.954 35.3802 463.058 38.5895 463.228 38.5895C463.402 38.5895 463.483 32.1191 463.466 19.6537C463.449 9.23899 463.344 1.01471 463.228 1.3776C463.112 1.7405 463.005 5.81514 462.991 10.4323C462.974 15.9551 462.874 18.7714 462.7 18.6641C462.555 18.5743 462.437 17.8477 462.437 17.0494C462.437 16.1489 462.336 15.6599 462.173 15.761C462.028 15.8507 461.909 16.8173 461.909 17.9089V19.8936L461.052 19.7097C459.859 19.4536 459.803 19.3993 459.763 18.4505C459.734 17.7476 459.709 17.7175 459.618 18.2684C459.395 19.6171 459.257 19.7627 458.865 19.06C458.587 18.5596 458.496 18.5119 458.489 18.8619C458.477 19.5292 457.984 19.4301 457.835 18.7298C457.765 18.4032 457.658 17.8984 457.597 17.6081C457.535 17.3178 457.472 17.5339 457.454 18.0888C457.422 19.1351 456.77 20.1021 456.374 19.6893C456.251 19.5608 456.039 17.7336 455.904 15.6289L455.657 11.802L455.597 15.4968C455.54 18.9549 455.514 19.124 455.189 18.136L454.841 17.0804L454.808 18.268C454.784 19.1387 454.708 19.3499 454.521 19.0596C454.38 18.8419 454.242 18.7824 454.213 18.9276C454.184 19.0728 454.085 18.2414 453.993 17.0801L453.826 14.9689L453.769 17.4761C453.728 19.3261 453.642 19.8622 453.444 19.5214C453.165 19.0419 452.41 18.8794 452.41 19.2988C452.41 19.4305 452.172 19.4758 451.882 19.4C451.536 19.3094 451.342 19.0223 451.32 18.5669C451.291 17.9751 451.256 18.009 451.091 18.7956L450.896 19.7194L450.83 18.9276L450.764 18.1358L450.595 18.9244C450.418 19.7519 449.811 20.0495 449.03 19.6908C448.785 19.5778 448.406 19.4788 448.188 19.4706C447.92 19.4625 447.744 19.0714 447.644 18.2679L447.496 17.0803L447.38 18.136C447.27 19.1444 447.226 19.1886 446.407 19.1246C445.79 19.0765 445.55 19.169 445.55 19.4545C445.55 20.0575 445.036 19.9283 444.766 19.2575C444.635 18.9309 444.52 18.8121 444.511 18.9937C444.503 19.1788 444.154 19.3236 443.719 19.3236C443.017 19.3236 442.933 19.2298 442.84 18.3339L442.736 17.3442L442.692 18.4658C442.647 19.6032 442.417 19.7862 441.482 19.4273C441.129 19.292 441.058 18.6461 441.023 15.2706C440.99 11.9476 440.95 11.5854 440.792 13.1215C440.687 14.1376 440.588 16.0279 440.57 17.3222C440.537 19.7154 440.376 20.0441 440.006 18.4793C439.8 17.6109 439.799 17.6117 439.772 18.7357L439.744 19.8635L439.109 19.4471C438.728 19.1976 438.41 19.1335 438.315 19.2868C438.228 19.4279 437.617 19.5429 436.957 19.5429C435.35 19.5429 435.266 19.2665 435.229 13.8297C435.212 11.4078 435.113 7.88234 435.009 5.99534C434.857 3.22851 434.812 4.1965 434.776 10.9966C434.735 18.5903 434.583 20.338 434.132 18.3994C434.034 17.9787 433.969 18.0417 433.813 18.7096C433.577 19.7228 432.894 19.6214 432.866 18.569C432.854 18.1853 432.745 17.6339 432.621 17.3436C432.454 16.9558 432.389 17.1837 432.375 18.2013C432.363 19.2487 432.26 19.5869 431.961 19.5869C431.743 19.5869 431.565 19.4601 431.565 19.3051C431.565 19.1433 431.34 19.0948 431.036 19.1914C430.641 19.317 430.444 19.2036 430.261 18.7473L430.016 18.1352L429.999 18.817C429.979 19.635 429.793 19.8624 429.297 19.6722C429.064 19.5825 428.91 19.0783 428.881 18.3049L428.835 17.0795L428.721 18.2671C428.631 19.1995 428.56 19.3414 428.39 18.927C428.205 18.4777 428.17 18.4679 428.154 18.8609C428.142 19.1149 428.017 19.3227 427.872 19.3227C427.727 19.3227 427.586 18.6398 427.559 17.8052L427.51 16.2876L427.414 17.6732C427.312 19.1228 426.817 19.6288 426.817 18.2827C426.817 17.0458 426.328 17.0832 426.239 18.3271L426.157 19.4547L425.444 18.1351L424.73 16.8156L424.714 17.7393C424.702 18.4354 424.635 18.5655 424.442 18.2671C424.302 18.0494 424.181 17.515 424.174 17.0795C424.162 16.326 424.141 16.3125 423.774 16.8002C423.425 17.2618 423.381 17.0269 423.332 14.425L423.276 11.5374L423.189 14.1754C423.13 15.9639 423.021 16.6863 422.853 16.4186C422.679 16.1446 422.601 16.5076 422.595 17.6075C422.591 18.7284 422.512 19.0753 422.331 18.7951C422.189 18.5749 422.048 15.5889 422.013 12.0652L421.951 5.73129L421.804 11.4055C421.722 14.5263 421.614 16.8421 421.563 16.5518C421.512 16.2615 421.389 13.233 421.29 9.82192L421.11 3.62002L421.038 9.95395C420.965 16.4197 420.731 19.5546 420.418 18.2672C420.33 17.9043 420.147 16.9542 420.01 16.1558L419.762 14.7043L419.709 16.1558C419.668 17.2309 419.597 17.4705 419.429 17.0796C419.258 16.6817 419.191 16.8766 419.157 17.8714C419.121 18.9413 419.072 19.0661 418.901 18.5312C418.785 18.1683 418.656 15.0805 418.613 11.6694L418.537 5.46737L418.345 10.6137C418.173 15.2426 417.463 20.7806 417.313 18.6631C417.27 18.0587 417.223 17.9963 417.114 18.3993C417.011 18.7781 416.88 18.5541 416.648 17.6075L416.326 16.288L416.293 17.6924C416.265 18.8805 416.207 19.0412 415.901 18.7357C415.703 18.5372 415.455 18.1064 415.351 17.7786C415.061 16.8652 414.557 17.2572 414.467 18.4652C414.382 19.6188 413.624 20.6698 413.624 19.6348C413.624 19.3351 413.505 19.0168 413.36 18.9271C413.215 18.8374 413.074 17.91 413.048 16.8662C413.003 15.1424 412.99 15.1015 412.909 16.4199C412.79 18.3157 412.632 18.7924 412.295 18.2599C412.111 17.9688 412.048 17.9587 412.045 18.2192C412.041 18.6397 411.283 19.4433 411.082 19.2418C411.003 19.1631 410.852 17.785 410.746 16.1791C410.532 12.9326 410.196 11.9687 410.193 14.5935C410.193 15.5249 410.115 17.0922 410.022 18.0764C409.857 19.8199 409.841 19.8527 409.375 19.3524C409.005 18.9561 408.877 18.308 408.808 16.5072L408.72 14.1756L408.666 16.8808C408.633 18.4721 408.503 19.5859 408.348 19.5859C408.203 19.5859 408.084 19.4076 408.084 19.1899C408.084 18.9722 407.965 18.7941 407.82 18.7941C407.675 18.7941 407.557 18.9127 407.557 19.0579C407.557 19.203 407.386 19.3217 407.177 19.3217C406.76 19.3217 406.548 18.214 406.418 15.363C406.369 14.3073 406.32 14.7459 406.288 16.5034C406.243 19.042 406.193 19.3154 405.842 18.9634C405.516 18.6381 405.439 17.5213 405.404 12.6767C405.372 7.95023 405.324 7.25521 405.168 9.16093C405.061 10.4673 404.962 13.3275 404.946 15.5169C404.93 17.7063 404.838 19.5778 404.74 19.6757C404.642 19.7736 404.362 19.5476 404.116 19.1732C403.754 18.6218 403.64 18.5715 403.511 18.9071C403.319 19.4076 401.754 19.4825 401.748 18.9914C401.744 18.7676 401.654 18.7892 401.465 19.0575C401.264 19.3405 401.148 19.3633 401.056 19.1383C400.985 18.965 400.757 18.8886 400.548 18.9685C400.278 19.0725 400.17 18.9131 400.17 18.4103C400.17 18.0083 400.056 17.7767 399.906 17.8698C399.761 17.9595 399.642 18.2633 399.642 18.5452C399.642 19.3083 398.38 19.2429 398.067 18.4636C397.838 17.8934 397.828 17.8918 397.812 18.4197C397.784 19.3059 397.456 19.3907 397.107 18.6018L396.783 17.8699L396.759 18.9255C396.738 19.7091 396.667 19.8792 396.477 19.5854C396.337 19.3676 396.198 17.5267 396.17 15.4946L396.119 11.7998L395.94 15.2307C395.841 17.1177 395.731 18.721 395.693 18.7936C395.657 18.8662 395.475 18.2723 395.289 17.474L394.953 16.0225L394.924 17.8195C394.908 18.8079 394.789 19.5512 394.66 19.4714C394.337 19.272 394.095 17.8185 393.866 14.703L393.671 12.0637L393.571 15.3627L393.471 18.6616L393.312 15.7585L393.153 12.8555L393.054 16.0225C393.001 17.7643 392.911 18.6847 392.855 18.0678C392.743 16.8193 392.286 16.541 392.205 17.6719C392.177 18.0711 392.081 17.1506 391.993 15.6265L391.832 12.8555L391.78 16.104C391.748 18.1901 391.635 19.2942 391.465 19.1894C391.32 19.0997 391.193 18.588 391.182 18.0522C391.166 17.2672 391.12 17.1805 390.937 17.6059C390.812 17.8962 390.702 18.4604 390.692 18.8595C390.683 19.2587 390.624 19.5852 390.563 19.5852C390.502 19.5852 390.265 19.6574 390.035 19.7455C389.666 19.887 389.618 19.456 389.618 16.0351C389.618 12.1713 389.29 11.0681 389.005 13.9729C388.742 16.6501 388.499 18.0018 388.282 18.0018C388.165 18.0018 388.021 17.6752 387.96 17.276C387.899 16.8768 387.832 17.3127 387.81 18.2406C387.769 19.9301 387.769 19.9308 387.227 19.4388C386.789 19.0424 386.641 19.0154 386.464 19.3005C386.318 19.5378 386.178 19.272 386.041 18.4983C385.862 17.489 385.814 17.4259 385.664 18.0018C385.525 18.5365 385.448 18.3864 385.26 17.2102L385.028 15.7587L384.859 17.2102C384.766 18.0085 384.671 18.335 384.647 17.9359C384.599 17.1203 384.077 16.9248 384.077 17.7222C384.077 18.4758 383.639 18.6164 383.421 17.9326C383.317 17.6077 383.145 16.0355 383.038 14.4388L382.843 11.5357L382.796 15.0985C382.744 19.0231 382.442 20.2317 382.079 17.9575L381.855 16.55L381.762 17.6996C381.677 18.7507 381.637 18.8071 381.298 18.3593C380.947 17.8964 380.926 17.9056 380.91 18.5293C380.894 19.1416 380.868 19.1552 380.536 18.7169C380.204 18.2792 380.158 18.3032 379.898 19.0468C379.583 19.9508 379.605 19.9411 378.693 19.5943C378.029 19.3419 378.023 19.3117 377.942 15.8336L377.86 12.3273L377.802 16.088C377.769 18.1565 377.639 19.8488 377.509 19.8488C377.223 19.8488 376.962 19.2183 376.927 18.4417C376.902 17.9155 376.883 17.9224 376.689 18.5293C376.562 18.926 376.456 17.4011 376.424 14.7026C376.395 12.235 376.282 9.14718 376.175 7.84081C376.005 5.75757 375.971 6.11449 375.896 10.7439L375.811 16.0221L375.628 10.0116C375.527 6.70577 375.369 3.9249 375.276 3.83168C375.182 3.73831 375.094 7.03696 375.08 11.1617C375.064 15.2865 374.975 18.9431 374.878 19.2876L374.703 19.9139L374.364 19.2814C374.178 18.9336 373.93 17.2266 373.813 15.4881L373.6 12.3274L373.563 15.8242C373.53 18.7396 373.459 19.3211 373.129 19.3211C372.911 19.3211 372.711 19.2925 372.685 19.255C372.656 19.2183 372.564 15.5667 372.476 11.1395L372.316 3.09018L372.242 11.1395C372.198 15.9309 372.077 18.9753 371.942 18.6611C371.717 18.1362 371.715 18.1363 371.697 18.6693C371.688 18.9637 371.444 19.4048 371.158 19.6496C370.686 20.0536 370.617 20.0561 370.404 19.6741C370.273 19.4409 369.831 19.2553 369.407 19.2562C368.987 19.2573 368.557 19.1232 368.45 18.9593C368.343 18.795 368.236 17.4138 368.211 15.8897L368.166 13.1187L367.986 16.2207C367.888 17.9268 367.74 19.3892 367.659 19.4706C367.491 19.6382 366.959 16.6321 366.838 14.8341C366.794 14.1809 366.731 15.0718 366.699 16.8135C366.646 19.7315 366.613 19.9182 366.279 19.1887C365.939 18.4468 365.915 18.4364 365.895 19.0232C365.875 19.549 365.81 19.5967 365.478 19.3208C365.191 19.0827 365.067 18.3663 365.028 16.7153L364.975 14.4384L364.886 16.6156C364.822 18.1786 364.7 18.793 364.454 18.793C364.1 18.793 363.556 15.2957 363.408 12.0631C363.367 11.1922 363.304 12.2609 363.266 14.4384C363.23 16.6157 363.114 18.6079 363.013 18.8656C362.624 19.8491 360.597 20.3125 360.597 19.4177C360.597 19.2021 360.481 19.0969 360.341 19.1842C360.2 19.271 360.011 19.0108 359.922 18.6058C359.646 17.3564 359.584 17.3063 359.562 18.3148C359.546 19.1192 359.45 19.2811 359.014 19.2483C358.724 19.2279 358.484 19.0856 358.482 18.9347C358.478 18.7842 358.363 18.8393 358.223 19.0566C358.036 19.3449 357.964 19.13 357.959 18.2649C357.955 17.3998 357.881 17.1847 357.695 17.4731C357.516 17.7495 357.424 17.2325 357.387 15.7577L357.334 13.6464L357.185 15.7577C357.057 17.5593 357 17.7529 356.795 17.0773C356.662 16.6418 356.473 15.276 356.375 14.0422C356.206 11.936 356.193 12.0271 356.154 15.5316C356.121 18.579 356.039 19.292 355.716 19.416C355.416 19.5314 355.318 19.3625 355.31 18.7184L355.302 17.869L354.931 18.7238C354.437 19.86 353.756 19.6273 353.698 18.3026L353.656 17.3412L353.546 18.2476C353.464 18.9153 353.373 19.0542 353.196 18.7753C353.001 18.4674 352.956 18.4859 352.953 18.8745C352.949 19.1371 352.83 19.2785 352.685 19.1888C352.54 19.0991 352.401 18.3498 352.377 17.5237C352.34 16.2438 352.315 16.1779 352.216 17.0775C352.121 17.9335 352.059 18.0333 351.883 17.6052C351.699 17.1564 351.663 17.196 351.644 17.8692C351.628 18.4807 351.563 18.5707 351.366 18.265C351.152 17.9343 351.102 17.956 351.06 18.3971C351.032 18.6875 350.933 18.1529 350.838 17.2095L350.665 15.4941L350.62 16.996C350.595 17.8221 350.455 18.5714 350.31 18.6611C350.165 18.7508 350.033 19.0844 350.016 19.4024C349.988 19.9372 349.975 19.9409 349.858 19.453C349.789 19.1626 349.624 18.8124 349.493 18.6745C349.362 18.5367 349.227 15.33 349.194 11.5488L349.133 4.67385L349.057 10.8224C349.008 14.7577 348.888 16.9133 348.722 16.8109C348.569 16.7163 348.463 17.0885 348.463 17.722C348.463 19.5489 347.938 18.8985 347.89 17.0118L347.845 15.2303L347.692 16.9457L347.539 18.6612L347.276 16.4179L347.014 14.1747L346.936 16.2201C346.857 18.2823 346.469 18.9957 346.289 17.4076C346.205 16.6708 346.161 16.7508 345.969 17.9766C345.777 19.2069 345.701 19.3411 345.416 18.9522C345.167 18.6106 345.053 18.585 344.949 18.8451C344.873 19.0343 344.802 18.7435 344.791 18.1993C344.766 16.9845 344.315 16.889 344.169 18.0671C344.11 18.5389 344.024 16.3716 343.977 13.2508L343.891 7.57664L343.708 13.5872C343.608 16.8929 343.443 19.6804 343.342 19.7815C343.049 20.0738 342.667 19.266 342.663 18.3466C342.659 17.8835 342.54 17.4312 342.395 17.3414C342.244 17.2481 342.131 17.4854 342.131 17.8977C342.131 18.2932 342.06 18.546 341.974 18.4592C341.887 18.3724 341.728 14.7602 341.621 10.4319L341.425 2.56221L341.383 10.1175C341.346 16.4748 341.277 17.7247 340.944 18.0012C340.726 18.1818 340.545 18.523 340.54 18.7592C340.532 19.1201 340.47 19.1071 340.144 18.6765C339.93 18.3927 339.736 17.5093 339.71 16.6971L339.664 15.2301L339.493 17.0775L339.323 18.925L339.232 16.6817L339.141 14.4384L338.966 16.0218L338.791 17.6054L338.698 16.2858C338.616 15.1127 338.587 15.2006 338.439 17.0775L338.271 19.1888L338.183 16.9456C338.106 14.9653 338.074 14.8415 337.911 15.8899C337.79 16.6668 337.702 15.5715 337.657 12.723C337.62 10.328 337.51 7.24015 337.414 5.8612C337.251 3.51414 337.226 3.70783 337.018 8.89613C336.808 14.1416 336.442 18.7411 336.363 17.1279C336.315 16.1231 335.807 16.4907 335.773 17.555C335.749 18.3592 335.737 18.3674 335.536 17.7373C335.41 17.3438 335.296 17.2373 335.254 17.4733C335.213 17.6911 335.104 17.1565 335.008 16.2858C334.835 14.7219 334.832 14.7318 334.762 17.0775C334.713 18.7227 334.627 19.25 334.48 18.793C334.364 18.4301 334.24 18.2519 334.205 18.397C334.168 18.5422 334.056 18.1858 333.952 17.6052L333.763 16.5497L333.726 17.8561C333.702 18.6594 333.595 19.0658 333.445 18.9117C333.158 18.6157 332.972 16.377 332.711 10.0837C332.571 6.68869 332.476 5.84974 332.356 6.91677C332.219 8.12932 332.178 7.89039 332.106 5.46525C332.053 3.64952 331.948 5.35682 331.827 10.0231C331.647 16.9776 331.333 19.8485 330.755 19.8485C330.656 19.8485 330.457 19.4033 330.312 18.8589C330.086 18.0066 330.046 17.9675 330.023 18.5772C329.964 20.0987 327.845 19.8113 327.549 18.242C327.453 17.7347 327.414 17.7931 327.356 18.529L327.282 19.4527L327.093 18.3971L326.904 17.3414L326.862 18.2651C326.838 18.7731 326.712 19.3608 326.579 19.5709C326.386 19.8759 326.27 19.8041 326.002 19.2162C325.749 18.6611 325.63 18.5807 325.522 18.8904C325.42 19.1803 325.261 19.2296 324.982 19.0571C324.65 18.852 324.563 17.547 324.443 10.9515L324.3 3.09018L324.237 11.0075C324.191 16.8583 324.1 18.7962 323.888 18.4315C323.657 18.0331 323.557 18.0075 323.372 18.2993C323.221 18.5379 323.132 18.2566 323.108 17.4733C323.076 16.4238 323.052 16.3777 322.896 17.0774L322.719 17.8692L322.535 17.2093C322.434 16.8464 322.326 15.4213 322.294 14.0423L322.238 11.5352L322.154 13.6465C322.055 16.1127 321.845 16.8836 321.542 15.8898C321.397 15.4132 321.329 15.7063 321.296 16.9455C321.259 18.3908 320.837 20.3895 320.779 19.395C320.771 19.218 320.591 19.1384 320.384 19.2175C320.102 19.3256 319.966 19.0423 319.84 18.0877C319.565 16.0048 319.504 15.9358 319.472 17.6709C319.456 18.5781 319.353 19.3289 319.244 19.3392C319.135 19.3515 318.601 19.4121 318.057 19.4786C317.171 19.5862 317.065 19.5362 317.049 18.998L317.029 18.3968L316.743 18.9906C316.458 19.5826 316.01 19.7992 316.01 19.3453C316.01 19.2136 315.772 19.1684 315.482 19.2443C315.026 19.3638 314.949 19.2444 314.917 18.3618L314.88 17.3413L314.72 18.3398C314.482 19.8163 314.053 19.5451 313.878 17.8082L313.724 16.2858L313.68 17.5393C313.655 18.2288 313.517 18.7928 313.372 18.7928C313.217 18.7928 313.088 17.7265 313.059 16.2198L313.01 13.6465L312.854 15.8898C312.729 17.6891 312.669 17.9242 312.552 17.0774C312.433 16.2223 312.396 16.3602 312.36 17.8032C312.336 18.783 312.212 19.5846 312.084 19.5846C311.627 19.5846 311.295 18.8941 311.193 17.732L311.089 16.5497L311.043 17.9196C311.018 18.673 310.877 19.3636 310.731 19.454C310.403 19.657 309.779 19.0617 309.605 18.3784C309.492 17.9364 309.471 17.9476 309.444 18.4632C309.424 18.871 309.248 19.057 308.886 19.057C308.596 19.057 308.351 18.9086 308.342 18.7271C308.334 18.5457 308.215 18.672 308.08 19.008C307.945 19.344 307.724 19.5498 307.587 19.4655C307.451 19.3811 307.271 19.4232 307.187 19.559C306.972 19.9076 305.153 19.3649 304.747 18.831C304.452 18.4425 304.417 18.457 304.409 18.9736C304.401 19.6631 303.49 20.0341 302.937 19.5748C302.726 19.3999 302.554 19.3541 302.554 19.4736C302.554 19.5931 302.422 19.5589 302.261 19.3982C301.912 19.0488 301.275 12.2334 301.193 7.97296C301.16 6.27051 301.062 7.89267 300.97 11.6678C300.879 15.3691 300.703 18.6264 300.578 18.9061C300.354 19.4082 300.348 19.4082 300.152 18.9061C300.042 18.6264 299.917 14.8348 299.874 10.4802L299.795 2.56271L299.657 10.6121C299.541 17.3828 299.486 18.2422 299.309 16.0223C298.978 11.8784 298.941 11.8382 298.899 15.5761C298.875 17.841 298.766 19.0305 298.596 18.9254C298.451 18.8357 298.331 17.9677 298.329 16.9965C298.325 14.4073 297.973 13.4508 297.805 15.565C297.664 17.3329 297.243 17.8518 297.006 16.5502L296.862 15.7584L296.541 16.6556C296.365 17.149 296.221 17.8388 296.221 18.1886C296.221 18.5454 296.105 18.7529 295.957 18.6614C295.804 18.5664 295.681 18.8629 295.663 19.3717C295.635 20.2387 295.63 20.2374 295.414 19.1894C295.294 18.6088 295.178 17.4806 295.155 16.6822C295.122 15.5453 295.068 15.3738 294.902 15.8906C294.746 16.377 294.675 16.0651 294.629 14.703L294.567 12.8555L294.245 15.0988C293.928 17.3085 293.921 17.2474 293.814 11.0081L293.705 4.67423L293.586 11.7998L293.467 18.9255L293.32 12.9874L293.172 7.04941L293.11 12.8555C293.048 18.5803 292.907 19.7167 292.342 19.004C292.193 18.8156 291.946 18.3053 291.793 17.8699C291.519 17.0922 291.514 17.0992 291.49 18.2659C291.469 19.135 291.396 19.3472 291.209 19.0575C291.029 18.779 290.952 18.7624 290.949 19.0009C290.946 19.2533 290.816 19.2708 290.439 19.069C290.071 18.872 289.891 18.8876 289.779 19.1257C289.658 19.3863 289.595 19.3859 289.472 19.1238C289.222 18.5877 288.835 18.7471 288.831 19.3876C288.823 20.3782 288.32 19.3448 288.284 18.266L288.252 17.3423L288.043 18.2244C287.929 18.7096 287.707 19.2341 287.551 19.39C287.086 19.8556 285.631 19.7256 285.234 19.1833C285.037 18.9138 284.859 18.8049 284.839 18.9415C284.818 19.0781 284.716 18.7148 284.612 18.1342L284.424 17.0785L284.387 18.2157C284.367 18.8412 284.244 19.2879 284.116 19.2083C283.987 19.1288 283.733 19.2409 283.551 19.4619C283.152 19.9435 281.481 19.7347 281.011 19.1447C280.788 18.865 280.655 18.845 280.516 19.0701C280.376 19.2972 280.266 19.2842 280.099 19.0199C279.927 18.748 279.871 18.7835 279.868 19.1676C279.865 19.4457 279.776 19.5846 279.667 19.4759C279.558 19.3674 279.405 16.3487 279.326 12.768L279.183 6.25752L279.081 12.8555C279.011 17.3415 278.924 18.8198 278.81 17.474L278.641 15.4946L278.593 17.364C278.54 19.4463 278.433 19.6847 277.72 19.3028C277.311 19.0838 277.219 18.6924 277.181 17.0027L277.136 14.9668L276.983 17.2552C276.899 18.5139 276.742 19.6322 276.633 19.7404C276.402 19.9704 276.423 20.2251 276.186 14.3069L276.001 9.6884L275.946 14.7028C275.9 18.799 275.83 19.6372 275.558 19.2801C275.298 18.9384 275.113 18.905 274.709 19.1256C274.425 19.2809 274.103 19.5371 273.994 19.6946C273.853 19.8989 273.74 19.8953 273.599 19.6824C273.49 19.5177 273.163 19.3386 272.873 19.284C272.446 19.2041 272.316 18.9097 272.191 17.736L272.036 16.2867L271.962 17.8703C271.899 19.1944 271.854 19.3241 271.686 18.6621L271.485 17.8703L271.435 18.6621C271.392 19.3519 271.356 19.3859 271.159 18.9259C270.94 18.417 270.931 18.4188 270.913 18.9764C270.868 20.3875 269.343 19.6284 269.272 18.1593C269.231 17.3558 269.231 17.3543 269.122 18.0729C268.986 18.9716 268.528 18.7625 268.499 17.789C268.479 17.0367 268.403 17.1509 268.14 18.3433C268.05 18.7486 267.862 19.0086 267.721 18.9215C267.58 18.8347 267.465 18.897 267.465 19.0646C267.465 19.6007 266.825 19.1706 266.641 18.5108C266.465 17.8804 266.462 17.8817 266.436 18.5964C266.412 19.2464 266.28 19.3755 265.714 19.2997C265.621 19.2874 265.473 19.391 265.384 19.5305C265.288 19.6801 264.98 19.6927 264.629 19.5631C264.162 19.3882 264.032 19.1285 264.02 18.3428C264.012 17.7937 263.907 16.8695 263.786 16.2889C263.596 15.3691 263.564 15.5023 263.538 17.3225C263.522 18.4717 263.433 19.3368 263.341 19.2452C263.249 19.1534 262.958 19.1943 262.694 19.3357C262.283 19.5555 262.192 19.4674 262.069 18.7326C261.99 18.2594 261.887 17.2784 261.841 16.5527C261.784 15.667 261.731 15.9706 261.682 17.4763C261.63 19.0565 261.546 19.5246 261.397 19.0599C261.256 18.62 261.177 18.5541 261.159 18.8622C261.119 19.5533 260.745 19.4193 260.421 18.5984L260.134 17.8725L260.106 18.5984C260.089 18.9975 259.959 19.3418 259.814 19.3636C258.986 19.488 258.88 19.38 258.732 18.2685L258.574 17.0809L258.526 18.5323C258.483 19.8253 258.438 19.9315 258.115 19.5049C257.915 19.2414 257.533 19.0632 257.266 19.1089C256.847 19.1807 256.758 18.9544 256.627 17.4766L256.475 15.7611L256.429 17.5427C256.384 19.326 256.237 19.5997 255.645 19.0074C255.408 18.7705 255.328 18.7684 255.328 18.9992C255.328 19.1688 255.161 19.2431 254.956 19.1648C254.737 19.0808 254.531 19.2202 254.456 19.5027C254.343 19.9323 254.309 19.9221 254.143 19.4085C253.9 18.6567 253.217 18.3822 253.217 19.0362C253.217 19.4183 253.044 19.5088 252.413 19.4551C251.36 19.3654 251.321 19.3107 251.141 17.6805L250.988 16.2892L250.823 17.4768C250.668 18.6 250.657 18.5713 250.615 16.949C250.56 14.7877 250.062 15.3028 250.056 17.5272C250.052 19.2209 249.55 19.9372 249.48 18.3501L249.435 17.3448L249.332 18.3346C249.17 19.8872 248.541 19.6006 248.326 17.8756C248.226 17.0789 248.044 16.4894 247.921 16.5655C247.798 16.6417 247.658 15.6011 247.61 14.2533L247.523 11.8027L247.437 14.4418C247.349 17.1209 246.985 16.9822 246.917 14.244C246.841 11.2005 246.102 14.2644 246.096 17.6467C246.095 18.3295 245.958 18.7924 245.731 18.8793C245.329 19.0335 245.074 17.7376 244.992 15.1309L244.945 13.6502L244.775 15.4976C244.668 16.6544 244.567 14.5826 244.504 9.95544L244.404 2.56582L244.206 6.92038C243.836 15.0383 243.673 17.213 243.432 17.213C243.299 17.213 243.191 17.8168 243.191 18.5547C243.191 19.9987 242.799 20.2098 242.227 19.0733C241.949 18.5205 241.912 18.511 241.796 18.9621C241.727 19.234 241.639 18.1497 241.602 16.553C241.566 14.9564 241.455 11.2154 241.357 8.23975L241.178 2.8295L241.129 11.0207C241.083 18.9102 241.062 19.2132 240.571 19.2503C239.925 19.2988 239.576 18.878 239.429 17.8727C239.343 17.283 239.303 17.3896 239.273 18.2905C239.226 19.7514 238.98 20.0746 238.531 19.2664C238.347 18.9353 238.193 18.8273 238.188 19.0267C238.179 19.3186 238.102 19.3252 237.782 19.0594C237.455 18.7874 237.386 18.8159 237.383 19.2249C237.379 19.5963 237.323 19.6319 237.156 19.3672C236.976 19.0847 236.9 19.0985 236.77 19.4394C236.633 19.7954 236.522 19.81 236.074 19.5299C235.621 19.2473 235.535 18.8953 235.504 17.2146C235.484 16.1246 235.423 15.5296 235.369 15.8925C234.878 19.1485 234.93 19.1215 234.6 16.2885L234.293 13.6494L234.256 16.5187C234.224 19.037 234.172 19.348 233.824 19.0596C233.499 18.7897 233.429 18.8105 233.429 19.1771C233.429 19.5114 233.289 19.5786 232.868 19.4449C231.887 19.1334 231.455 19.1265 231.266 19.4205C230.944 19.9205 230.666 19.3266 230.501 17.7867L230.34 16.2897L230.299 17.6909C230.279 18.4615 230.152 19.0248 230.019 18.9428C229.886 18.8608 229.722 18.9428 229.654 19.1251C229.571 19.3481 229.477 19.3057 229.368 18.9945C228.889 17.6358 228.845 17.6143 228.679 18.6647C228.497 19.8183 228.43 19.6946 227.976 17.3452L227.772 16.2895L227.631 17.7994C227.523 18.9614 227.41 19.2593 227.143 19.0922C226.898 18.9393 226.734 17.7496 226.588 15.0751L226.382 11.2751L226.293 15.2338C226.185 20.0024 226.086 18.6837 225.807 8.76797L225.595 1.24633L225.525 8.37202C225.448 16.1586 225.253 19.095 224.883 18.036C224.712 17.5485 224.611 17.4893 224.432 17.7722C224.254 18.0532 224.196 18.0156 224.178 17.6091L224.154 17.0813L223.927 17.6091C223.802 17.8994 223.692 18.5229 223.682 18.9947C223.665 19.8097 223.135 20.2711 223.135 19.4715C223.135 19.2619 222.908 18.9307 222.629 18.7355C222.35 18.5402 222.072 17.9696 222.011 17.4669C221.921 16.7228 221.893 16.7941 221.858 17.851C221.772 20.5011 221.415 18.6223 221.27 14.7502L221.119 10.7473L221.025 15.2338C220.951 18.7754 220.896 19.3313 220.761 17.873L220.59 16.0256L220.543 17.8071C220.507 19.1939 220.409 19.5885 220.101 19.5885C219.883 19.5885 219.696 19.44 219.684 19.2586C219.668 18.9948 219.637 18.9948 219.53 19.2586C219.34 19.732 218.472 19.6655 218.279 19.1632C218.152 18.8308 218.035 18.8047 217.746 19.0444C217.356 19.3682 217.226 19.2806 216.407 18.1372C216.044 17.6315 216.027 17.6425 216.001 18.401C215.985 18.8364 215.877 19.4302 215.758 19.7205C215.557 20.2109 215.521 20.1957 215.249 19.5052C215.088 19.0966 214.956 18.5919 214.956 18.3836C214.956 18.1752 214.837 18.0048 214.692 18.0048C214.547 18.0048 214.428 18.2425 214.428 18.5327C214.428 19.3053 213.991 19.1766 213.755 18.3344L213.551 17.6087L213.361 18.4005C213.217 19.0024 213.164 19.054 213.14 18.6161C213.124 18.2993 212.887 17.9694 212.615 17.8831C212.237 17.7632 212.069 17.3396 211.9 16.0839L211.68 14.4416L211.503 17.2128C211.303 20.3572 211.345 20.1158 210.998 20.1158C210.853 20.1158 210.734 19.7632 210.734 19.3324C210.734 18.808 210.624 18.5914 210.4 18.6774C209.711 18.9416 209.416 16.1638 209.361 8.89178C209.315 2.89207 209.282 2.3543 209.152 5.46861L208.997 9.16342L208.896 6.12848C208.807 3.43672 208.775 3.72017 208.618 8.63557C208.52 11.6837 208.347 15.3367 208.232 16.753L208.024 19.3283L207.4 18.4831C206.982 17.9159 206.765 17.2428 206.741 16.4358C206.717 15.6213 206.66 15.4463 206.565 15.8933C206.47 16.338 206.276 15.7358 205.972 14.0458L205.52 11.5387L205.487 15.2995C205.467 17.6101 205.354 19.0602 205.193 19.0602C205.047 19.0602 204.927 18.7932 204.925 18.4665C204.921 17.9863 204.872 17.9483 204.665 18.2686C204.495 18.532 204.388 16.6313 204.347 12.5946L204.284 6.52443L204.137 12.5946C204.057 15.933 203.944 18.0707 203.887 17.3449C203.791 16.1078 203.778 16.0872 203.681 17.0151C203.624 17.5594 203.466 18.0048 203.33 18.0048C203.194 18.0048 203.082 18.2025 203.082 18.4446C203.082 18.6863 203.009 18.8111 202.919 18.7214C202.829 18.6317 202.609 14.6631 202.429 9.90231L202.101 1.24633L202.065 8.09491C202.04 12.5394 201.937 14.8533 201.77 14.6864C201.629 14.5449 201.477 12.4726 201.434 10.0811L201.354 5.73291L201.295 10.9452C201.258 14.2048 201.137 16.1575 200.972 16.1575C200.827 16.1575 200.708 16.8403 200.707 17.6749C200.705 19.1828 200.703 19.1877 200.311 18.4366C200.094 18.0208 199.917 17.3775 199.917 17.0071C199.917 15.991 199.644 16.4713 199.402 17.9131C199.199 19.1237 199.186 19.0782 199.156 17.0679C199.14 15.8995 199.009 14.8268 198.866 14.6843C198.714 14.533 198.575 11.6886 198.531 7.83571C198.456 1.2537 198.456 1.25625 198.364 10.0875C198.314 14.9501 198.213 18.691 198.14 18.4008C198.066 18.1104 197.843 17.6387 197.643 17.3524C197.309 16.8759 197.279 16.9297 197.279 17.9901C197.279 18.6272 197.19 19.0596 197.081 18.951C196.972 18.8421 196.819 14.8143 196.741 9.99986L196.599 1.24633L196.543 10.2062C196.506 15.8335 196.394 19.0729 196.238 18.9154C196.1 18.7776 195.945 17.952 195.892 17.0811C195.797 15.5203 195.794 15.526 195.741 17.4771C195.659 20.4971 195.204 20.9248 194.759 18.4009C194.657 17.8202 194.518 17.4943 194.452 17.6767C194.386 17.8589 194.223 17.9413 194.09 17.859C193.957 17.777 193.849 18.0334 193.849 18.4291C193.849 18.8246 193.781 19.0811 193.699 18.9987C193.617 18.9163 193.456 17.3823 193.342 15.5898L193.135 12.3308L193.098 15.1505C193.061 17.9434 192.79 19.3244 192.282 19.3244C192.137 19.3244 191.908 18.9383 191.771 18.4667L191.524 17.609L191.495 18.4008C191.479 18.8362 191.352 19.3707 191.212 19.5883C191.015 19.8933 190.953 19.802 190.944 19.1924C190.936 18.5262 190.889 18.4739 190.663 18.8625C190.35 19.3996 188.976 19.4899 188.655 18.9947C188.538 18.8132 188.312 16.9427 188.154 14.838L187.866 11.0113L187.824 15.2432C187.788 19.0692 187.738 19.4782 187.32 19.5055C187.066 19.5218 186.463 19.5993 185.98 19.6776C184.779 19.8712 184.358 19.6572 184.322 18.8345C184.301 18.3875 184.248 18.3029 184.17 18.5988C183.975 19.3455 183.603 19.1294 183.488 18.2029C183.39 17.4166 183.378 17.4336 183.339 18.408L183.297 19.4706L182.241 19.3698C181.266 19.2769 181.183 19.2065 181.144 18.4393L181.102 17.6092L180.997 18.4444C180.94 18.9038 180.73 19.3422 180.531 19.4185C179.641 19.7602 179.498 18.8582 179.351 11.9749L179.207 5.20531L179.01 10.46C178.901 13.3501 178.812 16.6544 178.812 17.803C178.812 19.6293 178.756 19.8803 178.362 19.8045C178.114 19.7568 177.829 19.4216 177.729 19.0594C177.605 18.6132 177.537 18.5548 177.519 18.8783C177.503 19.1409 177.374 19.2825 177.229 19.1928C177.074 19.097 176.944 17.2202 176.915 14.6247L176.865 10.2196L176.693 14.4423C176.599 16.7647 176.48 18.7242 176.428 18.7968C176.377 18.8694 176.262 17.7413 176.174 16.2897L176.012 13.6505L175.961 16.6196C175.933 18.3889 175.803 19.5886 175.646 19.5886C175.501 19.5886 175.38 19.262 175.378 18.8628C175.375 18.2972 175.318 18.2245 175.119 18.533C174.934 18.8184 174.849 18.5249 174.812 17.4773L174.762 16.0258L174.61 17.7994C174.484 19.2791 174.394 19.5325 174.068 19.3293C173.774 19.1466 173.643 18.3424 173.54 16.1042L173.404 13.1228L173.272 16.4999C173.142 19.8199 173.131 19.8706 172.612 19.4905C172.112 19.1244 172.078 18.7196 171.955 11.7587L171.826 4.41354L171.691 11.2435C171.559 17.9625 171.547 18.0798 170.963 18.4673C170.636 18.6838 170.369 19.025 170.369 19.225C170.369 19.4248 170.319 19.5886 170.259 19.5886C170.198 19.5886 169.961 19.6608 169.731 19.7489C169.393 19.8789 169.307 19.6918 169.279 18.7592C169.246 17.7241 169.228 17.6908 169.081 18.4253C168.953 19.0679 168.792 19.2315 168.325 19.1951C167.998 19.1707 167.731 19.2359 167.731 19.3379C167.731 19.4418 167.494 19.589 167.203 19.6649C166.913 19.7407 166.676 19.6935 166.676 19.5638C166.676 19.4321 166.379 19.3244 166.016 19.3244C165.387 19.3244 165.355 19.2485 165.32 17.6749C165.3 16.7677 165.203 13.5909 165.105 10.6153L164.927 5.20506L164.878 12.3176C164.849 16.6285 164.734 19.3313 164.588 19.1793C164.455 19.0415 164.293 18.6316 164.228 18.2687C164.141 17.7881 164.1 17.8777 164.074 18.5986C164.037 19.6304 163.833 19.8065 163.299 19.2717C163.054 19.027 162.982 19.0266 162.982 19.2698C162.982 19.4472 162.723 19.5455 162.389 19.4945L161.795 19.4039L161.658 11.2487L161.52 3.09354L161.459 11.3409C161.408 18.3973 161.343 19.5882 161.011 19.5882C160.797 19.5882 160.511 19.2021 160.375 18.7305C160.133 17.891 160.127 17.8882 160.104 18.5984C160.092 18.9975 159.962 19.324 159.816 19.324C159.671 19.324 159.538 18.9974 159.521 18.5982L159.488 17.8725L159.287 18.6643C159.176 19.0998 159.063 19.2778 159.036 19.0601C158.999 18.7776 158.921 18.8151 158.759 19.1923C158.589 19.5894 158.528 19.4096 158.514 18.4666C158.506 17.7771 158.377 17.2129 158.232 17.2129C158.086 17.2129 157.968 17.5778 157.968 18.0235C157.968 18.4693 157.79 19.0122 157.572 19.23C157.22 19.5819 157.173 19.3674 157.15 17.2978C157.121 14.6675 156.755 12.8516 156.629 14.7057C156.571 15.5637 156.525 15.4402 156.385 14.0459L156.212 12.3305L156.166 14.4923C156.142 15.6812 156.002 16.7273 155.857 16.8171C155.712 16.9068 155.593 17.6927 155.593 18.5636C155.593 20.3654 155.082 20.505 155.039 18.7149C155.019 17.8101 154.979 17.7288 154.825 18.2686C154.672 18.8046 154.603 18.656 154.458 17.477C154.359 16.6786 154.255 15.3722 154.226 14.5739C154.189 13.5188 154.129 13.8071 154.01 15.6295C153.905 17.2563 153.823 15.3103 153.779 10.0873C153.742 5.66017 153.607 1.80044 153.483 1.51013C153.349 1.19902 153.231 4.77622 153.194 10.2194C153.162 15.2997 153.063 18.8031 152.977 18.0048L152.821 16.5533L152.651 17.6089C152.558 18.1895 152.347 19.0084 152.182 19.4287L151.883 20.1928L151.278 19.6243C150.946 19.3116 150.609 19.1201 150.53 19.1989C150.451 19.2776 150.292 18.8334 150.175 18.2115L149.963 17.081L149.81 18.1341C149.705 18.8502 149.509 19.2154 149.195 19.2751C148.835 19.3436 148.725 19.1688 148.697 18.486C148.669 17.7852 148.639 17.7414 148.552 18.2686C148.344 19.5287 148.237 19.6794 147.806 19.3217C147.484 19.0542 147.403 17.9681 147.355 13.2879L147.296 7.58012L147.15 13.7821C147.038 18.5338 146.978 19.3051 146.894 17.081L146.785 14.178L146.622 16.6852C146.432 19.6083 146.365 19.3483 146.109 14.7058L145.92 11.2749L145.816 14.5738C145.728 17.394 145.692 16.992 145.567 11.8028L145.42 5.73278L145.362 12.1914C145.31 17.8859 145.258 18.5861 144.925 18.1097C144.717 17.8125 144.5 17.0438 144.443 16.4015C144.34 15.2377 144.34 15.2387 144.259 16.6853C144.183 18.046 144.166 18.079 143.984 17.2132L143.789 16.2895L143.728 17.4771C143.676 18.4864 143.635 18.5657 143.456 18.0049C143.34 17.642 143.212 14.3167 143.172 10.6153C143.109 4.75121 143.076 4.29291 142.918 7.05253C142.818 8.79433 142.704 12.2384 142.664 14.7059C142.598 18.8691 142.578 19.0334 142.38 16.9863C142.263 15.7729 142.101 14.714 142.02 14.6331C141.939 14.5524 141.873 15.5747 141.873 16.9053C141.873 18.2359 141.763 19.3244 141.628 19.3244C141.494 19.3244 141.329 19.1164 141.263 18.8625C141.166 18.4931 141.136 18.5119 141.112 18.958C141.087 19.4049 140.951 19.4902 140.422 19.389C140.059 19.3197 139.76 19.1285 139.758 18.9638C139.756 18.7991 139.642 18.8419 139.505 19.0584C139.157 19.6093 138.769 19.1395 138.636 18.0049C138.553 17.299 138.517 17.408 138.485 18.4668C138.444 19.804 138.132 20.2713 137.821 19.4609C137.739 19.2456 137.504 19.1335 137.3 19.2118C137.067 19.3011 136.868 19.127 136.766 18.7456C136.677 18.4108 136.602 14.3732 136.599 9.77314C136.598 4.48601 136.499 1.34945 136.332 1.24633C136.159 1.13909 136.055 3.82601 136.031 9.08216C136.01 13.4816 135.919 16.6061 135.827 16.0256L135.661 14.9699L135.469 16.2602C135.363 16.97 135.275 17.9201 135.273 18.3716C135.269 18.9987 135.208 19.099 135.013 18.7966C134.872 18.5788 134.729 16.3225 134.695 13.7823L134.632 9.16379L134.552 13.3802C134.508 15.6992 134.356 17.7122 134.215 17.8535C134.073 17.995 133.958 18.3836 133.958 18.7174C133.958 19.4949 133.549 19.5031 133.301 18.7296C133.14 18.2267 133.091 18.2066 132.987 18.5976C132.796 19.3129 132.379 19.1425 132.34 18.3337C132.307 17.6809 132.286 17.7009 132.111 18.5315L131.917 19.4552L131.884 18.318C131.843 16.9846 131.322 17.0462 131.322 18.3845C131.322 19.1014 131.205 19.284 130.687 19.3832C129.286 19.651 129.216 19.4199 129.154 14.3619L129.097 9.69052L128.956 14.5697C128.836 18.7232 128.753 19.4607 128.4 19.5284C127.93 19.6185 127.386 18.6112 127.321 17.5295C127.296 17.1372 127.208 17.4619 127.123 18.2516C126.976 19.6198 126.947 19.6652 126.507 19.2224C126.181 18.895 126.044 18.8607 126.041 19.1065C126.033 19.7412 125.527 18.7143 125.497 18.0038C125.473 17.4114 125.445 17.4302 125.225 18.1885C124.789 19.6978 124.512 19.3682 124.351 17.1467C124.064 13.173 124.019 13.0936 123.976 16.486C123.952 18.3366 123.824 19.8509 123.69 19.8509C123.557 19.8509 123.295 19.4055 123.109 18.8612L122.772 17.8715L122.606 18.6633L122.439 19.4551L122.159 18.5313L121.878 17.6076L121.675 18.519C121.297 20.2158 121.072 18.6078 120.994 13.6489L120.92 8.8985L120.768 13.1212L120.615 17.3437L120.516 13.7809L120.417 10.218L120.23 14.1767C120.127 16.354 119.917 18.4323 119.762 18.7952C119.4 19.6479 119.411 19.7497 119.198 14.0448L119.015 9.16242L118.949 13.9128C118.909 16.8538 118.797 18.4623 118.657 18.1355C118.446 17.6445 118.425 17.6537 118.354 18.2676C118.313 18.6305 118.211 16.671 118.129 13.9131L117.979 8.89862L117.878 14.045C117.807 17.634 117.723 18.7121 117.601 17.6077L117.426 16.0243L117.382 17.6894C117.353 18.7222 117.237 19.2925 117.074 19.1913C116.928 19.1016 116.791 19.3025 116.769 19.6375C116.621 21.8945 116.338 15.5484 116.309 9.29445C116.288 4.95152 116.166 1.60569 116.018 1.37711C115.85 1.11737 115.761 4.08133 115.758 10.0047C115.757 15.2383 115.652 19.0915 115.511 19.179C115.377 19.2617 115.212 19.1206 115.145 18.8645C115.074 18.5905 115.012 18.7145 114.993 19.1663C114.965 19.8853 114.933 19.9064 114.491 19.5063C114.196 19.2389 113.792 19.1394 113.409 19.2393C113.026 19.3396 112.711 19.2637 112.565 19.0313C112.399 18.7679 112.331 18.7574 112.329 18.9947C112.32 19.6636 111.795 19.2996 111.757 18.5987L111.717 17.8729L111.607 18.5987C111.522 19.1615 111.353 19.3244 110.855 19.3244C110.315 19.3244 110.207 19.1886 110.173 18.4667C110.137 17.6619 110.127 17.6541 110.023 18.3392C109.888 19.235 109.433 19.0309 109.39 18.0553L109.357 17.3452L109.156 18.1368C109.014 18.6953 108.936 18.1899 108.892 16.4215C108.821 13.5684 108.462 14.2133 108.377 17.3452C108.349 18.3612 108.237 19.4237 108.127 19.7062C107.935 20.1965 107.919 20.1935 107.774 19.6401C107.69 19.3213 107.436 19.0605 107.207 19.0605C106.668 19.0605 106.534 18.4131 106.44 15.3657C106.364 12.8744 106.363 12.8782 106.309 15.9595C106.253 19.1246 105.985 19.8377 105.516 18.0708L105.253 17.0811L105.2 18.1367C105.152 19.0693 105.121 19.1155 104.935 18.5327C104.752 17.9631 104.715 17.9451 104.664 18.4006C104.456 20.248 104.17 15.4097 104.102 8.89962L104.022 1.2462L103.884 10.0873C103.774 17.1796 103.685 18.7979 103.434 18.2686C103.124 17.615 103.121 17.6174 103.073 18.5324L103.025 19.4562L102.823 18.6644C102.629 17.9013 102.621 17.8973 102.591 18.5559C102.57 19.0028 102.34 19.3393 101.926 19.528C101.215 19.8522 100.976 19.7241 100.976 19.0162C100.976 18.7499 100.858 18.5324 100.713 18.5324C100.568 18.5324 100.449 18.7069 100.449 18.9201C100.449 19.1485 100.293 19.2479 100.07 19.1623C99.8608 19.082 99.5789 18.4048 99.4416 17.6532L99.1925 16.2894L99.1599 17.5958C99.1314 18.8697 98.7996 19.0137 98.5252 17.873C98.4555 17.5827 98.3805 17.8205 98.3585 18.4009C98.3177 19.4527 98.3173 19.4541 97.9415 18.7968C97.5694 18.1454 97.5645 18.1445 97.5551 18.7307C97.5469 19.3807 97.5184 19.3986 96.9078 19.1644C96.6208 19.0543 96.476 18.6219 96.4443 17.7788L96.3983 16.5534L96.2972 17.6751C96.2417 18.292 96.0946 18.7967 95.9707 18.7967C95.8467 18.7967 95.6483 18.292 95.5296 17.6751L95.3139 16.5534L95.1537 18.0049C94.9939 19.4534 94.9931 19.4523 94.9462 17.4771C94.9218 16.3884 94.784 15.3196 94.6434 15.1019C94.4494 14.8014 94.3866 14.9127 94.3837 15.5638C94.3819 16.0355 94.261 16.4215 94.1159 16.4215C93.9476 16.4215 93.8338 13.7267 93.8016 8.96594L93.7511 1.51037L93.5746 10.3515C93.4776 15.2141 93.3818 19.341 93.3614 19.5224C93.2889 20.1711 92.7964 19.8381 92.776 19.1266C92.7637 18.7274 92.6936 18.5541 92.6182 18.7416C92.4177 19.2419 91.7468 18.618 91.7205 17.9065C91.696 17.2976 91.6239 17.4447 91.3385 18.6647C91.1722 19.3752 91.131 19.4022 90.9382 18.9285C90.7426 18.4478 90.7214 18.4595 90.7006 19.0605C90.6802 19.586 90.626 19.6397 90.4222 19.3243C90.273 19.0935 90.152 15.5157 90.1312 10.7472C90.1108 6.24747 90.0052 2.20952 89.8943 1.77405C89.7835 1.33862 89.6787 4.92146 89.6616 9.73594C89.6453 14.5504 89.5573 18.6804 89.4676 18.9137C89.3371 19.2533 89.2279 19.2741 88.9198 19.0181C88.6165 18.7661 88.4893 18.7721 88.3205 19.0466C88.2027 19.2374 87.9745 19.3115 87.813 19.2121C87.6515 19.1122 87.5195 19.1702 87.5195 19.3406C87.5195 19.5453 87.2953 19.5037 86.8599 19.2183C86.4771 18.9675 86.2003 18.9059 86.2003 19.0714C86.2003 19.6997 85.6708 18.9821 85.6463 18.3206C85.6219 17.6444 85.6137 17.6396 85.4486 18.2199C85.2424 18.953 84.8366 19.0173 84.592 18.3557C84.4433 17.9529 84.3878 17.9924 84.2521 18.6C83.7419 20.8837 83.7551 20.8657 83.5462 19.5557C83.439 18.8839 83.2176 18.084 83.0539 17.7782C82.8905 17.4724 82.6581 15.7656 82.5377 13.9853L82.3188 10.7485L82.2377 14.7072C82.1777 17.6407 82.1109 18.29 81.9788 17.2144C81.881 16.416 81.7815 16.0824 81.7579 16.473C81.7334 16.8636 81.5961 17.2566 81.451 17.3463C81.3058 17.436 81.1754 17.829 81.1607 18.2196L81.1363 18.9297L80.9251 18.27C80.7845 17.8301 80.705 17.7642 80.6875 18.0719C80.6712 18.3259 80.5424 18.5336 80.3973 18.5336C80.2522 18.5336 80.1335 18.89 80.1335 19.3254C80.1335 20.2969 79.7255 20.366 79.4917 19.4343C79.3543 18.8867 79.2475 18.8118 78.9527 19.0564C78.3456 19.5605 78.0352 17.8097 77.8311 12.7278C77.6701 8.71941 77.6167 8.31842 77.428 9.69276C77.3082 10.5637 77.126 12.8442 77.0228 14.7606C76.9042 16.9656 76.7147 18.3657 76.5058 18.5741C76.242 18.8375 76.1687 18.5905 76.1401 17.3331C76.1197 16.4695 76.024 12.4374 75.9257 8.37314L75.7472 0.983647L75.6665 10.0887C75.622 15.0965 75.4949 18.8373 75.3844 18.4019C75.2735 17.9664 75.1688 17.7656 75.1517 17.9557C75.1353 18.1457 75.0017 18.2277 74.8565 18.1379C74.7114 18.0482 74.581 18.1298 74.5663 18.3202C74.55 18.5103 74.4449 18.3687 74.3287 18.0058C74.2125 17.6429 74.0804 14.4365 74.0348 10.8802L73.9524 4.41428L73.8073 8.90074C73.6859 12.6486 73.639 13.0398 73.5208 11.2761C73.4152 9.69776 73.3569 10.3639 73.2892 13.9152C73.2322 16.9055 73.1286 18.2745 73.0096 17.61L72.8205 16.5543L72.7838 17.7771C72.7553 18.7527 72.6415 19.0273 72.2278 19.1355C71.597 19.3007 71.5318 19.103 71.2508 16.1585L71.0368 13.9152L70.8831 15.7625L70.729 17.61L70.641 15.2347C70.5611 13.0814 70.5358 12.9829 70.372 14.1791C70.1641 15.6952 70.1934 16.1453 69.8571 6.26163L69.6773 0.983398L69.6101 8.90074C69.5734 13.2553 69.4474 16.5807 69.3309 16.2904C69.1727 15.8973 69.0708 16.1669 68.9322 17.3461C68.8299 18.217 68.6787 19.167 68.5963 19.4573L68.4467 19.9852L68.2405 19.4573C68.1272 19.167 68.0122 18.4545 67.9853 17.8739L67.9364 16.8182L67.7538 17.7508C67.6531 18.2638 67.4615 18.8577 67.328 19.0705C67.0312 19.5429 66.759 18.5015 66.7051 16.6863C66.6807 15.8692 66.5959 15.6159 66.432 15.8745C66.2531 16.1575 66.1659 16.0593 66.0798 15.4787C66.0171 15.0542 65.9339 15.5977 65.8952 16.6862C65.8585 17.7748 65.7709 18.4578 65.7044 18.2038C65.638 17.9497 65.4815 17.7419 65.3567 17.7419C65.232 17.7419 65.0804 17.4152 65.0196 17.0161C64.9593 16.6169 64.8921 17.0202 64.87 17.9165C64.8374 19.3114 64.7649 19.5299 64.3688 19.4541C64.1148 19.4052 63.826 19.3567 63.7268 19.3457C63.6277 19.3335 63.4969 18.9987 63.4365 18.5997C63.331 17.902 63.3248 17.906 63.2873 18.7037C63.2547 19.4135 63.1524 19.5279 62.5884 19.4954C62.0258 19.4628 61.9235 19.3217 61.8914 18.5336L61.8547 17.61L61.6941 18.6657C61.5013 19.9357 61.1851 19.5971 60.8813 17.7946L60.6722 16.5543L60.6396 17.8754C60.6111 19.0539 60.5291 19.2318 59.8727 19.5224C59.3656 19.7471 58.8733 19.7727 58.2897 19.6051C57.6925 19.4339 57.4426 19.4502 57.4426 19.6606C57.4426 19.8511 57.3513 19.8674 57.1895 19.7059C57.0505 19.5669 56.8283 18.5037 56.6963 17.3438L56.4562 15.2349L56.4236 17.2802C56.4032 18.4448 56.2756 19.3255 56.1252 19.3255C55.9654 19.3255 55.8407 17.9486 55.8085 15.8287L55.7555 12.3319L55.5978 15.4988L55.44 18.6658L55.3516 16.0267C55.2721 13.6446 55.2431 13.516 55.0577 14.7071C54.9448 15.4328 54.8416 16.8213 54.829 17.7925C54.8168 18.7637 54.6969 19.6256 54.5641 19.7078C54.4312 19.7898 53.7114 19.7282 52.9649 19.5659C51.9744 19.3535 51.4158 19.3535 50.8981 19.5664C50.406 19.7687 49.9088 19.7772 49.2746 19.5949C48.6483 19.4139 47.8305 19.423 46.6775 19.6236C45.3436 19.856 44.8596 19.8445 44.3434 19.5681C43.8776 19.3185 43.5655 19.2973 43.2468 19.493C42.9774 19.6586 42.4887 19.6814 42.0099 19.5509C41.5279 19.4196 41.184 19.4364 41.1305 19.5946C41.0053 19.9632 39.9831 19.9155 38.9421 19.4923C38.4528 19.2933 37.904 19.1843 37.7227 19.2504C37.4822 19.3376 37.379 18.8814 37.3419 17.5667L37.291 15.7634L37.2005 17.4787C37.1369 18.6871 36.9808 19.2916 36.6732 19.524C36.0746 19.9761 35.8152 19.9379 35.779 19.392C35.7505 18.9556 35.7423 18.9558 35.627 19.3957C35.5548 19.6734 35.3808 19.7822 35.1959 19.666C34.7376 19.3781 31.0872 19.3334 30.9142 19.6135C30.6757 19.9992 29.5727 19.8908 29.2033 19.4455C28.9379 19.1258 28.8197 19.1099 28.6575 19.3721C28.3661 19.8438 28.1945 19.2791 28.0824 17.4786C27.9972 16.1065 27.9895 16.1274 27.9434 17.8615C27.9067 19.2171 27.8175 19.6184 27.5986 19.3996C27.4359 19.2365 27.1386 19.1664 26.9381 19.2434C26.6915 19.338 26.519 19.11 26.4051 18.5402C26.3121 18.0766 26.0753 17.6355 25.8783 17.5598C25.6142 17.4587 25.5159 16.7874 25.5049 15.0093C25.4764 10.5573 25.0581 10.0842 25.0043 14.4438C24.9537 18.5432 24.8025 19.4574 24.1744 19.4593C23.8805 19.4601 23.7466 18.4117 23.5176 14.313L23.2298 9.16553L23.1837 14.4438C23.1511 17.9636 23.0525 19.5902 22.8817 19.3262C22.7411 19.1084 22.6204 19.0489 22.6135 19.194C22.6053 19.3392 22.4565 19.2683 22.2796 19.0359C22.1027 18.8039 21.8395 18.6256 21.6944 18.6399C21.5407 18.6562 21.3789 17.5105 21.3067 15.895L21.1828 13.1239L21.03 16.2909C20.8914 19.1647 20.8694 18.9326 20.7931 13.7836C20.7471 10.6629 20.6248 6.50626 20.5217 4.54668C20.3676 1.61516 20.3228 2.52711 20.2706 9.69301C20.2339 14.4831 20.1047 18.6397 19.9799 18.93C19.8458 19.2423 19.7207 15.7387 19.6742 10.3528L19.5947 1.24782L19.4574 10.089C19.3689 15.7991 19.2267 18.9011 19.0563 18.8485C18.9112 18.8036 18.7151 19.041 18.6209 19.3763C18.5132 19.7584 18.4248 19.3436 18.3836 18.2702C18.3367 17.0528 18.2719 16.7846 18.1594 17.3465C18.0726 17.782 17.9377 15.8224 17.8606 12.9919L17.72 7.84567L17.6356 13.5198C17.5301 20.6363 17.1099 19.8757 16.8341 12.0683L16.6478 6.78997L16.5948 12.7281C16.5581 16.6763 16.4562 18.5335 16.2863 18.2702C16.082 17.9542 16.0246 18.0076 16.0001 18.534L15.9716 19.1939L15.7604 18.534C15.6198 18.0942 15.5403 18.0282 15.5228 18.3363C15.5065 18.5903 15.3227 18.7981 15.11 18.7981C14.801 18.7981 14.706 18.254 14.638 16.093L14.5524 13.3879L14.4965 16.6209C14.446 19.5466 14.2206 20.5077 13.8257 19.4783C13.7348 19.2414 13.471 19.1579 13.1108 19.2525C12.7692 19.3418 12.4466 19.2544 12.3072 19.034C12.1793 18.8318 12.0729 18.7926 12.0704 18.9475C12.0685 19.1102 11.5956 19.2056 10.9483 19.1742C10.0216 19.1294 9.80023 19.0131 9.6554 18.4972C9.5001 17.9436 9.47767 17.9666 9.45444 18.7039C9.43813 19.1784 9.25879 19.5984 9.0324 19.6853C8.81473 19.7689 8.6366 19.7302 8.6366 19.5993C8.6366 19.4684 8.39936 19.2862 8.10893 19.194C7.73311 19.0745 7.57593 18.7849 7.56273 18.1866C7.54642 17.4861 7.50769 17.4343 7.32549 17.8746C7.1657 18.2604 7.07766 17.9761 6.99817 16.819L6.88975 15.2355L6.78539 17.2149C6.69653 18.9083 6.65903 18.6795 6.52573 15.6314L6.37044 12.0684L6.31622 15.5654C6.28361 17.6845 6.15807 19.0622 5.99828 19.0622C5.85317 19.0622 5.71946 18.3199 5.70071 17.4127L5.66811 15.7634L5.41254 17.4313C5.27191 18.3487 5.07911 19.0221 4.98446 18.9279C4.88948 18.8337 4.68282 15.4109 4.52499 11.3218L4.23802 3.88718L4.19522 11.6946C4.15853 18.4397 4.09861 19.5021 3.75679 19.5021C3.44047 19.5021 3.35406 19.0736 3.3261 17.3688C3.30572 16.1955 3.20952 13.3947 3.10925 11.1448L2.92785 7.05414L2.88058 13.2056C2.84797 17.4005 2.74565 19.3031 2.55814 19.187C2.40692 19.0933 2.10083 19.1667 1.87848 19.3527C1.55157 19.6242 1.43455 19.6242 1.26693 19.3528C0.975485 18.8811 0.644123 18.9407 0.42193 19.5049C0.0999112 20.3224 0.175736 20.6725 0.656727 20.5917C0.910673 20.5492 1.17779 20.4371 1.25034 20.3433C1.3229 20.2495 1.67907 20.1305 2.04185 20.0795L2.70141 19.9865L2.83349 27.2441L2.96555 34.5017L3.18771 27.5087C3.34016 22.7107 3.50566 20.4562 3.71538 20.3264C3.94242 20.1857 4.05492 21.8115 4.15295 26.6597C4.28054 32.9734 4.29113 33.0774 4.48271 29.9079C4.59155 28.107 4.68041 25.1746 4.68041 23.3915C4.68041 18.9333 5.19739 18.7932 5.5594 23.1534C5.63033 24.007 5.65642 23.9312 5.69555 22.7574C5.72408 21.9591 5.85899 21.1278 5.99962 20.9101C6.1753 20.6381 6.27315 21.3824 6.31146 23.2853L6.36771 26.0564L6.52709 23.1534L6.68647 20.2502L6.7847 22.6255C6.8438 24.0586 6.92288 24.5558 6.98402 23.8791C7.03946 23.2622 7.1968 22.7574 7.33376 22.7574C7.47072 22.7574 7.58241 22.23 7.58241 21.5854C7.58241 20.4061 7.99635 19.7712 8.37043 20.3766C8.5135 20.6086 8.62397 20.6184 8.75237 20.4092C9.1127 19.8262 9.43007 20.1389 9.4606 21.1068C9.48913 22.0648 9.49728 22.0711 9.66033 21.3045C9.7977 20.6577 10.0129 20.4672 10.8352 20.2638C11.4817 20.1035 11.9055 20.1067 12.0206 20.2719C12.1779 20.4986 12.7412 20.5654 12.9252 20.3795C12.9619 20.3428 13.2603 20.2846 13.5887 20.2503C14.3186 20.1741 14.4142 20.5125 14.5203 23.5471L14.5985 25.7904L14.6731 23.1513C14.7143 21.6997 14.8076 20.6606 14.8806 20.842C15.0281 21.2078 15.7612 21.2993 15.7612 20.9516C15.7612 20.8305 15.9393 20.7319 16.157 20.7319C16.497 20.7319 16.5605 21.6821 16.6069 27.4837L16.6611 34.2356L16.8302 28.2975C17.0512 20.5446 17.5195 18.6288 17.6366 24.9985L17.719 29.4851L17.8612 25.3944C17.9395 23.1445 18.0736 21.7195 18.1592 22.2275C18.2892 22.999 18.3267 22.8903 18.3879 21.5676C18.4286 20.6967 18.5134 20.2217 18.5774 20.512C18.8387 21.6942 19.0085 21.8377 19.2011 21.0399C19.3063 20.6044 19.4343 24.2266 19.4857 29.0892L19.579 37.9302L19.6528 29.683C19.6988 24.49 19.8228 21.4357 19.9866 21.4357C20.1509 21.4357 20.2638 24.5167 20.2928 29.8149C20.3433 38.9994 20.6225 36.9676 20.7915 26.1861C20.8734 20.9572 20.8926 20.7605 21.0381 23.679L21.1958 26.8459L21.2749 23.8109C21.3185 22.1416 21.4494 20.479 21.5655 20.1161C21.7062 19.6762 21.7856 19.6103 21.8032 19.9183C21.8195 20.2278 22.0469 20.3802 22.489 20.3802H23.1487L23.1959 25.1966L23.2432 30.013L23.425 25.9224C23.5249 23.6725 23.6223 21.4458 23.6415 20.974C23.6659 20.3966 23.8078 20.1163 24.0786 20.1163C24.7026 20.1163 24.9955 21.2648 24.9955 23.7118C24.9955 25.1391 25.0913 25.8942 25.2593 25.7904C25.4044 25.7007 25.525 24.892 25.5271 23.9934C25.5289 23.0948 25.6461 22.1814 25.7867 21.9637C25.9274 21.7459 26.046 21.6865 26.0504 21.8316C26.0667 22.3786 26.571 21.2749 26.5926 20.6439C26.613 20.0423 26.6342 20.0306 26.8323 20.5118C27.0316 20.9963 27.0646 21.0017 27.2379 20.5778C27.6194 19.6428 27.8989 20.1624 27.9474 21.8975L27.9972 23.6789L28.0938 22.0954C28.1468 21.2245 28.3025 20.3991 28.4398 20.2612C28.5972 20.103 28.6905 20.1519 28.6934 20.3933C28.6971 20.7113 28.7362 20.715 28.9261 20.4137C29.0973 20.1434 29.9046 20.0512 32.1305 20.0468C34.7142 20.0427 35.1528 20.1046 35.4595 20.5243C35.7546 20.928 35.8129 20.9388 35.8129 20.5892C35.8129 20.3086 36.0302 20.1835 36.4723 20.2088C37.0989 20.2455 37.1341 20.3318 37.1785 21.9622L37.2254 23.6777L37.3766 21.8303C37.4809 20.5544 37.6297 20.0033 37.8577 20.0489C38.0391 20.0856 38.1874 19.9917 38.1874 19.8417C38.1874 19.6574 38.3468 19.6538 38.6763 19.8295C39.3938 20.2136 43.463 20.1614 43.4681 19.7679C43.4719 19.529 43.5203 19.5302 43.674 19.7716C43.8187 19.9996 45.2162 20.0918 48.6168 20.0983C54.7282 20.1105 54.3649 20.0861 54.5987 20.4559C54.71 20.6308 54.8025 21.6417 54.8046 22.7027C54.8087 25.3847 55.3215 24.8966 55.3901 22.1437C55.435 20.3383 55.4696 20.5476 55.6 23.4129L55.7562 26.8438L55.81 23.4789C55.8426 21.4475 55.9685 20.114 56.1275 20.114C56.2726 20.114 56.3912 20.787 56.3912 21.6095C56.3912 23.3678 56.6162 23.3307 56.8737 21.53L57.0559 20.2551L58.3725 20.1634C59.0966 20.1128 59.8018 19.9623 59.9396 19.829C60.4878 19.2983 60.6143 19.6846 60.66 22.0275C60.6844 23.3702 60.7456 23.8749 60.7925 23.1491C60.9201 21.1635 61.1357 20.1142 61.4161 20.1142C61.5547 20.1142 61.6888 20.6188 61.7141 21.2357L61.7601 22.3575L61.8612 21.2357C61.9166 20.6188 62.074 20.1142 62.2109 20.1142C62.3479 20.1142 62.4612 20.2626 62.4637 20.4441C62.4674 20.6675 62.5472 20.6483 62.7131 20.3857C62.9907 19.9466 63.1262 20.1753 63.334 21.4339C63.4265 21.9936 63.4481 21.9678 63.4787 21.2643C63.5113 20.507 63.8914 20.1145 64.5915 20.1145C64.7248 20.1145 64.8455 20.7379 64.8601 21.5C64.8805 22.4721 64.9396 22.6945 65.0652 22.2454C65.4255 20.9554 65.8871 21.3201 65.9312 22.9296C65.9598 23.9581 66.0099 24.1683 66.0833 23.5628C66.1644 22.895 66.2561 22.756 66.4326 23.0349C66.5948 23.2914 66.6747 22.9884 66.68 22.0938C66.6882 20.4922 67.0314 19.7703 67.3463 20.686C67.4629 21.0248 67.6394 21.7771 67.7393 22.3577C67.9117 23.3647 67.9219 23.3435 67.9598 21.896C68.0006 20.356 68.3348 19.8906 68.6246 20.9722C68.7123 21.2988 68.7868 21.9223 68.7909 22.3577C68.7946 22.7932 68.8839 23.4464 68.9886 23.8093C69.161 24.4074 69.1945 24.3705 69.3433 23.4134C69.4337 22.8328 69.5458 25.9205 69.5927 30.2751L69.6779 38.1925L69.8597 33.1782C69.9596 30.4203 70.0708 27.3325 70.1067 26.3165C70.1585 24.8669 70.216 24.6395 70.3737 25.2608C70.5152 25.8161 70.5975 25.2646 70.6509 23.4134C70.7181 21.0543 70.7426 20.9399 70.88 22.3355C71.0006 23.5627 71.0981 23.8168 71.3349 23.5231C71.5004 23.3176 71.6948 22.912 71.766 22.6217C71.8765 22.172 71.905 22.1914 71.9576 22.7537C72.0024 23.2303 72.1137 23.0473 72.3587 22.0939C72.6518 20.9534 72.706 20.8817 72.7578 21.5661L72.8177 22.3579L73.0121 21.4342C73.1381 20.8366 73.2371 21.9078 73.2938 24.4691C73.3639 27.6537 73.4087 28.0408 73.5228 26.4485C73.6386 24.8326 73.6916 25.2688 73.8102 28.8237L73.9557 33.1784L74.012 27.0423C74.0446 23.6675 74.1632 20.9063 74.279 20.9063C74.3952 20.9063 74.6373 21.0539 74.8176 21.2341C75.0785 21.4951 75.1959 21.4816 75.394 21.168C75.5534 20.9156 75.6594 23.7107 75.6887 28.9557L75.7348 37.1371L75.957 30.1433C76.1917 22.7522 76.3462 20.8156 76.6838 21.0243C76.9797 21.2074 77.2806 25.1843 77.4836 31.5948L77.6589 37.1371L77.7147 31.3309C77.7771 24.8751 78.1089 20.8574 78.6427 20.0948C79.1023 19.4384 79.3435 19.7082 79.3486 20.8843C79.3567 22.4141 79.7771 22.7675 80.112 21.5235C80.445 20.2865 81.1913 20.0517 81.1913 21.1838C81.1913 21.5785 81.3609 22.301 81.568 22.7894L81.9446 23.6774L82.0469 22.2258C82.1032 21.4275 82.188 22.3775 82.2353 24.3371L82.3217 27.9L82.5324 25.1289C82.6482 23.6048 82.8202 21.9436 82.9143 21.4374C83.066 20.6235 83.1235 20.5691 83.4149 20.9676C83.7174 21.3811 83.7912 21.3599 84.3147 20.7091C84.6285 20.3189 84.885 20.1515 84.885 20.3368C84.885 20.5219 84.9934 20.6063 85.1263 20.5243C85.2592 20.4424 85.428 20.5244 85.5014 20.7066C85.5821 20.9068 85.6432 20.8551 85.6558 20.5762C85.6844 19.9827 86.4682 19.9676 86.4682 20.5598C86.4682 20.9594 86.5049 20.955 86.8236 20.5191C87.0596 20.1966 87.2398 20.1313 87.3597 20.325C87.4592 20.4861 87.6862 20.5615 87.8642 20.493C88.0423 20.4245 88.3915 20.6969 88.6403 21.0983C89.0702 21.7921 89.0928 21.7987 89.0994 21.2341C89.1032 20.9075 89.2254 20.6403 89.3701 20.6403C89.5401 20.6403 89.6457 23.7193 89.6669 29.2835C89.6872 34.5316 89.783 37.4602 89.911 36.739C90.0272 36.0859 90.1393 32.2855 90.1605 28.2938C90.1808 24.3022 90.3007 20.7986 90.4254 20.5083C90.6211 20.0524 90.6561 20.0884 90.6802 20.7721L90.7087 21.5639L91.0858 20.9041L91.4628 20.2444L91.4913 20.9041C91.5239 21.6058 91.5989 21.4818 91.8602 20.2995C92.0926 19.2473 92.5314 19.6799 92.556 20.9856C92.5682 21.594 92.6363 21.9136 92.7088 21.6959C92.7814 21.4781 92.9114 21.1218 92.9974 20.9041C93.3341 20.0536 93.5476 23.4785 93.6225 30.9328L93.7007 38.7183L93.8434 30.6245C93.9221 26.1729 94.0753 22.4419 94.1842 22.3332L94.1939 22.3383Z" fill="black"/>
</svg>
