<svg width="464" height="39" viewBox="0 0 464 39" fill="none" xmlns="http://www.w3.org/2000/svg">
<path d="M0.844621 19.5147C0.987696 19.5147 1.12424 19.9009 1.14748 20.3724L1.18987 21.2302L1.29422 20.3973C1.41487 19.4367 1.78515 19.2995 4.00741 19.3915C4.80548 19.4242 6.22482 19.482 7.16148 19.5187C8.25264 19.562 8.90039 19.478 8.96435 19.2863C9.0903 18.9083 10.1421 18.8949 10.5139 19.266C10.668 19.4201 11.2254 19.5685 11.7527 19.5958C12.662 19.6431 12.7118 19.6933 12.7167 20.5693C12.7205 21.0773 12.837 21.6711 12.9776 21.8889C13.161 22.1727 13.2344 21.897 13.2373 20.9202C13.241 19.6223 13.2796 19.5471 14.0264 19.3831C14.4581 19.2881 14.9229 19.2795 15.0591 19.3627C15.1953 19.4471 15.3669 19.3667 15.4407 19.1845C15.5328 18.9558 15.5809 18.9757 15.5947 19.2489C15.6111 19.5772 16.054 19.633 18.1879 19.5764C19.6029 19.5397 21.0132 19.3782 21.3219 19.2192C21.7613 18.9929 22.0312 19.0271 22.5644 19.377C23.0607 19.7024 23.4812 19.7696 24.1138 19.6249C24.5913 19.5156 26.6738 19.4455 28.7416 19.4687C31.2574 19.4973 32.5012 19.4177 32.5012 19.2294C32.5012 19.0744 32.683 19.1291 32.9047 19.3509C33.1265 19.5727 33.4828 19.6873 33.6963 19.6053C33.9099 19.5234 34.0843 19.5808 34.0843 19.7313C34.0843 19.8826 34.2221 20.3406 34.3904 20.7492L34.6966 21.4922L34.8523 20.7222C34.9379 20.2987 35.1564 19.9029 35.3378 19.8425C35.5901 19.7585 35.6802 20.6513 35.7205 23.6475L35.7731 27.5622L35.9182 23.4266C36.0548 19.5366 36.2398 18.4862 36.6713 19.151C36.9941 19.6483 37.9954 20.0658 38.1735 19.7774C38.4352 19.3542 38.8328 19.4716 38.842 19.9748C38.8501 20.3927 38.8872 20.3879 39.2378 19.9242C39.4509 19.6425 39.625 19.5177 39.625 19.6469C39.625 19.7762 39.7497 19.7574 39.9026 19.6045C40.2376 19.2694 41.4707 19.4647 41.6273 19.8773C41.6889 20.0396 41.8417 21.0631 41.9673 22.1517L42.1951 24.131L42.2603 21.6238C42.3068 19.8511 42.3847 19.3486 42.5273 19.9084C42.6618 20.4365 42.7393 20.5243 42.7601 20.1722C42.7845 19.7556 42.9859 19.6393 43.7147 19.6208L44.6381 19.5964L44.6981 24.7663L44.758 29.9361L44.8354 24.7238L44.9129 19.5115H45.6988C46.424 19.5115 46.4878 19.5877 46.5242 20.5012C46.5609 21.397 46.5748 21.4157 46.6783 20.6989C46.7411 20.2635 46.9767 19.7024 47.2012 19.4521C47.5868 19.0224 47.6507 19.0263 48.3487 19.5235C48.7551 19.813 49.1343 20.3147 49.191 20.6383C49.2904 21.2046 49.3018 21.2069 49.4979 20.6987C49.61 20.4084 49.7457 20.0224 49.7999 19.841C49.9793 19.2395 50.6932 19.4993 50.8876 20.2369L51.0788 20.9627L51.2569 20.1709C51.4179 19.4563 51.4412 19.4949 51.4946 20.5668L51.5541 21.7544L51.8419 20.5668L52.1296 19.3792L52.3037 20.4349C52.4313 21.2085 52.4879 21.3008 52.5153 20.7802C52.5593 19.9483 53.0395 19.5496 53.3697 20.071C53.5486 20.3536 53.6008 20.3243 53.604 19.9406C53.6078 19.5106 53.6652 19.4935 54.0467 19.8085C54.3903 20.0922 54.5095 20.0988 54.5969 19.837C54.6581 19.6547 54.8468 19.5919 55.0158 19.6971C55.4533 19.9703 57.0327 19.9944 57.1959 19.7297C57.2713 19.6078 57.6065 19.5079 57.941 19.5079C58.4645 19.5079 58.5726 19.6784 58.717 20.7324C58.8091 21.4058 58.9065 24.2858 58.9334 27.1323L58.9819 32.3078L59.1617 27.0295C59.2603 24.1265 59.3573 21.2465 59.3769 20.6296C59.4177 19.3804 59.9403 19.0593 59.9403 20.2842C59.9403 21.3944 60.4105 21.5344 60.6077 20.4832C60.7899 19.5112 61.5207 19.2433 61.5273 20.146C61.5292 20.4485 61.6464 20.874 61.787 21.0917C61.9774 21.3861 62.0438 21.234 62.0467 20.4979C62.0504 19.6855 62.1453 19.5082 62.5783 19.5082C63.0163 19.5082 63.1136 19.699 63.1504 20.6299L63.1948 21.7515L63.2983 20.7618C63.3648 20.1244 63.5372 19.7721 63.7816 19.7721C64.0776 19.7721 64.1721 20.2533 64.2106 21.9494L64.2599 24.1267L64.4087 21.8834C64.5542 19.6884 64.5726 19.6384 65.2661 19.5583C65.9127 19.4837 65.9828 19.5665 66.0659 20.482L66.1568 21.4876L66.4278 20.5639C66.6659 19.7528 66.8155 19.6303 67.6569 19.5592C68.6113 19.4785 68.6155 19.4829 68.7034 20.6148L68.7919 21.7515L69.0914 20.8278C69.3307 20.0902 69.4065 21.6318 69.4689 28.4813L69.5472 37.0585L69.6906 28.4369C69.7693 23.695 69.9234 19.7264 70.0322 19.6178C70.1411 19.5089 70.2299 19.5811 70.2299 19.7784C70.2299 20.0174 70.3481 19.975 70.5845 19.6516C71.085 18.967 72.3405 19.2875 72.3405 20.0997V20.6812L72.7513 20.0947C73.2448 19.3897 74.1794 19.3096 74.2059 19.9699C74.2222 20.3479 74.2568 20.3601 74.4036 20.036C74.5022 19.8182 74.7313 19.6104 74.9127 19.5741C75.152 19.5264 75.2563 20.1049 75.2926 21.6854C75.335 23.5422 75.3554 23.6297 75.4287 22.2793C75.4764 21.4083 75.6615 20.4083 75.8406 20.057C76.1341 19.4805 76.1806 19.609 76.3163 21.3766L76.4667 23.3349L76.5144 21.4215L76.562 19.5081H77.8812H79.2004L79.237 21.5534L79.2737 23.5988L79.4494 21.6909C79.546 20.6415 79.6985 19.7095 79.7886 19.6196C79.8782 19.5299 83.0765 19.4753 86.8955 19.4985C95.8476 19.5532 96.9534 19.523 97.2559 19.2266C97.7154 18.7747 98.6759 18.9726 99.1888 19.6249C99.9453 20.5869 100.935 20.7495 101.461 19.9984L101.886 19.3908V19.9929C101.886 20.3272 102.004 20.5224 102.15 20.4319C102.295 20.3422 102.428 20.4237 102.445 20.6142C102.461 20.8042 102.567 20.6019 102.678 20.1679C102.862 19.4421 102.882 19.475 102.915 20.5638C102.955 21.9014 103.458 23.063 103.465 21.833C103.467 21.4424 103.588 21.0494 103.733 20.9597C103.906 20.8524 104.014 23.6742 104.046 29.1914C104.095 37.5748 104.095 37.579 104.273 32.308C104.371 29.4049 104.557 25.6639 104.686 23.9947C104.91 21.0885 104.926 21.2621 105.059 28.0853L105.197 35.211L105.256 28.2833C105.289 24.473 105.42 21.3556 105.547 21.3556C105.673 21.3556 105.867 20.9694 105.977 20.4978L106.178 19.6401L106.375 20.4319C106.528 21.0441 106.58 21.0925 106.604 20.6455C106.62 20.3275 106.74 20.0024 106.868 19.9231C107.235 19.6964 107.466 22.7664 107.651 30.3288L107.823 37.3225L108.004 29.2568C108.129 23.654 108.286 20.9669 108.519 20.4567C108.815 19.8067 108.876 19.7782 109.045 20.2092C109.213 20.6372 109.239 20.6242 109.255 20.1024C109.263 19.7758 109.375 19.5086 109.499 19.5086C109.865 19.5086 110.062 23.0859 110.115 30.6987L110.166 37.8506L110.367 31.1208C110.477 27.4194 110.674 23.3815 110.804 22.1477C111.004 20.2362 111.051 20.9193 111.124 26.7662C111.192 32.3494 111.243 33.1362 111.397 30.9888C111.501 29.5373 111.6 27.2314 111.618 25.8645C111.674 21.3508 112.042 23.6723 112.192 29.4929L112.34 35.2115L112.416 27.8219C112.458 23.7576 112.587 20.1353 112.704 19.7725C112.864 19.2705 112.933 19.523 112.991 20.8282L113.067 22.5436L113.163 21.0139L113.258 19.4843L114.366 19.5903C114.975 19.6486 115.93 19.5369 116.487 19.342C117.241 19.0781 117.638 19.0614 118.039 19.2763C118.335 19.4349 119.542 19.5381 120.72 19.5055C123.84 19.4186 129.899 19.4688 130.512 19.5874C130.876 19.6576 131.087 19.9682 131.192 20.5885L131.344 21.4881L131.456 20.5644L131.568 19.6407L133.217 19.562L134.866 19.4833L134.922 24.0484L134.978 28.6135L135.119 24.1301C135.243 20.2257 135.318 19.6359 135.701 19.5626C135.951 19.5145 136.193 19.6837 136.264 19.9553C136.361 20.3328 136.394 20.3084 136.418 19.8382C136.446 19.2507 136.976 18.9693 136.976 19.5406C136.976 19.7469 137.076 19.7542 137.306 19.565C137.82 19.1408 140.142 19.4884 140.142 19.9893C140.142 20.3567 140.179 20.3554 140.472 19.9771C140.661 19.7336 141.334 19.5049 142.055 19.4385L143.308 19.3231L143.312 20.405C143.316 22.0451 143.736 22.461 143.97 21.0597C144.217 19.5812 144.703 19.2306 144.922 20.3724L145.085 21.2231L145.122 20.3977C145.154 19.6492 145.948 18.4967 145.948 19.1994C145.948 19.3556 146.347 19.5587 146.834 19.6501L147.721 19.8164L147.89 21.8132C147.983 22.9114 148.082 24.5342 148.111 25.4195C148.147 26.5217 148.213 26.114 148.322 24.1261L148.482 21.223L148.573 25.0498L148.665 28.8766L148.883 24.2863C149.003 21.7616 149.134 19.6652 149.173 19.6276C149.214 19.5909 149.542 19.5179 149.905 19.4674C150.493 19.3854 150.582 19.4918 150.725 20.4312L150.886 21.4869L150.922 20.4972C150.947 19.8101 151.081 19.5075 151.356 19.5075C151.573 19.5075 151.751 19.6066 151.751 19.7273C151.751 19.8484 151.929 19.9471 152.147 19.9471C152.365 19.9471 152.543 19.8663 152.543 19.7673C152.543 19.6686 152.899 19.5773 153.334 19.565C154.12 19.5446 154.126 19.5528 154.162 21.0424L154.199 22.5422L154.387 20.8885C154.49 19.979 154.652 19.1576 154.746 19.0631C154.841 18.9685 154.918 19.0305 154.918 19.1993C154.918 19.3685 155.066 19.5092 155.247 19.5112C156.344 19.5235 156.363 19.6601 156.517 28.5365L156.664 37.0575L156.754 28.8762C156.803 24.3764 156.91 21.0511 156.991 21.4866C157.112 22.1377 157.164 22.0206 157.281 20.8268C157.373 19.8957 157.542 19.3847 157.754 19.4016C157.935 19.418 158.855 19.4457 159.798 19.4677C161.476 19.5085 161.514 19.5232 161.545 20.2331L161.577 20.9588L161.779 20.1671C161.889 19.7316 161.994 19.5902 162.011 19.8527C162.028 20.1153 162.161 20.2568 162.306 20.1671C162.468 20.0668 162.583 20.5454 162.602 21.4051L162.635 22.8062L162.862 21.2493C163.126 19.4416 163.277 19.2013 163.748 19.8453C164.045 20.2506 164.112 20.2596 164.246 19.911C164.407 19.4923 165.174 19.399 166.198 19.6737C166.607 19.7834 166.804 20.0488 166.831 20.5278L166.872 21.2228L166.982 20.497C167.103 19.6983 167.573 19.4983 167.603 20.2332C167.619 20.6283 167.654 20.6186 167.848 20.1672C167.982 19.8557 168.102 23.3709 168.141 28.7444L168.207 37.8494L168.384 29.1403C168.482 24.3502 168.655 20.2133 168.769 19.9471C169.089 19.2017 169.415 19.9267 169.464 21.4867L169.505 22.8063L169.672 21.4369C169.848 19.9908 169.998 19.7033 170.626 19.6111C170.96 19.5621 171.021 20.6922 171.061 27.6461L171.109 35.7381L171.267 27.6279C171.381 21.7837 171.516 19.4277 171.748 19.1958C172.001 18.9426 172.077 19.2933 172.103 20.8402L172.136 22.8063L172.395 21.2949C172.623 19.9627 172.721 19.7937 173.218 19.8692C173.762 19.952 173.788 20.1155 173.925 24.2837L174.066 28.6124L174.149 24.3898C174.2 21.7865 174.312 20.4202 174.442 20.827L174.653 21.4867L174.682 20.827C174.698 20.4641 174.827 19.989 174.968 19.7713C175.163 19.4696 175.225 19.5748 175.228 20.2116C175.23 20.6715 175.321 21.2653 175.43 21.5311C175.573 21.8814 175.664 21.6873 175.759 20.827C175.883 19.7126 175.94 19.6393 176.683 19.6393H177.474L177.621 22.2785L177.768 24.9176L177.837 22.6744C177.973 18.3126 178.359 19.2771 178.419 24.1259L178.477 28.8763L178.668 25.6623C178.891 21.9091 179.093 20.6413 179.588 19.8703C179.918 19.3584 180.054 19.3335 181.152 19.5849L182.355 19.8601L182.404 22.3888L182.454 24.9175L182.618 22.5423C182.752 20.6121 182.8 20.4143 182.878 21.4867L182.974 22.8062L183.064 21.6186C183.249 19.1538 183.455 18.9148 184.848 19.5497C185.495 19.8445 185.522 19.9521 185.569 22.3868C185.598 23.8149 185.653 24.2851 185.699 23.466C185.83 21.135 186.062 19.7712 186.328 19.7712C186.464 19.7712 186.588 20.2166 186.604 20.7609L186.632 21.7506L186.881 20.6422C187.045 19.9094 187.245 19.5781 187.47 19.6645C187.657 19.7362 187.963 19.6119 188.149 19.3872C188.629 18.8081 188.95 18.8821 188.955 19.5731C188.956 19.8998 189.046 20.0482 189.152 19.903C189.47 19.4706 192.093 19.5776 192.384 20.0351C192.593 20.3642 192.636 20.3438 192.64 19.9165C192.648 18.9319 193.137 19.8879 193.241 21.0909L193.343 22.2785L193.389 20.9469C193.435 19.6227 193.441 19.6149 194.359 19.5531C194.867 19.5205 195.282 19.6134 195.282 19.7631C195.282 19.9127 195.401 20.0355 195.546 20.0355C195.691 20.0355 195.81 19.8813 195.81 19.6925C195.81 19.4561 196.096 19.3831 196.733 19.4577L197.657 19.5657L197.693 21.3183C197.726 22.8871 197.75 22.9602 197.919 22.0152C198.023 21.4345 198.144 24.5817 198.187 29.0089L198.266 37.0582L198.482 29.5367C198.601 25.3999 198.815 21.7777 198.957 21.4873C199.1 21.197 199.252 20.6626 199.294 20.2997C199.352 19.7999 199.546 19.6197 200.096 19.5564C200.495 19.5103 200.822 19.3611 200.822 19.2241C200.822 18.6512 201.88 19.6918 201.913 20.297C201.946 20.9175 201.956 20.9218 202.063 20.3655C202.183 19.7423 202.666 19.5334 202.673 20.1017C202.677 20.3301 202.736 20.3423 202.87 20.1425C203.214 19.6277 204.105 19.3063 204.646 19.5023C204.935 19.6071 205.453 19.6178 205.797 19.5268C206.141 19.4347 206.825 19.4065 207.316 19.4636L208.209 19.568L208.246 22.2442L208.282 24.9205L208.504 22.421C208.795 19.1408 208.791 19.1502 209.993 19.3671C210.536 19.465 211.366 19.5669 211.838 19.5934L212.695 19.6419L212.728 21.2254L212.76 22.8089L212.978 21.128C213.098 20.2035 213.241 19.4018 213.296 19.3464C213.352 19.2909 213.958 19.3503 214.643 19.4785C215.346 19.6097 216.315 19.6126 216.864 19.4866C217.399 19.3623 217.927 19.2575 218.036 19.2538C218.145 19.2508 218.253 19.871 218.277 20.6331L218.319 22.0186L218.474 20.5832C218.622 19.2151 218.651 19.1696 219.091 19.6124C219.397 19.9203 219.553 19.9635 219.553 19.7413C219.553 19.5297 219.645 19.4983 219.802 19.6565C219.939 19.7943 220.09 20.6198 220.137 21.4907L220.223 23.0742L220.448 21.4405C220.68 19.758 221.17 19.163 221.648 19.9842C221.859 20.3454 221.913 20.3564 221.92 20.0392C221.924 19.7742 222.233 19.6266 222.851 19.5927C223.684 19.547 223.777 19.6131 223.801 20.2525L223.825 20.9629L224.007 20.3031C224.133 19.8457 224.403 19.6182 224.887 19.5615C225.52 19.4872 225.595 19.5737 225.69 20.4852C225.787 21.4243 225.797 21.4078 225.839 20.2348C225.881 19.049 225.912 18.9973 226.411 19.3086C226.888 19.6067 226.943 19.9538 226.988 22.9396L227.037 26.2411L227.185 23.1297C227.337 19.9404 227.537 19.4099 228.521 19.5806C228.841 19.6361 228.944 20.3282 229.06 23.2091L229.204 26.7689L229.289 23.8658C229.417 19.5463 229.763 18.7252 229.847 22.5462L229.916 25.7132L230.208 22.631C230.369 20.9357 230.589 19.4611 230.698 19.354C230.807 19.2468 230.898 19.3866 230.9 19.6651C230.903 20.0884 230.946 20.1063 231.159 19.7752C231.341 19.4927 231.426 19.8335 231.455 20.9629C231.475 21.8338 231.576 24.4465 231.675 26.769L231.855 30.9916L231.939 25.4494C231.985 22.4012 232.08 20.2041 232.151 20.567C232.272 21.1828 232.294 21.1916 232.493 20.6991C232.652 20.3028 232.718 20.4667 232.755 21.3589C232.801 22.4572 232.819 22.4869 233.006 21.7548C233.152 21.1803 233.223 21.1079 233.264 21.491C233.296 21.7813 233.457 21.4376 233.625 20.7269C233.987 19.1916 234.583 18.6765 235.239 19.3328C235.483 19.5762 235.898 19.7755 236.163 19.7755C236.87 19.7755 236.959 20.2474 237.004 24.2177L237.045 27.8249L237.244 23.7715C237.357 21.47 237.568 19.5936 237.731 19.4301C237.939 19.2222 238.028 19.5782 238.05 20.7124C238.075 21.987 238.12 22.1337 238.283 21.491L238.484 20.6992L238.541 21.6229C238.596 22.5208 238.607 22.5098 238.931 21.227L239.265 19.9074L239.379 22.4146L239.493 24.9218L239.548 22.2449C239.589 20.2301 239.694 19.5329 239.972 19.4261C240.498 19.2242 240.653 19.4669 240.689 20.5453C240.721 21.4871 240.721 21.4877 240.889 20.6994C241.009 20.1416 241.214 19.9077 241.584 19.9077C242.089 19.9077 242.114 20.1405 242.248 26.1096L242.387 32.3116L242.446 26.3292C242.479 23.0388 242.577 20.1588 242.665 19.9292C243.081 18.8439 243.3 19.7959 243.343 22.8767L243.389 26.2416L243.575 23.8664C243.791 21.1144 244.012 20.1346 244.559 19.4952C244.929 19.0628 244.989 19.0755 245.576 19.7081C245.918 20.0779 246.199 20.2482 246.199 20.0865C246.199 19.9246 246.377 19.8606 246.594 19.9441C246.92 20.0693 247 20.8503 247.048 24.3564L247.107 28.6168L247.178 24.6581C247.253 20.515 247.383 19.3969 247.76 19.63C247.884 19.7071 248.064 20.1901 248.161 20.7038C248.375 21.846 248.837 21.6627 248.837 20.4355C248.837 19.9446 248.956 19.4696 249.101 19.3798C249.246 19.2901 249.365 19.335 249.365 19.4797C249.365 19.6245 249.687 19.7207 250.081 19.6934C250.678 19.6522 250.826 19.7749 250.973 20.4355L251.149 21.2272L251.182 20.3167C251.206 19.6438 251.29 19.4834 251.509 19.7023C251.672 19.865 251.949 19.9433 252.124 19.876C252.411 19.7659 252.649 20.5035 253.158 23.0746C253.216 23.3649 253.276 22.675 253.293 21.5415C253.309 20.3445 253.426 19.5443 253.569 19.6325C253.705 19.7161 253.883 19.6749 253.966 19.5407C254.048 19.407 254.324 19.3385 254.577 19.3886C256.603 19.7895 256.487 19.6839 256.533 21.1662L256.576 22.5467L256.754 21.0952L256.931 19.6436L257.01 20.8313C257.059 21.5686 257.129 21.7688 257.193 21.3591C257.473 19.5794 257.519 19.5117 258.452 19.5117C258.945 19.5117 259.408 19.3633 259.481 19.1818C259.555 19.0004 259.645 20.574 259.681 22.6787L259.749 26.5054L259.93 23.3385C260.03 21.5967 260.128 20.0268 260.148 19.8499C260.213 19.264 260.943 19.8075 261.052 20.5238C261.145 21.1311 261.17 21.101 261.231 20.3036L261.301 19.3799L261.503 20.1716L261.704 20.9634L261.737 20.222C261.753 19.801 261.882 19.5512 262.032 19.6438C262.177 19.7335 262.305 19.6519 262.316 19.4615C262.329 19.2458 262.383 19.2267 262.459 19.4101C262.525 19.572 262.927 19.6637 263.351 19.6144L264.123 19.5247L264.199 21.9596L264.275 24.3945L264.507 21.9533C264.74 19.4945 265.16 18.6661 265.242 20.5018L265.287 21.4915L265.39 20.5018C265.447 19.9575 265.601 19.5121 265.732 19.5121C266.106 19.5121 266.513 20.447 266.559 21.4082C266.591 22.093 266.639 21.9964 266.781 20.9636C266.944 19.779 266.97 19.8869 267.038 22.0193L267.114 24.3945L267.312 22.8462C267.42 21.9945 267.626 21.2226 267.769 21.1307C267.912 21.039 268.119 20.6742 268.23 20.3205C268.415 19.7276 268.457 19.7132 268.766 20.1366C269.002 20.4583 269.135 20.4975 269.211 20.2679C269.336 19.8952 269.926 24.4425 270.039 26.6378C270.079 27.4362 270.135 26.7112 270.162 25.0271C270.19 23.3428 270.287 21.237 270.379 20.3475L270.549 18.7303L271.291 19.456C271.969 20.1197 272.053 20.4182 272.272 22.9479L272.512 25.7141L272.57 22.6791C272.624 19.8734 272.656 19.7039 272.991 20.4358C273.349 21.2175 273.354 21.2192 273.396 20.568C273.437 19.9499 273.452 19.9582 273.641 20.7001L273.842 21.4918L273.875 20.6664C273.891 20.2125 274.084 19.6932 274.302 19.5125C274.647 19.2263 274.703 19.4183 274.743 20.9976L274.789 22.8114L274.941 21.1697C275.119 19.2608 275.573 19.2254 275.89 21.0959C276.051 22.0479 276.132 22.1787 276.299 21.7556C276.414 21.4653 276.54 25.0282 276.579 29.6731L276.652 38.1183L276.818 29.0133C276.91 24.0055 277.018 19.8489 277.06 19.7763C277.102 19.7037 277.226 20.0005 277.337 20.4361L277.538 21.2278L277.571 20.5021C277.599 19.8375 278.13 19.414 278.13 20.0558C278.13 20.2095 278.248 20.2621 278.393 20.172C278.565 20.066 278.675 21.7874 278.709 25.1048L278.761 30.2007L278.907 25.3742C279.024 21.4818 279.129 20.5001 279.448 20.3018C279.782 20.0947 279.868 20.3556 279.994 21.9614L280.145 23.8668L280.193 22.068C280.241 20.2299 280.552 19.2483 281.086 19.2483C281.717 19.2483 282.351 20.1438 282.377 21.0706C282.402 21.9066 282.426 21.9409 282.591 21.3597C282.892 20.3059 283.137 22.6853 283.173 27.0047C283.194 29.2942 283.282 30.4237 283.406 29.9369C283.517 29.5015 283.621 27.0895 283.639 24.5771C283.659 21.8565 283.769 20.07 283.914 20.1597C284.048 20.2425 284.212 20.101 284.279 19.8453C284.346 19.5897 284.423 20.1524 284.45 21.0958C284.528 23.8097 284.949 24.2545 284.971 21.6456C284.979 20.4239 285.059 19.4934 285.143 19.5779C285.227 19.6623 285.386 23.3341 285.496 27.7372L285.696 35.7429L285.738 27.6276C285.775 20.6088 285.834 19.5122 286.177 19.5122C286.452 19.5122 286.583 19.8136 286.607 20.502L286.644 21.4916L286.807 20.5679C286.908 19.9953 287.12 19.6442 287.366 19.6442C287.665 19.6442 287.81 20.1274 287.958 21.621C288.238 24.4273 288.376 24.4874 288.4 21.813C288.417 19.9654 288.505 19.4633 288.834 19.3368C289.062 19.2495 289.382 19.3123 289.547 19.4771C289.711 19.6414 290.059 19.7759 290.321 19.7759C290.582 19.7759 290.799 19.9243 290.804 20.1058C290.808 20.2889 290.931 20.2301 291.08 19.9737C291.389 19.4428 292.113 19.3509 292.119 19.8416C292.122 20.0642 292.185 20.0793 292.317 19.8872C292.423 19.7306 293.181 19.5745 294 19.5394C296.117 19.4493 296.323 19.8114 296.382 23.7271C296.407 25.4004 296.465 26.235 296.511 25.5818C296.831 20.9906 296.905 20.5368 297.283 20.851C297.586 21.1022 297.656 21.0426 297.659 20.5337C297.663 19.9152 298.171 18.8279 298.179 19.4211C298.183 19.596 298.408 19.6674 298.711 19.5883C299.126 19.4798 299.242 19.5842 299.257 20.0748C299.269 20.5149 299.329 20.5824 299.455 20.3036C300.244 18.5621 300.534 21.3962 300.592 31.3879C300.612 34.9442 300.678 37.6093 300.737 37.3104C300.796 37.0115 300.929 32.9142 301.031 28.2053L301.217 19.6438L301.877 19.7176C302.24 19.7583 302.574 19.899 302.619 20.0311C302.664 20.1628 302.936 20.0352 303.222 19.7498C303.956 19.0159 304.245 19.331 304.291 20.9131C304.315 21.7034 304.372 21.948 304.429 21.4913C304.658 19.6549 304.689 19.6153 305.959 19.5495C307.14 19.4884 307.154 19.497 307.188 20.3576L307.225 21.2274L307.419 20.3037C307.526 19.7957 307.631 19.6175 307.652 19.9078C307.685 20.3397 307.736 20.365 307.937 20.0473C308.153 19.7052 308.197 19.7052 308.308 20.0473C308.377 20.2609 308.492 20.6139 308.565 20.8316C308.638 21.0493 308.706 20.8883 308.718 20.4736C308.734 19.9163 308.842 19.7592 309.134 19.8715C309.41 19.9776 309.537 19.8471 309.551 19.4379C309.563 19.1158 309.634 19.0085 309.71 19.1994C309.787 19.3902 310.133 19.6545 310.481 19.7866C311.039 19.9987 311.118 20.2054 311.156 21.551L311.199 23.0751L311.376 21.6235C311.474 20.8252 311.583 20.3501 311.618 20.5679C311.655 20.7991 311.789 20.6735 311.938 20.2666C312.218 19.502 313.3 19.1294 314.059 19.536C314.304 19.6673 314.691 19.7028 314.919 19.6151C315.234 19.4944 315.341 19.6396 315.362 20.2098L315.391 20.9639L315.683 20.2221C315.889 19.7011 316.116 19.517 316.446 19.6035C316.705 19.6712 316.984 19.6198 317.065 19.4869C317.152 19.3462 317.425 19.3605 317.725 19.5195C318.096 19.7177 318.247 20.1002 318.274 20.9058L318.311 22.0181L318.486 20.9625L318.661 19.9068L318.843 21.3583C318.944 22.1567 319.067 23.1661 319.119 23.6016C319.171 24.038 319.239 23.7419 319.272 22.9418C319.341 21.265 319.927 19.1661 320.156 19.7749C320.238 19.9926 320.364 20.3488 320.437 20.5666C320.509 20.7843 320.578 20.6493 320.59 20.2665C320.606 19.6896 320.757 19.5488 321.468 19.4424C321.94 19.3719 322.385 19.3963 322.457 19.4967C322.633 19.7397 325.623 19.7307 325.623 19.4885C325.623 19.1953 327.84 19.5529 328.06 19.8816C328.191 20.0785 328.255 20.0602 328.258 19.8241C328.262 19.5864 328.445 19.5346 328.843 19.661C329.634 19.9121 330.041 20.3603 330.166 21.1186C330.247 21.6129 330.329 21.4897 330.528 20.5676C330.726 19.6494 330.902 19.38 331.304 19.38C331.707 19.38 331.859 19.6161 331.984 20.4357C332.135 21.4282 332.147 21.4401 332.182 20.6334C332.222 19.7234 332.825 19.4386 333.114 20.1932C333.202 20.4227 333.295 24.1934 333.32 28.5724C333.357 34.7755 333.407 35.8347 333.549 33.3673C333.649 31.6254 333.747 28.1594 333.766 25.665C333.791 22.7262 333.916 20.868 334.127 20.3867C334.426 19.7028 334.464 19.8222 334.606 21.887C334.715 23.4829 334.774 23.7495 334.811 22.8107C334.884 20.9521 335.15 19.5118 335.42 19.5118C335.546 19.5118 335.651 19.7197 335.653 19.9736C335.657 20.2346 335.742 20.3206 335.851 20.1714C336.054 19.8954 336.437 19.7718 337.43 19.6635C337.757 19.6269 338.086 19.5367 338.162 19.4609C338.238 19.385 338.59 19.3785 338.945 19.4446C339.665 19.5824 339.864 20.0334 340.14 22.1487L340.329 23.6003L340.398 21.489C340.453 19.81 340.507 19.5668 340.662 20.3013L340.856 21.225L340.893 20.3673C340.917 19.7963 341.06 19.5096 341.323 19.5096C341.541 19.5096 341.721 19.6581 341.723 19.8395C341.727 20.0634 341.817 20.0417 342.007 19.7734C342.216 19.4778 342.32 19.4607 342.42 19.7049C342.517 19.9463 342.668 19.9165 342.993 19.5908C343.405 19.178 343.439 19.309 343.51 21.5819C343.605 24.6264 344.093 24.5737 344.093 21.5191V19.3371L344.885 19.4533C345.661 19.567 345.677 19.6013 345.712 21.189C345.733 22.0797 345.794 22.5116 345.85 22.1487C346.167 20.0805 346.253 19.7729 346.481 19.9137C346.619 19.9989 346.732 19.9422 346.732 19.7889C346.732 19.6352 346.91 19.5092 347.128 19.5092C347.447 19.5092 347.524 19.9246 347.524 21.6645C347.524 24.2613 347.763 24.219 348.041 21.5732L348.243 19.6412L348.284 21.6206C348.337 24.2228 348.834 23.573 348.84 20.8948C348.843 19.8425 348.954 18.9815 349.089 18.9815C349.224 18.9815 349.469 19.6643 349.633 20.499C350.037 22.5502 350.11 22.6985 350.185 21.6206C350.264 20.4698 350.607 24.8477 350.702 28.2184L350.772 30.7256L350.958 27.213C351.066 25.1842 351.271 23.5732 351.445 23.3994C351.611 23.2331 351.746 22.2955 351.746 21.3039C351.746 19.8846 351.828 19.5093 352.142 19.5093C352.359 19.5093 352.547 19.7172 352.559 19.9711C352.571 20.2725 352.706 20.1575 352.943 19.6413C353.142 19.2058 353.31 18.9779 353.317 19.1348C353.325 19.2918 353.625 19.579 353.988 19.7732L354.648 20.1263L354.696 25.6899L354.743 31.2535L354.924 27.0309C355.023 24.7084 355.122 22.0957 355.144 21.2248C355.173 20.0953 355.257 19.7548 355.44 20.0372C355.58 20.2549 355.718 22.0363 355.746 23.9959L355.796 27.5587L355.98 23.7319C356.187 19.441 356.145 19.7732 356.486 19.7732C356.631 19.7732 356.778 21.0639 356.826 22.7423L356.91 25.7113L356.966 22.6463C357.022 19.64 357.034 19.5826 357.616 19.6436C357.943 19.6762 358.477 19.7211 358.803 19.7394C359.314 19.768 359.402 19.9294 359.434 20.8948L359.471 22.0164L359.635 20.9607C359.79 19.9687 359.814 19.9449 360.033 20.5648C360.634 22.2675 360.663 22.2885 360.689 21.0549C360.722 19.5205 360.852 19.4633 364.367 19.4405C366.445 19.4283 367.151 19.5119 367.331 19.7961C367.461 20.0012 367.591 22.96 367.62 26.3711L367.674 32.5731L367.822 26.3711C367.966 20.393 368.144 18.9969 368.66 19.8111C368.826 20.0745 368.888 20.0818 368.89 19.8396C368.894 19.6553 369.22 19.5097 369.633 19.5097C370.04 19.5097 370.509 19.3723 370.677 19.2043C371.14 18.7412 371.788 19.4082 371.839 20.3999L371.881 21.2253L371.989 20.3463C372.069 19.6934 372.2 19.5068 372.496 19.6206C372.715 19.705 373.057 19.7739 373.256 19.7739C373.504 19.7739 373.641 20.2038 373.697 21.1594L373.778 22.545L374.055 21.0934C374.222 20.2192 374.457 19.6682 374.647 19.7079C374.821 19.7446 374.962 19.6541 374.962 19.5077C374.962 19.3458 375.16 19.365 375.467 19.5566C375.868 19.807 376.189 19.7866 377.031 19.4555C378.031 19.0628 378.121 19.0677 378.637 19.5489C378.938 19.829 379.184 19.9338 379.184 19.7817C379.184 19.2632 380.238 20.1499 380.27 20.6949C380.298 21.2232 380.302 21.2232 380.432 20.6969C380.561 20.1824 380.961 19.7854 381.361 19.7773C381.469 19.7752 381.558 20.1295 381.558 20.565C381.558 21.0004 381.677 21.3567 381.822 21.3567C381.967 21.3567 382.086 21.0399 382.086 20.6529C382.086 19.5833 382.312 20.0367 382.578 21.6378L382.815 23.0722L382.848 21.8625C382.903 19.6938 383.268 20.1934 383.568 22.8492L383.862 25.4474L383.899 22.7267C383.923 20.9886 384.03 20.0649 384.199 20.1691C384.344 20.2588 384.465 20.1772 384.467 19.9868C384.47 19.7357 384.541 19.7495 384.726 20.037C384.912 20.3249 384.983 20.3383 384.986 20.0876C384.99 19.8975 385.093 19.8054 385.218 19.8833C385.619 20.1312 385.835 22.1484 386.026 27.4268L386.212 32.5732L386.261 26.226C386.31 19.846 386.419 19.1018 387.265 19.4263C387.563 19.5405 387.64 21.2071 387.691 28.5767L387.753 37.5875L387.826 28.6804C387.896 20.196 387.922 19.7733 388.39 19.7733C389.03 19.7733 389.245 20.693 389.471 24.3918L389.648 27.2949L389.694 24.341C389.737 21.541 389.767 21.3924 390.267 21.4888C390.624 21.5577 390.798 21.4464 390.804 21.1438C390.816 20.5591 391.563 19.242 391.581 19.7734C391.593 20.0862 391.64 20.0968 391.813 19.8232C392.059 19.4358 393.457 19.4949 393.758 19.9055C393.878 20.069 393.954 20.0438 393.956 19.8395C393.964 19.1458 394.752 19.5194 394.791 20.2354L394.832 20.9611L394.942 20.2354C395.039 19.5884 395.162 19.5097 396.067 19.5097C396.626 19.5097 397.131 19.3674 397.189 19.1937C397.345 18.7237 398.972 19.4583 398.982 20.0036C398.99 20.3807 399.023 20.377 399.259 19.9709C399.455 19.6337 399.866 19.5091 400.781 19.5091C401.47 19.5091 402.177 19.3668 402.351 19.1923C402.597 18.946 402.674 19.0781 402.698 19.7861C402.714 20.2868 402.783 20.4888 402.849 20.2348C403.036 19.518 403.456 19.6905 403.49 20.4986L403.523 21.2243L403.69 20.4559C403.846 19.7365 403.949 19.6813 405.307 19.5919C407.222 19.4659 408.281 19.4925 408.459 19.6706C408.54 19.7506 408.664 23.2206 408.737 27.3819L408.869 34.948L409.055 27.8223C409.158 23.9031 409.348 20.2809 409.479 19.7729L409.715 18.8492L409.921 19.6001C410.057 20.0992 410.194 20.2413 410.328 20.024C410.439 19.8442 410.774 19.761 411.072 19.8389C411.371 19.9168 411.81 19.8379 412.049 19.6632C412.572 19.2807 414.294 19.3724 414.556 19.7969C414.686 20.0077 414.818 19.9661 414.989 19.662C415.305 19.0971 416.025 19.3647 416.224 20.1211L416.376 20.6967L416.793 20.1028C417.238 19.4686 418.485 19.2782 418.52 19.839C418.536 20.1028 418.567 20.1028 418.674 19.839C418.747 19.6576 419.161 19.5092 419.594 19.5092C420.027 19.5092 420.595 19.3946 420.857 19.2539C421.178 19.0818 421.559 19.1035 422.025 19.32L422.717 19.6409L422.76 24.1275L422.804 28.614L423.035 25.1831C423.39 19.9013 423.461 19.5089 424.056 19.5089C424.522 19.5089 424.572 19.7271 424.616 21.9501L424.664 24.3913L424.825 22.28L424.985 20.1688L425.12 22.0161L425.255 23.8635L425.307 21.9313C425.37 19.5768 425.721 19.0697 427.009 19.473C427.48 19.6206 428.192 19.6993 428.591 19.6484C428.99 19.5974 429.316 19.6687 429.316 19.8053C429.316 19.9517 429.535 19.9383 429.844 19.7727C430.294 19.5322 430.372 19.5721 430.372 20.0431C430.372 20.3473 430.48 20.5287 430.613 20.4467C430.746 20.3648 430.915 20.4467 430.988 20.629C431.062 20.8113 431.131 20.7073 431.143 20.3974C431.155 20.0671 431.382 19.7773 431.691 19.6964C432.177 19.5696 432.222 19.6984 432.265 21.315L432.312 23.0718L432.483 21.2244C432.6 19.9563 432.681 19.6666 432.742 20.3007L432.831 21.2244L432.938 20.3667C433.052 19.4387 433.072 19.4288 434.297 19.6738L435.121 19.839L435.178 23.3029L435.235 26.7667L435.313 23.4678C435.402 19.7486 435.483 19.3072 436.006 19.741C436.199 19.9013 436.435 19.9543 436.531 19.8588C436.626 19.7634 436.706 19.9722 436.708 20.323C436.711 20.8316 436.764 20.8806 436.968 20.5648C437.196 20.2129 437.225 20.2129 437.237 20.5648C437.245 20.8025 437.399 20.6969 437.621 20.301C437.966 19.6874 437.998 19.7983 438.086 21.8844L438.18 24.1277L438.234 21.7525L438.287 19.3773L439.277 19.3977C440.791 19.4303 440.883 19.467 440.973 20.0859C441.053 20.6365 441.079 20.6417 441.519 20.1989C441.96 19.7561 441.981 19.7599 441.981 20.2816C441.981 20.5822 442.1 20.8283 442.245 20.8283C442.39 20.8283 442.508 20.5837 442.508 20.2849C442.508 19.986 442.627 19.8149 442.772 19.9045C442.917 19.9942 443.036 19.9607 443.036 19.8299C443.036 19.4401 445.671 19.4437 445.693 19.8338C445.705 20.0181 445.807 19.9313 445.923 19.6406C446.131 19.1234 446.241 19.6948 446.555 22.9395C446.605 23.4475 446.664 23.1307 446.687 22.2353C446.711 21.3399 446.801 20.4202 446.889 20.1915C447.172 19.4534 447.52 20.0337 447.557 21.3056C447.577 21.9865 447.638 22.2467 447.694 21.8838C448.068 19.4398 447.998 19.5635 449.128 19.3725C449.924 19.238 450.309 19.2991 450.658 19.6151C450.915 19.8476 451.194 19.9691 451.277 19.8855C451.361 19.8019 451.514 20.6382 451.618 21.7442C451.721 22.8501 451.864 23.6971 451.935 23.6263C452.006 23.5553 452.156 22.6583 452.268 21.6326C452.522 19.3229 452.847 18.8284 453.732 19.4084C454.094 19.6457 454.581 19.7443 454.895 19.6449C455.221 19.5413 455.436 19.591 455.436 19.7704C455.436 19.9339 455.554 19.9943 455.699 19.9046C455.873 19.7974 455.981 22.8395 456.014 28.7961L456.065 37.8508L456.24 28.7457C456.337 23.7379 456.433 19.5983 456.453 19.5464C456.473 19.4946 456.669 19.522 456.886 19.6039C457.104 19.6875 457.298 19.6121 457.317 19.4343C457.337 19.2574 457.439 19.5285 457.546 20.0364C457.721 20.8672 457.744 20.8871 457.775 20.2342C457.812 19.4259 458.601 19.1869 458.601 19.9834C458.601 20.2448 458.711 20.5713 458.845 20.7092C458.979 20.847 459.139 21.3162 459.201 21.7516C459.292 22.3906 459.321 22.33 459.354 21.4373C459.39 20.4247 459.876 19.545 459.954 20.3505C459.975 20.5405 460.071 22.0023 460.173 23.599L460.359 26.502L460.422 23.3351C460.459 21.5932 460.588 19.9306 460.713 19.6402C460.837 19.3499 460.948 19.268 460.958 19.458C460.97 19.648 461.103 19.7251 461.258 19.6297C461.413 19.5339 461.706 19.6753 461.909 19.944C462.192 20.3179 462.294 21.6698 462.343 25.7106L462.407 30.9889L462.563 25.4467C462.648 22.3985 462.743 19.8748 462.771 19.8385C463.24 19.2484 463.353 20.8399 463.417 28.9435C463.458 33.9876 463.492 29.5638 463.494 19.1128C463.497 6.58952 463.45 3.23038 463.358 9.26027C463.282 14.2924 463.136 18.4928 463.035 18.5944C462.759 18.8692 462.571 17.7853 462.482 15.4179C462.416 13.6606 462.388 13.8375 462.319 16.4736C462.273 18.2154 462.18 19.4311 462.114 19.1751C462.047 18.9191 461.645 18.5301 461.221 18.3106C460.458 17.9164 460.449 17.8831 460.405 15.4772C460.381 14.1382 460.322 13.5178 460.275 14.0984C459.995 17.5396 459.852 18.5029 459.664 18.1984C459.505 17.942 459.332 17.9872 458.929 18.3905C458.313 19.0066 457.914 18.8501 457.742 17.925L457.619 17.2652L457.582 17.9627C457.542 18.7214 456.897 19.1512 456.565 18.6392C456.452 18.4639 456.294 14.283 456.213 9.34774L456.067 0.374672L456.015 9.41376C455.983 15.2291 455.869 18.4528 455.699 18.4528C455.554 18.4528 455.436 18.631 455.436 18.8487C455.436 19.095 455.187 19.2446 454.776 19.2446C454.413 19.2446 454.116 19.126 454.116 18.9808C454.116 18.8357 453.76 18.717 453.325 18.717C452.575 18.717 452.533 18.6599 452.533 17.6458C452.533 17.0538 452.424 16.6423 452.288 16.726C452.154 16.8092 451.992 16.6085 451.928 16.2797C451.85 15.8728 451.801 15.9768 451.775 16.6055C451.754 17.1135 451.662 17.9777 451.571 18.5259C451.408 19.513 451.401 19.5185 450.765 19.1017C450.412 18.8701 449.804 18.7017 449.415 18.727C448.169 18.8081 448.049 18.7351 448.014 17.8593L447.977 17.0015L447.814 17.7961C447.53 19.179 446.877 18.7814 446.726 17.1335L446.593 15.682L446.387 17.0015C446.193 18.2507 445.639 19.3876 445.36 19.1086C445.289 19.038 444.743 18.9614 444.145 18.9381C442.935 18.8908 442.655 18.7677 442.434 18.1894C442.332 17.9198 442.277 17.9781 442.263 18.3716C442.234 19.1127 441.714 19.4561 441.714 18.7324C441.714 18.1913 441.31 17.9747 441.143 18.4262C441.094 18.5567 440.461 18.7051 439.736 18.7561L438.416 18.8487L438.273 15.4178L438.129 11.9869L438.059 15.1539C438.005 17.6191 437.924 18.223 437.69 17.8794C437.417 17.4778 437.364 17.4896 437.104 18.0115C436.849 18.5223 436.596 18.6047 435.647 18.4859C435.491 18.4656 435.362 17.183 435.332 15.352L435.282 12.251L435.134 15.595C435.053 17.4342 434.898 19.0271 434.79 19.1348C434.393 19.5295 433.291 18.7315 433.042 17.8695L432.792 17.0014L432.724 17.7932C432.683 18.2643 432.585 17.9436 432.481 17.0014L432.305 15.4179L432.261 16.951C432.236 17.7995 432.109 18.4175 431.975 18.3349C431.842 18.253 431.674 18.3349 431.599 18.5172C431.498 18.768 431.397 18.7525 431.185 18.4528C430.979 18.1621 430.904 18.1486 430.901 18.4026C430.898 18.5926 430.779 18.6746 430.634 18.5849C430.488 18.4952 430.37 18.6134 430.37 18.852C430.37 19.2344 430.326 19.2381 429.974 18.8846C429.756 18.6669 429.578 18.3454 429.578 18.1703C429.578 17.9954 429.332 18.1663 429.031 18.5475C428.499 19.2251 427.389 19.4916 427.093 19.0131C427.015 18.8867 426.592 18.7113 426.154 18.6237C425.451 18.483 425.357 18.3562 425.357 17.5495C425.357 17.0464 425.238 16.5614 425.093 16.4717C424.931 16.3714 424.83 16.8207 424.83 17.6437C424.83 18.8802 424.782 18.9789 424.191 18.9789C423.391 18.9789 423.341 18.7375 423.063 13.5686L422.851 9.6099L422.719 14.2227L422.587 18.8355L421.531 18.8682C420.951 18.8886 420.226 18.9872 419.922 19.0924C419.554 19.2192 419.221 19.1368 418.932 18.8482C418.693 18.6088 418.497 18.5322 418.497 18.6782C418.497 18.8241 418.141 18.933 417.706 18.9207C417.27 18.9085 416.912 18.7678 416.91 18.6084C416.907 18.449 416.791 18.4967 416.65 18.7144C416.447 19.0296 416.39 18.9758 416.374 18.4506L416.354 17.7908L416.104 18.4147C415.889 18.9506 415.794 18.9893 415.432 18.6887C415.076 18.3927 414.955 18.4143 414.652 18.8298C414.398 19.1764 414.193 19.244 413.955 19.0594C413.57 18.7617 412.585 18.7699 411.691 19.0757C410.912 19.344 410.323 18.8669 410.307 17.955L410.295 17.2616L409.947 18.0533C409.605 18.8337 409.598 18.8204 409.435 17.1296C409.344 16.1861 409.167 13.989 409.041 12.2472L408.814 9.08024L408.773 13.2039C408.752 15.4719 408.659 17.6975 408.569 18.1496C408.426 18.868 408.301 18.968 407.58 18.9431C407.126 18.9268 406.307 19.0038 405.76 19.1131C404.262 19.412 403.731 18.8098 403.685 16.7587C403.665 15.874 403.603 15.447 403.548 15.8099C403.183 18.187 403.136 18.3332 402.916 17.7893C402.729 17.3265 402.7 17.3503 402.684 17.9821C402.672 18.5268 402.501 18.7441 401.993 18.8715C401.624 18.9645 401.249 18.9678 401.16 18.8797C401.072 18.7908 400.827 18.8634 400.616 19.0359C400.309 19.2907 400.158 19.2512 399.85 18.8357C399.495 18.3561 399.442 18.3506 399.138 18.7606C398.913 19.0644 398.69 19.128 398.429 18.9625C397.915 18.6371 396.926 18.6501 396.815 18.9829C396.762 19.1415 396.372 19.1823 395.87 19.0819C395.137 18.9356 395.008 18.7924 394.972 18.0861L394.93 17.2613L394.822 18.145C394.734 18.8567 394.616 19.0033 394.217 18.8987C393.944 18.8274 393.677 18.8985 393.624 19.0569C393.485 19.4748 391.848 18.7491 391.848 18.2694C391.848 18.0607 391.73 17.9632 391.585 18.0533C391.439 18.143 391.321 18.0329 391.321 17.805C391.321 17.5787 391.202 17.3935 391.057 17.3935C390.912 17.3935 390.782 17.1856 390.767 16.9317C390.751 16.6332 390.671 16.7034 390.546 17.1295C390.395 17.6418 390.291 17.3468 390.08 15.8099C389.9 14.496 389.797 14.1644 389.773 14.8238C389.753 15.3701 389.625 16.0232 389.487 16.2753C389.349 16.5273 389.164 17.2977 389.075 17.9871C388.967 18.8269 388.788 19.2408 388.534 19.2408C388.326 19.2408 388.13 19.2122 388.1 19.1747C388.072 19.138 387.978 14.8927 387.895 9.73977L387.743 0.370815L387.685 9.40987C387.652 14.6812 387.526 18.449 387.385 18.449C387.251 18.449 386.955 18.5211 386.725 18.6092C386.351 18.7527 386.303 17.9421 386.257 10.7577L386.207 2.7461L386.03 9.60787C385.851 16.5714 385.626 19.2407 385.215 19.2407C385.091 19.2407 384.975 18.736 384.957 18.1191C384.928 17.0664 384.913 17.0462 384.724 17.7892C384.536 18.5279 384.518 18.5013 384.457 17.3933L384.391 16.2057L384.196 17.1295C384.033 17.9059 383.991 17.7587 383.931 16.2058C383.858 14.2926 383.829 14.3475 383.504 16.9976L383.31 18.5811L383.012 16.9976L382.714 15.4141L382.496 16.8656C382.285 18.2671 382.271 18.2871 382.08 17.446C381.798 16.1977 381.558 16.0928 381.558 17.2177C381.558 18.1652 381.051 18.6333 381.01 17.7235C380.993 17.3969 380.947 17.368 380.845 17.6245C380.475 18.5565 379.799 18.8983 378.546 18.7863C377.723 18.7125 377.099 18.8067 376.701 19.0693C376.146 19.433 376.045 19.413 375.399 18.8136C375.014 18.4565 374.698 18.2874 374.698 18.4385C374.698 18.5894 374.58 18.7133 374.435 18.7133C374.29 18.7133 374.171 18.0531 374.171 17.2462C374.171 16.3354 374.071 15.841 373.907 15.9422C373.762 16.0319 373.644 16.7119 373.644 17.4533C373.644 18.1947 373.57 18.7278 373.48 18.6379C373.39 18.5482 373.143 18.6461 372.931 18.8602C372.403 19.388 372.068 19.1093 372.021 18.1038C371.988 17.3846 371.966 17.36 371.877 17.935C371.782 18.545 371.605 18.6343 370.003 18.8844C369.031 19.0361 368.175 19.1095 368.103 19.0471C368.03 18.9847 367.904 16.2417 367.823 12.9514L367.676 6.96894L367.626 12.9849L367.576 19.001L366.718 18.8623C365.196 18.6165 364.818 18.6254 364.097 18.9223C363.305 19.2489 361.819 18.9467 361.464 18.3878C361.294 18.1208 361.251 18.1228 361.247 18.4C361.239 19.0627 360.716 18.4123 360.689 17.7091L360.665 16.9989L360.463 17.6587L360.261 18.3185L360.003 17.6748C359.761 17.0696 359.735 17.0963 359.571 18.1215C359.382 19.3071 359.137 19.5919 358.515 19.3528C357.734 19.0531 357.217 17.831 357.026 15.8329L356.834 13.832L356.797 15.9937C356.777 17.1826 356.642 18.2288 356.497 18.3185C356.338 18.416 356.231 18.0783 356.229 17.4763C356.221 15.8635 355.718 15.4159 355.691 16.9989C355.654 19.0197 355.219 17.6642 355.196 15.4658C355.184 14.3393 355.079 13.7297 354.913 13.832C354.766 13.9229 354.65 15.1491 354.65 16.603C354.65 18.0374 354.539 19.2795 354.404 19.3632C354.268 19.4468 353.794 19.1271 353.349 18.653C352.798 18.0648 352.541 17.9235 352.54 18.2085C352.54 18.4385 352.361 18.6264 352.143 18.6264C351.834 18.6264 351.747 18.2684 351.747 16.9879C351.747 16.0868 351.665 14.9487 351.566 14.4588C351.39 13.5989 351.377 13.5909 351.196 14.228C351.089 14.6031 350.977 13.4653 350.935 11.5888L350.86 8.28993L350.681 12.6445C350.395 19.5973 350.401 19.5145 350.164 18.5826C350.003 17.9464 349.957 17.907 349.932 18.382C349.903 18.9476 349.878 18.9536 349.373 18.5214C348.961 18.1683 348.839 17.7216 348.819 16.4786C348.778 14.1047 348.379 13.1152 348.335 15.2837C348.303 16.8522 348.268 16.9553 347.913 16.4868C347.558 16.0172 347.526 16.1003 347.526 17.4858C347.526 18.8799 347.49 18.9766 347.033 18.7332C346.762 18.588 346.465 18.5444 346.374 18.6361C346.282 18.7278 346.207 18.3674 346.207 17.8351C346.207 17.3028 346.089 16.8674 345.944 16.8674C345.798 16.8674 345.68 17.3462 345.68 17.9313C345.68 18.6253 345.545 19.0472 345.291 19.1446C344.471 19.4593 344.167 18.6065 343.906 15.2695L343.65 11.985L343.609 15.3499C343.576 18.147 343.502 18.7148 343.173 18.7148C342.955 18.7148 342.77 18.5663 342.76 18.3849C342.752 18.2035 342.64 18.3127 342.513 18.6279C342.125 19.5915 340.949 19.1149 340.899 17.9735L340.867 17.2633L340.665 18.0551C340.499 18.7104 340.454 18.574 340.404 17.2633L340.344 15.6798L340.043 17.2633L339.742 18.8468L338.753 18.7604C338.209 18.7127 337.764 18.7889 337.764 18.9276C337.764 19.067 337.458 19.2399 337.085 19.3112C336.324 19.4568 335.949 18.836 335.877 17.3124C335.841 16.5144 335.832 16.5086 335.728 17.1975C335.541 18.4317 334.902 18.0715 334.792 16.6696C334.694 15.4228 334.693 15.4242 334.645 16.9253C334.609 18.1468 334.522 18.4056 334.202 18.2826C333.863 18.1525 333.802 16.9837 333.775 10.1755C333.759 5.8002 333.653 1.86406 333.542 1.42863C333.432 0.993155 333.327 4.63536 333.31 9.52242C333.293 14.4094 333.207 18.5957 333.119 18.8253C332.88 19.4469 332.564 19.3325 332.266 18.5171C332.028 17.8656 331.999 17.8516 331.98 18.3797C331.96 18.9086 331.894 18.9378 331.305 18.6696C330.945 18.5057 330.57 18.1221 330.472 17.8176C330.305 17.298 330.279 17.3087 330.05 17.9896C329.897 18.4439 329.616 18.7154 329.299 18.7154C329.021 18.7154 328.79 18.8638 328.785 19.0452C328.781 19.2312 328.608 19.1512 328.389 18.863C328.176 18.5812 328.002 18.4936 328.002 18.6681C328.002 18.8903 327.688 18.9351 326.957 18.8185C326.382 18.7268 325.699 18.7431 325.44 18.8552C324.516 19.254 324.12 19.221 323.558 18.6974C323.245 18.4059 322.989 18.2869 322.989 18.4332C322.989 18.5796 322.821 18.6342 322.614 18.5551C322.408 18.476 321.972 18.5542 321.646 18.7288C321.146 18.9963 320.997 18.9706 320.702 18.5669C320.366 18.1072 320.351 18.1085 320.333 18.5996C320.317 19.0221 320.268 18.9963 320.042 18.452C319.892 18.0891 319.663 17.586 319.533 17.3339C319.403 17.0819 319.279 16.0724 319.258 15.0906C319.222 13.3459 319.216 13.3611 319.019 15.7659C318.825 18.1378 318.545 19.2234 318.467 17.9021C318.443 17.5066 318.369 17.6469 318.269 18.2719C318.109 19.2782 318.108 19.2789 317.563 18.7682C317.084 18.3191 316.956 18.302 316.511 18.6275C316.068 18.9513 315.962 18.9407 315.672 18.5427C315.366 18.1253 315.338 18.1354 315.338 18.6655C315.338 19.3574 314.789 19.4147 313.878 18.8176C313.498 18.5684 313.228 18.5101 313.228 18.6769C313.228 19.2187 312.055 18.5419 311.874 17.8957L311.697 17.2642L311.627 17.924C311.586 18.2869 311.478 17.8714 311.381 17.0003L311.206 15.4168L311.161 17.3302C311.129 18.684 311.018 19.2436 310.78 19.2436C310.285 19.2436 309.538 18.2728 309.508 17.5911C309.483 17.0295 309.471 17.0329 309.279 17.66L309.078 18.3198L308.795 17.66C308.515 17.008 308.512 17.0103 308.495 17.8578C308.479 18.7046 308.103 19.0262 307.879 18.3856C307.793 18.1393 307.637 18.165 307.264 18.4863C306.574 19.0802 305.576 19.3631 305.576 18.9648C305.576 18.723 305.489 18.723 305.196 18.9669C304.803 19.2935 304.709 19.0215 304.432 16.7366C304.379 16.2987 304.318 16.5641 304.296 17.3304C304.26 18.6218 304.212 18.716 303.597 18.716C303.234 18.716 302.938 18.8432 302.938 18.9989C302.938 19.1543 302.761 19.1058 302.547 18.8905C302.331 18.6752 301.931 18.5577 301.657 18.6295C301.179 18.7547 301.148 18.3873 300.907 9.56693L300.656 0.373957L300.61 9.17347C300.566 17.5353 300.537 18.0063 300.036 18.644L299.508 19.315L299.488 18.6856C299.475 18.3394 299.409 18.198 299.338 18.3712C299.138 18.8641 298.456 18.4593 298.427 17.83C298.402 17.3164 298.38 17.3251 298.186 17.9242L297.972 18.584L297.786 17.9902C297.585 17.3489 297.164 17.1907 297.084 17.7263C297.056 17.9078 296.961 17.0468 296.869 15.813L296.704 13.5697L296.646 15.9449C296.61 17.4296 296.457 18.4933 296.238 18.782C295.782 19.384 295.55 19.367 295.55 18.7319C295.55 18.4501 295.432 18.1462 295.287 18.0565C295.142 17.9668 295.023 18.1531 295.023 18.4711C295.023 19.002 294.924 19.0377 293.803 18.9113C293.132 18.8359 292.481 18.6124 292.356 18.4151C292.189 18.1517 292.128 18.144 292.125 18.3866C292.121 18.5681 291.893 18.7165 291.615 18.7165C291.337 18.7165 291.05 18.5681 290.976 18.3866C290.903 18.2052 290.834 18.3238 290.823 18.6504C290.798 19.3384 289.897 19.4888 289.65 18.8457C289.566 18.6268 289.405 18.4625 289.292 18.4812C288.522 18.6076 288.426 18.374 288.392 16.2751L288.356 14.0978L288.135 16.1965C288.013 17.3507 287.851 18.4592 287.774 18.6596C287.552 19.2392 286.99 18.8761 286.808 18.0347L286.642 17.2648L286.609 18.1445C286.589 18.7213 286.464 18.9864 286.248 18.9144C285.996 18.8304 285.886 16.6279 285.781 9.58939L285.644 0.374299L285.557 8.15971C285.462 16.657 285.131 21.2385 284.994 15.9452L284.919 13.0422L284.599 15.8133C284.423 17.3374 284.248 18.1687 284.21 17.6607L284.141 16.737L283.94 17.5287C283.816 18.0142 283.72 16.7891 283.692 14.3617C283.628 8.90429 283.219 7.0361 283.178 12.0156C283.142 16.333 282.898 18.7152 282.597 17.6607C282.444 17.1246 282.404 17.2113 282.383 18.1225C282.354 19.2525 282.024 19.6046 281.723 18.8209C281.634 18.588 281.398 18.46 281.199 18.5362C280.577 18.7752 280.247 18.1363 280.21 16.6181C280.19 15.8125 280.128 15.4503 280.073 15.8132C279.711 18.174 279.682 18.2587 279.37 17.9465C279.166 17.743 279.009 16.0241 278.914 12.9637L278.771 8.29164L278.717 13.2556C278.68 16.4845 278.57 18.1626 278.399 18.0565C278.254 17.9668 278.135 18.1311 278.135 18.421C278.135 18.7113 278.016 19.0222 277.871 19.1119C277.711 19.2114 277.597 18.7792 277.581 18.0058C277.561 16.976 277.515 16.8611 277.343 17.3964C277.227 17.7593 277.098 17.9968 277.057 17.9243C277.015 17.8517 276.909 13.9326 276.822 9.21513L276.664 0.637912L276.608 8.5709C276.563 15.0745 276.483 16.5961 276.165 17.0161C275.952 17.2979 275.774 17.9144 275.769 18.3861C275.765 18.8579 275.648 19.2439 275.509 19.2439C275.239 19.2439 275.024 18.2452 274.885 16.3408C274.812 15.3501 274.79 15.4193 274.752 16.7586C274.695 18.7241 274.412 19.0979 274 17.7501C273.787 17.0527 273.684 16.9218 273.671 17.3305C273.658 17.6734 273.483 17.9243 273.255 17.9243C273.037 17.9243 272.835 18.0727 272.806 18.2542C272.778 18.4356 272.682 17.2183 272.595 15.549L272.436 12.514L272.38 15.549C272.315 19.0423 272.077 19.7273 271.28 18.716C270.994 18.3531 270.756 18.175 270.75 18.3201C270.746 18.4652 270.625 18.4057 270.484 18.188C270.344 17.9702 270.205 15.8325 270.176 13.4375L270.124 9.08295L269.926 12.6458C269.716 16.432 269.288 19.5168 269.174 18.056C269.118 17.3342 269.097 17.3181 268.941 17.8738C268.668 18.8445 268.272 18.5813 267.946 17.2118C267.778 16.5034 267.612 16.1775 267.57 16.4726C267.529 16.7629 267.416 16.347 267.318 15.549C267.144 14.1314 267.138 14.1499 267.057 16.3407C266.985 18.3126 266.952 18.4403 266.79 17.3963L266.605 16.2087L266.565 17.3211C266.536 18.1374 266.384 18.5086 265.997 18.7159C265.515 18.974 265.466 18.912 265.428 17.9994C265.386 17.0249 265.383 17.0214 265.279 17.8583C265.094 19.3502 264.76 18.7917 264.49 16.5388L264.229 14.3615L264.188 16.703C264.156 18.752 264.1 19.0036 263.753 18.7161C263.434 18.4515 263.356 18.458 263.349 18.7487C263.345 19.0056 263.237 18.9742 262.985 18.6415C262.677 18.2357 262.608 18.2266 262.474 18.5754C262.263 19.1254 261.779 19.0861 261.756 18.5171C261.74 18.1248 261.706 18.135 261.525 18.5832C261.327 19.0758 261.304 19.067 261.184 18.451C261.057 17.7998 261.055 17.8007 261.019 18.5171C260.983 19.2916 260.537 19.4977 260.29 18.8555C260.209 18.6423 260.052 16.8907 259.943 14.9628L259.743 11.4575L259.703 14.9285L259.662 18.3996L258.936 18.6393C257.688 19.0517 257.293 18.8032 257.241 17.5742L257.195 16.4719L257.056 17.6595L256.916 18.8471L256.751 17.2636L256.585 15.6802L256.54 17.3118C256.504 18.7352 256.423 18.9668 255.922 19.1256C255.537 19.2479 255.247 19.1688 255.039 18.8834C254.868 18.6502 254.654 18.5336 254.563 18.6249C254.472 18.7158 254.217 18.6412 253.996 18.4565C253.774 18.273 253.572 18.2261 253.546 18.3529C253.522 18.4797 253.431 17.6925 253.348 16.6038L253.197 14.6245L252.836 16.6038C252.638 17.6925 252.357 18.81 252.211 19.0872C251.953 19.5789 251.94 19.5791 251.67 19.0954C251.517 18.823 251.307 18.24 251.201 17.7996C251.01 17.0034 251.009 17.0046 250.982 17.9884C250.962 18.7828 250.854 18.978 250.443 18.978C250.161 18.978 249.856 18.8573 249.765 18.7097C249.674 18.5621 249.499 18.5038 249.375 18.5801C249.151 18.7187 248.709 17.5861 248.499 16.3387C248.399 15.7419 248.384 15.7544 248.341 16.4708C248.316 16.9063 248.135 17.6188 247.943 18.0543L247.592 18.8461L247.427 18.1862C247.336 17.8233 247.226 16.3982 247.184 15.0193C247.112 12.6712 247.104 12.7182 247.052 15.7606C247.02 17.6424 246.896 18.9464 246.756 18.86C246.624 18.778 246.455 18.86 246.381 19.0422C246.295 19.2563 246.24 19.2229 246.227 18.9468C246.211 18.6145 245.979 18.5391 245.179 18.6072C243.99 18.7079 243.866 18.4812 243.797 16.0748L243.755 14.6232L243.493 16.6026C243.349 17.6913 243.181 18.6379 243.121 18.7063C242.711 19.1714 242.513 17.3448 242.463 12.6439L242.405 7.23365L242.261 13.0844C242.182 16.3023 242.026 19.0259 241.915 19.1368C241.61 19.4406 241.163 18.8706 240.929 17.8807L240.72 16.9985L240.692 17.9634C240.667 18.7928 240.591 18.9091 240.137 18.7904C239.67 18.6681 239.603 18.4067 239.556 16.5059L239.503 14.3593L239.413 16.4133C239.36 17.6328 239.22 18.4038 239.07 18.3111C238.931 18.225 238.817 17.9176 238.817 17.6271C238.817 17.3368 238.707 17.168 238.571 17.252C238.435 17.336 238.276 17.0163 238.217 16.5418C238.154 16.0283 238.093 16.3147 238.069 17.2494C238.007 19.5439 237.543 18.7769 237.269 15.9284L237.042 13.5678L237.006 15.5801C236.956 18.3497 236.751 19.2419 236.161 19.2419C235.898 19.2419 235.609 19.1232 235.519 18.9781C235.429 18.8329 235.028 18.7143 234.627 18.7143C234.009 18.7143 233.855 18.5626 233.62 17.7246C233.344 16.7367 233.343 16.7363 233.279 17.5264L233.214 18.3182L233.013 17.5264C232.826 16.7943 232.808 16.824 232.762 17.9223C232.725 18.8144 232.659 18.9786 232.5 18.5822C232.301 18.0895 232.279 18.0983 232.158 18.7143C232.087 19.0772 231.99 17.2957 231.943 14.7556L231.856 10.137L231.679 13.5679C231.488 17.2962 231.264 18.5263 230.803 18.3745C230.64 18.3207 230.375 17.1578 230.214 15.7903L229.921 13.304L229.834 16.2071C229.777 18.1164 229.715 18.5907 229.652 17.5926C229.536 15.7353 229.056 15.5685 229.056 17.3855C229.056 18.4479 228.951 18.7521 228.5 18.9934C227.548 19.5032 227.352 18.9359 227.191 15.205L227.041 11.7206L226.993 15.3714C226.957 18.1576 226.867 18.9965 226.615 18.9134C226.434 18.8535 226.139 18.5171 225.96 18.1656C225.649 17.5564 225.634 17.5529 225.63 18.0923C225.626 18.6766 224.983 19.1013 224.528 18.8201C224.386 18.7325 224.167 18.4052 224.041 18.0935C223.828 17.5663 223.811 17.577 223.796 18.2476C223.784 18.7848 223.615 19.0096 223.135 19.1302C222.371 19.3218 221.932 19.1057 221.932 18.5347C221.932 18.2288 221.845 18.1946 221.594 18.4034C221.125 18.7928 220.763 18.4804 220.426 17.3951L220.139 16.4714L220.111 17.9074C220.086 19.2292 220.053 19.3026 219.697 18.8311C219.437 18.4882 219.306 18.4385 219.301 18.6811C219.293 18.9673 219.212 18.9767 218.91 18.7259C218.7 18.5514 218.484 17.854 218.43 17.1761L218.332 15.9435L218.284 17.2961C218.239 18.5915 218.2 18.6571 217.379 18.8472C216.908 18.9565 216.344 19.0874 216.126 19.1384C215.908 19.1893 215.552 19.1588 215.334 19.0699C215.117 18.9814 214.591 18.864 214.166 18.8089C213.153 18.6776 213.131 18.6462 212.937 17.0489L212.771 15.6796L212.734 17.1561C212.688 18.9626 212.076 19.7592 211.227 19.1167C210.947 18.9047 210.275 18.7277 209.734 18.7228C208.66 18.7147 208.575 18.5707 208.392 16.4711C208.335 15.8151 208.283 16.0838 208.256 17.1813C208.232 18.1526 208.102 19.0151 207.968 19.0981C207.833 19.1813 207.409 19.1062 207.025 18.9305C206.48 18.6822 206.214 18.6818 205.818 18.9295C205.48 19.1407 205.309 19.1526 205.309 18.9662C205.309 18.8113 205.214 18.7436 205.097 18.8158C204.98 18.8879 204.438 18.8484 203.892 18.7232C203.122 18.5495 202.868 18.5842 202.755 18.8782C202.66 19.1244 202.505 19.1713 202.311 19.0119C201.905 18.68 200.799 18.5911 200.213 18.8435C199.406 19.1905 199.124 18.5499 198.957 16.0006C198.87 14.6634 198.753 13.9851 198.697 14.4931C198.641 15.0011 198.53 12.3884 198.45 8.68697L198.304 1.95716L198.208 9.74263C198.155 14.0246 198.026 17.053 197.923 16.4724C197.747 15.4923 197.731 15.5333 197.696 17.0452C197.66 18.6338 197.639 18.6781 196.857 18.8501C196.383 18.954 195.906 18.9031 195.691 18.7249C195.411 18.4925 195.308 18.5169 195.24 18.8321C195.163 19.193 195.068 19.1962 194.427 18.8606C194.028 18.6523 193.685 18.5638 193.664 18.6641C193.644 18.7644 193.542 18.3714 193.438 17.7907L193.249 16.735L193.212 17.7247C193.192 18.269 193.056 18.7144 192.911 18.7144C192.766 18.7144 192.638 18.5659 192.628 18.3845C192.62 18.203 192.522 18.2772 192.415 18.5496C192.275 18.9068 191.889 19.0733 191.029 19.1471C189.982 19.2372 189.796 19.1716 189.492 18.6029C189.21 18.0752 189.083 18.0187 188.806 18.2962C188.619 18.4834 188.13 18.6241 187.72 18.6094C187.1 18.589 186.956 18.4496 186.865 17.7907L186.756 16.999L186.601 17.769C186.349 19.0281 185.794 18.9285 185.743 17.6148L185.699 16.4712L185.602 17.5268C185.461 19.0582 185.294 19.4614 184.998 18.9822C184.869 18.7747 184.433 18.5997 184.027 18.5936C183.424 18.5855 183.257 18.4371 183.118 17.7907L182.947 16.9989L182.876 17.7907C182.817 18.4524 182.775 18.3874 182.621 17.3948L182.436 16.2071L182.395 17.7246C182.358 19.061 182.292 19.2421 181.82 19.2421C181.525 19.2421 181.212 19.055 181.124 18.8266C181.015 18.5433 180.77 18.4601 180.352 18.5653C179.344 18.8185 179.092 17.9399 178.956 13.7001C178.806 9.01759 178.436 10.1708 178.413 15.3936C178.397 18.9287 178.118 19.6084 177.845 16.7794L177.687 15.1516L177.646 17.1818C177.609 19.1359 177.583 19.2078 177.012 19.0983C176.149 18.9327 175.76 18.2473 175.755 16.8826C175.751 16.0086 175.681 15.7878 175.495 16.0753C175.355 16.2931 175.238 16.976 175.236 17.5928C175.234 18.2098 175.113 18.7145 174.968 18.7145C174.823 18.7145 174.704 18.3817 174.704 17.9755C174.704 17.569 174.59 17.1224 174.451 16.983C174.311 16.8435 174.158 15.5431 174.11 14.0931C174.038 11.9062 174.014 12.1176 173.968 15.334C173.935 17.5714 173.801 19.2802 173.649 19.3743C173.504 19.464 173.385 19.4028 173.385 19.2422C173.385 19.0799 173.275 19.0151 173.14 19.0987C172.788 19.3164 172.54 18.3554 172.328 15.9434L172.141 13.8321L172.105 16.2733C172.062 19.0195 171.558 19.6871 171.507 17.0651C171.491 16.1578 171.392 13.3373 171.29 10.7971L171.105 6.1786L171.058 12.5941C171.03 16.7923 170.921 18.9532 170.748 18.8465C170.603 18.7568 170.484 18.822 170.484 18.9953C170.484 19.2277 170.383 19.2232 170.088 18.979C169.855 18.7857 169.675 18.1479 169.65 17.4292C169.613 16.3876 169.593 16.3438 169.508 17.1315C169.453 17.6395 169.341 18.2333 169.26 18.4511C168.83 19.6008 168.567 16.7306 168.391 8.95018L168.197 0.372993L168.153 9.4276C168.129 14.8211 168.012 18.4219 167.868 18.3331C167.735 18.2511 167.566 18.3331 167.492 18.5153C167.39 18.7661 167.289 18.7506 167.078 18.4509C166.924 18.2332 166.796 18.1883 166.794 18.351C166.792 18.5141 166.288 18.7274 165.674 18.8256C164.781 18.9683 164.492 18.9124 164.223 18.545C163.913 18.1208 163.888 18.1199 163.888 18.5328C163.888 19.2658 163.119 19.0377 162.946 18.2535C162.692 17.1023 162.611 16.9565 162.589 17.6093C162.577 17.9445 162.45 18.1454 162.305 18.0556C162.16 17.9659 162.039 18.1074 162.037 18.37C162.033 18.7749 161.994 18.7872 161.777 18.4515C161.562 18.1184 161.521 18.1335 161.518 18.5482C161.514 18.9135 161.375 19.0044 160.975 18.8996C160.678 18.8221 160.068 18.8629 159.618 18.993C159.168 19.1219 158.669 19.1439 158.508 19.0411C158.22 18.8572 158.075 18.8128 157.556 18.748C157.411 18.7276 157.273 17.9727 157.248 17.0655C157.211 15.6318 157.184 15.5541 157.05 16.4717C156.966 17.0523 156.834 14.9146 156.757 11.7213L156.618 5.91515L156.56 12.6113C156.508 18.5293 156.455 19.2692 156.106 18.9789C155.787 18.7142 155.706 18.7208 155.689 19.0115C155.673 19.279 155.633 19.2875 155.535 19.0441C155.462 18.8626 155.234 18.7142 155.028 18.7142C154.789 18.7142 154.654 18.4296 154.654 17.9225C154.654 17.487 154.536 17.1308 154.391 17.1308C154.246 17.1308 154.123 17.6355 154.118 18.2524C154.11 19.2598 154.073 19.3254 153.748 18.8964C153.483 18.5465 153.333 18.5041 153.188 18.7386C153.043 18.9742 152.903 18.9388 152.659 18.604C152.35 18.1816 152.315 18.1875 152.156 18.6888C152.01 19.1485 151.91 19.1806 151.473 18.9074C151.191 18.7312 150.949 18.2894 150.934 17.9251L150.91 17.2628L150.728 17.9178C150.597 18.387 150.343 18.5884 149.831 18.6278L149.116 18.6828L149.064 15.5976C149.031 13.6773 148.983 13.21 148.934 14.3598C148.89 15.3759 148.768 16.6229 148.662 17.1309C148.491 17.95 148.451 17.8454 148.312 16.2072L148.154 14.3598L148.107 16.8011C148.055 19.5441 147.901 19.7059 146.28 18.7173C145.69 18.3577 145.413 18.2962 145.391 18.5204C145.375 18.6998 145.269 18.4918 145.158 18.0547L144.957 17.2629L144.925 18.1124C144.884 19.1819 144.214 19.0359 143.966 17.9036C143.717 16.7731 143.31 16.6932 143.31 17.7751C143.31 18.2918 143.221 18.6956 143.113 18.6725C143.004 18.6481 142.737 18.697 142.519 18.781C141.415 19.2005 140.828 19.1966 140.502 18.7687C140.185 18.3503 140.16 18.3532 140.153 18.8099C140.145 19.2148 140.018 19.2668 139.419 19.1076C137.441 18.582 136.978 18.5191 136.978 18.7753C136.978 18.9388 136.834 18.9237 136.608 18.7345C136.324 18.4984 136.212 18.5062 136.123 18.7671C136.031 19.0411 135.923 19.037 135.57 18.7467C135.224 18.4613 135.12 17.8471 135.079 15.8437L135.027 13.3028L134.881 16.1946L134.736 19.0864L133.285 19.0089C132.487 18.9661 131.79 18.8883 131.737 18.8357C131.684 18.7831 131.548 18.3478 131.434 17.8687C131.23 17.0056 131.227 17.0081 131.201 18.1402L131.172 19.2828L130.315 19.0696C129.535 18.8755 128.947 18.8669 126.753 19.0153C126.354 19.0439 125.315 19.0398 124.445 19.0072C123.574 18.9787 121.933 18.9909 120.797 19.0358C119.661 19.0826 118.675 19.0276 118.605 18.9146C118.42 18.6158 117.011 18.6618 115.87 19.0035C115.097 19.2351 114.722 19.2208 114.124 18.9354C113.478 18.6268 113.34 18.3747 113.207 17.2547L113.051 15.9371L113.009 17.3383C112.985 18.196 112.865 18.6761 112.704 18.5763C112.541 18.4756 112.425 15.8235 112.399 11.633L112.359 4.85276L112.145 10.4987C111.93 16.1644 111.736 17.9846 111.636 15.2774C111.607 14.479 111.499 11.6881 111.398 9.07539L111.215 4.32491L111.134 11.3187C111.034 19.9798 110.696 18.3016 110.366 7.5083L110.147 0.366211L110.102 9.33928C110.059 18.029 109.893 19.9148 109.304 18.438C109.079 17.8728 109.04 17.8558 109.016 18.3124C108.996 18.6953 108.877 18.5864 108.582 17.9165C108.26 17.1888 108.132 15.312 107.975 9.07536L107.777 1.15795L107.734 7.30936C107.692 13.3243 107.313 18.326 106.862 18.827C106.73 18.9738 106.634 18.8107 106.632 18.4311C106.628 17.9167 106.575 17.8654 106.372 18.1803C106.164 18.5024 106.116 18.4694 106.112 18.0013C106.111 17.6849 105.932 17.2501 105.717 17.0347C105.394 16.7114 105.313 15.383 105.251 9.42838L105.176 2.21359L105.083 10.263C104.97 19.9334 104.615 19.0465 104.29 8.28359L104.083 1.42184L104.036 9.60318C104.004 14.998 103.903 17.6497 103.734 17.3886C103.52 17.0583 103.471 17.0799 103.437 17.5207C103.412 17.811 103.31 17.5733 103.206 16.9929L103.018 15.9373L102.959 17.1249C102.899 18.3498 102.847 18.3348 102.552 17.0066C102.418 16.4058 102.323 16.3157 102.137 16.6107C102.004 16.8207 101.885 17.2897 101.873 17.6526C101.852 18.2583 101.832 18.2691 101.623 17.7847C101.422 17.317 101.395 17.3395 101.378 17.9829C101.362 18.6446 100.832 19.077 100.832 18.4291C100.832 18.2754 100.713 18.2232 100.568 18.3129C100.423 18.4026 100.304 18.7064 100.304 18.9883C100.304 19.6905 99.809 19.6303 98.9698 18.826L98.266 18.1516L97.2136 18.7003C96.1618 19.2487 93.583 19.4101 93.2959 18.9453C93.2258 18.8316 92.2509 18.7827 91.1298 18.8361C87.4372 19.0122 85.4084 19.0077 84.6501 18.8238C84.2287 18.7207 83.4555 18.7872 82.8778 18.9788C82.0945 19.2373 81.7657 19.2446 81.4822 19.0114C81.2784 18.8422 80.9186 18.7773 80.6832 18.8679C80.3636 18.9906 80.1254 18.7402 79.7449 17.8827L79.2349 16.7333L79.2145 17.7988L79.1941 18.8644L77.9409 18.8563L76.6877 18.8481L76.5414 16.209L76.395 13.5698L76.3433 16.2749C76.2711 20.0423 75.6654 19.8266 75.4161 15.9451C75.3676 15.1934 75.311 15.6193 75.2837 16.9347C75.238 19.1403 74.9429 19.8708 74.5707 18.698C74.4114 18.1952 74.3714 18.1872 74.0711 18.5985C73.6761 19.1386 72.6899 18.9129 72.5134 18.2421C72.4486 17.995 72.3797 18.1487 72.3606 18.5846C72.3402 19.0323 72.2415 19.2441 72.1319 19.0721C72.0251 18.9049 71.5225 18.7267 71.0146 18.6761C70.5068 18.626 70.0105 18.4066 69.9119 18.1887C69.8132 17.971 69.6999 13.933 69.6595 9.21556L69.5866 0.638379L69.4239 9.47952C69.3343 14.3421 69.2283 18.38 69.1883 18.4526C69.1476 18.5252 69.0204 18.2874 68.9042 17.9247C68.7041 17.299 68.6915 17.3091 68.6666 18.1209C68.6421 18.9463 68.603 18.9752 67.5849 18.9354C66.6115 18.8987 66.5296 18.8359 66.5296 18.1455C66.5296 17.7339 66.411 17.397 66.2659 17.397C66.1208 17.397 66.0022 17.6302 66.0022 17.9156C66.0022 18.4945 65.0142 19.1535 64.667 18.8061C64.5443 18.6834 64.4028 17.6331 64.3527 16.4724L64.2618 14.362L64.2088 16.8032C64.1567 19.2016 63.8212 19.9733 63.4584 18.5283C63.2958 17.8804 63.2595 17.8615 63.0761 18.3306C62.9648 18.6156 62.8654 18.6877 62.8552 18.4908C62.8429 18.2837 62.6697 18.1968 62.4409 18.2845C62.1429 18.3991 62.0451 18.2392 62.0451 17.6373C62.0451 17.1719 61.935 16.9064 61.7813 17.0014C61.6362 17.0911 61.5176 17.5138 61.5176 17.9407C61.5176 18.9647 60.5667 18.7699 60.1298 17.6565C60.0454 17.4412 59.9635 17.681 59.9476 18.189C59.9231 18.9991 59.8828 19.0506 59.6256 18.6074C59.4641 18.3293 59.2493 16.3105 59.1475 14.1209L58.9628 10.1396L58.9188 13.1746C58.8943 14.8439 58.803 16.8084 58.715 17.5402C58.5764 18.6927 58.4724 18.8775 57.9379 18.9218C57.578 18.9503 57.1684 18.7554 56.9552 18.4507C56.5524 17.8757 56.2411 18.011 56.2411 18.761C56.2411 19.462 55.7174 19.357 55.6926 18.6509C55.6804 18.3243 55.6119 18.2055 55.5389 18.387C55.3588 18.8341 54.6583 18.8073 54.6583 18.3544C54.6583 18.1546 54.4802 17.8431 54.2625 17.6623C53.927 17.3839 53.8622 17.4491 53.8361 18.0919C53.8198 18.5088 53.7526 18.6487 53.6878 18.4026C53.6193 18.1429 53.411 18.0164 53.1907 18.1008C52.9159 18.2065 52.8104 18.0389 52.8075 17.4924C52.8038 16.9086 52.746 16.8278 52.5479 17.1344C52.4072 17.3522 52.2849 17.8272 52.2764 18.1901C52.2601 18.8345 52.2519 18.8314 51.8981 18.058L51.5358 17.2662L51.4799 18.1899L51.4241 19.1136L51.2296 18.1899L51.0352 17.2662L50.9985 18.1239C50.9537 19.2323 50.1027 19.3088 49.5317 18.256L49.1379 17.5303L49.1257 18.388C49.1175 19.182 48.7462 19.5693 48.5435 18.998C48.495 18.8618 48.1025 18.7036 47.671 18.647C47.1125 18.5732 46.8349 18.3595 46.7079 17.905C46.5448 17.3223 46.5273 17.3388 46.5032 18.0934C46.4747 18.9931 45.6673 19.4641 45.1736 18.869C45.0211 18.6851 44.8724 16.4574 44.8279 13.6839L44.7493 8.82117L44.6897 14.0658C44.6372 18.6936 44.5838 19.2718 44.2344 18.9819C44.0167 18.8012 43.8385 18.7417 43.8385 18.8498C43.8385 18.9578 43.6718 18.9081 43.4684 18.7393C43.1843 18.5032 43.0665 18.5113 42.9616 18.7719C42.8866 18.9595 42.8014 18.6973 42.7729 18.1891L42.7207 17.2654L42.5193 18.0571C42.3779 18.6125 42.2956 18.0611 42.2426 16.2097C42.201 14.7582 42.1284 14.0456 42.0812 14.6263C41.7176 19.1051 41.7387 19.0218 40.9794 18.9421C40.5929 18.9013 40.1202 18.9665 39.9291 19.0832C39.6931 19.2291 39.5354 19.1199 39.4368 18.7435C39.2587 18.0617 39.2183 18.0604 38.5619 18.715C37.9331 19.3439 37.4263 19.3862 36.9789 18.8471C36.7984 18.6293 36.4909 18.4512 36.296 18.4512C36.0265 18.4512 35.921 17.7712 35.8566 15.6141L35.7719 12.777L35.7156 15.746C35.6585 18.7779 35.449 19.288 34.7829 18.0166L34.4169 17.3181L34.2416 18.0166C34.0863 18.6359 33.6678 18.8673 32.9347 18.7395C32.8149 18.7191 32.3111 18.8133 31.8155 18.9503C31.32 19.0873 30.8624 19.1146 30.7987 19.0115C30.7351 18.9083 29.9326 18.8985 29.0157 18.9911C28.0988 19.0824 27.0097 19.0417 26.5954 18.901C26.0721 18.7232 25.401 18.7509 24.3975 18.9919C23.2075 19.2773 22.9154 19.2777 22.7396 18.9929C22.5928 18.7556 22.2489 18.7038 21.6395 18.8274C21.1518 18.9265 19.7436 18.9893 18.5103 18.9672C17.2768 18.9469 15.585 18.922 14.7506 18.9155L13.2336 18.9032L13.2298 18.0835C13.228 17.6327 13.1108 17.0857 12.9702 16.868C12.7872 16.5846 12.7134 16.8659 12.7105 17.8576C12.7065 19.4335 12.4627 19.5554 10.75 18.8396C9.87366 18.4735 9.69953 18.4764 8.86379 18.8723C8.18539 19.1944 7.61504 19.2608 6.69704 19.1255C6.01179 19.0243 4.57261 18.9204 3.49894 18.8939C1.81596 18.8527 1.51837 18.7732 1.34085 18.3183C1.14356 17.8127 1.13419 17.8148 1.11625 18.3685C1.1081 18.6865 0.980515 19.0192 0.837033 19.1078C0.667871 19.2122 0.550887 15.9088 0.504011 9.68841C0.463249 4.41921 0.431458 8.6588 0.431458 19.1098C0.431417 29.5608 0.464065 33.9253 0.504011 28.8087C0.550072 22.9122 0.671944 19.5057 0.837438 19.5057L0.844621 19.5147Z" fill="black"/>
</svg>
