<svg width="465" height="38" viewBox="0 0 465 38" fill="none" xmlns="http://www.w3.org/2000/svg">
<path d="M464.196 18.7899C464.164 8.37519 464.101 4.10409 464.061 9.29855C463.998 17.4048 463.932 18.7646 463.592 18.895C463.375 18.9786 463.05 18.9276 462.87 18.7813C462.684 18.63 462.09 18.5921 461.488 18.6936C460.908 18.7915 459.989 18.7547 459.446 18.612C458.735 18.4249 458.201 18.4457 457.535 18.6863C457.026 18.8701 456.493 18.948 456.349 18.8591C456.205 18.7702 454.903 18.6989 453.455 18.7009C452.007 18.7028 450.751 18.5896 450.665 18.4501C450.438 18.0836 450.109 18.1366 449.628 18.6178C449.173 19.0732 447.776 19.0222 446.068 18.4881C445.335 18.2585 445.036 18.2842 444.523 18.6202C443.895 19.0318 443.264 19.0251 440.742 18.579C440.214 18.4856 439.552 18.5325 439.27 18.6834C438.919 18.8718 438.152 18.8734 436.82 18.6874C435.419 18.4933 434.727 18.5015 434.325 18.716C433.937 18.9231 433.425 18.937 432.642 18.7613C432.024 18.6222 431.137 18.5774 430.673 18.6614C429.661 18.8449 429.227 18.8351 427.292 18.5839C426.288 18.4534 425.752 18.4873 425.628 18.6891C425.415 19.0328 423.715 19.0952 423.584 18.7641C423.536 18.6418 423.108 18.4665 422.633 18.3739C421.973 18.2451 421.648 18.3282 421.248 18.7278C420.629 19.3471 420.503 19.363 419.955 18.8905C419.33 18.3503 417.9 18.1429 417.737 18.5688C417.663 18.7621 417.294 18.9203 416.918 18.9203C416.395 18.9203 416.199 18.758 416.083 18.2275C415.831 17.0783 415.756 16.9718 415.734 17.7327C415.714 18.4801 415.36 18.6907 415.029 18.1543C414.926 17.9871 414.76 14.5133 414.662 10.4348L414.483 3.01944L414.434 10.4091C414.406 14.4733 414.29 17.9501 414.173 18.1352C413.847 18.6484 412.348 18.7489 411.888 18.2885C411.67 18.0712 411.482 17.5749 411.468 17.1861C411.448 16.5363 411.421 16.5538 411.16 17.403L410.876 18.3267L410.722 17.5597L410.568 16.7927L410.189 17.503C409.976 17.9005 409.657 18.1547 409.463 18.0803C409.273 18.0073 409.117 18.0518 409.117 18.1749C409.117 18.5015 408.394 18.7325 407.93 18.5541C407.593 18.4248 407.526 17.3129 407.478 11.1068L407.422 3.8114L407.281 11.1223C407.181 16.2693 407.045 18.5264 406.823 18.748C406.353 19.2176 404.915 18.5384 404.586 17.6917C404.439 17.3153 404.242 13.8006 404.147 9.88146C403.985 3.19939 403.964 2.96934 403.806 6.18665C403.713 8.07361 403.623 11.1172 403.607 12.9501C403.583 15.5633 403.492 16.3536 403.181 16.6113C402.838 16.8963 402.78 16.7348 402.741 15.39L402.697 13.8401L402.535 15.4236L402.373 17.0071L402.166 15.8195C402.051 15.1663 401.866 11.4253 401.754 7.50621L401.55 0.380577L401.5 8.69386C401.463 14.9721 401.378 16.8826 401.155 16.4983C400.993 16.2186 400.759 13.7945 400.636 11.1109C400.513 8.42758 400.353 6.17247 400.28 6.09948C400.207 6.0265 400.14 8.33209 400.132 11.223C400.12 15.6894 399.882 18.9503 399.606 18.4587C399.565 18.3861 399.457 14.942 399.365 10.8051L399.197 3.28361L399.114 10.9371C399.068 15.1465 398.977 18.3893 398.912 18.1433C398.844 17.8836 398.635 17.7573 398.415 17.8417C398.142 17.9465 398.031 17.776 398.017 17.2332C398.009 16.8185 397.897 16.2417 397.772 15.9514C397.601 15.553 397.541 15.7271 397.527 16.6616C397.502 18.3261 397.055 18.5137 396.849 16.9462C396.584 14.935 396.518 14.8129 396.452 16.2153C396.419 16.9411 396.305 17.8912 396.201 18.3266L396.011 19.1184L395.804 18.3803C395.691 17.9742 395.523 17.7179 395.432 17.8103C395.34 17.9029 395.126 17.5224 394.956 16.9648L394.647 15.9514L394.626 16.8532C394.585 18.6988 394.307 17.3616 394.102 14.3317L393.891 11.201L393.854 13.9145C393.807 17.2815 393.402 18.4586 392.291 18.4586C390.85 18.4586 390.635 17.3832 390.419 9.08968C390.272 3.4682 390.232 3.03488 390.056 5.23747C389.948 6.60243 389.858 9.37066 389.858 11.389C389.858 13.58 389.76 14.9978 389.613 14.9074C389.478 14.8242 389.324 15.0248 389.27 15.3537C389.153 16.066 388.873 11.4203 388.642 4.93721C388.55 2.35921 388.371 0.321258 388.243 0.400238C388.116 0.47934 387.986 2.58525 387.955 5.08056L387.898 9.61747L387.757 4.99899C387.568 -1.1694 387.229 0.247229 387.22 7.24228C387.211 12.9895 386.964 15.4225 386.669 12.6525C386.55 11.5415 386.496 11.944 386.436 14.3679C386.383 16.552 386.298 17.2482 386.164 16.6112C385.978 15.7272 385.968 15.7436 385.935 16.9941C385.873 19.3163 385.329 17.9335 384.935 14.4523C384.733 12.6642 384.52 11.0824 384.463 10.9373C384.406 10.7921 384.34 11.8016 384.318 13.1806C384.269 16.2713 383.947 18.359 383.657 17.4692C383.551 17.1426 383.359 16.8753 383.231 16.8753C383.103 16.8753 382.979 13.4152 382.956 9.15588C382.914 1.40332 382.631 1.65976 382.447 9.61766L382.367 13.0485L382.22 10.2775C382.043 6.95256 381.786 7.7629 381.55 12.3888C381.466 14.0581 381.323 15.8346 381.234 16.3367C380.873 18.3709 380.505 15.8885 380.355 10.4094L380.203 4.86728L380.15 11.3991C380.102 17.2473 379.94 18.7432 379.479 17.6011C379.406 17.4197 379.337 17.5314 379.326 17.8494C379.293 18.7572 378.839 18.8116 378.645 17.9309C378.549 17.4929 378.38 17.1906 378.269 17.2589C378.061 17.3878 377.766 11.1363 377.666 4.47133C377.625 1.85186 377.552 3.10081 377.428 8.43006C377.233 16.8488 377.083 18.5008 376.535 18.2906C376.346 18.2184 376.123 18.2702 376.038 18.4088C375.953 18.5462 375.348 18.5984 374.694 18.5246C373.965 18.4427 373.357 18.5124 373.122 18.7082C372.803 18.9732 372.712 18.8594 372.571 18.0164C372.306 16.4383 372.224 16.3795 372.202 17.7522C372.182 18.8832 372.137 18.9806 371.785 18.6288C371.568 18.411 371.373 17.7791 371.352 17.2244L371.316 16.2158L371.155 17.2715C370.858 19.2267 370.542 17.7358 370.38 13.6179C370.199 8.99711 369.883 10.0011 369.812 15.4241C369.783 17.4583 369.689 18.4023 369.543 18.0632C369.419 17.7729 369.299 17.6542 369.278 17.7994C369.258 17.9446 369.079 17.6478 368.884 17.1397L368.528 16.2159L368.469 17.4036C368.428 18.201 368.373 18.3575 368.3 17.8799C368.226 17.3928 368.072 17.2145 367.812 17.3143C367.604 17.3946 367.414 17.4175 367.392 17.3657C367.367 17.3139 367.273 15.4901 367.177 13.3128L367.004 9.35404L366.899 12.7849L366.794 16.2158L366.641 12.1252L366.489 8.03455L366.402 12.1252C366.348 14.6876 366.24 15.9201 366.114 15.4241C365.94 14.7384 365.902 14.8268 365.836 16.0839L365.759 17.5354L365.586 15.8199L365.413 14.1045L365.364 16.2158C365.327 17.6898 365.237 18.2077 365.059 17.9313C364.831 17.5794 364.8 17.5794 364.779 17.9313C364.766 18.149 364.598 17.8522 364.406 17.2715C364.065 16.2348 364.058 16.23 364.002 17.0076C363.953 17.7152 363.916 17.6731 363.655 16.6118L363.363 15.4242L363.221 16.7437C363.036 18.4728 362.412 18.5391 361.98 16.8758L361.671 15.6882L361.651 16.9418C361.631 18.1779 361.127 18.7551 361.076 17.6016C361.051 17.0346 361.039 17.0377 360.852 17.6676C360.718 18.1155 360.579 17.3528 360.42 15.2924L360.185 12.2574L360.014 14.2368C359.803 16.6856 359.439 18.0842 359.035 17.9975C358.866 17.9608 358.726 18.0799 358.724 18.2613C358.72 18.4811 358.635 18.4595 358.464 18.1952C358.258 17.8752 358.208 17.9139 358.205 18.3955C358.201 18.9358 358.145 18.9605 357.607 18.6593C357.281 18.4766 356.97 18.3033 356.917 18.2748C356.863 18.2462 356.727 17.8302 356.614 17.3511L356.408 16.48L356.379 17.5673L356.351 18.6548L355.304 18.6099C354.728 18.5854 354.171 18.4786 354.066 18.373C353.961 18.2678 353.825 17.0859 353.765 15.7472C353.61 12.2648 353.185 12.2056 353.185 15.6661C353.185 18.3908 353.16 18.5144 352.657 18.3826C352.287 18.286 352.128 18.3745 352.125 18.682C352.122 19.0232 352.072 19.0416 351.898 18.7655C351.755 18.5404 351.301 18.4446 350.648 18.5017L349.623 18.591L349.474 16.4797L349.324 14.3684L349.275 16.4137C349.221 18.7146 349.497 18.4983 346.542 18.5581C345.503 18.5785 344.785 18.4647 344.563 18.2425C344.274 17.9534 344.214 17.9929 344.214 18.4728C344.214 18.9368 344.142 18.9915 343.848 18.7477C343.572 18.5181 343.315 18.5197 342.801 18.7558C342.27 18.998 342.031 18.9932 341.719 18.7355C341.499 18.5528 341.151 18.4675 340.946 18.5466C340.467 18.7301 339.809 18.218 339.65 17.5387C339.561 17.1578 339.518 17.221 339.496 17.7649C339.476 18.3127 339.36 18.4783 339.078 18.3703C338.865 18.2887 338.62 18.3377 338.532 18.4783C338.445 18.6194 338.263 18.6667 338.128 18.5831C337.993 18.4995 337.882 18.5587 337.882 18.7108C337.882 18.8645 337.645 18.9901 337.355 18.9901C337.061 18.9901 336.827 18.8143 336.827 18.5941C336.827 18.3764 336.662 18.1982 336.459 18.1982C336.257 18.1982 336.02 18.0102 335.932 17.7807C335.844 17.5512 335.771 14.7672 335.771 11.5943C335.771 8.03307 335.67 5.76296 335.508 5.66229C335.335 5.55546 335.244 7.53996 335.244 11.4199C335.244 14.6762 335.17 17.7116 335.079 18.1652C334.899 19.065 334.35 19.262 334.067 18.5281C333.899 18.0928 333.874 18.094 333.619 18.5485C333.382 18.9712 333.296 18.9835 332.911 18.65C332.53 18.3198 332.257 18.323 330.798 18.6785C329.64 18.9603 328.989 19.0047 328.688 18.8229C328.431 18.6675 326.9 18.6076 324.954 18.6765C321.232 18.8082 320.488 18.8091 318.161 18.6847C316.609 18.6015 316.511 18.5579 316.491 17.9365C316.471 17.2806 316.467 17.2811 316.199 18.0197C315.987 18.6041 315.78 18.7507 315.231 18.7075C314.847 18.679 314.33 18.7401 314.083 18.8462C313.835 18.9526 313.109 18.9281 312.47 18.7919C311.831 18.6557 310.965 18.5958 310.546 18.6594C310.127 18.7226 309.576 18.767 309.322 18.7581C309.068 18.7499 308.326 18.7458 307.673 18.7543C305.823 18.7747 304.629 18.7421 303.058 18.6226C302.261 18.5623 301.489 18.59 301.343 18.683C301.197 18.7767 300.098 18.8636 298.901 18.8763C297.095 18.8967 296.721 18.8285 296.703 18.484C296.691 18.2556 296.627 18.2043 296.559 18.3703C296.468 18.5933 296.191 18.5965 295.494 18.3824C294.684 18.1337 294.504 18.1599 294.203 18.5721C293.919 18.9603 293.638 19.0183 292.716 18.8795C289.908 18.4561 289.046 18.4229 288.683 18.7238C288.307 19.0357 287.242 18.9835 284.424 18.515C283.43 18.3498 282.948 18.3817 282.602 18.6349C282.206 18.9244 282.08 18.9109 281.816 18.5501C281.602 18.2561 281.445 18.2137 281.32 18.4159C281.216 18.5843 280.816 18.6467 280.388 18.5611C279.961 18.4754 279.561 18.5366 279.457 18.7058C279.357 18.8681 279.136 18.9146 278.966 18.8094C278.445 18.4877 276.47 18.4163 276.287 18.7131C276.069 19.0654 274.911 19.0789 274.696 18.7335C274.466 18.3617 271.135 18.4469 271.125 18.8249C271.12 18.9904 270.982 18.8885 270.817 18.5982C270.653 18.3078 270.436 18.011 270.337 17.9384C270.238 17.8658 270.088 17.6281 270.006 17.4106C269.918 17.1798 269.846 17.3172 269.834 17.7404C269.81 18.5235 269.576 18.6507 269.075 18.1495C268.828 17.9032 268.758 17.9032 268.758 18.1505C268.758 18.5313 267.138 18.4632 266.849 18.0702C266.742 17.925 266.649 17.5093 266.642 17.1464L266.63 16.4867L266.253 17.1464L265.876 17.8063L265.863 17.1464C265.855 16.6919 265.782 16.5942 265.631 16.8325C265.339 17.2921 265.081 13.4922 265.008 7.6712L264.95 3.02722L264.816 6.85399L264.683 10.6808L264.535 6.19424C264.41 2.38167 264.379 2.96518 264.331 10.0787C264.282 17.396 264.225 18.4305 263.879 18.2977C263.662 18.2141 263.47 17.9508 263.453 17.7122C263.428 17.3591 263.399 17.3681 263.298 17.7599C263.225 18.0429 263.02 18.1821 262.801 18.0979C262.596 18.0192 262.428 18.0441 262.428 18.1529C262.428 18.2618 262.132 18.3755 261.769 18.4057C261.304 18.4424 261.103 18.325 261.088 18.0012C261.076 17.7207 260.963 17.8292 260.798 18.2814C260.541 18.9882 260.502 19.0025 259.905 18.6112C259.562 18.3861 259.099 18.2023 258.876 18.2023C258.59 18.2023 258.461 17.9116 258.436 17.2126L258.399 16.223L258.236 17.0911C258.026 18.2061 257.59 18.2061 257.389 17.0911L257.233 16.223L257.022 17.366C256.879 18.1404 256.739 18.3958 256.588 18.1578C256.408 17.8728 256.365 17.8715 256.362 18.1537C256.36 18.3437 256.239 18.4256 256.094 18.3359C255.949 18.2462 255.816 17.497 255.798 16.6709L255.765 15.169L255.538 16.7259C255.274 18.5369 255.047 18.9414 255.017 17.6541C255.005 17.1582 254.937 16.9306 254.865 17.1483C254.49 18.2703 254.386 18.2046 254.236 16.7524L254.071 15.1689L254.027 16.6771C253.99 17.8932 253.879 18.2407 253.45 18.4708C253.156 18.6278 252.808 18.6893 252.676 18.6078C252.544 18.5262 252.366 18.5711 252.28 18.7118C252.188 18.8606 251.81 18.7839 251.36 18.5254C250.432 17.9928 250.295 17.4088 250.27 13.8822C250.262 12.4125 250.15 10.9726 250.025 10.6822C249.882 10.3499 249.785 11.5234 249.761 13.8492C249.737 16.175 249.64 17.3484 249.498 17.0162C249.3 16.5571 249.265 16.5916 249.226 17.28C249.182 18.0611 249.178 18.0628 248.97 17.4121C248.854 17.0492 248.747 16.0624 248.732 15.2192C248.716 14.3281 248.602 13.7508 248.456 13.8406C248.315 13.9279 248.164 13.3893 248.11 12.6026C248.056 11.8367 247.991 12.7905 247.964 14.7225C247.931 16.9852 247.821 18.1769 247.651 18.0719C247.506 17.9822 247.387 18.0922 247.387 18.3202C247.387 18.6015 247.137 18.7317 246.596 18.7317C245.887 18.7317 245.8 18.6416 245.762 17.874L245.72 17.0162L245.612 17.8951C245.531 18.548 245.401 18.7347 245.105 18.6209C244.885 18.5365 244.597 18.4676 244.463 18.4676C244.33 18.4676 244.212 18.0814 244.2 17.6098C244.188 17.1381 244.12 16.9006 244.046 17.0821C243.755 17.8037 243.427 17.3454 243.385 16.1583C243.342 14.9299 243.338 14.9366 243.188 16.4882C243.056 17.8404 242.958 18.0718 242.51 18.0722C242.221 18.0724 241.946 18.2797 241.897 18.534C241.757 19.2619 241.322 19.0716 241.293 18.2698L241.268 17.5441L241.057 18.2038C240.9 18.6951 240.835 18.4257 240.801 17.1482C240.738 14.7289 240.31 13.861 240.28 16.0926C240.256 17.9897 239.924 18.9328 239.646 17.8962C239.556 17.5574 239.48 13.5491 239.478 8.98883C239.476 4.42866 239.386 0.78632 239.277 0.894861C239.168 1.00332 238.998 3.66566 238.9 6.81099C238.667 14.2259 238.387 18.0176 238.135 17.1482C237.966 16.5634 237.941 16.5958 237.918 17.4336C237.894 18.2721 237.789 18.4105 236.985 18.6573C236.224 18.891 236.05 18.8661 235.899 18.5036C235.789 18.239 235.676 18.1884 235.606 18.3736C235.449 18.7886 234.542 18.5134 234.307 17.9797C234.202 17.7399 234.034 16.5343 233.935 15.3005L233.754 13.0573L233.712 15.7404C233.669 18.4803 233.395 19.147 232.689 18.2268C232.457 17.923 232.366 17.9039 232.36 18.1567C232.343 18.7476 231.56 17.7909 231.56 17.1825C231.56 16.8906 231.441 16.578 231.296 16.4883C231.137 16.3901 231.032 16.7468 231.032 17.3882C231.032 18.2098 230.945 18.4177 230.648 18.3038C230.385 18.2031 230.235 17.644 230.171 16.5306L230.079 14.9048L230.028 16.658C229.974 18.5122 229.669 18.9464 228.844 18.3433C228.597 18.1618 228.386 17.7892 228.377 17.5149C228.365 17.1096 228.303 17.1402 228.056 17.676C227.783 18.2685 227.736 18.1473 227.592 16.4883L227.432 14.6409L227.385 16.5543C227.361 17.6228 227.222 18.4677 227.075 18.4677C226.905 18.4677 226.799 15.5219 226.779 10.2204C226.763 5.68438 226.658 2.32936 226.547 2.76479C226.436 3.20026 226.331 6.91855 226.314 11.0277C226.294 15.9335 226.192 18.4428 226.019 18.3357C225.874 18.246 225.755 17.8827 225.755 17.5284C225.755 16.5542 225.231 16.7561 225.201 17.7421C225.177 18.5547 225.164 18.5652 224.964 17.9398C224.761 17.3069 224.751 17.3042 224.726 17.8738C224.701 18.4254 224.418 18.606 223.779 18.4776C223.635 18.4491 223.322 18.4103 223.083 18.3924C222.724 18.3639 222.611 17.8601 222.425 15.4446L222.2 12.5294L222.048 14.7727C221.964 16.0065 221.873 16.63 221.847 16.1583C221.772 14.8533 221.312 15.135 221.2 16.5542C221.128 17.458 221.075 17.1818 221.007 15.5645L220.913 13.3212L220.74 15.1686C220.608 16.5809 220.517 16.8709 220.354 16.3999C220.041 15.4934 219.696 16.2009 219.691 17.7606C219.687 18.9364 219.654 19.0004 219.257 18.6032C219.008 18.3537 218.648 18.2472 218.4 18.3495C217.291 18.8067 216.919 18.6309 216.835 17.6098C216.731 16.3597 216.257 16.3055 216.257 17.5437C216.257 18.1712 216.13 18.4801 215.861 18.507C215.644 18.5274 215.317 18.5584 215.136 18.5731C214.925 18.5894 214.75 18.0733 214.651 17.1479L214.496 15.6964L214.453 17.1856C214.404 18.8793 214.244 19.0167 212.526 18.835C210.765 18.6487 210.721 18.6079 210.668 17.0903L210.619 15.6964L210.522 17.082C210.437 18.2954 210.353 18.4702 209.845 18.4895C209.526 18.5018 208.998 18.5413 208.672 18.5776C208.098 18.6412 208.076 18.5613 208.029 16.2464L207.98 13.8493L207.831 16.0295C207.749 17.2287 207.594 18.2085 207.485 18.2069C207.376 18.205 207.168 18.2031 207.023 18.2031C206.878 18.2031 206.759 18.3813 206.759 18.599C206.759 18.9232 206.335 19.1706 206.193 18.9289C206.173 18.8922 206.076 16.1907 205.979 12.9248L205.804 6.98676L205.754 12.5422C205.725 15.8206 205.595 18.2056 205.44 18.3612C205.295 18.5064 204.761 18.5766 204.253 18.517C203.396 18.4171 203.329 18.3429 203.329 17.4988C203.329 16.9591 203.222 16.6548 203.065 16.7515C202.92 16.8412 202.801 17.3303 202.801 17.8383C202.801 18.3463 202.691 18.6937 202.556 18.6102C202.421 18.5266 202.231 18.5857 202.134 18.7435C201.918 19.0933 200.983 18.3136 200.695 17.543C200.525 17.0866 200.473 17.1313 200.31 17.8729C200.206 18.3446 199.961 18.7306 199.765 18.7306C199.29 18.7306 198.58 17.9984 198.58 17.5086C198.58 17.2924 198.462 17.1893 198.317 17.279C198.171 17.3687 198.053 17.6761 198.053 17.9626C198.053 18.3934 197.894 18.4724 197.129 18.4209C196.501 18.3785 196.205 18.2284 196.202 17.9508C196.2 17.6996 196.073 17.7849 195.872 18.173C195.693 18.5196 195.457 18.7868 195.349 18.7668C195.24 18.7464 194.913 18.7301 194.623 18.7301C194.33 18.7301 194.095 18.5539 194.095 18.3342C194.095 18.1164 193.976 17.9383 193.832 17.9383C193.687 17.9383 193.568 18.0973 193.568 18.2918C193.568 18.525 193.276 18.6277 192.711 18.5943C192.24 18.5658 191.654 18.6689 191.408 18.8218C191.085 19.0237 190.782 19.0041 190.308 18.7501C189.704 18.4267 189.132 18.4414 187.566 18.8202C187.011 18.9544 186.969 18.8732 186.932 17.5933L186.892 16.2229L186.707 17.4105C186.548 18.4328 186.51 18.2675 186.433 16.2229L186.345 13.8477L186.196 16.091C186.061 18.13 185.999 18.3299 185.52 18.2866C185.23 18.2622 184.898 18.409 184.781 18.6165C184.441 19.2256 184.071 19.0513 184.042 18.2683C184.022 17.6587 183.989 17.6281 183.844 18.0775C183.662 18.6473 182.518 18.8216 182.16 18.3344C182.031 18.1582 181.965 18.1582 181.962 18.3344C181.958 18.5819 181.147 18.7209 179.781 18.7078C178.809 18.6997 172.686 18.7515 171.405 18.7804C170.752 18.7968 169.66 18.7152 168.979 18.6031C168.298 18.4909 167.526 18.4954 167.264 18.6112C166.539 18.937 165.073 18.9423 165.069 18.6194C165.067 18.462 164.953 18.5101 164.816 18.727C164.618 19.0406 164.501 19.054 164.24 18.7931C164.059 18.6129 163.588 18.4653 163.193 18.4653C162.729 18.4653 162.43 18.3009 162.353 18.0034C162.277 17.713 162.221 17.8052 162.201 18.252C162.177 18.8255 162.064 18.9421 161.616 18.8559C161.311 18.7971 160.916 18.6283 160.738 18.4803C160.523 18.3013 160.114 18.2981 159.514 18.4722C158.186 18.853 157.422 18.7971 157.422 18.3192C157.422 18.0929 157.303 17.9812 157.158 18.0709C156.998 18.1696 156.877 17.7346 156.851 16.9649L156.808 15.6957L156.653 17.1473L156.499 18.5988L154.957 18.5209C154.056 18.4752 153.261 18.571 153.044 18.7508C152.762 18.9853 152.495 18.9849 151.925 18.749C151.513 18.5785 151.067 18.4591 150.935 18.4844C149.921 18.676 149.771 18.4721 149.72 16.8179L149.669 15.1685L149.576 16.8041C149.499 18.1488 149.391 18.4687 148.966 18.6035C148.658 18.7014 148.282 18.5997 148.034 18.3511C147.805 18.1219 147.508 18.0021 147.375 18.0849C147.242 18.1672 147.119 17.7823 147.103 17.2296C147.074 16.2817 147.055 16.3072 146.764 17.6758C146.537 18.7402 146.404 18.9969 146.264 18.6381C146.15 18.3462 145.915 18.2095 145.682 18.2989C145.413 18.4021 145.241 18.2251 145.133 17.7325C144.864 16.5097 144.8 16.4559 144.778 17.434C144.75 18.7899 144.412 18.9436 144.052 17.7655L143.743 16.7519L143.722 17.6097C143.702 18.4541 143.275 18.7823 143.035 18.1375C142.967 17.9561 142.81 16.4418 142.685 14.7726L142.458 11.7376L142.397 13.8489C142.365 15.0101 142.244 16.554 142.131 17.2798C141.948 18.4592 141.92 18.5012 141.871 17.6757L141.815 16.752L141.487 17.6602C141.048 18.8754 140.814 18.2581 140.758 15.7407L140.716 13.849L140.554 16.0922C140.379 18.5129 140.139 19.2313 139.662 18.7543C139.504 18.5965 138.996 18.4673 138.533 18.4673C138.043 18.4673 137.629 18.3083 137.544 18.0869C137.464 17.8777 137.303 13.9289 137.186 9.31174L136.974 0.916948L136.811 6.98694C136.721 10.3255 136.632 14.3534 136.613 15.938C136.581 18.8225 136.434 19.2542 136.047 17.6229L135.841 16.7517L135.796 17.5435C135.755 18.2323 135.721 18.2666 135.523 17.8073C135.329 17.356 135.294 17.3464 135.278 17.7412C135.249 18.501 134.731 18.2634 134.56 17.4114C134.357 16.3948 133.94 16.3844 133.94 17.3951C133.94 19.1362 133.219 18.3478 133.109 16.487C133.085 16.0416 132.99 16.3304 132.896 17.1468C132.746 18.461 132.711 18.5234 132.53 17.8065C131.922 15.3974 131.885 15.3557 131.836 17.0148L131.789 18.5983L131.434 17.6746C131.238 17.1666 131.047 16.2164 131.01 15.5633C130.961 14.7174 130.898 14.9832 130.79 16.487L130.64 18.5983L130.345 16.8828L130.05 15.1674L130.018 16.5529C129.997 17.315 129.934 17.9385 129.874 17.9385C129.268 17.9385 128.923 17.4899 128.889 16.6567C128.848 15.714 128.846 15.7184 128.665 16.883C128.486 18.0368 128.479 18.0444 128.413 17.1468L128.345 16.223L128.094 17.3447C127.816 18.5863 127.454 18.7767 127.09 17.8725C126.908 17.4176 126.848 17.3867 126.835 17.7404C126.811 18.3727 126.141 18.3219 125.672 17.6523C125.295 17.1146 125.283 17.1206 125.105 17.9304C124.857 19.0624 124.4 18.8163 123.862 17.2612L123.412 15.959L123.4 17.3445C123.391 18.3474 123.287 18.7301 123.021 18.7301C122.516 18.7301 122.333 18.1394 122.333 16.5181C122.333 15.7606 122.223 15.028 122.088 14.8902C121.953 14.7523 121.794 14.2238 121.734 13.7158C121.675 13.2077 121.607 13.9103 121.584 15.2773C121.503 20.0239 121.145 17.3298 120.996 10.8567L120.846 4.34684L120.798 11.4065C120.77 15.6005 120.649 18.4662 120.502 18.4662C120.366 18.4662 120.208 18.0208 120.151 17.4765L120.047 16.4869L120.003 17.6304C119.974 18.4133 119.854 18.7398 119.629 18.6653C119.275 18.5487 119.267 18.452 118.93 10.4168L118.72 5.40247L118.679 11.9499C118.638 18.3408 118.479 19.419 117.875 17.3316L117.631 16.4869L117.607 17.4765C117.582 18.4401 117.234 18.8002 116.966 18.1363C116.886 17.9373 116.825 17.9875 116.812 18.2631C116.796 18.6509 116.612 18.6953 115.604 18.5571C114.798 18.4466 114.417 18.4906 114.417 18.6941C114.417 19.0941 113.75 19.0757 113.314 18.6655C113.123 18.4841 112.817 18.3239 112.636 18.3092C112.454 18.2929 112.187 18.2648 112.042 18.2431C111.897 18.2228 111.764 17.6988 111.747 17.0819C111.719 16.0292 111.703 16.0089 111.514 16.752C111.355 17.38 111.296 17.1617 111.233 15.6964L111.153 13.849L111.004 15.3005C110.922 16.0988 110.793 13.011 110.717 8.43871L110.58 0.125488L110.48 9.36244L110.379 18.5994L110.064 15.0366L109.748 11.4737L109.707 15.2749C109.667 19.0148 109.659 19.0669 109.175 18.5078C108.596 17.84 108.348 17.7884 108.348 18.3354C108.348 18.5531 108.229 18.7313 108.084 18.7313C107.939 18.7313 107.821 18.5678 107.821 18.3676C107.821 18.1678 107.649 17.8621 107.441 17.6885C107.232 17.5148 107.012 17.055 106.952 16.6665C106.873 16.149 106.831 16.2424 106.796 17.0155C106.754 17.9486 106.708 18.018 106.401 17.6134C105.985 17.0656 105.71 17.2689 105.71 18.1234C105.71 18.7793 104.894 19.3164 104.714 18.7785C104.657 18.6072 104.442 18.4669 104.237 18.4669C104.007 18.4669 103.859 18.1864 103.852 17.7412L103.84 17.0154L103.446 17.7412C103.23 18.1404 102.968 18.4769 102.863 18.489C101.368 18.6627 101.491 18.9021 101.434 15.7177L101.382 12.7928L101.236 15.6959L101.091 18.5989L99.6102 18.669C98.6352 18.7155 98.0309 18.6209 97.8419 18.3934C97.6838 18.203 97.5134 17.162 97.4629 16.0799L97.3707 14.1123L97.3182 16.4216C97.2896 17.7502 97.1535 18.7308 97.0018 18.7308C96.8567 18.7308 96.7361 18.5228 96.734 18.2689C96.7303 17.8742 96.6929 17.8644 96.4744 18.2028C96.2469 18.5547 96.2176 18.5547 96.2106 18.2028C96.2025 17.8509 96.174 17.8509 95.9469 18.2028C95.7284 18.5413 95.6905 18.5315 95.6873 18.1368C95.6854 17.8828 95.5646 17.675 95.4195 17.675C95.2743 17.675 95.1557 17.8532 95.1557 18.0709C95.1557 18.6766 94.688 18.5416 94.4699 17.8728C94.2918 17.3261 94.2571 17.3509 94.0362 18.1855C93.8544 18.8728 93.7382 19.0004 93.5566 18.7133C93.3511 18.3883 93.3152 18.3907 93.3034 18.7296C93.2953 18.9693 93.1412 18.8649 92.9129 18.4658C92.7054 18.1029 92.5229 17.0935 92.507 16.2225C92.4906 15.3516 92.383 14.1046 92.2669 13.4515L92.0557 12.2638L92.0231 13.7426C92.0027 14.5559 91.9139 15.9519 91.8205 16.8446C91.6819 18.171 91.5853 18.4135 91.2929 18.1706C91.0858 17.9985 90.9215 17.3028 90.9036 16.5201C90.8396 13.7474 90.4705 13.5133 90.4343 16.2225C90.414 17.674 90.312 18.7371 90.2052 18.585C89.9386 18.205 88.8241 18.1644 88.8241 18.5349C88.8241 18.7441 88.7243 18.7351 88.4944 18.5063C88.313 18.3253 88.0949 17.3218 88.0094 16.2763L87.8541 14.3753L87.793 16.6185C87.751 18.1483 87.6597 18.6939 87.5052 18.334C87.2944 17.8429 87.2773 17.8504 87.2598 18.4408C87.2394 19.0587 87.2272 19.0628 86.7136 18.5978C86.4144 18.327 86.1859 18.252 86.1859 18.4249C86.1859 18.5925 86.0078 18.7299 85.7901 18.7299C85.526 18.7299 85.3841 18.4449 85.3638 17.8721C85.3434 17.3477 85.288 17.2196 85.2166 17.5423C84.9594 18.7046 84.8808 18.8061 84.4893 18.4811C84.1983 18.2393 84.0627 18.2715 83.8617 18.6311C83.6216 19.0603 83.5771 19.0612 83.1619 18.6474C82.9182 18.4036 82.6265 18.2039 82.5139 18.2039C82.4014 18.2039 82.1804 17.9368 82.0229 17.6101L81.7368 17.0163L81.7164 17.6257C81.7083 17.9613 81.5803 18.1618 81.4347 18.072C81.2896 17.9823 81.169 18.0638 81.1669 18.2542C81.1632 18.5054 81.0928 18.4915 80.9073 18.2036C80.6798 17.8518 80.6489 17.8518 80.626 18.2036C80.6138 18.4214 80.4373 18.2444 80.238 17.8078L79.8756 17.016L79.8634 17.8455C79.8512 18.7774 79.1115 19.2858 78.7388 18.6197C78.5701 18.318 78.3602 18.282 77.8649 18.4704C77.5062 18.6066 77.1986 18.6914 77.1809 18.6588C77.1646 18.6262 77.0652 16.9367 76.9629 14.9046L76.777 11.2098L76.7 15.1685C76.6258 18.9735 76.6095 19.076 76.2837 17.8077C75.9528 16.5193 75.9442 16.5108 75.9193 17.4456C75.8908 18.5557 75.2157 19.3359 74.8226 18.7145C74.6909 18.5061 74.5621 17.8606 74.5364 17.28L74.4904 16.2243L74.3791 17.1457C74.2523 18.197 73.7417 18.6756 73.472 17.996C73.3404 17.6637 73.2878 17.7363 73.2739 18.2696C73.2617 18.7117 73.1088 18.9954 72.881 18.9954C72.1776 18.9954 70.8843 18.0726 70.8466 17.5439C70.814 17.0849 70.7941 17.0935 70.6946 17.61C70.6318 17.9366 70.4786 18.2038 70.3542 18.2038C70.2299 18.2038 70.0783 18.4117 70.0171 18.6656C69.9238 19.0538 69.8655 19.0289 69.6535 18.5102C69.4277 17.958 69.3645 17.9373 69.0534 18.3125C68.4908 18.9906 68.2426 18.8005 68.2426 17.6915C68.2426 17.1194 68.124 16.578 67.9789 16.4883C67.8179 16.3884 67.7152 16.7933 67.7152 17.5283C67.7152 18.8651 67.4694 19.0122 66.6701 18.154C66.25 17.7029 66.1322 17.6673 66.1322 17.9913C66.1322 18.2196 65.8941 18.4684 65.6034 18.5445C65.0264 18.6953 64.8951 18.3862 64.7298 16.4883C64.6695 15.7944 64.612 16.0657 64.5623 17.2801C64.5024 18.7406 64.4445 18.9617 64.2855 18.3357C64.1747 17.9003 64.0699 17.7518 64.0528 18.0059C64.0365 18.2599 63.9325 18.4776 63.8237 18.4897C63.7149 18.5019 63.3633 18.5411 63.0425 18.5769C62.595 18.6267 62.3679 18.4224 62.0667 17.6973C61.7178 16.8567 61.6722 16.8253 61.6566 17.4122C61.6322 18.3263 61.3179 18.7537 60.8725 18.4784C60.672 18.3544 60.3313 18.3206 60.1158 18.4034C59.4084 18.6749 59.0097 17.6749 58.9902 15.5805C58.9657 12.8178 58.5239 13.9551 58.4996 16.8468C58.4833 18.7451 58.423 19.03 58.0637 18.8921C57.8343 18.8041 57.5374 18.7319 57.4042 18.7319C57.2709 18.7319 57.1535 18.524 57.1433 18.27C57.127 17.8376 57.1148 17.8381 56.9387 18.2782C56.7642 18.7199 56.7165 18.7152 56.1657 18.2019C55.7744 17.8374 55.5672 17.7683 55.544 17.9952C55.5236 18.1824 55.4217 17.9198 55.3149 17.4117L55.1205 16.4879L55.0838 17.5436L55.0471 18.5993L52.4379 18.5911C49.5289 18.5789 49.0696 18.3819 48.9045 17.0635C48.8348 16.5077 48.7855 16.6888 48.7573 17.6011L48.7154 18.9768L47.3524 18.8431C45.6812 18.6792 45.5493 18.6025 45.5493 17.7932C45.5493 17.4389 45.4393 17.149 45.3048 17.149C45.1703 17.149 45.006 16.941 44.9396 16.6871C44.8731 16.4331 44.7912 16.641 44.7569 17.149L44.695 18.0727L44.4936 17.281C44.2959 16.5044 44.2914 16.5087 44.2609 17.5097C44.2323 18.394 44.159 18.5117 43.7013 18.3919C43.376 18.3067 43.072 18.4205 42.9101 18.6912C42.6696 19.0908 42.6129 19.0843 42.2501 18.615C41.9664 18.2476 41.7721 18.1824 41.5687 18.3858C41.3653 18.5893 41.0648 18.5876 40.5143 18.3817C39.8518 18.1313 39.7385 17.9428 39.7015 17.0273C39.6648 16.0913 39.6399 16.1379 39.5038 17.415C39.3383 18.9668 39.4308 18.9021 37.7659 18.6308C37.6208 18.6064 37.3537 18.4951 37.1723 18.3817C36.9909 18.2683 36.8426 18.2851 36.8426 18.4184C36.8426 18.5521 36.5764 18.6484 36.2514 18.6321C35.8187 18.6117 35.615 18.3903 35.4911 17.8104L35.322 17.0187L35.2894 17.8104C35.2608 18.5232 35.165 18.6069 34.3348 18.6494C33.6355 18.6861 33.4075 18.5894 33.3917 18.2534C33.3795 17.979 33.3204 17.9358 33.238 18.1401C33.0028 18.723 32.6224 18.4924 32.5853 17.7442L32.5486 17.0184L32.3888 17.6782C32.2947 18.0663 32.1675 17.361 32.079 15.9628L31.9286 13.5875L31.8789 16.1445L31.8292 18.7015L30.9717 18.6518C29.5262 18.5678 29.4795 18.306 29.4109 9.89278L29.3485 2.2393L29.1818 9.89278C29.0901 14.1022 28.892 17.9026 28.7415 18.3381L28.468 19.1298L28.2907 18.47C28.1932 18.1071 28.0163 16.6226 27.8977 15.1711L27.6817 12.532L27.6136 15.435C27.5068 19.986 27.1545 17.5311 27.0644 11.6082L26.9862 6.4619L26.8317 12.4479C26.7465 15.7401 26.6161 18.4949 26.5415 18.5695C26.4669 18.6441 26.2472 18.6062 26.0533 18.4872C25.8319 18.3502 25.6111 17.3497 25.4596 15.7964C25.1221 12.3337 25.0148 12.334 24.9908 15.7973L24.9704 18.7995L24.1573 18.6368C23.7101 18.5475 23.1159 18.596 22.8368 18.7457C22.4708 18.9418 22.0088 18.9083 21.1794 18.627C20.5469 18.4121 19.7758 18.3028 19.4658 18.3839C19.0445 18.494 18.8945 18.4085 18.8717 18.0386C18.8431 17.5962 18.8289 17.5931 18.7204 18.0101C18.5553 18.6423 18.1108 18.5942 18.1108 17.944C18.1108 17.6537 17.9922 17.4162 17.8471 17.4162C17.7019 17.4162 17.5813 17.6242 17.5793 17.8781C17.5755 18.2728 17.5381 18.2825 17.3196 17.9441C17.1488 17.6803 17.0624 17.6583 17.0599 17.8781C17.0559 18.3075 16.0847 18.3075 15.9115 17.8781C15.832 17.6811 15.77 17.7341 15.7574 18.0101C15.7329 18.5714 14.9451 18.6354 14.9451 18.0762C14.9451 17.8585 14.8265 17.6803 14.6814 17.6803C14.531 17.6803 14.3952 16.7438 14.3655 15.503C14.3137 13.3486 14.3117 13.3562 14.1653 16.2288C14.0104 19.266 13.8087 19.4153 13.4519 16.7566L13.2395 15.1731L13.1531 16.4927C13.1058 17.2185 12.9554 17.9251 12.8189 18.063C12.6628 18.2208 12.571 18.1844 12.571 17.9647C12.571 17.6768 12.4981 17.6764 12.1552 17.9609C11.8103 18.2472 11.6983 18.2415 11.4997 17.9283C11.3113 17.6303 11.2592 17.667 11.2559 18.0992C11.2518 18.8326 10.9828 19.0614 10.5506 18.7024C10.3558 18.5409 10.1964 18.4968 10.1964 18.6049C10.1964 18.7129 10.0183 18.6538 9.80059 18.4728C9.57517 18.2856 9.40479 17.7103 9.40479 17.1365C9.40479 16.5822 9.28576 16.0553 9.14106 15.9656C8.97719 15.8645 8.87732 16.3558 8.87732 17.2613C8.87732 18.4251 8.80029 18.6905 8.49621 18.5738C8.28669 18.4934 7.99903 18.111 7.85742 17.7243C7.64097 17.1333 7.59165 17.1053 7.54599 17.549C7.3589 19.3851 7.06045 14.6875 7.00987 9.10375C6.9691 4.64246 6.88758 3.06139 6.75714 4.22134C6.65116 5.16482 6.55047 8.71776 6.53335 12.1167C6.51705 15.5157 6.42126 18.2154 6.3218 18.1161C6.22234 18.0166 5.99489 17.2547 5.81623 16.4226L5.49135 14.9099L5.47097 16.7353C5.43428 19.9243 5.05883 18.3152 4.9045 14.2948L4.75573 10.4234L4.7064 14.1841C4.66523 17.3291 4.59227 17.9449 4.26141 17.9449C4.04374 17.9449 3.86561 17.7667 3.86561 17.5489C3.86561 16.7787 3.39419 17.1661 3.22344 18.0768C3.04001 19.0547 2.70743 19.273 2.4446 18.5879C2.35778 18.3608 2.16661 18.2491 2.02064 18.3396C1.87431 18.4301 1.75487 18.364 1.75487 18.1919C1.75487 17.9595 1.65419 17.9641 1.35908 18.2083C1.14141 18.3889 0.971844 18.9083 0.982034 19.3622C0.998339 20.0625 1.03502 20.1076 1.22742 19.6599C1.44713 19.1484 1.45487 19.1479 1.47281 19.6436C1.48911 20.1186 1.51519 20.123 1.82131 19.7043C2.12377 19.2905 2.2004 19.2876 2.74473 19.6677C3.09569 19.9135 3.34691 20.3736 3.35947 20.7942C3.37577 21.3295 3.45689 21.2118 3.68924 20.3174C4.23239 18.2268 4.51886 18.9602 4.66874 22.8246L4.81222 26.5194L4.87092 22.9566C4.93777 18.9026 5.41602 18.5908 5.47831 22.5607L5.51499 24.9359L5.83416 23.0217C6.00984 21.9689 6.23241 21.0288 6.32865 20.9324C6.42484 20.8362 6.51779 23.8945 6.53491 27.7289C6.55121 31.5634 6.65678 34.3444 6.76765 33.909C6.87852 33.4735 6.98451 30.5044 7.00326 27.3111C7.03994 21.238 7.21563 18.9911 7.58408 19.9329C7.76587 20.398 7.78789 20.3863 7.8046 19.8147C7.82498 19.1968 7.8372 19.1927 8.3508 19.6577C8.76498 20.0324 8.87847 20.4706 8.87847 21.6935C8.87847 22.6651 8.97792 23.1903 9.14219 23.0886C9.2873 22.9989 9.41449 22.2496 9.42468 21.4235C9.44913 19.567 9.66558 18.933 10.1738 19.2471C10.3784 19.3735 10.7047 19.4159 10.8992 19.3413C11.1291 19.2528 11.2637 19.4228 11.2836 19.8275C11.3081 20.3132 11.3419 20.343 11.4397 19.9633C11.5237 19.6367 11.7304 19.5202 12.0687 19.6086C12.3488 19.6819 12.5742 19.6048 12.5764 19.4353C12.5845 18.6985 13.0923 20.0081 13.096 20.7795C13.0979 21.2513 13.2187 21.6373 13.3638 21.6373C13.5089 21.6373 13.6275 21.1622 13.6275 20.5816C13.6275 20.001 13.7461 19.5259 13.8912 19.5259C14.0474 19.5259 14.177 20.6834 14.2088 22.3631C14.2618 25.1638 14.2638 25.1714 14.3523 22.9583C14.4016 21.7253 14.5557 20.6031 14.6943 20.4643C14.8328 20.3257 14.9462 19.9245 14.9462 19.5728C14.9462 19.0462 15.0134 18.9891 15.3265 19.2491C15.5356 19.4228 15.7552 19.8825 15.8146 20.271C15.8982 20.816 15.9316 20.7512 15.9622 19.9876C15.9988 19.0692 16.5294 18.5138 16.5294 19.3938C16.5294 19.6116 16.648 19.7898 16.7931 19.7898C16.9382 19.7898 17.0568 19.9749 17.0568 20.2012C17.0568 20.4275 17.1758 20.5392 17.3205 20.4495C17.4657 20.3598 17.5965 20.5013 17.6116 20.7639C17.6279 21.0265 17.7571 20.7965 17.9018 20.2516C18.1933 19.1542 18.6201 18.9359 18.6758 19.8557C18.7124 20.4486 18.7124 20.4485 18.8237 19.8761C18.9081 19.4416 19.1164 19.3055 19.6732 19.3214C20.0788 19.3336 20.5366 19.2647 20.6904 19.1697C20.8445 19.0743 21.2847 19.1162 21.6691 19.2626C22.143 19.4429 22.5325 19.4404 22.8785 19.2545C23.26 19.0502 23.3899 19.0669 23.3929 19.3206C23.3967 19.5803 23.4447 19.5848 23.6004 19.341C23.7145 19.1607 24.059 19.0878 24.3878 19.1738C24.9419 19.3185 24.9738 19.4714 25.0052 22.1329L25.0378 24.9392L25.3464 22.6959C25.6476 20.5061 26.1599 19.0463 26.5057 19.3922C26.6002 19.4868 26.7478 21.8427 26.8338 24.6271L26.9895 29.6896L27.0621 25.2031C27.1412 20.3233 27.5129 17.8512 27.6177 21.5083L27.6785 23.6196L27.9051 21.6653C28.0298 20.5905 28.1892 19.6536 28.2593 19.5834C28.3299 19.5133 28.5332 19.7987 28.7122 20.2181C28.9254 20.7177 29.0921 23.3004 29.1956 27.7102L29.3537 34.44L29.4283 28.2381C29.4695 24.827 29.582 21.4477 29.6778 20.7285C29.849 19.4475 29.8726 19.419 30.842 19.3252L31.8313 19.2294L31.8831 22.0842L31.9349 24.939L32.0955 22.168C32.1839 20.6439 32.2887 19.6938 32.3286 20.0567C32.3735 20.4669 32.4509 20.5667 32.5333 20.3205C32.6058 20.1028 32.7216 19.7498 32.7905 19.5361C32.9005 19.194 32.945 19.194 33.1614 19.5361C33.2988 19.7535 33.4088 19.791 33.4113 19.6209C33.4131 19.4505 33.8211 19.3176 34.3387 19.3176C35.0966 19.3176 35.2686 19.4191 35.298 19.885C35.3347 20.4442 35.3347 20.4439 35.4477 19.8646C35.552 19.3232 35.7032 19.2789 37.3904 19.2947L39.2198 19.311L39.2524 21.7283C39.281 23.8116 39.3148 23.9815 39.4966 22.9579C39.6128 22.3048 39.7167 21.2626 39.7273 20.6422C39.7436 19.69 39.85 19.4748 40.4075 19.2628C40.855 19.0923 41.2869 19.1114 41.7462 19.3206C42.2221 19.5375 42.5561 19.5481 42.8665 19.3573C43.6023 18.9023 43.9666 19.2415 43.9945 20.4079C44.0149 21.3328 44.0528 21.4027 44.222 20.8478C44.4034 20.2526 44.4352 20.2915 44.5473 21.2437L44.6712 22.2994L44.7156 21.1622C44.7401 20.5039 44.8676 20.0916 45.016 20.1833C45.157 20.2701 45.3442 20.0544 45.4322 19.7034C45.5753 19.133 45.6854 19.0863 46.47 19.2633C46.9526 19.3721 47.6558 19.4276 48.0325 19.386L48.7174 19.311L48.7602 21.8609L48.803 24.4108L49.0036 22.5634C49.1136 21.5474 49.2848 20.3397 49.3835 19.8796L49.5628 19.0433L51.7032 19.1575C52.8805 19.2207 53.9579 19.3862 54.0974 19.5257C54.2597 19.688 54.4769 19.6753 54.7004 19.489C54.9841 19.2533 55.0583 19.5632 55.0954 21.1447L55.141 23.0903L55.3139 21.375C55.4088 20.4315 55.5164 19.9564 55.5531 20.3193C55.6232 21.0183 55.6934 20.9119 55.963 19.6958C56.1248 18.965 56.1472 18.9557 56.6457 19.4068C56.942 19.6751 57.1609 19.7436 57.1609 19.5682C57.1609 19.4007 57.4576 19.2633 57.8205 19.2633H58.48L58.5086 23.156C58.5575 29.8142 58.8791 30.9419 59.0276 24.9754C59.1425 20.3545 59.213 19.6947 59.6258 19.3928C59.883 19.2045 60.2946 19.0895 60.5401 19.1368C60.7855 19.1841 61.0682 19.2322 61.1683 19.2432C61.2686 19.2555 61.3872 19.7088 61.432 20.2531C61.5372 21.5236 61.9554 21.5236 62.2557 20.2531C62.3845 19.7088 62.6462 19.2634 62.8377 19.2634C63.5572 19.2634 64.0213 19.6022 64.0516 20.1493C64.076 20.5742 64.1327 20.518 64.2843 19.9231C64.4331 19.3382 64.5052 19.7175 64.5607 21.3746L64.6353 23.6179L64.7893 21.5623C64.9516 19.4011 65.4204 18.5891 66.0336 19.4079C66.2916 19.7524 66.3519 19.7545 66.4792 19.4242C66.5701 19.1873 66.8338 19.0956 67.17 19.1832C67.6234 19.3019 67.7198 19.5506 67.7501 20.6802L67.7868 22.035L68.0615 20.7647C68.3065 19.6326 68.4006 19.5105 68.9267 19.6426C69.2715 19.7291 69.5811 19.6548 69.6709 19.4612C69.7899 19.2063 69.8617 19.2133 69.9884 19.4897C70.1266 19.7935 70.1878 19.7935 70.3802 19.4897C70.5452 19.2292 70.6166 19.312 70.6382 19.7899L70.6667 20.4496L70.8518 19.7899C71.0364 19.131 71.1546 19.102 72.7909 19.3144C73.0876 19.3511 73.259 19.6133 73.2705 20.0439L73.2908 20.7135L73.577 20.1197C74.0415 19.1564 74.2779 19.4286 74.3792 21.0435L74.4746 22.5609L74.5243 20.9114C74.5716 19.3413 74.6058 19.262 75.2338 19.262C75.7971 19.262 75.8968 19.3872 75.9171 20.1197L75.9416 20.9774L76.2477 20.0538C76.5123 19.2555 76.573 19.7394 76.6953 23.6166L76.8372 28.1031L76.8971 24.2764C76.9297 22.1717 77.0263 20.1907 77.1111 19.8741C77.2705 19.2799 78.067 18.7888 78.2042 19.2002C78.2466 19.3283 78.6349 19.3809 79.0667 19.3173C79.7787 19.2125 79.8533 19.2724 79.8684 19.9577C79.8847 20.6544 79.9051 20.6687 80.1159 20.1408C80.2549 19.7955 80.5367 19.5972 80.8247 19.6416C81.0876 19.6824 81.3899 19.5832 81.4965 19.4226C81.6033 19.2619 81.7043 19.6053 81.7215 20.1857L81.7541 21.2414L81.9603 20.3703C82.2 19.3576 82.4453 19.0393 82.7038 19.405C82.9366 19.734 84.3384 19.8139 84.3384 19.4979C84.3384 19.3683 84.4574 19.2618 84.6021 19.2618C84.7473 19.2618 84.8801 19.7665 84.8977 20.3835L84.9303 21.5051L85.1997 20.3835C85.4492 19.3462 85.5344 19.2618 86.3364 19.2618C87.2705 19.2618 87.1796 19.0661 87.8676 22.5607C87.9247 22.8511 87.9854 22.2345 88.0021 21.1908C88.0184 20.147 88.1306 19.2327 88.2496 19.159C88.3686 19.0852 88.6759 19.2698 88.9321 19.569C89.2741 19.9686 89.4759 20.0352 89.6915 19.8194C90.2817 19.2291 90.4078 19.5711 90.4346 21.835C90.4549 23.6797 90.5067 23.9583 90.684 23.2205C90.8063 22.7124 90.9804 21.6139 91.0717 20.7793C91.1626 19.9446 91.3301 19.2618 91.4438 19.2618C91.6407 19.2618 91.9391 21.6181 92.0287 23.8803C92.0531 24.4609 92.2011 23.6373 92.3605 22.0501C92.6364 19.3008 92.6723 19.1862 93.112 19.6278C93.366 19.8826 93.5738 19.9642 93.5738 19.8084C93.5738 19.3243 94.1008 19.4993 94.1133 19.9874C94.1215 20.2757 94.2576 20.1513 94.4773 19.6575C94.7981 18.9361 94.8462 18.9127 95.0184 19.3937C95.1223 19.684 95.2715 20.0997 95.3502 20.3174C95.4594 20.6195 95.5312 20.582 95.6547 20.1576C95.7525 19.8208 95.9983 19.6296 96.2779 19.6724C96.5319 19.7132 96.7397 19.6357 96.7397 19.5024C96.7397 19.3698 96.8583 19.2618 97.0034 19.2618C97.1562 19.2618 97.2895 20.2873 97.3209 21.703L97.3747 24.1442L97.4632 21.9906C97.5149 20.7288 97.6841 19.7282 97.8712 19.5741C98.1765 19.3229 99.3578 19.1778 100.631 19.2353C101.207 19.2597 101.226 19.3535 101.28 22.2311L101.336 25.2L101.416 22.429C101.507 19.294 101.616 18.7565 102.071 19.2115C102.291 19.4313 102.467 19.4346 102.722 19.2238C102.996 18.9963 103.107 19.1109 103.236 19.7536C103.41 20.6232 103.863 20.6385 103.863 19.774C103.863 19.1607 104.261 19.1285 105.278 19.6594C106.214 20.1478 106.237 20.1474 106.237 19.6431C106.237 18.7725 106.767 19.6105 106.8 20.532L106.837 21.5061L107 20.6114C107.187 19.5864 108.245 18.9457 108.529 19.6856C108.646 19.9898 108.74 20.0142 108.885 19.779C109.431 18.8964 109.672 20.0049 109.708 23.567C109.741 26.5795 109.785 27.0024 109.944 25.7288C110.052 24.8578 110.18 23.2545 110.229 22.1659C110.278 21.0772 110.382 23.8088 110.461 28.2359L110.605 36.2853L110.702 28.6318C110.756 24.4094 110.884 21.4516 110.989 22.034L111.178 23.0896L111.246 21.6381C111.306 20.3875 111.343 20.2961 111.517 20.9783C111.701 21.7041 111.721 21.6712 111.753 20.5824C111.778 19.7109 111.857 19.5001 112.045 19.7906C112.263 20.129 112.301 20.1192 112.304 19.7245C112.308 19.2059 112.834 19.0766 112.84 19.5924C112.844 19.8196 112.904 19.8322 113.038 19.6332C113.281 19.2707 115.154 18.9576 115.334 19.2495C115.605 19.6872 117.03 19.7113 117.224 19.2822C117.358 18.987 117.464 19.1333 117.595 19.7912C117.759 20.6139 117.783 20.6356 117.814 19.9889C117.835 19.5352 117.997 19.2632 118.245 19.2632C118.585 19.2632 118.646 20.2122 118.681 26.059L118.721 32.8547L118.936 27.3126C119.054 24.2644 119.184 21.2452 119.225 20.6034C119.321 19.1108 119.942 18.8139 120.004 20.2307L120.049 21.2424L120.153 20.2472C120.21 19.6999 120.368 19.3209 120.504 19.405C120.649 19.4943 120.773 23.3077 120.804 28.5816L120.857 37.605L121.003 28.9835C121.082 24.2416 121.237 20.2731 121.345 20.1644C121.454 20.0555 121.565 21.3821 121.592 23.1118C121.638 26.1442 121.645 26.1811 121.795 24.1454C121.902 22.6871 121.997 22.279 122.103 22.8259C122.193 23.2934 122.272 22.772 122.295 21.5529C122.332 19.7407 122.391 19.499 122.796 19.576C123.124 19.6379 123.304 20.0085 123.416 20.8488L123.574 22.0341L123.615 20.9653C123.663 19.6731 124.059 19.1787 124.751 19.5486C125.058 19.713 125.248 20.1229 125.265 20.6579L125.293 21.5063L125.502 20.6241C125.773 19.4783 126.295 18.9149 126.295 19.7685C126.295 20.3477 126.327 20.3585 126.91 19.9764C127.505 19.5866 127.537 19.6049 127.89 20.5398L128.254 21.5064L128.427 20.5826C128.538 19.9896 128.63 20.7454 128.685 22.694C128.733 24.4139 128.803 25.0428 128.847 24.1455C128.89 23.2746 128.997 21.8136 129.084 20.8989C129.217 19.5045 129.303 19.2858 129.616 19.5457C129.882 19.7671 129.999 20.5437 130.024 22.2644L130.06 24.6733L130.27 22.8673C130.386 21.874 130.548 20.9933 130.631 20.91C130.715 20.8268 130.801 21.6988 130.822 22.8479C130.864 25.0568 130.918 24.868 131.188 21.5723C131.372 19.3271 131.827 18.7879 131.856 20.7806C131.869 21.7238 131.931 21.9035 132.102 21.5064C132.227 21.216 132.349 20.5629 132.373 20.0548C132.415 19.1993 132.434 19.1798 132.629 19.791C132.745 20.1539 132.872 20.9259 132.911 21.5065C132.972 22.4155 133.004 22.3451 133.136 20.9992C133.308 19.2421 133.949 18.5848 133.949 20.1649C133.949 20.685 134.067 21.1106 134.212 21.1106C134.358 21.1106 134.476 20.8733 134.476 20.5827C134.476 20.2924 134.595 20.055 134.74 20.055C134.885 20.055 135.015 19.847 135.03 19.5931C135.046 19.2853 135.127 19.3513 135.268 19.7909C135.449 20.3564 135.487 20.3752 135.531 19.9229C135.576 19.4732 135.614 19.4927 135.786 20.0551L135.988 20.7149L136.27 20.0551C136.494 19.5341 136.564 20.1166 136.606 22.8262C136.635 24.7132 136.74 28.6917 136.838 31.6673L137.016 37.0775L137.095 30.7436C137.138 27.2599 137.249 23.2863 137.341 21.9134C137.502 19.5288 137.539 19.41 138.169 19.2593C138.532 19.1725 139.147 19.2185 139.535 19.3649C140.092 19.5729 140.294 19.8824 140.493 20.8313L140.745 22.0344L140.778 20.7808C140.794 20.0913 140.928 19.5272 141.073 19.5272C141.218 19.5272 141.337 19.6459 141.337 19.791C141.337 19.9362 141.515 20.0548 141.732 20.0548C142.209 20.0548 142.157 19.7796 142.381 23.4857L142.565 26.5207L142.613 23.8815C142.676 20.447 142.872 19.2615 143.347 19.4436C143.556 19.5243 143.722 19.9909 143.737 20.5449L143.766 21.5064L144.012 20.4552C144.352 19.0021 144.761 18.6613 144.794 19.8041C144.819 20.5921 144.845 20.6287 144.999 20.0761C145.12 19.6436 145.405 19.4071 145.883 19.3431C146.663 19.2387 146.788 19.5824 146.963 22.2981C147.021 23.2032 147.063 22.9703 147.095 21.5567C147.124 20.261 147.241 19.5564 147.407 19.659C147.552 19.7487 147.67 19.7262 147.67 19.6084C147.67 19.4909 148.086 19.3719 148.594 19.3442L149.517 19.2936L149.565 21.3236L149.612 23.3535L149.781 21.3741C149.874 20.2855 149.973 19.5135 150.002 19.6587C150.03 19.8039 150.152 19.7668 150.273 19.5768C150.424 19.3382 151.14 19.2322 152.577 19.2351C156.75 19.2432 156.319 19.074 156.506 20.7891C156.779 23.2958 156.831 23.426 156.869 21.6853C156.915 19.5225 157.181 19.269 159.461 19.2117C161.725 19.1546 162.011 19.2402 162.216 20.0547L162.383 20.7145L162.416 19.9887C162.448 19.2602 162.656 19.1347 163.634 19.2559C164.817 19.4023 167.328 19.2193 167.637 18.9616C167.865 18.772 168.234 18.774 168.835 18.9697C169.595 19.216 176.051 19.3889 180.453 19.2812C181.533 19.2568 181.972 19.3424 181.975 19.5842C181.978 19.8574 182.02 19.8586 182.191 19.5883C182.308 19.404 182.692 19.2853 183.045 19.3244C183.52 19.3774 183.728 19.6 183.849 20.1874L184.012 20.9791L184.048 20.1213C184.077 19.4641 184.201 19.2637 184.589 19.2637C184.867 19.2637 185.134 19.1487 185.183 19.0084C185.233 18.8612 185.423 18.8474 185.63 18.9758C185.851 19.1136 186.064 19.9943 186.186 21.2766L186.384 23.3543L186.461 21.3749C186.532 19.5392 186.551 19.4817 186.722 20.5831L186.907 21.7708L186.947 20.5612C186.98 19.6216 187.09 19.3404 187.449 19.3016C188.847 19.1503 193.122 19.1581 193.217 19.3138C193.278 19.4129 193.721 19.4304 194.201 19.3546C194.8 19.2571 195.206 19.3464 195.497 19.6359C196.016 20.155 196.221 20.1714 196.221 19.6939C196.221 19.2824 197.135 18.9654 197.698 19.1816C197.901 19.2598 198.068 19.5416 198.068 19.8077C198.068 20.5302 198.544 20.6871 198.642 19.9969C198.703 19.5676 198.932 19.3756 199.453 19.3156C200.16 19.2341 200.179 19.2684 200.218 20.6353C200.242 21.527 200.299 21.7498 200.373 21.2466C200.511 20.2967 201.131 19.6628 202.102 19.4772L202.817 19.3405L202.857 21.0853L202.898 22.8302L203.057 21.2467C203.144 20.3758 203.318 19.5028 203.444 19.3067C203.715 18.8852 205.183 19.0951 205.505 19.6012C205.619 19.7806 205.738 22.3022 205.769 25.2053L205.826 30.4836L205.989 24.9414C206.08 21.8932 206.174 19.3695 206.2 19.3332C206.38 19.082 206.739 19.3617 206.868 19.8571C207.02 20.4402 207.026 20.441 207.418 19.9232C207.779 19.4448 207.819 19.6288 207.874 22.0384L207.934 24.6775L208.094 21.9064C208.182 20.3823 208.278 19.2923 208.306 19.4841C208.347 19.7524 208.454 19.7373 208.773 19.418C209.001 19.1901 209.416 19.0033 209.696 19.0033C210.155 19.0033 210.208 19.217 210.236 21.1806C210.269 23.5025 210.64 22.9767 210.701 20.5208L210.734 19.2672H212.581H214.428L214.479 20.9167L214.53 22.5662L214.623 20.9167C214.69 19.7413 214.821 19.2672 215.079 19.2672C215.277 19.2672 215.628 19.195 215.858 19.107C216.205 18.9736 216.278 19.1841 216.293 20.3606C216.322 22.4808 216.761 23.2343 216.784 21.2015C216.804 19.6122 216.821 19.5688 217.594 19.3991C218.029 19.3037 218.385 19.0986 218.385 18.9438C218.385 18.7888 218.682 18.9846 219.045 19.3742C219.537 19.9057 219.713 20.4005 219.739 21.3261C219.772 22.5438 219.776 22.5495 219.968 21.6425C220.075 21.1345 220.186 20.897 220.215 21.1147C220.243 21.3324 220.427 22.2231 220.623 23.094L220.98 24.6775L221.046 22.6982L221.113 20.7188L221.271 22.3023L221.429 23.8858L221.688 22.1703L221.947 20.4549L222.083 22.6982L222.219 24.9414L222.449 22.2125C222.59 20.5339 222.765 19.6197 222.903 19.8373C223.081 20.1182 223.128 20.106 223.131 19.777C223.135 19.494 223.385 19.363 223.926 19.363C224.591 19.363 224.723 19.4715 224.753 20.0408C224.781 20.5988 224.822 20.5554 224.982 19.795C225.137 19.0556 225.184 19.003 225.215 19.5312C225.277 20.5953 225.661 21.009 225.909 20.2792C226.027 19.9318 226.205 23.4992 226.317 28.4578C226.426 33.2949 226.586 37.3229 226.672 37.4089C226.758 37.4949 226.828 33.567 226.828 28.6801C226.828 23.1823 226.925 19.7951 227.082 19.7951C227.221 19.7951 227.375 20.7749 227.424 21.9724L227.512 24.1496L227.575 21.7744C227.633 19.5935 227.668 19.4532 228.003 20.0587L228.368 20.7183L228.553 19.9786C228.694 19.4179 228.875 19.2583 229.3 19.3191C229.795 19.3896 229.88 19.6204 230.013 21.2466C230.153 22.9526 230.168 22.9896 230.211 21.73C230.236 20.9798 230.33 20.1782 230.418 19.9486C230.683 19.2594 231.049 19.4769 231.049 20.3229C231.049 20.7584 231.168 21.1146 231.313 21.1146C231.458 21.1146 231.577 20.7027 231.577 20.1992C231.577 19.494 231.668 19.3187 231.973 19.4357C232.19 19.5193 232.378 19.9015 232.39 20.2852C232.41 20.9712 232.418 20.9686 232.786 20.1249C233.381 18.764 233.685 19.1066 233.721 21.1806L233.754 23.0939L233.968 21.4453C234.086 20.5386 234.246 19.6933 234.324 19.567C234.403 19.4406 235.211 19.3513 236.121 19.368L237.776 19.4006L237.937 20.4563C238.084 21.4224 238.104 21.4448 238.179 20.7201C238.339 19.1522 238.688 24.2808 238.856 30.6828C238.95 34.2754 239.132 37.2147 239.26 37.2147C239.388 37.2147 239.492 33.347 239.492 28.5379C239.492 21.1471 239.551 19.8124 239.888 19.5325C240.234 19.2455 240.288 19.4815 240.32 21.4135L240.357 23.6232L240.632 21.3799C240.852 19.5823 240.944 19.294 241.092 19.9284C241.212 20.442 241.287 20.5337 241.307 20.1897C241.344 19.5353 242.354 18.808 242.501 19.3285C243.026 21.1905 243.194 21.8903 243.275 22.5674C243.327 23.0029 243.388 22.6208 243.41 21.718C243.443 20.3774 243.522 20.1047 243.845 20.2287C244.122 20.3352 244.241 20.2083 244.241 19.8062C244.241 19.3615 244.375 19.2508 244.835 19.3161C245.281 19.3793 245.469 19.6289 245.591 20.3242C245.729 21.1039 245.76 21.1372 245.789 20.5378C245.83 19.7123 246.154 19.4534 247.189 19.4227L247.934 19.4024L247.971 22.8333C248.008 26.387 248.163 26.1642 248.616 21.9095C248.853 19.6741 249.235 18.961 249.251 20.7219C249.259 21.6733 249.335 21.9311 249.519 21.6457C249.697 21.37 249.778 21.8512 249.787 23.2291C249.803 25.793 250.185 25.1434 250.409 22.1734C250.502 20.9396 250.649 19.6672 250.736 19.3458C250.879 18.8179 250.934 18.801 251.304 19.1705C251.534 19.4013 251.983 19.5281 252.331 19.4617C252.671 19.3968 252.949 19.4654 252.949 19.6117C252.949 19.7593 253.186 19.6651 253.476 19.4021C253.996 18.9316 254.005 18.9418 254.041 20.0869L254.078 21.2495L254.254 20.1939L254.431 19.1382L254.656 20.1939C254.779 20.7745 254.93 21.101 254.992 20.9196C255.232 20.2051 255.589 20.648 255.629 21.7114C255.669 22.7525 255.678 22.7667 255.766 21.9091C255.92 20.4135 256.114 19.7665 256.363 19.9206C256.492 19.9997 256.657 19.9165 256.731 19.7334C256.804 19.5512 256.874 19.8546 256.885 20.4072C256.909 21.5409 257.418 21.5133 257.46 20.3745L257.484 19.6644L257.695 20.3242C257.905 20.9782 257.907 20.977 257.971 20.1921C258.029 19.4682 258.05 19.4908 258.223 20.4559L258.412 21.5115L258.449 20.1259C258.49 18.6058 258.846 18.3535 259.668 19.262C259.928 19.5491 260.243 19.72 260.369 19.6424C260.495 19.5649 260.601 19.7158 260.605 19.9784C260.613 20.4385 260.625 20.4385 260.89 19.9794C261.109 19.6031 261.246 19.5682 261.542 19.8139C261.839 20.0606 261.917 20.0369 261.917 19.6993C261.917 19.407 262.123 19.2911 262.576 19.3286C262.939 19.3572 263.236 19.4763 263.236 19.5896C263.236 19.703 263.473 19.796 263.763 19.796C264.278 19.796 264.292 19.9904 264.347 27.7793C264.393 34.4451 264.427 35.0876 264.555 31.6721L264.708 27.5814L264.81 31.4082C264.902 34.8172 264.93 34.4881 265.07 28.3932C265.185 23.3351 265.311 21.5233 265.55 21.4435C265.728 21.3839 265.884 21.1376 265.895 20.8956C265.907 20.6318 266.062 20.7729 266.279 21.2475L266.642 22.0392L266.654 21.0711C266.662 20.5387 266.739 19.9117 266.829 19.6778C266.976 19.2957 267.028 19.3002 267.348 19.7222C267.65 20.1206 267.706 20.1288 267.713 19.7765C267.721 19.394 268.13 19.3371 269.634 19.5094C269.743 19.5216 269.848 20.1556 269.867 20.9177C269.899 22.2063 269.915 22.2386 270.096 21.3795C270.203 20.8714 270.313 20.6339 270.34 20.8516C270.368 21.0694 270.531 20.8435 270.704 20.3467C270.901 19.784 271.217 19.4175 271.547 19.3702C273.945 19.0265 274.35 19.02 274.827 19.3184C275.216 19.561 275.576 19.5741 276.219 19.3694C276.928 19.1439 278.68 19.1007 281.111 19.2479C281.292 19.2601 281.441 19.4546 281.441 19.6826C281.441 20.0475 281.487 20.0508 281.829 19.707C282.123 19.4122 282.989 19.3103 285.424 19.2834C287.189 19.263 288.824 19.1464 289.06 19.022C289.313 18.8879 290.185 18.9405 291.202 19.1517C293.01 19.5268 294.059 19.4192 294.507 18.8121C294.787 18.4337 295.687 18.6004 295.687 19.0302C295.687 19.1599 295.866 19.2659 296.083 19.2659C296.301 19.2659 296.479 19.4669 296.479 19.7122C296.479 20.1263 296.504 20.127 296.809 19.7204C297.117 19.3125 299.726 19.175 305.581 19.2583C305.871 19.2621 308.296 19.2502 310.97 19.2339C315.381 19.2053 315.864 19.2461 316.181 19.6795C316.496 20.1114 316.531 20.1144 316.531 19.7121C316.531 19.4666 316.619 19.2579 316.728 19.2483C316.837 19.2402 319.597 19.2481 322.862 19.2687C330.709 19.3192 330.711 19.3193 331.31 18.9988C331.698 18.7908 332.033 18.8275 332.646 19.1444C333.095 19.3768 333.601 19.515 333.769 19.451C333.938 19.3869 334.342 19.4347 334.669 19.5554C335.26 19.7751 335.263 19.8029 335.293 25.9206C335.31 29.3001 335.41 33.2527 335.514 34.7042C335.646 36.552 335.716 34.6879 335.746 28.4867C335.783 21.4471 335.864 19.5284 336.152 19.1344C336.501 18.6574 336.522 18.6614 336.705 19.24C336.855 19.7104 337.02 19.8017 337.464 19.6596C337.777 19.5597 338.27 19.4672 338.56 19.4537C338.85 19.4415 339.175 19.3036 339.282 19.1495C339.389 18.9954 339.49 19.3444 339.507 19.9251L339.539 20.9807L339.746 20.1096C339.859 19.6305 339.996 19.1991 340.048 19.1508C340.101 19.1027 341.065 19.1263 342.19 19.1989C343.786 19.3049 344.234 19.4228 344.234 19.7367C344.234 20.0694 344.327 20.0552 344.77 19.6535C345.189 19.2747 345.724 19.1702 347.211 19.1766L349.115 19.1848L349.264 21.4023L349.413 23.6197L349.462 21.5497C349.505 19.7238 349.573 19.4633 350.039 19.3416C350.329 19.2657 350.566 19.1027 350.566 18.9791C350.566 18.856 350.982 18.9995 351.49 19.3C352.006 19.6046 352.413 19.7172 352.413 19.5549C352.413 19.3954 352.591 19.2649 352.809 19.2649C353.126 19.2649 353.205 19.6625 353.205 21.2599C353.205 22.5226 353.302 23.1949 353.468 23.0917C353.614 23.002 353.732 22.2161 353.732 21.3452C353.732 20.3486 353.831 19.8226 353.998 19.926C354.144 20.0165 354.449 19.9056 354.676 19.6777C354.903 19.4506 355.377 19.265 355.73 19.265C356.34 19.265 356.373 19.3498 356.42 21.0464L356.47 22.8278L356.565 21.3125C356.642 20.0955 356.771 19.7384 357.22 19.4977C357.679 19.2523 357.843 19.2845 358.131 19.678C358.391 20.0344 358.482 20.06 358.485 19.7775C358.489 19.466 358.53 19.4615 358.714 19.753C358.879 20.0132 358.996 19.9075 359.151 19.3571C359.356 18.6271 359.369 18.6393 359.607 19.7938C359.742 20.447 359.937 22.2878 360.041 23.8845C360.145 25.4812 360.253 26.2531 360.281 25.5999C360.424 22.2361 360.704 19.9465 360.878 20.7175C361.041 21.4395 361.06 21.4105 361.088 20.3877C361.105 19.7708 361.238 19.2661 361.384 19.2661C361.529 19.2661 361.66 19.7708 361.676 20.3877L361.704 21.5093L361.994 20.3217C362.247 19.2854 362.296 19.2266 362.379 19.8599C362.478 20.6178 362.827 20.8219 363.056 20.2558C363.129 20.0744 363.198 20.4972 363.209 21.195C363.23 22.4432 363.738 22.7697 363.776 21.5595C363.797 21.0021 363.805 21.0003 364.022 21.509C364.193 21.9074 364.253 21.7333 364.267 20.7988C364.275 20.1179 364.405 19.4874 364.55 19.3977C364.695 19.308 364.815 19.3895 364.818 19.5799C364.821 19.8311 364.892 19.8173 365.077 19.5294C365.257 19.2505 365.346 19.6795 365.377 20.9809C365.418 22.7096 365.432 22.752 365.605 21.6407C365.764 20.6178 365.802 20.7825 365.879 22.8283C365.965 25.1067 365.975 25.139 366.112 23.6201C366.232 22.2982 366.28 22.5815 366.404 25.3355L366.554 28.6344L366.66 25.3355L366.766 22.0366L366.924 25.2036L367.082 28.3705L367.154 24.8077C367.2 22.5275 367.307 21.4349 367.452 21.7727C367.642 22.215 367.682 22.1617 367.697 21.4428C367.705 20.9711 367.835 20.5851 367.98 20.5851C368.125 20.5851 368.261 20.318 368.281 19.9913C368.301 19.6647 368.403 19.8726 368.507 20.4531C368.611 21.0337 368.713 21.2486 368.734 20.9306C368.754 20.6126 368.89 20.2788 369.035 20.1889C369.572 19.8574 369.827 21.5154 369.861 25.5507C369.886 28.5858 369.952 29.3381 370.102 28.3705C370.215 27.6448 370.318 25.8269 370.331 24.3308C370.343 22.8347 370.499 21.0533 370.677 20.3721L371 19.1336L371.17 20.0573L371.34 20.981L371.373 19.9725C371.405 19.076 371.452 19.0079 371.803 19.3598C372.021 19.5775 372.213 20.2689 372.229 20.8961L372.258 22.0366L372.453 21.029C372.687 19.8165 373.237 19.208 374.08 19.2292C376.534 19.2907 376.848 19.5109 377.089 21.3412C377.196 22.1592 377.366 26.1537 377.466 30.218L377.647 37.6076L377.719 30.7458C377.783 24.6117 378.09 18.3232 378.241 20.0573L378.299 20.7171L378.544 20.1063C378.848 19.3456 379.309 19.5881 379.357 20.5347C379.389 21.1567 379.407 21.1712 379.507 20.6509C379.57 20.3243 379.732 20.0571 379.867 20.0571C380.006 20.0571 380.136 21.9156 380.167 24.3457L380.222 28.6343L380.376 24.8075C380.461 22.7027 380.565 21.337 380.606 21.7724C380.648 22.2079 380.742 22.386 380.814 22.1683C381.185 21.0575 381.279 21.0963 381.454 22.4321C381.558 23.2305 381.664 25.0713 381.689 26.5228C381.777 31.6056 382.152 31.8783 382.233 26.9187C382.306 22.4295 382.314 22.5058 382.504 29.642C382.611 33.6799 382.77 37.0548 382.857 37.1416C382.944 37.2284 383.023 33.7464 383.034 29.4039C383.046 24.75 383.145 21.7252 383.279 22.0363C383.488 22.5243 383.509 22.5144 383.555 21.9042C383.596 21.3505 383.625 21.3293 383.731 21.7721C383.801 22.0625 383.965 22.4128 384.096 22.5507C384.227 22.6885 384.343 23.698 384.353 24.7939C384.377 27.2437 384.806 26.5871 384.863 24.0154C384.9 22.3785 385.267 19.6336 385.375 20.1887C385.404 20.3338 385.529 20.2172 385.654 19.9249C385.808 19.5661 385.898 20.1161 385.934 21.6402C385.975 23.3568 386.033 23.6667 386.182 22.9599C386.313 22.3352 386.404 23.147 386.462 25.467L386.548 28.8979L386.694 26.2587L386.841 23.6196L387.037 25.8628C387.145 27.0966 387.234 29.4248 387.235 31.0364C387.235 32.6481 387.326 34.7264 387.435 35.655C387.588 36.961 387.664 36.059 387.773 31.669L387.912 25.9949L387.971 31.7349C388.02 36.6355 388.086 37.4751 388.424 37.4751C388.766 37.4751 388.824 36.503 388.846 30.4154C388.871 23.4034 389.06 20.9744 389.423 22.9599C389.516 23.4679 389.717 26.3775 389.87 29.4257C390.267 37.3167 390.311 37.351 390.38 29.8216C390.413 26.1202 390.531 22.4655 390.64 21.7C390.853 20.2015 391.328 19.4188 391.68 19.9874C391.824 20.2206 392.015 20.1497 392.375 19.7298C392.768 19.2701 392.897 19.2302 392.996 19.5373C393.064 19.7505 393.25 20.0083 393.407 20.1105C393.564 20.2128 393.764 21.4002 393.852 22.7496L394.011 25.2031L394.08 23.0918C394.166 20.4589 394.545 18.9854 394.623 20.9804L394.675 22.3001L394.98 21.0018C395.147 20.2878 395.416 19.66 395.577 19.6066C395.884 19.5047 396.399 21.1263 396.558 22.6959C396.62 23.3176 396.666 23.1452 396.697 22.1681C396.757 20.251 396.981 19.4658 397.421 19.6344C397.615 19.7086 397.844 19.6548 397.93 19.5174C398.174 19.1223 398.582 19.2218 398.582 19.6764C398.582 19.9027 398.701 20.0144 398.846 19.9247C399.019 19.8175 399.127 22.6836 399.16 28.2884L399.21 36.8152L399.357 28.3258C399.439 23.6567 399.576 19.7652 399.663 19.6782C399.925 19.4164 400.159 23.5512 400.206 29.2937L400.251 34.7039L400.559 28.37C400.729 24.8863 400.901 22.3924 400.943 22.8278L401.019 23.6195L401.22 22.8278C401.331 22.3915 401.461 25.5312 401.509 29.8215L401.597 37.6069L401.76 29.6895C401.85 25.335 402.05 21.3565 402.205 20.8485C402.467 19.9846 402.49 20.053 402.557 21.9041L402.628 23.8835L402.803 22.3C402.908 21.349 402.996 21.0653 403.022 21.5898C403.047 22.0701 403.167 22.4012 403.289 22.3254C403.486 22.2035 403.773 27.3657 403.902 33.3844C403.926 34.5456 404.032 32.111 404.135 27.9741C404.335 19.9846 404.514 18.7689 405.421 19.2544C405.703 19.4052 406.179 19.5287 406.479 19.5287C406.779 19.5287 407.046 19.5573 407.073 19.5948C407.102 19.6315 407.194 23.3424 407.282 27.8421L407.441 36.0235L407.496 27.8109L407.551 19.5984L408.673 19.4467C409.357 19.3537 409.832 19.4035 409.892 19.5739C409.952 19.7439 410.079 19.7125 410.218 19.4931C410.398 19.2077 410.446 19.2049 410.45 19.4768C410.453 19.6669 410.558 19.7578 410.685 19.6791C410.813 19.6004 411.009 19.9201 411.121 20.3893C411.297 21.1277 411.34 21.1626 411.435 20.6482C411.566 19.9406 412.25 19.5302 413.498 19.4093L414.411 19.3208L414.459 25.8239L414.507 32.327L414.689 26.5209C414.913 19.4132 414.967 18.477 415.12 19.0653C415.187 19.3194 415.351 19.5272 415.486 19.5272C415.62 19.5272 415.744 19.7352 415.761 19.9891C415.789 20.4289 415.797 20.4289 415.912 19.9891C416.053 19.4477 416.294 19.4051 416.733 19.8439C416.979 20.0902 417.049 20.0902 417.049 19.8439C417.049 19.6698 417.287 19.5271 417.577 19.5271C417.867 19.5271 418.105 19.375 418.105 19.1887C418.105 18.7085 419.304 18.669 419.692 19.1365C420.125 19.6586 421.004 19.6317 421.405 19.0843C421.707 18.6704 421.829 18.6729 423.257 19.121C424.453 19.4977 424.962 19.5418 425.6 19.3252C426.076 19.1638 427.624 19.1022 429.318 19.1768C433.619 19.3668 434.445 19.3407 434.852 19.0039C435.114 18.7862 435.368 18.7772 435.734 18.9754C436.524 19.398 438.977 19.4043 439.949 18.9876C440.577 18.7173 440.87 18.6957 441.004 18.9089C441.106 19.0716 441.86 19.282 442.679 19.3767C443.836 19.5108 444.258 19.4586 444.573 19.1434C445.023 18.6926 445.979 18.5985 446.115 18.9914C446.164 19.1308 446.941 19.3057 447.843 19.3803C449.21 19.4933 449.525 19.4402 449.741 19.061C449.957 18.681 450.087 18.6594 450.529 18.9306C450.905 19.161 452.804 19.2592 457.073 19.2694C460.382 19.2776 463.296 19.2898 463.55 19.2898C463.981 19.298 464.012 19.9149 464.012 28.5177C464.012 33.589 464.071 37.7383 464.144 37.7383C464.216 37.7383 464.248 29.2172 464.213 18.8025L464.196 18.7899Z" fill="black"/>
</svg>
