<svg width="464" height="39" viewBox="0 0 464 39" fill="none" xmlns="http://www.w3.org/2000/svg">
<path d="M91.8966 28.6214C91.9374 20.9574 92.2125 18.4242 92.5125 22.9587C92.6079 24.4039 92.7102 26.5365 92.7395 27.6977C92.7811 29.3518 92.8321 29.0088 92.9756 26.1143C93.0758 24.0821 93.2756 21.885 93.4185 21.2319C93.6325 20.2553 93.6932 20.8649 93.7601 24.6627L93.8416 29.2812L94.0197 24.7947C94.118 22.3271 94.2182 20.2488 94.2435 20.1762C94.268 20.1036 94.4636 20.2749 94.6765 20.5566C95.0511 21.0522 95.0641 21.0479 95.0678 20.4245C95.0715 19.9117 95.124 19.861 95.3274 20.1762C95.5398 20.5045 95.5847 20.482 95.5912 20.0441C95.6075 19.0243 96.1092 20.2435 96.135 21.3636L96.1595 22.4193L96.4705 21.3886C96.6597 20.762 96.962 20.3314 97.2418 20.2903C97.6282 20.2336 97.702 20.4383 97.702 21.5629C97.702 23.2714 97.9111 23.0664 98.2021 21.0732L98.4291 19.5162L98.4617 20.9173C98.4821 21.7771 98.5958 22.2555 98.7576 22.1554C98.9276 22.0502 99.0385 23.2419 99.0695 25.5047L99.1176 29.0172L99.2672 24.7502C99.4155 20.5219 99.7956 18.5224 99.8313 21.7815C99.8598 24.4183 100.3 24.95 100.322 22.3749C100.33 21.1893 100.412 20.032 100.5 19.8033C100.731 19.201 101.129 19.5607 101.149 20.3895C101.165 21.0448 101.181 21.0566 101.39 20.5429C101.514 20.2366 101.803 19.9136 102.033 19.8253C102.37 19.6957 102.451 19.862 102.451 20.6968C102.451 21.2643 102.57 21.802 102.715 21.8917C102.873 21.9899 102.979 21.6413 102.979 21.0159C102.979 19.8697 103.661 18.9405 103.816 19.8762C103.901 20.3914 103.916 20.3918 104.908 19.9048C106.353 19.1978 106.666 19.4231 106.703 21.1926C106.731 22.5627 106.748 22.6037 106.923 21.706C107.25 20.0201 108.135 19.348 108.33 20.6365C108.437 21.3421 108.441 21.3395 108.48 20.5419C108.512 19.825 108.611 19.7252 109.245 19.7501C109.9 19.7746 109.985 19.894 110.127 20.9662L110.283 22.1539L110.325 20.8961C110.366 19.6692 110.386 19.6398 111.158 19.6986C111.93 19.7573 111.95 19.7944 111.983 21.2203L112.016 22.6817L112.349 21.0982C112.532 20.2273 112.697 19.6929 112.715 19.9106C112.735 20.1748 112.812 20.2083 112.941 20.0113C113.155 19.6851 114.268 19.6782 114.784 19.9991C114.97 20.1149 115.114 20.0827 115.114 19.9253C115.114 19.7715 115.292 19.6456 115.51 19.6456C115.833 19.6456 115.915 20.1613 115.961 22.4826L116.016 25.3197L116.103 22.6898C116.191 20.0243 116.334 19.658 117.291 19.6496C117.704 19.6459 117.757 19.9974 117.799 23.0105C117.823 24.8612 117.882 25.841 117.927 25.1878C118.283 20.0396 118.326 19.7335 118.696 19.7335C118.903 19.7335 119.072 19.9513 119.072 20.2174C119.072 20.4836 119.191 20.7012 119.336 20.7012C119.505 20.7012 119.616 23.7017 119.647 29.0805C119.691 37.0277 119.703 37.2148 119.877 32.7093C119.978 30.0966 120.076 26.0884 120.094 23.8022C120.123 20.298 120.189 19.6456 120.523 19.6456C120.741 19.6456 120.92 19.794 120.923 19.9754C120.926 20.1952 121.012 20.1732 121.182 19.9094C121.385 19.595 121.441 19.6493 121.451 20.1732L121.464 20.8329L121.841 20.1732C122.08 19.754 122.229 19.6577 122.248 19.9094C122.268 20.1822 122.319 20.203 122.411 19.9754C122.584 19.547 123.286 19.547 123.313 19.9754C123.329 20.2376 123.361 20.2372 123.467 19.9735C123.661 19.4925 124.078 19.8435 124.115 20.5186C124.139 20.9461 124.19 20.8904 124.315 20.3049C124.408 19.8694 124.632 19.525 124.812 19.5396C124.991 19.5559 125.614 19.584 126.194 19.6057L127.25 19.6464L127.306 23.0113L127.362 26.3762L127.446 23.3844C127.509 21.1573 127.642 20.2225 127.967 19.7273C128.38 19.0956 128.42 19.0864 128.755 19.5451C129.005 19.8872 129.376 20.0049 130.026 19.9491C130.667 19.8937 130.992 19.994 131.102 20.2819C131.189 20.5086 131.348 23.2787 131.455 26.4381L131.651 32.1825L131.692 26.4637C131.729 21.5522 131.799 20.6308 132.196 19.936C132.781 18.9104 133.234 18.7335 133.586 19.3924C133.739 19.6775 134.037 19.9104 134.25 19.9104C134.462 19.9104 134.64 20.0589 134.645 20.2403C134.649 20.4319 134.809 20.3638 135.026 20.078C135.382 19.6082 135.998 19.5882 148.671 19.6345C155.971 19.6631 162.329 19.6941 162.801 19.7071L163.658 19.7316L163.691 21.2066L163.723 22.6817L163.972 21.0635L164.221 19.4452L166.247 19.5329C167.361 19.581 169.015 19.6263 169.922 19.6336L171.571 19.6459L171.613 22.6149C171.656 25.6151 171.704 25.4805 171.986 21.5894C172.127 19.6389 172.187 19.4545 172.647 19.5749C173.128 19.7009 173.157 20.0516 173.212 26.6044L173.27 33.5013L173.417 27.5633L173.565 21.6252L173.673 27.6952L173.781 33.7652L173.957 27.0354C174.054 23.3341 174.151 20.1784 174.171 20.0229C174.191 19.8675 174.802 19.713 175.528 19.68L176.847 19.6196L176.887 20.6223C176.924 21.5209 176.939 21.5428 177.043 20.8332C177.183 19.8735 177.595 19.3233 177.991 19.5679C178.152 19.667 179.26 19.7269 180.455 19.7013C181.716 19.6727 182.697 19.7681 182.795 19.9268C182.908 20.1098 183.085 20.098 183.335 19.8901C183.54 19.72 183.707 19.6695 183.707 19.7775C183.707 19.8856 183.877 19.8334 184.085 19.6613C184.4 19.3995 184.49 19.5565 184.633 20.6187C184.853 22.2497 184.979 22.6087 185.006 21.6756C185.018 21.2526 185.14 21.0043 185.29 21.0973C185.444 21.1923 185.567 20.8959 185.585 20.3871C185.605 19.8654 185.667 19.7152 185.743 20.0141C185.846 20.4169 185.917 20.4427 186.109 20.1462C186.309 19.8347 186.386 19.8387 186.605 20.1747C186.826 20.5115 186.866 20.5135 186.869 20.1869C186.873 19.8991 186.948 19.8791 187.176 20.107C187.342 20.2734 187.563 21.1583 187.667 22.0731L187.856 23.7365L187.893 21.7792C187.913 20.7026 188.002 19.8955 188.092 19.9856C188.182 20.0757 188.341 24.2224 188.444 29.2006L188.632 38.2518L188.716 29.2787C188.762 24.3435 188.882 20.8401 188.984 21.4933L189.168 22.6809L189.209 21.1634C189.242 19.8672 189.321 19.6459 189.746 19.6459C190.318 19.6459 190.559 20.3253 190.564 21.9551C190.569 23.7441 191.093 23.2512 191.124 21.4273L191.153 19.7778L191.442 20.9654C191.707 22.0504 191.741 22.0868 191.831 21.387C191.885 20.9657 192.099 20.4525 192.304 20.2466C192.628 19.9232 192.682 20.0276 192.7 21.0126C192.724 22.2465 192.766 22.2022 193.203 20.5036C193.524 19.2519 193.76 19.1436 194.516 19.9002C194.805 20.1893 195.104 20.3059 195.191 20.164C195.278 20.0241 195.52 19.9095 195.729 19.9095C196.032 19.9095 196.119 20.4592 196.161 22.6147L196.212 25.3198L196.359 22.5487C196.497 19.9273 196.537 19.773 197.098 19.6932C197.62 19.619 197.697 19.7299 197.732 20.6169C197.764 21.4197 197.794 21.4763 197.882 20.8946C197.942 20.493 198.103 20.2328 198.238 20.3164C198.373 20.4 198.484 20.2919 198.484 20.0803C198.484 19.832 198.871 19.6267 199.557 19.5107C200.802 19.3003 200.855 19.3333 201.116 20.49C201.265 21.1524 201.352 21.2504 201.481 20.8992C201.574 20.6452 201.739 20.2295 201.848 19.9755C201.957 19.7215 202.107 23.6703 202.183 28.7506L202.32 37.9877L202.407 29.5424C202.497 20.7416 202.857 16.9295 202.991 23.3404L203.066 26.9033L203.242 23.2085C203.339 21.1763 203.436 19.4967 203.458 19.4759C203.769 19.1775 204.34 19.2582 204.773 19.6623C205.092 19.9587 205.383 20.0598 205.477 19.9069C205.736 19.4877 206.134 19.6056 206.154 20.1075C206.17 20.5026 206.205 20.4929 206.399 20.0415L206.626 19.5136L206.662 20.0415L206.699 20.5693L206.926 20.0415C207.063 19.7226 207.179 22.0203 207.22 25.8476L207.287 32.1815L207.436 26.1905C207.522 22.7561 207.698 20.0889 207.849 19.9405C208.124 19.6706 209.009 19.5344 210.026 19.6045C210.522 19.6371 210.625 19.8072 210.651 20.6353C210.683 21.6202 210.683 21.6211 210.883 20.833L211.085 20.0412L211.151 20.9649L211.217 21.8886L211.38 20.9649C211.499 20.2876 211.678 20.0409 212.049 20.0401C212.328 20.0395 212.599 19.908 212.652 19.7477C212.753 19.4468 214.491 19.4717 214.799 19.7763C214.895 19.8713 215.04 21.3946 215.121 23.1612L215.269 26.3734L215.319 23.1404C215.348 21.3623 215.419 19.9074 215.479 19.9074C215.54 19.9074 215.777 19.8352 216.007 19.7472C216.378 19.6049 216.429 20.1687 216.47 24.8276L216.515 30.0681L216.695 25.9774C216.879 21.8082 217.141 19.6435 217.463 19.6435C217.562 19.6435 217.873 19.8119 218.155 20.0178C218.638 20.3709 218.674 20.8643 218.799 28.7929L218.931 37.1938L219.075 28.8805C219.173 23.23 219.318 20.3981 219.529 20.0394C219.825 19.5347 219.84 19.5405 219.865 20.1715C219.89 20.7779 219.91 20.7886 220.118 20.3036C220.259 19.9753 220.354 21.2736 220.368 23.7345C220.396 29.1014 220.82 29.5418 220.969 24.3629C221.033 22.1303 221.183 20.0828 221.301 19.8129C221.503 19.3535 221.533 19.3514 221.772 19.7802C221.98 20.1525 222.069 20.17 222.256 19.8752C222.435 19.5935 222.486 19.6192 222.489 19.9911C222.491 20.2536 222.612 20.3951 222.757 20.3054C222.902 20.2157 223.021 20.387 223.021 20.6858C223.021 20.9847 223.169 21.1995 223.35 21.1633C223.606 21.1123 223.71 22.8772 223.812 29.0147L223.944 36.9321L224.124 30.4663C224.223 26.91 224.402 23.1096 224.521 22.021C224.726 20.1394 224.746 20.0938 224.931 21.0973C225.039 21.6779 225.127 22.5913 225.129 23.127C225.132 24.3681 225.591 24.6846 225.732 23.5435C225.79 23.069 225.879 26.1249 225.927 30.3343L226.016 37.9878L226.197 29.1466C226.297 24.284 226.464 20.1045 226.569 19.8588C226.716 19.5151 226.9 19.4657 227.37 19.6439C227.705 19.7715 228.051 19.8045 228.139 19.7169C228.226 19.6292 228.315 20.0231 228.335 20.5915L228.372 21.6251L228.532 20.5694C228.698 19.4774 228.876 19.3866 230.078 19.778C230.653 19.9652 230.673 20.0904 230.729 23.7012L230.787 27.4312L230.869 23.8024C230.914 21.8066 231.055 20.1736 231.183 20.1736C231.311 20.1736 231.482 21.3909 231.565 22.8787C231.647 24.3665 231.817 26.4151 231.943 27.4312C232.152 29.1186 232.175 28.9428 232.213 25.4014C232.238 23.269 232.363 21.4573 232.496 21.3754C232.628 21.2934 232.817 20.7521 232.915 20.1722C233.012 19.5924 233.171 19.1206 233.267 19.1238C233.656 19.1361 234.59 20.075 234.707 20.5694C234.823 21.061 234.834 21.0579 234.862 20.5246C234.883 20.1083 235.127 19.8941 235.75 19.741C237.109 19.407 237.128 19.4246 237.288 21.2294L237.44 22.9448L237.486 21.3331L237.532 19.7213L239.661 19.5754C240.832 19.495 242.108 19.5179 242.497 19.6259C243.536 19.9146 248.607 19.7148 249.024 19.369C249.221 19.206 249.525 19.1615 249.701 19.2704C250.127 19.5342 253.626 19.8468 253.626 19.621C253.626 19.3062 254.592 19.1796 255.048 19.4347C255.722 19.8119 259.375 19.7564 259.85 19.3617C260.181 19.0873 260.494 19.1117 261.565 19.4971C262.286 19.7564 263.168 19.9123 263.527 19.8436L264.179 19.7189L264.223 23.575L264.268 27.4311L264.455 24.66C264.557 23.136 264.657 21.3545 264.674 20.7013L264.707 19.5137L273.875 19.6006C278.918 19.6483 283.4 19.6976 283.835 19.7099C284.27 19.7221 284.923 19.6813 285.286 19.623C285.943 19.5137 285.946 19.5239 286.093 22.0206L286.24 24.5278L286.291 22.4373C286.353 19.8452 286.768 19.179 287.94 19.7852C288.348 19.9965 288.868 20.0984 289.095 20.0112C289.461 19.8709 289.513 20.548 289.558 26.0171L289.608 32.1813L289.768 26.2432C289.899 21.415 290.01 20.16 290.366 19.5282C290.742 18.8607 290.829 18.8171 290.983 19.2187C291.081 19.4756 291.436 19.7901 291.77 19.9172C292.247 20.0987 292.4 20.3919 292.479 21.2825L292.581 22.4167L292.631 21.0971C292.668 20.1364 292.75 19.8852 292.937 20.1734C293.158 20.5159 293.193 20.5098 293.196 20.1294C293.2 19.455 293.794 19.389 294.454 19.9891C294.97 20.4587 295.047 20.4716 295.047 20.0874C295.047 19.5076 295.466 19.5202 295.712 20.1078C295.818 20.3618 295.979 24.37 296.069 29.0149L296.235 37.4601L296.367 31.2799C296.465 26.6664 296.582 25.0719 296.828 24.99C297.015 24.928 297.158 24.4467 297.158 23.8853C297.158 21.6934 297.495 19.6459 297.855 19.6459C298.1 19.6459 298.214 19.9966 298.214 20.7544C298.214 21.859 298.56 21.9043 298.817 20.8335C298.887 20.5432 298.978 23.3341 299.02 27.0354L299.097 33.7652L299.28 27.8272C299.464 21.8871 299.681 19.6459 300.073 19.6459C300.609 19.6459 301.118 20.0071 301.135 20.3999C301.151 20.7383 301.203 20.7179 301.38 20.3057C301.536 19.9411 301.627 20.43 301.674 21.8892L301.741 24.0005L301.908 21.8892C302 20.728 302.108 20.0748 302.147 20.4376C302.214 21.0506 302.237 21.0366 302.467 20.2399C302.743 19.2822 303.068 19.154 303.47 19.8439C303.626 20.113 303.742 20.1652 303.746 19.9691C303.754 19.5626 306.603 19.5699 307.118 19.9773C307.34 20.1526 307.448 20.144 307.448 19.9528C307.448 19.7856 307.942 19.6759 308.635 19.6902L309.822 19.7147L309.865 20.8029C309.906 21.8721 309.909 21.875 310.019 20.9684C310.174 19.6764 310.408 19.4956 311.782 19.6049L312.989 19.7007L313.037 23.435L313.084 27.1691L313.234 23.7383C313.317 21.8513 313.48 20.1589 313.598 19.9775C313.995 19.3641 314.308 19.6427 314.339 20.6372C314.372 21.6222 314.372 21.6232 314.572 20.835L314.773 20.0433L314.832 20.835C314.889 21.6087 314.898 21.6026 315.217 20.5712C315.486 19.7037 315.657 19.5217 316.179 19.5502C316.528 19.5706 317.081 19.5991 317.408 19.6162C317.833 19.6366 318.006 19.8164 318.018 20.2414C318.035 20.8198 318.043 20.818 318.318 20.1753L318.601 19.5155L318.803 20.1753C318.913 20.5382 319.043 20.7163 319.09 20.5713C319.138 20.4261 319.242 23.692 319.321 27.8289L319.465 35.3505L319.525 27.5272C319.577 20.6726 319.636 19.6842 320.002 19.5438C320.737 19.2617 321.167 19.3714 321.188 19.8456C321.201 20.1216 321.263 20.1746 321.342 19.9777C321.416 19.7962 321.852 19.6458 322.311 19.6437C322.77 19.6419 323.321 19.5295 323.533 19.395C323.746 19.2604 324.043 19.245 324.193 19.3624C324.705 19.7579 326.181 20.1567 326.181 19.8997C326.181 19.7623 326.299 19.6493 326.444 19.6493C326.608 19.6493 326.73 21.4243 326.764 24.3338L326.821 29.0183L326.962 24.5318C327.068 21.1881 327.16 20.3141 327.323 21.1009C327.67 22.7681 327.72 22.7799 327.742 21.1992C327.767 19.4023 328.22 18.8402 329.062 19.5609C329.518 19.9523 329.617 20.3623 329.65 22.0172L329.691 24.0039L329.855 22.4204C329.945 21.5495 330.194 20.54 330.408 20.1772C330.787 19.5346 330.802 19.5587 330.951 21.1009L331.105 22.6843L331.191 21.1009L331.277 19.5174L331.458 20.837C331.599 21.8667 331.648 21.9647 331.68 21.2832C331.705 20.7766 331.832 20.4784 331.986 20.573C332.131 20.6627 332.267 20.4617 332.287 20.1268C332.307 19.7806 332.406 19.973 332.513 20.573C332.644 21.302 332.714 21.4204 332.739 20.9559C332.794 19.9801 333.252 19.6031 333.939 19.9704C334.243 20.1335 334.551 20.2167 334.624 20.1559C334.696 20.0952 334.825 20.6985 334.911 21.4969L335.066 22.9484L335.108 21.7164C335.191 19.3536 335.919 18.7842 335.98 21.035L336.017 22.4205L336.206 21.3649C336.31 20.7843 336.419 20.428 336.449 20.5732C336.478 20.7184 336.614 20.5609 336.75 20.2213C337.087 19.3799 337.622 19.6325 337.82 20.7262C337.971 21.5604 337.986 21.5338 338.018 20.3752C338.042 19.4522 338.157 19.1215 338.448 19.1215C338.74 19.1215 338.852 19.4506 338.875 20.3752C338.9 21.4094 338.935 21.4927 339.073 20.8513L339.24 20.074L339.57 20.7978C339.751 21.1957 339.921 22.0801 339.948 22.7628C339.981 23.5763 340.054 23.2309 340.163 21.7607C340.311 19.7577 340.34 19.9838 340.431 23.872L340.533 28.2266L340.691 25.0597C340.82 22.4751 340.868 23.2274 340.954 29.1503L341.06 36.4079L341.227 28.6225C341.318 24.3405 341.413 20.8073 341.437 20.771C341.462 20.7343 341.66 20.7049 341.878 20.7049C342.151 20.7049 342.288 21.0115 342.32 21.6946C342.348 22.2802 342.436 21.9299 342.537 20.8369C342.701 19.0667 342.711 19.0446 342.782 20.3091L342.856 21.6286L343.159 20.7049C343.439 19.853 344.12 19.2959 344.12 19.9193C344.12 20.0677 344.411 19.9984 344.768 19.7647C345.13 19.527 345.561 19.43 345.746 19.5442C345.928 19.6563 346.367 19.7794 346.723 19.8174C347.079 19.8541 347.468 20.0408 347.588 20.2298C347.74 20.4695 347.807 20.3937 347.81 19.9794C347.813 19.3295 347.842 19.3113 348.452 19.5457C348.741 19.6567 348.88 20.0824 348.906 20.9313L348.943 22.1567L349.104 21.101C349.208 20.4099 349.401 20.0453 349.66 20.0453C349.988 20.0453 350.078 20.7052 350.187 23.8721L350.32 27.6989L350.518 25.2171C350.626 23.8522 350.719 22.1301 350.724 21.3904C350.732 19.9021 351.221 18.9414 351.716 19.4367C351.97 19.6903 353.702 19.8159 354.541 19.6418C355.335 19.4771 355.993 19.6891 356.001 20.1114C356.009 20.5507 356.025 20.5507 356.361 20.1104C356.673 19.6985 356.73 19.7826 356.88 20.873C356.972 21.5471 357.062 23.3587 357.079 24.8989C357.12 28.4598 357.493 27.2588 357.563 23.3446C357.591 21.8204 357.715 20.3359 357.839 20.0456C357.997 19.6778 358.077 19.6379 358.103 19.9135C358.127 20.1891 358.209 20.1492 358.367 19.7814C358.538 19.3818 358.606 19.5742 358.646 20.5731L358.697 21.8927L358.975 20.903C359.232 19.9821 359.945 19.5021 359.954 20.2432C359.958 20.4789 360.024 20.4679 360.191 20.2066C360.319 20.0039 360.6 19.9056 360.815 19.988C361.029 20.0703 361.308 20.0447 361.435 19.9305C361.561 19.8163 362.051 19.5945 362.522 19.4371L363.38 19.1508L363.408 21.5783C363.441 24.2116 363.518 24.1814 363.778 21.4327C363.936 19.7706 363.99 19.6513 364.586 19.6513C365.006 19.6513 365.235 19.8091 365.255 20.1131C365.283 20.553 365.292 20.553 365.406 20.1131C365.473 19.8591 365.755 19.6513 366.035 19.6513C366.512 19.6513 366.543 19.8723 366.543 23.1986C366.543 27.9586 367.007 28.0975 367.117 23.3707C367.164 21.3484 367.275 19.6221 367.363 19.5345C367.672 19.227 368.364 19.7037 368.619 20.3999C368.875 21.0997 368.877 21.1 368.897 20.4651C368.91 20.1145 368.991 19.9009 369.082 19.9907C369.171 20.0804 369.417 19.9826 369.628 19.7709C370.081 19.3184 370.765 19.2635 370.765 19.6796C370.765 19.8403 370.943 19.9035 371.161 19.8199C371.415 19.722 371.563 19.828 371.575 20.1216C371.592 20.4963 371.625 20.5065 371.773 20.1791C371.973 19.7384 371.898 19.7478 376.767 19.5564C378.689 19.481 380.367 19.3538 380.496 19.2743C380.625 19.1948 380.869 19.2947 381.038 19.4994C381.269 19.7774 381.785 19.8349 383.113 19.7305C384.085 19.6539 385.008 19.4888 385.164 19.3632C385.327 19.2323 385.834 19.262 386.351 19.4329C386.848 19.5968 387.403 19.7689 387.584 19.815C387.831 19.8778 387.926 21.1147 387.959 24.7233L388.004 29.548L388.166 25.0615C388.327 20.6333 388.611 19.0552 388.998 20.4456C389.168 21.0544 389.183 21.06 389.207 20.5219C389.223 20.2026 389.418 19.838 389.643 19.7119C390.145 19.431 391.608 19.6165 391.608 19.9606C391.608 20.098 391.727 20.1368 391.872 20.0471C392.017 19.9574 392.135 20.1356 392.135 20.443C392.135 20.7504 392.254 20.9286 392.399 20.8389C392.544 20.7492 392.663 20.4324 392.663 20.1347C392.663 19.6717 392.796 19.6091 393.586 19.7014C394.122 19.7642 394.511 19.6932 394.514 19.5322C394.517 19.3801 394.618 19.4139 394.741 19.6076C394.864 19.8013 395.04 19.9501 395.133 19.9375C395.225 19.9252 395.42 19.9171 395.565 19.9171C395.717 19.9171 395.85 20.8955 395.878 22.2263L395.927 24.5356L396.086 22.2923L396.244 20.049L396.381 21.7645L396.518 23.4799L396.6 21.5006C396.664 19.9662 396.728 19.6992 396.884 20.313L397.085 21.1047L397.118 20.3789C397.15 19.5952 397.388 19.4697 397.888 19.9699C398.134 20.2162 398.204 20.1921 398.204 19.8614C398.204 19.3427 398.656 19.385 399.51 19.9838C400.08 20.3825 400.203 20.3895 400.585 20.0437C401.261 19.4315 401.367 19.5581 401.418 21.0387L401.466 22.4243L401.564 21.1707C401.656 20.006 402.157 19.3469 402.166 20.3789C402.17 20.7736 402.207 20.783 402.425 20.4449C402.624 20.1379 402.69 20.2264 402.72 20.8409C402.756 21.6147 402.762 21.6117 402.922 20.7088C403.082 19.7997 403.106 19.7848 404.411 19.7712C405.14 19.7631 405.882 19.6677 406.06 19.5576C406.277 19.4234 406.393 19.558 406.413 19.9673C406.438 20.4195 406.475 20.4568 406.565 20.1116C406.752 19.3951 407.172 19.8474 407.195 20.7902C407.215 21.6693 407.285 21.591 407.552 20.3788C407.674 19.8251 407.867 19.653 408.367 19.653C409.004 19.653 409.022 19.706 409.055 21.6984L409.088 23.7437L409.315 21.7894C409.439 20.7146 409.585 19.7913 409.638 19.7378C409.692 19.6844 409.93 19.7174 410.169 19.8071C410.538 19.9486 410.611 20.511 410.659 23.5741L410.715 27.1747L410.8 24.2057C410.846 22.5727 410.991 21.2367 411.121 21.2367C411.252 21.2367 411.408 20.9101 411.469 20.5109C411.556 19.936 411.593 20.0045 411.646 20.8408L411.713 21.8964L412.061 20.8408L412.408 19.7851L412.47 21.1047L412.531 22.4243L412.712 21.1047C412.865 19.998 412.906 20.2322 412.975 22.5562L413.057 25.3273L413.234 22.7479C413.428 19.9171 413.72 19.2888 414.508 20.0025C415.125 20.5613 415.283 20.558 415.433 19.9821C415.499 19.728 415.581 20.411 415.614 21.4996C415.67 23.2951 415.696 23.3809 415.893 22.4233C416.013 21.8427 416.118 20.9096 416.127 20.3497C416.143 19.2801 416.127 19.2846 417.525 19.9616C418.242 20.3086 418.249 20.3375 418.284 23.0829L418.321 25.854L418.661 23.2149C418.847 21.7634 419.083 20.2491 419.185 19.85C419.39 19.0477 419.862 18.9144 420.363 19.5177C420.569 19.7664 420.92 19.8528 421.318 19.7529C421.749 19.6449 421.949 19.7077 421.952 19.9535C421.955 20.2308 422.014 20.2222 422.211 19.9168C422.388 19.6432 422.469 19.6249 422.471 19.8569C422.474 20.1036 422.65 20.0783 423.135 19.7607L423.794 19.3284L423.831 20.3484L423.868 21.3685L424.062 20.4447C424.169 19.9367 424.274 19.6992 424.295 19.9169C424.32 20.153 424.412 20.206 424.528 20.049C424.796 19.6841 425.299 19.5943 426.832 19.637C427.558 19.6573 428.354 19.6777 428.601 19.681C428.961 19.6851 429.065 19.9856 429.128 21.1882L429.207 22.6883L429.589 21.4517C429.8 20.7715 430.067 20.2739 430.183 20.3457C430.299 20.4175 430.42 22.2804 430.452 24.4854L430.509 28.4945L430.591 24.9976C430.637 23.0743 430.781 21.5008 430.914 21.5008C431.046 21.5008 431.201 21.0554 431.257 20.5111C431.315 19.9667 431.397 20.5315 431.441 21.7647L431.522 24.0079L431.734 21.8018C431.929 19.7859 432.241 18.5659 432.241 19.8225C432.241 20.2375 432.402 20.3323 433.033 20.2886C433.679 20.2437 433.828 20.3379 433.843 20.8013C433.859 21.3525 433.867 21.3537 434.088 20.8421C434.241 20.4865 434.322 20.4433 434.338 20.71C434.354 21.0284 434.404 21.037 434.583 20.754C434.867 20.3059 435.128 20.9041 435.178 22.1173C435.198 22.5838 435.357 22.0765 435.539 20.9741C435.72 19.8855 435.882 19.1988 435.901 19.4483C435.921 19.7072 436.084 19.8446 436.282 19.7688C436.507 19.6824 436.727 19.9861 436.908 20.6348L437.188 21.6339L437.22 20.7762C437.281 19.2158 438.002 19.8932 438.086 21.5895C438.115 22.2004 438.177 22.0701 438.309 21.1061C438.409 20.3736 438.53 23.3088 438.581 27.704L438.672 35.6214L438.854 29.1555C439.017 23.3746 439.26 20.9904 439.737 20.5134C439.822 20.4282 439.9 21.0611 439.911 21.9198C439.939 24.478 440.38 24.8714 440.401 22.3597C440.418 20.2592 440.658 19.677 441.104 20.6442C441.222 20.8983 441.392 22.175 441.482 23.4813L441.646 25.8566L441.724 23.2174L441.802 20.5783L442.122 21.8978L442.443 23.2174L442.652 22.2937C442.767 21.7857 442.938 21.3106 443.033 21.238C443.127 21.1655 443.342 20.8092 443.509 20.4463C443.761 19.901 443.823 20.359 443.867 23.0854C443.91 25.7477 443.96 26.1297 444.126 25.0648C444.239 24.339 444.343 22.9733 444.358 22.0298C444.375 21.0863 444.473 20.1858 444.579 20.0287C444.686 19.8717 445.367 19.7526 446.092 19.7649L447.411 19.7852L447.568 21.1048C447.72 22.384 447.726 22.3921 447.77 21.3687C447.828 20.0199 448.312 19.1489 448.357 20.313C448.386 21.0767 448.394 21.0814 448.57 20.4451C448.682 20.0398 448.977 19.7528 449.335 19.701C449.87 19.6235 449.921 19.7295 449.951 21.0206L449.984 22.4245L450.252 20.709C450.399 19.7655 450.572 19.142 450.636 19.3235C450.7 19.5049 451.158 19.6533 451.654 19.6533C452.333 19.6533 452.557 19.7671 452.563 20.1152C452.571 20.516 452.604 20.5232 452.81 20.1686C452.941 19.9439 453.382 19.7657 453.789 19.7727C454.393 19.7808 454.56 19.93 454.698 20.5769C454.818 21.1392 454.876 21.2047 454.898 20.8032C454.915 20.4921 455.107 20.1693 455.325 20.0857C455.67 19.9532 455.728 20.8097 455.771 26.7213L455.82 33.5089L455.998 26.911C456.095 23.2822 456.192 20.0389 456.212 19.7037C456.27 18.7375 456.773 19.3168 456.811 20.3947L456.848 21.3688L457.022 20.4451C457.299 18.9745 457.513 20.0961 457.753 24.2718C457.869 26.304 458.001 27.4592 458.047 26.839C458.092 26.2188 458.24 25.7804 458.377 25.8649C458.527 25.9575 458.632 24.7288 458.644 22.7699C458.656 20.7092 458.745 19.7144 458.889 20.0492C459.083 20.5006 459.119 20.5101 459.135 20.1153C459.147 19.8613 459.272 19.6534 459.417 19.6534C459.562 19.6534 459.695 19.8614 459.711 20.1153C459.736 20.4969 459.769 20.4855 459.894 20.0492C459.995 19.6957 460.146 20.0451 460.349 21.1049L460.652 22.6883L460.856 21.4348C461.109 19.8777 461.52 19.7993 461.548 21.3027C461.573 22.5249 461.659 22.4296 461.913 20.9068C462.164 19.4106 462.578 19.7208 462.619 21.4346C462.639 22.2692 462.7 22.6552 462.756 22.2923C463.152 19.7077 463.258 20.8518 463.379 29.0221C463.47 35.1597 463.516 31.8832 463.516 19.2573C463.516 6.02022 463.473 3.09779 463.374 9.62443C463.296 14.7773 463.204 18.555 463.171 18.0193C463.079 16.5479 462.582 16.4932 462.582 17.9545C462.582 19.0227 462.529 19.1455 462.187 18.8614C461.934 18.6518 461.773 17.9949 461.741 17.0477L461.691 15.5625L461.596 17.08C461.544 17.9146 461.403 18.5975 461.283 18.5975C461.008 18.5975 460.746 17.3116 460.698 15.7274C460.67 14.8035 460.598 15.0521 460.398 16.7501C460.214 18.3221 460.073 18.8354 459.926 18.4656C459.749 18.0181 459.714 18.008 459.698 18.3995C459.678 18.9194 459.154 19.0448 459.148 18.5316C459.145 18.3118 459.059 18.3334 458.888 18.5977C458.714 18.8676 458.623 18.0707 458.602 16.0904C458.582 14.2234 458.497 13.4229 458.36 13.8472C458.209 14.3191 458.128 13.9055 458.077 12.3957C458.007 10.3735 457.996 10.418 457.822 13.4513C457.723 15.1932 457.624 17.1428 457.605 17.7839C457.56 19.2288 457.253 18.9912 457.021 17.333L456.848 16.0904L456.811 17.344C456.791 18.0335 456.657 18.5977 456.512 18.5977C456.367 18.5977 456.23 18.5691 456.207 18.5316C456.183 18.4949 456.089 15.4966 455.995 11.8678L455.823 5.26993L455.768 11.9997C455.739 15.7011 455.625 18.6108 455.519 18.4656C455.194 18.0241 454.665 18.0432 454.665 18.4982C454.665 18.795 454.505 18.8827 454.138 18.7869C453.848 18.711 453.533 18.7747 453.438 18.928C453.33 19.1029 453.133 19.0258 452.91 18.7208C452.604 18.3021 452.555 18.2944 452.555 18.6654C452.555 19.2667 452.077 19.4976 451.62 19.1177C451.408 18.9424 451.235 18.8873 451.235 18.9954C451.235 19.1034 451.057 19.0443 450.839 18.8633C450.622 18.6826 450.427 18.1039 450.408 17.5774C450.383 16.899 450.342 16.8122 450.268 17.2797C450.023 18.834 449.889 19.1271 449.424 19.1271C449.158 19.1271 448.812 18.86 448.655 18.5333C448.4 18.0051 448.367 17.9954 448.351 18.4453C448.314 19.5033 447.93 18.486 447.78 16.928L447.622 15.3003L447.581 16.9281C447.561 17.8235 447.467 18.7481 447.377 18.9829C447.228 19.3715 447.157 19.3728 446.586 18.9993C446.178 18.7318 445.958 18.6934 445.958 18.89C445.958 19.113 445.865 19.1151 445.604 18.8981C445.409 18.7367 445.172 18.6824 445.076 18.7778C444.981 18.8732 444.901 18.724 444.898 18.4455C444.896 18.0223 444.852 18.0044 444.639 18.3354C444.462 18.6099 444.372 18.0431 444.348 16.488C444.288 12.6822 443.913 12.3132 443.879 16.0262C443.858 18.0727 443.744 19.3911 443.583 19.3911C443.438 19.3911 443.32 19.0873 443.32 18.7157C443.32 18.3329 443.206 18.111 443.056 18.2035C442.893 18.3046 442.785 17.784 442.773 16.8335C442.76 15.9904 442.658 14.766 442.542 14.1128C442.352 13.0426 442.328 13.1389 442.298 15.0869C442.245 18.5533 441.745 18.04 441.685 14.4583C441.657 12.6801 441.603 12.1351 441.561 13.1891C441.472 15.4676 440.938 18.5993 440.639 18.5993C440.517 18.5993 440.403 17.7384 440.385 16.686L440.352 14.7726L440.055 16.877L439.758 18.9813L439.377 17.6687C439.104 16.7264 438.951 14.1597 438.836 8.57063L438.674 0.785158L438.588 9.62627C438.54 14.4889 438.414 18.0518 438.307 17.5437C438.152 16.8052 438.105 16.7523 438.074 17.2799C437.977 18.9641 437.252 19.9079 437.252 18.3511C437.252 17.9242 437.133 17.5015 436.988 17.4118C436.838 17.3189 436.724 17.5451 436.724 17.9356C436.724 18.4435 436.604 18.6023 436.263 18.545C435.727 18.4553 435.483 17.838 435.396 16.3562C435.35 15.585 435.301 15.4783 435.212 15.9603C435.145 16.3231 434.999 16.7388 434.887 16.884C434.775 17.0291 434.594 17.6229 434.485 18.2035C434.32 19.0826 434.251 19.1709 434.073 18.7314C433.89 18.2782 433.853 18.3156 433.81 18.9952C433.782 19.4685 433.713 19.5998 433.64 19.3218C433.573 19.0661 433.423 18.9161 433.306 18.9883C433.189 19.0608 432.904 18.7354 432.673 18.2657C432.342 17.5959 432.245 17.5255 432.219 17.9395C432.166 18.8117 431.777 17.3487 431.693 15.9602C431.627 14.8681 431.607 14.9105 431.448 16.488C431.292 18.043 431.27 18.0923 431.211 17.0158C431.161 16.0875 431.098 15.9435 430.921 16.356C430.775 16.6957 430.668 15.6613 430.62 13.453L430.546 10.0221L430.403 14.2447C430.268 18.2824 429.965 19.5264 429.57 17.6756C429.427 17.0093 429.395 17.0825 429.369 18.1374C429.34 19.2113 429.261 19.391 428.802 19.391C428.507 19.391 428.198 19.2137 428.115 18.9968C428.031 18.7799 427.846 18.6746 427.703 18.7635C427.306 19.009 424.589 19.0249 424.589 18.7839C424.589 18.6665 424.47 18.6436 424.325 18.7333C424.176 18.8255 424.044 18.5748 424.022 18.1551L423.981 17.4138L423.869 18.1559C423.775 18.7835 423.649 18.8855 423.051 18.8167C422.663 18.7718 422.258 18.616 422.151 18.4705C422.044 18.3249 421.955 18.4724 421.953 18.7995C421.949 19.5106 421.66 19.5366 420.323 18.9467C419.638 18.6446 419.305 18.3245 419.292 17.9571C419.276 17.4203 419.272 17.4201 419.047 17.9407C418.86 18.377 418.814 18.3085 418.783 17.5448C418.702 15.5288 418.293 15.5631 418.274 17.5872C418.258 19.2337 418.182 19.5983 417.857 19.5507C417.638 19.5181 417.318 19.3509 417.145 19.178C416.972 19.0056 416.677 18.8641 416.488 18.8641C416.263 18.8641 416.138 18.4767 416.126 17.7424C416.113 17.1255 416.011 16.0864 415.895 15.4332C415.709 14.3862 415.677 14.5267 415.63 16.6208C415.601 17.9272 415.512 18.8341 415.433 18.6363C415.312 18.3325 415.255 18.3325 415.062 18.6363C414.87 18.9392 414.833 18.9388 414.83 18.6344C414.826 18.3571 414.741 18.3429 414.464 18.5728C413.673 19.2291 413.245 18.6287 413.194 16.7909L413.145 15.0377L412.979 17.281C412.829 19.3131 412.806 19.3877 412.73 18.0727C412.652 16.7333 412.632 16.6925 412.465 17.5449C412.29 18.4397 412.279 18.4232 412.104 17.0171C412.004 16.2188 411.883 15.1499 411.834 14.6418C411.784 14.1338 411.717 14.7279 411.683 15.9614C411.642 17.4908 411.55 18.0368 411.396 17.6769C411.197 17.2139 411.161 17.2463 411.101 17.9407C411.064 18.3761 410.959 17.6634 410.868 16.3572L410.704 13.982L410.654 16.6871C410.626 18.1749 410.536 19.3922 410.454 19.3922C409.941 19.3922 409.44 18.3406 409.279 16.9275L409.093 15.3015L409.057 17.0522C409.024 18.5532 408.947 18.8221 408.503 18.9383C407.9 19.0961 407.537 18.7353 407.367 17.8087C407.267 17.2649 407.234 17.3112 407.179 18.0725L407.111 18.9963L406.921 18.2045L406.731 17.4128L406.536 18.1054C406.321 18.8682 405.196 19.558 404.913 19.1003C404.821 18.9507 404.571 18.8952 404.357 18.9771C403.816 19.1847 402.956 18.6734 402.931 18.129C402.919 17.851 402.859 17.8045 402.777 18.0079C402.703 18.1902 402.535 18.2722 402.402 18.1902C402.269 18.1082 402.16 18.233 402.16 18.4679C402.16 18.7027 402.042 18.8214 401.897 18.7317C401.751 18.642 401.613 18.0115 401.59 17.3306L401.547 16.0926L401.392 17.5203C401.274 18.6071 401.127 18.9639 400.775 19.0145C400.464 19.0594 400.305 18.8954 400.287 18.5104C400.263 17.9877 400.243 17.9953 400.05 18.5997C399.87 19.1617 399.832 19.1813 399.791 18.7318C399.767 18.4374 399.685 18.3498 399.611 18.5341C399.418 19.012 398.479 18.939 398.284 18.4313C398.133 18.0387 398.086 18.0423 397.771 18.4725C397.446 18.9181 397.41 18.9084 397.171 18.3118L396.917 17.6768L396.852 18.3366C396.815 18.6995 396.712 18.0463 396.62 16.8851L396.452 14.7737L396.361 16.7531L396.27 18.7325L396.092 17.2809L395.914 15.8294L395.872 17.6328C395.839 18.9432 395.738 19.4066 395.499 19.3276C395.317 19.2677 395.131 18.9586 395.084 18.6401C394.999 18.0671 394.994 18.0665 394.556 18.5819C393.961 19.2809 392.678 19.0536 392.626 18.2402C392.59 17.6987 392.586 17.6998 392.476 18.2728C392.413 18.5994 392.192 18.8666 391.984 18.8666C391.777 18.8666 391.607 18.9852 391.607 19.1304C391.607 19.2755 391.37 19.3942 391.079 19.3942C390.789 19.3942 390.551 19.2755 390.551 19.1304C390.551 18.9852 390.32 18.8666 390.037 18.8666C389.754 18.8666 389.401 18.6586 389.253 18.4047C389.088 18.1197 388.982 18.0752 388.977 18.2885C388.973 18.4785 388.85 18.5605 388.705 18.4708C388.56 18.3811 388.429 17.6318 388.415 16.8057C388.364 13.9492 387.967 13.8518 387.94 16.6896C387.911 19.5659 387.777 19.8088 386.617 19.0835C386.231 18.843 385.695 18.8523 384.246 19.1259C382.801 19.3983 382.219 19.4093 381.701 19.1732C380.849 18.785 377.977 18.7724 377.74 19.1569C377.63 19.3359 377.196 19.3795 376.603 19.2715C376.076 19.1757 375.126 19.1072 374.491 19.1194C373.856 19.1316 373.184 19.0146 372.997 18.8601C372.761 18.6644 372.606 18.6627 372.487 18.856C372.219 19.2896 371.82 19.1806 371.811 18.6709C371.803 18.2543 371.77 18.2501 371.481 18.6281C371.304 18.8585 371 18.9934 370.804 18.9274C370.608 18.8613 370.144 18.9698 369.772 19.1679C369.2 19.4721 369.076 19.4725 368.974 19.1687C368.872 18.865 368.818 18.865 368.626 19.1687C368.445 19.4542 368.397 19.457 368.394 19.1851C368.39 18.9951 368.28 18.907 368.147 18.9893C368.014 19.0717 367.717 18.9526 367.488 18.7223C367.155 18.39 367.067 17.6512 367.052 15.091C367.04 13.0495 366.951 12.0695 366.807 12.4048C366.682 12.6951 366.571 14.2449 366.561 15.8488C366.549 17.7421 366.432 18.8761 366.226 19.0818C365.778 19.5298 365.49 19.4748 365.469 18.9366C365.453 18.5274 365.428 18.5236 365.271 18.904C365.139 19.2188 364.94 19.2759 364.521 19.1189C364.045 18.9403 363.924 18.6282 363.795 17.2384C363.504 14.1022 363.456 13.9913 363.416 16.3752L363.375 18.7619L362.329 19.0412C361.576 19.2422 361.249 19.2389 361.163 19.0289C361.097 18.8691 361.033 18.9458 361.021 19.1998C360.993 19.8342 360.455 19.7829 360.285 19.1296C360.205 18.8246 359.962 18.6275 359.716 18.6677C359.371 18.724 359.258 18.4256 359.146 17.1545L359.006 15.571L358.789 17.0612C358.619 18.2245 358.476 18.5375 358.137 18.488C357.766 18.4342 357.691 17.9638 357.628 15.2867C357.529 11.1297 357.044 10.6142 357.039 14.6605C357.036 18.1921 356.889 19.0256 356.351 18.5793C356.071 18.3473 355.988 18.3636 355.988 18.6494C355.988 18.8814 355.665 19.0433 355.13 19.0792C354.658 19.1118 353.941 19.206 353.536 19.2904C353.131 19.3748 352.656 19.3271 352.481 19.1823C352.306 19.0384 351.865 18.8794 351.502 18.8292C350.902 18.746 350.835 18.6082 350.762 17.2864C350.643 15.1626 350.184 14.9651 350.179 17.0357C350.175 19.7372 349.278 20.3587 349.059 17.8142L348.956 16.6266L348.91 17.8719C348.87 18.9375 348.797 19.0926 348.402 18.9468C348.148 18.853 347.854 18.6492 347.747 18.4933C347.61 18.2931 347.552 18.2938 347.549 18.497C347.545 18.6552 347.189 18.7632 346.753 18.7371C346.318 18.7127 345.962 18.7861 345.962 18.9031C345.962 19.0205 345.782 19.0475 345.563 18.9631C345.343 18.8787 344.987 18.9549 344.771 19.1355C344.535 19.3316 344.379 19.3524 344.379 19.1885C344.379 19.0385 344.171 18.9467 343.917 18.985C343.552 19.0401 343.394 18.7461 343.159 17.5761L342.863 16.0978L342.795 17.4173C342.728 18.6986 342.721 18.7101 342.532 17.8133C342.376 17.074 342.33 17.0213 342.299 17.5494C342.266 18.077 342.209 18.1299 342.005 17.8133C341.791 17.4822 341.748 17.5001 341.745 17.9233C341.741 18.2014 341.652 18.3403 341.543 18.2316C341.434 18.1227 341.279 14.6887 341.199 10.6001L341.052 3.16617L340.943 10.1599L340.834 17.1536L340.685 11.8753L340.537 6.59705L340.432 12.931C340.359 17.3379 340.275 18.6628 340.158 17.2856C340.046 15.966 339.973 15.6801 339.942 16.4278C339.917 17.0448 339.775 17.5495 339.63 17.5495C339.485 17.5495 339.348 17.8761 339.327 18.2752C339.302 18.7591 339.226 18.6051 339.103 17.8134L338.918 16.6258L338.877 17.7391C338.845 18.6111 338.752 18.8196 338.442 18.7006C338.19 18.6035 338.03 18.1522 338.002 17.4553L337.957 16.3619L337.85 17.4175C337.791 17.9982 337.556 18.6801 337.328 18.9329C336.937 19.3664 336.893 19.3551 336.572 18.7356C336.384 18.3743 336.185 17.6329 336.127 17.0882C336.042 16.2728 336.016 16.3426 335.98 17.4834C335.928 19.0883 335.506 19.324 335.27 17.8793C334.983 16.1232 334.941 16.0745 334.91 17.4618C334.894 18.212 334.811 19.0061 334.726 19.2266C334.546 19.6954 333.825 19.5042 333.825 18.9876C333.825 18.7935 333.596 18.4747 333.316 18.2787C333.004 18.0601 332.766 17.5194 332.701 16.8782C332.609 15.9806 332.587 16.0379 332.541 17.2855L332.487 18.737L331.978 17.6814L331.468 16.6257L331.416 17.6814C331.368 18.6474 331.349 18.6138 331.186 17.2855L331.008 15.8339L330.966 17.3837C330.929 18.729 330.87 18.8902 330.527 18.6051C330.309 18.4244 330.116 18.38 330.096 18.5068C330.076 18.6332 329.974 18.3212 329.867 17.8133C329.681 16.9253 329.672 16.9397 329.638 18.184L329.602 19.4784L329.046 18.9757C328.741 18.6992 328.444 18.5026 328.387 18.5389C328.017 18.7726 327.752 18.5022 327.734 17.8791L327.714 17.1534L327.405 17.9451C327.143 18.6155 327.074 18.0491 326.954 14.2503L326.813 9.7638L326.756 14.439C326.704 18.7949 326.665 19.1332 326.178 19.3934C325.767 19.6136 325.55 19.5659 325.153 19.1687C324.67 18.6853 324.137 18.6777 322.347 19.128C321.762 19.2752 321.423 19.1076 321.419 18.6701C321.416 18.3741 321.346 18.317 321.222 18.511C321.115 18.6774 320.731 18.8556 320.368 18.907L319.709 19.0004L319.57 11.6108L319.432 4.22118L319.373 11.5604C319.332 16.3712 319.222 18.8433 319.049 18.7364C318.904 18.6467 318.785 18.7568 318.785 18.9847C318.785 19.4708 318.267 19.5479 318.237 19.0663C318.221 18.8139 318.184 18.8163 318.079 19.0785C317.967 19.357 317.867 19.357 317.532 19.0785C317.306 18.891 317.08 18.7674 317.03 18.8037C316.98 18.8404 316.645 18.8698 316.287 18.8698C315.848 18.8698 315.508 18.6333 315.242 18.144L314.849 17.4182L314.82 18.0781C314.792 18.6849 314.773 18.6954 314.564 18.2101C314.348 17.7064 314.337 17.7095 314.319 18.2762C314.298 18.8506 313.773 19.1546 313.773 18.5906C313.773 18.4368 313.659 18.3814 313.52 18.4674C313.37 18.56 313.231 17.7892 313.177 16.5696L313.087 14.5157L313.034 16.9569C312.992 18.8819 312.9 19.3981 312.6 19.3981C312.391 19.3981 312.143 19.2729 312.049 19.1204C311.954 18.9675 311.739 18.8921 311.571 18.9528C311.403 19.0132 311.058 18.9566 310.804 18.8256C310.483 18.6604 310.333 18.6914 310.311 18.9271C310.295 19.1135 310.189 18.9108 310.078 18.4746L309.877 17.6828L309.844 18.4011C309.816 19.0803 309.753 19.1143 308.702 19.0252C308.091 18.9735 307.548 18.803 307.496 18.6464C307.402 18.3635 307.314 18.3908 305.802 19.1704C305.432 19.3608 305.188 19.3751 305.133 19.2071C305.085 19.0632 304.753 19.0016 304.395 19.0697C303.896 19.1651 303.74 19.0779 303.724 18.7015C303.712 18.4234 303.645 18.3525 303.57 18.5388C303.382 19.0052 302.704 18.9487 302.513 18.4508C302.384 18.1144 302.309 18.1013 302.129 18.3847C301.988 18.6073 301.891 18.251 301.865 17.4171C301.828 16.2127 301.809 16.1782 301.663 17.0212C301.453 18.2298 301.093 18.7974 300.464 18.9095C299.744 19.0379 299.533 17.9858 299.287 13.0625L299.083 8.97184L299.019 14.1181C298.982 16.9486 298.915 19.1457 298.867 19.0006C298.818 18.8554 298.687 18.3804 298.574 17.9449L298.37 17.1531L298.217 18.2088L298.064 19.2645L297.695 18.6056C297.491 18.2431 297.244 16.9369 297.144 15.7025C297.045 14.4682 296.946 13.686 296.924 13.9642C296.904 14.2423 296.796 14.3812 296.688 14.2728C296.579 14.1644 296.425 11.2052 296.346 7.69698L296.203 1.31851L296.147 8.57614C296.114 12.5678 296.015 16.6347 295.922 17.6137C295.776 19.1642 295.709 19.3342 295.405 18.9332C295.213 18.68 295.052 18.2057 295.047 17.8791C295.043 17.5525 294.92 17.2853 294.774 17.2853C294.629 17.2853 294.511 17.5752 294.511 17.9295C294.511 18.2838 294.385 18.6513 294.232 18.7461C293.775 19.0286 292.712 18.6397 292.582 18.1428C292.515 17.8888 292.447 18.1224 292.431 18.6626C292.406 19.4195 292.31 19.6092 292.004 19.4921C291.787 19.4085 291.609 19.1239 291.609 18.8598C291.609 18.4798 291.443 18.4003 290.817 18.4798C290.382 18.5348 290.01 18.556 289.991 18.5266C289.971 18.4981 289.875 16.6918 289.774 14.5145L289.591 10.5558L289.545 14.7313C289.508 18.1877 289.424 18.9805 289.07 19.3348C288.7 19.7051 288.602 19.7116 288.343 19.3821C288.179 19.1725 287.868 18.9617 287.651 18.9135C286.873 18.7406 286.596 18.2575 286.596 17.0775C286.596 15.53 286.327 15.8049 286.107 17.5769C285.959 18.7724 285.855 18.9641 285.331 19.0023C284.999 19.0268 284.661 18.9404 284.581 18.8103C284.5 18.6802 284.294 18.7659 284.122 19.0011C283.884 19.3265 283.655 19.371 283.158 19.1867C282.799 19.0537 281.675 19.0032 280.66 19.0745C279.644 19.1455 278.219 19.1944 277.494 19.1834C276.768 19.1712 274.215 19.1711 271.821 19.1828C266.581 19.2073 266.621 19.2073 265.592 18.9924L264.771 18.8203L264.514 15.7439L264.257 12.6674L264.213 15.9089C264.172 19.0072 264.144 19.1605 263.576 19.3802C263.164 19.5396 262.788 19.4862 262.346 19.2056C261.848 18.8892 261.331 18.8432 259.972 18.9936C257.951 19.2171 256.057 19.2122 254.474 18.9773C253.672 18.8595 253.353 18.9047 253.353 19.1376C253.353 19.4605 252.208 19.4042 249.967 18.9716C249.426 18.8668 248.835 18.939 248.429 19.1551C247.866 19.4564 247.591 19.4442 246.558 19.0727C245.498 18.6915 245.28 18.6846 244.806 19.0165C244.126 19.4935 243.218 19.5042 242.832 19.0409C242.603 18.7645 242.199 18.738 241.029 18.9215C240.199 19.0515 239.1 19.1229 238.587 19.0796L237.655 19.001L237.502 17.2855L237.35 15.5701L237.304 17.2195C237.261 18.7799 237.224 18.869 236.615 18.869C236.26 18.869 235.897 18.9876 235.807 19.1328C235.507 19.62 234.884 19.4039 234.858 18.8029C234.833 18.2373 234.821 18.2404 234.649 18.8661C234.524 19.3134 234.401 19.4188 234.263 19.196C234.152 19.0162 233.844 18.8686 233.578 18.8686C233.282 18.8686 233.03 18.6125 232.929 18.2088C232.837 17.8459 232.647 17.549 232.504 17.549C232.352 17.549 232.231 16.2758 232.211 14.448C232.191 12.7425 232.1 10.4564 232.005 9.36772C231.865 7.75803 231.791 8.48503 231.61 13.2604C231.487 16.4901 231.283 19.1325 231.157 19.1325C231.03 19.1325 230.9 17.1432 230.868 14.7119L230.809 10.2914L230.729 14.6396C230.685 17.0311 230.533 19.1035 230.392 19.2449C230.226 19.4117 230.135 19.364 230.135 19.1091C230.135 18.8547 229.882 18.7197 229.416 18.7267C228.827 18.7348 228.665 18.5929 228.524 17.9453L228.351 17.1536L228.314 17.9453C228.286 18.559 228.221 18.648 228.023 18.3412C227.814 18.0171 227.767 18.046 227.763 18.5027C227.76 18.9541 227.634 19.036 227.1 18.9338C226.737 18.8645 226.424 18.7324 226.404 18.6406C226.383 18.5489 226.287 14.5543 226.19 9.76432L226.013 1.05515L225.932 8.31281C225.886 12.3449 225.76 15.2186 225.649 14.7787C225.498 14.1875 225.439 14.1296 225.416 14.5504C225.4 14.8602 225.211 15.5134 224.999 16.0019C224.617 16.8817 224.614 16.871 224.604 14.8445C224.6 13.7153 224.479 12.7992 224.339 12.7992C224.199 12.7992 224.046 11.6414 223.998 10.2261C223.951 8.81083 223.875 10.147 223.83 13.1951C223.782 16.4647 223.662 18.4667 223.538 18.0775C223.335 17.4445 223.325 17.4418 223.3 18.0114C223.267 18.707 222.76 18.8218 222.715 18.1436C222.687 17.7223 222.674 17.721 222.567 18.1273C222.499 18.387 222.29 18.5134 222.07 18.429C221.858 18.3478 221.683 18.4412 221.673 18.6414C221.665 18.8384 221.49 18.4057 221.289 17.68C221.077 16.9166 220.91 14.9698 220.892 13.0615C220.843 7.6147 220.414 8.14437 220.359 13.7213C220.33 16.6467 220.225 18.4058 220.108 17.9439L219.907 17.1521L219.874 17.9307C219.849 18.5144 219.767 18.6338 219.541 18.4078C219.336 18.2023 219.182 15.3953 219.058 9.57988L218.876 1.05341L218.832 10.0925C218.789 18.8487 218.771 19.1315 218.275 19.1315C217.994 19.1315 217.695 19.0206 217.611 18.8852C217.283 18.3545 216.882 15.9733 216.696 13.4574L216.501 10.8182L216.457 14.9466C216.42 18.2147 216.335 19.1046 216.043 19.217C215.839 19.2953 215.602 19.288 215.515 19.2007C215.428 19.1139 215.332 17.3704 215.3 15.3262L215.243 11.6094L215.17 14.9083C215.083 18.8008 214.957 19.5649 214.467 19.158C214.279 19.0022 213.571 18.8538 212.894 18.8281C211.77 18.7857 211.66 18.7229 211.624 18.0986C211.587 17.4649 211.575 17.4728 211.452 18.2075L211.32 18.9992L210.984 17.9436L210.649 16.8879L210.628 17.9791L210.608 19.0703H209.286C208.558 19.0703 207.876 18.9353 207.771 18.771C207.665 18.6063 207.51 15.9182 207.426 12.7974L207.274 7.12325L207.226 12.3026C207.173 17.9851 207.037 19.2348 206.491 19.0253C206.298 18.9511 206.07 19.0009 205.986 19.1391C205.827 19.3956 205.325 19.3556 204.408 19.0135C204.118 18.9051 203.732 18.7721 203.55 18.7183C203.309 18.6462 203.206 17.5722 203.166 14.719L203.111 10.8179L202.967 14.6447C202.762 20.1534 202.448 18.2719 202.373 11.0819L202.31 5.01186L202.171 12.2695C202.06 18.1388 201.973 19.4009 201.72 18.8673L201.407 18.2075L201.391 18.9333C201.374 19.6368 201.358 19.6442 200.891 19.1759C200.559 18.8448 200.103 18.7166 199.44 18.769C198.674 18.8293 198.471 18.7486 198.468 18.3947C198.464 18.0249 198.421 18.0114 198.226 18.3201C198.047 18.603 197.96 18.5048 197.874 17.9242C197.773 17.2409 197.755 17.2649 197.72 18.1337C197.688 18.9496 197.603 19.0864 197.219 18.9447C196.554 18.6992 196.376 18.3432 196.321 17.1523C196.284 16.3125 196.241 16.4204 196.119 17.6801C195.973 19.1909 195.932 19.2649 195.231 19.2904C194.814 19.3067 194.391 19.135 194.25 18.8945C194.114 18.662 193.999 18.5756 193.995 18.702C193.991 18.8284 193.809 18.7844 193.591 18.6038C193.358 18.4101 193.194 17.8279 193.191 17.1859C193.188 16.3854 193.119 16.2016 192.932 16.4925C192.791 16.7102 192.674 17.2743 192.672 17.7461C192.668 18.8318 192.18 18.866 191.966 17.7954C191.779 16.8598 191.44 17.0626 191.277 18.2077C191.192 18.8066 191.153 18.7101 191.121 17.8118C191.055 16.0147 190.654 15.6624 190.5 17.2662C190.354 18.7809 190.23 19.0007 189.646 18.7764C189.34 18.659 189.229 18.1741 189.199 16.8304C189.162 15.1334 189.15 15.1022 188.975 16.2283C188.873 16.8815 188.75 13.7937 188.7 9.36657L188.611 1.31721L188.434 9.10265C188.225 18.3215 188.149 19.45 187.92 16.7562L187.751 14.7768L187.703 16.9385C187.679 18.1275 187.537 19.1736 187.392 19.2633C187.247 19.353 187.126 19.2115 187.124 18.949C187.122 18.6864 187.014 18.3038 186.884 18.0989C186.687 17.7873 186.568 17.8061 186.162 18.2143C185.69 18.689 185.674 18.6864 185.592 18.1213C185.545 17.8016 185.397 17.6084 185.262 17.6917C185.127 17.7748 185.004 17.5689 184.989 17.2337C184.973 16.8806 184.855 17.0963 184.71 17.746C184.501 18.6774 184.353 18.8676 183.837 18.8676C183.495 18.8676 183.155 18.7192 183.081 18.5377C183.002 18.3408 182.94 18.3938 182.928 18.6698C182.907 19.1485 182.115 19.3377 182.115 18.8643C182.115 18.7081 181.715 18.764 181.154 18.9989C180.345 19.3369 179.948 19.3504 178.657 19.0837C177.686 18.8831 177.081 18.6154 177.011 18.3555C176.934 18.0696 176.891 18.1055 176.869 18.4721C176.826 19.1933 175.145 19.3494 174.748 18.669C174.499 18.2417 174.479 18.2449 174.472 18.7143C174.468 18.9924 174.375 19.1312 174.266 19.0225C174.157 18.9137 174.002 15.3015 173.921 10.9952L173.773 3.16548L173.664 10.4231L173.555 17.6808L173.409 11.2148L173.263 4.74896L173.204 12.0726C173.172 16.1006 173.047 19.3962 172.926 19.3962C172.547 19.3962 172.115 18.2669 171.866 16.6251L171.626 15.0416L171.593 16.9372C171.557 19.1552 171.61 19.1155 168.618 19.0888C167.507 19.0806 166.476 19.1458 166.328 19.238C166.179 19.3297 165.983 19.2845 165.892 19.1369C165.801 18.9893 165.394 18.8686 164.988 18.8686C164.388 18.8686 164.199 18.7083 163.976 18.0108L163.7 17.1531L163.672 18.2747C163.647 19.2661 163.574 19.3964 163.029 19.3964C162.691 19.3964 162.333 19.3161 162.235 19.2174C161.998 18.9809 156.206 19.0152 154.606 19.2627C153.78 19.3907 153.226 19.354 152.987 19.155C152.74 18.9507 152.293 18.9263 151.604 19.08C151.044 19.2048 150.247 19.2153 149.835 19.1044C149.422 18.9927 148.828 18.9927 148.515 19.1041C148.203 19.2154 146.997 19.2632 145.836 19.2101C144.675 19.1571 143.607 19.1135 143.462 19.1127C143.317 19.1122 142.664 19.1121 142.011 19.1125C141.358 19.1129 139.755 19.1043 138.449 19.0921C136.216 19.0717 135.183 19.1838 134.662 19.5061C134.539 19.582 134.182 19.3479 133.867 18.9863C133.388 18.4355 133.207 18.3761 132.75 18.621C132.449 18.7816 132.125 18.8346 132.028 18.7388C131.932 18.643 131.793 16.8221 131.719 14.6927L131.584 10.8212L131.356 14.8184C131.141 18.6021 131.097 18.83 130.534 19.0866C130.147 19.2627 129.849 19.2676 129.682 19.0988C129.468 18.8847 128.834 18.7319 127.707 18.6234C127.603 18.6153 127.48 17.3879 127.432 15.9001L127.347 13.195L127.291 16.0228C127.241 18.5488 127.179 18.8807 126.708 19.1331C126.312 19.3447 126.18 19.3337 126.18 19.0894C126.18 18.8574 126.098 18.8452 125.897 19.0462C125.483 19.4608 124.345 18.8627 124.305 18.2091L124.272 17.6813L124.145 18.2091C123.979 18.8998 123.543 19.3639 123.538 18.8557C123.534 18.5226 123.501 18.5225 123.293 18.8538C123.096 19.1657 122.926 19.1772 122.354 18.9166C121.97 18.7417 121.546 18.6663 121.411 18.749C121.277 18.8322 121.158 18.745 121.146 18.5545C121.13 18.2887 121.095 18.2854 120.992 18.5382C120.919 18.7197 120.691 18.8681 120.485 18.8681C120.179 18.8681 120.105 18.0682 120.075 14.4475C120.055 12.0162 119.958 8.06739 119.86 5.67238C119.7 1.80146 119.675 2.26309 119.632 9.82903C119.604 14.8437 119.484 18.3403 119.339 18.3403C119.205 18.3403 119.057 18.5156 119.01 18.7292C118.953 18.9873 118.803 19.042 118.562 18.8915C118.297 18.7256 118.149 17.6169 118.01 14.7418L117.819 10.8187L117.778 14.9753C117.754 17.2614 117.683 19.1319 117.618 19.1319C117.552 19.1319 117.2 18.9957 116.835 18.8294C116.195 18.5378 116.168 18.4253 116.087 15.7284L116.002 12.9298L115.946 16.0308C115.895 18.8738 115.699 19.6255 115.213 18.8397C115.085 18.6318 114.975 18.6415 114.831 18.8723C114.705 19.0766 114.496 19.1121 114.271 18.9682C113.764 18.644 112.73 18.6562 112.693 18.9885C112.676 19.1402 112.514 18.4333 112.333 17.4173L112.004 15.5699L111.967 17.3357C111.931 19.2333 111.718 19.5833 110.882 19.1356C110.462 18.911 110.339 18.5581 110.306 17.474L110.263 16.0977L110.108 17.4173C109.996 18.3697 109.843 18.727 109.557 18.7013C109.34 18.6809 109.013 18.652 108.832 18.6353C108.65 18.619 108.486 18.2781 108.466 17.879C108.429 17.1679 108.429 17.1667 108.312 17.813C108.021 19.4332 107.017 18.8684 106.85 16.991C106.757 15.943 106.743 15.977 106.701 17.3511C106.658 18.7815 106.618 18.8686 105.996 18.8686C105.633 18.8686 105.333 19.017 105.328 19.1984C105.324 19.3815 105.201 19.3228 105.051 19.0663C104.903 18.8123 104.619 18.6045 104.418 18.6045C104.218 18.6045 104.002 18.3374 103.94 18.0107C103.845 17.5164 103.819 17.5422 103.789 18.1648C103.745 19.0769 103.128 18.9896 103.02 18.0559C102.814 16.277 102.584 16.1186 102.444 17.66C102.288 19.3812 101.843 19.8282 101.426 18.6835C101.259 18.2256 101.149 18.1202 101.136 18.4062C101.111 18.9819 100.698 19.0099 100.484 18.4506C100.395 18.2211 100.31 16.9443 100.293 15.6135C100.269 13.6125 100.225 13.3765 100.045 14.2496C99.9243 14.8302 99.8036 16.0772 99.7759 17.0207L99.7254 18.7361L99.5199 17.4166C99.407 16.6908 99.2872 15.2062 99.2538 14.1176L99.193 12.1383L98.9725 14.5135C98.8514 15.8199 98.6427 17.3044 98.5094 17.8124L98.2669 18.7361L98.2384 17.6301C98.2017 16.1772 97.6837 15.8392 97.6837 17.2692C97.6837 18.0455 97.5748 18.3404 97.2879 18.3404C97.0702 18.3404 96.8921 18.4591 96.8921 18.6042C96.8921 19.0724 96.3653 18.8843 96.3381 18.4061C96.3218 18.1047 96.2423 18.1732 96.1123 18.6042L95.9126 19.264L95.7508 18.6042C95.6619 18.2413 95.5555 17.6476 95.5151 17.2847C95.4438 16.6474 95.4267 16.6551 95.0119 17.5097C94.3446 18.8845 94.1396 18.1379 93.9715 13.7219L93.8206 9.76324L93.7305 13.9858C93.6674 16.9457 93.5899 17.7744 93.4717 16.7569L93.3034 15.3054L93.1652 16.493C93.0845 17.1889 92.9895 16.2602 92.9361 14.2497L92.8448 10.8188L92.6593 13.7219C92.5574 15.3186 92.4404 16.9812 92.3997 17.4167C92.2562 18.945 91.9314 13.6769 91.9036 9.36732C91.871 4.45608 91.648 1.44995 91.3135 1.44995C91.1896 1.44995 91.0877 5.35632 91.0877 10.1308C91.0877 17.5641 91.0314 18.8334 90.6959 18.9622C90.2509 19.133 89.7865 18.4273 89.7338 17.5001C89.7093 17.0711 89.6409 17.1645 89.5047 17.8128C89.3433 18.5793 89.3009 18.6243 89.2549 18.0766L89.1994 17.4168L88.9345 18.1426C88.6475 18.9286 88.1857 19.1224 88.1857 18.457C88.1857 18.2307 88.0745 18.1144 87.9383 18.1984C87.8022 18.2824 87.644 17.9036 87.587 17.3563C87.5095 16.6112 87.472 16.7426 87.4386 17.8786C87.3946 19.3824 87.3897 19.3914 86.8805 18.8822C86.598 18.5996 86.2172 17.8573 86.0344 17.2327L85.7022 16.0971L85.5326 17.2848C85.3912 18.2741 85.3484 18.0758 85.2742 16.0971L85.1853 13.7219L85.0321 15.9652C84.9294 17.4677 84.8279 17.947 84.7251 17.4167C84.5894 16.7188 84.5666 16.7579 84.5319 17.7466C84.4895 18.9472 84.4871 18.9508 83.8544 18.708C83.4932 18.5694 83.4295 17.7438 83.3806 12.572L83.3243 6.59621L83.1735 11.2147C83.0903 13.7549 82.9791 15.2988 82.9253 14.6456C82.8482 13.7055 82.7928 13.9152 82.6603 15.6515C82.5682 16.8579 82.3668 17.9267 82.2131 18.0267C82.0594 18.1266 81.8658 18.3867 81.7828 18.6043C81.6732 18.8926 81.6255 18.8567 81.6075 18.4722C81.5872 18.0416 81.5374 18.016 81.3373 18.3328C80.935 18.9692 80.8143 18.2655 80.7277 14.7774L80.649 11.6104L80.5924 15.2715C80.5426 18.492 80.488 18.8931 80.1399 18.6041C79.8211 18.3394 79.7392 18.346 79.7178 18.6367C79.7015 18.8361 79.5964 18.7019 79.4802 18.339C79.2711 17.6856 79.2686 17.6852 79.2425 18.2909C79.2222 18.7781 79.1088 18.8685 78.6886 18.735C78.3984 18.6428 78.1609 18.6836 78.1609 18.8255C78.1609 19.1529 74.4395 19.1586 74.0364 18.8337C73.8415 18.6759 73.6813 18.7374 73.5765 19.0106C73.2529 19.8546 72.8843 19.06 72.8843 17.5179C72.8843 15.5542 72.3703 15.6579 72.3254 17.6305C72.2969 18.8072 72.2659 18.8887 72.0927 18.2087L71.8913 17.417L71.8546 18.3407C71.8261 19.0405 71.7572 19.1684 71.5636 18.8685C71.3818 18.5868 71.3068 18.5713 71.3039 18.8139C71.2998 19.1984 70.4803 19.1417 70.1826 18.7364C70.0758 18.5913 69.9731 17.76 69.9535 16.889L69.9168 15.3055L69.5879 17.1529C69.3282 18.6126 69.2451 18.8065 69.1921 18.0767L69.1252 17.1529L68.9239 17.9447C68.7877 18.4804 68.7009 17.7975 68.6561 15.8334C68.6194 14.2367 68.5089 10.1394 68.4099 6.72836L68.2301 0.526367L68.1812 9.67402C68.131 19.0797 68.1249 19.1292 67.1429 18.5155C66.9192 18.3756 66.8132 18.4829 66.8132 18.8527C66.8132 19.1516 66.6946 19.3961 66.5494 19.3961C66.4043 19.3961 66.2857 19.2774 66.2857 19.1323C66.2857 18.9871 65.8108 18.8685 65.2304 18.8685C64.65 18.8685 64.1751 18.7518 64.1751 18.6091C64.1751 18.4664 63.756 18.5847 63.2437 18.8729C62.7314 19.1608 62.2565 19.3963 62.1883 19.3963C62.1203 19.3963 62.0465 19.0101 62.0249 18.5385C61.9882 17.7402 61.9776 17.7311 61.8753 18.4064C61.7298 19.3679 61.2994 19.3313 61.1012 18.3404C60.9097 17.3815 60.4813 17.2903 60.4813 18.2083C60.4813 19.359 59.9927 18.9196 59.8211 17.6145C59.55 15.5541 59.4889 15.4873 59.4567 17.2186C59.4281 18.8266 59.4078 18.8688 58.7005 18.8993C58.3014 18.9156 57.8266 18.9115 57.6452 18.887C57.4638 18.8626 57.3154 18.9682 57.3154 19.1199C57.3154 19.5085 55.8524 19.464 55.5302 19.0656C55.1303 18.5714 54.884 15.483 54.6828 8.44309L54.5018 2.10916L54.4573 10.6297C54.4137 19.0618 54.4076 19.1473 53.8855 18.8677C53.5398 18.6826 53.3578 18.3151 53.3578 17.8028C53.3578 16.7352 52.838 16.8052 52.799 17.8778L52.7663 18.7355L52.565 17.9438L52.3636 17.152L52.3012 17.9438L52.2389 18.7355L52.0502 17.9438L51.8614 17.152L51.6556 18.1446C51.2903 19.9066 50.909 19.635 50.6322 17.4159C50.5511 16.768 50.5254 16.816 50.4899 17.6797C50.4573 18.4673 50.3815 18.6348 50.1907 18.3395C50.0203 18.0757 49.9335 18.0537 49.9311 18.2735C49.9292 18.4549 49.8084 18.6033 49.6633 18.6033C49.5181 18.6033 49.3796 18.158 49.3551 17.6137L49.3107 16.624L49.2063 17.6265C49.1256 18.4034 48.9536 18.6856 48.442 18.8801C48.0788 19.018 47.7303 19.1313 47.6672 19.1313C47.604 19.1313 47.5323 18.5672 47.5082 17.8777C47.4674 16.7308 47.4548 16.7083 47.3607 17.6127C47.2791 18.3911 47.1234 18.6349 46.6285 18.7592C46.2829 18.846 45.8611 18.8314 45.6915 18.7266C45.5219 18.6218 45.2795 18.698 45.1529 18.8994C44.9858 19.1637 44.9205 19.0825 44.9144 18.6034C44.9103 18.0799 44.8537 18.0254 44.6507 18.3396C44.4689 18.6205 44.3804 18.2377 44.3442 17.02L44.2936 15.3046L44.1342 17.152C43.9871 18.8579 43.8045 19.0122 43.5096 17.6798C43.4451 17.3895 43.3791 17.5975 43.3624 18.1417C43.3298 19.1574 42.9854 19.4563 42.7005 18.7139C42.6124 18.4843 42.5256 17.3263 42.5073 16.1407C42.4787 14.1959 42.4535 14.1012 42.2631 15.1726C42.1469 15.8258 42.043 16.9784 42.0324 17.7339C42.012 19.0698 41.9892 19.1117 41.1554 19.2657C40.6701 19.3554 39.8398 19.262 39.2426 19.0497C38.3474 18.732 38.0071 18.7292 37 19.0293C35.305 19.5374 34.9668 19.4849 34.6683 18.6676C34.5012 18.2103 34.3956 18.1127 34.3826 18.4038C34.3663 18.7341 34.1408 18.8656 33.5858 18.8656C33.159 18.8656 32.7365 18.9843 32.6468 19.1295C32.4353 19.4716 31.2752 19.4716 31.0638 19.1295C30.8421 18.7706 29.1605 18.7939 28.9349 19.158C28.8122 19.3561 28.3154 19.3851 27.4023 19.2465C25.4877 18.9561 23.1743 18.9068 21.9521 19.1303C21.2477 19.2591 20.8995 19.2257 20.8854 19.0271C20.8732 18.8477 20.8129 18.8615 20.7318 19.0638C20.5744 19.454 19.0597 19.5137 19.0597 19.1299C19.0597 18.8028 17.7427 18.789 17.2345 19.1094C16.9919 19.2632 16.6436 19.2045 16.245 18.9431C15.9067 18.7213 15.6298 18.6614 15.6298 18.8094C15.6298 18.9578 15.4056 19.0202 15.132 18.9488C14.8581 18.877 14.5543 18.9478 14.4568 19.1054C14.2306 19.4715 12.5499 19.4809 12.3253 19.1176C12.232 18.9664 11.9552 18.9068 11.7101 18.9847C11.4651 19.0626 10.883 19.0173 10.4167 18.8828C9.86349 18.7242 9.51098 18.7331 9.40239 18.9072C9.31068 19.0552 8.95312 19.1225 8.60734 19.0565C8.21235 18.981 7.9787 19.0602 7.9787 19.2709C7.9787 19.6534 7.24515 19.5404 5.934 18.9566L5.07654 18.5745L5.05616 16.0137C5.04393 14.3373 4.95914 13.6352 4.81077 13.9808C4.68604 14.2711 4.57557 15.518 4.56579 16.7518L4.5454 18.9951L3.26704 18.9062C2.04602 18.8214 1.97651 18.7741 1.71723 17.8506L1.44575 16.8836L1.41314 18.1372C1.38461 19.2037 1.30104 19.3908 0.852134 19.3908C0.561909 19.3908 0.324432 19.5233 0.324432 19.6856C0.324432 19.8503 0.55718 19.9192 0.852134 19.8422C1.29318 19.7268 1.38526 19.8412 1.41314 20.5371L1.44575 21.3702L1.72293 20.3794C1.9887 19.4293 2.03884 19.3944 2.94282 19.5294C3.46127 19.6068 4.03381 19.6863 4.2152 19.7063C4.46018 19.7349 4.54619 20.631 4.54904 23.1955C4.55092 25.0946 4.66806 26.8266 4.80869 27.0443C4.9807 27.3105 5.0659 26.2456 5.06835 23.7939C5.0721 19.9282 5.29254 18.9582 6.06962 19.3764C6.83187 19.7864 8.23839 20.1668 8.23839 19.9627C8.23839 19.6761 9.79884 19.1408 9.94493 19.3772C10.0142 19.4893 11.5647 19.5945 13.3907 19.6112C15.2167 19.6275 16.8306 19.716 16.9773 19.8066C17.1236 19.8975 17.4052 19.7515 17.6024 19.4832C17.9473 19.0135 17.9913 19.0127 18.7579 19.4628C19.36 19.8167 19.8645 19.8918 20.8222 19.7699C22.3384 19.577 24.8482 19.5439 27.3435 19.6838C28.6437 19.7568 29.1994 19.692 29.2783 19.4563C29.4169 19.0431 30.6642 19.0178 30.6642 19.4278C30.6642 19.6418 31.201 19.6797 32.511 19.5578C34.3012 19.3915 34.3581 19.4045 34.3658 19.9818C34.374 20.5133 34.4025 20.5277 34.6426 20.1155C34.8322 19.7901 35.2432 19.6536 36.0329 19.6536C36.6497 19.6536 37.2943 19.5138 37.4655 19.3421C37.7048 19.1028 37.9406 19.1183 38.4836 19.4082C38.8761 19.6178 39.8171 19.7703 40.5996 19.7511L42.0088 19.7185L42.0545 23.9754L42.1001 28.2323L42.2836 25.1973C42.3842 23.5281 42.4825 21.5883 42.5016 20.8867C42.5538 18.9743 43.1601 19.4302 43.3483 21.5232L43.5007 23.218L43.5464 21.289C43.6022 18.9249 44.0996 18.9499 44.1639 21.3216L44.2083 22.9555L44.3836 21.372C44.4798 20.5011 44.5948 20.0854 44.6392 20.4483C44.7191 21.105 44.7199 21.1052 44.8365 20.494C44.9078 20.1201 45.0896 19.9323 45.3022 20.0139C45.5028 20.091 45.7258 19.9034 45.8271 19.5722C45.9864 19.0518 46.0513 19.0977 46.5058 20.0523C46.9581 21.0026 47.0134 21.0421 47.0595 20.4483C47.0881 20.0854 47.1896 20.5013 47.2858 21.372L47.4606 22.9554L47.5051 21.306C47.5458 19.8472 47.6102 19.6565 48.0771 19.6565C48.3702 19.6565 48.6048 19.8326 48.6048 20.0524C48.6048 20.2701 48.7164 20.4483 48.8526 20.4483C48.9891 20.4483 49.1469 20.8937 49.204 21.438C49.2997 22.3566 49.3108 22.3388 49.3519 21.1897C49.3764 20.5088 49.4909 19.8931 49.6067 19.8216C49.9629 19.6014 50.3922 20.0193 50.5209 20.7123C50.6416 21.3607 50.644 21.3596 50.6795 20.6463C50.7439 19.3481 51.4432 19.7919 51.7193 21.306L51.972 22.6916L52.038 21.372C52.102 20.0924 52.1102 20.0804 52.2985 20.9761L52.493 21.8998L52.5765 20.7122C52.6385 19.8373 52.7041 20.1152 52.826 21.7678C52.9662 23.6695 52.9988 23.786 53.0408 22.533C53.1036 20.6476 53.5297 19.3754 54.0336 19.5688C54.3426 19.6875 54.4163 20.8435 54.4492 26.0847L54.49 32.4563L54.6917 27.8379C54.9485 21.958 55.1025 20.1758 55.3771 19.9109C55.4981 19.7943 56.1314 19.6687 56.7844 19.632C57.4375 19.5953 58.1745 19.4657 58.4223 19.3438C59.1489 18.9862 59.4178 19.8882 59.4744 22.8722L59.5262 25.5946L59.6725 22.8446C59.8176 20.1159 60.1999 19.1839 60.6344 20.4997L60.8353 21.1081L60.9939 20.4679C61.3041 19.2154 61.7953 19.5363 61.839 21.0201L61.8805 22.4277L62.0371 21.1081C62.1793 19.9104 62.2604 19.7808 62.919 19.705C63.4727 19.6414 63.6466 19.7336 63.653 20.1009C63.6611 20.5276 63.697 20.535 63.9827 20.1682C64.3985 19.6349 65.2275 19.3213 65.2275 19.6973C65.2275 19.8983 65.3278 19.9024 65.5581 19.7095C66.095 19.2638 66.8067 19.9835 66.8382 21.0041L66.8667 21.8987L67.1884 20.8585C67.3653 20.2865 67.6496 19.7718 67.8202 19.7149C68.053 19.6374 68.1427 21.5847 68.1789 27.4848L68.227 35.3583L68.4076 30.212C68.5071 27.3815 68.62 23.7593 68.6591 22.1626C68.6999 20.5659 68.7879 19.5564 68.8589 19.9193C68.9783 20.532 69.0019 20.5414 69.189 20.0514C69.3345 19.6702 69.4536 19.9997 69.6172 21.239L69.8438 22.9545L69.9763 21.3903C70.108 19.8387 70.1157 19.8258 70.9663 19.7873C71.7144 19.7547 71.8277 19.835 71.855 20.4277C71.8836 21.0782 71.8958 21.0735 72.0878 20.3152C72.2463 19.6923 72.2969 19.8893 72.3246 21.2389C72.3662 23.2569 72.8688 22.9558 72.8754 20.909C72.8792 19.9725 72.9798 19.6555 73.2753 19.6555C73.493 19.6555 73.6727 19.8039 73.6752 19.9853C73.6789 20.241 73.7277 20.2386 73.8953 19.9731C74.0441 19.7383 74.7048 19.6477 76.0243 19.6808C77.6987 19.7232 77.9654 19.7986 78.162 20.2852C78.3842 20.8354 78.387 20.835 78.4033 20.2485C78.4115 19.9174 78.5872 19.6547 78.7975 19.6547C79.005 19.6547 79.2246 19.9218 79.2853 20.2485C79.3811 20.7639 79.4222 20.7307 79.5979 19.9965C79.7703 19.2761 79.8547 19.2048 80.1655 19.5158C80.4321 19.7825 80.5458 20.7955 80.5862 23.2648L80.6421 26.6486L80.7277 23.9435C80.8051 21.5 81.046 20.6623 81.4115 21.5683C81.4849 21.7497 81.5623 21.4822 81.5839 20.9744C81.6165 20.21 81.6626 20.1417 81.8501 20.5785L82.0767 21.1064L82.1264 20.5785C82.2263 19.518 82.5787 21.6258 82.6557 23.7455L82.7328 25.8568L82.9056 24.1414C83.0336 22.8702 83.1053 23.6904 83.1828 27.3083L83.2875 32.1907L83.4266 25.6113C83.559 19.3449 83.5871 19.0539 84.0271 19.4941C84.3227 19.7902 84.5001 20.4008 84.5201 21.1912C84.5486 22.3007 84.5718 22.3457 84.7528 21.6342C84.9057 21.0341 84.9741 21.3536 85.0361 22.9537L85.1176 25.0651L85.2807 22.5578C85.3961 20.7821 85.458 20.4703 85.4939 21.489C85.5591 23.3452 86.0415 22.9597 86.256 20.88C86.4888 18.6238 87.1332 18.9695 87.4156 21.5022L87.5774 22.9537L87.6475 21.6342C87.7103 20.4523 87.7384 20.3973 87.919 21.1064L88.1204 21.8981L88.153 20.924C88.1856 19.8954 88.6292 19.358 88.9785 19.9232C89.1309 20.1703 89.2202 20.1267 89.314 19.7593C89.3845 19.484 89.4685 19.8531 89.5007 20.5787L89.5593 21.8983L89.8096 20.7815C90.046 19.7252 90.4455 19.4537 90.8841 20.0509C90.9909 20.1961 91.0813 24.0557 91.0854 28.6281C91.0936 36.9424 91.266 39.5244 91.6515 37.0733C91.7542 36.4201 91.8554 32.6198 91.8761 28.6281L91.8966 28.6214Z" fill="black"/>
</svg>
