<svg width="464" height="39" viewBox="0 0 464 39" fill="none" xmlns="http://www.w3.org/2000/svg">
<path d="M0.73453 20.1029C0.877604 20.1914 0.994998 20.663 0.994998 21.1505C0.994998 21.6382 1.0753 22.2468 1.17394 22.5033C1.31172 22.8629 1.42625 22.732 1.67396 21.9311C1.98824 20.9145 1.9964 20.94 2.06284 23.1359L2.13092 25.3792L2.38649 22.4761C2.52711 20.8794 2.68772 19.523 2.74316 19.462C2.79859 19.4008 3.1251 19.6153 3.46868 19.9382C4.02329 20.4594 4.11234 20.4762 4.26133 20.0879C4.35386 19.8473 4.59192 19.7127 4.79055 19.789C4.98947 19.8652 5.28515 19.793 5.44795 19.6316C5.66684 19.4126 5.74389 19.4611 5.74389 19.8162C5.74389 20.2242 5.80707 20.2449 6.15974 19.9521C6.50418 19.6659 6.61664 19.672 6.81528 19.9847C6.94694 20.1931 7.0843 20.2448 7.11976 20.0997C7.15645 19.9545 7.24857 23.9924 7.32684 29.0727L7.4691 38.3097L7.52983 28.9738L7.59057 19.6378L8.44803 19.8086C8.9196 19.9028 9.34952 20.1092 9.40337 20.2674C9.46614 20.4513 9.58353 20.4256 9.72905 20.1953C9.87009 19.973 9.97608 20.6417 10.0075 21.9468L10.058 24.0582L10.2157 22.2107C10.3556 20.577 10.3955 20.4702 10.5647 21.287C10.6698 21.7951 10.7938 22.8045 10.8402 23.5302C10.8867 24.256 10.9462 23.7513 10.9727 22.4087C11.0012 20.9889 11.1309 19.9674 11.2841 19.9674C11.4292 19.9674 11.5617 20.2941 11.5784 20.6932C11.5988 21.2139 11.6404 21.2698 11.7207 20.891C11.7818 20.6007 11.889 20.0959 11.9587 19.7693C12.1369 18.934 12.6022 19.0287 12.6071 19.9015C12.6108 20.4671 12.6674 20.5398 12.8667 20.2313C13.0302 19.9781 13.124 19.9521 13.1264 20.1588C13.1302 20.3945 13.309 20.414 13.79 20.2313C14.3905 20.003 14.4524 20.045 14.4808 20.6997L14.5134 21.4189L14.7148 20.6272C14.8257 20.1917 14.9418 20.0135 14.9736 20.2312C15.0063 20.4498 15.1216 20.3315 15.2329 19.9674L15.4347 19.3077L15.6906 19.9466C15.8582 20.3644 16.0127 20.4786 16.1376 20.2765C16.2424 20.1065 16.6085 19.9674 16.9506 19.9674C17.2926 19.9674 17.6325 19.819 17.7057 19.6375C17.7791 19.4561 17.8643 19.7232 17.8957 20.2313C17.9364 20.8855 17.9857 20.9806 18.0673 20.5571C18.2128 19.8004 18.6721 20.054 18.6721 20.8911C18.6721 21.2369 18.7784 21.5855 18.9081 21.6658C19.1779 21.8326 19.4634 21.2202 19.4634 20.4736C19.4634 20.1951 19.5734 19.9674 19.7079 19.9674C19.8424 19.9674 19.9969 19.7594 20.0516 19.5055C20.1188 19.1912 20.2684 19.3591 20.5195 20.0327C20.8985 21.0497 21.5363 21.2656 21.8853 20.4953C21.984 20.2775 22.0908 20.693 22.1226 21.4189C22.1593 22.277 22.2151 22.4616 22.2795 21.9468C22.4678 20.4386 22.6411 19.9674 23.0082 19.9674C23.2112 19.9674 23.4371 19.819 23.5107 19.6375C23.6114 19.3892 23.7137 19.4056 23.9244 19.7036C24.0785 19.9214 24.2061 19.9918 24.2085 19.8605C24.2104 19.7292 24.4502 19.836 24.7402 20.0994C25.0581 20.3873 25.2846 20.9544 25.3101 21.526L25.3525 22.4748L25.4593 21.6119C25.518 21.1374 25.6769 20.8179 25.8127 20.9018C25.9484 20.9858 26.0593 20.7435 26.0593 20.3634C26.0593 19.9699 26.173 19.7428 26.323 19.8356C26.4681 19.9253 26.5868 19.8724 26.5868 19.7191C26.5868 19.5653 26.7054 19.4397 26.8505 19.4397C26.9956 19.4397 27.1142 19.7129 27.1142 20.0467C27.1142 20.3806 27.2626 20.8018 27.444 20.9828C27.6629 21.2013 27.8239 22.6182 27.9224 25.1923L28.0711 29.0725L28.1755 24.586L28.2798 20.0994L28.4335 24.0582L28.5872 28.0169L28.6422 24.1086C28.6789 21.5836 28.791 20.258 28.9614 20.3634C29.1065 20.4531 29.2251 20.3161 29.2251 20.0584C29.2251 19.617 29.2496 19.6161 29.6758 20.0421C30.0194 20.3858 30.1629 21.1492 30.2797 23.2538C30.3641 24.7724 30.5018 26.0838 30.5862 26.1681C30.6702 26.2525 30.8235 24.9137 30.9258 23.1935C31.121 19.9179 31.194 19.6347 31.9052 19.3728C32.2191 19.2574 32.389 19.3972 32.5065 19.8646C32.5966 20.2239 32.7735 20.454 32.8991 20.3762C33.025 20.2983 33.2419 21.3328 33.3811 22.6747L33.6342 25.1146L33.684 22.6074C33.7308 20.2542 33.7561 20.1488 34.0962 20.892C34.2955 21.3274 34.4875 21.565 34.5231 21.4198C34.5597 21.2747 34.6673 21.8092 34.7652 22.6074L34.9429 24.0589L34.9857 22.2531C35.0183 20.8931 35.1589 20.2819 35.5563 19.7764C35.9472 19.2795 36.084 19.2173 36.084 19.5366C36.084 19.7739 36.2026 19.968 36.3478 19.968C36.4929 19.968 36.62 20.176 36.6302 20.4299C36.6465 20.825 36.6816 20.8152 36.8756 20.3639C37.0648 19.9233 37.112 19.9888 37.1606 20.7598L37.2188 21.6835L37.3709 20.8917C37.4793 20.3264 37.5678 20.6662 37.6795 22.0793L37.836 24.0587L37.8837 22.0134C37.9346 19.8178 38.4561 19.1051 38.4629 21.2216C38.4667 22.1283 38.5375 22.3656 38.7226 22.0793C38.8926 21.8163 38.9957 23.6737 39.0299 27.6216L39.0817 33.5596L39.2317 27.9734C39.314 24.901 39.471 22.2981 39.5798 22.1893C39.6886 22.0804 39.7971 22.3972 39.8207 22.8931C39.8533 23.5467 39.9128 23.3953 40.0416 22.3432C40.144 21.5089 40.2581 24.0901 40.3107 28.4132L40.4016 35.9349L40.5536 27.971C40.6372 23.5909 40.7937 19.9192 40.9013 19.8116C41.0085 19.704 41.097 19.8279 41.097 20.0885C41.097 20.4783 41.1663 20.5033 41.4928 20.232C41.8339 19.9486 41.8906 20.0624 41.9037 21.0575C41.9118 21.6921 42.017 22.6864 42.1373 23.267C42.3398 24.2474 42.3578 24.1965 42.3859 22.5536C42.4144 20.7671 42.8318 19.3398 43.2464 19.5961C43.3703 19.6728 43.4791 19.9957 43.4885 20.3136C43.5048 20.8618 43.5211 20.8574 43.7832 20.232L44.0612 19.5722L44.4142 20.364C44.6082 20.7995 44.788 21.8683 44.8136 22.7392L44.8605 24.3227L45.0672 22.548C45.1809 21.572 45.3562 20.3983 45.4569 19.9398C45.741 18.6452 46.0942 19.5328 46.1506 21.6835C46.1872 23.1602 46.2288 23.3191 46.3474 22.4753C46.4546 21.7143 46.5341 22.1564 46.6328 24.0588L46.7697 26.6979L47.0599 23.6629L47.3502 20.6279L47.4203 23.9268C47.4745 26.4753 47.5397 26.9856 47.7085 26.1701C47.8287 25.5894 47.9559 24.2238 47.9918 23.1351L48.057 21.1558L48.2213 23.531L48.3855 25.9061L48.4393 23.267C48.5266 18.9999 49.087 19.1602 49.3623 23.5308C49.432 24.6378 49.4528 24.5633 49.4927 23.0689C49.5172 22.089 49.659 21.2875 49.8041 21.2875C50.131 21.2875 50.1074 20.8714 50.3189 30.3926L50.4945 38.3099L50.5451 29.5175C50.5736 24.3425 50.7028 20.5248 50.8561 20.2383C51.2238 19.5511 52.1461 19.8546 52.3356 20.7252C52.6356 22.1034 52.8019 22.2145 52.9808 21.1556C53.0787 20.575 53.1854 20.3375 53.2176 20.6278C53.2657 21.0622 53.3236 21.0253 53.5446 20.4186C53.7606 19.826 53.8857 19.742 54.1833 19.9891C54.3867 20.1579 54.5652 20.4896 54.5795 20.7258C54.5958 20.9619 54.6883 20.8592 54.789 20.4971C55.0299 19.631 55.7474 19.5057 56.0037 20.2851L56.2035 20.8916L56.3208 20.2939C56.3852 19.9653 56.5401 19.7593 56.6649 19.8364C56.7896 19.9135 56.9665 19.8568 57.0586 19.7064C57.163 19.5376 57.3884 19.5986 57.6587 19.8694C57.942 20.1527 58.1263 20.1992 58.1915 20.0035C58.3207 19.6157 59.0388 19.6129 59.0388 19.9998C59.0388 20.2045 59.1611 20.1947 59.4346 19.9672C59.9114 19.5713 59.8452 19.0442 60.08 25.1135L60.2639 29.864L60.3108 25.0475C60.3393 22.044 60.4571 20.2311 60.6218 20.2311C60.7913 20.2311 60.903 23.2767 60.9344 28.7424L60.9833 37.2535L61.1631 31.0516C61.492 19.7049 61.534 19.5116 61.6771 28.6764L61.8193 37.7813L61.8919 28.4125C61.9575 19.8908 61.9987 19.139 62.3444 20.0992C62.5536 20.6798 62.7264 21.5606 62.7284 22.0565C62.7325 23.119 62.9738 22.9866 63.2637 21.7621C63.4369 21.0296 63.474 21.1558 63.4968 22.556C63.5131 23.5927 63.6232 24.1596 63.7874 24.0581C63.9326 23.9683 64.0512 23.6572 64.0512 23.3671C64.0512 23.0768 64.1702 22.9126 64.3149 23.0025C64.4792 23.104 64.5803 22.5865 64.5827 21.6326C64.5868 19.6463 65.0834 18.741 65.1329 20.6273C65.1533 21.353 65.2221 21.7376 65.289 21.4818C65.3558 21.2261 65.5201 21.0847 65.6542 21.1675C65.7883 21.2502 65.9065 21.0438 65.9167 20.7088C65.933 20.1331 65.9493 20.1286 66.1621 20.6273C66.3631 21.095 66.3912 21.0725 66.4075 20.4296C66.4442 19.0211 66.9541 19.7244 66.9823 21.2213C66.9986 22.0559 67.0993 23.4513 67.2073 24.3222C67.3789 25.7055 67.4087 25.5136 67.4425 22.8048C67.467 20.9392 67.5864 19.7037 67.745 19.7037C67.8901 19.7037 68.0108 20.2085 68.0128 20.8254C68.0165 21.6468 68.0854 21.841 68.2724 21.5511C68.4131 21.3334 68.5301 20.8287 68.5321 20.4296C68.5402 19.2456 69.3203 19.4941 69.3624 20.6934L69.395 21.683L69.5584 20.7593C69.719 19.8486 69.7402 19.8356 71.0407 19.8356H72.3599L72.4973 28.1489L72.6351 36.4622L72.6954 28.5976C72.7455 22.0566 72.8254 20.5985 73.1693 19.9331C73.4754 19.3408 73.6981 19.1829 74.0268 19.3253C74.2709 19.4309 74.8565 19.648 75.3281 19.8073C75.7997 19.9663 76.1855 20.2459 76.1855 20.4281C76.1855 20.6103 76.3041 20.7596 76.4492 20.7596C76.5944 20.7596 76.713 20.5479 76.713 20.2893C76.713 19.6379 78.9107 18.9646 79.4838 19.4404C80.0173 19.8834 82.5195 19.8634 82.7971 19.4159C82.974 19.1301 83.1893 19.1489 83.9656 19.5191C84.489 19.7686 85.1787 19.9085 85.4982 19.8298C86.493 19.5843 89.465 19.5297 90.4237 19.7397C91.055 19.8779 91.6006 19.8156 92.184 19.5387C92.8213 19.2362 93.1602 19.2072 93.5604 19.4217C93.8522 19.5782 94.6333 19.7059 95.2959 19.7059H96.5004L96.533 20.8275C96.5534 21.4444 96.65 23.2555 96.7519 24.8522L96.9374 27.7552L97.0112 25.248C97.1693 19.8645 97.4738 19.3492 97.5572 24.3243C97.6286 28.5695 97.6579 28.8362 97.8336 26.8316C97.9416 25.5978 98.0557 23.5194 98.0871 22.2131C98.1197 20.9067 98.1992 20.0523 98.2673 20.3145C98.3818 20.7563 98.4263 20.7499 98.8791 20.228C99.5422 19.4632 100.556 19.6144 100.688 20.498C100.78 21.1102 100.802 21.1196 100.999 20.63C101.181 20.179 101.218 20.2175 101.254 20.8938L101.296 21.6856L101.541 20.839C101.74 20.1513 101.959 19.9598 102.707 19.8193C103.306 19.7068 103.773 19.7664 104.042 19.9894C104.329 20.228 104.509 20.2455 104.633 20.0469C104.732 19.8859 105.502 19.7782 106.393 19.7998L107.976 19.8365L108.13 21.4199L108.284 23.0035L108.328 21.5016C108.37 20.0861 108.896 18.9722 108.904 20.2827C108.908 21.2279 109.199 22.0892 109.458 21.9292C109.587 21.8497 109.692 21.3167 109.692 20.7446C109.692 19.8805 109.781 19.7046 110.219 19.7046C110.694 19.7046 110.752 19.8962 110.795 21.6179C110.831 23.121 110.861 23.2483 110.932 22.2117C111.055 20.4128 111.478 19.6322 112.229 19.8207C112.569 19.9059 112.878 19.8289 112.968 19.638C113.082 19.3922 113.159 19.3873 113.269 19.6176C113.35 19.7877 113.706 19.8745 114.06 19.8105L114.704 19.6939L114.741 24.2515L114.778 28.8092L114.997 25.6423C115.118 23.9005 115.324 21.8815 115.455 21.1558L115.693 19.8361L115.77 21.5516L115.847 23.267L115.999 21.5722C116.089 20.5687 116.286 19.8331 116.481 19.7688C116.725 19.6885 116.824 20.2345 116.86 21.8596L116.908 24.0588L117.075 21.9475L117.242 19.8361L117.335 21.9475L117.428 24.0588L117.603 22.4754C117.726 21.368 117.807 22.3995 117.872 25.9063L117.966 30.9206L118.139 26.9618C118.235 24.7845 118.351 22.9438 118.398 22.8712C118.445 22.7986 118.562 23.4518 118.659 24.3227C118.824 25.8138 118.836 25.76 118.882 23.3991C118.906 22.0201 119.004 20.6146 119.094 20.2758C119.531 18.6458 119.711 21.0207 119.77 29.2051L119.835 38.0463L119.978 29.2051C120.057 24.3425 120.162 20.8391 120.212 21.4197C120.305 22.4991 120.35 22.421 120.632 20.6939C120.823 19.5207 121.561 19.2989 121.561 20.4146C121.561 21.0958 121.577 21.1039 121.948 20.6124C122.294 20.1547 122.342 20.592 122.4 24.7185L122.465 29.337L122.616 24.8504C122.699 22.3829 122.793 21.2843 122.824 22.4093C122.885 24.6244 123.408 25.304 123.408 23.1681C123.408 22.4605 123.492 21.4806 123.594 20.9908L123.781 20.1001L123.959 20.8918C124.132 21.665 124.137 21.6604 124.168 20.6941C124.196 19.8227 124.278 19.7044 124.859 19.7044C125.222 19.7044 125.528 19.8528 125.539 20.0342C125.555 20.2981 125.586 20.2981 125.693 20.0342C125.766 19.8528 125.994 19.7044 126.2 19.7044C126.477 19.7044 126.587 20.1303 126.624 21.3539L126.673 23.0034L126.769 21.4858C126.834 20.4389 126.974 19.9683 127.218 19.9683C127.413 19.9683 127.649 20.1677 127.743 20.4115C127.836 20.6554 127.997 24.7822 128.1 29.5825C128.301 38.9332 128.592 38.0846 128.654 27.9673C128.674 24.9101 128.789 22.8379 128.948 22.7394C129.093 22.6497 129.212 22.0559 129.212 21.4198C129.212 20.227 129.563 19.6541 129.844 20.3873C129.932 20.616 130.003 21.3943 130.003 22.1168C130.003 22.9253 130.105 23.3677 130.267 23.2673C130.412 23.1776 130.531 22.3589 130.531 21.4482C130.531 19.4068 130.824 19.0265 131.229 20.5417C131.397 21.1699 131.546 21.4311 131.56 21.1223C131.593 20.4407 132.101 19.9835 133.014 19.8179C133.674 19.6984 133.698 19.7403 133.736 21.0847L133.777 22.4755L133.935 21.318C134.044 20.5245 134.28 20.0372 134.687 19.7683C135.263 19.3879 135.281 19.403 135.285 20.2661C135.289 20.9377 135.352 21.0589 135.545 20.7601C135.722 20.4857 135.818 21.0928 135.857 22.7394L135.913 25.1146L136.054 23.1353C136.174 21.458 136.218 21.7803 136.342 25.2465L136.489 29.3373L136.565 24.7188C136.607 22.1786 136.701 20.2487 136.774 20.4302C136.984 20.95 137.376 20.8176 137.694 20.1191C137.942 19.5746 138.06 19.5246 138.48 19.7867C138.837 20.0098 138.974 20.4068 138.974 21.2195C138.974 22.6062 139.438 22.7131 139.557 21.354C139.615 20.6909 139.738 21.1917 139.93 22.8715L140.217 25.3787L140.254 22.6892C140.291 19.9551 140.781 18.5575 140.864 20.9426C140.908 22.2057 140.909 22.2067 141.025 21.1563C141.12 20.3002 141.182 20.2004 141.358 20.6284C141.558 21.1169 141.58 21.107 141.652 20.4963C141.695 20.1334 141.795 22.9243 141.875 26.6983L142.02 33.5601L142.079 26.8083C142.129 21.2047 142.202 20.0564 142.51 20.0564C142.801 20.0564 142.92 20.7795 143.057 23.3774C143.277 27.5683 143.41 27.9803 143.437 24.5539C143.462 21.6139 143.662 20.1642 144.018 20.3841C144.145 20.4628 144.249 20.3422 144.249 20.1159C144.249 19.8896 144.427 19.7045 144.645 19.7045C144.966 19.7045 145.051 20.1903 145.095 22.2775L145.149 24.8507L145.238 22.512C145.339 19.8378 145.757 18.9982 146.475 20.0248C146.814 20.5078 146.888 20.5319 146.888 20.1589C146.888 19.909 147.006 19.7044 147.151 19.7044C147.297 19.7044 147.417 20.0904 147.419 20.562C147.423 21.2128 147.485 21.3243 147.679 21.0239C147.847 20.7633 147.937 23.3347 147.943 28.5454C147.947 33.1938 148.056 36.6263 148.206 36.8587C148.374 37.1188 148.464 34.2424 148.466 28.4794C148.47 23.0214 148.566 19.7044 148.724 19.7044C149.233 19.7044 149.526 20.7679 149.576 22.788L149.626 24.8506L149.789 22.3435C149.921 20.3247 149.971 20.9672 150.048 25.6423C150.135 30.9807 150.158 31.2146 150.329 28.5454C150.43 26.9487 150.529 24.3656 150.547 22.8053C150.58 20.1968 150.779 19.4845 151.262 20.2661C151.384 20.4646 151.54 20.3989 151.73 20.0682C151.989 19.6183 152.031 19.6457 152.19 20.3642L152.366 21.156L152.398 20.2983C152.431 19.3926 152.834 19.2613 153.409 19.9684C153.667 20.2848 153.733 20.2917 153.74 20.001C153.748 19.7201 153.832 19.7079 154.118 19.946C154.4 20.1801 154.513 20.1793 154.592 19.9423C154.661 19.736 154.857 19.7935 155.177 20.1144C155.601 20.5384 155.695 20.5486 155.957 20.1991C156.439 19.5554 157.176 19.3814 157.187 19.9088C157.196 20.2468 157.293 20.1942 157.574 19.7025C157.781 19.3396 157.978 19.1021 158.01 19.1747C158.043 19.2472 158.142 21.385 158.23 23.9252L158.39 28.5436L158.444 24.4152C158.488 21.0234 158.568 20.2597 158.893 20.1349C159.111 20.0513 159.291 20.1267 159.293 20.3045C159.297 20.508 159.391 20.4807 159.553 20.2303C159.732 19.9535 159.819 20.4293 159.843 21.8138C159.88 23.9407 159.951 23.8741 160.217 21.464C160.347 20.2877 160.475 19.9602 160.761 20.0701C160.994 20.1594 161.139 20.0416 161.144 19.7602C161.152 19.3459 161.181 19.3436 161.477 19.7317C161.773 20.1207 161.836 20.1215 162.192 19.7398C162.548 19.359 162.591 19.3623 162.67 19.7765C162.718 20.0257 162.867 20.2299 163.002 20.2299C163.136 20.2299 163.259 20.8534 163.275 21.6154L163.303 23.0009L163.624 21.4174L163.944 19.834L164.144 20.8896C164.445 22.4774 164.521 22.5765 164.548 21.4174C164.56 20.8368 164.647 20.0846 164.737 19.7457C164.96 18.9111 165.341 19.5182 165.371 20.7577C165.387 21.4576 165.441 21.5586 165.592 21.1743C165.781 20.6934 165.814 20.6998 166.233 21.299L166.676 21.9309V20.964C166.676 19.0527 167.159 19.7448 167.314 21.8785C167.618 26.0432 167.643 26.153 167.69 23.5288C167.715 22.0773 167.81 20.6225 167.897 20.2959C168.076 19.6294 168.523 19.488 168.523 20.0977C168.523 20.3154 168.641 20.4936 168.786 20.4936C168.931 20.4936 169.05 20.375 169.05 20.2299C169.05 20.0847 169.169 19.9661 169.314 19.9661C169.459 19.9661 169.591 20.4708 169.608 21.0877C169.624 21.7046 169.696 21.9842 169.767 21.7091C169.857 21.356 169.953 21.3042 170.095 21.5325C170.216 21.7291 170.359 21.4555 170.458 20.8357C170.581 20.0615 170.75 19.8055 171.155 19.775C171.598 19.7424 171.692 19.9003 171.709 20.7082C171.721 21.2435 171.789 21.5033 171.862 21.2855C172.246 20.1339 172.289 20.0979 172.49 20.7577C172.6 21.1206 172.723 22.4864 172.762 23.7928C172.812 25.4913 172.876 25.8672 172.986 25.1123C173.07 24.5317 173.202 27.1445 173.278 30.9185L173.417 37.7802L173.476 29.0554C173.542 19.2559 173.581 19.0276 175.064 19.7677C175.605 20.0372 175.916 20.0797 175.978 19.8925C176.03 19.7363 176.214 19.696 176.387 19.8028C176.576 19.9198 176.708 20.7003 176.719 21.7629C176.748 24.6806 177.184 24.9403 177.245 22.0773C177.286 20.2395 177.35 19.8167 177.492 20.4938C177.599 21.0018 177.702 21.1741 177.721 20.8763C177.765 20.1968 178.247 19.7019 178.864 19.7019C179.23 19.7019 179.348 19.9289 179.379 20.6915C179.415 21.6125 179.427 21.6263 179.549 20.8893L179.68 20.0976L179.879 20.7573C180.062 21.3639 180.08 21.3452 180.104 20.5238L180.129 19.6301L181.367 19.8002C182.049 19.8936 182.69 20.1051 182.792 20.2702C182.911 20.4638 183.023 20.3929 183.105 20.0703C183.176 19.7951 183.264 20.103 183.301 20.7578L183.369 21.9454L183.53 20.8898C183.69 19.8357 183.692 19.834 185.003 19.7513C185.724 19.7056 186.453 19.5543 186.621 19.4144C186.827 19.2428 186.979 19.2983 187.089 19.5849C187.179 19.8181 187.276 23.9482 187.305 28.7626L187.358 37.5162L187.503 28.8947C187.583 24.1528 187.737 20.1842 187.846 20.0756C187.954 19.9667 188.043 20.1122 188.043 20.3968C188.043 20.6823 188.178 21.0508 188.343 21.2156C188.728 21.6005 189.265 21.1035 189.434 20.2066C189.5 19.8563 189.591 22.8952 189.636 26.9595C189.723 34.8374 189.937 34.3441 190.308 25.4126C190.413 22.8988 190.573 21.3702 190.71 21.5859C190.861 21.8253 190.949 21.59 190.972 20.8895L191.004 19.8338L191.223 20.8895C191.343 21.4701 191.47 25.6267 191.506 30.1264L191.571 38.3078L191.75 31.0501C191.849 27.0584 191.95 22.8425 191.975 21.6812L192.022 19.57L192.527 20.4936L193.033 21.4173L193.045 20.6915C193.057 19.8515 193.252 19.7784 193.744 20.4277C194.063 20.8476 194.096 20.8236 194.103 20.1639C194.107 19.7647 194.23 19.4382 194.375 19.4382C194.52 19.4382 194.639 19.6983 194.639 20.0164C194.639 20.5804 194.647 20.582 195.013 20.0829C195.372 19.592 195.395 19.6023 195.579 20.3329L195.77 21.0949L196.107 20.3325L196.443 19.5701L196.495 20.4939C196.548 21.4097 196.549 21.411 196.715 20.6521C196.908 19.7638 197.409 19.5295 198.943 19.6092C199.55 19.6418 200.374 19.6744 200.773 19.6842C201.493 19.7005 201.499 19.7168 201.53 21.6153L201.562 23.5287L201.891 21.6814C202.072 20.6653 202.236 20.0051 202.256 20.2143C202.284 20.4973 202.391 20.4634 202.679 20.0821C203.034 19.6121 203.069 19.7006 203.105 21.1534L203.146 22.7368L203.362 21.4472C203.612 19.9582 203.813 19.6912 204.766 19.5865C205.436 19.5131 205.46 19.558 205.506 20.9918L205.554 22.4729L205.655 21.16C205.781 19.5252 206.096 19.073 206.8 19.5132C207.149 19.731 207.316 20.1564 207.34 20.887L207.377 21.9452L207.561 21.0214C207.846 19.5897 208.081 20.5516 208.172 23.5286L208.252 26.1677L208.312 23.2647C208.344 21.668 208.458 20.2424 208.565 20.0967C208.671 19.9511 209.068 19.7963 209.447 19.7526L210.136 19.6735L210.39 25.1638L210.646 30.654L210.707 26.2994C210.739 23.9043 210.866 21.4699 210.986 20.8892L211.204 19.8335L211.272 20.7572L211.339 21.6809L211.529 20.6253C211.632 20.0447 211.756 22.9543 211.804 27.0911L211.891 34.6128L212.04 27.4341C212.148 22.2122 212.278 20.1656 212.518 19.9257C212.782 19.6619 212.849 19.6991 212.852 20.1105C212.856 20.4824 212.916 20.5299 213.073 20.2825C213.335 19.8691 214.686 20.0566 214.999 20.55C215.144 20.7788 215.218 20.6739 215.226 20.2295C215.239 19.6119 215.263 19.6005 215.603 20.0502C215.944 20.5007 215.982 20.5023 216.22 20.0787C216.426 19.7105 216.813 19.6345 218.279 19.675C219.354 19.7035 220.167 19.8539 220.287 20.0439C220.444 20.2906 220.491 20.2882 220.495 20.0318C220.496 19.8503 220.677 19.7019 220.894 19.7019C221.197 19.7019 221.298 20.0603 221.321 21.2193C221.346 22.4683 221.388 22.5967 221.554 21.9452C221.665 21.5097 221.786 21.3315 221.824 21.5492C221.861 21.767 221.965 21.4958 222.054 20.9467C222.142 20.3976 222.333 19.9484 222.478 19.9484C222.623 19.9484 222.814 20.3976 222.902 20.9467C223.054 21.8943 223.064 21.9032 223.1 21.1197C223.137 20.2914 223.925 19.2332 223.933 19.9994C223.937 20.284 223.992 20.2766 224.193 19.9667C224.396 19.6523 224.449 19.7054 224.452 20.2236L224.456 20.8762L224.867 20.2896C225.544 19.3227 225.773 19.6091 225.822 21.4844L225.868 23.2658L226.02 21.4184C226.174 19.5249 226.543 19.5815 226.59 21.5062L226.615 22.4743L226.965 21.1983C227.158 20.4965 227.369 19.8691 227.434 19.8039C227.499 19.7391 227.653 20.3129 227.777 21.0799L228 22.4743L228.09 21.2206C228.173 20.0551 228.668 19.3986 228.687 20.4288C228.695 20.8687 228.711 20.8687 229.045 20.4288C229.537 19.7811 229.729 19.8522 229.761 20.6927C229.785 21.3813 229.797 21.3738 229.994 20.5475C230.107 20.0684 230.243 19.6421 230.297 19.6002C230.35 19.5586 230.898 19.5758 231.514 19.6414C232.327 19.7262 232.638 19.8783 232.644 20.1928C232.652 20.5785 232.68 20.5753 232.92 20.1643C233.472 19.2172 233.952 19.6299 233.996 21.0879L234.038 22.4735L234.194 21.154C234.318 20.1121 234.448 19.842 234.812 19.871C235.066 19.8914 235.274 19.8058 235.274 19.6815C235.274 19.1006 236.07 19.8434 236.105 20.4566L236.146 21.154L236.255 20.4283C236.388 19.5551 237.106 19.4531 237.321 20.277C237.47 20.8463 237.474 20.8456 237.72 20.2109C237.951 19.6162 237.982 19.6069 238.159 20.0793C238.346 20.5814 238.351 20.5814 238.545 20.0793C238.739 19.5779 238.748 19.5779 239.119 20.083C239.447 20.5288 239.496 20.5373 239.496 20.1491C239.496 19.8788 239.704 19.7027 240.024 19.7027C240.503 19.7027 240.552 19.8801 240.556 21.616C240.559 22.9488 240.637 23.4094 240.815 23.1336C240.956 22.9159 241.073 22.0675 241.075 21.2485C241.079 20.1708 241.188 19.7172 241.475 19.6073C241.781 19.4899 241.875 19.6774 241.891 20.4368L241.911 21.4182L242.221 20.6004C242.678 19.3921 243.183 19.7768 243.235 21.3741L243.279 22.7378L243.454 21.1543C243.55 20.2833 243.654 19.8677 243.685 20.2306L243.742 20.8903L244.066 20.1314C244.587 18.911 245.001 19.7983 245.104 22.3551L245.193 24.5852L245.266 21.946C245.314 20.185 245.413 19.4824 245.565 19.8346C245.689 20.125 245.8 20.2216 245.81 20.0492C245.818 19.8767 246.066 19.7535 246.356 19.7755C246.727 19.8041 246.892 20.0145 246.91 20.4849L246.935 21.1545L247.136 20.4948L247.338 19.835L247.621 20.4948C247.865 21.0643 247.907 21.0824 247.925 20.6269C247.941 20.2261 248 20.1857 248.173 20.4586C248.344 20.7285 248.47 20.6294 248.676 20.0626C248.854 19.5741 248.959 19.4758 248.972 19.7845C248.984 20.0471 249.112 20.1886 249.257 20.0989C249.407 20.006 249.531 20.2546 249.544 20.6771C249.569 21.4125 249.569 21.4116 249.818 20.5511C249.956 20.0742 250.183 19.7547 250.322 19.841C250.462 19.927 250.576 19.8613 250.576 19.6901C250.576 19.4976 250.749 19.4564 251.038 19.5796C251.292 19.688 251.796 19.8042 252.159 19.8376C252.522 19.8703 252.908 19.9139 253.017 19.9327C253.126 19.9531 253.242 24.0343 253.277 29.0058L253.339 38.0448L253.412 28.9897C253.48 20.5752 253.518 19.938 253.944 19.9811C254.196 20.0056 254.461 20.0055 254.534 19.977C254.606 19.9485 254.992 19.8714 255.391 19.8058L256.117 19.6863L256.154 22.5324L256.19 25.3785L256.522 22.3435C256.91 18.7853 256.842 19.1054 257.17 19.3084C257.315 19.3981 257.434 19.7019 257.434 19.9838C257.434 20.2656 257.553 20.4961 257.698 20.4961C257.843 20.4961 257.976 20.8227 257.993 21.2218L258.025 21.9477L258.227 21.1559C258.38 20.5537 258.442 20.8378 258.486 22.3435L258.544 24.3228L258.91 22.6074C259.564 19.5419 259.558 19.5605 259.824 19.982C259.957 20.192 260.09 21.3143 260.119 22.4755C260.161 24.1756 260.189 24.304 260.262 23.1353C260.38 21.2394 260.539 20.7627 260.876 21.2953C261.011 21.5089 261.143 21.5651 261.168 21.4196C261.193 21.2744 261.295 21.809 261.393 22.6072L261.571 24.0587L261.64 22.2113C261.677 21.1952 261.8 20.067 261.91 19.7041L262.111 19.0444L262.412 19.7874C262.577 20.196 262.726 21.0273 262.743 21.6347L262.776 22.7392L262.993 21.4452C263.239 19.976 263.802 19.3817 264.073 20.3059C264.229 20.8397 264.247 20.8449 264.275 20.3642C264.299 19.9245 264.348 19.9025 264.561 20.2321C264.785 20.5791 264.817 20.5762 264.82 20.2117C264.825 19.7365 265.648 19.6367 265.942 20.0756C266.049 20.235 266.157 20.8406 266.182 21.4212C266.228 22.4725 266.228 22.4731 266.338 21.5684C266.399 21.0688 266.618 20.4188 266.824 20.1241C267.178 19.619 267.199 19.6438 267.199 20.555C267.199 21.0868 267.318 21.5953 267.463 21.685C267.62 21.782 267.727 21.4669 267.727 20.9066C267.727 20.0312 267.763 19.9882 268.254 20.2947C268.711 20.5801 268.789 20.9433 268.835 23.002L268.888 25.3798L268.968 23.2684C269.011 22.1072 269.105 20.9041 269.175 20.5948C269.323 19.9484 270.365 19.5379 270.365 20.1262C270.365 20.3305 270.543 20.4973 270.761 20.4973C270.979 20.4973 271.157 20.3713 271.157 20.2175C271.157 20.0638 271.265 20.005 271.398 20.087C271.531 20.169 271.7 20.0871 271.773 19.9048C271.854 19.705 271.915 19.7563 271.928 20.0352C271.96 20.7997 272.476 20.5543 272.48 19.7714C272.484 19.3702 272.571 19.1773 272.678 19.34C272.785 19.5019 273.139 19.7176 273.465 19.8197C274.013 19.991 274.061 20.17 274.093 22.1645L274.125 24.324L274.376 22.4766C274.633 20.585 275.087 19.5793 275.144 20.7744C275.173 21.3592 275.195 21.3452 275.377 20.6292C275.522 20.0613 275.602 20.5464 275.662 22.3446L275.745 24.8518L275.89 22.8724C275.987 21.5347 276.08 22.8182 276.175 26.8312L276.315 32.7693L276.409 26.1714C276.461 22.5426 276.555 19.8425 276.619 20.1712C276.682 20.4999 276.844 20.7009 276.978 20.6176C277.113 20.5344 277.239 20.6807 277.258 20.9437C277.278 21.2063 277.38 21.0054 277.487 20.4975C277.638 19.7795 277.697 20.0733 277.752 21.817C277.821 23.9965 277.863 23.9766 278.166 21.6193C278.246 21.0024 278.422 20.4976 278.558 20.4976C278.7 20.4976 278.825 22.2714 278.85 24.6542C278.883 27.6384 278.944 28.3642 279.07 27.2274C279.223 25.8417 279.257 26.0396 279.345 28.8109L279.445 31.9779L279.598 27.6233C279.737 23.6177 279.754 23.8568 279.805 30.6079C279.842 35.4196 279.952 37.8909 280.125 37.784C280.29 37.6824 280.389 35.1554 280.389 31.0785C280.389 24.7564 280.589 20.346 280.864 20.6206C280.937 20.6936 281.153 20.5473 281.344 20.2957C281.653 19.8879 281.695 19.9388 281.727 20.7616L281.763 21.6852L281.974 20.7934C282.089 20.3029 282.345 19.8001 282.54 19.6759C283.281 19.2061 283.556 19.4377 283.594 20.5636L283.63 21.6852L283.799 20.6297C283.946 19.7097 283.994 19.6503 284.175 20.1678C284.404 20.8231 284.758 20.9416 284.964 20.4316C285.037 20.2501 285.121 22.2988 285.151 24.9841C285.179 27.6694 285.288 31.5885 285.389 33.6932C285.555 37.1277 285.582 36.7084 285.651 29.6026C285.693 25.248 285.819 21.3289 285.93 20.8935C286.077 20.3174 286.147 20.2455 286.189 20.6297C286.238 21.0844 286.276 21.0661 286.457 20.4975C286.665 19.8485 286.669 19.8507 286.703 20.6297L286.74 21.4213L287.282 20.6942C287.58 20.2942 287.933 20.0341 288.065 20.116C288.2 20.1992 288.333 23.7848 288.366 28.2327L288.425 36.2005L288.565 28.8109C288.663 23.5842 288.745 22.1938 288.845 24.0605L288.987 26.6997L289.042 23.3875C289.101 19.8889 289.302 19.2501 290.193 19.7275C290.518 19.9016 290.852 19.8968 291.194 19.7153C291.598 19.4992 291.766 19.5396 291.978 19.9041C292.127 20.1601 292.251 20.2201 292.256 20.0378C292.268 19.5108 293.318 19.6406 293.323 20.1699C293.327 20.4577 293.4 20.521 293.521 20.3384C293.628 20.1769 294.1 19.9896 294.572 19.9221C295.342 19.812 295.433 19.8687 295.469 20.4795C295.506 21.1164 295.518 21.1094 295.66 20.3678C295.771 19.7821 295.852 20.0567 295.97 21.4234L296.128 23.2709L296.175 21.4895C296.199 20.5089 296.34 19.708 296.485 19.708C296.63 19.708 296.749 19.8413 296.749 20.004C296.749 20.2217 296.843 20.2225 297.103 20.0059C297.298 19.8444 297.535 19.7903 297.631 19.8857C297.726 19.9811 297.824 21.3756 297.849 22.9843L297.893 25.9094L298.08 23.1382C298.183 21.6141 298.282 20.2224 298.3 20.0456C298.316 19.8686 298.51 19.7924 298.728 19.876C299.047 19.9983 299.134 20.677 299.177 23.3646L299.231 26.7011L299.387 23.2704C299.473 21.3834 299.567 19.9946 299.597 20.1843C299.639 20.453 299.78 20.4387 300.237 20.1182C301.055 19.5451 301.231 19.5998 301.253 20.4331C301.269 21.0761 301.297 21.0987 301.498 20.6308C301.661 20.2516 301.743 20.5859 301.789 21.8184C301.841 23.1974 301.871 23.301 301.941 22.3462C301.988 21.6931 302.092 20.773 302.17 20.3016L302.313 19.4447L302.879 19.9721C303.308 20.3721 303.496 20.4197 303.655 20.1695C303.777 19.9766 303.886 20.3876 303.916 21.1587L303.968 22.4784L304.066 21.2247C304.18 19.7866 304.577 19.5637 304.772 20.8287C305.365 24.6755 305.302 24.5538 305.452 22.1454C305.526 20.9462 305.676 19.9664 305.785 19.968C305.894 19.9699 306.161 19.9718 306.379 19.9718C306.598 19.9718 306.774 20.2063 306.774 20.4996C306.774 20.7899 306.893 21.0275 307.038 21.0275C307.183 21.0275 307.32 21.5322 307.341 22.1491C307.374 23.1348 307.399 23.1748 307.533 22.479C307.641 21.9137 307.73 22.2535 307.841 23.6666L307.998 25.6459L308.045 22.9409C308.093 20.2351 308.381 19.4797 308.751 21.0934L308.947 21.9511L309.292 20.8956L309.636 19.8399L309.693 20.8956C309.725 21.4762 309.829 25.3953 309.927 29.6047L310.104 37.2582L310.156 30.9243C310.185 27.4406 310.296 23.9371 310.404 23.1387L310.6 21.6873L310.752 23.4027L310.904 25.1181L310.95 22.9236C311.002 20.4155 311.265 19.6899 312.048 19.8945C312.546 20.025 312.582 20.272 312.636 23.8953L312.693 27.7573L312.768 24.3265C312.856 20.3535 313.072 19.7079 314.316 19.7079C314.787 19.7079 315.242 19.8563 315.327 20.0377C315.45 20.3015 315.511 20.3015 315.635 20.0377C316.009 19.2353 316.276 19.8527 316.319 21.6213L316.365 23.5346L316.516 21.7492C316.6 20.7672 316.757 19.9656 316.866 19.9678C316.975 19.9697 317.186 19.9715 317.336 19.9715C317.486 19.9715 317.716 20.2386 317.847 20.5653C318.076 21.1361 318.086 21.1309 318.102 20.4332C318.122 19.5546 318.829 19.441 319.134 20.2673C319.327 20.7899 319.37 20.768 319.779 19.9374C320.197 19.09 320.22 19.4974 320.262 28.5487C320.291 34.1779 320.387 37.4044 320.504 36.4662C320.612 35.5953 320.713 31.5941 320.729 27.5747C320.749 23.019 320.857 20.2052 321.021 20.1036C321.188 20.0008 321.305 20.7509 321.338 22.1333L321.392 24.3261L321.483 22.2158C321.576 20.055 321.888 19.2463 322.348 19.9738C322.56 20.3093 322.597 20.3003 322.6 19.9138C322.605 19.2446 323.389 19.6386 323.427 20.3296C323.451 20.7758 323.483 20.7976 323.578 20.4332C323.75 19.7739 324.181 19.862 324.223 20.5653L324.26 21.1591L324.373 20.5799C324.502 19.9125 325.231 20.0315 325.264 20.7255C325.277 20.964 325.407 20.8266 325.555 20.4201C326.017 19.151 326.422 19.7638 326.58 21.9717L326.73 24.0622L326.778 22.0324C326.826 20.0223 327.317 18.8412 327.394 20.5496C327.431 21.3481 327.443 21.3608 327.544 20.6973C327.82 18.8746 328.077 20.3495 328.223 24.5878C328.445 31.071 328.919 31.5463 328.93 25.2969C328.938 21.3696 329.011 20.3877 329.331 20.0678C329.929 19.4706 330.254 19.8693 330.288 21.2407C330.317 22.352 330.34 22.3976 330.521 21.687C330.632 21.2515 330.738 21.014 330.757 21.1591C330.934 22.4915 331.58 32.8518 331.621 35.0146C331.674 37.8079 331.934 31.7542 332.11 23.6663C332.167 21.0158 332.233 20.4414 332.368 21.423L332.549 22.7427L332.59 21.401C332.615 20.6632 332.709 19.9822 332.803 19.8877C333.098 19.5933 333.67 20.5922 333.683 21.423C333.699 22.5399 334.205 21.7194 334.211 20.5653C334.214 19.9806 334.341 19.7076 334.61 19.7076C334.926 19.7076 335.013 20.1248 335.038 21.7529L335.07 23.7982L335.415 21.687C335.604 20.5258 335.768 19.5533 335.779 19.5261C335.842 19.3683 336.854 19.5918 336.854 19.7638C336.854 19.878 337.032 19.9718 337.25 19.9718C337.467 19.9718 337.66 20.1202 337.677 20.3016C337.693 20.4831 337.792 22.2347 337.895 24.1943L338.083 27.7572L338.149 23.6666C338.185 21.4167 338.279 19.7377 338.358 19.9356C338.474 20.2275 338.541 20.2305 338.713 19.952C338.884 19.6743 339.001 19.6726 339.329 19.9438C339.551 20.1285 339.857 20.2027 340.009 20.1089C340.16 20.0151 340.284 20.0885 340.284 20.2708C340.284 20.7414 340.731 20.2256 340.887 19.5738C340.957 19.2835 341.046 19.6994 341.084 20.4975C341.129 21.4188 341.196 21.6692 341.268 21.183C341.43 20.0973 341.933 19.7057 343.167 19.7057H344.241L344.298 28.8767L344.354 38.0478L344.495 28.7664C344.573 23.6617 344.72 19.4019 344.822 19.3003C344.924 19.1988 345.086 19.4304 345.182 19.815C345.345 20.4653 345.383 20.4813 345.714 20.0441C346.036 19.6197 346.073 19.6642 346.091 20.4976L346.112 21.4212L346.474 20.6295C346.832 19.8483 346.837 19.8465 346.878 20.4974C346.915 21.096 346.953 21.0715 347.275 20.2336C347.535 19.5578 347.644 19.4515 347.681 19.8376C347.727 20.3168 347.744 20.3209 347.857 19.8809C347.954 19.503 348.136 19.4346 348.684 19.5706C349.07 19.6664 349.426 19.8556 349.474 19.9908C349.523 20.1262 349.671 20.1698 349.804 20.0879C349.937 20.0059 350.047 20.0919 350.049 20.284C350.053 20.5576 350.101 20.5547 350.281 20.2677C350.531 19.8738 353.137 19.6336 353.353 19.9847C353.425 20.1009 353.8 20.032 354.186 19.8314C355.074 19.3708 355.313 19.5232 355.358 20.5773C355.382 21.1307 355.431 21.2287 355.503 20.8631C355.645 20.1429 356.933 19.3974 357.112 19.9318C357.203 20.2046 357.28 20.2144 357.43 19.9726C357.625 19.6566 357.942 19.6228 359.873 19.7121L360.862 19.7577L360.914 21.5128L360.966 23.2678L361.058 21.4864C361.128 20.146 361.246 19.7049 361.534 19.7049C361.746 19.7049 361.932 19.9129 361.949 20.1668C361.977 20.6066 361.985 20.6066 362.1 20.1668C362.3 19.4004 362.707 19.6473 362.752 20.5627L362.794 21.4204L362.901 20.5653C363.001 19.7553 363.062 19.7122 364.046 19.7508C364.617 19.7712 365.084 19.9053 365.084 20.0443C365.084 20.1834 365.262 20.1495 365.48 19.9689C365.804 19.6998 365.876 19.7178 365.876 20.0688C365.876 20.6464 366.388 20.617 366.464 20.0362C366.496 19.7822 366.588 23.1372 366.668 27.4918L366.811 35.4091L366.875 27.4918C366.918 22.2613 367.026 19.7088 367.195 19.9703C367.336 20.188 367.453 20.2316 367.455 20.0668C367.459 19.6034 368.524 19.423 368.69 19.8573C368.769 20.0628 368.969 20.1459 369.136 20.042C369.665 19.7105 371.944 19.7239 371.948 20.0583C371.952 20.2332 372.063 20.1949 372.208 19.9698C372.394 19.6823 372.465 19.6685 372.468 19.9193C372.471 20.1313 372.599 20.1839 372.801 20.055C373.257 19.7655 373.626 19.7729 373.837 20.0754C373.947 20.2353 374.157 20.2124 374.395 20.0151C374.713 19.7517 374.803 19.8643 374.94 20.6919C375.03 21.238 375.12 22.2192 375.14 22.8723L375.177 24.0599L375.388 22.8723C375.504 22.2192 375.62 21.0909 375.644 20.3651L375.689 19.0456L376.028 20.3651C376.214 21.0909 376.383 21.4472 376.403 21.1569C376.431 20.7168 376.48 20.6948 376.694 21.0247C376.891 21.3305 376.955 21.2409 376.974 20.6289L376.998 19.8371L377.332 20.7608L377.665 21.6845L377.894 20.6289C378.104 19.6588 378.137 19.7656 378.304 21.9484C378.403 23.2548 378.52 27.2928 378.562 30.9216L378.638 37.5194L378.819 31.4493C378.918 28.1108 379.015 24.0789 379.034 22.4894C379.063 20.1799 379.135 19.6658 379.398 19.929C379.59 20.1214 379.792 21.3233 379.882 22.8188C379.983 24.4761 380.061 24.9139 380.104 24.0598C380.179 22.5655 380.553 19.9638 380.635 20.365C380.663 20.5101 380.791 20.3895 380.915 20.1012C381.054 19.7787 381.149 21.3953 381.161 24.2578C381.173 27.1925 381.278 28.9423 381.443 28.9423C381.601 28.9423 381.708 27.9071 381.709 26.3692C381.709 24.9539 381.8 23.1428 381.908 22.3445C382.1 20.9162 382.106 20.9329 382.25 23.4L382.398 25.9073L382.448 22.6899C382.477 20.9204 382.604 19.4075 382.733 19.328C383.032 19.1424 383.272 20.0435 383.324 21.5527L383.365 22.7403L383.554 21.6846L383.743 20.629L383.807 21.8166C383.933 24.1783 384.292 24.4198 384.319 22.1619C384.335 20.8006 384.462 19.9284 384.66 19.806C384.832 19.6988 385.025 19.7648 385.087 19.9524C385.179 20.2264 385.243 20.224 385.418 19.9402C385.865 19.2164 386.064 20.1073 386.21 23.4868L386.36 26.9623L386.427 24.1912C386.463 22.6671 386.595 21.1826 386.72 20.8923C386.908 20.4525 386.95 20.5102 386.965 21.2376C386.973 21.7258 387.096 22.0417 387.237 21.954C387.377 21.8676 387.604 22.1872 387.741 22.6641C387.969 23.4555 387.994 23.3915 388.015 21.9324C388.031 20.9688 388.193 20.1297 388.426 19.821C388.788 19.343 388.814 19.3407 388.822 19.7843C388.826 20.0468 388.941 20.1936 389.075 20.1105C389.21 20.0273 389.405 20.228 389.51 20.5569C389.693 21.1345 389.707 21.1368 389.906 20.6265C390.081 20.1798 390.115 20.1697 390.131 20.5605C390.139 20.8145 390.253 21.0224 390.38 21.0224C390.507 21.0224 390.724 24.0804 390.862 27.8181C391.112 34.562 391.114 34.5807 391.161 30.2593C391.219 24.8361 391.505 20.3878 391.737 21.2863C391.888 21.8669 391.932 21.8113 392.107 20.8233C392.439 18.956 392.785 19.837 392.839 22.6874L392.89 25.3769L393.036 22.7621C393.161 20.5394 393.252 20.1372 393.645 20.0803C394.007 20.0277 394.115 20.221 394.144 20.9797L394.181 21.946L394.341 20.911C394.52 19.7585 395.143 19.2922 395.192 20.2745C395.216 20.7521 395.251 20.7824 395.347 20.4092C395.417 20.1388 395.627 19.9877 395.827 20.0646C396.022 20.1396 396.24 20.0606 396.311 19.886C396.381 19.7127 396.448 20.0686 396.46 20.6769C396.488 22.198 397.008 22.4417 397.008 20.9339C397.008 19.8861 397.073 19.7604 397.602 19.7752C397.928 19.7833 398.374 19.7425 398.591 19.6813C398.921 19.5892 399.009 20.0753 399.119 22.6059L399.251 25.6408L399.478 22.6695C399.603 21.0353 399.802 19.6379 399.922 19.5641C400.041 19.4903 400.325 19.6962 400.552 20.0211C400.944 20.5803 400.968 20.5841 401.001 20.0916C401.021 19.8054 401.123 19.9868 401.23 20.4949L401.424 21.4186L401.461 20.5389C401.502 19.5195 402.1 19.5 402.248 20.5144C402.338 21.1362 402.348 21.1325 402.672 20.3619L403.003 19.5725L403.354 20.721C403.673 21.7603 403.739 21.8245 404.052 21.3963C404.342 21 404.406 21.8872 404.447 26.8455L404.496 32.768L404.676 26.5661C404.884 19.4012 404.857 19.7183 405.19 20.2322C405.33 20.4499 405.468 22.8846 405.495 25.6425L405.545 30.6568L405.8 25.4348C405.972 21.9074 406.148 20.2438 406.34 20.3081C406.497 20.3603 406.696 20.6914 406.781 21.0435C406.93 21.6576 406.943 21.6505 407.103 20.8702C407.26 20.1029 408.067 19.6799 408.11 20.3423C408.118 20.4997 408.231 20.3909 408.356 20.1006C408.504 19.7564 408.605 20.6291 408.647 22.6078C408.707 25.377 408.726 25.481 408.867 23.7954C408.957 22.7141 409.089 22.1668 409.185 22.4758C409.276 22.7661 409.363 22.2613 409.38 21.3541C409.413 19.5131 409.916 19.0701 409.978 20.8263C410.011 21.7278 410.04 21.7928 410.134 21.157C410.337 19.7758 410.824 19.861 411.298 21.3605L411.734 22.7397L411.778 21.5521C411.871 19.0776 412.275 19.2648 412.348 21.8159L412.419 24.3231L412.509 22.2777C412.598 20.2687 412.664 20.1381 413.537 20.255C413.63 20.2672 413.806 20.1188 413.929 19.9251C414.094 19.6642 414.155 19.7094 414.162 20.1004C414.17 20.5852 414.214 20.5744 414.688 19.9683L415.204 19.3085L415.245 21.1559C415.27 22.1719 415.369 24.4285 415.469 26.1703L415.65 29.3373L415.728 24.4549C415.83 17.9905 416.199 19.5299 416.239 26.5923C416.294 36.039 416.647 37.2895 416.798 28.5673C416.893 23.0659 417.017 20.9069 417.24 20.8326C417.41 20.7759 417.602 21.0035 417.665 21.3387C417.764 21.8557 417.792 21.8281 417.849 21.156L417.916 20.3642L418.117 21.156C418.306 21.8966 418.323 21.8709 418.39 20.7601L418.461 19.5725L418.631 20.7601L418.801 21.9477L419.091 20.7601L419.381 19.5725L419.441 21.6837L419.501 23.7951L419.724 22.2692C419.847 21.43 420.062 20.5393 420.201 20.2898C420.423 19.8931 420.49 19.9294 420.737 20.5794C420.893 20.988 421.041 22.2351 421.067 23.3505L421.115 25.3785L421.284 23.3992C421.376 22.3105 421.491 21.6573 421.54 21.9477C421.588 22.238 421.698 21.9395 421.785 21.2879C421.945 20.0875 422.349 19.7798 423.064 20.3143C423.287 20.4803 423.405 20.4427 423.426 20.1985C423.443 19.9991 423.598 20.6082 423.769 21.5517L424.08 23.2673L424.311 21.2879C424.515 19.538 424.562 19.4156 424.724 20.2322C424.887 21.0541 424.911 21.0759 424.942 20.4299C424.991 19.4056 425.502 19.523 425.516 20.5621L425.528 21.4198L425.891 20.628C426.25 19.8438 426.254 19.8513 426.319 21.4198C426.37 22.643 426.406 22.7631 426.477 21.9477C426.648 19.9854 426.769 19.7317 427.507 19.7885C427.925 19.8211 428.329 20.0951 428.552 20.4984C428.8 20.9469 428.919 21.0194 428.925 20.7263C428.938 20.1677 429.722 19.4653 429.735 20.0019C429.739 20.2759 429.822 20.2601 430.068 19.9376C430.337 19.5836 430.448 19.571 430.721 19.8625C430.901 20.0558 431.226 20.1463 431.443 20.0631C431.671 19.9754 431.84 20.0622 431.845 20.2702C431.849 20.5054 431.987 20.4525 432.241 20.1161C432.59 19.6543 432.632 19.8756 432.666 22.3594C432.698 24.8017 432.725 24.9499 432.903 23.6633C433.014 22.865 433.125 21.5586 433.151 20.7603C433.175 19.9619 433.255 19.4506 433.326 19.6239C433.396 19.7971 433.624 19.8734 433.832 19.7935C434.041 19.7135 434.211 19.7771 434.211 19.9321C434.211 20.0882 434.389 20.1474 434.607 20.0642C434.838 19.9757 435.004 20.0605 435.007 20.2705C435.01 20.547 435.069 20.5384 435.266 20.2338C435.47 19.9186 435.526 19.9725 435.543 20.4976C435.563 21.1246 435.575 21.1297 435.788 20.6004C435.912 20.2942 436.202 19.9712 436.431 19.8829C436.755 19.759 436.849 19.8992 436.849 20.506C436.849 20.9369 436.968 21.2894 437.113 21.2894C437.258 21.2894 437.377 21.1113 437.377 20.8936C437.377 20.6758 437.495 20.4976 437.64 20.4976C437.785 20.4976 437.913 20.2896 437.924 20.0357C437.937 19.7817 438.091 20.048 438.269 20.6297C438.483 21.3263 438.649 21.5506 438.756 21.2894C438.845 21.0717 438.941 22.9124 438.97 25.38C439.029 30.4989 439.375 30.1653 439.516 24.8522C439.572 22.7437 439.663 24.6255 439.751 29.7346L439.894 38.0479L439.954 31.0281C439.987 27.1671 440.098 23.0698 440.201 21.923L440.386 19.8379L440.703 21.1574C440.933 22.1199 441.026 22.2764 441.044 21.7356C441.057 21.3279 441.178 21.0614 441.311 21.1434C441.444 21.2254 441.612 21.1435 441.686 20.9613C441.759 20.779 441.85 22.1142 441.887 23.9286L441.955 27.2275L442.106 24.016C442.268 20.5719 442.641 19.3107 442.672 22.1032C442.696 24.479 443.138 25.3927 443.162 23.1213C443.174 22.0706 443.328 21.1891 443.555 20.8784C443.917 20.3827 443.934 20.3873 444.084 21.026C444.169 21.3889 444.272 23.2294 444.312 25.1164L444.385 28.5472L444.443 24.6546C444.479 22.2736 444.602 20.7618 444.764 20.7618C444.909 20.7618 445.028 20.8804 445.028 21.0256C445.028 21.1708 445.146 21.2894 445.291 21.2894C445.436 21.2894 445.555 21.0517 445.555 20.7616C445.555 19.7981 446.012 20.2157 446.205 21.3554C446.38 22.3892 446.414 22.4275 446.64 21.8449C447.005 20.9041 447.178 21.3021 447.396 23.5855L447.592 25.644L447.628 23.4883C447.669 21.1277 447.863 20.2281 448.212 20.7917C448.356 21.0261 448.475 20.9115 448.599 20.4177C448.939 19.0631 449.249 19.7147 449.295 21.8831L449.341 24.0604L449.512 22.2129C449.606 21.1969 449.706 20.4844 449.734 20.6295C449.762 20.7747 449.899 20.7151 450.04 20.4974C450.221 20.2173 450.307 20.6026 450.334 21.817L450.371 23.5323L450.566 22.0046C450.674 21.1644 450.836 20.4024 450.927 20.3112C451.019 20.2203 451.115 22.5702 451.141 25.5337L451.189 30.9219L451.371 25.9076C451.622 18.954 451.566 19.4792 451.998 20.0495C452.268 20.4055 452.394 20.4389 452.497 20.1816C452.573 19.9924 452.644 20.4377 452.655 21.1706C452.668 21.9036 452.818 22.6448 452.991 22.8177C453.203 23.0305 453.359 24.9877 453.473 28.8745L453.641 34.617L453.741 30.3943L453.841 26.1717L453.995 29.9985C454.138 33.5521 454.154 33.3637 454.214 27.3593C454.263 22.3305 454.362 20.7468 454.655 20.2336C455.004 19.6228 455.033 19.7432 455.041 21.853C455.045 23.345 455.187 24.3931 455.445 24.8879C455.827 25.6204 455.839 25.5824 455.842 23.6645C455.845 21.5205 456.385 18.9986 456.577 20.2336C456.74 21.2903 457.162 21.5064 457.162 20.5337C457.162 19.721 457.21 19.6771 458.019 19.7551C458.676 19.8187 458.896 19.9766 458.961 20.4317C459.007 20.7583 459.156 21.0255 459.291 21.0255C459.426 21.0255 459.536 21.3153 459.536 21.6697C459.536 22.024 459.655 22.3873 459.8 22.477C459.958 22.5744 460.064 22.245 460.064 21.6569C460.064 21.1161 460.146 20.7556 460.246 20.8558C460.346 20.9556 460.574 20.7085 460.752 20.3059L461.076 19.574L461.124 20.2337L461.172 20.8935L461.383 20.2337C461.57 19.6478 461.601 19.6921 461.658 20.6297L461.721 21.6852L461.91 20.6297C462.089 19.6271 462.102 19.6535 462.149 21.1574C462.197 22.7218 462.202 22.7314 462.56 21.9492C462.877 21.257 462.926 22.2092 462.944 29.5211C462.957 34.7885 463.063 37.9452 463.23 38.0479C463.404 38.1559 463.483 31.8346 463.462 19.2596C463.446 8.83635 463.34 0.664449 463.23 1.09992C463.119 1.53535 462.998 5.6921 462.961 10.337C462.924 14.9819 462.841 18.4853 462.776 18.1224C462.604 17.1631 462.184 16.829 462.129 17.6078C462.104 17.9633 462.006 17.4822 461.91 16.5389L461.737 14.8235L461.673 16.8028C461.629 18.185 461.541 18.6229 461.383 18.2543C461.174 17.7697 461.154 17.7806 461.133 18.3865C461.117 18.9146 461.059 18.9672 460.851 18.6503C460.62 18.2984 460.562 18.2984 460.331 18.6503C460.136 18.9484 460.07 18.8073 460.067 18.0813C460.064 17.2471 459.992 17.135 459.536 17.2543C459.201 17.3419 459.008 17.6144 459.008 17.9998C459.008 19.1161 458.768 19.4025 458.001 19.1988C457.424 19.0455 457.266 18.8188 457.144 17.9727L456.996 16.9348L456.778 17.7266C456.2 19.8324 455.935 18.8031 455.827 14.0318C455.785 12.1449 455.704 11.1179 455.647 11.7497C455.591 12.3816 455.395 14.3412 455.211 16.1044C454.888 19.2027 454.867 19.2748 454.569 18.2545C454.381 17.61 454.239 14.7314 454.204 10.8648L454.145 4.53093L453.995 9.28131L453.845 14.0318L453.745 8.48954L453.646 2.94739L453.455 9.43934C453.341 13.3386 453.147 16.151 452.97 16.4817C452.808 16.7842 452.676 17.3857 452.676 17.8178C452.676 18.4064 452.564 18.5871 452.229 18.5379C451.982 18.5012 451.74 18.35 451.691 18.2003C451.641 18.0511 451.504 15.5673 451.387 12.6812L451.174 7.43372L451.103 13.1079C451.062 16.2287 450.979 18.5445 450.915 18.2542C450.645 17.0334 450.458 16.992 450.317 18.1221C450.071 20.1073 449.651 19.3332 449.495 16.607L449.349 14.0314L449.298 16.2088C449.269 17.4063 449.171 18.386 449.078 18.386C448.985 18.386 448.752 18.1781 448.559 17.9242C448.229 17.4891 448.208 17.4917 448.2 17.9683C448.196 18.2464 448.103 18.3852 447.994 18.2765C447.885 18.1676 447.727 16.8119 447.643 15.2635L447.49 12.448L447.441 15.0871C447.387 17.9864 447.064 19.0939 446.754 17.4408C446.616 16.7048 446.504 16.5423 446.328 16.8209C446.197 17.0284 446.085 17.5547 446.081 17.9902C446.077 18.5992 446.014 18.6906 445.817 18.3861C445.677 18.1684 445.56 17.6113 445.558 17.1481C445.553 16.0974 445.033 15.6942 445.007 16.7211C444.995 17.1288 444.887 17.7 444.762 17.9903C444.611 18.3422 444.512 17.6387 444.465 15.8789L444.395 13.2398L444.249 16.0109C444.125 18.356 444.069 18.6226 443.884 17.7447C443.722 16.9786 443.603 16.806 443.426 17.0848C443.269 17.3335 443.184 16.876 443.179 15.747C443.175 14.5409 443.095 14.1491 442.915 14.4274C442.775 14.6451 442.658 15.4073 442.656 16.1209C442.653 16.8346 442.563 17.3296 442.454 17.2212C442.345 17.1127 442.19 15.0444 442.109 12.6247L441.962 8.22549L441.903 13.3718C441.856 17.4185 441.761 18.6276 441.456 19.0304C441.092 19.513 441.069 19.49 441.065 18.6345C441.061 17.5787 440.58 16.5726 440.505 17.4623C440.362 19.175 440.062 13.5632 439.984 7.69764L439.893 0.835871L439.75 9.14916C439.671 13.7214 439.573 15.9184 439.531 14.0314C439.398 7.96514 439.024 7.96514 438.968 14.0314C438.939 17.0797 438.857 19.3956 438.785 19.1779C438.712 18.9602 438.596 18.6071 438.528 18.3935C438.417 18.0514 438.373 18.0514 438.157 18.3935C437.97 18.6883 437.91 18.6071 437.907 18.0562C437.904 17.5888 437.762 17.3305 437.507 17.3305C437.29 17.3305 437.111 17.4822 437.111 17.6678C437.111 17.8533 436.877 18.2052 436.592 18.4501C436.104 18.868 436.056 18.8676 435.808 18.442C435.59 18.0673 435.542 18.1251 435.532 18.7812C435.524 19.3909 435.461 19.4819 435.264 19.1771C435.037 18.8253 435.007 18.8253 434.993 19.1771C434.985 19.3949 434.814 19.2179 434.615 18.7812C434.259 18.0035 434.252 18.0011 434.223 18.649C434.194 19.2519 434.163 19.2693 433.845 18.8509C433.654 18.5993 433.432 18.4586 433.352 18.5389C433.272 18.6192 433.128 17.5188 433.033 16.0937C432.781 12.3216 432.692 12.2985 432.657 15.9966C432.629 18.9929 432.399 19.8141 432.023 18.2531C431.903 17.7555 431.894 17.7577 431.866 18.2898C431.822 19.1061 431.079 19.3041 430.787 18.5776C430.633 18.1968 430.544 18.1362 430.533 18.406C430.517 18.8271 429.842 18.9147 429.282 18.5687C429.116 18.4663 428.792 18.455 428.561 18.5443C428.272 18.6552 428.139 18.5523 428.131 18.2151C428.123 17.8368 428.031 17.8906 427.727 18.4508C427.001 19.7885 426.651 19.2886 426.477 16.6694C426.417 15.7662 426.375 16.0091 426.342 17.4392C426.292 19.652 426.053 19.8994 425.751 18.05L425.57 16.9334L425.537 18.0706C425.5 19.378 424.998 19.352 424.937 18.038C424.9 17.2335 424.892 17.2284 424.787 17.9257C424.631 18.9533 424.185 18.5501 424.181 17.3778C424.178 16.6517 424.112 16.5046 423.921 16.7997C423.78 17.0174 423.66 17.6706 423.653 18.2512C423.64 19.1227 423.584 19.2378 423.319 18.911C423.142 18.6932 422.76 18.515 422.47 18.515C422.025 18.515 421.918 18.2875 421.787 17.0635C421.702 16.2651 421.596 15.9088 421.552 16.2717C421.49 16.7831 421.429 16.6939 421.283 15.8758C421.117 14.9514 421.089 15.0499 421.052 16.6676C420.975 20.1124 420.576 19.533 419.601 14.5563C419.543 14.266 419.473 15.0379 419.443 16.2717C419.393 18.3275 419.364 18.4378 419.098 17.5914L418.807 16.6676L418.656 17.7233C418.516 18.7007 418.488 18.7301 418.286 18.1192C418.074 17.4822 418.056 17.4953 417.742 18.4996L417.418 19.5396L417.108 17.9938C416.92 17.0607 416.783 13.51 416.76 9.0363C416.736 4.39853 416.648 2.16801 416.522 3.0763C416.412 3.87462 416.303 7.31873 416.281 10.7298C416.233 17.9071 415.847 21.2461 415.732 15.4802L415.66 11.9174L415.41 15.3664C415.173 18.6498 415.134 18.8145 414.594 18.7972C414.282 18.7891 413.951 18.6744 413.858 18.5464C413.765 18.4184 413.608 18.5668 413.51 18.8763C413.198 19.862 412.883 19.4853 412.712 17.9215C412.435 15.3743 412.385 15.2773 412.344 17.1958C412.297 19.3379 411.813 19.1183 411.761 16.932C411.733 15.7541 411.707 15.6973 411.515 16.404C410.784 19.0864 410.42 19.3577 410.177 17.4002L410.02 16.1402L409.979 17.5257C409.918 19.5562 409.415 19.2243 409.379 17.1298C409.363 16.15 409.273 15.5859 409.181 15.8762C409.089 16.1665 408.949 14.7413 408.87 12.7092L408.727 9.0144L408.642 14.2927C408.595 17.1958 408.502 19.3635 408.436 19.1101C408.342 18.7513 408.208 18.7069 407.828 18.9104C407.411 19.1334 407.311 19.046 407.143 18.3154C406.949 17.4732 406.942 17.4701 406.752 18.1193L406.56 18.7792L406.515 18.1193C406.473 17.51 406.452 17.5 406.243 17.9873C406.104 18.3127 405.998 16.6912 405.967 13.7647C405.939 11.1519 405.831 8.24231 405.725 7.29883C405.595 6.14104 405.519 7.61598 405.492 11.8357C405.468 15.6746 405.35 18.1511 405.188 18.2512C405.038 18.3438 404.91 18.0934 404.891 17.673C404.871 17.2652 404.776 14.794 404.674 12.1812L404.491 7.43073L404.44 12.841C404.411 15.8166 404.273 18.4293 404.133 18.6471C403.916 18.9826 403.876 18.9704 403.873 18.5656C403.869 18.303 403.75 18.1614 403.605 18.2511C403.46 18.3408 403.342 18.2549 403.342 18.0591C403.342 17.8638 403.104 17.686 402.814 17.664C402.42 17.6355 402.286 17.7872 402.286 18.2677C402.286 19.2898 401.502 19.0871 401.457 18.0531C401.421 17.2305 401.413 17.2378 401.259 18.2306C401.082 19.3751 400.795 19.5907 400.126 19.0827C399.776 18.8177 399.628 18.0367 399.438 15.4628L399.196 12.1811L399.159 15.546C399.135 17.5654 399.016 18.9226 398.858 18.9402C398.712 18.9565 398.356 18.9688 398.066 18.9688C397.776 18.9688 397.42 18.9565 397.275 18.9402C397.129 18.9239 397.002 18.2874 396.992 17.5254C396.98 16.5078 396.913 16.28 396.747 16.6677C396.622 16.958 396.512 17.5617 396.501 18.0092C396.489 18.5484 396.349 18.823 396.087 18.823C395.869 18.823 395.691 18.7154 395.691 18.5841C395.691 18.4528 395.504 18.5331 395.274 18.7623C394.715 19.3212 394.379 19.0595 394.341 18.0373L394.308 17.1952L394.139 17.9869C394.043 18.4367 393.8 18.7787 393.577 18.7787C393.269 18.7787 393.152 18.2656 393.036 16.4034L392.888 14.0282L392.818 16.7993L392.749 19.5704L392.284 18.5166C391.967 17.7971 391.77 17.5877 391.665 17.8568C391.483 18.3212 391.453 17.6603 391.219 7.9582L391.04 0.568588L390.991 5.87183C390.93 12.4472 390.664 17.0943 390.389 16.3918C390.261 16.0628 390.167 16.546 390.132 17.723C390.104 18.739 390.025 19.2941 389.961 18.9564C389.885 18.5584 389.712 18.3931 389.469 18.4863C389.219 18.5825 389.086 18.4365 389.068 18.0445C389.044 17.4734 389.04 17.4745 388.866 18.0854L388.691 18.7116L388.376 18.0854C388.204 17.7408 387.959 16.9247 387.833 16.2715L387.605 15.0839L387.252 16.9987C387.058 18.0518 386.829 18.8436 386.743 18.7582C386.658 18.6725 386.52 16.9797 386.436 14.9959L386.284 11.3891L386.238 14.3188C386.19 17.397 385.76 19.4836 385.375 18.5012C385.19 18.0273 385.173 18.0249 385.156 18.4727C385.148 18.739 384.989 18.9078 384.807 18.8483C384.615 18.7851 384.423 18.0905 384.346 17.1769C384.224 15.7385 384.198 15.6848 384.016 16.5046C383.907 16.9945 383.81 17.8258 383.799 18.352C383.783 19.1272 383.738 19.2085 383.554 18.7808C383.429 18.4905 383.319 18.3566 383.309 18.4832C383.3 18.61 383.112 18.5655 382.894 18.3849C382.595 18.1361 382.486 17.3762 382.448 15.2516L382.398 12.4468L382.25 14.9541C382.051 18.3419 381.714 16.8567 381.689 12.4799C381.676 10.4463 381.588 9.47221 381.443 9.80766C381.319 10.098 381.208 12.1466 381.198 14.3602C381.182 18.176 381.153 18.3849 380.662 18.3849C380.194 18.3849 380.136 18.1639 380.057 16.0756C379.972 13.8542 379.966 13.8818 379.904 16.8015C379.841 19.7595 379.83 19.8131 379.442 18.9198C379.131 18.2023 378.999 16.11 378.835 9.28703L378.625 0.570703L378.582 6.90462C378.533 14.0677 378.304 18.3849 377.974 18.3849C377.851 18.3849 377.738 18.0583 377.723 17.6592C377.698 16.9829 377.681 16.9941 377.485 17.825C377.369 18.3155 377.162 18.7906 377.024 18.8807C376.886 18.9709 376.716 19.2224 376.646 19.4398C376.576 19.6571 376.424 19.3008 376.309 18.648C376.125 17.605 376.077 17.5411 375.916 18.1208C375.786 18.5868 375.667 18.1217 375.51 16.5374C375.267 14.0684 375.222 14.1201 374.968 17.1704C374.873 18.3169 374.717 19.1482 374.623 19.0177C374.384 18.6887 373.792 18.5969 373.792 18.8893C373.792 19.0218 373.584 19.0899 373.33 19.0414C373.076 18.9925 372.868 18.935 372.868 18.913C372.868 18.8926 372.601 18.8233 372.275 18.7625C371.948 18.7018 371.681 18.7422 371.681 18.8551C371.681 19.0276 369.432 19.0711 369.043 18.906C368.97 18.8734 368.792 18.8775 368.647 18.9101C368.502 18.9427 368.056 19.0031 367.657 19.041L366.932 19.1103L366.87 10.8953L366.808 2.68023L366.724 10.8616C366.651 18.0302 366.596 18.9449 366.28 18.2511L365.919 17.4595L365.899 18.2175C365.883 18.8305 365.808 18.9179 365.514 18.6738C365.229 18.4369 365.121 18.4862 365.012 18.9045C364.91 19.2915 364.681 19.4213 364.171 19.3791C363.266 19.3041 363.039 19.0055 362.908 17.72L362.801 16.6678L362.756 17.7895C362.732 18.4063 362.593 18.9111 362.448 18.9111C362.303 18.9111 362.182 18.7627 362.18 18.5812C362.176 18.3423 362.112 18.3517 361.946 18.6138C361.558 19.225 361.131 18.6758 361.086 17.5087C361.045 16.4707 361.033 16.4906 360.888 17.8333C360.745 19.1488 360.675 19.2717 360.007 19.3598C359.608 19.4124 359.282 19.3313 359.282 19.1784C359.282 19.0259 358.925 18.9032 358.49 18.9056C358.055 18.9075 357.358 18.9097 356.941 18.9097C356.348 18.9107 356.091 18.725 355.76 18.052L355.336 17.1925L355.332 18.1193L355.328 19.046L353.811 18.993C352.977 18.9644 351.789 18.8972 351.173 18.8442C350.379 18.7765 350.051 18.8482 350.051 19.092C350.051 19.4631 349.724 19.5478 349.429 19.253C349.329 19.1527 349.016 19.0353 348.735 18.9921C347.659 18.8278 347.539 18.7576 347.238 18.1161L346.928 17.4563L346.908 18.2349C346.884 19.0635 346.506 18.9114 346.283 17.9842C346.201 17.6425 346.145 17.7587 346.126 18.3141C346.11 18.7858 345.976 19.1718 345.832 19.1718C345.686 19.1718 345.568 19.0458 345.568 18.8921C345.568 18.7383 345.463 18.6775 345.334 18.7571C344.644 19.1835 344.518 17.923 344.446 9.91206L344.373 1.62117L344.311 10.3743C344.246 19.5328 344.218 19.7374 343.119 19.0637C342.767 18.8476 342.596 18.8614 342.436 19.1179C342.077 19.6962 341.505 18.7241 341.322 17.2223L341.157 15.8724L341.12 17.258C341.084 18.5546 340.769 19.065 340.466 18.3137C340.387 18.1168 340.325 18.1698 340.313 18.4458C340.292 18.9173 340.175 18.9649 338.907 19.0238L338.181 19.0564L338.126 14.8248L338.07 10.5932L337.928 14.684C337.795 18.5186 337.639 19.1967 337.094 18.3352C336.922 18.0649 336.869 18.0906 336.866 18.445C336.862 18.7259 336.66 18.9067 336.346 18.9067C335.82 18.9067 335.677 18.4821 335.456 16.2676C335.404 15.7506 335.345 16.0561 335.321 16.9611C335.293 18.0463 335.147 18.688 334.877 18.9121C334.386 19.3194 334.339 19.2763 334.007 18.1151C333.761 17.2532 333.742 17.2399 333.72 17.9173C333.708 18.3164 333.647 18.6431 333.586 18.6431C333.526 18.6431 333.288 18.7151 333.058 18.8032C332.716 18.9349 332.635 18.7352 332.61 17.6817C332.581 16.5487 332.555 16.4917 332.377 17.1916C332.253 17.6798 332.151 16.4151 332.111 13.8927C332.075 11.6428 331.964 8.07992 331.863 5.97523C331.681 2.21383 331.677 2.26343 331.585 8.87827C331.525 13.2368 331.433 14.9571 331.322 13.7607L331.151 11.9133L331.105 14.2009C331.054 16.7267 330.866 17.5964 330.498 17.0157C330.35 16.7821 330.273 16.955 330.271 17.5298C330.267 18.4726 329.591 18.9861 329.189 18.3516C329.061 18.149 328.946 15.608 328.935 12.705C328.906 5.9345 328.467 6.63855 328.236 13.8203C328.146 16.6294 327.972 18.9896 327.85 19.065C327.728 19.1405 327.613 18.7498 327.594 18.1969L327.557 17.1916L327.375 18.1152C327.202 18.9861 327.182 19.0012 327.022 18.379C326.928 18.0161 326.804 17.4224 326.747 17.0595C326.69 16.6966 326.618 17.1121 326.587 17.9832C326.554 18.8541 326.47 19.4175 326.396 19.2351C326.323 19.0529 326.159 18.968 326.032 19.0467C325.904 19.1254 325.688 18.7996 325.55 18.3227C325.413 17.8457 325.281 17.6337 325.258 17.8514C325.229 18.1303 325.149 18.0911 324.989 17.7193C324.801 17.283 324.756 17.3515 324.725 18.1152C324.697 18.8788 324.649 18.9474 324.461 18.5112C324.259 18.04 324.233 18.0345 324.216 18.4605C324.208 18.7231 324.086 18.869 323.95 18.7847C323.814 18.7007 323.586 18.8394 323.444 19.0934C323.214 19.5042 323.149 19.4734 322.848 18.8137C322.527 18.1094 322.5 18.0998 322.307 18.6217C321.897 19.7305 321.559 19.1496 321.513 17.2576L321.466 15.3442L321.315 17.1917C321.027 20.7122 320.768 18.1446 320.735 11.4299C320.715 7.77668 320.617 3.95635 320.513 2.94029C320.396 1.80929 320.307 4.4517 320.281 9.7549C320.245 17.0638 320.178 18.4788 319.844 18.8128C319.627 19.0305 319.448 19.0926 319.448 18.9507C319.448 18.8088 319.212 18.7546 318.924 18.8296C318.584 18.9185 318.339 18.8092 318.228 18.5189C318.133 18.2726 317.983 18.1837 317.895 18.3215C317.806 18.4594 317.466 18.6554 317.14 18.7573C316.567 18.9359 316.544 18.8788 316.495 17.1434L316.443 15.3442L316.35 17.1256C316.299 18.1054 316.145 18.907 316.006 18.907C315.868 18.907 315.751 18.7586 315.746 18.5771C315.742 18.3912 315.568 18.4711 315.35 18.7594C315.137 19.0412 314.963 19.1232 314.963 18.9417C314.963 18.7476 314.829 18.6946 314.638 18.8128C314.093 19.15 313.38 19.1036 313.38 18.7309C313.38 18.5377 313.261 18.379 313.116 18.379C312.958 18.379 312.83 17.0878 312.796 15.1461L312.74 11.9131L312.665 14.9481C312.575 18.6264 312.466 19.1707 311.823 19.1707C311.211 19.1707 311.027 18.5219 310.963 16.1357L310.915 14.2883L310.762 16.0037L310.61 17.7192L310.412 15.634C310.303 14.4872 310.193 10.6274 310.168 7.05681L310.122 0.564855L309.953 9.54088C309.839 15.5457 309.682 18.6907 309.479 19.0418C309.218 19.492 309.17 19.379 309.14 18.247C309.116 17.287 309.057 17.1025 308.927 17.5697C308.76 18.1682 308.726 18.1411 308.425 17.1738C308.248 16.6028 308.065 15.5419 308.018 14.8161C307.968 14.0177 307.915 14.3825 307.883 15.7398C307.846 17.2998 307.754 17.8624 307.576 17.5871C307.37 17.2687 307.319 17.3103 307.316 17.8008C307.312 18.1392 307.195 18.3377 307.048 18.2471C306.903 18.1574 306.785 18.3356 306.785 18.6431C306.785 18.9505 306.666 19.1286 306.521 19.0389C306.376 18.9492 306.257 19.0144 306.257 19.1877C306.257 19.4201 306.156 19.4157 305.861 19.1714C305.562 18.9231 305.457 18.1914 305.43 16.1701C305.402 13.8643 305.367 13.6785 305.189 14.8169C305.077 15.5426 304.972 16.7896 304.957 17.588C304.936 18.6286 304.857 18.9275 304.674 18.6437C304.533 18.426 304.397 18.3664 304.373 18.5115C304.348 18.6567 304.246 18.1816 304.146 17.4559L303.965 16.1364L303.916 17.324C303.887 17.9771 303.695 18.737 303.487 19.0126C303.119 19.4993 303.092 19.4955 302.58 18.8805C302.277 18.516 302.033 17.7997 302.005 17.1918C301.968 16.3842 301.931 16.3067 301.847 16.8619C301.787 17.2611 301.635 17.5876 301.509 17.5876C301.383 17.5876 301.243 17.8548 301.197 18.1815C301.134 18.627 300.948 18.7676 300.453 18.7445C300.09 18.7282 299.706 18.8464 299.599 19.0083C299.493 19.1706 299.379 17.6997 299.347 15.7402L299.289 12.1774L299.146 15.6654C299.028 18.5262 298.937 19.1132 298.641 18.9294C298.399 18.7793 298.225 17.8906 298.113 16.233L297.947 13.7608L297.815 16.5146C297.689 19.138 297.661 19.2465 297.221 18.8051C296.967 18.5502 296.76 18.4691 296.76 18.6244C296.76 18.7802 296.646 18.9074 296.507 18.9074C296.369 18.9074 296.214 18.0463 296.164 16.994L296.073 15.0807L295.99 17.1919C295.926 18.7944 295.857 19.1125 295.705 18.5115L295.503 17.7198L295.471 18.5775C295.434 19.5805 295.345 19.6137 294.587 18.9069C294.157 18.5065 293.969 18.4586 293.81 18.7091C293.653 18.9575 293.599 18.9412 293.593 18.6436C293.584 18.3121 293.547 18.3075 293.351 18.615C293.223 18.8176 292.932 18.9119 292.704 18.8246C292.477 18.7374 292.22 18.7797 292.134 18.9187C292.035 19.0781 291.788 19.0705 291.466 18.8984C291.063 18.6827 290.954 18.7104 290.954 19.0297C290.954 19.2527 290.836 19.435 290.691 19.435C290.545 19.435 290.427 19.3244 290.427 19.1895C290.427 19.0545 290.16 18.9061 289.833 18.8596C289.259 18.778 289.235 18.6562 289.096 15.2124L288.952 11.6497L288.838 14.6846C288.76 16.7759 288.679 15.3808 288.58 10.1981L288.435 2.67649L288.376 11.1086C288.339 16.3034 288.222 19.4443 288.071 19.2899C287.936 19.1517 287.776 18.6235 287.715 18.1155C287.619 17.3188 287.577 17.2707 287.407 17.7657C287.276 18.1441 287.038 18.3064 286.707 18.2426C286.431 18.1892 286.188 18.2875 286.168 18.4608C286.011 19.791 285.725 14.8762 285.703 10.4843C285.687 7.52081 285.612 5.16153 285.532 5.24157C285.452 5.32149 285.303 8.3148 285.202 11.893C285.05 17.2475 284.948 18.4432 284.622 18.6492C283.976 19.0575 283.832 18.9533 283.796 18.0498L283.763 17.1921L283.6 17.9838C283.473 18.6009 283.277 18.7943 282.711 18.8605C282.078 18.9347 281.981 18.8522 281.948 18.2006C281.92 17.5983 281.875 17.6579 281.722 18.5118C281.607 19.1571 281.519 19.3223 281.496 18.9367C281.476 18.5897 281.257 18.1583 281.01 17.9777C280.609 17.685 280.544 16.7478 280.408 9.31938C280.324 4.73789 280.17 0.904001 280.065 0.799537C279.961 0.695154 279.855 2.91558 279.83 5.73395C279.802 9.17287 279.728 10.294 279.612 9.14281C279.475 7.78608 279.418 8.31036 279.339 11.65C279.246 15.5409 279.228 15.6755 279.1 13.3653C278.966 10.925 278.959 10.9672 278.825 14.9489L278.688 19.0395L278.25 17.3241L277.811 15.6086L277.779 17.0602C277.754 18.2609 277.697 18.4244 277.454 18.0062C277.169 17.5148 277.151 17.5144 276.802 17.9899C276.497 18.4082 276.436 17.5161 276.386 11.8975L276.327 5.31523L276.18 11.5173C276.1 14.9283 275.993 17.1848 275.943 16.5317L275.852 15.344L275.629 16.8723C275.506 17.7128 275.229 18.5764 275.014 18.7914C274.669 19.1368 274.605 19.0662 274.461 18.1869C274.17 16.4071 274.132 16.3779 274.1 17.9174C274.084 18.752 273.981 19.4322 273.872 19.429C273.465 19.4168 272.53 18.4924 272.409 17.9833C272.329 17.6445 272.273 17.7615 272.253 18.3116C272.221 19.2018 271.98 19.2786 270.803 18.7731C270.508 18.6463 270.106 18.6846 269.813 18.8677C269.542 19.0369 269.306 19.0854 269.288 18.9753C269.272 18.8652 269.172 17.5282 269.069 16.0041L268.882 13.2329L268.837 15.9381C268.813 17.426 268.743 18.6432 268.683 18.6432C267.972 18.6432 267.735 18.2053 267.704 16.8336L267.671 15.3442L267.418 16.9949C267.278 17.9028 267.056 18.5787 266.924 18.4969C266.791 18.4153 266.669 18.5051 266.652 18.6935C266.636 18.8835 266.53 18.6812 266.419 18.2471C266.258 17.6116 266.212 17.572 266.186 18.0462C266.162 18.5081 266.012 18.625 265.496 18.5823C265.133 18.5538 264.836 18.3682 264.836 18.1738C264.836 17.9793 264.726 17.8881 264.592 17.9709C264.458 18.0537 264.294 17.9125 264.227 17.6564C264.157 17.3886 264.091 17.5268 264.071 17.9831C264.051 18.4185 263.949 18.8936 263.843 19.0388C263.528 19.467 262.989 19.467 262.989 19.0388C262.989 18.821 262.815 18.6428 262.603 18.6428C262.008 18.6428 261.675 17.7722 261.625 16.087L261.579 14.5522L261.406 16.2676C261.311 17.2111 261.204 17.8049 261.168 17.5871C261.131 17.3694 260.942 17.6075 260.746 18.115L260.391 19.0386L260.325 17.1913C260.276 15.8149 260.236 15.6466 260.169 16.5314C259.954 19.3912 259.445 19.7298 259.174 17.194C259.073 16.2521 258.896 15.4231 258.781 15.3518C258.665 15.2804 258.49 15.9405 258.391 16.8184C258.133 19.1004 258.052 19.2527 257.356 18.7681C256.907 18.455 256.728 17.9229 256.495 16.1988L256.201 14.0243L256.164 16.4013L256.128 18.7782L255.04 19.1179C254.441 19.3047 253.877 19.3833 253.787 19.2924C253.696 19.2018 253.556 14.9507 253.477 9.84599L253.332 0.56473L253.279 9.47182C253.228 17.9889 253.202 18.402 252.698 18.9067C252.059 19.5457 251.815 19.56 250.974 19.0083C250.616 18.7738 250.323 18.6776 250.323 18.7946C250.323 18.9117 250.149 18.7783 249.936 18.4949C249.64 18.103 249.546 18.0757 249.536 18.3787C249.524 18.7305 249.495 18.7305 249.268 18.3787C249.053 18.0455 249.011 18.0615 249.008 18.477C249.004 18.8862 248.936 18.9146 248.608 18.6425C248.283 18.3725 248.213 18.3934 248.213 18.7579C248.213 19.0022 248.094 19.1281 247.949 19.0384C247.804 18.9487 247.677 19.0303 247.668 19.2207C247.66 19.4107 247.522 19.2693 247.364 18.9064C247.11 18.3225 247.063 18.304 246.959 18.7469C246.864 19.1481 246.794 19.1742 246.607 18.879C246.427 18.5936 246.371 18.6294 246.361 19.0384C246.349 19.5088 246.307 19.4945 245.97 18.9064C245.763 18.5435 245.565 18.3653 245.531 18.5104C245.499 18.6556 245.398 17.4086 245.311 15.7393L245.152 12.7042L245.1 15.7897C245.071 17.4867 244.936 18.9435 244.801 19.0271C244.666 19.1107 244.369 18.9129 244.142 18.5881L243.728 17.9971L243.682 18.7816C243.658 19.213 243.559 18.7938 243.464 17.8507L243.291 16.1351L243.245 17.8255C243.201 19.4818 243.189 19.5066 242.687 19.0517C242.405 18.7965 242.126 18.2732 242.067 17.8891C241.972 17.2725 241.955 17.2911 241.92 18.0485C241.896 18.6175 241.747 18.9064 241.485 18.9064C241.184 18.9064 241.088 18.5749 241.085 17.5208C241.081 16.5289 241.008 16.2478 240.825 16.5312C240.685 16.7489 240.568 17.4062 240.566 17.992C240.562 18.8798 240.474 19.0572 240.034 19.0572C239.744 19.0572 239.506 18.8818 239.506 18.6673C239.506 18.3713 239.421 18.3946 239.151 18.764C238.882 19.1318 238.745 19.1692 238.59 18.9181C238.428 18.6551 238.338 18.6604 238.158 18.9426C237.981 19.2215 237.93 19.1986 237.927 18.8386C237.923 18.2621 237.5 18.238 237.187 18.7961C236.857 19.3866 236.502 19.3042 236.301 18.5903C236.142 18.0262 236.127 18.0362 236.103 18.7257C236.079 19.4168 236.046 19.439 235.643 19.0359C235.373 18.766 235.146 18.7036 235.042 18.8712C234.815 19.2389 234.32 18.8876 234.159 18.2449C234.064 17.8632 234.019 17.9317 233.997 18.4931C233.968 19.1905 233.932 19.2225 233.629 18.8076C233.309 18.3702 233.26 18.3727 232.703 18.8552C231.92 19.535 230.542 19.2781 230.081 18.3662C229.779 17.7698 229.752 17.7616 229.748 18.2663C229.745 18.7004 229.578 18.8162 228.953 18.8162C228.253 18.8162 228.157 18.7228 228.126 18.0025C228.093 17.2982 228.075 17.2775 227.981 17.8483C227.676 19.6948 227.239 19.4826 226.88 17.3136C226.684 16.1331 226.634 16.0378 226.606 16.7926C226.585 17.3007 226.484 18.0133 226.377 18.3762C226.228 18.8807 226.147 18.6322 226.031 17.3205L225.878 15.605L225.833 17.3864C225.796 18.7908 225.701 19.1679 225.383 19.1679C225.161 19.1679 224.871 18.9009 224.74 18.5741C224.532 18.0569 224.499 18.0456 224.485 18.486C224.477 18.7641 224.39 18.9137 224.294 18.8183C224.199 18.7229 223.97 18.7699 223.785 18.9232C223.525 19.1389 223.403 18.915 223.242 17.9312L223.033 16.6607L222.893 17.6592C222.713 18.9434 222.268 18.9434 222.077 17.6592C221.929 16.6647 221.928 16.664 221.787 17.4525C221.664 18.1397 221.634 18.0874 221.561 17.0565C221.479 15.8929 221.474 15.9009 221.324 17.4525L221.17 19.0359H218.4C215.912 19.0359 215.597 18.9821 215.309 18.5081C214.993 17.9872 214.988 17.9876 214.979 18.5448C214.975 18.9007 214.754 19.1644 214.381 19.2619C213.653 19.4523 213.389 19.2032 213.122 18.0722L212.913 17.1899L212.885 17.9686C212.864 18.5912 212.792 18.6811 212.528 18.4176C212.286 18.1762 212.16 16.0311 212.053 10.3814L211.909 2.67475L211.813 10.8561C211.761 15.3559 211.659 18.6218 211.586 18.1137L211.454 17.1899L211.264 17.9817C211.041 18.908 211.044 18.9501 210.76 11.1199L210.579 6.10564L210.529 10.4602C210.459 16.6292 210.238 19.1055 209.74 19.2966C209.519 19.3814 209.256 19.317 209.155 19.156C209.055 18.9937 208.867 18.8725 208.739 18.8872C208.61 18.9035 208.436 18.1103 208.353 17.1283L208.202 15.343L208.151 17.4542C208.114 18.9286 208.023 19.4461 207.845 19.1697C207.704 18.9519 207.572 18.4769 207.55 18.114C207.518 17.586 207.473 17.6386 207.317 18.3778C207.21 18.8858 207.105 19.064 207.084 18.7737C207.055 18.3945 206.985 18.3415 206.83 18.5846C206.519 19.0747 205.74 18.6836 205.703 18.0195C205.679 17.603 205.628 17.6568 205.505 18.2231C205.277 19.2775 204.021 19.3794 203.481 18.3874L203.117 17.7179L203.089 18.5097C203.064 19.1939 203.029 19.2297 202.833 18.7735C202.708 18.4832 202.598 18.3943 202.587 18.5758C202.541 19.4134 202.089 18.7682 201.849 17.5201L201.583 16.1345L201.546 17.6272L201.514 19.1198L199.26 19.0754C197.587 19.0427 196.941 18.9298 196.757 18.6383C196.547 18.3056 196.508 18.3163 196.505 18.7073C196.501 19.3899 195.979 19.269 195.937 18.5751L195.901 17.9813L195.786 18.5751C195.651 19.2758 195.19 19.3731 195.16 18.7073C195.148 18.4312 195.085 18.3782 195.006 18.5751C194.705 19.3206 194.125 18.8956 194.105 17.9154L194.085 16.9256L193.775 17.7435C193.605 18.1934 193.267 18.757 193.024 18.996C192.612 19.4004 192.561 19.3674 192.281 18.5178C192.101 17.9714 191.898 14.1845 191.775 9.08408L191.571 0.562988L191.529 9.27957C191.488 17.413 191.454 18.024 190.997 18.4152C190.524 18.8205 190.501 18.6721 190.305 13.9213C189.868 3.35055 189.742 2.72062 189.665 10.7237C189.608 16.6295 189.53 18.0469 189.304 17.3216L189.016 16.3979L188.835 17.3216C188.731 17.8512 188.63 18.0201 188.599 17.7175C188.558 17.3277 188.451 17.4316 188.188 18.1134C187.993 18.6214 187.798 18.9777 187.756 18.9051C187.713 18.8326 187.612 14.676 187.531 9.66817L187.383 0.563113L187.324 9.68982L187.265 18.8165L186.301 19.1126C185.653 19.3115 185.178 19.323 184.85 19.1493C184.582 19.0057 184.363 18.9756 184.363 19.0824C184.363 19.1893 184.22 19.1334 184.045 18.9585C183.87 18.7836 183.648 18.077 183.552 17.3882L183.377 16.1357L183.337 17.4554C183.308 18.4135 183.227 18.6664 183.042 18.379C182.841 18.0687 182.785 18.1352 182.782 18.6856C182.778 19.3385 182.521 19.4545 181.722 19.1631C181.65 19.1386 181.264 19.1346 180.865 19.1628C180.182 19.2077 180.138 19.1424 180.112 18.0692L180.083 16.9276L179.764 17.9594C179.354 19.285 178.489 19.6823 178.061 18.742C177.898 18.3836 177.749 17.8882 177.73 17.641C177.709 17.3939 177.607 17.6084 177.5 18.1152C177.375 18.7128 177.28 17.6876 177.231 15.2122L177.157 11.3855L176.843 15.3441C176.671 17.5214 176.51 19.3471 176.487 19.4011C176.463 19.4549 176.278 19.3603 176.075 19.1923C175.791 18.9562 175.672 18.9644 175.564 19.2249C175.458 19.4814 175.33 19.4517 175.047 19.1039C174.841 18.8498 174.49 18.6421 174.268 18.6421C174.045 18.6421 173.791 18.4541 173.703 18.2246C173.615 17.995 173.516 13.9274 173.482 9.18549C173.423 0.957828 173.417 0.859331 173.343 7.0298C173.292 11.2823 173.179 13.3601 173.013 13.0998C172.841 12.8307 172.748 13.5485 172.724 15.3431C172.704 16.7946 172.609 18.3385 172.512 18.774C172.355 19.4788 172.318 19.5039 172.181 19.0023C172.062 18.5697 171.874 18.468 171.371 18.5641C170.816 18.6701 170.693 18.5681 170.56 17.9072C170.474 17.4771 170.22 17.0546 169.995 16.9682C169.667 16.8426 169.586 17.0209 169.586 17.8586C169.586 18.4347 169.467 18.906 169.322 18.906C169.177 18.906 169.058 18.787 169.058 18.6422C169.058 18.497 168.94 18.3784 168.795 18.3784C168.649 18.3784 168.527 18.6455 168.522 18.9722C168.514 19.5512 168.502 19.5531 168.126 19.0537C167.85 18.6875 167.728 17.747 167.7 15.7547L167.66 12.9682L167.352 16.0032C167.068 18.8073 166.858 19.2545 166.609 17.5866C166.507 16.8981 166.516 16.8878 165.981 18.3125C165.845 18.6745 165.771 18.6032 165.64 17.9826L165.472 17.1908L165.281 17.9165C165.005 18.96 164.579 18.81 164.529 17.6527C164.488 16.6783 164.485 16.6764 164.381 17.5207C164.258 18.5072 163.871 18.658 163.702 17.7845C163.64 17.4579 163.572 17.7559 163.552 18.4442C163.532 19.1337 163.397 19.6978 163.252 19.6978C163.107 19.6978 162.989 19.529 162.989 19.3227C162.989 18.9945 161.865 18.5457 160.963 18.5142C160.455 18.4978 160.352 18.27 160.114 16.6361L159.887 15.079L159.85 17.0584C159.826 18.3046 159.728 18.9027 159.583 18.6731C159.402 18.3864 159.314 18.4288 159.174 18.8712C158.717 20.3095 158.499 19.1151 158.444 14.8814L158.385 10.3289L158.306 14.6524C158.227 18.9383 158.222 18.9716 157.705 18.5041C157.265 18.1053 157.184 18.0953 157.184 18.4385C157.184 18.9133 155.941 19.2309 155.762 18.8017C155.677 18.5962 155.575 18.6032 155.416 18.8262C155.274 19.0268 155.053 19.0566 154.811 18.9074C154.579 18.7638 154.3 18.7818 154.093 18.9539C153.838 19.1651 153.749 19.1125 153.733 18.741C153.721 18.4629 153.654 18.3912 153.579 18.5767C153.375 19.0815 152.439 18.9763 152.404 18.4446C152.376 18.0047 152.367 18.0047 152.253 18.4446C152.187 18.6986 151.904 18.9064 151.624 18.9064C151.344 18.9064 151.104 19.0548 151.089 19.2362C151.073 19.4177 150.968 19.2689 150.852 18.9064C150.736 18.5435 150.615 15.6932 150.584 12.5725C150.516 5.81291 150.128 6.54058 150.021 13.6281L149.95 18.2466L149.796 14.4199L149.642 10.5931L149.587 14.5962C149.559 16.7979 149.459 18.7906 149.369 19.0245C149.222 19.4065 149.17 19.4021 148.85 18.98C148.57 18.6114 148.492 16.8592 148.486 10.8279C148.481 6.60244 148.388 2.56449 148.279 1.85473C148.159 1.07044 148.03 4.11356 147.949 9.6133C147.838 17.2733 147.757 18.6998 147.422 18.9066C147.139 19.0815 146.975 19.022 146.847 18.6987C146.708 18.348 146.661 18.3949 146.641 18.9062C146.617 19.474 146.578 19.503 146.352 19.1149C146.207 18.867 145.919 18.7293 145.711 18.8092C145.404 18.927 145.316 18.5148 145.244 16.6209L145.156 14.2875L145.102 16.8523C145.056 19.0099 144.985 19.3931 144.651 19.2654C144.434 19.1818 144.256 18.9412 144.256 18.7302C144.256 18.5194 144.152 18.411 144.025 18.4893C143.697 18.6927 143.477 17.0714 143.421 14.0235L143.373 11.3844L143.189 14.4194C143.089 16.0887 142.986 17.87 142.963 18.378C142.922 19.2495 142.898 19.2729 142.532 18.7895C142.219 18.3747 142.133 16.9682 142.084 11.3999L142.023 4.52259L141.953 11.1204C141.917 14.7493 141.773 17.9558 141.638 18.2461C141.503 18.5364 141.333 18.9521 141.262 19.1698C141.19 19.3875 141.104 18.7939 141.071 17.8503C141.013 16.2153 141.003 16.1905 140.85 17.3225C140.711 18.3557 140.665 18.4243 140.498 17.8503C140.392 17.4874 140.283 16.0028 140.256 14.5513C140.227 13.0998 140.169 12.4466 140.123 13.0998C140.078 13.753 139.954 15.1781 139.85 16.2668L139.659 18.2461L139.492 16.9265L139.326 15.607L139.284 17.1089C139.243 18.6096 138.914 19.2773 138.609 18.4812C138.52 18.2492 138.281 18.1227 138.079 18.2006C137.854 18.287 137.654 18.1204 137.563 17.7708C137.396 17.1344 137.001 17.378 136.793 18.2463C136.723 18.5366 136.627 16.6958 136.58 14.1556L136.494 9.53714L136.351 13.4959C136.273 15.6732 136.137 17.0983 136.05 16.6628C135.93 16.0612 135.882 16.2196 135.849 17.3226C135.816 18.3674 135.733 18.6633 135.549 18.3783C135.333 18.0427 135.293 18.0549 135.29 18.4598C135.288 18.7224 135.175 18.8689 135.04 18.7855C134.905 18.702 134.719 18.757 134.626 18.9062C134.337 19.3751 133.968 18.9104 133.932 18.033L133.895 17.1908L133.701 18.1146C133.594 18.6226 133.491 18.8078 133.472 18.526C133.439 18.0317 133.425 18.0307 133.082 18.5015C132.751 18.9544 132.671 18.9592 131.895 18.572C131.437 18.3437 131.063 18.2666 131.063 18.4003C131.063 18.5345 130.944 18.6442 130.799 18.6442C130.646 18.6442 130.534 17.7838 130.531 16.5989C130.527 14.2219 130.03 14.4044 129.993 16.7966C129.981 17.5949 129.881 18.477 129.771 18.7567C129.582 19.2394 129.563 19.2409 129.388 18.7852C129.056 17.9182 128.729 13.5964 128.51 7.16295L128.294 0.829027L128.128 5.44751C128.036 7.98767 127.947 11.81 127.929 13.9416C127.887 18.9315 127.208 21.0244 126.816 17.3691L126.655 15.8721L126.614 17.4204C126.578 18.8301 126.528 18.9563 126.048 18.8306C125.702 18.7401 125.52 18.8225 125.52 19.07C125.52 19.3823 125.407 19.3729 124.861 19.0149C124.328 18.6654 124.193 18.3476 124.16 17.3594L124.118 16.1361L123.95 17.4557C123.782 18.7714 123.781 18.7724 123.606 17.8516C123.51 17.3435 123.337 16.0966 123.223 15.0805L123.015 13.2331L122.868 15.8723C122.721 18.4979 122.72 18.4904 122.613 14.4207L122.505 10.33L122.364 14.9486C122.237 19.0901 122.191 19.4443 121.921 18.3794C121.639 17.2676 121.618 17.2466 121.591 18.0495C121.546 19.4109 120.771 18.9539 120.771 17.5661C120.771 16.7773 120.251 16.9715 120.183 17.7855C120.15 18.1847 120.058 14.4734 119.98 9.53814L119.838 0.565104L119.777 9.85246C119.718 18.8661 119.419 21.9379 119.068 17.1266C118.834 13.9174 118.746 13.318 118.7 14.603C118.68 15.2113 118.545 15.7807 118.404 15.8682C118.241 15.9685 118.117 14.3892 118.067 11.5952L117.987 7.16295L117.887 12.3093C117.821 15.6755 117.724 16.9991 117.605 16.136L117.424 14.8165L117.34 16.5319L117.255 18.2474L117.078 16.7959L116.9 15.3443L116.857 17.1257C116.804 19.349 116.105 19.5424 115.983 17.3679C115.959 16.9241 115.875 17.1028 115.759 17.8513C115.587 18.9549 115.568 18.8989 115.495 17.0597C115.421 15.2204 115.403 15.1643 115.231 16.2679L115.047 17.4555L114.958 16.004C114.879 14.7018 114.854 14.7833 114.721 16.7957C114.566 19.1304 114.401 19.375 113.333 18.8567C113.032 18.7112 112.812 18.7699 112.664 19.0358C112.283 19.7163 111.378 18.8331 111.122 17.5314L110.9 16.4L110.809 17.6537C110.734 18.6882 110.628 18.9072 110.204 18.9072C109.781 18.9072 109.691 18.7213 109.691 17.8516C109.691 16.4558 109.217 16.4978 108.991 17.9139L108.812 19.0318L108.492 18.1119L108.171 17.1919L108.074 18.1156C107.981 18.9956 107.923 19.0431 106.855 19.1204C105.928 19.1877 105.728 19.1186 105.703 18.7246C105.675 18.3003 105.659 18.2971 105.554 18.696C105.46 19.0544 105.307 19.0956 104.793 18.9007C104.44 18.7661 104.151 18.7424 104.151 18.8476C104.151 18.9528 103.884 19.0552 103.557 19.0744C103.231 19.0947 102.696 19.1968 102.37 19.3032C101.834 19.4777 101.776 19.41 101.772 18.6079C101.768 17.398 101.274 16.6183 101.211 17.7193C101.179 18.2582 101.108 18.0896 100.985 17.1916L100.804 15.8719L100.762 17.2419C100.709 18.9937 99.896 19.6268 98.9881 18.6233C98.7415 18.3505 98.4368 18.1912 98.3111 18.269C98.1856 18.3465 98.0706 16.8892 98.0564 15.0299C98.0156 9.93994 97.619 9.56911 97.5442 14.5524L97.481 18.7751L97.179 16.6637C96.9124 14.8012 96.8549 14.6574 96.6884 15.4431C96.5848 15.933 96.4996 17.045 96.4996 17.9143V19.4948L95.6422 19.3358C93.417 18.9228 92.6693 18.8912 92.1166 19.187C91.7395 19.3888 91.2588 19.4239 90.7816 19.2844C89.8419 19.01 85.1563 18.9704 85.1554 19.2366C85.1552 19.3455 84.9769 19.4345 84.7592 19.4345C84.5416 19.4345 84.3635 19.3292 84.3635 19.2012C84.3635 18.793 83.032 18.6927 82.6525 19.0724C82.255 19.4699 79.8783 19.5787 79.8783 19.1992C79.8783 18.7474 78.6072 18.6496 77.6944 19.0312L76.7744 19.4157L76.5653 18.5674L76.3562 17.719L76.2539 18.5769C76.1296 19.6191 75.5294 19.6815 73.9424 18.8174L72.8871 18.2429L72.7489 10.7234L72.6107 3.20384L72.5508 10.9018C72.5182 15.1356 72.4191 18.7875 72.3311 19.0171C71.93 20.0627 69.7652 19.1586 69.5189 17.8426C69.4142 17.2835 69.3922 17.3087 69.3612 18.0208C69.3151 19.092 68.5356 19.4816 68.5297 18.4366C68.5279 18.0419 68.4107 17.5409 68.2701 17.3232C68.0854 17.0374 68.0133 17.28 68.0104 18.1965C68.0085 18.9745 67.9044 19.4026 67.7426 19.3026C67.5906 19.2088 67.4618 17.6047 67.4385 15.5263L67.3978 11.913L67.0941 15.4759C66.8687 18.1224 66.737 18.835 66.5835 18.2469C66.2383 16.9263 66.202 16.8923 66.1612 17.8511C66.1286 18.6155 66.0826 18.6837 65.895 18.2469L65.6684 17.719L65.6122 18.2469C65.5795 18.5372 65.4711 18.2995 65.3672 17.719L65.1785 16.6635L65.1369 17.5871C65.0659 19.1639 64.5849 17.919 64.5758 16.1356C64.5717 15.0147 64.493 14.6678 64.3121 14.948C64.1311 15.2281 64.0553 14.888 64.0524 13.7823C64.0443 11.1728 63.7524 12.3282 63.5201 15.8811C63.2873 19.4388 62.9284 20.523 62.6208 18.5984C62.4859 17.7532 62.377 17.5648 62.1928 17.8563C62.0358 18.1046 61.9221 15.0248 61.8809 9.40574L61.8161 0.56473L61.6739 9.80169C61.5271 19.3301 61.4631 19.1169 61.1593 8.08625L60.9812 1.62043L60.9319 10.2479C60.8993 15.6605 60.7843 18.9363 60.6188 19.0386C60.4501 19.143 60.3372 18.1721 60.3062 16.3491C60.2776 14.7802 60.221 14.1497 60.1762 14.948C60.0302 17.5556 59.8126 18.6428 59.4375 18.6428C59.2406 18.6428 59.0254 18.7913 58.9589 18.9727C58.8688 19.2186 58.7571 19.2267 58.5202 19.0053C58.3458 18.8414 57.8067 18.7606 57.3229 18.8259C56.6335 18.9188 56.4165 18.8421 56.3191 18.4641C56.2197 18.08 56.1887 18.1029 56.1642 18.5775C56.1276 19.3116 55.768 19.3334 55.0783 18.6436C54.7881 18.3533 54.5506 18.2219 54.5506 18.3513C54.5506 18.4809 54.3615 18.6595 54.1305 18.7483C53.8419 18.8592 53.6607 18.7239 53.5518 18.3148C53.3932 17.7207 53.3932 17.7207 53.2069 18.3796C53.0345 18.9905 53.0186 18.9758 52.9942 18.1819C52.9575 16.9845 52.5227 17.1099 52.3083 18.3796C52.21 18.9602 52.0515 19.4333 51.9553 19.4307C51.8595 19.427 51.5135 19.1441 51.187 18.7997C50.598 18.1782 50.593 18.1058 50.5521 9.50131L50.5109 0.829401L50.2879 8.61484C50.1652 12.8968 49.9606 16.994 49.8329 17.7198C49.601 19.0383 49.601 19.0377 49.539 16.9281C49.473 14.6705 49.4143 14.7072 49.1184 17.1919C48.8477 19.4655 48.5563 18.2469 48.4558 14.4208L48.3759 11.3859L48.2189 14.6847C48.0665 17.8889 48.0596 17.9192 47.9776 15.7404C47.9316 14.5066 47.8064 12.7252 47.7004 11.7817C47.5333 10.2938 47.497 10.5565 47.4273 13.761C47.3658 16.5876 47.3099 17.0734 47.1893 15.8281C46.9406 13.2591 46.6396 13.5605 46.5962 16.4222C46.5636 18.4757 46.5168 18.7835 46.3721 17.8517C46.2706 17.1985 46.1695 16.9383 46.1479 17.2734C46.1275 17.6086 45.9897 17.8095 45.8446 17.7198C45.6995 17.6301 45.5809 17.7034 45.5809 17.8799C45.5809 18.0577 45.5038 18.1262 45.4092 18.0316C45.3147 17.937 45.1529 17.1158 45.0497 16.2063L44.8618 14.5526L44.8211 16.5319C44.777 18.6961 44.5386 19.4322 44.0685 18.8536C43.9157 18.6652 43.7322 18.2738 43.6607 17.9834C43.5433 17.5052 43.5283 17.5114 43.5005 18.0495C43.4842 18.3761 43.375 18.6433 43.2588 18.6433C42.72 18.6433 42.4142 17.8871 42.4105 16.5452C42.4086 15.7396 42.2915 14.9023 42.1508 14.6846C41.9756 14.4134 41.8871 15.1197 41.8696 16.9279C41.8451 19.333 41.8133 19.4977 41.4999 18.7857C41.2003 18.106 41.1383 18.0717 41.0242 18.5219C40.8485 19.2143 40.7902 17.9851 40.5814 9.14244L40.4037 1.62092L40.3193 9.53839C40.2728 13.893 40.1473 17.0401 40.0405 16.5321C39.8534 15.643 39.8448 15.6373 39.8114 16.378C39.791 16.8013 39.6887 17.0597 39.5811 16.9521C39.4739 16.8449 39.3174 13.173 39.2334 8.79291L39.0814 0.829027L39.0145 9.27421C38.9738 14.2802 38.8556 17.5045 38.721 17.1917C38.5511 16.7958 38.4895 16.9809 38.4756 17.9331C38.4471 19.7993 37.9383 19.2025 37.885 17.2421L37.8406 15.6081L37.6776 17.1917C37.5467 18.4603 37.4848 18.6177 37.3657 17.9834C37.2247 17.2339 37.2149 17.2449 37.1774 18.1905C37.1448 19.0577 37.0767 19.156 36.6762 18.9356C35.3241 18.1922 35.1609 17.9147 35.0028 16.0914L34.8467 14.2885L34.7786 16.3998C34.7301 17.9052 34.6502 18.3218 34.4994 17.8514C34.2911 17.2005 34.2874 17.2022 34.2434 17.9834C34.2189 18.4189 34.0962 19.0128 33.9719 19.3031C33.8178 19.6611 33.729 19.1094 33.6955 17.5876C33.6589 15.9644 33.59 15.5632 33.4445 16.1361C33.3336 16.5716 33.2252 17.4028 33.2035 17.9834C33.1709 18.8782 33.1143 18.9741 32.8391 18.6125C32.5636 18.2504 32.4629 18.241 32.1735 18.5509C31.5151 19.2559 31.1058 18.3385 30.9077 15.713C30.6819 12.7206 30.3241 13.2393 30.2971 16.598C30.289 17.8681 30.229 18.9072 30.1683 18.9072C29.7395 18.9072 29.2233 18.5228 29.2233 18.2037C29.2233 17.9929 29.1047 17.8937 28.9596 17.9834C28.7937 18.0858 28.6779 17.3814 28.6482 16.0857L28.6005 14.0247L28.4317 16.0041C28.2825 17.754 28.2524 17.5399 28.1725 14.1567L28.082 10.33L27.9034 14.7522C27.8052 17.1843 27.6466 19.2527 27.5504 19.3486C27.4547 19.4444 27.3666 19.1765 27.3552 18.7532C27.343 18.3299 27.2745 18.1319 27.2015 18.3133C26.9847 18.8504 26.5876 18.6897 26.5488 18.0495C26.5122 17.4784 26.5081 17.48 26.3927 18.0923C26.2998 18.5849 26.2195 18.6446 26.0369 18.3561C25.8371 18.0401 25.7939 18.0438 25.7556 18.3806C25.7312 18.5984 25.6288 18.1829 25.5294 17.457L25.3484 16.1374L25.3068 17.8329L25.2653 19.5283L24.6057 18.9085C24.2429 18.5676 23.9461 18.4281 23.9461 18.5986C23.9461 18.7691 23.768 18.9085 23.5503 18.9085C23.3327 18.9085 23.1545 19.0508 23.1545 19.2253C23.1545 19.4504 23.0726 19.4601 22.872 19.2579C22.7167 19.1025 22.495 18.1585 22.379 17.1598L22.1683 15.3441L22.1316 16.7956C22.1031 17.8392 22.0211 18.1359 21.8373 17.8513C21.6241 17.521 21.5756 17.5431 21.5463 17.9834C21.5218 18.341 21.446 18.2558 21.3094 17.7197L21.1081 16.9279L21.0755 17.77C21.0428 18.6545 20.6744 19.1122 20.3794 18.6349C20.2587 18.4396 20.0924 18.4481 19.8335 18.6634C19.525 18.9194 19.4614 18.8118 19.4614 18.032C19.4614 17.5147 19.355 17.0259 19.2254 16.9455C18.9376 16.7678 18.67 17.4053 18.67 18.2695C18.67 19.2351 18.1486 19.0344 18.1001 18.0503L18.0581 17.1925L17.9517 18.0503C17.8515 18.8606 17.3607 19.2857 17.3427 18.5781C17.3386 18.3726 17.2054 18.4183 16.9922 18.6988C16.6722 19.1198 16.6212 19.1203 16.2091 18.7069C15.8459 18.3436 15.7666 18.3338 15.7597 18.6523C15.7557 18.9373 15.6497 18.9043 15.3639 18.5264C14.9889 18.0301 14.9755 18.0342 14.9454 18.6584C14.9168 19.2385 14.8944 19.2238 14.7126 18.5108C14.6017 18.0753 14.4974 17.9354 14.4799 18.1997C14.4635 18.4643 14.2634 18.8656 14.0372 19.0919C13.6647 19.4646 13.6114 19.4483 13.473 18.9191C13.358 18.4791 13.2651 18.4215 13.0967 18.6866C12.9292 18.9517 12.8725 18.9162 12.8697 18.5448C12.8659 18.1321 12.7996 18.1056 12.4637 18.3845C12.2423 18.568 11.9863 18.643 11.8944 18.5509C11.8023 18.4587 11.5679 18.5142 11.3731 18.6777C11.0812 18.9199 11.0107 18.4905 10.9716 16.2342C10.9471 14.7286 10.8868 14.0906 10.8411 14.8164C10.7955 15.5421 10.672 16.6704 10.5672 17.3236L10.3764 18.5112L10.2146 16.9276L10.0528 15.3442L10.0043 17.0597C9.97574 18.1134 9.86976 18.6392 9.7328 18.4228C9.56323 18.1549 9.47518 18.2026 9.36594 18.6206C9.20249 19.2454 8.33985 19.361 7.88955 18.8184C7.69186 18.5803 7.57323 15.6473 7.52391 9.77929L7.45055 1.09283L7.38818 9.88357C7.34742 15.6613 7.23533 18.6182 7.06209 18.511C6.91698 18.4213 6.79836 18.5315 6.79836 18.7594C6.79836 18.9857 6.67974 19.1708 6.53462 19.1708C6.38951 19.1708 6.27089 19.0685 6.27089 18.9433C6.27089 18.5662 4.94295 18.8332 4.40738 19.318C3.94938 19.7326 3.89358 19.7345 3.74235 19.3384C3.65145 19.1019 3.49493 18.9588 3.39424 19.0212C2.83634 19.3662 2.60343 18.4639 2.37597 15.0773L2.12773 11.3836L2.08697 14.3526C2.06252 16.1298 1.94185 17.3216 1.7837 17.3216C1.63858 17.3216 1.51142 17.0545 1.50123 16.7278C1.46454 15.6106 1.0312 17.0618 1.01066 18.3641C0.998428 19.1367 0.903039 19.4494 0.731839 19.2781C0.573276 19.1194 0.442843 15.3615 0.398413 9.65834C0.357651 4.51082 0.325439 8.84994 0.325439 19.301C0.325399 29.7519 0.358059 34.1697 0.398413 29.1183C0.445697 23.1617 0.562678 19.9905 0.731839 20.0948L0.73453 20.1029Z" fill="black"/>
</svg>
