<svg width="228" height="318" viewBox="0 0 228 318" fill="none" xmlns="http://www.w3.org/2000/svg">
<rect x="7.5" y="207.5" width="18" height="22" rx="0.5" fill="white" stroke="black"/>
<path d="M222 9H14V287.5H222V9Z" stroke="black"/>
<rect x="0.5" y="246.5" width="30" height="2" rx="0.5" fill="#C4C4C4" stroke="black"/>
<rect x="0.5" y="254.5" width="30" height="2" rx="0.5" fill="#C4C4C4" stroke="black"/>
<rect x="15" y="244" width="7" height="6" rx="1" fill="black"/>
<rect x="15" y="253" width="7" height="6" rx="1" fill="black"/>
<rect x="133.5" y="111.5" width="54" height="42" rx="1.5" fill="white" stroke="black"/>
<circle cx="158" cy="120" r="3.5" stroke="black"/>
<circle cx="158" cy="144" r="3.5" stroke="black"/>
<path d="M144.5 126C147 121.5 158 121.329 158 128V133.5V135.5C157 140 144.5 139.512 144.5 134.5L144.5 127.25L144.5 126Z" fill="white"/>
<path d="M144.5 127.25C144.5 130.161 144.5 129.149 144.5 134.5C144.5 139.512 157 140 158 135.5C158 134.539 158 133.955 158 133.5M144.5 127.25C144.5 126.897 144.5 126.487 144.5 126C147 121.5 158 121.329 158 128C158 131.991 158 132.296 158 133.5M144.5 127.25H146V133.5H147V127.25H148.5V133.5H149.5V127.25H151.5V133.5H152.5V127.25H154V133.5H155V127.25H156.5V133.5H158" stroke="black" stroke-width="0.6"/>
<path d="M184.5 132C189 130.667 199 128.6 203 131C208 134 212 139 209.5 144M199 158C198.833 159.667 197.5 162 193.5 158C188.5 153 188.5 140 185.5 139.5" stroke="black"/>
<path d="M207.5 143L207.5 143C209.5 144 211.5 145 211.5 146C211.5 146.595 211.5 147.367 211.289 148C211.146 148.431 210.905 148.797 210.5 149C209.933 149.283 209.206 149.727 208.5 150.332C207.96 150.794 207.433 151.35 207 152C206.874 152.188 206.749 152.353 206.625 152.5C206.05 153.184 205.518 153.485 205.228 154C205.084 154.256 205 154.565 205 155C205 155.474 204.792 156.015 204.5 156.537C204.051 157.339 203.404 158.096 203 158.5C200.667 158.5 196.3 157.9 197.5 155.5C198.25 154 198.5 153.375 198.75 153C199 152.625 199.25 152.5 200 152C200.291 151.806 200.628 151.451 200.982 151C201.424 150.439 201.893 149.73 202.338 149C202.755 148.317 203.15 147.615 203.48 147C203.681 146.627 203.857 146.286 204 146C204.202 145.462 204.551 144.738 205 144.12C205.663 143.207 206.546 142.523 207.5 143Z" fill="white"/>
<path d="M205 144.12C204.551 144.738 204.202 145.462 204 146C203.857 146.286 203.681 146.627 203.48 147M205 144.12C205.663 143.207 206.546 142.523 207.5 143C209.5 144 211.5 145 211.5 146C211.5 146.595 211.5 147.367 211.289 148M205 144.12C206.86 144.58 210.721 146 211.289 148M211.289 148C211.146 148.431 210.905 148.797 210.5 149C209.933 149.283 209.206 149.727 208.5 150.332M203.48 147C205.154 147.055 208.5 147.797 208.5 150.332M203.48 147C203.15 147.615 202.755 148.317 202.338 149M208.5 150.332C207.96 150.794 207.433 151.35 207 152C206.874 152.188 206.749 152.353 206.625 152.5M202.338 149C203.642 149.167 206.326 150.1 206.625 152.5M202.338 149C201.893 149.73 201.424 150.439 200.982 151M206.625 152.5C206.05 153.184 205.518 153.485 205.228 154M200.982 151C200.628 151.451 200.291 151.806 200 152C199.25 152.5 199 152.625 198.75 153M200.982 151C202.474 151.667 205.411 153.2 205.228 154M205.228 154C205.084 154.256 205 154.565 205 155C205 155.474 204.792 156.015 204.5 156.537M198.75 153C198.5 153.375 198.25 154 197.5 155.5C196.3 157.9 200.667 158.5 203 158.5C203.404 158.096 204.051 157.339 204.5 156.537M198.75 153C200.424 153.358 203.918 154.567 204.5 156.537" stroke="black"/>
<circle cx="184.5" cy="132.5" r="3.5" fill="black"/>
<circle cx="184.5" cy="122.5" r="2.5" fill="black"/>
<circle cx="185" cy="140" r="2" fill="black"/>
</svg>
