<svg width="238" height="347" viewBox="0 0 238 347" fill="none" xmlns="http://www.w3.org/2000/svg">
<path d="M217.5 33.5H9.5V312H217.5V33.5Z" stroke="black"/>
<rect x="55.5" y="209.5" width="168" height="83" rx="3.5" fill="white" stroke="black"/>
<rect x="76.5" y="226.5" width="56" height="48" rx="2.5" stroke="black"/>
<circle cx="125.5" cy="269.5" r="1.5" fill="black"/>
<rect x="209.5" y="224.5" width="12" height="8" rx="0.5" stroke="black"/>
<rect x="208.5" y="270.5" width="12" height="8" rx="0.5" stroke="black"/>
<circle cx="216" cy="229" r="3" fill="black"/>
<circle cx="215" cy="275" r="3" fill="black"/>
<rect x="210.5" y="240.5" width="18" height="22" rx="0.5" fill="white" stroke="black"/>
<rect x="56.5" y="225.5" width="20" height="55" rx="1.5" fill="white" stroke="black"/>
<path fill-rule="evenodd" clip-rule="evenodd" d="M58.5 232.5C58.5 231.948 58.9477 231.5 59.5 231.5H74C74.5523 231.5 75 231.948 75 232.5C75 233.052 74.5523 233.5 74 233.5H60.5V238H74C74.5523 238 75 238.448 75 239C75 239.552 74.5523 240 74 240H60.5V244.5H67.5C68.0523 244.5 68.5 244.948 68.5 245.5V254C68.5 254.552 68.0523 255 67.5 255H60.5V259.5H67.5C68.0523 259.5 68.5 259.948 68.5 260.5V268C68.5 268.552 68.0523 269 67.5 269H60.5V274H71V266C71 265.448 71.4477 265 72 265C72.5523 265 73 265.448 73 266V275C73 275.552 72.5523 276 72 276H59.5C58.9477 276 58.5 275.552 58.5 275V268C58.5 267.448 58.9477 267 59.5 267H66.5V261.5H59.5C58.9477 261.5 58.5 261.052 58.5 260.5V254C58.5 253.448 58.9477 253 59.5 253H66.5V246.5H59.5C58.9477 246.5 58.5 246.052 58.5 245.5V232.5Z" fill="white" stroke="black" stroke-linecap="round" stroke-linejoin="round"/>
<rect x="176" y="240" width="16" height="17" rx="2" fill="black"/>
<circle cx="61" cy="215" r="3.5" stroke="black"/>
<circle cx="218" cy="215" r="3.5" stroke="black"/>
<circle cx="217" cy="288" r="3.5" stroke="black"/>
<circle cx="61" cy="288" r="3.5" stroke="black"/>
<path d="M145.5 56.5H150V203H56V56.5H60V46.5H64.4378C66.8912 46.5 69.0975 47.9937 70.0087 50.2717L72.5 56.5H128L130.094 50.5179C130.936 48.1114 133.207 46.5 135.757 46.5H145.5V56.5Z" fill="white"/>
<path d="M145.5 56.5H150V203H56V56.5M145.5 56.5V46.5H135.757C133.207 46.5 130.936 48.1114 130.094 50.5179L128 56.5M145.5 56.5H128M128 56.5H72.5M72.5 56.5L70.0087 50.2717C69.0975 47.9937 66.8912 46.5 64.4378 46.5H60V56.5H56M72.5 56.5H56" stroke="black"/>
<circle cx="64.5" cy="62.5" r="2" fill="white" stroke="black"/>
<circle cx="139.5" cy="62.5" r="2" fill="white" stroke="black"/>
<circle cx="143.5" cy="194.5" r="3" fill="white" stroke="black"/>
<circle cx="65.5" cy="194.5" r="3" fill="white" stroke="black"/>
<circle cx="105.5" cy="168.5" r="40.5" fill="white" stroke="black" stroke-width="2"/>
<circle cx="105" cy="169" r="34.5" fill="white" stroke="black"/>
<circle cx="105" cy="169" r="27.5" fill="white" stroke="black"/>
<circle cx="105.5" cy="168.5" r="7" fill="black" stroke="black"/>
<path d="M208.5 83.5C208.5 69.1 196.667 62.8333 190.5 61.5C190.167 62.5 189.15 64.5 186.75 64.5C184.35 64.5 183.333 62.5 183 61.5C177.667 63.3333 165.5 69 165.5 83.5C165.5 96.5 176.667 102.333 183 103.5C183 102.667 183.95 101 186.75 101C189.55 101 190.5 102.667 190.5 103.5C196.333 102.833 208.5 97.9 208.5 83.5Z" fill="white" stroke="black"/>
<path d="M180.5 66C176.167 68 168 72.5 168 82.5C168 94.5 176.5 98 180.5 100.5" stroke="black" stroke-width="2"/>
<path d="M193 100.5C197.333 98.5 205.5 94.5 205.5 84C205.5 71.5 197 68.5 193 66" stroke="black" stroke-width="2"/>
<circle cx="187.5" cy="82.5" r="2" fill="white" stroke="black"/>
<path d="M207.5 106H152L151.5 146.5L207.5 146V106Z" fill="white" stroke="black"/>
<path d="M185.5 111.5H172.5C171.948 111.5 171.5 111.948 171.5 112.5V119C171.5 119.552 171.948 120 172.5 120H185.5C186.052 120 186.5 119.552 186.5 119V112.5C186.5 111.948 186.052 111.5 185.5 111.5Z" stroke="black"/>
<circle cx="199.5" cy="114.5" r="5.5" fill="white" stroke="black" stroke-width="2"/>
<circle cx="173.5" cy="113.5" r="0.5" fill="black"/>
<circle cx="184.5" cy="117.5" r="0.5" fill="black"/>
<path d="M215 153H151V200H215V153Z" fill="white" stroke="black"/>
<circle cx="158" cy="160" r="4.5" stroke="black"/>
<circle cx="207" cy="160" r="4.5" stroke="black"/>
<rect x="176.5" y="170.5" width="12" height="12" rx="0.5" fill="black" stroke="black"/>
<path d="M212 171.5H203.5M203.5 171.5L204.5 170M203.5 171.5L204.5 173" stroke="black" stroke-linecap="round" stroke-linejoin="round"/>
<path d="M207 174.5C208 173.5 209.6 171.1 208 169.5C206.4 167.9 207 168.5 207 168.5M207 168.5L207 170M207 168.5L209 168.5" stroke="black" stroke-linecap="round" stroke-linejoin="round"/>
<path d="M208.5 185.5V177.5M208.5 177.5L210.5 178.5M208.5 177.5L207 178.5" stroke="black" stroke-linecap="round" stroke-linejoin="round"/>
<path d="M205.5 180.5C206.333 181.667 208.6 183.6 211 182C211.361 181.76 211.5 181.5 212 181M212 181V183M212 181H210" stroke="black" stroke-linecap="round" stroke-linejoin="round"/>
<path d="M212 174L209 176M209 174L212 176" stroke="black" stroke-linecap="round" stroke-linejoin="round"/>
<path d="M206 168H204M204 168L203 167M204 168L203 169" stroke="black" stroke-linecap="round" stroke-linejoin="round"/>
<rect x="12.5" y="239.5" width="41" height="56" rx="0.5" fill="white" stroke="black"/>
<rect x="15" y="271" width="4" height="10" rx="1" fill="black"/>
<circle cx="39.5" cy="267.5" r="7" stroke="black"/>
<circle cx="39.5" cy="268.5" r="2" stroke="black"/>
<circle cx="19" cy="246" r="3.5" stroke="black"/>
<circle cx="48" cy="246" r="3.5" stroke="black"/>
</svg>
