<svg width="545" height="454" viewBox="0 0 545 454" fill="none" xmlns="http://www.w3.org/2000/svg">
<path d="M286.019 340.625C278.63 336.361 266.65 336.361 259.262 340.625C251.873 344.89 251.873 351.804 259.262 356.068C266.65 360.333 278.63 360.333 286.019 356.068C293.407 351.804 293.407 344.89 286.019 340.625Z" stroke="black" stroke-width="1.36" stroke-miterlimit="10" stroke-linecap="round" stroke-linejoin="round"/>
<path d="M492.44 241.747L492.52 242.547V243.267L492.6 243.667V244.067L492.68 244.387V244.707L492.76 245.107L492.84 245.427V245.747L492.92 246.067L493 246.387L493.08 246.707L493.16 247.027L493.32 247.267" stroke="black" stroke-width="1.36" stroke-miterlimit="10" stroke-linecap="round" stroke-linejoin="round"/>
<path d="M46.52 255.347L47.32 253.587L48.2 251.827L49.08 249.987L49.88 248.227L50.76 246.387L51.64 244.547L52.52 242.707L53.4 240.867" stroke="black" stroke-width="1.36" stroke-miterlimit="10" stroke-linecap="round" stroke-linejoin="round"/>
<path d="M215.72 355.907L216.2 355.747L216.68 355.587L217.16 355.427L217.56 355.267L218.04 355.107L218.44 355.027L218.92 354.867L219.32 354.787L219.72 354.627L220.12 354.547L220.52 354.467L220.92 354.387L221.32 354.307L221.64 354.227L222.44 354.067L223.08 353.907L223.8 353.827L224.44 353.667L225.08 353.587L225.72 353.507L226.36 353.427L227.56 353.267L228.76 353.027L229.88 352.867L231.08 352.707L232.2 352.547L233.32 352.307L234.36 352.147L236.6 351.827L240.92 351.187L245.16 350.467L249.48 349.827L251.56 349.507L253.64 349.187" stroke="black" stroke-width="1.36" stroke-miterlimit="10" stroke-linecap="round" stroke-linejoin="round"/>
<path d="M290.44 344.787H291L291.56 344.867L292.2 344.947H292.76L293.88 345.107L295 345.267L296.04 345.427L297.08 345.587L298.12 345.827L299.16 345.987L300.12 346.227L301.08 346.547L302.04 346.787L303 347.107L303.88 347.347L304.76 347.667L305.56 347.987L306.36 348.387L307.16 348.707L307.88 349.027L308.6 349.347L309.24 349.747L309.88 350.067L310.52 350.467L311.08 350.787L311.72 351.107L312.28 351.507L312.84 351.827L313.4 352.147L313.96 352.467L315.08 353.107L316.12 353.747" stroke="black" stroke-width="1.36" stroke-miterlimit="10" stroke-linecap="round" stroke-linejoin="round"/>
<path d="M337 438.387L336.12 438.867L335.32 439.267L334.44 439.667L333.56 440.067L332.6 440.467L331.72 440.867L330.84 441.187L329.88 441.507L329 441.827L328.12 442.067L327.24 442.387L326.36 442.547L325.96 442.707L325.56 442.787L325.16 442.867L324.76 443.027L324.36 443.107L323.96 443.187L323.64 443.267L323.24 443.347L322.92 443.427H322.52L322.2 443.507L321.88 443.587L321.56 443.667H321.32L321 443.747L320.76 443.827H320.52H320.2L319.72 443.907L318.76 444.067L314.92 444.707L299.4 447.107L268.44 451.907H268.12L267.8 451.987H267.48L267.08 452.067L266.68 452.147H266.28L265.88 452.227L265.4 452.307H264.92L264.44 452.387H263.96L263.48 452.467H262.92L262.36 452.547H261.8H261.24L260.68 452.627H260.04H259.48H258.84H258.2H257.56H256.92L256.28 452.547H255.64H254.92L254.28 452.467H253.64L252.92 452.387L252.28 452.307L251.56 452.227L250.92 452.147L250.2 452.067L249.56 451.987L248.84 451.907L248.2 451.747L247.56 451.667L246.84 451.507L246.2 451.427L245.56 451.267L244.92 451.107L244.28 450.947L243.64 450.787L243.08 450.707L242.44 450.547L241.8 450.307L241.24 450.147L240.68 449.987L240.12 449.827L239.56 449.667L239 449.427L238.52 449.267L238.04 449.107L237.56 448.867L237.08 448.707L236.6 448.547L236.12 448.307L235.72 448.147L235.32 447.987L234.92 447.827L234.52 447.587L234.2 447.427L233.88 447.267L233.48 447.107L233.24 446.947L232.92 446.787L232.6 446.627L232.36 446.467L232.12 446.387L231.88 446.227L231.48 445.987L229.8 445.027L226.36 443.027L219.48 439.107L205.8 431.187L199 427.187L195.56 425.267L193.88 424.227L193.64 424.147L193.4 423.987L193.16 423.827L192.84 423.667L192.6 423.507L192.28 423.347L192.04 423.107L191.72 422.947" stroke="black" stroke-width="1.36" stroke-miterlimit="10" stroke-linecap="round" stroke-linejoin="round"/>
<path d="M181.998 399.113C191.492 404.652 205.39 406.849 218.454 404.876" stroke="black" stroke-width="1.36" stroke-miterlimit="10" stroke-linecap="round" stroke-linejoin="round"/>
<path d="M12.44 300.227L181.96 399.187" stroke="black" stroke-width="1.36" stroke-miterlimit="10" stroke-linecap="round" stroke-linejoin="round"/>
<path d="M1.55998 284.827C1.55998 290.565 5.483 296.072 12.478 300.153" stroke="black" stroke-width="1.36" stroke-miterlimit="10" stroke-linecap="round" stroke-linejoin="round"/>
<path d="M542.296 220.029C543.188 218.151 543.64 216.213 543.64 214.267" stroke="black" stroke-width="1.36" stroke-miterlimit="10" stroke-linecap="round" stroke-linejoin="round"/>
<path d="M478.52 354.387L542.28 220.147" stroke="black" stroke-width="1.36" stroke-miterlimit="10" stroke-linecap="round" stroke-linejoin="round"/>
<path d="M451.734 369.676C464.799 367.703 475.046 361.86 478.616 354.349" stroke="black" stroke-width="1.36" stroke-miterlimit="10" stroke-linecap="round" stroke-linejoin="round"/>
<path d="M218.36 404.947L451.64 369.747" stroke="black" stroke-width="1.36" stroke-miterlimit="10" stroke-linecap="round" stroke-linejoin="round"/>
<path d="M20.04 221.347L2.83997 257.507" stroke="black" stroke-width="1.36" stroke-miterlimit="10" stroke-linecap="round" stroke-linejoin="round"/>
<path d="M2.90422 257.465C-0.664953 264.976 2.9845 273.014 12.478 278.553" stroke="black" stroke-width="1.36" stroke-miterlimit="10" stroke-linecap="round" stroke-linejoin="round"/>
<path d="M12.44 278.627L181.96 377.587" stroke="black" stroke-width="1.36" stroke-miterlimit="10" stroke-linecap="round" stroke-linejoin="round"/>
<path d="M181.998 377.513C191.492 383.052 205.39 385.249 218.454 383.276" stroke="black" stroke-width="1.36" stroke-miterlimit="10" stroke-linecap="round" stroke-linejoin="round"/>
<path d="M460.676 316.076C450.576 315.519 440.571 317.591 433.391 321.727C426.21 325.863 422.602 331.631 423.549 337.46" stroke="black" stroke-width="1.36" stroke-miterlimit="10" stroke-linecap="round" stroke-linejoin="round"/>
<path d="M423.48 337.507L234.44 366.067" stroke="black" stroke-width="1.36" stroke-miterlimit="10" stroke-linecap="round" stroke-linejoin="round"/>
<path d="M512.28 207.267L460.6 316.147" stroke="black" stroke-width="1.36" stroke-miterlimit="10" stroke-linecap="round" stroke-linejoin="round"/>
<path d="M509.249 206.325C510.235 206.658 511.248 206.963 512.287 207.238" stroke="black" stroke-width="1.36" stroke-miterlimit="10" stroke-linecap="round" stroke-linejoin="round"/>
<path d="M461.533 319.404C463.431 319.564 465.238 318.879 465.745 317.808" stroke="black" stroke-width="1.36" stroke-miterlimit="10" stroke-linecap="round" stroke-linejoin="round"/>
<path d="M465.64 317.907L518.2 207.267" stroke="black" stroke-width="1.36" stroke-miterlimit="10" stroke-linecap="round" stroke-linejoin="round"/>
<path d="M518.225 207.168C518.736 206.089 517.766 204.959 515.971 204.544" stroke="black" stroke-width="1.36" stroke-miterlimit="10" stroke-linecap="round" stroke-linejoin="round"/>
<path d="M510.819 203.026C512.434 203.643 514.154 204.163 515.952 204.578" stroke="black" stroke-width="1.36" stroke-miterlimit="10" stroke-linecap="round" stroke-linejoin="round"/>
<path d="M25.5847 275.534C24.4416 275.826 23.6198 276.425 23.3867 277.136C23.1536 277.847 23.539 278.579 24.4176 279.093" stroke="black" stroke-width="1.36" stroke-miterlimit="10" stroke-linecap="round" stroke-linejoin="round"/>
<path d="M25.5882 275.471C33.2708 273.515 37.3243 268.618 35.1289 263.945C32.9336 259.272 25.1474 256.223 16.8025 256.769" stroke="black" stroke-width="1.36" stroke-miterlimit="10" stroke-linecap="round" stroke-linejoin="round"/>
<path d="M12.6551 254.005C12.3219 254.709 12.6135 255.463 13.4337 256.018C14.2539 256.572 15.4957 256.855 16.7486 256.773" stroke="black" stroke-width="1.36" stroke-miterlimit="10" stroke-linecap="round" stroke-linejoin="round"/>
<path d="M12.68 254.067L26.44 225.107" stroke="black" stroke-width="1.36" stroke-miterlimit="10" stroke-linecap="round" stroke-linejoin="round"/>
<path d="M521.134 192.47C524.087 194.172 528.873 194.172 531.826 192.47C534.778 190.767 534.778 188.006 531.826 186.304C528.873 184.601 524.087 184.601 521.134 186.304C518.182 188.006 518.182 190.767 521.134 192.47Z" stroke="black" stroke-width="1.36" stroke-miterlimit="10" stroke-linecap="round" stroke-linejoin="round"/>
<path d="M13.3743 269.59C16.3266 271.292 21.1133 271.292 24.0657 269.59C27.0181 267.887 27.0181 265.126 24.0657 263.424C21.1133 261.721 16.3266 261.721 13.3743 263.424C10.4219 265.126 10.4219 267.887 13.3743 269.59Z" stroke="black" stroke-width="1.36" stroke-miterlimit="10" stroke-linecap="round" stroke-linejoin="round"/>
<path d="M452.094 338.71C455.047 340.412 459.833 340.412 462.786 338.71C465.738 337.007 465.738 334.246 462.786 332.544C459.833 330.841 455.047 330.841 452.094 332.544C449.142 334.246 449.142 337.007 452.094 338.71Z" stroke="black" stroke-width="1.36" stroke-miterlimit="10" stroke-linecap="round" stroke-linejoin="round"/>
<path d="M198.174 377.27C201.127 378.972 205.913 378.972 208.866 377.27C211.818 375.567 211.818 372.806 208.866 371.104C205.913 369.401 201.127 369.401 198.174 371.104C195.222 372.806 195.222 375.567 198.174 377.27Z" stroke="black" stroke-width="1.36" stroke-miterlimit="10" stroke-linecap="round" stroke-linejoin="round"/>
<path d="M229.867 368.132C226.556 363.338 219.518 359.726 210.878 358.387C202.238 357.048 193.01 358.139 185.98 361.331" stroke="black" stroke-width="1.36" stroke-miterlimit="10" stroke-linecap="round" stroke-linejoin="round"/>
<path d="M180.898 361.173C182.257 361.969 184.431 362.048 185.95 361.355" stroke="black" stroke-width="1.36" stroke-miterlimit="10" stroke-linecap="round" stroke-linejoin="round"/>
<path d="M41.16 279.587L180.92 361.187" stroke="black" stroke-width="1.36" stroke-miterlimit="10" stroke-linecap="round" stroke-linejoin="round"/>
<path d="M40.9371 276.664C39.7486 277.536 39.8689 278.784 41.2175 279.573" stroke="black" stroke-width="1.36" stroke-miterlimit="10" stroke-linecap="round" stroke-linejoin="round"/>
<path d="M40.9818 276.642C46.5245 272.591 48.4283 267.268 46.1183 262.282C43.8083 257.296 37.5553 253.232 29.248 251.316" stroke="black" stroke-width="1.36" stroke-miterlimit="10" stroke-linecap="round" stroke-linejoin="round"/>
<path d="M26.9751 248.725C26.4642 249.805 27.4343 250.934 29.2293 251.349" stroke="black" stroke-width="1.36" stroke-miterlimit="10" stroke-linecap="round" stroke-linejoin="round"/>
<path d="M35.64 230.467L26.92 248.787" stroke="black" stroke-width="1.36" stroke-miterlimit="10" stroke-linecap="round" stroke-linejoin="round"/>
<path d="M461.523 319.437C452.67 318.694 443.729 320.404 437.399 324.051C431.069 327.698 428.093 332.854 429.37 337.962" stroke="black" stroke-width="1.36" stroke-miterlimit="10" stroke-linecap="round" stroke-linejoin="round"/>
<path d="M426.563 340.395C428.433 340.111 429.637 339.06 429.361 337.953" stroke="black" stroke-width="1.36" stroke-miterlimit="10" stroke-linecap="round" stroke-linejoin="round"/>
<path d="M234.28 369.507L426.52 340.387" stroke="black" stroke-width="1.36" stroke-miterlimit="10" stroke-linecap="round" stroke-linejoin="round"/>
<path d="M229.83 368.121C230.54 369.153 232.467 369.716 234.323 369.435" stroke="black" stroke-width="1.36" stroke-miterlimit="10" stroke-linecap="round" stroke-linejoin="round"/>
<path d="M234.484 366.029C230.27 360.704 222.158 356.741 212.36 355.221C202.561 353.7 192.099 354.781 183.824 358.169" stroke="black" stroke-width="1.36" stroke-miterlimit="10" stroke-linecap="round" stroke-linejoin="round"/>
<path d="M183.8 358.227L46.36 277.987" stroke="black" stroke-width="1.36" stroke-miterlimit="10" stroke-linecap="round" stroke-linejoin="round"/>
<path d="M46.4469 277.9C52.3331 273.132 54.2254 267.096 51.6079 261.44C48.9903 255.784 42.1358 251.096 32.9131 248.655" stroke="black" stroke-width="1.36" stroke-miterlimit="10" stroke-linecap="round" stroke-linejoin="round"/>
<path d="M32.84 248.707L40.2 233.107" stroke="black" stroke-width="1.36" stroke-miterlimit="10" stroke-linecap="round" stroke-linejoin="round"/>
<path d="M441.64 344.867L225.08 377.667" stroke="black" stroke-width="1.36" stroke-miterlimit="10" stroke-linecap="round" stroke-linejoin="round"/>
<path d="M441.682 344.875C442.902 344.69 443.884 344.167 444.304 343.479C444.723 342.79 444.525 342.026 443.776 341.439" stroke="black" stroke-width="1.36" stroke-miterlimit="10" stroke-linecap="round" stroke-linejoin="round"/>
<path d="M467.474 327.716C460.694 324.858 451.31 325.283 445.387 328.715C439.464 332.148 438.777 337.559 443.77 341.452" stroke="black" stroke-width="1.36" stroke-miterlimit="10" stroke-linecap="round" stroke-linejoin="round"/>
<path d="M467.437 327.723C468.446 328.15 469.753 328.262 470.933 328.024C472.113 327.785 473.015 327.226 473.345 326.528" stroke="black" stroke-width="1.36" stroke-miterlimit="10" stroke-linecap="round" stroke-linejoin="round"/>
<path d="M532.44 201.907L473.32 326.547" stroke="black" stroke-width="1.36" stroke-miterlimit="10" stroke-linecap="round" stroke-linejoin="round"/>
<path d="M532.545 201.888C532.878 201.184 532.586 200.43 531.766 199.876C530.946 199.321 529.704 199.038 528.451 199.121" stroke="black" stroke-width="1.36" stroke-miterlimit="10" stroke-linecap="round" stroke-linejoin="round"/>
<path d="M514.111 196.109C517.784 198.355 523.077 199.472 528.397 199.124" stroke="black" stroke-width="1.36" stroke-miterlimit="10" stroke-linecap="round" stroke-linejoin="round"/>
<path d="M181.72 370.947L24.36 279.107" stroke="black" stroke-width="1.36" stroke-miterlimit="10" stroke-linecap="round" stroke-linejoin="round"/>
<path d="M181.778 370.933C182.664 371.452 183.938 371.683 185.177 371.549C186.417 371.415 187.461 370.934 187.964 370.265" stroke="black" stroke-width="1.36" stroke-miterlimit="10" stroke-linecap="round" stroke-linejoin="round"/>
<path d="M220.421 375.241C221.325 370.427 215.995 365.955 207.876 364.714C199.758 363.473 191.285 365.836 187.933 370.276" stroke="black" stroke-width="1.36" stroke-miterlimit="10" stroke-linecap="round" stroke-linejoin="round"/>
<path d="M220.382 375.23C220.248 375.949 220.733 376.661 221.679 377.133C222.626 377.606 223.913 377.778 225.122 377.595" stroke="black" stroke-width="1.36" stroke-miterlimit="10" stroke-linecap="round" stroke-linejoin="round"/>
<path d="M451.734 348.076C464.799 346.103 475.046 340.26 478.616 332.749" stroke="black" stroke-width="1.36" stroke-miterlimit="10" stroke-linecap="round" stroke-linejoin="round"/>
<path d="M478.52 332.787L542.28 198.547" stroke="black" stroke-width="1.36" stroke-miterlimit="10" stroke-linecap="round" stroke-linejoin="round"/>
<path d="M542.296 198.429C545.865 190.918 542.215 182.879 532.722 177.341" stroke="black" stroke-width="1.36" stroke-miterlimit="10" stroke-linecap="round" stroke-linejoin="round"/>
<path d="M532.68 177.427L525.08 172.947" stroke="black" stroke-width="1.36" stroke-miterlimit="10" stroke-linecap="round" stroke-linejoin="round"/>
<path d="M218.36 383.347L451.64 348.147" stroke="black" stroke-width="1.36" stroke-miterlimit="10" stroke-linecap="round" stroke-linejoin="round"/>
<path d="M253.64 363.187V348.387" stroke="black" stroke-width="1.36" stroke-miterlimit="10" stroke-linecap="round" stroke-linejoin="round"/>
<path d="M291.48 357.427V348.387" stroke="black" stroke-width="1.36" stroke-miterlimit="10" stroke-linecap="round" stroke-linejoin="round"/>
<path d="M468.52 364.227L402.76 401.267L337 438.387" stroke="black" stroke-width="1.36" stroke-miterlimit="10" stroke-linecap="round" stroke-linejoin="round"/>
<path d="M191.72 422.947L146.44 391.987L101.08 360.947L55.8 329.987L10.44 298.947" stroke="black" stroke-width="1.36" stroke-miterlimit="10" stroke-linecap="round" stroke-linejoin="round"/>
<path d="M1.47998 284.867V263.267" stroke="black" stroke-width="1.36" stroke-miterlimit="10" stroke-linecap="round" stroke-linejoin="round"/>
<path d="M423.4 337.507V335.667" stroke="black" stroke-width="1.36" stroke-miterlimit="10" stroke-linecap="round" stroke-linejoin="round"/>
<path d="M518.44 213.347V213.267L518.36 213.187V213.107V213.027V212.787" stroke="black" stroke-width="1.36" stroke-miterlimit="10" stroke-linecap="round" stroke-linejoin="round"/>
<path d="M429.4 344.787V344.627V344.467" stroke="black" stroke-width="1.36" stroke-miterlimit="10" stroke-linecap="round" stroke-linejoin="round"/>
<path d="M40.12 284.227L40.04 284.467V284.547V284.627L39.96 284.707V284.787" stroke="black" stroke-width="1.36" stroke-miterlimit="10" stroke-linecap="round" stroke-linejoin="round"/>
<path d="M26.76 255.507V255.667V255.827V255.907L26.68 255.987" stroke="black" stroke-width="1.36" stroke-miterlimit="10" stroke-linecap="round" stroke-linejoin="round"/>
<path d="M518.36 212.787V206.627" stroke="black" stroke-width="1.36" stroke-miterlimit="10" stroke-linecap="round" stroke-linejoin="round"/>
<path d="M35.64 272.787V266.547" stroke="black" stroke-width="1.36" stroke-miterlimit="10" stroke-linecap="round" stroke-linejoin="round"/>
<path d="M40.12 284.227V278.067" stroke="black" stroke-width="1.36" stroke-miterlimit="10" stroke-linecap="round" stroke-linejoin="round"/>
<path d="M26.76 255.507V249.347" stroke="black" stroke-width="1.36" stroke-miterlimit="10" stroke-linecap="round" stroke-linejoin="round"/>
<path d="M429.4 344.467V338.307" stroke="black" stroke-width="1.36" stroke-miterlimit="10" stroke-linecap="round" stroke-linejoin="round"/>
<path d="M440.36 341.827V335.667" stroke="black" stroke-width="1.36" stroke-miterlimit="10" stroke-linecap="round" stroke-linejoin="round"/>
<path d="M220.44 376.067V374.227" stroke="black" stroke-width="1.36" stroke-miterlimit="10" stroke-linecap="round" stroke-linejoin="round"/>
<path d="M52.68 281.667V266.547" stroke="black" stroke-width="1.36" stroke-miterlimit="10" stroke-linecap="round" stroke-linejoin="round"/>
<path d="M543.64 214.307V192.707" stroke="black" stroke-width="1.36" stroke-miterlimit="10" stroke-linecap="round" stroke-linejoin="round"/>
<path d="M351.103 301.549C352.016 301.461 352.914 301.325 353.784 301.141" stroke="black" stroke-width="1.36" stroke-miterlimit="10" stroke-linecap="round" stroke-linejoin="round"/>
<path d="M354.298 13.0715C352.55 9.90041 347.447 7.74661 341.68 7.74661C335.913 7.74661 330.81 9.90041 329.062 13.0715" stroke="black" stroke-width="1.36" stroke-miterlimit="10" stroke-linecap="round" stroke-linejoin="round"/>
<path d="M332.318 16.149C337.488 19.1326 345.871 19.1326 351.042 16.149C356.213 13.1654 356.213 8.32803 351.042 5.34443C345.871 2.36075 337.488 2.36075 332.318 5.34443C327.147 8.32803 327.147 13.1654 332.318 16.149Z" stroke="black" stroke-width="1.36" stroke-miterlimit="10" stroke-linecap="round" stroke-linejoin="round"/>
<path d="M345.102 18.1516C347.18 17.2917 348.06 15.7544 347.279 14.3476C346.498 12.9408 344.235 11.9867 341.68 11.9867C339.125 11.9867 336.862 12.9408 336.081 14.3476C335.3 15.7544 336.18 17.2917 338.258 18.1516" stroke="black" stroke-width="1.36" stroke-miterlimit="10" stroke-linecap="round" stroke-linejoin="round"/>
<path d="M470.058 266.992C468.31 263.821 463.207 261.667 457.44 261.667C451.673 261.667 446.57 263.821 444.823 266.992" stroke="black" stroke-width="1.36" stroke-miterlimit="10" stroke-linecap="round" stroke-linejoin="round"/>
<path d="M448.078 270.069C453.248 273.053 461.631 273.053 466.802 270.069C471.973 267.085 471.973 262.248 466.802 259.264C461.631 256.281 453.248 256.281 448.078 259.264C442.907 262.248 442.907 267.085 448.078 270.069Z" stroke="black" stroke-width="1.36" stroke-miterlimit="10" stroke-linecap="round" stroke-linejoin="round"/>
<path d="M460.862 272.072C462.94 271.212 463.82 269.674 463.039 268.268C462.258 266.861 459.995 265.907 457.44 265.907C454.885 265.907 452.622 266.861 451.841 268.268C451.06 269.674 451.94 271.212 454.018 272.072" stroke="black" stroke-width="1.36" stroke-miterlimit="10" stroke-linecap="round" stroke-linejoin="round"/>
<path d="M100.378 51.6316C98.6302 48.4605 93.5267 46.3067 87.76 46.3067C81.9933 46.3067 76.8898 48.4605 75.1425 51.6316" stroke="black" stroke-width="1.36" stroke-miterlimit="10" stroke-linecap="round" stroke-linejoin="round"/>
<path d="M78.3979 54.709C83.5685 57.6927 91.9516 57.6927 97.1221 54.709C102.293 51.7254 102.293 46.8881 97.1221 43.9045C91.9516 40.9208 83.5685 40.9208 78.3979 43.9045C73.2274 46.8881 73.2274 51.7254 78.3979 54.709Z" stroke="black" stroke-width="1.36" stroke-miterlimit="10" stroke-linecap="round" stroke-linejoin="round"/>
<path d="M91.182 56.7115C93.2599 55.8517 94.1395 54.3143 93.3586 52.9075C92.5778 51.5008 90.3151 50.5466 87.76 50.5466C85.2048 50.5466 82.9422 51.5008 82.1613 52.9075C81.3804 54.3143 82.2601 55.8517 84.3379 56.7115" stroke="black" stroke-width="1.36" stroke-miterlimit="10" stroke-linecap="round" stroke-linejoin="round"/>
<path d="M539.098 120.752C537.35 117.581 532.247 115.427 526.48 115.427C520.713 115.427 515.61 117.581 513.862 120.752" stroke="black" stroke-width="1.36" stroke-miterlimit="10" stroke-linecap="round" stroke-linejoin="round"/>
<path d="M517.118 123.829C522.288 126.813 530.672 126.813 535.842 123.829C541.013 120.845 541.013 116.008 535.842 113.024C530.672 110.041 522.288 110.041 517.118 113.024C511.947 116.008 511.947 120.845 517.118 123.829Z" stroke="black" stroke-width="1.36" stroke-miterlimit="10" stroke-linecap="round" stroke-linejoin="round"/>
<path d="M529.902 125.832C531.98 124.972 532.859 123.434 532.079 122.028C531.298 120.621 529.035 119.667 526.48 119.667C523.925 119.667 521.662 120.621 520.881 122.028C520.1 123.434 520.98 124.972 523.058 125.832" stroke="black" stroke-width="1.36" stroke-miterlimit="10" stroke-linecap="round" stroke-linejoin="round"/>
<path d="M216.138 305.552C214.39 302.381 209.287 300.227 203.52 300.227C197.753 300.227 192.65 302.381 190.902 305.552" stroke="black" stroke-width="1.36" stroke-miterlimit="10" stroke-linecap="round" stroke-linejoin="round"/>
<path d="M194.158 308.629C199.328 311.613 207.712 311.613 212.882 308.629C218.053 305.645 218.053 300.808 212.882 297.824C207.712 294.841 199.328 294.841 194.158 297.824C188.987 300.808 188.987 305.645 194.158 308.629Z" stroke="black" stroke-width="1.36" stroke-miterlimit="10" stroke-linecap="round" stroke-linejoin="round"/>
<path d="M206.942 310.632C209.02 309.772 209.9 308.234 209.119 306.828C208.338 305.421 206.075 304.467 203.52 304.467C200.965 304.467 198.702 305.421 197.921 306.828C197.14 308.234 198.02 309.772 200.098 310.632" stroke="black" stroke-width="1.36" stroke-miterlimit="10" stroke-linecap="round" stroke-linejoin="round"/>
<path d="M31.3375 197.872C29.5901 194.7 24.4867 192.547 18.72 192.547C12.9533 192.547 7.8498 194.7 6.10242 197.872" stroke="black" stroke-width="1.36" stroke-miterlimit="10" stroke-linecap="round" stroke-linejoin="round"/>
<path d="M9.35789 200.949C14.5284 203.933 22.9115 203.933 28.0821 200.949C33.2526 197.965 33.2526 193.128 28.0821 190.144C22.9115 187.161 14.5284 187.161 9.35789 190.144C4.18734 193.128 4.18734 197.965 9.35789 200.949Z" stroke="black" stroke-width="1.36" stroke-miterlimit="10" stroke-linecap="round" stroke-linejoin="round"/>
<path d="M22.1421 202.952C24.2199 202.092 25.0995 200.554 24.3187 199.148C23.5378 197.741 21.2751 196.787 18.72 196.787C16.1649 196.787 13.9022 197.741 13.1213 199.148C12.3404 200.554 13.2201 202.092 15.2979 202.952" stroke="black" stroke-width="1.36" stroke-miterlimit="10" stroke-linecap="round" stroke-linejoin="round"/>
<path d="M1.55998 201.467C1.55998 207.205 5.483 212.712 12.478 216.793" stroke="black" stroke-width="1.36" stroke-miterlimit="10" stroke-linecap="round" stroke-linejoin="round"/>
<path d="M542.296 136.749C543.188 134.871 543.64 132.933 543.64 130.987" stroke="black" stroke-width="1.36" stroke-miterlimit="10" stroke-linecap="round" stroke-linejoin="round"/>
<path d="M478.52 271.027L542.28 136.787" stroke="black" stroke-width="1.36" stroke-miterlimit="10" stroke-linecap="round" stroke-linejoin="round"/>
<path d="M451.734 286.316C464.799 284.343 475.046 278.5 478.616 270.989" stroke="black" stroke-width="1.36" stroke-miterlimit="10" stroke-linecap="round" stroke-linejoin="round"/>
<path d="M218.36 321.667L451.64 286.387" stroke="black" stroke-width="1.36" stroke-miterlimit="10" stroke-linecap="round" stroke-linejoin="round"/>
<path d="M181.998 315.833C191.492 321.372 205.39 323.569 218.454 321.596" stroke="black" stroke-width="1.36" stroke-miterlimit="10" stroke-linecap="round" stroke-linejoin="round"/>
<path d="M12.44 216.867L181.96 315.907" stroke="black" stroke-width="1.36" stroke-miterlimit="10" stroke-linecap="round" stroke-linejoin="round"/>
<path d="M530.768 125.38C529.656 124.695 528.104 124.307 526.48 124.307C524.856 124.307 523.304 124.695 522.192 125.38" stroke="black" stroke-width="1.36" stroke-miterlimit="10" stroke-linecap="round" stroke-linejoin="round"/>
<path d="M461.728 271.54C460.616 270.855 459.064 270.467 457.44 270.467C455.816 270.467 454.264 270.855 453.152 271.54" stroke="black" stroke-width="1.36" stroke-miterlimit="10" stroke-linecap="round" stroke-linejoin="round"/>
<path d="M23.0076 202.5C21.8961 201.815 20.3442 201.427 18.72 201.427C17.0957 201.427 15.5438 201.815 14.4323 202.5" stroke="black" stroke-width="1.36" stroke-miterlimit="10" stroke-linecap="round" stroke-linejoin="round"/>
<path d="M92.0476 56.2601C90.9361 55.5753 89.3842 55.1868 87.76 55.1868C86.1358 55.1868 84.5839 55.5753 83.4724 56.2601" stroke="black" stroke-width="1.36" stroke-miterlimit="10" stroke-linecap="round" stroke-linejoin="round"/>
<path d="M207.808 310.18C206.696 309.495 205.144 309.107 203.52 309.107C201.896 309.107 200.344 309.495 199.232 310.18" stroke="black" stroke-width="1.36" stroke-miterlimit="10" stroke-linecap="round" stroke-linejoin="round"/>
<path d="M345.968 17.7C344.856 17.0152 343.304 16.6267 341.68 16.6267C340.056 16.6267 338.504 17.0152 337.392 17.7" stroke="black" stroke-width="1.36" stroke-miterlimit="10" stroke-linecap="round" stroke-linejoin="round"/>
<path d="M66.6 52.2266L2.83997 186.547" stroke="black" stroke-width="1.36" stroke-miterlimit="10" stroke-linecap="round" stroke-linejoin="round"/>
<path d="M93.4656 36.9375C80.401 38.9103 70.1537 44.753 66.5842 52.2647" stroke="black" stroke-width="1.36" stroke-miterlimit="10" stroke-linecap="round" stroke-linejoin="round"/>
<path d="M326.76 1.66678L93.48 36.9468" stroke="black" stroke-width="1.36" stroke-miterlimit="10" stroke-linecap="round" stroke-linejoin="round"/>
<path d="M363.202 7.42079C353.707 1.8818 339.81 -0.315103 326.746 1.65768" stroke="black" stroke-width="1.36" stroke-miterlimit="10" stroke-linecap="round" stroke-linejoin="round"/>
<path d="M532.68 106.387L363.16 7.42672" stroke="black" stroke-width="1.36" stroke-miterlimit="10" stroke-linecap="round" stroke-linejoin="round"/>
<path d="M542.296 127.469C545.865 119.958 542.215 111.919 532.722 106.381" stroke="black" stroke-width="1.36" stroke-miterlimit="10" stroke-linecap="round" stroke-linejoin="round"/>
<path d="M478.52 261.827L542.28 127.507" stroke="black" stroke-width="1.36" stroke-miterlimit="10" stroke-linecap="round" stroke-linejoin="round"/>
<path d="M451.734 277.036C464.799 275.063 475.046 269.22 478.616 261.709" stroke="black" stroke-width="1.36" stroke-miterlimit="10" stroke-linecap="round" stroke-linejoin="round"/>
<path d="M218.36 312.387L451.64 277.107" stroke="black" stroke-width="1.36" stroke-miterlimit="10" stroke-linecap="round" stroke-linejoin="round"/>
<path d="M181.998 306.553C191.492 312.092 205.39 314.289 218.454 312.316" stroke="black" stroke-width="1.36" stroke-miterlimit="10" stroke-linecap="round" stroke-linejoin="round"/>
<path d="M12.44 207.667L181.96 306.627" stroke="black" stroke-width="1.36" stroke-miterlimit="10" stroke-linecap="round" stroke-linejoin="round"/>
<path d="M2.90422 186.505C-0.664953 194.016 2.9845 202.054 12.478 207.593" stroke="black" stroke-width="1.36" stroke-miterlimit="10" stroke-linecap="round" stroke-linejoin="round"/>
<path d="M543.64 131.027V121.747" stroke="black" stroke-width="1.36" stroke-miterlimit="10" stroke-linecap="round" stroke-linejoin="round"/>
<path d="M1.47998 201.507V192.307" stroke="black" stroke-width="1.36" stroke-miterlimit="10" stroke-linecap="round" stroke-linejoin="round"/>
</svg>
