<svg width="353" height="436" viewBox="0 0 353 436" fill="none" xmlns="http://www.w3.org/2000/svg">
<path d="M112.724 133.712C112.724 154.092 141.296 170.613 176.541 170.613C211.786 170.613 240.358 154.092 240.358 133.712" stroke="black" stroke-width="1.36" stroke-miterlimit="10" stroke-linecap="round" stroke-linejoin="round"/>
<path d="M123.263 155.162C132.668 167.313 153.553 175.137 176.59 175.137C199.627 175.137 220.513 167.313 229.917 155.162" stroke="black" stroke-width="1.36" stroke-miterlimit="10" stroke-linecap="round" stroke-linejoin="round"/>
<path d="M122.04 112.695C105.659 128.243 111.338 148.375 135.413 160.109C159.488 171.842 194.764 171.669 218.491 159.701C242.218 147.733 247.305 127.548 230.47 112.163" stroke="black" stroke-width="1.36" stroke-miterlimit="10" stroke-linecap="round" stroke-linejoin="round"/>
<path d="M227.639 135.015L227.59 134.72L227.492 134.376L227.443 134.081L227.344 133.737L227.295 133.442L227.197 133.097L227.099 132.802L227.001 132.458L226.902 132.163L226.804 131.819L226.706 131.524L226.559 131.229L226.46 130.885L226.313 130.59L226.166 130.246L226.068 129.951L225.92 129.656L225.773 129.311L225.626 129.016L225.429 128.721L225.282 128.426L225.135 128.082L224.938 127.787L224.742 127.492L224.594 127.197L224.398 126.902L224.201 126.607L224.005 126.263L223.759 125.968L223.563 125.673L223.367 125.378L223.121 125.083" stroke="black" stroke-width="1.36" stroke-miterlimit="10" stroke-linecap="round" stroke-linejoin="round"/>
<path d="M200.727 158.124L199.991 157.878L199.254 157.633L198.517 157.387L197.732 157.19L196.995 156.944L196.209 156.748L195.473 156.551L194.687 156.354L193.901 156.158L193.115 155.961L192.33 155.764L191.544 155.617L190.758 155.469L189.972 155.272L189.137 155.174L188.352 155.027L187.517 154.879L186.731 154.781L185.896 154.633L185.11 154.535L184.276 154.437L183.441 154.338L182.606 154.24L181.82 154.191L180.985 154.092L180.15 154.043L179.316 153.994L178.481 153.945L177.646 153.896L176.811 153.847H175.976H175.19L174.356 153.797H173.521L172.686 153.847H171.851H171.016L170.181 153.896L169.396 153.945L168.561 153.994L167.726 154.043L166.94 154.092L166.105 154.142L165.319 154.24L164.485 154.338L163.699 154.437L162.864 154.535L162.078 154.633L161.293 154.732L160.507 154.879L159.721 154.977L158.935 155.125L158.15 155.272L157.364 155.42L156.627 155.617L155.841 155.764L155.105 155.961L154.368 156.108L153.631 156.305L152.895 156.502L152.158 156.698L151.422 156.895L150.685 157.141L149.997 157.338" stroke="black" stroke-width="1.36" stroke-miterlimit="10" stroke-linecap="round" stroke-linejoin="round"/>
<path d="M211.63 153.601L211.188 153.355L210.696 153.06L210.254 152.814L209.763 152.568L209.321 152.322L208.83 152.077L208.339 151.831L207.848 151.585L207.357 151.339L206.817 151.093L206.326 150.847L205.835 150.651L205.294 150.405L204.803 150.159L204.263 149.962L203.723 149.766L203.183 149.52L202.643 149.323L202.102 149.126L201.562 148.93L201.022 148.733L200.482 148.536L199.892 148.34L199.352 148.192L198.812 147.996L198.223 147.848L197.633 147.651L197.093 147.504L196.504 147.307L195.915 147.16L195.325 147.012L194.736 146.865L194.147 146.717L193.557 146.57L192.968 146.422L192.379 146.324L191.789 146.176L191.2 146.078L190.611 145.93L189.972 145.832L189.383 145.734L188.745 145.586L188.155 145.488L187.566 145.39L186.928 145.291L186.338 145.193L185.7 145.144L185.061 145.045L184.472 144.947L183.834 144.898L183.195 144.849L182.606 144.75L181.968 144.701L181.329 144.652L180.74 144.603L180.101 144.554L179.463 144.505L178.825 144.455H178.235L177.597 144.406H176.958L176.32 144.357H175.731H175.092L174.454 144.308H173.815H173.177L172.588 144.357H171.949H171.311L170.722 144.406H170.083L169.445 144.455H168.855L168.217 144.505L167.579 144.554L166.989 144.603L166.351 144.652L165.761 144.701L165.123 144.8L164.534 144.849L163.895 144.898L163.306 144.996L162.717 145.045L162.127 145.144L161.489 145.242L160.9 145.34L160.31 145.439L159.721 145.537L159.132 145.635L158.542 145.734L157.953 145.832L157.364 145.98L156.775 146.078L156.185 146.226L155.645 146.324L155.056 146.471L154.515 146.619L153.926 146.717L153.386 146.865L152.797 147.012L152.256 147.16L151.716 147.356L151.176 147.504L150.636 147.651L150.096 147.848L149.555 147.996L149.015 148.192L148.475 148.34L147.984 148.536L147.444 148.733L146.904 148.93L146.412 149.126L145.921 149.323L145.43 149.52L144.939 149.716L144.448 149.913L143.957 150.11L143.466 150.356L142.975 150.552L142.533 150.798L142.042 150.995L141.6 151.241L141.158 151.487L140.667 151.683L140.225 151.929L139.783 152.175L139.39 152.421" stroke="black" stroke-width="1.36" stroke-miterlimit="10" stroke-linecap="round" stroke-linejoin="round"/>
<path d="M218.505 149.077L218.063 148.684L217.621 148.291L217.13 147.897L216.688 147.553L216.197 147.16L215.706 146.816L215.214 146.471L214.723 146.078L214.232 145.734L213.692 145.39L213.152 145.046L212.612 144.701L212.071 144.406L211.531 144.062L210.991 143.718L210.402 143.423L209.812 143.079L209.272 142.784L208.683 142.489L208.045 142.194L207.455 141.899L206.866 141.604L206.227 141.309L205.589 141.063L204.951 140.768L204.312 140.522L203.674 140.227L203.035 139.981L202.397 139.735L201.709 139.49L201.071 139.293L200.383 139.047" stroke="black" stroke-width="1.36" stroke-miterlimit="10" stroke-linecap="round" stroke-linejoin="round"/>
<path d="M148.917 138.703L148.279 138.949L147.689 139.145L147.1 139.342L146.511 139.588L145.921 139.784L145.332 140.03L144.792 140.276L144.203 140.522L143.662 140.768L143.122 141.014L142.582 141.26L142.042 141.555L141.501 141.8L140.961 142.046L140.47 142.341L139.979 142.636L139.439 142.882L138.948 143.177L138.457 143.472L138.015 143.767L137.524 144.062L137.082 144.357L136.591 144.652L136.149 144.996L135.707 145.291L135.314 145.586L134.872 145.931L134.479 146.226L134.037 146.57L133.644 146.914L133.251 147.258L132.858 147.553" stroke="black" stroke-width="1.36" stroke-miterlimit="10" stroke-linecap="round" stroke-linejoin="round"/>
<path d="M223.072 144.505L222.777 144.16L222.532 143.816L222.237 143.472L221.992 143.128L221.697 142.784L221.402 142.44L221.059 142.095L220.764 141.751L220.42 141.456L220.125 141.112L219.782 140.768L219.438 140.473L219.094 140.129L218.75 139.834L218.407 139.489L218.014 139.194L217.67 138.85L217.277 138.555L216.884 138.26L216.54 137.916L216.148 137.621L215.706 137.326L215.313 137.031L214.92 136.736L214.478 136.441L214.085 136.146L213.643 135.851L213.201 135.605L212.759 135.31L212.317 135.015L211.875 134.769L211.384 134.474" stroke="black" stroke-width="1.36" stroke-miterlimit="10" stroke-linecap="round" stroke-linejoin="round"/>
<path d="M138.211 134.179L137.818 134.425L137.425 134.622L137.082 134.868L136.689 135.113L136.345 135.359L136.001 135.605L135.657 135.851L135.314 136.146L134.97 136.392L134.626 136.638L134.282 136.883L133.988 137.129L133.644 137.424L133.349 137.67L133.006 137.965L132.711 138.211L132.416 138.506L132.122 138.752L131.876 139.047L131.581 139.293L131.287 139.588L131.041 139.883L130.796 140.178L130.55 140.424L130.255 140.719L130.059 141.014L129.813 141.309L129.568 141.604L129.372 141.899L129.126 142.194L128.93 142.489L128.733 142.784" stroke="black" stroke-width="1.36" stroke-miterlimit="10" stroke-linecap="round" stroke-linejoin="round"/>
<path d="M225.969 140.03L225.822 139.686L225.675 139.391L225.478 139.047L225.331 138.703L225.135 138.359L224.987 138.014L224.791 137.719L224.594 137.375L224.398 137.031L224.201 136.736L224.005 136.392L223.759 136.048L223.563 135.753L223.317 135.408L223.121 135.113L222.875 134.769L222.63 134.474L222.384 134.13L222.139 133.835L221.844 133.54L221.599 133.196L221.304 132.901L221.058 132.606L220.764 132.262L220.469 131.967L220.174 131.672L219.88 131.377L219.585 131.082L219.241 130.787L218.947 130.492L218.603 130.197L218.308 129.902" stroke="black" stroke-width="1.36" stroke-miterlimit="10" stroke-linecap="round" stroke-linejoin="round"/>
<path d="M131.63 129.754L131.434 130L131.188 130.246L130.943 130.492L130.697 130.737L130.501 130.983L130.305 131.229L130.059 131.475L129.863 131.77L129.666 132.016L129.47 132.262L129.273 132.508L129.077 132.753L128.88 133.048L128.684 133.294L128.537 133.54L128.34 133.835L128.193 134.081L128.046 134.327L127.898 134.622L127.751 134.868L127.604 135.163L127.456 135.409L127.309 135.704L127.162 135.949L127.063 136.244L126.916 136.49L126.818 136.785L126.671 137.031L126.572 137.326L126.474 137.572L126.376 137.867L126.278 138.113" stroke="black" stroke-width="1.36" stroke-miterlimit="10" stroke-linecap="round" stroke-linejoin="round"/>
<path d="M127.063 139.932L127.211 139.686L127.358 139.391L127.505 139.096L127.653 138.85L127.8 138.555L127.947 138.26L128.144 138.014L128.291 137.719L128.488 137.473L128.684 137.178L128.831 136.883L129.028 136.638L129.224 136.343L129.421 136.097L129.666 135.802L129.863 135.556L130.059 135.31L130.305 135.015L130.55 134.769L130.747 134.523L130.992 134.228L131.238 133.982L131.483 133.737L131.729 133.491L132.023 133.245L132.269 132.95L132.514 132.704L132.809 132.458L133.055 132.212L133.349 131.967L133.644 131.721L133.939 131.475" stroke="black" stroke-width="1.36" stroke-miterlimit="10" stroke-linecap="round" stroke-linejoin="round"/>
<path d="M215.853 131.77L216.246 132.016L216.639 132.311L216.982 132.606L217.326 132.901L217.67 133.196L218.063 133.491L218.357 133.786L218.701 134.081L219.045 134.376L219.389 134.671L219.683 134.966L220.027 135.261L220.322 135.605L220.617 135.9L220.911 136.195L221.206 136.539L221.5 136.834L221.746 137.178L222.041 137.473L222.286 137.818L222.532 138.162L222.777 138.457L223.023 138.801L223.268 139.145L223.514 139.44L223.76 139.784L223.956 140.129L224.201 140.473L224.398 140.817L224.594 141.161L224.791 141.456L224.987 141.8" stroke="black" stroke-width="1.36" stroke-miterlimit="10" stroke-linecap="round" stroke-linejoin="round"/>
<path d="M130.157 144.701L130.403 144.357L130.697 144.062L130.943 143.767L131.238 143.472L131.532 143.177L131.827 142.882L132.122 142.587L132.465 142.292L132.76 141.997L133.104 141.702L133.398 141.407L133.742 141.112L134.086 140.817L134.43 140.571L134.823 140.276L135.166 139.981L135.51 139.735L135.903 139.44L136.296 139.194L136.689 138.899L137.082 138.653L137.475 138.408L137.867 138.162L138.26 137.916L138.702 137.621L139.144 137.375L139.537 137.129L139.979 136.933L140.421 136.687L140.863 136.441L141.305 136.195L141.747 135.998" stroke="black" stroke-width="1.36" stroke-miterlimit="10" stroke-linecap="round" stroke-linejoin="round"/>
<path d="M207.701 136.343L208.192 136.588L208.732 136.834L209.272 137.129L209.763 137.375L210.254 137.67L210.746 137.916L211.286 138.211L211.728 138.506L212.219 138.801L212.71 139.096L213.201 139.391L213.643 139.686L214.085 139.981L214.576 140.276L215.018 140.571L215.46 140.915L215.853 141.21L216.295 141.554L216.688 141.85L217.13 142.194L217.523 142.538L217.915 142.833L218.308 143.177L218.701 143.521L219.045 143.865L219.438 144.21L219.782 144.554L220.125 144.898L220.469 145.242L220.813 145.635L221.157 145.98L221.451 146.324" stroke="black" stroke-width="1.36" stroke-miterlimit="10" stroke-linecap="round" stroke-linejoin="round"/>
<path d="M135.117 149.52L135.658 149.127L136.149 148.782L136.689 148.438L137.229 148.045L137.769 147.701L138.309 147.356L138.899 147.012L139.439 146.717L140.028 146.373L140.618 146.029L141.256 145.734L141.845 145.439L142.484 145.095L143.122 144.8L143.761 144.505L144.399 144.259L145.086 143.964L145.725 143.669L146.412 143.423L147.1 143.177L147.787 142.882L148.524 142.636L149.212 142.44L149.948 142.194L150.636 141.948L151.372 141.751L152.109 141.505L152.846 141.309L153.631 141.112L154.368 140.915L155.154 140.719L155.891 140.571" stroke="black" stroke-width="1.36" stroke-miterlimit="10" stroke-linecap="round" stroke-linejoin="round"/>
<path d="M193.263 140.817L194.098 141.014L194.932 141.21L195.767 141.456L196.553 141.653L197.388 141.899L198.174 142.144L198.959 142.39L199.745 142.636L200.531 142.882L201.317 143.177L202.053 143.423L202.839 143.718L203.576 144.013L204.312 144.308L205.049 144.603L205.786 144.947L206.522 145.242L207.21 145.586L207.897 145.93L208.634 146.275L209.272 146.619L209.96 146.963L210.647 147.307L211.286 147.701L211.924 148.094L212.563 148.438L213.152 148.831L213.79 149.225L214.38 149.618L214.969 150.061L215.509 150.454L216.098 150.896" stroke="black" stroke-width="1.36" stroke-miterlimit="10" stroke-linecap="round" stroke-linejoin="round"/>
<path d="M142.926 154.388L143.368 154.191L143.761 153.994L144.203 153.798L144.645 153.65L145.037 153.453L145.479 153.257L145.921 153.109L146.363 152.913L146.805 152.765L147.247 152.568L147.738 152.421L148.18 152.273L148.622 152.077L149.114 151.929L149.556 151.782L150.047 151.634L150.489 151.487L150.98 151.339L151.471 151.192L151.913 151.044L152.404 150.946L152.895 150.798L153.386 150.651L153.877 150.552L154.368 150.405L154.908 150.307L155.4 150.159L155.891 150.061L156.382 149.962L156.922 149.864L157.413 149.717L157.904 149.618L158.444 149.52L158.935 149.422L159.476 149.372L160.016 149.274L160.507 149.176L161.047 149.077L161.587 149.028L162.078 148.93L162.619 148.881L163.159 148.782L163.699 148.733L164.239 148.684L164.779 148.635L165.27 148.586L165.811 148.487L166.351 148.438H166.891L167.431 148.389L168.021 148.34L168.561 148.291H169.101L169.641 148.242L170.181 148.192H170.722H171.262L171.802 148.143H172.391H172.931H173.472H174.012H174.552H175.141H175.682H176.222L176.762 148.192H177.302H177.892L178.432 148.242L178.972 148.291H179.512L180.052 148.34L180.642 148.389L181.182 148.438L181.722 148.487L182.262 148.537L182.802 148.586L183.343 148.635L183.932 148.684L184.472 148.733L185.012 148.832L185.553 148.881L186.093 148.979L186.633 149.028L187.173 149.127L187.713 149.225L188.254 149.323L188.794 149.372L189.285 149.471L189.825 149.569L190.365 149.667L190.905 149.815L191.446 149.913L191.937 150.012L192.477 150.11L193.017 150.257L193.508 150.356L194.048 150.503L194.54 150.602L195.08 150.749L195.571 150.897L196.111 150.995L196.602 151.142L197.093 151.29L197.584 151.437L198.125 151.585L198.616 151.733L199.107 151.88L199.598 152.077L200.089 152.224L200.58 152.372L201.071 152.568L201.562 152.716L202.004 152.913L202.495 153.06L202.986 153.257L203.428 153.453L203.919 153.601L204.361 153.798L204.852 153.994L205.294 154.191L205.736 154.388L206.178 154.584L206.62 154.781L207.062 154.978L207.504 155.223L207.946 155.42" stroke="black" stroke-width="1.36" stroke-miterlimit="10" stroke-linecap="round" stroke-linejoin="round"/>
<path d="M156.824 159.354L157.364 159.255L157.904 159.108L158.444 159.009L159.034 158.911L159.574 158.813L160.114 158.714L160.703 158.616L161.243 158.567L161.833 158.469L162.373 158.37L162.962 158.321L163.552 158.223L164.092 158.173L164.681 158.124L165.27 158.026L165.811 157.977L166.4 157.928L166.989 157.878L167.579 157.829L168.168 157.78H168.708L169.297 157.731L169.887 157.682H170.476L171.065 157.633H171.655H172.244H172.833H173.423L174.012 157.583L174.601 157.633H175.19H175.78H176.369L176.958 157.682H177.548L178.137 157.731H178.726L179.316 157.78L179.905 157.829L180.494 157.878H181.084L181.673 157.928L182.262 158.026L182.851 158.075L183.441 158.124L184.03 158.173L184.619 158.272L185.209 158.321L185.798 158.419L186.387 158.518L186.928 158.567L187.517 158.665L188.106 158.764L188.695 158.862L189.236 158.96L189.825 159.059L190.365 159.157L190.954 159.304L191.544 159.403L192.084 159.55L192.624 159.649L193.214 159.796L193.754 159.894" stroke="black" stroke-width="1.36" stroke-miterlimit="10" stroke-linecap="round" stroke-linejoin="round"/>
<path d="M225.233 122.674L225.38 122.969L225.527 123.264L225.675 123.559L225.822 123.854L225.969 124.149L226.117 124.444L226.215 124.739L226.362 125.034L226.461 125.329L226.608 125.624L226.706 125.919L226.804 126.214L226.902 126.509L227.001 126.804L227.099 127.099L227.197 127.394L227.246 127.689L227.344 127.984L227.394 128.328L227.492 128.623L227.541 128.918L227.59 129.213L227.639 129.508L227.688 129.803L227.737 130.147L227.786 130.442L227.836 130.737V131.032L227.885 131.327V131.672V131.967L227.934 132.262" stroke="black" stroke-width="1.36" stroke-miterlimit="10" stroke-linecap="round" stroke-linejoin="round"/>
<path d="M125.394 134.72L125.492 134.228L125.59 133.737L125.688 133.245L125.836 132.753L126.032 132.262L126.179 131.77L126.376 131.278L126.572 130.836L126.769 130.344L127.014 129.852L127.26 129.361L127.554 128.918L127.8 128.426L128.095 127.984L128.438 127.492L128.733 127.05" stroke="black" stroke-width="1.36" stroke-miterlimit="10" stroke-linecap="round" stroke-linejoin="round"/>
<path d="M221.451 126.951L221.746 127.246L221.992 127.542L222.237 127.837L222.483 128.132L222.728 128.427L222.974 128.722L223.17 129.017L223.416 129.312L223.612 129.607L223.858 129.902L224.054 130.246L224.251 130.541L224.447 130.836L224.643 131.131L224.84 131.475L225.036 131.77L225.184 132.065L225.38 132.409L225.527 132.704L225.675 133.048L225.822 133.343L226.019 133.688L226.117 133.983L226.264 134.327L226.411 134.622L226.559 134.966L226.657 135.261L226.755 135.605L226.903 135.9L227.001 136.244L227.099 136.539L227.197 136.884" stroke="black" stroke-width="1.36" stroke-miterlimit="10" stroke-linecap="round" stroke-linejoin="round"/>
<path d="M126.698 124.649C121.367 136.917 130.047 149.793 148.33 156.737C166.612 163.681 190.491 163.171 207.84 155.467C225.189 147.764 232.205 134.553 225.326 122.545" stroke="black" stroke-width="1.36" stroke-miterlimit="10" stroke-linecap="round" stroke-linejoin="round"/>
<path d="M234.564 193.87L234.465 197.066L234.269 200.114L233.974 203.114L233.483 205.965L232.894 208.768L232.206 211.423L231.371 213.98L230.389 216.438L229.309 218.7L228.081 220.913L226.755 222.929L225.331 224.846L223.809 226.567L222.139 228.19L220.371 229.616L218.505 230.894L216.59 232.025L214.527 233.008L212.415 233.795L210.205 234.434L207.897 234.926L205.54 235.221L203.134 235.319L200.629 235.27L198.075 235.073L195.522 234.68L192.87 234.139L190.218 233.451L187.517 232.566L184.816 231.533L182.066 230.304L179.316 228.927L176.516 227.403L173.766 228.927L171.016 230.304L168.266 231.533L165.565 232.566L162.864 233.451L160.212 234.139L157.56 234.68L155.007 235.073L152.453 235.27L149.948 235.319L147.542 235.221L145.185 234.926L142.877 234.434L140.667 233.795L138.555 233.008L136.492 232.025L134.577 230.894L132.711 229.616L130.943 228.19L129.273 226.567L127.751 224.846L126.327 222.929L125.001 220.913L123.773 218.7L122.693 216.438L121.71 213.98L120.876 211.423L120.188 208.768L119.599 205.965L119.108 203.114L118.813 200.114L118.617 197.066L118.518 193.87" stroke="black" stroke-width="1.36" stroke-miterlimit="10" stroke-linecap="round" stroke-linejoin="round"/>
<path d="M176.516 227.403V350.03L340.59 255.183L234.563 193.87" stroke="black" stroke-width="1.36" stroke-miterlimit="10" stroke-linecap="round" stroke-linejoin="round"/>
<path d="M118.518 193.87L12.4915 255.183L176.516 350.03" stroke="black" stroke-width="1.36" stroke-miterlimit="10" stroke-linecap="round" stroke-linejoin="round"/>
<path d="M176.516 350.03V359.519L12.4915 264.673V255.183" stroke="black" stroke-width="1.36" stroke-miterlimit="10" stroke-linecap="round" stroke-linejoin="round"/>
<path d="M176.516 359.519L340.59 264.673V255.183" stroke="black" stroke-width="1.36" stroke-miterlimit="10" stroke-linecap="round" stroke-linejoin="round"/>
<path d="M123.233 155.174L118.322 148.782" stroke="black" stroke-width="1.36" stroke-miterlimit="10" stroke-linecap="round" stroke-linejoin="round"/>
<path d="M229.849 155.174L234.76 148.782" stroke="black" stroke-width="1.36" stroke-miterlimit="10" stroke-linecap="round" stroke-linejoin="round"/>
<path d="M240.358 131.917V133.737" stroke="black" stroke-width="1.36" stroke-miterlimit="10" stroke-linecap="round" stroke-linejoin="round"/>
<path d="M112.724 131.917V133.737" stroke="black" stroke-width="1.36" stroke-miterlimit="10" stroke-linecap="round" stroke-linejoin="round"/>
<path d="M118.518 193.87V149.127" stroke="black" stroke-width="1.36" stroke-miterlimit="10" stroke-linecap="round" stroke-linejoin="round"/>
<path d="M234.564 193.87V149.127" stroke="black" stroke-width="1.36" stroke-miterlimit="10" stroke-linecap="round" stroke-linejoin="round"/>
<path d="M254.158 66.179L197.339 99.0237L119.697 86.9774L98.9238 42.1356" stroke="black" stroke-width="1.36" stroke-miterlimit="10" stroke-linecap="round" stroke-linejoin="round"/>
<path d="M119.697 86.9774V79.4054L197.339 91.4517V99.0237" stroke="black" stroke-width="1.36" stroke-miterlimit="10" stroke-linecap="round" stroke-linejoin="round"/>
<path d="M98.9238 42.1354V34.5143L119.697 79.4053" stroke="black" stroke-width="1.36" stroke-miterlimit="10" stroke-linecap="round" stroke-linejoin="round"/>
<path d="M254.158 66.179V58.5578L233.385 13.716L155.743 1.66968L98.9238 34.5143" stroke="black" stroke-width="1.36" stroke-miterlimit="10" stroke-linecap="round" stroke-linejoin="round"/>
<path d="M197.339 91.4517L254.158 58.5579" stroke="black" stroke-width="1.36" stroke-miterlimit="10" stroke-linecap="round" stroke-linejoin="round"/>
<path d="M172.426 44.1546C170.153 45.4699 170.153 47.6024 172.426 48.9177C174.699 50.233 178.383 50.233 180.656 48.9177C182.929 47.6024 182.929 45.4699 180.656 44.1546C178.383 42.8393 174.699 42.8393 172.426 44.1546Z" stroke="black" stroke-width="1.36" stroke-miterlimit="10" stroke-linecap="round" stroke-linejoin="round"/>
<path d="M126.965 115.495L127.063 115.741L127.211 116.036L127.309 116.331L127.456 116.577L127.604 116.872L127.751 117.118L127.898 117.413L128.095 117.708L128.242 117.954L128.438 118.249L128.586 118.494L128.782 118.789L128.979 119.035L129.175 119.281L129.372 119.576L129.568 119.822L129.764 120.068L129.961 120.363L130.206 120.609L130.403 120.855L130.648 121.15L130.845 121.395L131.09 121.641L131.336 121.887L131.581 122.133L131.827 122.379L132.122 122.625L132.367 122.87L132.613 123.116L132.907 123.362L133.153 123.608L133.448 123.854L133.742 124.1L134.037 124.345L134.332 124.591L134.626 124.788L134.921 125.034L135.216 125.28L135.51 125.476L135.854 125.722L136.149 125.968L136.492 126.165L136.787 126.411L137.131 126.607L137.475 126.804L137.818 127.05L138.162 127.246L138.506 127.443L138.85 127.689L139.193 127.886L139.586 128.082L139.93 128.279L140.274 128.476L140.667 128.672L141.06 128.869L141.403 129.066L141.796 129.262L142.189 129.459L142.582 129.656L142.975 129.852L143.368 130L143.761 130.197L144.153 130.393L144.546 130.541L144.988 130.737L145.381 130.885L145.774 131.082L146.216 131.229L146.658 131.377L147.051 131.573L147.493 131.721L147.935 131.868L148.377 132.016L148.77 132.163L149.212 132.311L149.654 132.458L150.145 132.606L150.587 132.753L151.029 132.901L151.471 132.999L151.913 133.147L152.404 133.294L152.846 133.393L153.337 133.54L153.779 133.638L154.27 133.786L154.712 133.884L155.203 133.983L155.694 134.081L156.185 134.228L156.627 134.327L157.118 134.425L157.609 134.523L158.1 134.622L158.592 134.72L159.083 134.769L159.574 134.868L160.065 134.966L160.556 135.015L161.047 135.113L161.587 135.163L162.078 135.261L162.569 135.31L163.061 135.408L163.601 135.458L164.092 135.507L164.583 135.556L165.123 135.605L165.614 135.654L166.105 135.703L166.645 135.753L167.137 135.802L167.677 135.851L168.168 135.9H168.708L169.199 135.949L169.739 135.998H170.28H170.771L171.311 136.048H171.802H172.342H172.882L173.373 136.097H173.914H174.405H174.945L175.485 136.048H175.976H176.516H177.057L177.548 135.998H178.088L178.628 135.949H179.119L179.659 135.9L180.2 135.851L180.691 135.802H181.231L181.722 135.753L182.262 135.703L182.802 135.654L183.294 135.605L183.834 135.507L184.325 135.458L184.865 135.408L185.356 135.359L185.896 135.261L186.387 135.212L186.928 135.113L187.419 135.015L187.91 134.966L188.45 134.868L188.941 134.769L189.481 134.671L189.972 134.622L190.463 134.523L190.955 134.425L191.495 134.278L191.986 134.179L192.477 134.081L192.968 133.983L193.459 133.835L193.95 133.737L194.441 133.638L194.932 133.491L195.423 133.393L195.915 133.245L196.406 133.098L196.848 132.95L197.339 132.852L197.83 132.704L198.321 132.557L198.763 132.409L199.254 132.262L199.696 132.114L200.187 131.967L200.629 131.819L201.12 131.622L201.562 131.475L202.004 131.327L202.446 131.131L202.937 130.983L203.379 130.787L203.821 130.639L204.263 130.442L204.705 130.246L205.098 130.098L205.54 129.902L205.982 129.705L206.424 129.508L206.817 129.312L207.259 129.115L207.652 128.918L208.094 128.721L208.487 128.525L208.879 128.328L209.321 128.131L209.714 127.886L210.107 127.689L210.5 127.492L210.893 127.246L211.286 127.05L211.63 126.804L212.022 126.607L212.415 126.361L212.759 126.116L213.152 125.919L213.496 125.673L213.839 125.427L214.232 125.181L214.576 124.936L214.92 124.69L215.264 124.444L215.607 124.198L215.902 123.952L216.246 123.706L216.59 123.46L216.884 123.215L217.228 122.969L217.523 122.723L217.817 122.428L218.161 122.182L218.456 121.936L218.75 121.641L219.045 121.395L219.34 121.1L219.585 120.855L219.88 120.559L220.175 120.314L220.42 120.019L220.666 119.773L220.96 119.478L221.206 119.183L221.451 118.888L221.697 118.642L221.942 118.347L222.188 118.052L222.434 117.757L222.63 117.462L222.876 117.216L223.072 116.921L223.318 116.626L223.514 116.331L223.71 116.036L223.907 115.741L224.103 115.446L224.3 115.151L224.447 114.856L224.643 114.561L224.84 114.217L224.987 113.922L225.135 113.627L225.331 113.332L225.478 113.037L225.626 112.693" stroke="black" stroke-width="1.36" stroke-miterlimit="10" stroke-linecap="round" stroke-linejoin="round"/>
<path d="M126.916 106.006L127.063 106.251L127.162 106.546L127.309 106.842L127.456 107.087L127.604 107.382L127.751 107.628L127.898 107.923L128.046 108.169L128.242 108.464L128.389 108.71L128.586 109.005L128.782 109.251L128.979 109.546L129.126 109.792L129.322 110.087L129.568 110.332L129.764 110.578L129.961 110.873L130.206 111.119L130.403 111.365L130.648 111.611L130.845 111.906L131.09 112.152L131.336 112.398L131.581 112.643L131.827 112.889L132.072 113.135L132.367 113.381L132.613 113.627L132.907 113.873L133.153 114.118L133.448 114.364L133.742 114.61L134.037 114.856L134.282 115.053L134.577 115.299L134.921 115.544L135.215 115.79L135.51 115.987L135.805 116.233L136.149 116.429L136.492 116.675L136.787 116.921L137.131 117.118L137.475 117.314L137.818 117.56L138.162 117.757L138.506 117.954L138.85 118.199L139.193 118.396L139.537 118.593L139.93 118.789L140.274 118.986L140.667 119.183L141.01 119.38L141.403 119.576L141.796 119.773L142.14 119.97L142.533 120.166L142.926 120.363L143.319 120.51L143.711 120.707L144.153 120.904L144.546 121.051L144.939 121.248L145.381 121.395L145.774 121.592L146.216 121.74L146.609 121.887L147.051 122.084L147.493 122.231L147.886 122.379L148.328 122.526L148.77 122.674L149.212 122.821L149.654 122.969L150.096 123.116L150.587 123.264L151.029 123.411L151.471 123.51L151.913 123.657L152.404 123.805L152.846 123.903L153.337 124.051L153.779 124.149L154.27 124.296L154.712 124.395L155.203 124.493L155.694 124.591L156.136 124.739L156.627 124.837L157.118 124.936L157.609 125.034L158.1 125.132L158.592 125.231L159.083 125.28L159.574 125.378L160.065 125.476L160.556 125.526L161.047 125.624L161.538 125.722L162.078 125.771L162.569 125.821L163.06 125.919L163.552 125.968L164.092 126.017L164.583 126.066L165.074 126.165L165.614 126.214L166.105 126.263H166.645L167.137 126.312L167.677 126.361L168.168 126.411L168.708 126.46H169.199L169.739 126.509H170.23L170.771 126.558H171.262H171.802L172.342 126.607H172.833H173.373H173.914H174.405H174.945H175.485L175.976 126.558H176.516H177.057L177.548 126.509H178.088L178.628 126.46H179.119L179.659 126.411L180.15 126.361H180.691L181.231 126.312L181.722 126.263L182.262 126.214L182.753 126.165L183.293 126.116L183.834 126.017L184.325 125.968L184.865 125.919L185.356 125.87L185.896 125.771L186.387 125.722L186.928 125.624L187.419 125.526L187.91 125.476L188.45 125.378L188.941 125.28L189.432 125.181L189.972 125.132L190.463 125.034L190.955 124.936L191.446 124.788L191.986 124.69L192.477 124.591L192.968 124.493L193.459 124.395L193.95 124.247L194.441 124.149L194.932 124.001L195.423 123.903L195.915 123.756L196.406 123.608L196.848 123.51L197.339 123.362L197.83 123.215L198.321 123.067L198.763 122.92L199.254 122.772L199.696 122.625L200.187 122.477L200.629 122.33L201.12 122.182L201.562 121.985L202.004 121.838L202.446 121.641L202.937 121.494L203.379 121.346L203.821 121.15L204.263 120.953L204.705 120.805L205.147 120.609L205.54 120.412L205.982 120.215L206.424 120.019L206.817 119.822L207.259 119.625L207.652 119.429L208.094 119.232L208.487 119.035L208.879 118.839L209.321 118.642L209.714 118.396L210.107 118.199L210.5 118.003L210.893 117.757L211.237 117.56L211.63 117.314L212.022 117.118L212.415 116.872L212.759 116.626L213.152 116.429L213.496 116.184L213.839 115.938L214.183 115.692L214.576 115.446L214.92 115.2L215.264 114.954L215.607 114.708L215.902 114.463L216.246 114.217L216.59 113.971L216.884 113.725L217.228 113.479L217.523 113.233L217.817 112.938L218.161 112.693L218.456 112.447L218.75 112.152L219.045 111.906L219.34 111.611L219.585 111.365L219.88 111.07L220.175 110.824L220.42 110.529L220.715 110.283L220.96 109.988L221.206 109.693L221.451 109.447L221.697 109.152L221.942 108.857L222.188 108.562L222.434 108.267L222.63 108.022L222.876 107.727L223.072 107.432L223.318 107.137L223.514 106.842L223.71 106.546L223.907 106.251L224.103 105.956L224.3 105.661L224.496 105.366L224.643 105.071L224.84 104.727L224.987 104.432L225.135 104.137L225.331 103.842L225.478 103.547L225.626 103.203" stroke="black" stroke-width="1.36" stroke-miterlimit="10" stroke-linecap="round" stroke-linejoin="round"/>
<path d="M126.916 96.516L127.063 96.7619L127.162 97.0569L127.309 97.3519L127.456 97.5977L127.604 97.8927L127.751 98.1878L127.898 98.4336L128.095 98.7286L128.242 98.9745L128.438 99.2695L128.586 99.5153L128.782 99.8103L128.979 100.056L129.175 100.302L129.371 100.597L129.568 100.843L129.764 101.089L129.961 101.384L130.206 101.63L130.403 101.875L130.648 102.17L130.894 102.416L131.09 102.662L131.336 102.908L131.581 103.154L131.827 103.4L132.122 103.645L132.367 103.891L132.613 104.137L132.907 104.383L133.153 104.629L133.448 104.875L133.742 105.121L134.037 105.366L134.332 105.612L134.626 105.809L134.921 106.055L135.215 106.301L135.51 106.546L135.854 106.743L136.149 106.989L136.492 107.186L136.787 107.431L137.131 107.628L137.475 107.874L137.818 108.071L138.113 108.267L138.506 108.513L138.85 108.71L139.193 108.907L139.537 109.103L139.93 109.3L140.274 109.546L140.667 109.742L141.01 109.939L141.403 110.136L141.796 110.283L142.14 110.48L142.533 110.677L142.926 110.873L143.319 111.07L143.761 111.217L144.153 111.414L144.546 111.562L144.939 111.758L145.381 111.906L145.774 112.102L146.216 112.25L146.609 112.397L147.051 112.594L147.493 112.742L147.935 112.889L148.377 113.037L148.77 113.184L149.212 113.332L149.703 113.479L150.145 113.627L150.587 113.774L151.029 113.922L151.471 114.02L151.962 114.168L152.404 114.315L152.846 114.413L153.337 114.561L153.779 114.659L154.27 114.807L154.761 114.905L155.203 115.003L155.694 115.151L156.185 115.249L156.627 115.348L157.118 115.446L157.609 115.544L158.1 115.643L158.592 115.741L159.083 115.839L159.574 115.888L160.065 115.987L160.556 116.085L161.047 116.134L161.587 116.233L162.078 116.282L162.569 116.38L163.06 116.429L163.552 116.478L164.092 116.577L164.583 116.626L165.123 116.675L165.614 116.724L166.105 116.773L166.645 116.823L167.137 116.872H167.677L168.168 116.921L168.708 116.97H169.199L169.739 117.019H170.23L170.771 117.069H171.311H171.802L172.342 117.118H172.833H173.373H173.914H174.405H174.945H175.485L175.976 117.069H176.516H177.057L177.548 117.019H178.088L178.628 116.97H179.119L179.659 116.921L180.2 116.872L180.691 116.823H181.231L181.722 116.773L182.262 116.724L182.802 116.675L183.294 116.626L183.834 116.528L184.325 116.478L184.865 116.429L185.356 116.38L185.896 116.282L186.387 116.233L186.928 116.134L187.419 116.085L187.959 115.987L188.45 115.888L188.941 115.79L189.481 115.741L189.972 115.643L190.463 115.544L190.955 115.446L191.495 115.348L191.986 115.2L192.477 115.102L192.968 115.003L193.459 114.905L193.95 114.758L194.441 114.659L194.932 114.512L195.424 114.413L195.915 114.266L196.406 114.168L196.897 114.02L197.339 113.873L197.83 113.725L198.321 113.578L198.763 113.43L199.254 113.283L199.745 113.135L200.187 112.988L200.629 112.84L201.12 112.692L201.562 112.496L202.004 112.348L202.495 112.201L202.937 112.004L203.379 111.857L203.821 111.66L204.263 111.463L204.705 111.316L205.147 111.119L205.54 110.922L205.982 110.726L206.424 110.529L206.817 110.332L207.259 110.136L207.652 109.939L208.094 109.742L208.487 109.546L208.879 109.349L209.321 109.152L209.714 108.907L210.107 108.71L210.5 108.513L210.893 108.267L211.237 108.071L211.63 107.825L212.022 107.628L212.415 107.382L212.759 107.136L213.152 106.94L213.496 106.694L213.84 106.448L214.183 106.202L214.576 105.956L214.92 105.711L215.264 105.465L215.607 105.219L215.902 104.973L216.246 104.727L216.59 104.481L216.884 104.235L217.228 103.99L217.523 103.744L217.866 103.449L218.161 103.203L218.456 102.957L218.75 102.662L219.045 102.416L219.34 102.121L219.634 101.875L219.88 101.58L220.175 101.335L220.42 101.04L220.715 100.794L220.96 100.499L221.206 100.204L221.451 99.9578L221.746 99.6628L221.943 99.3678L222.188 99.0728L222.434 98.7778L222.679 98.5319L222.876 98.2369L223.121 97.9419L223.318 97.6469L223.514 97.3519L223.711 97.0569L223.907 96.7619L224.103 96.4669L224.3 96.1718L224.496 95.8768L224.644 95.5818L224.84 95.2376L224.987 94.9426L225.135 94.6476L225.282 94.3526L225.478 94.0576L225.577 93.7134" stroke="black" stroke-width="1.36" stroke-miterlimit="10" stroke-linecap="round" stroke-linejoin="round"/>
<path d="M127.505 88.2066L127.653 88.4524L127.8 88.7474L127.947 88.9933L128.095 89.2883L128.291 89.5341L128.438 89.78L128.635 90.075L128.782 90.3208L128.979 90.6158L129.175 90.8617L129.372 91.1075L129.568 91.3534L129.764 91.6484L129.961 91.8942L130.206 92.1401L130.403 92.3859L130.648 92.6318L130.845 92.9268L131.09 93.1726L131.336 93.4185L131.581 93.6643L131.827 93.9101L132.073 94.156L132.318 94.4018L132.564 94.6477L132.858 94.8935L133.104 95.0902L133.398 95.336L133.644 95.5819L133.939 95.8277L134.233 96.0736L134.528 96.2702L134.823 96.5161L135.117 96.7619L135.412 96.9586L135.707 97.2044L136.001 97.4011L136.345 97.647L136.64 97.8436L136.983 98.0895L137.278 98.2861L137.622 98.4828L137.966 98.6795L138.309 98.9253L138.653 99.122L138.997 99.3187L139.341 99.5154L139.684 99.712L140.077 99.9087L140.421 100.105L140.765 100.302L141.158 100.499L141.551 100.695L141.894 100.892L142.287 101.089L142.68 101.236L143.073 101.433L143.466 101.63L143.859 101.777L144.252 101.974L144.645 102.121L145.037 102.318L145.43 102.465L145.872 102.613L146.265 102.81L146.707 102.957L147.1 103.105L147.542 103.252L147.984 103.4L148.377 103.547L148.819 103.695L149.261 103.842L149.703 103.99L150.145 104.137L150.587 104.285L151.029 104.432L151.471 104.531L151.913 104.678L152.355 104.826L152.797 104.924L153.288 105.071L153.73 105.17L154.221 105.268L154.663 105.416L155.105 105.514L155.596 105.612L156.087 105.711L156.529 105.809L157.02 105.956L157.511 106.055L157.953 106.104L158.444 106.202L158.935 106.301L159.426 106.399L159.918 106.497L160.359 106.546L160.851 106.645L161.342 106.694L161.833 106.792L162.324 106.841L162.864 106.94L163.355 106.989L163.846 107.038L164.337 107.087L164.828 107.136L165.32 107.186L165.86 107.235L166.351 107.284L166.842 107.333L167.333 107.382L167.873 107.431H168.364L168.855 107.481L169.396 107.53H169.887L170.427 107.579H170.918H171.409L171.949 107.628H172.44H172.981H173.472H174.012H174.503H175.043H175.534L176.074 107.579H176.566H177.106L177.597 107.53H178.137L178.628 107.481H179.168L179.659 107.431L180.151 107.382H180.691L181.182 107.333L181.722 107.284L182.213 107.235L182.753 107.186L183.244 107.136L183.736 107.087L184.276 107.038L184.767 106.94L185.258 106.891L185.798 106.841L186.289 106.743L186.78 106.694L187.321 106.596L187.812 106.546L188.303 106.448L188.794 106.35L189.285 106.251L189.825 106.153L190.316 106.104L190.807 106.006L191.298 105.907L191.789 105.809L192.281 105.661L192.772 105.563L193.263 105.465L193.754 105.366L194.196 105.219L194.687 105.121L195.178 104.973L195.669 104.875L196.111 104.727L196.602 104.629L197.093 104.481L197.535 104.334L198.026 104.186L198.468 104.039L198.959 103.891L199.401 103.744L199.892 103.596L200.334 103.449L200.776 103.301L201.218 103.154L201.66 103.006L202.102 102.81L202.544 102.662L202.986 102.465L203.428 102.318L203.87 102.121L204.312 101.974L204.754 101.777L205.196 101.58L205.589 101.433L206.031 101.236L206.424 101.04L206.866 100.843L207.259 100.646L207.652 100.45L208.094 100.253L208.487 100.056L208.879 99.8595L209.272 99.6629L209.665 99.4662L210.058 99.2203L210.451 99.0237L210.844 98.827L211.188 98.5812L211.581 98.3845L211.973 98.1386L212.317 97.942L212.71 97.6961L213.054 97.4994L213.398 97.2536L213.79 97.0078L214.134 96.8111L214.478 96.5652L214.822 96.3194L215.165 96.0736L215.46 95.8277L215.804 95.5819L216.148 95.336L216.442 95.0902L216.786 94.8443L217.081 94.5985L217.425 94.3527L217.719 94.1068L218.014 93.861L218.308 93.566L218.603 93.3201L218.898 93.0743L219.192 92.8284L219.487 92.5334L219.733 92.2876L220.027 91.9926L220.273 91.7467L220.568 91.4517L220.813 91.2059L221.059 90.9109L221.304 90.665L221.55 90.37L221.795 90.075L222.041 89.8292L222.237 89.5341L222.483 89.2391L222.728 88.9441L222.925 88.6983L223.121 88.4033L223.318 88.1083L223.563 87.8132L223.76 87.5182L223.907 87.2232L224.103 86.9282L224.3 86.6332L224.496 86.3382L224.644 86.0432L224.84 85.7482L224.987 85.4531L225.135 85.1581L225.282 84.8631L225.429 84.5681L225.577 84.2731" stroke="black" stroke-width="1.36" stroke-miterlimit="10" stroke-linecap="round" stroke-linejoin="round"/>
<path d="M139.341 90.0258L139.881 90.3208L140.47 90.665L141.01 90.96L141.6 91.255L142.189 91.5501L142.778 91.7959L143.417 92.0909L144.006 92.3859L144.645 92.6318L145.283 92.9268L145.921 93.1726L146.56 93.4185L147.198 93.6643L147.886 93.9102L148.524 94.156L149.212 94.3527L149.899 94.5985L150.587 94.7952L151.274 94.9919L151.962 95.2377L152.698 95.4344L153.386 95.5819L154.123 95.7786L154.859 95.9752L155.547 96.1228L156.283 96.3194L157.02 96.4669L157.806 96.6144L158.542 96.7619L159.279 96.9095L160.065 97.0078L160.801 97.1553L161.587 97.2536L162.324 97.352L163.11 97.4503L163.895 97.5486L164.681 97.647L165.467 97.7453L166.253 97.7945L167.038 97.8928L167.824 97.942L168.61 97.9912L169.396 98.0403H170.181L171.016 98.0895H171.802L172.588 98.1387H173.423H174.208H174.994H175.829L176.615 98.0895H177.4L178.235 98.0403L179.021 97.9912L179.807 97.942L180.642 97.8928L181.427 97.8437L182.213 97.7453L182.999 97.6962L183.834 97.5978L184.619 97.4995L185.405 97.4011L186.191 97.3028" stroke="black" stroke-width="1.36" stroke-miterlimit="10" stroke-linecap="round" stroke-linejoin="round"/>
<path d="M174.056 142.405C194.661 142.986 213.845 136.336 222.676 125.553" stroke="black" stroke-width="1.36" stroke-miterlimit="10" stroke-linecap="round" stroke-linejoin="round"/>
<path d="M171.065 94.9426H170.378L169.69 94.8935L169.003 94.8443L168.364 94.7951H167.677L166.989 94.746L166.351 94.6476L165.663 94.5985L164.976 94.5493L164.337 94.5001L163.65 94.4018L163.011 94.3034L162.324 94.2543L161.685 94.1559L160.998 94.0576L160.359 93.9593L159.721 93.8609L159.083 93.7626L158.444 93.6151L157.806 93.5168L157.167 93.4184L156.529 93.2709L155.891 93.1234L155.252 93.0251L154.614 92.8776L154.024 92.7301L153.386 92.5826L152.797 92.3859L152.158 92.2384L151.569 92.0909L150.93 91.8942L150.341 91.7467" stroke="black" stroke-width="1.36" stroke-miterlimit="10" stroke-linecap="round" stroke-linejoin="round"/>
<path d="M227.394 81.6672L227.197 81.9622L227.001 82.2573L226.853 82.5523L226.657 82.8473L226.461 83.1423L226.215 83.3881L226.019 83.6831L225.822 83.9782L225.626 84.2732L225.38 84.5682L225.184 84.8632L224.938 85.109L224.693 85.404L224.447 85.6991L224.251 85.9449L224.005 86.2399L223.76 86.4858L223.465 86.7808L223.219 87.0758L222.974 87.3216L222.728 87.5675L222.434 87.8625L222.188 88.1083L221.893 88.4033L221.648 88.6492L221.353 88.895L220.764 89.4359L220.175 89.9276L219.585 90.4192L218.996 90.9109L218.701 91.1568L218.358 91.4026L218.063 91.6485L217.719 91.8943L217.424 92.1401L217.081 92.3368L216.737 92.5827L216.442 92.8285L216.098 93.0252L215.755 93.271L215.411 93.4677L215.067 93.7135L214.723 93.9102L214.38 94.156L213.987 94.3527L213.643 94.5986L212.906 94.9919L212.17 95.4344L211.433 95.8278L210.696 96.2211L209.911 96.6145L209.125 97.0078L208.339 97.352L207.553 97.7454L206.719 98.0895L206.326 98.2862L205.933 98.4337L205.491 98.6304L205.098 98.7779L204.656 98.9254L204.263 99.1221L203.821 99.2696L203.428 99.4171L202.986 99.5646L202.544 99.7121L202.151 99.9088L201.709 100.056L201.267 100.204L200.825 100.302L200.384 100.45L199.942 100.597L199.5 100.745L199.058 100.892L198.616 100.99L198.174 101.138L197.732 101.285L197.29 101.384L196.848 101.531L196.357 101.63L195.915 101.777L195.473 101.876L194.981 101.974L194.54 102.121L194.098 102.22L193.606 102.318L193.164 102.416L192.673 102.515L192.231 102.613L191.74 102.711L191.298 102.81L190.807 102.908L190.316 103.006L189.874 103.056L189.383 103.154L188.892 103.252L188.45 103.301L187.959 103.4L187.468 103.449L187.026 103.547L186.535 103.596L186.044 103.695L185.553 103.744L185.111 103.793L184.619 103.842L184.128 103.891L183.637 103.941L183.146 103.99L182.704 104.039L182.213 104.088L181.722 104.137L181.231 104.186L180.74 104.236H180.249L179.758 104.285L179.267 104.334H178.775L178.284 104.383H177.793L177.302 104.432H176.811H176.32H175.878L175.387 104.481H174.896H174.405H173.914H173.423H172.931H172.44L171.949 104.432H171.458H170.967H170.476L170.034 104.383H169.543L169.052 104.334H168.561L168.07 104.285L167.628 104.236H167.137L166.645 104.186L166.154 104.137L165.712 104.088L165.221 104.039L164.73 103.99L164.239 103.941L163.797 103.891L163.306 103.842L162.864 103.793L162.373 103.744L161.882 103.646L161.44 103.596L160.949 103.547L160.507 103.449L160.016 103.4L159.574 103.301L159.083 103.252L158.641 103.154L158.15 103.056L157.708 103.006L157.266 102.908L156.824 102.81L156.332 102.711L155.891 102.613L155.449 102.515L155.007 102.416L154.565 102.318L154.123 102.22L153.681 102.121L153.239 102.023L152.797 101.876L152.355 101.777L151.913 101.679L151.471 101.531L151.029 101.433L150.636 101.285L150.194 101.187L149.752 101.04L149.359 100.941L148.917 100.794L148.475 100.646L148.082 100.499L147.689 100.351L146.854 100.105L146.02 99.8104L145.234 99.4663L144.448 99.1712L143.662 98.8762L142.877 98.5321L142.091 98.1879L141.354 97.8437L140.618 97.4995L140.225 97.3028L139.881 97.1062L139.537 96.9587L139.144 96.762L138.8 96.5653L138.457 96.3686L138.113 96.172L137.769 95.9753L137.425 95.7786L137.082 95.5819L136.738 95.3853L136.394 95.1886L136.099 94.9919L135.756 94.7952L135.117 94.3527L134.479 93.9594L133.84 93.5169L133.251 93.0743L132.662 92.6318L132.073 92.1401L131.532 91.6976L130.943 91.2059L130.697 91.0093L130.403 90.7634L130.157 90.5176L129.912 90.2717L129.666 90.0259L129.371 89.78L129.126 89.5342L128.88 89.2884L128.684 89.0425L128.438 88.7967L128.193 88.5017L127.947 88.2558" stroke="black" stroke-width="1.36" stroke-miterlimit="10" stroke-linecap="round" stroke-linejoin="round"/>
<path d="M231.028 79.5529V79.9462L230.979 80.3888L230.929 80.7821L230.88 81.2246L230.831 81.6671L230.782 82.0605L230.733 82.503L230.635 82.8964L230.537 83.3389L230.438 83.7322L230.34 84.1256L230.242 84.5681L230.144 84.9614L229.996 85.404L229.898 85.7973L229.751 86.1907L229.604 86.584L229.456 87.0265L229.26 87.4199L229.112 87.8132L228.916 88.2066L228.769 88.5999L228.572 88.9933L228.376 89.3866L228.179 89.78L227.934 90.1733L227.737 90.5667L227.492 90.96L227.246 91.3534L227.001 91.6975L226.755 92.0909L226.51 92.4842L226.264 92.8284L226.019 93.2218L225.724 93.6151L225.429 93.9593L225.135 94.3527L224.84 94.6968L224.545 95.041L224.251 95.3852L223.956 95.7785L223.612 96.1227L223.318 96.4669L222.974 96.8111L222.63 97.1553L222.286 97.4994L221.943 97.8436L221.599 98.1878L221.255 98.4828L220.862 98.827L220.518 99.1712L220.125 99.4662L219.733 99.8104L219.34 100.105L218.947 100.45L218.554 100.745L218.161 101.04L217.719 101.384L217.326 101.679L216.884 101.974L216.442 102.269L216.049 102.564L215.607 102.859L215.165 103.154L214.723 103.4L214.232 103.695L213.79 103.99L213.348 104.236L212.857 104.531L212.415 104.776L211.924 105.071L211.433 105.317L210.942 105.563L210.451 105.809L209.96 106.055L209.469 106.301L208.978 106.546L208.487 106.792L207.946 107.038L207.455 107.284L206.915 107.481L206.375 107.727L205.884 107.923L205.344 108.169L204.803 108.366L204.263 108.612L203.723 108.808L203.183 109.005L202.593 109.202L202.053 109.398L201.513 109.595L200.924 109.792L200.384 109.939L199.794 110.136L199.254 110.332L198.665 110.48L198.075 110.627L197.535 110.824L196.946 110.972L196.357 111.119L195.767 111.267L195.178 111.414L194.589 111.562L193.999 111.709L193.41 111.857L192.821 111.955L192.231 112.103L191.593 112.201L191.004 112.348L190.414 112.447L189.776 112.545L189.187 112.693L188.548 112.791L187.959 112.889L187.32 112.988L186.731 113.037L186.093 113.135L185.503 113.233L184.865 113.283L184.227 113.381L183.637 113.43L182.999 113.528L182.36 113.578L181.771 113.627L181.133 113.676L180.494 113.725L179.905 113.774L179.267 113.823H178.628L177.99 113.873H177.4L176.762 113.922H176.124H175.485L174.896 113.971H174.257H173.619H172.981L172.342 113.922H171.753H171.114L170.476 113.873H169.838L169.248 113.823H168.61L167.971 113.774L167.382 113.725L166.744 113.676L166.154 113.627L165.516 113.578L164.927 113.528L164.288 113.43L163.699 113.381L163.061 113.332L162.471 113.233L161.882 113.135L161.293 113.086L160.654 112.988L160.065 112.889L159.476 112.791L158.886 112.693L158.297 112.594L157.708 112.496L157.118 112.348L156.529 112.25L155.94 112.103L155.35 112.004L154.81 111.857L154.221 111.709L153.632 111.611L153.091 111.463L152.502 111.316L151.962 111.168L151.373 111.021L150.832 110.824L150.292 110.677L149.752 110.529L149.163 110.332L148.622 110.185L148.131 109.988L147.591 109.841L147.051 109.644L146.511 109.447L146.02 109.251L145.479 109.054L144.988 108.857L144.448 108.661L143.957 108.464L143.466 108.267L142.975 108.071L142.484 107.825L141.993 107.628L141.502 107.382L141.01 107.186L140.519 106.94L140.077 106.694L139.586 106.448L139.144 106.251L138.702 106.006L138.211 105.76L137.769 105.465L137.327 105.219L136.885 104.973L136.492 104.727L136.05 104.481L135.608 104.186L135.216 103.941L134.823 103.646L134.381 103.4L133.988 103.105L133.595 102.81L133.251 102.515L132.858 102.269L132.465 101.974L132.122 101.679L131.729 101.384L131.385 101.089L131.041 100.794L130.698 100.45L130.354 100.155L130.01 99.8595L129.666 99.5154L129.372 99.2204L129.028 98.8762L128.733 98.5812L128.389 98.237L128.095 97.942L127.8 97.5978L127.555 97.2536L127.26 96.9094L126.965 96.5652L126.72 96.2211L126.474 95.8769L126.229 95.5327L125.983 95.1885L125.737 94.8443L125.492 94.5002L125.246 94.156L125.05 93.8118L124.854 93.4184L124.657 93.0743L124.461 92.7301L124.264 92.3367L124.068 91.9926L123.92 91.5992L123.724 91.255L123.577 90.8617L123.429 90.4683L123.282 90.1241L123.135 89.7308L122.987 89.3374L122.889 88.9441L122.791 88.5999L122.644 88.2066L122.545 87.8132L122.496 87.4199" stroke="black" stroke-width="1.36" stroke-miterlimit="10" stroke-linecap="round" stroke-linejoin="round"/>
<path d="M230.537 83.2897L230.635 83.7814L230.733 84.2731L230.831 84.7156L230.88 85.2073L230.929 85.699L230.979 86.1907L231.028 86.6823V87.1249L231.077 87.6166V88.1082V88.5999L231.028 89.0916V89.5341L230.979 90.0258L230.929 90.5175L230.88 90.96L230.782 91.4517L230.733 91.9434L230.635 92.4351L230.537 92.8776L230.438 93.3693L230.291 93.8118L230.193 94.3035L230.045 94.7952L229.898 95.2377L229.702 95.7294L229.554 96.1719L229.358 96.6144L229.211 97.1061L229.014 97.5486L228.769 97.9912L228.572 98.4828L228.327 98.9254L228.13 99.3679L227.885 99.8104L227.59 100.253L227.344 100.695L227.099 101.138L226.804 101.531L226.51 101.974L226.215 102.416L225.92 102.81L225.577 103.252L225.282 103.646L224.938 104.088L224.594 104.481L224.251 104.924L223.907 105.317L223.514 105.711L223.17 106.104L222.777 106.497L222.384 106.891L221.992 107.284L221.599 107.677L221.157 108.071L220.764 108.415L220.322 108.808L219.88 109.152L219.438 109.546L218.996 109.89L218.554 110.234L218.063 110.578L217.621 110.923L217.13 111.267L216.639 111.611L216.148 111.955L215.656 112.299L215.165 112.643L214.625 112.938L214.134 113.283L213.594 113.578L213.054 113.922L212.513 114.217L211.973 114.512L211.433 114.807L210.844 115.102L210.304 115.397L209.763 115.692L209.174 115.938L208.585 116.233L207.995 116.479L207.406 116.774L206.817 117.019L206.227 117.265L205.638 117.511L205 117.757L204.41 118.003L203.772 118.249L203.183 118.495L202.544 118.691L201.906 118.937L201.267 119.134L200.629 119.38L199.991 119.576L199.352 119.773L198.665 119.97L198.026 120.166L197.339 120.363L196.7 120.51L196.013 120.707L195.374 120.855L194.687 121.051L193.999 121.199L193.312 121.346L192.624 121.494L191.937 121.641L191.249 121.789L190.562 121.887L189.874 122.035L189.187 122.182L188.499 122.281L187.812 122.379L187.075 122.477L186.387 122.576L185.7 122.674L184.963 122.772L184.276 122.871L183.539 122.92L182.851 123.018L182.115 123.067L181.427 123.116L180.691 123.215L180.003 123.264H179.267L178.53 123.313L177.842 123.362L177.106 123.411H176.418H175.682L174.945 123.461H174.257H173.521H172.833L172.097 123.411H171.409L170.672 123.362H169.985L169.248 123.313L168.561 123.264H167.873L167.137 123.166L166.449 123.116L165.712 123.067L165.025 123.018L164.337 122.92L163.65 122.871L162.913 122.772L162.226 122.674L161.538 122.576L160.851 122.477L160.163 122.379L159.475 122.281L158.837 122.182L158.15 122.035L157.462 121.936L156.824 121.789L156.136 121.641L155.498 121.494L154.81 121.346L154.172 121.199L153.533 121.051L152.895 120.904L152.207 120.707L151.569 120.56L150.98 120.363L150.341 120.166L149.703 120.019L149.064 119.822L148.475 119.625L147.837 119.38L147.247 119.183L146.658 118.986L146.02 118.79L145.43 118.544L144.841 118.298L144.252 118.101L143.711 117.855L143.122 117.609L142.582 117.364L141.993 117.118L141.452 116.872L140.912 116.626L140.372 116.331L139.832 116.085L139.292 115.79L138.8 115.544L138.26 115.249L137.769 114.954L137.278 114.659L136.787 114.364L136.296 114.069L135.805 113.774L135.314 113.479L134.872 113.184L134.381 112.84L133.939 112.545L133.497 112.201L133.055 111.857L132.613 111.562L132.171 111.218L131.778 110.873L131.336 110.529L130.943 110.185L130.55 109.841L130.157 109.497L129.813 109.152L129.421 108.759L129.077 108.415L128.733 108.071L128.34 107.677L128.046 107.284L127.702 106.94L127.358 106.547L127.063 106.153L126.769 105.76L126.474 105.366L126.179 104.973L125.885 104.58L125.639 104.186L125.345 103.793L125.099 103.351L124.853 102.957L124.608 102.564L124.411 102.121L124.166 101.728L123.969 101.285L123.773 100.892L123.626 100.45L123.429 100.007L123.282 99.6137L123.135 99.1712L122.987 98.7287L122.84 98.2862L122.693 97.8437L122.594 97.4011L122.496 96.9586L122.398 96.5161L122.3 96.0736L122.251 95.6311L122.202 95.1885L122.152 94.746L122.103 94.3035L122.054 93.8118V93.3693L122.005 92.9268V92.4843L122.054 92.0417V91.5992L122.103 91.1567L122.152 90.665L122.202 90.2225L122.251 89.78L122.349 89.3375L122.398 88.8949L122.496 88.4524L122.644 88.0099" stroke="black" stroke-width="1.36" stroke-miterlimit="10" stroke-linecap="round" stroke-linejoin="round"/>
<path d="M230.537 92.7792L230.635 93.2709L230.733 93.7134L230.831 94.2051L230.88 94.6968L230.929 95.1884L230.979 95.631L231.028 96.1226V96.6143V97.106L231.077 97.5977L231.028 98.0402V98.5319V99.0236L230.979 99.5153L230.929 100.007L230.88 100.449L230.782 100.941L230.733 101.433L230.635 101.875L230.537 102.367L230.438 102.859L230.291 103.301L230.193 103.793L230.045 104.235L229.898 104.727L229.751 105.17L229.554 105.661L229.407 106.104L229.211 106.546L229.014 107.038L228.769 107.481L228.572 107.923L228.327 108.366L228.13 108.808L227.885 109.3L227.639 109.742L227.344 110.136L227.099 110.578L226.804 111.021L226.51 111.463L226.215 111.906L225.92 112.299L225.577 112.742L225.282 113.135L224.938 113.578L224.594 113.971L224.251 114.364L223.907 114.807L223.514 115.2L223.17 115.593L222.777 115.987L222.384 116.38L221.992 116.773L221.599 117.118L221.157 117.511L220.764 117.904L220.322 118.249L219.88 118.642L219.438 118.986L218.996 119.379L218.554 119.724L218.063 120.068L217.621 120.412L217.13 120.756L216.639 121.1L216.148 121.444L215.656 121.789L215.165 122.084L214.625 122.428L214.134 122.723L213.594 123.067L213.054 123.362L212.563 123.657L211.973 124.001L211.433 124.296L210.893 124.591L210.353 124.837L209.763 125.132L209.174 125.427L208.634 125.722L208.045 125.968L207.455 126.214L206.866 126.509L206.227 126.755L205.638 127.001L205.049 127.246L204.41 127.492L203.821 127.738L203.183 127.984L202.544 128.181L201.906 128.426L201.267 128.623L200.629 128.82L199.991 129.066L199.352 129.262L198.714 129.459L198.026 129.656L197.388 129.803L196.7 130L196.062 130.197L195.374 130.344L194.687 130.492L194.048 130.688L193.361 130.836L192.673 130.983L191.986 131.131L191.298 131.278L190.611 131.377L189.874 131.524L189.187 131.622L188.499 131.77L187.812 131.868L187.124 131.967L186.387 132.065L185.7 132.163L185.012 132.262L184.276 132.36L183.588 132.409L182.851 132.507L182.164 132.557L181.427 132.606L180.74 132.655L180.003 132.704L179.316 132.753L178.579 132.802L177.891 132.852H177.155L176.418 132.901H175.731H174.994L174.257 132.95H173.57L172.833 132.901H172.146H171.409L170.722 132.852H169.985L169.297 132.802L168.561 132.753L167.873 132.704L167.186 132.655L166.449 132.606L165.761 132.557L165.074 132.507L164.386 132.409L163.65 132.36L162.962 132.262L162.275 132.163L161.587 132.065L160.9 131.967L160.212 131.868L159.525 131.77L158.837 131.672L158.199 131.524L157.511 131.377L156.824 131.278L156.185 131.131L155.498 130.983L154.859 130.836L154.172 130.688L153.533 130.541L152.895 130.393L152.256 130.197L151.618 130.049L150.98 129.852L150.341 129.656L149.703 129.508L149.113 129.311L148.475 129.115L147.886 128.918L147.247 128.672L146.658 128.476L146.069 128.279L145.479 128.033L144.89 127.836L144.301 127.591L143.711 127.345L143.171 127.099L142.582 126.853L142.042 126.607L141.502 126.361L140.912 126.116L140.372 125.82L139.832 125.575L139.341 125.28L138.8 125.034L138.309 124.739L137.769 124.444L137.278 124.149L136.787 123.854L136.296 123.559L135.805 123.264L135.363 122.969L134.872 122.674L134.43 122.33L133.939 122.035L133.497 121.69L133.055 121.395L132.613 121.051L132.22 120.707L131.778 120.363L131.385 120.019L130.992 119.674L130.599 119.33L130.206 118.986L129.813 118.642L129.421 118.249L129.077 117.904L128.733 117.56L128.389 117.167L128.046 116.823L127.702 116.429L127.358 116.036L127.063 115.643L126.769 115.249L126.474 114.905L126.179 114.512L125.885 114.069L125.639 113.676L125.394 113.282L125.099 112.889L124.903 112.447L124.657 112.053L124.411 111.66L124.215 111.217L124.019 110.775L123.822 110.382L123.626 109.939L123.429 109.497L123.282 109.103L123.135 108.661L122.987 108.218L122.84 107.776L122.693 107.333L122.594 106.891L122.496 106.448L122.398 106.006L122.3 105.563L122.251 105.121L122.152 104.678L122.103 104.235V103.793L122.054 103.35V102.908L122.005 102.465V102.023L122.054 101.531V101.089L122.103 100.646L122.152 100.204L122.202 99.7611L122.251 99.3186L122.349 98.8761L122.398 98.4336L122.496 97.9911L122.644 97.5485" stroke="black" stroke-width="1.36" stroke-miterlimit="10" stroke-linecap="round" stroke-linejoin="round"/>
<path d="M230.537 102.269L230.635 102.76L230.733 103.252L230.831 103.695L230.88 104.186L230.929 104.678L230.979 105.17L231.028 105.661V106.104L231.077 106.596V107.087V107.579L231.028 108.021V108.513L230.979 109.005L230.929 109.497L230.88 109.939L230.782 110.431L230.733 110.922L230.635 111.365L230.537 111.857L230.438 112.348L230.291 112.791L230.193 113.283L230.045 113.774L229.898 114.217L229.702 114.708L229.554 115.151L229.358 115.593L229.211 116.085L228.965 116.528L228.769 116.97L228.572 117.462L228.327 117.904L228.13 118.347L227.885 118.789L227.59 119.232L227.344 119.674L227.099 120.068L226.804 120.51L226.51 120.953L226.215 121.395L225.92 121.789L225.577 122.231L225.282 122.625L224.938 123.067L224.594 123.46L224.251 123.903L223.858 124.296L223.514 124.69L223.121 125.083L222.777 125.476L222.384 125.87L221.992 126.263L221.55 126.656L221.157 127.001L220.715 127.394L220.322 127.787L219.88 128.131L219.438 128.476L218.996 128.869L218.554 129.213L218.063 129.557L217.621 129.902L217.13 130.246L216.639 130.59L216.148 130.934L215.656 131.278L215.116 131.573L214.625 131.917L214.085 132.262L213.594 132.557L213.054 132.852L212.513 133.196L211.973 133.491L211.433 133.786L210.844 134.081L210.304 134.376L209.714 134.622L209.174 134.917L208.585 135.212L207.995 135.458L207.406 135.753L206.817 135.998L206.227 136.244L205.638 136.49L205 136.736L204.41 136.982L203.772 137.228L203.183 137.474L202.544 137.67L201.906 137.916L201.267 138.113L200.629 138.309L199.991 138.555L199.303 138.752L198.665 138.949L198.026 139.145L197.339 139.293L196.7 139.489L196.013 139.686L195.325 139.834L194.687 139.981L193.999 140.178L193.312 140.325L192.624 140.473L191.937 140.62L191.249 140.768L190.562 140.866L189.874 141.014L189.187 141.112L188.499 141.26L187.812 141.358L187.075 141.456L186.387 141.555L185.7 141.653L184.963 141.751L184.276 141.85L183.539 141.899L182.851 141.997L182.115 142.046L181.427 142.095L180.691 142.145L180.003 142.194L179.267 142.243L178.53 142.292L177.842 142.341H177.106L176.418 142.39H175.682H174.945H174.257H173.521H172.833H172.097H171.409L170.672 142.341H169.985L169.297 142.292L168.561 142.243L167.873 142.194L167.137 142.145L166.449 142.095L165.761 142.046L165.025 141.997L164.337 141.899L163.65 141.8L162.962 141.751L162.226 141.653L161.538 141.555L160.851 141.456L160.163 141.358L159.525 141.26L158.837 141.112L158.15 141.014L157.462 140.866L156.824 140.768L156.136 140.62L155.498 140.473L154.81 140.325L154.172 140.178L153.533 140.03L152.895 139.834L152.256 139.686L151.618 139.539L150.98 139.342L150.341 139.145L149.703 138.949L149.064 138.752L148.475 138.555L147.837 138.359L147.247 138.162L146.658 137.965L146.02 137.719L145.43 137.523L144.841 137.277L144.301 137.08L143.711 136.834L143.122 136.588L142.582 136.343L141.993 136.097L141.452 135.851L140.912 135.556L140.372 135.31L139.832 135.064L139.341 134.769L138.8 134.523L138.309 134.228L137.769 133.933L137.278 133.638L136.787 133.343L136.296 133.048L135.805 132.753L135.314 132.458L134.872 132.114L134.381 131.819L133.939 131.524L133.497 131.18L133.055 130.836L132.613 130.541L132.171 130.197L131.778 129.852L131.385 129.508L130.943 129.164L130.55 128.82L130.157 128.476L129.813 128.131L129.421 127.738L129.077 127.394L128.733 127.001L128.389 126.656L128.046 126.263L127.702 125.919L127.358 125.526L127.063 125.132L126.769 124.739L126.474 124.345L126.179 123.952L125.885 123.559L125.639 123.165L125.345 122.772L125.099 122.33L124.853 121.936L124.657 121.543L124.411 121.1L124.215 120.707L123.969 120.264L123.773 119.871L123.626 119.429L123.429 118.986L123.282 118.544L123.135 118.15L122.987 117.708L122.84 117.265L122.693 116.823L122.594 116.38L122.496 115.938L122.398 115.495L122.3 115.053L122.251 114.61L122.202 114.168L122.152 113.725L122.103 113.283L122.054 112.84V112.348L122.005 111.906V111.463L122.054 111.021V110.578L122.103 110.136L122.152 109.644L122.202 109.202L122.251 108.759L122.349 108.317L122.398 107.874L122.496 107.431L122.644 106.989" stroke="black" stroke-width="1.36" stroke-miterlimit="10" stroke-linecap="round" stroke-linejoin="round"/>
<path d="M223.317 332.476L225.773 333.902" stroke="black" stroke-width="1.36" stroke-miterlimit="10" stroke-linecap="round" stroke-linejoin="round"/>
<path d="M220.027 334.394L222.483 335.82" stroke="black" stroke-width="1.36" stroke-miterlimit="10" stroke-linecap="round" stroke-linejoin="round"/>
<path d="M127.309 333.902L129.764 332.476" stroke="black" stroke-width="1.36" stroke-miterlimit="10" stroke-linecap="round" stroke-linejoin="round"/>
<path d="M130.599 335.82L133.055 334.394" stroke="black" stroke-width="1.36" stroke-miterlimit="10" stroke-linecap="round" stroke-linejoin="round"/>
<path d="M225.773 333.902L176.565 362.371L127.309 333.902" stroke="black" stroke-width="1.36" stroke-miterlimit="10" stroke-linecap="round" stroke-linejoin="round"/>
<path d="M55.1183 328.248L61.6989 324.413V313.055L53.4977 308.334" stroke="black" stroke-width="1.36" stroke-miterlimit="10" stroke-linecap="round" stroke-linejoin="round"/>
<path d="M53.4977 327.265V317.775L61.6989 313.055" stroke="black" stroke-width="1.36" stroke-miterlimit="10" stroke-linecap="round" stroke-linejoin="round"/>
<path d="M45.2965 322.544V313.055L53.4977 317.775" stroke="black" stroke-width="1.36" stroke-miterlimit="10" stroke-linecap="round" stroke-linejoin="round"/>
<path d="M53.4977 308.335L45.2965 313.055" stroke="black" stroke-width="1.36" stroke-miterlimit="10" stroke-linecap="round" stroke-linejoin="round"/>
<path d="M296.294 290.29L329.934 309.711" stroke="black" stroke-width="1.36" stroke-miterlimit="10" stroke-linecap="round" stroke-linejoin="round"/>
<path d="M276.601 301.697L310.241 321.118" stroke="black" stroke-width="1.36" stroke-miterlimit="10" stroke-linecap="round" stroke-linejoin="round"/>
<path d="M23.1482 309.711L56.788 290.29" stroke="black" stroke-width="1.36" stroke-miterlimit="10" stroke-linecap="round" stroke-linejoin="round"/>
<path d="M42.841 321.118L45.2965 319.693" stroke="black" stroke-width="1.36" stroke-miterlimit="10" stroke-linecap="round" stroke-linejoin="round"/>
<path d="M59.2436 311.629L76.4809 301.697" stroke="black" stroke-width="1.36" stroke-miterlimit="10" stroke-linecap="round" stroke-linejoin="round"/>
<path d="M352.082 321.61L176.516 423.045V434.452L12.4915 339.606V328.248" stroke="black" stroke-width="1.36" stroke-miterlimit="10" stroke-linecap="round" stroke-linejoin="round"/>
<path d="M0.999969 321.61L176.516 423.045" stroke="black" stroke-width="1.36" stroke-miterlimit="10" stroke-linecap="round" stroke-linejoin="round"/>
<path d="M176.516 434.452L340.59 339.606V328.248" stroke="black" stroke-width="1.36" stroke-miterlimit="10" stroke-linecap="round" stroke-linejoin="round"/>
<path d="M176.516 423.045V404.115L352.082 302.631V321.61" stroke="black" stroke-width="1.36" stroke-miterlimit="10" stroke-linecap="round" stroke-linejoin="round"/>
<path d="M352.082 302.631L313.531 280.358" stroke="black" stroke-width="1.36" stroke-miterlimit="10" stroke-linecap="round" stroke-linejoin="round"/>
<path d="M301.205 287.438L334.845 306.909" stroke="black" stroke-width="1.36" stroke-miterlimit="10" stroke-linecap="round" stroke-linejoin="round"/>
<path d="M18.2373 306.909L51.8772 287.438" stroke="black" stroke-width="1.36" stroke-miterlimit="10" stroke-linecap="round" stroke-linejoin="round"/>
<path d="M176.516 398.411L10.8218 302.631L44.4616 283.16" stroke="black" stroke-width="1.36" stroke-miterlimit="10" stroke-linecap="round" stroke-linejoin="round"/>
<path d="M308.62 283.16L342.26 302.631L176.516 398.411" stroke="black" stroke-width="1.36" stroke-miterlimit="10" stroke-linecap="round" stroke-linejoin="round"/>
<path d="M39.5508 280.358L0.999969 302.631V321.61" stroke="black" stroke-width="1.36" stroke-miterlimit="10" stroke-linecap="round" stroke-linejoin="round"/>
<path d="M0.999969 302.631L176.516 404.115" stroke="black" stroke-width="1.36" stroke-miterlimit="10" stroke-linecap="round" stroke-linejoin="round"/>
</svg>
