<svg width="465" height="27" viewBox="0 0 465 27" fill="none" xmlns="http://www.w3.org/2000/svg">
<path d="M0.664598 13.9518C0.869198 13.7166 1.25131 13.9588 1.25131 14.3236C1.25131 14.7187 1.30241 14.7152 1.77551 14.2871C2.197 13.9056 2.37619 13.8761 2.68997 14.1365C2.9046 14.3146 3.23051 14.3675 3.4142 14.254C3.78721 14.0234 6.14645 14.0375 6.5267 14.2725C6.66106 14.3555 6.84935 14.2967 6.94512 14.1417C7.06419 13.9491 7.25092 13.9686 7.5356 14.2035C7.86512 14.4755 7.97516 14.4781 8.06326 14.2164C8.29373 13.5317 8.66054 13.9229 8.68351 14.8779L8.70741 15.8701L8.96168 14.9871C9.12436 14.4221 9.34242 14.1526 9.56704 14.2388C9.76013 14.3129 10.0567 14.2348 10.226 14.0657C10.5903 13.7014 11.0179 14.2215 11.057 15.0763C11.0735 15.438 11.1941 15.3124 11.4378 14.6795C11.634 14.1701 11.8035 13.8725 11.8146 14.018C11.8257 14.1635 12.1323 14.2826 12.4961 14.2826C12.8599 14.2826 13.1695 14.1635 13.184 14.018C13.1985 13.8725 13.3057 14.0511 13.4222 14.4149C13.6312 15.0674 13.6344 15.0681 13.6604 14.4654C13.6953 13.6566 14.2159 13.9958 14.2159 14.8273C14.2159 15.1825 14.335 15.4732 14.4805 15.4732C14.626 15.4732 14.7451 15.115 14.7451 14.6772C14.7451 13.9443 14.7877 13.9076 15.2824 14.2142C15.644 14.4383 15.8818 14.4577 16.01 14.2736C16.2827 13.8819 16.8394 13.952 17.132 14.4148C17.2699 14.6331 17.393 14.6926 17.4055 14.5471C17.418 14.4015 17.5257 14.5206 17.645 14.8117C17.8468 15.3042 17.882 15.2897 18.153 14.6026C18.41 13.9512 18.5108 13.8999 19.0096 14.1669C19.3205 14.3333 19.6491 14.3678 19.7397 14.2437C19.9555 13.948 21.6494 13.9676 22.1378 14.2714C22.3838 14.4243 22.5559 14.398 22.6229 14.1971C22.7753 13.7397 23.3937 13.8177 23.5859 14.3185C23.7389 14.7173 23.7892 14.7177 24.2244 14.3235C24.651 13.9374 24.7531 13.9354 25.2772 14.3025C25.8019 14.67 25.8576 14.6686 25.8576 14.2878C25.8576 13.9585 25.9654 13.9243 26.352 14.1312C26.6239 14.2767 26.8945 14.3477 26.9533 14.2889C27.012 14.2301 27.3811 14.1238 27.7734 14.0527C28.4218 13.9351 28.5013 14.0117 28.649 14.8965C28.9022 16.4143 28.9891 16.4942 29.0117 15.2302C29.0232 14.5875 29.1109 14.14 29.2067 14.2357C29.3024 14.3315 29.5406 14.2772 29.7359 14.1152C29.9312 13.9531 30.0909 13.9282 30.0909 14.0598C30.0909 14.4859 31.4231 14.4337 31.5891 14.001C31.723 13.652 31.8333 13.6739 32.3399 14.1498C32.8067 14.5883 32.964 14.6288 33.0753 14.3388C33.1837 14.0562 34.4566 13.8934 34.4566 14.1621C34.4566 14.1932 34.7542 14.2369 35.118 14.2593C35.4818 14.2816 35.9283 14.3922 36.1102 14.505C36.3211 14.6359 36.4409 14.5607 36.4409 14.2977C36.4409 13.8084 36.7445 13.7655 37.1731 14.1941C37.4085 14.4295 37.5233 14.3951 37.6558 14.0498C37.8136 13.6385 37.8645 13.6466 38.2086 14.1379C38.654 14.7738 39.0868 14.8448 39.0868 14.2821C39.0868 13.7996 39.3963 13.7715 39.8386 14.2138C40.1003 14.4754 40.2229 14.4619 40.4408 14.1477C40.6542 13.84 40.7449 13.8283 40.8524 14.0948C40.9583 14.3572 41.0765 14.365 41.3615 14.1285C41.6601 13.8806 41.7326 13.9301 41.7326 14.382C41.7326 14.6909 41.8517 14.9436 41.9972 14.9436C42.1427 14.9436 42.2618 14.765 42.2618 14.5467C42.2618 14.3284 42.3808 14.1498 42.5264 14.1498C42.6719 14.1498 42.7909 14.3842 42.7909 14.6707C42.7909 15.025 42.9179 15.1428 43.1878 15.0392C43.4061 14.9554 43.5847 14.7211 43.5847 14.5184C43.5847 14.3157 43.674 14.138 43.7831 14.1236C44.9536 13.9688 45.4865 14.0232 45.7352 14.3229C46.1418 14.8128 46.4951 14.7692 46.4951 14.2292C46.4951 13.6646 46.9235 14.0767 47.1002 14.8113C47.1897 15.1834 47.2378 15.1048 47.2622 14.5467C47.2878 13.9612 47.36 13.8526 47.5373 14.1328C47.73 14.4373 47.8557 14.4479 48.1712 14.1861C48.4512 13.9537 48.6164 13.9433 48.7441 14.1498C48.8735 14.3591 49.0245 14.3562 49.2859 14.1393C49.6578 13.8306 49.6457 13.8067 50.026 15.605C50.1074 15.9901 50.1462 15.9386 50.1686 15.4159C50.2134 14.3677 51.7868 13.6083 51.7868 14.6349C51.7868 14.9017 51.9654 15.1199 52.1836 15.1199C52.433 15.1199 52.582 14.8658 52.5846 14.4364C52.5917 13.2406 53.0961 14.4053 53.148 15.7373C53.1891 16.7939 53.2068 16.8256 53.3047 16.0193C53.386 15.3498 53.4783 15.2105 53.6552 15.4901C53.8367 15.7769 53.8973 15.708 53.9034 15.2081C53.9241 13.5223 54.826 13.5506 55.2277 15.2497L55.4368 16.1341L55.4639 15.0097C55.4943 13.7457 55.624 13.6526 56.288 14.4181C56.7493 14.9501 56.7505 14.9499 56.9199 14.352L57.0897 13.7529L57.4407 14.3793C57.7152 14.869 57.8249 14.9191 57.9439 14.6092C58.1314 14.1204 60.2513 14.0177 60.2575 14.4971C60.2602 14.7059 60.3378 14.6908 60.489 14.4522C60.7324 14.0681 61.8409 14.2618 61.8409 14.6885C61.8409 14.8196 62.0195 14.8584 62.2378 14.7747C62.4561 14.6909 62.6347 14.4338 62.6347 14.2032C62.6347 13.8646 62.7077 13.8827 63.0152 14.2977C63.3882 14.8012 63.403 14.8015 63.7675 14.3096C64.107 13.8515 64.1542 13.9319 64.3107 15.2357C64.405 16.0209 64.485 17.1396 64.4885 17.7217C64.4932 18.503 64.562 18.6762 64.7514 18.3832C64.8924 18.1649 65.0097 17.5975 65.0119 17.1223C65.014 16.647 65.1648 15.7761 65.3467 15.1869C65.6408 14.234 65.7505 14.1325 66.3389 14.2686C67.6261 14.5664 68.2053 14.6052 68.3307 14.4023C68.4005 14.2894 68.6655 14.2283 68.9196 14.2665C69.1737 14.3047 69.6969 14.2463 70.0824 14.1368C70.5057 14.0164 70.8986 14.053 71.0746 14.2289C71.2867 14.441 71.3682 14.4158 71.3744 14.1366C71.3808 13.8464 71.4717 13.8702 71.7477 14.2344C72.1007 14.7 72.1222 14.7 72.4007 14.2344C72.6725 13.78 72.7186 13.7881 73.218 14.3775C73.6224 14.8549 73.7472 14.9017 73.7472 14.5759C73.7472 14.0954 74.2944 14.0091 74.7095 14.4242C74.8926 14.6073 75.2093 14.6129 75.6613 14.4411C76.0338 14.2994 76.4169 14.2618 76.5125 14.3575C76.6081 14.4531 76.7833 14.3745 76.9018 14.1828C77.0551 13.9348 77.2178 14.0897 77.4658 14.7196L77.8143 15.605L77.9142 14.7451C78.0189 13.8433 78.6635 13.5532 78.9432 14.2821C79.1429 14.8025 79.8326 14.7953 79.8326 14.2731C79.8326 13.9726 79.9531 13.9284 80.2956 14.1033C80.5503 14.2333 81.1456 14.3089 81.6185 14.2713C82.2495 14.2211 82.4784 14.3125 82.4784 14.6144C82.4784 14.9771 82.5358 14.9739 82.9623 14.588C83.621 13.9919 83.8014 14.0365 83.8014 14.7959C83.8014 15.1511 83.9204 15.5154 84.0659 15.6053C84.2154 15.6977 84.3305 15.4809 84.3305 15.1073C84.3305 14.7435 84.4496 14.3723 84.5951 14.2824C84.7416 14.1919 84.8639 14.3916 84.8691 14.7298L84.8785 15.3407L85.2336 14.6996L85.5888 14.0586L85.796 14.6996L86.0032 15.3407L86.3456 14.5469C86.5339 14.1104 86.6933 13.8915 86.6999 14.0605C86.7065 14.2296 86.9202 14.3366 87.1748 14.2983C87.5008 14.2494 87.7275 14.511 87.9408 15.1817C88.2174 16.0515 88.2462 16.0727 88.2716 15.4258C88.2868 15.036 88.4996 14.5167 88.7444 14.2719C89.1615 13.8548 89.2134 13.8578 89.5685 14.3191C89.8355 14.6659 89.9842 14.7137 90.0715 14.4808C90.2667 13.96 90.6806 14.0948 90.6806 14.6792C90.6806 14.9702 90.7996 15.2084 90.9451 15.2084C91.0907 15.2084 91.2097 15.0357 91.2097 14.8246C91.2097 14.1838 92.0633 13.8661 92.4316 14.3698C92.7251 14.7713 92.7888 14.7688 93.2646 14.3382C93.7255 13.9211 93.8152 13.9148 94.1173 14.2788C94.3744 14.5886 94.5413 14.614 94.8167 14.3854C95.0927 14.1563 95.1794 14.1712 95.1825 14.4483C95.1851 14.6846 95.2545 14.7123 95.381 14.5276C95.7971 13.92 96.489 13.8972 96.8014 14.4808L97.1095 15.0565L97.3528 14.4048C97.5923 13.7635 97.6024 13.7615 97.9853 14.281C98.3083 14.7193 98.4141 14.7446 98.6083 14.4303C98.8022 14.1166 98.9138 14.1111 99.2593 14.3978C99.6045 14.6843 99.6778 14.6814 99.6848 14.3808C99.6908 14.1206 99.7928 14.1489 100.045 14.4808C100.504 15.0855 100.641 15.0648 100.825 14.3633C100.975 13.7906 100.984 13.7895 101.533 14.2866C102.011 14.7193 102.128 14.7359 102.359 14.4041C102.563 14.1094 102.659 14.0966 102.762 14.35C102.836 14.5328 103.019 14.6069 103.168 14.5146C103.318 14.4223 103.533 14.4973 103.646 14.6813C103.802 14.9323 103.974 14.8751 104.336 14.452L104.819 13.8882L105.152 14.4821L105.486 15.076L105.665 14.4416C105.835 13.8398 105.862 13.8322 106.2 14.2938C106.688 14.9612 107.274 14.9966 107.438 14.3686C107.569 13.8661 107.6 13.8639 108.278 14.3084C108.825 14.6664 109.028 14.6952 109.187 14.4371C109.513 13.91 109.747 13.9694 110.139 14.6791C110.392 15.1361 110.508 15.2062 110.515 14.9058C110.529 14.2336 111.258 14.1065 111.676 14.7033C112.037 15.2196 112.053 15.2137 112.234 14.4942C112.415 13.7725 112.429 13.7671 112.81 14.2825C113.176 14.7777 113.217 14.7819 113.463 14.3487C113.702 13.9274 113.782 13.9511 114.365 14.6133C114.899 15.2197 115.007 15.2603 115.014 14.8576C115.02 14.4901 115.196 14.3929 115.75 14.451C116.15 14.493 116.618 14.4405 116.79 14.3343C116.962 14.2282 117.185 14.275 117.286 14.4385C117.419 14.6534 117.526 14.6452 117.672 14.4089C117.97 13.9253 118.462 14.3498 118.462 15.0916C118.462 15.9726 118.89 15.9092 119.072 15.0014C119.172 14.5016 119.395 14.2521 119.767 14.2241C120.068 14.2014 120.314 14.3091 120.314 14.4634C120.314 14.6484 120.44 14.6394 120.684 14.4369C121.11 14.083 122.934 14.1197 123.423 14.4921C123.654 14.6685 123.753 14.6178 123.753 14.323C123.753 13.7246 124.485 14.0669 124.709 14.7698C124.881 15.3106 124.899 15.314 125.068 14.834C125.256 14.3007 126.135 14.001 126.135 14.4705C126.135 14.634 126.294 14.6116 126.532 14.4147C126.822 14.1734 127.022 14.163 127.279 14.376C127.535 14.5888 127.715 14.5803 127.951 14.3445C128.204 14.0913 128.32 14.0979 128.492 14.3757C128.672 14.6674 128.846 14.6588 129.489 14.3267C129.983 14.071 130.405 14.0096 130.646 14.1584C130.855 14.2873 131.279 14.329 131.589 14.2512C132.038 14.1385 132.193 14.2619 132.351 14.8576C132.477 15.3317 132.594 15.4601 132.671 15.2085C133.042 13.9852 133.025 14.0067 133.298 14.4222C133.516 14.7547 133.61 14.7366 133.945 14.298C134.319 13.8072 134.338 13.8189 134.373 14.5626C134.403 15.2106 134.428 15.2386 134.526 14.73C134.615 14.2594 134.722 14.1856 134.991 14.4084C135.247 14.6216 135.44 14.5972 135.721 14.3156C135.952 14.0852 136.242 14.0197 136.454 14.1506C136.815 14.3735 137.297 14.3333 138.105 14.0132C138.412 13.8916 138.623 13.9796 138.737 14.2772C138.84 14.5468 138.976 14.614 139.079 14.4469C139.333 14.0366 140.421 14.4076 140.433 14.9086C140.44 15.1853 140.585 15.0789 140.838 14.6132C141.266 13.8246 141.41 13.7657 142.001 14.1391C142.241 14.291 142.505 14.2882 142.693 14.1321C143.074 13.8166 143.503 14.2943 143.661 15.2088C143.754 15.7451 143.815 15.6557 143.986 14.7367C144.184 13.6737 144.226 13.6295 144.665 14.0264C144.974 14.3061 145.191 14.3541 145.306 14.1678C145.562 13.7535 145.978 13.8247 145.978 14.2828C145.978 14.7277 146.415 14.8262 146.553 14.4125C146.701 13.966 147.831 13.8649 147.831 14.298C147.831 14.5079 147.95 14.6797 148.095 14.6797C148.241 14.6797 148.36 14.5516 148.36 14.3951C148.36 14.2255 148.818 14.1387 149.495 14.1804C150.119 14.2188 150.792 14.1501 150.99 14.0276C151.384 13.7842 152.041 14.4771 152.095 15.1933C152.112 15.4201 152.202 15.2603 152.294 14.838C152.408 14.311 152.647 14.0419 153.056 13.9798C153.384 13.93 153.651 14.0146 153.651 14.1678C153.651 14.321 153.77 14.3727 153.916 14.2828C154.062 14.1929 154.184 14.2748 154.189 14.4656C154.194 14.6751 154.356 14.6029 154.599 14.2828C154.997 13.7592 155.006 13.7606 155.511 14.4151C155.978 15.021 156.021 15.0321 156.028 14.5474C156.033 14.0987 156.215 14.0171 157.224 14.0112C158.049 14.0062 158.414 14.1136 158.414 14.3608C158.414 14.6349 158.51 14.6212 158.83 14.3017C159.331 13.8001 159.647 13.7732 159.827 14.2167C159.928 14.4655 160.03 14.4491 160.238 14.1506C160.466 13.8226 160.608 13.8115 161.052 14.0866C161.407 14.307 161.589 14.3229 161.589 14.1338C161.589 13.9767 161.785 14.044 162.024 14.2834C162.352 14.6114 162.509 14.6392 162.659 14.3961C162.769 14.2186 163.049 14.1466 163.282 14.2359C163.515 14.3253 163.706 14.2831 163.706 14.1422C163.706 13.6529 164.253 13.8893 164.491 14.4813C164.72 15.0506 164.731 15.0444 164.747 14.3387L164.764 13.6007L165.359 14.1574C165.841 14.6076 165.97 14.6382 166.037 14.3176C166.205 13.5055 167.13 13.973 167.518 15.0665L167.897 16.1349L167.918 15.0104C167.938 13.9434 168.239 13.5667 168.603 14.1549C168.694 14.3027 168.88 14.3555 169.015 14.2721C169.714 13.8398 170.477 13.9229 170.895 14.477L171.338 15.0636L171.521 14.3354C171.646 13.8387 171.799 13.6838 172.004 13.8483C172.169 13.9809 172.691 14.1722 173.164 14.2733C173.936 14.4383 174.027 14.3941 174.055 13.8408C174.082 13.2972 174.101 13.2869 174.218 13.7536C174.412 14.5295 174.828 14.6851 175.512 14.2369C176.189 13.7935 176.667 13.9546 176.676 14.6291C176.681 14.9785 176.795 14.9315 177.199 14.4151C177.484 14.0513 177.719 13.8765 177.723 14.0267C177.731 14.3982 179.048 14.4824 179.463 14.1379C179.697 13.9438 179.85 13.945 179.972 14.1419C180.068 14.2968 180.262 14.3519 180.404 14.2643C180.546 14.1766 180.835 14.2488 181.047 14.4246C181.34 14.6672 181.433 14.6689 181.433 14.4316C181.433 14.2597 181.552 14.1926 181.697 14.2825C181.843 14.3724 181.962 14.6772 181.962 14.9596C181.962 15.7611 182.487 15.5623 182.527 14.7456C182.562 14.0327 182.565 14.0314 182.682 14.6795C182.885 15.8131 183.285 15.9254 183.285 14.8491C183.285 14.2534 183.391 13.9201 183.549 14.018C183.695 14.1079 183.816 14.4424 183.818 14.7612C183.821 15.2218 183.873 15.261 184.068 14.9517C184.378 14.4621 184.495 14.5838 184.825 15.7378C185.087 16.6574 185.089 16.6542 185.113 15.2748C185.135 13.9759 185.18 13.8857 185.798 13.8857C186.397 13.8857 186.462 13.9927 186.481 15.0102C186.502 16.164 186.56 16.1427 186.838 14.8779C187.027 14.0236 187.916 13.8797 188.473 14.6133C188.796 15.0399 188.825 15.0269 188.833 14.4486C188.839 13.9681 188.921 13.887 189.181 14.1028C189.384 14.2714 189.67 14.2921 189.893 14.1543C190.141 14.0012 190.376 14.0729 190.593 14.3678C190.89 14.7701 190.946 14.7496 191.187 14.1503C191.334 13.7865 191.461 13.6576 191.47 13.8637C191.479 14.0699 191.566 14.1589 191.664 14.0616C191.761 13.9643 192.044 14.0686 192.293 14.2935C192.669 14.6341 192.768 14.641 192.885 14.335C192.963 14.133 193.394 13.9572 193.844 13.9444C194.535 13.9248 194.662 14.0186 194.662 14.5493C194.662 14.8948 194.781 15.251 194.926 15.341C195.076 15.4338 195.191 15.2114 195.191 14.8274C195.191 14.3743 195.344 14.137 195.654 14.11C195.909 14.0878 196.296 14.0553 196.514 14.0378C196.732 14.0202 197.051 14.3658 197.221 14.8057C197.473 15.4528 197.536 15.498 197.552 15.0426C197.591 13.9607 198.856 13.6471 199.539 14.5503C199.922 15.0566 199.937 15.0465 199.949 14.2826C199.958 13.718 200.029 13.5955 200.195 13.8582C200.324 14.0613 200.62 14.1543 200.853 14.0649C201.139 13.9552 201.279 14.0502 201.285 14.3571C201.292 14.7555 201.333 14.7626 201.616 14.4149C201.793 14.1966 202.295 14.018 202.732 14.018C203.168 14.018 203.674 14.1966 203.856 14.4149C204.148 14.7648 204.22 14.7569 204.465 14.3488C204.805 13.7814 205.245 13.7441 205.245 14.2827C205.245 14.7673 205.741 14.8096 205.921 14.3404C206.151 13.7414 207.424 13.9983 207.711 14.7017L207.973 15.341L208.13 14.566C208.284 13.8104 208.3 13.8033 208.78 14.283C209.214 14.717 209.299 14.7268 209.501 14.3659C209.761 13.9005 211.061 14.0211 211.074 14.512C211.079 14.677 211.243 14.6015 211.438 14.3443C211.793 13.8757 212.653 13.9586 212.653 14.4614C212.653 14.6012 213.012 14.4605 213.45 14.1486L214.246 13.5815L214.409 14.3952C214.604 15.3723 215.035 15.4769 215.035 14.5473C215.035 13.8203 215.505 13.6939 216.409 14.1778C216.709 14.3383 217.028 14.3681 217.119 14.2439C217.363 13.9091 218.047 13.9704 218.289 14.3489C218.58 14.8038 219.003 14.7646 219.003 14.2828C219.003 13.8331 219.94 13.7397 220.202 14.1633C220.317 14.3495 220.479 14.3536 220.693 14.1757C221.169 13.7807 222.178 13.9362 222.183 14.4052C222.186 14.6637 222.257 14.7071 222.381 14.5241C222.671 14.094 223.789 13.8797 224.304 14.1553C224.58 14.3028 225.098 14.2996 225.63 14.1473C226.207 13.9816 226.615 13.9898 226.834 14.1713C227.065 14.3634 227.333 14.3419 227.726 14.0997C228.223 13.7937 228.343 13.8275 228.773 14.3931L229.259 15.0324L229.441 14.4592C229.627 13.8732 230.116 13.6609 230.116 14.1663C230.116 14.3204 230.245 14.3664 230.404 14.2686C230.901 13.9615 233.82 13.9586 233.824 14.2656C233.827 14.4593 233.889 14.4571 234.023 14.2586C234.216 13.9709 237.162 13.9655 237.449 14.2526C237.529 14.3322 237.816 14.2783 238.088 14.1327C238.424 13.9529 238.583 13.9566 238.583 14.1442C238.583 14.3176 238.785 14.2964 239.126 14.0874C239.589 13.8042 239.711 13.8264 239.944 14.2359C240.208 14.7015 240.229 14.7015 240.574 14.2359C240.886 13.8163 241.006 13.8001 241.512 14.1095C241.981 14.3963 242.133 14.3995 242.302 14.1265C242.468 13.8586 242.592 13.8558 242.902 14.1132C243.213 14.371 243.317 14.3675 243.409 14.0962C243.498 13.8296 243.608 13.8238 243.906 14.07C244.154 14.2745 244.426 14.2992 244.677 14.1402C245.28 13.7586 245.452 13.8319 245.784 14.6143L246.093 15.342L246.192 14.6143C246.307 13.769 246.435 13.7278 247.095 14.3246C247.429 14.6274 247.578 14.6595 247.578 14.4286C247.578 14.2405 247.752 14.1612 247.975 14.247C248.194 14.3308 248.372 14.284 248.372 14.143C248.372 13.5125 248.891 13.9785 249.191 14.8789L249.522 15.8711L249.741 15.0422C249.895 14.4561 250.15 14.1766 250.611 14.0884C250.97 14.0198 251.305 14.0864 251.355 14.2374C251.411 14.4046 251.646 14.4253 251.96 14.2907C253.393 13.6752 253.653 13.9978 253.664 16.4003C253.668 17.419 253.787 18.431 253.928 18.6493C254.106 18.9243 254.186 18.4111 254.189 16.9783C254.191 15.8409 254.314 14.6845 254.462 14.4084C254.772 13.828 255.505 13.9876 255.537 14.6427C255.551 14.912 255.68 14.8045 255.877 14.3602C256.182 13.6738 256.209 13.6651 256.517 14.1582C256.694 14.4415 256.85 14.8833 256.863 15.14C256.876 15.3966 256.996 15.2303 257.129 14.7703C257.366 13.9518 257.684 13.8181 258.372 14.2477C258.562 14.3665 258.87 14.3317 259.066 14.1696C259.52 13.7925 260.274 14.0825 260.295 14.6427C260.308 14.9617 260.372 14.929 260.537 14.5201C260.729 14.0448 260.961 13.9703 262.11 14.0145C262.85 14.043 263.534 14.144 263.629 14.2389C263.724 14.3338 263.961 14.2787 264.157 14.1167C264.419 13.899 264.612 13.9056 264.897 14.1418C265.115 14.3231 265.431 14.369 265.625 14.2478C266.2 13.8887 266.628 13.9141 266.628 14.3071C266.628 14.5125 266.807 14.6806 267.025 14.6806C267.244 14.6806 267.422 14.4932 267.422 14.2643C267.422 13.4795 268.311 14.0048 268.574 14.9456L268.834 15.8712L268.998 15.0775C269.126 14.4553 269.288 14.2973 269.747 14.3467C270.069 14.3814 270.333 14.2775 270.333 14.1159C270.333 13.9229 270.476 13.9413 270.751 14.1692C271.083 14.4443 271.276 14.4498 271.683 14.1956C272.098 13.9363 272.224 13.947 272.341 14.2516C272.508 14.6873 273.298 14.648 273.448 14.1965C273.521 13.9788 273.696 13.9691 274.058 14.1628C274.412 14.3521 274.566 14.3486 274.566 14.1514C274.566 13.9502 274.719 13.9502 275.095 14.1514C275.454 14.3434 275.624 14.3464 275.624 14.1604C275.624 13.7481 276.183 13.831 276.728 14.3244C276.994 14.5652 277.212 14.6335 277.212 14.4761C277.212 14.0137 278.099 13.9467 278.601 14.371C278.943 14.6604 279.064 14.6754 279.064 14.4284C279.064 14.2447 279.235 14.16 279.444 14.2402C279.653 14.3204 279.868 14.2521 279.923 14.0886C279.986 13.8996 280.209 13.8714 280.535 14.0113C280.817 14.1323 281.911 14.224 282.966 14.2149C284.021 14.2059 284.885 14.307 284.885 14.4394C284.885 14.5719 285.004 14.6802 285.149 14.6802C285.295 14.6802 285.414 14.4917 285.414 14.2613C285.414 13.6843 286.018 13.9266 286.336 14.6312C286.685 15.4032 287.001 15.3635 287.001 14.5479C287.001 13.8793 287.362 13.6637 287.663 14.1517C287.772 14.3269 287.993 14.3286 288.314 14.1567C288.676 13.963 288.839 13.9967 288.951 14.2883C289.16 14.8341 289.581 14.7778 289.771 14.1784C289.957 13.5924 290.921 13.716 291.167 14.3573C291.296 14.6916 291.377 14.6763 291.681 14.261C291.988 13.8403 292.121 13.8172 292.581 14.1042C292.877 14.2894 293.351 14.3677 293.632 14.2782C293.961 14.1739 294.148 14.2407 294.154 14.464C294.159 14.6815 294.308 14.6195 294.55 14.299C294.764 14.0165 294.939 13.9168 294.939 14.0773C294.939 14.2378 295.246 14.3354 295.622 14.2942C296.044 14.2478 296.364 14.3738 296.46 14.6245C296.58 14.9362 296.671 14.8825 296.854 14.392C297.072 13.8079 297.12 13.7922 297.425 14.2059C297.73 14.6182 297.795 14.621 298.178 14.238C298.561 13.8549 298.664 13.8652 299.353 14.3564C300.016 14.8285 300.171 14.849 300.616 14.5234C301.063 14.1967 301.193 14.2172 301.702 14.6953C302.197 15.1605 302.302 15.1797 302.437 14.8292C302.677 14.2023 303.93 14.4004 303.953 15.0688C303.97 15.5772 303.986 15.574 304.258 15.0111C304.546 14.4137 304.993 14.2013 304.993 14.6619C304.993 14.8038 305.301 14.821 305.721 14.7026C306.121 14.5896 306.597 14.5483 306.779 14.6108C306.961 14.6733 307.11 14.5396 307.11 14.3138C307.11 14.0575 307.259 13.9604 307.507 14.0555C307.725 14.1393 307.903 14.3736 307.903 14.5763C307.903 14.779 308.023 14.9449 308.168 14.9449C308.314 14.9449 308.433 14.7568 308.433 14.527C308.433 14.1966 308.606 14.1471 309.259 14.2906C309.714 14.3905 310.279 14.5099 310.516 14.556C310.753 14.6021 311.006 14.663 311.078 14.6914C311.151 14.7198 311.3 14.7289 311.409 14.7117C311.518 14.6945 311.608 14.8222 311.608 14.9955C311.608 15.1689 311.768 15.0913 311.964 14.8232C312.266 14.4099 312.445 14.3792 313.138 14.621C313.778 14.8438 314.022 14.8268 314.257 14.5434C314.498 14.2533 314.696 14.2434 315.245 14.4936C315.717 14.7089 315.96 14.7189 316.025 14.5256C316.134 14.1991 317.669 14.3579 318.156 14.746C318.377 14.9222 318.487 14.9198 318.487 14.739C318.487 14.59 318.898 14.4798 319.401 14.4941C320.1 14.5139 320.342 14.6482 320.426 15.0632C320.533 15.588 320.543 15.5862 320.733 15.0111C320.921 14.4415 321.397 14.1741 321.397 14.6379C321.397 15.0624 322.631 15.4576 322.952 15.1361C323.141 14.947 323.249 14.9384 323.249 15.1126C323.249 15.2629 323.428 15.386 323.646 15.386C323.864 15.386 324.043 15.2187 324.043 15.0143C324.043 14.7147 324.124 14.7238 324.461 15.0608C324.94 15.5392 325.362 15.3866 325.374 14.7309C325.381 14.3323 325.424 14.3375 325.758 14.7788C326.095 15.2238 326.174 15.2329 326.539 14.8685C326.962 14.4451 328.012 14.5447 328.012 15.0082C328.012 15.1546 328.21 15.111 328.452 14.9112C328.795 14.6281 328.916 14.621 329.003 14.8788C329.169 15.3732 329.542 15.278 329.727 14.6939C329.931 14.0522 330.658 14.2705 330.658 14.9733C330.658 15.2488 330.777 15.4741 330.922 15.4741C331.068 15.4741 331.189 15.2658 331.191 15.0111C331.194 14.6154 331.232 14.6058 331.451 14.945C331.592 15.1633 331.713 15.2228 331.72 15.0773C331.727 14.9318 331.856 15.0263 332.008 15.2873C332.19 15.5991 332.459 15.7065 332.794 15.6002C333.193 15.4735 333.309 15.5713 333.33 16.0516C333.354 16.6174 333.37 16.6236 333.528 16.1316C333.77 15.3832 334.474 15.4734 334.593 16.268C334.685 16.8817 334.708 16.8913 334.905 16.4002C335.086 15.9509 335.121 15.9409 335.137 16.3341C335.168 17.1072 335.606 16.8523 335.819 15.9373C335.955 15.351 336.056 15.2247 336.136 15.5404C336.267 16.0602 336.513 16.1271 336.894 15.7464C337.036 15.605 337.387 15.4444 337.675 15.3893C338.33 15.264 339.115 14.9825 339.73 14.6522C340.341 14.3244 340.709 14.5618 340.721 15.2914C340.73 15.8515 340.743 15.8487 341.109 15.2096C341.317 14.8458 341.491 14.7169 341.496 14.923C341.501 15.1292 341.583 15.2203 341.678 15.1256C341.773 15.0308 341.981 15.1216 342.141 15.3268C342.301 15.5323 342.729 15.7388 343.093 15.7857C343.457 15.8327 343.961 16.0951 344.213 16.3688C344.611 16.8023 344.691 16.8133 344.829 16.4542C344.923 16.2093 345.208 16.0844 345.531 16.1466C346.143 16.2644 346.098 16.2283 346.451 16.8869C346.685 17.3229 346.754 17.3315 347.116 16.9699C347.392 16.6936 347.605 16.6522 347.791 16.8386C347.969 17.0161 348.234 17.0227 348.555 16.8573C348.825 16.718 349.181 16.6526 349.345 16.712C349.51 16.7714 349.722 16.5124 349.816 16.1363C349.91 15.7602 350.103 15.5239 350.245 15.6112C350.386 15.6985 350.501 15.6293 350.501 15.4574C350.501 15.2221 350.598 15.2249 350.892 15.4687C351.213 15.7357 351.337 15.6717 351.596 15.1042C351.988 14.2419 352.25 14.231 352.46 15.0679C352.659 15.8635 353.401 15.6977 353.433 14.8505C353.447 14.4647 353.5 14.4103 353.599 14.6803C353.828 15.302 354.519 16.0046 354.756 15.8576C354.875 15.7844 355.365 16.2646 355.845 16.9248C356.517 17.847 356.858 18.1024 357.316 18.0266C357.796 17.9474 357.957 18.0899 358.134 18.7516L358.355 19.5751L358.553 18.4507C358.748 17.3396 359.063 17.0144 359.322 17.6569C359.402 17.8545 359.464 17.8012 359.476 17.5246C359.488 17.2699 359.676 17.0467 359.894 17.0285C361.565 16.8893 361.857 16.9488 361.997 17.4585C362.121 17.9072 362.183 17.9273 362.404 17.5908C362.616 17.2668 362.665 17.3004 362.668 17.7736C362.671 18.0924 362.791 18.4269 362.937 18.5168C363.082 18.6067 363.201 18.4869 363.201 18.2504C363.201 18.014 363.325 17.5887 363.477 17.3054C363.699 16.8916 363.855 16.8448 364.271 17.0675C364.726 17.3113 364.789 17.2577 364.789 16.6235C364.789 15.9324 364.805 15.9237 365.177 16.4157C365.474 16.8085 365.569 16.8359 365.578 16.5324C365.589 16.1797 365.619 16.1797 365.847 16.5324C366.061 16.8626 366.108 16.8403 366.126 16.4001L366.149 15.871L366.377 16.4001C366.585 16.8859 366.606 16.8751 366.627 16.2679C366.645 15.7384 366.701 15.6856 366.91 16.0033C367.128 16.3362 367.208 16.3414 367.405 16.0356C367.535 15.835 367.763 15.7469 367.913 15.8396C368.063 15.9324 368.425 15.7054 368.716 15.3351C369.227 14.6853 369.251 14.6806 369.416 15.2003C369.616 15.8287 370.081 15.9235 370.081 15.3358C370.081 14.983 370.163 14.9868 370.742 15.3662C371.106 15.6045 371.404 15.7118 371.404 15.6044C371.404 15.4971 371.582 15.5576 371.8 15.7387C372.019 15.9199 372.206 15.9642 372.216 15.8372C372.226 15.7102 372.337 15.8442 372.462 16.1355C372.656 16.588 372.692 16.5976 372.708 16.2016C372.731 15.6351 373.215 15.5904 373.425 16.1355C373.508 16.3538 373.728 16.5324 373.912 16.5324C374.097 16.5324 374.316 16.8746 374.4 17.2928C374.581 18.1975 375.372 18.6486 375.372 17.847C375.372 17.3667 375.684 17.22 376.629 17.2551C376.811 17.2621 376.96 17.1545 376.96 17.0166C376.96 16.8786 377.079 16.8393 377.224 16.9293C377.37 17.0192 377.489 16.8392 377.489 16.5291C377.489 15.9994 377.516 15.9924 377.937 16.4136C378.358 16.8348 378.397 16.832 378.58 16.3664C378.721 16.0088 378.785 15.9814 378.81 16.2678C378.83 16.4909 378.96 16.3778 379.107 16.0096C379.251 15.6493 379.451 15.4707 379.553 15.6127C379.814 15.9768 380.399 16.0575 380.399 15.7293C380.399 15.5436 380.57 15.5467 380.929 15.7384C381.22 15.8941 381.458 15.9281 381.458 15.8138C381.457 15.5668 383.243 15.5828 383.492 15.8319C383.587 15.9269 383.938 15.8259 384.272 15.6065C384.844 15.2316 384.903 15.2509 385.275 15.9363L385.67 16.6643L385.681 15.9384C385.691 15.2024 386.152 15.0666 386.95 15.5645C387.168 15.7002 387.368 15.5595 387.529 15.16C387.664 14.8232 387.782 14.7035 387.791 14.894C387.8 15.0845 387.927 15.1667 388.072 15.0768C388.218 14.9869 388.337 15.0184 388.337 15.1469C388.337 15.2754 388.724 15.3605 389.197 15.3359C389.67 15.3114 390.141 15.4206 390.244 15.5787C390.377 15.7818 390.525 15.7724 390.751 15.5468C391 15.2975 391.146 15.3269 391.418 15.6813C391.639 15.9688 391.841 16.0368 391.97 15.8668C392.19 15.577 393.76 15.5688 394.449 15.8539C394.682 15.9503 395.038 15.9935 395.239 15.9499C395.484 15.8968 395.66 16.2208 395.77 16.9289C395.921 17.8964 395.938 17.9153 395.972 17.149C395.993 16.688 396.088 16.1084 396.182 15.8612C396.332 15.4709 396.401 15.4942 396.702 16.038C396.918 16.4273 397.055 16.5141 397.063 16.2675C397.075 15.9147 397.105 15.9147 397.333 16.2675C397.536 16.5823 397.591 16.5277 397.597 16.0029C397.603 15.5428 397.673 15.4481 397.828 15.6917C398.006 15.9737 398.137 15.9545 398.498 15.5933C398.92 15.1714 398.969 15.1742 399.322 15.6399C399.682 16.1146 399.698 16.1104 399.706 15.5399C399.715 14.9003 400.113 14.7324 400.333 15.2753C400.429 15.5104 400.531 15.522 400.686 15.3153C400.806 15.1554 401.083 15.0208 401.302 15.0161C401.52 15.0111 401.907 14.9211 402.161 14.8155C402.504 14.6732 402.626 14.7508 402.63 15.1147C402.635 15.5385 402.705 15.5164 403.137 14.9544L403.638 14.3028L403.787 15.219C403.87 15.7229 403.983 16.4328 404.038 16.7966C404.096 17.1706 404.156 16.9694 404.176 16.3336C404.21 15.2556 404.55 14.8442 404.83 15.5399C404.904 15.7218 404.973 15.5429 404.985 15.143C405.01 14.2691 405.4 14.1991 405.825 14.9923C406.098 15.5029 406.169 15.5213 406.438 15.1524C406.702 14.7919 406.811 14.7854 407.248 15.1047C407.893 15.5763 408.181 15.5725 408.181 15.0924C408.181 14.4636 408.765 14.3003 409.147 14.8224C409.343 15.0907 409.504 15.2134 409.504 15.095C409.504 14.9766 409.691 15.0355 409.921 15.2258C410.265 15.5112 410.376 15.5103 410.555 15.2199C410.677 15.0224 411.01 14.9304 411.315 15.01C411.677 15.1048 411.895 15.008 411.973 14.7172C412.055 14.4087 412.097 14.447 412.119 14.8496C412.158 15.5815 412.852 15.8489 413.193 15.2638C413.338 15.0152 413.46 14.9408 413.464 15.0984C413.474 15.4512 414.266 15.4846 414.266 15.1321C414.266 14.993 414.435 15.0191 414.641 15.1901C414.938 15.4365 415.047 15.402 415.169 15.0241C415.372 14.3935 417.563 14.2603 418.426 14.8261C418.758 15.0432 419.029 15.1128 419.029 14.9809C419.029 14.849 419.256 14.6815 419.535 14.6087C419.889 14.5161 420.092 14.6458 420.21 15.0409L420.379 15.6054L420.621 15.0101C420.893 14.3439 421.674 14.1965 421.674 14.8117C421.674 15.03 421.793 15.2086 421.939 15.2086C422.085 15.2086 422.205 15.0597 422.208 14.8778C422.211 14.6574 422.297 14.6794 422.468 14.9439C422.639 15.2085 422.726 15.2306 422.729 15.01C422.735 14.4882 423.454 14.6238 424.045 15.2584L424.585 15.8374V15.274C424.585 14.597 425.092 14.2152 425.377 14.6772C425.529 14.923 425.65 14.8842 425.851 14.5251C426.083 14.1115 426.183 14.0941 426.555 14.4028C426.873 14.6667 427.067 14.6843 427.282 14.4688C427.444 14.3071 427.766 14.2616 427.999 14.3677C428.621 14.6514 429.219 14.5857 429.708 14.1799C430.033 13.9106 430.141 13.9022 430.141 14.1464C430.141 14.3594 430.364 14.4161 430.786 14.3101C431.141 14.221 431.507 14.2696 431.598 14.418C431.69 14.5664 431.906 14.6007 432.078 14.4941C432.531 14.2129 434.891 14.1795 435.059 14.4519C435.138 14.5792 435.395 14.4902 435.631 14.2542C436.027 13.8584 436.078 13.8736 436.293 14.4506C436.489 14.9784 436.562 15.0111 436.76 14.6595C436.939 14.3417 437.39 14.2527 438.661 14.2842C439.578 14.3069 440.469 14.2182 440.641 14.0871C440.817 13.9536 441.166 13.947 441.435 14.0721C441.699 14.1949 442.666 14.2815 443.583 14.2644C444.941 14.2392 445.316 14.3264 445.601 14.7341C445.937 15.2127 445.959 15.2062 446.115 14.5876C446.264 13.9908 446.354 13.9577 447.264 14.163C447.953 14.3184 448.32 14.2901 448.477 14.0694C448.649 13.8282 448.733 13.8271 448.83 14.0644C448.911 14.2615 449.292 14.3217 449.868 14.2283C450.51 14.1241 450.779 14.1807 450.779 14.4207C450.779 14.6566 450.934 14.6203 451.286 14.302C452.025 13.6331 452.886 14.1498 452.922 15.2835L452.949 16.1341L453.145 15.3173C453.416 14.1821 453.658 13.8593 454.172 13.9443C454.695 14.0307 455.132 14.4041 455.345 14.9482C455.45 15.2138 455.506 15.1533 455.52 14.7607C455.548 13.9886 455.929 13.7928 456.597 14.2069C457.054 14.4904 457.187 14.4809 457.397 14.1497C457.565 13.886 457.651 13.8638 457.654 14.0836C457.657 14.2655 457.836 14.4144 458.055 14.4144C458.31 14.4144 458.453 14.6734 458.456 15.142C458.459 15.709 458.516 15.782 458.716 15.4727C458.857 15.2544 458.984 14.7782 458.998 14.4144C459.011 14.0506 459.08 13.895 459.151 14.0688C459.222 14.2425 459.45 14.3191 459.659 14.2389C459.92 14.139 460.039 14.2796 460.039 14.6863C460.039 15.2707 460.047 15.2694 460.578 14.5944C460.891 14.1967 461.278 13.9711 461.501 14.0566C461.712 14.1376 462.451 14.2214 463.144 14.243L464.405 14.2822L464.542 23.4103C464.632 29.3615 464.679 25.9084 464.678 13.4884C464.678 3.01091 464.643 -1.42415 464.603 3.6327L464.53 12.8269L463.144 12.8489C462.382 12.861 461.491 12.9008 461.164 12.9371C460.836 12.9734 460.568 12.918 460.568 12.8139C460.568 12.7099 460.093 12.6182 459.511 12.6101C458.93 12.6021 458.338 12.5234 458.196 12.4354C458.053 12.3473 457.735 12.5111 457.488 12.7993C457.087 13.2676 456.981 13.2829 456.496 12.9429C455.791 12.4494 455.541 12.4622 455.541 12.9916C455.541 13.3421 455.469 13.3608 455.147 13.0936C454.93 12.9135 454.394 12.8188 453.956 12.8831C453.252 12.9864 453.156 12.9209 453.129 12.3181C453.109 11.8701 453.057 11.795 452.978 12.0992C452.911 12.3538 452.538 12.638 452.148 12.731C451.759 12.8239 451.307 13.004 451.144 13.1313C450.965 13.2721 450.729 13.2182 450.543 12.9938C450.252 12.6434 449.026 12.578 448.507 12.8853C448.374 12.9641 447.878 12.9696 447.405 12.8977C446.695 12.7896 446.541 12.6458 446.519 12.0693C446.499 11.5307 446.415 11.6431 446.148 12.5624C445.959 13.2173 445.792 13.5576 445.778 13.3187C445.763 13.0798 445.462 12.8117 445.108 12.7229C444.723 12.6261 444.419 12.3235 444.351 11.9667C444.279 11.5924 444.223 11.7339 444.2 12.3484C444.162 13.388 443.79 13.8786 443.539 13.2224C443.363 12.7659 442.047 12.6791 442.047 13.1239C442.047 13.3303 441.927 13.3212 441.654 13.0943C441.437 12.9147 441.079 12.8373 440.858 12.9223C440.636 13.0073 440.159 12.964 439.796 12.8262C439.369 12.6637 439.137 12.6677 439.137 12.8374C439.137 13.0795 437.72 12.9638 437.269 12.6847C437.163 12.6191 437 12.7616 436.908 13.0014C436.756 13.3978 436.709 13.394 436.392 12.9595C436.169 12.6554 435.915 12.5604 435.692 12.6983C435.272 12.9576 433.845 13.0298 433.845 12.7917C433.845 12.4197 432.51 12.3903 432.207 12.7556C431.932 13.0877 431.843 13.0772 431.551 12.678C431.25 12.2657 431.197 12.2613 431.053 12.6374C430.852 13.1597 430.144 12.9275 430.133 12.3357C430.126 11.9574 430.076 11.9645 429.753 12.3905C429.519 12.7 429.255 12.801 429.035 12.6651C428.399 12.2721 427.278 12.3233 427.113 12.7528C426.972 13.1203 426.905 13.1179 426.476 12.7301C426.213 12.4917 425.928 12.3661 425.843 12.451C425.758 12.5359 425.44 12.4724 425.137 12.3099C424.674 12.0621 424.584 12.0906 424.576 12.4869C424.568 12.9277 424.543 12.9258 424.189 12.4587C423.981 12.1834 423.76 11.8263 423.699 11.665C423.628 11.4801 423.454 11.533 423.226 11.8081C422.797 12.3264 421.674 12.7106 421.674 12.3391C421.674 12.0076 421.044 12.0975 420.562 12.4978C420.269 12.7411 420.11 12.6964 419.815 12.2878C419.346 11.6371 419.126 11.632 418.96 12.2679C418.85 12.6889 418.61 12.7569 417.431 12.7019C416.499 12.6584 415.927 12.4921 415.716 12.2027C415.306 11.6427 415.06 11.6508 415.06 12.2244C415.06 12.599 414.987 12.5754 414.648 12.0921C414.174 11.4156 413.005 11.3007 412.772 11.9077C412.652 12.2189 412.533 12.2418 412.251 12.0076C411.974 11.7781 411.885 11.7803 411.885 12.0166C411.885 12.1885 411.786 12.2678 411.664 12.1928C411.543 12.1178 411.079 11.9922 410.634 11.9137C410.05 11.8108 409.78 11.8861 409.666 12.1835C409.569 12.436 409.378 12.5154 409.175 12.3883C408.682 12.0804 408.181 12.0467 408.181 12.3214C408.181 12.78 407.602 12.5607 407.468 12.0517C407.259 11.2495 406.593 11.135 406.593 11.9011C406.593 12.3656 406.482 12.5034 406.196 12.3937C405.978 12.3099 405.799 12.0713 405.799 11.8635C405.799 11.5893 405.672 11.551 405.336 11.7238C404.618 12.0933 404.215 11.8031 404.176 10.8869C404.149 10.2524 404.112 10.1952 404.024 10.6513C403.961 10.9826 403.744 11.5705 403.543 11.9577L403.178 12.6617L402.908 11.9507C402.595 11.1287 402.471 11.0905 401.916 11.6456C401.61 11.9515 401.422 11.9785 401.153 11.7552C400.956 11.5921 400.671 11.5355 400.519 11.6294C400.367 11.7233 400.243 11.674 400.243 11.5198C400.243 11.3657 400.124 11.2396 399.979 11.2396C399.833 11.2396 399.714 11.5671 399.713 11.9673V12.6949L399.162 11.7906C398.772 11.1519 398.549 10.9851 398.403 11.2226C398.235 11.4936 398.073 11.4913 397.566 11.2108C397.22 11.0193 396.848 10.888 396.738 10.9189C396.629 10.9498 396.538 10.8263 396.536 10.6444C396.528 10.0128 396.019 11.0901 396.015 11.7468C396.009 12.6337 395.703 12.2407 395.468 11.0442C395.297 10.171 395.249 10.1216 395.083 10.6414C394.978 10.9672 394.787 11.1685 394.658 11.0888C394.529 11.0091 394.422 11.0997 394.419 11.2902C394.416 11.5419 394.345 11.5281 394.159 11.2397C393.94 10.9005 393.902 10.9101 393.898 11.3058C393.893 11.9156 393.558 11.8918 392.968 11.2395C392.489 10.7107 392.489 10.7107 392.099 11.2664C391.793 11.7041 391.663 11.7467 391.49 11.4663C391.314 11.1817 391.196 11.2105 390.904 11.6087C390.579 12.0533 390.522 12.0608 390.375 11.678C390.166 11.1331 389.472 11.3793 389.25 12.0768C389.099 12.5545 389.028 12.5251 388.452 11.744L387.82 10.8875L387.465 11.7309L387.111 12.5743L386.754 11.9069C386.362 11.1761 385.969 11.0681 385.48 11.5571C385.233 11.804 385.163 11.7711 385.163 11.4092C385.163 11.1532 385.044 11.0173 384.898 11.1073C384.753 11.1972 384.626 11.0554 384.616 10.7922C384.601 10.3992 384.546 10.4221 384.306 10.9198C384.105 11.3361 383.883 11.4673 383.596 11.3387C383.367 11.2357 382.792 11.1712 382.319 11.1953C381.84 11.2198 381.459 11.1094 381.459 10.9461C381.459 10.5759 380.093 10.8897 379.803 11.3267C379.652 11.553 379.533 11.5296 379.36 11.2396C379.23 11.0213 378.875 10.5566 378.572 10.2069C378.171 9.74591 378.019 9.68359 378.019 9.9802C378.019 10.2052 377.841 10.4578 377.622 10.5415C377.381 10.6343 377.225 10.5419 377.225 10.3052C377.224 10.0915 377.046 9.9167 376.828 9.9167C376.609 9.9167 376.421 9.70834 376.41 9.45368C376.397 9.17707 376.335 9.12379 376.255 9.32136C376.004 9.94369 375.439 9.65274 375.227 8.79222L375.015 7.93232L374.912 8.79222C374.856 9.26516 374.711 9.65211 374.591 9.65211C374.47 9.65211 374.285 9.97953 374.18 10.3797C374.005 11.0453 373.971 11.0622 373.783 10.5781C373.582 10.0607 373.573 10.0602 373.37 10.5588C373.166 11.0622 373.161 11.0622 372.963 10.5588C372.781 10.0926 372.762 10.09 372.745 10.5277C372.735 10.7909 372.607 10.9327 372.462 10.8428C372.316 10.7529 372.197 10.8106 372.197 10.971C372.197 11.3027 371.359 11.2284 371.102 10.874C371.009 10.7457 370.717 10.9838 370.454 11.4032C370.191 11.8226 369.939 12.2165 369.893 12.2787C369.848 12.3408 369.637 12.1622 369.425 11.8818C369.213 11.6014 369.035 11.484 369.031 11.621C369.026 11.7579 368.848 11.6389 368.634 11.3564C368.39 11.0342 368.242 10.9731 368.237 11.1924C368.231 11.4491 368.113 11.4263 367.793 11.1067C367.548 10.8616 367.288 10.7808 367.198 10.9218C366.998 11.235 365.318 11.0054 365.318 10.6648C365.318 10.5272 365.199 10.4883 365.054 10.5783C364.908 10.6682 364.775 10.4668 364.758 10.1308C364.736 9.68259 364.695 9.64322 364.607 9.98295C364.435 10.6393 364.034 10.5565 363.686 9.7928C363.523 9.43356 363.287 9.20246 363.163 9.27925C363.039 9.35605 362.929 9.20346 362.918 8.94023C362.902 8.51299 362.875 8.51842 362.672 8.99073L362.445 9.51988L362.406 8.99073C362.379 8.61444 362.265 8.72908 362.011 9.38758C361.815 9.8969 361.643 10.135 361.63 9.91676C361.611 9.5998 361.561 9.59042 361.384 9.87016C361.203 10.1556 361.087 10.1457 360.758 9.81666C360.233 9.29206 360.033 9.52109 359.997 10.6885C359.97 11.55 359.936 11.5037 359.63 10.1814C359.444 9.38102 359.277 8.84523 359.258 8.99076C359.24 9.13628 359.109 9.07677 358.968 8.85847C358.823 8.63402 358.71 8.59511 358.708 8.76887C358.703 9.14361 358.018 9.07241 357.599 8.6536C357.369 8.42294 357.175 8.48524 356.808 8.90843C356.541 9.2165 356.322 9.62521 356.322 9.81666C356.322 10.0081 356.16 10.1024 355.962 10.0263C355.763 9.95018 355.258 10.2515 354.838 10.6961C354.418 11.1406 353.932 11.5043 353.757 11.5043C353.582 11.5043 353.313 11.7126 353.161 11.9673C352.896 12.4083 352.87 12.4083 352.605 11.9673C352.233 11.3478 351.963 11.384 351.618 12.0996L351.331 12.6949L351.313 12.1152C351.294 11.4896 350.78 10.9823 350.745 11.5548C350.73 11.8016 350.687 11.8103 350.596 11.5853C350.525 11.4115 350.306 11.3314 350.109 11.4071C349.881 11.4943 349.718 11.3191 349.663 10.9292C349.615 10.5906 349.47 10.3536 349.34 10.4024C349.211 10.4512 349.005 10.3321 348.881 10.1378C348.702 9.85392 348.656 9.86249 348.649 10.1813C348.642 10.5341 348.613 10.5341 348.385 10.1813C348.172 9.85237 348.128 9.87502 348.124 10.3136C348.12 10.78 348.041 10.7516 347.459 10.074L346.797 9.30525V10.1246C346.797 11.0668 346.408 11.4556 346.146 10.7751C345.98 10.3456 345.948 10.3485 345.686 10.8165C345.417 11.2962 345.387 11.2901 345.051 10.6842L344.699 10.049L344.69 10.7766C344.685 11.1768 344.562 11.5042 344.416 11.5042C344.271 11.5042 344.152 11.3781 344.152 11.224C344.152 11.0699 344.033 11.0174 343.887 11.1073C343.742 11.1972 343.619 11.1153 343.614 10.9245C343.608 10.6772 343.514 10.6983 343.283 10.9982C342.918 11.4739 342.044 11.5646 342.018 11.1294C342.009 10.9718 341.891 11.1183 341.756 11.4551C341.621 11.7919 341.39 11.9932 341.244 11.9025C341.091 11.8079 340.963 12.0545 340.946 12.4808L340.914 13.224L340.712 12.4303C340.601 11.9937 340.496 11.7924 340.479 11.9829C340.462 12.1733 340.337 12.2607 340.201 12.177C340.066 12.0933 339.883 12.1406 339.796 12.2821C339.622 12.5629 338.828 12.3533 338.561 11.9564C338.47 11.8201 337.904 11.6924 337.305 11.6726C336.558 11.6479 336.215 11.5186 336.214 11.2617C336.214 11.0555 336.136 10.9652 336.04 11.061C335.944 11.1568 335.721 11.1149 335.545 10.9681C335.198 10.6803 334.362 10.8863 334.362 11.2596C334.362 11.385 334.184 11.419 333.965 11.3353C333.747 11.2515 333.568 11.3148 333.568 11.4759C333.568 11.637 333.39 11.7688 333.172 11.7688C332.953 11.7688 332.771 11.9176 332.767 12.0995C332.762 12.2814 332.636 12.2194 332.486 11.9617C332.336 11.704 332.11 11.5571 331.983 11.6353C331.856 11.7135 331.67 11.6433 331.569 11.4803C331.318 11.0732 330.932 11.7077 330.927 12.5374C330.923 13.1351 330.894 13.1474 330.443 12.7395C330.093 12.4226 329.884 12.3842 329.671 12.5974C329.458 12.8105 329.284 12.738 329.029 12.3292C328.575 11.6031 328.279 11.6167 328.268 12.3641L328.259 12.9594L327.765 12.3679C327.427 11.9622 327.232 11.8809 327.144 12.1091C326.998 12.4895 325.631 12.6797 325.631 12.3197C325.631 12.1895 325.393 12.1452 325.102 12.2212C324.806 12.2986 324.572 12.2292 324.572 12.0642C324.572 11.9017 324.394 11.7687 324.175 11.7687C323.957 11.7687 323.777 11.9175 323.775 12.0994C323.772 12.3206 323.684 12.2987 323.51 12.0332C323.278 11.6805 323.221 11.6805 322.989 12.0332C322.798 12.3237 322.727 12.337 322.724 12.0827C322.718 11.5858 321.624 11.7982 321.067 12.4045C320.812 12.6814 320.604 12.7812 320.604 12.6263C320.604 12.3128 320.126 12.33 319.594 12.6626C319.353 12.8128 319.196 12.6934 319.088 12.2778L318.93 11.6754L318.718 12.2484C318.527 12.7659 318.36 12.8095 317.003 12.6982C316.177 12.6304 315.446 12.5202 315.379 12.4533C315.312 12.3864 314.996 12.4312 314.676 12.5529C314.343 12.6793 313.901 12.6665 313.644 12.5229C313.324 12.3436 313.193 12.3701 313.186 12.6155C313.181 12.8102 312.957 12.6947 312.669 12.3489L312.16 11.7385L311.908 12.6135C311.769 13.0948 311.645 13.2993 311.632 13.068C311.618 12.8367 311.327 12.5193 310.983 12.3627C310.465 12.1266 310.261 12.1747 309.792 12.6436C309.428 13.0074 309.227 13.0836 309.227 12.8572C309.227 12.6238 309.025 12.5557 308.629 12.6551C308.3 12.7376 307.858 12.6978 307.646 12.5666C307.407 12.4191 307.13 12.4357 306.92 12.61C306.667 12.8205 306.581 12.7785 306.581 12.4437C306.581 12.0277 306.549 12.0268 306.145 12.4308C305.906 12.6702 305.638 12.768 305.55 12.6481C305.279 12.2783 304.199 12.2388 304.199 12.5987C304.199 12.8586 304.129 12.8623 303.882 12.6153C303.466 12.1991 302.428 12.2075 302.257 12.6285C302.161 12.8656 302.061 12.8762 301.904 12.666C301.784 12.5047 301.448 12.4226 301.157 12.4834C300.866 12.5442 299.837 12.6316 298.87 12.6775C297.903 12.7234 296.98 12.8424 296.819 12.9419C296.658 13.0414 296.527 13.0047 296.527 12.8603C296.527 12.5143 294.905 12.5539 294.456 12.911C294.217 13.1011 294.048 13.1033 293.927 12.918C293.703 12.5769 292.13 12.6781 291.666 13.0635C291.475 13.222 291.237 13.2702 291.138 13.1707C290.795 12.8283 289.817 12.8166 289.6 13.1522C289.428 13.4188 289.332 13.4101 289.139 13.1102C288.849 12.6596 288.06 12.4933 288.06 12.8828C288.06 13.0464 287.9 13.024 287.663 12.827C287.389 12.5995 287.266 12.5894 287.266 12.7946C287.266 12.958 287.088 13.0916 286.869 13.0916C286.651 13.0916 286.472 12.9725 286.472 12.827C286.472 12.6815 286.234 12.5624 285.943 12.5624C285.652 12.5624 285.414 12.6815 285.414 12.827C285.414 12.9725 285.235 13.0916 285.017 13.0916C284.799 13.0916 284.617 12.8832 284.612 12.6286C284.605 12.1964 284.587 12.1955 284.342 12.6153C284.105 13.0219 283.576 13.077 282.371 12.8207C282.226 12.7897 282.047 12.789 281.974 12.8187C281.558 12.9906 278.535 12.9648 278.535 12.7893C278.535 12.6735 278.356 12.6473 278.138 12.7311C277.907 12.8197 277.737 12.7331 277.732 12.5243C277.727 12.3269 277.569 12.4412 277.382 12.7785C277.081 13.321 277.003 13.3445 276.702 12.9825C276.453 12.6826 276.233 12.6425 275.879 12.8323C275.21 13.1902 274.208 13.1565 273.814 12.7628C273.553 12.5012 273.434 12.5146 273.232 12.8289C273.073 13.0764 272.905 13.1249 272.78 12.959C272.499 12.5842 271.828 12.631 271.566 13.0436C271.39 13.3206 271.264 13.2932 270.954 12.9113C270.687 12.5818 270.522 12.5295 270.431 12.7457C270.258 13.1571 269.539 12.8797 269.539 12.4015C269.539 11.764 269.075 12.0012 268.892 12.7326C268.76 13.2581 268.641 13.3569 268.413 13.1295C267.952 12.6683 267.162 12.7667 267.127 13.2897C267.1 13.6954 267.082 13.6987 266.981 13.3169C266.796 12.6209 265.804 12.4914 265.634 13.141C265.496 13.6697 265.481 13.6672 265.143 13.0577C264.952 12.7124 264.791 12.5577 264.786 12.7141C264.78 12.894 263.999 12.9911 262.66 12.9787C260.959 12.9629 260.537 13.0369 260.512 13.3558C260.491 13.6399 260.447 13.6212 260.361 13.2898C260.23 12.7893 258.956 12.6229 258.956 13.1063C258.956 13.263 258.697 13.2049 258.368 12.974C257.506 12.3708 257.108 12.4681 257.073 13.2898C257.051 13.8203 257.007 13.8791 256.912 13.5069C256.84 13.2262 256.623 12.8376 256.429 12.6434C256.134 12.3489 256.029 12.3677 255.796 12.7569C255.543 13.1802 255.486 13.1846 255.186 12.8035C255.004 12.5725 254.706 12.4336 254.524 12.4949C254.286 12.5752 254.193 12.1938 254.193 11.129C254.193 10.3165 254.074 9.65174 253.929 9.65174C253.783 9.65174 253.664 10.2206 253.664 10.9159C253.664 11.8622 253.528 12.2965 253.123 12.6436C252.825 12.8986 252.467 13.0366 252.327 12.9502C252.187 12.8638 252.001 12.9795 251.914 13.2073C251.79 13.5306 251.587 13.4102 250.99 12.6586C250.553 12.1096 250.224 11.868 250.224 12.0965C250.224 12.317 250.046 12.6456 249.828 12.8267C249.503 13.0965 249.431 13.0784 249.431 12.7268C249.431 12.2479 249.387 12.2295 248.791 12.4582C248.561 12.5465 248.364 12.8144 248.354 13.0535C248.338 13.414 248.302 13.4048 248.143 12.9995C247.968 12.5542 247.919 12.5486 247.597 12.9363C247.274 13.3255 247.214 13.3221 246.887 12.8958C246.577 12.4905 246.497 12.4812 246.272 12.8245C246.066 13.1388 245.946 13.1522 245.685 12.8907C245.25 12.4555 244.933 12.4745 244.933 12.9356C244.933 13.3301 244.504 13.3538 243.923 12.9912C243.731 12.8716 243.507 12.8409 243.425 12.9232C243.343 13.0054 243.065 12.96 242.808 12.8222C242.461 12.6365 242.297 12.6824 242.176 12.9999C242.026 13.3894 241.966 13.3868 241.505 12.97C241.024 12.5347 240.984 12.5379 240.673 13.0353C240.354 13.5454 240.333 13.5462 239.819 13.0675C239.322 12.6045 239.272 12.6025 238.946 13.0322C238.755 13.283 238.596 13.3577 238.591 13.1983C238.582 12.8956 236.255 12.8635 235.776 13.1595C235.632 13.2483 235.348 13.2181 235.145 13.0923C234.932 12.9605 234.573 12.9718 234.298 13.1191C234.035 13.2595 233.82 13.281 233.82 13.1668C233.82 13.0525 233.522 12.9418 233.159 12.9208C232.795 12.8998 232.496 13.019 232.493 13.1854C232.49 13.3742 232.405 13.3552 232.265 13.1349C232.094 12.8648 231.82 12.8427 231.102 13.0409C230.281 13.2678 230.147 13.2374 230.032 12.7989C229.856 12.1247 229.419 12.1638 229.234 12.8702C229.122 13.3011 228.999 13.3737 228.74 13.1633C228.368 12.861 225.368 12.8878 224.866 13.1979C224.698 13.3019 224.56 13.2611 224.56 13.1069C224.56 12.9528 224.322 12.8267 224.031 12.8267C223.74 12.8267 223.502 12.9346 223.502 13.0665C223.502 13.5839 222.441 13.0013 222.407 12.4651C222.374 11.949 222.361 11.954 222.253 12.5226C222.159 13.0173 222.004 13.1195 221.495 13.0223C221.13 12.9526 220.854 13.0263 220.852 13.1941C220.849 13.3831 220.778 13.3937 220.653 13.2236C220.312 12.7589 219.159 12.7854 218.808 13.266C218.521 13.6579 218.474 13.6634 218.474 13.305C218.474 12.7519 217.516 12.5201 217.133 12.9807C216.906 13.2546 216.701 13.275 216.305 13.0632C216.016 12.9084 215.5 12.8518 215.159 12.9374C214.817 13.0231 214.476 12.9933 214.401 12.8711C214.235 12.6026 213.438 12.638 212.957 12.9353C212.759 13.0577 212.48 13.0236 212.313 12.8565C211.898 12.4413 211.595 12.491 211.595 12.9746C211.595 13.2367 211.475 13.3127 211.265 13.1831C211.084 13.0709 210.518 12.9594 210.008 12.9353C208.728 12.8747 208.77 12.8951 208.541 12.2314C208.363 11.7167 208.321 11.7708 208.23 12.631C208.135 13.5211 208.081 13.5836 207.721 13.2239C207.5 13.0027 207.205 12.8927 207.064 12.9793C206.924 13.0659 206.637 12.9939 206.427 12.8193C206.116 12.5612 205.997 12.6188 205.794 13.1272L205.543 13.7527L205.506 13.0913C205.485 12.7275 205.404 12.5921 205.325 12.7905C205.204 13.095 205.142 13.095 204.929 12.7905C204.734 12.5124 204.645 12.5051 204.542 12.7584C204.449 12.9877 204.266 13.0105 203.936 12.8339C203.676 12.6947 203.382 12.6615 203.283 12.7602C203.016 13.0279 200.218 13.0006 200.218 12.7303C200.218 12.6021 200.02 12.6607 199.778 12.8604C199.434 13.1449 199.314 13.1515 199.227 12.8911C199.165 12.7083 198.98 12.6421 198.815 12.744C198.375 13.0156 197.043 13.0358 197.043 12.7708C197.043 12.6458 196.79 12.679 196.48 12.8447C196.041 13.0796 195.867 13.0671 195.687 12.7879C195.496 12.4916 195.41 12.4982 195.191 12.8267C194.994 13.1229 194.874 13.1432 194.721 12.9068C194.595 12.7122 194.375 12.6773 194.15 12.8162C193.949 12.9406 193.636 12.9857 193.456 12.9165C193.276 12.8473 193.045 12.9255 192.943 13.0905C192.813 13.2998 192.601 13.2489 192.24 12.9218C191.852 12.5708 191.61 12.5216 191.274 12.7255C190.749 13.0445 188.869 13.0391 188.349 12.7175C188.124 12.5784 187.905 12.6289 187.767 12.8518C187.591 13.1372 187.511 13.1174 187.372 12.7535C187.157 12.1928 186.724 12.1536 186.724 12.6948C186.724 13.1956 186.437 13.1982 185.783 12.7028C185.103 12.1883 184.879 12.202 184.842 12.7604C184.812 13.2014 184.805 13.2014 184.69 12.7604C184.58 12.338 184.439 12.2599 183.891 12.317C183.787 12.3278 183.628 12.1237 183.536 11.8636C183.423 11.5414 183.312 11.7572 183.187 12.5408C183.086 13.1734 182.951 13.639 182.887 13.5754C182.823 13.5118 182.597 12.8113 182.384 12.0187C182.01 10.6273 181.996 10.6118 181.979 11.5698C181.97 12.1155 181.843 12.562 181.697 12.562C181.552 12.562 181.433 12.7661 181.433 13.0156C181.433 13.4357 181.401 13.4372 181 13.036C180.707 12.7438 180.384 12.6675 180.007 12.8018C179.315 13.0482 177.973 13.0131 177.53 12.7371C177.344 12.6209 177.199 12.6533 177.199 12.8111C177.199 12.9652 177.021 13.0913 176.803 13.0913C176.584 13.0913 176.406 12.9059 176.406 12.6794C176.406 12.3066 176.35 12.3066 175.818 12.6794C175.074 13.2002 174.554 13.2063 174.554 12.6944C174.554 12.1037 174.086 12.2146 173.884 12.8533C173.764 13.232 173.621 13.3229 173.437 13.1386C173.288 12.9898 173.001 12.9316 172.798 13.0093C172.596 13.087 172.247 12.9985 172.023 12.8128C171.682 12.5295 171.593 12.5633 171.473 13.0233L171.33 13.5715L170.775 13.0172C170.415 12.6567 170.184 12.5727 170.116 12.7771C169.986 13.1682 168.468 13.1964 168.468 12.8078C168.468 12.6519 168.29 12.3457 168.071 12.1274C167.719 11.7746 167.674 11.8135 167.666 12.4771C167.66 13.1027 167.616 13.15 167.394 12.7694C167.146 12.3439 167.076 12.3475 166.288 12.8266C165.511 13.2993 165.412 13.3056 164.973 12.909C164.642 12.6091 164.499 12.5805 164.499 12.814C164.499 12.9976 164.329 13.0823 164.12 13.0021C163.911 12.9219 163.68 12.9982 163.606 13.1723C163.516 13.3844 163.373 13.3313 163.171 13.0104C162.976 12.7018 162.76 12.6162 162.56 12.7685C162.39 12.8982 161.596 12.9886 160.795 12.9693C159.995 12.9501 159.191 13.0438 159.009 13.1775C158.77 13.3538 158.677 13.248 158.675 12.7929C158.671 12.2906 158.619 12.2445 158.414 12.5621C158.273 12.7804 158.154 12.8399 158.149 12.6944C158.145 12.5489 158.033 12.6016 157.9 12.8117C157.698 13.1302 157.536 13.1379 156.922 12.8583C156.293 12.5715 156.141 12.5855 155.871 12.9552C155.686 13.2071 155.487 13.2785 155.393 13.1262C155.304 12.9825 154.697 12.9006 154.045 12.9443C153.392 12.9879 152.858 12.9128 152.858 12.7773C152.858 12.6418 152.709 12.6239 152.527 12.7375C151.963 13.0898 151.535 13.0611 151.535 12.671C151.535 12.4656 151.416 12.2975 151.27 12.2975C151.125 12.2975 151.006 12.4872 151.006 12.719C151.006 13.0522 150.792 13.1159 149.985 13.0227C149.424 12.9579 148.829 12.8207 148.662 12.7179C148.469 12.5986 148.356 12.7522 148.35 13.1418L148.341 13.7527L147.963 13.0913C147.755 12.7274 147.581 12.5675 147.575 12.7358C147.57 12.9153 147.336 12.9816 147.01 12.8962C146.684 12.811 146.357 12.9032 146.22 13.1195C146.048 13.3907 145.983 13.3133 145.975 12.8267C145.964 12.2493 145.928 12.224 145.693 12.6282C145.36 13.1991 144.693 13.2313 144.484 12.6866C144.348 12.3323 144.288 12.3372 144.003 12.7267C143.775 13.0393 143.622 13.0809 143.49 12.8668C143.171 12.3507 142.539 12.5267 142.539 13.1318C142.539 13.6969 142.535 13.6964 141.997 13.0763C141.514 12.5199 141.392 12.4903 140.884 12.8073C140.477 13.0619 140.286 13.0778 140.214 12.8628C140.098 12.5159 139.364 12.4503 139.364 12.7869C139.364 13.0641 136.447 13.0207 135.991 12.7367C135.809 12.6235 135.66 12.6314 135.66 12.7544C135.66 12.8773 135.422 12.9779 135.131 12.9779C134.694 12.9779 134.596 12.7913 134.571 11.9101L134.541 10.8423L134.346 11.8479C134.141 12.905 133.543 13.8113 133.543 13.0643C133.543 12.5385 131.826 12.4779 131.402 12.9887C131.168 13.271 131.004 13.2892 130.731 13.0633C130.533 12.8988 130.119 12.8303 129.81 12.911C129.501 12.9917 129.018 12.916 128.736 12.7438C128.311 12.4839 128.175 12.5127 127.949 12.9113C127.684 13.3769 127.663 13.3769 127.307 12.9113C126.986 12.4917 126.904 12.4808 126.669 12.8267C126.435 13.1707 126.367 13.1727 126.154 12.8417C125.955 12.5327 125.778 12.519 125.228 12.7699C124.64 13.0377 124.547 13.0176 124.543 12.6226C124.54 12.2306 124.503 12.2219 124.283 12.5621C124.07 12.8916 124.024 12.8692 124.013 12.4298L123.999 11.9006L123.678 12.4298C123.345 12.9789 122.549 13.1211 121.956 12.7377C121.758 12.6097 121.46 12.644 121.249 12.819C120.988 13.0361 120.729 13.0425 120.335 12.8418C118.673 11.9965 118.727 12.0081 118.718 12.4937C118.71 12.9301 118.687 12.9291 118.345 12.4775C117.997 12.0181 117.968 12.0176 117.717 12.465C117.502 12.8498 117.383 12.8743 117.054 12.6017C116.725 12.3279 116.639 12.3501 116.566 12.7276C116.483 13.159 116.45 13.1583 116.007 12.7154C115.65 12.3584 115.451 12.3165 115.179 12.5415C114.934 12.7451 114.61 12.7574 114.145 12.5808C113.599 12.3731 113.453 12.4065 113.386 12.7547C113.31 13.1448 113.258 13.1416 112.839 12.7221C112.421 12.3045 112.359 12.3004 112.213 12.6816C112.101 12.9721 111.952 13.0236 111.738 12.8459C111.339 12.5143 110.262 12.5891 110.251 12.9492C110.247 13.1001 110.07 12.9951 109.859 12.7158C109.493 12.2328 109.45 12.2304 108.967 12.6669C108.622 12.9799 108.403 13.0328 108.279 12.8333C108.18 12.6723 107.871 12.6131 107.592 12.7015C106.888 12.9248 106.084 12.625 105.942 12.0867C105.861 11.7779 105.814 11.8325 105.793 12.2601C105.767 12.7892 105.661 12.8589 105.1 12.7181C104.659 12.6074 104.432 12.664 104.418 12.8879C104.406 13.0726 104.245 12.8819 104.06 12.4631C103.734 11.725 103.72 11.7202 103.568 12.2991C103.457 12.7252 103.285 12.8466 102.966 12.7243C102.721 12.6301 102.355 12.6903 102.152 12.858C101.865 13.0963 101.677 13.0386 101.292 12.5942L100.799 12.0255L100.643 12.6206C100.489 13.208 100.482 13.209 100.101 12.6905C99.7367 12.1958 99.7036 12.1928 99.5304 12.6397C99.3611 13.0766 99.3094 13.0806 98.8775 12.6897C98.5056 12.3532 98.3754 12.3371 98.2487 12.6121C98.1232 12.8847 98.0559 12.8881 97.9347 12.6283C97.6877 12.0992 97.2952 12.2462 97.2952 12.8677C97.2952 13.431 97.2884 13.4318 96.7274 12.9338C96.3222 12.5741 96.1267 12.5238 96.0447 12.7582C95.9128 13.1351 95.3813 12.7202 95.1097 12.0282C95.0197 11.799 94.9471 11.9384 94.9349 12.3637C94.9234 12.7639 94.8047 13.0913 94.6711 13.0913C94.1024 13.0913 93.5896 12.7393 93.5696 12.3354C93.5571 12.0816 93.3968 12.2311 93.1847 12.6944C92.9848 13.131 92.8158 13.332 92.8093 13.1411C92.8009 12.8962 92.5335 12.836 91.9006 12.9366C91.1415 13.0572 90.9747 12.9887 90.8142 12.4899C90.6518 11.9852 90.6068 11.9675 90.5003 12.3669C90.432 12.6234 90.266 12.7652 90.1315 12.682C89.997 12.5989 89.8869 12.6715 89.8869 12.8435C89.8869 13.0764 89.7858 13.0722 89.49 12.8267C89.2158 12.5991 89.0932 12.5891 89.0932 12.7943C89.0932 12.9576 88.9146 13.0913 88.6963 13.0913C88.4519 13.0913 88.2994 12.8431 88.2994 12.4454C88.2994 12.0902 88.1804 11.726 88.0348 11.6361C87.8893 11.5462 87.7703 11.6581 87.7703 11.885C87.7703 12.1119 87.6512 12.2975 87.5057 12.2975C87.3601 12.2975 87.2411 12.4999 87.2411 12.7473C87.2411 13.0972 87.1705 13.1265 86.9236 12.8796C86.4461 12.4021 86.1868 12.4948 86.1467 13.1574C86.1148 13.6855 86.0986 13.693 86.0041 13.2235C85.8913 12.6635 84.5232 11.8522 84.3859 12.2639C84.3416 12.397 84.0729 12.4451 83.7888 12.3708C83.5048 12.2965 83.2723 12.3484 83.2723 12.4861C83.2723 12.8158 82.137 12.7696 81.8873 12.4298C81.7686 12.2682 81.6914 12.3 81.6889 12.5115C81.6867 12.702 81.5658 12.7843 81.4202 12.6944C81.2747 12.6045 81.1557 12.657 81.1557 12.811C81.1557 13.263 80.4126 13.1325 80.1147 12.6282C79.8648 12.2052 79.8269 12.2162 79.6749 12.7563L79.5087 13.3474L78.8108 12.7972C78.2087 12.3225 78.1012 12.305 78.0274 12.6691C77.9233 13.1831 77.951 13.1824 77.0187 12.6954C76.3408 12.3414 76.2285 12.3433 75.9536 12.7139C75.6766 13.0874 75.6218 13.0844 75.3971 12.6827C75.193 12.3179 75.045 12.2923 74.5799 12.5413C74.2675 12.7085 74.0119 12.7773 74.0119 12.6943C74.0119 12.6113 73.7738 12.6708 73.4827 12.8266C73.1034 13.0296 72.9536 13.0278 72.9536 12.8206C72.9536 12.6602 72.8097 12.6201 72.6307 12.7306C72.0512 13.0888 67.9265 12.9998 67.9265 12.6292C67.9265 12.4469 67.7479 12.2977 67.5296 12.2977C67.2956 12.2977 67.1311 12.5421 67.1287 12.893C67.1257 13.3406 67.0666 13.3967 66.8908 13.1191C66.7622 12.916 66.4664 12.823 66.2334 12.9124C65.9635 13.0159 65.8098 12.9338 65.8098 12.6863C65.8098 12.4726 65.661 12.3275 65.4791 12.3639C65.2489 12.4099 65.0582 11.6659 64.8519 9.91651C64.6071 7.84147 64.5453 7.63374 64.4979 8.72587C64.4664 9.45348 64.3617 10.6441 64.2653 11.3717C64.1073 12.564 64.0247 12.6935 63.4286 12.6833C63.0648 12.6773 62.6778 12.7961 62.5687 12.9479C62.4376 13.1302 62.2896 13.0985 62.1324 12.8545C62.0015 12.6514 61.7184 12.5527 61.5032 12.6353C61.2879 12.7179 60.9782 12.6519 60.815 12.4887C60.5956 12.2693 60.5182 12.3936 60.5182 12.9651V13.7384L60.0795 13.1121C59.6755 12.5353 59.6149 12.5214 59.3115 12.9363C59.0077 13.3518 58.9489 13.3394 58.5531 12.7761L58.124 12.1654L57.9657 12.7669C57.8164 13.334 57.7857 13.3416 57.4264 12.8992C57.1255 12.5287 57.0143 12.5059 56.8977 12.7906C56.79 13.0534 56.5792 12.9525 56.1205 12.4187L55.4911 11.6862V12.3888C55.4911 13.1931 55.1179 13.3076 54.7105 12.6284C54.4464 12.1881 54.419 12.1884 54.1519 12.6344C53.7886 13.2406 53.3744 12.9777 53.3744 12.1409C53.3744 11.5677 53.3082 11.5212 52.8453 11.769C52.5542 11.9247 52.3161 12.2861 52.3161 12.572C52.3161 12.858 52.2068 13.0919 52.0731 13.0919C51.5007 13.0919 50.9925 12.7392 50.9838 12.336C50.9773 12.0325 50.8603 12.1009 50.5963 12.5627L50.2182 13.2242L50.1879 12.4304C50.1706 11.9773 50.0914 11.807 50.0033 12.0335C49.7667 12.642 49.0606 13.1023 48.5458 12.9836C48.2911 12.9249 48.0828 12.9993 48.0828 13.1491C48.0828 13.7524 47.2865 12.7189 47.2494 12.0673L47.2097 11.3721L47.0995 12.0997C47.0383 12.5038 46.8206 12.8273 46.61 12.8273C46.4014 12.8273 46.2289 12.9761 46.2266 13.158C46.2237 13.3944 46.1559 13.3834 45.9887 13.1195C45.8601 12.9164 45.5643 12.8234 45.3313 12.9128C45.0892 13.0057 44.8988 12.9372 44.8869 12.7529C44.8717 12.5194 44.8281 12.5248 44.7288 12.7722C44.6168 13.0515 44.516 13.0515 44.1775 12.7722C43.8493 12.5013 43.7403 12.499 43.6521 12.7612C43.4321 13.4148 43.0856 13.073 42.9817 12.0997C42.89 11.2412 42.8481 11.1877 42.6703 11.7029C42.5573 12.0303 42.3596 12.2982 42.2311 12.2982C42.1025 12.2982 41.9955 12.5661 41.9933 12.8935C41.9903 13.3354 41.9297 13.3948 41.7583 13.1242C41.6313 12.9236 41.395 12.8414 41.2332 12.9414C41.0714 13.0414 40.939 12.9929 40.939 12.8337C40.939 12.6295 40.7696 12.6348 40.3646 12.8515C39.8887 13.1063 39.73 13.0765 39.4386 12.678C39.1215 12.2444 39.0869 12.2411 39.0869 12.6445C39.0869 13.1744 38.793 13.2196 38.3283 12.7612C38.0595 12.4961 37.9145 12.5355 37.5975 12.9597C37.2278 13.4545 37.1803 13.4594 36.8653 13.0351C36.6023 12.6807 36.4586 12.6512 36.2092 12.9006C35.9598 13.1499 35.8352 13.1334 35.6404 12.8251C35.4946 12.5945 35.3892 12.5599 35.3868 12.742C35.3828 13.0538 34.0512 13.0167 33.5226 12.69C33.3795 12.6015 33.1898 12.7183 33.101 12.9496C32.9763 13.2747 32.8568 13.3012 32.5737 13.0663C32.3724 12.8992 32.2059 12.8664 32.2037 12.9934C32.2015 13.1203 32.0842 13.0456 31.9432 12.8273C31.7722 12.5627 31.6853 12.5407 31.6826 12.7612C31.6765 13.2593 30.8722 13.1584 30.3867 12.5986C30.0684 12.2316 29.8063 12.1616 29.3635 12.3255C29.0361 12.4466 28.7598 12.6984 28.7496 12.885C28.7393 13.0716 28.6287 12.9861 28.5036 12.6951C28.318 12.2631 28.2728 12.2482 28.2576 12.6138C28.2445 12.9295 28.0671 13.0285 27.6563 12.9494C27.3358 12.8877 26.9764 12.9838 26.8575 13.163C26.6952 13.4078 26.5503 13.3697 26.275 13.01C26.0699 12.742 25.8386 12.6444 25.7496 12.7883C25.6622 12.9297 25.2341 12.9892 24.7982 12.9205C24.1685 12.8213 24.0014 12.894 23.9848 13.2745C23.9685 13.647 23.9303 13.6652 23.8128 13.3565C23.48 12.4822 22.7867 12.3475 22.5447 13.1102C22.388 13.6037 22.3399 13.6152 22.056 13.2269C21.8057 12.8847 21.5966 12.851 21.0389 13.0631C20.5272 13.2576 20.3006 13.2439 20.2035 13.0126C20.1132 12.7976 19.9367 12.8609 19.6567 13.2087C19.2496 13.7144 19.2432 13.7138 19.2432 13.1734C19.2432 12.2956 18.265 12.205 17.9538 13.0539C17.7926 13.4937 17.6897 13.585 17.6766 13.2997C17.65 12.7215 16.5973 12.0926 16.5973 12.6549C16.5973 13.0565 15.8849 13.3423 15.3406 13.1592C15.1587 13.098 14.9972 12.7304 14.9817 12.3423L14.9536 11.6368L14.6661 12.3644C14.508 12.7645 14.2848 13.092 14.1701 13.092C14.0554 13.092 13.8786 12.7645 13.777 12.3644L13.5924 11.6368L13.3663 12.5013C13.158 13.2979 13.0942 13.3405 12.5537 13.0432C11.7525 12.6025 11.3057 12.5525 11.3057 12.9037C11.3057 13.1098 11.2125 13.1046 10.9945 12.8866C10.7796 12.6717 10.5822 12.6593 10.3566 12.8465C10.1317 13.0331 9.97342 13.0262 9.84867 12.8244C9.72775 12.6288 9.54658 12.6905 9.30436 13.01C8.96514 13.4574 8.93937 13.4454 8.91199 12.8274C8.89589 12.4636 8.82239 12.3155 8.74869 12.4983C8.67499 12.6811 8.5058 12.7634 8.37271 12.6812C8.23962 12.5989 8.13072 12.6712 8.13072 12.8427C8.13072 13.0328 7.90464 13.0946 7.54917 13.0016C7.22932 12.918 6.81592 12.9754 6.63051 13.1293C6.38617 13.3321 6.17045 13.2862 5.84669 12.9624C5.44718 12.5629 5.37569 12.5591 5.17003 12.9266C5.00448 13.2224 4.77555 13.277 4.35259 13.1214C3.46864 12.7963 1.82567 12.8052 1.62111 13.1361C1.50869 13.318 1.30891 13.1903 1.09093 12.797C0.764879 12.2088 0.73635 12.2018 0.67071 12.6951C0.63201 12.9861 0.536164 8.99754 0.457804 3.83155C0.358104 -2.74361 0.314824 0.1533 0.313654 13.4888C0.312654 26.9546 0.355252 29.8243 0.459642 23.2784C0.540842 18.1852 0.633203 13.9882 0.664843 13.9519L0.664598 13.9518Z" fill="black"/>
</svg>
