<svg width="465" height="33" viewBox="0 0 465 33" fill="none" xmlns="http://www.w3.org/2000/svg">
<path d="M0.766853 18.7875C0.974123 18.5378 1.15497 18.5087 1.34149 18.6952C1.52801 18.8817 1.76469 18.8307 2.09354 18.5331C2.51501 18.1517 2.5734 18.1486 2.5734 18.5073C2.5734 18.9536 3.38044 19.0043 3.69383 18.5777C3.80074 18.4322 3.90385 18.8489 3.92296 19.5037C3.94206 20.1586 4.00806 20.4563 4.0696 20.1652C4.48012 18.224 4.41602 18.333 4.82714 18.8759C5.18344 19.3464 5.20303 19.3381 5.21487 18.71C5.22487 18.1788 5.27957 18.1267 5.49271 18.4455C5.72334 18.7904 5.79489 18.7798 6.03918 18.3646C6.24183 18.0203 6.41242 17.9634 6.65042 18.1609C6.9306 18.3934 7.68197 18.6133 8.46038 18.6904C8.56952 18.7012 8.66064 18.9184 8.66287 19.1731C8.66687 19.5688 8.70417 19.5784 8.9234 19.2392C9.11804 18.938 9.18991 19.0655 9.22148 19.7683L9.26308 20.6944L9.42397 19.6934C9.51247 19.1429 9.69061 18.7066 9.81986 18.7238C9.94911 18.741 10.1665 18.5962 10.303 18.4019C10.4783 18.1523 10.5878 18.1374 10.676 18.3512C10.8304 18.7253 11.8303 18.4963 11.8432 18.0838C11.8482 17.9189 11.9972 18.0374 12.1739 18.3471C12.4276 18.7917 12.6207 18.8631 13.0906 18.6864C13.418 18.5632 13.6859 18.3263 13.6859 18.16C13.6859 17.9937 13.8946 18.1154 14.1498 18.4304L14.6136 19.0033L15.2081 18.4494C15.7497 17.9449 15.8029 17.9377 15.8066 18.3689C15.81 18.7713 15.8491 18.7828 16.0672 18.4455C16.2294 18.1945 16.3251 18.1671 16.3277 18.3709C16.33 18.5527 16.5104 18.6248 16.7413 18.5362C16.9789 18.4451 17.3032 18.5873 17.5135 18.8749C17.8564 19.3438 17.8862 19.3305 18.0617 18.6312C18.231 17.9569 18.2867 17.9273 18.6935 18.2955C19.0936 18.6575 19.1997 18.6573 19.7201 18.2925C20.1096 18.0197 20.3005 17.988 20.3005 18.1964C20.3005 18.374 20.5214 18.4491 20.817 18.3718C21.101 18.2975 21.3896 18.3727 21.4583 18.5393C21.5429 18.7445 21.6735 18.7142 21.8638 18.4451C22.0182 18.2269 22.1481 18.1673 22.1526 18.3128C22.1571 18.4583 22.2761 18.3989 22.4172 18.1806C22.6299 17.8514 22.675 17.8739 22.6817 18.3128C22.6881 18.7334 22.7392 18.7641 22.9302 18.4622C23.1173 18.1665 23.2538 18.1513 23.5458 18.3938C23.7522 18.565 24.0091 18.6171 24.1168 18.5095C24.2244 18.4018 24.4814 18.5447 24.6877 18.8269C25.0142 19.2734 25.063 19.2819 25.063 18.8926C25.063 18.3901 25.277 18.3377 25.8498 18.6998C26.1069 18.8625 26.3082 18.8385 26.441 18.6296C26.5648 18.4348 26.6472 18.5675 26.6548 18.9743C26.6667 19.6028 26.6861 19.611 27.0431 19.1395C27.2497 18.8666 27.5944 18.7108 27.8091 18.7931C28.0237 18.8755 28.3314 18.7841 28.493 18.589C28.6545 18.3944 29.0204 18.2963 29.306 18.3711C29.75 18.4871 29.8323 18.7621 29.8722 20.262L29.9189 22.017L30.0706 20.2739C30.2103 18.6695 30.2697 18.5345 30.8177 18.5761C31.1451 18.601 31.4148 18.4924 31.417 18.3348C31.4196 18.149 31.4894 18.1412 31.6155 18.3129C31.8962 18.6949 32.8264 18.7253 33.0587 18.36C33.1977 18.1414 33.2607 18.1669 33.2694 18.4452C33.2789 18.7487 33.3733 18.7212 33.6704 18.3284C33.9014 18.0229 34.0588 17.954 34.0588 18.1583C34.0588 18.3549 34.2285 18.4367 34.4557 18.3495C34.6832 18.2622 34.8526 18.3445 34.8526 18.5417C34.8526 18.7312 35.0312 18.8862 35.2494 18.8862C35.4677 18.8862 35.6481 18.7572 35.6504 18.5995C35.6526 18.4419 35.7698 18.4915 35.9109 18.7098C36.0802 18.9717 36.1688 18.9947 36.1714 18.7775C36.1756 18.4334 36.8652 18.4453 37.4323 18.7992C37.6332 18.9246 37.7646 18.8696 37.767 18.6592C37.7699 18.4075 37.8412 18.4214 38.0276 18.7097C38.2477 19.0504 38.2846 19.0422 38.2881 18.6519C38.2907 18.3572 38.4318 18.2508 38.689 18.3495C38.9092 18.434 39.0859 18.3565 39.0859 18.1765C39.0859 17.9284 39.1852 17.9336 39.5043 18.1984C39.8336 18.4718 40.0306 18.4782 40.4303 18.2285C40.8448 17.9697 40.938 17.9832 40.938 18.3023C40.938 18.5173 41.0868 18.6386 41.2687 18.5719C41.827 18.3673 42.2126 18.803 42.3293 19.7704C42.433 20.6299 42.4437 20.6139 42.4831 19.5413C42.5164 18.6353 42.6104 18.4212 42.9224 18.5409C43.1406 18.6247 43.3192 18.5707 43.3192 18.4212C43.3192 18.2717 43.4281 18.2167 43.5612 18.2989C43.6943 18.3812 43.8729 18.2989 43.9581 18.116C44.0787 17.8573 44.1494 17.8636 44.2773 18.1444C44.416 18.4489 44.4772 18.4489 44.6701 18.1444C44.8626 17.8405 44.8993 17.8409 44.9027 18.1464C44.906 18.4391 44.9836 18.4457 45.3036 18.1802C45.632 17.9076 45.7032 17.9362 45.716 18.3462C45.7303 18.7999 45.757 18.8043 46.0325 18.399C46.3139 17.9853 46.3556 17.9853 46.6734 18.399C46.972 18.7877 47.0457 18.7933 47.2789 18.4447C47.515 18.092 47.5454 18.092 47.5526 18.4447C47.5598 18.7975 47.5892 18.7975 47.8172 18.4447C48.0451 18.092 48.0761 18.092 48.0963 18.4447C48.1115 18.7121 48.1931 18.6689 48.3463 18.3124C48.4714 18.0214 48.5821 17.9391 48.5923 18.1296C48.6025 18.3201 48.73 18.4023 48.8755 18.3124C49.021 18.2225 49.1419 18.3044 49.1441 18.4953C49.147 18.7469 49.2183 18.7331 49.4046 18.4447C49.6183 18.1141 49.6662 18.1362 49.6916 18.577C49.7169 19.0182 49.7572 18.9962 49.9338 18.4447L50.1457 17.7833L50.172 18.411C50.1942 18.938 50.2621 18.9859 50.5953 18.7093C50.889 18.4655 51.0844 18.4565 51.3472 18.6746C51.5425 18.8367 51.7806 18.891 51.8764 18.7952C51.9721 18.6995 52.0646 18.9684 52.0818 19.3928L52.1131 20.1645L52.2949 19.3708C52.395 18.9342 52.619 18.6068 52.7928 18.6432C52.9666 18.6796 53.1088 18.5757 53.1088 18.4124C53.1088 18.2072 53.2315 18.2172 53.5057 18.4447C53.8342 18.7174 53.9046 18.6888 53.9145 18.2787C53.9228 17.9359 54.0325 18.0278 54.2706 18.577L54.6148 19.3708L54.8235 18.4447C55.0122 17.6075 55.0527 17.5739 55.2453 18.0941C55.4406 18.6217 55.5383 18.645 56.4196 18.3745C57.1737 18.1431 57.4267 18.1535 57.5931 18.4226C57.752 18.6798 57.8533 18.6879 57.9973 18.4549C58.103 18.2839 58.356 18.208 58.5595 18.2861C58.7631 18.3642 58.9315 18.2831 58.9337 18.1057C58.9363 17.9018 59.032 17.9291 59.1942 18.1801C59.4222 18.5329 59.4541 18.5329 59.4811 18.1801C59.4979 17.9619 59.6069 18.0809 59.7234 18.4447L59.9352 19.1062L59.97 18.4447C60.0034 17.811 60.0208 17.8045 60.386 18.2869C60.7411 18.7561 60.7793 18.7591 60.9436 18.331C61.0766 17.9842 61.171 17.9538 61.3276 18.2072C61.4936 18.4759 61.6226 18.4705 61.9724 18.1803C62.3438 17.872 62.4457 17.8745 62.6499 18.1972C62.7999 18.4342 62.8918 18.4589 62.8943 18.2628C62.8965 18.09 63.1365 17.9412 63.4276 17.9321C63.7186 17.9231 64.1961 17.9083 64.4886 17.8994C64.7811 17.8904 65.2209 18.0837 65.4659 18.3287C65.8836 18.7463 65.9221 18.744 66.0811 18.2905C66.2427 17.83 66.2652 17.8316 66.5509 18.3242C66.8282 18.8022 66.8517 18.805 66.8591 18.3608C66.8651 18.0015 67.001 17.9225 67.3963 18.0479C67.7394 18.1568 67.932 18.0933 67.9441 17.8673C67.9543 17.6756 68.065 17.7569 68.1901 18.0479C68.3151 18.339 68.4258 18.4283 68.4361 18.2464C68.465 17.731 69.2479 17.8578 69.2524 18.3786C69.2558 18.7566 69.3004 18.7723 69.4953 18.4643C69.757 18.0508 70.8359 17.7871 70.8359 18.1367C70.8359 18.4118 71.9737 18.3839 72.1808 18.1038C72.2656 17.989 72.6424 18.012 73.0182 18.1548C73.5525 18.3579 73.7346 18.3277 73.8542 18.016C73.9465 17.7756 74.1391 17.699 74.3396 17.8229C74.5224 17.9359 74.9995 17.994 75.3998 17.952C75.8532 17.9044 76.1276 18.0029 76.1276 18.2131C76.1276 18.47 76.2012 18.4769 76.4359 18.2422C76.6705 18.0075 76.8265 18.0423 77.0889 18.3877C77.4017 18.7995 77.4352 18.7802 77.4505 18.1801C77.4667 17.5411 77.4805 17.5361 77.8558 18.0322C78.1072 18.3647 78.2442 18.4191 78.2442 18.1865C78.2442 17.5338 78.5831 18.1516 78.9276 19.4326C79.258 20.6609 79.2674 20.6696 79.2888 19.7676C79.3043 19.11 79.3798 18.9508 79.5492 19.2184C79.7274 19.5 79.81 19.3997 79.8759 18.8216C79.9405 18.2543 80.1228 18.0253 80.5593 17.9633C80.9173 17.9125 81.1563 18.0179 81.1587 18.2279C81.1618 18.4951 81.2191 18.4879 81.4031 18.1972C81.6023 17.8824 81.7149 17.8766 82.0605 18.1633C82.3397 18.3951 82.4776 18.4113 82.4776 18.2124C82.4776 17.6976 82.9632 17.8905 83.1501 18.4796C83.2908 18.9227 83.3788 18.9653 83.5608 18.6781C83.6882 18.4769 83.7942 18.4153 83.7964 18.5412C83.7985 18.6671 84.0981 18.575 84.4619 18.3367C85.0816 17.9307 85.1246 17.933 85.142 18.3724C85.1582 18.7805 85.1901 18.7727 85.388 18.3124C85.5131 18.0214 85.6237 17.939 85.634 18.1295C85.6442 18.32 85.7716 18.4023 85.9171 18.3124C86.0627 18.2225 86.1817 18.2777 86.1817 18.4351C86.1817 18.6013 86.4594 18.5395 86.8432 18.288C87.207 18.0497 87.5046 17.9769 87.5046 18.1262C87.5046 18.4191 88.1659 18.4008 88.4671 18.0996C88.7618 17.8049 89.8372 17.8872 90.043 18.2202C90.1734 18.4313 90.3407 18.3751 90.5877 18.0373C90.7894 17.7616 90.9442 17.6935 90.9442 17.8806C90.9442 18.0625 91.0633 18.1377 91.2088 18.0478C91.3543 17.9579 91.4734 18.0033 91.4734 18.1488C91.4734 18.2978 91.7902 18.249 92.1992 18.0368C92.8511 17.6985 92.9434 17.7069 93.1066 18.1185C93.2065 18.3706 93.2967 18.4281 93.3069 18.2462C93.3297 17.8401 94.2852 17.8064 94.5304 18.2031C94.6559 18.4063 94.7907 18.4081 94.9895 18.2091C95.1882 18.0103 95.3736 18.0131 95.6211 18.2181C95.8781 18.4314 95.9713 18.4255 95.9713 18.1962C95.9713 18.0243 96.0904 17.9571 96.2359 18.0471C96.3814 18.137 96.5005 18.1112 96.5005 17.9896C96.5005 17.868 96.9767 17.8139 97.5588 17.8695C98.3191 17.942 98.6195 18.093 98.6256 18.4057C98.6327 18.7756 98.6923 18.7638 99.0224 18.3272C99.407 17.8188 99.4111 17.8188 99.4295 18.3272C99.4444 18.739 99.4838 18.7594 99.6279 18.4302C99.8169 17.9988 101.131 17.8978 101.726 18.2689C101.927 18.3942 102.058 18.3392 102.061 18.1289C102.064 17.8772 102.135 17.891 102.321 18.1793C102.511 18.4725 102.579 18.4848 102.582 18.2265C102.585 17.9746 102.711 18.0022 103.034 18.3252C103.455 18.7464 103.494 18.7435 103.677 18.278C103.861 17.8085 103.874 17.8103 103.909 18.3117L103.946 18.8408L104.173 18.3117L104.401 17.7825L104.428 18.3117C104.454 18.8285 104.464 18.8291 104.835 18.3385C105.149 17.9232 105.285 17.8945 105.62 18.1725C105.935 18.4337 106.11 18.4384 106.405 18.1934C106.843 17.8302 107.866 18.2359 107.894 18.784C107.904 18.9608 108.036 18.8078 108.189 18.4439C108.375 18.0021 108.512 17.9022 108.601 18.1431C108.708 18.4293 108.778 18.4345 108.943 18.1684C109.212 17.7334 110.803 17.7784 111.089 18.229C111.211 18.4215 111.311 18.4486 111.313 18.2897C111.318 17.9287 112.135 17.9017 112.574 18.2479C112.779 18.4094 112.905 18.4124 112.905 18.2559C112.905 18.1168 113.083 18.003 113.302 18.003C113.52 18.003 113.7 18.132 113.702 18.2896C113.705 18.4473 113.822 18.3977 113.963 18.1794C114.178 17.8469 114.22 17.8642 114.224 18.2865C114.227 18.7722 114.247 18.7733 114.752 18.3161C115.117 17.9854 115.378 17.9214 115.612 18.1046C115.796 18.2492 116.215 18.433 116.543 18.5132C117.006 18.6265 117.138 18.5448 117.138 18.1453C117.138 17.7136 117.222 17.6768 117.667 17.9148C117.958 18.0705 118.198 18.1045 118.2 17.9903C118.203 17.876 118.32 17.9611 118.461 18.1794C118.677 18.5141 118.718 18.5165 118.721 18.195C118.724 17.9216 118.835 17.959 119.114 18.3273C119.465 18.792 119.503 18.7968 119.511 18.3779C119.515 18.1232 119.685 17.9149 119.888 17.9149C120.091 17.9149 120.337 18.1232 120.436 18.3779C120.605 18.8144 120.634 18.8149 120.95 18.3869C121.214 18.0282 121.356 18.0005 121.625 18.2546C121.894 18.5077 121.995 18.4994 122.098 18.2155C122.209 17.911 122.265 17.911 122.458 18.2155C122.645 18.511 122.688 18.5044 122.694 18.1793C122.701 17.8265 122.731 17.8265 122.963 18.1793C123.194 18.532 123.255 18.532 123.508 18.1793C123.723 17.8804 123.826 17.8641 123.927 18.1132C124.121 18.5902 124.489 18.5197 124.619 17.9809C124.711 17.5994 124.781 17.6343 125.018 18.1793C125.177 18.5431 125.314 18.6988 125.323 18.5252C125.333 18.3451 125.59 18.2578 125.923 18.3219C126.243 18.3836 126.6 18.2875 126.717 18.1083C126.881 17.8547 126.979 17.862 127.159 18.1415C127.414 18.5372 128.501 18.3255 128.846 17.8129C128.984 17.6071 129.123 17.6378 129.305 17.9148C129.448 18.133 129.569 18.1926 129.573 18.0471C129.578 17.9015 129.708 17.9611 129.862 18.1793C130.073 18.478 130.176 18.4944 130.277 18.2454C130.545 17.584 130.897 17.9383 130.934 18.9069L130.971 19.8991L131.132 18.973C131.266 18.2033 131.405 18.0476 131.955 18.0504C132.318 18.0524 132.735 17.9728 132.881 17.8738C133.313 17.5812 134.017 18.2765 134.141 19.1179C134.242 19.8024 134.262 19.7744 134.296 18.8913C134.321 18.2665 134.441 17.9483 134.612 18.0542C134.764 18.1481 135.062 18.081 135.274 17.9051C135.587 17.6446 135.66 17.6771 135.663 18.0808C135.666 18.4975 135.708 18.5131 135.923 18.1793C136.137 17.8485 136.186 17.8705 136.215 18.3117C136.246 18.7937 136.261 18.7972 136.375 18.3513C136.471 17.9797 136.687 17.8891 137.271 17.9748C137.694 18.0369 138.04 17.9768 138.04 17.8406C138.04 17.7047 138.248 17.6812 138.503 17.7883C138.758 17.8955 139.204 18.0067 139.495 18.0357C139.909 18.0768 140.059 18.3437 140.183 19.2583L140.342 20.4283L140.382 19.0393C140.403 18.2753 140.54 17.6502 140.686 17.6502C140.831 17.6502 140.952 17.8586 140.955 18.1132C140.957 18.3985 141.033 18.4647 141.153 18.2855C141.404 17.9098 142.349 17.9098 142.6 18.2855C142.725 18.4731 142.796 18.4341 142.799 18.1754C142.802 17.8583 143.136 17.7818 144.399 17.8092C145.276 17.8282 146.069 17.9182 146.16 18.0092C146.251 18.1003 146.486 18.0422 146.681 17.8801C146.96 17.648 147.039 17.7187 147.053 18.2131L147.069 18.8408L147.307 18.2499C147.539 17.6727 148.359 17.6546 148.359 18.2265C148.359 18.3669 148.559 18.2814 148.804 18.0366C149.216 17.6247 149.273 17.6239 149.566 18.0255C149.858 18.4244 149.898 18.4214 150.066 17.9887C150.238 17.5453 150.271 17.5479 150.627 18.0315C150.896 18.3976 151.006 18.4356 151.009 18.1638C151.012 17.8422 151.053 17.8447 151.269 18.1794C151.497 18.5322 151.528 18.5322 151.548 18.1794C151.564 17.912 151.645 17.9552 151.798 18.3117C152.001 18.784 152.028 18.7894 152.044 18.3621C152.055 18.0989 152.182 17.9571 152.328 18.0471C152.473 18.137 152.592 18.0874 152.592 17.937C152.592 17.6104 154.232 17.8774 154.474 18.2431C154.562 18.378 154.701 18.3155 154.783 18.1043C154.895 17.8119 156.164 17.6253 156.164 17.9013C156.164 18.0675 157.955 18.0136 158.06 17.8444C158.129 17.7328 158.321 17.7257 158.487 17.8284C158.654 17.9312 159.201 17.9877 159.703 17.9538C160.223 17.9188 160.71 18.0395 160.834 18.2343C161.01 18.5126 161.051 18.5117 161.055 18.2302C161.057 18.0398 161.178 17.9575 161.323 18.0474C161.469 18.1373 161.588 18.1147 161.588 17.997C161.589 17.8792 162.482 17.7774 163.573 17.7707C164.783 17.7637 165.558 17.8665 165.561 18.0353C165.563 18.1875 165.68 18.1335 165.821 17.9152C165.984 17.6642 166.079 17.6369 166.082 17.8407C166.084 18.0271 166.265 18.0945 166.509 18.0006C166.742 17.9112 167.038 18.0046 167.167 18.2073C167.365 18.5201 167.401 18.5183 167.405 18.1953C167.408 17.9219 167.519 17.9593 167.797 18.3276C168.173 18.824 168.187 18.8191 168.215 18.1798C168.231 17.816 168.305 17.6679 168.378 17.8507C168.452 18.0335 168.619 18.1173 168.749 18.0369C168.879 17.9565 169.226 18.0195 169.52 18.1768C169.921 18.3916 170.055 18.3821 170.055 18.1385C170.055 17.96 170.215 18.0335 170.411 18.3016C170.658 18.6394 170.825 18.6956 170.956 18.4845C171.342 17.859 171.642 18.2151 171.646 19.3043C171.648 19.9227 171.766 20.6074 171.907 20.8256C172.088 21.1066 172.166 20.7587 172.171 19.635C172.177 18.5112 172.254 18.1634 172.436 18.4444C172.637 18.7561 172.693 18.7633 172.696 18.478C172.699 18.1853 172.777 18.1788 173.097 18.4444C173.316 18.6255 173.494 18.9448 173.494 19.1538C173.494 19.8514 174.023 19.2179 174.044 18.4949C174.056 18.1033 174.125 17.9317 174.199 18.1136C174.343 18.4722 175.082 18.5758 175.082 18.2375C175.082 18.1237 175.379 18.0059 175.743 17.9758C176.107 17.9457 176.405 18.019 176.405 18.1386C176.405 18.2583 176.583 18.3562 176.802 18.3562C177.02 18.3562 177.198 18.2697 177.198 18.164C177.198 17.7487 177.999 17.6956 178.389 18.085C178.722 18.4182 178.877 18.4338 179.198 18.1668C179.523 17.8973 179.66 17.9242 179.945 18.3133C180.336 18.8488 180.898 18.6466 180.911 17.9657C180.918 17.5732 180.954 17.5791 181.206 18.0131C181.42 18.3817 181.546 18.4234 181.698 18.1766C181.845 17.9391 181.952 17.9981 182.074 18.385C182.25 18.9392 183.019 19.4182 183.019 18.9736C183.019 18.8372 183.189 18.7907 183.396 18.8703C183.604 18.9499 183.861 19.5117 183.969 20.1188L184.164 21.2226L184.476 19.8996C184.775 18.6361 184.802 18.6064 185.078 19.2382L185.367 19.8996L185.402 19.2382C185.433 18.6639 185.464 18.643 185.635 19.0797C185.807 19.5182 185.878 19.4716 186.191 18.7161C186.524 17.9123 186.576 17.8843 186.901 18.3299C187.095 18.594 187.253 18.6841 187.253 18.5301C187.253 18.3648 187.686 18.2868 188.311 18.3398C188.893 18.3892 189.369 18.3138 189.369 18.1724C189.369 17.7062 189.898 17.9049 189.917 18.3783C189.933 18.7742 189.969 18.7646 190.163 18.3122C190.353 17.8707 190.393 17.8583 190.409 18.2376C190.42 18.5148 190.572 18.6369 190.798 18.5504C191.001 18.4723 191.247 18.5364 191.344 18.693C191.461 18.8828 191.659 18.8382 191.938 18.5592C192.278 18.2196 192.398 18.2068 192.579 18.491C192.749 18.7598 192.802 18.737 192.805 18.3935C192.808 18.0767 192.977 17.9781 193.385 18.0565C193.701 18.1175 194.032 18.2827 194.119 18.4235C194.324 18.7555 195.023 18.648 195.56 18.202C195.931 17.8939 195.986 17.9444 196.005 18.6104C196.016 19.0284 196.094 19.1973 196.177 18.9856C196.412 18.3881 197.134 17.7528 197.559 17.7686C197.771 17.7766 198.027 18.0806 198.128 18.4444C198.23 18.8082 198.324 18.9333 198.339 18.7222C198.359 18.4222 198.435 18.4083 198.685 18.6586C198.935 18.909 199.078 18.8485 199.337 18.3808C199.52 18.052 199.673 17.9318 199.679 18.1137C199.684 18.2956 199.87 18.4444 200.093 18.4444C200.316 18.4444 200.557 18.5979 200.629 18.7855C200.846 19.349 201.805 19.2786 201.805 18.6991C201.805 18.2704 201.904 18.2309 202.457 18.441C202.944 18.6262 203.213 18.5862 203.516 18.2833C203.88 17.9186 203.921 17.9359 203.921 18.4542C203.921 18.9359 204.029 19.0038 204.577 18.8664C205.13 18.7277 205.261 18.8142 205.412 19.4178L205.592 20.1337L205.851 19.4875L206.11 18.8413L206.294 19.5027C206.457 20.0854 206.504 20.0225 206.694 18.9736C206.813 18.3187 206.962 17.9318 207.025 18.1137C207.089 18.2956 207.54 18.4444 208.029 18.4444C208.517 18.4444 208.999 18.5762 209.098 18.7373C209.224 18.9414 209.348 18.9214 209.507 18.6712C209.691 18.3809 209.735 18.379 209.738 18.6621C209.74 18.8544 209.921 19.1904 210.139 19.4086C210.357 19.6269 210.547 20.1245 210.561 20.5142C210.579 20.9963 210.684 20.8068 210.892 19.9214C211.139 18.8675 211.31 18.6117 211.787 18.5769C212.229 18.5447 212.505 18.7936 212.889 19.5692L213.401 20.6043L213.851 19.6569C214.098 19.1358 214.406 18.7094 214.535 18.7094C214.664 18.7094 214.783 18.501 214.8 18.2464C214.827 17.8344 214.844 17.8319 214.947 18.2238C215.08 18.7252 215.828 19.1065 215.828 18.6728C215.828 18.5163 216.006 18.4567 216.224 18.5405C216.479 18.6382 216.621 18.5355 216.621 18.2537C216.621 17.8698 216.666 17.8762 216.98 18.305C217.2 18.6052 217.507 18.7307 217.774 18.6284C218.013 18.5366 218.209 18.573 218.209 18.7094C218.209 18.8458 218.387 18.8889 218.606 18.8051C218.838 18.7161 219.004 18.8021 219.007 19.0119C219.01 19.2889 219.069 19.2803 219.267 18.9741C219.453 18.687 219.525 18.925 219.528 19.8339C219.53 20.5252 219.651 21.0907 219.796 21.0907C219.942 21.0907 220.063 21.3586 220.065 21.6861C220.068 22.1674 220.118 22.2054 220.326 21.8845C220.538 21.5553 220.583 21.5778 220.59 22.0167C220.606 23.0414 221.111 21.8143 221.115 20.7411C221.119 19.8424 221.163 19.7741 221.516 20.1269C221.734 20.3452 221.915 20.9788 221.917 21.5349C221.92 22.2851 221.987 22.4435 222.178 22.1491C222.369 21.853 222.445 22.021 222.478 22.8105C222.516 23.7351 222.537 23.7686 222.645 23.0751C222.755 22.3746 222.795 22.3435 222.984 22.8105C223.172 23.2734 223.201 23.2485 223.217 22.6121C223.228 22.2119 223.342 21.8845 223.472 21.8845C223.804 21.8845 224.024 22.5565 224.063 23.692C224.096 24.6285 224.23 23.8835 224.722 20.0379C224.855 19.0023 224.916 18.9104 225.209 19.3103C225.662 19.9296 225.88 19.8855 225.891 19.1725C225.9 18.5847 225.905 18.5855 226.279 19.2386C226.507 19.6389 226.662 19.7434 226.67 19.5032C226.682 19.1504 226.713 19.1504 226.944 19.5032C227.162 19.8345 227.232 19.8021 227.367 19.3077C227.456 18.9819 227.627 18.7755 227.746 18.849C227.865 18.9225 228.041 18.855 228.138 18.6979C228.251 18.5145 228.443 18.5836 228.677 18.892C229.026 19.3523 229.04 19.3516 229.048 18.8754C229.055 18.4794 229.132 18.4421 229.43 18.6896C229.726 18.9352 229.89 18.875 230.224 18.3985L230.644 17.7979V18.4264V19.055L231.138 18.4853C231.706 17.8312 231.967 17.7632 231.967 18.27C231.967 18.465 232.265 18.7601 232.629 18.9259C233.193 19.1831 233.295 19.1601 233.322 18.7699C233.339 18.5183 233.555 19.3246 233.8 20.5615L234.247 22.8104L234.454 20.7409C234.625 19.0387 234.734 18.6991 235.068 18.8273C235.291 18.913 235.637 18.8474 235.837 18.6815C236.125 18.4426 236.201 18.4922 236.201 18.9199C236.201 19.6972 236.482 20.3177 236.757 20.1475C236.888 20.067 236.998 19.7402 237.003 19.4213C237.011 18.8831 237.036 18.8748 237.363 19.3047C237.798 19.8782 238.053 19.8964 238.053 19.3542C238.053 19.1078 238.24 18.9715 238.516 19.0169C238.77 19.0588 239.151 18.985 239.362 18.853C239.573 18.7209 240.022 18.6008 240.361 18.586C240.854 18.5644 241.036 18.7605 241.279 19.5712C241.477 20.2316 241.705 20.5365 241.934 20.4484C242.198 20.3473 242.29 20.6593 242.304 21.6942L242.321 23.075L242.696 21.8844C242.903 21.2295 243.073 20.3734 243.076 19.9818C243.078 19.5902 243.185 19.2045 243.314 19.1248C243.595 18.9513 243.853 19.8159 243.901 21.0906L243.936 22.0167L244.138 21.2229C244.3 20.5844 244.352 20.7655 244.403 22.1489C244.453 23.5323 244.505 23.7135 244.667 23.075C244.803 22.5397 244.89 23.2286 244.932 25.1917C244.974 27.1547 245.06 27.8437 245.196 27.3083C245.345 26.7232 245.415 26.6537 245.461 27.0438C245.507 27.4339 245.577 27.3643 245.726 26.7792C245.854 26.2736 245.945 27.2342 245.977 29.425C246.032 33.2922 246.369 33.2922 246.682 29.425C246.788 28.1153 246.923 27.2521 246.981 27.5068C247.16 28.2892 247.577 28.0197 247.594 27.1099C247.635 25.0046 248.057 21.8278 248.333 21.5519C248.56 21.3249 248.649 21.8078 248.689 23.4851L248.741 25.7208L248.832 23.8026C248.883 22.7476 249.038 21.8844 249.177 21.8844C249.316 21.8844 249.432 21.4379 249.434 20.8922C249.437 20.1541 249.503 20.0017 249.694 20.2969C249.835 20.5152 249.953 21.676 249.955 22.8765C249.957 24.1527 250.069 25.0593 250.223 25.0593C250.369 25.0593 250.488 25.5815 250.488 26.2196C250.488 26.8578 250.662 27.7805 250.875 28.2702L251.261 29.1604L251.271 27.9367C251.277 27.2637 251.364 26.3112 251.464 25.82C251.638 24.9693 251.655 24.9584 251.812 25.5885C251.913 25.9928 252.049 25.2727 252.162 23.7365C252.263 22.354 252.44 20.8735 252.556 20.4464C252.808 19.5149 253.398 19.22 253.398 20.0258C253.398 20.3376 253.512 20.5227 253.65 20.4371C253.796 20.347 253.942 20.9811 253.996 21.9428L254.09 23.6041L254.145 21.6198C254.184 20.2262 254.277 19.7536 254.457 20.0323C254.661 20.349 254.719 20.2956 254.744 19.7677L254.774 19.1063L254.973 19.7677C255.173 20.4279 255.173 20.4276 255.293 19.6354L255.413 18.8417L255.729 19.5865C255.902 19.9962 256.049 20.9486 256.055 21.7031C256.061 22.4577 256.218 24.087 256.403 25.3239L256.74 27.5729L256.921 26.2792C257.021 25.5677 257.102 24.2679 257.102 23.3908C257.102 22.5138 257.186 21.8793 257.287 21.9809C257.389 22.0824 257.623 21.894 257.807 21.562C258.116 21.0052 258.143 21.0546 258.151 22.1995C258.16 23.4424 258.669 24.3072 258.714 23.1568C258.733 22.6724 258.79 22.726 258.988 23.4152C259.258 24.3515 259.735 24.3361 259.769 23.39C259.801 22.5123 260.009 23.2162 260.394 25.5064C260.655 27.0582 260.75 27.3148 260.774 26.5366C260.825 24.9163 261.113 25.6192 261.33 27.8903L261.526 29.9541L261.567 28.3666C261.593 27.3983 261.695 26.9154 261.83 27.1284C262.092 27.542 262.388 25.4281 262.392 23.119C262.394 22.0035 262.486 21.6057 262.725 21.6842C262.907 21.7439 263.108 22.1408 263.171 22.5662C263.279 23.2835 263.298 23.2628 263.44 22.2812C263.532 21.6412 263.721 21.249 263.919 21.289C264.099 21.3254 264.246 21.1681 264.246 20.9394C264.246 20.2463 265.034 21.1941 265.071 21.9316C265.093 22.3851 265.133 22.4238 265.223 22.0795C265.29 21.8231 265.455 21.6813 265.589 21.7644C265.724 21.8475 265.834 21.6186 265.834 21.2557C265.834 20.8928 265.972 20.2607 266.14 19.851C266.388 19.248 266.468 19.1974 266.559 19.585C266.665 20.0308 266.717 20.0346 267.319 19.6402C267.674 19.4072 268.081 19.288 268.222 19.3754C268.364 19.4628 268.48 19.3418 268.48 19.1063C268.48 18.8708 268.599 18.7518 268.744 18.8417C268.89 18.9316 269.017 18.8497 269.027 18.6588C269.038 18.4683 269.148 18.5506 269.273 18.8417C269.432 19.2103 269.512 19.2504 269.538 18.974C269.564 18.6975 269.644 18.7377 269.802 19.1063C269.997 19.5588 270.033 19.5684 270.048 19.1724C270.076 18.4904 270.591 18.6081 270.627 19.3046C270.65 19.7577 270.687 19.7885 270.779 19.4337C270.846 19.1772 271.011 19.0355 271.145 19.1186C271.28 19.2017 271.392 19.1136 271.394 18.9234C271.397 18.6689 271.473 18.6823 271.679 18.9739C271.891 19.2741 271.992 19.2899 272.094 19.0384C272.324 18.4714 272.712 18.9626 272.734 19.8494L272.756 20.6937L273.119 19.8999C273.319 19.4634 273.488 19.2352 273.495 19.3928C273.521 20.0128 274.3 19.6612 274.3 19.0297C274.3 18.4846 274.364 18.4325 274.694 18.7065C274.91 18.8861 275.276 18.9607 275.507 18.8722C275.957 18.6993 276.819 19.0733 277.47 19.7244C277.83 20.0844 277.881 20.08 277.958 19.6826C278.143 18.72 279.054 19.6786 279.088 20.8732C279.111 21.6714 279.142 21.6352 279.419 20.4793C279.587 19.7794 279.789 19.2436 279.868 19.2887C279.947 19.3338 280.326 19.1654 280.709 18.9144L281.405 18.4581L281.594 19.3114C281.76 20.0583 281.81 20.0986 281.992 19.6353C282.153 19.228 282.211 19.3499 282.248 20.1645L282.294 21.2229L282.55 20.0776C282.723 19.3045 282.919 18.9758 283.155 19.066C283.346 19.1395 283.727 18.9909 284 18.7359C284.554 18.2205 285.148 18.2867 285.148 18.8637C285.148 19.0698 285.267 19.2385 285.413 19.2385C285.558 19.2385 285.691 19.804 285.708 20.4953L285.738 21.752L285.937 20.7215C286.053 20.1185 286.397 19.4892 286.766 19.2044C287.381 18.7299 287.408 18.731 287.841 19.2485L288.285 19.7793L288.659 19.246C289.101 18.615 289.374 18.7995 289.4 19.7456C289.417 20.3649 289.44 20.3794 289.646 19.9C289.82 19.4954 289.879 19.651 289.896 20.5614C289.921 21.8873 290.229 22.5748 290.675 22.2995C290.87 22.1788 290.975 22.4566 290.986 23.1255C291.01 24.5668 291.377 23.5531 291.627 21.3552C291.735 20.4093 291.884 19.5334 291.958 19.4087C292.201 19.0024 292.548 19.8753 292.574 20.9583L292.601 22.0166L293.224 20.6937C293.567 19.9661 293.856 19.5494 293.867 19.7677C293.885 20.1204 293.916 20.1204 294.144 19.7677C294.362 19.4312 294.401 19.4436 294.405 19.8494C294.408 20.1127 294.528 20.2545 294.673 20.1646C294.819 20.0747 294.938 19.77 294.938 19.4875C294.938 18.94 295.326 18.7969 295.602 19.2429C295.693 19.3908 295.879 19.4432 296.015 19.3595C296.15 19.2758 296.281 19.6608 296.305 20.2151L296.35 21.2229L296.454 20.2252C296.511 19.6764 296.67 19.2965 296.806 19.3809C296.943 19.4653 297.055 19.3348 297.055 19.091C297.055 18.7632 297.224 18.68 297.703 18.7716C298.208 18.8681 298.369 18.7736 298.43 18.3436C298.508 17.8038 298.523 17.8058 299.105 18.4328C299.61 18.9765 299.7 19.0026 299.7 18.6049C299.7 17.8623 300.353 18.2746 300.447 19.077C300.517 19.6704 300.6 19.7443 300.91 19.4872C301.118 19.3148 301.296 18.98 301.307 18.7431C301.322 18.3913 301.36 18.4019 301.517 18.8011C301.692 19.2448 301.742 19.2509 302.06 18.8672C302.959 17.7847 303.923 18.752 303.965 20.7786L303.997 22.2811L304.255 20.8259C304.506 19.4061 304.992 18.4046 304.992 19.3057C304.992 19.6514 305.134 19.6018 305.665 19.0703C306.062 18.6732 306.505 18.4611 306.745 18.5532C306.969 18.6391 307.499 18.7092 307.924 18.7092C308.585 18.7092 308.699 18.8141 308.717 19.4368C308.739 20.201 308.814 20.0935 309.069 18.9321C309.188 18.3876 309.343 18.2603 309.753 18.3677C310.045 18.444 310.284 18.6108 310.284 18.7384C310.284 19.0018 311.043 18.9301 311.54 18.6198C311.722 18.5063 312.017 18.5038 312.196 18.6138C312.699 18.9246 313.629 18.8517 314.095 18.4648C314.399 18.2132 314.517 18.2026 314.517 18.4274C314.517 18.5994 314.636 18.6665 314.782 18.5766C314.927 18.4867 315.06 18.6285 315.077 18.8917C315.105 19.334 315.117 19.3352 315.229 18.9072C315.295 18.6526 315.49 18.4352 315.661 18.424C315.832 18.4129 316.181 18.3639 316.435 18.3151C316.714 18.2618 316.898 18.3884 316.898 18.6323C316.898 18.9327 316.987 18.9649 317.238 18.7564C317.429 18.5981 317.732 18.5697 317.929 18.6915C318.436 19.0053 319.28 18.7176 319.28 18.2305C319.28 17.8866 319.342 17.899 319.636 18.3015C319.897 18.6587 320.046 18.7029 320.191 18.4671C320.341 18.2257 320.516 18.2591 320.893 18.6003C321.286 18.9561 321.397 18.9743 321.4 18.6837C321.403 18.4375 321.47 18.4102 321.599 18.6027C321.822 18.9359 322.719 18.9923 322.719 18.6731C322.719 18.5564 322.898 18.5294 323.116 18.6132C323.376 18.7131 323.523 18.5965 323.544 18.2742C323.57 17.8506 323.591 17.8446 323.692 18.2312C323.763 18.4977 323.969 18.6188 324.201 18.5298C324.415 18.4475 324.807 18.576 325.072 18.8154C325.543 19.2416 326.423 19.1537 326.423 18.6806C326.423 18.3206 327.155 18.3988 327.306 18.7749C327.386 18.9725 327.448 18.9193 327.461 18.6427C327.485 18.1054 327.595 18.0803 328.293 18.4535C328.695 18.669 328.805 18.6408 328.805 18.3212C328.805 18.0978 328.924 17.9151 329.069 17.9151C329.215 17.9151 329.335 18.0638 329.338 18.2457C329.341 18.4662 329.427 18.4442 329.598 18.1796C329.817 17.8405 329.855 17.8501 329.859 18.2457C329.864 18.7657 330.39 18.8953 330.396 18.3781C330.399 18.1185 330.445 18.1172 330.606 18.3721C330.758 18.6109 330.912 18.5587 331.189 18.1749C331.562 17.6574 331.568 17.6577 331.861 18.2055C332.14 18.7275 332.182 18.733 332.611 18.3043C333.039 17.8755 333.085 17.8778 333.44 18.3457C333.648 18.6208 333.818 18.6969 333.823 18.5168C333.829 18.2806 334.011 18.2609 334.493 18.4441C334.975 18.6273 335.157 18.6076 335.163 18.3714C335.168 18.1931 335.346 18.2783 335.56 18.5608C335.944 19.0692 335.948 19.0692 335.952 18.5608C335.955 18.1718 336.012 18.1343 336.184 18.4062C336.342 18.6565 336.466 18.6765 336.592 18.4723C336.875 18.0143 337.532 18.129 337.566 18.6425C337.596 19.0834 337.603 19.0834 337.718 18.6425C337.856 18.1132 338.327 18.0119 338.334 18.5102C338.337 18.7307 338.423 18.7086 338.594 18.4441C338.752 18.2004 338.852 18.1699 338.855 18.3654C338.858 18.564 339.156 18.646 339.649 18.5835C340.084 18.5285 340.507 18.5937 340.591 18.7284C340.851 19.1504 341.504 18.9952 341.509 18.5103C341.512 18.224 341.587 18.1586 341.707 18.3389C341.814 18.4994 342.378 18.6172 342.96 18.6007C343.542 18.5842 344.105 18.691 344.212 18.8381C344.321 18.9869 344.409 18.8777 344.411 18.592C344.415 18.1125 344.437 18.1088 344.75 18.5368C345.067 18.9695 345.115 18.9673 345.62 18.4973C346.081 18.068 346.203 18.0513 346.507 18.3766C346.701 18.5841 347.079 18.6965 347.347 18.6264C347.616 18.5562 347.971 18.6627 348.137 18.8631C348.388 19.1655 348.523 19.1271 348.932 18.6373C349.203 18.3128 349.428 18.1706 349.433 18.3213C349.446 18.7223 350.5 18.657 350.5 18.2551C350.5 17.6423 351.293 17.8905 351.316 18.5102C351.335 19.0415 351.376 19.0202 351.701 18.3118C351.991 17.6771 352.071 17.6241 352.097 18.0472C352.115 18.3382 352.19 18.4275 352.263 18.2456C352.46 17.7585 352.877 17.8435 352.912 18.3779C352.941 18.8116 352.951 18.8119 353.063 18.3839C353.172 17.9684 353.238 17.9632 353.794 18.3272C354.35 18.6916 354.421 18.6858 354.584 18.2627C354.736 17.8656 354.798 17.8545 355.008 18.187C355.209 18.5039 355.257 18.4778 355.268 18.0473C355.28 17.5393 355.3 17.5418 355.774 18.1096C356.222 18.6469 356.285 18.659 356.455 18.2419C356.632 17.8097 356.653 17.8104 356.819 18.2547C356.986 18.7009 357.026 18.6984 357.552 18.2087C357.963 17.8254 358.185 17.768 358.405 17.9881C358.569 18.1516 358.702 18.1875 358.702 18.0678C358.702 17.9481 358.88 17.9971 359.096 18.1767C359.312 18.3563 359.67 18.4342 359.89 18.3498C360.111 18.2651 360.294 18.3407 360.298 18.5186C360.303 18.7057 360.454 18.6466 360.658 18.3779C361.022 17.8986 361.613 17.7486 361.613 18.1355C361.613 18.2567 361.762 18.3616 361.944 18.3685C362.125 18.3755 362.483 18.4675 362.737 18.5732C363.081 18.7156 363.201 18.6382 363.204 18.274C363.207 17.86 363.249 17.8451 363.465 18.1796C363.606 18.3979 363.723 18.4475 363.725 18.2898C363.728 18.1322 363.908 18.0032 364.126 18.0032C364.345 18.0032 364.525 18.1322 364.527 18.2898C364.53 18.4475 364.649 18.3979 364.792 18.1796C365.023 17.8268 365.081 17.8268 365.313 18.1796C365.456 18.3979 365.575 18.4475 365.578 18.2898C365.583 17.9152 366.373 17.9152 366.384 18.2898C366.389 18.4475 366.567 18.3453 366.781 18.0629C367.16 17.561 367.169 17.5625 367.169 18.129C367.169 18.7995 367.639 18.9064 367.876 18.2896C368.005 17.9522 368.08 17.9393 368.26 18.2235C368.413 18.4649 368.485 18.4767 368.488 18.2609C368.491 18.0677 368.723 18.0015 369.087 18.0902C369.729 18.2462 370.108 18.2513 371.138 18.1177C371.502 18.0705 371.859 18.1127 371.932 18.2108C372.004 18.3092 372.362 18.4317 372.725 18.4831C373.215 18.5523 373.429 18.7822 373.55 19.3703L373.714 20.164L373.749 19.3041C373.768 18.8311 373.903 18.4442 374.048 18.4442C374.194 18.4442 374.327 18.2358 374.343 17.9812C374.373 17.5402 374.38 17.5402 374.495 17.9812C374.623 18.4715 375.107 18.6284 375.107 18.1796C375.107 18.0341 375.285 17.9151 375.503 17.9151C375.779 17.9151 375.912 18.2193 375.94 18.9072C375.975 19.7785 375.994 19.8051 376.094 19.1257C376.181 18.5435 376.268 18.4453 376.447 18.7288C376.63 19.0178 376.687 18.9668 376.69 18.5103C376.693 18.1829 376.813 17.9151 376.959 17.9151C377.104 17.9151 377.223 18.0487 377.223 18.212C377.223 18.4247 377.33 18.4205 377.599 18.1973C377.895 17.9511 378.033 17.986 378.252 18.3634C378.511 18.8091 378.531 18.8101 378.538 18.3781C378.547 17.8718 378.946 17.7565 379.21 18.1839C379.302 18.3318 379.487 18.3843 379.623 18.3006C379.758 18.2169 379.869 18.3142 379.869 18.5168C379.869 19.0596 380.63 18.9652 380.809 18.4001C380.982 17.8553 381.711 17.7344 381.74 18.2457C381.75 18.4276 381.861 18.3384 381.986 18.0473C382.197 17.5551 382.214 17.5626 382.232 18.1545C382.249 18.7641 382.271 18.7716 382.756 18.333C383.236 17.8987 383.267 17.899 383.352 18.3389C383.437 18.7809 383.463 18.781 383.904 18.3399C384.232 18.0121 384.368 17.979 384.371 18.2266C384.374 18.4875 384.446 18.4755 384.656 18.1793C384.874 17.8703 384.967 17.8581 385.074 18.1242C385.184 18.3955 385.293 18.399 385.603 18.1413C385.916 17.8819 386.048 17.893 386.259 18.1964C386.461 18.4861 386.556 18.4978 386.658 18.2454C386.807 17.8786 387.542 17.787 387.542 18.1352C387.542 18.2565 387.721 18.3557 387.939 18.3557C388.157 18.3557 388.336 18.2494 388.336 18.1196C388.336 17.9897 388.482 17.9742 388.662 18.085C389.194 18.4136 389.923 18.3804 389.923 18.0275C389.923 17.8299 390.133 17.7546 390.452 17.838C390.743 17.9141 390.982 18.0816 390.982 18.2101C390.982 18.3387 391.279 18.4438 391.643 18.4438C392.007 18.4438 392.306 18.295 392.309 18.1131C392.311 17.8697 392.373 17.8772 392.54 18.1414C392.723 18.4294 392.809 18.4336 392.976 18.1623C393.127 17.9192 393.257 18.0041 393.442 18.4647L393.699 19.1053L393.874 18.4439C394.015 17.9084 394.081 17.8667 394.219 18.2249C394.393 18.6786 395.479 18.6154 395.479 18.1516C395.479 17.8441 396.618 17.9756 396.864 18.3116C396.981 18.47 397.06 18.4272 397.063 18.205C397.066 17.9671 397.27 18.0622 397.632 18.4696C398.012 18.8971 398.236 18.9965 398.316 18.773C398.381 18.5902 398.549 18.5112 398.689 18.5974C398.828 18.6836 399.235 18.5625 399.592 18.3283C400.209 17.9244 400.242 17.9301 400.242 18.44C400.242 18.9142 400.306 18.9383 400.787 18.6446C401.245 18.3648 401.386 18.3833 401.666 18.7598C401.975 19.1769 402.025 19.172 402.373 18.689C402.578 18.4036 402.89 18.2249 403.065 18.2921C403.24 18.3592 403.441 18.272 403.511 18.0983C403.592 17.8998 403.648 17.93 403.661 18.1793C403.692 18.7508 405.263 18.778 405.288 18.2075C405.302 17.8827 405.354 17.9031 405.507 18.2941C405.664 18.6959 405.754 18.7288 405.928 18.4473C406.096 18.1757 406.208 18.244 406.389 18.7294C406.623 19.3541 406.637 19.3569 406.941 18.8408C407.113 18.5497 407.492 18.3287 407.783 18.3496C408.074 18.3705 408.52 18.4003 408.775 18.4157C409.029 18.4312 409.24 18.6522 409.242 18.9069C409.245 19.2731 409.294 19.2936 409.477 19.0053C409.604 18.8047 409.84 18.7225 410.002 18.8225C410.174 18.9289 410.307 18.8058 410.323 18.5257C410.341 18.1866 410.411 18.2399 410.561 18.7085L410.773 19.37L410.818 18.7085C410.857 18.1248 410.886 18.107 411.062 18.5568C411.25 19.0359 411.273 19.0381 411.444 18.5932C411.584 18.2262 411.707 18.1874 411.988 18.4208C412.269 18.6541 412.392 18.6161 412.533 18.2522C412.695 17.8353 412.757 17.8569 413.084 18.4439C413.287 18.8077 413.457 18.9633 413.462 18.7898C413.467 18.6162 413.709 18.5201 414 18.5761C414.359 18.6452 414.532 18.534 414.538 18.2302C414.545 17.8381 414.595 17.8463 414.935 18.296C415.166 18.6015 415.323 18.6705 415.323 18.4661C415.323 18.2772 415.487 18.1857 415.688 18.2627C415.888 18.3397 416.186 18.2686 416.349 18.1057C416.569 17.8864 416.647 17.909 416.65 18.1925C416.653 18.5188 416.693 18.5168 416.911 18.1793C417.139 17.8266 417.168 17.8266 417.171 18.1793C417.174 18.4148 417.445 18.5917 417.837 18.6143C418.267 18.6391 418.498 18.5129 418.498 18.2532C418.498 17.9038 418.579 17.9068 419.145 18.2774C419.73 18.6607 419.83 18.6618 420.203 18.2889C420.514 17.9782 420.616 17.9628 420.619 18.2265C420.622 18.5067 420.669 18.5042 420.853 18.2137C421.038 17.921 421.138 17.9465 421.37 18.346C421.646 18.8213 421.658 18.8199 421.669 18.3115C421.676 18.0205 421.769 17.9014 421.876 18.047C421.983 18.1925 422.368 18.3527 422.732 18.403C423.095 18.4533 423.434 18.607 423.485 18.7446C423.535 18.8822 423.773 18.7816 424.014 18.5209C424.492 18.0031 425.113 17.7851 425.113 18.1352C425.113 18.4662 425.905 18.4009 425.916 18.0691C425.921 17.9115 426.095 18.0801 426.303 18.4439L426.682 19.1054L426.695 18.4439C426.702 18.0801 426.796 17.9015 426.903 18.047C427.191 18.4389 428.267 18.5257 428.673 18.1895C428.936 17.971 429.126 17.9965 429.419 18.2899C429.635 18.5062 429.893 18.6031 429.991 18.5051C430.089 18.4071 430.275 18.4991 430.405 18.7098C430.595 19.0163 430.694 18.962 430.903 18.4375C431.047 18.0772 431.172 17.9448 431.182 18.1432C431.193 18.3914 431.446 18.4676 431.992 18.3875C432.586 18.3004 432.788 18.3762 432.794 18.6882C432.801 19.0508 432.836 19.0473 433.061 18.6615C433.265 18.3116 433.487 18.2657 434.111 18.4445C434.613 18.5884 434.902 18.5749 434.902 18.4076C434.902 18.2588 435.148 18.2215 435.465 18.322C435.817 18.434 436.112 18.3667 436.254 18.1414C436.432 17.8617 436.483 17.8847 436.486 18.2454C436.489 18.5001 436.603 18.7085 436.741 18.7085C436.88 18.7085 437.114 18.5001 437.263 18.2454C437.444 17.934 437.535 17.9008 437.54 18.144C437.545 18.3741 437.741 18.4553 438.077 18.3672C438.377 18.2888 438.615 18.3612 438.625 18.5348C438.636 18.7031 438.746 18.6026 438.871 18.3116C439.023 17.9588 439.105 17.9147 439.117 18.1793C439.136 18.5901 440.35 18.7056 440.924 18.3512C441.084 18.2519 441.296 18.2998 441.393 18.4576C441.491 18.6154 441.737 18.6806 441.941 18.6025C442.144 18.5244 442.323 18.6055 442.337 18.7829C442.352 18.9603 442.459 18.8077 442.575 18.4439C442.717 18.0029 442.796 17.9368 442.814 18.2454C442.828 18.5001 442.89 18.7085 442.951 18.7085C443.012 18.7085 443.25 18.7807 443.48 18.869C443.786 18.9866 443.903 18.862 443.917 18.406C443.934 17.8215 443.95 17.8155 444.163 18.3116L444.39 18.8408L444.417 18.3116C444.443 17.7954 444.451 17.7949 444.738 18.2893C445.012 18.7614 445.054 18.7653 445.36 18.347C445.656 17.9433 445.708 17.9724 445.875 18.6339L446.062 19.37L446.414 18.5763C446.696 17.9396 446.774 17.8872 446.806 18.3117C446.844 18.8133 446.856 18.815 447.041 18.3454C447.206 17.9231 447.292 17.9036 447.617 18.2131C448.141 18.7106 448.889 18.8037 449.342 18.4276C449.611 18.2041 449.719 18.1995 449.719 18.4115C449.719 18.9857 450.249 18.7014 450.275 18.1132C450.299 17.5582 450.313 17.5537 450.473 18.0471C450.601 18.4394 450.879 18.5763 451.549 18.5763C452.046 18.5763 452.502 18.4285 452.562 18.2479C452.644 18.0047 452.779 18.0269 453.086 18.3336C453.422 18.67 453.542 18.682 453.722 18.3974C453.899 18.1184 453.946 18.1278 453.952 18.444C453.959 18.7968 453.989 18.7968 454.217 18.444C454.445 18.0912 454.476 18.0912 454.496 18.444C454.511 18.7039 454.59 18.6583 454.726 18.3117C454.925 17.8026 454.94 17.8057 455.126 18.3924L455.32 19.0023L455.827 18.4181C456.201 17.9868 456.334 17.9393 456.334 18.2365C456.334 18.5281 456.553 18.6136 457.127 18.5467C457.628 18.4884 457.923 18.5745 457.925 18.7799C457.928 18.9902 458.018 18.9658 458.179 18.7108C458.368 18.4107 458.502 18.3899 458.736 18.624C458.905 18.7933 459.198 18.8729 459.385 18.8008C459.573 18.7287 459.783 18.8869 459.852 19.1522C459.946 19.5164 459.99 19.4725 460.034 18.9732L460.091 18.3117L460.302 18.9732C460.497 19.5817 460.517 19.5605 460.545 18.7086C460.561 18.1993 460.663 17.9103 460.769 18.0664C461.035 18.4549 461.89 18.7485 461.89 18.4514C461.89 18.319 462.213 18.3783 462.607 18.5831C463.002 18.7878 463.389 18.8701 463.467 18.7658C463.546 18.6616 463.816 18.5417 464.069 18.4994C464.496 18.4279 464.534 19.0318 464.602 27.0983C464.642 31.8701 464.676 27.2017 464.677 16.7242C464.677 4.5314 464.629 0.891752 464.541 6.61281C464.408 15.2682 464.388 15.5337 463.926 14.9931C463.56 14.5661 463.364 14.5044 463.092 14.7307C462.825 14.9517 462.7 14.9401 462.598 14.6848C462.513 14.4734 462.453 14.5256 462.44 14.8217C462.429 15.0849 462.3 15.2267 462.154 15.1368C462.009 15.0469 461.888 15.1288 461.886 15.3196C461.883 15.5713 461.812 15.5575 461.625 15.2691C461.397 14.9163 461.368 14.9163 461.361 15.2691C461.354 15.6013 461.315 15.6058 461.119 15.2967C460.99 15.0936 460.694 15.0005 460.461 15.0899C460.177 15.1989 460.031 15.1027 460.017 14.7978C460.004 14.5218 459.944 14.473 459.863 14.6738C459.789 14.8557 459.57 15.0045 459.376 15.0045C459.182 15.0045 458.964 14.8557 458.89 14.6738C458.817 14.4919 458.745 14.6407 458.732 15.0045C458.712 15.5317 458.655 15.5854 458.45 15.2691C458.222 14.9163 458.193 14.9163 458.186 15.2691C458.179 15.6219 458.149 15.6219 457.921 15.2691C457.72 14.9574 457.664 14.9502 457.661 15.2354C457.658 15.5282 457.58 15.5347 457.26 15.2691C456.986 15.0416 456.863 15.0315 456.863 15.2367C456.863 15.4001 456.684 15.5337 456.466 15.5337C456.248 15.5337 456.069 15.3509 456.069 15.1275C456.069 14.8033 455.962 14.7785 455.54 15.0045C455.104 15.2376 455.006 15.2041 454.984 14.8154C454.966 14.4886 454.893 14.5469 454.746 15.0045C454.567 15.5652 454.528 15.5853 454.491 15.1368C454.453 14.6702 454.414 14.6858 454.159 15.2691L453.871 15.9306L453.699 15.1368C453.53 14.3617 453.521 14.3577 453.316 14.965C453.166 15.4092 453.025 15.5055 452.821 15.302C452.618 15.0985 452.436 15.1001 452.186 15.308C451.917 15.5312 451.831 15.4836 451.815 15.1033C451.803 14.8308 451.738 14.7441 451.67 14.9105C451.602 15.077 451.313 15.1524 451.029 15.0781C450.704 14.993 450.511 15.0771 450.509 15.3046C450.506 15.545 450.44 15.5693 450.31 15.3772C450.203 15.2181 449.729 15.0127 449.256 14.9207C448.497 14.773 448.394 14.8222 448.378 15.3421C448.36 15.9063 448.349 15.9088 448.132 15.4016C448.007 15.1106 447.896 15.0359 447.886 15.2356C447.871 15.517 447.783 15.5294 447.496 15.2907C447.211 15.0543 447.088 15.0621 446.967 15.3245C446.873 15.5269 446.753 15.5584 446.672 15.4017C446.17 14.4292 446.013 14.3324 445.668 14.7816C445.429 15.0925 445.205 15.1489 444.895 14.9756C444.578 14.7984 444.384 14.8597 444.186 15.1989C444.02 15.4846 443.911 15.5317 443.906 15.32C443.901 15.1295 443.787 15.0421 443.652 15.1258C443.516 15.2095 443.33 15.1551 443.237 15.0048C443.144 14.8546 442.957 14.8001 442.822 14.8838C442.686 14.9675 442.572 14.8798 442.567 14.6897C442.562 14.4786 442.453 14.5263 442.286 14.812C442.136 15.0697 441.902 15.2115 441.765 15.1271C441.629 15.0427 441.515 15.1291 441.513 15.32C441.51 15.5315 441.433 15.5633 441.315 15.4018C441.009 14.9858 440.396 14.9434 440.156 15.3216C439.977 15.6043 439.937 15.6041 439.934 15.3197C439.931 15.1292 439.81 15.0469 439.665 15.1368C439.519 15.2267 439.4 15.1742 439.4 15.0202C439.4 14.5278 438.343 14.7068 438.321 15.203C438.308 15.4974 438.25 15.5416 438.163 15.3242C438.051 15.0449 437.95 15.0449 437.612 15.3242C437.283 15.5951 437.174 15.5974 437.086 15.3352C436.941 14.905 436.227 14.905 436.221 15.3352C436.218 15.5557 436.132 15.5337 435.961 15.2691C435.747 14.9384 435.704 14.9582 435.7 15.3882C435.697 15.7695 435.619 15.8266 435.399 15.6073C435.236 15.444 434.938 15.3734 434.738 15.4504C434.537 15.5274 434.373 15.4784 434.373 15.3415C434.373 14.9918 433.581 15.0291 433.571 15.3793C433.566 15.5369 433.388 15.4348 433.174 15.1524C432.961 14.8699 432.786 14.7607 432.786 14.9097C432.786 15.2042 431.85 15.2152 431.559 14.924C431.46 14.8253 431.219 14.8771 431.024 15.0392C430.829 15.2013 430.667 15.23 430.665 15.1031C430.662 14.9761 430.558 15.0349 430.432 15.2338C430.265 15.4973 430.074 15.5229 429.726 15.3281C429.396 15.1436 429.097 15.1546 428.76 15.3635C428.375 15.6018 428.217 15.5818 428.015 15.2692C427.787 14.9164 427.73 14.9164 427.498 15.2692C427.355 15.4875 427.234 15.547 427.229 15.4014C427.224 15.2559 427.106 15.3155 426.965 15.5338C426.751 15.8641 426.704 15.8418 426.684 15.4014C426.669 15.0981 426.6 15.0182 426.521 15.2141C426.416 15.4765 426.298 15.4843 426.013 15.2478C425.725 15.0089 425.641 15.0213 425.638 15.3029C425.635 15.5888 425.577 15.5817 425.368 15.2691C425.138 14.9242 425.066 14.9349 424.822 15.3505C424.554 15.8053 424.516 15.8016 424.06 15.2758C423.62 14.768 423.546 14.7574 423.156 15.147C422.923 15.3804 422.732 15.4645 422.732 15.3338C422.732 15.203 422.374 15.1485 421.938 15.2126C421.501 15.2767 421.144 15.4148 421.144 15.5196C421.144 15.8802 420.217 15.7115 419.896 15.2922C419.619 14.9313 419.572 14.9281 419.561 15.2691C419.55 15.6096 419.514 15.612 419.308 15.2861C419.11 14.9726 418.995 14.9662 418.654 15.2498C418.212 15.6168 418.148 15.5426 417.883 14.3431C417.806 13.9945 417.755 14.0881 417.735 14.6171C417.712 15.2337 417.582 15.4203 417.175 15.4203C416.884 15.4203 416.646 15.3122 416.646 15.18C416.646 15.0479 416.468 15.0879 416.249 15.2691C415.933 15.5319 415.852 15.5319 415.852 15.2691C415.852 15.0063 415.772 15.0063 415.456 15.2691C415.168 15.5076 415.059 15.514 415.059 15.2923C415.059 15.0679 414.917 15.0617 414.529 15.2691C414.094 15.5024 413.997 15.469 413.979 15.08C413.967 14.7999 413.904 14.743 413.825 14.9401C413.751 15.1229 413.568 15.1969 413.419 15.1046C413.27 15.0123 413.043 15.1006 412.916 15.3014C412.725 15.6031 412.684 15.5975 412.677 15.2691C412.67 14.9163 412.641 14.9163 412.413 15.2691C412.2 15.5983 412.155 15.5757 412.148 15.1368C412.142 14.7385 412.084 14.6964 411.913 14.9666C411.729 15.257 411.645 15.2604 411.474 14.9842C411.316 14.7276 411.213 14.7698 411.063 15.1544C410.893 15.5891 410.86 15.5977 410.844 15.2113C410.824 14.726 410.078 14.8379 409.705 15.3821C409.588 15.5532 409.509 15.4821 409.506 15.203C409.504 14.9484 409.383 14.7399 409.238 14.7399C409.092 14.7399 408.973 14.8661 408.973 15.0202C408.973 15.1743 408.854 15.2268 408.709 15.1369C408.563 15.047 408.44 15.1288 408.436 15.3197C408.431 15.5106 408.293 15.4339 408.128 15.1486C407.841 14.6539 407.82 14.6526 407.657 15.1179C407.512 15.5317 407.424 15.477 407.074 14.7525L406.661 13.9004L406.489 14.5847C406.314 15.2819 405.805 15.5393 405.79 14.9384C405.785 14.7521 405.612 14.8319 405.393 15.1212C405.012 15.6254 405.004 15.6246 405.004 15.0798C405.004 14.6551 404.88 14.5573 404.475 14.6632C404.184 14.7393 403.946 14.9663 403.946 15.1676C403.946 15.7413 403.305 15.5977 402.622 14.8712L402 14.2088L401.52 14.9374C401.235 15.3695 401.037 15.5044 401.033 15.2691C401.028 14.9507 400.983 14.942 400.804 15.2251C400.624 15.5092 400.549 15.4963 400.419 15.159C400.208 14.607 399.713 14.6201 399.713 15.1778C399.713 15.5715 399.66 15.5674 399.184 15.1367C398.893 14.8733 398.653 14.7656 398.65 14.8973C398.647 15.029 398.542 14.9722 398.415 14.7711C398.233 14.4838 398.145 14.5264 398.004 14.9695C397.829 15.5202 397.332 15.7647 397.332 15.2999C397.332 15.1713 397.104 15.0066 396.825 14.9337C396.469 14.8405 396.273 14.9686 396.164 15.3659C396.033 15.8403 395.967 15.8671 395.748 15.5336C395.543 15.2215 395.487 15.2143 395.484 15.4998C395.481 15.7926 395.403 15.7991 395.083 15.5336C394.763 15.2682 394.682 15.2748 394.665 15.5673C394.649 15.8377 394.61 15.8455 394.51 15.5981C394.436 15.4153 394.267 15.333 394.134 15.4153C394.001 15.4976 393.892 15.3013 393.892 14.9791C393.892 14.4281 393.863 14.4193 393.407 14.8317C393.141 15.0729 392.843 15.1905 392.746 15.0932C392.649 14.9959 392.569 15.0676 392.569 15.2527C392.569 15.4857 392.244 15.5582 391.511 15.4883C390.929 15.4328 390.452 15.473 390.452 15.5776C390.452 15.6822 390.185 15.7056 389.857 15.6295C389.095 15.4523 388.982 15.4515 387.475 15.6119C386.784 15.6855 386.156 15.6461 386.081 15.5243C385.916 15.2575 384.896 15.3009 384.896 15.5748C384.896 15.8828 383.766 15.5798 383.531 15.2091C383.379 14.9697 383.307 15.0254 383.282 15.4014C383.253 15.8484 383.229 15.8587 383.126 15.4675C382.99 14.9455 382.61 14.8515 382.46 15.3025C382.27 15.8728 381.075 15.6992 380.465 15.0125C380.137 14.6443 379.87 14.4989 379.869 14.6894C379.869 14.8798 379.75 14.9621 379.604 14.8722C379.459 14.7823 379.34 14.8943 379.34 15.1211C379.34 15.348 379.161 15.5336 378.943 15.5336C378.725 15.5336 378.546 15.4146 378.546 15.2691C378.546 15.1235 378.427 15.0045 378.282 15.0045C378.136 15.0045 378.017 15.1913 378.017 15.4197C378.017 16.1145 376.875 15.7638 376.665 15.0045C376.565 14.6407 376.456 14.462 376.425 14.6076C376.393 14.7531 376.276 14.5149 376.165 14.0784C375.973 13.3238 375.961 13.3386 375.932 14.3783C375.907 15.2349 375.785 15.5019 375.371 15.6104C375.043 15.696 374.743 15.5815 374.585 15.3106C374.353 14.9127 374.328 14.9164 374.321 15.3508C374.309 16.0215 373.79 15.6302 373.753 14.9227C373.731 14.5097 373.689 14.4698 373.605 14.7841C373.518 15.1159 373.268 15.1979 372.597 15.1148C371.91 15.0296 371.68 15.1098 371.594 15.4674C371.503 15.8491 371.432 15.8142 371.195 15.269C370.988 14.7935 370.902 14.7377 370.89 15.0706C370.868 15.6658 370.447 15.6658 370.101 15.0706C369.858 14.6531 369.83 14.6638 369.823 15.1795C369.817 15.5794 369.676 15.7247 369.352 15.6627C369.097 15.6139 368.8 15.5649 368.69 15.5539C368.581 15.5428 368.484 15.3252 368.473 15.0706C368.457 14.6746 368.422 14.6842 368.227 15.1367C368.102 15.4277 367.992 15.5244 367.981 15.3516C367.961 15.0098 366.904 14.984 366.904 15.3253C366.904 15.4398 366.815 15.5195 366.706 15.5022C366.597 15.485 366.448 15.4942 366.375 15.5225C365.778 15.7552 365.317 15.6922 365.317 15.3779C365.317 15.1725 365.198 15.0044 365.052 15.0044C364.907 15.0044 364.786 15.2723 364.784 15.5998C364.781 16.0811 364.731 16.1191 364.523 15.7982C364.382 15.5799 364.265 15.5051 364.263 15.6321C364.26 15.7591 364.095 15.7272 363.895 15.5614C363.695 15.3956 363.338 15.3342 363.102 15.425C362.802 15.5398 362.665 15.4405 362.65 15.0989C362.639 14.8287 362.572 14.7497 362.501 14.9234C362.43 15.0971 362.201 15.1737 361.993 15.0935C361.784 15.0133 361.613 15.0796 361.613 15.2407C361.613 15.6439 360.63 15.6115 360.464 15.2029C360.363 14.954 360.261 14.9704 360.049 15.269C359.859 15.5381 359.768 15.5594 359.765 15.3351C359.759 14.8187 359.233 14.9471 359.223 15.4674C359.215 15.8863 359.178 15.8815 358.826 15.4168C358.542 15.0409 358.432 15.0054 358.417 15.2845C358.4 15.593 358.369 15.5969 358.253 15.3051C358.132 15.0006 358.073 15.0006 357.877 15.3051C357.683 15.6052 357.6 15.5991 357.384 15.2689C357.169 14.9419 357.122 14.938 357.119 15.2468C357.116 15.4529 357.04 15.5464 356.948 15.4545C356.856 15.3626 356.567 15.4022 356.305 15.5423C355.961 15.7262 355.713 15.6815 355.413 15.3817C355.153 15.1215 354.998 15.0829 354.998 15.2783C354.998 15.4575 354.815 15.5198 354.568 15.4249C354.331 15.3341 353.974 15.3954 353.774 15.5613C353.505 15.7845 353.411 15.7851 353.411 15.5633C353.411 15.3513 353.246 15.3611 352.847 15.597C352.386 15.8692 352.26 15.8641 352.154 15.5693C352.044 15.2648 351.988 15.2648 351.795 15.5693C351.616 15.8527 351.566 15.8321 351.563 15.4735C351.56 15.0962 351.444 15.0607 350.897 15.2685C350.424 15.4483 350.236 15.4314 350.236 15.209C350.236 14.9744 350.158 14.9761 349.918 15.216C349.495 15.6395 349.177 15.6176 349.177 15.1649C349.177 14.7134 348.461 14.4001 348.242 14.7556C348.154 14.8971 347.972 14.9445 347.836 14.8607C347.701 14.777 347.581 14.9239 347.569 15.1872C347.557 15.4648 347.492 15.5269 347.415 15.335C347.242 14.9077 346.615 14.9077 346.441 15.335C346.34 15.5839 346.238 15.5676 346.027 15.2689C345.787 14.9306 345.745 14.9287 345.742 15.2558C345.739 15.5541 345.667 15.5688 345.42 15.3219C345.002 14.9036 343.438 14.9132 343.266 15.335C343.163 15.5899 343.073 15.5811 342.875 15.2971C342.725 15.0836 342.383 14.9897 342.061 15.0739C341.628 15.1872 341.498 15.0931 341.474 14.6488C341.45 14.2125 341.415 14.1856 341.324 14.5341C341.237 14.8622 340.989 14.9648 340.437 14.9005C340.015 14.8514 339.602 14.8779 339.521 14.9595C339.275 15.2052 338.594 15.2378 338.594 15.0039C338.594 14.8839 338.148 15.0033 337.602 15.2693C336.618 15.7489 336.608 15.7483 336.398 15.1865C336.222 14.7162 336.144 14.6864 335.939 15.0106C335.803 15.2254 335.688 15.2821 335.684 15.1366C335.679 14.991 335.558 15.0506 335.415 15.2689C335.183 15.6216 335.123 15.6216 334.87 15.2689C334.636 14.9433 334.559 14.9368 334.441 15.2327C334.319 15.5363 334.262 15.5365 334.075 15.2337C333.896 14.9448 333.781 14.9722 333.488 15.373C333.207 15.7563 333.013 15.81 332.646 15.6048C332.384 15.4579 331.948 15.3956 331.677 15.4663C331.404 15.5377 331.186 15.4563 331.186 15.2838C331.186 15.1128 331.077 15.0401 330.944 15.1223C330.811 15.2046 330.647 15.1223 330.58 14.9395C330.496 14.7104 330.279 14.7939 329.88 15.2083C329.228 15.8866 328.817 15.78 328.778 14.9223C328.754 14.3826 328.737 14.3883 328.54 15.004C328.423 15.3678 328.316 15.5399 328.302 15.3863C328.287 15.2328 327.894 15.1137 327.429 15.1217C326.745 15.1335 326.546 15.0087 326.397 14.4749C326.295 14.1111 326.2 13.9622 326.185 14.1441C326.17 14.326 325.995 14.4749 325.794 14.4749C325.594 14.4749 325.277 14.6589 325.09 14.8838C324.904 15.1087 324.571 15.2237 324.351 15.1394C324.132 15.0551 323.855 15.139 323.736 15.3258C323.591 15.5557 323.513 15.4517 323.496 15.004C323.482 14.6402 323.415 14.4801 323.346 14.6481C323.274 14.8244 322.891 14.9016 322.441 14.8306C321.927 14.7497 321.661 14.8206 321.661 15.0387C321.661 15.2208 321.486 15.1387 321.272 14.8562C320.897 14.3598 320.883 14.3647 320.855 15.004C320.838 15.3678 320.765 15.5167 320.692 15.3348C320.618 15.1529 320.39 15.004 320.183 15.004C319.977 15.004 319.807 14.8552 319.805 14.6733C319.802 14.4338 319.737 14.4432 319.57 14.7072C319.443 14.9078 319.206 14.99 319.044 14.89C318.873 14.7838 318.738 14.9072 318.72 15.1868C318.692 15.6234 318.678 15.6252 318.569 15.207C318.447 14.742 317.163 14.6236 317.163 15.0774C317.163 15.1997 317.044 15.2263 316.898 15.1364C316.753 15.0465 316.632 15.1283 316.63 15.3192C316.627 15.5708 316.555 15.557 316.369 15.2687C316.141 14.9159 316.112 14.9159 316.104 15.2687C316.098 15.5831 316.05 15.5932 315.875 15.3173C315.754 15.1257 315.488 14.9438 315.284 14.913C315.081 14.8822 314.765 14.764 314.583 14.6503C314.37 14.5175 314.252 14.5943 314.252 14.8656C314.252 15.2054 314.15 15.2323 313.723 15.0041C313.286 14.7702 313.193 14.8032 313.19 15.1933C313.187 15.4587 313.101 15.5497 312.992 15.401C312.816 15.1615 312.16 14.9911 311.077 14.9038C310.859 14.8862 310.6 14.6932 310.501 14.4749C310.348 14.1374 310.318 14.1425 310.302 14.5087C310.278 15.0711 309.492 15.7704 309.486 15.2349C309.483 14.9497 309.427 14.957 309.225 15.2686C309.034 15.5644 308.959 15.3959 308.929 14.6072C308.901 13.8634 308.852 13.7454 308.766 14.2103C308.591 15.1481 308.192 15.2933 307.55 14.6518L306.996 14.0973L306.839 14.7491L306.682 15.4009L306.475 14.7395L306.268 14.078L306.089 14.7059L305.91 15.3338L305.55 14.6608C305.352 14.2907 305.042 14.0445 304.862 14.1136C304.642 14.198 304.461 13.7782 304.31 12.8357L304.084 11.4321L304.003 12.7551C303.909 14.2914 303.484 15.2823 302.997 15.0958C302.81 15.024 302.601 15.1823 302.532 15.4477C302.451 15.7641 302.397 15.6765 302.377 15.1931C302.35 14.5411 302.285 14.4889 301.817 14.7395C301.38 14.9734 301.287 14.9404 301.284 14.5503C301.281 14.1486 301.241 14.1373 301.023 14.4748C300.818 14.7919 300.76 14.7387 300.731 14.2102C300.698 13.5932 300.685 13.6006 300.529 14.3207C300.341 15.1897 299.705 15.5751 299.692 14.8276C299.684 14.3715 299.668 14.3702 299.415 14.8055C299.117 15.3167 298.377 15.438 298.377 14.9756C298.377 14.8145 298.199 14.7513 297.981 14.835C297.762 14.9188 297.575 14.842 297.565 14.6649C297.555 14.4875 297.444 14.5806 297.319 14.8717C297.102 15.3766 297.091 15.3735 297.073 14.8056C297.063 14.4781 296.935 14.2102 296.79 14.2102C296.644 14.2102 296.512 13.8828 296.495 13.4826C296.476 13.035 296.417 12.9332 296.343 13.218C296.276 13.4727 296.112 13.681 295.977 13.681C295.842 13.681 295.732 13.9787 295.732 14.3425C295.732 15.2308 295.256 15.1854 295.039 14.2764C294.781 13.2006 294.68 13.1077 294.241 13.5468C293.639 14.1486 293.426 14.0371 293.236 13.0197C293.009 11.8116 292.557 11.8263 292.557 13.0418C292.557 14.6934 291.919 13.9138 291.572 11.8377C291.234 9.81639 290.969 9.14364 290.969 10.305C290.969 10.8555 290.868 10.9593 290.44 10.8474C289.953 10.7201 289.909 10.8434 289.892 12.3935C289.879 13.5797 289.806 13.9215 289.646 13.5489C289.454 13.1028 289.416 13.1523 289.4 13.864C289.382 14.7046 288.852 15.4226 288.852 14.6072C288.852 14.3717 288.743 14.2464 288.61 14.3286C288.477 14.4109 288.312 14.3286 288.244 14.1458C288.17 13.948 288.007 14.0812 287.841 14.4749C287.688 14.8387 287.555 14.9805 287.546 14.7901C287.537 14.5996 287.41 14.5173 287.265 14.6072C287.119 14.6971 286.999 14.6152 286.996 14.4244C286.993 14.1427 286.952 14.1418 286.775 14.4194C286.635 14.6408 286.411 14.175 286.14 13.0965L285.722 11.4318L285.699 12.9227C285.681 14.1929 285.583 14.4755 285.04 14.8312C284.48 15.1983 284.364 15.2016 284.079 14.8584C283.85 14.5821 283.659 14.548 283.426 14.7415C283.184 14.9424 283.042 14.8556 282.892 14.414C282.336 12.7751 282.292 12.7249 282.246 13.6808C282.21 14.4139 282.158 14.498 281.996 14.0844C281.811 13.6102 281.769 13.6317 281.54 14.3183C281.303 15.031 281.262 15.0486 280.837 14.6234C280.589 14.3752 280.386 14.296 280.386 14.4473C280.386 14.5987 280.226 14.6613 280.031 14.5864C279.836 14.5115 279.554 13.8902 279.406 13.2056L279.136 11.961L279.081 13.284C279.039 14.2867 278.971 14.4788 278.798 14.0777C278.581 13.5728 278.57 13.5758 278.552 14.1438C278.542 14.4712 278.415 14.7391 278.269 14.7391C278.124 14.7391 278.003 14.4712 278 14.1438C277.997 13.7163 277.933 13.6481 277.772 13.9018C277.494 14.3414 277.198 14.3525 276.939 13.933C276.801 13.7111 276.683 13.7875 276.559 14.1789C276.46 14.4912 276.255 14.6703 276.104 14.5768C275.952 14.4833 275.735 14.5584 275.62 14.7438C275.487 14.9597 275.236 15.0043 274.922 14.8679C274.653 14.7509 274.343 14.674 274.234 14.6971C274.125 14.7202 274.036 14.508 274.036 14.2255C274.036 13.477 273.563 13.3042 273.439 14.0076L273.334 14.6068L273.04 13.9454C272.769 13.3339 272.745 13.3265 272.73 13.8469C272.71 14.5244 271.919 15.3199 271.919 14.6627C271.919 14.1701 271.185 14.2337 270.819 14.7578C270.611 15.0567 270.527 15.0643 270.418 14.7943C270.311 14.5278 270.196 14.522 269.9 14.768C269.604 15.0137 269.372 15.0042 268.85 14.7251C268.279 14.4194 268.145 14.4233 267.937 14.7514C267.751 15.0458 267.692 14.9809 267.686 14.4746C267.682 14.1108 267.562 13.6345 267.421 13.4162C267.224 13.1106 267.162 13.2018 267.152 13.8131C267.141 14.5414 267.11 14.5675 266.778 14.1298C266.51 13.7765 266.384 13.7422 266.292 13.9975C266.224 14.1871 266.077 13.7648 265.967 13.0589C265.831 12.1928 265.692 11.8916 265.539 12.1328C265.378 12.3873 265.31 12.2997 265.302 11.8288C265.292 11.256 265.223 11.3092 264.79 12.2256C264.51 12.8172 264.28 13.0798 264.268 12.8209C264.256 12.5663 264.068 12.3579 263.849 12.3579C263.562 12.3579 263.447 12.0473 263.432 11.2334C263.41 10.0774 263.353 10.1 263.071 11.3765C262.747 12.8435 262.459 11.7726 262.251 8.32857C262.109 5.97852 261.977 5.07979 261.851 5.61104C261.693 6.27865 261.652 6.17349 261.592 4.94954C261.551 4.11629 261.481 3.8336 261.428 4.2881C261.377 4.72466 261.251 5.85577 261.148 6.80165L260.96 8.52144L260.816 7.1985C260.675 5.90326 260.665 5.92824 260.305 8.38918C260.102 9.77163 259.905 10.7837 259.866 10.6381C259.827 10.4926 259.706 10.0164 259.598 9.57979C259.411 8.82566 259.385 8.85867 259.075 10.2412L258.749 11.6964L258.69 10.6381L258.631 9.57979L258.329 10.9506C257.984 12.5226 257.632 13.0476 257.632 11.9895C257.632 11.5761 257.519 11.3381 257.367 11.4318C257.202 11.5341 257.091 10.9203 257.071 9.79384C257.054 8.80299 256.959 7.63507 256.86 7.1985C256.681 6.40543 256.681 6.40572 256.501 7.47304C256.402 8.06057 256.242 9.60838 256.146 10.9126C256.05 12.2169 255.814 13.5816 255.622 13.9454L255.272 14.6069L255.235 13.9454L255.198 13.284L254.986 13.9454C254.776 14.5993 254.773 14.5978 254.721 13.8131C254.669 13.0285 254.666 13.0269 254.457 13.6808C254.305 14.155 254.223 13.7432 254.168 12.2256C254.099 10.2921 254.084 10.2412 253.996 11.6377C253.941 12.5127 253.793 13.0999 253.649 13.0111C253.511 12.9257 253.398 12.9905 253.398 13.1549C253.398 13.3194 253.24 13.6127 253.046 13.8067C252.752 14.1004 252.641 13.7721 252.384 11.8396C252.214 10.5637 252.067 9.05706 252.057 8.49147C252.043 7.73107 251.985 7.59775 251.836 7.97988C251.665 8.41749 251.607 8.36179 251.458 7.61611C251.361 7.13179 251.281 6.24439 251.28 5.64412L251.278 4.55269L250.883 5.31057C250.665 5.72739 250.487 6.52402 250.487 7.08089C250.487 7.63775 250.368 8.16691 250.223 8.25685C250.077 8.34675 249.956 9.45515 249.954 10.7199C249.952 11.9846 249.835 13.1979 249.694 13.4162C249.505 13.7086 249.436 13.5308 249.433 12.7415C249.431 12.1522 249.317 11.5569 249.179 11.4187C249.041 11.2804 248.885 10.4529 248.832 9.57979C248.756 8.33067 248.721 8.52805 248.667 10.5058C248.601 12.8995 248.582 12.9751 248.256 12.091C248.067 11.5804 247.826 9.88374 247.72 8.32058C247.613 6.75742 247.418 5.41199 247.287 5.33071C247.155 5.24941 247.033 5.45783 247.015 5.79384C246.958 6.84416 246.559 4.10142 246.538 2.51778C246.527 1.68962 246.4 0.93847 246.254 0.84853C246.083 0.74294 245.976 1.97934 245.952 4.33864C245.927 6.72558 245.849 7.62539 245.725 6.93398C245.621 6.35189 245.504 6.11376 245.467 6.4048C245.415 6.80097 245.347 6.73447 245.196 6.14022C245.061 5.6102 244.972 6.35745 244.928 8.38918C244.882 10.4959 244.801 11.147 244.667 10.5058C244.498 9.70567 244.463 9.81359 244.405 11.2996C244.352 12.6867 244.3 12.8658 244.137 12.2256C243.94 11.4492 243.935 11.447 243.904 12.1264C243.854 13.243 243.559 14.4746 243.341 14.4746C243.231 14.4746 243.056 13.6824 242.952 12.7141C242.758 10.9006 242.298 10.8019 242.289 12.572C242.287 13.0535 242.189 13.3882 242.072 13.3158C241.955 13.2434 241.653 13.5674 241.4 14.036C240.945 14.8816 240.192 15.1119 239.428 14.6395C239.253 14.5316 239.11 14.5657 239.11 14.7152C239.11 15.2435 238.359 14.6897 237.949 13.86C237.59 13.1312 237.534 13.0986 237.529 13.6146C237.517 14.794 236.993 14.1804 236.964 12.9532L236.934 11.6964L236.633 13.1084C236.468 13.885 236.243 14.4308 236.134 14.3211C236.025 14.2115 235.933 14.4095 235.931 14.7612C235.929 15.1157 235.841 15.2741 235.733 15.1167C235.626 14.9606 235.347 14.7626 235.114 14.6767C234.691 14.5213 234.36 13.2365 234.347 11.6964C234.342 11.0861 234.28 10.9944 234.083 11.2995C233.942 11.5178 233.825 12.1373 233.823 12.6762C233.817 14.075 233.322 15.0498 232.716 14.8574C232.403 14.7582 232.231 14.8351 232.231 15.0741C232.231 15.2779 232.053 15.4447 231.834 15.4447C231.616 15.4447 231.437 15.3455 231.437 15.2242C231.437 14.8987 230.439 14.9559 230.328 15.2878C230.276 15.444 229.911 15.2732 229.518 14.9082C229.092 14.5139 228.734 14.3542 228.634 14.5149C228.522 14.6965 228.373 14.6908 228.18 14.4976C227.732 14.0497 227.472 14.1557 227.427 14.8053C227.404 15.1327 227.304 14.8053 227.204 14.0777C227.039 12.8755 227.019 12.8445 226.981 13.7387C226.949 14.4951 226.848 14.6874 226.543 14.5703C226.324 14.4865 226.146 14.5498 226.146 14.7109C226.146 14.872 225.903 14.7613 225.607 14.4649C225.311 14.1686 224.953 13.997 224.813 14.0837C224.662 14.1771 224.557 13.6697 224.556 12.8366C224.555 12.064 224.472 10.7771 224.372 9.9767L224.191 8.5215L223.879 10.109C223.708 10.9821 223.552 11.4356 223.534 11.1168C223.482 10.2367 222.975 10.0959 222.944 10.9533L222.918 11.6965L222.706 11.0351C222.59 10.6712 222.482 10.5294 222.468 10.7199C222.453 10.9104 222.329 10.9967 222.192 10.9118C222.052 10.8256 221.906 11.3063 221.861 12C221.758 13.5778 221.23 13.8026 220.989 12.3715C220.889 11.7819 220.729 11.3027 220.632 11.3064C220.414 11.3154 219.646 13.035 219.42 14.0224C219.327 14.4285 219.135 14.6894 218.994 14.6021C218.853 14.5148 218.737 14.636 218.737 14.8715C218.737 15.1069 218.618 15.226 218.473 15.1361C218.327 15.0462 218.199 15.128 218.187 15.3189C218.171 15.5852 218.136 15.5889 218.033 15.3345C217.873 14.9379 217.15 14.8893 217.15 15.2751C217.15 15.4267 216.782 15.3562 216.316 15.1152C215.538 14.7127 215.465 14.7145 215.225 15.1423C215.006 15.5349 214.852 15.4156 214.156 14.31L213.342 13.0194L213.078 13.747C212.837 14.4134 212.709 14.5177 212.218 14.452C212.126 14.4396 211.949 14.5883 211.826 14.7827C211.646 15.0666 211.6 15.058 211.594 14.7391C211.587 14.39 211.556 14.3894 211.338 14.7341C211.153 15.0261 211.044 14.8352 210.908 13.9834L210.725 12.841L210.193 14.0708C209.826 14.9183 209.594 15.1931 209.447 14.955C209.281 14.6864 209.152 14.7212 208.866 15.1114C208.611 15.4601 208.442 15.5197 208.31 15.3065C208.172 15.0838 208.01 15.1097 207.719 15.4011C207.167 15.9529 206.862 15.6852 206.669 14.4814L206.506 13.4602L205.715 14.2692C205.085 14.9138 204.876 15.0036 204.687 14.7104C204.502 14.4227 204.414 14.4736 204.285 14.9439C204.131 15.5081 204.098 15.5163 203.764 15.0762C203.478 14.6985 203.406 14.6844 203.396 15.0039C203.386 15.3203 203.338 15.3297 203.161 15.0505C202.981 14.7661 202.861 14.7786 202.523 15.1166C201.974 15.6649 201.804 15.6419 201.804 15.0195C201.804 14.737 201.685 14.4324 201.539 14.3424C201.394 14.2525 201.273 14.3344 201.271 14.5252C201.268 14.804 201.225 14.8056 201.052 14.5332C200.898 14.29 200.745 14.3976 200.509 14.9163C200.246 15.4933 200.132 15.561 199.938 15.2545C199.728 14.9222 199.695 14.922 199.691 15.2525C199.688 15.5274 199.585 15.4933 199.319 15.1302C199.011 14.7086 198.883 14.6826 198.537 14.9702C198.309 15.1591 198.011 15.2446 197.875 15.1601C197.738 15.0756 197.548 15.2109 197.452 15.4607C197.303 15.8499 197.242 15.8591 197.031 15.5252C196.816 15.1841 196.782 15.185 196.764 15.5322C196.753 15.7505 196.619 15.6314 196.468 15.2677C196.256 14.7589 196.153 14.6978 196.022 15.0031C195.767 15.5955 195.244 15.5926 195.055 14.9981C194.831 14.2904 194.487 14.3377 194.295 15.1027C194.091 15.9173 192.904 15.9877 192.654 15.2C192.525 14.7913 192.435 14.7508 192.266 15.0241C192.089 15.3103 191.941 15.2834 191.501 14.8858C190.966 14.4015 190.956 14.4032 190.956 14.978C190.956 15.3002 190.847 15.4965 190.714 15.4143C190.581 15.332 190.427 15.4005 190.372 15.5664C190.306 15.763 190.114 15.7109 189.82 15.4169C189.572 15.1687 189.369 15.0734 189.369 15.205C189.369 15.3367 189.19 15.4444 188.972 15.4444C188.753 15.4444 188.575 15.3452 188.575 15.224C188.575 14.8661 187.784 14.9724 187.755 15.3342C187.74 15.5161 187.633 15.3673 187.517 15.0034C187.385 14.5917 187.295 14.5109 187.278 14.7894C187.264 15.0355 187.141 15.3053 187.006 15.389C186.636 15.6172 185.47 14.4239 185.33 13.6746C185.226 13.1167 185.202 13.1447 185.171 13.8634C185.092 15.7169 184.395 14.7344 184.315 12.6553C184.288 11.9716 184.284 11.9731 184.063 12.7545C183.94 13.191 183.764 13.9052 183.672 14.3416C183.516 15.081 183.48 15.1019 183.148 14.6475C182.804 14.1766 182.776 14.1784 182.329 14.7003C182.074 14.9976 181.768 15.1804 181.648 15.1065C181.529 15.0326 181.431 15.0985 181.431 15.2524C181.431 15.4065 181.193 15.5326 180.902 15.5326C180.611 15.5326 180.371 15.3838 180.369 15.2019C180.366 14.9382 180.322 14.9384 180.154 15.2028C180.038 15.3854 179.653 15.5174 179.298 15.4962C178.943 15.475 178.326 15.5467 177.927 15.6555C177.317 15.8219 177.162 15.7542 176.952 15.2299C176.815 14.8869 176.695 14.751 176.685 14.9278C176.676 15.1046 176.41 15.3875 176.094 15.5566C175.628 15.8061 175.462 15.7844 175.211 15.4414C174.781 14.853 172.964 14.6397 172.964 15.1776C172.964 15.397 172.816 15.5275 172.634 15.4676C172.43 15.4005 172.252 14.6561 172.171 13.5273C172.046 11.7994 172.027 11.7558 171.843 12.7543C171.735 13.3364 171.646 14.1996 171.644 14.6725C171.641 15.5276 171.281 15.8333 171.02 15.2017C170.937 15.0009 170.813 15.1037 170.703 15.4633C170.596 15.8166 170.402 15.9798 170.222 15.8678C170.057 15.7645 169.693 15.6445 169.413 15.601C169.134 15.5575 168.747 15.3906 168.553 15.2302C168.283 15.0054 168.201 15.0521 168.198 15.4339C168.195 15.8425 168.151 15.8611 167.948 15.5398C167.736 15.206 167.676 15.2153 167.527 15.6045C167.427 15.8644 167.223 15.9761 167.05 15.8656C166.636 15.6024 165.053 15.5795 164.167 15.8239C163.672 15.9606 163.438 15.925 163.435 15.7124C163.433 15.5287 163.326 15.5636 163.175 15.797C163.034 16.0152 162.917 16.0747 162.914 15.9292C162.912 15.7837 162.523 15.6776 162.05 15.6934C161.577 15.7092 161.11 15.5978 161.012 15.4458C160.89 15.2567 160.719 15.2648 160.47 15.4716C159.973 15.884 158.173 15.7363 157.875 15.2587C157.674 14.9364 157.561 14.9743 157.202 15.4831C156.801 16.0524 156.738 16.0651 156.296 15.6653C155.923 15.3275 155.792 15.3097 155.682 15.5824C155.571 15.8566 155.483 15.8461 155.262 15.5324C155.012 15.1796 154.98 15.1796 154.973 15.5324C154.966 15.8852 154.936 15.8852 154.708 15.5324C154.558 15.2999 154.45 15.2646 154.448 15.4473C154.442 15.8701 152.373 15.7655 152.207 15.3339C152.005 14.813 151.533 14.9482 151.533 15.5268C151.533 15.9832 151.452 16.0132 150.899 15.7611C150.55 15.6021 150.141 15.2178 149.991 14.9069C149.731 14.3707 149.716 14.3793 149.699 15.0745C149.684 15.7085 149.592 15.7912 149.02 15.6874C148.656 15.6214 148.358 15.6675 148.358 15.7898C148.358 15.912 148.12 15.9498 147.829 15.8737C147.477 15.7817 147.293 15.5019 147.278 15.0385L147.257 14.3418L146.948 15.0197C146.656 15.6595 146.531 15.6964 144.72 15.6775C143.592 15.6657 142.798 15.7679 142.794 15.9256C142.789 16.0731 142.61 15.9627 142.397 15.6803C142.02 15.1827 142.008 15.1823 142.008 15.6671C142.008 16.0562 141.938 16.0969 141.691 15.8499C141.516 15.6753 141.166 15.5324 140.912 15.5324C140.562 15.5324 140.427 15.2619 140.35 14.408L140.249 13.2835L140.198 14.6064C140.162 15.5696 140.078 15.8214 139.892 15.5324C139.75 15.3141 139.633 15.26 139.631 15.4121C139.629 15.5723 138.959 15.6919 138.039 15.6964C136.771 15.7024 136.45 15.6203 136.444 15.2876C136.437 14.9157 136.409 14.9168 136.186 15.2982C135.974 15.6618 135.524 15.7347 134.534 15.5662C134.425 15.5476 134.319 14.9073 134.3 14.1433L134.265 12.7543L134.095 13.9449C133.905 15.2743 133.619 15.876 133.277 15.6647C133.152 15.5872 132.966 15.6577 132.865 15.8209C132.735 16.0316 132.618 16.0143 132.461 15.7614C132.34 15.5653 132.027 15.4037 131.767 15.4024C131.433 15.4004 131.244 15.1256 131.129 14.4741L130.965 13.5481L130.931 14.5518C130.908 15.1931 130.776 15.5358 130.565 15.5009C130.383 15.4708 129.897 15.5404 129.485 15.6556C128.909 15.8168 128.559 15.7336 127.964 15.2939C127.26 14.7737 127.191 14.7647 127.187 15.1937C127.184 15.5946 127.145 15.6056 126.927 15.2678C126.714 14.9383 126.668 14.9608 126.657 15.4002C126.645 15.8717 126.602 15.8573 126.265 15.2678L125.887 14.6064L125.852 15.4002C125.816 16.1812 125.812 16.1833 125.604 15.5324C125.424 14.969 125.385 14.9494 125.345 15.4002C125.319 15.6912 125.242 15.7931 125.174 15.6267C125.105 15.4602 124.805 15.388 124.506 15.4661C124.195 15.5475 123.859 15.4509 123.72 15.2396C123.52 14.9365 123.408 14.9622 123.085 15.3846C122.804 15.7535 122.692 15.7908 122.69 15.5169C122.686 15.1905 122.65 15.1917 122.439 15.5249C122.23 15.856 122.165 15.8427 122.01 15.4365C121.865 15.0598 121.778 15.0334 121.598 15.3117C121.409 15.6053 121.332 15.6047 121.141 15.3077C120.95 15.0128 120.847 15.02 120.545 15.3491C120.22 15.7031 120.129 15.7014 119.717 15.3339C119.357 15.0128 119.254 15.0001 119.254 15.2769C119.254 15.5046 119.113 15.4479 118.862 15.1195C118.476 14.6149 118.466 14.6159 118.309 15.1743C118.176 15.6422 117.633 15.816 117.204 15.5281C116.996 15.3889 115.606 15.4661 115.338 15.6317C115.138 15.7554 115.013 15.6511 115 15.3491C114.988 15.0714 114.923 15.0093 114.845 15.2012C114.772 15.3831 114.491 15.5319 114.221 15.5319C113.95 15.5319 113.652 15.6568 113.558 15.8093C113.441 15.9982 113.282 16.0008 113.062 15.8173C112.878 15.6649 112.084 15.6083 111.233 15.6869C110.102 15.7913 109.728 15.7401 109.725 15.4804C109.722 15.2305 109.65 15.2448 109.464 15.5319C109.321 15.7538 109.206 15.7939 109.204 15.6228C109.202 15.4476 108.974 15.376 108.671 15.4552C108.303 15.5514 108.142 15.4632 108.142 15.1659C108.142 14.9306 108.022 14.7381 107.877 14.7381C107.731 14.7381 107.612 14.9302 107.612 15.165C107.612 15.4888 107.421 15.5638 106.819 15.4754C106.359 15.4079 106.021 15.4784 106.016 15.6438C106.012 15.8005 105.833 15.6976 105.62 15.4151C105.235 14.9067 105.231 14.9067 105.213 15.4151C105.194 15.9128 105.187 15.9123 104.967 15.3996C104.811 15.0384 104.73 14.9964 104.711 15.2672C104.693 15.5179 104.544 15.4204 104.305 15.0026L103.927 14.3412L103.914 15.0026C103.903 15.5433 103.849 15.5916 103.619 15.2672C103.399 14.9555 103.309 14.9443 103.2 15.2152C103.095 15.4751 102.978 15.4467 102.724 15.0996C102.411 14.6714 102.375 14.6796 102.204 15.2178C101.988 15.8995 101.608 15.9521 100.984 15.387C100.576 15.0175 100.492 15.0175 100.122 15.387C99.5916 15.9175 99.4112 15.904 99.4062 15.3334C99.403 14.9632 99.3553 14.9444 99.1687 15.2392C99.0199 15.4741 98.4211 15.6162 97.5191 15.6305C96.7402 15.6429 96.0155 15.7746 95.9086 15.9232C95.7871 16.0921 95.7127 16.0636 95.7102 15.847C95.708 15.6565 95.5871 15.5742 95.4415 15.6641C95.296 15.754 95.1769 15.6946 95.1769 15.5319C95.1769 15.3616 95.0366 15.3236 94.8462 15.4423C94.3455 15.7545 93.3249 15.7517 93.3249 15.4383C93.3249 15.2685 93.2022 15.2843 93.0074 15.4791C92.6181 15.8684 91.7374 15.8987 91.7374 15.5228C91.7374 15.3385 91.5776 15.3344 91.2487 15.5104C90.9195 15.6866 90.6681 15.6799 90.478 15.4899C90.3153 15.3272 90.0462 15.3016 89.8422 15.4295C89.3935 15.7106 88.4968 15.5702 88.2115 15.1741C88.0497 14.9495 87.958 14.9565 87.8587 15.2014C87.6609 15.6889 86.7943 15.6034 86.5921 15.0765C86.4423 14.6862 86.3819 14.6767 86.1709 15.0104C85.9552 15.3515 85.9218 15.3507 85.902 15.0034C85.8867 14.7361 85.8051 14.7792 85.6519 15.1357C85.4988 15.4922 85.4172 15.5353 85.4019 15.268C85.3818 14.9152 85.3508 14.9152 85.1228 15.268C84.9099 15.5975 84.8642 15.575 84.8538 15.1357C84.8415 14.6129 84.8367 14.6127 84.4519 15.1215C84.1541 15.5153 83.9895 15.5635 83.7523 15.3263C83.5165 15.0905 83.3531 15.0898 83.0716 15.3233C82.7882 15.5585 82.6524 15.5517 82.4933 15.2943C82.2258 14.8614 81.9322 14.8673 81.6507 15.3114C81.4706 15.5954 81.4243 15.5869 81.4143 15.2678C81.4032 14.9151 81.366 14.9151 81.0795 15.2678C80.9022 15.4861 80.5488 15.6997 80.2941 15.7425C79.9359 15.8026 79.8311 15.6343 79.8311 14.9992C79.8311 14.5193 79.7212 14.2462 79.5665 14.3418C79.4144 14.4358 79.3002 14.1894 79.2979 13.7621C79.2948 13.185 79.2365 13.1076 79.0374 13.4157C78.8963 13.634 78.7791 14.0578 78.7768 14.3574C78.7747 14.657 78.6001 15.1332 78.389 15.4157C78.0218 15.9072 77.9705 15.9099 77.1984 15.4786C76.7546 15.2307 76.3906 15.1116 76.3895 15.214C76.3884 15.3164 76.0907 15.5378 75.728 15.706C75.3653 15.8742 75.0686 15.9162 75.0686 15.7993C75.0686 15.6824 74.6519 15.6064 74.1426 15.6303C73.475 15.6617 73.2143 15.5618 73.2085 15.2724C73.2022 14.9594 73.1392 14.9762 72.9225 15.3487C72.703 15.726 72.5658 15.7608 72.2691 15.5147C72.06 15.3411 71.8936 15.3178 71.8936 15.4621C71.8936 15.6045 71.5367 15.7084 71.1005 15.6929C70.5325 15.6727 70.3071 15.5333 70.3067 15.2017C70.3062 14.796 70.2346 14.8102 69.7273 15.3175C69.409 15.6358 69.1103 15.7816 69.0636 15.6414C69.0169 15.5013 68.5034 15.4319 67.9226 15.4873C67.1823 15.5579 66.8665 15.4853 66.8665 15.2451C66.8665 15.0417 66.7084 15.1111 66.4781 15.4157C66.2644 15.6982 66.0858 15.7911 66.0812 15.622C66.075 15.3943 65.1467 15.3054 65.1467 15.5324C65.1467 15.5547 64.9384 15.6128 64.6837 15.6615C64.411 15.7137 64.2207 15.5888 64.2207 15.3578C64.2207 15.0218 64.1676 15.0185 63.8509 15.3353C63.4535 15.7327 62.1032 15.7133 60.1866 15.2826C59.5414 15.1377 59.0133 15.1315 58.929 15.2679C58.849 15.3973 58.5485 15.4655 58.261 15.4195C57.9736 15.3735 57.591 15.453 57.4108 15.5962C57.1832 15.7771 57.0352 15.7315 56.9259 15.4466C56.8358 15.2119 56.5969 15.1026 56.3669 15.1908C56.146 15.2756 55.8755 15.1998 55.7658 15.0222C55.6143 14.7772 55.4678 14.7982 55.1567 15.1091C54.7869 15.4789 54.7299 15.4744 54.5702 15.0626C54.4069 14.6414 54.3643 14.6458 54.0153 15.12C53.8075 15.4024 53.6374 15.5029 53.6374 15.3432C53.6374 15.183 53.4 15.1149 53.1082 15.1912C52.7008 15.2977 52.579 15.1992 52.579 14.7634C52.579 14.2203 52.5522 14.2149 51.9171 14.631C51.5485 14.8725 50.9622 15.0087 50.5942 14.9384C50.1114 14.8461 49.9321 14.927 49.9291 15.2384C49.926 15.5649 49.8739 15.584 49.7065 15.32C49.4667 14.9419 48.8562 14.9839 48.5441 15.4C48.4177 15.5687 48.2635 15.5373 48.1191 15.3136C47.8706 14.9286 47.0063 14.981 46.6921 15.4C46.5618 15.5737 46.4254 15.5647 46.2952 15.374C46.0704 15.0448 45.107 14.9805 44.9061 15.2814C44.7667 15.4901 44.2047 15.6164 43.6493 15.5637C43.4674 15.5465 43.3102 15.324 43.3 15.0694C43.2842 14.6757 43.2491 14.6856 43.0658 15.1355C42.8633 15.6322 42.8405 15.6241 42.6939 15.0032C42.608 14.6394 42.4931 13.9846 42.4386 13.548C42.3538 12.8684 42.3339 12.8996 42.2999 13.7653C42.2465 15.1266 41.4025 16.0093 40.9049 15.2242C40.7401 14.9643 40.6798 14.9575 40.6768 15.1986C40.6719 15.5936 39.3517 15.5392 39.3458 15.1439C39.3436 14.9937 39.2263 15.0495 39.0853 15.2678C38.9231 15.5188 38.8273 15.5461 38.8247 15.3422C38.8226 15.1649 38.6421 15.0884 38.4238 15.1721C38.2037 15.2566 38.0269 15.1791 38.0269 14.9991C38.0269 14.7533 37.9382 14.7476 37.6636 14.9754C37.2934 15.2826 36.4406 15.108 36.142 14.6638C36.0485 14.5248 35.6753 14.6158 35.2821 14.8734C34.9 15.1238 34.5855 15.2256 34.5833 15.0998C34.5812 14.9739 34.4711 15.0419 34.3389 15.2508C34.1397 15.5656 34.0271 15.5713 33.6815 15.2844C33.3274 14.9906 33.2616 15.0131 33.2458 15.4337C33.2301 15.8523 33.1994 15.8632 33.0474 15.5039C32.9485 15.2701 32.6592 15.1107 32.4045 15.1498C32.1266 15.1925 31.9415 15.0514 31.9415 14.7968C31.9415 14.446 31.878 14.4597 31.5733 14.8765C31.2783 15.2799 31.1287 15.3167 30.8213 15.0616C30.6103 14.8865 30.3593 14.8215 30.2635 14.9173C30.1678 15.013 30.0674 14.3869 30.0405 13.5259L29.9916 11.9605L29.8945 13.3476C29.8201 14.4093 29.6714 14.8021 29.2603 15.0221C28.8327 15.2509 28.6549 15.2162 28.3884 14.8517C28.1542 14.5314 27.997 14.4854 27.8653 14.6985C27.5974 15.1319 27.179 15.0757 27.179 14.6063C27.179 14.388 27.06 14.2094 26.9145 14.2094C26.7689 14.2094 26.6499 14.4019 26.6499 14.6372C26.6499 14.9507 26.4733 15.0311 25.9884 14.9384C25.5052 14.846 25.3259 14.9268 25.3229 15.2383C25.3204 15.5052 25.2462 15.557 25.1245 15.3769C24.7685 14.8498 23.7563 14.7571 23.4791 15.2262C23.2516 15.6111 23.1875 15.6161 22.9546 15.2677C22.7322 14.9351 22.6843 14.9564 22.6588 15.4C22.6334 15.8411 22.5931 15.8191 22.4165 15.2677C22.3 14.9039 22.1928 14.7593 22.1783 14.9463C22.1584 15.2037 22.0233 15.2175 21.6228 15.0031C21.2181 14.7866 21.0936 14.8019 21.0936 15.0684C21.0936 15.26 20.796 15.4415 20.4322 15.4716C20.0684 15.5017 19.7707 15.4006 19.7707 15.2469C19.7707 15.09 19.5439 15.0395 19.2536 15.1316C18.9593 15.225 18.4462 15.1055 18.063 14.8544C17.4074 14.4248 17.3889 14.4298 17.3686 15.0388C17.357 15.386 17.2838 15.504 17.2042 15.3039C17.0975 15.0354 17.0112 15.0235 16.8667 15.2573C16.7195 15.4956 16.5834 15.4868 16.3034 15.2211C15.825 14.7672 14.1634 14.7647 14.0114 15.2181C13.9202 15.49 13.7945 15.4741 13.4303 15.1444C13.0643 14.8132 12.8124 14.7821 12.2449 14.9979C11.8485 15.1486 11.4151 15.2044 11.2818 15.122C11.1485 15.0396 11.0376 15.1281 11.0354 15.3186C11.0324 15.5703 10.9612 15.5564 10.7749 15.2681C10.5734 14.9564 10.5175 14.9491 10.5143 15.2344C10.5113 15.5081 10.4228 15.525 10.1552 15.3028C9.95992 15.1407 9.7218 15.0865 9.62604 15.1822C9.53024 15.2779 9.43411 14.7709 9.41231 14.0554C9.38481 13.1546 9.33701 12.9986 9.2566 13.5483C9.11209 14.5367 8.73996 15.0035 8.09664 15.0035C7.82341 15.0035 7.59987 15.0966 7.59987 15.2104C7.59987 15.3242 7.29096 15.4428 6.91341 15.4741C6.41335 15.5155 6.18784 15.3814 6.08295 14.9802C5.99355 14.6382 5.86938 14.5422 5.75527 14.7268C5.62523 14.9372 5.36552 14.9457 4.86594 14.7557C4.31378 14.5458 4.15212 14.299 4.12274 13.621C4.08714 12.7987 4.07704 12.8085 3.9243 13.8129C3.79721 14.6489 3.63835 14.889 3.1681 14.9558C2.84067 15.0023 2.572 15.1808 2.57104 15.3526C2.57008 15.5244 2.33274 15.3078 2.04362 14.8712C1.52638 14.0902 1.51791 14.0878 1.51619 14.7233C1.51419 15.3481 1.50179 15.3524 1.12599 14.8556C0.815512 14.4451 0.723651 14.4217 0.668411 14.7389C0.630411 14.9572 0.534873 11.2067 0.456123 6.40456C0.362523 0.69842 0.313468 4.27354 0.314468 16.7233C0.315318 27.2008 0.349269 32.0329 0.389869 27.4614C0.440969 21.7154 0.557132 19.037 0.766212 18.7851L0.766853 18.7875Z" fill="black"/>
</svg>
