<svg width="465" height="26" viewBox="0 0 465 26" fill="none" xmlns="http://www.w3.org/2000/svg">
<path d="M0.751418 14.0912C1.0731 13.7035 2.30728 13.7072 2.30728 14.0962C2.30728 14.2325 2.5253 14.1468 2.79178 13.9056C3.05825 13.6644 3.36064 13.5515 3.46377 13.6546C3.71787 13.9087 8.12431 13.9531 8.27881 13.7031C8.34641 13.5938 8.72707 13.6743 9.12479 13.8821C9.77218 14.2204 9.88572 14.2115 10.209 13.7979C10.4127 13.5374 10.6164 13.4571 10.6764 13.6137C10.7358 13.7687 11.336 13.859 12.0351 13.8179C12.7239 13.7775 13.6557 13.7232 14.1058 13.6973C15.1433 13.6376 15.5285 13.8777 15.5671 14.6084C15.5955 15.1455 15.6073 15.1493 15.7279 14.6589C15.9377 13.8053 16.338 13.4549 16.821 13.7021C17.0604 13.8246 17.5241 13.9016 17.8515 13.8731C18.238 13.8395 18.4489 13.9682 18.4527 14.2401C18.4569 14.542 18.6031 14.4742 18.976 13.9974C19.2606 13.6336 19.4961 13.4763 19.4993 13.6478C19.5033 13.8599 19.907 13.921 20.762 13.8388C22.5038 13.6713 22.4489 13.672 23.4078 13.8069C23.8807 13.8735 24.2677 13.8283 24.2677 13.7066C24.2677 13.5849 24.5356 13.5843 24.863 13.7056C25.2093 13.8337 25.704 13.8139 26.0458 13.6582C26.4629 13.4682 26.7438 13.4823 27.0144 13.7069C27.247 13.9 27.4568 13.9242 27.5526 13.7692C27.6389 13.6295 28.0365 13.5677 28.436 13.6318C28.8356 13.6959 29.3411 13.7476 29.5594 13.7466C32.6832 13.7331 33.7352 13.7657 34.1234 13.8877C34.3865 13.9704 34.5864 13.8977 34.5864 13.7184C34.5864 13.5019 34.6898 13.4862 34.9172 13.6679C35.0991 13.8132 35.486 13.8428 35.7771 13.7335C36.0681 13.6242 36.517 13.6445 36.7747 13.7784C37.0324 13.9124 37.3836 13.9352 37.5551 13.8292C38.1499 13.4615 39.1968 13.5808 39.6882 14.0721C40.1702 14.5541 40.1853 14.5532 40.3211 14.0337C40.4402 13.5784 40.5608 13.5397 41.1559 13.766C41.5385 13.9114 41.8837 13.9337 41.9231 13.8155C41.994 13.6031 45.8655 13.6024 46.8896 13.8146C47.1806 13.8749 47.6715 13.8303 47.9805 13.7156C48.3039 13.5954 48.6566 13.6213 48.8119 13.7767C48.9953 13.96 49.2549 13.9538 49.622 13.7573C49.9933 13.5586 50.3799 13.551 50.8583 13.7328C51.3088 13.9041 51.7227 13.9074 52.0315 13.7418C52.2939 13.6014 52.5594 13.5374 52.6216 13.5996C52.8523 13.8303 55.9013 13.9039 56.3324 13.6891C56.5916 13.56 56.8456 13.5736 56.937 13.7216C57.0294 13.8711 57.3375 13.8861 57.6807 13.7579C58.003 13.6375 58.5048 13.6274 58.7958 13.7353C59.0869 13.8432 59.4635 13.8212 59.6329 13.6862C59.8373 13.5233 60.1293 13.6432 60.5019 14.0432C61.0517 14.6333 61.0659 14.6346 61.2027 14.1117C61.3689 13.476 62.3677 13.3061 62.3677 13.9135C62.3677 14.2504 62.4406 14.2658 62.7646 13.9969C62.9995 13.8019 63.1614 13.7785 63.1614 13.9396C63.1614 14.0894 63.3996 14.1496 63.6906 14.0735C63.9816 13.9974 64.2198 13.8153 64.2198 13.669C64.2198 13.513 64.3766 13.533 64.5986 13.7173C64.8658 13.9391 65.2434 13.9582 65.8805 13.7824C66.4683 13.6201 66.9513 13.6269 67.2641 13.802C67.5822 13.98 67.8867 13.9826 68.165 13.809C68.3962 13.6652 68.8235 13.6036 69.1146 13.6722C70.0347 13.889 73.8702 13.8734 74.0333 13.6521C74.1193 13.5355 74.5148 13.5883 74.9122 13.7694C75.5105 14.042 75.6804 14.0329 75.9005 13.7168C76.121 13.4001 76.1909 13.3964 76.3105 13.6956C76.4322 14.0001 76.4894 14.0001 76.6778 13.6956C76.8399 13.4334 76.9898 13.5878 77.2266 14.2609C77.5422 15.1585 77.5572 15.1666 77.712 14.5255C77.8532 13.941 78.0168 13.8613 79.1177 13.8399C79.8029 13.8266 80.4208 13.7585 80.4908 13.6885C80.5608 13.6185 81.2204 13.6386 81.9566 13.733C82.6928 13.8274 83.3491 13.8175 83.415 13.7108C83.4809 13.6041 83.7675 13.5777 84.0517 13.652C84.4374 13.7528 84.6095 14.0992 84.7297 15.0162C84.9997 17.0748 85.0194 17.0921 85.2247 15.4498L85.4235 13.8605L87.5458 13.8645C88.7131 13.8665 89.7161 13.7904 89.7748 13.6954C89.8335 13.6004 90.2904 13.615 90.7902 13.7277C91.29 13.8404 92.1544 13.8493 92.711 13.7476C93.2676 13.6458 94.0494 13.6498 94.4483 13.7566C94.8472 13.8633 95.2286 13.8614 95.2958 13.7526C95.3938 13.5941 96.6312 13.5738 96.6312 13.7306C96.6312 13.9165 97.5882 13.8964 97.7046 13.7081C97.7933 13.5646 98.0554 13.5742 98.3498 13.7317C98.664 13.8999 99.0817 13.9072 99.4907 13.7517C99.9301 13.5846 100.235 13.605 100.445 13.8156C100.681 14.0515 100.807 14.0396 100.976 13.7655C101.137 13.5055 101.329 13.4792 101.671 13.6705C101.947 13.8251 102.454 13.8456 102.893 13.7198C103.305 13.6015 103.643 13.5976 103.643 13.7108C103.643 13.8243 104.178 13.8636 104.833 13.7983L106.024 13.6794L106.043 15.0949C106.071 17.2935 106.512 17.9385 106.535 15.815C106.558 13.587 107.036 13.0237 107.976 14.1169C108.595 14.8374 108.596 14.8376 108.75 14.2482C108.882 13.7414 109.033 13.6789 109.814 13.8056C110.341 13.8912 110.851 13.826 111.026 13.6509C111.253 13.4241 111.464 13.4326 111.868 13.6852C112.188 13.8851 112.642 13.9424 112.986 13.8263C113.722 13.5776 114.565 13.6988 114.821 14.0901C114.968 14.3137 115.077 14.305 115.237 14.0569C115.531 13.6031 117.922 13.7464 118.526 14.2539C118.78 14.4682 118.994 14.8254 119 15.0477C119.007 15.2749 119.152 15.1576 119.331 14.7799C119.643 14.1233 120.08 13.9419 120.453 14.3148C120.555 14.417 120.818 14.3218 121.037 14.1026C121.302 13.8372 121.687 13.7597 122.19 13.8702C122.605 13.9613 123.096 13.9412 123.282 13.8253C123.789 13.5083 124.28 13.482 124.28 13.7718C124.28 14.0187 126.09 13.8624 126.36 13.5922C126.43 13.5226 126.772 13.6526 127.121 13.8811C127.618 14.2065 127.837 14.2283 128.134 13.9819C128.405 13.757 128.514 13.7522 128.514 13.9651C128.514 14.1289 128.841 14.2458 129.241 14.2248C130.578 14.1546 130.628 14.2043 130.676 15.6503C130.722 17.0201 130.724 17.0233 130.825 15.887C130.919 14.8326 130.96 14.7764 131.3 15.2256C131.642 15.6775 131.672 15.6429 131.68 14.7895L131.689 13.8626L133.739 13.8635C134.867 13.864 135.931 13.9562 136.104 14.0684C136.289 14.1884 136.52 14.0913 136.664 13.8328C136.979 13.2715 137.506 13.5868 137.519 14.343C137.528 14.9031 137.541 14.9003 137.906 14.2612C138.135 13.8609 138.29 13.7564 138.298 13.9966C138.306 14.2435 138.385 14.2883 138.506 14.115C138.673 13.8749 139.935 13.8082 141.544 13.9545C141.799 13.9777 142.007 14.1554 142.007 14.3494C142.007 14.5435 142.186 14.7022 142.404 14.7022C142.622 14.7022 142.801 14.5435 142.801 14.3494C142.801 14.1554 142.98 13.9966 143.198 13.9966C143.416 13.9966 143.597 13.8478 143.599 13.6659C143.602 13.4267 143.667 13.4362 143.834 13.7002C143.987 13.9417 144.366 14.0204 144.955 13.9327C145.444 13.8598 146.112 13.9009 146.439 14.0241C146.806 14.1622 147.034 14.1478 147.034 13.9865C147.034 13.838 147.435 13.8922 147.96 14.1118C148.742 14.4383 148.886 14.4413 148.886 14.131C148.886 13.5333 149.414 13.3838 149.917 13.839C150.174 14.0718 150.472 14.1751 150.578 14.0685C150.685 13.962 153.205 13.8689 156.179 13.8618C160.525 13.8514 161.586 13.9184 161.586 14.203C161.586 14.3977 161.695 14.4897 161.828 14.4074C161.962 14.3252 162.131 14.4075 162.204 14.5903C162.29 14.8032 162.346 14.7674 162.359 14.4905C162.383 13.9924 163.46 13.7075 164.057 14.0414C164.297 14.1757 164.529 14.1589 164.627 13.9999C164.949 13.4794 166.253 13.7009 166.555 14.3273C166.713 14.6548 166.85 14.7572 166.86 14.555C166.87 14.3527 167.08 14.0398 167.326 13.8596C167.689 13.5942 167.85 13.608 168.174 13.932C168.443 14.2008 168.607 14.2336 168.674 14.032C168.809 13.6269 169.711 13.6499 169.879 14.0627C169.978 14.3075 170.07 14.3146 170.231 14.09C170.444 13.7952 171.237 13.6102 171.773 13.7304C171.918 13.763 173.404 13.8065 175.075 13.827L178.113 13.8643L178.275 14.8594C178.501 16.2452 178.685 16.3098 178.883 15.0728C179.01 14.2804 179.152 14.0526 179.447 14.1661C179.665 14.2495 179.843 14.1789 179.843 14.0093C179.843 13.8396 179.962 13.7744 180.107 13.8643C180.253 13.9542 180.372 14.6756 180.372 15.4674C180.372 16.2592 180.491 16.907 180.636 16.907C180.782 16.907 180.901 16.4981 180.901 15.9982C180.901 15.4984 181.02 14.7757 181.166 14.3923C181.384 13.8203 181.491 13.7578 181.766 14.0443C181.95 14.2364 182.24 14.6911 182.409 15.0549C182.709 15.6995 182.718 15.6917 182.735 14.7525C182.755 13.6723 183.306 13.264 183.917 13.8756C184.347 14.3057 184.87 14.3876 184.87 14.0249C184.87 13.4674 185.694 13.5005 185.921 14.0671C186.052 14.3921 186.167 14.5092 186.176 14.3273C186.185 14.1454 186.282 14.0107 186.391 14.0279C186.5 14.0451 186.649 14.0299 186.722 13.9951C187.122 13.8009 190.426 13.8535 190.426 14.0541C190.426 14.1852 190.575 14.1998 190.757 14.0866C191.267 13.7689 194.393 13.7936 194.403 14.1154C194.408 14.2684 194.583 14.1669 194.793 13.8899C195.136 13.4359 195.19 13.4293 195.342 13.8238C195.434 14.0644 195.666 14.2613 195.856 14.2613C196.047 14.2613 196.263 14.4101 196.336 14.592C196.416 14.7896 196.478 14.7363 196.491 14.4597C196.502 14.2051 196.66 13.9818 196.842 13.9637C198.053 13.8427 198.787 13.9001 198.955 14.129C199.076 14.2941 199.151 14.2724 199.153 14.0712C199.158 13.7057 199.97 13.9245 200.278 14.3743C200.397 14.5479 200.474 14.4868 200.476 14.2172C200.481 13.6797 200.993 13.4628 201.565 13.7557C201.797 13.8749 202.333 13.8784 202.755 13.7637C203.218 13.6379 203.721 13.669 204.02 13.842C204.392 14.0563 204.548 14.0457 204.637 13.8005C204.715 13.5854 204.909 13.5503 205.198 13.6988C205.441 13.8236 206.771 13.9008 208.153 13.8704C209.536 13.8399 210.875 13.9197 211.13 14.0475C211.403 14.185 211.593 14.1807 211.593 14.037C211.593 13.6189 212.607 13.4997 212.76 13.8998C212.876 14.2019 213.002 14.2117 213.419 13.9514C213.817 13.7032 214.091 13.7004 214.615 13.9393C215.067 14.1452 215.511 14.1669 215.94 14.0039C216.501 13.7904 216.618 13.8509 216.846 14.4731C216.99 14.866 217.117 15.0454 217.128 14.8719C217.14 14.6983 217.387 14.6022 217.678 14.6583C218.018 14.7237 218.207 14.6177 218.207 14.3629C218.207 14.1443 218.326 14.0392 218.472 14.1291C218.617 14.219 218.883 14.2019 219.063 14.0911C219.848 13.6059 220.324 13.8089 220.342 14.6363C220.357 15.3288 220.394 15.3721 220.584 14.9229C220.708 14.6318 220.88 14.1724 220.966 13.902C221.108 13.456 221.178 13.4465 221.717 13.7995C222.094 14.0466 222.513 14.1141 222.863 13.9845C223.544 13.7325 229.892 13.8286 230.327 14.0975C230.501 14.2048 230.643 14.1766 230.643 14.0347C230.643 13.8834 231.409 13.8126 232.495 13.8634C233.685 13.9191 234.347 13.8492 234.347 13.6679C234.347 13.5126 234.562 13.5803 234.825 13.8182C235.26 14.2121 235.356 14.2137 235.895 13.8362C236.432 13.4598 236.545 13.46 237.123 13.8382C237.527 14.1029 237.819 14.157 237.925 13.9865C238.016 13.8388 238.473 13.7437 238.941 13.7751C239.408 13.8066 239.935 13.7432 240.112 13.6342C240.288 13.5252 240.432 13.5323 240.432 13.6501C240.432 13.8492 249.505 13.9296 250.09 13.7356C250.433 13.6215 251.358 14.0104 251.607 14.374C251.729 14.552 251.803 14.5063 251.805 14.2515C251.807 14.0229 252.041 13.8452 252.339 13.8452C252.63 13.8452 252.868 13.9458 252.868 14.0687C252.868 14.1916 252.987 14.2186 253.132 14.1287C253.278 14.0388 253.411 14.2401 253.428 14.5761C253.455 15.1158 253.473 15.1254 253.586 14.6579C253.74 14.0145 254.191 13.4845 254.191 13.9458C254.191 14.1919 254.313 14.1894 254.721 13.9345C255.519 13.4361 256.124 13.9673 256.48 15.4793L256.786 16.7746L256.811 15.2688C256.834 13.8819 257.179 13.0401 257.423 13.7732C257.559 14.1793 258.4 14.2923 258.98 13.9822C259.295 13.8135 259.482 13.8395 259.573 14.0647C259.66 14.2778 259.783 14.3003 259.925 14.1287C260.199 13.7975 262.201 13.7662 262.429 14.0896C262.527 14.2282 262.75 14.2311 262.958 14.0966C263.157 13.9688 264.122 13.8643 265.103 13.8643C266.511 13.8643 266.889 13.9481 266.893 14.2611C266.897 14.5847 266.941 14.5917 267.126 14.299C267.294 14.0343 267.404 14.0211 267.544 14.2487C267.679 14.4665 267.842 14.4164 268.098 14.0786C268.298 13.8152 268.465 13.7329 268.47 13.8957C268.478 14.1855 269.671 14.1574 270.658 13.8443C270.914 13.7629 271.124 13.8078 271.124 13.9441C271.124 14.1963 272.553 14.1256 272.997 13.8515C273.131 13.7686 273.252 14.0353 273.267 14.4441L273.293 15.1873L273.505 14.5259C273.622 14.162 273.729 13.9683 273.743 14.0952C273.758 14.2222 273.919 14.2087 274.101 14.0652C274.282 13.9217 274.729 13.8487 275.093 13.903C275.977 14.0349 276.131 14.0359 277.209 13.9175C277.719 13.8615 278.211 13.9313 278.304 14.0725C278.403 14.222 278.623 14.2339 278.833 14.1009C279.324 13.7899 280.181 13.7793 280.583 14.0791C280.786 14.2305 281.042 14.2315 281.244 14.0821C281.546 13.8588 284.152 13.8504 287.327 14.0623C288.017 14.1084 288.616 14.0414 288.658 13.9136C288.701 13.7857 289.241 13.8171 289.858 13.9832C290.475 14.1494 291.126 14.1926 291.305 14.0791C291.74 13.8028 292.047 13.7938 292.744 14.037C293.084 14.1554 293.4 14.1289 293.495 13.9741C293.606 13.7951 293.77 13.7977 293.992 13.9821C294.174 14.1334 294.399 14.1822 294.49 14.0905C294.582 13.9988 295.134 13.9105 295.717 13.8943C296.679 13.8677 296.791 13.9351 296.943 14.6278C297.068 15.195 297.17 15.2968 297.342 15.0247C297.513 14.7549 297.584 14.8325 297.613 15.3202C297.643 15.8243 297.691 15.7613 297.816 15.0556C297.959 14.245 298.086 14.1192 298.839 14.0466C299.332 13.999 299.699 14.0863 299.699 14.2512C299.699 14.442 299.899 14.4239 300.294 14.1971C300.952 13.8197 301.771 13.7751 302.279 14.0889C302.466 14.2046 302.609 14.1677 302.609 14.0036C302.609 13.7991 302.76 13.7947 303.122 13.9886C303.47 14.1746 303.689 14.1763 303.802 13.9937C303.894 13.8454 304.08 13.7926 304.215 13.8763C304.351 13.96 304.461 13.9062 304.461 13.7566C304.461 13.6071 304.64 13.5532 304.858 13.637C305.153 13.7502 305.255 14.2196 305.255 15.4652C305.255 16.3869 305.364 17.2084 305.497 17.2908C305.718 17.427 306.314 15.303 306.314 14.3811C306.314 14.17 306.403 13.9891 306.512 13.9792C308.077 13.8363 309.709 13.8594 310.049 14.0294C310.285 14.147 310.556 14.1646 310.652 14.0685C311.038 13.6828 311.672 13.8004 311.798 14.2809C311.968 14.9301 312.664 14.9504 312.664 14.3062C312.664 13.8677 312.889 13.8273 315.027 13.883C316.328 13.9169 317.516 14.0216 317.668 14.1155C317.82 14.2095 318.192 14.1535 318.496 13.9912C318.886 13.7826 319.146 13.7783 319.386 13.9767C319.572 14.1311 319.802 14.179 319.898 14.0833C319.994 13.9875 320.072 14.0627 320.072 14.2503C320.072 14.5056 320.161 14.5173 320.427 14.2967C320.622 14.1346 320.85 14.0701 320.933 14.1534C321.017 14.2367 321.333 14.1719 321.637 14.0095C322.13 13.7454 322.189 13.7868 322.189 14.4006C322.189 14.7908 322.303 15.0164 322.453 14.9234C322.603 14.8307 322.718 15.053 322.718 15.437C322.718 16.5249 323.213 16.217 323.538 14.9273C323.772 13.9995 323.922 13.7884 324.229 13.9597C324.701 14.2243 325.893 14.0331 325.893 13.6927C325.893 13.5509 326.095 13.5577 326.377 13.709C326.644 13.8516 327.537 13.8987 328.362 13.8135C329.348 13.7117 329.861 13.7558 329.861 13.9423C329.861 14.2437 330.871 14.2223 331.376 13.9103C331.541 13.8079 331.755 13.8509 331.851 14.0059C331.953 14.1706 332.153 14.1932 332.332 14.0601C332.501 13.935 332.788 13.8548 332.97 13.8819C333.152 13.909 333.539 13.9461 333.83 13.9643C334.121 13.9825 334.359 14.176 334.359 14.3943C334.359 14.6125 334.478 14.7911 334.624 14.7911C334.77 14.7911 334.889 14.6167 334.889 14.4035C334.889 14.1904 335.122 13.8911 335.407 13.7384C335.843 13.5052 335.99 13.5778 336.323 14.1921C336.605 14.7119 336.723 14.7895 336.73 14.4604C336.736 14.2057 336.919 13.9974 337.138 13.9974C337.356 13.9974 337.534 13.8713 337.534 13.7172C337.534 13.1743 338.064 13.7715 338.09 14.3437C338.114 14.8809 338.131 14.8749 338.318 14.2619C338.494 13.685 338.545 13.6605 338.719 14.0702C338.874 14.4337 339.001 14.4719 339.282 14.2391C339.481 14.0736 339.824 14.0072 340.045 14.0917C340.265 14.1762 340.445 14.1062 340.445 13.9361C340.445 13.7067 340.522 13.7039 340.743 13.9251C340.926 14.1084 341.259 14.1406 341.606 14.0087C341.916 13.8907 342.824 13.8263 343.622 13.8656C344.421 13.9049 345.255 13.8424 345.476 13.7267C345.713 13.602 346.079 13.6647 346.375 13.8806C346.649 14.081 347.004 14.1595 347.164 14.055C347.325 13.9505 347.962 13.8651 348.58 13.8651C349.68 13.8651 349.705 13.8848 349.747 14.7911L349.79 15.7171L349.898 14.8421C350.019 13.8605 350.593 13.4991 351.316 13.9502C351.581 14.1157 351.861 14.1487 351.938 14.0235C352.111 13.7439 355.505 13.7489 355.678 14.0285C355.746 14.1392 356.158 14.1058 356.594 13.9541C357.655 13.584 358.168 13.8283 358.193 14.7162C358.215 15.4956 358.287 15.3872 358.557 14.172C358.692 13.5604 358.793 13.4788 359.098 13.7324C359.309 13.9075 359.796 13.9741 360.212 13.8845C360.618 13.7969 361.307 13.8286 361.744 13.9549C362.18 14.0812 362.776 14.0988 363.067 13.9941C363.358 13.8893 363.86 13.9021 364.182 14.0226C364.592 14.1755 364.892 14.1184 365.177 13.8334C365.545 13.4655 365.602 13.511 365.759 14.294C365.903 15.0142 365.963 15.0744 366.114 14.646C366.213 14.3617 366.432 14.1143 366.599 14.0961C366.766 14.0779 366.933 14.0376 366.969 14.0065C367.137 13.8635 370.276 13.7546 370.806 13.8734C371.239 13.9705 371.406 14.2039 371.419 14.7296L371.437 15.4521L371.736 14.7907C372.141 13.892 372.078 13.9411 372.966 13.8376C373.402 13.7868 373.832 13.8635 373.921 14.0077C374.011 14.152 374.175 14.2138 374.286 14.145C374.736 13.8667 376.141 13.7464 376.282 13.9741C376.373 14.1222 376.786 14.12 377.334 13.9691C377.888 13.8161 378.652 13.8137 379.316 13.9631C379.911 14.0966 380.397 14.1232 380.397 14.0222C380.397 13.8049 382.748 13.879 382.972 14.1033C383.057 14.1881 383.272 14.1369 383.449 13.9895C383.642 13.8294 384.025 13.8102 384.4 13.9417C385.099 14.187 385.344 14.1775 386.023 13.8789C386.3 13.7569 386.652 13.8089 386.891 14.0072C387.222 14.2816 387.36 14.2517 387.673 13.8384C387.891 13.5505 388.057 13.4772 388.062 13.6668C388.067 13.8487 388.159 13.9722 388.268 13.9413C388.378 13.9104 388.735 14.0336 389.062 14.2152C389.594 14.5102 389.657 14.487 389.657 13.9975C389.657 13.5317 389.737 13.4921 390.187 13.7329C390.478 13.8887 390.716 13.9482 390.716 13.8652C390.716 13.7822 390.954 13.8417 391.245 13.9975C391.632 14.2049 391.774 14.1987 391.774 13.9744C391.774 13.7527 391.884 13.7591 392.171 13.9975C392.491 14.263 392.572 14.2564 392.589 13.9638C392.605 13.6814 392.64 13.6767 392.747 13.9424C392.849 14.1979 392.974 14.2095 393.24 13.9882C393.437 13.8255 393.871 13.7312 394.207 13.7787C394.725 13.8521 394.84 14.0644 394.974 15.1881L395.131 16.511L395.172 15.1475L395.214 13.784L396.537 13.6923C397.265 13.6419 397.86 13.6993 397.86 13.821C397.86 13.9422 398.456 13.9854 399.185 13.9169C399.914 13.8485 400.58 13.9039 400.664 14.0401C400.755 14.1866 400.969 14.1616 401.189 13.9791C401.394 13.8093 401.8 13.7328 402.091 13.8091C402.383 13.8854 402.692 13.8341 402.778 13.6952C402.875 13.5378 403.059 13.5465 403.266 13.7181C403.449 13.87 404.078 13.9263 404.67 13.8436C405.31 13.7541 405.812 13.8082 405.917 13.9778C406.168 14.3841 406.591 14.329 406.591 13.89C406.591 13.5021 407.499 13.5901 408.07 14.0334C408.229 14.1566 408.44 14.1769 408.538 14.0784C408.829 13.7874 411.732 13.7535 411.908 14.039C412.007 14.1983 412.224 14.1472 412.463 13.9087C412.707 13.6641 412.991 13.6004 413.216 13.7394C413.415 13.8621 413.672 13.9038 413.788 13.8321C413.904 13.7604 413.999 13.8351 413.999 13.9975C413.999 14.1679 414.139 14.2057 414.33 14.0867C414.811 13.7863 415.322 13.7446 415.322 14.0057C415.322 14.2406 416.187 14.1485 416.646 13.8646C416.791 13.775 416.91 13.83 416.91 13.9869C416.91 14.1503 417.164 14.2087 417.505 14.1235C418.482 13.8798 423.071 13.807 423.851 14.0228C424.251 14.1334 424.643 14.1132 424.727 13.9779C424.81 13.8431 425.169 13.7329 425.524 13.7329C426.051 13.7329 426.171 13.8665 426.174 14.4605L426.178 15.1881L426.505 14.5475C426.689 14.1872 427.092 13.8882 427.427 13.8641C428.003 13.8227 428.024 13.9031 428.067 16.3568C428.091 17.7513 428.15 18.416 428.198 17.8339C428.477 14.4248 428.578 13.9974 429.1 13.9974C429.519 13.9974 429.615 14.1976 429.638 15.1219L429.666 16.2464L429.927 15.079C430.092 14.3354 430.262 14.0334 430.394 14.247C430.556 14.5095 430.752 14.4835 431.296 14.1272C431.964 13.6895 431.991 13.6919 431.991 14.1875C431.991 14.471 432.065 14.7767 432.155 14.8668C432.357 15.0693 433.049 14.4064 433.049 14.0101C433.049 13.7223 434.768 13.7756 435.065 14.0726C435.145 14.153 435.56 14.097 435.988 13.948C436.574 13.7436 436.871 13.7651 437.199 14.0357C437.536 14.3145 437.658 14.3211 437.744 14.0656C437.828 13.817 437.988 13.8083 438.401 14.0295C438.84 14.2646 438.996 14.2351 439.195 13.8792C439.427 13.4656 439.488 13.4655 440.116 13.8772C440.672 14.2412 440.828 14.2555 441.016 13.9593C441.197 13.6733 441.244 13.6708 441.247 13.947C441.25 14.1375 441.377 14.2154 441.531 14.1202C441.685 14.025 442.991 13.9118 444.433 13.8688C446.908 13.7949 447.065 13.822 447.233 14.3527L447.412 14.9149L447.63 14.3239C447.873 13.6684 449.109 13.4945 449.654 14.0392C449.883 14.2688 450.051 14.2699 450.324 14.0442C450.656 13.7682 451.706 13.7765 454.959 14.0808C455.44 14.1258 455.882 14.0848 455.941 13.9887C456.082 13.7612 458.531 13.854 458.933 14.1021C459.103 14.2075 459.256 14.7332 459.271 15.2703L459.3 16.2469L459.551 15.1224C459.69 14.504 459.886 13.9838 459.986 13.9666C460.087 13.9493 461.121 13.9108 462.286 13.8809L464.402 13.8266L464.54 22.9743C464.63 28.9845 464.677 25.5882 464.677 13.072C464.677 0.411082 464.631 -2.87222 464.54 3.28238C464.421 11.2665 464.348 12.545 464.005 12.559C463.787 12.568 463.489 12.4888 463.344 12.3831C463.009 12.14 462.702 12.1517 461.955 12.4357C461.627 12.5602 461.36 12.5624 461.36 12.4407C461.36 12.3189 461.082 12.2725 460.742 12.3374C460.255 12.4305 460.039 12.2792 459.72 11.6211L459.316 10.7867L459.148 11.6273C459.019 12.2739 458.878 12.4286 458.537 12.2979C458.294 12.2044 457.987 12.281 457.855 12.4677C457.69 12.7017 457.577 12.7162 457.493 12.5143C457.379 12.2377 455.583 12.278 455.298 12.5636C455.227 12.6341 455.019 12.4201 454.834 12.0881C454.588 11.6445 454.497 11.5998 454.49 11.9193C454.478 12.4477 453.902 12.7073 453.412 12.4046C453.212 12.281 452.84 12.2972 452.571 12.4413C452.305 12.5834 451.958 12.619 451.798 12.5204C451.394 12.2706 445.728 12.2307 445.576 12.4765C445.458 12.6675 444.293 12.552 443.302 12.2509C443.047 12.1735 442.839 12.229 442.839 12.3742C442.839 12.5461 442.539 12.5523 441.981 12.392C440.818 12.0586 440.723 12.0749 440.714 12.6089C440.706 13.0465 440.691 13.0461 440.433 12.6029C440.283 12.3452 440.049 12.2034 439.912 12.2878C439.776 12.3722 439.662 12.2858 439.66 12.0949C439.657 11.8231 439.606 11.827 439.425 12.1132C439.298 12.3138 439.071 12.4022 438.922 12.3098C438.772 12.2173 438.342 12.2587 437.966 12.4016C437.49 12.5827 437.283 12.5739 437.283 12.3726C437.283 12.2053 437.038 12.1477 436.701 12.2358C436.381 12.3194 435.964 12.2592 435.775 12.1019C435.525 11.8946 435.43 11.9019 435.43 12.1286C435.43 12.3006 435.311 12.3676 435.166 12.2777C435.02 12.1878 434.901 12.2334 434.901 12.3792C434.901 12.9332 432.938 12.166 432.33 11.3746C432.054 11.0152 432.006 11.0659 431.999 11.7265C431.995 12.1509 431.912 12.4198 431.817 12.3241C431.721 12.2283 431.483 12.2826 431.288 12.4447C431.005 12.6793 430.932 12.5877 430.932 11.9949C430.932 11.2865 430.914 11.2753 430.555 11.7641C430.154 12.3087 430.067 12.2175 429.788 10.9548C429.697 10.544 429.664 10.5793 429.64 11.1122C429.623 11.4898 429.381 12.0055 429.102 12.2581C428.609 12.7043 428.59 12.6773 428.44 11.3069C428.354 10.5311 428.246 9.42019 428.198 8.83811C428.15 8.25603 428.091 8.76201 428.067 9.96259C428.041 11.2118 427.909 12.1454 427.758 12.1454C427.612 12.1454 427.49 11.9966 427.487 11.8147C427.484 11.6328 427.248 11.7816 426.964 12.1454L426.446 12.8069L426.404 12.0131C426.371 11.3769 426.34 11.3383 426.247 11.8188C426.15 12.3273 425.995 12.4032 425.232 12.3191C424.737 12.2645 424.271 12.2805 424.197 12.3545C424.021 12.531 422.201 12.5816 422.201 12.41C422.201 12.2032 419.874 12.2675 419.662 12.4802C419.557 12.5845 419.342 12.5684 419.183 12.4442C419.024 12.32 418.567 12.1402 418.166 12.0446C417.616 11.913 417.439 11.9684 417.439 12.2726C417.439 12.767 417.191 12.7708 416.551 12.2863C416.197 12.0181 415.879 11.9841 415.405 12.1641C414.629 12.4591 409.976 12.5711 409.546 12.3052C409.382 12.2039 409.007 12.2497 408.713 12.4071C408.402 12.5737 408.178 12.5885 408.178 12.4427C408.178 12.3049 407.97 12.2259 407.715 12.2671C407.461 12.3083 407.103 12.2236 406.922 12.079C406.685 11.8907 406.591 11.938 406.591 12.2453C406.591 12.737 406.244 12.7907 405.531 12.4092C405.259 12.2633 404.973 12.2458 404.896 12.3703C404.769 12.5752 402.902 12.5304 401.775 12.2954C401.527 12.2438 401.268 12.3377 401.2 12.5042C401.111 12.7201 401.012 12.7245 400.856 12.5193C400.682 12.2902 398.786 12.178 398.786 12.3967C398.786 12.4538 396.56 12.4807 395.677 12.4343C395.31 12.415 395.206 12.1482 395.174 11.1532L395.134 9.89643L394.976 11.087C394.817 12.2736 394.813 12.278 393.673 12.36C393.044 12.4053 392.359 12.3014 392.152 12.1292C391.859 11.8864 391.774 11.8904 391.774 12.1469C391.774 12.3846 391.477 12.43 390.716 12.3084C390.067 12.2047 389.658 12.2427 389.658 12.4069C389.658 12.9598 389.127 12.6493 389.098 12.0793C389.075 11.6329 389.037 11.5995 388.946 11.946C388.853 12.3004 388.715 12.3488 388.35 12.1538C388.089 12.0139 387.79 11.9846 387.686 12.0886C387.529 12.2455 384.092 12.4238 381.455 12.4118C381.092 12.4098 380.641 12.2025 380.455 11.9503C380.14 11.5245 380.105 11.5325 379.966 12.0631C379.875 12.4105 379.645 12.6026 379.379 12.5534C377.373 12.1819 376.728 12.1395 376.586 12.3694C376.48 12.5413 376.095 12.54 375.464 12.3654C374.779 12.1764 374.45 12.1856 374.319 12.3976C374.184 12.6159 373.932 12.6175 373.369 12.4036C372.829 12.1981 372.575 12.1956 372.509 12.3946C372.362 12.8341 371.93 12.4385 371.93 11.8647C371.93 11.5823 371.811 11.3512 371.666 11.3512C371.52 11.3512 371.401 11.5206 371.401 11.7275C371.401 12.1751 369.697 12.7968 369.242 12.5154C369.067 12.4075 368.291 12.331 367.517 12.3455C366.306 12.3682 366.109 12.3024 366.109 11.8735C366.109 11.4313 366.034 11.451 365.436 12.0485C364.995 12.4898 364.608 12.6612 364.312 12.546C364.064 12.4494 363.741 12.3494 363.596 12.3238C363.45 12.2982 363.24 12.1582 363.128 12.0126C363.002 11.8485 362.782 11.9339 362.55 12.2376C362.307 12.5556 362.054 12.6483 361.828 12.5021C361.636 12.3784 360.831 12.2772 360.038 12.2772C358.726 12.2772 358.58 12.2176 358.411 11.6158C358.236 10.9946 358.223 11.0052 358.198 11.7894C358.175 12.5174 358.096 12.6059 357.577 12.4788C357.249 12.3986 356.823 12.2091 356.63 12.0576C356.386 11.8653 356.225 11.8699 356.1 12.0728C355.954 12.3091 353.637 12.5757 353.145 12.4128C352.558 12.2188 352.087 12.2347 352.087 12.4486C352.087 12.5898 351.941 12.6155 351.763 12.5057C351.586 12.3959 351.109 12.3312 350.705 12.362C350.073 12.4102 349.964 12.3153 349.93 11.6862L349.891 10.9544L349.783 11.6575C349.685 12.2945 349.551 12.3691 348.36 12.4513C347.637 12.5012 346.751 12.463 346.391 12.3664C346.031 12.2698 345.737 12.3019 345.737 12.4377C345.737 12.6897 344.64 12.5805 344.153 12.28C344.005 12.1886 343.884 12.2303 343.884 12.3726C343.884 12.5394 343.564 12.543 342.983 12.3826C342.488 12.2458 341.654 12.1868 341.131 12.2517C340.608 12.3166 340.18 12.2597 340.18 12.125C340.18 11.9905 340.002 11.8804 339.783 11.8804C339.565 11.8804 339.387 11.9994 339.387 12.145C339.387 12.2905 339.148 12.4095 338.857 12.4095C338.493 12.4095 338.32 12.2244 338.302 11.8142C338.277 11.2592 338.264 11.2547 338.103 11.7481C337.915 12.3263 336.892 12.6045 336.614 12.1534C336.518 11.9985 336.299 11.9592 336.127 12.066C335.681 12.343 330.92 12.3655 330.92 12.0905C330.92 11.9627 330.716 11.9618 330.457 12.0886C330.202 12.2133 329.518 12.3004 328.936 12.2823C328.353 12.2641 327.669 12.3489 327.414 12.471C327.159 12.593 326.951 12.5948 326.951 12.475C326.951 12.1484 325.803 12.1266 325.604 12.4494C325.489 12.6352 325.2 12.5787 324.747 12.2822C324.371 12.0361 323.943 11.9093 323.796 12.0006C323.537 12.1606 323.364 11.6871 323.172 10.2927C323.088 9.68364 323.058 9.7046 322.791 10.5573C322.631 11.0667 322.476 11.3048 322.446 11.0865C322.415 10.8682 322.314 11.0453 322.221 11.4801C322.006 12.4852 321.203 12.6786 320.595 11.872L320.147 11.2788L319.979 11.9519C319.844 12.4893 319.689 12.5956 319.213 12.479C318.885 12.3987 318.479 12.2254 318.31 12.0938C318.121 11.947 317.934 11.9647 317.826 12.1398C317.724 12.3055 317.104 12.382 316.347 12.3223C315.631 12.2658 315.045 12.3107 315.045 12.422C315.045 12.5333 314.837 12.5832 314.582 12.5328C312.704 12.1614 312.664 12.1384 312.628 11.4121C312.592 10.6997 312.59 10.6989 312.473 11.351C312.342 12.0806 311.87 12.7313 311.87 12.1821C311.87 11.9989 311.746 11.9258 311.594 12.0197C311.442 12.1136 311.144 12.0465 310.932 11.8706C310.616 11.6077 310.547 11.6507 310.547 12.1124C310.547 12.7826 310.484 12.7918 309.471 12.2679C308.79 11.916 308.666 11.9129 308.538 12.2451C308.41 12.5793 308.244 12.5783 307.243 12.2372C306.14 11.8614 306.087 11.7936 305.914 10.5398C305.692 8.92591 305.255 9.08484 305.255 10.7795C305.255 11.9246 305.189 12.0538 304.462 12.3284C304.025 12.4932 303.668 12.5193 303.668 12.3864C303.668 12.2535 303.37 12.1448 303.006 12.1448C302.643 12.1448 302.345 12.2555 302.345 12.3909C302.345 12.537 302.031 12.5471 301.573 12.4157C301.149 12.294 300.437 12.2197 299.991 12.2506C299.545 12.2815 299.135 12.1809 299.081 12.0273C299.024 11.8655 298.744 11.9601 298.415 12.2519C297.848 12.7548 297.847 12.7541 297.847 11.9653C297.847 11.0683 297.071 10.8295 296.854 11.6597C296.784 11.9265 296.562 12.1447 296.361 12.1447C296.16 12.1447 295.993 12.2936 295.991 12.4755C295.988 12.715 295.923 12.7056 295.756 12.4416C295.629 12.241 295.393 12.1588 295.231 12.2588C295.069 12.3588 294.935 12.2847 294.932 12.0942C294.93 11.872 294.859 11.8469 294.734 12.0243C294.516 12.3351 291.377 12.3778 291.074 12.0741C290.966 11.9665 290.617 12.049 290.299 12.2577C289.805 12.5811 289.617 12.5835 289.021 12.2743C288.637 12.0748 288.322 11.9956 288.322 12.0983C288.322 12.349 279.808 12.3218 279.411 12.0699C279.239 11.9608 279.021 11.9969 278.926 12.1501C278.823 12.3163 278.32 12.3639 277.678 12.2681C276.971 12.1626 276.535 12.2164 276.406 12.4247C276.29 12.6132 276.067 12.6533 275.857 12.5237C275.663 12.4037 275.055 12.338 274.505 12.3777C273.573 12.445 273.503 12.3989 273.474 11.7021L273.443 10.9542L273.241 11.748C273.13 12.1845 273.025 12.3859 273.007 12.1954C272.988 11.9827 272.849 11.9316 272.645 12.0631C272.25 12.3187 269.008 12.3535 269.008 12.1021C269.008 11.8961 268.464 11.9533 268.069 12.201C267.73 12.413 267.287 12.1497 267.084 11.6157C266.96 11.2914 266.929 11.3005 266.912 11.6654C266.888 12.1705 266.882 12.1715 263.451 12.2296C262.069 12.253 260.85 12.3923 260.743 12.5392C260.623 12.7041 260.547 12.6738 260.545 12.46C260.543 12.2695 260.43 12.1822 260.294 12.2659C260.159 12.3496 259.97 12.2913 259.874 12.1364C259.752 11.9395 259.591 11.9452 259.337 12.1555C259.106 12.3473 258.659 12.3816 258.104 12.2502C257.625 12.1368 257.144 12.0668 257.035 12.0945C256.926 12.1222 256.824 11.7579 256.809 11.285L256.781 10.4251L256.478 11.3511C256.272 11.9809 256.006 12.2857 255.646 12.3039C255.355 12.3186 254.854 12.4143 254.533 12.5166C254.036 12.6749 253.911 12.5723 253.697 11.8284C253.498 11.1384 253.44 11.0829 253.421 11.5652C253.408 11.9012 253.278 12.1025 253.132 12.0126C252.987 11.9227 252.868 11.9822 252.868 12.1449C252.868 12.3076 252.735 12.3589 252.574 12.2589C252.412 12.1589 252.176 12.2412 252.049 12.4417C251.922 12.6423 251.816 12.6873 251.814 12.5417C251.81 12.2563 250.058 12.2203 249.779 12.4999C249.686 12.5931 249.449 12.5368 249.254 12.3748C248.996 12.1604 248.804 12.1594 248.549 12.3708C248.356 12.5307 247.91 12.6038 247.557 12.5333C245.95 12.2122 245.724 12.191 245.724 12.3608C245.724 12.4603 244.802 12.5175 243.674 12.4879C242.546 12.4583 241.266 12.4308 240.829 12.4268C239.492 12.4145 238.736 12.3842 238.183 12.321C237.892 12.2877 237.205 12.3379 236.656 12.4327C236.108 12.5275 235.599 12.5088 235.526 12.3912C235.454 12.2736 235.129 12.2368 234.804 12.3093C234.241 12.4353 232.509 12.505 232.23 12.4128C232.158 12.3887 231.879 12.3274 231.611 12.2767C231.343 12.226 231.057 12.1179 230.975 12.0365C230.894 11.9551 230.693 12.0722 230.529 12.2968C230.29 12.6234 230.083 12.6491 229.493 12.425C229.054 12.2582 228.576 12.238 228.31 12.375C228.065 12.5017 227.627 12.5526 227.336 12.4883C227.044 12.424 226.568 12.3922 226.277 12.4178C225.79 12.4606 225.287 12.4578 223.908 12.4046C223.624 12.3936 223.251 12.2681 223.079 12.1256C222.866 11.9492 222.72 11.9906 222.618 12.2558C222.503 12.5554 222.283 12.5916 221.661 12.4133C221.089 12.2493 220.844 12.2728 220.822 12.4939C220.805 12.6657 220.7 12.449 220.589 12.0125C220.428 11.3809 220.38 11.339 220.355 11.8075C220.328 12.3232 220.242 12.3651 219.663 12.1447C219.221 11.977 219.001 11.9843 219.001 12.1669C219.001 12.3174 218.892 12.3733 218.759 12.291C218.626 12.2087 218.457 12.291 218.383 12.4738C218.31 12.6567 218.24 12.4916 218.228 12.1069C218.202 11.2285 217.416 10.828 217.41 11.6901C217.407 12.1661 217.357 12.202 217.149 11.8802C216.93 11.541 216.892 11.5506 216.889 11.9463C216.885 12.4585 216.225 12.5768 215.941 12.1165C215.822 11.9247 215.703 11.9158 215.595 12.0907C215.454 12.3186 213.842 12.5609 213.445 12.4141C213.003 12.2508 212.08 12.2628 211.975 12.4332C211.906 12.5441 211.504 12.5355 211.08 12.414C210.656 12.2925 210.257 12.246 210.192 12.3107C209.952 12.5512 203.655 12.5658 203.655 12.3259C203.655 12.1906 203.488 12.2186 203.284 12.388C202.999 12.6245 202.881 12.6167 202.775 12.3543C202.665 12.0816 202.59 12.0796 202.402 12.3443C201.991 12.925 200.745 12.6354 200.565 11.9172L200.405 11.2775L200.103 12.0145C199.819 12.7112 199.777 12.7267 199.347 12.2969C199.097 12.0469 198.893 11.9699 198.893 12.1258C198.893 12.5111 197.752 12.4858 197.358 12.0918C197.121 11.8543 197.041 11.8522 197.041 12.0838C197.041 12.2539 196.862 12.3245 196.644 12.2407C196.417 12.1535 196.247 12.2357 196.247 12.4319C196.247 12.6362 196.09 12.5672 195.859 12.2617C195.645 11.9793 195.466 11.8815 195.462 12.0446C195.457 12.2076 195.064 12.3331 194.588 12.3235C194.113 12.3135 193.517 12.3851 193.266 12.4817C193.014 12.5783 192.54 12.5573 192.212 12.435C191.885 12.3127 191.379 12.3004 191.088 12.4078C190.797 12.5152 190.32 12.516 190.029 12.4098C189.738 12.3035 189.232 12.3165 188.905 12.4389C188.577 12.5612 188.309 12.57 188.309 12.4583C188.309 12.1997 184.844 12.2313 184.419 12.4938C183.834 12.855 182.754 12.3965 182.75 11.7858C182.748 11.4741 182.658 10.9215 182.551 10.5577C182.395 10.0278 182.33 10.1849 182.224 11.348L182.092 12.7997L181.496 12.158C181.097 11.7273 180.892 11.1629 180.875 10.4417C180.86 9.85063 180.753 9.06941 180.637 8.7056C180.481 8.22124 180.418 8.50875 180.398 9.77951C180.382 10.859 180.225 11.709 179.984 12.0285C179.77 12.311 179.589 12.423 179.583 12.2775C179.576 12.1319 179.461 12.1848 179.329 12.3947C179.16 12.6608 179.03 12.2769 178.901 11.1291C178.688 9.25402 178.474 9.22122 178.266 11.0318L178.123 12.2774L176.8 12.4362C176.073 12.5235 175.222 12.5014 174.909 12.3869C174.597 12.2725 174.259 12.2606 174.159 12.3604C173.912 12.6076 171.112 12.5921 171.112 12.3435C171.112 12.0224 170.371 12.1166 170.26 12.4519C170.186 12.6743 170.019 12.6816 169.656 12.4784C169.348 12.306 168.923 12.286 168.554 12.4265C168.099 12.5994 167.888 12.5446 167.688 12.2017C167.542 11.9523 167.42 11.8799 167.415 12.0409C167.405 12.4235 164.695 12.4175 164.435 12.0339C164.298 11.8318 164.239 11.835 164.236 12.0449C164.234 12.2311 163.764 12.3191 162.976 12.2806C162.284 12.2468 161.431 12.3261 161.079 12.4568C160.728 12.5874 160.37 12.6004 160.286 12.4856C160.095 12.2273 159.181 12.2297 158.76 12.4896C158.589 12.5957 158.392 12.5912 158.323 12.4796C158.22 12.3138 154.635 12.2527 154.178 12.409C154.027 12.4606 151.914 12.402 150.342 12.3018C149.76 12.2649 149.126 12.3555 148.933 12.5033C148.697 12.6837 148.523 12.6843 148.403 12.5053C148.169 12.154 147.299 11.8382 147.299 12.1042C147.299 12.2184 146.347 12.3143 145.182 12.3175C143.589 12.3215 143.066 12.2358 143.066 11.9694C143.066 11.7748 142.887 11.6155 142.669 11.6155C142.451 11.6155 142.272 11.7941 142.272 12.0124C142.272 12.2307 142.123 12.4165 141.941 12.4252C139.695 12.5332 138.832 12.5062 138.832 12.3275C138.832 12.2098 138.695 12.1982 138.528 12.3018C138.36 12.4054 138.062 12.2706 137.866 12.0023C137.572 11.5996 137.509 11.5872 137.509 11.931C137.509 12.4619 136.52 12.7292 135.86 12.3763C135.523 12.1955 135.106 12.1929 134.603 12.3683C134.189 12.5126 133.787 12.5675 133.71 12.4903C133.633 12.4131 133.178 12.3192 132.7 12.2816C132.04 12.2297 131.787 12.0613 131.653 11.5836C131.556 11.2374 131.465 11.1099 131.45 11.3004C131.392 12.0678 130.893 11.2529 130.864 10.3431C130.837 9.49489 130.802 9.55553 130.595 10.8046C130.315 12.489 130.246 12.5943 129.711 12.15C129.489 11.9659 129.304 11.9192 129.299 12.0462C129.295 12.1731 129.152 12.0391 128.982 11.7478C128.682 11.2341 128.669 11.2374 128.52 11.8588C128.373 12.4751 128.289 12.4971 126.258 12.4493C125.097 12.422 124.029 12.3969 123.883 12.3937C123.738 12.3907 123.291 12.4661 122.891 12.5617C122.449 12.6674 122.164 12.6265 122.164 12.4576C122.164 12.1945 121.007 12.2754 120.527 12.5721C120.406 12.6465 120.239 12.5287 120.156 12.3104C120.072 12.0921 119.834 11.9782 119.628 12.0574C119.342 12.1671 119.247 11.9274 119.225 11.0485L119.197 9.89572L118.949 10.9969C118.609 12.5128 118.281 12.7234 116.715 12.4308C115.854 12.27 115.364 12.2805 115.252 12.4621C115.137 12.6481 114.93 12.6495 114.602 12.4661C114.302 12.2981 113.886 12.2867 113.494 12.4359C113.149 12.5671 112.6 12.6075 112.274 12.5257C111.089 12.2283 110.65 12.2251 110.456 12.5126C110.318 12.7161 110.178 12.6844 109.997 12.409C109.854 12.1907 109.735 12.1056 109.732 12.2199C109.73 12.3341 109.49 12.3002 109.199 12.1445C108.889 11.9787 108.67 11.9651 108.67 12.1118C108.67 12.2495 108.462 12.3297 108.207 12.2899C107.952 12.2501 107.476 12.3174 107.149 12.4391C106.567 12.6556 106.553 12.6176 106.535 10.7489C106.515 8.69526 106.078 8.92225 106.043 11.0044C106.032 11.6143 105.879 12.2027 105.702 12.312C105.277 12.5748 102.055 12.6524 102.055 12.3998C102.055 12.0592 101.144 12.2591 100.807 12.6736C100.548 12.9925 100.483 12.9989 100.476 12.706C100.47 12.427 100.209 12.3828 99.3653 12.5177C98.5927 12.6413 98.1968 12.592 98.0424 12.3531C97.8658 12.08 97.7732 12.088 97.5768 12.3932C97.3773 12.7032 97.1525 12.7193 96.3703 12.4792C95.5973 12.242 95.3817 12.2551 95.27 12.546C95.1712 12.8033 94.9595 12.8426 94.5371 12.682C94.2104 12.5578 92.8215 12.4834 91.4508 12.5166C90.08 12.5498 88.7064 12.4886 88.3983 12.3806C88.0903 12.2726 87.376 12.2885 86.8111 12.4159C86.2461 12.5433 85.6968 12.5605 85.5904 12.4541C85.484 12.3477 85.2906 11.4308 85.1606 10.4165L84.9243 8.57251L84.8909 10.1112C84.85 11.9911 84.4974 12.7629 83.783 12.5361C83.4715 12.4373 83.2699 12.497 83.2699 12.6881C83.2699 12.9023 83.1642 12.9198 82.9392 12.7428C82.7573 12.5997 81.8941 12.5061 81.0209 12.5347C80.1478 12.5633 79.2846 12.4726 79.1027 12.3332C78.8879 12.1685 78.6475 12.1828 78.4169 12.3743C78.2216 12.5363 77.9772 12.5843 77.8738 12.4809C77.5468 12.1539 75.891 12.2152 75.759 12.5592C75.6591 12.8195 75.4221 12.8155 74.6227 12.54C74.0672 12.3486 73.4936 12.2899 73.348 12.4097C73.2025 12.5295 72.5859 12.5363 71.9777 12.4249C71.3695 12.3135 70.7415 12.303 70.582 12.4015C70.4226 12.5001 69.0213 12.5527 67.4682 12.5185C65.1117 12.4666 64.5872 12.3783 64.2998 11.9852C63.9818 11.5503 63.9537 11.5637 63.9344 12.16C63.923 12.5152 63.8532 12.6563 63.7795 12.4735C63.7058 12.2907 63.5564 12.1962 63.4474 12.2636C62.9418 12.576 61.5741 12.6613 61.5741 12.3804C61.5741 12.1685 61.4568 12.1769 61.1772 12.409C60.9589 12.5901 60.7802 12.6345 60.7801 12.5075C60.78 12.3805 60.4824 12.2595 60.1187 12.2385C59.755 12.2175 59.4574 12.2849 59.4574 12.3882C59.4574 12.5851 56.8451 12.5238 55.8194 12.3029C55.492 12.2324 55.2241 12.2869 55.2241 12.4241C55.2241 12.7805 54.3306 12.7325 53.9541 12.356C53.7794 12.1814 53.6364 12.1516 53.6362 12.2899C53.636 12.52 50.946 12.6207 50.3293 12.4138C50.1838 12.365 49.8578 12.4157 49.605 12.5263C49.3521 12.637 48.7967 12.6061 48.3707 12.4576C47.9447 12.3091 47.5165 12.2671 47.4192 12.3644C47.1743 12.609 41.2013 12.5883 41.2012 12.3428C41.2011 11.9611 40.4625 12.1482 40.3003 12.571C40.1863 12.868 40.037 12.9188 39.809 12.7381C39.3847 12.402 37.8165 12.3706 37.6165 12.6942C37.5275 12.8382 37.2209 12.7746 36.8916 12.544C36.1494 12.0242 35.9104 12.0395 35.9054 12.6073C35.903 12.8864 35.8242 12.9576 35.707 12.7865C35.3907 12.3245 34.6734 12.1633 34.3542 12.4825C34.1349 12.7019 33.9795 12.7014 33.7589 12.4805C33.5372 12.2588 33.3239 12.2622 32.9305 12.4937C32.5176 12.7367 32.3742 12.7321 32.2804 12.4731C32.2143 12.2902 32.0299 12.2212 31.8707 12.3196C31.4333 12.5899 25.549 12.6442 24.8652 12.3842C24.5366 12.2593 24.2678 12.2584 24.2678 12.3822C24.2678 12.5789 21.6812 12.5893 20.9605 12.3955C20.815 12.3564 20.4831 12.4172 20.2231 12.5307C19.9077 12.6684 19.5644 12.5722 19.1922 12.242C18.7872 11.8826 18.6024 11.838 18.518 12.0793C18.4541 12.2621 18.2929 12.3443 18.1598 12.2621C18.0267 12.1799 17.9178 12.2207 17.9178 12.3529C17.9178 12.485 17.4713 12.5742 16.9256 12.551C16.0144 12.5123 15.9201 12.4345 15.7698 11.5987L15.6062 10.6886L15.5714 11.5485C15.538 12.3721 15.4891 12.4099 14.4121 12.4449C13.7937 12.465 12.8709 12.4966 12.3616 12.5151C11.8523 12.5336 11.2196 12.4494 10.9556 12.3279C10.6542 12.1892 10.3264 12.231 10.0742 12.4403C9.75637 12.7041 9.56489 12.7061 9.15436 12.4493C8.86922 12.2712 8.50393 12.2071 8.3426 12.3068C7.93861 12.5564 6.03161 12.5961 5.16622 12.3727C4.73899 12.2624 4.41572 12.3009 4.35982 12.4686C4.29542 12.6617 4.09257 12.6554 3.7052 12.4481C3.28262 12.2219 3.1184 12.2241 3.04078 12.4571C2.97628 12.6507 2.79918 12.6808 2.5676 12.5377C1.88406 12.1152 0.96246 12.159 0.77146 12.6231C0.67036 12.8687 0.525861 8.78337 0.450331 3.54462C0.357131 -2.92021 0.313435 0.139953 0.314345 13.0696C0.315075 23.5471 0.348751 28.1413 0.389151 23.2788C0.438151 17.3802 0.558776 14.3221 0.751586 14.0898L0.751418 14.0912Z" fill="black"/>
</svg>
