<svg width="465" height="27" viewBox="0 0 465 27" fill="none" xmlns="http://www.w3.org/2000/svg">
<path d="M0.67115 15.2686L0.742653 15.9301L1.12786 15.2207C1.45823 14.6123 1.61712 14.5411 2.24375 14.7208C2.64561 14.836 3.44977 14.9009 4.03075 14.8649C4.61174 14.8289 5.17456 14.9348 5.28147 15.1002C5.4211 15.3162 5.477 15.3078 5.47991 15.0702C5.48191 14.88 5.82126 14.7395 6.27771 14.7395C6.71428 14.7395 7.07146 14.8458 7.07146 14.9757C7.07146 15.4362 7.97968 15.5673 8.28428 15.1507C8.63101 14.6765 9.45271 14.5962 9.45271 15.0365C9.45271 15.2549 9.54661 15.2555 9.80779 15.0385C10.0031 14.8764 10.231 14.8119 10.3143 14.8952C10.3976 14.9785 10.6921 14.9255 10.9687 14.7775C11.2746 14.6138 11.8505 14.5937 12.4388 14.7263C13.1471 14.8861 13.4858 14.8482 13.7045 14.5846C13.956 14.2817 14.0618 14.2833 14.3738 14.5953C14.5776 14.7991 14.7444 15.1067 14.7444 15.2787C14.7444 15.4508 14.9607 15.3243 15.2251 14.9978C15.6344 14.4923 15.7917 14.45 16.2835 14.7132C16.6011 14.8832 16.8611 14.922 16.8611 14.7994C16.8611 14.6768 17.248 14.6168 17.7209 14.6662C18.732 14.7716 19.8153 14.7985 20.1765 14.7272C20.8602 14.5921 21.359 14.7816 21.359 15.1765C21.359 15.5257 21.4657 15.4909 21.8881 15.0038C22.1792 14.6682 22.4173 14.5144 22.4173 14.662C22.4173 14.8096 22.715 14.8735 23.0788 14.8039C23.6281 14.6989 23.7402 14.7799 23.7402 15.2816C23.7402 15.6138 23.8295 15.796 23.9387 15.6864C24.0478 15.5767 24.2698 16.301 24.4321 17.2959L24.727 19.1048L24.7934 16.8559C24.8299 15.6189 24.9138 14.8123 24.9796 15.0633C25.0897 15.4831 25.1444 15.4778 25.6607 14.9968C25.9694 14.7092 26.2887 14.5633 26.3702 14.6726C26.5814 14.9562 29.2964 14.9829 29.2964 14.7014C29.2964 14.5728 29.7297 14.6485 30.2592 14.8698C30.883 15.1304 31.3289 15.1834 31.5255 15.0203C31.7834 14.8062 32.9925 14.7998 33.9266 15.0076C34.0721 15.04 34.2507 15.037 34.3235 15.0006C34.3963 14.9646 34.7534 14.903 35.1172 14.8636C35.4811 14.8243 36.0466 14.7274 36.374 14.6483C36.7014 14.5692 36.9693 14.6095 36.9693 14.7376C36.9693 14.8657 37.2075 14.9526 37.4985 14.9306C37.7895 14.9087 38.0277 14.8082 38.0277 14.7073C38.0277 14.3143 39.0878 14.8257 39.1167 15.2327C39.1427 15.5997 39.1656 15.595 39.2684 15.2018C39.3349 14.9472 39.5295 14.7206 39.7007 14.6985C40.5939 14.5828 40.8221 14.6116 40.9962 14.8619C41.1244 15.0463 41.3618 15.027 41.7238 14.8026C42.0192 14.6195 42.261 14.5599 42.261 14.6703C42.261 14.7807 42.6182 14.871 43.0547 14.871C43.4913 14.871 43.8485 14.7818 43.8485 14.6727C43.8485 14.5636 44.265 14.5041 44.774 14.5404C45.283 14.5767 45.6998 14.7103 45.7001 14.8372C45.7003 14.9642 45.8494 14.9498 46.0313 14.8051C46.4336 14.4851 47.3754 14.6037 47.5043 14.9905C47.5558 15.1449 47.7354 15.1862 47.9034 15.0823C48.405 14.7723 49.9498 14.7286 50.4747 15.0095C50.844 15.2071 51.0234 15.1653 51.2061 14.8388C51.3639 14.5569 51.51 14.5061 51.6256 14.6931C51.7231 14.851 51.9777 14.9131 52.1914 14.8311C52.4138 14.7457 52.5832 14.8351 52.5878 15.0411C52.5933 15.2874 52.6777 15.2598 52.8566 14.9531C53.2789 14.229 55.1337 14.7275 55.3051 15.6111C55.399 16.0955 55.4242 16.0711 55.4541 15.4663C55.4931 14.6796 56.1876 14.4443 56.4502 15.1288C56.5803 15.4678 56.6541 15.4646 57.0144 15.1043C57.2871 14.8316 57.6856 14.7412 58.1793 14.8399C58.5921 14.9224 58.9298 14.9037 58.9298 14.7982C58.9298 14.6927 59.3465 14.6064 59.8558 14.6064C60.3651 14.6064 60.7818 14.7027 60.7818 14.8205C60.7818 14.9382 60.9009 14.961 61.0464 14.871C61.1919 14.7811 61.311 14.8574 61.311 15.0406C61.311 15.2996 61.3816 15.3031 61.6285 15.0562C62.0209 14.6638 62.8985 14.638 62.8985 15.0189C62.8985 15.173 63.0148 15.2272 63.1569 15.1394C63.7711 14.7598 65.0485 14.7822 65.1992 15.1751C65.3177 15.4838 65.401 15.4997 65.559 15.244C65.7879 14.8738 69.7138 14.7061 70.1885 15.0464C70.3417 15.1561 70.7927 15.077 71.1908 14.8705C71.7117 14.6002 72.1021 14.5662 72.5833 14.7491C73.0144 14.913 73.4243 14.9111 73.7373 14.7431C74.0971 14.5506 74.2613 14.584 74.372 14.8724C74.4871 15.1722 74.6752 15.203 75.1922 15.0064C75.5612 14.8661 75.8649 14.8377 75.8671 14.9432C75.8692 15.0487 75.9909 14.9565 76.1371 14.7383C76.3657 14.397 76.4699 14.4208 76.88 14.9082C77.3129 15.4226 77.3843 15.4348 77.6528 15.0404C77.9177 14.6513 77.9511 14.6613 77.9722 15.1352C77.994 15.6223 78.0172 15.6276 78.2655 15.2013C78.6638 14.5174 79.0331 14.6383 79.0741 15.4659C79.1053 16.0956 79.1256 16.1128 79.2253 15.5942C79.2887 15.2646 79.451 15.0633 79.5862 15.1468C79.7213 15.2303 79.8318 15.1799 79.8318 15.0349C79.8318 14.6911 80.9646 14.7627 81.2169 15.1224C81.3369 15.2937 81.4143 15.2479 81.4193 15.0028C81.4265 14.65 81.4559 14.65 81.6839 15.0028C81.829 15.2272 81.9422 15.2661 81.9445 15.0924C81.9497 14.7004 82.7205 14.8041 82.9852 15.2324C83.1379 15.4795 83.2664 15.4599 83.5232 15.1506C83.7087 14.927 83.9579 14.8042 84.0769 14.8778C84.1958 14.9513 84.3611 14.9017 84.444 14.7674C84.6113 14.4967 86.4752 14.9658 86.7404 15.3454C86.8294 15.4726 86.9677 15.3264 87.0477 15.0202C87.1773 14.5246 87.2687 14.498 87.8821 14.7775C88.2883 14.9626 88.668 15.426 88.8077 15.907L89.0445 16.7227L89.0684 15.7481C89.0906 14.8407 89.1472 14.7752 89.8897 14.7964C90.3283 14.8089 90.7639 14.7424 90.8576 14.6487C90.9513 14.555 91.1801 14.6046 91.3661 14.7589C91.6005 14.9535 91.8611 14.9557 92.2156 14.766C92.4968 14.6155 92.7927 14.5582 92.8733 14.6388C92.9538 14.7193 94.0312 14.8044 95.2675 14.8279C96.5038 14.8514 97.5983 14.9536 97.6997 15.0552C97.8012 15.1568 98.1479 15.067 98.4703 14.8559C98.7926 14.6447 99.1283 14.5438 99.2162 14.6317C99.5341 14.9496 103.24 14.9645 103.441 14.6487C103.556 14.4677 103.642 14.6132 103.65 15.0028L103.663 15.6643L104.013 15.0332C104.258 14.5907 104.422 14.4988 104.563 14.7256C104.672 14.9035 104.987 14.9902 105.261 14.9184C105.536 14.8466 105.835 14.9084 105.926 15.0559C106.03 15.2233 106.179 15.1892 106.323 14.9649C106.515 14.6673 106.599 14.6738 106.815 15.0028C106.989 15.2682 107.077 15.2901 107.08 15.0689C107.085 14.6476 107.937 14.6388 108.354 15.0558C108.601 15.3027 108.671 15.3027 108.671 15.0558C108.671 14.6348 109.648 14.646 109.82 15.0689C109.921 15.3178 110.023 15.3015 110.235 15.0028C110.389 14.7846 110.519 14.7251 110.523 14.8706C110.528 15.0161 110.623 14.9908 110.735 14.8144C111.03 14.351 112.111 14.709 112.111 15.27C112.111 15.5285 112.29 15.8085 112.508 15.8923C112.796 16.0029 112.905 15.8616 112.905 15.3758C112.905 14.9525 113.013 14.7738 113.199 14.8888C113.361 14.9888 113.597 14.9065 113.724 14.706C113.915 14.4043 113.956 14.4098 113.963 14.7382C113.97 15.091 114 15.091 114.228 14.7382C114.408 14.4591 114.495 14.891 114.52 16.1935L114.555 18.0455L114.815 16.6174C114.968 15.7714 115.156 15.3221 115.276 15.5151C115.425 15.7562 115.52 15.7275 115.644 15.4051C115.736 15.1654 115.931 15.0434 116.078 15.1339C116.224 15.2245 116.344 15.1487 116.344 14.9655C116.344 14.4163 116.816 15.067 116.947 15.7965C117.045 16.3416 117.072 16.304 117.102 15.5825C117.122 15.101 117.247 14.7744 117.38 14.8568C117.514 14.9392 117.926 14.8912 118.298 14.75C118.809 14.5555 119.07 14.5911 119.376 14.8973C119.598 15.1194 119.924 15.2123 120.099 15.1037C120.69 14.7388 121.636 14.8339 121.64 15.2586C121.644 15.6171 121.674 15.6181 121.901 15.2677C122.104 14.9528 122.159 15.0074 122.165 15.5322C122.171 16.0126 122.236 16.0939 122.404 15.8291C122.531 15.6285 122.768 15.5462 122.929 15.6462C123.093 15.7474 123.224 15.6595 123.224 15.448C123.224 15.2389 123.402 14.9197 123.62 14.7385C123.895 14.5109 124.017 14.5009 124.017 14.7061C124.017 14.8694 124.188 15.0031 124.397 15.0031C124.607 15.0031 124.825 15.3266 124.886 15.7307C124.986 16.3911 125 16.3768 125.036 15.5763C125.085 14.4849 125.688 14.5656 125.847 15.6849L125.956 16.4583L126.111 15.6894C126.28 14.8501 127.177 14.4719 127.213 15.2249C127.226 15.5024 127.283 15.5419 127.368 15.3321C127.442 15.1493 127.611 15.0671 127.744 15.1493C127.877 15.2316 127.986 15.1839 127.986 15.0434C127.986 14.9029 128.224 14.8503 128.515 14.9264C128.834 15.0098 129.044 14.9344 129.044 14.7369C129.044 14.4769 129.126 14.4772 129.441 14.7389C129.71 14.9618 129.945 14.9833 130.169 14.8053C130.351 14.6607 130.738 14.595 131.029 14.6594C131.32 14.7238 131.945 14.7798 132.418 14.7839C132.891 14.7879 133.278 14.9132 133.278 15.0621C133.278 15.2414 133.389 15.2448 133.608 15.0721C133.79 14.9287 134.58 14.7923 135.363 14.769C136.147 14.7457 136.88 14.6696 136.993 14.5998C137.106 14.53 137.485 14.8133 137.835 15.2293L138.471 15.9857L138.926 15.1923C139.363 14.4321 139.398 14.4198 139.764 14.8996C140.017 15.2304 140.216 15.3041 140.35 15.1165C140.648 14.7017 141.48 14.4446 141.48 14.7675C141.48 14.9197 141.868 15.0106 142.343 14.9697C142.818 14.9288 143.354 14.9862 143.534 15.0973C143.714 15.2084 143.861 15.1965 143.861 15.0707C143.861 14.945 144.486 14.8586 145.25 14.8788C146.014 14.899 146.727 14.7865 146.834 14.6288C146.967 14.432 147.029 14.4432 147.032 14.6645C147.034 14.8418 147.202 14.923 147.406 14.8449C147.609 14.7668 148.026 14.9717 148.332 15.3L148.888 15.897L148.914 15.2518L148.941 14.6066L149.153 15.2681C149.31 15.758 149.371 15.8021 149.391 15.4382C149.408 15.12 149.554 14.9994 149.806 15.0959C150.019 15.1779 150.265 15.1308 150.351 14.9912C150.45 14.8303 150.688 14.8337 150.999 15.0002C151.341 15.1829 151.522 15.1723 151.591 14.9655C151.654 14.7747 151.852 14.8297 152.141 15.1188C152.47 15.4473 152.598 15.475 152.613 15.2204C152.63 14.9417 152.663 14.944 152.777 15.2314C152.899 15.5359 152.956 15.5359 153.144 15.2314C153.468 14.7059 155.496 14.7269 155.524 15.256C155.537 15.5284 155.589 15.5543 155.678 15.3337C155.751 15.1518 156.04 15.003 156.318 15.003C156.597 15.003 156.826 14.8694 156.826 14.706C156.826 14.5008 156.948 14.5108 157.222 14.7384C157.441 14.9195 157.625 14.9639 157.631 14.8369C157.638 14.7099 157.807 14.9633 158.007 15.3998C158.331 16.1082 158.372 16.1295 158.392 15.5982C158.417 14.898 159.198 14.7742 159.225 15.466C159.242 15.8814 159.264 15.878 159.439 15.4336C159.622 14.968 159.66 14.9651 160.082 15.3863C160.503 15.8075 160.53 15.8054 160.534 15.3526C160.537 14.9437 160.577 14.9308 160.798 15.2675C161.03 15.6203 161.088 15.6203 161.323 15.2675C161.54 14.9427 161.629 14.9347 161.816 15.2235C161.998 15.5064 162.077 15.4903 162.21 15.1427C162.333 14.8213 162.493 14.7745 162.828 14.9619C163.112 15.1206 163.523 15.1222 163.933 14.9659C164.4 14.7885 164.646 14.8127 164.793 15.0508C164.906 15.2341 165.085 15.2979 165.191 15.1924C165.296 15.087 165.653 15.1784 165.985 15.3955C166.366 15.6449 166.648 15.6924 166.752 15.5244C166.842 15.3782 167.027 15.327 167.163 15.4107C167.298 15.4944 167.413 15.4067 167.417 15.2166C167.423 14.985 167.541 15.0224 167.774 15.3292C167.966 15.5816 168.197 15.7134 168.289 15.622C168.38 15.5307 168.53 15.6516 168.622 15.8907C168.841 16.4628 169.526 16.4514 169.526 15.8756C169.526 15.5309 169.598 15.4985 169.837 15.737C170.064 15.9643 170.242 15.9698 170.498 15.7575C170.758 15.5419 170.849 15.5549 170.849 15.808C170.849 15.9956 170.924 16.0739 171.016 15.982C171.107 15.8901 171.397 15.9295 171.659 16.0696C172.006 16.2553 172.254 16.2053 172.574 15.8851C172.945 15.5138 173.05 15.5036 173.25 15.8195C173.436 16.1132 173.491 16.0799 173.509 15.664C173.531 15.1444 173.535 15.1442 173.734 15.6523C173.935 16.1658 173.939 16.1658 174.236 15.6523C174.521 15.1621 174.537 15.1684 174.545 15.7712C174.552 16.3907 174.567 16.3948 175.082 15.9286C175.525 15.5273 175.611 15.5154 175.611 15.8552C175.611 16.4041 176.394 17.0731 176.431 16.5563C176.446 16.3566 176.553 16.4908 176.669 16.8546C176.854 17.4328 176.884 17.3845 176.908 16.471C176.939 15.221 177.373 15.4869 177.534 16.8546L177.643 17.7807L177.685 16.7885C177.732 15.698 178.257 15.3942 178.257 16.4578C178.257 16.8216 178.376 17.1192 178.521 17.1192C178.667 17.1192 178.786 16.901 178.786 16.6342C178.786 16.3674 178.86 16.0754 178.95 15.9853C179.166 15.7693 179.842 16.4556 179.853 16.9019C179.857 17.0942 180.036 17.4826 180.25 17.7651C180.62 18.2546 180.639 18.2421 180.65 17.5005L180.662 16.7224L181.013 17.5161L181.365 18.3098L181.559 17.5822C181.791 16.7153 182.108 16.6426 182.309 17.4104C182.503 18.1531 182.904 17.8603 183.153 16.794L183.354 15.9286L183.552 16.7224L183.75 17.5161L183.828 16.5901C183.879 15.9889 183.967 16.3138 184.078 17.5161C184.199 18.8251 184.263 19.0468 184.296 18.2721C184.324 17.6113 184.49 17.1193 184.713 17.0335C185.143 16.8685 185.377 17.5461 185.428 19.1036C185.447 19.6857 185.517 19.9521 185.584 19.6957C185.65 19.4393 185.815 19.2975 185.95 19.3806C186.084 19.4637 186.194 19.3002 186.194 19.0172C186.194 18.3952 186.976 16.8197 187.005 17.3838C187.019 17.6495 187.1 17.6058 187.253 17.2516C187.451 16.7905 187.486 16.8245 187.53 17.5161L187.58 18.3098L187.782 17.5161C187.921 16.9697 188.006 17.5878 188.055 19.5005C188.129 22.3895 188.173 22.3231 188.453 18.9052C188.577 17.393 188.719 16.8546 188.995 16.8546C189.201 16.8546 189.369 17.0403 189.369 17.2672C189.369 17.897 189.894 17.4342 189.93 16.7729C189.954 16.3223 190.006 16.3699 190.163 16.987L190.365 17.7807L190.396 16.9208C190.441 15.6874 190.957 15.8555 190.957 17.1036C190.957 18.4172 191.36 18.7099 191.611 17.578C191.715 17.1074 191.858 16.8712 191.93 17.0531C192.206 17.7587 193.315 17.0581 193.364 16.146C193.383 15.8005 193.451 15.8513 193.603 16.3255C193.719 16.6893 193.826 16.8381 193.841 16.6562C193.878 16.1959 194.527 16.2427 194.936 16.735C195.202 17.0556 195.321 17.0715 195.483 16.8085C195.727 16.4135 195.899 16.7785 196.065 18.0454C196.122 18.4819 196.205 17.9462 196.248 16.8548C196.292 15.7634 196.378 15.1998 196.438 15.6024C196.499 16.0051 196.657 16.2681 196.788 16.1869C197.017 16.0455 197.169 16.4787 197.395 17.9131C197.452 18.2769 197.517 18.0387 197.539 17.3839C197.595 15.7358 197.961 15.2005 198.389 16.1409C198.73 16.8877 199.146 17.0899 199.178 16.524C199.188 16.3421 199.298 16.4314 199.424 16.7224C199.64 17.2274 199.652 17.2243 199.669 16.6563C199.692 15.9327 200.216 15.8658 200.398 16.5633C200.47 16.8399 200.724 17.037 200.963 17.0019C201.202 16.9669 201.576 17.1176 201.795 17.3368C202.15 17.6918 202.218 17.6124 202.416 16.6098C202.692 15.2166 202.933 15.4108 203.151 17.2018L203.318 18.5746L203.355 17.3335C203.391 16.1501 203.788 15.4636 204.149 15.961C204.446 16.3694 205.244 16.2859 205.244 15.8465C205.244 15.5195 205.315 15.4966 205.562 15.7436C205.736 15.9182 206.094 16.0611 206.356 16.0611C206.69 16.0611 206.843 16.2777 206.868 16.7887C206.903 17.5015 206.906 17.5029 207.023 16.8548C207.193 15.9046 207.622 15.5485 207.643 16.3388L207.661 16.9871L207.949 16.3918C208.258 15.7499 209.085 15.5883 209.302 16.1272C209.385 16.3311 209.444 16.2867 209.457 16.0113C209.483 15.4445 210.522 15.4817 210.571 16.0512C210.59 16.2749 210.679 16.0492 210.769 15.5491C210.92 14.7118 210.967 14.674 211.36 15.0691C211.645 15.3549 211.875 15.4097 212.052 15.2333C212.228 15.0569 212.445 15.0974 212.702 15.3548C213.105 15.7575 214.505 15.6656 214.505 15.2365C214.505 14.8391 215.029 14.9775 215.624 15.5319C216.375 16.2313 216.577 16.2008 216.935 15.3335L217.235 14.6059L217.426 15.3996C217.54 15.8725 217.63 15.9884 217.648 15.6862C217.666 15.4073 217.758 15.2574 217.854 15.3532C217.95 15.449 218.18 15.401 218.366 15.2467C218.601 15.0521 218.861 15.0499 219.216 15.2397C219.497 15.3902 219.804 15.4364 219.898 15.3424C220.222 15.0178 222.707 14.8181 222.711 15.1163C222.713 15.2835 222.799 15.2666 222.921 15.0749C223.18 14.6675 225.682 14.8016 225.825 15.2306C225.982 15.699 226.409 15.5852 226.432 15.0689C226.444 14.7895 226.506 14.7377 226.587 14.9383C226.66 15.1211 226.856 15.1873 227.02 15.0855C227.513 14.7813 230.115 14.7596 230.115 15.0598C230.115 15.2217 230.275 15.1991 230.511 15.0041C230.728 14.8236 231.207 14.7335 231.575 14.8039C231.943 14.8743 232.301 14.8399 232.371 14.7276C232.587 14.3778 233.555 14.7775 233.555 15.2165C233.555 15.569 233.607 15.561 233.897 15.1648C234.138 14.8359 234.512 14.7224 235.154 14.7835C235.934 14.8577 236.113 15.0067 236.375 15.7965C236.637 16.5893 236.706 16.6464 236.857 16.1934C237.539 14.1403 237.961 14.3908 238.176 16.9759C238.446 20.2166 239.094 19.9847 239.13 16.6348C239.143 15.4038 239.217 15.0304 239.376 15.3996C239.567 15.8454 239.606 15.8567 239.622 15.4709C239.643 14.9489 240.646 14.6158 241.629 14.8039C242.009 14.8764 242.288 14.8049 242.29 14.6353C242.293 14.4462 242.363 14.4357 242.488 14.606C242.601 14.76 244.095 14.865 246.056 14.8569C248.933 14.845 249.43 14.9034 249.434 15.2536C249.438 15.6152 249.468 15.6168 249.689 15.2674C250.108 14.6049 251.125 14.7682 251.317 15.5287L251.484 16.1935L251.515 15.4967C251.539 14.9754 251.713 14.7681 252.208 14.6735C252.572 14.604 252.869 14.6356 252.869 14.744C252.869 15.0853 254.017 15.2579 254.365 14.969C254.548 14.817 254.823 14.7695 254.974 14.8634C255.126 14.9573 255.252 14.8782 255.255 14.6877C255.258 14.4076 255.302 14.409 255.483 14.6947C255.606 14.8891 255.812 15.0352 255.942 15.0194C256.071 15.0037 256.236 15.6981 256.309 16.5626C256.482 18.6197 256.74 18.8202 256.962 17.0703C257.254 14.7717 257.27 14.7487 258.508 14.7713C259.117 14.7824 259.884 14.7268 260.212 14.6478C260.637 14.5452 260.807 14.6225 260.807 14.9181C260.807 15.2562 260.88 15.2718 261.204 15.0028C261.422 14.8217 261.601 14.7517 261.601 14.8474C261.601 14.9431 261.815 14.9066 262.078 14.7661C262.357 14.6164 262.711 14.6068 262.931 14.7428C263.166 14.8884 263.39 14.8569 263.532 14.6582C263.706 14.4138 263.788 14.4165 263.891 14.67C263.988 14.9089 264.163 14.9244 264.532 14.7268C264.812 14.5773 265.041 14.5485 265.041 14.6628C265.041 14.777 265.458 14.8794 265.967 14.8904C266.476 14.9012 266.892 14.8049 266.892 14.6763C266.892 14.5477 267.032 14.5288 267.203 14.6344C267.635 14.9018 271.131 14.9428 271.292 14.6824C271.365 14.5653 271.744 14.5394 272.135 14.6249C272.526 14.7104 274.988 14.7683 277.608 14.7536C283.791 14.7189 283.916 14.7226 284.14 14.9466C284.244 15.0514 284.371 16.0891 284.421 17.2528L284.513 19.3685L284.566 16.9652C284.609 15.029 284.696 14.5619 285.016 14.5619C285.235 14.5619 285.413 14.6682 285.413 14.798C285.413 14.9279 285.557 14.9452 285.733 14.8365C285.909 14.7277 286.594 14.6626 287.254 14.6917C291.282 14.8695 292.824 14.8458 292.842 14.606C292.854 14.4605 292.925 14.4953 293 14.6833C293.109 14.9545 293.218 14.958 293.529 14.7002C293.762 14.5066 293.992 14.4754 294.098 14.623C294.312 14.9199 295.732 15.0124 295.732 14.7295C295.732 14.5227 297.851 14.6521 298.071 14.8724C298.14 14.9417 298.356 14.8654 298.552 14.7036C298.825 14.4768 298.907 14.5122 298.907 14.8571C298.907 15.2731 298.938 15.274 299.342 14.8699C299.66 14.5517 299.829 14.5186 299.971 14.747C300.088 14.9377 300.226 14.9591 300.323 14.802C300.515 14.4903 301.817 14.7003 301.817 15.043C301.817 15.1767 302.066 15.1531 302.369 14.9907C302.673 14.8283 302.989 14.7635 303.072 14.8468C303.156 14.9301 303.393 14.8581 303.599 14.6868C303.856 14.4732 304.03 14.4627 304.153 14.6535C304.252 14.8088 305.051 14.9081 305.961 14.8784C307.583 14.8255 307.592 14.8292 307.767 15.6416C307.865 16.0907 308.035 17.2914 308.145 18.3101C308.289 19.6329 308.359 19.8598 308.391 19.1039C308.519 16.1022 308.746 15.2556 309.529 14.8507L310.284 14.4601L310.32 16.1205C310.34 17.0338 310.402 17.4833 310.457 17.1195C310.792 14.9393 310.846 14.7913 311.365 14.6557C311.749 14.5553 311.97 14.6798 312.135 15.0895C312.263 15.4056 312.375 15.5196 312.384 15.3429C312.411 14.8153 313.393 14.4198 313.944 14.7144C314.21 14.8571 314.984 15.0026 315.663 15.0378C316.343 15.073 316.9 15.2283 316.903 15.383C316.905 15.5377 317.022 15.4857 317.163 15.2674C317.391 14.9146 317.42 14.9146 317.428 15.2674C317.435 15.5863 317.48 15.5948 317.66 15.3109C317.985 14.7981 318.154 14.8097 318.566 15.3726C318.923 15.8615 318.937 15.8602 319.077 15.3233C319.184 14.9134 319.423 14.7776 320.006 14.7942C320.438 14.8065 320.927 14.7323 321.094 14.6294C321.263 14.5245 321.396 14.5983 321.396 14.7975C321.396 15.0214 321.665 15.1328 322.124 15.0991C322.524 15.0697 322.852 15.0208 322.852 14.9904C322.852 14.96 323.126 14.9069 323.461 14.8722C323.941 14.8225 324.102 14.9694 324.221 15.5674C324.401 16.4667 324.834 16.5808 324.84 15.7303C324.848 14.5879 325.24 14.3635 325.858 15.1484L326.423 15.8678V15.1646C326.423 14.4753 326.437 14.47 327.085 14.8948C327.546 15.1969 327.746 15.2302 327.746 15.0049C327.746 14.827 327.921 14.7486 328.135 14.8306C328.348 14.9126 328.582 14.884 328.655 14.7671C328.727 14.6502 329.326 14.6365 329.986 14.7367C330.646 14.8368 331.186 14.8319 331.186 14.7256C331.186 14.321 332.126 14.6296 332.433 15.135C332.673 15.5302 332.757 15.561 332.764 15.2564C332.771 14.9308 333.146 14.8448 334.626 14.8294L336.478 14.8103L336.499 15.7664C336.52 16.7607 336.583 16.7051 336.862 15.4417C336.977 14.9266 337.15 14.7366 337.415 14.8381C337.627 14.9195 337.801 14.8943 337.801 14.7821C337.801 14.6698 338.485 14.6552 339.322 14.7496C340.159 14.844 340.881 14.8264 340.927 14.7107C340.973 14.5949 341.271 14.5876 341.589 14.6945C341.906 14.8015 342.702 14.8674 343.357 14.841C344.012 14.8146 345.188 14.7691 345.971 14.74C346.848 14.7073 347.47 14.8092 347.592 15.0054C347.708 15.1938 347.852 15.2206 347.945 15.071C348.031 14.9319 348.523 14.8464 349.039 14.881C349.555 14.9156 350.043 14.836 350.125 14.7044C350.206 14.5727 350.401 14.5445 350.558 14.6416C351.026 14.9307 352.638 14.9817 353.304 14.7285C353.78 14.5476 353.986 14.5982 354.189 14.9463C354.37 15.2573 354.456 15.2861 354.461 15.0381C354.466 14.8081 354.662 14.7269 354.998 14.8148C355.289 14.891 355.591 14.8506 355.668 14.7251C355.746 14.5996 356.068 14.5927 356.384 14.7097C356.701 14.8268 357.352 14.834 357.832 14.7257C358.313 14.6174 358.758 14.6143 358.823 14.7187C358.888 14.8232 359.976 14.8936 361.241 14.8751C363.308 14.8448 363.555 14.8934 363.675 15.3524C363.801 15.8339 363.837 15.827 364.293 15.2346C364.692 14.7155 364.777 14.6866 364.782 15.0688C364.785 15.3234 364.907 15.5318 365.053 15.5318C365.198 15.5318 365.317 15.4127 365.317 15.2672C365.317 15.1217 365.555 15.0026 365.846 15.0026C366.214 15.0026 366.381 15.1849 366.393 15.5979L366.411 16.1932L366.697 15.6008C366.964 15.0479 367.006 15.0391 367.332 15.4685C367.654 15.8925 367.682 15.8811 367.69 15.324C367.697 14.8076 367.774 14.7596 368.214 14.995C368.618 15.2116 368.787 15.171 368.999 14.8059C369.148 14.5503 369.274 14.465 369.278 14.6163C369.287 14.9234 370.573 14.959 371.044 14.6653C371.213 14.56 371.42 14.6647 371.51 14.9016C371.619 15.1851 371.783 15.2464 372.001 15.0857C372.444 14.7602 375.048 14.8888 375.493 15.258C375.757 15.4773 375.876 15.4727 375.954 15.2402C376.034 14.9991 376.193 14.9987 376.641 15.2382C377.121 15.4953 377.224 15.4803 377.224 15.1521C377.224 14.9072 377.376 14.8128 377.62 14.9065C377.839 14.9903 378.017 15.2247 378.017 15.4274C378.017 15.8617 378.331 15.9059 378.711 15.5252C378.86 15.3763 379.271 15.1997 379.624 15.1328C379.977 15.0659 380.594 14.9401 380.994 14.8534C381.644 14.7125 381.722 14.7703 381.722 15.3937C381.722 15.7777 381.833 16.023 381.969 15.9389C382.105 15.8548 382.265 16.1751 382.323 16.6508C382.403 17.2964 382.441 17.1859 382.473 16.2149C382.522 14.7035 382.798 14.7888 383.06 16.3962L383.243 17.5158L383.276 16.508C383.295 15.9104 383.417 15.5667 383.574 15.6637C383.719 15.7536 383.84 15.6118 383.842 15.3485C383.845 14.9854 383.9 14.9551 384.07 15.2229C384.246 15.5002 384.337 15.4719 384.494 15.0905C384.67 14.6668 384.74 14.7058 385.049 15.3991C385.36 16.0983 385.403 16.122 385.414 15.5976C385.421 15.2701 385.515 15.0006 385.624 14.9986C385.733 14.9966 386.09 14.9232 386.418 14.8355C386.874 14.7132 387.02 14.7912 387.044 15.1698C387.069 15.574 387.096 15.5848 387.19 15.2291C387.316 14.7556 388.336 14.8532 388.336 15.3387C388.336 15.4898 388.554 15.4164 388.82 15.1756C389.467 14.59 389.576 14.6159 390.037 15.4653C390.31 15.9688 390.435 16.0531 390.442 15.7392C390.448 15.4896 390.661 15.1792 390.916 15.0494C391.355 14.8256 393.912 14.8836 394.62 15.1335C394.802 15.1977 394.951 15.1203 394.951 14.9616C394.951 14.7711 395.086 14.785 395.348 15.0023C395.566 15.1834 395.746 15.2277 395.748 15.1007C395.751 14.9738 395.863 15.0447 395.998 15.2583C396.204 15.5833 396.333 15.5443 396.788 15.0194C397.208 14.5348 397.332 14.4897 397.332 14.8211C397.332 15.0639 397.481 15.1931 397.675 15.1186C397.876 15.0414 398.132 15.2911 398.294 15.7221L398.569 16.4574L398.922 15.723C399.116 15.319 399.403 15.0341 399.56 15.0897C399.717 15.1453 400.11 15.0927 400.433 14.9738C400.868 14.813 401.089 14.8743 401.285 15.2102C401.521 15.6154 401.55 15.6177 401.557 15.2316C401.563 14.9103 401.786 14.814 402.425 14.856C402.898 14.8871 403.434 14.799 403.616 14.6604C403.829 14.4979 403.947 14.504 403.947 14.6774C403.947 14.8254 404.423 14.992 405.005 15.0475C405.587 15.103 406.063 15.0555 406.063 14.943C406.063 14.83 406.182 14.7376 406.328 14.7376C406.473 14.7376 406.596 14.9459 406.6 15.2006C406.607 15.6101 406.637 15.6152 406.853 15.2448C407.056 14.8975 407.597 14.8349 410.016 14.8781C411.901 14.9118 413.076 15.048 413.335 15.2632C413.653 15.5272 413.736 15.5279 413.736 15.2671C413.736 15.0043 413.816 15.0043 414.133 15.2671C414.429 15.5126 414.53 15.5169 414.53 15.284C414.53 15.112 414.649 15.0449 414.794 15.1349C414.94 15.2248 415.068 15.1429 415.08 14.9521C415.097 14.6721 415.127 14.6712 415.238 14.9471C415.338 15.1956 415.469 15.2111 415.718 15.0041C415.97 14.7947 416.181 14.8394 416.515 15.1731C416.939 15.5971 416.985 15.5977 417.218 15.1821C417.569 14.5545 418.208 14.6302 418.49 15.3327C418.729 15.9266 418.73 15.9267 418.746 15.3561C418.765 14.7318 419.572 14.6511 419.773 15.2535C419.862 15.5195 419.935 15.5145 420.118 15.2304C420.312 14.9303 420.394 14.9363 420.611 15.2666C420.754 15.4849 420.874 15.5444 420.876 15.3989C420.883 15.0114 422.466 14.9565 422.475 15.3434C422.479 15.5195 422.598 15.4675 422.738 15.228C423.029 14.7287 425.156 14.7346 425.323 15.235C425.389 15.4324 425.532 15.414 425.768 15.1779C426.218 14.7286 430.458 14.7651 430.61 15.2196C430.679 15.4266 430.851 15.3865 431.142 15.0962C431.426 14.8118 431.606 14.7684 431.672 14.9679C431.728 15.1338 431.887 15.199 432.026 15.1128C432.166 15.0266 432.466 15.1109 432.694 15.2997C433.036 15.5833 433.16 15.5758 433.41 15.2563C433.789 14.7709 434.589 14.7589 434.883 15.2342C435.061 15.5224 435.161 15.4955 435.383 15.0995C435.653 14.6186 435.666 14.6191 435.857 15.1147C436.051 15.618 436.056 15.618 436.244 15.1147C436.42 14.6433 436.455 14.6547 436.71 15.2663C436.906 15.7353 436.991 15.793 437.003 15.4647C437.026 14.8084 437.548 14.8867 437.548 15.5465C437.548 15.8462 437.668 16.0177 437.813 15.9278C437.959 15.8379 438.079 15.5034 438.082 15.1845C438.085 14.7133 438.134 14.6791 438.342 15.0017C438.561 15.3397 438.599 15.3289 438.603 14.9289C438.607 14.4921 438.663 14.4879 439.401 14.8694C439.837 15.0952 440.194 15.2027 440.194 15.1084C440.194 15.0141 440.359 15.0736 440.56 15.2407C440.843 15.4749 440.962 15.452 441.081 15.1408C441.302 14.5656 441.782 14.641 441.782 15.2507C441.782 15.9611 442.238 16.1782 442.434 15.5611C442.753 14.5559 445.313 14.5765 445.577 15.5863C445.71 16.0925 445.745 16.0864 446.444 15.4381C447.168 14.7672 447.176 14.7662 447.548 15.2975L447.923 15.8329L448.317 15.2709C448.682 14.7501 448.756 14.7386 449.329 15.114C449.893 15.4837 449.958 15.4791 450.067 15.062C450.149 14.7492 450.202 14.8138 450.235 15.2663C450.281 15.9203 450.285 15.9211 450.518 15.3421C450.697 14.8958 450.945 14.7699 451.559 14.813C452.002 14.844 452.364 14.9629 452.365 15.0771C452.365 15.1914 452.588 15.1659 452.86 15.0204C453.131 14.8748 453.429 14.8309 453.521 14.9228C453.613 15.0147 453.688 14.9482 453.688 14.7751C453.688 14.5634 453.905 14.6023 454.35 14.8938C454.715 15.133 455.011 15.2024 455.011 15.0486C455.011 14.8954 455.249 14.788 455.54 14.8099C455.831 14.8318 456.071 15.0327 456.073 15.2564C456.077 15.6156 456.107 15.6168 456.334 15.2664C456.475 15.0482 456.594 14.9887 456.598 15.1342C456.603 15.2797 456.708 15.2387 456.832 15.0431C457.019 14.7488 457.196 14.7592 457.86 15.1027C458.577 15.4731 458.68 15.4744 458.818 15.1151C459.076 14.4429 459.891 14.8002 460.069 15.6633L460.233 16.4571L460.268 15.6052C460.3 14.8155 460.367 14.7558 461.187 14.7866C461.674 14.8049 462.209 14.7347 462.378 14.6306C462.574 14.5092 462.691 14.6602 462.705 15.0523C462.716 15.3883 462.786 15.5145 462.859 15.3326C462.933 15.1506 463.338 15.0019 463.761 15.0019H464.529L464.602 23.9315C464.643 28.8428 464.676 24.2887 464.677 13.8112C464.677 1.57536 464.63 -2.0282 464.541 3.73691L464.404 12.7126L462.7 12.7896C461.764 12.8319 460.841 12.9266 460.65 12.9999C460.412 13.0913 460.29 12.8654 460.263 12.2815C460.227 11.5143 460.213 11.4998 460.115 12.1352C459.989 12.9594 459.407 13.2741 458.916 12.7831C458.701 12.5683 458.375 12.5158 458.048 12.6435C457.199 12.9753 456.865 12.9143 456.837 12.4221C456.819 12.1135 456.74 12.1796 456.599 12.6206L456.387 13.282L456.342 12.6206C456.308 12.1282 456.251 12.0678 456.117 12.3844C456.018 12.6182 455.729 12.7776 455.474 12.7385C455.219 12.6994 455.011 12.7506 455.011 12.8523C455.011 12.9539 454.773 13.0551 454.482 13.077C454.191 13.0989 453.953 13.0089 453.953 12.877C453.953 12.7451 453.762 12.7103 453.529 12.7997C453.296 12.8891 452.989 12.7957 452.848 12.593C452.648 12.3071 452.559 12.2988 452.455 12.5561C452.381 12.7389 452.211 12.8212 452.078 12.7389C451.945 12.6566 451.836 12.7049 451.836 12.8461C451.836 13.2477 451.005 13.0252 450.64 12.5258C450.347 12.1246 450.294 12.1209 450.151 12.4919C450.025 12.8217 449.881 12.8484 449.455 12.6205C449.031 12.3936 448.885 12.419 448.761 12.7414C448.543 13.3087 448.2 13.2512 447.997 12.6136C447.824 12.0675 447.112 11.9964 446.743 12.4883C446.628 12.641 446.476 12.5052 446.384 12.167C446.256 11.7029 446.155 11.6489 445.897 11.9071C445.718 12.0864 445.515 12.4002 445.447 12.6045C445.313 13.0062 444.163 13.2096 444.163 12.8316C444.163 12.7053 443.903 12.7413 443.585 12.9115C443.079 13.182 442.929 13.1248 442.395 12.4578C441.927 11.8729 441.784 11.8026 441.783 12.1574C441.783 12.4121 441.603 12.6205 441.385 12.6205C441.167 12.6205 440.988 12.4787 440.988 12.3053C440.988 12.132 440.826 12.2119 440.628 12.4829C440.237 13.0174 439.401 13.2634 439.401 12.8438C439.401 12.7014 439.154 12.6631 438.853 12.7586C438.438 12.8903 438.27 12.7982 438.161 12.3796C437.972 11.6582 437.657 11.6762 437.424 12.422L437.237 13.0173L437.022 12.3559C436.822 11.7394 436.806 11.7338 436.781 12.274C436.745 13.0633 436.227 13.3375 436.222 12.5699C436.219 12.1022 436.161 12.0477 435.978 12.3374C435.665 12.8324 433.624 12.8551 433.322 12.367C433.137 12.0672 433.027 12.0775 432.677 12.4274C432.411 12.6925 431.987 12.801 431.536 12.7191C429.898 12.4221 429.082 12.4523 429.082 12.8101C429.082 13.0932 428.964 13.1051 428.519 12.8669C428.08 12.632 427.906 12.6445 427.729 12.9237C427.585 13.1514 427.501 13.1698 427.498 12.9743C427.495 12.8016 427.195 12.6997 426.812 12.7419C426.413 12.7856 426.07 12.6626 425.986 12.4462C425.868 12.1366 425.795 12.1422 425.545 12.4803C425.176 12.9789 421.906 12.9202 421.736 12.4119C421.661 12.1849 421.519 12.2076 421.234 12.4928C421.016 12.7111 420.728 12.8221 420.594 12.7394C420.46 12.6567 420.349 12.7454 420.347 12.9354C420.344 13.166 420.278 13.1863 420.148 12.9961C420.041 12.839 419.444 12.7262 418.821 12.7455C417.816 12.7767 417.669 12.705 417.515 12.1051L417.341 11.4296L417.187 12.0622C417.078 12.5081 416.82 12.7174 416.311 12.7717C415.913 12.8141 415.588 12.7232 415.588 12.5698C415.588 12.3758 415.485 12.3767 415.249 12.5728C414.871 12.8862 414.407 12.6813 414.227 12.1219C414.134 11.8314 414.01 11.8547 413.63 12.2347C413.075 12.7903 411.886 12.9951 411.88 12.5362C411.877 12.3216 411.815 12.3126 411.681 12.5074C411.381 12.9466 410.49 13.1986 410.304 12.8972C410.194 12.7197 409.841 12.712 409.273 12.875C408.798 13.0113 408.149 13.0266 407.831 12.9091C407.514 12.7915 406.748 12.7103 406.129 12.7285C405.511 12.7468 405.005 12.6662 405.005 12.5495C405.005 12.4327 404.764 12.4659 404.47 12.6233C404.176 12.7807 403.821 12.8389 403.682 12.7527C403.542 12.6665 403.166 12.7364 402.845 12.9079C402.349 13.1733 402.193 13.1353 401.804 12.6541C401.552 12.3429 401.306 12.2024 401.257 12.342C401.208 12.4816 400.707 12.6461 400.143 12.7076C399.307 12.7986 399.093 12.7273 398.987 12.323C398.831 11.7253 398.17 11.6667 397.954 12.2314C397.856 12.4869 397.615 12.5778 397.301 12.4781C397.014 12.3872 396.803 12.4469 396.803 12.6182C396.803 12.7821 396.684 12.8426 396.538 12.7527C396.393 12.6628 396.274 12.718 396.274 12.8755C396.274 13.0452 396.016 12.9932 395.642 12.7479C395.073 12.3751 394.97 12.3744 394.602 12.7419C394.09 13.2547 393.781 13.2566 393.36 12.7498C393.131 12.4731 392.93 12.4316 392.708 12.6153C392.532 12.7613 392.32 12.8127 392.237 12.7294C392.154 12.6461 391.855 12.7011 391.574 12.8516C390.929 13.197 390.461 12.7822 390.433 11.8403C390.413 11.184 390.404 11.1876 390.102 11.9712C389.792 12.7757 389.788 12.7768 387.608 12.8005C385.559 12.8228 385.423 12.7897 385.39 12.2596C385.354 11.6972 385.353 11.6972 385.241 12.2724C385.077 13.1181 384.114 12.978 384.067 12.1015C384.033 11.4792 384.022 11.4736 383.916 12.0255C383.755 12.8594 383.316 12.7691 383.273 11.8932C383.238 11.1803 383.235 11.179 383.118 11.8271C382.889 13.1025 382.516 13.0184 382.473 11.6816C382.439 10.6344 382.408 10.554 382.32 11.2805C382.239 11.95 382.147 12.0893 381.97 11.8097C381.783 11.5151 381.729 11.5599 381.726 12.0099C381.72 12.712 381.2 13.1159 381.174 12.438C381.159 12.053 381.12 12.037 380.975 12.3562C380.766 12.819 379.607 12.9572 379.601 12.5202C379.598 12.352 379.497 12.3815 379.366 12.5886C379.095 13.0155 378.546 12.7607 378.546 12.2083C378.546 11.9987 378.427 11.8271 378.282 11.8271C378.136 11.8271 378.017 12.0388 378.017 12.2975C378.017 12.6912 377.78 12.7679 376.562 12.7679C375.745 12.7679 375.105 12.6487 375.103 12.4959C375.1 12.3464 375.001 12.3788 374.881 12.5679C374.639 12.9481 374.198 12.9857 372.527 12.7683C371.749 12.667 371.403 12.7195 371.403 12.9389C371.403 13.1654 371.321 13.1744 371.118 12.9708C370.941 12.794 370.493 12.7623 369.939 12.8873C369.447 12.9982 369.01 12.9993 368.967 12.8893C368.835 12.5509 367.699 12.294 367.699 12.6024C367.699 13.3219 366.929 12.7783 366.694 11.8927L366.43 10.9005L366.403 11.7604C366.378 12.5607 365.873 13.0229 365.825 12.2896C365.813 12.1077 365.64 12.3161 365.44 12.7526C365.24 13.1892 365.071 13.3975 365.065 13.2156C365.058 13.0337 364.887 12.8849 364.684 12.8849C364.481 12.8849 364.247 12.7063 364.163 12.488C363.946 11.923 363.27 11.9971 362.935 12.6227C362.731 13.0035 362.48 13.1115 362.05 13.0036C360.897 12.7142 360.418 12.6951 359.827 12.9149C359.474 13.0463 359.232 13.0348 359.232 12.8866C359.232 12.7492 359.083 12.6827 358.901 12.7387C357.541 13.1577 357.115 13.1464 357.111 12.6914C357.108 12.3179 357.06 12.2979 356.873 12.5926C356.745 12.7957 356.449 12.8887 356.216 12.7993C355.983 12.7099 355.792 12.7358 355.792 12.8568C355.792 12.9778 355.116 13.0466 354.288 13.0096C353.201 12.9609 352.688 12.8105 352.436 12.4661C352.11 12.0194 352.088 12.0186 352.088 12.453C352.088 12.7077 351.982 12.8502 351.851 12.7697C351.721 12.6892 351.548 12.797 351.466 13.0091C351.338 13.3438 351.223 13.3454 350.598 13.0211C350.201 12.8155 349.759 12.7205 349.614 12.81C349.178 13.0795 347.855 13.0364 347.851 12.7525C347.848 12.5784 347.78 12.5792 347.652 12.7555C347.414 13.0831 344.949 13.106 344.452 12.7852C344.245 12.6519 344.02 12.6519 343.923 12.7852C343.716 13.0698 342.563 13.1361 342.563 12.8634C342.563 12.5763 341.312 12.7613 340.891 13.1106C340.692 13.2752 340.444 13.3238 340.339 13.2186C340.034 12.9134 337.159 12.9515 336.945 13.2636C336.838 13.4193 336.731 13.0705 336.707 12.4884C336.675 11.7228 336.633 11.6257 336.555 12.1373C336.465 12.725 336.336 12.8246 335.795 12.7263C335.373 12.6498 335.089 12.75 334.989 13.0098C334.904 13.2314 334.699 13.3263 334.532 13.2215C334.365 13.117 334.056 13.0284 333.845 13.0246C333.633 13.0206 333.388 12.7199 333.299 12.3561L333.138 11.6947L332.965 12.3653C332.795 13.0233 332.745 13.0361 330.269 13.0442C327.947 13.0522 327.746 13.0118 327.746 12.5396C327.746 12.1101 327.681 12.0811 327.343 12.3614C327.121 12.5455 326.865 12.6215 326.774 12.5302C326.683 12.439 326.469 12.5552 326.298 12.7885C325.842 13.4124 324.979 12.7875 324.642 11.5878L324.374 10.6363L324.34 11.7345C324.308 12.8051 324.285 12.8308 323.447 12.7641C322.974 12.7265 322.477 12.7581 322.342 12.8349C322.207 12.9115 321.514 12.9966 320.802 13.024C319.444 13.0762 318.761 12.6954 318.739 11.8742C318.732 11.6253 318.578 11.7789 318.388 12.2238C317.971 13.2026 317.738 13.1678 317.195 12.0456L316.771 11.1702L316.601 11.9616L316.432 12.753L316.381 11.9593L316.329 11.1655L316 12.0756C315.691 12.9308 315.047 13.5089 315.047 12.9308C315.047 12.6373 314.56 12.6588 314.054 12.9745C313.872 13.0881 313.615 13.1138 313.482 13.0316C313.349 12.9493 313.194 13.0178 313.139 13.1837C313.074 13.3803 312.881 13.3282 312.587 13.0341C312.339 12.786 312.136 12.7147 312.136 12.8758C312.136 13.0825 311.987 13.0886 311.628 12.8968C311.259 12.6989 311.088 12.7143 311.002 12.9535C310.936 13.1343 310.8 12.6869 310.699 11.9593C310.405 9.84254 310.347 9.75123 310.315 11.3483C310.286 12.7826 309.954 13.5336 309.665 12.8208C309.561 12.5626 309.473 12.5701 309.275 12.8541C308.931 13.3459 308.696 12.5818 308.437 10.1331C308.327 9.08328 308.218 8.66346 308.192 9.18112C308.078 11.3963 306.841 14.1378 306.434 13.0771C306.238 12.568 304.812 12.5488 304.619 13.0526C304.527 13.2923 304.336 13.3662 304.134 13.2402C303.951 13.1259 303.635 13.0072 303.431 12.9764C303.228 12.9456 302.966 12.767 302.85 12.5795C302.69 12.3206 302.595 12.3536 302.456 12.7164C302.312 13.0922 302.225 13.1188 302.049 12.8413C301.926 12.6472 301.824 12.6173 301.821 12.7749C301.818 12.9325 301.55 13.038 301.222 13.0094C300.895 12.9808 300.478 13.0748 300.296 13.2184C300.071 13.396 299.965 13.3794 299.965 13.1667C299.965 12.9947 299.845 12.9281 299.699 13.0187C299.552 13.1093 299.356 12.9842 299.263 12.7408C299.108 12.3372 299.072 12.3358 298.854 12.724C298.574 13.2252 297.586 13.2989 297.58 12.8191C297.577 12.5615 297.528 12.5634 297.361 12.8281C297.216 13.0558 296.782 13.1219 296.042 13.029C295.359 12.9433 294.938 12.9964 294.938 13.1681C294.938 13.3281 294.798 13.3551 294.607 13.2318C294.426 13.1141 292.134 13.0177 289.514 13.0177H284.752L284.603 10.7688L284.453 8.51981L284.404 10.687C284.377 11.879 284.246 12.9217 284.112 13.0041C283.979 13.0865 283.566 13.0384 283.195 12.8973C282.694 12.7067 282.424 12.737 282.146 13.0151C281.94 13.221 281.702 13.3192 281.616 13.2334C281.53 13.1476 280.627 13.0439 279.61 13.003C278.592 12.9621 277.636 12.8524 277.485 12.7592C277.335 12.666 277.211 12.7228 277.211 12.8855C277.211 13.0482 277.086 13.1036 276.932 13.0088C276.528 12.759 273.507 12.6648 273.507 12.902C273.507 13.1169 270.567 12.9956 269.788 12.7486C269.53 12.6665 269.254 12.704 269.175 12.8318C268.956 13.1855 262.19 13.0515 261.825 12.6862C261.594 12.4558 261.384 12.4559 260.965 12.6867C260.207 13.1044 259.918 13.1326 258.855 12.8928C258.315 12.7709 257.831 12.7923 257.679 12.9446C257.377 13.2461 257.229 12.8236 256.97 10.9226C256.751 9.31605 256.319 9.77024 256.313 11.6136C256.309 12.7117 256.248 12.8433 255.78 12.7532C255.427 12.6852 255.251 12.7937 255.251 13.0791C255.251 13.4306 255.142 13.4043 254.638 12.9316C253.963 12.2969 253.496 12.1974 253.343 12.6557C253.288 12.8204 252.861 12.9851 252.395 13.0218C251.692 13.0771 251.541 12.9916 251.516 12.524C251.493 12.104 251.455 12.0734 251.368 12.4048C251.242 12.8789 250.226 12.9618 250.22 12.4984C250.218 12.3475 250.103 12.4026 249.965 12.6209C249.679 13.0735 249.175 13.1555 248.726 12.8227C248.552 12.6938 248.354 12.7004 248.269 12.8381C248.185 12.9736 247.651 12.9955 247.061 12.8876C246.323 12.7527 245.846 12.8041 245.485 13.0572C245.116 13.3158 244.914 13.3356 244.785 13.1261C244.682 12.959 244.279 12.8969 243.852 12.9823C243.439 13.0649 243.028 13.0155 242.94 12.8723C242.851 12.7292 242.638 12.7 242.466 12.8073C242.032 13.0783 240.169 13.081 240.169 12.8103C240.169 12.6887 240.05 12.6627 239.905 12.7527C239.759 12.8428 239.632 12.6418 239.622 12.3053C239.604 11.7281 239.59 11.7236 239.376 12.2235C239.209 12.6123 239.138 12.3666 239.11 11.2975C239.089 10.4971 238.987 9.30643 238.883 8.65158C238.721 7.62799 238.67 7.55374 238.52 8.12241C238.425 8.48621 238.264 9.70659 238.163 10.8344C238.062 11.9622 237.946 12.8849 237.906 12.8849C237.441 12.8849 236.994 12.451 236.99 11.9967C236.988 11.6849 236.871 11.2511 236.73 11.0328C236.535 10.7305 236.472 10.8357 236.469 11.4742C236.467 11.9353 236.404 12.471 236.33 12.6648C236.147 13.1402 234.033 13.1277 233.874 12.6502C233.801 12.4335 233.691 12.4 233.589 12.5639C233.355 12.9405 231.499 13.1977 231.303 12.8806C231.197 12.7084 230.972 12.7096 230.646 12.8846C230.358 13.0387 229.893 13.0584 229.537 12.9315C228.915 12.7096 226.795 12.7441 225.65 12.9948C225.304 13.0705 224.798 13.0132 224.525 12.8673C224.253 12.7214 224.03 12.705 224.03 12.8308C224.03 13.1447 222.885 13.0803 222.645 12.753C222.524 12.5891 222.449 12.6143 222.446 12.8191C222.444 13.001 222.264 13.1498 222.045 13.1498C221.827 13.1498 221.649 13.0237 221.649 12.8696C221.649 12.7155 221.53 12.663 221.384 12.7529C221.239 12.8428 221.11 12.7609 221.099 12.5701C221.082 12.3037 221.047 12.3001 220.944 12.5545C220.756 13.0222 219.797 12.9669 219.797 12.4884C219.797 12.2701 219.677 12.0915 219.532 12.0915C219.386 12.0915 219.267 12.2252 219.267 12.3885C219.267 12.602 219.162 12.5984 218.894 12.3756C218.639 12.1638 218.466 12.1536 218.349 12.3432C218.082 12.7755 217.683 12.6697 217.649 12.1576C217.62 11.7167 217.613 11.7167 217.497 12.1576C217.33 12.7995 216.982 12.7363 216.77 12.0253L216.592 11.43L216.305 12.0193C216.001 12.6402 214.824 12.7766 214.443 12.235C214.316 12.0545 214.247 12.0712 214.244 12.2834C214.241 12.5151 214.061 12.5394 213.612 12.3689C213.267 12.2376 212.88 12.2303 212.753 12.3527C212.625 12.4751 212.169 12.6152 211.74 12.6641C211.097 12.7374 210.927 12.6366 210.774 12.0915C210.649 11.6434 210.58 11.5844 210.562 11.9087C210.548 12.172 210.417 12.3138 210.272 12.2238C210.126 12.1339 210.007 12.1934 210.007 12.3561C210.007 12.5188 209.888 12.5784 209.742 12.4884C209.597 12.3985 209.478 12.07 209.478 11.7585C209.478 11.3179 209.407 11.2625 209.16 11.5094C208.742 11.9279 208.54 11.9102 208.041 11.4112C207.664 11.0332 207.626 11.0332 207.626 11.4112C207.626 11.6398 207.507 11.8269 207.361 11.8269C207.216 11.8269 207.079 11.3209 207.057 10.7024L207.017 9.57797L206.858 10.7686C206.751 11.575 206.584 11.9349 206.341 11.8838C206.144 11.8423 205.816 11.9462 205.613 12.1147C205.32 12.358 205.244 12.3191 205.24 11.9255C205.237 11.543 205.184 11.5126 205.007 11.7925C204.821 12.0852 204.722 12.0597 204.49 11.6602C204.236 11.2239 204.201 11.2591 204.193 11.9592L204.183 12.753L203.788 11.9951C203.57 11.5783 203.384 10.8639 203.374 10.4076C203.358 9.7043 203.321 9.65857 203.128 10.1071C203.003 10.3982 202.876 10.9935 202.847 11.4301L202.794 12.2238L202.608 11.2978L202.423 10.3717L202.131 11.0332L201.838 11.6946L201.795 10.9009C201.753 10.1183 201.749 10.1164 201.54 10.7686C201.392 11.231 201.32 11.2871 201.302 10.955C201.28 10.5531 201.164 10.5922 200.548 11.209L199.82 11.9381L199.657 11.0226C199.529 10.3055 199.484 10.2504 199.45 10.7686C199.41 11.3818 199.381 11.3957 199.05 10.9593C198.729 10.5363 198.676 10.5318 198.529 10.9148C198.439 11.1492 198.365 11.6528 198.365 12.0338C198.365 13.2196 197.806 12.2925 197.579 10.7298C197.405 9.53048 197.368 9.46256 197.34 10.2867C197.322 10.822 197.099 11.4694 196.844 11.7254C196.403 12.1691 196.374 12.111 196.228 10.4876C196.089 8.93479 196.071 8.89531 196.03 10.041C196.005 10.7322 195.865 11.2978 195.719 11.2978C195.574 11.2978 195.455 11.1602 195.455 10.9922C195.455 10.8169 195.233 10.8871 194.936 11.1566C194.65 11.4151 194.241 11.5591 194.026 11.4768C193.794 11.3878 193.588 11.509 193.518 11.7754C193.453 12.022 193.386 11.8406 193.369 11.3722C193.346 10.7308 193.24 10.5582 192.941 10.6729C192.723 10.7567 192.544 10.6934 192.544 10.5323C192.544 9.96003 192.015 10.2496 191.991 10.8347C191.974 11.2736 191.899 11.1911 191.707 10.5211C191.508 9.82964 191.388 9.70313 191.205 9.99203C191.073 10.2009 190.963 10.719 190.961 11.1434C190.956 12.0904 190.702 11.8879 190.424 10.7159L190.217 9.84256L190.159 10.9009L190.1 11.9592L189.76 10.6363C189.505 9.64269 189.414 9.49838 189.395 10.0566C189.381 10.4654 189.259 10.7315 189.124 10.648C188.989 10.5645 188.833 10.7658 188.778 11.0954C188.723 11.425 188.589 10.504 188.481 9.0488C188.193 5.17901 188.126 5.03461 188.051 8.12277C188.005 10.0299 187.921 10.652 187.782 10.1071C187.585 9.33162 187.579 9.33769 187.522 10.3717C187.477 11.2012 187.427 11.298 187.293 10.8191C187.198 10.4831 187.002 10.245 186.857 10.2899C186.712 10.3349 186.438 9.89546 186.247 9.31339C185.741 7.76573 185.404 7.56466 185.382 8.79745C185.344 10.9335 184.48 11.333 184.274 9.30997C184.203 8.60937 184.141 8.92151 184.091 10.2394C184.032 11.7702 183.969 12.0424 183.813 11.4301L183.611 10.6363L183.553 11.5623C183.501 12.3891 183.458 12.3243 183.16 10.9579C182.751 9.09136 182.595 8.89763 182.359 9.9686C182.212 10.6411 182.109 10.7366 181.805 10.4843C181.6 10.314 181.432 10.0036 181.432 9.79453C181.432 9.02966 180.902 9.76746 180.863 10.5858C180.827 11.3532 180.814 11.3658 180.715 10.7248C180.568 9.76494 179.844 9.49412 179.844 10.399C179.844 11.0052 179.322 11.8269 178.937 11.8269C178.854 11.8269 178.783 11.4995 178.78 11.0993C178.774 10.3803 178.769 10.3826 178.317 11.2978L177.86 12.2238L177.699 11.1655C177.551 10.193 177.535 10.1756 177.501 10.9514C177.449 12.105 176.944 12.3533 176.898 11.2472C176.874 10.6525 176.826 10.558 176.749 10.9524C176.682 11.2967 176.496 11.479 176.29 11.4002C176.1 11.3271 175.863 11.4792 175.763 11.7382C175.615 12.1252 175.542 12.1427 175.352 11.8366C175.162 11.5283 175.05 11.5237 174.705 11.8103C174.403 12.0608 174.288 12.07 174.288 11.8438C174.288 11.6601 174.152 11.6162 173.957 11.7374C173.408 12.08 172.398 12.0352 172.255 11.6619C172.144 11.3724 172.06 11.372 171.773 11.6589C171.581 11.8501 171.146 11.9854 170.806 11.9597C170.466 11.934 170.042 12.102 169.865 12.333C169.587 12.6949 169.541 12.6546 169.534 12.0409C169.525 11.228 169.058 10.7922 168.862 11.4132C168.791 11.6407 168.671 12.0188 168.597 12.2535C168.487 12.5993 168.387 12.6183 168.067 12.3534C167.751 12.0912 167.672 12.0984 167.665 12.3899C167.659 12.645 167.549 12.6111 167.295 12.2759C167.051 11.9535 166.899 11.9032 166.826 12.1205C166.708 12.4751 166.035 12.6707 165.044 12.639C164.689 12.6276 164.311 12.76 164.204 12.9332C164.054 13.1762 163.922 13.1755 163.626 12.9302C163.415 12.7552 163.061 12.6817 162.839 12.7669C162.617 12.8521 162.349 12.7819 162.243 12.6109C162.101 12.38 161.993 12.3924 161.824 12.659C161.65 12.9335 161.595 12.9014 161.592 12.5226C161.589 12.1016 161.525 12.0791 161.171 12.3732C160.826 12.66 160.713 12.6543 160.514 12.3394C160.347 12.0757 160.272 12.0606 160.269 12.2903C160.262 12.8839 159.737 12.6376 159.705 12.0257C159.684 11.6013 159.641 11.5592 159.557 11.8788C159.488 12.1393 159.279 12.266 159.058 12.1812C158.84 12.0976 158.678 12.1918 158.678 12.4017C158.678 12.693 158.176 12.7524 156.23 12.6914C154.884 12.6492 153.664 12.6126 153.518 12.6101C153.373 12.6081 152.927 12.658 152.527 12.7222C152.128 12.7863 151.733 12.7282 151.649 12.5933C151.566 12.4583 151.357 12.4372 151.185 12.5465C150.601 12.9181 149.815 12.7726 149.493 12.233C149.214 11.7659 149.17 11.756 149.162 12.158C149.157 12.4126 148.974 12.621 148.756 12.621C148.538 12.621 148.359 12.7236 148.359 12.8489C148.359 12.9742 148.061 13.0199 147.698 12.9503C147.334 12.8808 147.036 12.6592 147.036 12.4579C147.036 12.2566 146.917 12.0919 146.772 12.0919C146.626 12.0919 146.507 12.2742 146.507 12.497C146.507 13.0391 145.797 13.2848 145.336 12.9024C145.079 12.6885 144.914 12.6808 144.792 12.877C144.697 13.032 144.497 13.0838 144.349 12.9922C143.971 12.7585 141.215 12.6918 141.215 12.9163C141.215 13.231 140.157 12.8418 140.149 12.524C140.144 12.3591 140.019 12.4326 139.871 12.6872C139.472 13.3733 139.118 13.2535 138.699 12.2903C138.386 11.569 138.324 11.5263 138.315 12.0257C138.309 12.3739 138.14 12.6211 137.908 12.6211C137.69 12.6211 137.511 12.7186 137.511 12.8378C137.511 12.957 137.035 13.0517 136.453 13.0483C135.871 13.0453 135.394 12.9404 135.394 12.816C135.394 12.6916 135.246 12.6861 135.064 12.8039C134.477 13.1833 132.749 13.0585 132.749 12.6366C132.749 12.3359 132.679 12.3483 132.418 12.6955C132.195 12.9921 131.764 13.1164 131.095 13.0768C130.549 13.0445 130.103 12.9419 130.103 12.849C130.103 12.6044 129.207 12.7121 129.011 12.9802C128.712 13.3901 127.828 12.8964 127.536 12.1563L127.249 11.4305L127.22 12.1581C127.205 12.5583 127.143 12.8857 127.082 12.8857C127.021 12.8857 126.783 12.958 126.553 13.0463C126.248 13.1632 126.126 13.0373 126.103 12.5833C126.081 12.1349 126.039 12.0898 125.952 12.4227C125.794 13.0241 125.085 13.0241 125.045 12.4227C125.018 12.0108 125.001 12.0083 124.898 12.4002C124.771 12.8769 124.017 13.2928 124.017 12.8857C124.017 12.7493 123.839 12.7063 123.62 12.79C123.338 12.8984 123.221 12.7626 123.216 12.3187C123.208 11.7419 123.186 11.7323 122.92 12.1898C122.688 12.5893 122.588 12.6148 122.403 12.3222C122.226 12.0423 122.172 12.0726 122.169 12.4551C122.166 12.8459 122.088 12.8866 121.801 12.6479C121.545 12.4357 121.229 12.424 120.742 12.6089C120.361 12.754 120.049 12.8015 120.049 12.7145C120.049 12.6275 119.889 12.689 119.694 12.851C119.498 13.0131 119.25 13.0575 119.142 12.9497C118.867 12.6739 118.361 12.6903 118.157 12.9817C117.863 13.403 117.14 12.9325 117.107 12.2988C117.087 11.8878 117.04 11.8357 116.96 12.1357C116.78 12.8159 116.08 12.9727 116.08 12.3327C116.08 12.0377 115.961 11.8698 115.815 11.9597C115.67 12.0496 115.551 12.3782 115.551 12.6897C115.551 13.8567 114.99 12.6847 114.808 11.1375L114.625 9.57852L114.492 11.166C114.376 12.5628 114.289 12.7637 113.765 12.838C113.321 12.9011 113.092 12.7333 112.864 12.1765C112.593 11.5186 112.543 11.493 112.438 11.9597C112.372 12.2508 112.211 12.622 112.079 12.7846C111.851 13.0669 110.467 13.0453 109.992 12.752C109.868 12.6754 109.69 12.7356 109.598 12.8858C109.505 13.0361 109.311 13.0863 109.167 12.9975C108.767 12.7498 107.613 12.6692 107.613 12.8888C107.613 12.996 107.226 13.0004 106.753 12.8988C106.28 12.7971 105.617 12.8352 105.279 12.9833C104.897 13.1508 104.597 13.1583 104.485 13.0032C104.245 12.6689 102.586 12.6279 102.586 12.9563C102.586 13.1231 102.468 13.1217 102.255 12.9523C102.073 12.8077 101.687 12.7363 101.395 12.7937C99.6952 13.1293 98.6097 13.1051 98.2275 12.7229C97.8633 12.3587 97.8056 12.3605 97.6597 12.7408C97.555 13.0136 97.3907 13.0792 97.1974 12.9254C97.0325 12.7941 96.6594 12.7762 96.3684 12.8854C96.0774 12.9947 95.6309 12.9758 95.3762 12.8434C95.1127 12.7064 94.9132 12.7036 94.9132 12.8364C94.9132 13.1111 89.8518 13.0591 89.3998 12.7797C89.2307 12.6752 89.08 12.2098 89.0648 11.7454C89.0396 10.972 89.004 11.0099 88.6415 12.1969C88.4239 12.9096 88.1684 13.3754 88.0738 13.232C87.8399 12.8776 86.7111 12.6111 86.7111 12.9102C86.7111 13.0421 86.4134 13.1501 86.0496 13.1501C85.6858 13.1501 85.3881 13.0608 85.3879 12.9516C85.3878 12.8425 84.9116 12.7349 84.3296 12.7125C83.7477 12.6901 83.2715 12.7932 83.2715 12.9417C83.2715 13.1005 83.0261 13.1351 82.6762 13.0258C82.3488 12.9236 81.7535 12.8521 81.3533 12.8669C80.9304 12.8826 80.624 12.7536 80.6216 12.5589C80.6189 12.3348 80.5533 12.318 80.4232 12.508C80.3163 12.6641 80.0205 12.8687 79.7658 12.9627C79.4137 13.0926 79.3008 12.9929 79.2947 12.5465C79.2875 12.0205 79.2586 12.0076 79.017 12.4225C78.6865 12.9899 78.2444 13.0277 78.2444 12.4886C78.2444 11.8304 77.7376 12.0427 77.553 12.7784C77.4257 13.2856 77.3218 13.372 77.1552 13.1091C77.0311 12.9134 76.9278 12.8571 76.9256 12.984C76.9234 13.111 76.7429 13.0666 76.5246 12.8855C76.2048 12.6201 76.1237 12.6267 76.1069 12.9193C76.0893 13.2243 76.063 13.2247 75.9426 12.9214C75.8257 12.6274 75.7596 12.6246 75.5855 12.9063C75.414 13.1839 75.232 13.1882 74.6619 12.9284C74.1247 12.6837 73.8625 12.6791 73.5846 12.9098C73.3066 13.1405 73.2174 13.1386 73.2174 12.9018C73.2174 12.7181 73.081 12.6742 72.8866 12.7954C72.3762 13.1136 71.3658 13.1021 71.3612 12.778C71.3591 12.6186 71.2463 12.6633 71.1109 12.8775C70.9005 13.2102 70.8387 13.1995 70.6868 12.8037C70.5179 12.3637 70.4909 12.3641 70.1518 12.8106C69.9474 13.0801 69.791 13.1435 69.7862 12.959C69.7816 12.7817 69.6149 12.6991 69.4159 12.7755C69.2169 12.8519 68.4132 12.9457 67.63 12.984C66.2304 13.0524 65.7814 12.8652 65.4756 12.0861C65.3688 11.8141 65.3152 11.8653 65.3007 12.2531C65.2855 12.662 65.1198 12.8026 64.6845 12.776C64.3571 12.756 63.579 12.8137 62.9553 12.904C62.3317 12.9943 61.7619 12.9719 61.6892 12.8542C61.6165 12.7365 61.2933 12.7373 60.971 12.8562C60.4725 13.0398 57.2106 13.0625 56.8132 12.8852C56.7404 12.8527 56.413 12.8479 56.0856 12.8744C55.583 12.9151 55.4859 12.7857 55.4619 12.0437C55.4341 11.1816 55.4289 11.1857 55.1868 12.2639L54.94 13.363L53.9049 12.9564C53.3355 12.7327 52.8183 12.3572 52.7555 12.1219C52.6926 11.8866 52.6274 12.0361 52.6105 12.4541C52.5882 13.0078 52.4901 13.1503 52.2491 12.9791C51.7495 12.6241 51.0008 12.7085 50.7207 13.1516C50.539 13.439 50.4702 13.4521 50.4672 13.1998C50.4651 13.0093 50.3308 12.9352 50.169 13.0352C50.0072 13.1352 49.76 13.053 49.6197 12.8524C49.405 12.5457 49.3417 12.545 49.2204 12.8484C49.0987 13.1529 49.0413 13.1529 48.8517 12.8484C48.6833 12.5777 48.5097 12.5586 48.1562 12.7718C47.897 12.9281 46.8107 13.0768 45.742 13.1023C44.6734 13.1278 43.6993 13.2102 43.5775 13.2855C43.4557 13.3608 43.2762 13.2935 43.1787 13.1355C43.0811 12.9777 42.8348 12.9125 42.6312 12.9906C42.4276 13.0687 42.2611 12.9936 42.2611 12.8234C42.2611 12.5921 42.1811 12.5942 41.9436 12.8314C41.4075 13.3675 40.6768 13.2114 40.6429 12.5536C40.6217 12.1422 40.5762 12.0944 40.4956 12.3988C40.3304 13.0222 39.6163 13.2474 39.6112 12.6776C39.6077 12.2881 39.5711 12.2798 39.3562 12.6197C39.1673 12.9184 38.5826 13.0165 36.9926 13.0165C35.1049 13.0165 34.8644 12.9602 34.734 12.4874C34.6412 12.1504 34.5161 12.0639 34.3898 12.2493C34.0315 12.7749 33.1204 13.1217 32.7307 12.8809C32.5065 12.7423 32.2211 12.7627 32.0174 12.9318C31.7649 13.1413 31.6778 13.1046 31.6778 12.7889C31.6778 12.4092 31.5867 12.4144 30.8179 12.8386C30.0889 13.2408 29.8577 13.2618 29.2995 12.9767C28.8782 12.7614 28.5494 12.7318 28.3867 12.8945C28.0461 13.2351 26.9153 13.22 26.9153 12.8749C26.9153 12.6892 26.7449 12.6922 26.3861 12.8839C25.9853 13.0984 25.8519 13.0846 25.836 12.8271C25.8209 12.5807 25.7797 12.5741 25.6867 12.8029C25.616 12.9767 25.3873 13.0532 25.1784 12.9731C24.9011 12.8667 24.7915 12.3171 24.7722 10.9374C24.7534 9.58777 24.6853 9.23658 24.534 9.70895C24.4175 10.0728 24.3103 10.8169 24.2958 11.3626C24.2813 11.9083 24.1504 12.3548 24.0049 12.3548C23.8593 12.3548 23.7403 12.5135 23.7403 12.7074C23.7403 13.0843 23.024 13.1265 22.4673 12.7825C22.2807 12.6672 21.9571 12.7169 21.7443 12.8936C21.5324 13.0694 21.3572 13.1095 21.355 12.9825C21.353 12.8556 21.2428 12.9226 21.1105 13.1315C20.9421 13.3978 20.7652 13.4322 20.5193 13.2464C20.3263 13.1007 19.2754 13.0031 18.184 13.0296C16.9665 13.0591 16.123 12.9636 16.0012 12.7824C15.8657 12.5808 15.7398 12.5743 15.6043 12.762C15.3778 13.0757 11.3048 13.1654 11.3048 12.8567C11.3048 12.7454 10.9774 12.7254 10.5772 12.812C9.53157 13.0384 8.28089 12.9402 8.17527 12.6234C8.12127 12.4613 7.76895 12.538 7.30232 12.8137C6.7844 13.1196 6.45668 13.1822 6.33272 12.9987C6.14113 12.7151 4.08167 12.7052 3.36735 12.9845C2.67701 13.2543 1.4469 12.9815 1.07747 12.4759C0.742179 12.0174 0.71797 12.0266 0.66053 12.635C0.62703 12.9902 0.535372 9.11365 0.456932 4.02042C0.358732 -2.35649 0.314297 0.691798 0.314247 13.81C0.314197 26.7708 0.359852 29.9423 0.456932 23.7319C0.535432 18.7114 0.631858 14.9014 0.671188 15.2652L0.67115 15.2686Z" fill="black"/>
</svg>
