<svg width="465" height="33" viewBox="0 0 465 33" fill="none" xmlns="http://www.w3.org/2000/svg">
<path d="M0.805107 17.8234C1.01185 18.3294 1.0333 18.3313 1.29367 17.8674C1.55297 17.4055 1.59606 17.4105 2.19501 17.9732C2.75126 18.4958 2.84341 18.5136 2.99153 18.1276C3.21223 17.5525 3.62348 17.5688 3.66228 18.1541C3.69148 18.5951 3.69878 18.5951 3.81397 18.1541C3.88057 17.8995 4.01554 17.6835 4.11401 17.6742C4.21251 17.6652 4.68 17.6192 5.15294 17.5727C5.80553 17.5085 6.01382 17.5923 6.01689 17.9203C6.01989 18.2188 6.08309 18.2548 6.22188 18.0365C6.48029 17.63 7.30812 17.7501 7.61745 18.2389C7.79841 18.5249 7.85781 18.4596 7.86087 17.9713C7.86487 17.3586 7.88367 17.351 8.22827 17.8223C8.57712 18.2994 8.59949 18.2944 8.78895 17.6975C8.96281 17.1496 9.01592 17.1287 9.23561 17.5213C9.37274 17.7663 9.59669 17.8978 9.73327 17.8134C9.86985 17.729 9.98159 17.7661 9.98159 17.8959C9.98159 18.0258 10.1602 18.1321 10.3785 18.1321C10.5968 18.1321 10.7753 18.0258 10.7753 17.8959C10.7753 17.7661 10.8944 17.7335 11.0399 17.8234C11.1854 17.9133 11.3045 17.8713 11.3045 17.73C11.3045 17.2771 12.1858 17.5854 12.3916 18.1104C12.5725 18.5719 12.5919 18.5639 12.6088 18.0217C12.6268 17.4458 13.1566 17.1411 13.1566 17.7067C13.1566 17.8608 13.2757 17.9132 13.4212 17.8233C13.5667 17.7334 13.6858 17.8086 13.6858 17.9905C13.6858 18.1725 13.8606 18.0902 14.0742 17.8077C14.3056 17.5018 14.4661 17.4316 14.4711 17.6342C14.4771 17.8892 14.6086 17.9052 14.996 17.6978C15.408 17.4773 15.6206 17.5373 16.0467 17.9947C16.5203 18.5031 16.5999 18.5185 16.7491 18.1296C16.9609 17.5776 17.6545 17.5528 17.6545 18.0972C17.6545 18.4321 17.7554 18.4495 18.2289 18.1961C18.7048 17.9413 18.8635 17.9711 19.1549 18.3696C19.483 18.8184 19.5066 18.8196 19.5066 18.3875C19.5066 18.1328 19.6309 18.0012 19.7828 18.0951C19.9347 18.189 20.2197 18.1324 20.4162 17.9693C20.686 17.7454 20.8775 17.7769 21.1983 18.0977C21.5885 18.4879 21.6233 18.4874 21.6233 18.0917C21.6233 17.8545 21.7341 17.7288 21.8696 17.8126C22.005 17.8963 22.1942 17.838 22.29 17.6831C22.41 17.489 22.5869 17.5032 22.8589 17.729C23.1672 17.9848 23.365 17.9871 23.7614 17.7395C24.179 17.4788 24.2691 17.4945 24.2691 17.8278C24.2691 18.1877 24.3359 18.1892 24.867 17.8413C25.241 17.5962 25.6035 17.5352 25.8352 17.6784C26.0388 17.8042 26.3651 17.846 26.5602 17.7712C26.7735 17.6893 26.9272 17.8309 26.9456 18.1264C26.9733 18.5697 26.9881 18.5725 27.0973 18.1547C27.2332 17.6347 27.7087 17.5197 27.7087 18.0068C27.7087 18.1802 27.8656 18.1074 28.0573 17.8452C28.384 17.3984 28.434 17.3964 28.8511 17.8135C29.1729 18.1353 29.2973 18.1618 29.3002 17.909C29.3032 17.6501 29.369 17.6618 29.5538 17.954C29.7525 18.2683 29.8702 18.2818 30.1318 18.0201C30.6355 17.5165 31.676 17.6065 31.6855 18.1545C31.6935 18.5955 31.7064 18.5955 31.9632 18.1545C32.259 17.6467 33.5295 17.5121 33.5295 17.9885C33.5295 18.1937 33.6522 18.1837 33.9264 17.9561C34.2221 17.7107 34.3233 17.7064 34.3233 17.9393C34.3233 18.1113 34.4443 18.1771 34.5922 18.0857C34.7401 17.9943 35.1569 17.8659 35.5183 17.8004C36.0135 17.7106 36.1773 17.7963 36.1834 18.1494C36.1914 18.5939 36.2051 18.5942 36.4611 18.1544C36.7745 17.6162 37.3945 17.5435 37.5876 18.0221C37.665 18.214 37.7298 18.1519 37.742 17.8742C37.7712 17.2062 38.2872 17.5928 38.3135 18.3023C38.3329 18.827 38.3656 18.8129 38.6575 18.1544C38.9083 17.5885 39.0505 17.4974 39.2974 17.7443C39.4987 17.9456 39.6149 17.9589 39.6149 17.7807C39.6149 17.4888 40.6981 17.5119 41.1873 17.8143C41.3411 17.9094 41.467 17.8716 41.467 17.7304C41.467 17.2775 42.3483 17.5858 42.5541 18.1107C42.6634 18.3894 42.7611 18.4616 42.7713 18.2711C42.7815 18.0806 42.9165 18.0029 43.0712 18.0985C43.2259 18.1941 43.5938 18.0539 43.8888 17.7869C44.3743 17.3476 44.4544 17.3414 44.7323 17.7214C44.9368 18.0012 45.216 18.0772 45.5683 17.949C45.8592 17.8433 46.246 17.8757 46.4279 18.0211C46.6602 18.2067 46.7592 18.1772 46.7604 17.9222C46.7614 17.7225 46.9987 17.9163 47.2878 18.3529L47.8135 19.1466L47.8155 18.419C47.8164 18.0188 47.9362 17.6914 48.0817 17.6914C48.2273 17.6914 48.3482 17.8403 48.3504 18.0222C48.3534 18.2464 48.4448 18.2251 48.6351 17.9561C48.8475 17.6558 48.9486 17.6401 49.0505 17.8915C49.1246 18.0744 49.2856 18.1619 49.4082 18.0861C49.5308 18.0103 49.7203 18.218 49.8292 18.5476L50.0272 19.1467L50.1909 18.4852C50.3758 17.7381 50.9652 17.6108 51.4468 18.2139C51.7253 18.5627 51.7702 18.5396 51.7775 18.0435C51.7855 17.5154 51.8603 17.4901 52.7155 17.7262C53.2268 17.8674 53.7543 17.9154 53.8879 17.8329C54.0214 17.7504 54.2056 17.8042 54.2972 17.9525C54.41 18.1349 54.6311 18.1325 54.9809 17.9454C55.3833 17.7301 55.5333 17.7611 55.6576 18.0848C55.7985 18.4521 55.8591 18.4457 56.1744 18.0301C56.3709 17.7712 56.5354 17.6361 56.54 17.7299C56.545 17.8237 56.9651 17.8065 57.4745 17.6916C58.1145 17.5472 58.4017 17.5763 58.4045 17.7856C58.4075 17.9839 58.483 17.9712 58.6241 17.7488C58.8553 17.3845 59.7133 17.5773 60.0501 18.0692C60.1668 18.2396 60.2461 18.1655 60.2485 17.8837C60.2515 17.5009 60.4478 17.4276 61.3105 17.4868C62.0398 17.5368 62.3698 17.6826 62.3729 17.9562C62.3759 18.2488 62.4317 18.2675 62.5843 18.0272C62.8326 17.6363 63.9634 17.807 64.264 18.2807C64.4143 18.5175 64.4802 18.4604 64.4859 18.0884C64.4929 17.6481 64.5378 17.626 64.7545 17.9562C64.9861 18.309 65.0436 18.309 65.2716 17.9562C65.4837 17.6281 65.6212 17.617 66.0653 17.8923C66.515 18.171 66.6026 18.1602 66.6026 17.8262C66.6026 17.2866 67.1256 17.3216 67.5572 17.8901C67.8878 18.3257 67.9092 18.3227 67.9171 17.8395C67.9251 17.3311 67.9294 17.3311 68.314 17.8395C68.6099 18.2307 68.7044 18.2585 68.7108 17.9562C68.7188 17.5626 70.0422 17.3571 70.0422 17.7495C70.0422 17.854 70.2174 17.8723 70.4316 17.7902C70.8905 17.6141 72.4234 18.2377 72.4234 18.6005C72.4234 18.7383 72.5758 18.6428 72.762 18.3881C73.0358 18.0136 73.2351 17.9761 73.8034 18.1922C74.3828 18.4125 74.5271 18.3804 74.6248 18.0094C74.7056 17.7025 74.7531 17.7584 74.774 18.1851C74.8037 18.7909 74.8258 18.797 75.4661 18.3774C75.8499 18.1259 76.1276 18.0642 76.1276 18.2303C76.1276 18.3878 76.2466 18.443 76.3922 18.3531C76.5377 18.2632 76.6651 18.405 76.6753 18.6682C76.6919 19.0955 76.7183 19.09 76.9213 18.6177C77.0745 18.2612 77.1561 18.2181 77.1714 18.4854C77.1915 18.8382 77.2226 18.8382 77.4505 18.4854C77.5916 18.2671 77.7172 18.2076 77.7296 18.3531C77.7421 18.4986 77.8546 18.3796 77.9797 18.0885C78.1546 17.6814 78.2113 17.6587 78.2256 17.9901C78.2632 18.8612 78.9227 19.0769 79.8411 18.5184C80.8032 17.9333 81.3582 18.0338 81.6892 18.853C81.9051 19.3873 81.9171 19.3829 81.9665 18.75C82.009 18.2055 82.0526 18.2523 82.213 19.0146L82.4079 19.9407L82.4636 18.8823C82.4943 18.3003 82.581 17.9778 82.6565 18.1658C82.7618 18.4282 82.8797 18.4361 83.1647 18.1996C83.3689 18.0302 83.5359 17.9884 83.5359 18.1068C83.5359 18.2251 83.7107 18.0908 83.9244 17.8084C84.3047 17.3056 84.313 17.3068 84.3212 17.8654C84.3272 18.3041 84.4519 18.404 84.8588 18.2976C85.1499 18.2215 85.388 18.054 85.388 17.9255C85.388 17.7969 85.6261 17.6918 85.9171 17.6918C86.2082 17.6918 86.4463 17.8336 86.4463 18.0069C86.4463 18.1802 86.6067 18.1027 86.8028 17.8345C87.0394 17.511 87.2202 17.4456 87.3404 17.6401C87.44 17.8014 87.6964 17.8662 87.91 17.7842C88.1332 17.6986 88.3001 17.7882 88.3024 17.9942C88.3044 18.2112 88.3834 18.2485 88.5009 18.0887C88.8366 17.6317 89.3566 17.6717 89.3608 18.1548C89.3638 18.5505 89.4022 18.5601 89.6213 18.2209C89.8493 17.8681 89.8792 17.8681 89.8903 18.2209C89.9004 18.5428 89.9692 18.5303 90.2542 18.1548C90.6853 17.5869 91.1741 17.5581 91.3777 18.0887C91.5965 18.6589 91.8627 18.5799 92.2669 17.8245C92.7256 16.9676 92.8803 17.1585 93.084 18.8325L93.251 20.2054L93.2963 18.7501C93.3317 17.6106 93.4008 17.3966 93.6144 17.7635C93.7722 18.0347 94.0196 18.1494 94.2016 18.0358C94.8056 17.6587 95.4421 17.6914 95.4421 18.0997C95.4421 18.4176 95.5517 18.4456 95.9539 18.2303C96.675 17.8444 96.7638 17.8792 96.7744 18.5517L96.7838 19.147L97.1336 18.5159C97.3789 18.0734 97.5431 17.9816 97.6833 18.2083C97.8177 18.4258 97.9705 18.4443 98.1501 18.2647C98.2969 18.1179 98.5812 18.0607 98.7817 18.1376C98.9822 18.2146 99.15 18.116 99.1544 17.9185C99.1597 17.6802 99.2531 17.7152 99.4321 18.0225C99.7933 18.6426 100.066 18.6058 100.411 17.8903C100.569 17.5628 100.706 17.4508 100.716 17.6412C100.726 17.8317 100.866 17.9058 101.028 17.8058C101.19 17.7058 101.426 17.7881 101.553 17.9887C101.697 18.2153 101.786 18.237 101.788 18.046C101.793 17.654 102.564 17.7577 102.829 18.186C102.981 18.4328 103.111 18.4124 103.369 18.1011C103.849 17.5227 104.167 17.5931 104.209 18.2871C104.245 18.8821 104.246 18.882 104.358 18.3048C104.472 17.7194 105.492 17.5176 105.5 18.0789C105.502 18.2308 105.595 18.2108 105.707 18.0339C105.872 17.7752 107.294 17.7175 107.547 17.9592C107.733 18.1376 108.296 18.0758 108.446 17.8604C108.541 17.7251 108.957 17.9534 109.371 18.3676C110.039 19.0349 110.135 19.0651 110.218 18.6324C110.294 18.24 110.358 18.2166 110.546 18.5133C110.725 18.7957 110.781 18.7529 110.784 18.3311C110.786 18.028 110.866 17.7016 110.962 17.6058C111.269 17.2989 111.845 17.9983 111.877 18.7163C111.901 19.2703 111.935 19.304 112.04 18.8823C112.212 18.1923 112.495 18.0328 113.446 18.0893C113.876 18.1149 114.236 18.0061 114.246 17.8477C114.256 17.6892 114.367 17.7976 114.492 18.0886L114.72 18.6178L114.746 18.0886C114.77 17.6094 114.798 17.6021 115.036 18.0115C115.319 18.4956 115.934 18.3927 116.581 17.7532C116.886 17.4519 116.989 17.4493 117.172 17.7383C117.295 17.931 117.396 17.9847 117.399 17.8578C117.401 17.7308 117.581 17.7752 117.799 17.9563C118.018 18.1375 118.196 18.1701 118.196 18.029C118.196 17.6797 119.758 17.6591 120.395 18C120.678 18.1516 120.984 18.174 121.074 18.0498C121.302 17.7382 122.165 17.6949 122.165 17.995C122.165 18.1385 122.367 18.1315 122.654 17.978C123.344 17.6086 125.057 17.7681 125.361 18.23C125.574 18.5553 125.7 18.5171 126.139 17.9931C126.539 17.5167 126.663 17.4697 126.663 17.7947C126.663 18.0291 126.782 18.2209 126.928 18.2209C127.073 18.2209 127.192 18.1092 127.192 17.9727C127.192 17.5473 128.249 17.7813 128.269 18.211C128.282 18.495 128.356 18.458 128.515 18.0886C128.64 17.7975 128.751 17.7082 128.761 17.8901C128.788 18.3638 129.326 18.2981 129.709 17.7744C130.007 17.3667 130.095 17.3919 130.719 18.065L131.402 18.8023L131.596 18.0485L131.79 17.2948L131.978 17.9563C132.098 18.3777 132.176 18.4497 132.193 18.1547C132.229 17.5227 133.479 17.4302 133.853 18.0319C133.971 18.2219 134.15 18.2319 134.382 18.0615C134.575 17.9199 135.06 17.7702 135.46 17.7289C136.061 17.6669 136.193 17.7612 136.214 18.2681C136.241 18.8775 136.242 18.8772 136.453 18.2209C136.569 17.8571 136.676 17.7228 136.691 17.9226C136.712 18.2152 136.794 18.2217 137.114 17.9563C137.332 17.7751 137.511 17.7403 137.511 17.8789C137.511 18.2859 138.685 18.1257 138.881 17.6918C139.019 17.3876 139.067 17.4186 139.084 17.8241C139.103 18.2643 139.15 18.2865 139.363 17.9564C139.564 17.6446 139.62 17.6374 139.624 17.9226C139.627 18.2017 139.712 18.2154 139.994 17.982C140.277 17.7464 140.397 17.7768 140.528 18.1179C140.685 18.5261 140.732 18.5255 141.193 18.1089C141.58 17.7592 141.72 17.7366 141.828 18.0067C141.905 18.1975 141.976 18.0683 141.988 17.7197L142.009 17.0858L142.67 17.7994C143.09 18.252 143.332 18.3743 143.332 18.1336C143.332 17.9247 143.57 17.6916 143.861 17.6155C144.152 17.5394 144.39 17.595 144.39 17.739C144.39 17.883 144.539 17.9489 144.721 17.8853C144.903 17.8218 145.196 18.0202 145.373 18.3263C145.55 18.6324 145.698 18.734 145.704 18.5521C145.716 18.1223 146.423 18.1223 146.596 18.5521C146.67 18.734 146.739 18.6107 146.75 18.2782C146.768 17.7573 146.845 17.7127 147.301 17.9567C147.702 18.1716 147.831 18.1579 147.834 17.9C147.837 17.6443 147.896 17.6515 148.072 17.9291C148.26 18.2265 148.323 18.2044 148.398 17.8157C148.488 17.351 148.509 17.3507 148.968 17.8096C149.426 18.2684 149.457 18.2678 149.809 17.7908C150.151 17.3258 150.184 17.3238 150.353 17.7585C150.451 18.0132 150.758 18.2215 151.033 18.2215C151.429 18.2215 151.541 18.4282 151.567 19.2137L151.6 20.2059L151.786 19.0589C152.002 17.7291 152.49 17.2879 153.086 17.884C153.359 18.1566 153.528 18.1926 153.595 17.9923C153.709 17.6493 154.709 17.5779 154.709 17.9128C154.709 18.4125 155.504 18.0896 155.523 17.5821C155.535 17.2789 155.604 17.1797 155.678 17.3616C155.751 17.5435 156.039 17.6923 156.318 17.6923C156.597 17.6923 156.827 17.8412 156.83 18.0231C156.832 18.2537 156.906 18.2394 157.073 17.9756C157.366 17.5123 158.086 17.3779 158.313 17.7442C158.422 17.9211 158.543 17.9102 158.665 17.7124C158.79 17.511 159.063 17.4895 159.49 17.6474C159.841 17.7773 160.446 17.7922 160.835 17.6807C161.37 17.5272 161.681 17.6071 162.112 18.0089L162.682 18.5398L162.823 18.0004C162.939 17.5552 163.073 17.5025 163.59 17.6989C163.976 17.8456 164.276 17.839 164.373 17.6816C164.473 17.5188 164.711 17.5228 165.028 17.6924C165.366 17.8734 165.58 17.8695 165.697 17.6803C165.816 17.4875 165.97 17.4866 166.2 17.6773C166.382 17.8286 166.61 17.8741 166.706 17.7783C166.801 17.6825 166.882 17.7733 166.886 17.9791C166.889 18.2082 167.093 18.0967 167.409 17.6924L167.926 17.031L167.953 17.6924C167.968 18.0562 168.04 18.205 168.113 18.0231C168.272 17.6304 168.996 17.5762 168.996 17.957C168.996 18.3509 169.712 18.2771 169.87 17.867C169.958 17.6367 170.293 17.5544 170.824 17.6324C171.438 17.7226 171.646 17.8932 171.659 18.3178C171.675 18.8568 171.687 18.854 171.926 18.2576C172.145 17.7123 172.233 17.6783 172.614 17.993C172.955 18.2748 173.076 18.2815 173.162 18.0232C173.322 17.5481 173.937 17.6156 174.135 18.13C174.286 18.5244 174.34 18.5179 174.684 18.0639C175.057 17.5712 175.066 17.5718 175.1 18.0894C175.129 18.5331 175.169 18.5118 175.346 17.957C175.515 17.4319 175.564 17.4015 175.585 17.8092C175.611 18.3176 175.615 18.3176 175.989 17.8092C176.351 17.3168 176.375 17.3155 176.555 17.7808C176.703 18.1625 176.791 18.1907 176.971 17.9131C177.157 17.6243 177.246 17.6322 177.459 17.9571C177.602 18.1754 177.721 18.2179 177.724 18.0516C177.732 17.4107 178.537 17.4379 178.834 18.0891C179.127 18.7331 179.135 18.7344 179.585 18.2161C180.327 17.3596 181.033 17.5468 181.352 18.6848L181.629 19.6769L181.663 18.8494C181.706 17.7788 182.343 17.2087 183.022 17.6328C183.372 17.8513 183.538 17.8556 183.608 17.6476C183.667 17.4701 183.886 17.5392 184.172 17.8251C184.545 18.1974 184.759 18.2351 185.219 18.0095C186.448 17.4065 186.986 17.3658 187.019 17.8732C187.043 18.2608 187.071 18.272 187.163 17.9309C187.307 17.3924 189.576 17.4407 189.924 17.9896C190.111 18.2845 190.156 18.2727 190.159 17.9277C190.162 17.6162 190.341 17.5354 190.824 17.6278C191.251 17.7094 191.486 17.9311 191.486 18.2525C191.486 18.5266 191.605 18.7509 191.751 18.7509C191.896 18.7509 192.015 18.509 192.015 18.2134C192.015 17.5828 192.77 17.2016 193.067 17.6822C193.22 17.9295 193.32 17.9356 193.462 17.7064C193.602 17.479 193.801 17.4969 194.226 17.7753C194.726 18.1029 194.848 18.0995 195.176 17.749C195.51 17.3906 195.573 17.4017 195.749 17.8503C195.904 18.2463 195.951 18.2624 195.965 17.9257C195.979 17.6025 196.191 17.5215 196.829 17.5957C197.293 17.6498 197.755 17.8255 197.854 17.9862C197.985 18.199 198.083 18.1988 198.215 17.9854C198.461 17.5881 199.348 17.614 199.513 18.0233C199.586 18.2052 199.656 18.1229 199.667 17.8404C199.688 17.332 199.692 17.332 200.076 17.8404C200.46 18.3472 200.465 18.347 200.477 17.8248C200.488 17.3855 200.533 17.363 200.746 17.6925C200.927 17.9715 201.004 17.9884 201.007 17.7493C201.01 17.4974 201.141 17.479 201.514 17.6784C201.907 17.8888 202.055 17.8475 202.193 17.4892C202.359 17.0572 202.384 17.0578 202.632 17.4996C202.777 17.7573 203.007 17.8991 203.144 17.8147C203.293 17.7224 203.41 19.1173 203.436 21.3149L203.479 24.9685L203.659 21.9258C203.848 18.7145 204.085 17.4279 204.488 17.4279C204.622 17.4279 204.804 17.6165 204.893 17.8469C205.013 18.1615 205.104 18.1842 205.256 17.9382C205.367 17.7579 205.757 17.5786 206.122 17.5397C206.638 17.4847 206.878 17.6554 207.2 18.3084L207.613 19.1477L207.619 18.354C207.625 17.6853 207.73 17.5602 208.287 17.5602C208.77 17.5602 208.95 17.7029 208.954 18.0894C208.96 18.5746 209.003 18.5636 209.478 17.9571C209.926 17.3842 209.996 17.362 210.001 17.7911C210.006 18.2126 210.069 18.2347 210.425 17.9393C210.746 17.673 210.956 17.6626 211.329 17.895C211.708 18.1318 211.883 18.1139 212.133 17.8129C212.474 17.4018 213.182 17.2862 213.182 17.6414C213.182 17.8874 214.59 17.8342 215.014 17.5722C215.171 17.4756 215.298 17.5245 215.298 17.6806C215.298 17.8514 215.618 17.9083 216.1 17.8234C216.541 17.7457 217.136 17.8078 217.423 17.9612C217.754 18.1386 217.944 18.145 217.944 17.9788C217.944 17.6772 219.323 17.7221 219.552 18.0312C219.636 18.1447 220.047 18.0603 220.464 17.8437C220.957 17.5884 221.33 17.5382 221.527 17.7011C221.693 17.8394 221.914 17.8677 222.018 17.764C222.122 17.6604 222.308 17.7402 222.433 17.9415C222.622 18.2479 222.727 18.2395 223.077 17.8896C223.444 17.5223 224.576 17.4409 225.749 17.6974C225.895 17.7292 226.074 17.732 226.146 17.7034C226.792 17.4515 227.205 17.5333 227.209 17.9141C227.212 18.284 227.251 18.2927 227.456 17.9694C227.608 17.7296 228.178 17.5724 228.973 17.5512C230.136 17.5202 230.262 17.5771 230.414 18.2001L230.582 18.8829L230.613 18.1553C230.645 17.4207 230.998 17.1938 231.314 17.7051C231.432 17.8964 231.595 17.891 231.84 17.6877C232.089 17.4815 232.48 17.4713 233.14 17.6535C233.659 17.7969 234.086 17.8344 234.088 17.7371C234.09 17.6397 234.207 17.7381 234.348 17.9569C234.546 18.2631 234.606 18.2717 234.609 17.9946C234.611 17.7848 234.778 17.6989 235.01 17.7879C235.228 17.8717 235.407 17.8297 235.407 17.6946C235.407 17.2904 236.975 17.5274 237.142 17.9569C237.271 18.2879 237.359 18.2686 237.675 17.8402C238.049 17.3318 238.053 17.3318 238.061 17.8402C238.069 18.2989 238.104 18.3086 238.392 17.9313C238.569 17.699 238.952 17.5542 239.243 17.6094C239.534 17.6646 240.07 17.7569 240.434 17.8143C240.798 17.8718 241.333 17.9571 241.624 18.004C241.915 18.0508 242.231 18.3272 242.326 18.6183C242.477 19.0833 242.501 19.0672 242.528 18.486C242.55 18.0125 242.623 17.9259 242.785 18.1811C242.972 18.4773 243.071 18.4729 243.368 18.155C243.565 17.9446 243.937 17.8277 244.196 17.8955C244.461 17.9646 244.667 17.8748 244.667 17.6907C244.667 17.4307 244.749 17.431 245.064 17.6928C245.282 17.8739 245.463 17.9182 245.465 17.7912C245.467 17.6643 245.584 17.739 245.725 17.9573C245.953 18.3101 245.984 18.3101 246.005 17.9573C246.02 17.6899 246.102 17.7331 246.255 18.0895C246.472 18.5945 246.483 18.5914 246.501 18.0234C246.521 17.3662 247.048 17.1842 247.048 17.8344C247.048 18.154 247.158 18.1821 247.56 17.9666C248.28 17.5814 248.368 17.6151 248.398 18.288L248.424 18.8834L248.596 18.2724C248.8 17.5479 249.027 17.5164 249.638 18.1274C250.06 18.5495 250.097 18.5502 250.177 18.1364C250.286 17.568 251.546 17.5246 251.546 18.0892C251.546 18.5852 252.146 18.4909 252.388 17.9569C252.487 17.7386 252.595 18.1553 252.628 18.8829C252.677 19.9402 252.711 20.0269 252.798 19.3144C252.858 18.8241 253.131 18.1832 253.404 17.8902C253.895 17.3633 253.902 17.3731 254.108 18.7817L254.315 20.2059L254.452 19.0315C254.58 17.9309 254.617 17.8852 255.033 18.3039C255.598 18.8718 255.779 18.8678 255.781 18.2876C255.782 17.9769 255.913 18.0739 256.178 18.5825C256.442 19.0881 256.588 20.2329 256.617 22.022L256.661 24.7037L256.825 21.5476C256.936 19.4367 257.096 18.3558 257.311 18.2843C257.487 18.2255 257.632 18.0087 257.632 17.8026C257.632 17.5964 257.751 17.4277 257.896 17.4277C258.042 17.4277 258.163 17.5765 258.165 17.7584C258.168 17.9789 258.255 17.9569 258.426 17.6923C258.567 17.474 258.684 17.4159 258.686 17.5632C258.688 17.7104 259.196 17.8295 259.815 17.8278C260.893 17.8248 260.946 17.8626 261.103 18.7507L261.266 19.6768L261.301 18.7286C261.337 17.7441 261.869 17.4545 262.593 18.0254C262.822 18.2062 262.923 18.1796 262.923 17.9388C262.923 17.7272 263.075 17.7922 263.312 18.1049C263.639 18.538 263.702 18.5507 263.709 18.1862C263.719 17.6456 264.674 17.3704 265.111 17.7821C265.564 18.2092 266.196 18.1656 266.411 17.6924C266.527 17.4357 266.597 17.5628 266.609 18.0524L266.627 18.8093L267.148 18.1847L267.668 17.5601L267.701 18.3538L267.734 19.1476L267.97 18.3318C268.181 17.608 269.009 17.1456 269.009 17.7521C269.009 17.8819 269.128 17.9146 269.273 17.8247C269.419 17.7348 269.55 17.9361 269.564 18.2721C269.59 18.8748 269.593 18.8741 269.802 18.2216C269.982 17.6609 270.021 17.6408 270.057 18.0893C270.096 18.5679 270.124 18.5589 270.35 17.9955C270.534 17.5353 270.72 17.4243 271.061 17.5707C271.315 17.6797 271.731 17.7772 271.985 17.7874C272.24 17.7975 272.452 17.9291 272.457 18.0798C272.461 18.2306 272.622 18.1473 272.814 17.895C273.203 17.3819 273.507 17.5386 273.507 18.2531C273.507 18.6639 273.597 18.6421 274.196 18.0861C274.802 17.5248 274.934 17.4941 275.274 17.8342C275.721 18.2811 276.152 18.3414 276.152 17.957C276.152 17.4746 276.813 17.683 277.188 18.2836C277.548 18.8598 277.562 18.8615 277.762 18.3497C277.911 17.9689 277.972 17.9397 277.986 18.2436C278.018 18.9653 278.798 18.7261 278.798 17.9946C278.798 17.3505 278.812 17.3449 279.187 17.8402C279.4 18.1227 279.579 18.25 279.584 18.123C279.589 17.996 279.771 18.0404 279.989 18.2215C280.322 18.4982 280.389 18.4504 280.407 17.9232C280.418 17.5779 280.485 17.4376 280.556 17.6113C280.627 17.7851 280.855 17.8616 281.064 17.7814C281.279 17.6992 281.446 17.7921 281.448 17.9948C281.451 18.2722 281.511 18.2636 281.713 17.957C281.944 17.6042 282.002 17.6042 282.234 17.957C282.423 18.2459 282.495 18.2597 282.498 18.0075C282.501 17.817 282.627 17.7379 282.779 17.8318C282.931 17.9257 283.228 17.8586 283.44 17.6827C283.759 17.4184 283.828 17.4717 283.842 17.9907L283.859 18.6184L284.098 18.0231C284.23 17.6957 284.438 17.4277 284.56 17.4277C284.903 17.4277 285.6 18.0437 285.758 18.4861C285.848 18.7375 285.908 18.659 285.921 18.272C285.932 17.936 286.053 17.7296 286.188 17.8134C286.324 17.8971 286.527 17.8163 286.64 17.6332C286.782 17.4039 286.892 17.4974 286.995 17.9346C287.138 18.539 287.166 18.5469 287.609 18.1041C287.982 17.7312 288.15 17.7034 288.463 17.963C288.731 18.1855 288.852 18.1947 288.852 17.9923C288.852 17.8305 289.15 17.7228 289.514 17.7529C289.906 17.7853 290.177 17.973 290.179 18.213C290.182 18.5565 290.22 18.5608 290.422 18.241C290.725 17.7624 291.73 17.6002 292.163 17.96C292.404 18.1594 292.543 18.108 292.672 17.7726C292.824 17.3775 292.885 17.3669 293.096 17.6997C293.231 17.9139 293.344 17.9771 293.346 17.8402C293.349 17.7032 293.536 17.8223 293.764 18.1047C294.059 18.471 294.217 18.523 294.316 18.286C294.392 18.1031 294.563 18.0208 294.696 18.1031C294.829 18.1854 294.94 18.0971 294.942 17.9063C294.945 17.6448 295.005 17.653 295.186 17.9398C295.385 18.2546 295.498 18.2604 295.844 17.9736C296.203 17.6752 296.262 17.7141 296.269 18.2553C296.276 18.7959 296.322 18.8264 296.6 18.4751C296.779 18.2487 297.246 18.0945 297.65 18.1285C298.069 18.1638 298.379 18.0561 298.381 17.8749C298.384 17.686 298.488 17.7189 298.642 17.9569C298.87 18.3097 298.901 18.3097 298.924 17.9569C298.938 17.7386 299.104 17.9092 299.292 18.3359C299.619 19.0789 299.642 19.0873 299.817 18.5344C300.068 17.7432 300.756 17.8595 301.095 18.7506C301.205 19.0385 301.252 19.0022 301.267 18.6184C301.284 18.2019 301.483 18.0826 302.202 18.0582C302.837 18.0366 303.149 18.1572 303.229 18.455C303.303 18.7318 303.354 18.6706 303.374 18.2815C303.403 17.7045 303.431 17.6974 304.054 18.1059C304.412 18.3401 304.828 18.4549 304.98 18.361C305.132 18.2671 305.257 18.3164 305.257 18.4705C305.257 18.6246 305.376 18.7506 305.521 18.7506C305.667 18.7506 305.789 18.4828 305.794 18.1553C305.802 17.6041 305.829 17.5943 306.154 18.023C306.347 18.2777 306.582 18.486 306.675 18.486C306.768 18.486 306.853 18.2777 306.865 18.023C306.879 17.7002 306.929 17.6692 307.029 17.9207C307.15 18.2252 307.208 18.2252 307.401 17.9207C307.583 17.634 307.63 17.6499 307.634 17.9983C307.639 18.5016 308.683 18.3678 308.715 17.8599C308.725 17.695 308.836 17.7982 308.961 18.0892C309.086 18.3802 309.196 18.477 309.207 18.3043C309.219 18.0946 309.533 18.0401 310.151 18.1404C310.752 18.2379 311.077 18.1857 311.077 17.9915C311.078 17.827 311.316 17.6923 311.607 17.6923C311.901 17.6923 312.136 17.8687 312.136 18.0892C312.136 18.3075 312.255 18.4861 312.4 18.4861C312.546 18.4861 312.665 18.367 312.665 18.2215C312.665 17.8984 313.253 17.9892 313.521 18.3538C313.63 18.502 313.717 18.4079 313.719 18.1397C313.722 17.8765 313.842 17.7344 313.987 17.824C314.441 18.1046 315.311 18.2013 315.311 17.9711C315.311 17.6119 316.211 17.7924 316.559 18.2215C316.838 18.5644 316.883 18.5463 316.894 18.0892C316.904 17.6485 316.95 17.6264 317.167 17.9569C317.38 18.2817 317.469 18.2897 317.655 18.0009C317.837 17.7198 317.918 17.7392 318.055 18.0968C318.195 18.4615 318.301 18.4844 318.621 18.2189C318.937 17.9567 319.019 17.9639 319.036 18.2552C319.051 18.5205 319.093 18.5298 319.19 18.2897C319.286 18.0507 319.461 18.0352 319.83 18.2329C320.184 18.4222 320.338 18.4187 320.338 18.2215C320.338 18.0203 320.491 18.0203 320.867 18.2215C321.213 18.4067 321.396 18.4121 321.396 18.2374C321.396 18.0707 321.62 18.0537 321.992 18.1921C322.319 18.3142 322.849 18.3725 323.169 18.3215C323.489 18.2706 323.82 18.3411 323.905 18.4782C324.118 18.8223 324.836 18.51 324.836 18.0736C324.836 17.8492 325.095 17.9574 325.536 18.3665C326.311 19.0851 326.677 19.1843 326.709 18.6845C326.725 18.4344 326.763 18.4379 326.868 18.6986C326.971 18.9565 327.097 18.9232 327.368 18.5662C327.712 18.1118 327.731 18.1142 327.757 18.6184C327.782 19.1242 327.792 19.1255 327.98 18.6462C328.163 18.1798 328.215 18.1934 328.725 18.842C329.256 19.5167 329.278 19.5214 329.418 18.9859C329.498 18.6817 329.676 18.503 329.815 18.5888C329.954 18.6746 330.209 18.5746 330.382 18.3666C330.765 17.905 331.439 18.1173 331.481 18.7128C331.508 19.0858 331.529 19.0818 331.633 18.6845C331.699 18.4299 331.924 18.2066 332.131 18.1884C332.74 18.1351 332.887 18.0928 333.236 17.871C333.455 17.7323 333.574 17.8234 333.588 18.1397C333.599 18.403 333.667 18.4762 333.737 18.3025C333.808 18.1288 334.037 18.0522 334.246 18.1323C334.479 18.2217 334.625 18.1137 334.625 17.8529C334.625 17.6191 334.745 17.4277 334.89 17.4277C335.036 17.4277 335.155 17.6261 335.155 17.8687C335.155 18.1112 335.233 18.2313 335.329 18.1356C335.425 18.0399 335.663 18.0941 335.858 18.2562C336.121 18.4744 336.213 18.4697 336.213 18.2382C336.213 18.0663 336.332 17.9992 336.478 18.0892C336.623 18.1791 336.744 18.0972 336.746 17.9064C336.749 17.6949 336.826 17.663 336.945 17.8246C337.25 18.2406 337.863 18.2829 338.103 17.9047C338.261 17.6557 338.325 17.7068 338.334 18.0891C338.346 18.6113 338.352 18.6115 338.735 18.1047C338.949 17.8223 339.123 17.688 339.123 17.8064C339.123 17.9248 339.279 17.8923 339.47 17.7343C339.729 17.5191 339.935 17.5863 340.292 18.0025C340.662 18.4346 340.815 18.4807 340.983 18.21C341.302 17.6929 342.031 17.6716 342.052 18.1788C342.068 18.5541 342.099 18.5478 342.261 18.1358C342.474 17.5968 342.814 17.5067 343.07 17.9216C343.164 18.0726 343.683 18.245 344.224 18.3047C344.953 18.385 345.209 18.3146 345.209 18.0338C345.209 17.7306 345.298 17.7437 345.654 18.0996C346.071 18.5167 346.121 18.5147 346.448 18.0679C346.783 17.6095 346.796 17.6095 346.796 18.067C346.796 18.3812 346.931 18.491 347.193 18.3904C347.411 18.3066 347.592 18.3834 347.594 18.5606C347.597 18.8024 347.652 18.7988 347.812 18.546C348.074 18.133 348.746 18.8051 349.043 19.7778C349.178 20.2213 349.297 20.3089 349.442 20.0736C349.591 19.8333 349.699 19.8979 349.828 20.3032C349.926 20.6134 350.118 20.8673 350.254 20.8673C350.389 20.8673 350.5 21.2483 350.5 21.7139C350.5 22.8246 350.86 22.398 351.299 20.7662C351.6 19.6502 351.691 19.5347 351.97 19.9168C352.268 20.3234 352.328 20.3247 352.72 19.9327C352.954 19.6983 353.158 19.3662 353.173 19.1947C353.187 19.0232 353.294 19.1805 353.411 19.5444L353.623 20.2058L353.649 19.4782C353.664 19.078 353.765 18.7695 353.874 18.7926C354.222 18.8663 355.12 18.4006 355.453 17.9733C355.737 17.6089 355.779 17.6225 355.802 18.0891L355.829 18.6183L356.057 18.0891C356.271 17.5902 356.285 17.5951 356.303 18.1741C356.319 18.7174 356.367 18.7429 356.714 18.3954C356.93 18.1793 357.317 18.0426 357.574 18.0917C357.831 18.1408 358.123 18.19 358.222 18.2012C358.322 18.2123 358.453 18.5488 358.513 18.949C358.609 19.5813 358.629 19.5553 358.667 18.7506C358.699 18.0828 358.778 17.9305 358.951 18.2044C359.142 18.5055 359.272 18.5178 359.578 18.2638C359.886 18.0075 359.996 18.0275 360.125 18.3637C360.224 18.622 360.415 18.7039 360.619 18.5763C361.212 18.2057 361.613 18.2583 361.622 18.7078C361.63 19.1092 361.66 19.1076 361.977 18.6905C362.298 18.2678 362.35 18.283 362.677 18.894C362.934 19.3744 363.089 19.4629 363.244 19.2186C363.388 18.9911 363.458 19.0748 363.461 19.4782C363.464 19.8056 363.576 20.0734 363.711 20.0734C363.847 20.0734 364.009 20.3413 364.072 20.6688C364.158 21.1161 364.196 21.058 364.223 20.4351C364.249 19.8464 364.412 19.5659 364.788 19.4676C365.215 19.3561 365.323 19.4657 365.349 20.0321C365.38 20.7283 365.382 20.7274 365.582 19.9412L365.784 19.1474L365.846 19.9412L365.909 20.7349L366.093 19.9412C366.276 19.1554 366.28 19.1588 366.482 20.2719C366.721 21.5851 367.115 21.7346 367.342 20.5984C367.46 20.0112 367.587 19.8708 367.823 20.067C368 20.2136 368.213 20.264 368.298 20.1792C368.383 20.0944 368.544 20.6014 368.657 21.306L368.861 22.587L369.18 21.2641C369.453 20.1337 369.503 20.0641 369.525 20.7855C369.56 21.9315 370.077 22.203 370.089 21.0813C370.098 20.2103 370.102 20.2125 370.735 21.5287L371.372 22.8516L371.434 21.2641C371.49 19.8122 371.504 19.7784 371.598 20.8673C371.654 21.5221 371.812 22.171 371.949 22.3092C372.085 22.4475 372.211 22.8642 372.23 23.2352C372.248 23.6063 372.411 22.9575 372.592 21.7933C372.842 20.1824 372.969 19.8224 373.122 20.2869C373.233 20.6225 373.473 20.8399 373.656 20.77C373.871 20.6873 374.062 21.029 374.202 21.7472L374.417 22.8516L374.585 21.2641C374.678 20.391 374.775 19.8552 374.802 20.0735C374.845 20.4263 374.879 20.4263 375.107 20.0735C375.306 19.7659 375.371 19.8552 375.398 20.4703C375.417 20.9069 375.485 21.0659 375.549 20.8236C375.73 20.1433 376.43 19.9866 376.43 20.6266C376.43 21.6703 376.959 20.8194 376.99 19.7271C377.007 19.1172 377.078 18.8564 377.148 19.1474C377.218 19.4384 377.382 19.7897 377.514 19.928C377.645 20.0662 377.753 20.5793 377.753 21.0681C377.753 21.5932 377.861 21.8899 378.017 21.7933C378.163 21.7034 378.282 21.3321 378.282 20.9683C378.282 20.1639 378.798 20.3898 378.842 21.2136C378.871 21.7456 379.168 20.4142 379.498 18.2802C379.643 17.3404 380.131 17.3579 380.138 18.3032C380.141 18.622 380.229 18.7638 380.336 18.6183C380.443 18.4728 380.769 18.3564 381.06 18.3596C381.351 18.3626 381.67 18.1842 381.769 17.9627C381.916 17.634 381.952 17.648 381.967 18.0386C381.978 18.3019 382.1 18.4467 382.24 18.3605C382.379 18.2743 382.721 18.6475 382.999 19.1899C383.468 20.1037 383.519 20.1335 383.69 19.5956C383.89 18.9646 384.507 18.8152 384.721 19.346C384.795 19.5279 384.868 19.4385 384.884 19.1475C384.912 18.6469 384.942 18.6521 385.434 19.243C385.75 19.6223 385.958 19.7262 385.964 19.5076C385.969 19.2889 386.177 19.3928 386.493 19.7722L387.013 20.3968L387.044 19.7722C387.071 19.2329 387.103 19.2561 387.278 19.9413C387.47 20.6984 387.483 20.7045 387.546 20.0736C387.602 19.5141 387.642 19.5549 387.807 20.3381L388.002 21.2642L388.037 20.4326C388.074 19.547 388.841 18.9385 388.896 19.7512C388.922 20.1337 388.947 20.1263 389.055 19.7045C389.158 19.3016 389.229 19.2756 389.417 19.5722C389.593 19.8495 389.652 19.7933 389.655 19.346C389.66 18.6403 390.13 18.5545 390.38 19.2137C390.618 19.8418 391.246 20.468 391.246 20.0769C391.246 19.9123 391.366 19.8514 391.511 19.9413C391.657 20.0312 391.776 19.8597 391.776 19.56C391.776 18.9619 392.182 18.8212 392.394 19.346C392.468 19.5279 392.546 19.3791 392.569 19.0153C392.603 18.468 392.67 18.5364 392.959 19.4121C393.151 19.9942 393.32 20.2621 393.335 20.0075C393.378 19.2985 393.987 19.5806 394.335 20.4705L394.646 21.2642L394.666 20.2877C394.685 19.3799 395.215 18.504 395.215 19.3809C395.215 19.9252 395.757 20.2166 396.01 19.8079C396.157 19.5693 396.267 19.635 396.395 20.0394C396.558 20.5544 396.611 20.5674 396.992 20.1862C397.223 19.9561 397.638 19.8275 397.917 19.9002C398.21 19.9768 398.483 19.8747 398.566 19.6577C398.645 19.4515 398.817 19.3488 398.947 19.4293C399.077 19.5098 399.184 19.2184 399.184 18.7819C399.184 18.3453 399.303 17.9146 399.449 17.8247C399.594 17.7348 399.713 17.8468 399.713 18.0736C399.713 18.3005 399.892 18.4861 400.11 18.4861C400.328 18.4861 400.507 18.3796 400.507 18.2495C400.507 17.7511 401.852 18.0893 401.975 18.6184C402.042 18.9094 402.203 19.6238 402.333 20.2059L402.57 21.2642L402.597 20.3719C402.62 19.61 402.682 19.5277 403.02 19.809C403.239 19.9901 403.427 20.4512 403.438 20.8336C403.462 21.6316 403.553 21.4325 403.847 19.9413L404.055 18.8829L404.199 20.2059C404.293 21.0659 404.459 21.5057 404.674 21.4627C404.856 21.4263 405.005 21.5751 405.005 21.7934C405.005 22.0117 405.11 22.1903 405.238 22.1903C405.366 22.1903 405.556 23.2076 405.66 24.4511C405.815 26.3182 405.911 26.6597 406.209 26.4123C406.437 26.2233 406.599 25.4128 406.647 24.2176C406.705 22.8117 406.793 23.4494 406.989 26.6882L407.254 31.0538L407.398 27.6142C407.478 25.7224 407.575 24.3532 407.615 24.5715C407.669 24.8654 407.747 24.8312 407.915 24.4392C408.069 24.0803 408.165 24.6762 408.214 26.2913L408.284 28.6726L408.431 25.7622C408.574 22.9052 408.581 22.8809 408.786 24.4392C408.902 25.3123 409.078 26.4434 409.177 26.9528C409.358 27.8702 409.36 27.8671 409.445 26.622C409.585 24.5897 410.003 25.1815 410.1 27.548L410.189 29.7309L410.247 27.085C410.287 25.2624 410.384 24.5627 410.561 24.8361C410.743 25.1169 410.82 24.7689 410.824 23.6455C410.833 21.5969 411.106 19.9351 411.364 20.3527C411.499 20.5718 411.618 20.4947 411.741 20.1085C411.839 19.7983 412.031 19.5444 412.166 19.5444C412.302 19.5444 412.413 19.3512 412.413 19.1151C412.413 18.7768 412.492 18.7511 412.784 18.9939C413.069 19.2304 413.187 19.2226 413.293 18.9602C413.368 18.7722 413.448 18.9161 413.471 19.2799C413.508 19.8797 413.545 19.855 413.868 19.0153L414.225 18.0892L414.264 18.883C414.291 19.4532 414.353 19.5491 414.482 19.2234C414.857 18.279 415.236 19.2524 415.688 22.3226C416.333 26.6988 417.051 28.0721 417.245 25.2991C417.304 24.4533 417.374 24.9965 417.423 26.6882C417.474 28.4558 417.569 29.1776 417.684 28.6726C417.827 28.0495 417.92 28.3623 418.116 30.1278L418.366 32.3768L418.432 29.5986C418.529 25.4838 418.752 25.0126 419.311 27.7465L419.771 29.9955L419.796 27.5637C419.827 24.6232 420.34 23.8904 420.374 26.7387C420.386 27.8023 420.483 29.2679 420.589 29.9955L420.78 31.3184L420.966 29.5986C421.067 28.6528 421.187 27.2835 421.232 26.5559C421.277 25.8283 421.353 26.7808 421.401 28.6726C421.481 31.7714 421.509 31.9418 421.683 30.3924C421.789 29.4465 421.909 27.7796 421.949 26.6882C421.991 25.5724 422.07 25.1092 422.132 25.6299C422.301 27.07 422.726 27.237 422.771 25.8812C422.798 25.0965 422.848 24.9465 422.921 25.4315C422.982 25.8316 423.143 26.1591 423.278 26.1591C423.414 26.1591 423.526 26.3902 423.526 26.6726C423.526 26.9551 423.645 27.2597 423.79 27.3497C423.953 27.4504 424.061 26.9742 424.07 26.1085C424.078 25.336 424.184 24.2276 424.304 23.6455C424.497 22.7135 424.529 22.8398 424.574 24.7039C424.629 26.9718 424.707 27.0306 424.98 25.0103C425.075 24.3058 425.208 23.7842 425.275 23.8512C425.342 23.9182 425.495 24.9114 425.616 26.0582L425.836 28.1434L425.87 25.7622C425.909 22.9548 426.423 19.2583 426.826 18.883C427.304 18.4375 427.759 18.4621 427.759 18.9336C427.759 19.3348 427.796 19.3309 428.114 18.8954C428.453 18.4317 428.489 18.4381 428.908 19.036C429.149 19.3804 429.346 19.8214 429.346 20.0159C429.346 20.2104 429.452 20.3044 429.58 20.2249C429.709 20.1454 429.862 21.2635 429.92 22.7096C430.061 26.2308 430.557 26.791 430.933 23.8542C431.159 22.0856 431.203 22.2999 431.452 26.4237L431.636 29.4664L431.682 27.1025C431.707 25.779 431.931 24.0323 432.191 23.1337L432.654 21.5289L432.809 22.9841C432.929 24.1135 432.98 23.7581 433.034 21.3966C433.072 19.7231 433.181 18.6288 433.275 18.9648C433.37 19.3008 433.507 19.5603 433.58 19.5415C433.652 19.5227 434.039 19.6318 434.439 19.7839C435.138 20.0496 435.168 20.0268 435.187 19.2072L435.207 18.3539L435.564 19.2799C435.76 19.7892 435.938 20.0274 435.959 19.8091C435.986 19.5351 436.065 19.576 436.214 19.9414C436.411 20.4257 436.446 20.4077 436.624 19.7279L436.819 18.9852L437.382 19.5922L437.945 20.1992L438.033 19.4288C438.099 18.8527 438.182 18.7535 438.36 19.0353C438.551 19.3373 438.599 19.3137 438.603 18.9168C438.606 18.4858 438.664 18.4685 439.047 18.7845C439.374 19.0546 439.514 19.0667 439.593 18.8318C439.728 18.429 440.459 18.6954 440.459 19.1477C440.459 19.5859 441.246 19.8974 441.273 19.4701C441.288 19.2366 441.332 19.2419 441.431 19.4894C441.604 19.9194 442.311 19.4059 442.311 18.8507C442.311 18.6502 442.43 18.4862 442.575 18.4862C442.721 18.4862 442.84 18.6015 442.84 18.7424C442.84 19.0349 443.683 18.7811 443.929 18.4142C444.019 18.2806 444.182 18.5101 444.29 18.924C444.47 19.6093 444.507 19.6294 444.7 19.1476C444.882 18.6917 444.94 18.7466 445.114 19.5445L445.317 20.4705L445.541 19.6107C445.778 18.7046 446.522 18.419 446.575 19.2138C446.593 19.4684 446.698 19.3196 446.809 18.8831L447.011 18.0893L447.046 18.8831C447.072 19.4686 447.144 19.5772 447.322 19.2969C447.514 18.9934 447.641 18.9823 447.953 19.2418C448.264 19.4996 448.373 19.496 448.482 19.2248C448.557 19.0368 448.628 19.4287 448.64 20.0957C448.655 20.988 448.766 21.3084 449.058 21.3084C449.324 21.3084 449.456 21.0396 449.459 20.4926C449.462 19.9449 449.536 19.7928 449.686 20.0299C449.857 20.2984 449.945 20.2508 450.054 19.8315C450.222 19.189 450.777 19.0848 450.777 19.6957C450.777 20.171 451.484 20.9559 451.978 21.0283C452.16 21.0551 452.385 20.7025 452.478 20.2446C452.605 19.6128 452.703 19.5045 452.884 19.7953C453.068 20.0904 453.165 19.9993 453.309 19.3984C453.412 18.9695 453.554 18.5165 453.625 18.3918C453.858 17.9814 454.208 18.8635 454.24 19.9414L454.271 20.9997L454.48 20.1153C454.77 18.8903 455.246 18.4487 455.447 19.2183C455.633 19.928 455.947 19.9744 456.312 19.3461C456.56 18.9203 456.583 18.9256 456.594 19.4122C456.604 19.8515 456.65 19.8739 456.863 19.5444C457.004 19.3262 457.121 19.2597 457.123 19.3966C457.126 19.5336 457.302 19.4145 457.516 19.132C457.882 18.6477 457.906 18.6711 457.941 19.5444L457.978 20.4705L458.229 19.3497C458.476 18.2472 458.49 18.2355 459.102 18.6367C459.636 18.9864 459.774 18.9916 460.072 18.6731C460.263 18.4688 460.625 18.3556 460.878 18.4216C461.324 18.5383 461.459 19.0614 461.714 21.6611C461.764 22.1705 461.828 21.8133 461.856 20.8674C461.907 19.1228 462.455 17.7742 462.775 18.6062C462.863 18.8358 463.102 18.9398 463.335 18.8502C463.627 18.7382 463.749 18.8704 463.768 19.3177L463.795 19.9414L463.997 19.2799C464.414 17.9102 464.535 19.5408 464.605 27.4819C464.644 31.9203 464.676 26.9793 464.676 16.5018C464.676 6.02428 464.643 1.23201 464.602 5.8523C464.556 11.1466 464.432 14.2528 464.268 14.2528C464.124 14.2528 463.989 13.9254 463.967 13.5252L463.927 12.7976L463.817 13.5252C463.674 14.4674 463.225 14.4674 463.173 13.5252L463.134 12.7976L463.019 13.5656C462.899 14.3749 462.331 15.1349 462.054 14.8576C461.964 14.7675 461.876 13.8504 461.859 12.8196C461.827 10.8627 461.77 10.8935 461.49 13.0203C461.397 13.7248 461.247 14.2271 461.156 14.1365C461.065 14.0458 460.841 14.2432 460.656 14.5752C460.407 15.0241 460.319 15.0665 460.312 14.7406C460.305 14.4342 460.143 14.344 459.773 14.4407C459.436 14.529 459.243 14.4487 459.24 14.2175C459.237 13.9266 459.193 13.923 459.018 14.1992C458.736 14.6443 458.29 14.1487 458.115 13.1945C458.01 12.6266 457.988 12.6524 457.957 13.3773C457.915 14.374 457.582 14.6679 457.122 14.1143C456.889 13.8329 456.697 13.7968 456.463 13.9905C456.221 14.1918 456.086 14.1053 455.951 13.6631C455.771 13.0701 455.765 13.0717 455.5 13.7898C455.127 14.7995 454.746 14.6993 454.746 13.5914C454.746 13.0821 454.627 12.6654 454.482 12.6654C454.336 12.6654 454.215 12.9332 454.213 13.2606C454.21 13.588 454.138 14.1252 454.049 14.4543C453.896 15.0272 453.869 15.016 453.415 14.1897C453.154 13.7151 452.811 13.3566 452.653 13.393C452.494 13.4294 452.363 13.1316 452.361 12.7315C452.358 12.2009 452.293 12.1051 452.12 12.3775C451.937 12.6666 451.857 12.6068 451.763 12.1129C451.672 11.6273 451.635 11.6929 451.607 12.3875C451.579 13.0975 451.501 13.2298 451.254 12.9829C450.776 12.5054 450.517 12.5981 450.477 13.2606L450.441 13.856L450.323 13.2404C450.247 12.8415 450.074 12.6757 449.83 12.7691C449.58 12.8651 449.442 12.7171 449.418 12.3263L449.382 11.7393L449.267 12.3385C449.204 12.6681 449.042 12.8694 448.906 12.7859C448.771 12.7024 448.651 13.0281 448.64 13.5096L448.619 14.3851L448.353 13.6575C448.031 12.7761 447.669 12.7162 447.555 13.5252C447.493 13.9613 447.293 14.1206 446.809 14.1206C446.445 14.1206 446.066 14.2334 445.967 14.3713C445.868 14.5093 445.7 14.2755 445.593 13.8518C445.424 13.1781 445.377 13.1467 445.218 13.601C445.117 13.8868 444.87 14.1206 444.668 14.1206C444.466 14.1206 444.224 14.4778 444.131 14.9143C443.966 15.6844 443.96 15.6872 443.93 15.0088C443.894 14.2085 443.507 13.9848 442.492 14.1787C441.931 14.286 441.777 14.211 441.761 13.8207C441.748 13.5233 441.685 13.4628 441.603 13.6685C441.504 13.9133 441.323 13.8456 440.962 13.4295L440.459 12.849V13.5186C440.459 13.8868 440.28 14.3363 440.062 14.5175C439.737 14.7872 439.665 14.7691 439.665 14.4176C439.665 13.8604 439.414 13.8727 438.975 14.4514C438.657 14.8695 438.622 14.8374 438.611 14.1206C438.602 13.57 438.528 13.4374 438.37 13.6876C438.199 13.9581 438.073 13.8589 437.866 13.2907C437.714 12.874 437.581 12.7177 437.569 12.9432C437.558 13.1688 437.404 13.4974 437.228 13.6734C436.978 13.9238 436.836 13.8632 436.576 13.3956L436.244 12.7977L436.203 13.4592C436.165 14.0774 436.149 14.0687 435.961 13.3269L435.759 12.5332L435.727 13.5097C435.688 14.7303 435.167 15.149 435.167 13.9598C435.167 13.4904 435.089 13.1847 434.993 13.2805C434.897 13.3762 434.659 13.322 434.464 13.1599C434.189 12.9316 434.104 12.9768 434.088 13.3606C434.076 13.6394 434.008 13.7114 433.933 13.5253C433.741 13.0491 433.374 13.1185 433.233 13.6576C433.166 13.9123 433.076 12.93 433.032 11.4748C432.975 9.59233 432.923 9.24883 432.849 10.2842L432.745 11.7394L432.348 10.681C432.13 10.0989 431.86 8.25352 431.748 6.58003L431.545 3.5373L431.5 6.18311C431.449 9.14554 431.119 10.2177 430.822 8.3874C430.648 7.31554 430.611 7.2747 430.255 7.75507C429.991 8.11231 429.87 9.03856 429.857 10.7977C429.844 12.457 429.76 13.1448 429.611 12.7977C429.409 12.3288 429.381 12.3514 429.365 12.9962C429.348 13.6517 428.288 15.1494 428.288 14.5175C428.288 14.372 428.169 14.2529 428.023 14.2529C427.878 14.2529 427.757 14.4613 427.755 14.716C427.752 15.1117 427.713 15.1213 427.494 14.7821C427.353 14.5638 427.236 14.4829 427.233 14.6025C427.23 14.722 427.069 14.6597 426.874 14.4641C426.398 13.9889 425.915 10.5979 425.87 7.42902L425.834 4.86018L425.621 7.07191C425.504 8.28837 425.35 9.34108 425.28 9.41126C425.21 9.48146 425.075 8.96238 424.98 8.25782C424.71 6.25892 424.629 6.29342 424.574 8.43202C424.528 10.2211 424.501 10.3123 424.304 9.3581C424.184 8.77602 424.078 7.73421 424.07 7.04298C424.062 6.35176 423.935 5.7862 423.79 5.7862C423.644 5.7862 423.525 6.03138 423.525 6.331C423.525 6.63063 423.414 6.80696 423.278 6.72285C423.142 6.63875 422.982 6.95911 422.923 7.43482C422.843 8.08041 422.806 7.96985 422.774 6.99885C422.725 5.48751 422.448 5.57281 422.186 7.18018C422.026 8.1651 421.997 8.06109 421.942 6.31538C421.908 5.22397 421.792 3.6166 421.683 2.74348C421.512 1.35926 421.475 1.59646 421.399 4.59559C421.35 6.48736 421.275 7.38033 421.231 6.57996C421.187 5.7796 421.07 4.35087 420.971 3.40498C420.791 1.6966 420.789 1.69216 420.585 2.74348C420.473 3.32556 420.362 4.93293 420.339 6.31538C420.288 9.40249 419.896 8.58832 419.829 5.25703C419.781 2.83848 419.361 2.94193 419.292 5.38935C419.272 6.11695 419.164 6.94524 419.052 7.22999C418.751 8.00137 418.509 6.21931 418.48 3.00806C418.452 -0.0827451 418.35 -0.0169675 418.068 3.27265C417.893 5.3165 417.84 5.50397 417.69 4.59559C417.558 3.79629 417.496 4.15246 417.438 6.05079C417.377 8.01383 417.325 8.30359 417.199 7.37373C417.042 6.22017 417.03 6.20735 416.823 6.96302C416.657 7.56975 416.556 7.65787 416.367 7.35987C416.202 7.09863 416.124 7.40802 416.121 8.33265C416.118 9.07833 415.938 10.1946 415.72 10.8133C415.502 11.432 415.314 12.6078 415.302 13.4262C415.291 14.2447 415.221 14.7647 415.147 14.5819C415.074 14.3991 414.905 14.3169 414.771 14.3991C414.638 14.4814 414.528 14.3931 414.525 14.2023C414.522 13.9507 414.451 13.9645 414.265 14.2528C414.064 14.5632 414.008 14.4946 414.004 13.9378C413.998 12.974 413.476 12.6938 413.453 13.6419C413.436 14.2848 413.405 14.3137 413.222 13.856C413.047 13.4203 412.962 13.5372 412.74 14.5174C412.562 15.3006 412.458 15.4817 412.437 15.0466C412.402 14.3339 411.65 12.0506 411.631 12.5992C411.625 12.7811 411.516 12.9299 411.39 12.9299C411.127 12.9299 410.562 9.36144 410.301 6.05073L410.123 3.80183L410.077 5.86793C410.028 8.11225 409.522 8.531 409.476 6.36585C409.454 5.34964 409.411 5.24457 409.238 5.78614C409.121 6.14995 409.012 6.9239 408.996 7.50599C408.979 8.08807 408.85 8.74291 408.709 8.96119C408.532 9.23386 408.434 8.48859 408.393 6.5799L408.333 3.80183L408.246 6.41834C408.169 8.75418 408.119 8.98123 407.781 8.53498C407.517 8.18603 407.389 7.19633 407.356 5.25703L407.31 2.47889L407.091 5.78614C406.802 10.1526 406.686 11.0078 406.634 9.14222C406.611 8.29591 406.449 7.34338 406.273 7.02552C405.973 6.48015 405.944 6.50725 405.759 7.50599C405.652 8.08807 405.557 9.0193 405.549 9.57539C405.535 10.5075 404.987 11.5017 404.665 11.1797C404.59 11.1041 404.446 11.5265 404.346 12.1184C404.108 13.5264 403.693 13.4979 403.639 12.07C403.603 11.0953 403.583 11.06 403.49 11.8054C403.432 12.2784 403.272 12.6654 403.136 12.6654C402.999 12.6654 402.876 12.9332 402.862 13.2606C402.836 13.829 402.826 13.826 402.637 13.1945C402.464 12.6167 402.413 12.6929 402.235 13.7965C402.069 14.8307 401.966 15.0048 401.666 14.7563C401.389 14.5259 401.3 14.5311 401.3 14.778C401.3 14.9585 401.124 15.0355 400.904 14.951C400.653 14.8549 400.507 14.954 400.507 15.2197C400.507 15.5418 400.423 15.5715 400.152 15.346C399.956 15.1839 399.73 15.1183 399.648 15.2002C399.566 15.2821 399.417 14.9749 399.316 14.5175C399.216 14.0602 399.058 13.7609 398.967 13.8526C398.875 13.9443 398.657 13.6254 398.483 13.1439L398.166 12.2686L398.146 13.1284C398.121 14.1764 397.667 14.2623 397.446 13.2608C397.18 12.054 397.111 11.9761 396.908 12.6513C396.727 13.2527 396.699 13.2621 396.512 12.7835C396.346 12.3593 396.304 12.4085 396.273 13.0623C396.244 13.6955 396.197 13.7552 396.04 13.3576C395.87 12.9229 395.788 12.9737 395.404 13.7544C394.989 14.5961 394.961 14.6102 394.938 13.9884C394.924 13.6245 394.817 13.0887 394.7 12.7977C394.5 12.3029 394.463 12.3166 394.141 13.0082L393.796 13.7479L393.49 13.0082C393.188 12.2766 393.182 12.2831 392.961 13.5914L392.737 14.9144L392.556 13.9884C392.439 13.3905 392.362 13.2733 392.339 13.6576C392.289 14.5134 391.776 14.3939 391.771 13.5253C391.768 12.9583 391.711 12.8853 391.511 13.1946C391.312 13.5029 391.245 13.4143 391.211 12.7977L391.167 12.004L391.057 12.7316C390.996 13.1318 390.843 13.4592 390.717 13.4592C390.591 13.4592 390.406 13.7179 390.306 14.0341L390.123 14.609L389.768 13.968C389.537 13.5515 389.4 13.4659 389.377 13.7238C389.358 13.942 389.246 13.823 389.13 13.4592L388.918 12.7977L388.871 13.4592C388.844 13.8288 388.76 13.9615 388.68 13.76C388.559 13.4555 388.501 13.4555 388.308 13.76C388.158 13.9968 388.066 13.712 388.041 12.93L388.002 11.7394L387.807 12.6654C387.692 13.2096 387.59 13.3733 387.558 13.0623L387.505 12.5332L387.278 13.0623C387.152 13.3534 387.042 13.4837 387.032 13.352C387.021 13.2203 386.775 13.328 386.484 13.5914C385.969 14.0575 385.954 14.0533 385.919 13.434C385.885 12.8439 385.875 12.8393 385.771 13.3706C385.631 14.0854 384.901 14.424 384.884 13.7816C384.877 13.5032 384.731 13.6347 384.509 14.1206C384.309 14.5572 384.136 14.757 384.124 14.5647C384.112 14.3724 383.928 14.0404 383.714 13.8269C383.373 13.4856 383.285 13.5039 382.989 13.978C382.804 14.2747 382.502 14.5175 382.319 14.5175C382.136 14.5175 381.986 14.6436 381.986 14.7977C381.986 14.9518 381.877 15.0106 381.744 14.9283C381.611 14.846 381.44 14.9283 381.364 15.1112C381.269 15.3405 381.057 15.2499 380.68 14.8189C380.27 14.3495 380.134 14.2981 380.134 14.6121C380.134 14.8699 379.986 14.9732 379.747 14.8817C379.498 14.7861 379.296 14.1585 379.178 13.1162C379.016 11.6831 378.964 11.5728 378.721 12.1483L378.447 12.7977L378.347 12.0701C378.203 11.0227 377.753 11.173 377.753 12.2685C377.753 12.7778 377.642 13.1946 377.507 13.1946C377.373 13.1946 377.208 13.4029 377.141 13.6576C377.067 13.9425 377.008 13.8407 376.99 13.393C376.956 12.5904 376.52 12.3985 376.38 13.1246C376.316 13.4562 376.165 13.3274 375.837 12.6616C375.388 11.749 375.383 11.7469 375.377 12.4669C375.373 12.9346 375.23 13.1946 374.974 13.1946C374.681 13.1946 374.57 12.8662 374.55 11.9378L374.522 10.681L374.173 11.7393C373.981 12.3214 373.815 12.6488 373.804 12.4669C373.771 11.9222 373.331 12.093 373.122 12.7316C372.976 13.1811 372.874 12.9154 372.708 11.6464C372.433 9.55288 372.245 9.05479 372.217 10.3503C372.206 10.896 372.084 11.3425 371.947 11.3425C371.81 11.3425 371.652 11.8485 371.596 12.4669C371.524 13.2686 371.482 13.0743 371.449 11.7899C371.42 10.6667 371.303 10.0499 371.138 10.1519C370.992 10.2418 370.873 10.5914 370.873 10.9288C370.873 11.6638 370.202 12.3525 370.007 11.8165C369.939 11.6286 369.76 11.8915 369.609 12.4008L369.334 13.3269L369.291 12.5331C369.268 12.0965 369.153 11.5013 369.035 11.2102C368.865 10.7889 368.783 10.9334 368.63 11.919C368.475 12.9184 368.354 13.1256 368.002 12.9938C367.762 12.904 367.439 12.6607 367.283 12.4532C367.053 12.147 366.917 12.2435 366.561 12.966C366.145 13.8122 366.121 13.8235 366.082 13.1946C366.049 12.6627 366.003 12.7145 365.846 13.4592L365.651 14.3852L365.581 13.1946C365.536 12.449 365.469 12.2512 365.4 12.6654C365.19 13.938 365.092 14.0655 364.656 13.63C364.438 13.4113 364.245 12.956 364.228 12.6182C364.206 12.1699 364.165 12.129 364.076 12.4669C364.01 12.7216 363.845 12.93 363.71 12.93C363.575 12.93 363.463 13.1978 363.461 13.5253C363.458 14.0067 363.408 14.0446 363.2 13.7237C362.977 13.3784 362.943 13.3828 362.94 13.7575C362.937 13.9943 362.757 14.3363 362.539 14.5174C362.221 14.781 362.142 14.7793 362.142 14.5084C362.142 14.2811 361.969 14.3273 361.613 14.6494C361.313 14.9209 361.084 14.9959 361.084 14.8226C361.084 14.3412 360.101 14.4664 359.907 14.9727C359.757 15.3634 359.697 15.3728 359.482 15.0388C359.262 14.6968 359.2 14.6976 358.971 15.0457C358.78 15.3365 358.701 15.089 358.673 14.1197L358.636 12.7968L358.454 13.9163C358.222 15.3372 358.126 15.4198 357.443 14.7832C356.886 14.2642 356.882 14.2643 356.717 14.7863C356.532 15.3668 356.069 15.4986 356.036 14.9798C356.02 14.7249 355.985 14.7231 355.884 14.9718C355.736 15.3365 354.915 14.677 354.659 13.9874C354.577 13.7691 354.499 13.9477 354.484 14.3843L354.457 15.178L354.033 14.3182C353.602 13.4429 353.168 13.1913 353.12 13.789C353.105 13.9709 353.012 13.8264 352.912 13.4679L352.73 12.8161L352.172 13.3748L351.613 13.9334L351.267 12.3729C350.873 10.5997 350.509 10.3362 350.482 11.8046C350.468 12.5479 350.413 12.6672 350.261 12.28C350.089 11.8405 350.033 11.8926 349.886 12.6283C349.789 13.113 349.595 13.4206 349.445 13.3279C349.298 13.2369 349.178 13.2872 349.178 13.4396C349.178 13.8581 348.32 14.7731 348.072 14.6197C347.952 14.5458 347.853 14.7007 347.851 14.964C347.848 15.3667 347.807 15.38 347.597 15.048C347.398 14.7337 347.281 14.7202 347.019 14.9819C346.56 15.4407 346.273 15.3913 346.236 14.8474C346.211 14.4697 346.18 14.4818 346.069 14.9135C345.938 15.4182 345.923 15.4198 345.754 14.9472C345.587 14.4816 345.549 14.4788 345.128 14.8999C344.707 15.3211 344.68 15.3151 344.68 14.8C344.68 14.4986 344.561 14.252 344.415 14.252C344.27 14.252 344.151 14.5538 344.151 14.9227C344.151 15.5127 344.086 15.5592 343.618 15.3087C343.017 14.9867 342.262 15.0482 341.972 15.4426C341.85 15.6077 341.776 15.586 341.773 15.3848C341.77 15.2074 341.591 15.1308 341.372 15.2146C341.143 15.3027 340.968 15.2154 340.957 15.0079C340.947 14.8104 340.836 14.887 340.711 15.178C340.586 15.4691 340.475 15.5849 340.465 15.4354C340.455 15.284 339.86 15.1761 339.123 15.1918C338.084 15.214 337.8 15.1305 337.796 14.8021C337.793 14.4355 337.76 14.4329 337.532 14.7811C337.3 15.1339 337.242 15.1339 337.011 14.7811C336.799 14.4588 336.749 14.4961 336.746 14.9796C336.741 15.7474 336.265 15.7474 335.957 14.9796C335.773 14.5235 335.713 14.4925 335.701 14.8473C335.681 15.3777 334.638 15.5037 334.605 14.9796C334.588 14.715 334.557 14.715 334.45 14.9796C334.292 15.3723 333.567 15.4266 333.567 15.0457C333.567 14.9002 333.27 14.7811 332.906 14.7811C332.542 14.7811 332.244 14.6475 332.244 14.4841C332.244 14.2789 332.122 14.289 331.847 14.5165C331.629 14.6977 331.451 15.0245 331.451 15.2428C331.451 15.5778 331.384 15.5845 331.024 15.2857C330.789 15.091 330.499 14.6895 330.379 14.3934C330.187 13.9179 330.159 13.9113 330.144 14.337C330.129 14.7751 330.09 14.7811 329.712 14.4031C329.147 13.8379 328.805 13.8807 328.805 14.5165C328.805 15.1961 328.494 15.1918 328.066 14.5062C327.881 14.2095 327.614 14.0379 327.473 14.1249C327.332 14.2119 327.208 14.1269 327.196 13.9368C327.18 13.6657 327.144 13.6688 327.032 13.9511C326.92 14.2328 326.844 14.2396 326.685 13.9819C326.552 13.7671 326.418 13.9411 326.299 14.4812C326.085 15.4553 325.709 15.5502 325.373 14.7149C325.242 14.3874 325.126 14.2707 325.117 14.4555C325.107 14.669 324.854 14.7467 324.425 14.6688C323.987 14.5893 323.697 14.6832 323.6 14.936C323.474 15.2631 323.392 15.25 323.085 14.8549C322.735 14.404 322.704 14.4044 322.348 14.8629C322.085 15.2011 321.92 15.2511 321.786 15.0332C321.645 14.8051 321.529 14.8183 321.343 15.0834C321.147 15.3625 321.062 15.3688 320.957 15.1116C320.783 14.683 319.892 14.683 319.719 15.1116C319.64 15.3092 319.578 15.2559 319.565 14.9793C319.54 14.4163 319.015 14.3533 319.015 14.9132C319.015 15.1314 318.926 15.3197 318.817 15.3315C317.411 15.4838 317.163 15.4324 317.163 14.988C317.163 14.7286 317.044 14.5162 316.898 14.5162C316.753 14.5162 316.634 14.738 316.634 15.009C316.634 15.3839 316.468 15.4836 315.939 15.4256C315.557 15.3836 315.119 15.2242 314.966 15.0714C314.772 14.8772 314.577 14.8861 314.318 15.1009C314.063 15.3125 313.892 15.3215 313.769 15.1298C313.516 14.7342 312.297 14.8425 312.121 15.2763C312.001 15.572 311.894 15.559 311.541 15.2064C311.145 14.8102 311.088 14.8095 310.871 15.1975C310.66 15.5742 310.589 15.5773 310.237 15.2252C309.987 14.9752 309.706 14.912 309.476 15.0542C309.266 15.1838 308.977 15.1681 308.795 15.0173C308.583 14.8411 308.417 14.8554 308.29 15.0607C308.152 15.2839 308.04 15.2695 307.874 15.0074C307.688 14.7146 307.645 14.7216 307.638 15.0453C307.631 15.3981 307.599 15.3981 307.349 15.0453C307.138 14.7466 307.035 14.7303 306.934 14.9792C306.747 15.4405 306.066 15.3928 305.879 14.9053C305.742 14.5503 305.684 14.5549 305.4 14.9424C305.1 15.353 305.065 15.3514 304.899 14.9204C304.76 14.5566 304.641 14.5229 304.351 14.7638C304.069 14.998 303.934 14.9944 303.781 14.7484C303.643 14.5245 303.517 14.6015 303.37 15.0001C303.092 15.7506 302.616 15.7379 302.592 14.9793C302.575 14.4112 302.563 14.4082 302.346 14.9132C302.212 15.2257 302.111 15.2889 302.1 15.0675C302.09 14.8614 302.003 14.771 301.908 14.8668C301.812 14.9626 301.574 14.9083 301.378 14.7462C301.111 14.524 301.022 14.5409 301.019 14.8146C301.016 15.0998 300.96 15.0926 300.759 14.7809C300.551 14.46 300.502 14.4979 300.498 14.9793C300.492 15.8721 300.035 15.6958 299.811 14.7147L299.616 13.8548L299.37 14.7775C299.154 15.5863 299.084 15.6457 298.802 15.2595C298.584 14.9614 298.356 14.8952 298.098 15.0548C297.835 15.2171 297.67 15.1598 297.569 14.871C297.436 14.4917 297.38 14.4935 296.983 14.8901C296.421 15.4521 296.289 15.4491 295.859 14.8646C295.521 14.4058 295.497 14.4054 295.322 14.8546C295.153 15.2926 295.117 15.2944 294.815 14.8815C294.522 14.4801 294.473 14.4983 294.302 15.0722C294.121 15.6796 294.104 15.6841 293.883 15.1774C293.689 14.7329 293.649 14.7213 293.634 15.1047C293.618 15.481 293.499 15.517 292.954 15.3098C292.59 15.1714 292.29 15.1446 292.288 15.2501C292.285 15.3557 292.169 15.2635 292.028 15.0452C291.865 14.7942 291.77 14.7668 291.767 14.9708C291.764 15.1481 291.584 15.2246 291.366 15.1409C291.146 15.0564 290.969 15.1339 290.969 15.3139C290.969 15.556 290.878 15.5638 290.614 15.3445C290.419 15.1824 290.186 15.123 290.096 15.2125C290.007 15.302 289.72 15.282 289.459 15.1682C289.198 15.0543 288.896 14.9801 288.786 15.0032C288.677 15.0263 288.588 14.9299 288.588 14.7889C288.588 14.3439 287.76 14.8294 287.524 15.4127C287.364 15.8084 287.294 15.8468 287.282 15.5446C287.27 15.2499 287.061 15.1404 286.604 15.1906C286.14 15.2414 285.936 15.1314 285.921 14.8235C285.904 14.4613 285.875 14.4537 285.753 14.7806C285.448 15.6047 285.099 15.8625 284.716 15.5453C284.517 15.3802 284.351 15.3489 284.346 15.4759C284.342 15.6028 284.158 15.4689 283.939 15.1788C283.675 14.8302 283.476 14.7501 283.352 14.9429C283.249 15.1035 282.956 15.2027 282.701 15.1635C282.446 15.1242 282.238 15.2244 282.238 15.3862C282.238 15.8273 281.783 15.2725 281.633 14.6484C281.539 14.2561 281.498 14.3115 281.475 14.8624C281.453 15.3884 281.348 15.5443 281.114 15.3956C280.932 15.2801 280.604 15.182 280.386 15.1776C280.168 15.1736 279.84 15.0749 279.658 14.9594C279.439 14.8201 279.325 14.9105 279.319 15.2281C279.311 15.6747 279.285 15.6723 278.922 15.1932C278.554 14.7063 278.534 14.705 278.534 15.1675C278.534 15.6323 278.512 15.6311 278.071 15.1428C277.816 14.8608 277.459 14.6492 277.277 14.6724C277.095 14.6956 276.827 14.7294 276.682 14.7476C276.536 14.7658 276.417 14.9296 276.417 15.1115C276.417 15.5066 275.153 15.6244 274.524 15.2879C274.225 15.128 274.035 15.1577 273.946 15.3781C273.872 15.5605 273.804 15.4863 273.792 15.2113C273.774 14.7836 273.712 14.7648 273.34 15.0742C273.087 15.2842 272.265 15.4344 271.356 15.4373C269.987 15.4413 269.8 15.3796 269.777 14.913L269.75 14.3838L269.578 14.913C269.483 15.204 269.227 15.4261 269.009 15.4065C268.791 15.3869 268.463 15.3571 268.281 15.3404C268.099 15.3236 267.942 15.042 267.933 14.7145L267.915 14.1193L267.628 14.7145C267.341 15.3094 266.628 15.5453 266.628 15.0453C266.628 14.6004 266.143 14.7515 266.052 15.2249C265.972 15.6407 265.938 15.6407 265.522 15.2249C264.985 14.6876 264.842 14.6768 264.38 15.1381C264.171 15.3475 263.604 15.4634 263.01 15.4182C262.453 15.3758 261.856 15.334 261.684 15.3254C261.512 15.3164 261.321 14.9824 261.261 14.5822C261.153 13.873 261.15 13.8754 261.111 14.6748C261.072 15.4865 261.057 15.4947 259.682 15.4686C258.918 15.4541 258.204 15.3231 258.095 15.1776C257.968 15.0082 257.817 15.0353 257.676 15.2531C257.294 15.8454 256.841 13.6961 256.791 11.0458L256.744 8.563L256.58 11.0765C256.4 13.8547 256.188 14.5603 255.569 14.4547C255.318 14.412 255.08 14.6463 254.968 15.0453C254.788 15.6861 254.776 15.6789 254.58 14.8143L254.378 13.9218L254.086 14.6341C253.683 15.6218 253.321 15.5268 252.956 14.3375L252.645 13.3255L252.599 14.5161C252.562 15.4612 252.514 15.5709 252.369 15.048C252.242 14.593 252.122 14.492 251.98 14.7216C251.867 14.9044 251.664 14.9854 251.528 14.9017C251.393 14.818 251.27 14.9649 251.255 15.2281C251.237 15.5562 251.169 15.4988 251.038 15.0453L250.846 14.3838L250.649 14.9791C250.443 15.604 250.098 15.7487 249.834 15.3214C249.748 15.1823 249.491 15.1401 249.262 15.2277C249.034 15.3153 248.742 15.2207 248.613 15.0177C248.423 14.7164 248.379 14.728 248.375 15.0808C248.372 15.4011 248.159 15.4963 247.55 15.4484C247.098 15.4129 246.637 15.2364 246.526 15.0563C246.377 14.8148 246.183 14.8796 245.789 15.3033L245.253 15.8777L244.856 15.3107C244.563 14.8922 244.417 14.8352 244.299 15.093C244.167 15.379 244.108 15.3769 243.974 15.0816C243.835 14.7771 243.773 14.7771 243.577 15.0816C243.383 15.3817 243.301 15.3756 243.084 15.0454C242.94 14.8271 242.813 14.7675 242.801 14.913C242.788 15.0586 242.676 14.9396 242.551 14.6485C242.341 14.1604 242.32 14.1707 242.284 14.7808C242.262 15.1446 242.184 15.2934 242.111 15.1115C241.922 14.6448 241.479 14.701 241.067 15.2438C240.737 15.678 240.715 15.6739 240.703 15.1777C240.693 14.7725 240.636 14.734 240.459 15.0131C240.332 15.2137 240.105 15.3015 239.954 15.2083C239.804 15.1151 239.64 15.2474 239.591 15.5021C239.509 15.9296 239.459 15.9247 238.954 15.4392C238.267 14.7801 237.788 14.6658 237.788 15.1611C237.788 15.6288 235.644 15.6745 235.345 15.2132C235.205 14.9982 235.149 15.0068 235.146 15.2438C235.14 15.7564 234.617 15.6337 234.582 15.1115C234.556 14.7076 234.537 14.704 234.436 15.0831C234.361 15.3652 234.139 15.4703 233.804 15.3826C233.52 15.3083 233.117 15.3887 232.909 15.5617C232.639 15.7855 232.383 15.7971 232.019 15.6022C231.738 15.4517 231.423 15.4135 231.319 15.5173C231.215 15.6211 230.961 15.4751 230.755 15.1928C230.386 14.6885 230.38 14.6891 230.38 15.2225C230.38 15.694 230.249 15.7502 229.388 15.6498C228.842 15.5863 227.681 15.5435 226.808 15.5548C225.935 15.5661 224.835 15.5788 224.363 15.5831C223.892 15.5871 223.16 15.4122 222.738 15.1939C222.013 14.8187 221.962 14.8279 221.823 15.3615C221.699 15.836 221.61 15.8722 221.268 15.5884C221.045 15.4027 220.681 15.3198 220.461 15.4043C220.241 15.4888 220.061 15.4463 220.061 15.3099C220.061 15.0072 219.21 15.294 218.941 15.6875C218.809 15.8801 218.745 15.8677 218.742 15.649C218.74 15.4717 218.559 15.3951 218.341 15.4789C218.077 15.5803 217.943 15.4671 217.94 15.1398C217.938 14.8663 217.85 14.7658 217.742 14.9131C217.137 15.7358 215.563 15.8999 215.563 15.1403C215.563 14.8281 215.394 14.8652 214.76 15.3166C214.216 15.7036 213.853 15.8064 213.635 15.6347C213.204 15.2939 211.876 15.068 211.727 15.3099C211.661 15.4164 211.32 15.4488 210.97 15.3818C210.62 15.3148 210.249 15.3964 210.146 15.5628C210.019 15.7681 209.797 15.678 209.454 15.2826C209.176 14.9621 208.948 14.8232 208.948 14.9741C208.948 15.1249 208.657 15.304 208.3 15.3722C207.8 15.4679 207.627 15.3692 207.543 14.94C207.458 14.5104 207.425 14.5494 207.397 15.1115C207.364 15.7791 206.832 16.2001 206.832 15.5587C206.832 15.3956 206.499 15.3305 206.038 15.4033C205.545 15.481 205.237 15.4123 205.226 15.2208C205.215 15.0516 205.105 15.1512 204.98 15.4423L204.752 15.9714L204.724 15.4423C204.699 14.9666 204.658 14.98 204.318 15.5745L203.94 16.236L203.9 15.5745C203.877 15.2107 203.774 13.3057 203.671 11.3412L203.483 7.76936L203.438 11.7161C203.413 13.8868 203.317 15.5876 203.225 15.4957C203.133 15.4038 202.833 15.4489 202.558 15.5961C202.283 15.7432 201.912 15.772 201.733 15.66C201.249 15.357 199.465 15.2934 199.292 15.5731C199.063 15.943 198.366 15.5761 198.361 15.0832C198.358 14.7275 198.314 14.7159 198.122 15.0196C197.754 15.6006 196.241 15.6622 195.824 15.1132C195.489 14.6714 195.471 14.6713 195.463 15.1112C195.459 15.3658 195.336 15.5742 195.19 15.5742C195.045 15.5742 194.912 15.3658 194.895 15.1112C194.867 14.6851 194.854 14.6862 194.74 15.1252C194.642 15.5039 194.539 15.5381 194.242 15.2912C193.952 15.0502 193.867 15.057 193.867 15.3212C193.867 15.5088 193.792 15.5871 193.7 15.4952C193.608 15.4033 193.319 15.4428 193.057 15.5829C192.555 15.8515 191.768 15.3233 191.734 14.6953C191.725 14.5238 191.607 14.659 191.471 14.9958C191.336 15.3326 191.1 15.5304 190.946 15.4354C190.793 15.3404 190.464 15.3471 190.217 15.4504C189.29 15.8365 185.987 15.5659 185.686 15.0791C185.507 14.7898 185.339 14.8083 184.772 15.1798C184.09 15.6267 184.077 15.6236 184.066 15.0093C184.055 14.4281 184.028 14.4401 183.69 15.1773C183.49 15.6138 183.317 15.8073 183.305 15.6072C183.29 15.3463 183.06 15.2883 182.49 15.4022C181.745 15.5512 181.694 15.5089 181.657 14.7077C181.618 13.878 181.614 13.8751 181.505 14.6027C181.43 15.0993 181.271 15.3047 181.032 15.213C180.834 15.137 180.619 15.2169 180.553 15.3906C180.487 15.5643 180.321 15.4195 180.184 15.0688L179.934 14.4312L179.492 15.0615C179.249 15.4082 179.051 15.5493 179.051 15.375C179.051 15.1486 178.867 15.128 178.407 15.3029C177.954 15.475 177.731 15.4535 177.656 15.2302C177.577 14.9946 177.453 14.9888 177.175 15.2074C176.731 15.5574 175.876 15.5854 175.876 15.2499C175.876 15.12 175.756 15.0874 175.611 15.1773C175.465 15.2672 175.346 15.2147 175.346 15.0606C175.346 14.9065 175.227 14.7804 175.082 14.7804C174.936 14.7804 174.817 14.9292 174.817 15.1112C174.817 15.2931 174.52 15.4419 174.156 15.4419C173.775 15.4419 173.494 15.2894 173.494 15.0828C173.494 14.8759 173.33 14.787 173.106 14.8729C172.892 14.9549 172.647 14.9081 172.561 14.7689C172.308 14.3591 171.979 14.4776 171.834 15.0307C171.699 15.5463 170.584 15.716 170.584 15.2209C170.584 15.0885 170.407 15.1273 170.19 15.307C169.871 15.5719 169.765 15.5517 169.63 15.2003C169.517 14.9051 169.365 14.8486 169.155 15.0231C168.985 15.164 168.315 15.2865 167.665 15.2953C165.938 15.3188 165.559 15.2544 165.54 14.9348C165.531 14.7771 165.416 14.916 165.284 15.2434C165.046 15.8365 164.498 16.0714 164.498 15.5807C164.498 15.4148 164.262 15.4124 163.837 15.5737C163.396 15.7415 163.176 15.7341 163.176 15.5515C163.176 15.401 163.056 15.3514 162.911 15.4414C162.765 15.5313 162.645 15.3895 162.642 15.1263C162.64 14.8343 162.562 14.761 162.444 14.9384C162.337 15.0983 162.071 15.2319 161.853 15.2354C161.201 15.2458 160.674 15.4248 160.468 15.7059C160.36 15.853 160.271 15.7504 160.269 15.4751C160.266 15.1217 160.17 15.0516 159.934 15.2304C159.753 15.3682 159.267 15.4488 158.856 15.4094C158.444 15.37 157.819 15.4474 157.467 15.5814C157.033 15.7463 156.826 15.7325 156.826 15.5388C156.826 15.3813 156.647 15.321 156.429 15.4048C156.21 15.4886 156.032 15.4347 156.032 15.2852C156.032 15.1356 155.913 15.0869 155.767 15.1768C155.622 15.2667 155.501 15.1848 155.499 14.994C155.495 14.7094 155.455 14.7096 155.274 14.995C155.072 15.3145 153.872 15.4256 152.394 15.2617C151.871 15.2038 151.793 15.0325 151.751 13.8633L151.703 12.5309L151.603 13.7999C151.52 14.8578 151.396 15.11 150.855 15.3158C150.498 15.4516 149.879 15.5111 149.481 15.4481C149.082 15.3851 148.518 15.2982 148.227 15.2551C147.936 15.212 147.608 15.0577 147.499 14.9122C147.375 14.7462 147.203 14.7955 147.04 15.0444C146.808 15.3972 146.779 15.3972 146.771 15.0444C146.764 14.6917 146.735 14.6917 146.507 15.0444C146.336 15.309 146.249 15.3311 146.246 15.1105C146.24 14.6153 145.531 14.712 145.33 15.2354C145.206 15.56 145.099 15.5999 144.959 15.374C144.814 15.1394 144.509 15.1272 143.785 15.3273C142.605 15.6529 141.985 15.5743 141.554 15.0444C141.268 14.6917 141.231 14.6917 141.219 15.0444C141.208 15.3972 141.178 15.3972 140.947 15.0444C140.715 14.6917 140.654 14.6917 140.401 15.0444C140.168 15.37 140.091 15.3765 139.972 15.0806C139.851 14.7761 139.793 14.7761 139.6 15.0806C139.41 15.3797 139.37 15.3762 139.367 15.0601C139.364 14.7768 139.273 14.8024 139.011 15.1597C138.729 15.5464 138.554 15.584 138.12 15.3518C137.823 15.193 137.505 15.1382 137.413 15.2301C137.322 15.322 137.238 15.2281 137.228 15.0223C137.217 14.8048 137.118 14.8696 136.991 15.1767C136.783 15.6815 136.761 15.6759 136.52 15.0542L136.267 14.4026L135.93 15.0325L135.593 15.6624L135.238 15.0227C134.919 14.4462 134.883 14.4353 134.874 14.9121C134.867 15.2999 134.67 15.4527 134.137 15.4841C133.737 15.5076 133.262 15.4049 133.082 15.2559C132.846 15.0606 132.7 15.1225 132.56 15.4777C132.397 15.8911 132.34 15.8425 132.201 15.1767L132.037 14.3829L131.757 15.0444L131.477 15.7059L131.204 15.0444C130.938 14.4016 130.929 14.3997 130.913 14.9783C130.893 15.6888 130.499 15.7548 130.124 15.1106C129.896 14.7197 129.853 14.7127 129.846 15.0655C129.837 15.5308 128.775 15.6157 128.453 15.1768C128.325 15.0026 128.257 15.0058 128.255 15.1858C128.253 15.3365 128.012 15.4598 127.721 15.4598C127.43 15.4598 127.192 15.3593 127.192 15.2363C127.192 15.1134 127.073 15.0864 126.928 15.1763C126.782 15.2662 126.654 15.1844 126.642 14.9935C126.626 14.7272 126.59 14.7235 126.488 14.9779C126.291 15.4666 125.872 15.3794 125.853 14.8457C125.839 14.4827 125.785 14.508 125.602 14.9625C125.336 15.6241 124.383 15.6889 124.142 15.0618C124.022 14.7481 123.944 14.7352 123.779 15.002C123.448 15.5369 121.456 15.4712 121.045 14.9119C120.933 14.7594 120.849 14.8279 120.846 15.0738C120.843 15.4062 120.632 15.4771 119.888 15.3952C119.364 15.3374 118.78 15.4183 118.591 15.575C118.343 15.7809 118.219 15.772 118.142 15.5426C118.084 15.368 117.656 15.236 117.19 15.2492C116.704 15.263 116.343 15.1402 116.34 14.9603C116.338 14.7742 116.23 14.8082 116.076 15.0441C115.844 15.3969 115.786 15.3969 115.555 15.0441C115.38 14.7787 115.293 14.7568 115.29 14.978C115.284 15.4927 114.759 15.3669 114.738 14.8457C114.723 14.4667 114.687 14.4547 114.54 14.7795C114.335 15.2312 113.664 15.307 113.368 14.9119C113.243 14.7459 113.072 14.7952 112.909 15.0441C112.677 15.3969 112.647 15.3969 112.64 15.0441C112.633 14.6914 112.604 14.6914 112.376 15.0441C112.162 15.3743 112.115 15.3521 112.096 14.9119C112.076 14.4286 112.057 14.4241 111.886 14.8599C111.711 15.3034 111.628 15.2899 110.713 14.6694C109.768 14.0278 109.73 14.0227 109.73 14.5386C109.73 14.8441 109.611 15.0019 109.454 14.9047C109.302 14.8108 108.986 14.8931 108.751 15.0875C108.26 15.495 108.154 15.4848 107.841 15.0006C107.652 14.7074 107.573 14.7094 107.378 15.012C107.249 15.2125 107.011 15.2948 106.849 15.1948C106.687 15.0948 106.555 15.1461 106.555 15.3088C106.555 15.4715 106.46 15.5459 106.344 15.4741C106.228 15.4023 105.972 15.443 105.775 15.5645C105.396 15.7987 104.628 15.228 104.363 14.515C104.267 14.2565 104.208 14.3298 104.194 14.725C104.173 15.3497 103.46 15.4663 103.053 14.9119C102.943 14.7619 102.857 14.8451 102.855 15.1038C102.851 15.481 102.736 15.5166 102.189 15.3088C101.707 15.1256 101.525 15.1453 101.519 15.3815C101.515 15.5598 101.336 15.4746 101.122 15.1921C100.738 14.6837 100.734 14.6837 100.716 15.1921C100.7 15.6526 100.668 15.6435 100.408 15.1046L100.119 14.5035L99.5003 15.0845C99.0587 15.4994 98.8806 15.5578 98.8777 15.2887C98.8743 14.976 98.83 14.9795 98.6172 15.3087C98.4038 15.639 98.3565 15.6168 98.3358 15.1764C98.3221 14.8854 98.252 14.7926 98.18 14.9702C98.0885 15.1961 97.8762 15.1319 97.4733 14.7565L96.8974 14.22L96.7651 14.78C96.6026 15.4681 96.302 15.4947 95.8234 14.8633C95.4726 14.4005 95.4587 14.4004 95.4506 14.8613C95.446 15.1245 95.3232 15.2663 95.1776 15.1764C95.0321 15.0865 94.9036 15.1684 94.8922 15.3592C94.8761 15.6256 94.8405 15.6292 94.7378 15.3748C94.5794 14.9821 93.8547 14.9279 93.8547 15.3087C93.8547 15.4542 93.7357 15.5733 93.5901 15.5733C93.4446 15.5733 93.303 14.8887 93.2755 14.0519L93.2255 12.5306L93.13 14.0519C93.0576 15.2058 92.9359 15.5733 92.6261 15.5733C92.4014 15.5733 92.1514 15.32 92.0705 15.0105C91.9238 14.4497 91.9216 14.45 91.4357 15.0766C91.0212 15.6113 90.9088 15.6461 90.6857 15.3087C90.5413 15.0904 90.4196 15.0309 90.4151 15.1764C90.4111 15.3219 90.2916 15.2624 90.1505 15.0441C89.9795 14.7795 89.8927 14.7574 89.89 14.978C89.885 15.3538 89.323 15.3105 89.0301 14.9119C88.915 14.7552 88.8265 14.8092 88.813 15.0442C88.7978 15.3116 88.7161 15.2684 88.563 14.9119C88.3393 14.3914 88.3353 14.3917 88.317 14.934C88.3024 15.3659 88.1267 15.4852 87.5047 15.4852C86.9994 15.4852 86.7109 15.3501 86.7109 15.1135C86.7109 14.8245 86.6113 14.8414 86.2627 15.19C85.8415 15.6112 85.8048 15.6104 85.6526 15.1765C85.5032 14.7506 85.4573 14.7481 85.0613 15.1441C84.6653 15.5401 84.5979 15.5393 84.1923 15.1336C83.8205 14.7619 83.7159 14.7516 83.516 15.0675C83.3159 15.3835 83.2782 15.3799 83.2713 15.0443C83.2643 14.6915 83.2347 14.6915 83.0068 15.0443C82.7994 15.3652 82.7495 15.3273 82.7462 14.8459C82.7442 14.5185 82.6231 14.2506 82.4776 14.2506C82.3321 14.2506 82.2055 14.5185 82.1962 14.8459L82.1794 15.4412L81.9478 14.8665C81.6917 14.2313 80.7733 14.2774 80.5198 14.9381C80.3002 15.5103 79.8449 15.378 79.5731 14.663C79.2325 13.7673 78.2513 13.8452 78.2256 14.77C78.2086 15.3822 78.187 15.3947 77.9797 14.9121C77.8124 14.5229 77.7474 14.4937 77.7337 14.8018C77.711 15.3128 76.9213 15.3681 76.9213 14.8587C76.9213 14.5786 76.8015 14.5607 76.3922 14.7797C76.1011 14.9355 75.863 14.9652 75.863 14.8457C75.863 14.4401 74.8048 14.6259 74.7861 15.0349C74.7725 15.3312 74.7148 15.3071 74.5728 14.9457C74.4056 14.5203 74.3242 14.5025 73.9961 14.8198C73.5013 15.2982 72.6613 15.2914 72.1588 14.8049C71.8111 14.4683 71.7513 14.4761 71.6758 14.8681C71.6284 15.1141 71.4615 15.2362 71.3049 15.1395C71.1483 15.0427 70.8597 15.1831 70.6635 15.4514C70.4618 15.7271 70.3067 15.7954 70.3067 15.6085C70.3067 15.4265 70.1868 15.3518 70.0403 15.4424C69.8937 15.533 69.6986 15.4109 69.6066 15.1713C69.4727 14.8223 69.394 14.8057 69.2116 15.0883C69.0217 15.3825 68.9459 15.3825 68.7561 15.0883C68.5765 14.8101 68.4895 14.8365 68.3449 15.2132C68.1891 15.6194 68.1247 15.6326 67.9153 15.3015C67.7672 15.0673 67.6674 15.0369 67.665 15.2252C67.661 15.5129 66.7731 15.4922 65.8921 15.1838C65.7196 15.1234 65.5248 15.2162 65.4592 15.3899C65.3936 15.5636 65.2149 15.4081 65.062 15.0443C64.8122 14.4499 64.7823 14.4388 64.7673 14.9341C64.7493 15.5265 64.065 15.6911 63.4937 15.2404C63.2665 15.0612 63.163 15.0826 63.163 15.3089C63.163 15.5575 63.0742 15.5647 62.8012 15.338C62.5262 15.1098 62.3604 15.133 62.1098 15.4351C61.9285 15.6535 61.6469 15.7499 61.484 15.6492C61.0261 15.3662 60.1688 15.3508 59.6573 15.6163C59.4026 15.7485 59.1942 15.762 59.1942 15.6462C59.1942 15.5304 58.5223 15.4163 57.7011 15.3926C56.7899 15.3663 56.1211 15.2128 55.9853 14.9985C55.8072 14.7176 55.7582 14.7267 55.7401 15.0443C55.7248 15.3117 55.6433 15.2685 55.4901 14.9121C55.2731 14.4071 55.2618 14.4102 55.2441 14.9782C55.2258 15.565 54.6963 15.8533 54.6963 15.2765C54.6963 15.0602 54.5969 15.062 54.3303 15.2835C54.0473 15.5183 53.9278 15.492 53.8032 15.1672C53.6595 14.7927 53.5811 14.7897 53.0805 15.1405C52.4574 15.5769 51.7859 15.4481 51.7859 14.8922C51.7859 14.6807 51.6221 14.5948 51.389 14.6843C51.1707 14.7681 50.9922 15.0209 50.9922 15.2462C50.9922 15.5999 50.9236 15.5937 50.4893 15.2006C50.1601 14.9026 49.9262 14.8428 49.8122 15.0272C49.5317 15.4811 49.1909 15.3537 48.974 14.7138C48.7834 14.1512 48.7641 14.162 48.6233 14.9099L48.4742 15.7013L48.0194 14.7776C47.5696 13.8641 47.5646 13.8619 47.5586 14.5815C47.5526 15.2876 47.3042 15.5017 46.9276 15.125C46.6337 14.8311 45.9651 14.8023 45.9651 15.0836C45.9651 15.2248 45.855 15.2723 45.7205 15.1892C45.586 15.1061 45.4212 15.2479 45.3543 15.5043C45.2645 15.8485 45.2247 15.8098 45.202 15.3563C45.1744 14.8044 45.1302 14.7832 44.7655 15.148C44.4626 15.4509 44.1942 15.4909 43.7072 15.3057C43.3483 15.1692 43.0528 15.1439 43.0506 15.2495C43.0486 15.355 42.9311 15.2628 42.7901 15.0445C42.5681 14.701 42.5331 14.7067 42.5295 15.0872C42.5275 15.3525 42.3438 15.5002 42.0675 15.4596C41.8155 15.4226 41.2294 15.4781 40.765 15.5828C40.2572 15.6974 39.8069 15.6596 39.6355 15.4882C39.4319 15.2846 39.3505 15.2938 39.3505 15.5207C39.3505 16.1827 38.8786 15.8019 38.6784 14.9783L38.4694 14.1184L38.3632 14.846C38.2467 15.6441 37.7678 15.8524 37.7549 15.1106C37.7469 14.6785 37.7283 14.6795 37.469 15.1253C37.2588 15.4866 37.1054 15.5319 36.8391 15.3109C36.6226 15.1312 36.4271 15.116 36.3311 15.2714C36.147 15.5692 35.0634 15.3425 34.8066 14.9525C34.6897 14.7749 34.4848 14.8007 34.2113 15.0277C33.8661 15.3142 33.7928 15.3113 33.7862 15.0108C33.7812 14.7645 33.6913 14.7967 33.5085 15.1107C33.197 15.6454 32.4556 15.7167 31.9951 15.2562C31.7481 15.0092 31.6776 15.0092 31.6776 15.2562C31.6776 15.4308 31.5585 15.5737 31.413 15.5737C31.2675 15.5737 31.1484 15.3766 31.1484 15.1358C31.1484 14.742 31.0951 14.7461 30.6192 15.1768C30.1434 15.6074 30.0901 15.6116 30.0901 15.2178C30.0901 14.9769 29.971 14.7799 29.8255 14.7799C29.68 14.7799 29.5609 14.9386 29.5609 15.1325C29.5609 15.4123 28.8736 15.5209 28.3041 15.3311C28.2677 15.319 28.1533 15.3179 28.0499 15.3291C27.9464 15.3399 27.7762 15.1315 27.6716 14.8661C27.497 14.423 27.4799 14.4214 27.4628 14.8465C27.4526 15.1012 27.2657 15.3095 27.0474 15.3095C26.8291 15.3095 26.6411 15.4583 26.6296 15.6402C26.6145 15.8788 26.5734 15.8845 26.482 15.6605C26.4123 15.4898 26.0646 15.4028 25.7092 15.4672C25.3538 15.5316 25.063 15.4883 25.063 15.3709C25.063 14.9715 23.977 15.0737 23.8179 15.4882C23.6897 15.8223 23.5936 15.7817 23.3124 15.2744C23.1214 14.9299 22.9609 14.7968 22.9557 14.9787C22.9507 15.1606 22.7082 15.3095 22.4172 15.3095C22.1261 15.3095 21.8838 15.1606 21.8786 14.9787C21.8736 14.7968 21.7094 14.9365 21.5141 15.2891L21.1589 15.9301L20.9753 15.3514C20.8742 15.0331 20.6912 14.8346 20.5686 14.9104C20.446 14.9862 20.3004 14.9124 20.2451 14.7465C20.1781 14.5455 20.0046 14.5849 19.7249 14.8646C19.494 15.0954 19.2315 15.2106 19.1414 15.1205C19.0513 15.0304 18.9776 15.1185 18.9776 15.3159C18.9776 15.5491 18.84 15.4949 18.5857 15.1616C18.2466 14.7171 18.1582 14.7013 17.9283 15.0449C17.6923 15.3976 17.6602 15.3976 17.6401 15.0449C17.6245 14.7706 17.5564 14.8036 17.4199 15.1517C17.2459 15.5952 17.1784 15.6083 16.8545 15.2616C16.5291 14.9132 16.4009 14.9162 15.7427 15.2871C15.084 15.6583 14.9695 15.6609 14.7433 15.3095C14.5637 15.0307 14.4866 15.0137 14.4837 15.2527C14.4807 15.5026 14.3486 15.5226 13.9853 15.3282C13.7134 15.1827 13.4157 15.1388 13.3238 15.2307C13.2319 15.3226 13.1492 15.2287 13.14 15.023C13.131 14.8168 13.0056 14.943 12.8618 15.3032C12.718 15.6635 12.5172 15.8421 12.4156 15.7001C12.1219 15.2899 11.5053 15.2503 11.2668 15.6263C11.1171 15.8622 11.0441 15.7623 11.0353 15.3095L11.0225 14.6481L10.4838 15.2954C10.0654 15.7981 9.89606 15.8635 9.72591 15.5882C9.59984 15.3842 9.27057 15.2954 8.95054 15.3791C8.53351 15.4882 8.39429 15.4023 8.39429 15.0358C8.39429 14.1988 7.91718 14.2056 7.73276 15.0448L7.55734 15.8435L7.05857 15.2456C6.78425 14.9167 6.55585 14.7773 6.55101 14.9359C6.54051 15.2806 5.21929 15.9309 5.21929 15.5914C5.21929 15.4618 5.01093 15.387 4.75627 15.4249C4.47323 15.4671 4.17304 15.2266 3.98401 14.8062C3.76958 14.3293 3.66818 14.2578 3.65328 14.5731C3.63948 14.8648 3.48946 14.9732 3.23492 14.8756C3.00166 14.7861 2.83804 14.8726 2.83804 15.0842C2.83804 15.3495 2.52336 15.4202 1.6509 15.3508L0.463768 15.2564L0.390473 6.35304C0.350173 1.45621 0.316467 6.0222 0.315567 16.4997C0.314567 28.9273 0.36177 32.3765 0.4515 26.4216C0.5287 21.2942 0.683792 17.5254 0.805252 17.8226L0.805107 17.8234Z" fill="black"/>
</svg>
