<svg width="465" height="27" viewBox="0 0 465 27" fill="none" xmlns="http://www.w3.org/2000/svg">
<path d="M0.909959 14.1591C1.08686 14.2685 2.00959 14.3227 2.96048 14.2794C4.46147 14.2111 4.69048 14.2621 4.69779 14.6663C4.70579 15.1081 4.72439 15.1078 5.06337 14.6613C5.40248 14.2143 5.42953 14.2139 5.59836 14.6543C5.75004 15.0496 5.81164 15.0605 6.01747 14.7282C6.3693 14.1604 7.67386 14.228 8.02514 14.8323C8.29754 15.3009 8.33107 15.2852 8.50066 14.6094C8.67344 13.921 8.70904 13.9059 9.17235 14.3252C9.5511 14.668 9.68793 14.6896 9.77828 14.421C9.87408 14.1364 9.96967 14.1358 10.3113 14.418C10.5403 14.607 10.7902 14.6605 10.8665 14.5369C10.9429 14.4133 11.5105 14.2824 12.1278 14.246C12.7452 14.2096 13.3346 14.1276 13.4378 14.0639C13.5409 14.0002 13.7813 14.1361 13.972 14.3659C14.2862 14.7444 14.3512 14.7394 14.6635 14.3124C14.853 14.0531 15.0081 13.9754 15.0081 14.1397C15.0081 14.304 15.2463 14.4205 15.5373 14.3986C15.8283 14.3767 16.0665 14.265 16.0665 14.1504C16.0665 13.7189 16.5253 13.9651 16.7878 14.5375L17.0609 15.1328L17.4008 14.4032C17.7264 13.7043 17.7675 13.6911 18.3765 14.0901C18.8216 14.3817 19.1103 14.4254 19.3391 14.2355C19.7352 13.9068 20.8274 14.1501 20.833 14.5683C20.835 14.7512 20.9244 14.7304 21.0609 14.515C21.3069 14.127 24.7984 13.9154 24.798 14.2885C24.7978 14.4063 24.9168 14.429 25.0623 14.339C25.2078 14.249 25.3363 14.4503 25.3478 14.7864C25.3673 15.3554 25.387 15.3473 25.6349 14.6681C25.7814 14.267 26.0008 14.0003 26.1224 14.0755C26.591 14.3651 28.1136 14.4042 28.2833 14.1309C28.4076 13.9308 28.5878 13.9486 28.8786 14.1899C29.1778 14.4383 29.3916 14.4564 29.6353 14.2541C29.8549 14.0719 30.5071 14.0444 31.4804 14.1765C32.492 14.3138 33.0207 14.2872 33.092 14.0953C33.165 13.899 33.3039 13.9093 33.5364 14.1281C33.7731 14.3509 34.0229 14.3671 34.3687 14.182C35.0563 13.814 35.3775 14.0938 35.4019 15.0822C35.4237 15.9644 35.4915 15.8854 35.7613 14.6638C35.9069 14.0044 35.9813 13.9615 36.4994 14.2387C36.8163 14.4083 37.1111 14.4407 37.1545 14.3107C37.2476 14.0322 40.433 14.0273 40.8823 14.3048C41.0521 14.4097 41.4267 14.3692 41.7149 14.215C42.3042 13.8996 42.8252 13.9455 43.1201 14.3387C43.2459 14.5064 43.4046 14.4697 43.5535 14.2386C43.6966 14.0166 43.9255 13.9587 44.1388 14.0905C44.3315 14.2096 44.8806 14.2806 45.359 14.2484C45.9893 14.2059 46.229 14.3014 46.229 14.595C46.229 14.8178 46.348 15.0001 46.4935 15.0001C46.6391 15.0001 46.7581 14.8354 46.7581 14.6341C46.7581 14.4328 46.9962 14.2058 47.2873 14.1297C47.6583 14.0327 47.8177 14.1227 47.8205 14.4296C47.8225 14.698 47.8999 14.7579 48.019 14.584C48.3414 14.1131 49.0541 13.9636 49.4048 14.2932C49.6499 14.5236 49.7634 14.5256 49.8464 14.3012C49.9284 14.0794 50.2028 14.0742 50.8782 14.2815C51.5468 14.4867 51.8799 14.4822 52.0968 14.2653C52.2923 14.0699 52.5542 14.0517 52.855 14.2127C53.1078 14.348 54.1313 14.4349 55.1296 14.4059C56.1278 14.3769 57.0934 14.4462 57.2753 14.5601C57.4602 14.6757 57.606 14.6461 57.606 14.4929C57.606 14.3395 58.0715 14.2452 58.663 14.2788C59.2443 14.3118 59.7206 14.4324 59.7213 14.5466C59.7221 14.6609 59.9759 14.6188 60.2853 14.4532C60.6937 14.2346 61.0201 14.2306 61.476 14.4382C61.8214 14.5956 62.104 14.6242 62.104 14.5018C62.104 14.3795 62.4016 14.312 62.7654 14.3519C63.1292 14.3918 63.4269 14.3117 63.4269 14.1739C63.4269 14.0211 63.6076 14.0161 63.8899 14.1609C64.1446 14.2916 64.6208 14.3752 64.9482 14.3468C65.4185 14.3059 65.5501 14.4385 65.5748 14.9783C65.6049 15.6352 65.614 15.6309 65.8081 14.868C65.9192 14.4314 66.026 14.2528 66.0455 14.4711C66.0665 14.7073 66.1595 14.7609 66.2752 14.6034C66.3821 14.4579 67.1244 14.3259 67.9248 14.3102C69.2351 14.2844 69.4092 14.3474 69.6728 14.9422L69.9657 15.6029L70.1409 14.9047C70.332 14.1431 70.5915 14.0574 71.3987 14.4895C71.7568 14.6811 72.0315 14.686 72.2502 14.5045C72.5911 14.2216 73.3429 14.2448 73.6457 14.5475C73.7446 14.6465 73.9824 14.5209 74.1741 14.2685C74.407 13.9617 74.5253 13.9244 74.531 14.1559C74.5356 14.3464 74.6584 14.4287 74.804 14.3387C74.9495 14.2488 75.0685 14.3083 75.0685 14.471C75.0685 14.6454 75.2043 14.679 75.3993 14.5528C75.8828 14.2399 77.8152 14.2664 78.0347 14.589C78.1526 14.7624 78.3713 14.6687 78.6216 14.3375C78.8629 14.0182 79.0238 13.9465 79.0289 14.156C79.0335 14.3465 79.1574 14.4281 79.3041 14.3374C79.4509 14.2467 79.6712 14.4437 79.7938 14.775L80.0167 15.3775L80.3285 14.7949C80.6275 14.2363 81.2087 14.1404 81.8538 14.5434C82.0238 14.6496 82.2303 14.5414 82.3241 14.2967C82.4748 13.9041 82.5318 13.9108 82.8977 14.3644C83.1871 14.7233 83.3434 14.773 83.4416 14.5373C83.6123 14.1272 84.329 14.0984 84.329 14.5016C84.329 14.6828 84.5806 14.6317 84.9811 14.3693C85.5954 13.9668 85.6499 13.9731 85.9204 14.4786C86.2636 15.1198 86.6981 14.9325 86.7409 14.1248C86.7649 13.6723 86.7983 13.6474 86.8932 14.0114C86.9601 14.2678 87.1301 14.4064 87.271 14.3193C87.4119 14.2322 87.6866 14.2933 87.8815 14.4551C88.1497 14.6777 88.2751 14.647 88.3972 14.3289C88.486 14.0976 88.6895 13.9894 88.8497 14.0884C89.0098 14.1874 89.6031 14.2619 90.1682 14.2541C90.7332 14.2461 91.5556 14.3432 91.9956 14.4694C92.477 14.6074 92.7956 14.6008 92.7956 14.4527C92.7956 14.3173 93.0338 14.2066 93.3248 14.2066C93.6188 14.2066 93.854 14.383 93.854 14.6034C93.854 14.8217 93.973 15.0003 94.1185 15.0003C94.2641 15.0003 94.3831 14.8147 94.3831 14.5878C94.3831 14.3609 94.494 14.2438 94.6294 14.3276C94.7649 14.4113 94.9517 14.3568 95.0446 14.2066C95.3008 13.792 95.7055 14.1637 95.7099 14.8175C95.7136 15.3734 95.7281 15.3701 96.0623 14.7357C96.254 14.3719 96.554 14.1054 96.729 14.1434C96.9041 14.1815 97.2783 14.2479 97.5605 14.291C97.8427 14.3341 98.1561 14.4517 98.2569 14.5525C98.5821 14.8777 98.8806 14.7477 98.8996 14.2727C98.9155 13.8767 98.9512 13.8863 99.1456 14.3388C99.2707 14.6298 99.3814 14.7111 99.3916 14.5194C99.4035 14.2957 99.5962 14.2298 99.9294 14.3356C100.215 14.4262 100.688 14.372 100.982 14.2151C101.405 13.9884 101.617 14.0317 102.011 14.4258C102.496 14.9108 102.514 14.9108 102.817 14.4258C103.064 14.0295 103.232 13.986 103.65 14.2097C103.937 14.3637 104.173 14.6641 104.173 14.8772C104.173 15.5263 104.681 15.3094 104.863 14.5824L105.034 13.9001L105.528 14.6486C105.799 15.0603 106.022 15.2284 106.023 15.0223C106.024 14.8161 106.102 14.7246 106.196 14.819C106.291 14.9134 106.575 14.7513 106.829 14.4588C107.236 13.9894 107.376 13.9663 108.026 14.2621C108.587 14.5178 108.786 14.5226 108.866 14.2827C108.939 14.0625 109.163 14.0417 109.614 14.2131C109.968 14.3477 110.26 14.3715 110.262 14.266C110.264 14.1605 110.386 14.2527 110.532 14.471C110.763 14.8168 110.844 14.8063 111.164 14.389C111.365 14.1256 111.599 14.0207 111.682 14.1558C111.766 14.291 112.343 14.372 112.964 14.3359C113.586 14.2998 114.182 14.4047 114.289 14.5691C114.426 14.7798 114.485 14.7676 114.487 14.5279C114.491 14.2699 114.619 14.2562 115.021 14.471C115.312 14.6268 115.55 14.6605 115.55 14.546C115.55 14.4314 115.907 14.3329 116.344 14.3271C116.78 14.3211 117.137 14.3945 117.137 14.4897C117.137 14.585 117.435 14.6302 117.799 14.5903C118.267 14.5389 118.461 14.6462 118.464 14.9574C118.468 15.338 118.503 15.3437 118.725 15.0002C118.942 14.6637 118.982 14.6762 118.985 15.082C118.987 15.3453 119.108 15.487 119.254 15.3971C119.399 15.3072 119.52 14.9727 119.523 14.6539C119.525 14.335 119.614 14.1933 119.721 14.3388C119.986 14.6989 120.841 14.8214 120.841 14.4991C120.841 14.0115 121.866 14.3151 122.049 14.8569C122.226 15.3806 122.235 15.3789 122.349 14.8018C122.413 14.4743 122.58 14.2065 122.72 14.2065C122.861 14.2065 123.083 14.4743 123.214 14.8018C123.453 15.3961 123.454 15.396 123.491 14.7357C123.512 14.3719 123.591 14.2289 123.667 14.418C123.777 14.6918 123.931 14.6793 124.423 14.3565C124.999 13.9797 125.054 13.9893 125.214 14.494C125.38 15.015 125.402 15.0175 125.776 14.5555C126.043 14.2261 126.208 14.1739 126.299 14.3901C126.372 14.5638 126.603 14.6404 126.812 14.5602C127.068 14.462 127.191 14.5963 127.191 14.9719C127.191 15.7273 127.89 15.6818 128.082 14.9138C128.234 14.3095 128.293 14.2992 131.316 14.352C133.593 14.3917 134.456 14.5004 134.626 14.7691C134.818 15.0718 134.857 15.0725 134.86 14.7731C134.862 14.5756 135.028 14.477 135.229 14.554C135.43 14.631 135.742 14.5544 135.924 14.3839C136.176 14.1463 136.282 14.1515 136.375 14.4061C136.442 14.5889 136.606 14.6712 136.739 14.589C136.872 14.5067 136.981 14.5883 136.981 14.7702C136.981 14.9521 137.156 14.8698 137.369 14.5874C137.736 14.1031 137.76 14.1266 137.793 14.9998C137.825 15.8536 137.844 15.8742 138.039 15.2644C138.156 14.9006 138.263 14.7518 138.278 14.9337C138.321 15.476 138.757 15.309 138.968 14.6691L139.165 14.0738L139.282 14.6691C139.415 15.3452 139.891 15.4831 139.891 14.8455C139.891 14.2106 140.517 14.5528 140.693 15.284L140.847 15.9259L141.046 15.2644C141.235 14.6367 141.257 14.63 141.476 15.1321C141.696 15.6386 141.707 15.6358 141.725 15.0689C141.74 14.603 141.885 14.4882 142.405 14.5313C142.843 14.5675 143.066 14.7456 143.066 15.0575C143.066 15.7339 143.764 15.6399 143.985 14.9336L144.172 14.3383L144.387 14.9998L144.601 15.6613L144.646 14.9998C144.688 14.3889 144.709 14.3788 144.919 14.8675C145.108 15.3089 145.149 15.3213 145.165 14.942C145.188 14.3577 145.965 14.6198 146.008 15.2266C146.034 15.5996 146.055 15.5956 146.159 15.1983C146.233 14.9178 146.533 14.7353 146.922 14.7353C147.435 14.7353 147.564 14.872 147.564 15.4124C147.564 16.3119 148.086 15.9722 148.12 15.0504L148.146 14.3384L148.358 14.9999C148.475 15.3637 148.594 15.4827 148.623 15.2644C148.652 15.0462 148.771 15.1653 148.887 15.529C149.082 16.1373 149.101 16.1444 149.125 15.6168C149.19 14.2158 149.946 13.798 149.946 15.1634C149.946 15.9712 150.466 15.7391 150.496 14.9181C150.51 14.5255 150.566 14.465 150.67 14.7306C150.755 14.9462 150.984 15.2822 151.179 15.4771C151.475 15.7731 151.533 15.7466 151.533 15.3157C151.533 15.0321 151.712 14.6519 151.93 14.4707C152.233 14.2195 152.327 14.2168 152.327 14.4593C152.327 14.8301 153.944 14.5648 154.208 14.1506C154.297 14.0112 154.445 14.0933 154.537 14.333C154.629 14.5727 154.811 14.7031 154.941 14.6227C155.071 14.5423 155.258 14.7432 155.357 15.0689C155.537 15.6599 155.57 15.6279 155.915 14.5276C155.999 14.2602 156.192 14.2757 156.82 14.6005C157.259 14.8276 157.619 14.9018 157.619 14.7654C157.619 14.629 157.827 14.5496 158.082 14.5888C158.336 14.6281 158.623 14.5389 158.719 14.3908C158.814 14.2425 158.97 14.825 159.064 15.685C159.344 18.2419 159.397 18.3875 159.435 16.704C159.456 15.7558 159.629 14.8911 159.859 14.5874C160.114 14.25 160.25 14.1969 160.256 14.4328C160.261 14.6384 160.43 14.7281 160.653 14.6428C160.866 14.5608 161.113 14.6096 161.2 14.7511C161.288 14.8926 161.473 14.9379 161.613 14.8516C161.752 14.7654 162.097 14.9718 162.38 15.3103L162.893 15.9259L162.901 15.3305C162.906 15.0031 163.029 14.7352 163.175 14.7352C163.32 14.7352 163.439 14.9696 163.439 15.2561C163.439 15.6104 163.566 15.7282 163.836 15.6246C164.117 15.5169 164.239 15.6547 164.255 16.096C164.275 16.6769 164.301 16.6653 164.64 15.9259L165.003 15.1321L165.046 15.9259C165.07 16.3864 165.139 16.5252 165.209 16.2566C165.276 16.0019 165.441 15.7936 165.575 15.7936C165.71 15.7936 165.821 15.5484 165.821 15.2488C165.821 14.9164 165.935 14.7749 166.115 14.8858C166.277 14.9858 166.515 14.9035 166.644 14.703C166.841 14.3971 166.921 14.4023 167.139 14.7351C167.283 14.9534 167.414 15.4297 167.431 15.7935C167.459 16.3936 167.488 16.3752 167.738 15.5951C167.946 14.9464 168.167 14.7351 168.637 14.7351C169.1 14.7351 169.266 14.8884 169.284 15.3305C169.303 15.8005 169.359 15.7501 169.55 15.091C169.74 14.4332 169.904 14.2854 170.32 14.3942C170.696 14.4925 170.857 14.7709 170.879 15.3613L170.91 16.1904L171.112 15.3966C171.223 14.9601 171.33 14.7815 171.35 14.9997C171.378 15.3198 171.428 15.3282 171.609 15.0433C171.918 14.555 172.246 14.6062 172.476 15.1786C172.653 15.621 172.683 15.6131 172.843 15.0842C173.029 14.466 173.758 14.52 173.758 15.152C173.758 15.3635 173.922 15.4494 174.155 15.3599C174.373 15.2761 174.552 15.0418 174.552 14.8391C174.552 14.2412 175.382 14.4184 175.547 15.0516C175.692 15.6063 175.708 15.6094 175.901 15.1177C176.09 14.6332 176.103 14.6367 176.121 15.176C176.146 15.9623 176.696 16.0795 177.25 15.4168L177.709 14.8674L177.718 15.4783C177.729 16.2424 178.245 15.9741 178.287 15.1825C178.312 14.7139 178.341 14.6942 178.441 15.0798C178.539 15.4586 178.642 15.4928 178.94 15.2459C179.238 14.9984 179.314 15.0264 179.314 15.383C179.314 15.7575 179.373 15.7729 179.669 15.4768C179.864 15.2819 180.092 14.946 180.177 14.7303C180.29 14.4423 180.336 14.4746 180.352 14.8518C180.372 15.3602 180.377 15.3602 180.761 14.8518C181.127 14.3676 181.151 14.3914 181.179 15.2642C181.195 15.7736 181.277 16.0138 181.362 15.7981C181.637 15.097 182.164 14.6938 182.315 15.0682C182.388 15.2488 182.459 15.0989 182.473 14.7351C182.492 14.2079 182.55 14.1542 182.754 14.4705C182.895 14.6887 183.028 15.165 183.049 15.5288C183.08 16.0582 183.127 16.0054 183.283 15.2642C183.39 14.7549 183.494 14.5465 183.513 14.8012C183.532 15.0558 183.667 15.2642 183.812 15.2642C183.958 15.2642 184.079 15.5321 184.081 15.8595C184.083 16.187 184.2 16.6334 184.341 16.8517C184.529 17.1419 184.599 16.9421 184.602 16.1085C184.605 15.3402 184.702 15.0277 184.9 15.1502C185.062 15.2502 185.298 15.1679 185.425 14.9674C185.576 14.7288 185.667 15.0602 185.688 15.9257C185.719 17.1608 185.74 17.2003 186.008 16.521C186.166 16.1208 186.392 15.7934 186.509 15.7934C186.627 15.7934 186.735 15.5255 186.749 15.1981C186.774 14.6269 186.784 14.6296 186.987 15.2642C187.185 15.8811 187.203 15.8632 187.26 14.9996L187.322 14.0736L187.516 14.9996L187.711 15.9256L187.765 15.1319C187.811 14.4393 187.847 14.4056 188.046 14.8673C188.24 15.3198 188.276 15.3294 188.292 14.9334C188.313 14.4122 188.837 14.2864 188.843 14.8011C188.846 15.0125 188.918 15.0337 189.042 14.86C189.328 14.4596 190.688 14.5668 190.969 15.0121C191.151 15.2991 191.214 15.3087 191.217 15.0501C191.219 14.8596 191.34 14.7773 191.485 14.8672C191.631 14.9571 191.762 14.8752 191.778 14.6844C191.793 14.4939 191.962 14.8143 192.154 15.3964C192.405 16.1578 192.509 16.2833 192.523 15.8438C192.534 15.5076 192.662 15.3064 192.808 15.3964C192.954 15.4863 193.082 15.4044 193.094 15.2136C193.11 14.9425 193.146 14.9456 193.258 15.2279C193.379 15.5324 193.437 15.5324 193.63 15.2279C193.817 14.9322 193.861 14.9387 193.872 15.2641C193.88 15.5043 194.034 15.3998 194.263 14.9995C194.631 14.3563 194.643 14.3745 194.687 15.661C194.712 16.3886 194.784 16.716 194.847 16.3886C194.91 16.0611 195.136 15.7933 195.349 15.7933C195.561 15.7933 195.843 15.5253 195.975 15.1979C196.181 14.686 196.219 14.7509 196.252 15.661C196.291 16.7595 196.347 16.723 196.64 15.4102C196.774 14.8079 196.868 14.7175 197.056 15.0133C197.189 15.224 197.315 15.694 197.337 16.0578C197.368 16.5872 197.415 16.5344 197.571 15.7933L197.766 14.8672L197.8 15.7115C197.841 16.7013 198.344 17.1658 198.407 16.2719C198.431 15.9359 198.531 16.3158 198.629 17.1162L198.807 18.5714L198.85 17.3335C198.876 16.595 199.066 15.9228 199.322 15.6672C199.879 15.1097 200.026 15.2907 200.236 16.7965L200.41 18.0422L200.446 16.6207C200.476 15.3892 200.534 15.2433 200.878 15.5286C201.096 15.7098 201.291 16.1709 201.311 16.5532L201.347 17.2485L201.454 16.587C201.632 15.491 202.129 14.6718 202.381 15.0606C202.538 15.3042 202.641 15.2404 202.754 14.828C203.002 13.9242 204.165 14.3371 204.213 15.3458C204.23 15.7184 204.334 15.5704 204.504 14.9316L204.768 13.9377L205.289 14.6009C205.856 15.321 206.302 15.4635 206.302 14.9244C206.302 14.7194 206.625 14.5882 207.117 14.5936C207.707 14.5996 208.033 14.7854 208.298 15.2641L208.664 15.9255L208.704 15.1318C208.731 14.6022 208.787 14.5049 208.873 14.8395C208.975 15.2396 209.047 15.2666 209.229 14.973C209.414 14.6738 209.53 14.7037 209.855 15.1331C210.248 15.6529 210.254 15.6516 210.262 15.0501C210.267 14.7117 210.389 14.5121 210.535 14.6027C210.681 14.6926 210.8 14.6654 210.8 14.5422C210.8 14.4191 211.038 14.3004 211.329 14.2785C211.69 14.2513 211.858 14.4018 211.858 14.7514C211.858 15.2531 211.869 15.2528 212.387 14.7349C213.022 14.1004 213.407 14.0626 213.619 14.614C213.758 14.9753 213.833 14.9706 214.272 14.573C214.617 14.261 214.769 14.227 214.769 14.4617C214.769 14.7236 214.853 14.7295 215.144 14.488C215.441 14.2418 215.578 14.2767 215.797 14.654C215.983 14.9725 216.078 15.0099 216.083 14.7664C216.089 14.4986 216.334 14.4405 217.002 14.5487C217.581 14.6427 217.953 14.583 218.026 14.3849C218.111 14.1494 218.277 14.1546 218.703 14.4063C219.156 14.6739 219.267 14.6739 219.27 14.4063C219.273 14.1448 219.319 14.1433 219.482 14.3993C219.595 14.5785 219.951 14.6747 220.271 14.613C220.751 14.5206 220.854 14.622 220.854 15.1875V15.8742L221.369 15.2803C222.116 14.4185 222.435 14.8123 222.491 16.6688L222.541 18.3068L222.65 16.7193C222.728 15.5929 222.82 15.2855 222.968 15.661C223.16 16.1471 223.205 16.1255 223.519 15.3964L223.862 14.6026L224.04 15.661C224.138 16.2431 224.239 16.4812 224.264 16.1901C224.308 15.6933 224.332 15.6893 224.662 16.124C225.174 16.7989 225.309 16.7033 225.41 15.5949L225.501 14.6027L225.768 15.5075L226.036 16.4124L226.482 15.5075C226.896 14.6652 226.928 14.6484 226.943 15.2641L226.958 15.9256L227.336 15.2641L227.714 14.6027L227.742 15.2641C227.768 15.8723 227.789 15.883 227.998 15.3964C228.187 14.957 228.233 15.0243 228.272 15.7933L228.319 16.7193L228.572 15.5895C228.92 14.0329 229.312 14.4349 229.365 16.4042C229.395 17.518 229.443 17.7245 229.513 17.0495C229.57 16.5034 229.788 15.7295 229.996 15.3297C230.358 14.6359 230.377 14.6934 230.41 16.587C230.444 18.535 230.449 18.5471 230.649 17.2485C230.762 16.5209 230.972 15.6279 231.117 15.2641L231.38 14.6027L231.531 15.2641C231.614 15.6279 231.732 16.1637 231.793 16.4548C231.86 16.7712 231.917 16.6415 231.936 16.1323C231.959 15.4909 232.064 15.3183 232.363 15.4331C232.624 15.533 232.771 15.4163 232.791 15.094C232.82 14.6265 232.828 14.6261 232.946 15.085C233.064 15.5386 233.091 15.5402 233.404 15.1109C233.697 14.7104 233.765 14.797 233.957 15.8195C234.14 16.788 234.194 16.8649 234.278 16.276C234.386 15.5196 235.141 14.6416 235.141 15.2725C235.141 15.4632 235.356 15.3622 235.635 15.0404C236.234 14.3499 236.613 14.3166 236.851 14.9337C237.018 15.3684 237.045 15.3691 237.283 14.9447C237.54 14.4869 238.273 14.5661 238.623 15.0896C238.728 15.2465 238.973 15.1752 239.237 14.9105C239.784 14.3639 240.169 14.3462 240.169 14.8676C240.169 15.4784 240.616 15.3376 240.799 14.6691C240.893 14.3261 241.046 14.1859 241.161 14.3384C241.27 14.4839 241.592 14.603 241.876 14.603C242.209 14.603 242.451 14.8391 242.554 15.2644C242.707 15.8954 242.722 15.8852 242.894 15.0447C243.055 14.2592 243.118 14.2069 243.473 14.5628C243.693 14.7824 243.873 15.1666 243.873 15.4165C243.873 15.7768 244.01 15.7231 244.534 15.1571L245.196 14.4434L245.217 15.0524C245.228 15.3873 245.3 15.5052 245.376 15.3144C245.484 15.0449 245.627 15.0687 246.017 15.4216C246.49 15.8502 246.519 15.8502 246.519 15.4221C246.519 15.1727 246.63 15.0377 246.767 15.1221C246.903 15.2065 247.14 15.0647 247.292 14.807C247.544 14.3803 247.584 14.3951 247.746 14.9728C247.914 15.5745 247.942 15.5821 248.279 15.1207C248.614 14.6632 248.637 14.6727 248.67 15.28C248.697 15.7739 248.751 15.7079 248.9 14.9999L249.095 14.0738L249.13 14.9337C249.165 15.816 249.677 16.1632 249.714 15.3306C249.727 15.0516 249.789 14.9996 249.869 15.1998C249.962 15.4288 250.159 15.3466 250.504 14.9352C250.934 14.4241 251.044 14.3954 251.272 14.7353C251.508 15.088 251.538 15.088 251.546 14.7353C251.553 14.3825 251.582 14.3825 251.81 14.7353C251.997 15.0237 252.068 15.0375 252.071 14.7858C252.079 14.1286 252.604 14.7682 252.64 15.4785C252.673 16.131 252.686 16.1391 252.793 15.575C252.864 15.2061 253.048 15.0123 253.254 15.0913C253.443 15.1638 253.731 15.0893 253.895 14.9263C254.114 14.7069 254.191 14.7261 254.191 14.9999C254.191 15.2796 254.266 15.2956 254.497 15.0652C254.706 14.8553 254.954 14.8417 255.29 15.0216C255.689 15.2348 255.779 15.1867 255.779 14.7611C255.779 14.066 256.778 14.1303 257.003 14.84C257.151 15.3063 257.204 15.2795 257.51 14.5852C257.699 14.1585 257.862 13.9879 257.874 14.2062C257.897 14.626 259.218 14.8586 259.218 14.4428C259.218 14.3127 259.338 14.2062 259.483 14.2062C259.629 14.2062 259.752 14.4741 259.757 14.8015C259.766 15.3893 259.771 15.3885 260.145 14.7354C260.353 14.3716 260.527 14.2298 260.532 14.4203C260.537 14.6108 260.652 14.6981 260.788 14.6142C260.924 14.5304 261.074 14.7913 261.121 15.1939L261.208 15.926L261.658 15.1323C261.905 14.6957 262.113 14.4944 262.118 14.6849C262.124 14.8754 262.253 14.9544 262.405 14.8605C262.834 14.5952 263.448 15.2548 263.488 16.0246C263.52 16.6534 263.535 16.6625 263.639 16.1206C263.702 15.791 263.865 15.5897 264 15.6732C264.135 15.7567 264.246 15.5799 264.246 15.2802C264.246 14.6204 264.768 14.5422 264.792 15.1984C264.804 15.5345 264.89 15.48 265.106 15L265.403 14.3385L265.504 15.0661C265.624 15.9413 266.332 16.0404 266.894 15.2606C267.252 14.7646 267.291 14.76 267.463 15.1945C267.625 15.6028 267.65 15.5923 267.667 15.1103C267.681 14.6784 267.857 14.5591 268.479 14.5591C269.019 14.5591 269.279 14.6931 269.291 14.978C269.305 15.2861 269.37 15.2569 269.537 14.8677C269.735 14.4068 269.771 14.4409 269.814 15.1323C269.841 15.5689 269.915 15.7305 269.979 15.4915C270.054 15.2099 270.276 15.1043 270.61 15.1916C271.012 15.2967 271.127 15.1886 271.133 14.7002C271.14 14.1216 271.163 14.1116 271.428 14.5688C271.66 14.9683 271.76 14.9937 271.945 14.7011C272.115 14.4336 272.176 14.4947 272.179 14.9339C272.184 15.6861 272.601 15.7017 272.996 14.9643C273.238 14.5118 273.345 14.4723 273.534 14.7658C273.733 15.0745 273.813 15.0697 274.04 14.7355C274.274 14.3902 274.346 14.4008 274.591 14.8163C274.776 15.1316 274.977 15.2113 275.181 15.0508C275.351 14.917 275.669 14.7916 275.887 14.7722C278.12 14.5732 279.248 14.5826 279.525 14.8024C279.749 14.9802 279.856 14.9691 279.856 14.7679C279.856 14.6046 279.975 14.4709 280.121 14.4709C280.266 14.4709 280.399 14.8579 280.416 15.3308C280.433 15.8038 280.501 15.9824 280.568 15.7277C280.723 15.1318 281.107 15.1318 281.255 15.7277C281.34 16.0713 281.454 15.9688 281.697 15.3308C282.068 14.3565 282.485 14.2175 282.69 15.0001C282.846 15.5978 283.058 15.6615 283.48 15.2385C283.692 15.0273 283.827 15.19 283.975 15.8338C284.166 16.6626 284.189 16.6787 284.339 16.0827C284.532 15.3113 285.412 15.0808 285.412 15.8016C285.412 16.6991 285.895 16.6053 286.211 15.6462C286.383 15.1258 286.589 14.7657 286.669 14.8458C286.749 14.926 286.9 15.7377 287.003 16.6495L287.192 18.3074L287.266 16.9845L287.339 15.6616L287.529 16.7199L287.718 17.7782L287.756 16.6754C287.806 15.2098 288.014 14.7355 288.608 14.7355C288.937 14.7355 289.184 15.0215 289.349 15.5954L289.598 16.4553L289.622 15.5954C289.646 14.7116 290.15 14.3688 290.205 15.1985C290.234 15.6268 290.245 15.6275 290.355 15.2086C290.445 14.8676 290.658 14.7925 291.218 14.9046C291.64 14.989 292.042 14.9255 292.145 14.7579C292.432 14.2934 292.819 14.696 292.837 15.4787C292.853 16.1647 292.863 16.1692 293.092 15.5998C293.33 15.0077 293.833 15.0055 294.595 15.5928C294.77 15.7283 295.038 15.7623 295.19 15.6684C295.348 15.5705 295.483 15.7583 295.506 16.1087C295.528 16.4447 295.617 16.1838 295.704 15.5289L295.863 14.3383L296.418 15.505L296.973 16.6717L297.151 15.5587C297.32 14.5019 297.838 14.2482 297.856 15.2138C297.863 15.5948 297.908 15.5844 298.164 15.1438C298.462 14.6303 298.465 14.6303 298.666 15.1438C298.841 15.5905 298.871 15.598 298.887 15.1983C298.908 14.6778 299.697 14.5499 299.704 15.066C299.707 15.2864 299.793 15.2644 299.964 14.9999C300.163 14.6919 300.229 14.7809 300.26 15.3967C300.298 16.1859 300.299 16.1852 300.462 15.2816C300.618 14.4153 300.647 14.3945 301.089 14.8375C301.421 15.171 301.558 15.2035 301.573 14.9526C301.588 14.6889 301.626 14.6837 301.726 14.9313C301.825 15.175 301.97 15.1489 302.289 14.8297C302.637 14.4812 302.737 14.4691 302.818 14.7659C303.101 15.8166 303.215 15.9149 303.393 15.2644C303.606 14.487 304.592 14.452 305.144 15.2022C305.465 15.6375 305.492 15.6373 305.662 15.1982C305.881 14.6326 306.579 14.5823 306.579 15.1321C306.579 15.6817 307.042 15.6316 307.19 15.066C307.257 14.8113 307.333 15.0197 307.36 15.529C307.388 16.0383 307.5 16.6868 307.611 16.9699C307.771 17.3795 307.88 17.2196 308.139 16.1886C308.381 15.2288 308.529 14.9922 308.709 15.2768C308.911 15.5959 308.953 15.5825 308.956 15.1983C308.959 14.9436 309.079 14.7352 309.225 14.7352C309.37 14.7352 309.489 14.9011 309.489 15.1038C309.489 15.7493 310.24 15.8178 310.363 15.1836C310.425 14.8642 310.501 15.1982 310.532 15.9259C310.591 17.2865 310.633 17.2865 310.952 15.9259C311.118 15.2135 311.159 15.1864 311.353 15.6612C311.472 15.9523 311.579 16.6071 311.591 17.1165C311.626 18.5407 312.117 17.5388 312.174 15.9259L312.221 14.6029L312.4 16.0581C312.498 16.8585 312.597 17.2552 312.621 16.9397C312.645 16.6242 312.74 16.1677 312.833 15.9253C312.968 15.5738 313.048 15.556 313.226 15.8375C313.387 16.0906 313.451 16.0221 313.454 15.5951C313.46 14.6583 313.983 14.9005 314.025 15.8597C314.06 16.6783 314.071 16.6688 314.237 15.6612L314.412 14.6029L314.777 15.3426L315.141 16.0822L315.469 15.3426C315.649 14.9357 315.808 14.7815 315.822 14.9998C315.845 15.3525 315.876 15.3525 316.104 14.9998C316.275 14.7352 316.362 14.7131 316.364 14.9337C316.367 15.1156 316.487 15.2644 316.633 15.2644C316.778 15.2644 316.898 15.0634 316.898 14.8176C316.898 14.4388 316.978 14.4572 317.427 14.9389C317.718 15.2513 317.965 15.6607 317.977 15.8487C317.988 16.0367 318.113 15.8754 318.254 15.4903C318.395 15.1053 318.748 14.7282 319.038 14.6524C319.461 14.5417 319.6 14.6802 319.742 15.3525L319.918 16.1904L320.096 15.3967L320.275 14.6029L320.308 15.529L320.341 16.455L320.866 15.6613L321.392 14.8675L321.422 15.9259L321.452 16.9842L321.712 15.8169C321.901 14.9723 322.038 14.7528 322.209 15.0231C322.368 15.274 322.447 15.2908 322.45 15.0743C322.453 14.897 322.632 14.8204 322.851 14.9042C323.069 14.988 323.248 15.3046 323.248 15.6079C323.248 16.1496 323.255 16.1502 323.636 15.6457C324.019 15.1389 324.025 15.1391 324.052 15.6613L324.079 16.1905L324.306 15.6613C324.431 15.3703 324.554 15.2512 324.578 15.3967C324.603 15.5423 324.715 15.3636 324.826 14.9999C325.024 14.3546 325.041 14.3643 325.51 15.3967L325.99 16.4551L326.148 15.6613C326.285 14.9655 326.33 14.932 326.51 15.3893C326.681 15.8242 326.755 15.8466 326.955 15.5238C327.275 15.006 327.673 15.4351 327.818 16.4551C327.907 17.0821 327.945 16.9987 327.997 16.0582C328.053 15.0435 328.094 14.9653 328.275 15.529L328.486 16.1905L328.513 15.5422C328.561 14.3526 329.035 15.3467 329.137 16.8519L329.235 18.3071L329.31 16.7196C329.367 15.5231 329.435 15.295 329.584 15.7936C329.779 16.4407 329.789 16.435 330.063 15.529C330.218 15.0197 330.354 14.7481 330.368 14.9254C330.381 15.1027 330.56 15.1833 330.765 15.1044C330.985 15.0201 331.19 15.1598 331.264 15.4435C331.366 15.8399 331.394 15.8225 331.419 15.3461C331.464 14.5017 331.979 14.3047 331.979 15.1321C331.979 15.5265 332.093 15.7544 332.243 15.6613C332.389 15.5714 332.52 15.6533 332.534 15.8441C332.549 16.0346 332.656 15.8928 332.773 15.529C332.914 15.088 332.993 15.0219 333.011 15.3305C333.048 15.9854 333.566 15.9091 333.566 15.2487C333.566 14.9491 333.677 14.7725 333.813 14.8562C333.948 14.9399 334.135 14.8855 334.228 14.7352C334.321 14.5849 334.521 14.5387 334.673 14.6325C334.824 14.7263 335.041 14.653 335.155 14.4696C335.302 14.2308 335.411 14.2963 335.54 14.7002C335.709 15.2337 336.477 15.5153 336.477 15.0439C336.477 14.9226 336.655 14.8234 336.874 14.8234C337.092 14.8234 337.271 14.9411 337.271 15.0849C337.271 15.2287 337.488 15.1494 337.754 14.9085C338.425 14.3014 338.59 14.3569 338.614 15.1982C338.626 15.5984 338.7 15.7635 338.779 15.5651C338.898 15.265 338.959 15.2639 339.141 15.5592C339.305 15.8248 339.419 15.7535 339.596 15.2745C339.813 14.6897 339.851 14.7352 340.054 15.81L340.275 16.9845L340.453 15.7939C340.603 14.7893 340.643 14.7273 340.71 15.397L340.789 16.1907L340.9 15.4631C341.058 14.4156 341.763 14.5205 341.789 15.5954L341.809 16.4554L342.148 15.397C342.474 14.376 342.536 14.3866 342.917 15.5293C343.002 15.7849 343.057 15.7225 343.071 15.3543C343.094 14.7148 343.779 14.6652 344.157 15.2757C344.407 15.6803 344.459 15.6516 344.896 14.8678C345.154 14.4069 345.193 14.3983 345.2 14.8017C345.205 15.0564 345.327 15.2648 345.473 15.2648C345.618 15.2648 345.751 15.5922 345.769 15.9924L345.8 16.72L346.002 15.9262C346.113 15.4897 346.226 15.2516 346.254 15.3971C346.281 15.5426 346.391 15.4387 346.498 15.1662C346.672 14.7244 346.736 14.714 347.092 15.0702C347.435 15.4131 347.611 15.4195 348.334 15.1154C349.048 14.8154 349.177 14.8176 349.177 15.1301C349.177 15.3679 349.384 15.4591 349.76 15.3868C350.08 15.3251 350.435 15.4212 350.549 15.6004C350.691 15.8243 350.758 15.7712 350.76 15.4309C350.763 15.0134 350.829 14.989 351.175 15.2759C351.521 15.5637 351.608 15.5268 351.736 15.0382C351.855 14.5845 351.965 14.5245 352.249 14.7597C352.447 14.9246 352.81 14.9826 353.055 14.8886C353.3 14.7946 353.587 14.8582 353.693 15.0298C353.995 15.5176 354.732 15.0838 354.741 14.4132C354.749 13.8179 354.759 13.8197 355.39 14.5372C356.168 15.4205 356.472 15.4516 356.687 14.6695C356.781 14.3264 356.934 14.1863 357.048 14.3388C357.157 14.4843 357.396 14.6153 357.577 14.6298C358.346 14.6913 358.439 14.7642 358.465 15.331C358.491 15.8793 358.516 15.8688 358.781 15.1987C359.129 14.3188 359.684 14.2486 359.828 15.0664C359.933 15.6603 359.934 15.6602 360.227 15.0003L360.52 14.3388L360.545 15.0003C360.569 15.6053 360.6 15.6225 360.92 15.2016C361.246 14.7722 361.289 14.781 361.558 15.3339L361.848 15.9263L362.027 15.3254C362.168 14.8508 362.283 14.7881 362.571 15.0271C362.85 15.2591 362.936 15.245 362.939 14.9665C362.942 14.7478 363.021 14.7086 363.138 14.868C363.405 15.2325 363.993 15.3234 363.993 15.0003C363.993 14.5325 364.922 14.7183 365.316 15.2649C365.799 15.9346 366.11 15.9407 366.11 15.2805C366.11 14.273 366.61 14.48 366.859 15.5903C366.998 16.2116 367.128 16.4819 367.149 16.1909C367.169 15.8999 367.356 15.4357 367.565 15.1594C367.88 14.7441 368.016 14.7154 368.351 14.9934C368.574 15.1783 368.756 15.4937 368.756 15.6941C368.756 15.8946 368.875 16.0586 369.021 16.0586C369.166 16.0586 369.285 15.8275 369.285 15.5451C369.285 15.2626 369.404 14.9579 369.55 14.868C369.704 14.7723 369.814 15.0468 369.814 15.5294C369.814 16.012 369.924 16.2866 370.079 16.1909C370.224 16.101 370.343 15.7405 370.343 15.3898C370.343 14.6093 371.06 14.7726 371.407 15.6324C371.59 16.0847 371.636 16.1028 371.65 15.7279C371.669 15.1941 372.088 15.1069 372.285 15.5956C372.358 15.7775 372.428 15.6655 372.439 15.3466C372.463 14.6895 372.989 14.2165 372.989 14.8524C372.989 15.4035 373.508 15.3761 373.944 14.8019C374.266 14.3771 374.297 14.3936 374.312 15.0003C374.326 15.5783 374.362 15.6033 374.598 15.1987C374.936 14.6189 375.371 14.5976 375.371 15.161C375.371 15.4302 375.516 15.5303 375.767 15.4338C376.057 15.3229 376.173 15.4768 376.196 16.0008L376.227 16.7201L376.429 15.9264C376.54 15.4898 376.645 15.2815 376.662 15.4634C376.706 15.9302 377.223 15.8769 377.223 15.4056C377.223 15.1689 377.378 15.0765 377.619 15.1693C377.838 15.2531 378.016 15.1898 378.016 15.0287C378.016 14.5097 378.555 14.7172 378.802 15.3311C378.933 15.6585 379.064 15.8074 379.093 15.6618C379.121 15.5163 379.232 15.814 379.339 16.3233L379.534 17.2493L379.569 16.1249C379.588 15.5064 379.723 15.0004 379.868 15.0004C380.014 15.0004 380.141 15.1492 380.152 15.3311C380.162 15.513 380.273 15.4237 380.398 15.1327C380.523 14.8416 380.633 14.7268 380.644 14.8775C380.654 15.0283 380.9 15.1516 381.191 15.1516C381.482 15.1516 381.738 15.0283 381.76 14.8775C381.782 14.7268 381.883 15.1393 381.985 15.7941L382.17 16.9848L382.21 15.8603C382.259 14.47 382.639 14.4056 382.99 15.728C383.246 16.6916 383.254 16.6973 383.285 15.9264C383.302 15.4899 383.427 14.9569 383.563 14.7422C383.765 14.4233 383.858 14.4718 384.071 15.0068C384.326 15.6458 384.333 15.6473 384.35 15.0666C384.367 14.4519 385.157 14.1954 385.164 14.802C385.167 15.0384 385.235 15.0274 385.402 14.7635C385.531 14.5604 385.812 14.4618 386.027 14.5444C386.242 14.627 386.552 14.561 386.715 14.3977C386.935 14.1783 387.012 14.1884 387.012 14.4362C387.012 14.6511 387.202 14.7112 387.541 14.6036C387.962 14.47 388.077 14.5611 388.101 15.0488C388.124 15.4971 388.164 15.5374 388.253 15.1989C388.385 14.694 388.402 14.6858 389.446 14.6266C389.839 14.6043 390.238 14.5083 390.333 14.4133C390.428 14.3183 390.762 14.3336 391.074 14.4474C391.387 14.5612 392.029 14.6065 392.502 14.5481C393.022 14.4839 393.362 14.5587 393.362 14.7367C393.362 14.8989 393.481 14.9581 393.627 14.8681C393.772 14.7782 393.891 14.8972 393.891 15.1327C393.891 15.3682 394.006 15.49 394.146 15.4035C394.286 15.317 394.513 15.6373 394.651 16.1155L394.902 16.9848L394.926 16.1332C394.944 15.4902 395.047 15.3189 395.346 15.4339C395.606 15.5334 395.756 15.416 395.781 15.0949C395.802 14.8246 395.904 15.0798 396.008 15.6619L396.198 16.7202L396.243 15.5296C396.286 14.4223 396.317 14.3749 396.678 14.8525C396.892 15.135 397.076 15.6708 397.087 16.0432C397.099 16.4155 397.167 16.5416 397.239 16.3233C397.311 16.1051 397.508 15.6439 397.677 15.2986L397.984 14.6707L398.16 15.2986C398.335 15.9213 398.337 15.9216 398.363 15.3312C398.394 14.63 399.09 14.528 399.265 15.1989C399.341 15.4871 399.398 15.3904 399.417 14.9426C399.439 14.4184 399.555 14.2646 399.845 14.3756C400.063 14.4594 400.241 14.7083 400.241 14.9288C400.241 15.2553 400.315 15.2686 400.638 15.0004C400.953 14.7396 401.035 14.7392 401.035 14.9985C401.035 15.232 401.221 15.2039 401.684 14.9005C402.161 14.588 402.505 14.5403 402.98 14.7208C403.336 14.856 403.698 14.8948 403.786 14.8071C403.874 14.7194 403.946 14.7865 403.946 14.9563C403.946 15.4704 404.376 15.3028 404.681 14.6697C404.839 14.3423 404.976 14.2302 404.986 14.4207C404.996 14.6112 405.123 14.6935 405.268 14.6035C405.414 14.5136 405.533 14.6256 405.533 14.8525C405.533 15.0794 405.712 15.265 405.93 15.265C406.148 15.265 406.327 15.1587 406.327 15.0287C406.327 14.5404 407.194 14.4697 407.543 14.9296C407.859 15.3465 407.898 15.3501 407.906 14.9625C407.91 14.7234 408.083 14.4631 408.289 14.3839C408.696 14.2277 408.968 14.7114 408.981 15.6173C408.989 16.148 409.016 16.1566 409.338 15.7321C409.53 15.4797 409.764 15.3507 409.859 15.4454C409.953 15.5402 410.033 15.3895 410.035 15.1106C410.038 14.7319 410.096 14.6928 410.263 14.9564C410.442 15.2385 410.52 15.2218 410.654 14.8734C410.795 14.5042 410.921 14.5514 411.476 15.1819L412.131 15.9264L412.171 15.265C412.208 14.6473 412.224 14.6561 412.412 15.3973L412.614 16.191L412.662 15.3973C412.709 14.6245 412.717 14.62 412.961 15.229C413.168 15.7463 413.28 15.7979 413.606 15.5274C413.822 15.3474 414 15.056 414 14.8798C414 14.7036 414.178 14.5594 414.397 14.5594C414.62 14.5594 414.797 14.8008 414.802 15.1106C414.81 15.6522 414.817 15.6529 415.199 15.1482C415.483 14.7724 415.593 14.7369 415.608 15.0159C415.623 15.2859 415.668 15.3006 415.763 15.0665C415.956 14.5871 416.381 14.6607 416.381 15.1737C416.381 15.5675 416.434 15.5633 416.91 15.1327C417.201 14.8693 417.439 14.7787 417.439 14.9314C417.439 15.0841 417.737 15.1918 418.101 15.1708C418.464 15.1498 418.762 15.0092 418.762 14.8582C418.762 14.7073 419.119 14.5566 419.556 14.5233C420.218 14.4729 420.353 14.5626 420.368 15.0623C420.386 15.6328 420.398 15.6362 420.614 15.1326C420.739 14.8416 420.85 14.7608 420.86 14.9531C420.874 15.2177 420.98 15.2016 421.295 14.887C421.866 14.3153 422.144 14.3658 422.282 15.0665L422.399 15.6618L422.591 15.0848C422.714 14.7145 422.926 14.5625 423.181 14.6604C423.399 14.7443 423.685 14.6468 423.816 14.4436C424.015 14.1341 424.091 14.1324 424.286 14.4335C424.546 14.8375 425.641 14.6137 425.641 14.1565C425.641 13.9832 425.792 14.0024 426.039 14.2073C426.275 14.4031 426.759 14.4727 427.23 14.3785C427.725 14.2794 428.023 14.3288 428.023 14.5103C428.023 14.7037 428.155 14.6907 428.42 14.4713C428.694 14.2438 428.816 14.2337 428.816 14.4389C428.816 14.6023 429.055 14.7359 429.346 14.7359C429.637 14.7359 429.875 14.6314 429.875 14.5036C429.875 14.2671 432.972 14.3354 434.026 14.5951C434.344 14.6736 434.672 14.6295 434.754 14.4971C434.917 14.2326 435.914 14.4087 436.401 14.7882C436.608 14.949 436.74 14.8717 436.801 14.5545C436.884 14.1227 436.945 14.1332 437.485 14.6728C437.924 15.1124 438.077 15.1628 438.077 14.8682C438.077 14.4234 439.012 14.3231 439.27 14.7402C439.362 14.8881 439.561 14.9324 439.712 14.8386C439.864 14.7448 440.092 14.8326 440.219 15.0327C440.402 15.3211 440.451 15.3005 440.454 14.9343C440.459 14.4203 440.498 14.4017 441.098 14.6319C441.328 14.7202 441.526 15.0477 441.537 15.3595C441.557 15.9055 441.595 15.85 441.937 14.7722C442.026 14.4944 442.137 14.4822 442.422 14.7189C442.702 14.9511 442.838 14.9515 442.981 14.7209C443.123 14.492 443.22 14.4952 443.367 14.7339C443.516 14.9748 443.652 14.9582 443.925 14.6661C444.177 14.3961 444.501 14.3412 444.998 14.4838C445.39 14.5961 445.778 14.6195 445.862 14.5358C445.946 14.4521 446.026 14.6713 446.041 15.023L446.067 15.6624L446.25 15.001C446.447 14.2895 447.454 13.953 447.938 14.437C448.121 14.6206 448.374 14.625 448.701 14.4501C449.001 14.2898 449.19 14.2855 449.19 14.4391C449.19 14.711 449.859 14.6839 450.143 14.4006C450.239 14.3045 450.533 14.3411 450.796 14.4819C451.108 14.649 451.331 14.6458 451.438 14.4729C451.727 14.0055 452.1 14.1888 452.109 14.803C452.118 15.397 452.119 15.3971 452.44 14.8458C452.693 14.4114 452.987 14.3063 453.82 14.3533C454.402 14.3862 454.938 14.439 455.01 14.4707C455.083 14.5024 455.47 14.5067 455.87 14.4807C456.376 14.4473 456.598 14.5596 456.598 14.8496C456.598 15.3887 457.049 15.3817 457.597 14.8341C457.883 14.5486 458.064 14.5042 458.13 14.7034C458.185 14.8693 458.339 14.9378 458.472 14.8555C458.606 14.7732 458.715 14.9596 458.715 15.2696C458.715 15.7707 458.759 15.7892 459.111 15.4364C459.33 15.2182 459.508 14.8974 459.508 14.7237C459.508 14.4827 459.596 14.4808 459.879 14.7157C460.164 14.9522 460.282 14.9444 460.388 14.682C460.469 14.4804 460.542 14.5572 460.567 14.8694C460.602 15.2995 460.674 15.2534 460.952 14.6227C461.281 13.8767 461.301 13.8692 461.479 14.4281C461.58 14.7478 461.773 14.9411 461.909 14.8576C462.044 14.7741 462.168 14.9212 462.185 15.1845C462.203 15.4478 462.293 15.307 462.386 14.8716L462.555 14.0801L463.148 14.6732C463.846 15.3703 464.006 15.407 464.006 14.8694C464.006 14.6511 464.124 14.4725 464.267 14.4725C464.433 14.4725 464.555 17.7994 464.602 23.5345C464.642 28.5186 464.676 24.024 464.676 13.5465C464.676 0.803608 464.631 -2.52515 464.535 3.49232C464.457 8.44003 464.355 12.3095 464.31 12.0913C464.259 11.8435 464.091 11.9927 463.864 12.4881C463.664 12.9247 463.495 13.126 463.489 12.9356C463.482 12.7451 463.368 12.6565 463.235 12.7387C463.102 12.821 462.873 12.5602 462.727 12.1591L462.46 11.4298L462.439 12.1574C462.428 12.5576 462.299 12.885 462.154 12.885C462.008 12.885 461.889 12.7792 461.889 12.6498C461.889 12.2627 460.978 12.4566 460.784 12.885C460.639 13.2043 460.6 13.1883 460.585 12.8032C460.574 12.5119 460.447 12.3983 460.262 12.5129C460.094 12.6165 459.797 12.4817 459.6 12.2134C459.334 11.8487 459.239 11.8218 459.225 12.1068C459.214 12.3408 459.119 12.2837 458.979 11.9589L458.752 11.4298L458.729 11.9589C458.71 12.3991 458.663 12.4213 458.45 12.0912C458.245 11.7749 458.188 11.8286 458.168 12.3558C458.154 12.7196 458.083 12.8677 458.009 12.6849C457.936 12.5021 457.766 12.4203 457.631 12.5032C457.497 12.5861 457.316 12.4678 457.229 12.2403C457.007 11.6621 456.665 11.725 456.457 12.3824C456.335 12.766 456.195 12.8532 456.006 12.664C455.817 12.4748 455.613 12.5083 455.35 12.7721C455.139 12.9824 454.851 13.0823 454.708 12.9942C454.255 12.7139 451.306 12.6527 451.306 12.9236C451.306 13.0657 451.158 13.0861 450.975 12.9692C450.462 12.6412 446.969 12.6595 446.742 12.9914C446.618 13.1733 446.484 13.0662 446.385 12.7048C446.208 12.0586 445.485 12.1527 445.485 12.822C445.485 13.1772 445.419 13.1718 444.987 12.7811C444.552 12.3867 444.442 12.3786 444.104 12.7161C443.665 13.1557 443.29 12.9901 442.99 12.2235C442.789 11.7083 442.776 11.71 442.506 12.2896C442.163 13.0273 441.781 13.0622 441.781 12.3557C441.781 11.8461 441.759 11.8486 441.186 12.4218L440.59 13.0171L440.506 12.4218C440.402 11.694 439.929 11.6264 439.929 12.3395C439.929 12.7521 439.761 12.8427 439.069 12.8025C438.596 12.775 438.14 12.6586 438.055 12.5439C437.97 12.4291 437.587 12.4543 437.204 12.6C436.676 12.8009 436.415 12.773 436.127 12.4848C435.827 12.1852 435.719 12.1765 435.617 12.4439C435.525 12.6838 434.894 12.7717 433.464 12.7442C432.351 12.7228 431.378 12.8072 431.301 12.9317C431.224 13.0562 431.02 13.0702 430.849 12.9629C430.374 12.6662 428.182 12.7022 427.957 13.0104C427.828 13.1855 427.657 13.141 427.473 12.8849C427.28 12.6156 427.148 12.5853 427.064 12.7907C426.995 12.9571 426.736 13.0536 426.489 13.0051C424.812 12.6764 424.581 12.5745 424.562 12.1523C424.545 11.7887 424.51 11.7751 424.387 12.0865C424.14 12.7154 423.552 13.1975 423.255 13.0139C423.104 12.9207 422.815 12.4666 422.613 12.0048C422.37 11.4516 422.238 11.3296 422.223 11.6471C422.175 12.7358 420.892 13.2044 420.87 12.1417C420.863 11.8089 420.771 11.856 420.51 12.3254C420.318 12.6725 420.086 12.8362 419.995 12.6892C419.904 12.5422 419.512 12.4219 419.124 12.4219C418.694 12.4219 418.236 12.1811 417.954 11.807L417.49 11.1922L417.398 11.8401C417.317 12.4157 417.191 12.481 416.266 12.4244C415.693 12.3894 415.13 12.2109 415.013 12.0276C414.862 11.7891 414.8 11.8287 414.798 12.1667C414.795 12.5568 414.701 12.5897 414.264 12.3558C413.973 12.2 413.733 12.1661 413.731 12.2803C413.728 12.3945 413.61 12.3095 413.467 12.0912C413.235 11.7384 413.177 11.7384 412.945 12.0912C412.737 12.409 412.68 12.3563 412.66 11.8266C412.646 11.4628 412.575 11.3147 412.501 11.4975C412.427 11.6803 412.258 11.7626 412.125 11.6803C411.992 11.598 411.883 11.7759 411.883 12.0755C411.883 12.7793 411.511 12.7672 410.835 12.0412C410.321 11.4898 410.294 11.4867 410.264 11.9751C410.245 12.2969 410.158 12.1922 410.031 11.6943L409.829 10.9006L409.798 11.6126C409.766 12.3449 409.237 12.9589 409.237 12.264C409.237 11.9454 409.12 11.9309 408.578 12.1822C408.215 12.3504 407.918 12.5919 407.916 12.7189C407.916 12.8458 407.736 12.8015 407.517 12.6204C407.299 12.4392 407.119 12.3949 407.117 12.5218C407.114 12.6487 407.011 12.5928 406.887 12.3975C406.699 12.1004 406.569 12.1004 406.09 12.3975C405.61 12.6949 405.481 12.6945 405.294 12.3945C405.12 12.115 404.977 12.1713 404.641 12.6518C404.324 13.1038 404.21 13.1542 404.21 12.8419C404.21 12.3833 403.242 11.9961 403.014 12.3638C402.823 12.6728 401.783 12.4412 401.518 12.0307C401.346 11.7652 401.246 11.7779 401.045 12.0906C400.88 12.3474 400.366 12.4877 399.59 12.4881C398.44 12.4887 398.388 12.4551 398.353 11.6944C398.321 10.9765 398.306 10.9637 398.199 11.5615C398.011 12.609 397.665 12.7455 397.469 11.8499C397.272 10.9571 396.802 10.9824 396.802 11.8858C396.802 12.6457 396.521 12.3073 396.269 11.2442L396.062 10.3709L396.031 11.4292C396.01 12.1428 395.925 12.3688 395.769 12.1229C395.642 11.9224 395.406 11.8401 395.244 11.9401C395.052 12.0588 394.943 11.8178 394.93 11.2464L394.91 10.3709L394.57 11.2969C394.287 12.0678 394.207 12.1343 394.092 11.6938C393.963 11.2027 393.951 11.2066 393.922 11.7475C393.899 12.1853 393.644 12.399 392.899 12.6059C391.636 12.9567 390.981 12.9583 390.981 12.6109C390.981 12.4448 390.799 12.4214 390.518 12.5516C390.263 12.6695 389.876 12.747 389.658 12.7237C389.44 12.7004 389.053 12.6676 388.798 12.6508C388.453 12.6281 388.324 12.3672 388.293 11.6281L388.251 10.6359L388.141 11.5343C387.983 12.8273 387.486 13.2517 386.838 12.6475C386.384 12.2244 386.292 12.2175 385.952 12.5809C385.616 12.9415 385.554 12.9149 385.393 12.3403L385.213 11.6942L385.166 12.3556C385.14 12.7194 385.059 12.8692 384.986 12.6885C384.891 12.4538 384.712 12.4351 384.361 12.6231C383.775 12.9367 383.554 12.6653 383.288 11.3063C383.127 10.4889 383.101 10.4628 383.074 11.0989C383.057 11.4991 382.924 11.8265 382.779 11.8265C382.633 11.8265 382.5 12.0349 382.483 12.2895C382.466 12.5442 382.361 12.3953 382.25 11.9588L382.048 11.165L382.008 11.9588C381.974 12.6454 381.924 12.6948 381.643 12.3248C381.344 11.9324 381.284 11.9321 380.923 12.3208C380.568 12.7042 380.521 12.6691 380.439 11.9548L380.348 11.1647L379.997 11.9584L379.647 12.7522L379.586 11.5616C379.535 10.5664 379.502 10.5013 379.388 11.1647L379.252 11.9584L379.063 11.1647C378.875 10.382 378.872 10.3847 378.842 11.3631C378.823 11.9516 378.676 12.3635 378.479 12.3756C378.298 12.3867 377.94 12.4357 377.686 12.4844C377.343 12.55 377.223 12.3985 377.223 11.9026C377.223 11.3367 377.161 11.2835 376.826 11.5616C376.489 11.8409 376.425 11.7756 376.406 11.131L376.383 10.371L376.153 11.1422C375.877 12.065 375.381 12.4285 374.92 12.0458C374.674 11.8421 374.539 11.8815 374.42 12.1917C374.329 12.4285 374.123 12.5332 373.954 12.4281C373.787 12.3243 373.383 12.274 373.055 12.3163C372.595 12.3758 372.452 12.2543 372.424 11.7789L372.388 11.1647L372.273 11.76C372.101 12.6544 371.671 12.4758 371.636 11.4954C371.619 11.0225 371.551 10.8439 371.484 11.0986C371.417 11.3532 371.253 11.5616 371.118 11.5616C370.983 11.5616 370.863 11.7699 370.852 12.0246C370.837 12.3474 370.787 12.3784 370.687 12.127C370.566 11.8225 370.508 11.8225 370.316 12.127C370.16 12.3732 370.074 12.1937 370.047 11.5616C370.02 10.9366 369.97 10.8291 369.892 11.2308C369.744 12.0025 369.29 12.0025 369.268 11.2308C369.253 10.7104 369.198 10.7422 368.829 11.4833C368.075 12.9977 367.181 12.9255 367.148 11.3475C367.126 10.3309 367.079 10.3726 366.757 11.6939L366.563 12.4876L366.363 11.8262C366.178 11.2137 366.161 11.2076 366.137 11.7444C366.105 12.4485 365.693 12.7555 365.399 12.2947C365.132 11.8767 363.994 11.8092 363.994 12.2114C363.994 12.6707 362.936 12.5604 362.927 12.1001C362.921 11.798 362.842 11.8274 362.617 12.2145C362.337 12.6982 362.292 12.6701 361.984 11.8176C361.793 11.2885 361.644 11.1081 361.632 11.3914C361.619 11.7157 361.477 11.8309 361.215 11.7304C360.925 11.619 360.813 11.7713 360.797 12.2974L360.776 13.0167L360.433 12.2408C360.131 11.5561 360.072 11.525 359.929 11.9762C359.804 12.3689 359.527 12.4853 358.734 12.4781C358.167 12.4731 357.53 12.3255 357.319 12.1506C357.007 11.8921 356.869 11.9574 356.579 12.4995L356.222 13.1664L355.896 12.4301C355.717 12.0251 355.56 11.8554 355.548 12.0528C355.535 12.2768 355.361 12.3481 355.085 12.2423C354.842 12.149 354.56 12.2075 354.458 12.3721C354.327 12.5851 354.169 12.5596 353.911 12.284C353.593 11.9439 353.514 11.9443 353.263 12.288C353.013 12.6308 352.925 12.6267 352.554 12.2551C352.235 11.9363 352.092 11.9126 351.976 12.1596C351.859 12.4102 351.787 12.4131 351.673 12.1721C351.591 11.9984 351.353 11.9218 351.144 12.002C350.908 12.0926 350.764 11.9813 350.764 11.7078C350.764 11.3793 350.599 11.4559 350.111 12.0102C349.526 12.6758 349.457 12.6978 349.446 12.2234C349.436 11.7841 349.39 11.7616 349.177 12.0911C348.991 12.3795 348.919 12.3933 348.916 12.1416C348.913 11.9511 348.793 11.8689 348.648 11.9588C348.502 12.0487 348.383 11.9282 348.383 11.6909C348.383 11.3075 348.339 11.3037 347.986 11.6564C347.768 11.8747 347.589 12.2589 347.589 12.5102C347.589 12.8599 347.434 12.7867 346.928 12.1984L346.267 11.4296L346.232 12.0911C346.204 12.6157 346.156 12.5609 346.002 11.8265C345.808 10.9053 345.807 10.9046 345.768 11.6942C345.747 12.1308 345.642 12.3602 345.535 12.2041C345.081 11.5411 344.464 11.5914 344.274 12.3071C344.17 12.6976 344.03 12.8683 343.963 12.6864C343.896 12.5045 343.672 12.3557 343.466 12.3557C343.26 12.3557 343.092 12.1533 343.092 11.9059C343.092 11.5561 343.021 11.5267 342.774 11.7736C342.307 12.2401 342.084 12.1643 341.955 11.4958C341.875 11.0767 341.83 11.1615 341.805 11.7824C341.763 12.8001 341.217 12.8159 340.955 11.8069C340.793 11.1862 340.783 11.1912 340.656 11.9588L340.525 12.7526L340.485 11.8927C340.443 10.9758 339.916 10.6697 339.916 11.562C339.916 11.853 339.797 12.0911 339.652 12.0911C339.506 12.0911 339.385 11.9423 339.383 11.7604C339.38 11.5399 339.294 11.5619 339.123 11.8265C338.918 12.1435 338.859 12.0903 338.831 11.5619C338.803 11.0119 338.775 10.9896 338.667 11.4296C338.595 11.7206 338.414 12.1095 338.265 12.2937C337.875 12.7733 336.685 12.5408 336.449 11.9392C336.266 11.4727 336.248 11.4799 336.231 12.0249C336.212 12.6235 335.683 12.8941 335.683 12.3051C335.683 12.1317 335.523 12.2089 335.327 12.4765C334.99 12.9381 334.962 12.9305 334.785 12.3286L334.598 11.6942L334.355 12.2895C333.989 13.1889 333.566 13.0035 333.566 11.9431C333.566 10.8526 333.054 10.9416 333.006 12.0405L332.975 12.7525L332.773 11.9588C332.581 11.2036 332.568 11.1972 332.508 11.8265C332.449 12.4558 332.436 12.4494 332.244 11.6942L332.042 10.9004L332.01 11.6197C331.987 12.1438 331.871 12.2977 331.582 12.1867C331.319 12.0858 331.181 12.1999 331.173 12.5258C331.165 12.8685 331.051 12.777 330.798 12.2233C330.598 11.7868 330.417 11.5487 330.396 11.6942C330.375 11.8397 330.228 11.6611 330.069 11.2973L329.78 10.6358L329.588 11.4296C329.424 12.1052 329.384 12.0068 329.32 10.7681L329.244 9.31294L329.08 10.9004C328.934 12.3148 328.894 12.4014 328.705 11.6942C328.354 10.381 328.319 10.3389 328.258 11.165C328.205 11.8853 328.182 11.8608 328.01 10.9004L327.821 9.84211L327.775 11.0327C327.731 12.1589 327.707 12.1947 327.324 11.6942C326.924 11.1713 326.915 11.1711 326.539 11.6786C326.181 12.1609 326.157 12.1367 326.138 11.2817L326.118 10.3713L325.807 11.2195C325.636 11.686 325.348 12.2159 325.166 12.3969C324.902 12.6599 324.83 12.569 324.809 11.9455C324.783 11.1739 324.78 11.1726 324.571 11.8265C324.421 12.295 324.351 12.3484 324.332 12.0093C324.318 11.746 324.194 11.5997 324.058 11.6841C323.921 11.7685 323.687 11.6267 323.537 11.369C323.288 10.9413 323.263 10.9495 323.256 11.4633C323.247 12.1186 322.468 12.9308 322.433 12.3218C322.417 12.0515 322.378 12.0437 322.278 12.2911C322.025 12.9195 321.66 12.323 321.62 11.2155L321.581 10.1067L321.414 11.2973L321.247 12.4879L321.036 11.6311C320.718 10.3382 320.341 10.3285 320.311 11.6125C320.29 12.5292 320.248 12.623 320.097 12.0911L319.91 11.4296L319.699 12.0911C319.521 12.6487 319.467 12.6768 319.36 12.2701C319.278 11.9588 319.084 11.8447 318.814 11.9483C318.584 12.0367 318.298 11.9563 318.18 11.7693C318.024 11.5241 317.963 11.567 317.96 11.9235C317.957 12.3083 317.808 12.3892 317.288 12.2897C316.849 12.2058 316.534 12.3086 316.37 12.5895C316.191 12.8953 316.118 12.9148 316.112 12.6581C316.107 12.4489 315.938 12.3627 315.707 12.4514C315.489 12.5352 315.31 12.4803 315.31 12.3296C315.31 12.1759 315.078 12.1292 314.781 12.2234C314.311 12.3726 314.248 12.264 314.216 11.2491C314.193 10.5294 314.136 10.3515 314.061 10.7682C313.92 11.5568 313.471 12.1137 313.432 11.5487C313.417 11.3377 313.314 11.4627 313.203 11.8265C313.031 12.3864 312.966 12.2644 312.779 11.0328C312.579 9.71578 312.541 9.65295 312.378 10.3713C312.212 11.1005 312.195 11.1113 312.16 10.5036C312.125 9.87156 312.104 9.88099 311.693 10.7155C311.216 11.6827 310.911 11.5724 310.74 10.3713C310.652 9.75299 310.614 9.84071 310.569 10.7682C310.523 11.6961 310.46 11.8421 310.283 11.4297L310.056 10.9005L310.029 11.4297C309.971 12.5549 308.96 13.1992 308.96 12.1107C308.96 11.8789 308.722 11.5405 308.431 11.3588C308.14 11.177 307.893 10.7614 307.883 10.4352C307.866 9.8685 307.854 9.86566 307.637 10.3713C307.512 10.6624 307.4 11.2577 307.387 11.6943C307.369 12.3296 307.308 12.4088 307.084 12.0911C306.854 11.7656 306.777 11.7591 306.659 12.0549C306.537 12.3594 306.479 12.3594 306.286 12.0549C306.108 11.7727 306.057 11.7949 306.054 12.1573C306.051 12.4119 305.931 12.6203 305.785 12.6203C305.64 12.6203 305.521 12.5118 305.521 12.3791C305.521 12.1112 304.844 12.1498 304.56 12.4339C304.46 12.5339 304.219 12.483 304.024 12.321C303.828 12.1589 303.66 12.1302 303.65 12.2571C303.64 12.384 303.529 12.2501 303.404 11.9587C303.2 11.4841 303.175 11.502 303.158 12.1324C303.143 12.7013 303.038 12.8089 302.61 12.6969C302.262 12.6059 302.07 12.32 302.05 11.8617C302.019 11.1775 302.015 11.179 301.851 11.9437C301.759 12.372 301.595 12.6995 301.486 12.6713C301.377 12.6432 301.181 12.6202 301.051 12.6202C300.922 12.6202 300.726 12.2928 300.616 11.8926L300.418 11.165L300.252 11.7968C300.018 12.6902 298.456 12.8795 298.149 12.0516C297.965 11.5531 297.896 11.5327 297.571 11.8808C297.256 12.2176 297.147 12.2219 296.835 11.9099C296.554 11.6294 296.382 11.6153 296.1 11.8497C295.795 12.103 295.725 11.9563 295.698 10.999L295.665 9.84208L295.46 11.2485C295.233 12.8052 294.937 13.3736 294.937 12.2518C294.937 11.7901 294.831 11.596 294.643 11.7124C294.481 11.8124 294.245 11.7301 294.118 11.5296C293.946 11.2581 293.886 11.3149 293.883 11.752C293.878 12.5087 293.162 12.2816 293.004 11.4734C292.914 11.0093 292.886 11.0386 292.857 11.628C292.816 12.4387 292.397 12.6102 292.209 11.8926C292.133 11.6013 292.077 11.6936 292.057 12.1416C292.012 13.1976 291.499 13.3452 291.49 12.3051C291.483 11.5337 291.446 11.4899 291.187 11.9364C290.901 12.4291 290.883 12.4295 290.534 11.952C290.186 11.4761 290.174 11.4768 290.154 11.9743C290.142 12.2568 290.073 12.3391 289.999 12.1572C289.806 11.6777 289.381 11.7514 289.381 12.2643C289.381 12.6508 289.316 12.6431 288.824 12.1982C288.518 11.921 288.19 11.7537 288.096 11.8265C288.002 11.8993 287.854 11.423 287.767 10.7682L287.608 9.57752L287.527 10.9005L287.446 12.2234L287.264 10.9005C287.105 9.73825 287.076 9.69004 287.023 10.5036C286.965 11.3982 286.527 12.7877 286.489 12.1977C286.479 12.0381 286.232 11.6329 285.941 11.2973L285.412 10.6872V11.2725C285.412 11.5944 285.303 11.7904 285.17 11.7082C285.037 11.6259 284.872 11.7082 284.804 11.891C284.73 12.0874 284.574 11.9567 284.424 11.5717L284.168 10.9201L283.855 11.5056C283.683 11.8276 283.308 12.0911 283.022 12.0911C282.736 12.0911 282.494 12.2399 282.484 12.4218C282.474 12.6037 282.337 12.4846 282.179 12.1572C281.814 11.4012 281.491 11.4012 281.187 12.1572C281.004 12.6133 280.944 12.6443 280.931 12.2895C280.91 11.7189 280.732 11.706 280.202 12.2366C279.976 12.4622 279.598 12.6067 279.361 12.5577C279.124 12.5088 278.785 12.6516 278.608 12.8752C278.32 13.2384 278.284 13.2359 278.277 12.8518C278.267 12.3603 276.948 12.2297 276.941 12.7196C276.938 12.8833 276.822 12.8386 276.681 12.6203C276.519 12.3693 276.423 12.342 276.42 12.5458C276.417 12.7232 276.238 12.7997 276.02 12.716C275.801 12.6322 275.623 12.3978 275.623 12.1951C275.623 11.9924 275.444 11.8265 275.226 11.8265C275.007 11.8265 274.829 11.9981 274.829 12.2078C274.829 12.8754 274.304 12.9418 274.05 12.3066C273.915 11.9698 273.797 11.8431 273.787 12.025C273.76 12.5698 273.242 12.3989 272.985 11.7604C272.747 11.1674 272.746 11.1676 272.725 11.8265C272.714 12.1903 272.589 12.6666 272.448 12.8849C272.248 13.1941 272.19 13.1211 272.187 12.5541C272.183 11.8552 271.666 11.479 271.642 12.1573C271.635 12.3392 271.466 12.1308 271.267 11.6943L270.903 10.9005L270.882 11.7604C270.857 12.76 270.083 13.0031 270.04 12.025C270.015 11.4539 270.005 11.4565 269.802 12.0911C269.685 12.4549 269.576 12.6334 269.56 12.4879C269.543 12.3424 269.414 12.4019 269.273 12.6202C269.121 12.8553 269.015 12.8894 269.012 12.7039C269.009 12.5148 268.746 12.4382 268.347 12.5107C267.85 12.6008 267.68 12.5137 267.664 12.1624C267.649 11.8223 267.603 11.7961 267.496 12.0665C267.396 12.3208 267.241 12.195 267.009 11.6696C266.823 11.2466 266.66 11.0563 266.648 11.2468C266.636 11.4373 266.508 11.5196 266.362 11.4296C266.212 11.3365 266.086 11.5863 266.071 12.0093L266.045 12.7525L265.833 12.0911C265.655 11.5356 265.616 11.5145 265.586 11.9588C265.553 12.4365 265.513 12.4236 265.172 11.8265C264.964 11.4627 264.789 11.3337 264.784 11.5399C264.779 11.746 264.7 11.8395 264.608 11.7476C264.516 11.6557 264.218 11.6996 263.946 11.8451C263.533 12.0665 263.447 12.011 263.424 11.5051C263.405 11.0771 263.301 11.2081 263.071 11.9531L262.746 13.0058L262.55 12.2242L262.354 11.4426L261.85 12.0976C261.511 12.5388 261.344 12.623 261.337 12.3557C261.328 12.0029 261.299 12.0029 261.071 12.3557C260.908 12.6067 260.813 12.634 260.81 12.4301C260.808 12.2527 260.627 12.1762 260.409 12.2599C260.18 12.348 260.004 12.2608 259.994 12.0532C259.983 11.8469 259.894 11.8995 259.785 12.1768C259.68 12.4422 259.494 12.6404 259.37 12.6172C259.246 12.594 259.045 12.734 258.921 12.9283C258.74 13.214 258.697 13.2154 258.693 12.9353C258.691 12.7449 258.57 12.6626 258.425 12.7525C258.279 12.8424 258.16 12.7899 258.16 12.6358C258.16 12.1531 257.368 12.331 257.346 12.8186C257.333 13.0953 257.271 13.1485 257.191 12.9509C257.025 12.5401 255.514 12.5097 255.514 12.9172C255.514 13.1224 255.392 13.1124 255.117 12.8848C254.899 12.7037 254.721 12.3914 254.721 12.191C254.721 11.6526 254.195 11.7473 254.173 12.2895C254.158 12.6685 254.122 12.6805 253.974 12.3556C253.689 11.7265 253.136 11.7685 253.102 12.4217C253.077 12.903 253.032 12.865 252.869 12.2232C252.712 11.6062 252.66 11.5585 252.635 12.0092C252.588 12.8888 252.079 13.0307 252.048 12.1727C252.027 11.563 251.991 11.5246 251.85 11.9587C251.601 12.7236 249.694 12.8529 249.694 12.1049C249.694 11.3624 249.171 11.1524 249.127 11.8769C249.106 12.2241 249.007 12.031 248.9 11.4295L248.71 10.3712L248.652 11.4295C248.62 12.0116 248.533 12.339 248.46 12.1571C248.274 11.6964 247.841 11.7427 247.841 12.2232C247.841 12.7243 247.343 12.7431 247.153 12.2493C247.075 12.0454 246.781 11.8184 246.5 11.7449C246.127 11.6474 245.989 11.7479 245.989 12.1157C245.989 12.9158 245.462 12.701 245.442 11.8925C245.429 11.4137 245.362 11.3006 245.243 11.5618C245.005 12.0878 244.373 12.2052 244.099 11.7742C243.947 11.5339 243.88 11.6113 243.877 12.03C243.874 12.5254 243.757 12.6095 243.211 12.5105C242.746 12.426 242.55 12.5085 242.55 12.7888C242.55 13.1407 242.504 13.1414 242.158 12.7948C241.933 12.5707 241.525 12.4655 241.204 12.5493C240.874 12.6358 240.548 12.5443 240.41 12.3273C240.267 12.1011 240.175 12.0774 240.173 12.2659C240.168 12.6649 239.304 12.5399 239.164 12.1199C239.091 11.9009 238.933 11.9505 238.67 12.2753C238.391 12.6198 238.245 12.6605 238.146 12.4216C237.961 11.9788 237.646 12.0049 237.147 12.5046C236.692 12.9593 236.2 12.8049 236.2 12.2076C236.2 11.7204 235.999 11.7249 235.501 12.2232C234.883 12.8408 234.673 12.7046 234.48 11.5606C234.264 10.2821 233.819 10.4181 233.819 11.7625C233.819 12.7465 233.457 12.7055 233.213 11.694C233.099 11.2174 233.083 11.2242 233.056 11.7624C233.028 12.2921 232.965 12.3224 232.496 12.0295C232.126 11.7984 231.953 11.3801 231.922 10.6382L231.878 9.57737L231.775 10.5425C231.704 11.215 231.521 11.5474 231.171 11.6389C230.728 11.7546 230.657 11.5915 230.574 10.277L230.479 8.78361L230.427 10.5034C230.377 12.1684 230.364 12.2001 229.997 11.498C229.789 11.0991 229.571 10.3848 229.512 9.9105C229.445 9.37132 229.389 9.61243 229.363 10.5539C229.318 12.1537 228.977 12.7388 228.661 11.7572C228.479 11.1913 228.465 11.1885 228.331 11.694L228.191 12.2232L227.981 11.694C227.781 11.1924 227.769 11.1958 227.752 11.7601C227.73 12.4557 227.213 12.5765 227.185 11.8924C227.17 11.5005 227.135 11.5107 226.96 11.9585C226.76 12.4708 226.747 12.4687 226.564 11.8924C226.351 11.2225 225.881 11.086 225.881 11.694C225.881 11.9123 225.762 12.0908 225.616 12.0908C225.471 12.0908 225.338 11.5848 225.321 10.9663C225.293 9.9823 225.268 9.93829 225.122 10.6138C224.914 11.5768 224.373 11.7965 224.218 10.9816C224.142 10.5853 224.088 10.7192 224.065 11.3632C224.015 12.7363 223.643 12.6047 223.316 11.0986L223.043 9.84187L222.976 11.0325C222.912 12.1442 222.895 12.1706 222.706 11.4294L222.504 10.6356L222.473 11.4955C222.442 12.3538 222.076 12.6509 221.822 12.0247C221.727 11.7902 221.624 11.7783 221.469 11.984C221.349 12.1435 220.923 12.3541 220.523 12.452C220.123 12.5499 219.796 12.7511 219.796 12.899C219.796 13.0719 219.597 13.0616 219.239 12.8702C218.934 12.7064 218.457 12.6316 218.181 12.7038C217.905 12.776 217.671 12.6978 217.66 12.5292C217.65 12.3609 217.539 12.4613 217.414 12.7524C217.289 13.0434 217.179 13.1247 217.168 12.933C217.156 12.707 216.964 12.6435 216.621 12.7524C216.198 12.8865 216.088 12.7969 216.073 12.3072C216.055 11.7287 216.041 11.724 215.827 12.2232C215.702 12.5142 215.588 12.6333 215.573 12.4878C215.558 12.3422 215.428 12.4266 215.283 12.6752C214.971 13.2106 214.243 13.0156 214.231 12.3933C214.224 12.0177 214.171 12.026 213.847 12.4548C213.64 12.7286 213.295 12.8835 213.079 12.8004C212.863 12.7176 212.632 12.7924 212.567 12.9656C212.501 13.1394 212.327 12.9839 212.179 12.6201C211.948 12.0503 211.885 12.0221 211.726 12.4168C211.587 12.7613 211.424 12.8127 211.072 12.6239C210.814 12.4858 210.351 12.4213 210.044 12.4805C209.71 12.5448 209.38 12.4081 209.225 12.141C209.032 11.8103 208.962 11.7915 208.956 12.0688C208.951 12.275 208.87 12.3662 208.775 12.2714C208.681 12.1767 208.461 12.294 208.287 12.5321C207.997 12.9282 207.925 12.9202 207.443 12.438C206.916 11.9116 206.915 11.9117 206.37 12.5235C205.917 13.0319 205.798 13.0669 205.668 12.729C205.582 12.5051 205.4 12.3909 205.264 12.4753C205.127 12.5597 204.937 12.5019 204.841 12.3469C204.735 12.1743 204.548 12.1578 204.36 12.3044C203.759 12.7722 202.862 12.8565 202.862 12.4451C202.862 12.1802 202.698 12.1072 202.351 12.2174C201.922 12.3538 201.799 12.1981 201.586 11.2431C201.41 10.4593 201.32 10.3118 201.295 10.768C201.275 11.1318 201.083 11.6605 200.87 11.943C200.516 12.4104 200.478 12.2794 200.446 10.4878C200.413 8.68703 200.395 8.62616 200.235 9.77458C200.139 10.4651 199.917 11.1735 199.741 11.3488C199.566 11.5241 199.423 11.8889 199.423 12.1594C199.423 12.4299 199.304 12.5777 199.158 12.4877C199.013 12.3978 198.876 11.5871 198.854 10.6862C198.815 9.10068 198.809 9.08632 198.651 10.2388L198.489 11.4294L198.238 10.2388L197.987 9.04817L197.897 10.4372C197.848 11.2012 197.695 11.8263 197.557 11.8263C197.419 11.8263 197.306 12.0872 197.306 12.406C197.306 12.9726 197.297 12.9741 196.918 12.4721C196.704 12.1896 196.508 11.6013 196.483 11.1648C196.442 10.4582 196.416 10.4872 196.248 11.4294C196.119 12.1483 196.045 12.2756 196.017 11.8262C195.984 11.3093 195.921 11.2498 195.729 11.554C195.453 11.9902 195.415 11.963 194.995 11.0325C194.704 10.3891 194.696 10.397 194.678 11.3191C194.668 11.8406 194.589 12.3384 194.502 12.4254C194.194 12.7334 193.601 12.2908 193.574 11.7318C193.549 11.2416 193.506 11.2655 193.253 11.9078L192.96 12.6508L192.651 11.6432L192.342 10.6356L192.143 11.5047C192.034 11.9827 191.883 12.3119 191.807 12.2364C191.732 12.1608 191.513 12.3055 191.321 12.558C191.088 12.8648 190.97 12.902 190.964 12.6705C190.96 12.48 190.844 12.3933 190.707 12.4779C190.571 12.5624 190.304 12.4663 190.115 12.2642C189.823 11.9511 189.73 11.9546 189.486 12.2877C189.237 12.6292 189.144 12.6224 188.755 12.2335C188.338 11.8164 188.31 11.8229 188.31 12.3364C188.31 12.6379 188.191 12.8845 188.046 12.8845C187.9 12.8845 187.781 12.5974 187.781 12.2465C187.781 11.7882 187.651 11.6284 187.318 11.6793C187.04 11.7219 186.786 11.5279 186.683 11.1928C186.551 10.7645 186.505 10.8448 186.485 11.5396C186.451 12.6934 186.241 12.4826 185.95 11.0028L185.722 9.84181L185.693 10.9987C185.669 11.965 185.603 12.1043 185.29 11.8445C184.992 11.5976 184.889 11.6318 184.791 12.0106C184.691 12.3962 184.662 12.3765 184.637 11.9079C184.595 11.1173 184.078 10.8461 184.073 11.6121C184.07 12.1036 184.019 12.1455 183.812 11.8262C183.603 11.5025 183.555 11.5345 183.552 11.9998C183.549 12.4394 183.426 12.5386 183.019 12.432C182.728 12.3559 182.488 12.1587 182.485 11.9938C182.483 11.8138 182.391 11.8369 182.255 12.0516C182.077 12.3318 181.935 12.2761 181.597 11.7943L181.166 11.1793V11.919C181.166 12.9447 180.305 12.7644 180.075 11.6907C179.921 10.9692 179.903 10.958 179.871 11.5616C179.844 12.0586 179.777 12.1302 179.599 11.8494C179.416 11.5602 179.335 11.6199 179.24 12.114L179.117 12.7522L178.907 12.1049C178.711 11.5021 178.683 11.493 178.495 11.9726C178.323 12.4118 178.291 12.3827 178.275 11.7756C178.251 10.8672 177.727 10.506 177.727 11.3981C177.727 11.7619 177.608 12.1331 177.462 12.2231C177.317 12.313 177.198 12.1452 177.198 11.8501C177.198 11.1524 176.524 11.3884 176.27 12.1752C176.098 12.708 176.073 12.7138 175.952 12.2508C175.88 11.975 175.744 11.8674 175.65 12.0116C175.555 12.1559 175.151 12.354 174.75 12.4519C174.169 12.5942 174.017 12.536 173.992 12.162C173.963 11.7217 173.954 11.7214 173.841 12.156C173.742 12.5342 173.621 12.5652 173.176 12.3271C172.776 12.1129 172.583 12.1164 172.444 12.3406C172.217 12.7085 171.768 12.2414 171.568 11.4293C171.479 11.065 171.429 11.1543 171.408 11.7159C171.382 12.393 171.276 12.5227 170.782 12.4796C170.454 12.451 170.037 12.545 169.856 12.6885C169.604 12.8868 169.515 12.7037 169.482 11.9248C169.443 10.9813 169.432 10.9665 169.335 11.7376C169.193 12.8712 168.598 13.048 168.196 12.0764C167.824 11.1793 167.408 11.2867 167.408 12.2797C167.408 12.9498 167.395 12.9549 166.879 12.4877C166.551 12.1905 166.35 12.1307 166.35 12.33C166.35 12.5067 166.231 12.5776 166.085 12.4877C165.94 12.3978 165.821 12.0803 165.821 11.7823C165.821 11.4043 165.698 11.2875 165.415 11.396C165.142 11.5007 164.914 11.3156 164.715 10.829C164.42 10.1072 164.419 10.1077 164.158 11.297C164.014 11.9519 163.841 12.3325 163.773 12.1429C163.683 11.8879 163.556 11.9223 163.289 12.2752C162.955 12.7158 162.926 12.6967 162.919 12.0246C162.914 11.6245 162.791 11.297 162.646 11.297C162.5 11.297 162.381 11.4841 162.381 11.7128C162.381 11.9415 162.202 12.3072 161.984 12.5255C161.631 12.8782 161.586 12.8688 161.579 12.4405C161.571 11.9938 161.541 11.9972 161.172 12.4865C160.829 12.9393 160.737 12.9581 160.523 12.6188C160.365 12.369 160.271 12.3421 160.268 12.5456C160.266 12.7229 160.086 12.7994 159.868 12.7157C159.576 12.6039 159.459 12.0955 159.428 10.8058C159.405 9.83908 159.344 9.46484 159.293 9.97416C159.069 12.2242 158.942 12.5897 158.421 12.4893C158.144 12.436 157.78 12.5582 157.611 12.761C157.351 13.0745 157.21 13.0671 156.667 12.7112C156.173 12.3877 155.944 12.3628 155.656 12.6015C155.402 12.8127 155.23 12.8226 155.113 12.6329C154.851 12.2093 153.914 12.3026 153.914 12.7523C153.914 13.2699 153.413 13.2651 153.214 12.7453C153.093 12.4295 152.977 12.4093 152.685 12.6523C152.39 12.8965 152.236 12.8611 151.962 12.4863C151.77 12.2242 151.476 12.0945 151.309 12.1981C151.14 12.3022 150.992 12.2315 150.978 12.0401C150.963 11.8496 150.856 11.9914 150.739 12.3552C150.529 13.0114 150.527 13.0118 150.501 12.4024C150.477 11.8425 150.438 11.8252 150.057 12.2064C149.52 12.7428 149.16 12.5142 149.121 11.6119L149.089 10.8999L148.887 11.6937C148.776 12.1303 148.659 12.3088 148.628 12.0906C148.595 11.8673 148.477 11.983 148.358 12.3551L148.146 13.0166L148.12 12.3046C148.084 11.3316 147.716 11.1811 147.295 11.9673C146.93 12.6499 146.244 12.8584 146.237 12.289C146.234 12.033 146.187 12.0307 146.03 12.279C145.722 12.7633 144.699 12.3799 144.573 11.7328C144.484 11.2782 144.454 11.31 144.425 11.8921C144.384 12.7379 143.985 12.8611 143.784 12.0905C143.595 11.3707 143.067 11.4191 143.062 12.1566C143.059 12.638 143.009 12.676 142.802 12.3551C142.616 12.0667 142.544 12.0528 142.541 12.3045C142.539 12.495 142.418 12.5773 142.273 12.4874C142.127 12.3975 142.006 12.4794 142.004 12.6702C142.001 12.9503 141.957 12.9489 141.776 12.6632C141.653 12.4689 141.446 12.3431 141.317 12.3836C141.188 12.4242 141.007 12.1069 140.915 11.6786C140.759 10.9514 140.746 10.9441 140.717 11.5687C140.677 12.4226 139.746 13.3118 139.517 12.715C139.434 12.4986 139.246 12.3956 139.1 12.4862C138.947 12.5808 138.823 12.3346 138.809 11.9077C138.786 11.1911 138.775 11.1977 138.497 12.0905L138.208 13.0165L138.026 12.0905C137.86 11.2457 137.841 11.2296 137.81 11.9077C137.79 12.3164 137.664 12.5826 137.529 12.4991C137.394 12.4156 137.238 12.6169 137.182 12.9465C137.094 13.4622 137.039 13.4166 136.79 12.6196C136.63 12.1103 136.489 11.9158 136.476 12.1875C136.458 12.5469 136.308 12.6437 135.923 12.543C135.632 12.4669 135.394 12.5118 135.394 12.6428C135.394 12.9061 134.642 12.8456 134.158 12.5435C133.988 12.4372 133.661 12.5385 133.431 12.7685C133.201 12.9985 133.012 13.062 133.012 12.9097C133.012 12.7247 132.796 12.7151 132.36 12.8807C132.002 13.0171 131.651 13.0366 131.582 12.9241C131.47 12.7438 130.454 12.7247 129.705 12.889C129.068 13.0288 128.778 12.8436 128.767 12.289C128.756 11.7621 128.713 11.7849 128.392 12.4875L128.028 13.2812L128.007 12.4057C127.995 11.9241 127.876 11.5975 127.743 11.6797C127.61 11.7619 127.441 11.6797 127.367 11.4969C127.294 11.3141 127.22 11.4026 127.204 11.6937C127.172 12.2754 126.398 13.4521 126.398 12.9193C126.398 12.7374 126.289 12.6558 126.156 12.7381C126.023 12.8204 125.853 12.7381 125.78 12.5552C125.704 12.3663 125.637 12.4366 125.625 12.7183C125.608 13.1282 125.535 13.1568 125.207 12.8843C124.989 12.7032 124.808 12.6588 124.806 12.7858C124.804 12.9128 124.69 12.8386 124.552 12.6211C124.338 12.2817 124.245 12.3005 123.903 12.7534C123.518 13.263 123.503 13.2539 123.46 12.4875C123.423 11.8317 123.395 11.7999 123.299 12.3043C123.143 13.1192 122.603 12.8995 122.394 11.9365L122.227 11.1646L122.196 12.0245C122.16 13.0079 121.721 13.1629 121.404 12.3043C121.199 11.7504 121.18 11.7588 120.997 12.4889C120.892 12.9095 120.724 13.1304 120.625 12.9797C120.352 12.5649 119.257 12.3526 119.237 12.7107C119.228 12.879 119.096 12.7187 118.945 12.3552C118.682 11.725 118.659 11.7188 118.451 12.2229L118.233 12.7521L118.193 12.2229C118.16 11.7956 118.083 11.8465 117.789 12.4875C117.589 12.9241 117.42 13.1537 117.414 12.9979C117.401 12.7001 115.662 12.6838 115.367 12.9788C115.273 13.073 114.992 12.9656 114.743 12.7401C114.348 12.3826 114.241 12.3791 113.907 12.7124C113.617 13.0028 113.244 13.0433 112.356 12.8809C111.69 12.7592 111.123 12.7694 111.039 12.9046C110.953 13.0445 110.554 13.0451 110.069 12.9056C109.476 12.7353 109.1 12.7718 108.722 13.0364C108.272 13.3513 108.152 13.3478 107.873 13.0113C107.443 12.4938 106.904 12.5141 106.599 13.0593C106.382 13.4468 106.33 13.4288 106.165 12.9078C106.059 12.5757 105.828 12.3738 105.636 12.4472C105.449 12.5191 105.169 12.4512 105.013 12.2958C104.814 12.0959 104.677 12.23 104.545 12.7551C104.375 13.4319 104.33 13.4562 104.021 13.0339C103.609 12.4708 102.594 12.7016 102.567 13.3647C102.552 13.7236 102.508 13.7085 102.344 13.2866C102.109 12.6868 101.012 12.5654 100.596 13.0933C100.383 13.3649 100.206 13.322 99.7365 12.8845C99.4115 12.5818 99.1373 12.428 99.1271 12.5428C99.1168 12.6576 99.0061 12.5134 98.8811 12.2224C98.6796 11.7535 98.6516 11.7761 98.6351 12.4208C98.6233 12.8829 98.4717 13.1484 98.2196 13.1484C98.0013 13.1484 97.8227 13.0252 97.8227 12.8746C97.8227 12.6981 97.658 12.6866 97.3597 12.8421C96.7415 13.1646 95.5965 13.0773 95.106 12.6702C94.784 12.4029 94.6793 12.4201 94.5482 12.7615C94.4489 13.0203 94.259 13.1018 94.0543 12.9734C93.5613 12.6644 92.5311 12.5666 92.5311 12.8289C92.5311 12.9542 92.1739 13.0043 91.7373 12.9403C91.3008 12.8762 90.9436 12.7 90.9436 12.5487C90.9436 12.3974 90.7161 12.5359 90.4381 12.8565C90.1601 13.177 89.8624 13.3256 89.7766 13.1867C89.6907 13.0477 89.0847 12.9585 88.4299 12.9884C87.6014 13.0262 87.2394 12.9382 87.2394 12.6987C87.2394 12.199 86.7999 12.2771 86.5698 12.8177C86.3999 13.217 86.3451 13.1898 86.171 12.6192C86.0437 12.202 85.9595 12.1256 85.9429 12.4125C85.926 12.7033 85.7734 12.8123 85.5196 12.7149C85.3013 12.6311 85.1227 12.6944 85.1227 12.8555C85.1227 13.3179 84.3834 13.1966 84.0856 12.6854C83.9373 12.4307 83.8123 12.3607 83.8079 12.5298C83.8034 12.7001 83.5017 12.8045 83.1316 12.7639C82.764 12.7235 82.3729 12.8521 82.2624 13.0496C82.1029 13.3346 81.9867 13.305 81.6991 12.906C81.4015 12.4931 81.2259 12.4538 80.7162 12.686C80.3749 12.8415 80.0957 13.0772 80.0957 13.2098C80.0957 13.3423 79.9086 13.2637 79.6799 13.035C79.2095 12.5647 78.5082 12.4797 78.5082 12.8931C78.5082 13.076 78.3267 13.0699 77.9621 12.8747C77.5567 12.6578 77.3181 12.6638 77.036 12.8978C76.7417 13.1421 76.5692 13.1411 76.2708 12.8938C75.8149 12.5155 75.3332 12.7432 75.3332 13.3372C75.3332 13.6563 75.1957 13.6042 74.7684 13.1231C74.4042 12.7132 74.1625 12.6014 74.088 12.8085C73.9974 13.0604 73.8481 13.0604 73.3961 12.8085C73.079 12.6319 72.7321 12.3683 72.6252 12.2228C72.5122 12.069 72.4291 12.1311 72.4268 12.3713C72.4236 12.6969 72.0864 12.7891 70.8352 12.8066C69.3849 12.8269 69.2467 12.7798 69.2358 12.2612C69.2246 11.7295 69.2037 11.7354 68.9051 12.355C68.4678 13.2622 66.7233 13.4189 66.4555 12.575C66.3168 12.1382 66.2303 12.0981 66.0479 12.3862C65.8702 12.6667 65.8139 12.6287 65.8062 12.2227C65.7986 11.8226 65.6931 11.9024 65.374 12.5498C64.9448 13.4203 64.4885 13.4818 64.4812 12.6701C64.4782 12.2914 64.4393 12.2825 64.231 12.6119C64.0956 12.826 63.9 12.9163 63.7964 12.8127C63.6927 12.709 63.4557 12.7505 63.2697 12.9049C63.0308 13.1031 62.7713 13.0997 62.3855 12.8933C61.9799 12.6762 61.8394 12.6798 61.8394 12.9073C61.8394 13.129 61.7298 13.1226 61.4425 12.8842C61.1488 12.6404 60.9534 12.6314 60.6906 12.8495C60.4953 13.0115 60.2537 13.0623 60.1538 12.9624C59.8554 12.6641 59.1936 12.6458 59.1936 12.9359C59.1936 13.086 58.9885 13.1241 58.7305 13.022C57.9028 12.6941 57.3415 12.6446 57.3415 12.8994C57.3415 13.0365 57.1629 13.1488 56.9446 13.1488C56.7263 13.1488 56.5459 12.9999 56.5437 12.818C56.5407 12.5656 56.492 12.5623 56.3383 12.804C56.21 13.0058 55.9986 13.0353 55.7559 12.8853C55.5257 12.7431 55.2471 12.7559 55.0522 12.9176C54.8337 13.0989 54.5592 13.0943 54.2026 12.9034C53.9128 12.7483 53.4884 12.6933 53.2596 12.7811C53.0079 12.8777 52.842 12.7989 52.8395 12.5817C52.8365 12.3371 52.7735 12.3167 52.6411 12.5177C52.3814 12.9118 51.2561 13.2509 51.2561 12.935C51.2561 12.5477 49.9813 12.6414 49.8284 13.04C49.7158 13.3335 49.5689 13.3302 48.9719 13.0205C48.5756 12.8148 48.1478 12.7106 48.0212 12.7888C47.5946 13.0525 38.4331 13.0922 37.9391 12.8325C37.5797 12.6436 37.3709 12.6919 37.1314 13.0194C36.8379 13.4207 36.7768 13.4229 36.4616 13.0432C36.2709 12.8133 35.9915 12.7015 35.8408 12.7947C35.428 13.0498 34.2511 13.0609 33.7235 12.8147C33.3995 12.6634 33.2088 12.7212 33.1005 13.0035C33.0147 13.2272 32.8361 13.3433 32.7037 13.2615C32.3168 13.0224 29.5602 12.9811 29.5602 13.2144C29.5602 13.3312 29.203 13.2422 28.7665 13.0164C28.3299 12.7906 27.9727 12.7027 27.9727 12.821C27.9727 13.2116 26.8058 13.1324 26.3391 12.7101C25.9168 12.3279 25.8668 12.3522 25.6986 13.0225L25.5161 13.7495L25.1946 13.1488C24.9854 12.7578 24.8082 12.6532 24.687 12.8491C24.5606 13.0538 23.6583 13.1157 21.8712 13.0425C20.4249 12.9832 19.2415 13.0259 19.2415 13.1373C19.2415 13.2487 18.9438 13.283 18.58 13.2134C18.2162 13.1439 17.9186 12.9818 17.9186 12.8532C17.9186 12.7247 17.7995 12.6195 17.654 12.6195C17.5085 12.6195 17.3894 12.8758 17.3894 13.1891V13.7588L16.8954 13.1891C16.2383 12.4315 14.7515 12.3998 14.5581 13.1391C14.4405 13.5889 14.3715 13.6081 14.0452 13.2818C13.7951 13.0317 13.248 12.9345 12.4199 12.9931C11.7334 13.0417 11.0966 12.9636 11.0048 12.8197C10.895 12.6475 10.6784 12.6472 10.3719 12.8187C9.74925 13.1671 8.92707 12.927 8.90483 12.3902C8.89133 12.0645 8.81983 12.0964 8.61481 12.5197C8.3781 13.0083 8.21691 13.0531 7.37618 12.8634C6.80356 12.7343 6.30712 12.748 6.15807 12.897C5.72343 13.3317 5.46553 13.1763 5.14825 12.2887L4.84088 11.4288L4.69638 12.2226C4.55277 13.0115 4.54091 13.0164 2.75528 13.0238C1.76715 13.0278 0.847178 12.9623 0.710908 12.878C0.567038 12.7891 0.432411 8.90255 0.389871 3.61018C0.349571 -1.4029 0.315972 3.06801 0.315072 13.5455C0.314072 26.2068 0.359669 29.4709 0.450959 23.2784C0.557389 16.0605 0.660814 14.0062 0.909974 14.1603L0.909959 14.1591Z" fill="black"/>
</svg>
