<svg width="1178" height="150" viewBox="0 0 1178 150" fill="none" xmlns="http://www.w3.org/2000/svg">
<path d="M444.132 125.29C444.045 111.816 444.069 100.266 444.187 99.6216C444.305 98.9773 443.47 98.8263 442.333 99.286C441.195 99.7457 439.464 100.448 438.486 100.846C437.095 101.413 436.391 97.3032 435.252 81.9526C434.452 71.1625 433.44 61.9774 433.004 61.5412C431.246 59.7837 430.469 63.0909 429.389 76.9182C428.767 84.8815 427.854 94.3312 427.359 97.9175C426.46 104.437 426.46 104.438 421.953 103.707L417.446 102.975V108.931C417.446 114.389 417.165 114.887 414.09 114.887H410.734L410.64 98.444C410.58 88.0072 410.124 82.9816 409.392 84.6856C408.758 86.1621 408.196 89.4414 408.144 91.9729C407.987 99.6217 405.209 105.662 402.056 105.211C399.527 104.849 399.275 103.628 398.654 88.7125C398.011 73.2727 397.943 72.9667 397.008 81.3299C396.472 86.1285 395.695 96.699 395.281 104.82C393.942 131.104 393.451 133.679 389.775 133.679C386.804 133.679 386.574 133.167 386.574 126.565C386.574 122.652 385.819 118.696 384.896 117.775C383.705 116.585 383.023 107.842 382.547 87.6403L381.876 59.1822L380.092 88.5437C379.11 104.692 377.989 118.736 377.599 119.752C376.475 122.681 371.86 121.908 370.595 118.578C369.965 116.917 369.045 108.31 368.552 99.4507C367.56 81.6454 366.931 75.9118 365.308 69.9205C364.31 66.2348 364.141 66.5379 363.317 73.4976C362.101 83.757 361.326 85.3567 357.571 85.3567C354.733 85.3567 354.359 84.748 354.359 80.1312C354.359 76.7246 353.658 74.6368 352.346 74.1331C351.238 73.7081 350.24 74.0967 350.128 74.9962C350.015 75.8958 349.825 77.2359 349.706 77.9742C349.586 78.7124 349.055 88.6789 348.525 100.122C347.264 127.365 346.695 130.994 343.685 130.994C340.908 130.994 339.594 124.1 339.594 109.527C339.594 97.3252 338.11 83.9437 336.843 84.7266C334.516 86.1651 331.561 83.476 330.757 79.1869C329.889 74.5604 327.144 72.6402 327.584 76.9675C327.715 78.2594 327.753 89.1319 327.668 101.129L327.514 122.941H324.388C321.289 122.941 321.247 122.726 319.517 97.8924C317.684 71.5797 315.99 56.8611 315.448 62.5379C315.271 64.3836 314.743 73.746 314.274 83.3433L313.42 100.793L308.738 100.56C302.884 100.269 302.057 101.581 302.031 111.196C302.012 118.528 301.843 118.914 298.655 118.914C295.423 118.914 295.299 118.595 295.299 110.278C295.299 101.855 295.208 101.632 291.608 101.218C288.082 100.812 287.902 100.432 287.585 92.7393C286.98 78.0748 286.274 75.9608 281.987 75.9608C278.598 75.9608 278.101 76.5346 277.334 81.3299C276.599 85.9253 275.994 86.699 273.136 86.699C270.725 86.699 269.796 85.9746 269.796 84.0937C269.796 82.6607 269.192 81.115 268.454 80.6588C267.616 80.141 267.112 82.85 267.112 87.8662C267.112 93.5263 266.46 96.5545 264.91 98.1051C263.699 99.3162 262.317 102.228 261.84 104.577C261.221 107.62 260.119 108.97 258.001 109.276C255.472 109.641 255.006 109.043 254.863 105.249C254.519 96.1112 252.549 112.442 252.446 125.29C252.347 137.612 252.321 137.706 248.991 137.706C245.85 137.706 245.629 137.255 245.538 130.659C245.485 126.783 245.214 121.498 244.936 118.914C244.658 116.33 244.019 105.22 243.516 94.2253C242.467 71.3165 240.664 70.5652 238.307 92.056C237.091 103.146 236.563 104.861 234.226 105.299C232.749 105.575 231.168 106.393 230.712 107.116C230.256 107.839 229.49 106.863 229.009 104.947C228.528 103.032 227.24 101.464 226.147 101.464C224.632 101.464 224.159 99.7068 224.159 94.0816C224.159 88.6908 223.658 86.699 222.302 86.699C220.357 86.699 218.839 90.6349 218.808 95.7594C218.794 98.0812 218.014 98.7796 215.434 98.7796C212.413 98.7796 212.058 98.2114 211.877 93.0749C211.736 89.0694 211.51 88.4697 211.117 91.0615C210.683 93.9239 209.824 94.7527 207.291 94.7527C205.342 94.7527 204.025 93.9727 204.025 92.8185C204.025 91.7547 203.371 90.4803 202.572 89.9865C201.603 89.3875 201.198 91.0366 201.354 94.9408C201.483 98.1595 201.533 104.266 201.465 108.511C201.349 115.714 201.127 116.229 198.14 116.229H194.94L193.958 89.3836L192.975 62.5379H189.733C187.95 62.5379 186.247 63.293 185.948 64.2158C185.649 65.1386 184.995 83.2594 184.494 104.484L183.584 143.075H180.382C177.396 143.075 177.179 142.577 177.179 135.717C177.179 131.671 176.558 124.271 175.8 119.274C175.041 114.277 173.965 102.035 173.409 92.0681L172.398 73.9473L170.616 84.0144C167.777 100.055 166.684 102.806 163.149 102.806C159.359 102.806 158.637 99.8631 157.469 79.652C157.01 71.7158 156.216 65.2225 155.704 65.2225C155.191 65.2225 154.288 75.0379 153.695 87.0346C152.81 104.967 152.201 116.635 151.735 124.619C151.703 125.172 150.166 125.625 148.32 125.625H144.965V104.932C144.965 92.16 144.444 84.0648 143.606 83.7852C142.858 83.5361 141.7 80.0126 141.032 75.9552C140.363 71.8979 139.078 66.7661 138.175 64.5514L136.533 60.5245L135.531 65.2225C134.98 67.8064 134.114 77.4654 133.607 86.6869C133.1 95.9085 132.578 103.553 132.449 103.675C132.319 103.798 129.344 104.325 125.837 104.847C119.943 105.724 119.461 105.582 119.461 102.959C119.461 101.089 118.611 100.122 116.968 100.122C114.902 100.122 114.327 98.7066 113.612 91.8713C113.138 87.3334 112.685 81.4442 112.606 78.784L112.463 73.9473L111.18 79.6791C110.474 82.8316 109.331 85.0611 108.639 84.6335C107.931 84.1961 107.377 86.3862 107.373 89.6399C107.368 92.8211 106.975 100.437 106.498 106.564C105.694 116.886 105.423 117.675 102.814 117.303C100.241 116.935 99.8977 115.66 98.8268 102.471C97.6925 88.5017 97.5533 88.0413 94.4644 88.0413C91.8442 88.0413 91.2737 87.3507 91.2737 84.1788C91.2737 79.5029 88.01 76.0628 86.7325 79.392C86.2772 80.5786 85.9046 84.5992 85.9046 88.3267V95.104L80.8711 94.272C78.1026 93.8144 75.1497 93.4333 74.3091 93.4252C73.4684 93.417 72.3907 91.1453 71.9142 88.3769C69.6419 75.1758 69.8122 75.5312 66.9857 78.0892C65.4416 79.4866 64.4282 82.1827 64.4282 84.8936C64.4282 88.7881 63.9832 89.3836 61.0726 89.3836C59.2269 89.3836 57.7169 88.7796 57.7169 88.0413C57.7169 87.303 56.8109 86.699 55.7035 86.699C54.3298 86.699 53.6854 88.0852 53.6753 91.0615C53.6671 93.4608 53.2861 97.689 52.8285 100.457C52.1597 104.504 51.415 105.491 49.0313 105.491C46.7658 105.491 45.7129 104.303 44.5692 100.457C43.3427 96.3332 41.7745 79.4477 41.6397 68.9138C41.6229 67.6218 41.0056 66.5648 40.2674 66.5648C39.5291 66.5648 38.9184 69.7359 38.9103 73.6118C38.8865 85.0601 37.5581 90.7259 34.8983 90.7259C32.288 90.7259 30.9113 96.3683 30.8862 107.169C30.8725 113.071 30.6221 113.545 27.5158 113.545C24.5756 113.545 24.1601 112.963 24.1601 108.847C24.1601 105.566 23.5529 104.149 22.1467 104.149C20.5912 104.149 20.1317 102.393 20.1263 96.4306C20.1142 83.179 18.4338 62.5379 17.3668 62.5379C16.8062 62.5379 15.9129 67.8232 15.3819 74.2829C14.8508 80.7426 13.8229 86.4073 13.0977 86.8711C12.3725 87.3349 11.246 92.9746 10.5943 99.4038C9.94266 105.833 9.0686 111.645 8.65195 112.319C7.18517 114.692 2.99484 113.537 2.14098 110.525C1.67024 108.863 0.898928 87.9419 0.426967 64.0322C-0.305047 26.9479 -0.152981 20.6523 1.46189 21.1883C3.4899 21.8614 4.49707 29.4856 5.83759 54.3117C6.53835 67.2898 7.16577 70.5839 8.65357 69.0961C8.98393 68.7657 9.6722 62.9591 10.183 56.1925C10.821 47.7406 11.6834 43.6702 12.938 43.1888C13.9897 42.7852 14.7642 40.5243 14.7642 37.8576C14.7642 31.5772 15.9374 28.9809 18.7753 28.9809C21.8489 28.9809 24.1124 37.622 24.2929 50.0451C24.3659 55.0705 24.8849 62.5044 25.4462 66.5648C26.3627 73.1949 26.486 73.4083 26.6557 68.659C26.7596 65.7504 27.5695 59.8612 28.4555 55.5718C29.837 48.883 30.4921 47.7728 33.0576 47.7728C36.7356 47.7728 40.2674 44.4382 40.2674 40.9655C40.2674 39.0991 41.2037 38.3769 43.6231 38.3769H46.9787V53.8131C46.9787 63.2091 47.504 69.2494 48.321 69.2494C49.1345 69.2494 49.6633 63.4328 49.6633 54.4842V39.7191H53.019C55.9312 39.7191 56.3746 40.3139 56.3746 44.2202C56.3746 46.6958 56.7575 52.3848 57.2255 56.8624C57.8943 63.2612 58.6137 65.1439 60.5868 65.6599C62.467 66.1516 63.2846 65.421 63.8438 62.7493C64.2544 60.7874 65.158 58.1334 65.8516 56.8515C66.5453 55.5695 67.1128 52.7546 67.1128 50.5961C67.1128 48.4375 68.7739 44.124 70.8041 41.0104L74.4953 35.3494L74.9136 41.0045L75.332 46.6597L81.9605 45.748C88.4002 44.8623 88.5891 44.9333 88.5891 48.2388C88.5891 50.1102 89.1932 52.0146 89.9314 52.4708C90.6696 52.9271 91.2737 54.4728 91.2737 55.9058C91.2737 57.3387 91.8777 58.5111 92.6159 58.5111C93.3808 58.5111 93.9582 54.5364 93.9582 49.2716C93.9582 40.5345 94.1369 39.9979 97.244 39.404C99.9599 38.8848 100.623 39.3817 101.07 42.2676L101.61 45.7594L101.811 42.0681C101.974 39.0793 102.65 38.3769 105.368 38.3769C108.073 38.3769 108.723 39.0427 108.723 41.8118C108.723 43.7599 109.304 44.8876 110.065 44.4171C110.804 43.9608 111.408 44.2652 111.408 45.0935C111.408 45.9218 112.88 49.7326 114.679 53.562C116.479 57.3914 118.334 63.9977 118.803 68.2426C120.136 80.3214 122.146 77.2947 122.146 63.2091C122.146 50.6049 122.183 50.4574 125.403 50.4574C127.418 50.4574 128.853 51.3533 129.165 52.8064C129.771 55.6262 132.884 36.1989 132.884 29.5972C132.884 25.5393 133.307 24.954 136.24 24.954C139.27 24.954 139.595 25.4845 139.595 30.419C139.595 33.4871 140.479 36.7671 141.609 37.8975C143.052 39.3402 143.622 42.8546 143.622 50.2967C143.622 57.3506 144.255 61.5185 145.593 63.2881C146.677 64.7212 147.681 67.1017 147.823 68.5782C148.321 73.7247 149.984 51.0218 150.158 36.699C150.331 22.4458 150.373 22.2695 153.528 22.2695C156.47 22.2695 156.768 22.9007 157.301 30.2729C157.659 35.2147 158.747 39.2345 160.147 40.7812C161.902 42.7204 162.414 45.873 162.414 54.7382C162.414 61.0367 162.821 69.1435 163.319 72.7533C164.201 79.1503 164.254 79.2145 165.438 75.2896C166.107 73.0749 166.989 55.7091 167.399 36.699L168.145 2.13522H171.32C174.155 2.13522 174.498 2.74555 174.527 7.83993C174.544 10.9775 175.116 15.9495 175.798 18.8889C176.479 21.8282 177.489 32.0967 178.043 41.7077C179.22 62.1348 180.804 59.1393 181.047 36.0279L181.206 20.9272H185.045C188.676 20.9272 188.929 21.3085 189.711 27.9742C190.981 38.7902 191.406 40.377 193.079 40.5581C193.931 40.6504 195.233 40.8014 195.971 40.8937C196.709 40.986 197.361 42.7225 197.419 44.7527C197.477 46.7829 197.83 47.689 198.202 46.7662C198.574 45.8433 200.008 45.0883 201.389 45.0883C204.171 45.0883 206.689 51.9248 206.702 59.5178C206.708 63.2742 207.175 63.8803 210.065 63.8803C213.031 63.8803 213.431 64.4647 213.515 68.9138C213.612 74.1277 215.826 81.415 216.011 77.1319C216.063 75.9303 217.011 74.1953 218.118 73.2762C219.226 72.3572 220.14 70.0181 220.15 68.0783C220.178 62.7949 221.596 58.5085 223.308 58.5317C226.711 58.5774 228.141 61.0326 229.771 69.6254C230.712 74.5864 231.797 78.6411 232.183 78.6359C233.561 78.6171 237.917 58.9721 239.025 47.7729C241.24 25.3901 241.637 23.6118 244.419 23.6118C246.126 23.6118 247.034 24.6159 247.148 26.6319C247.242 28.293 247.743 36.2964 248.261 44.4172L249.204 59.1823L249.433 42.7393L249.662 26.2963H253.557C257.316 26.2963 257.478 26.5658 258.209 34.0145C258.626 38.2594 259.407 48.9809 259.945 57.84L260.923 73.9474L261.948 61.1957C263.529 41.5035 264.061 39.4787 267.523 39.9714C270.203 40.3528 270.541 41.3873 271.293 51.5075C272.067 61.9135 273.823 68.4577 273.823 60.9344C273.823 58.0387 274.315 57.6352 277.178 58.1826C280.408 58.8 280.534 58.5633 280.534 51.8794C280.534 48.0599 281.21 42.2512 282.035 38.9713C283.269 34.0711 284.09 33.0078 286.635 33.0078C288.457 33.0078 289.986 33.9754 290.347 35.3567C290.809 37.1244 290.999 36.9583 291.116 34.6856C291.232 32.4466 292.095 31.6655 294.454 31.6655C297.983 31.6655 298.196 32.7031 300.241 59.8534C300.769 66.8668 301.428 71.548 301.704 70.2561C302.002 68.8631 303.437 67.9071 305.23 67.9071C308.14 67.9071 308.32 67.1935 310.03 48.9755L311.806 30.044L316.975 30.8706C321.533 31.5995 322.144 31.3781 322.144 28.9968C322.144 27.0112 323.033 26.2963 325.5 26.2963C328.76 26.2963 328.856 26.5648 328.856 35.6923C328.856 41.0615 329.431 45.0883 330.198 45.0883C330.936 45.0883 331.54 46.2607 331.54 47.6937C331.54 49.1266 332.144 50.6723 332.882 51.1286C333.621 51.5849 334.266 53.5836 334.316 55.5702C334.405 59.1371 334.425 59.1445 335.863 56.1621C338.716 50.2455 343.621 53.0727 343.621 60.6343C343.621 62.4196 344.225 63.8803 344.963 63.8803C345.701 63.8803 346.305 63.2762 346.305 62.538C346.305 60.3256 346.35 60.1306 348.363 53.4953C349.43 49.9788 350.309 44.8366 350.317 42.0681C350.331 37.5977 350.707 37.0346 353.688 37.0346C356.922 37.0346 357.048 37.3611 357.177 46.095C357.344 57.3652 359.382 52.5902 359.612 40.3903C359.813 29.7826 360.848 26.2963 363.797 26.2963C365.821 26.2963 366.362 27.9179 367.154 36.3635C367.83 43.582 368.622 46.4306 369.953 46.4306C371.191 46.4306 371.828 48.1039 371.869 51.4641C371.959 59.0443 373.343 75.2128 373.955 75.8489C374.251 76.1565 374.596 68.6062 374.722 59.0704C374.849 49.5346 375.087 40.8265 375.251 39.7192C375.415 38.6118 375.614 32.666 375.692 26.5062C375.82 16.4996 376.121 15.232 378.52 14.6047C380.537 14.0772 381.204 12.7738 381.204 9.36125C381.204 5.4119 381.642 4.81982 384.56 4.81982C387.615 4.81982 387.915 5.33146 387.905 10.5245C387.875 25.7331 389.528 80.7051 390.029 81.2066C390.343 81.5205 390.595 78.5055 390.589 74.5067C390.583 70.5078 391.307 59.8366 392.198 50.793C393.729 35.2491 393.979 34.35 396.764 34.35C399.508 34.35 399.785 35.2041 400.789 46.7662C401.837 58.8301 401.895 58.9919 402.828 52.4708C403.356 48.7796 403.841 42.5883 403.905 38.7125C404.015 32.1219 404.24 31.6655 407.379 31.6655H410.734V45.214C410.734 57.6336 410.958 58.8209 413.419 59.4645C415.596 60.0338 416.103 61.2954 416.103 66.1394C416.103 71.8634 416.257 72.0946 419.795 71.6875C423.26 71.2889 423.511 70.8127 423.902 63.9209C424.13 59.8829 424.97 55.7926 425.768 54.8314C426.566 53.8701 427.518 47.3585 427.884 40.3611C428.548 27.6781 428.561 27.6386 432.088 27.6386C435.257 27.6386 435.799 28.3799 437.274 34.7249C438.181 38.6223 438.922 43.7209 438.922 46.0551C438.922 48.3892 439.526 50.6723 440.264 51.1286C441.002 51.5849 441.606 54.0366 441.606 56.5769C441.606 60.2422 442.14 61.1957 444.193 61.1957C445.615 61.1957 447.055 62.2527 447.393 63.5447C447.855 65.3123 448.045 65.1463 448.162 62.8735C448.28 60.5884 449.135 59.8534 451.674 59.8534C454.846 59.8534 455.029 60.2561 455.029 67.236C455.029 76.2538 457.632 77.1609 457.918 68.2427C458.031 64.736 458.263 61.2628 458.435 60.5245C458.606 59.7863 458.816 58.4272 458.901 57.5044C458.986 56.5816 460.566 55.8266 462.412 55.8266C465.614 55.8266 465.767 56.1898 465.767 63.801C465.767 68.187 466.371 72.1488 467.11 72.6051C467.934 73.1148 468.452 70.909 468.452 66.8832C468.452 63.2798 469.457 57.3811 470.686 53.7748C472.524 48.3806 473.102 47.6837 473.947 49.8445C474.631 51.5928 475.073 49.7786 475.269 44.4172C475.43 39.9876 475.754 31.5312 475.988 25.6252C476.222 19.7191 476.435 11.7158 476.46 7.83995C476.503 1.30596 476.74 0.792969 479.732 0.792969C482.878 0.792969 482.978 1.13447 483.741 14.5514C484.171 22.1185 484.787 38.8802 485.108 51.7997C485.745 77.376 488.2 92.246 488.543 72.6051C488.892 52.6008 490.041 25.6338 490.615 23.9473C491.525 21.2745 496.64 21.9012 496.64 24.6856C496.64 26.0145 497.288 27.7501 498.081 28.5427C498.873 29.3352 499.99 38.2243 500.563 48.2963C501.137 58.3682 501.998 67.0017 502.478 67.4817C502.958 67.9618 503.351 67.6498 503.351 66.7885C503.351 65.9272 504.861 65.2225 506.707 65.2225C509.839 65.2225 510.062 64.7751 510.062 58.5111C510.062 52.7518 510.434 51.7997 512.68 51.7997C514.925 51.7997 515.355 50.7014 515.7 44.0816C516.07 36.9885 516.358 36.3635 519.258 36.3635C522.019 36.3635 522.468 37.0917 522.848 42.1907C523.533 51.3796 524.827 50.4586 524.827 40.7818C524.827 28.5571 525.986 23.6118 528.85 23.6118C530.54 23.6118 531.43 25.0809 532.036 28.8683C532.498 31.7594 533.571 34.3563 534.42 34.6392C535.921 35.1397 536.135 36.7482 536.658 51.4641C536.795 55.34 537.361 58.5064 537.914 58.5006C540.148 58.4772 542.277 50.777 542.277 42.719C542.277 38.019 542.902 33.0052 543.666 31.5772C545.303 28.5197 550.33 28.0799 550.33 30.9943C550.33 32.1129 551.524 33.0077 553.015 33.0077C555.745 33.0077 556.084 34.0528 555.848 41.7326C555.78 43.9473 556.261 47.8735 556.916 50.4574C557.953 54.5381 558.127 53.8768 558.247 45.4239C558.322 40.0715 558.939 35.6923 559.617 35.6923C563.965 35.6923 565.099 37.5582 565.209 44.8963C565.355 54.6708 566.969 67.5437 568.204 68.7781C568.733 69.308 569.882 69.0268 570.755 68.1532C574.333 64.5753 579.86 67.9473 579.86 73.7079C579.86 75.5272 580.767 77.3635 581.874 77.7885C583.1 78.2591 583.887 77.7912 583.887 76.5898C583.887 73.2735 590.503 74.1454 591.846 77.6386C592.986 80.6038 593.039 80.5855 594.783 76.6319C595.761 74.4172 596.88 65.3568 597.271 56.4977C597.981 40.4008 597.983 40.3903 601.337 40.3903C604.48 40.3903 604.718 40.878 605.095 48.1084C605.569 57.1864 608.048 58.5952 608.048 49.7863C608.048 44.2382 608.321 43.746 611.404 43.746C613.548 43.746 614.76 44.5013 614.76 45.8386C614.76 46.9896 615.364 47.558 616.102 47.1017C616.887 46.6164 617.444 48.009 617.444 50.4574C617.444 52.9058 618.001 54.2984 618.786 53.8131C619.525 53.3568 620.129 53.9252 620.129 55.0762C620.129 56.274 621.277 57.1688 622.813 57.1688C625.207 57.1688 625.502 58.0773 625.538 65.5581C625.612 80.5544 627.951 70.8804 628.961 51.4047L629.915 33.0077H635.089H640.263V41.6302C640.263 52.0496 642.799 63.8802 645.033 63.8802C646.036 63.8802 646.688 61.7075 646.736 58.2022C646.777 55.0792 647.454 52.3108 648.236 52.05C649.019 51.7893 649.659 48.3042 649.659 44.3053C649.659 37.4447 649.848 37.0346 653.014 37.0346C656.295 37.0346 656.372 37.2658 656.482 47.4373C656.543 53.1588 656.791 59.35 657.033 61.1957C657.275 63.0413 657.612 68.6456 657.782 73.6497C658.094 82.8267 658.745 84.5981 661.192 82.9192C663.093 81.6137 666.034 62.6732 666.544 48.444C666.782 41.7997 667.374 31.6489 667.86 25.8866C668.679 16.1708 668.952 15.4395 671.617 15.8194C674.143 16.1796 674.594 17.3671 675.346 25.6252C676.715 40.6664 678.028 51.0849 678.63 51.6879C678.937 51.9954 679.189 50.6364 679.189 48.6677C679.189 46.0627 679.874 45.0883 681.706 45.0883C684.813 45.0883 685.856 49.5965 686.016 63.7125C686.111 72.1208 686.353 73.2287 687.379 69.9205C688.065 67.7057 688.553 64.3836 688.464 62.538C688.374 60.6923 688.364 56.0111 688.446 52.1353C688.579 45.5513 688.809 45.0883 691.944 45.0883C695.17 45.0883 695.3 45.4164 695.3 53.5888C695.3 61.5734 695.483 62.0762 698.32 61.8731C700.963 61.6838 701.381 60.8334 701.672 55.0504C702.202 44.5044 704.582 38.3769 708.148 38.3769C711.447 38.3769 711.694 39.2503 713.659 57.84C714.205 63.0078 714.87 65.8769 715.136 64.2158C715.484 62.0451 716.538 61.1957 718.883 61.1957C721.613 61.1957 722.145 61.8528 722.145 65.2225C722.145 67.8201 722.827 69.2494 724.065 69.2494C725.121 69.2494 726.247 70.6084 726.567 72.2695C726.887 73.9306 727.231 71.3998 727.331 66.6456C727.432 61.8914 728.239 54.492 729.125 50.2026C730.608 43.0208 731.023 42.4037 734.362 42.4037C737.796 42.4037 738.038 42.8318 738.924 50.4598C739.438 54.8907 740.403 58.8525 741.069 59.2639C741.735 59.6753 742.279 61.4863 742.279 63.2883C742.279 65.0904 742.883 66.5648 743.621 66.5648C744.36 66.5648 744.964 69.0166 744.964 72.0132C744.964 75.0098 745.474 77.1459 746.099 76.7601C746.723 76.3743 747.687 68.6373 748.24 59.5668C748.794 50.4962 749.443 41.5648 749.681 39.7192C749.92 37.8735 750.164 34.6604 750.224 32.5788C750.314 29.4462 750.853 28.8681 753.353 29.2231C755.747 29.5631 756.443 30.6261 756.711 34.35C756.898 36.9339 757.719 42.6722 758.538 47.1017C759.357 51.5313 759.981 57.7497 759.925 60.9206C759.854 64.9813 760.445 66.9241 761.925 67.492C765.336 68.8009 766.398 65.2718 766.42 52.5516C766.431 45.9518 767.165 37.0424 768.051 32.753C769.423 26.1099 770.098 24.954 772.605 24.954C774.224 24.954 775.969 26.0111 776.482 27.303C776.996 28.595 777.831 38.8289 778.339 50.0451C779.162 68.2279 780.006 73.6264 781.744 71.8221C782.488 71.0492 783.757 57.8451 783.829 50.1087C783.876 45.4318 784.609 43.1038 786.574 41.4211C788.051 40.1569 789.267 37.5957 789.277 35.7296C789.306 29.8807 790.822 26.2963 793.26 26.2963C795.901 26.2963 797.301 33.1789 797.327 46.2823C797.339 50.4243 797.779 56.2292 798.312 59.1822L799.282 64.5514L800.366 56.4977C800.962 52.0682 801.78 44.9708 802.185 40.7259L802.92 33.0077H808.841H814.762V49.6765C814.762 68.0405 815.253 70.5917 818.789 70.5917C821.612 70.5917 822.815 68.0082 822.815 61.9444C822.815 59.5239 823.199 54.7411 823.669 51.3159C824.326 46.5226 825.081 45.0883 826.945 45.0883C828.278 45.0883 829.742 44.4843 830.198 43.746C830.654 43.0078 832.502 42.4037 834.304 42.4037C836.666 42.4037 837.58 43.1398 837.58 45.0411C837.58 46.4916 838.76 48.3097 840.202 49.0812C842.535 50.3298 842.927 49.9291 843.768 45.4372C844.288 42.6614 845.977 38.6722 847.523 36.5723L850.332 32.7542L851.169 45.2971C852.013 57.9397 855.603 81.0082 856.934 82.3386C858.275 83.6799 859.574 76.7004 863.307 48.1084L864.752 37.0346H871.972C877.167 37.0346 879.191 37.5469 879.191 38.8619C879.191 40.0872 880.296 40.4778 882.547 40.0477C884.984 39.5816 885.902 39.9881 885.902 41.534C885.902 42.8739 886.648 43.3757 887.916 42.8891C889.023 42.4642 889.929 40.7466 889.929 39.0722C889.929 37.3978 890.312 34.109 890.782 31.7637C891.456 28.3924 892.229 27.5843 894.473 27.9046C897.129 28.2837 897.355 29.3031 897.983 43.746C898.365 52.5513 899.086 58.126 899.66 56.7235C900.214 55.3712 900.667 52.804 900.667 51.0188C900.667 48.4717 901.373 47.7729 903.946 47.7729C906.843 47.7729 907.272 48.4359 907.637 53.4775C907.916 57.3331 908.671 59.1822 909.967 59.1822C912.275 59.1822 913.647 54.5038 914.61 43.3482C915.005 38.7683 915.352 34.8701 915.381 34.6856C915.41 34.5011 916.942 34.35 918.788 34.35C921.994 34.35 922.144 34.708 922.144 42.4037C922.144 48.6677 922.591 50.4574 924.157 50.4574C925.276 50.4574 926.17 49.2643 926.17 47.7728C926.17 45.8365 927.065 45.0883 929.381 45.0883C932.128 45.0883 932.785 46.009 933.933 51.4641C935.059 56.811 935.433 57.3525 936.249 54.8198C936.784 53.1587 937.755 51.7997 938.407 51.7997C939.06 51.7997 939.593 50.2702 939.593 48.4009C939.593 46.5315 940.499 42.8336 941.606 40.1832C942.714 37.5329 943.62 33.6261 943.62 31.5015C943.62 28.2759 944.173 27.6386 946.976 27.6386H950.331V49.707C950.331 61.8447 950.827 72.0822 951.434 72.4571C952.041 72.832 953.551 71.9546 954.79 70.5075C956.397 68.6305 957.043 65.3801 957.043 59.1669C957.043 50.8095 957.176 50.4574 960.344 50.4574C963.1 50.4574 963.893 51.4013 965.139 56.1621C965.96 59.2997 967.494 63.5768 968.548 65.6668C969.603 67.7569 970.517 70.777 970.581 72.3783C970.676 74.7869 970.892 74.6379 971.829 71.5152C972.452 69.4392 973.086 57.3587 973.238 44.6695C973.615 13.0418 973.273 15.5575 977.177 15.5611C979.907 15.5638 980.558 16.2511 980.671 19.2524C980.748 21.2809 981.259 29.4339 981.807 37.3701C982.701 50.3127 983.067 51.7997 985.359 51.7997C987.222 51.7997 987.948 52.7999 988.038 55.491C988.156 59.0077 988.273 60.623 989.087 69.9205L989.439 73.9473L990.989 70.5916C991.842 68.746 992.958 66.9298 993.469 66.5557C994.495 65.8061 995.357 60.1594 996.698 45.4238L997.584 35.6923H1002.66H1007.74L1008.29 44.3411C1008.68 50.4724 1009.6 53.8357 1011.46 55.8953C1012.91 57.4931 1013.89 59.9914 1013.65 61.4468C1012.98 65.4881 1017.19 73.2762 1020.04 73.2762C1023.15 73.2762 1024.12 69.715 1024.14 58.1755C1024.15 53.1923 1024.72 49.1151 1025.42 49.1151C1026.11 49.1151 1027.05 46.246 1027.52 42.7393C1029.24 29.6626 1029.57 28.7975 1032.67 29.2393C1035.41 29.6304 1035.6 30.5324 1036.3 46.4305C1036.7 55.6587 1037.16 60.3399 1037.31 56.8332C1037.46 53.3265 1038.15 50.4574 1038.84 50.4574C1039.53 50.4574 1040.29 48.1923 1040.52 45.4238L1040.93 40.3903L1044.22 46.4305C1046.56 50.7296 1047.65 51.7937 1048.01 50.1218C1048.29 48.8299 1049.35 47.7728 1050.36 47.7728C1051.38 47.7728 1052.75 46.8121 1053.41 45.638C1054.12 44.3655 1055.89 43.6877 1057.79 43.9601C1060.37 44.3284 1061.41 45.8343 1063.18 51.7203L1065.38 59.0234L1066.05 52.0263C1066.8 44.2082 1066.69 44.4131 1070.64 43.2017C1073.37 42.3658 1073.62 43.1103 1076.08 58.8068L1078.65 75.2896L1079.69 58.5606C1080.26 49.3596 1081.02 41.3562 1081.38 40.7753C1081.74 40.1944 1083.51 39.7191 1085.31 39.7191C1088.16 39.7191 1088.59 40.3285 1088.59 44.4592C1088.59 47.4344 1089.34 49.487 1090.6 49.972C1091.71 50.3969 1092.61 52.1161 1092.61 53.7923C1092.61 55.4686 1093.52 57.592 1094.63 58.5111C1095.73 59.4301 1096.72 61.7692 1096.82 63.709C1096.92 65.6488 1097.49 62.2606 1098.07 56.1796C1098.66 50.0986 1099.52 44.5114 1099.98 43.7635C1101.33 41.591 1107.38 42.1259 1107.38 44.4171C1107.38 45.5245 1108.03 46.4305 1108.82 46.4305C1109.62 46.4305 1110.16 44.4675 1110.03 42.0681C1109.65 35.0658 1109.91 34.35 1112.87 34.35C1114.5 34.35 1115.96 35.4181 1116.35 36.8842C1116.83 38.7506 1118.13 39.3695 1121.25 39.2332L1125.5 39.048L1126.17 51.4031C1126.56 58.6431 1127.53 64.4504 1128.52 65.43C1130.14 67.0506 1130.47 63.4851 1130.79 40.7259C1130.83 37.6627 1131.43 37.0346 1134.32 37.0346C1136.74 37.0346 1137.79 37.7486 1137.78 39.3836C1137.73 49.2787 1138.46 55.8265 1139.59 55.8265C1140.33 55.8265 1140.93 54.9205 1140.93 53.8131C1140.93 52.5603 1142.2 51.7997 1144.29 51.7997C1147.37 51.7997 1147.65 52.2972 1147.65 57.7607C1147.65 65.3744 1149.74 66.7927 1150.83 59.9242C1151.3 57.037 1152.58 53.769 1153.69 52.6619C1154.79 51.5549 1155.7 49.3979 1155.7 47.8687C1155.7 45.8161 1156.56 45.0883 1158.97 45.0883C1161.77 45.0883 1162.33 45.8246 1162.77 50.1218C1163.26 54.7334 1163.32 54.6209 1163.53 48.7795C1163.77 41.9189 1164.79 41.0434 1168.18 44.7877C1170.2 47.0235 1172.8 57.6624 1172 60.44C1171.28 62.9401 1174.9 85.3567 1176.02 85.3567C1177.4 85.3567 1177.51 97.6757 1176.3 114.747C1175.48 126.294 1175.24 127.074 1172.61 126.698C1169.93 126.317 1169.74 125.223 1168.78 104.92C1167.84 85.3577 1166.96 79.5245 1165.54 83.4838C1164.64 85.9648 1158.69 83.9522 1157.78 80.8611C1157.03 78.3311 1156.64 78.657 1154.63 83.4963C1153.37 86.5334 1151.45 90.0825 1150.36 91.3832C1148.51 93.5971 1148.27 93.5017 1146.73 89.8879C1145.82 87.7649 1145.05 83.7628 1145.02 80.9943C1144.99 77.9049 1144.31 75.9537 1143.28 75.9424C1142.36 75.9319 1140.28 75.5675 1138.65 75.1317C1135.96 74.4107 1135.61 74.9569 1134.79 81.1903C1133.9 87.8726 1133.77 88.0413 1129.42 88.0413C1126.59 88.0413 1124.46 87.1833 1123.59 85.6923C1122.73 84.2134 1122.21 84.0004 1122.18 85.1173C1122.16 86.2556 1120.82 86.7365 1118.45 86.4595L1114.76 86.0279L1114.09 100.122C1113.47 113.189 1113.21 114.245 1110.58 114.62C1108.24 114.955 1107.61 114.142 1106.91 109.922C1106.44 107.116 1106.06 101.08 1106.05 96.5098C1106.04 91.9393 1105.43 87.8265 1104.69 87.3702C1103.95 86.9139 1103.26 85.2172 1103.15 83.5997C1103.05 81.9822 1102.56 84.9269 1102.08 90.1434C1101.44 97.0775 1100.32 100.867 1097.91 104.237L1094.63 108.847L1094.31 104.82C1092.47 81.253 1090.7 69.2494 1089.06 69.2494C1088.06 69.2494 1087.19 68.4943 1087.11 67.5715C1086.8 63.5062 1083.42 85.432 1083.32 92.1353C1083.21 100.244 1081.67 102.806 1076.91 102.806C1074.06 102.806 1073.81 102.201 1073.66 95.0883C1073.57 90.8434 1073.1 85.5581 1072.61 83.3434L1071.71 79.3165L1070.08 83.8792C1069.18 86.3887 1068.44 90.6169 1068.43 93.2752C1068.41 99.6549 1067.03 101.539 1062.66 101.177C1059.29 100.898 1059.05 100.441 1058.89 94.1244L1058.73 87.3702L1057.36 93.0749C1056.4 97.077 1055.29 98.7796 1053.65 98.7796C1050.68 98.7796 1049.7 95.0503 1049.68 83.6789C1049.66 76.7716 1049.21 74.6185 1047.76 74.6185C1046.36 74.6185 1045.63 77.3629 1044.98 85.0212C1044.5 90.7427 1043.89 96.934 1043.64 98.7796C1043.38 100.625 1043.12 107.119 1043.06 113.209C1042.95 124.016 1042.87 124.283 1039.68 124.283H1036.41L1035.99 101.413C1035.7 85.9594 1035.06 78.2321 1034.01 77.5852C1033.16 77.0586 1031.89 74.5146 1031.19 71.9319C1030.12 67.9392 1029.77 69.6172 1028.89 83.1353L1027.84 99.0347L1024.08 98.4824C1021.2 98.0587 1019.93 98.654 1018.65 101.039C1017.65 102.925 1015.76 104.149 1013.86 104.149C1010.82 104.149 1010.73 103.822 1010.73 92.1474C1010.73 85.5467 1010.13 79.7728 1009.39 79.3165C1008.65 78.8602 1008.05 77.0481 1008.05 75.2896C1008.05 73.5311 1007.44 71.7191 1006.71 71.2628C1005.97 70.8065 1005.35 68.2038 1005.32 65.4789C1005.3 62.754 1004.35 59.3165 1003.2 57.84C1001.82 56.0545 1001.25 55.8297 1001.5 57.1688C1002.81 64.2451 997.384 86.699 994.368 86.699C993.771 86.699 993.284 87.4708 993.284 88.4142C993.284 90.7336 988.847 94.3922 986.843 93.7245C985.701 93.3438 985.226 95.67 985.215 101.688C985.198 114.563 983.96 120.256 981.195 120.256C978.427 120.256 977.176 115.333 977.176 104.428C977.176 100.337 976.723 97.4429 976.17 97.9966C975.035 99.1315 974.896 99.8208 974.66 105.491C974.52 108.847 973.933 109.518 971.136 109.518C967.954 109.518 967.781 109.127 967.781 101.954C967.781 94.5947 965.591 78.6719 964.021 74.6185C963.593 73.5111 962.904 75.3232 962.491 78.6453C961.832 83.9514 961.308 84.7356 958.186 85.0971C956.013 85.3487 954.366 86.5231 953.949 88.1173C953.573 89.552 952.149 90.7259 950.784 90.7259C948.022 90.7259 944.962 82.9768 944.962 75.9819C944.962 73.7555 944.411 71.9339 943.738 71.9339C942.463 71.9339 941.637 76.2265 940.188 90.3903C939.421 97.8807 939.013 98.7796 936.374 98.7796C933.696 98.7796 933.269 97.7368 931.808 87.6361C930.922 81.5072 930.197 74.2945 930.197 71.6079C930.197 66.1854 927.728 63.4383 926.629 67.6388C925.839 70.662 920.342 72.2798 918.186 70.1239C915.698 67.6359 913.677 71.4098 913.109 79.6048C912.388 90.016 910.593 93.4104 905.809 93.4104C902.361 93.4104 902.009 93.8456 902.009 98.1084C902.009 102.152 901.567 102.806 898.839 102.806C896.059 102.806 895.48 101.869 894.141 95.2C893.301 91.0165 892.613 82.2198 892.613 75.6519V63.7101L888.251 64.1307L883.889 64.5513L882.46 88.7733C881.674 102.095 880.581 113.723 880.032 114.612C879.482 115.502 877.947 116.229 876.621 116.229C874.624 116.229 874.063 114.674 873.354 107.169C872.883 102.186 872.494 91.6151 872.489 83.6789C872.484 74.9604 871.948 69.2493 871.137 69.2493C870.399 69.2493 869.791 67.5882 869.786 65.558L869.775 61.8668L867.764 65.7227C866.351 68.4325 865.455 76.4118 864.752 92.5683C863.774 115.04 863.683 115.568 860.731 115.987C858.434 116.313 857.711 115.751 857.711 113.638C857.711 112.064 856.838 110.86 855.697 110.86C854.116 110.86 853.684 109.003 853.684 102.198C853.684 93.9255 851.747 86.699 849.531 86.699C848.96 86.699 848.241 85.0379 847.934 83.0077C847.627 80.9775 847.284 83.9976 847.174 89.7191C846.98 99.7285 846.852 100.122 843.773 100.122C840.073 100.122 839.046 97.4994 838.778 87.3701C838.509 77.141 837.179 72.5444 834.615 72.9761C833.368 73.186 832.036 72.1661 831.548 70.6271C829.744 64.9457 828.181 68.2802 828.181 77.8064C828.181 92.7464 827.299 95.7227 822.67 96.4021C820.533 96.7157 818.785 96.4729 818.785 95.8625C818.785 95.2521 818.138 94.7527 817.347 94.7527C814.086 94.7527 812.073 90.6901 812.073 84.1103C812.073 80.3663 811.469 77.303 810.731 77.303C809.993 77.303 809.389 76.095 809.389 74.6185C809.389 73.142 808.567 71.9339 807.562 71.9339C806.137 71.9339 805.521 76.7196 804.759 93.7306C804.222 105.719 803.498 115.987 803.151 116.549C802.803 117.112 801.393 117.572 800.018 117.572C796.34 117.572 794.945 111.36 794.207 91.7039C793.853 82.2754 792.96 73.819 792.224 72.912C791.488 72.0049 790.62 70.0547 790.295 68.5782C789.952 67.0211 789.278 68.7122 788.69 72.6051C788.132 76.2963 787.051 81.4306 786.288 84.0144C785.525 86.5983 784.383 95.6588 783.751 104.149C781.103 139.715 781.216 139.048 777.852 139.048H774.806L773.69 105.155L772.575 71.2628L771.62 94.0816C770.68 116.556 769.315 146.11 769.186 146.766C769.151 146.951 767.913 147.102 766.436 147.102C764.829 147.102 763.694 146.16 763.609 144.753C763.53 143.461 763.332 141.498 763.168 140.391C763.003 139.283 762.765 129.468 762.639 118.578C762.43 100.497 762.2 98.7798 759.995 98.7798C757.115 98.7798 754.438 92.2514 754.176 84.5905C754.048 80.8296 753.626 82.1084 752.707 89.0483C751.617 97.2723 751.021 98.7798 748.86 98.7798C746.771 98.7798 746.302 99.7637 746.302 104.149C746.302 108.981 745.967 109.518 742.947 109.518H739.591V96.077C739.591 88.6845 739.02 81.5872 738.322 80.3052C737.624 79.0233 736.583 75.5583 736.008 72.6053C735.084 67.8562 734.845 68.7087 733.933 79.9879C733.366 87.0013 732.639 94.8536 732.317 97.4375C731.995 100.021 731.688 107.723 731.635 114.552C731.538 126.875 731.512 126.968 728.182 126.968C724.851 126.968 724.826 126.878 724.741 114.552C724.629 98.3895 724.229 95.0345 721.743 89.3838L719.676 84.6859L719.433 90.7261C719.091 99.2167 717.698 103.392 715.038 103.904C709.994 104.876 708.728 101.082 708.54 84.4462C708.419 73.7423 708.079 70.5442 707.498 74.6187C706.506 81.5673 705.271 84.0147 702.754 84.0147C701.613 84.0147 700.657 86.5573 700.089 91.1061C699.203 98.1927 699.199 98.1983 693.241 99.5806C686.169 101.221 684.558 100.151 684.558 93.8134C684.558 91.3771 683.954 89.3838 683.216 89.3838C682.473 89.3838 681.874 92.9073 681.874 97.2698C681.874 108.705 680.661 113.545 677.797 113.545C674.917 113.545 674.285 110.116 673.035 87.706C672.552 79.0315 671.624 71.9342 670.974 71.9342C670.325 71.9342 669.794 73.8973 669.795 76.2966C669.796 78.6959 669.094 87.1523 668.234 95.0885L666.671 109.518H660.361H654.051L653.197 103.29C652.728 99.8653 652.344 93.221 652.344 88.5254C652.344 83.8297 651.999 79.9879 651.577 79.9879C651.154 79.9879 649.816 80.9813 648.602 82.1955C646.793 84.0044 646.213 88.9132 645.391 109.377C644.84 123.112 644.111 136.464 643.771 139.048C643.432 141.632 643.108 144.199 643.051 144.753C642.873 146.483 637.586 145.851 637.436 144.082C637.357 143.159 637.159 141.498 636.995 140.391C636.83 139.283 636.592 122.219 636.466 102.471C636.319 79.5816 635.75 66.565 634.894 66.565C634.156 66.565 633.552 68.6545 633.552 71.2082C633.552 73.7619 632.874 80.4062 632.046 85.9733C630.686 95.1162 630.25 96.0953 627.532 96.0953C625.064 96.0953 624.147 94.8298 622.426 89.0483C621.273 85.1724 619.954 79.7362 619.497 76.9677C618.861 73.12 618.037 71.9342 615.999 71.9342C614.533 71.9342 613.006 72.9912 612.606 74.2832C612.206 75.5751 611.319 77.681 610.635 78.9629C609.951 80.2449 609.391 83.6883 609.391 86.615C609.391 89.5417 608.737 94.9862 607.937 98.7138C606.805 103.993 605.915 105.491 603.91 105.491C602.495 105.491 601.294 104.736 601.241 103.813C600.976 99.1484 599.788 91.4142 599.256 90.8824C598.924 90.5503 598.653 92.5725 598.653 95.376V100.473L593.728 99.6741C591.019 99.2346 588.31 98.0985 587.708 97.1495C586.992 96.0217 586.606 96.7334 586.593 99.2046C586.575 102.493 586.114 102.93 583.053 102.56C580.017 102.194 579.466 101.4 579.031 96.7664C578.754 93.8134 577.973 89.5852 577.296 87.3704L576.065 83.3436L575.949 87.5624C575.821 92.2347 574.034 93.4107 567.062 93.4107C562.977 93.4107 562.401 93.8995 561.139 98.4443C560.37 101.213 559.738 104.233 559.734 105.156C559.73 106.078 558.306 106.834 556.57 106.834C553.58 106.834 553.367 106.246 552.551 95.7597C552.077 89.6691 551.685 80.9601 551.681 76.4064C551.677 71.8526 551.306 67.1715 550.858 66.0037C549.621 62.7812 546.699 63.4649 545.763 67.1958C545.079 69.9213 542.362 109.652 542.296 117.907C542.281 119.513 541.215 120.256 538.921 120.256H535.566V103.68C535.566 80.8811 534.25 66.565 532.156 66.565C530.919 66.565 530.267 72.4281 529.658 89.0483C529.204 101.414 528.385 114.25 527.837 117.572C526.972 122.815 526.407 123.612 523.554 123.612C519.93 123.612 520.204 124.977 519.72 104.485C519.464 93.637 519.39 93.4107 516.103 93.4107C513.532 93.4107 512.736 92.7045 512.699 90.3906L512.654 87.3704L510.954 90.4326C508.87 94.1862 507.38 92.9841 507.38 87.5494C507.38 80.5068 504.879 85.4864 504.436 93.4107C504.08 99.7928 503.632 100.849 501.131 101.205C498.541 101.575 498.103 100.733 496.94 93.1518L495.641 84.6859L495.47 93.5224C495.21 106.975 492.753 117.572 489.894 117.572C488.281 117.572 487.274 116.13 486.681 112.971C486.207 110.441 485.212 108.169 484.47 107.922C483.728 107.675 482.311 102.647 481.32 96.7502C480.33 90.8531 479.446 87.3872 479.356 89.0483C479.232 91.3313 478.373 92.0684 475.836 92.0684C472.819 92.0684 472.458 91.4937 472.255 86.3637L472.029 80.659L471.503 85.6926C471.053 89.9898 470.497 90.7261 467.702 90.7261C465.901 90.7261 464.386 89.9711 464.336 89.0483C464.286 88.1254 463.59 88.7295 462.789 90.3906C461.988 92.0516 460.216 93.4107 458.853 93.4107C456.579 93.4107 456.373 94.7497 456.373 109.518C456.373 124.731 456.224 125.625 453.689 125.625C451.203 125.625 451.004 126.52 451.004 137.706C451.004 149.697 450.98 149.787 447.649 149.787H444.293L444.132 125.29Z" fill="black"/>
</svg>
