<svg width="1181" height="152" viewBox="0 0 1181 152" fill="none" xmlns="http://www.w3.org/2000/svg">
<path d="M381.329 135.455C380.906 126.411 380.219 107.074 379.802 92.4826C379.004 64.5528 378.652 61.9651 375.644 61.9651C374.51 61.9651 373.758 60.5137 373.732 58.2738C373.693 54.9182 373.527 54.7961 371.906 56.9315C369.712 59.8221 364.379 60.0599 364.379 57.2669C364.379 56.1595 363.775 55.2534 363.036 55.2534C362.298 55.2534 361.694 56.2015 361.694 57.3603C361.694 58.7773 360.705 59.3266 358.674 59.0381C356.248 58.6936 355.572 57.6189 355.237 53.5756C354.965 50.283 354.152 48.5421 352.888 48.5421C351.379 48.5421 350.956 50.7431 350.956 58.6092C350.956 68.4792 350.89 68.6763 347.567 68.6763C344.875 68.6763 344.012 67.8479 343.372 64.6495C342.929 62.4347 341.736 60.6226 340.721 60.6226C339.706 60.6226 338.876 59.7166 338.876 58.6092C338.876 57.41 337.654 56.6041 335.855 56.6163C331.916 56.6415 329.207 58.4214 329.536 60.7655C329.68 61.7943 329.726 65.8492 329.639 69.7764C329.492 76.3755 329.251 76.8842 326.46 76.4878C323.991 76.1372 323.362 75.0786 323.014 70.6897C322.417 63.1477 320.537 62.0226 319.434 68.5476C318.748 72.6097 317.873 74.0454 316.083 74.0454C313.115 74.0454 312.03 71.4624 312.03 64.3961C312.03 60.0207 311.626 59.1481 309.907 59.8079C308.739 60.2558 306.927 60.6226 305.88 60.6226C304.69 60.6226 303.977 62.0314 303.977 64.381C303.977 72.5061 297.132 73.988 294.987 66.3273L293.578 61.2938L293.408 67.5131C293.258 73.0215 292.855 73.8058 289.883 74.374C286.712 74.98 286.518 74.6738 286.368 68.8257C286.28 65.4214 286.307 61.881 286.427 60.9581C286.547 60.0353 286.014 59.2803 285.244 59.2803C284.473 59.2803 283.842 58.3743 283.842 57.2669C283.842 56.1595 282.917 55.2534 281.787 55.2534C280.656 55.2534 279.384 54.3474 278.959 53.2401C278.534 52.1327 277.409 51.2266 276.46 51.2266C275.511 51.2266 274.386 52.1327 273.961 53.2401C272.792 56.2861 266.393 55.8576 266.393 52.7332C266.393 51.3471 265.487 49.4611 264.38 48.542C262.666 47.1199 262.366 47.4703 262.366 50.8945C262.366 58.5213 260.809 63.3071 258.328 63.3071C255.931 63.3071 254.364 66.858 254.331 72.3676C254.317 74.6893 253.536 75.3877 250.957 75.3877C249.111 75.3877 247.601 74.7837 247.601 74.0454C247.601 73.3072 246.695 72.7031 245.588 72.7031C244.042 72.7031 243.574 70.9879 243.574 65.3206C243.574 59.6532 243.107 57.938 241.561 57.938C240.454 57.938 239.547 57.032 239.547 55.9246C239.547 54.8172 238.641 53.9112 237.534 53.9112C236.427 53.9112 235.521 54.5152 235.521 55.2534C235.521 55.9917 234.011 56.5957 232.165 56.5957C229.704 56.5957 228.809 55.8798 228.809 53.9112C228.809 52.4198 227.914 51.2266 226.796 51.2266C225.689 51.2266 224.783 50.3345 224.783 49.2441C224.783 48.1538 223.323 46.3051 221.539 45.1361C218.819 43.3539 217.843 43.2926 215.498 44.7571C213.96 45.7176 212.702 47.2642 212.702 48.194C212.702 49.1238 211.796 49.8845 210.689 49.8845C209.297 49.8845 208.675 51.2828 208.675 54.4147C208.675 63.543 207.247 67.3342 203.81 67.3342C200.879 67.3342 200.622 66.7927 200.622 60.6228C200.622 56.7451 200.014 53.9114 199.183 53.9114C196.21 53.9114 193.91 57.9278 193.91 63.121C193.91 69.7919 189.887 71.9814 185.957 67.4495C182.064 62.9615 180.809 64.1109 179.852 73.0389C178.631 84.4196 178.022 86.1261 175.177 86.1261C172.279 86.1261 171.595 83.0687 170.288 64.2648C169.31 50.1989 167.222 47.4809 165.435 57.9475C164.887 61.1587 163.821 64.4031 163.067 65.1574C162.313 65.9117 161.696 68.8241 161.696 71.6295C161.696 76.1417 161.318 76.7302 158.421 76.7302C155.606 76.7302 155.088 76.0239 154.73 71.6966C154.395 67.6534 153.719 66.5787 151.293 66.2342C148.536 65.8425 148.273 65.088 148.273 57.5765C148.273 48.2378 145.966 48.32 145.122 57.6886C144.84 60.8258 144.225 63.776 143.756 64.2448C143.287 64.7136 142.904 66.2044 142.904 67.5579C142.904 69.2879 141.907 70.0187 139.548 70.0187C136.821 70.0187 136.163 69.3275 136.034 66.3274C135.946 64.2972 135.973 61.8811 136.092 60.9583C136.212 60.0355 135.076 59.2804 133.567 59.2804C132.058 59.2804 130.824 59.8845 130.824 60.6227C130.824 62.6422 125.533 62.2352 123.345 60.0475C122.291 58.9928 121.428 57.2081 121.428 56.0815C121.428 53.461 112.731 51.6602 110.204 53.7575C109.215 54.5784 105.645 55.6284 102.272 56.0907L96.1392 56.9313L95.2083 50.7234C94.2052 44.0344 90.5554 41.797 90.5554 47.8711C90.5554 50.3004 89.8346 51.2268 87.9444 51.2268C85.7818 51.2268 85.2631 52.3217 84.9243 57.6026C84.5547 63.3616 84.1971 63.9785 81.2285 63.9785C78.5033 63.9785 77.9174 63.2905 77.7987 59.9516C77.5149 51.9642 76.9078 47.9031 76.2437 49.5489C75.3116 51.8589 69.079 51.6996 69.079 49.3658C69.079 48.3298 67.3178 47.2462 65.1062 46.9217L61.1333 46.3386L60.7438 55.8297C60.3874 64.5119 60.0968 65.3575 57.3341 65.7498C55.5615 66.0015 54.2501 65.4469 54.1592 64.4075C54.0741 63.4334 53.8641 62.0323 53.6925 61.294C53.521 60.5558 53.2794 56.0256 53.1557 51.2269C52.9962 45.0416 52.5519 43.0881 51.6295 44.5155C50.9139 45.6229 50.3191 48.6732 50.3078 51.294C50.285 56.5453 48.3473 59.2806 44.6497 59.2806C42.9138 59.2806 42.2278 58.2414 42.2131 55.5893C42.1928 51.9627 39.6123 46.0661 39.5696 49.549C39.5585 50.4718 38.7451 51.2269 37.7625 51.2269C35.2906 51.2269 32.506 56.8635 33.0547 60.7563C33.4421 63.505 32.9598 63.9703 29.7731 63.9222C26.8628 63.8765 25.8532 64.6198 25.204 67.2779C24.3452 70.7944 22.5401 72.647 19.9375 72.6829C19.1176 72.6929 18.105 69.8343 17.6875 66.3276C16.5292 56.5997 14.6693 52.6575 11.6148 53.4562C9.56061 53.9934 8.86335 55.7858 8.18546 62.2716C7.71746 66.7492 7.33455 72.7809 7.33455 75.6754C7.33455 80.5132 7.09074 80.863 4.31445 80.0097C2.65338 79.499 1.05133 78.863 0.75433 78.5962C0.117492 78.0241 3.12619 31.0705 4.20682 24.7168C4.73747 21.5968 5.6708 20.3544 7.48394 20.3544C9.40594 20.3544 10.0191 19.3805 10.0191 16.3276C10.0191 12.9271 10.5411 12.3007 13.3748 12.3007C15.2204 12.3007 16.7305 11.6967 16.7305 10.9584C16.7305 10.2202 18.2405 9.61615 20.0861 9.61615C23.1062 9.61615 23.4418 10.153 23.4418 14.9853C23.4418 18.8629 24.0011 20.3544 25.4552 20.3544C26.5738 20.3544 27.4686 19.1613 27.4686 17.6699C27.4686 15.7011 28.3635 14.9853 30.8243 14.9853C33.2851 14.9853 34.18 14.2694 34.18 12.3007C34.18 10.332 35.0748 9.61615 37.5357 9.61615C40.3693 9.61615 40.8913 10.2425 40.8913 13.643C40.8913 16.3276 41.5625 17.6699 42.9048 17.6699C44.0121 17.6699 44.9182 16.7638 44.9182 15.6564C44.9182 14.4036 46.1859 13.643 48.2738 13.643C50.9826 13.643 51.6295 14.3079 51.6295 17.092C51.6295 19.9011 52.1899 20.4615 54.6496 20.1122C56.6319 19.8306 57.6697 18.7607 57.6697 16.9987C57.6697 15.0679 58.7061 14.1949 61.361 13.8894C64.6776 13.5079 65.0522 13.8843 65.0522 17.5807C65.0522 20.382 65.7088 21.6967 67.1078 21.6967C68.2383 21.6967 69.511 22.6027 69.9359 23.7101C71.4639 27.6921 73.1059 25.6063 73.1059 19.6832C73.1059 14.1351 73.3793 13.643 76.4615 13.643C79.2952 13.643 79.8172 14.2694 79.8172 17.6699C79.8172 19.8846 80.4212 21.6967 81.1595 21.6967C81.8977 21.6967 82.5017 19.2806 82.5017 16.3276C82.5017 11.5063 82.8416 10.9584 85.8319 10.9584C89.1865 10.9584 89.6587 11.8163 91.0035 20.3544C91.3631 22.6372 91.5905 22.1009 91.7149 18.6766C91.8419 15.1784 92.5118 13.643 93.9111 13.643C95.1638 13.643 95.9245 12.3753 95.9245 10.2873C95.9245 7.26714 96.4614 6.93155 101.294 6.93155C105.971 6.93155 106.663 7.32165 106.663 9.95958C106.663 12.0331 107.932 13.5495 110.689 14.7701C113.078 15.8275 114.716 17.5666 114.716 19.0454C114.716 20.4165 115.32 21.9116 116.059 22.3678C116.797 22.8239 117.401 21.9538 117.401 20.4336C117.401 18.9135 118.005 17.6699 118.743 17.6699C119.489 17.6699 120.085 14.0904 120.085 9.61615C120.085 1.92042 120.234 1.56245 123.441 1.56245C125.529 1.56245 126.797 2.32307 126.797 3.57584C126.797 4.68327 127.703 5.58928 128.81 5.58928C130.216 5.58928 130.824 7.00613 130.824 10.2873C130.824 14.8734 130.951 14.9853 136.193 14.9853C141.326 14.9853 141.568 15.177 141.704 19.3477L141.847 23.7101L143.306 20.0188C144.146 17.892 145.792 16.3276 147.19 16.3276C148.72 16.3276 149.615 15.3371 149.615 13.643C149.615 11.6743 150.51 10.9584 152.971 10.9584C155.059 10.9584 156.327 11.719 156.327 12.9719C156.327 14.3141 157.669 14.9853 160.353 14.9853C163.119 14.9853 164.38 15.6457 164.38 17.0946C164.38 19.0121 164.572 19.0121 166.49 17.0946C169.563 14.0211 176.461 14.2903 176.461 17.4837C176.461 19.4249 177.209 19.8391 179.816 19.3407C181.662 18.9875 183.172 19.3049 183.172 20.0413C183.172 20.7795 184.329 21.6861 185.743 22.0558C187.157 22.4257 188.585 24.1571 188.916 25.9037C189.387 28.3906 189.558 28.1332 189.701 24.7168C189.844 21.2867 190.466 20.3544 192.61 20.3544C194.11 20.3544 195.684 21.2605 196.109 22.3678C197.499 25.9897 199.279 24.4822 199.279 19.6832C199.279 15.3581 199.599 14.9853 203.306 14.9853C205.521 14.9853 207.333 14.3812 207.333 13.643C207.333 12.9047 208.843 12.3007 210.689 12.3007C213.149 12.3007 214.044 13.0165 214.044 14.9853C214.044 16.6755 214.939 17.6699 216.46 17.6699C217.789 17.6699 219.601 18.3946 220.487 19.2806C221.74 20.5333 222.098 20.4166 222.098 18.7549C222.098 17.5799 223.608 16.2396 225.454 15.7763C227.905 15.1611 228.809 14.0367 228.809 11.604C228.809 8.94667 229.487 8.27383 232.165 8.27383C234.892 8.27383 235.55 8.96496 235.68 11.9651C235.767 13.9953 235.767 16.1094 235.68 16.6631C235.592 17.2168 236.462 17.6698 237.613 17.6698C238.764 17.6698 239.333 17.0658 238.876 16.3275C238.42 15.5893 238.687 14.9853 239.468 14.9853C240.25 14.9853 240.89 13.7772 240.89 12.3007C240.89 10.5317 241.785 9.61615 243.514 9.61615C245.449 9.61615 246.368 10.8478 247.019 14.3141C247.843 18.7083 248.231 19.0121 253.021 19.0121C256.77 19.0121 258.307 19.6416 258.756 21.3611C259.094 22.653 259.44 21.4448 259.526 18.6765C259.663 14.2437 260.082 13.643 263.037 13.643C265.498 13.643 266.393 14.3589 266.393 16.3275C266.393 17.8189 267.288 19.0121 268.406 19.0121C269.514 19.0121 270.42 18.1706 270.42 17.1423C270.42 16.1139 271.326 14.9248 272.433 14.4998C273.541 14.0747 274.447 12.1982 274.447 10.3294C274.447 7.44884 275.06 6.93155 278.473 6.93155C281.605 6.93155 282.5 6.33498 282.5 4.24696C282.5 2.2783 283.395 1.56245 285.856 1.56245C288.961 1.56245 289.213 2.03778 289.232 7.93827C289.255 15.0751 290.958 19.3671 292.338 15.7689C292.787 14.5996 293.928 13.6295 294.874 13.6131C295.82 13.5979 298.104 12.4021 299.95 10.9584C306.069 6.17147 309.431 7.64186 309.646 15.1997C309.749 18.8183 309.991 19.0967 311.381 17.1952C313.69 14.0376 318.742 14.3089 318.742 17.5904C318.742 19.0233 319.346 20.5691 320.084 21.0253C320.904 21.5322 321.426 19.4733 321.426 15.7354C321.426 10.1789 321.721 9.61593 324.632 9.61593C327.234 9.61593 328.005 10.502 328.72 14.3139C329.589 18.9448 333.507 21.1421 333.507 16.9985C333.507 15.8911 334.072 14.9851 334.764 14.9851C335.455 14.9851 336.21 13.022 336.442 10.6226C336.836 6.52797 337.212 6.2349 342.567 5.84751L348.271 5.43454L348.42 10.5453C348.502 13.3562 348.448 17.1006 348.299 18.8662C348.08 21.478 348.49 21.8983 350.5 21.1211C351.858 20.5958 354.664 19.8241 356.734 19.4064C359.19 18.9107 360.255 18.01 359.797 16.8158C359.299 15.5178 360.277 14.9849 363.158 14.9849C365.393 14.9849 366.882 15.5344 366.467 16.206C365.309 18.0802 367.122 21.6963 369.22 21.6963C370.32 21.6963 371.09 20.314 371.09 18.3405C371.09 15.656 371.761 14.9849 374.446 14.9849C376.907 14.9849 377.801 15.7008 377.801 17.6694C377.801 19.4591 378.696 20.354 380.486 20.354C382.325 20.354 383.224 21.3051 383.339 23.3741C383.432 25.0352 383.93 35.1526 384.446 45.8573L385.384 65.3204L385.62 40.1526L385.855 14.9849H389.211C392.186 14.9849 392.567 15.5486 392.567 19.9513C392.567 23.8141 392.925 24.5598 394.177 23.307C396.598 20.8859 400.614 21.3429 400.663 24.0452C400.701 26.145 400.879 26.1718 402.341 24.2974C403.24 23.1442 405.033 21.8041 406.325 21.3193C408.036 20.6771 408.674 18.9454 408.674 14.9376C408.674 9.72898 408.87 9.4597 412.365 9.8619C415.008 10.1658 416.178 11.1443 416.485 13.3067C416.826 15.7045 417.794 16.3356 421.183 16.3695C425.708 16.4152 430.15 18.9604 430.15 21.5084C430.15 22.3498 431.056 23.0383 432.164 23.0383C433.282 23.0383 434.177 24.2314 434.177 25.7228C434.177 30.5025 436.599 28.5649 437.533 23.0383C438.289 18.5604 438.962 17.6691 441.584 17.6691C443.823 17.6691 444.852 16.7994 445.157 14.649C445.486 12.3369 446.452 11.6413 449.278 11.6818C452.245 11.7223 452.969 11.1321 452.969 8.66167C452.969 6.27859 453.722 5.58861 456.324 5.58861C459.488 5.58861 459.68 6.00158 459.68 12.8146C459.68 19.1736 460.042 20.1378 462.7 20.85C467.49 22.1336 469.076 21.8432 469.076 19.6826C469.076 18.5752 469.68 17.6691 470.418 17.6691C471.157 17.6691 471.689 17.2161 471.602 16.6625C471.514 16.1088 471.514 13.6927 471.602 11.2933C471.737 7.5773 472.258 6.93093 475.116 6.93093C477.097 6.93093 478.472 7.70052 478.472 8.80917C478.472 10.066 480.447 10.8445 484.442 11.1623C489.25 11.5448 490.532 11.1775 491.028 9.28404C491.415 7.80444 492.936 6.93093 495.125 6.93093C498.098 6.93093 498.606 7.51854 498.606 10.9578C498.606 13.6423 499.277 14.9846 500.619 14.9846C501.727 14.9846 502.633 14.0483 502.633 12.9039C502.633 11.2634 503.963 10.9085 508.92 11.2261C514.658 11.5939 515.278 11.3362 516.026 8.28022C516.985 4.35444 521.306 3.02491 523.039 6.12184C523.701 7.30506 525.119 8.27316 526.189 8.27316C527.436 8.27316 528.136 9.6531 528.136 12.1127C528.136 20.4514 529.863 28.4074 531.674 28.4074C532.786 28.4074 533.505 26.9267 533.505 24.6371C533.505 22.5635 534.392 19.6943 535.476 18.2613C536.56 16.8282 537.466 14.2967 537.489 12.6356C537.525 10.3204 538.315 9.61543 540.888 9.61543C543.721 9.61543 544.243 10.2419 544.243 13.6423C544.243 16.7242 544.851 17.6691 546.831 17.6691C548.961 17.6691 549.582 18.9748 550.342 25.0517C551.494 34.2734 553.639 34.71 553.639 25.7228C553.639 19.428 553.851 19.0115 557.054 19.0115C559.007 19.0115 560.375 18.2933 560.25 17.3336C560.131 16.4108 560.104 13.0886 560.191 9.95104C560.324 5.19421 560.797 4.24633 563.035 4.24633C565.191 4.24633 565.72 5.14119 565.72 8.78774C565.72 12.2003 566.387 13.5037 568.404 14.0313C569.881 14.4173 571.089 15.6121 571.089 16.6862C571.089 18.0668 572.114 18.4432 574.587 17.9704C576.739 17.5589 578.532 18.0161 579.245 19.1632C580.087 20.5158 580.645 19.8319 581.283 16.6625C581.979 13.212 582.829 12.3 585.35 12.3C587.856 12.3 588.538 13.0183 588.538 15.6557C588.538 17.7437 589.299 19.0115 590.552 19.0115C591.894 19.0115 592.565 17.6692 592.565 14.9846C592.565 11.6101 593.095 10.9578 595.841 10.9578C597.644 10.9578 599.419 11.4448 599.787 12.04C600.921 13.875 610.014 12.1856 610.014 10.1398C610.014 9.11316 611.223 8.27316 612.699 8.27316C614.668 8.27316 615.384 9.16806 615.384 11.6289C615.384 14.3134 616.055 14.9846 618.739 14.9846C620.827 14.9846 622.095 15.7452 622.095 16.998C622.095 18.1054 623.001 19.0115 624.108 19.0115C625.216 19.0115 626.122 18.1054 626.122 16.998C626.122 15.7452 627.389 14.9846 629.477 14.9846C631.495 14.9846 632.833 15.7513 632.833 16.9075C632.833 17.9652 634.041 19.2139 635.518 19.6826C637.04 20.1655 638.27 21.8033 638.358 23.4643C638.479 25.7349 638.652 25.8655 639.128 24.045C639.465 22.7531 640.603 21.696 641.656 21.696C642.789 21.696 643.571 20.3645 643.571 18.4362C643.571 16.6433 644.477 14.2703 645.585 13.1629C646.692 12.0555 647.598 10.2003 647.598 9.04021C647.598 7.88007 648.504 6.93093 649.612 6.93093C650.719 6.93093 651.625 6.02487 651.625 4.91749C651.625 3.66472 652.893 2.9041 654.981 2.9041C657.921 2.9041 658.336 3.48569 658.336 7.60204C658.336 10.1859 658.94 12.3 659.679 12.3C660.417 12.3 661.103 15.1692 661.204 18.6759C661.304 22.1825 661.618 23.5417 661.901 21.696C663.643 10.3385 663.896 9.61679 666.115 9.65819C669.331 9.71804 673.101 12.8538 673.101 15.4681C673.101 16.6787 673.705 17.6691 674.443 17.6691C675.182 17.6691 675.786 14.951 675.786 11.6289C675.786 6.22606 676.111 5.58861 678.864 5.58861C681.178 5.58861 682.261 6.67091 683.226 9.95104C684.111 12.9549 685.451 14.447 687.531 14.7424C690.025 15.0965 690.551 14.5384 690.551 11.5346C690.551 7.40993 693.808 4.35206 698.269 4.289C701.064 4.24855 701.303 4.87098 701.472 12.6356C701.572 17.2497 701.916 19.6658 702.236 18.0047C702.999 14.0472 708.785 13.7975 710.014 17.6694C710.648 19.6671 712.045 20.354 715.473 20.354C719.954 20.354 720.081 20.2058 720.081 14.9848C720.081 8.95786 721.343 8.44226 729.17 11.2723C733.252 12.7485 733.957 12.6475 735.641 10.3446C737.442 7.88172 737.538 7.93 737.698 11.3725C737.79 13.3593 738.016 15.5889 738.201 16.3271C738.386 17.0654 738.612 18.6111 738.704 19.762C738.797 20.913 739.476 21.4813 740.214 21.0251C740.952 20.569 741.556 17.211 741.556 13.5633C741.556 7.38383 741.785 6.93111 744.912 6.93111C746.758 6.93111 748.268 7.53517 748.268 8.27343C748.268 9.01168 749.374 9.6157 750.725 9.6157C752.967 9.6157 755.044 12.3757 756.788 17.6694C757.153 18.7767 757.499 17.1157 757.558 13.9781C757.653 8.81621 757.983 8.27343 761.019 8.27343C763.747 8.27343 764.405 8.96456 764.534 11.9647C764.621 13.9949 764.621 16.1089 764.534 16.6626C764.447 17.2163 765.281 17.6694 766.388 17.6694C767.496 17.6694 768.402 17.1055 768.402 16.4163C768.402 15.727 770.063 14.972 772.093 14.7384C775.536 14.3422 775.812 13.8394 776.19 7.26671C776.562 0.795394 776.864 0.219727 779.881 0.219727C782.82 0.219727 783.167 0.787158 783.167 5.58883C783.167 9.80344 783.672 10.9602 785.516 10.9684C787.788 10.9784 791.22 16.3833 791.22 19.9504C791.22 20.9106 792.126 21.6962 793.234 21.6962C794.576 21.6962 795.247 20.3539 795.247 17.6694C795.247 14.7129 795.872 13.6539 797.596 13.6852C801.383 13.7542 804.643 17.0259 804.643 20.7583C804.643 22.6635 805.247 24.5957 805.985 25.0519C806.838 25.5788 807.328 21.9339 807.328 15.0641C807.328 4.42024 807.38 4.24655 810.683 4.24655C813.815 4.24655 814.039 4.694 814.039 10.9579C814.039 14.6492 814.643 17.6694 815.381 17.6694C816.12 17.6694 816.724 17.1409 816.724 16.4949C816.724 15.8489 818.536 14.958 820.75 14.515C823.983 13.8685 824.777 13.0228 824.777 10.227C824.777 7.38319 825.331 6.82311 827.797 7.17337C830.308 7.53001 830.887 8.56466 831.23 13.3069C831.557 17.8266 832.162 19.0116 834.14 19.0116C835.514 19.0116 837.545 19.3597 838.654 19.7854C840.036 20.3157 840.81 19.5763 841.113 17.4364C841.434 15.1717 842.478 14.2714 844.911 14.1598C846.757 14.0751 849.404 13.5269 850.794 12.9413C852.27 12.3191 854.355 12.5227 855.809 13.4309C857.178 14.2856 861.059 14.985 864.435 14.985C867.885 14.985 870.234 15.5326 869.8 16.2355C869.375 16.9233 869.443 21.0005 869.951 25.2959L870.874 33.1058L872.639 29.0789C873.61 26.8641 874.274 22.6419 874.114 19.6961C873.885 15.4469 874.33 14.2429 876.269 13.8695C878.45 13.4494 883.837 17.6152 883.837 19.7227C883.837 20.1753 884.743 21.4519 885.851 22.5593C887.64 24.349 887.864 24.3383 887.864 22.4634C887.864 20.2723 893.825 19.3965 895.067 21.4052C895.424 21.9834 897.725 22.4364 900.179 22.412C903.769 22.3762 904.726 21.7767 905.071 19.3474C905.382 17.1615 906.401 16.3272 908.763 16.3272C910.583 16.3272 912.025 17.1166 912.025 18.1139C912.025 19.0965 913.535 20.7086 915.381 21.6964C917.226 22.6842 918.736 24.5793 918.736 25.9079C918.736 27.5037 919.42 28.0613 920.75 27.5509C921.857 27.1258 922.763 25.3328 922.763 23.5662C922.763 21.6058 923.548 20.3541 924.777 20.3541C926.119 20.3541 926.79 19.0118 926.79 16.3272C926.79 12.9521 927.32 12.3004 930.068 12.3004C932.966 12.3004 933.395 12.9634 933.76 18.0051C934.236 24.5962 936.823 25.1358 936.926 18.6656C937 14.053 940.446 11.9972 943.308 14.8591C944.116 15.6665 945.864 16.3272 947.192 16.3272C948.889 16.3272 949.663 17.4265 949.791 20.0185C949.948 23.1833 950.057 23.2791 950.556 20.6896C950.963 18.5734 952.087 17.6695 954.311 17.6695C956.774 17.6695 957.579 16.8443 957.909 13.9782C958.242 11.0789 959.125 10.1958 962.024 9.86222C965.621 9.44825 965.716 9.61108 965.716 16.238C965.716 19.9784 966.32 23.0386 967.058 23.0386C967.796 23.0386 968.4 21.5779 968.4 19.7927C968.4 14.5109 969.829 12.3003 973.242 12.3003C975.8 12.3003 976.454 13.0056 976.454 15.7627C976.454 18.9672 976.779 19.155 980.816 18.2839C983.216 17.7663 985.662 16.5103 986.252 15.4927C986.842 14.4752 988.468 13.6426 989.864 13.6426C991.26 13.6426 992.776 13.0386 993.232 12.3003C993.688 11.5621 996.14 10.9581 998.681 10.9581H1003.3V20.3541C1003.3 28.8251 1003.56 29.75 1005.96 29.75C1007.76 29.75 1008.88 28.5664 1009.44 26.0587C1009.89 24.0285 1011.11 20.4641 1012.15 18.1377C1013.19 15.8114 1014.04 11.7343 1014.04 9.07737C1014.04 4.81944 1014.43 4.24664 1017.39 4.24664C1020.08 4.24664 1020.75 4.91782 1020.75 7.60236C1020.75 10.0632 1021.46 10.9581 1023.43 10.9581C1025.61 10.9581 1026.12 11.8529 1026.12 15.6561C1026.12 19.9812 1026.44 20.3541 1030.14 20.3541C1033.26 20.3541 1034.17 20.9553 1034.17 22.9965C1034.17 24.7938 1034.82 25.3919 1036.18 24.8663C1037.71 24.2829 1038.2 21.8274 1038.2 14.8413C1038.2 5.86696 1038.3 5.58896 1041.55 5.58896C1043.64 5.58896 1044.91 6.34958 1044.91 7.60236C1044.91 8.70973 1045.82 9.61579 1046.92 9.61579C1048.03 9.61579 1048.94 10.2198 1048.94 10.9581C1048.94 12.3218 1053.75 17.6695 1054.98 17.6695C1055.35 17.6695 1055.65 16.7634 1055.65 15.6561C1055.65 14.5487 1056.55 13.6426 1057.66 13.6426C1058.77 13.6426 1059.67 12.7366 1059.67 11.6292C1059.67 10.3764 1060.94 9.61579 1063.03 9.61579C1065.49 9.61579 1066.39 10.3317 1066.39 12.3003C1066.39 13.7769 1066.99 14.9849 1067.73 14.9849C1068.47 14.9849 1069.07 16.193 1069.07 17.6695C1069.07 19.4269 1069.97 20.3541 1071.66 20.3541C1073.28 20.3541 1074.47 21.4861 1074.83 23.3742L1075.42 26.3943L1075.6 23.3742C1075.74 21.117 1076.61 20.3541 1079.06 20.3541C1080.86 20.3541 1082.71 20.9581 1083.16 21.6963C1083.62 22.4346 1085.47 23.0386 1087.27 23.0386C1089.65 23.0386 1090.55 22.3054 1090.55 20.3541C1090.55 18.8626 1091.44 17.6695 1092.56 17.6695C1093.67 17.6695 1094.57 16.5822 1094.57 15.2534C1094.57 9.69072 1102.5 7.16274 1102.78 12.6359C1102.87 14.297 1103.08 16.2601 1103.25 16.9984C1103.42 17.7366 1103.65 19.0957 1103.77 20.0185C1104.23 23.8556 1106.65 21.3243 1106.65 16.9984C1106.65 12.882 1107.07 12.3003 1110.01 12.3003C1111.86 12.3003 1113.37 12.9044 1113.37 13.6426C1113.37 14.3809 1114.24 14.9849 1115.3 14.9849C1116.56 14.9849 1117.37 13.244 1117.65 9.95135C1117.98 5.90811 1118.66 4.83338 1121.08 4.48886C1123.8 4.1028 1124.11 4.63799 1124.21 9.85797C1124.27 13.0469 1124.62 14.901 1124.99 13.9782C1125.37 13.0554 1127.11 12.3003 1128.88 12.3003C1131.35 12.3003 1132.35 13.2913 1133.27 16.6628L1134.46 21.0252L1135.48 14.6494C1136.27 9.65452 1137.04 8.27347 1139.02 8.27347C1140.85 8.27347 1141.6 9.29745 1141.71 11.9648C1141.81 14.2358 1142.1 14.7523 1142.48 13.3071C1143.25 10.3562 1149.61 10.057 1149.61 12.9717C1149.61 14.0791 1150.21 14.9851 1150.95 14.9851C1151.69 14.9851 1152.29 14.0791 1152.29 12.9717C1152.29 11.7189 1153.56 10.9583 1155.65 10.9583C1158.59 10.9583 1159 11.5399 1159 15.6563C1159 18.2402 1159.61 20.3543 1160.35 20.3543C1161.08 20.3543 1161.69 19.4483 1161.69 18.3409C1161.69 15.8727 1168.31 15.5507 1168.59 18.0055C1168.69 18.9283 1169.15 17.2672 1169.6 14.3142C1170.22 10.1891 1171.07 8.85103 1173.26 8.53908C1176.48 8.07945 1177.75 11.113 1177.78 19.3478C1177.79 22.1162 1178.4 24.3813 1179.14 24.3813C1180.62 24.3813 1180.99 49.9877 1179.62 58.274C1178.94 62.3764 1178.22 63.3075 1175.72 63.3075C1173.2 63.3075 1172.5 62.3682 1171.75 57.9384C1170.72 51.8029 1167.58 50.6967 1166.25 55.9983C1165.56 58.7441 1164.68 59.3459 1161.86 59.0184C1159.36 58.7287 1158.21 57.7138 1157.9 55.531C1157.59 53.4004 1156.77 52.641 1155.21 53.0648C1146.64 55.3987 1138.55 56.7602 1136.93 56.1395C1135.88 55.7372 1134.78 53.4101 1134.48 50.9684C1134.18 48.5267 1133.83 50.9085 1133.71 56.2605C1133.51 65.6887 1133.4 65.9921 1130.14 65.9921C1127.22 65.9921 1126.79 65.4051 1126.79 61.3733C1126.79 58.833 1126.14 56.3564 1125.36 55.8698C1123.32 54.61 1120.17 59.283 1120.12 63.6431C1120.08 66.6742 1119.48 67.3343 1116.72 67.3343C1113.89 67.3343 1113.37 66.708 1113.37 63.3075C1113.37 59.9071 1112.84 59.2806 1110.01 59.2806C1107.92 59.2806 1106.65 58.52 1106.65 57.2672C1106.65 56.1599 1106.05 55.2538 1105.31 55.2538C1104.57 55.2538 1103.97 56.4618 1103.97 57.9384C1103.97 59.9071 1103.08 60.6229 1100.61 60.6229C1097.98 60.6229 1097.26 59.9394 1097.26 57.4534C1097.26 54.7963 1096.72 54.3875 1093.9 54.9253C1092.06 55.2779 1090.55 54.9892 1090.55 54.2834C1090.55 52.5333 1084.45 49.8847 1080.42 49.8847C1078.61 49.8847 1077.12 49.2807 1077.12 48.5424C1077.12 47.8042 1075.01 47.2001 1072.43 47.2001H1067.73V55.2538C1067.73 64.1307 1066.56 65.0109 1059.28 61.6296C1056.19 60.195 1055.67 59.1251 1055.66 54.2471C1055.65 51.1095 1055.04 48.5424 1054.31 48.5424C1053.57 48.5424 1052.96 49.6072 1052.96 50.9086C1052.96 52.2101 1051.6 53.8712 1049.94 54.5999C1047.72 55.5738 1046.81 57.2588 1046.51 60.9585C1046.15 65.2857 1045.63 65.9921 1042.82 65.9921C1039.97 65.9921 1039.54 65.3794 1039.54 61.2941C1039.54 57.3 1039.08 56.5961 1036.48 56.5961C1033.24 56.5961 1030.68 54.1774 1027.57 48.188C1023.69 40.7136 1020.8 44.7164 1020.77 57.6028C1020.76 61.4787 1020.19 64.6498 1019.52 64.6498C1018.84 64.6498 1017.33 65.0166 1016.16 65.4645C1014.35 66.16 1014.04 64.8941 1014.04 56.8189C1014.04 51.6157 1013.43 46.9853 1012.7 46.529C1011.93 46.0587 1011.35 47.1862 1011.35 49.1343C1011.35 51.2927 1010.61 52.5692 1009.34 52.5692C1008.23 52.5692 1007.33 53.5173 1007.33 54.676C1007.33 57.9491 1001.37 56.5345 1000.89 53.1464C1000.57 50.8914 999.745 50.4774 996.527 50.9497C994.346 51.2698 992.562 52.0671 992.562 52.7216C992.562 53.3761 991.354 53.9115 989.877 53.9115C987.491 53.9115 987.193 54.8064 987.193 61.9652V70.0189H982.651C977.794 70.0189 976.511 67.9984 976.473 60.2873C976.455 57.5579 975.788 56.5961 973.896 56.5961C971.829 56.5961 971.148 55.2419 970.355 49.5491C969.059 40.2549 967.284 44.3472 967.153 56.9316C967.062 65.6761 966.941 65.9921 963.703 65.9921C961.857 65.9921 960.335 65.539 960.32 64.9853C960.018 53.9236 958.909 43.8831 957.874 42.8481C955.336 40.3099 953.636 43.3897 953.636 50.5253C953.636 59.7724 952.724 61.9652 948.876 61.9652C946.196 61.9652 945.617 61.0978 944.841 55.925C944.152 51.332 943.355 49.8847 941.513 49.8847C940.18 49.8847 938.135 49.5179 936.967 49.0699C935.174 48.3818 934.844 49.529 934.844 56.4525C934.844 64.1836 934.663 64.6498 931.66 64.6498C928.975 64.6498 928.309 63.7547 927.413 58.9451C926.643 54.8074 926.201 54.07 925.806 56.2605C925.428 58.3554 924.319 59.2806 922.185 59.2806C919.408 59.2806 919.04 58.5129 918.391 51.3562C917.996 46.9977 917.047 42.3165 916.284 40.9535C915.139 38.9119 914.73 39.7167 913.958 45.5222C913.136 51.7131 912.646 52.5692 909.929 52.5692C908.016 52.5692 906.512 51.5459 905.985 49.8847C905.516 48.4082 904.268 47.2001 903.21 47.2001C901.759 47.2001 901.287 49.136 901.287 55.086C901.287 66.4404 900.07 71.3612 897.26 71.3612C894.552 71.3612 893.234 66.4735 893.234 56.4283C893.234 52.8293 892.63 49.8847 891.891 49.8847C891.153 49.8847 890.549 51.0927 890.549 52.5692C890.549 56.0697 884.324 56.3627 883.421 52.9046C883.083 51.6127 882.737 54.9768 882.651 60.3805C882.502 69.7638 882.359 70.1861 879.475 69.7765C877.049 69.432 876.373 68.3573 876.039 64.314C875.809 61.5455 875.054 59.2804 874.361 59.2804C873.667 59.2804 873.1 57.7704 873.1 55.9247C873.1 53.2136 872.435 52.569 869.641 52.569C866.402 52.569 866.209 52.9302 866.602 58.2737L867.021 63.9784L862.007 64.3949L856.992 64.8114L856.81 59.0257C856.709 55.8435 856.365 54.599 856.045 56.2601C855.249 60.393 848.939 60.5993 848.939 56.4925C848.939 54.9591 847.127 51.8926 844.912 49.6778L840.885 45.6509V49.2815C840.885 52.7653 840.668 52.8773 835.516 52.0534C830.747 51.2908 830.147 51.4965 830.147 53.8953C830.147 55.8809 829.259 56.5957 826.791 56.5957C823.958 56.5957 823.436 55.9693 823.436 52.5688C823.436 46.7742 819.766 47.2888 818.649 53.24C818.144 55.9307 816.971 57.938 815.904 57.938C814.879 57.938 814.04 59.146 814.04 60.6225C814.04 62.7106 813.145 63.3071 810.013 63.3071C807.328 63.3071 805.986 63.9783 805.986 65.3205C805.986 66.5734 804.718 67.334 802.63 67.334C799.554 67.334 799.256 66.804 799.049 60.9581C798.842 55.1168 798.779 55.0042 798.297 59.6158C797.857 63.8191 797.262 64.6494 794.686 64.6494C792.154 64.6494 791.388 63.6487 790.405 59.0528C788.426 49.8015 785.852 50.9547 785.852 61.0927C785.852 69.6376 785.767 69.8501 782.161 70.265C778.956 70.6338 778.415 71.3532 778.053 75.7232C777.727 79.6666 777.072 80.7568 775.033 80.7568C773.324 80.7568 772.429 81.6795 772.429 83.4414C772.429 85.4101 771.534 86.126 769.074 86.126H765.718V69.0963V52.0666L761.953 55.6734C757.449 59.9888 752.295 60.5233 752.295 56.675C752.295 52.6868 750.004 52.1623 749.057 55.9339C748.202 59.3397 743.879 60.6086 742.228 57.938C741.772 57.1997 739.924 56.5957 738.122 56.5957C735.135 56.5957 734.066 58.3707 734.687 62.3004C734.774 62.8541 733.155 63.3071 731.088 63.3071C727.587 63.3071 727.368 62.9885 727.878 58.6227C728.277 55.2037 727.843 53.7147 726.266 53.11C725.079 52.6544 724.047 50.6852 723.974 48.734L723.84 45.1863L722.912 48.542C722.342 50.6027 720.84 52.0633 719.019 52.3267C716.636 52.6716 716.054 53.6381 716.054 57.2505C716.054 59.7226 715.687 62.7008 715.239 63.8685C714.276 66.3798 709.412 66.7377 709.188 64.3139C709.103 63.3911 708.892 62.032 708.721 61.2938C708.55 60.5555 708.317 59.1965 708.205 58.2737C708.092 57.3508 707.094 56.5959 705.987 56.5959C704.581 56.5959 703.974 55.179 703.974 51.8978C703.974 49.3139 703.629 47.1998 703.207 47.1998C700.849 47.1998 698.605 51.7349 698.605 56.5C698.605 61.4345 698.279 61.965 695.249 61.965C693.403 61.965 691.893 61.3609 691.893 60.6227C691.893 59.8844 690.987 59.2804 689.88 59.2804C688.772 59.2804 687.866 58.6763 687.866 57.9381C687.866 57.1998 686.658 56.5959 685.182 56.5959C683.69 56.5959 682.497 57.4907 682.497 58.6092C682.497 59.7166 681.591 60.6227 680.484 60.6227C679.377 60.6227 678.542 61.0758 678.629 61.6294C678.717 62.1831 678.717 67.0153 678.629 72.3676C678.478 81.6591 678.327 82.0992 675.297 82.0992C672.54 82.0992 672.012 81.2833 671.27 75.8716C670.801 72.4464 670.417 67.0101 670.417 63.791C670.417 58.2135 670.232 57.9381 666.483 57.9381C663.446 57.9381 662.437 57.2503 662.055 54.918C661.782 53.2569 661.064 55.824 660.458 60.6227C659.414 68.8878 658.165 71.2933 654.896 71.3404C654.111 71.3503 652.639 69.2468 651.625 66.6629C649.045 60.0878 647.598 60.8113 647.598 68.6764C647.598 74.8603 647.346 75.3878 644.386 75.3878C640.661 75.3878 639.545 73.1961 639.545 65.882C639.545 61.2016 639.185 60.6227 636.27 60.6227C633.456 60.6227 632.937 59.9156 632.579 55.6003C632.264 51.8062 631.506 50.4654 629.478 50.1179C628.001 49.8647 626.003 48.6518 625.038 47.4222C623.405 45.3429 623.189 45.3508 621.951 47.5353C621.219 48.8272 619.463 49.8843 618.049 49.8843C616.635 49.8843 614.832 51.0923 614.041 52.5689C612.57 55.3189 605.988 56.4158 605.988 53.9112C605.988 53.1729 602.968 52.5689 599.276 52.5689C593.46 52.5689 592.565 52.2107 592.565 49.8843C592.565 48.3929 591.67 47.1997 590.552 47.1997C589.433 47.1997 588.538 48.3929 588.538 49.8843C588.538 51.853 587.643 52.5689 585.183 52.5689C582.107 52.5689 581.827 52.0712 581.827 46.6078C581.827 43.3292 581.292 40.3159 580.637 39.9115C579.176 39.0083 577.843 43.6444 577.818 49.7165C577.803 54.0179 577.599 54.2066 573.827 53.4521L569.854 52.6574L569.464 63.6869C569.102 73.9656 568.87 74.7457 566.055 75.1454C564.024 75.4341 563.035 74.8847 563.035 73.4676C563.035 72.2556 561.895 71.3608 560.351 71.3608C558.147 71.3608 557.663 70.4598 557.648 66.3272C557.623 60.0896 556.392 55.2534 554.825 55.2534C554.173 55.2534 553.639 57.0655 553.639 59.2802C553.639 62.6807 553.117 63.3071 550.284 63.3071C547.322 63.3071 546.914 62.7155 546.807 58.2735L546.686 53.24L545.402 57.6969C544.25 61.6954 543.675 62.1097 539.818 61.7238C535.999 61.3417 535.471 61.7085 535.094 64.9849C534.76 67.8842 533.968 68.6762 531.402 68.6762C528.564 68.6762 528.136 68.0604 528.136 63.9782C528.136 60.6784 527.531 59.2802 526.104 59.2802C524.987 59.2802 522.927 58.5645 521.526 57.6897C519.563 56.4639 517.762 56.4639 513.67 57.6897C510.75 58.5645 507.129 59.2802 505.623 59.2802C503.362 59.2802 502.727 60.4278 501.979 65.8634C501.263 71.0731 500.466 72.6095 498.162 73.2276C491.816 74.9297 490.552 74.2851 490.552 69.3474C490.552 66.7634 490.026 64.6494 489.383 64.6494C487.526 64.6494 486.601 78.0657 486.524 106.112C486.484 120.426 486.131 132.658 485.739 133.293C485.346 133.928 483.939 134.448 482.612 134.448C480.539 134.448 480.08 132.797 479.349 122.703C478.882 116.243 478.444 99.5455 478.376 85.5967C478.249 59.4566 477.474 55.2534 472.78 55.2534C470.953 55.2534 470.409 54.113 470.376 50.2198C470.332 45.1454 467.942 40.4883 465.38 40.4883C463.76 40.4883 462.365 43.6451 462.365 47.3094C462.365 48.7256 461.716 49.8842 460.923 49.8842C460.054 49.8842 459.604 52.4187 459.791 56.2601C460.188 64.4364 458.616 71.3608 456.361 71.3608C454.281 71.3608 452.969 74.2958 452.969 78.9465C452.969 81.6417 452.386 82.203 449.949 81.8568C446.997 81.4378 446.92 80.9887 446.555 62.201C446.276 47.7892 445.772 43.108 444.542 43.5089C442.797 44.0777 439.891 55.7006 439.675 62.9715C439.565 66.6954 439.055 67.3339 436.19 67.3339C433.218 67.3339 432.828 66.7585 432.774 62.3003C432.741 59.5319 431.884 55.4547 430.87 53.24L429.026 49.2131L428.917 53.5755C428.857 55.9749 428.204 57.9379 427.466 57.9379C426.727 57.9379 426.123 58.844 426.123 59.9513C426.123 61.0699 424.93 61.9648 423.439 61.9648C421.498 61.9648 420.754 61.0699 420.754 58.735C420.754 55.8773 419.981 55.399 414.043 54.5822C409.609 53.9724 407.331 53.0187 407.331 51.7717C407.331 48.8982 404.491 49.5207 403.694 52.5688C403.305 54.0546 401.863 55.2534 400.464 55.2534C398.391 55.2534 397.936 56.264 397.936 60.8628C397.936 67.7455 395.322 75.3876 392.968 75.3876C391.693 75.3876 391.207 78.1855 391.161 85.7903C391.098 96.2579 390.583 108.929 389.086 136.797C388.3 151.426 388.178 151.898 385.187 151.898C382.174 151.898 382.08 151.496 381.33 135.455L381.329 135.455Z" fill="black"/>
</svg>
