<svg width="1181" height="165" viewBox="0 0 1181 165" fill="none" xmlns="http://www.w3.org/2000/svg">
<path d="M382.581 155.702C381.935 148.417 380.552 106.285 380.458 91.0485C380.407 82.7712 378.918 86.3998 377.647 97.8984C375.49 117.412 375.183 118.453 371.583 118.453C369.6 118.453 368.345 117.673 368.345 116.44C368.345 115.333 367.493 114.427 366.45 114.427C364.755 114.427 363.08 108.866 362.305 100.669C361.899 96.3731 360.292 96.4619 360.292 100.78C360.292 104.352 359.786 105.031 357.123 105.031C353.717 105.031 353.145 102.939 351.061 82.8831C350.16 74.207 348.858 75.1617 348.37 84.8565C348.204 88.1566 347.949 90.9507 347.804 91.0656C347.659 91.1805 346.263 91.6663 344.701 92.1453C342.205 92.9109 341.613 92.1629 339.795 85.9362L337.728 78.8562L336.762 83.2186C336.017 86.583 335.095 87.581 332.733 87.581C329.407 87.581 329.151 88.6298 327.33 109.729C326.228 122.505 325.738 123.823 322.094 123.823C318.548 123.823 318.475 123.539 315.607 98.7093C314.651 90.4338 313.441 83.2358 312.919 82.7138C312.397 82.1915 311.97 82.4693 311.97 83.3305C311.97 84.1918 310.827 84.8965 309.429 84.8965C305.894 84.8965 305.084 87.7036 304.391 102.346C303.655 117.899 303.482 118.454 299.373 118.454C297.565 118.454 295.782 117.699 295.41 116.776C295.037 115.853 294.685 117.061 294.627 119.46C294.537 123.135 294.015 123.823 291.314 123.823C287.722 123.823 287.252 122.291 285.692 105.471C285.072 98.7942 284.303 96.0342 283.183 96.4642C280.524 97.4845 276.609 107.766 275.076 117.753L273.638 127.119L270.809 120.437C267.836 113.418 266.567 104.325 266.222 87.581C265.866 70.255 264 83.4004 263.65 105.702C263.477 116.776 262.952 129.762 262.485 134.561C261.752 142.085 261.246 143.341 258.807 143.69C256.372 144.037 255.858 143.218 255.115 137.798C254.641 134.335 254.159 125.697 254.045 118.602L253.837 105.702L252.495 116.105C251.256 125.715 250.916 126.507 248.031 126.507C244.143 126.507 243.876 125.292 243.005 103.688C242.321 86.7172 240.155 72.816 238.195 72.816C237.607 72.816 236.754 76.5911 236.299 81.2053C235.6 88.3016 233.262 115.948 232.808 122.48C232.732 123.588 231.722 122.682 230.565 120.467C229.408 118.252 227.643 115.786 226.642 114.986C225.541 114.107 224.462 109.204 223.909 102.57C223.406 96.541 222.477 91.6079 221.845 91.6079C221.213 91.6079 220.696 93.3843 220.696 95.5555C220.696 97.7267 220.092 99.8764 219.353 100.333C218.615 100.789 218.011 102.637 218.011 104.439C218.011 107.015 217.313 107.715 214.746 107.715C212.723 107.715 211.174 106.75 210.676 105.179C210.233 103.784 208.44 102.369 206.691 102.035C203.594 101.443 203.499 101.703 203.031 112.01C202.58 121.934 201.306 125.059 197.677 125.144C195.93 125.185 191.166 114.23 191.166 110.171C191.166 107.876 190.276 105.327 189.188 104.508C187.937 103.565 186.797 99.0698 186.087 92.2791C185.027 82.1355 184.913 82.9531 184.022 107.044C182.891 137.631 182.036 150.495 181.023 152.134C180.008 153.775 175.423 153.686 174.383 152.003C173.924 151.261 173.238 145.372 172.857 138.916C172.476 132.46 171.959 125.668 171.708 123.822C171.458 121.977 171.151 112.916 171.027 103.688C170.747 82.9257 168.881 87.0304 167.528 111.382L166.605 127.989L163.13 127.584C160.336 127.258 159.482 126.256 158.78 122.48C158.299 119.897 157.234 114.529 156.415 110.552C155.595 106.576 154.863 99.9313 154.787 95.7872C154.668 89.2862 154.494 88.8049 153.517 92.2791C150.168 104.19 147.265 119.503 146.966 126.843C146.902 128.423 145.781 129.192 143.541 129.192C140.995 129.192 140.024 128.322 139.418 125.501C136.795 113.289 136.078 108.313 135.11 95.6348L134.034 81.5408L132.173 87.2885C130.951 91.0632 129.859 92.5823 128.99 91.7138C126.411 89.1342 122.71 92.7041 122.71 97.7722C122.71 105.961 119.983 114.427 117.346 114.427C114.001 114.427 112.227 111.797 111.188 105.3C110.178 98.9866 107.955 97.6593 107.927 103.353C107.891 110.224 106.46 113.255 103.454 112.819C101.438 112.527 100.08 110.633 98.5959 106.044C96.5887 99.8393 94.5222 97.6229 94.5222 101.675C94.5222 105.551 88.5958 103.981 86.6524 99.5909C84.041 93.6911 80.5216 94.8161 80.098 101.686C79.9164 104.633 79.4094 110.299 78.9716 114.276L78.1755 121.509L74.8227 118.156C72.0174 115.351 71.3169 113.022 70.5326 103.896C70.0171 97.8976 68.8616 92.2559 67.9649 91.3592C66.7078 90.102 66.3345 90.0975 66.3345 91.3415C66.3345 92.2275 65.1265 92.9523 63.65 92.9523C62.1735 92.9523 60.9624 93.7073 60.9588 94.6301C60.9551 95.553 59.5199 94.5181 57.7695 92.3302L54.5869 88.3525L53.8046 93.6725C53.3744 96.5986 52.6522 104.127 52.1998 110.402C51.1369 125.146 50.6939 126.509 46.9659 126.509C44.22 126.509 43.7882 125.681 42.9888 118.88C42.4957 114.683 41.4889 110.523 40.7516 109.635C40.0143 108.746 38.6527 102.364 37.7258 95.4523C36.533 86.5576 35.6703 83.4735 34.7732 84.8986C33.7745 86.4852 33.3463 86.0584 32.7535 82.8851C32.3345 80.6426 31.2166 88.6719 30.2305 101.006C29.2566 113.187 28.1529 126.929 27.7779 131.543C27.154 139.218 26.8316 139.932 23.9932 139.932C20.4293 139.932 20.07 137.913 18.6167 109.731C18.0073 97.913 17.2801 93.3376 15.886 92.55C14.593 91.8195 13.9429 88.8177 13.8511 83.1541C13.5899 67.0345 11.6607 82.9331 10.6259 109.731C10.0843 123.758 9.25968 138.556 8.79346 142.617C8.01793 149.371 7.65991 149.999 4.59005 149.999H1.23437L0.866568 127.516C0.548989 108.106 0.778295 105.033 2.54441 105.033C4.00639 105.033 4.60193 103.596 4.6312 99.9993C4.70882 90.4614 6.01536 65.423 6.73575 59.6694C7.38846 54.4566 7.73876 53.997 10.3864 54.8803C11.9971 55.4179 14.3721 55.8768 15.664 55.9005C17.0652 55.9239 18.0755 57.0462 18.1678 58.6762C18.253 60.1791 18.4631 62.0127 18.6345 62.7509C18.806 63.4892 19.0383 66.6603 19.1509 69.7979C19.2975 73.8831 19.9269 75.5026 21.3687 75.5026C22.9233 75.5026 23.4256 77.4143 23.5727 83.8918L23.7634 92.2812L24.9116 82.8851C25.5431 77.7174 26.3514 69.5631 26.7079 64.7644C27.8585 49.2791 28.4731 47.3147 32.1679 47.3147C35.3029 47.3147 35.4627 47.7086 35.4627 55.4325C35.4627 62.2305 35.9773 64.0309 38.6278 66.5063C41.0982 68.8136 41.9646 71.377 42.5757 78.1872C43.0065 82.9858 43.8095 90.5362 44.3606 94.9657C45.3193 102.671 45.4057 102.816 46.3574 98.3214C46.9046 95.7375 47.7771 85.6503 48.2964 75.9053C49.1632 59.6398 49.5011 57.9425 52.4187 55.2016L55.5968 52.2158V56.333C55.5968 58.7546 56.426 60.7685 57.6102 61.2229C58.9792 61.7481 59.6236 63.8922 59.6236 67.9214C59.6236 72.7225 60.1342 73.9808 62.3138 74.5508C64.3963 75.0953 65.1824 74.4482 65.7942 71.6871C67.7662 62.7863 67.9315 62.7117 70.5293 69.5518C71.9124 73.1939 73.0446 77.7992 73.0452 79.7858C73.0471 85.832 75.5449 85.3554 75.9877 79.2242C76.3327 74.4507 76.9084 73.417 79.4221 73.0601C81.0831 72.8244 82.4422 72.0691 82.4422 71.3822C82.4422 70.6953 83.9407 70.1333 85.7723 70.1333C88.3251 70.1333 89.2808 70.9949 89.8665 73.8245C90.2866 75.8547 91.1131 79.3279 91.7027 81.5426L92.7749 85.5695L93.8282 80.2004C96.0118 69.0688 99.9097 65.0395 101.619 72.1466C101.974 73.6231 102.335 72.3395 102.421 69.2943C102.71 59.0033 103.968 55.3682 107.24 55.3682C110.092 55.3682 110.267 56.0338 111.127 70.1957C111.622 78.3508 112.557 86.0522 113.204 87.3097C113.851 88.5674 115.006 91.1064 115.77 92.9521C117.126 96.2273 117.162 96.2001 117.25 91.8215C117.301 89.354 118.549 85.7994 120.026 83.9224C121.535 82.0036 122.71 78.477 122.71 75.8668C122.71 72.4602 123.379 71.0494 125.221 70.5676C127.983 69.8453 129.389 62.4188 129.41 48.4309C129.415 44.2463 129.788 39.8671 130.236 38.6994C131.347 35.8048 137.115 35.9727 137.992 38.9251C138.376 40.2171 139.39 53.6566 140.246 68.7909C141.102 83.9251 142.226 98.4218 142.744 101.006C143.602 105.279 143.876 104.673 145.78 94.2943C146.93 88.0191 147.955 77.4486 148.056 70.8044C148.343 51.9657 149.706 40.3362 152.204 35.3886L154.498 30.8453L156.618 37.402C157.962 41.5574 159.086 52.022 159.687 65.9755C160.705 89.5998 162.633 101.779 162.895 86.2406C163.078 75.4358 164.742 67.98 167.923 63.7197C171.467 58.9724 172.926 59.3855 173.985 65.4352C174.501 68.3883 175.437 73.2204 176.065 76.1735L177.206 81.5426L178.072 76.1735C178.549 73.2204 178.974 62.6499 179.016 52.6835C179.1 32.9011 180.286 4.67872 181.145 2.01235C181.443 1.0895 182.846 0.334473 184.263 0.334473C188.142 0.334473 188.328 1.98598 191.277 62.5126C192.543 88.5177 192.994 92.095 195.29 94.3917C197.845 96.9463 197.878 96.8355 197.878 85.5694C197.878 79.2943 198.389 74.1601 199.014 74.1601C201.091 74.1601 205.931 79.1396 205.931 81.2753C205.931 82.5621 207.343 83.5424 209.569 83.8024C212.121 84.1002 213.484 85.2294 214.133 87.5829C214.985 90.6677 215.07 90.5849 215.193 86.5579C215.267 84.1486 215.898 81.1284 216.596 79.8465C217.294 78.5646 218.264 75.0996 218.751 72.1466L219.637 66.7775L221.844 72.1939C223.059 75.173 225.355 78.8918 226.947 80.458L229.842 83.3056L230.55 77.7261C230.941 74.6574 231.845 66.5164 232.561 59.6351C233.277 52.7537 234.071 46.9495 234.326 46.7367C234.581 46.5239 236.372 45.9711 238.306 45.5082C241.813 44.6688 241.823 44.6907 242.447 54.3798C242.791 59.722 244.012 65.8838 245.16 68.0727C247.209 71.9781 247.264 71.8027 248.13 58.6767C248.616 51.32 249.134 43.7909 249.284 41.9452C249.492 39.3714 250.307 38.5895 252.783 38.5895C256.479 38.5895 256.472 38.5661 257.776 56.4594C258.686 68.9316 260.021 70.2902 261.686 60.4361C262.652 54.7209 263.897 53.4978 267.566 54.6622C269.736 55.351 270.258 57.3422 271.056 67.9936C272.114 82.103 273.571 86.3017 275.058 79.5292C275.588 77.1178 276.408 75.6783 276.882 76.3303C278.43 78.4625 281.753 77.5749 282.496 74.8312C282.895 73.3547 284.46 71.9662 285.974 71.7456C288.061 71.4419 289.069 72.415 290.144 75.7724L291.562 80.2003L291.699 74.4956C291.823 69.342 292.161 68.7909 295.192 68.7909C297.897 68.7909 298.548 69.4568 298.548 72.2258C298.548 77.4149 300.51 75.1551 303.772 66.2088C305.903 60.3637 307.236 58.3804 308.665 58.9286C310.164 59.5043 310.628 58.5382 310.628 54.8405C310.628 50.571 311.025 49.999 313.984 49.999C316.95 49.999 317.35 50.5828 317.432 55.0325C317.483 57.801 317.733 61.5761 317.987 63.4218C318.242 65.2674 319.153 73.1159 320.012 80.8629C320.871 88.6099 321.829 95.204 322.141 95.5162C322.453 95.8287 322.711 91.0001 322.713 84.7864C322.715 78.5727 323.112 63.0694 323.595 50.3345C324.473 27.1962 324.476 27.1802 327.618 27.1802C330.452 27.1802 330.778 27.8094 330.921 33.556C331.009 37.0627 331.018 40.5358 330.942 41.2741C330.866 42.0124 331.597 46.8446 332.567 52.0123C334.081 60.0804 334.695 61.3435 336.909 60.9498C338.327 60.6978 339.688 59.9426 339.935 59.272C340.181 58.6013 341.238 58.0527 342.284 58.0527C343.68 58.0527 344.191 56.1809 344.206 51.0056C344.231 42.4723 345.239 40.5816 349.011 41.9944C351.421 42.8966 351.952 44.5589 352.713 53.5704C353.201 59.3578 354.201 64.2943 354.933 64.5403C355.666 64.7865 356.265 67.7764 356.265 71.1846C356.265 76.0044 356.624 77.0236 357.876 75.7708C358.762 74.8849 361.094 74.1601 363.059 74.1601C366.614 74.1601 366.635 74.2193 367.326 86.3466C367.708 93.0491 368.643 99.1551 369.403 99.9154C371.03 101.542 371.606 95.8812 373.715 57.573C375.542 24.3784 375.719 23.3954 379.722 24.1607C383.335 24.8515 383.848 28.1288 385.286 59.7727C386.666 90.1191 388.837 86.7914 390.615 51.6047L391.517 33.7473L395.032 34.1553C398.442 34.551 398.572 34.9055 399.364 45.9724C399.813 52.2476 400.685 62.8181 401.301 69.4623L402.422 81.5428L403.89 73.4892C404.804 68.4813 405.975 65.5624 406.987 65.7711C407.882 65.9557 408.614 65.5026 408.614 64.7644C408.614 64.0261 409.14 63.4221 409.783 63.4221C410.426 63.4221 411.441 69.0093 412.038 75.8382C412.849 85.1132 413.317 87.0658 413.889 83.5563C414.461 80.0449 415.395 78.7528 417.588 78.4407C420.094 78.0843 420.642 76.9088 421.348 70.387C423.2 53.2642 423.378 52.6838 426.774 52.6838C428.511 52.6838 430.295 53.271 430.739 53.9888C431.894 55.8588 435.599 75.9125 436.764 86.6054C437.9 97.0252 438.786 98.8052 439.947 92.9989C440.583 89.8194 441.469 88.9254 443.985 88.9254C447.139 88.9254 447.234 88.5837 448.381 73.1536C449.486 58.2828 449.724 57.3575 452.543 56.9568C455.1 56.5934 455.659 57.3156 456.397 61.9361C456.873 64.9084 457.893 67.2138 458.666 67.0591C459.438 66.9043 460.66 68.7408 461.382 71.1401C462.103 73.5395 463.512 75.5026 464.513 75.5026C466.062 75.5026 467.048 79.0179 466.491 82.5495C466.059 85.2851 469.08 83.0988 469.823 80.1384C470.649 76.8472 470.777 76.8079 473.286 79.0783C475.358 80.953 476.114 81.0762 476.977 79.6796C477.574 78.7135 479.198 78.1387 480.586 78.4023C482.517 78.7692 483.297 80.4569 483.906 85.5814L484.702 92.2811L485.011 84.2274C485.181 79.7979 485.888 72.8516 486.582 68.7911C487.276 64.7308 488.49 55.3684 489.278 47.9858C490.755 34.1494 493.989 24.7706 496.438 27.2194C497.171 27.9528 498.377 41.6836 499.117 57.7324C499.858 73.7811 500.787 84.7979 501.183 82.214L501.902 77.516L509.285 77.4926C516.337 77.4691 516.686 77.302 517.095 73.7668L517.523 70.0665L520 73.1211C521.362 74.8011 522.76 75.8737 523.106 75.5046C523.453 75.1353 524.073 66.075 524.485 55.3703C524.897 44.6657 525.27 35.7562 525.313 35.5716C525.359 35.387 526.875 35.2363 528.687 35.2363C531.374 35.2363 532.104 36.0414 532.643 39.5987C533.312 44.016 536.151 88.1183 536.164 94.2967C536.169 96.954 536.442 97.2334 537.472 95.639C538.188 94.5316 538.783 86.9146 538.794 78.7123C538.804 70.5099 539.199 60.9964 539.668 57.5713C540.41 52.1595 540.938 51.3437 543.695 51.3437C546.624 51.3437 546.868 51.8806 546.868 58.3116C546.868 64.7266 547.025 65.0729 548.839 62.6741C550.665 60.2599 550.813 60.5216 550.852 66.2382C550.957 81.3238 552.689 96.9813 554.254 96.9813C555.335 96.9813 556.163 92.784 556.761 84.2776C557.838 68.9536 558.341 67.4511 562.387 67.4511C564.95 67.4511 565.71 68.365 566.456 72.3413C567.367 77.2002 567.384 77.211 569.097 74.0192C570.773 70.8956 570.834 70.9553 571.318 76.1759C571.779 81.1454 571.917 81.3093 573.184 78.3771L574.554 75.209L576.818 78.6654C578.064 80.5664 579.083 82.747 579.083 83.5113C579.083 84.2755 579.659 84.9007 580.364 84.9007C581.553 84.9007 582.534 81.0211 583.419 72.8202C583.694 70.2689 584.666 69.3627 587.472 69.0398C591.016 68.6318 591.163 68.8575 591.163 74.6653C591.163 80.8196 593.21 84.0988 594.672 80.2879C595.115 79.1336 596.319 78.1893 597.347 78.1893C598.375 78.1893 599.217 77.2833 599.217 76.1759C599.217 74.9621 600.459 74.1625 602.346 74.1625C604.293 74.1625 606.14 72.9196 607.236 70.8707L608.998 67.5788L611.582 70.8633C614.64 74.7521 616.674 80.627 617.835 88.9276L618.68 94.9679L622.471 85.2841C624.855 79.1937 626.546 71.8467 627.027 65.4853C627.575 58.2441 628.309 55.3706 629.612 55.3706C630.613 55.3706 631.431 54.4645 631.431 53.3571C631.431 49.4698 633.773 51.4008 635.907 57.0484C637.164 60.3745 638.156 67.4734 638.285 74.0743C638.573 88.7618 640.499 95.9401 640.829 83.5585C640.958 78.7598 641.463 71.8135 641.952 68.1223C642.696 62.5059 643.334 61.3407 645.867 60.9811C649.648 60.4441 650.04 61.6002 650.512 74.6827C650.856 84.1975 651.194 85.3806 653.855 86.3624C656.648 87.393 656.868 86.9968 657.73 79.379C658.233 74.9373 659.435 70.5116 660.402 69.5441C661.37 68.5766 662.581 63.0287 663.094 57.2154C664.247 44.1346 665.485 40.6054 668.921 40.6054C672.079 40.6054 672.79 44.0551 675.21 71.1423C675.688 76.4947 676.604 80.8739 677.245 80.8739C677.886 80.8739 678.411 79.6659 678.411 78.1893C678.411 76.2206 679.306 75.5048 681.767 75.5048C684.872 75.5048 685.124 75.9802 685.143 81.8806C685.155 85.3873 685.749 89.1625 686.465 90.2699C687.465 91.818 687.774 91.3526 687.801 88.2565C687.819 86.0417 688.203 82.0114 688.651 79.3002C689.438 74.5439 689.705 74.3379 696.257 73.4368C701.416 72.7273 703.393 72.9638 704.487 74.4226C705.279 75.4784 706.924 76.7158 708.143 77.1723C709.459 77.6653 710.784 80.3562 711.407 83.8005C712.398 89.2812 712.548 88.8636 714.151 76.1759C715.083 68.7934 715.88 61.9981 715.92 61.0752C715.961 60.1524 717.504 59.3974 719.35 59.3974C722.549 59.3974 722.706 59.7655 722.706 67.297C722.706 71.6417 723.524 77.1416 724.523 79.5189L726.341 83.8411L727.208 79.5052C727.685 77.1204 728.075 70.1104 728.075 63.9276C728.075 57.7447 728.348 52.686 728.683 52.686C731.294 52.686 736.306 56.3521 736.795 58.6208C737.363 61.2536 738.566 76.2221 738.798 83.5585C738.897 86.6614 739.053 86.5739 740.872 82.3976C742.02 79.7635 742.84 73.719 742.84 67.8946V57.9081L749.216 58.3167L755.592 58.7258L756.658 66.7796C757.245 71.209 758.151 79.6655 758.672 85.5714L759.618 96.3097L762.668 88.256C764.762 82.7276 766.024 75.5775 766.695 65.4527C767.552 52.5142 767.982 50.6437 770.196 50.2199C773.551 49.5777 775.009 52.1832 775.034 58.8645C775.069 68.5988 776.736 80.8221 777.926 80.0866C778.562 79.6938 779.081 76.1774 779.081 72.2719C779.081 68.3665 779.472 60.5498 779.949 54.9015C780.751 45.4187 781.048 44.6319 783.824 44.6319C786.383 44.6319 786.97 45.5799 787.773 51.0077C788.292 54.5144 789.563 58.3312 790.598 59.4896C791.701 60.7239 793.025 67.113 793.797 74.9258C794.522 82.2575 795.632 90.6722 796.264 93.6251C797.331 98.6089 797.476 98.1752 798.289 87.5849C798.77 81.3097 799.539 68.4742 799.996 59.0614C800.817 42.1637 800.868 41.9473 804.023 41.9473C807.804 41.9473 808.152 43.1521 809.252 60.0681C810.194 74.5608 811.226 80.8735 812.654 80.8735C813.237 80.8735 814.315 83.1386 815.051 85.907C816.336 90.7467 816.393 90.6072 816.526 82.2829C816.634 75.5491 817.023 73.9831 818.276 75.2359C820.872 77.8323 821.64 77.1635 822.542 71.5216C823.316 66.6865 827.617 60.7392 830.341 60.7392C830.94 60.7392 831.465 63.0043 831.507 65.7728C831.619 73.0112 833.225 80.1729 834.786 80.3833C835.524 80.483 837.427 80.9578 839.015 81.4384C841.646 82.2347 841.988 81.6811 842.857 75.2171C843.768 68.4456 847.064 60.7392 849.048 60.7392C849.859 60.7392 850.407 65.8744 851.91 87.5849C852.127 90.7215 852.904 92.2829 854.248 92.2829C855.787 92.2829 856.453 89.9092 857.072 82.2157C857.519 76.6789 858.704 64.7493 859.707 55.7057C861.417 40.2896 861.713 39.2627 864.444 39.2627C867.089 39.2627 867.442 40.1851 868.299 49.3298C868.818 54.8668 869.706 59.3969 870.273 59.3969C871.187 59.3969 873.311 75.8094 873.313 82.8869C873.314 84.3634 873.605 84.8127 873.963 83.8852C874.319 82.9578 875.085 82.4916 875.664 82.8491C876.242 83.2067 876.826 78.0441 876.961 71.3769C877.245 57.3439 877.772 55.3702 881.238 55.3702C882.635 55.3702 883.848 54.6151 883.933 53.6923C884.217 50.6053 886.307 62.6846 886.386 67.8655C886.427 70.6775 887.023 72.6318 887.709 72.2084C888.394 71.7846 889.325 72.6058 889.777 74.0318C891.402 79.1517 899.042 86.7133 898.384 82.5513C898.297 81.998 898.297 78.3734 898.384 74.4976C898.532 67.945 898.775 67.4507 901.853 67.4507C904.792 67.4507 905.258 68.1713 906.016 73.8861L906.87 80.3216L918.812 80.0671L930.754 79.8121L931.86 84.0339C932.915 88.0609 933.006 87.9262 933.824 81.1115C934.519 75.3229 936.949 65.8966 938.329 63.6365C938.483 63.3844 939.863 63.5761 941.395 64.0626C943.173 64.6272 944.181 66.0875 944.181 68.1002C944.181 69.8346 944.891 71.4904 945.76 71.7799C946.628 72.0694 948.066 74.6868 948.954 77.5965L950.571 82.8868L951.57 78.5243C952.809 73.1183 953.619 73.086 957.465 78.2886C959.251 80.7046 961.297 82.1157 962.399 81.6926C963.435 81.2946 964.218 81.4013 964.14 81.9288C964.061 82.4558 964.069 84.3805 964.157 86.2057L964.316 89.5241L967.096 86.744C969.417 84.4227 969.988 81.7711 970.553 70.6739C971.318 55.6491 972.788 51.3436 977.149 51.3436C980.866 51.3436 981.3 53.0543 982.512 72.4846C983.649 90.719 985.294 92.406 987.749 77.8537C988.452 73.691 989.149 72.8202 991.782 72.8202C993.532 72.8202 995.269 73.5751 995.642 74.498C996.014 75.4208 996.366 74.2371 996.425 71.8678C996.496 68.9877 997.754 66.4198 1000.22 64.1211L1003.91 60.6826L1005.07 70.6603C1006 78.7511 1006.7 80.7633 1008.76 81.3013C1010.84 81.8459 1011.3 83.2533 1011.34 89.1374C1011.38 95.7363 1011.54 96.1017 1013.35 93.7045C1014.44 92.2715 1015.33 88.3453 1015.33 84.9797C1015.34 81.6141 1015.73 75.6892 1016.19 71.8134C1017 65.124 1017.24 64.7665 1020.94 64.7665C1023.28 64.7665 1024.75 64.0958 1024.62 63.0886C1024.5 62.1658 1024.47 59.7497 1024.56 57.7194C1024.69 54.5925 1025.3 54.0282 1028.55 54.0282H1032.38L1033.37 67.1154C1033.92 74.3134 1034.53 81.4107 1034.74 82.8873C1034.95 84.3638 1035.25 87.6859 1035.43 90.2698L1035.74 94.9678L1037.51 89.5987C1038.48 86.6456 1039.37 78.1893 1039.48 70.8067C1039.62 61.3303 1040.37 55.8252 1042.02 52.0823C1043.41 48.939 1044.74 47.3991 1045.3 48.3C1045.82 49.1357 1046.81 55.7854 1047.5 63.0773C1048.2 70.3692 1049.16 77.3565 1049.64 78.6046C1051.18 82.6257 1052.72 81.0339 1053.61 74.498C1055.2 62.8003 1055.72 62.1061 1058.38 68.1221C1059.69 71.0752 1060.81 75.1524 1060.86 77.1825C1061.06 84.6647 1063.65 80.5946 1063.85 72.4846C1064.12 61.2265 1064 61.7819 1067.06 57.5858C1068.83 55.1592 1070.5 54.1676 1071.91 54.7088C1073.61 55.3614 1074.32 58.8285 1075.28 71.2244L1076.51 86.9141L1077.51 77.5181C1079.35 60.365 1079.54 59.7516 1083.11 59.0682C1085.36 58.638 1086.6 59.121 1087.03 60.5958C1088.47 65.5627 1090.49 79.0416 1090.49 83.6952C1090.49 89.1638 1091.56 92.9544 1093.1 92.9544C1094.26 92.9544 1097.01 78.0281 1097.81 67.451C1098.12 63.3906 1098.41 59.6015 1098.46 59.0308C1098.5 58.4598 1099.98 58.9347 1101.74 60.0866C1104.86 62.1312 1107.42 68.9119 1108.31 77.5181C1108.54 79.7329 1109.23 76.2598 1109.84 69.8C1110.87 58.8012 1111.14 58.055 1113.99 58.055C1117.49 58.055 1118.64 60.251 1118.77 67.2252C1118.84 70.8548 1119.13 71.475 1119.87 69.5848C1120.76 67.3076 1121.2 67.5508 1123.8 71.7566C1125.41 74.3615 1126.73 77.4785 1126.73 78.6833C1126.73 82.0375 1129.32 81.287 1130.76 77.5181C1132.42 73.1439 1136.59 73.1887 1138.61 77.6025C1139.89 80.4286 1140.95 80.9677 1144.53 80.6227C1147.86 80.3009 1148.98 79.4957 1149.31 77.1826C1149.6 75.1048 1150.65 74.1628 1152.66 74.1635C1154.84 74.1643 1156.36 75.7987 1158.58 80.5394C1161.25 86.2408 1161.57 86.516 1161.6 83.1437C1161.62 80.9778 1162.2 79.7262 1162.97 80.2027C1163.71 80.6588 1164.31 80.2719 1164.31 79.3424C1164.31 78.0279 1164.67 78.0104 1165.93 79.2632C1166.81 80.1491 1168.62 80.874 1169.95 80.874C1171.94 80.874 1172.41 79.6263 1172.62 73.8271C1172.75 69.9511 1173 65.5719 1173.15 64.0954C1173.31 62.619 1173.51 58.8438 1173.58 55.7062C1173.7 50.5573 1174.04 50.0015 1177.05 50.0015H1180.4L1179.68 64.431C1178.63 85.7851 1176.29 109.429 1175 111.853C1174.37 113.023 1172.95 114.73 1171.85 115.647C1170.14 117.063 1169.71 116.545 1168.99 112.181C1167.67 104.249 1167.32 103.693 1163.69 103.693C1161.16 103.693 1160.29 102.989 1160.29 100.966C1160.29 99.4664 1159.44 97.9146 1158.41 97.5175C1157.37 97.1201 1156.2 95.5686 1155.81 94.0689C1154.92 90.6392 1152.24 92.1156 1152.22 96.0539C1152.17 102.215 1150.66 105.035 1147.38 105.035C1144.72 105.035 1144.18 104.356 1144.18 101.008C1144.18 98.7935 1143.58 96.9814 1142.84 96.9814C1142.1 96.9814 1141.5 98.4914 1141.5 100.337C1141.5 102.183 1140.94 103.693 1140.26 103.693C1139.59 103.693 1138.08 104.06 1136.91 104.508C1135.17 105.173 1134.78 104.251 1134.76 99.474C1134.75 95.2034 1134.39 94.1688 1133.44 95.6391C1132.73 96.7464 1132.13 99.0547 1132.12 100.769C1132.1 104.349 1129.87 106.968 1125.74 108.279C1123.15 109.102 1122.82 108.635 1122.45 103.512C1122.1 98.6817 1121.51 97.6921 1118.53 96.9021C1115.05 95.9788 1115.02 96.0425 1113.27 107.284L1111.51 118.595L1107.9 112.795C1105.39 108.76 1103.97 104.141 1103.25 97.6251L1102.21 88.2565L1099.53 98.1341L1096.84 108.012L1092.09 107.242C1086.2 106.286 1085.21 104.756 1084.98 96.3103C1084.82 90.4349 1084.67 90.1005 1083.78 93.6257C1083.21 95.8404 1082.68 100.472 1082.59 103.919C1082.33 114.311 1081.52 114.906 1075.96 108.755C1073.25 105.752 1070.95 102.781 1070.86 102.152C1070.77 101.523 1070.54 97.8371 1070.36 93.9613C1070.08 87.7947 1069.91 87.4173 1069.01 90.9411C1068.45 93.1559 1067.91 98.8941 1067.81 103.693C1067.52 118.274 1066.44 122.485 1062.98 122.485C1060.42 122.485 1059.77 121.396 1058.46 114.878C1057.62 110.695 1056.93 105.259 1056.93 102.798C1056.93 99.3664 1056.36 98.3236 1054.49 98.3236C1053.15 98.3236 1050.6 96.6626 1048.83 94.6324L1045.61 90.9411L1044.67 96.3103C1044.15 99.2632 1043.08 103.378 1042.28 105.454C1041.48 107.531 1040.44 114.326 1039.96 120.555C1039.13 131.305 1038.93 131.881 1035.93 131.881C1034.19 131.881 1032.74 131.126 1032.7 130.203C1032.21 118.171 1030 99.1166 1028.57 94.6324C1027.14 90.1438 1026.1 88.9276 1023.72 88.9276C1020.89 88.9276 1020.69 89.4904 1020.69 97.6947C1020.69 104.249 1020.18 106.657 1018.68 107.234C1017.57 107.659 1016.65 108.999 1016.63 110.212C1016.62 111.873 1015.97 111.591 1014.03 109.071C1011.75 106.094 1011.36 105.983 1010.56 108.064C1009.26 111.457 1007.71 110.939 1006.52 106.713C1004.93 101.098 1004.93 101.1 1004.75 99.6659C1004.66 98.9277 1003.72 98.3236 1002.66 98.3236C1001.61 98.3236 1000.49 96.9646 1000.18 95.3035C999.713 92.7821 999.434 93.0592 998.492 96.9814L997.364 101.679L995.065 94.2968L992.766 86.9143L992.62 92.2834C992.377 101.218 990.906 107.72 989.128 107.72C988.204 107.72 987.131 108.928 986.745 110.404C986.234 112.359 984.914 113.089 981.891 113.089H977.738L977.604 104.028C977.484 95.8456 975.522 84.8745 975.187 90.5096C975.114 91.7489 974.077 93.7392 972.884 94.9325C971.691 96.1258 970.164 99.5507 969.492 102.543C967.95 109.407 965.594 112.075 963.271 109.588C962.369 108.623 961.631 107.017 961.631 106.019C961.631 105.022 960.744 103.033 959.66 101.6C958.576 100.167 957.67 97.2129 957.647 95.035C957.623 92.539 957.134 91.5467 956.332 92.3505C955.029 93.6567 953.843 100.961 953.673 108.726C953.592 112.397 953.072 113.089 950.389 113.089C946.77 113.089 945.524 109.305 945.524 98.3124C945.524 92.991 945.062 91.8047 942.757 91.2018C939.635 90.3853 939.346 90.9603 938.174 100.337C936.348 114.94 936.001 115.946 932.945 115.51C930.854 115.211 929.995 114.023 929.742 111.075C928.871 100.938 927.809 95.6391 926.65 95.6391C925.957 95.6391 925.39 96.8472 925.39 98.3236C925.39 100.273 924.495 101.008 922.123 101.008C919.557 101.008 918.765 100.216 918.432 97.317C917.789 91.7335 912.607 91.4302 911.511 96.9113C910.865 100.142 909.996 101.008 907.401 101.008C905.354 101.008 903.92 100.12 903.606 98.6587C903.329 97.3668 902.643 102.639 902.083 110.374C901.522 118.11 900.844 124.658 900.576 124.926C900.308 125.195 898.9 125.037 897.447 124.575C895.121 123.837 894.67 121.934 893.68 108.681C893.056 100.344 892.349 96.0135 892.094 98.9768C891.84 101.92 890.923 104.78 890.055 105.332C887.743 106.802 882.437 106.595 882.437 105.034C882.437 104.296 881.984 103.697 881.43 103.702C880.225 103.714 877.068 110.215 877.068 112.684C877.068 113.652 875.572 114.43 873.712 114.43C871.105 114.43 870.357 113.741 870.357 111.343C870.357 109.645 869.784 107.682 869.085 106.981C868.386 106.279 867.659 99.9672 867.47 92.9538C866.817 68.7756 864.356 63.2789 863.263 83.5577C862.945 89.4784 861.694 95.8363 860.229 98.994C858.858 101.947 856.782 107.374 855.616 111.053L853.496 117.743L850.281 109.04C847.419 101.293 846.959 100.705 846.093 103.692C845.559 105.538 845.061 109.428 844.987 112.338L844.853 117.628L840.155 109.826C837.571 105.535 835.409 100.437 835.351 98.4959C835.292 96.5551 834.941 95.7222 834.568 96.645C834.196 97.5678 832.431 98.3229 830.647 98.3229C828.103 98.3229 827.403 97.6163 827.403 95.0464C827.403 91.855 825.266 89.2748 823.82 90.7208C823.424 91.117 822.559 95.8587 821.898 101.258C819.84 118.079 819.014 120.471 815.268 120.471C812.135 120.471 811.899 119.904 810.625 109.338C809.887 103.216 808.582 97.7775 807.726 97.2535C806.87 96.7294 805.903 94.4907 805.578 92.2783C805.179 89.5612 804.922 90.4512 804.786 95.0207C804.675 98.7414 803.679 105.264 802.571 109.516C801.464 113.767 800.558 118.726 800.558 120.536C800.558 123.108 799.859 123.826 797.359 123.826C793.684 123.826 792.562 121.036 792.502 111.746C792.484 108.424 791.264 100.948 789.799 95.1328C788.334 89.3178 787.073 80.5594 786.998 75.6697C786.754 59.8976 784.814 73.5896 783.788 98.3257C783.275 110.693 782.459 124.057 781.975 128.023C781.174 134.587 780.793 135.236 777.739 135.236C774.628 135.236 774.321 134.648 773.523 127.182C773.05 122.752 772.596 115.655 772.516 111.41C772.378 104.085 772.198 103.692 768.972 103.692C766.906 103.692 765.293 104.612 764.855 106.041C764.458 107.333 762.901 111.108 761.393 114.43L758.65 120.471L756.032 112.417C753.384 104.269 752.938 101.444 752.486 89.9337C752.171 81.8945 748.733 80.9592 747.552 88.5913C747.123 91.3598 745.848 97.8738 744.718 103.067C742.79 111.927 742.441 112.506 739.06 112.463C736.028 112.422 735.311 111.673 734.528 107.719C734.017 105.135 733.493 99.6987 733.362 95.6383L733.125 88.2558L732.02 94.9672C731.412 98.6584 730.519 104.687 730.037 108.364L729.16 115.049L726.056 107.692C724.348 103.647 722.067 100.156 720.987 99.9354C718.984 99.5262 718.921 99.858 716.49 123.491C715.7 131.171 715.359 131.88 712.455 131.88C709.915 131.88 709.263 131.145 709.181 128.189C709.122 126.158 708.819 123.289 708.503 121.813C708.186 120.336 707.597 115.202 707.192 110.403C705.889 94.9646 705.361 92.9538 702.605 92.9538C701.048 92.9538 699.85 91.7919 699.493 89.9337L698.911 86.9135L698.729 89.9337C698.629 91.5948 697.705 92.9538 696.676 92.9538C694.65 92.9538 693.177 95.7655 693.177 99.6314C693.177 100.969 692.357 102.377 691.354 102.762C690.352 103.146 689.179 105.226 688.747 107.383C688.143 110.407 687.254 111.278 684.865 111.189C682.112 111.087 681.693 111.821 681.096 117.786C680.484 123.915 680.105 124.534 676.734 124.922C673.369 125.309 673.04 124.951 673.011 120.895C672.993 118.447 672.407 114.028 671.707 111.075C671.008 108.122 670.37 98.312 670.29 89.2756C670.21 80.2392 669.588 72.5022 668.909 72.0823C668.23 71.662 667.674 72.5629 667.674 74.0826C667.674 75.6027 667.131 76.8464 666.469 76.8464C664.826 76.8464 662.305 92.0325 662.305 101.927C662.305 106.373 661.913 113.754 661.435 118.33C660.6 126.317 660.425 126.635 657.073 126.245C653.699 125.854 653.549 125.449 652.67 114.43C651.382 98.2751 650.241 92.9538 648.064 92.9538C646.614 92.9538 646.193 95.5731 646.179 104.699C646.156 120.403 645.51 122.484 640.672 122.484C637.727 122.484 636.801 121.857 636.801 119.863C636.801 118.421 636.23 115.854 635.531 114.158C634.832 112.462 633.864 104.523 633.379 96.5146C632.421 80.6778 630.658 79.0758 629.229 92.7445C628.592 98.8421 627.873 100.959 626.605 100.472C625.644 100.104 624.485 100.98 624.028 102.418C623.511 104.047 621.991 105.034 619.999 105.034C618.24 105.034 616.219 106.074 615.508 107.344C614.455 109.225 614.041 108.665 613.276 104.324C612.76 101.392 611.902 96.8799 611.371 94.296L610.406 89.598L609.412 95.1833C608.866 98.255 607.269 101.808 605.866 103.078C603.426 105.287 603.252 105.229 601.937 101.768C601.18 99.7772 600.56 96.4319 600.56 94.3343C600.56 91.1814 600.095 90.6422 597.876 91.2226C596.138 91.6763 595.191 93.0535 595.191 95.1237C595.191 96.8833 594.027 99.4872 592.604 100.91C590.049 103.465 589.997 103.444 588.445 99.2323L586.873 94.9672L585.132 100.336C584.175 103.289 583.329 104.672 583.251 103.409C583.108 101.076 578.136 95.6383 576.146 95.6383C575.547 95.6383 575.057 96.8464 575.057 98.3229C575.057 101.012 572.518 101.689 564.749 101.072C561.737 100.833 561.843 100.514 559.86 115.773C559.716 116.882 557.946 117.977 555.918 118.211C552.752 118.576 552.238 118.152 552.238 115.191C552.238 112.641 551.541 111.746 549.554 111.746C547.173 111.746 546.851 110.798 546.71 103.356C546.623 98.7423 546.091 93.1551 545.527 90.9403C544.666 87.5552 544.474 88.0898 544.325 94.296C544.113 103.123 542.976 107.96 541.348 106.953C540.693 106.549 540.158 108.901 540.158 112.181C540.158 117.201 539.69 118.266 537.196 118.918C535.568 119.345 533.928 119.386 533.553 119.011C533.177 118.636 532.164 113.375 531.3 107.319L529.73 96.3098L529.575 104.028C529.49 108.273 528.816 111.746 528.078 111.746C527.339 111.746 526.735 113.256 526.735 115.102C526.735 117.786 526.064 118.458 523.38 118.458C520.492 118.458 520.022 117.85 520.009 114.095C519.979 105.187 518.437 99.6656 515.978 99.6656C514.684 99.6656 513.309 100.876 512.922 102.356C511.861 106.413 508.179 104.226 507.636 99.2158C507.339 96.477 506.819 98.3061 506.171 104.364C503.825 126.322 504.104 125.372 500.131 124.913C496.592 124.505 496.527 124.318 496.092 113.313C495.849 107.161 494.898 95.9867 493.979 88.4807L492.308 74.8334L491.353 90.2696C490.828 98.7595 489.711 112.199 488.872 120.135C487.444 133.637 487.157 134.565 484.398 134.565C481.021 134.565 479.796 129.899 479.771 116.947C479.75 105.776 478.517 101.008 475.655 101.008C474.184 101.008 473.035 99.8202 472.732 97.9877C472.264 95.1546 472.071 95.2372 469.619 99.3215C466.445 104.608 465.664 104.756 465.283 100.149C465.122 98.1998 464.177 95.9346 463.184 95.1152C462.191 94.2957 460.608 91.6622 459.666 89.2629C456.618 81.4973 454.579 83.8761 453.534 96.4163C452.882 104.244 451.984 108.159 450.729 108.64C449.714 109.03 448.884 110.148 448.884 111.125C448.884 112.102 447.531 113.095 445.877 113.331C444.224 113.567 442.75 114.666 442.602 115.773C442.455 116.88 441.947 121.864 441.475 126.847C441.003 131.83 440.172 135.907 439.628 135.907C436.981 135.907 432.776 125.094 432.772 118.275C432.767 108.754 430.265 82.3557 428.9 77.4076C427.831 73.5315 427.809 73.5499 426.824 79.1958C426.277 82.3334 425.426 84.9005 424.933 84.9005C423.806 84.9005 420.692 93.5738 419.768 99.2845C419.339 101.938 418.09 103.912 416.528 104.408C414.95 104.909 413.985 106.455 413.985 108.481C413.985 111.069 413.289 111.746 410.629 111.746C407.686 111.746 407.273 111.166 407.273 107.032V102.318L401.904 103.177L396.535 104.036L396.45 95.4747C396.384 88.8102 396.089 87.6027 395.118 90.0235C394.432 91.7338 393.524 106.23 393.101 122.238C392.191 156.621 391.002 164.095 386.441 164.095C383.594 164.095 383.262 163.373 382.582 155.706L382.581 155.702Z" fill="black"/>
</svg>
