<svg width="1181" height="138" viewBox="0 0 1181 138" fill="none" xmlns="http://www.w3.org/2000/svg">
<path d="M651.749 124.686C651.749 114.424 651.368 111.935 649.797 111.935C648.328 111.935 647.729 109.691 647.376 102.874L646.906 93.8137L646.643 104.216C646.389 114.266 646.27 114.619 643.118 114.619C640.757 114.619 639.737 113.785 639.427 111.599C638.842 107.479 632.958 106.478 632.958 110.499C632.958 112.567 632.101 113.277 629.602 113.277C626.394 113.277 626.246 112.922 626.246 105.181C626.246 99.2229 625.715 96.8811 624.233 96.3125C623.126 95.8875 622.22 94.7689 622.22 93.8266C622.22 92.8843 620.861 91.7491 619.2 91.304C614.758 90.1137 614.166 90.251 614.166 92.4714C614.166 93.6719 612.931 94.4848 611.109 94.4848C605.703 94.4848 603.428 98.8638 603.428 109.265C603.428 118.376 603.332 118.646 600.072 118.646C596.812 118.646 596.716 118.377 596.716 109.25C596.716 103.881 596.141 99.854 595.374 99.854C594.636 99.854 594.032 99.2068 594.032 98.4159C594.032 96.9065 590.747 93.1426 589.43 93.1426C589.008 93.1426 588.663 97.9748 588.663 103.881C588.663 114.44 588.604 114.619 585.307 114.619C582.049 114.619 581.948 114.338 581.819 104.888C581.745 99.5352 581.227 91.8339 580.665 87.7734L579.645 80.3908L579.456 90.1224C579.273 99.5575 579.164 99.854 575.911 99.854C573.085 99.854 572.555 99.2247 572.555 95.8692C572.555 93.0177 572.024 92.0882 570.688 92.6009C569.477 93.0657 568.537 96.4677 568.01 102.29C566.179 122.538 565.816 123.971 562.29 124.856C560.485 125.309 558.778 125.45 558.498 125.17C558.217 124.889 557.656 116.21 557.25 105.881C556.844 95.5529 556.46 86.0452 556.397 84.7533C556.274 82.2603 554.945 81.9445 550.072 83.2504C547.523 83.9336 547.052 84.9765 547.052 89.9434C547.052 93.1795 546.448 95.8271 545.71 95.8271C544.953 95.8271 544.368 99.6304 544.368 104.552C544.368 112.964 544.247 113.277 541.012 113.277C538.327 113.277 537.656 112.606 537.656 109.921C537.656 108.076 537.052 106.565 536.314 106.565C535.576 106.565 534.9 103.998 534.813 100.861C534.644 94.795 532.714 85.4904 532.446 89.4513C532.359 90.7433 531.381 91.8002 530.274 91.8002C528.676 91.8002 528.26 93.7392 528.26 101.196C528.26 110.324 528.164 110.592 524.905 110.592C521.763 110.592 521.549 110.154 521.549 103.737C521.549 98.0379 521.191 97.0196 519.426 97.697C518.258 98.1448 516.748 98.5118 516.07 98.5118C515.392 98.5118 514.838 99.7764 514.838 101.322C514.838 103.003 513.759 104.414 512.153 104.834C510.667 105.223 509.469 106.665 509.469 108.064C509.469 109.978 508.491 110.592 505.442 110.592C501.126 110.592 501.04 110.382 501.317 100.525C501.399 97.5722 500.928 94.3384 500.269 93.339C499.492 92.1606 498.739 95.6987 498.125 103.406C496.871 119.15 496.274 121.331 493.216 121.331C490.662 121.331 490.091 117.238 490.499 101.867C490.558 99.6527 490.27 98.5956 489.859 99.5185C489.447 100.441 487.953 101.196 486.538 101.196C484.493 101.196 483.965 102.159 483.965 105.894C483.965 110.011 483.55 110.592 480.61 110.592C477.776 110.592 477.254 109.966 477.254 106.565C477.254 103.165 476.732 102.539 473.898 102.539C471.214 102.539 470.543 101.867 470.543 99.1829C470.543 97.3372 469.939 95.8271 469.2 95.8271C468.462 95.8271 467.858 94.3361 467.858 92.5136C467.858 90.1197 467.299 89.4144 465.845 89.9727C464.737 90.3977 463.831 92.2097 463.831 93.9995C463.831 95.7893 462.925 97.6014 461.818 98.0263C460.343 98.592 459.805 100.916 459.805 106.709C459.805 114.252 459.649 114.619 456.449 114.619C453.595 114.619 453.066 113.966 452.91 110.257C452.778 107.102 452.566 106.73 452.146 108.914C451.782 110.803 450.593 111.935 448.973 111.935C447.223 111.935 446.335 110.954 446.239 108.914C445.858 100.853 445.712 100.563 441.684 99.8653C437.877 99.2062 437.635 98.783 437.251 92.1285C436.826 84.7406 434.301 82.1627 434.301 89.1158C434.301 91.3305 433.773 93.1426 433.127 93.1426C432.481 93.1426 431.59 94.9548 431.147 97.1695C430.675 99.5313 429.495 101.196 428.295 101.196C427.006 101.196 426.248 102.44 426.248 104.552C426.248 107.237 425.577 107.908 422.892 107.908C419.81 107.908 419.536 107.416 419.536 101.867C419.536 98.5453 418.932 95.8271 418.194 95.8271C417.456 95.8271 416.852 96.4713 416.852 97.2586C416.852 98.0459 415.191 98.4989 413.161 98.2653C410.518 97.9617 409.348 96.9829 409.04 94.8205C408.805 93.1594 408.035 91.8002 407.329 91.8002C406.624 91.8002 405.459 90.2539 404.741 88.3639C403.415 84.8775 400.745 84.9845 400.745 88.5239C400.745 89.5877 399.839 90.4581 398.731 90.4581C397.076 90.4581 396.718 92.8444 396.718 103.881V117.304H393.362C390.031 117.304 390.006 117.214 390.006 105.223C390.006 98.2856 389.45 93.1426 388.7 93.1426C387.929 93.1426 387.241 101.254 387.022 112.941C386.658 132.323 386.587 132.749 383.631 133.169C380.719 133.582 380.61 133.222 380.61 123.089C380.61 114.034 380.239 112.348 377.926 110.904C376.449 109.982 375.241 108.024 375.241 106.554C375.241 105.073 374.344 103.881 373.228 103.881C372.109 103.881 371.215 102.688 371.215 101.196C371.215 99.7198 370.379 98.5118 369.358 98.5118C368.063 98.5118 367.218 101.153 366.566 107.237C365.775 114.622 365.236 115.961 363.054 115.961C360.437 115.961 359.762 112.413 360.436 102.2C360.582 99.9765 359.877 98.1976 358.665 97.7323C356.632 96.9524 354.318 87.8836 354.973 83.2628C355.196 81.6865 354.667 80.9841 353.539 81.3584C352.256 81.7839 351.647 85.5188 351.382 94.594C351.007 107.443 349.375 113.277 346.156 113.277C345.173 113.277 344.369 114.485 344.369 115.961C344.369 119.603 339.555 119.506 337.584 115.824C336.754 114.272 336.113 108.836 336.161 103.744C336.212 98.5664 335.671 94.4847 334.939 94.4847C334.22 94.4847 333.631 97.8069 333.631 101.867C333.631 107.535 333.163 109.25 331.618 109.25C330.211 109.25 329.604 110.667 329.604 113.948C329.604 118.064 329.189 118.646 326.248 118.646C323.788 118.646 322.893 117.93 322.893 115.961C322.893 114.485 322.322 113.277 321.624 113.277C320.926 113.277 320.129 110.408 319.853 106.901C319.526 102.767 319.265 104.419 319.108 111.599C318.871 122.452 318.799 122.673 315.51 122.673C312.211 122.673 312.155 122.494 312.155 111.934C312.155 103.284 311.763 101.196 310.141 101.196C308.888 101.196 308.128 99.9285 308.128 97.8405C308.128 95.9948 307.524 94.4847 306.786 94.4847C306.047 94.4847 305.443 97.5049 305.443 101.196C305.443 108.339 304.674 108.924 297.725 107.062C295.315 106.416 294.705 105.293 294.705 101.503C294.705 96.8135 294.669 96.7845 291.978 99.2212C290.478 100.579 289.34 102.635 289.448 103.792C289.557 104.948 289.576 108.503 289.488 111.692C289.349 116.901 289.027 117.447 286.314 117.061C284.041 116.739 283.088 115.47 282.464 111.934C281.954 109.053 281.565 108.404 281.457 110.257C281.324 112.536 280.457 113.277 277.925 113.277C275.091 113.277 274.569 112.65 274.569 109.25C274.569 105.543 274.196 105.223 269.871 105.223C265.308 105.223 265.173 105.073 265.173 100.01C265.173 95.8913 264.598 94.6476 262.433 94.0813C260.239 93.5074 259.536 94.1457 258.909 97.2803C258.478 99.434 257.296 101.196 256.28 101.196C254.832 101.196 254.435 104.226 254.435 115.29V129.384H251.079C247.819 129.384 247.723 129.116 247.723 119.988C247.723 112.883 247.271 110.592 245.867 110.592C243.646 110.592 242.463 106.705 242.19 98.5116C242.079 95.1894 241.727 93.8304 241.407 95.4914C241.005 97.5806 239.873 98.5116 237.735 98.5116C235.167 98.5116 234.499 99.4197 233.785 103.881C233.05 108.476 232.445 109.25 229.587 109.25C227.513 109.25 226.247 108.487 226.247 107.236C226.247 105.984 224.979 105.223 222.891 105.223C219.767 105.223 219.536 104.769 219.536 98.6213C219.536 90.7661 218.57 87.7733 216.036 87.7733C214.794 87.7733 214.167 89.3506 214.167 92.4714C214.167 96.2745 213.655 97.1693 211.482 97.1693C209.195 97.1693 208.798 98.0642 208.798 103.21C208.798 108.369 208.403 109.25 206.095 109.25C200.808 109.25 198.647 106.695 199.183 101.077C199.612 96.5814 199.237 95.6777 196.522 94.6623C194.586 93.9385 193.039 93.9864 192.529 94.7854C191.039 97.1238 186.791 95.2245 185.836 91.7928L184.904 88.444L184.77 92.1354C184.662 95.1071 184.004 95.8267 181.393 95.8267C179.609 95.8267 177.844 95.0716 177.472 94.1488C177.1 93.226 176.747 95.6421 176.689 99.5179C176.59 106.112 176.367 106.565 173.227 106.565C171.254 106.565 169.872 105.795 169.872 104.695C169.872 103.667 169.012 102.496 167.962 102.093C166.912 101.69 165.786 99.9639 165.461 98.2577C165.135 96.5515 164.786 99.5347 164.685 104.887C164.508 114.324 164.401 114.619 161.147 114.619C158.433 114.619 157.791 113.955 157.791 111.151C157.791 108.976 157.166 107.89 156.113 108.238C155.049 108.59 154.29 112.095 154.037 117.831C153.664 126.281 153.445 126.842 150.681 126.449C147.835 126.044 147.697 125.324 146.995 107.236C146.594 96.9005 146.141 90.7092 145.988 93.4777C145.798 96.9337 145.08 98.5112 143.697 98.5112C142.152 98.5112 141.684 100.226 141.684 105.894C141.684 112.874 141.501 113.276 138.328 113.276C135.644 113.276 134.972 112.605 134.972 109.921C134.972 108.075 134.444 106.565 133.798 106.565C133.152 106.565 132.246 104.679 131.785 102.373C131.077 98.8315 130.634 98.4407 128.933 99.853C127.825 100.772 126.919 102.961 126.919 104.716C126.919 107.225 126.202 107.907 123.563 107.907C120.282 107.907 120.208 107.683 120.208 97.8401C120.208 89.7864 119.805 87.7729 118.194 87.7729C116.705 87.7729 116.181 89.3338 116.181 93.767V99.7611L109.469 100.651L102.758 101.542V110.094C102.758 118.321 102.631 118.646 99.4023 118.646C96.2341 118.646 96.0467 118.237 96.0467 111.342C96.0467 107.325 95.4426 103.666 94.7043 103.209C93.9661 102.753 93.3621 99.3951 93.3621 95.7474C93.3621 92.0997 92.7581 89.1152 92.0198 89.1152C91.2303 89.1152 90.6775 93.8132 90.6775 100.525C90.6775 111.732 90.6189 111.934 87.3954 111.934C84.4408 111.934 84.0724 111.308 83.7042 105.663C83.4754 102.158 82.555 99.1485 81.6172 98.8398C80.6944 98.5362 79.9394 99.2437 79.9394 100.413C79.9394 101.785 78.7502 102.538 76.5837 102.538C73.75 102.538 73.228 101.912 73.228 98.5112C73.228 96.2965 72.666 94.4843 71.9791 94.4843C71.2922 94.4843 70.5372 93.1315 70.3013 91.478C70.0654 89.8244 68.8153 88.2701 67.5234 88.0238C65.495 87.6375 65.1744 88.6886 65.1744 95.7282C65.1744 102.959 64.8741 103.88 62.5154 103.88C60.7986 103.88 59.558 105.069 59.0142 107.236C58.4872 109.336 57.2218 110.592 55.633 110.592C52.9397 110.592 52.7282 109.708 53.0576 99.8312C53.1687 96.4967 52.3473 92.0098 51.2321 89.8602C50.1169 87.7108 49.5113 85.4557 49.8862 84.8491C50.2611 84.2424 49.9268 83.746 49.1464 83.746C48.3646 83.746 47.7249 84.3501 47.7249 85.0884C47.7249 85.8266 46.2148 86.4307 44.3692 86.4307C41.287 86.4307 41.0135 86.9224 41.0135 92.4709C41.0135 98.019 40.7401 98.5112 37.6578 98.5112C34.398 98.5112 34.3021 98.7797 34.3021 107.907C34.3021 117.035 34.2062 117.303 30.9465 117.303C27.7678 117.303 27.5908 116.908 27.5908 109.809C27.5908 104.41 27.1215 102.471 25.913 102.874C24.1604 103.458 24.0063 104.003 23.7318 110.592C23.6009 113.73 22.9441 114.619 20.7538 114.619C19.0724 114.619 17.6616 113.54 17.2415 111.934C16.787 110.197 15.4107 109.25 13.3404 109.25C10.3963 109.25 10.1412 108.714 10.1412 102.538C10.1412 97.4672 9.64915 95.8267 8.12786 95.8267C7.02049 95.8267 6.11443 95.2226 6.11443 94.4843C6.11443 93.7461 4.90641 93.1421 3.42992 93.1421C0.927691 93.1421 0.745361 92.2472 0.745361 79.9658C0.745361 72.7188 1.30483 63.5073 1.98869 59.4959C2.6725 55.4845 3.61555 49.3333 4.08431 45.8265C4.65341 41.5696 5.57845 39.4507 6.86784 39.4507C8.26174 39.4507 8.79899 37.7705 8.79899 33.4104C8.79899 27.9063 9.08867 27.3701 12.0655 27.3701C14.5986 27.3701 15.4576 28.199 15.8912 31.0615C16.4117 34.4971 16.4643 34.4507 16.6515 30.3904C16.8225 26.6856 17.3585 26.0279 20.2083 26.0279C23.2911 26.0279 23.5789 26.5466 23.7468 32.4037C23.8533 36.1118 24.1876 37.3755 24.5465 35.4238C24.8859 33.5782 25.757 31.3451 26.4825 30.4614C27.208 29.5777 27.6872 27.4636 27.5476 25.7634C27.053 19.7408 27.4421 19.3165 33.4583 19.3165H39.3259L40.2828 34.0816C41.1763 47.8675 42.3342 51.6526 44.1835 46.8332C44.6086 45.7258 46.4851 44.8199 48.3538 44.8199C50.4793 44.8199 51.7517 45.5738 51.7517 46.8332C51.7517 47.9406 52.2778 48.8467 52.9209 48.8467C53.564 48.8467 54.1663 44.7695 54.2592 39.7863C54.3521 34.803 54.8007 28.1588 55.2558 25.0212C55.9514 20.2257 56.5696 19.3165 59.1342 19.3165C61.7576 19.3165 62.3062 20.2098 63.0498 25.6923C63.5251 29.199 64.5681 34.9703 65.3671 38.5175C66.5985 43.985 67.2564 44.9046 69.6883 44.5578C72.296 44.1861 72.5926 43.2027 72.9489 33.746C73.2933 24.6064 73.6467 23.3433 75.8593 23.3433C80.9343 23.3433 82.6239 21.7989 82.6239 17.1595C82.6239 13.1963 83.0597 12.605 85.9796 12.605C89.7124 12.605 89.6994 12.5271 89.3483 32.9451C89.2504 38.6435 89.7779 43.5927 90.5331 44.0594C93.1027 45.6476 95.7659 32.07 95.9787 16.2963C96.0344 12.1802 96.536 11.2628 98.7312 11.2628C100.94 11.2628 101.445 12.2136 101.583 16.6319C101.676 19.5849 101.902 22.605 102.087 23.3433C102.271 24.0815 102.498 25.2896 102.59 26.0279C102.862 28.2045 108.127 27.5664 108.127 25.3568C108.127 24.104 109.395 23.3433 111.483 23.3433C114.814 23.3433 114.84 23.4365 115.105 36.4306C115.348 48.3538 115.413 48.6522 115.835 39.7863C116.188 32.3731 116.764 30.0548 118.253 30.0548C119.328 30.0548 120.207 28.8467 120.207 27.3701C120.207 25.8787 121.102 24.6856 122.221 24.6856C123.543 24.6856 124.234 23.3624 124.234 20.8304C124.234 17.3609 124.78 16.8878 129.685 16.1035C132.682 15.624 135.703 15.5823 136.396 16.0114C137.089 16.4399 137.657 19.4731 137.657 22.7517C137.657 26.6213 138.246 28.7156 139.335 28.721C140.257 28.725 142.674 29.5959 144.704 30.6549L148.395 32.5804V27.2909C148.395 22.3085 148.629 22.0014 152.422 22.0014C155.322 22.0014 156.478 22.6588 156.555 24.3503C156.618 25.7536 156.933 26.0238 157.338 25.0215C158.391 22.4119 162.907 23.0465 164.502 26.0282C165.292 27.5047 167.126 28.7128 168.576 28.7128C170.027 28.7128 171.214 29.5831 171.214 30.647C171.214 33.3487 173.835 34.6819 175.626 32.8911C178.617 29.9002 181.952 31.1599 181.952 35.2806C181.952 40.0413 185.381 41.8507 186.499 37.6803C186.931 36.0703 187.292 32.7899 187.303 30.3906C187.318 26.6371 187.789 26.0282 190.677 26.0282C193.854 26.0282 194.032 26.4244 194.032 33.5066C194.032 40.1541 194.256 40.7614 196.046 38.9716C197.306 37.7112 198.059 34.4122 198.059 30.1509C198.059 24.9949 198.548 23.3436 200.072 23.3436C201.191 23.3436 202.086 22.1505 202.086 20.6591C202.086 18.6903 202.981 17.9745 205.442 17.9745C208.126 17.9745 208.797 18.6457 208.797 21.3303C208.797 23.3036 209.567 24.6859 210.667 24.6859C213.259 24.6859 214.166 27.7011 214.166 36.3169C214.166 44.895 216.743 45.6749 218.636 37.67C219.473 34.1294 220.521 32.7396 222.353 32.7396C224.01 32.7396 224.904 31.798 224.904 30.055C224.904 28.5636 225.799 27.3705 226.918 27.3705C228.439 27.3705 228.931 25.7299 228.931 20.6591C228.931 14.395 229.155 13.9476 232.287 13.9476H235.643L235.868 29.0484C235.993 37.3538 236.331 41.8839 236.621 39.1154C236.91 36.347 237.715 34.0818 238.408 34.0818C239.102 34.0818 239.67 29.2497 239.67 23.3436C239.67 12.7844 239.725 12.6053 243.025 12.6053C245.71 12.6053 246.381 13.2765 246.381 15.9611C246.381 18.6456 247.052 19.3168 249.737 19.3168C253.018 19.3168 253.092 19.5408 253.092 29.3839C253.092 37.4376 253.495 39.451 255.106 39.451C256.448 39.451 257.119 40.7934 257.119 43.4779C257.119 46.1624 257.79 47.5048 259.132 47.5048C260.35 47.5048 261.146 46.2599 261.146 44.3552C261.146 39.9807 264.973 32.7396 267.284 32.7396C268.418 32.7396 269.2 31.4079 269.2 29.4772C269.2 27.116 270.034 26.0964 272.22 25.786C273.881 25.5498 275.315 24.602 275.408 23.6791C275.5 22.7563 275.651 20.7933 275.743 19.3168C275.863 17.3929 276.861 16.6322 279.266 16.6322C281.951 16.6322 282.622 15.9611 282.622 13.2765C282.622 10.592 283.293 9.92085 285.978 9.92085C289.238 9.92085 289.333 10.1893 289.333 19.3168C289.333 24.4846 289.888 28.7128 290.566 28.7128C291.244 28.7128 292.837 29.1108 294.105 29.5981C296.054 30.3459 296.316 29.8255 295.79 26.2423C295.447 23.9098 295.667 22.0014 296.277 22.0014C296.888 22.0014 297.387 21.0804 297.387 19.9548C297.387 17.7978 302.485 15.29 306.871 15.29C309.172 15.29 309.468 16.2826 309.468 24.0147C309.468 28.9364 310.053 32.7396 310.81 32.7396C311.548 32.7396 312.228 30.9276 312.32 28.7128C312.412 26.498 312.639 24.0819 312.823 23.3436C313.008 22.6054 313.234 21.0953 313.326 19.9879C313.544 17.3732 320.206 17.2516 320.206 19.8619C320.206 22.6464 325.785 20.8165 326.581 17.7708C327.335 14.8893 332.286 14.374 332.286 17.177C332.286 18.4241 334.563 19.3778 338.997 19.9876C342.689 20.4952 345.709 21.458 345.709 22.127C345.709 22.7959 346.847 23.3433 348.239 23.3433C350.302 23.3433 350.941 24.7198 351.7 30.8024C352.299 35.5932 353.195 38.0722 354.204 37.7326C355.595 37.2642 355.888 34.8044 356.354 19.652C356.416 17.6163 357.275 16.6318 358.988 16.6318C361.881 16.6318 363.158 19.1319 363.158 24.7953C363.158 27.3823 363.842 28.7125 365.172 28.7125C366.29 28.7125 367.185 29.9056 367.185 31.397C367.185 32.8884 368.08 34.0816 369.199 34.0816C370.69 34.0816 371.212 32.5155 371.212 28.0412C371.212 22.8958 371.61 22.001 373.897 22.001C375.388 22.001 376.581 21.1061 376.581 19.9876C376.581 18.7348 377.849 17.9741 379.937 17.9741H383.292V37.661C383.292 48.4888 383.535 57.0961 383.831 56.7885C384.984 55.592 385.859 40.5652 385.917 20.9943L385.977 0.524414H389.333H392.688V18.6453C392.688 33.2393 393.052 36.7661 394.558 36.7661C396.584 36.7661 398.058 39.5778 398.058 43.4437C398.058 44.7808 398.946 46.2159 400.032 46.6327C401.542 47.2118 402.211 45.8517 402.874 40.8513C403.515 36.0191 404.401 34.1397 406.269 33.6514C408.056 33.1842 408.796 31.7754 408.796 28.8381C408.796 25.3036 409.295 24.6856 412.151 24.6856C414.612 24.6856 415.507 25.4015 415.507 27.3701C415.507 29.1923 416.402 30.0547 418.293 30.0547C420.496 30.0547 421.028 29.2827 420.835 26.3634C420.216 16.9735 420.733 15.2896 424.232 15.2896C426.659 15.2896 427.588 16.0107 427.588 17.8949C427.588 19.3279 428.165 20.8573 428.871 21.2937C429.577 21.7298 429.815 22.9737 429.399 24.0575C428.927 25.2861 429.454 26.0279 430.8 26.0279C432.534 26.0279 432.957 27.5611 432.957 33.8579C432.957 38.1643 433.35 42.0811 433.831 42.5618C435.156 43.8869 438.235 39.1831 438.283 35.7594C438.334 32.3397 439.424 32.0742 444.303 34.2969C446.59 35.3392 447.722 36.9256 447.722 39.0909C447.722 42.0046 447.928 42.1211 449.788 40.2603C451.192 38.857 452.053 34.6251 452.472 27.0771C453.407 10.2465 454.121 7.23584 457.178 7.23584C459.461 7.23584 459.821 8.23892 459.944 14.9541C460.022 19.199 459.985 24.2732 459.857 26.2303C459.731 28.1873 460.271 30.1861 461.057 30.672C461.843 31.1579 462.487 33.0298 462.487 34.8319C462.487 36.8494 463.26 38.1083 464.5 38.1083C465.607 38.1083 466.513 39.0501 466.513 40.201C466.513 41.352 467.117 41.9203 467.856 41.4641C468.594 41.008 469.198 37.9124 469.198 34.5852C469.198 31.2581 469.823 27.3676 470.587 25.9396C472.016 23.2707 477.252 22.2855 477.252 24.6856C477.252 25.4239 478.486 26.0279 479.995 26.0279C481.504 26.0279 482.64 25.2728 482.52 24.35C481.796 18.7737 482.724 16.6318 485.864 16.6318C487.649 16.6318 489.413 17.3869 489.785 18.3097C490.158 19.2325 490.51 16.8164 490.568 12.9406C490.668 6.34685 490.89 5.89361 494.03 5.89361H497.386V19.3164C497.386 27.3701 497.923 32.7392 498.728 32.7392C499.466 32.7392 500.07 29.7548 500.07 26.1071C500.07 22.4593 500.674 19.1016 501.412 18.6453C502.151 18.1892 502.755 16.6433 502.755 15.2104C502.755 13.3262 503.684 12.605 506.11 12.605C508.982 12.605 509.48 13.2342 509.56 16.9674C509.612 19.3668 510.174 22.5379 510.808 24.0144C511.676 26.0343 511.985 25.1204 512.056 20.3231C512.126 15.5924 512.67 13.9474 514.164 13.9474C515.506 13.9474 516.177 12.605 516.177 9.92049C516.177 6.52002 516.699 5.89361 519.533 5.89361C522.701 5.89361 522.889 6.30277 522.889 13.1828C522.889 19.7106 523.204 20.5201 525.909 20.9328C527.57 21.1866 528.778 22.1343 528.593 23.0396C528.409 23.9448 529.466 24.6856 530.942 24.6856C532.911 24.6856 533.627 23.7907 533.627 21.3299C533.627 19.2419 534.388 17.9741 535.64 17.9741C536.893 17.9741 537.654 16.7064 537.654 14.6185C537.654 11.9339 538.325 11.2627 541.009 11.2627C544.326 11.2627 544.365 11.397 544.365 22.6721C544.365 28.9473 544.894 34.0816 545.54 34.0816C546.186 34.0816 547.077 35.8936 547.519 38.1083C548.096 40.9918 549.097 42.1352 551.043 42.1352C553.319 42.1352 553.761 41.2625 553.761 36.7661C553.761 33.8131 554.319 31.397 555.001 31.397C555.683 31.397 556.743 28.2258 557.356 24.35C558.362 17.9891 558.829 17.2617 562.156 16.8783C565.699 16.4698 565.841 16.6907 565.841 22.583C565.841 27.8175 566.234 28.7124 568.526 28.7124C570.495 28.7124 571.211 27.8176 571.211 25.3568C571.211 22.6722 571.882 22.001 574.566 22.001C577.847 22.001 577.922 22.225 577.922 32.0681C577.922 40.3085 578.303 42.1352 580.023 42.1352C581.754 42.1352 582.091 40.4187 581.938 32.4037C581.629 16.2077 581.592 16.3945 584.969 16.874C587.811 17.2779 588.028 18.0748 588.66 30.4344C589.259 42.1521 589.505 43.1637 590.945 39.8304C591.833 37.7759 593.052 33.0748 593.654 29.3836C594.683 23.0719 595.006 22.6471 599.077 22.2523C602.474 21.9223 603.239 22.2698 602.632 23.8485C602.206 24.9574 602.494 26.9585 603.272 28.2954C604.521 30.4425 604.69 30.3122 604.727 27.1782C604.768 23.5883 606.872 22.001 611.589 22.001C613.771 22.001 614.163 22.988 614.163 28.48C614.163 34.9153 614.187 34.9549 618.19 34.3679C621.245 33.9194 622.217 34.2998 622.217 35.9426C622.217 37.1337 622.821 38.1083 623.559 38.1083C624.335 38.1083 624.901 33.8578 624.901 28.0412C624.901 18.1979 624.976 17.9741 628.257 17.9741C631.492 17.9741 631.613 18.2872 631.613 26.699V35.4238H636.311C640.984 35.4238 641.009 35.3945 641.009 29.3836C641.009 23.8196 641.276 23.3433 644.398 23.3433C648.649 23.3433 650.405 19.1979 650.405 9.16189C650.405 2.27521 650.592 1.86674 653.76 1.86674C657.039 1.86674 657.119 2.10416 657.252 12.2694C657.326 17.9909 657.287 24.5555 657.165 26.8573C657.019 29.5708 657.68 31.326 659.042 31.8488C660.731 32.4969 661.143 31.6102 661.143 27.328C661.143 22.304 661.372 22.001 665.17 22.001C667.384 22.001 669.197 21.397 669.197 20.6587C669.197 18.7166 674.217 19.0059 675.019 20.9939C675.391 21.9168 675.744 20.1047 675.802 16.9671C675.896 11.8867 676.257 11.2625 679.096 11.2625C682.605 11.2625 683.962 15.0527 683.962 24.853C683.962 28.5816 684.532 30.0544 685.975 30.0544C687.082 30.0544 687.988 29.1052 687.988 27.9451C687.988 26.785 688.894 24.9298 690.002 23.8224C691.109 22.715 692.015 20.04 692.015 17.8779C692.015 14.5797 692.556 13.947 695.371 13.947C698.23 13.947 698.749 14.5924 698.881 18.3095C698.966 20.7088 699.177 23.2759 699.348 24.0141C699.52 24.7524 699.752 29.1316 699.864 33.7457C700.022 40.2171 700.529 42.135 702.082 42.135C703.693 42.135 704.096 40.1215 704.096 32.0679C704.096 22.2244 704.17 22.0008 707.451 22.0008C710.651 22.0008 710.816 22.39 711.008 30.39C711.119 35.0041 711.468 37.045 711.784 34.9252C712.336 31.2241 712.594 31.0977 718.294 31.7402C724.093 32.3938 724.23 32.3206 724.23 28.5472C724.23 25.151 724.715 24.6852 728.257 24.6852C730.654 24.6852 732.283 25.3874 732.283 26.4203C732.283 27.8898 741.701 31.3967 745.648 31.3967C746.333 31.3967 747.08 28.8296 747.307 25.692C747.65 20.9497 748.229 19.9149 750.74 19.5583C753.554 19.1585 753.775 19.6621 753.985 26.941C754.15 32.655 754.352 33.4009 754.737 29.7189C755.027 26.9504 755.832 24.6852 756.525 24.6852C757.219 24.6852 757.786 23.1751 757.786 21.3296C757.786 17.764 758.804 17.4392 765.672 18.8128C769.582 19.5948 769.867 20.0396 769.867 25.3676C769.867 29.9546 770.397 31.2223 772.552 31.7857C775.109 32.4544 775.236 31.8267 775.236 18.5193V4.55102H778.592H781.947V18.4125V32.274L785.974 31.683C789.713 31.1343 790.001 31.3911 790.001 35.2712C790.001 39.9089 790.527 40.0629 801.31 38.5849L807.625 37.7193L807.428 30.1956C806.988 13.415 807.17 12.3782 810.471 12.8469C812.831 13.1822 813.587 14.2912 813.933 17.9218C814.187 20.5945 815.469 23.3349 816.953 24.3739C818.371 25.3672 819.531 27.3536 819.531 28.7882C819.531 30.2229 820.437 31.3967 821.544 31.3967C822.998 31.3967 823.558 29.9052 823.558 26.0275C823.558 21.1954 823.893 20.6584 826.913 20.6584C829.996 20.6584 830.269 21.1503 830.269 26.6987C830.269 31.8441 830.667 32.739 832.954 32.739C834.43 32.739 835.638 33.343 835.638 34.0812C835.638 34.8195 836.544 35.4235 837.652 35.4235C838.759 35.4235 839.665 36.3296 839.665 37.437C839.665 38.5443 840.269 39.4504 841.007 39.4504C841.746 39.4504 842.35 37.0343 842.35 34.0812C842.35 29.0104 842.574 28.7121 846.376 28.7121C848.591 28.7121 850.403 28.1081 850.403 27.3699C850.403 26.6316 851.913 26.0275 853.759 26.0275C856.779 26.0275 857.115 25.4906 857.115 20.6584C857.115 15.8262 857.45 15.2893 860.47 15.2893C863.602 15.2893 863.826 15.7366 863.826 22.0008C863.826 28.2648 864.05 28.7121 867.182 28.7121C870.498 28.7121 870.537 28.8463 870.537 40.1215C870.537 46.8329 871.09 51.5309 871.88 51.5309C872.625 51.5309 873.222 47.9515 873.222 43.4773C873.222 39.0477 873.789 35.4235 874.483 35.4235C875.177 35.4235 875.932 33.1584 876.161 30.39C876.496 26.3467 877.172 25.272 879.598 24.9274C882.307 24.5429 882.618 25.0635 882.618 29.9793C882.618 36.7347 884.851 40.6594 888.197 39.7844C890.127 39.2797 890.671 37.8419 890.671 33.2536C890.671 27.8725 890.958 27.3699 894.027 27.3699C896.488 27.3699 897.383 28.0857 897.383 30.0544C897.383 31.5458 898.278 32.739 899.396 32.739C900.735 32.739 901.471 34.1998 901.592 37.1014C901.725 40.2561 901.936 40.6277 902.357 38.4437C902.677 36.7826 903.803 35.4235 904.859 35.4235C906.209 35.4235 906.779 33.8037 906.779 29.961C906.779 25.0917 907.101 24.5451 909.744 24.9274C913.292 25.4409 914.513 29.103 914.698 39.7859C914.772 44.0309 915.394 47.5041 916.081 47.5041C916.768 47.5041 917.592 48.8632 917.912 50.5242C918.232 52.1853 918.576 49.8446 918.676 45.3228C918.854 37.3154 918.964 37.0804 922.886 36.296C926.084 35.6563 926.913 34.7934 926.913 32.1014C926.913 29.381 927.575 28.7121 930.268 28.7121C933.351 28.7121 933.624 29.2039 933.624 34.7523C933.624 39.2266 934.146 40.7927 935.637 40.7927C937.092 40.7927 937.651 39.3013 937.651 35.4235C937.651 30.5913 937.986 30.0544 941.007 30.0544C943.756 30.0544 944.375 30.7216 944.431 33.7457C944.497 37.2719 944.601 37.2118 946.76 32.4034C950.011 25.1633 953.752 25.5212 953.776 33.0746C953.8 40.2008 955.036 45.0178 956.595 44.0541C957.25 43.6496 957.785 40.9384 957.785 38.0289C957.785 35.1195 958.389 32.739 959.127 32.739C959.865 32.739 960.469 31.2289 960.469 29.3833C960.469 26.6987 961.141 26.0275 963.825 26.0275C967.022 26.0275 967.192 26.4256 967.415 34.4168C967.606 41.2443 967.734 41.6816 968.105 36.7658C969.005 24.8119 969.349 24.2596 975.301 25.2113C980.294 26.0098 980.604 25.8625 980.604 22.6877C980.604 19.9863 981.27 19.3162 983.959 19.3162C986.81 19.3162 987.315 19.9363 987.315 23.4364C987.315 26.9414 987.766 27.4926 990.335 27.1276C992.57 26.8099 993.678 25.3899 994.599 21.6652C997.421 10.2398 1003.42 19.583 1003.42 35.4024C1003.42 42.5139 1003.73 43.4773 1006.04 43.4773C1007.48 43.4773 1009.19 44.4357 1009.85 45.6072C1010.68 47.0865 1011.12 45.5486 1011.29 40.5737C1011.43 36.6337 1012.13 33.2088 1012.85 32.9627C1013.57 32.7165 1014.16 28.3374 1014.16 23.2312C1014.16 14.2229 1014.26 13.947 1017.52 13.947H1020.87V27.3699C1020.87 38.4064 1021.23 40.7927 1022.89 40.7927C1023.99 40.7927 1024.9 39.6202 1024.9 38.1873C1024.9 36.7544 1025.5 35.2086 1026.24 34.7523C1026.98 34.2963 1027.58 32.4484 1027.58 30.6464C1027.58 28.0631 1028.28 27.3699 1030.88 27.3699C1033.54 27.3699 1034.44 28.3347 1035.57 32.4034C1036.34 35.1719 1037.02 39.5511 1037.08 42.135C1037.24 48.9386 1037.99 45.6721 1039.01 33.7457C1039.76 24.8706 1040.25 23.343 1042.36 23.343C1043.99 23.343 1045.11 24.6739 1045.69 27.3173C1046.47 30.8738 1046.98 31.2089 1050.5 30.5052C1054.35 29.7352 1054.43 29.8404 1054.6 35.5913L1054.77 41.4638L1056.18 36.4302C1056.95 33.6618 1058.39 31.3967 1059.36 31.3967C1060.6 31.3967 1061.14 29.3586 1061.14 24.6852C1061.14 18.4213 1061.36 17.9739 1064.5 17.9739C1067.63 17.9739 1067.85 18.4211 1067.85 24.6852C1067.85 28.3765 1068.45 31.3967 1069.19 31.3967C1069.93 31.3967 1070.54 33.5108 1070.54 36.0946C1070.54 38.6785 1071.14 40.7927 1071.88 40.7927C1072.62 40.7927 1073.22 39.5846 1073.22 38.1081C1073.22 36.6167 1074.11 35.4235 1075.23 35.4235C1076.34 35.4235 1077.25 34.8195 1077.25 34.0812C1077.25 33.343 1078.76 32.739 1080.6 32.739C1082.45 32.739 1083.96 33.343 1083.96 34.0812C1083.96 34.8195 1085.12 35.4235 1086.53 35.4235C1087.95 35.4235 1089.41 36.1786 1089.78 37.1014C1090.15 38.0243 1090.51 36.8165 1090.56 34.4168C1090.65 30.6867 1091.16 30.0544 1094.03 30.0544C1096.49 30.0544 1097.38 29.3385 1097.38 27.3699C1097.38 25.4012 1098.28 24.6852 1100.74 24.6852C1103.82 24.6852 1104.09 25.1777 1104.09 30.7255C1104.09 34.0477 1104.7 36.7658 1105.43 36.7658C1106.22 36.7658 1106.78 32.2916 1106.78 26.0275C1106.78 15.4683 1106.84 15.2893 1110.13 15.2893C1111.98 15.2893 1113.49 15.8163 1113.49 16.46C1113.49 17.1039 1115.85 18.009 1118.74 18.4713C1121.64 18.9338 1124.31 20.0678 1124.68 20.9918C1125.05 21.9159 1125.4 21.3131 1125.46 19.6517C1125.53 17.7021 1126.4 16.6389 1127.92 16.6521C1132.5 16.6932 1133.49 18.6822 1133.96 28.7513L1134.43 38.7792L1134.7 28.2874L1134.96 17.7955L1138.66 18.2199C1142.22 18.6303 1142.36 18.9436 1142.74 27.5642C1143.1 35.6667 1143.38 36.4209 1145.76 35.7969C1148.05 35.1991 1148.39 33.9131 1148.39 25.8707C1148.39 16.9101 1148.49 16.6312 1151.74 16.6312C1154.78 16.6312 1155.11 17.1741 1155.2 22.336C1155.26 25.4736 1155.64 27.2101 1156.04 26.195C1157.21 23.2664 1161.63 19.3158 1163.74 19.3158C1166.56 19.3158 1167.58 21.6532 1167.72 28.4678C1167.9 36.8587 1171.21 37.8337 1171.21 29.4948C1171.21 23.9421 1171.51 23.3427 1174.34 23.3427C1177.43 23.3427 1177.51 23.7091 1179.28 45.0387C1180.71 62.2688 1180.75 69.3833 1179.48 79.6024C1178.61 86.6797 1177.9 98.0575 1177.9 104.886C1177.92 116.208 1177.69 117.302 1175.36 117.302C1173.28 117.302 1172.64 115.988 1171.93 110.256C1170.57 99.2054 1169.75 95.8259 1168.42 95.8259C1167.74 95.8259 1167.18 98.2421 1167.18 101.195C1167.18 105.073 1166.62 106.564 1165.17 106.564C1164.06 106.564 1163.15 107.512 1163.15 108.671C1163.15 110.088 1162.16 110.637 1160.13 110.349C1157.62 109.992 1157.04 108.958 1156.7 104.215C1156.34 99.1735 1155.91 98.5105 1153.01 98.5105C1150.28 98.5105 1149.73 99.1701 1149.73 102.406C1149.73 105.528 1148.93 106.58 1145.7 107.705C1142.25 108.91 1141.68 109.786 1141.68 113.877C1141.68 117.75 1141.17 118.645 1138.99 118.645C1136.7 118.645 1136.29 117.705 1136.17 112.269C1136.1 108.762 1136.14 103.93 1136.27 101.531C1136.45 98.2718 1135.95 97.1683 1134.29 97.1683C1132.64 97.1683 1132.14 98.2718 1132.31 101.531C1132.45 103.93 1132.49 108.804 1132.42 112.362C1132.29 118.271 1132.02 118.794 1129.26 118.403C1126.45 118.003 1126.21 117.224 1125.85 106.9C1125.46 95.928 1123.69 92.4023 1122.13 99.5172C1120.71 105.994 1120.34 106.564 1117.56 106.564C1115.54 106.564 1114.83 105.687 1114.83 103.208C1114.83 100.375 1114.21 99.8528 1110.8 99.8528C1107.4 99.8528 1106.78 99.3306 1106.78 96.4972C1106.78 90.8749 1104.11 92.7614 1103.93 98.5105C1103.83 101.464 1103.61 104.484 1103.42 105.222C1103.24 105.96 1103.01 107.772 1102.92 109.249C1102.67 113.192 1097.42 112.881 1097.27 108.913C1096.78 96.1825 1097.13 96.9328 1090.67 94.9937C1087.35 93.9972 1084.48 93.1726 1084.29 93.1614C1084.11 93.1497 1083.96 94.0471 1083.96 95.1545C1083.96 96.4072 1082.69 97.1679 1080.6 97.1679C1078.24 97.1679 1077.25 96.4384 1077.25 94.6887C1077.25 92.2802 1073.1 86.4297 1071.39 86.4297C1070.92 86.4297 1070.54 89.4498 1070.54 93.1411C1070.54 96.8324 1069.93 99.8525 1069.19 99.8525C1068.46 99.8525 1067.85 102.269 1067.85 105.222C1067.85 109.99 1067.49 110.591 1064.64 110.591C1062.87 110.591 1061.08 109.685 1060.66 108.577C1060.23 107.47 1058.96 106.564 1057.83 106.564C1056.29 106.564 1055.77 105.053 1055.77 100.524C1055.77 94.3232 1053.61 92.0956 1052.84 97.5035C1052.54 99.6817 1051.37 100.644 1048.66 100.955C1046.09 101.25 1044.97 102.099 1045.12 103.64C1045.24 104.879 1045.27 108.804 1045.19 112.362C1045.05 118.266 1044.77 118.794 1042.01 118.402C1039.13 117.993 1038.96 117.264 1038.25 102.537C1037.85 94.0471 1037.39 89.2955 1037.25 91.9778C1037.04 95.7817 1036.32 97.0329 1033.96 97.6642C1027.3 99.4476 1026.24 98.8245 1026.24 93.1411C1026.24 88.6087 1025.81 87.7719 1023.47 87.7719C1020.92 87.7719 1020.71 88.5069 1020.88 96.8324C1021.19 111.446 1021.11 111.933 1018.34 111.933C1015.26 111.933 1014.2 108.456 1014.18 98.1746L1014.16 90.4565H1009.62C1006.13 90.4565 1004.82 89.7558 1003.98 87.4364C1003.24 85.438 1002.72 89.2981 1002.43 98.8457C1001.99 113.171 1001.97 113.275 998.68 113.275C996.365 113.275 995.37 112.535 995.37 110.814C995.37 109.461 994.958 107.942 994.455 107.439C993.952 106.935 993.694 103.211 993.881 99.1614C994.211 92.0591 994.1 91.7987 990.769 91.7987C988.87 91.7987 987.316 92.4028 987.316 93.1411C987.316 93.8794 986.41 94.4834 985.303 94.4834C983.606 94.4834 983.289 97.5408 983.289 113.946V133.41H979.975H976.661L976.284 116.967C975.92 101.068 975.807 100.509 972.887 100.095C970.221 99.716 969.867 98.8889 969.867 93.0477C969.867 89.4078 969.35 86.4297 968.719 86.4297C967.43 86.4297 965.864 100.534 965.85 112.269C965.838 119.604 965.674 119.987 962.484 119.987H959.129V105.222C959.129 96.2731 958.6 90.4565 957.786 90.4565C957.048 90.4565 956.444 87.7384 956.444 84.4162C956.444 81.094 955.84 78.3759 955.102 78.3759C954.326 78.3759 953.76 82.6265 953.76 88.443C953.76 98.2864 953.685 98.5102 950.404 98.5102C948.316 98.5102 947.048 97.7496 947.048 96.4968C947.048 95.3894 945.759 93.1938 944.183 91.6178C941.608 89.0429 941.193 88.9749 940.089 90.9466C939.414 92.1536 937.683 93.1411 936.243 93.1411C934.229 93.1411 933.625 94.07 933.625 97.1679C933.625 100.747 933.178 101.195 929.599 101.195H925.572V90.4565C925.572 80.7335 925.326 79.7182 922.975 79.7182C918.791 79.7182 913.351 82.2411 913.589 84.0706C913.711 84.9989 913.738 89.2317 913.65 93.4766C913.503 100.609 913.255 101.195 910.378 101.195C906.534 101.195 901.802 95.9747 901.04 90.8959C900.727 88.8085 900.38 91.1779 900.27 96.1612C900.076 104.877 899.941 105.222 896.713 105.222C893.449 105.222 893.357 104.961 893.357 95.7138C893.357 88.7077 892.916 86.3513 891.679 86.7583C890.741 87.0667 889.821 90.0768 889.592 93.5816C889.255 98.7585 888.728 99.8525 886.572 99.8525C884.559 99.8525 883.919 98.854 883.778 95.4901C883.634 92.0504 883.491 91.8374 883.103 94.4834C881.365 106.316 879.413 111.933 877.035 111.933C875.593 111.933 874.548 110.955 874.524 109.584C874.258 94.4027 871.881 72.1687 871.881 84.8637C871.881 88.2194 871.316 89.1142 869.196 89.1142C866.735 89.1142 866.512 90.0091 866.512 99.8525C866.512 110.412 866.453 110.591 863.156 110.591C860.695 110.591 859.8 109.875 859.8 107.906C859.8 105.751 858.905 105.222 855.259 105.222C850.432 105.222 849.12 103.195 849.08 95.6762C849.063 92.6859 848.58 92.2632 845.782 92.7982C842.986 93.3328 842.325 92.7571 841.311 88.9208C840.218 84.7788 840.043 85.1993 839.142 94.145C838.603 99.4957 838.536 104.479 838.993 105.219C839.475 105.999 838.197 106.564 835.951 106.564C832.41 106.564 832.128 106.217 832.668 102.537C833.023 100.12 832.663 98.5102 831.765 98.5102C830.943 98.5102 830.27 97.6042 830.27 96.4968C830.27 95.3783 829.077 94.4834 827.586 94.4834C825.617 94.4834 824.901 95.3783 824.901 97.8391C824.901 100.895 824.392 101.193 819.196 101.176C809.237 101.147 807.457 100.16 807.411 94.6623C807.375 90.5624 807.142 90.1767 805.942 92.2415C805.156 93.5924 804.726 97.3675 804.985 100.631C805.429 106.21 805.255 106.564 802.057 106.564C798.902 106.564 798.693 106.177 799.165 101.229C799.609 96.5646 799.24 95.696 796.227 94.3233C794.332 93.4598 792.272 91.2264 791.65 89.3603L790.519 85.9675L788.755 90.2254C787.785 92.5674 786.53 94.4834 785.965 94.4834C785.4 94.4834 784.53 97.2015 784.032 100.524C783.304 105.379 782.597 106.564 780.428 106.564C778.944 106.564 776.818 105.652 775.704 104.538C773.48 102.315 771.21 102.992 771.21 105.879C771.21 106.891 769.851 107.913 768.19 108.148C765.559 108.522 765.118 109.485 764.764 115.624C764.392 122.096 764.09 122.671 761.073 122.671C757.93 122.671 757.787 122.299 757.787 114.099V105.526L753.581 104.909C750.308 104.428 749.231 104.841 748.727 106.77C748.325 108.305 746.861 109.249 744.879 109.249C742.219 109.249 741.68 108.569 741.68 105.222C741.68 101.821 741.158 101.195 738.324 101.195C735.864 101.195 734.969 101.911 734.969 103.879C734.969 105.848 734.074 106.564 731.613 106.564C729.525 106.564 728.257 105.803 728.257 104.55C728.257 103.443 727.351 102.537 726.244 102.537C725.137 102.537 724.231 101.933 724.231 101.195C724.231 100.456 723.358 99.8525 722.291 99.8525C720.943 99.8525 720.194 97.9051 719.838 93.4766C719.426 88.3617 719.115 87.6981 718.265 90.1209C717.683 91.782 716.673 93.1411 716.02 93.1411C715.368 93.1411 714.835 95.8592 714.835 99.1813C714.835 104.729 714.562 105.222 711.479 105.222C708.539 105.222 708.123 104.64 708.123 100.524C708.123 96.7769 707.599 95.8256 705.532 95.8256C703.912 95.8256 702.723 94.6937 702.359 92.8055C702.039 91.1445 701.695 92.6038 701.595 96.0493C701.495 99.4945 700.769 102.528 699.983 102.79C699.197 103.052 698.212 105.82 697.793 108.942C697.141 113.803 696.575 114.618 693.853 114.618C690.987 114.618 690.674 114.031 690.674 108.668C690.674 103.897 690.142 102.549 687.989 101.866C686.513 101.397 685.206 100.3 685.086 99.4264C684.966 98.5534 684.513 101.161 684.079 105.222C683.401 111.574 682.869 112.664 680.265 113.034C678.45 113.292 676.915 112.621 676.43 111.356C675.552 109.068 669.198 108.396 669.198 110.591C669.198 111.329 667.687 111.933 665.842 111.933C662.506 111.933 662.485 111.857 662.285 98.8457C662.174 91.6478 661.833 87.4196 661.525 89.4498C661.218 91.48 660.402 93.1411 659.712 93.1411C658.987 93.1411 658.459 102.469 658.459 115.289V137.436H655.104C651.76 137.436 651.748 137.39 651.748 124.685L651.749 124.686Z" fill="black"/>
</svg>
