<svg width="1179" height="75" viewBox="0 0 1179 75" fill="none" xmlns="http://www.w3.org/2000/svg">
<path d="M118.594 72.3069C118.046 71.015 117.313 63.0117 116.964 54.5217C116.615 46.0318 115.79 38.5117 115.131 37.8103C114.472 37.109 113.932 34.6065 113.932 32.2492C113.932 29.6778 113.127 27.6542 111.919 27.1907C110.812 26.7657 109.896 25.3421 109.885 24.0269C109.87 22.1103 109.628 22.0101 108.67 23.5216C107.283 25.7122 100.51 26.7904 100.51 24.8204C100.51 24.089 99.9056 23.8639 99.1673 24.3204C98.4291 24.7765 97.825 24.3949 97.825 23.472C97.825 22.5321 97.0206 22.894 95.9963 24.2949C94.2257 26.7163 94.09 26.7054 91.7309 23.9496C89.4669 21.3055 89.1714 21.2654 87.5621 23.3828C85.9844 25.4588 85.8261 25.3928 85.7873 22.6419C85.7621 20.8711 84.9117 19.6217 83.7312 19.6217C82.6238 19.6217 81.7178 20.2257 81.7178 20.964C81.7178 23.2196 73.897 22.4841 72.5646 20.1031C70.6688 16.7155 64.5294 18.7851 63.4253 23.1841L62.5415 26.7055L60.9271 22.828L59.3128 18.9505L58.3282 23.313C57.7866 25.7123 56.7876 27.6754 56.108 27.6754C55.4284 27.6754 54.8724 28.8141 54.8724 30.2059C54.8724 31.5977 54.101 34.5709 53.1581 36.8132C51.5062 40.7421 51.3401 40.8085 48.5835 38.6451C46.7197 37.1824 45.07 33.3908 43.8486 27.7628C41.9255 18.9016 39.6596 16.0563 38.3905 20.9091C37.9963 22.4158 36.7115 23.6486 35.5351 23.6486C33.993 23.6486 33.396 24.9353 33.396 28.2591C33.396 36.0912 31.3131 39.7559 26.8615 39.7559C22.6799 39.7559 21.3561 37.9076 21.255 31.928C21.1708 26.9412 18.2667 20.8004 16.5581 21.9963C15.7872 22.5362 14.3679 27.8096 13.4041 33.7157C11.3794 46.1234 9.92713 49.8083 8.51066 46.1318C8.01298 44.8399 6.79157 43.7828 5.79668 43.7828C4.79737 43.7828 3.66752 41.8302 3.27233 39.4203C1.25372 27.1096 -0.0818899 13.8686 0.586041 12.7879C2.21665 10.1495 5.31067 11.7442 6.08635 15.6228C7.22811 21.3317 8.85228 21.7466 9.96376 16.6133C10.4847 14.2076 12.1029 9.68798 13.5599 6.56983C15.8537 1.66057 16.4656 1.15721 18.1234 2.81497C20.7333 5.42488 26.6397 18.3266 26.7392 21.6352C26.7849 23.1117 28.1731 20.0915 29.827 14.9238C31.4809 9.75598 33.4136 5.82977 34.1218 6.1989C34.83 6.5682 35.6089 5.46174 35.8527 3.74056C36.2732 0.772886 36.3922 0.738261 38.159 3.06944C39.9476 5.42952 40.0266 5.42056 40.1369 2.84323C40.2374 0.501558 45.6667 10.5583 48.8332 18.9505C49.7145 21.2864 50.0092 21.0449 51.1023 17.0916C51.7932 14.5926 53.2261 11.6803 54.2866 10.6199C55.347 9.55938 56.2146 7.95734 56.2146 7.05982C56.2146 4.53766 61.3448 4.74565 62.0179 7.29542C62.5571 9.3372 62.6296 9.32864 62.7702 7.20579C62.8742 5.63655 64.04 4.85676 66.2817 4.85676C68.5481 4.85676 69.6668 4.09429 69.7282 2.50781C69.7951 0.782226 70.234 1.0494 71.3821 3.51453C72.2419 5.36016 73.6571 7.61445 74.5271 8.52405C75.3972 9.43365 76.3496 10.8997 76.6436 11.7819C77.3964 14.0401 80.3755 11.8915 80.3755 9.09007C80.3755 5.88259 84.9787 5.81248 87.842 8.97629C90.8804 12.3337 91.9525 12.2446 92.9926 8.54838C93.7824 5.74109 93.9684 5.69237 95.6308 7.85643C96.6145 9.13685 97.8089 9.79495 98.2851 9.31878C98.7614 8.84221 100.363 9.54969 101.844 10.8899C104.458 13.2557 104.536 13.2447 104.536 10.5136C104.536 7.49857 107.192 4.85433 107.264 7.7982C107.289 8.94732 107.936 8.72485 109.127 7.15526C110.779 4.97666 111.314 5.53867 114.922 13.2499C117.108 17.9219 119.384 24.136 119.979 27.0591L121.06 32.3741L122.268 26.6941C122.933 23.5701 124.175 21.154 125.03 21.3249C125.943 21.5078 127.157 18.4476 127.976 13.8982C129.087 7.72143 129.65 6.60853 130.764 8.3813C131.967 10.297 132.556 10.354 135.05 8.79686C136.639 7.80403 138.351 5.4544 138.853 3.57553C139.416 1.47021 140.023 0.861505 140.435 1.98911C140.999 3.53391 141.283 3.53391 142.262 1.98911C143.14 0.60393 143.435 0.811551 143.477 2.84395C143.507 4.32046 144.676 7.94458 146.073 10.8976L148.614 16.2668L148.723 11.5315C148.791 8.55914 149.831 5.94049 151.516 4.49763C153.319 2.95359 154.207 2.74553 154.221 3.86381C154.236 5.06516 154.564 5.01916 155.401 3.69905C156.379 2.15425 156.674 2.15425 157.291 3.69905C157.891 5.19919 158.276 5.16615 159.427 3.5156C160.563 1.88733 160.999 2.33256 161.706 5.84281C162.187 8.23015 163.049 9.89418 163.621 9.5407C164.193 9.18722 167.474 9.28335 170.912 9.75466C176.427 10.5107 177.253 11.0601 177.925 14.4242C178.789 18.7395 181.042 18.3177 181.053 13.8386C181.057 12.2211 182.548 8.4816 184.366 5.52859C187.058 1.15927 187.681 0.707131 187.715 3.10039C187.779 7.53613 190.434 8.33016 190.489 3.93C190.535 0.355152 190.622 0.301988 192.167 2.9054C193.088 4.45735 194.819 5.43589 196.146 5.15586C197.903 4.78539 198.495 5.53103 198.495 8.11475C198.495 10.0145 199.099 11.5689 199.838 11.5689C200.576 11.5689 201.18 12.4749 201.18 13.5822C201.18 16.9823 203.446 15.8191 205.235 11.5009L206.931 7.40606L211.765 16.87C214.424 22.0753 216.926 26.334 217.325 26.334C217.724 26.334 219.221 24.3709 220.652 21.9716C222.665 18.5949 223.359 18.1386 223.723 19.9522C224.144 22.0509 231.412 30.3608 232.826 30.3608C233.139 30.3608 233.394 28.3746 233.394 25.9469C233.394 23.5193 234.532 18.3013 235.923 14.3514C238.211 7.85629 238.862 7.13772 242.734 6.83307C245.403 6.62321 247.285 7.19825 247.731 8.36144C248.566 10.5373 253.528 10.9075 253.528 8.79347C253.528 7.99167 254.663 7.72076 256.105 8.17834C257.934 8.75868 258.927 8.21941 259.529 6.32394C260.046 4.69661 261.138 3.9436 262.322 4.39808C263.58 4.8811 264.288 4.26441 264.327 2.65173C264.368 0.912956 264.945 1.37707 266.231 4.186C267.702 7.39665 268.107 7.6686 268.232 5.52823C268.375 3.06439 268.534 3.10665 270.161 6.0412L271.934 9.23909L273.634 4.69888C275.315 0.20822 275.344 0.195314 276.258 3.51453L277.183 6.87019L279.003 3.5181L280.824 0.166016L281.974 3.61596C282.683 5.74478 284.871 7.75167 287.687 8.8567C290.217 9.84919 292.6 11.8996 293.032 13.4567C293.799 16.2157 293.86 16.2067 296.375 12.9609L298.937 9.65519L299.854 14.5459C301.078 21.0664 304.095 19.8706 306.055 12.0889C306.871 8.84974 307.621 6.19943 307.723 6.19943C307.825 6.19943 309.867 6.76152 312.262 7.44801C315.825 8.46993 316.615 8.32202 316.615 6.63325C316.615 5.43172 317.388 4.86642 318.465 5.27975C319.482 5.67015 320.992 5.30907 321.821 4.48377C322.934 3.37082 323.327 3.4189 323.327 4.66785C323.327 5.59732 323.862 6.02683 324.517 5.62224C325.171 5.21776 326.459 5.79283 327.378 6.90016C328.852 8.67586 329.261 8.63448 330.843 6.54962C332.524 4.33421 332.64 4.3601 332.68 6.9634C332.731 10.3311 338.94 16.2279 339.914 13.8347C340.272 12.9571 340.612 13.361 340.67 14.7317C340.74 16.3762 341.461 16.9614 342.789 16.4517C344.159 15.9259 344.803 16.5244 344.803 18.3215C344.803 23.2954 346.996 20.9663 349.353 13.4903L351.709 6.0167L354.753 9.30125C357.038 11.7674 358.359 12.2713 360.052 11.3238C363.138 9.59676 367.621 11.2354 367.621 14.0898C367.621 15.3774 368.945 17.8512 370.562 19.5871L373.502 22.7434L375.257 15.0192C376.222 10.7709 377.354 6.73964 377.774 6.06088C378.659 4.62828 386.413 11.9588 386.413 14.2284C386.413 15.0671 386.973 15.4073 387.657 14.9847C388.341 14.562 389.293 17.6975 389.773 21.9525C391.016 32.9724 391.265 33.2569 392.427 24.9908C393.158 19.7941 394.429 16.714 396.72 14.5881C400.783 10.8173 400.963 10.8276 402.52 14.9233C403.222 16.769 404.35 18.2791 405.026 18.2791C405.703 18.2791 406.635 16.769 407.098 14.9233C408.364 9.88039 410.078 10.8642 411.776 17.6079C413.145 23.042 413.891 23.9227 416.8 23.5335C417.271 23.4708 418.14 24.2005 418.73 25.1556C419.421 26.2732 420.642 23.8749 422.156 18.4281C423.904 12.1425 425.28 9.67121 427.501 8.82674C429.146 8.20133 431.002 6.77749 431.626 5.66267C432.25 4.54784 433.404 4.06128 434.191 4.58153C435.582 5.50074 440.447 15.1326 442 20.042C442.423 21.3807 443.378 22.1001 444.121 21.6406C444.865 21.1811 445.473 21.4449 445.473 22.2269C445.473 23.0087 446.681 23.6483 448.158 23.6483C449.634 23.6483 450.842 24.2524 450.842 24.9907C450.842 27.9178 457.14 26.2939 458.652 22.9771C459.493 21.1315 461.1 19.6216 462.223 19.6216C463.346 19.6216 464.265 18.7155 464.265 17.6081C464.265 14.301 466.902 15.3253 468.584 19.286L470.152 22.9771L470.653 19.286C471.227 15.0617 472.907 14.53 474.896 17.9437C475.978 19.802 476.281 19.872 476.345 18.279C476.41 16.6862 476.713 16.7563 477.795 18.6143C478.548 19.9062 480.658 20.9633 482.485 20.9633C484.849 20.9633 486.243 22.0281 487.315 24.6545C488.82 28.3393 488.825 28.3352 489.991 22.3056C490.634 18.9834 491.857 13.9767 492.709 11.1794L494.259 6.09353L498.699 11.1794C501.141 13.9767 503.151 17.2867 503.165 18.5351C503.196 21.3838 503.889 21.7783 510.875 22.9341L516.545 23.8723L518.805 18.226L521.064 12.5799L523.027 16.3278L524.991 20.0758L526.605 15.3805C527.493 12.7981 529.162 9.34018 530.313 7.69632L532.406 4.70738L533.96 8.47298C534.814 10.544 536.542 14.0505 537.8 16.2653L540.088 20.2921L540.767 14.2518C541.195 10.4411 541.851 8.83904 542.545 9.91137C544.017 12.1872 546.144 10.7115 546.144 7.41403C546.144 2.73531 551.252 6.95555 552.872 12.9728C553.67 15.9356 554.898 18.0038 555.602 17.5689C556.306 17.1339 556.882 17.9857 556.882 19.4626C556.882 20.9391 557.486 22.5205 558.224 22.9767C558.962 23.4328 559.566 22.5629 559.566 21.0425C559.566 18.9893 560.429 18.2787 562.922 18.2787C565.066 18.2787 566.278 19.0341 566.278 20.3714C566.278 21.5223 566.889 22.0863 567.636 21.6246C568.391 21.158 569.361 22.6244 569.822 24.9291C570.973 30.6813 572.092 30.8943 575.046 25.9239L577.596 21.6345L578.907 25.3257C580.253 29.1144 582.369 30.332 582.405 27.3391C582.423 26.0252 582.662 26.0329 583.513 27.3743C584.341 28.6791 585.395 28.3514 587.932 26.0005C591.128 23.0382 591.364 23.0097 593.77 25.2939C597.117 28.472 598.044 28.3007 599.043 24.3186C599.61 22.0632 600.816 20.9629 602.723 20.9629C605.814 20.9629 610.573 16.3153 610.573 13.2957C610.573 12.2577 611.125 11.7499 611.8 12.1672C612.475 12.5846 613.249 12.2621 613.52 11.45C613.79 10.6383 614.899 11.6915 615.983 13.7906C618.518 18.6963 621.205 21.5161 622.301 20.4199C622.775 19.9456 623.883 21.2326 624.761 23.2803C626.588 27.5391 626.441 27.8007 630.818 12.5227C634.002 1.40699 636.063 -1.74763 636.096 4.44065C636.114 7.84521 638.679 14.0882 638.748 10.8958C638.783 9.26425 641.918 15.1329 643.853 20.4534C644.872 23.2534 645.289 23.6006 645.366 21.7131C645.47 19.1339 645.492 19.1339 647.442 21.7131C649.244 24.0955 649.417 24.1152 649.456 21.9434C649.485 20.1536 650.32 19.7173 652.832 20.1727C657.68 21.0518 658.589 21.8851 659.569 26.3475C660.918 32.4926 662.582 31.1536 664.174 22.6408C667.151 6.72568 672.317 -5.1164 672.317 3.97643C672.317 7.2862 676.593 12.213 678.13 10.6751C678.624 10.1816 679.028 11.6901 679.028 14.0279C679.028 16.3657 679.632 18.2784 680.371 18.2784C681.109 18.2784 681.713 17.6744 681.713 16.9361C681.713 16.1979 682.317 15.5939 683.055 15.5939C683.793 15.5939 684.407 16.6509 684.418 17.9428C684.436 19.9503 684.627 19.9991 685.74 18.2782C686.701 16.7911 687.052 17.6682 687.082 21.6339C687.149 30.372 689.323 31.7484 690.424 23.749C691.183 18.2263 691.698 17.1846 692.922 18.6909C693.771 19.7341 695.539 20.9618 696.852 21.4193C698.709 22.0656 699.419 21.3554 700.045 18.2298C700.781 14.5465 700.999 14.4078 702.638 16.579C704.282 18.7569 704.565 18.5952 706.116 14.587C708.1 9.46013 709.371 9.0831 710.641 13.2447C711.148 14.9057 712.745 18.9003 714.19 22.1214L716.817 27.9781L718.954 24.806C720.129 23.0613 721.345 21.3319 721.656 20.9628C721.967 20.5935 723.526 21.9211 725.121 23.9127L728.021 27.5336L733.004 20.7915C737.882 14.1908 738.005 14.1219 738.854 17.5061C739.331 19.4073 740.241 20.9628 740.875 20.9628C741.51 20.9628 742.894 22.6126 743.95 24.629L745.871 28.2953L747.42 22.5448C749.234 15.8077 753.465 10.9993 756.541 12.1796C757.717 12.6304 759.171 12.2266 759.772 11.2768C760.453 10.2045 760.873 11.3916 760.886 14.4192C760.916 21.3881 762.378 27.7528 763.755 26.902C764.403 26.5011 764.934 26.8135 764.934 27.595C764.934 31.2677 767.446 28.3864 768.96 22.9762C770.287 18.2378 771.268 16.9359 773.51 16.9359C776.626 16.9359 779.946 21.0428 781.106 26.3319C781.7 29.0413 782.45 27.7553 785.002 19.6555C786.74 14.1377 788.964 8.82143 789.944 7.84149C791.424 6.36064 791.872 6.97825 792.595 11.4979C793.427 16.7018 796.27 18.8872 797.487 15.2581C797.796 14.3353 798.506 16.9024 799.064 20.9628L800.079 28.3453L802.77 19.6912L805.462 11.037L807.986 14.322L810.511 17.6071L810.54 14.587C810.587 9.85006 812.674 11.0458 814.397 16.797C815.903 21.8247 820.078 25.3245 821.059 22.3819C821.775 20.234 823.993 20.6833 823.993 22.9762C823.993 24.6499 824.43 24.5933 826.581 22.6409C832.903 16.9038 833.167 16.8073 834.142 19.8773C835.056 22.7596 835.066 22.7583 836.8 19.5174C838.636 16.0865 839.871 15.7353 841.4 18.2094C842.955 20.725 846.39 18.374 847.788 13.8384L849.109 9.55367L850.826 16.0166C852.041 20.5881 852.962 22.0613 853.973 21.0502C856.414 18.6092 860.234 19.375 860.234 22.3053C860.234 26.533 862.494 25.4372 863.43 20.7555C863.896 18.4265 864.952 15.7084 865.776 14.7152C867.78 12.3001 871.84 12.4201 872.8 14.9227C873.225 16.0301 874.498 16.9361 875.628 16.9361C876.853 16.9361 877.701 18.1576 877.727 19.9562C877.768 22.7529 877.901 22.8026 879.553 20.6274C880.533 19.3355 882.41 18.2784 883.724 18.2784C885.038 18.2784 886.934 17.2213 887.938 15.9294C889.669 13.7036 889.869 13.7155 891.756 16.1569C893.638 18.5902 893.889 18.6062 896.275 16.4464C898.705 14.2475 898.838 14.3797 899.718 19.8839C900.221 23.0324 901.057 24.9721 901.574 24.1945C903.2 21.7531 907.594 20.7493 908.715 22.5633C909.452 23.7543 910.122 23.2782 910.982 20.9529L912.203 17.6515L913.191 20.7644L914.179 23.8773L917.287 20.9573L920.395 18.0373L923.536 21.1781L926.677 24.3189L927.101 20.6276C927.502 17.143 930.032 15.2393 930.032 18.4222C930.032 19.2395 930.929 19.564 932.025 19.1434C933.197 18.6938 934.599 19.4646 935.428 21.0132C937.994 25.808 942.937 23.7619 947.203 16.1394C948.721 13.4279 948.311 12.8291 952.864 24.4103L954.219 27.8574L958.158 24.7458C960.325 23.0345 962.132 20.8053 962.172 19.7921C962.231 18.332 962.653 18.2864 964.201 19.5717C965.276 20.4639 966.723 20.8434 967.416 20.4149C968.109 19.9864 969.023 20.5385 969.446 21.6416C970.862 25.3315 974.003 23.784 974.91 18.9494C976.078 12.719 980.41 12.4483 982.933 18.4482C984.159 21.3644 985.019 22.1238 985.752 20.9372C986.49 19.7434 987.52 20.6007 989.174 23.7876L991.541 28.3455L992.486 24.6114C993.363 21.1495 993.564 21.0516 995.246 23.2691C996.7 25.1853 997.07 25.2606 997.108 23.6478C997.132 22.5404 998.414 19.5699 999.953 17.0467C1001.97 13.7364 1003.05 12.945 1003.83 14.204C1004.61 15.4698 1005.18 15.0718 1005.92 12.7546C1006.83 9.89443 1007.13 10.2316 1008.8 15.9789C1009.83 19.5089 1011.19 22.0779 1011.82 21.6879C1012.46 21.2975 1013.33 21.9194 1013.77 23.0694C1014.22 24.2193 1015.18 24.7842 1015.93 24.3247C1016.67 23.8652 1017.28 24.3598 1017.28 25.4254C1017.28 26.4902 1018.46 27.6696 1019.9 28.0463C1022.12 28.6284 1022.74 27.694 1024 21.827C1024.86 17.8169 1027.1 13.021 1029.34 10.3856L1033.2 5.84818L1036.11 15.4191C1037.71 20.6831 1039.49 24.9899 1040.08 24.9899C1042.66 24.9899 1048.82 20.8111 1050.37 18.0029C1051.31 16.309 1052.11 15.7211 1052.13 16.6968C1052.16 17.7628 1053.42 18.3087 1055.28 18.0647C1057.35 17.7928 1059.79 19.1064 1062.66 22.0418C1065.36 24.8037 1066.94 25.6907 1066.94 24.4399C1066.94 23.3483 1068.41 20.7604 1070.2 18.689C1073.3 15.111 1073.51 15.057 1074.43 17.6074C1074.96 19.0839 1076.27 22.4061 1077.34 24.9899L1079.29 29.688L1080.94 23.3871C1082.74 16.5396 1085.35 12.5119 1087.23 13.6746C1087.88 14.0791 1088.42 13.735 1088.42 12.9095C1088.42 12.0841 1089.02 11.7821 1089.76 12.2384C1090.5 12.6945 1091.11 14.3913 1091.12 16.0088C1091.15 20.3079 1094.11 25.3708 1096.81 25.7582C1098.1 25.9434 1099.16 25.3092 1099.16 24.3488C1099.16 23.3886 1100.32 21.1769 1101.73 19.434L1104.3 16.2652L1107.65 19.4115L1111.01 22.5577L1112.51 19.7471C1113.34 18.2011 1115.14 16.9363 1116.51 16.9363C1118.1 16.9363 1119.35 15.6042 1119.95 13.245L1120.91 9.55376L1122.95 12.5739C1124.07 14.235 1125.82 15.5941 1126.84 15.5941C1127.92 15.5941 1128.69 16.9938 1128.69 18.9497C1128.69 22.629 1130.64 23.4709 1131.85 20.3147C1132.3 19.1404 1133.5 18.6622 1134.76 19.1488C1136.1 19.6635 1137.67 18.8968 1138.92 17.1128C1141.59 13.2941 1143.45 13.497 1143.45 17.6075C1143.45 21.5043 1144.51 21.8664 1146.79 18.7503C1148.2 16.8241 1148.52 17.1128 1149.3 20.9781C1150.33 26.1393 1151.62 25.3992 1153.55 18.548L1154.92 13.668L1157.87 18.6579C1161.33 24.5178 1164.93 25.3016 1164.93 20.1937C1164.93 14.8159 1168.92 16.635 1172.5 23.6478C1174.2 26.9699 1175.61 31.3681 1175.63 33.4215C1175.65 35.4749 1176.47 37.4644 1177.46 37.8428C1178.72 38.3275 1179.02 39.9988 1178.45 43.5053C1177.83 47.3282 1176.95 48.5793 1174.64 48.909C1172.84 49.1669 1171.64 48.6317 1171.63 47.5666C1171.63 46.5925 1171 43.5263 1170.23 40.7528C1169.02 36.3961 1168.4 35.8159 1165.73 36.4875C1163.78 36.9758 1161.81 36.4464 1160.42 35.0584C1159.21 33.8448 1158.21 33.3482 1158.2 33.9546C1158.19 34.561 1157.57 34.151 1156.83 33.0438C1155.66 31.2877 1155.31 31.3307 1154.1 33.3791C1152.55 36.004 1145.5 36.6092 1144.04 34.2425C1143.39 33.1985 1142.8 33.2774 1142.04 34.508C1141.27 35.7449 1140.69 35.1958 1140.04 32.638C1138.82 27.7608 1135.83 28.0508 1134.7 33.155C1133.81 37.2084 1133.75 37.236 1131.84 34.4973C1130.76 32.9595 1129.16 31.6908 1128.28 31.678C1127.4 31.6604 1125.23 30.1332 1123.47 28.2733C1119.17 23.7452 1117.45 24.6694 1116.39 32.081C1115.27 39.9102 1114.51 41.0973 1110.6 41.0973C1108.16 41.0973 1107.22 40.1582 1106.54 37.0704C1105.5 32.3229 1103.55 31.7783 1102.94 36.0637C1102.36 40.1699 1095.75 41.1196 1094.52 37.2724C1093.57 34.2641 1089.78 32.2863 1089.72 34.7635C1089.7 35.6632 1089.02 35.27 1088.22 33.8892C1087.05 31.8626 1086.54 31.7332 1085.6 33.218C1084.96 34.2294 1084.43 36.6824 1084.41 38.6691C1084.4 40.6557 1083.79 42.6544 1083.05 43.1106C1082.31 43.5667 1081.71 45.379 1081.71 47.1375C1081.71 53.6251 1079.39 51.4512 1076.27 42.044L1073.06 32.3724L1071.89 38.4127C1070.01 48.0718 1069.53 48.9195 1068.08 45.1564C1067.11 42.631 1066.53 42.2719 1065.68 43.6611C1064.86 44.9764 1063.69 43.6494 1061.49 38.9308C1058.8 33.1852 1058.36 32.7737 1057.86 35.6102C1057.44 38.0847 1057.03 38.4027 1056.14 36.9589C1055.18 35.4086 1054.61 35.55 1052.95 37.748C1051.01 40.3136 1050.92 40.2429 1050.88 36.0637C1050.86 33.6644 1050.28 31.7013 1049.6 31.7013C1048.27 31.7013 1045.88 38.2752 1045.21 43.7681C1044.96 45.7706 1043.78 47.303 1042.27 47.5914C1039.3 48.1583 1037.46 45.7336 1037.43 41.2091C1037.42 39.425 1037 38.3807 1036.49 38.8886C1035.98 39.3962 1034.39 36.0239 1032.95 31.3942L1030.34 22.9764L1028.03 34.0785C1025.92 44.2572 1023.99 49.5194 1023.99 45.1241C1023.99 44.1398 1023.59 43.7318 1023.11 44.2176C1022.62 44.7035 1021.57 44.5611 1020.76 43.901C1019.95 43.2412 1017.78 42.4915 1015.94 42.2348C1013.53 41.9007 1011.77 40.1228 1009.71 35.9586C1007.76 32.028 1006.49 30.6967 1005.78 31.8426C1005.01 33.0885 1004.47 32.85 1003.72 30.9409C1002.83 28.6777 1002.69 28.6462 1002.61 30.6941C1002.56 31.986 1001.96 33.0432 1001.28 33.0432C1000.6 33.0432 999.308 35.3082 998.416 38.0767C996.107 45.2401 995.597 45.8076 993.744 43.2741C992.312 41.3153 991.991 41.2856 991.315 43.0484C990.382 45.4799 986.408 44.3267 986.408 41.6245C986.408 40.525 985.025 39.7548 983.052 39.7548C980.791 39.7548 979.662 38.9882 979.59 37.4058C979.45 34.2987 977.524 40.0296 976.335 47.0924L975.439 52.4167L972.211 45.7502C970.435 42.0836 968.977 37.9869 968.97 36.6464C968.965 35.3059 968.24 32.8898 967.363 31.2773L965.767 28.3454L964.955 31.694C964.497 33.5821 962.997 35.2416 961.517 35.4985C960.073 35.7494 958.11 36.9605 957.155 38.1902C956.201 39.4198 954.993 40.2393 954.471 40.0112C953.949 39.7832 953.173 40.9911 952.746 42.6957C952.073 45.3866 951.565 44.8664 948.89 38.7481C947.195 34.8722 945.344 31.7011 944.776 31.7011C943.467 31.7011 942.113 35.1701 942.113 38.5223C942.113 39.9384 941.207 41.0971 940.099 41.0971C938.992 41.0971 938.086 41.7367 938.086 42.5186C938.086 45.8827 935.606 41.9875 934.205 36.4219C932.492 29.6208 931.332 29.1419 926.249 33.1398C924.176 34.7708 922.516 35.3258 922.234 34.482C921.351 31.8325 917.083 33.007 915.267 36.3991C914.279 38.2447 912.969 39.7548 912.356 39.7548C911.742 39.7548 911.202 40.8119 911.155 42.1038C911.092 43.8614 910.757 43.6714 909.825 41.3491C909.141 39.6421 907.775 37.4399 906.79 36.4553C904.607 34.2716 902.732 36.6863 901.202 43.6526L900.218 48.1335L897.675 42.4552C896.277 39.3322 895.133 35.6349 895.133 34.239C895.133 32.8431 894.529 31.7011 893.791 31.7011C893.053 31.7011 892.449 32.4619 892.449 33.3916C892.449 34.3214 891.241 35.8367 889.764 36.7588C887.508 38.1675 887.08 38.0993 887.08 36.3308C887.08 35.1736 886.475 34.6002 885.737 35.0564C884.999 35.5125 884.33 34.7931 884.251 33.4577C884.172 32.1222 883.533 33.5967 882.83 36.7342C881.754 41.5388 881.035 42.4389 878.276 42.4389C875.655 42.4389 874.999 41.7509 874.999 39.0039C874.999 37.1148 874.463 35.9005 873.807 36.3057C873.152 36.7114 872.209 34.3304 871.712 31.0158C871.214 27.7012 870.271 24.9892 869.614 24.9892C868.51 24.9892 866.018 40.3647 866.713 42.89C866.883 43.5073 865.797 44.3328 864.299 44.7245C862.802 45.1161 861.576 46.2722 861.576 47.2935C861.576 48.3147 860.972 49.1503 860.234 49.1503C859.496 49.1503 858.889 47.4892 858.884 45.459C858.861 32.6934 850.588 24.8941 849.281 36.403C848.915 39.6314 848.111 40.5079 845.21 40.8429C842.016 41.2116 841.49 40.7033 840.698 36.4804C839.681 31.061 838.039 30.3079 836.666 34.632C835.755 37.5039 835.697 37.4894 833.827 33.9211C831.403 29.2935 829.839 30.2733 828.678 37.1479C828.173 40.1362 826.308 44.1474 824.534 46.0617C821.366 49.4803 821.308 49.4896 821.308 46.5823C821.308 44.9509 820.706 43.9948 819.966 44.4521C819.228 44.9082 818.624 44.3402 818.624 43.189C818.624 42.038 817.802 41.0964 816.798 41.0964C815.748 41.0964 813.811 37.5545 812.239 32.7593L809.505 24.4222L808.079 29.7392C807.294 32.6634 806.298 37.3212 805.866 40.0896C805.162 44.5931 804.662 45.1232 801.113 45.1232C798.421 45.1232 797.147 44.4531 797.147 43.0361C797.147 41.8882 796.018 38.415 794.637 35.318C793.256 32.2209 791.857 28.812 791.528 27.7427C790.941 25.8365 786.684 36.3546 785.798 41.8975C785.551 43.4456 784.328 46.6855 783.081 49.0974L780.813 53.4827L778.868 49.7337C776.528 45.2228 775.929 42.3344 775.686 34.3849C775.42 25.6955 773.588 31.0884 772.38 44.1165C771.468 53.9535 771.239 54.5191 768.174 54.5191C765.234 54.5191 764.933 53.9652 764.933 48.5617C764.933 43.8682 764.11 41.7038 761.056 38.3597C758.821 35.9124 756.758 31.7567 756.184 28.5453L755.188 22.9755L753.767 27.6735C752.986 30.2574 751.831 32.725 751.2 33.157C750.57 33.589 749.583 35.7031 749.008 37.855C747.72 42.6711 742.018 43.4774 740.833 39.0111C740.43 37.4951 739.195 35.2875 738.088 34.1054C736.275 32.1709 735.937 32.7144 734.698 39.5464C733.582 45.7035 732.788 47.2138 730.492 47.545C728.343 47.8551 727.275 46.8869 726.05 43.5181L724.437 39.0829L723.14 42.4063C722.147 44.9486 721.575 45.2971 720.705 43.8891C719.934 42.6421 718.225 42.3171 715.405 42.8813C711.336 43.695 711.242 43.5991 711.242 38.6348C711.242 31.93 708.869 28.8796 704.866 30.4381C702.675 31.2912 701.846 32.7093 701.846 35.6047C701.846 40.4004 699.697 42.2139 698.497 38.4313C697.25 34.5026 695.138 35.1189 695.114 39.4184C695.091 44.3306 693.15 47.5399 692.008 44.5645C691.56 43.3953 690.267 42.4386 689.137 42.4386C688.006 42.4386 687.081 41.5326 687.081 40.4252C687.081 39.3179 686.183 38.4117 685.086 38.4117C683.988 38.4117 682.207 36.2977 681.127 33.7138C680.048 31.1299 678.301 29.0158 677.245 29.0158C676.19 29.0158 674.508 27.0528 673.509 24.6534L671.691 20.291L670.82 24.3178C670.341 26.5325 669.835 31.6668 669.696 35.7272C669.557 39.7876 668.987 44.2736 668.43 45.6962C667.481 48.118 667.358 48.1304 666.499 45.8926C665.968 44.5075 664.761 43.8176 663.629 44.2518C661.802 44.9532 658.953 42.1846 655.453 36.3053C654.196 34.1945 653.487 34.7385 649.522 40.8579C646.219 45.9548 644.184 47.8079 641.889 47.8079C639.139 47.8079 638.759 47.1644 638.759 42.5048C638.759 39.588 638.05 34.0009 637.183 30.0887L635.606 22.9756L633.43 30.0166C632.234 33.8892 630.527 37.7852 629.638 38.6744C628.749 39.5636 628.021 41.0763 628.021 42.0361C628.021 45.3819 625.99 43.6725 623.464 38.2017C620.979 32.8177 620.884 32.7612 619.295 35.7295C617.686 38.7361 617.654 38.7217 616.121 34.3243C614.641 30.0784 614.485 29.9962 612.615 32.4688C611.538 33.8919 610.606 36.2642 610.544 37.7407C610.436 40.2965 610.33 40.2805 608.324 37.4054C605.91 33.944 601.466 33.4085 600.304 36.4387C599.807 37.7343 598.584 38.1964 596.991 37.6909C595.142 37.104 594.129 37.777 593.206 40.2049C591.556 44.5439 589.291 45.8533 588.228 43.0826C587.569 41.3653 587.14 41.2598 586.305 42.6101C585.504 43.9068 584.218 43.2896 581.248 40.1813C578.966 37.7932 576.763 36.5165 576.088 37.191C575.441 37.8383 572.642 38.5288 569.868 38.7255C565.913 39.0063 564.659 39.7353 564.062 42.1033C563.553 44.1244 562.294 45.1234 560.255 45.1234C555.991 45.1234 554.516 42.8128 553.397 34.3772C552.209 25.4213 549.628 22.0832 546.789 25.8322C545.742 27.2142 544.867 30.0442 544.843 32.1212C544.803 35.5593 544.413 35.8598 540.481 35.4769C536.714 35.1099 536.009 34.4113 534.978 30.0227C532.866 21.0318 530.089 25.1949 530.054 37.4053C530.044 41.6507 529.467 43.7812 528.333 43.7812C527.397 43.7812 525.601 45.4422 524.342 47.4724C522.357 50.674 522.039 50.8076 521.949 48.4792C521.809 44.8613 520.42 33.7956 520.054 33.3869C519.893 33.2069 514.976 32.9051 509.127 32.7158C499.242 32.3963 498.462 32.1588 498.063 29.3516C497.269 23.7603 495.515 26.2714 494.781 34.0496C494.381 38.2945 493.123 43.5312 491.985 45.6865L489.917 49.6052L488.284 46.022C487.386 44.0512 486.145 42.4389 485.525 42.4389C484.905 42.4389 484.398 40.9644 484.398 39.1624C484.398 35.383 481.76 32.9991 481.623 36.6549C481.548 38.6484 481.267 38.5325 480.051 36.0076C479.236 34.3161 477.817 33.2209 476.897 33.5738C475.977 33.9267 474.795 33.1969 474.271 31.9515C473.532 30.1972 473.036 30.7038 472.069 34.2003C470.898 38.4331 470.703 38.558 468.927 36.2137C467.095 33.794 467.029 33.8 466.885 36.3989C466.777 38.3615 466.531 38.542 465.97 37.07C465.19 35.0202 462.977 33.1009 461.351 33.0638C460.855 33.0521 460.055 35.0062 459.573 37.4056C458.019 45.1246 457.408 46.466 455.449 46.466C454.207 46.466 453.526 47.8924 453.526 50.4928C453.526 53.8579 452.992 54.5196 450.277 54.5196C447.265 54.5196 446.959 53.8755 446.083 45.6935C445.445 39.7357 444.696 37.3093 443.779 38.2268C441.909 40.0962 436.731 32.2548 435.499 25.6896C434.653 21.1789 431.286 15.758 430.172 17.1116C428.92 18.6312 426.68 27.2794 426.68 30.5921C426.68 33.4626 425.83 34.7753 423.362 35.7136C421.429 36.4487 419.665 38.4837 419.137 40.5901C418.298 43.9337 418.098 44.0254 416.479 41.8115C415.517 40.495 413.853 39.7539 412.783 40.1647C411.397 40.6964 410.588 39.5861 409.973 36.3062C409.311 32.7757 408.443 31.7009 406.256 31.7009C404.686 31.7009 402.371 30.7673 401.11 29.6263C398.98 27.6987 398.753 28.1029 397.904 35.3311C397.402 39.6097 396.684 44.1674 396.309 45.4594C395.476 48.3312 389.097 48.7127 389.097 45.8908C389.097 44.8361 388.271 43.1477 387.262 42.1388C386.253 41.1298 385.093 38.2175 384.685 35.667C384.276 33.1165 383.377 28.9158 382.688 26.3318C381.496 21.8622 381.397 21.7969 380.639 24.9895C380.2 26.8351 379.465 31.8184 379.004 36.0633C378.214 43.3399 377.959 43.7815 374.553 43.7815C371.301 43.7815 370.774 43.078 369.277 36.7345C368.362 32.8587 366.709 29.0169 365.603 28.1972C364.498 27.3776 363.594 26.0832 363.594 25.3208C363.594 23.9667 360.575 22.305 358.115 22.305C357.437 22.305 356.882 23.3117 356.882 24.5422C356.882 25.7726 356.508 26.4053 356.051 25.9483C354.377 24.274 351.567 28.9057 350.809 34.5881C348.864 49.1777 349.004 48.8118 345.623 48.1657C342.849 47.6351 342.383 46.6223 341.761 39.7717C341.266 34.3127 340.21 31.1355 338.231 29.1564C336.677 27.6028 335.406 25.7066 335.406 24.9424C335.406 23.9949 334.562 24.0046 332.752 24.9716C330.608 26.1192 329.773 25.8705 328.402 23.6765C327.47 22.183 325.68 20.9611 324.424 20.9611C323.169 20.9611 321.768 20.3571 321.312 19.6189C320.134 17.7125 313.171 17.9529 311.596 19.9541C310.87 20.8769 309.942 23.8096 309.534 26.4713C308.669 32.116 303.389 38.4106 299.519 38.4106C297.298 38.4106 296.669 37.2251 295.929 31.6524C295.436 27.9353 294.494 25.227 293.836 25.634C293.178 26.0408 292.241 25.73 291.755 24.9444C291.141 23.9504 290.295 23.9939 288.978 25.0869C287.439 26.3644 287.08 26.0625 287.064 23.4742C287.054 21.7227 286.516 19.4573 285.871 18.4399C284.644 16.5013 281.715 17.455 281.715 19.7937C281.715 20.5411 280.809 22.0586 279.702 23.166C277.912 24.9557 277.688 24.8954 277.688 22.6226C277.688 18.4047 276.017 18.041 273.596 21.7319C270.845 25.9249 269.467 25.7915 267.395 21.1319L265.826 17.605L265.717 21.3755C265.657 23.4493 265.072 24.8151 264.418 24.4108C263.764 24.0063 262.914 24.8762 262.53 26.345C261.422 30.5818 259.457 29.4674 257.701 23.6066C256.083 18.2054 253.527 17.4557 253.527 22.3822C253.527 26.5641 248.751 25.5017 245.628 20.6251C243.629 17.5031 242.828 16.9531 242.812 18.6909C242.802 20.0264 242.262 20.7932 241.617 20.3949C240.973 19.9969 240.031 23.3329 239.525 27.8088C238.773 34.4549 237.06 40.7517 235.24 43.5622C234.559 44.6147 226.682 37.749 226.682 36.1024C226.682 33.4941 222.595 32.3173 221.198 34.5235C220.545 35.5539 219.999 37.9071 219.984 39.7527L219.959 43.1084L216.694 39.0815C214.899 36.8667 212.394 32.7896 211.128 30.0211C208.422 24.1022 207.057 23.7472 204.933 28.409C203.64 31.2479 203.176 31.4764 202.211 29.7513C201.571 28.6077 200.171 27.6721 199.101 27.6721C198.03 27.6721 197.154 27.0325 197.154 26.2507C197.154 25.4688 196.55 25.2024 195.812 25.6587C195.04 26.1353 194.461 24.8856 194.449 22.7177C194.434 19.9338 194.109 19.4515 193.209 20.8744C192.242 22.4017 191.583 22.4642 190.031 21.1758C187.393 18.9872 186.866 20.5937 185.651 34.5316C185.112 40.705 183.779 47.8784 182.689 50.4724L180.706 55.1889L179.346 51.8332C178.598 49.9875 177.522 45.7594 176.955 42.4372C176.388 39.1151 175.152 32.1803 174.209 27.0266L172.494 17.6563L170.094 22.9998C168.774 25.9387 167.659 27.4372 167.616 26.3299C167.555 24.7492 167.132 24.8531 165.648 26.8129C163.874 29.1541 163.626 28.9978 161.663 24.3C160.512 21.5447 159.57 18.7602 159.57 18.1121C159.57 17.464 158.74 16.9337 157.725 16.9337C155.884 16.9337 154.201 22.4638 154.201 28.5109C154.201 31.0974 153.502 31.6989 150.493 31.6989C147.934 31.6989 146.373 30.7623 145.459 28.6787C144.73 27.0177 143.228 25.6586 142.121 25.6586C141.013 25.6586 139.311 24.5914 138.338 23.2871C136.246 20.4846 134.067 21.3927 134.067 25.0667C134.067 26.4996 133.23 27.672 132.206 27.672C131.028 27.672 130.011 29.8991 129.436 33.7382C128.935 37.0746 127.961 39.4551 127.27 39.0281C126.513 38.5603 126.014 45.4923 126.014 56.4518V74.6519H122.801C121.016 74.6519 119.147 73.6083 118.594 72.3028L118.594 72.3069Z" fill="black"/>
</svg>
