<svg width="1336" height="168" viewBox="0 0 1336 168" fill="none" xmlns="http://www.w3.org/2000/svg">
<path d="M389.418 134.173V100.543L385.989 101.03C383.534 101.379 382.423 102.707 382.078 105.708C381.743 108.617 380.722 109.898 378.739 109.898C377.167 109.898 375.458 109.212 374.94 108.374C374.422 107.536 372.324 106.85 370.278 106.85C367.161 106.85 366.558 106.11 366.558 102.279C366.558 99.2315 365.796 97.7077 364.272 97.7077C363.014 97.7077 361.986 96.3585 361.986 94.7079C361.986 92.6675 361.255 91.9886 359.7 92.5852C358.443 93.0679 357.414 94.7604 357.414 96.3469C357.414 99.5681 354.303 100.029 347.354 97.8382C338.086 94.9158 333.03 94.6142 333.03 96.9839C333.03 98.22 331.658 99.2315 329.982 99.2315C327.918 99.2315 326.934 100.247 326.934 102.376C326.934 105.005 326.123 105.442 321.981 105.042C317.231 104.584 317.008 104.267 316.563 97.3267C316.237 92.245 315.442 90.0887 313.896 90.0887C312.685 90.0887 311.693 91.4601 311.693 93.1363C311.693 95.3712 310.677 96.1839 307.883 96.1839C305.089 96.1839 304.073 95.3712 304.073 93.1363C304.073 91.4601 303.437 90.0887 302.659 90.0887C301.156 90.0887 298.197 102.524 297.583 111.422C297.291 115.655 296.508 116.856 293.786 117.242C290.869 117.656 290.357 117.031 290.357 113.052C290.357 108.791 289.916 108.374 285.404 108.37C280.813 108.366 280.443 107.989 280.344 103.201C280.285 100.361 279.084 96.8853 277.677 95.4778C276.269 94.0702 275.117 92.0189 275.117 90.9194C275.117 88.9191 267.772 86.6913 265.601 88.0331C264.967 88.4247 264.449 91.1042 264.449 93.9881C264.449 96.872 263.763 99.2315 262.925 99.2315C262.087 99.2315 261.401 101.631 261.401 104.565C261.401 109.153 260.899 109.898 257.804 109.898C254.557 109.898 254.122 109.068 253.326 101.357C252.4 92.3872 251.275 89.8144 249.507 92.6232C248.924 93.5496 247.075 94.5641 245.399 94.8778C243.393 95.2533 242.186 96.8756 241.869 99.6255C241.494 102.869 240.579 103.803 237.774 103.803C234.853 103.803 234.071 102.899 233.684 99.0784L233.207 94.354L228.896 97.7598C225.047 100.8 223.965 100.98 218.813 99.4367C215.638 98.4857 211.235 97.7077 209.027 97.7077C206.819 97.7077 205.013 97.022 205.013 96.1839C205.013 95.3458 204.327 94.6601 203.489 94.6601C202.65 94.6601 201.965 98.4315 201.965 103.041C201.965 110.921 201.741 111.422 198.227 111.422C194.717 111.422 194.457 110.844 193.949 101.898L193.408 92.3744L193.114 102.66C192.835 112.452 192.643 112.946 189.122 112.946C186.882 112.946 185.149 111.895 184.727 110.279C184.344 108.812 183.951 112.631 183.853 118.766C183.684 129.418 183.522 129.898 180.247 129.433C176.964 128.966 176.783 128.17 175.982 110.66C175.522 100.603 175.008 95.2886 174.839 98.8506C174.55 104.962 174.275 105.327 169.96 105.327C167.446 105.327 165.388 106.012 165.388 106.85C165.388 107.689 164.017 108.374 162.34 108.374C160.057 108.374 159.265 107.323 159.185 104.184C158.98 96.1593 157.867 95.422 145.957 95.422C139.88 95.422 134.908 95.9363 134.908 96.5648C134.908 97.1934 133.879 97.7077 132.622 97.7077C131.117 97.7077 130.336 99.2134 130.336 102.116C130.336 104.629 129.353 106.902 128.05 107.402C126.399 108.035 125.764 110.621 125.764 116.707C125.764 124.682 125.559 125.136 121.954 125.136C118.348 125.136 118.136 124.667 118.003 116.374C117.925 111.555 117.971 104.79 118.105 101.341C118.303 96.2534 117.778 94.9199 115.327 94.279C110.573 93.036 109 96.0483 109 106.393C109 115.617 108.851 115.993 105.19 115.993C101.68 115.993 101.38 115.443 101.38 109.009C101.38 104.097 100.815 102.215 99.4749 102.664C97.5502 103.31 97.3017 104.221 96.9837 111.803C96.8408 115.21 96.0956 115.993 92.9979 115.993C89.3246 115.993 89.1878 115.638 89.1878 106.089C89.1878 98.3003 88.6994 96.1839 86.9018 96.1839C85.2508 96.1839 84.6158 97.877 84.6158 102.279C84.6158 107.765 84.2348 108.374 80.8058 108.374C77.968 108.374 76.9957 107.569 76.9957 105.218C76.9957 100.542 73.8205 98.2618 68.6137 99.1972L64.0417 100.019L63.5898 122.101C63.3404 134.296 62.4873 144.411 61.6848 144.692C60.8856 144.971 60.2316 149.599 60.2316 154.977C60.2316 164.391 60.0897 164.755 56.4216 164.755H52.6115V134.279C52.6115 108.205 52.2813 103.803 50.3255 103.803C48.8735 103.803 48.0395 105.264 48.0395 107.807C48.0395 111.625 47.7563 111.766 41.9435 110.837L35.8474 109.862V136.547V163.231H32.0374H28.2273V130.727V98.2227L24.5989 96.2811C22.6033 95.2132 19.5172 94.8006 17.7408 95.3644C14.8916 96.2685 14.5112 97.5438 14.5112 106.191C14.5112 113.888 14.0205 115.993 12.2252 115.993C10.3964 115.993 9.93921 118.279 9.93921 127.422C9.93921 138.388 9.79463 138.85 6.37351 138.85H2.80781L1.80148 99.7462C0.214069 38.0633 0.40749 26.089 2.99121 26.089C4.19904 26.089 5.56417 26.6988 6.02486 27.444C6.48566 28.1893 8.74797 29.2722 11.0526 29.8505C13.3572 30.4289 15.7535 31.7049 16.3777 32.686C17.0098 33.6796 17.5229 32.2759 17.5359 29.5176C17.5532 26.1417 18.287 24.5652 19.8453 24.5652C21.1026 24.5652 22.1313 23.5367 22.1313 22.2795C22.1313 21.0224 22.8171 19.9938 23.6553 19.9938C24.4935 19.9938 25.1793 18.9653 25.1793 17.7081C25.1793 15.9896 27.019 15.4224 32.5922 15.4224H40.0051L40.9763 22.5068C41.934 29.4932 44.0885 33.708 46.7021 33.708C47.4377 33.708 47.9583 33.1937 47.859 32.5652C47.7598 31.9366 47.7598 28.1652 47.859 24.1843C48.0391 16.9624 48.0514 16.9462 53.3735 16.9462C58.6256 16.9462 58.7083 17.0458 58.7539 23.4224C58.7917 28.7267 59.0925 29.396 60.4156 27.1212C61.7257 24.8688 63.1571 24.5341 67.9893 25.3504C73.8487 26.3402 73.9477 26.2788 73.9477 21.6516C73.9477 17.6484 74.5163 16.9462 77.7577 16.9462C81.2573 16.9462 81.5677 17.5049 81.5677 23.8033C81.5677 28.3526 82.2232 30.6604 83.5151 30.6604C86.7679 30.6604 90.7118 24.8054 90.7118 19.9764C90.7118 16.1347 91.3077 15.4224 94.5218 15.4224C97.8601 15.4224 98.3319 16.0827 98.3319 20.7557C98.3319 23.689 99.0177 26.089 99.8559 26.089C100.694 26.089 101.38 23.689 101.38 20.7557C101.38 16.0827 101.852 15.4224 105.19 15.4224C108.86 15.4224 109 15.7841 109 25.2372C109 34.9144 111.459 40.0989 113.09 33.8613C113.697 31.543 115.139 30.6604 118.322 30.6604C121.32 30.6604 122.716 29.8917 122.716 28.2408C122.716 26.2761 123.824 26.0083 128.608 26.8165C133.883 27.7076 134.6 27.4423 135.446 24.2838C135.965 22.3434 136.4 18.5272 136.411 15.8034C136.429 11.5423 136.964 10.851 140.242 10.851C143.83 10.851 144.052 11.325 144.052 18.9779C144.052 23.4478 144.435 27.4875 144.902 27.955C146.43 29.4827 151.672 27.3103 151.672 25.1494C151.672 23.99 153.044 23.0414 154.72 23.0414C157.091 23.0414 157.768 22.0256 157.768 18.47C157.768 14.9145 158.446 13.8986 160.816 13.8986C163.187 13.8986 163.864 14.9145 163.864 18.47C163.864 21.9312 164.561 23.0414 166.735 23.0414C168.396 23.0414 169.968 24.4307 170.468 26.3396C171.196 29.1254 171.697 29.3331 173.693 27.6768C174.993 26.5983 176.056 24.4284 176.056 22.8548C176.056 18.9647 181.776 19.0937 185.218 23.0616C187.855 26.1015 187.918 26.0807 192.148 20.7759C194.496 17.8315 197.322 15.4225 198.429 15.4225C199.535 15.4225 200.441 14.051 200.441 12.3749C200.441 10.14 201.457 9.3273 204.251 9.3273C207.785 9.3273 208.061 9.85542 208.061 16.6415C208.061 23.9387 209.949 27.6129 213.699 27.6129C214.789 27.6129 215.681 26.5843 215.681 25.3272C215.681 24.0574 217.035 23.0415 218.729 23.0415C220.422 23.0415 221.777 24.0574 221.777 25.3272C221.777 26.7494 223.216 27.6129 225.587 27.6129C228.381 27.6129 229.397 26.8002 229.397 24.5653C229.397 22.3304 230.413 21.5177 233.207 21.5177C236.35 21.5177 237.017 22.2535 237.017 25.7191C237.017 29.7635 237.273 29.9001 243.875 29.3752C247.647 29.0751 250.733 28.2131 250.733 27.4594C250.733 26.7058 252.105 26.0891 253.781 26.0891C256.152 26.0891 256.829 25.0732 256.829 21.5177C256.829 17.5506 257.383 16.9441 261.02 16.9295C263.325 16.918 267.783 16.4878 270.926 15.9682L276.641 15.0237V21.3363V27.6489L282.737 26.6743C288.245 25.7937 288.833 26.0126 288.833 28.9419C288.833 31.1684 289.788 32.1843 291.881 32.1843C294.227 32.1843 294.929 31.1684 294.929 27.7759C294.929 23.2935 297.127 21.5177 302.674 21.5177C304.282 21.5177 305.597 22.2034 305.597 23.0415C305.597 23.8796 307.266 24.5653 309.306 24.5653C312.182 24.5653 313.158 25.5062 313.65 28.7557C314.241 32.656 314.301 32.6032 314.513 27.9938C314.704 23.8557 315.339 23.0415 318.374 23.0415C320.774 23.0415 322.408 24.2045 323.19 26.47C324.214 29.4368 324.455 29.1289 324.983 24.1843C325.456 19.7549 326.258 18.4701 328.55 18.4701C330.175 18.4701 331.506 17.7843 331.506 16.9463C331.506 16.1082 333.906 15.4225 336.84 15.4225C341.75 15.4225 342.174 15.7853 342.174 19.9939C342.174 22.8702 342.955 24.5653 344.282 24.5653C345.441 24.5653 346.749 25.9367 347.187 27.6129C347.726 29.6723 349.266 30.6605 351.937 30.6605C354.435 30.6605 355.89 31.502 355.89 32.9462C355.89 34.2033 356.606 35.2319 357.481 35.2319C358.356 35.2319 358.96 34.3747 358.824 33.3271C358.688 32.2795 358.658 26.7938 358.757 21.1367C358.931 11.2294 359.078 10.8511 362.748 10.8511C366.411 10.8511 366.567 11.2462 366.802 21.1367C366.936 26.7938 367.322 29.1938 367.66 26.47C368.165 22.4059 368.941 21.5177 371.988 21.5177C374.031 21.5177 375.702 20.832 375.702 19.9939C375.702 19.1558 376.731 18.4701 377.988 18.4701C379.245 18.4701 380.274 17.2823 380.274 15.8306C380.274 14.1184 381.612 15.1606 384.084 18.7974C386.179 21.8808 387.894 25.4901 387.894 26.818C387.894 28.1459 388.923 29.627 390.18 30.1094C391.437 30.5921 392.466 32.2631 392.466 33.8233C392.466 35.7335 393.221 36.3702 394.779 35.7726C396.051 35.2842 396.999 34.106 396.884 33.1538C396.163 27.1322 397.085 26.0891 403.134 26.0891C409.085 26.0891 409.23 25.9624 409.23 20.7558C409.23 16.0828 409.702 15.4225 413.04 15.4225C416.703 15.4225 416.86 15.821 417.106 25.7082C417.271 32.3074 417.58 33.8892 417.97 30.1215C418.541 24.596 418.841 24.2879 423.048 24.9052C427.093 25.4989 427.518 25.1517 427.518 21.2538C427.518 18.4407 428.311 16.9463 429.804 16.9463C431.062 16.9463 432.09 15.7982 432.09 14.395C432.09 9.13252 439.519 18.4924 440.011 24.3742C440.429 29.3793 440.938 29.9435 445.425 30.3761C448.15 30.6387 450.378 31.4959 450.378 32.2808C450.378 33.0658 451.448 33.7081 452.754 33.7081C454.061 33.7081 454.743 33.081 454.269 32.3144C453.795 31.5479 454.165 30.6683 455.091 30.3597C456.017 30.051 457.139 26.564 457.585 22.6106C458.241 16.7889 458.957 15.4225 461.354 15.4225C465.594 15.4225 468.365 18.7796 468.934 24.6069C469.427 29.6439 473.239 33.0934 473.239 28.5018C473.239 24.7076 480.322 25.3967 481.34 29.29C482.437 33.4815 484.802 31.8979 485.94 26.211C486.781 22.0035 487.155 21.788 491.471 23.0254C494.26 23.8252 496.099 23.7893 496.099 22.935C496.099 22.1553 497.813 21.5175 499.909 21.5175C502.907 21.5175 503.719 22.2913 503.719 25.1493C503.719 27.4996 504.794 29.0623 506.767 29.578C508.748 30.0958 509.815 29.6241 509.815 28.232C509.815 26.9619 511.367 26.0889 513.625 26.0889C516.515 26.0889 517.472 26.9167 517.587 29.5175C517.731 32.7777 517.791 32.7594 518.797 29.1443C519.378 27.0535 521.194 25.0848 522.832 24.7695C524.469 24.4539 527.321 22.5649 529.169 20.571C531.017 18.5772 533.896 16.9459 535.567 16.9459C538.094 16.9459 538.7 18.1612 539.175 24.1839C539.489 28.1649 539.869 24.3935 540.02 15.803C540.294 0.231884 540.307 0.184082 544.105 0.184082H547.915V15.4221C547.915 29.4898 548.142 30.6601 550.873 30.6601C552.5 30.6601 554.255 29.9744 554.773 29.1363C555.924 27.2741 561.631 27.0983 561.631 28.9249C561.631 29.6468 563.241 29.9297 565.209 29.5535C567.55 29.1061 569.492 27.0721 570.828 23.6697C571.95 20.8096 573.426 18.4696 574.108 18.4696C574.79 18.4696 575.347 16.7553 575.347 14.6601C575.347 11.6125 576.109 10.8506 579.157 10.8506C582.54 10.8506 582.97 11.4917 582.991 16.5649C583.002 19.7077 583.679 23.3077 584.491 24.5648C585.643 26.3459 585.974 25.9255 585.992 22.6601C586.009 19.4933 586.76 18.4696 589.063 18.4696C590.74 18.4696 592.111 19.1553 592.111 19.9934C592.111 20.8315 593.14 21.5172 594.398 21.5172C595.655 21.5172 596.684 22.203 596.684 23.041C596.684 23.8791 598.358 24.5648 600.404 24.5648C602.45 24.5648 604.478 25.1379 604.911 25.8384C605.344 26.5389 609.611 26.7876 614.393 26.3907C621.667 25.7876 623.437 26.1402 625.22 28.5457C627.193 31.2069 627.493 31.232 629.239 28.8814C630.276 27.4843 633.615 25.8741 636.658 25.3033C641.28 24.4363 642.52 24.7919 644.188 27.4626C646.284 30.8186 650.707 31.7298 652.31 29.1361C653.379 27.4065 663.086 27.2687 667.287 28.9235C671.258 30.4878 680.504 29.1412 680.504 26.9989C680.504 26.0068 682.733 24.5389 685.457 23.7371C689.28 22.6118 690.52 21.3228 690.892 18.0886C691.234 15.1282 692.24 13.8982 694.322 13.8982C696.798 13.8982 697.268 14.9926 697.268 20.7553C697.268 27.0536 697.579 27.6124 701.078 27.6124C703.872 27.6124 704.888 26.7997 704.888 24.5648C704.888 22.3298 705.904 21.5172 708.698 21.5172C711.976 21.5172 712.512 22.2091 712.532 26.4695C712.565 33.5554 714.296 35.6057 719.205 34.3739C722.16 33.6324 723.575 32.0976 724.204 28.9522C724.866 25.6431 725.944 24.5648 728.589 24.5648C730.648 24.5648 732.385 25.666 732.794 27.2314C733.178 28.6981 733.571 27.6697 733.668 24.9457C733.818 20.7262 734.408 19.9934 737.655 19.9934C740.691 19.9934 741.465 20.7582 741.465 23.7593C741.465 26.7247 742.517 27.8023 746.418 28.829C750.401 29.8774 751.461 29.6621 751.83 27.7297C752.901 22.1295 755.833 18.4696 759.248 18.4696C761.39 18.4696 762.801 19.3772 762.801 20.7553C762.801 22.1609 764.229 23.041 766.51 23.041C769.386 23.041 770.361 23.9819 770.853 27.2314L771.488 31.4219L771.716 27.2314C771.859 24.6239 772.808 23.041 774.231 23.041C775.488 23.041 776.517 22.0124 776.517 20.7553C776.517 19.3331 777.956 18.4696 780.327 18.4696C783.375 18.4696 784.137 19.2315 784.137 22.279C784.137 24.6494 785 26.0886 786.423 26.0886C788.074 26.0886 788.709 24.3955 788.709 19.9934C788.709 14.5077 789.09 13.8982 792.519 13.8982C795.745 13.8982 796.329 14.6061 796.329 18.5174C796.329 23.1878 800.861 26.9692 802.079 23.3151C802.409 22.3263 804.336 21.5172 806.362 21.5172C809.251 21.5172 810.045 22.3192 810.045 25.2368C810.045 27.2825 810.731 29.3801 811.569 29.8981C812.5 30.4734 813.093 28.1361 813.093 23.8928C813.093 17.9616 813.539 16.9457 816.141 16.9457C817.817 16.9457 819.189 16.2601 819.189 15.422C819.189 14.5839 820.904 13.8982 822.999 13.8982C826.438 13.8982 826.826 14.5294 826.986 20.3743C827.083 23.9362 827.476 25.6505 827.86 24.1838C828.735 20.8339 835.953 20.4942 835.953 23.8031C835.953 25.2253 837.392 26.0888 839.763 26.0888C841.859 26.0888 843.595 26.9459 843.622 27.9935C843.648 29.0976 844.578 28.6999 845.829 27.0474C847.572 24.7472 849.095 24.404 853.714 25.2704C856.863 25.8611 860.576 27.6551 861.966 29.2572C864.437 32.1058 864.556 32.0861 867.349 28.3676C868.92 26.2761 871.414 24.565 872.891 24.565C874.369 24.565 875.577 23.8793 875.577 23.0412C875.577 22.2031 877.292 21.5174 879.387 21.5174C882.39 21.5174 883.198 22.2902 883.198 25.1639C883.198 27.1695 884.226 29.2051 885.483 29.6875C887.06 30.2923 887.77 29.5895 887.77 27.4238C887.77 24.5692 888.534 24.3305 896.154 24.8049C900.765 25.0917 904.537 24.7347 904.536 24.0111C904.535 23.2874 906.591 22.9972 909.106 23.3662C913.585 24.0235 913.678 23.903 913.678 17.444C913.678 11.4271 914.011 10.8508 917.488 10.8508C921.039 10.8508 921.313 11.3945 921.526 18.8507C921.652 23.2507 922.04 24.965 922.389 22.6602C922.882 19.4107 923.857 18.4698 926.733 18.4698C929.673 18.4698 930.442 19.2594 930.442 22.2793C930.442 25.3269 931.204 26.0888 934.252 26.0888C936.623 26.0888 938.062 25.2253 938.062 23.8031C938.062 22.3809 939.501 21.5174 941.872 21.5174C943.967 21.5174 945.682 22.1231 945.682 22.8635C945.682 23.6038 947.054 24.5682 948.73 25.0065C950.406 25.4448 951.778 25.1344 951.778 24.3164C951.778 23.4985 953.321 23.0484 955.207 23.3162C957.411 23.6289 958.81 25.0283 959.123 27.2317C959.436 29.435 960.661 30.6602 962.552 30.6602C964.17 30.6602 965.494 31.3459 965.494 32.184C965.494 35.2892 968.244 33.5782 969.168 29.8983C969.866 27.1154 971.143 26.0888 973.905 26.0888C977.3 26.0888 977.686 25.4668 977.686 19.9936C977.686 14.5079 978.067 13.8984 981.496 13.8984C984.379 13.8984 985.349 14.7328 985.483 17.327C985.616 19.907 985.832 20.0955 986.357 18.0888C987.485 13.771 992.926 14.7176 992.926 19.2317C992.926 21.3269 993.612 23.0412 994.45 23.0412C995.289 23.0412 995.974 19.2698 995.974 14.6603C995.974 7.46804 996.382 6.27939 998.845 6.27939C1001.24 6.27939 1001.89 7.85639 1002.75 15.8032L1003.78 25.3269L1011.31 25.6949C1017.13 25.9794 1018.83 25.5475 1018.83 23.7902C1018.83 22.3821 1020.28 21.5177 1022.64 21.5177C1025.36 21.5177 1026.45 22.3422 1026.45 24.3877C1026.45 26.2389 1027.81 27.5161 1030.26 27.9858C1033.64 28.6314 1034.07 28.1966 1034.07 24.1546C1034.07 19.6994 1034.21 19.6212 1039.79 20.7334C1042.93 21.3594 1048.08 21.7754 1051.22 21.6579C1055.74 21.4885 1056.95 22.0092 1056.99 24.1475C1057.03 26.4453 1057.49 26.3111 1060.03 23.2529C1062.53 20.2559 1063.92 19.822 1068.37 20.6553C1071.3 21.2053 1073.7 22.3104 1073.7 23.1106C1073.7 23.9106 1074.73 24.5653 1075.98 24.5653C1077.74 24.5653 1078.27 22.6182 1078.27 16.1844C1078.27 8.26063 1078.48 7.80346 1082.08 7.80346C1085.73 7.80346 1085.89 8.19797 1085.89 17.124C1085.89 26.0945 1086.02 26.4039 1089.32 25.3624C1091.21 24.7673 1094.64 23.9238 1096.94 23.488C1099.25 23.052 1101.13 21.7449 1101.13 20.5828C1101.13 19.062 1103.28 18.4701 1108.79 18.4701C1116.08 18.4701 1116.49 18.6901 1117.36 23.0415C1117.86 25.5558 1119.16 27.6129 1120.24 27.6129C1121.33 27.6129 1122.44 28.2847 1122.72 29.1059C1123.01 29.9475 1125.68 30.2002 1128.84 29.6851C1133.95 28.8534 1134.54 28.2408 1135.45 22.8588C1136.29 17.9015 1137.05 16.9463 1140.13 16.9463C1143.36 16.9463 1143.8 17.6379 1143.81 22.6605L1143.81 28.3748H1152.57H1161.33L1161.8 22.6605C1162.21 17.7481 1162.8 16.9463 1165.99 16.9463C1169.04 16.9463 1169.71 17.7076 1169.71 21.1836C1169.71 24.5508 1170.71 25.7987 1174.59 27.2606C1178.19 28.6215 1179.74 28.6515 1180.53 27.3763C1181.11 26.4281 1183 26.0193 1184.71 26.468C1187.31 27.1467 1187.91 26.4795 1188.3 22.496C1188.64 18.9237 1189.6 17.5887 1192.07 17.2369C1194.55 16.8844 1195.51 17.655 1195.88 20.2845C1196.64 25.592 1202.33 25.0514 1202.96 19.6131C1203.65 13.6227 1208.76 13.8954 1210.1 19.9938C1210.65 22.508 1212.08 24.5652 1213.27 24.5652C1214.46 24.5652 1215.49 25.7652 1215.55 27.2318C1215.62 28.8249 1215.98 29.1316 1216.44 27.9937C1217.43 25.5459 1223.41 25.5292 1225.85 27.9649C1227.33 29.4537 1227.91 29.1375 1228.61 26.4411C1229.59 22.7224 1236.77 21.4534 1236.77 25.0003C1236.77 26.079 1238.14 27.065 1239.82 27.1913C1241.49 27.3174 1242.86 26.7778 1242.86 25.9917C1242.86 25.2057 1244.58 24.5626 1246.67 24.5626C1248.77 24.5626 1250.48 23.8769 1250.48 23.0388C1250.48 22.2008 1252.16 21.515 1254.2 21.515C1257.4 21.515 1257.99 20.7131 1258.39 15.8008C1258.77 11.2107 1259.54 9.99069 1262.3 9.59958C1265.35 9.16591 1265.72 9.76372 1265.72 15.0727C1265.72 20.7057 1266.06 21.1328 1271.82 22.8588C1275.17 23.8632 1277.92 25.3431 1277.92 26.1476C1277.92 26.952 1279.63 27.6103 1281.73 27.6103C1284.5 27.6103 1285.54 28.4261 1285.54 30.61C1285.54 32.6505 1286.27 33.3293 1287.82 32.7327C1289.08 32.2501 1290.12 30.7289 1290.13 29.352C1290.18 24.6186 1292.37 22.8436 1296.32 24.3418C1299.57 25.5708 1300.42 25.0792 1303.38 20.2782L1306.74 14.8163L1307.76 21.2133C1308.54 26.0846 1309.47 27.6103 1311.64 27.6103C1313.48 27.6103 1314.49 26.525 1314.49 24.5626C1314.49 20.3212 1321.44 20.3212 1322.55 24.5626C1323.09 26.622 1324.63 27.6103 1327.3 27.6103C1329.48 27.6103 1331.26 28.2959 1331.26 29.134C1331.26 29.9721 1332.29 30.6578 1333.54 30.6578C1335.49 30.6578 1335.83 34.881 1335.83 59.5236C1335.83 85.8274 1335.58 88.5662 1333.02 90.3806C1331.48 91.4758 1329.54 94.4289 1328.71 96.9432C1326.71 103.038 1321.96 103.681 1319.45 98.1984C1318.4 95.9167 1317.54 93.0741 1317.54 91.8814C1317.54 90.1266 1317.1 90.0748 1315.25 91.6101C1314 92.6534 1312.97 95.9088 1312.97 98.8443C1312.97 104.009 1312.81 104.151 1308.21 103.229C1305.59 102.705 1302.5 102.277 1301.35 102.277C1300.2 102.277 1299.25 101.248 1299.25 99.991C1299.25 98.5688 1297.81 97.7053 1295.44 97.7053C1292.97 97.7053 1291.63 98.5593 1291.63 100.134C1291.63 101.469 1290.26 102.921 1288.58 103.359C1286.91 103.797 1285.54 105.105 1285.54 106.264C1285.54 109.201 1278.46 108.941 1277.32 105.962C1276.81 104.636 1276.39 102.236 1276.39 100.628C1276.39 99.0207 1275.71 97.7053 1274.87 97.7053C1274.03 97.7053 1273.34 96.6767 1273.34 95.4196C1273.34 92.4724 1269.69 92.4724 1267.25 95.4196C1266.2 96.6767 1264.41 97.7053 1263.25 97.7053C1262.1 97.7053 1259.7 99.1577 1257.92 100.933C1255.32 103.537 1254.54 106.625 1253.9 116.933C1253.2 128.081 1252.74 129.705 1250.27 129.705C1247.88 129.705 1247.42 128.447 1247.32 121.705C1247.21 113.588 1244.93 97.7653 1244.58 102.658C1244.45 104.415 1243.12 105.324 1240.68 105.324C1237.77 105.324 1236.87 106.223 1236.49 109.515C1236.14 112.515 1235.03 113.844 1232.58 114.192C1229.51 114.628 1229.12 113.991 1228.89 108.097L1228.64 101.515L1228.04 107.229C1227.53 112.107 1226.9 112.943 1223.72 112.943C1220.49 112.943 1220 112.248 1220 107.61C1220 104.677 1219.32 102.277 1218.48 102.277C1217.64 102.277 1216.96 100.22 1216.96 97.7053C1216.96 94.6577 1216.19 93.1339 1214.67 93.1339C1213.4 93.1339 1212.38 94.4884 1212.38 96.1815C1212.38 98.4164 1211.37 99.2291 1208.57 99.2291C1205.48 99.2291 1204.73 98.4455 1204.59 95.0387C1204.47 92.1688 1204.18 91.7397 1203.68 93.6767C1203.1 95.9313 1202.02 96.3179 1198.33 95.5815C1195.79 95.0735 1193.11 94.6577 1192.38 94.6577C1191.65 94.6577 1191.05 93.6292 1191.05 92.372C1191.05 91.1149 1190.36 90.0863 1189.52 90.0863C1188.69 90.0863 1188 92.534 1188 95.5256C1188 100.295 1187.58 100.905 1184.57 100.478C1181.95 100.105 1180.96 98.7374 1180.37 94.6577C1179.87 91.2231 1179.16 90.0025 1178.37 91.2292C1177.7 92.2768 1175.8 93.1339 1174.15 93.1339C1172.49 93.1339 1170.75 94.1625 1170.26 95.4196C1169.78 96.6767 1168.16 97.7053 1166.67 97.7053C1163.86 97.7053 1161.21 104.19 1162.9 106.918C1163.39 107.718 1163.05 108.372 1162.13 108.372C1161.22 108.372 1160.08 107.343 1159.59 106.086C1159.11 104.829 1157.47 103.801 1155.94 103.801C1154.27 103.801 1152.9 102.433 1152.5 100.372C1152.09 98.2496 1151.76 99.1204 1151.63 102.658C1151.45 107.682 1150.96 108.372 1147.61 108.372C1144.18 108.372 1143.8 107.762 1143.8 102.277C1143.8 96.791 1143.42 96.1815 1139.99 96.1815C1137.2 96.1815 1136.18 96.9942 1136.18 99.2291C1136.18 101.825 1135.17 102.277 1129.33 102.277C1123.27 102.277 1122.45 101.874 1122.32 98.8482C1122.17 95.559 1122.11 95.5744 1120.94 99.2289C1120.27 101.324 1119.65 105.61 1119.57 108.753C1119.44 113.791 1118.97 114.467 1115.61 114.467C1111.94 114.467 1111.8 114.101 1111.8 104.711C1111.8 95.139 1111.71 94.9242 1107 93.2827C1100.49 91.0141 1098.08 91.1795 1098.08 93.8956C1098.08 95.3177 1096.64 96.1813 1094.27 96.1813C1091.06 96.1813 1090.46 96.8924 1090.46 100.753C1090.46 103.644 1089.68 105.324 1088.34 105.324C1085.88 105.324 1084.37 108.569 1084.37 113.83C1084.37 116.499 1083.53 117.514 1081.32 117.514C1079.18 117.514 1078.26 116.492 1078.25 114.086C1078.22 108.268 1076.49 103.8 1074.28 103.8C1072.82 103.8 1072.1 101.591 1071.93 96.5622C1071.74 90.9989 1071.54 90.47 1071.07 94.2765C1070.57 98.3407 1069.79 99.2289 1066.74 99.2289C1063.64 99.2289 1063.03 98.4832 1063.03 94.7053C1063.03 91.3103 1062.46 90.4006 1060.74 91.0588C1059.04 91.7119 1058.46 94.424 1058.46 101.678V111.419H1053.02C1046.82 111.419 1043.22 108.595 1043.22 103.746C1043.22 101.345 1042.55 100.683 1040.81 101.352C1039.48 101.86 1038.11 102.276 1037.76 102.276C1037.41 102.276 1037.12 107.689 1037.12 114.304C1037.12 123.866 1036.63 126.521 1034.71 127.256C1031 128.682 1029.5 128.368 1029.5 126.159C1029.5 124.78 1028.05 124.351 1024.93 124.808L1020.36 125.479V112.354C1020.36 102.444 1019.86 99.2289 1018.33 99.2289C1017.21 99.2289 1015.38 97.5146 1014.26 95.4193C1012.98 93.0285 1010.9 91.6099 1008.67 91.6099C1005.63 91.6099 1005.12 92.3733 1005.12 96.9432C1005.12 102.314 1003.44 103.339 996.244 102.365C995.13 102.214 994.356 103.326 994.515 104.851C994.672 106.368 994.723 113.953 994.626 121.705C994.467 134.457 994.175 135.8 991.565 135.8C987.375 135.8 986.83 133.067 986.83 112.057C986.83 95.856 986.485 93.1337 984.431 93.1337C982.499 93.1337 982.115 94.6911 982.457 101.134C982.86 108.727 982.691 109.134 979.141 109.134C975.656 109.134 975.369 108.534 974.943 100.372C974.608 93.9434 973.898 91.6099 972.276 91.6099C971.061 91.6099 970.066 90.5813 970.066 89.3242C970.066 88.067 969.412 87.0385 968.614 87.0385C966.688 87.0385 963.989 97.0194 963.979 104.181C963.973 109.258 963.545 109.896 960.16 109.896C956.558 109.896 956.35 109.438 956.35 101.515C956.35 96.9051 955.664 93.1337 954.826 93.1337C953.988 93.1337 953.302 93.8194 953.302 94.6574C953.302 95.4955 951.93 96.1813 950.254 96.1813C948.467 96.1813 947.206 97.1971 947.206 98.6366C947.206 100.617 946.175 100.898 941.872 100.091C936.725 99.1258 936.538 99.2532 936.538 103.731C936.538 107.665 935.958 108.372 932.728 108.372C929.215 108.372 928.918 107.824 928.918 101.352C928.918 95.2578 928.566 94.4782 926.251 95.4438C915.286 100.017 915.279 100.018 913.031 96.8085C911.36 94.4225 909.623 93.8631 905.414 94.3545C902.415 94.7046 899.962 95.6016 899.962 96.348C899.962 97.0944 898.59 97.7051 896.914 97.7051C895.22 97.7051 893.866 98.7209 893.866 99.9907C893.866 101.248 892.757 102.276 891.402 102.276C889.688 102.276 889.181 103.205 889.735 105.324C890.396 107.85 889.782 108.372 886.151 108.372C882.882 108.372 881.992 107.791 882.647 106.086C883.285 104.423 882.466 103.8 879.641 103.8C877.505 103.8 875.352 103.145 874.857 102.343C874.361 101.542 872.949 101.272 871.719 101.744C869.895 102.444 869.481 106.658 869.481 124.535V146.467H865.708H861.935L861.518 121.069C861.212 102.478 860.592 95.5013 859.204 95.04C858.162 94.6933 856.636 96.1797 855.813 98.3431C854.885 100.784 853.147 102.276 851.232 102.276C849.162 102.276 848.146 103.28 848.146 105.324C848.146 107.312 847.13 108.372 845.222 108.372C840.283 108.372 837.478 106.657 837.478 103.637C837.478 102.051 836.449 100.753 835.192 100.753C833.922 100.753 832.906 99.3982 832.906 97.7051C832.906 96.012 831.89 94.6574 830.62 94.6574C829.362 94.6574 828.181 93.8003 827.995 92.7527C827.809 91.7051 827.295 106.962 826.852 126.657C826.05 162.356 826.037 162.468 822.619 162.954L819.19 163.44L819.014 135.525C818.917 120.171 818.948 106.471 819.087 105.08C819.223 103.689 817.778 101.46 815.875 100.128C811.556 97.1024 810.046 97.0669 810.046 99.9907C810.046 101.636 808.363 102.276 804.042 102.276C798.204 102.276 798.025 102.435 797.565 107.991C797.185 112.581 796.417 113.801 793.663 114.192C790.494 114.642 790.234 114.093 790.234 106.954C790.234 99.3863 790.14 99.2288 785.662 99.2288C781.801 99.2288 781.09 99.8214 781.09 103.038C781.09 107.941 776.318 108.215 774.212 103.433C773.179 101.088 770.915 99.7302 766.993 99.1013C763.849 98.5973 761.277 98.7626 761.277 99.4687C761.277 100.175 759.563 100.753 757.467 100.753C755.24 100.753 753.657 99.8773 753.657 98.6447C753.657 96.2781 749.069 94.6963 742.227 94.7046C737.006 94.7104 730.426 100.608 730.867 104.886C731.022 106.384 731.069 113.953 730.973 121.705C730.816 134.345 730.506 135.8 727.975 135.8C725.535 135.8 725.02 134.096 724.174 123.229C723.636 116.314 723.191 107.743 723.186 104.181C723.181 98.724 722.697 97.7051 720.129 97.7051C718.453 97.7051 717.081 96.9789 717.081 96.0913C717.081 95.2038 716.395 94.9014 715.557 95.4193C714.719 95.9371 714.033 101.806 714.033 108.462C714.033 120.353 713.967 120.562 710.223 120.562C706.498 120.562 706.413 120.308 706.413 109.134C706.413 97.959 706.328 97.7051 702.603 97.7051C699.492 97.7051 698.771 96.9365 698.673 93.5146C698.602 91.0705 698.19 90.2767 697.682 91.6099C696.305 95.2266 693.835 96.1997 688.506 95.2246C684.003 94.4006 683.553 94.6625 683.553 98.1069C683.553 101.131 682.592 102.088 678.79 102.848C669.435 104.719 668.313 104.249 668.313 98.4669C668.313 93.794 667.841 93.1337 664.503 93.1337C662.132 93.1337 660.693 93.9971 660.693 95.4193C660.693 96.8416 659.253 97.7051 656.883 97.7051C654.089 97.7051 653.073 96.8924 653.073 94.6574C653.073 92.6257 652.057 91.6099 650.025 91.6099C647.654 91.6099 646.976 92.6257 646.976 96.1813C646.976 99.2288 646.214 100.753 644.691 100.753C643.167 100.753 642.404 102.276 642.404 105.324C642.404 109.184 641.812 109.895 638.594 109.895C635.256 109.895 634.784 109.235 634.784 104.562C634.784 101.629 634.099 99.2288 633.26 99.2288C632.422 99.2288 631.736 100.943 631.736 103.038C631.736 106.086 630.974 106.848 627.926 106.848C624.516 106.848 624.116 106.227 624.116 100.93C624.116 94.5799 622.155 93.1996 613.067 93.1544C609.885 93.1372 608.876 93.8674 608.876 96.1813C608.876 98.4162 607.86 99.2288 605.066 99.2288C602.311 99.2288 601.256 98.4102 601.256 96.2712C601.256 92.2896 598.401 90.7644 595.805 93.3596C593.789 95.3758 592.388 103.428 592.2 114.086C592.13 117.993 591.469 119.038 589.064 119.038C586.595 119.038 585.977 117.953 585.809 113.324C585.663 109.318 585.394 108.709 584.908 111.286C584.012 116.042 580.948 119.038 576.981 119.038C574.214 119.038 573.824 118.109 573.824 111.509C573.824 103.579 571.911 100.519 569.57 104.702C567.423 108.537 555.536 106.231 555.536 101.979C555.536 99.8 554.833 99.1725 553.125 99.8277C551.799 100.336 550.085 100.753 549.315 100.753C548.545 100.753 547.916 102.81 547.916 105.324C547.916 109.184 547.323 109.895 544.106 109.895C540.844 109.895 540.296 109.201 540.296 105.07C540.296 102.416 539.968 100.572 539.568 100.972C538.924 101.617 537.672 106.953 537.361 110.382C537.299 111.069 535.705 111.412 533.819 111.144C531.363 110.796 530.253 109.467 529.907 106.467C529.642 104.162 528.785 102.276 528.002 102.276C527.185 102.276 526.58 111.996 526.58 125.133V147.99H522.77H518.96V125.133C518.96 110.911 518.384 102.276 517.435 102.276C516.597 102.276 515.911 103.991 515.911 106.086C515.911 109.134 515.15 109.895 512.101 109.895C508.601 109.895 508.275 109.307 508.084 102.657C507.97 98.6765 507.579 96.9622 507.216 98.8479C506.398 103.093 499.739 103.687 498.674 99.6098C498.13 97.5284 497.938 97.6678 497.8 100.245C497.703 102.061 496.941 103.775 496.107 104.054C495.274 104.334 494.141 111.934 493.59 120.943C492.618 136.833 492.481 137.324 489.01 137.324C485.869 137.324 485.431 136.6 485.431 131.406C485.431 126.77 484.771 125.316 482.383 124.692C479.67 123.983 479.335 122.613 479.335 112.234C479.335 104.493 478.798 100.905 477.738 101.56C476.86 102.102 476.253 103.686 476.39 105.078C476.526 106.47 476.559 111.21 476.463 115.61C476.299 123.08 476.035 123.61 472.477 123.61C468.731 123.61 468.667 123.406 468.667 111.419C468.667 104.308 468.032 99.2288 467.143 99.2288C466.224 99.2288 465.619 105.578 465.619 115.229V131.229H461.809C458.207 131.229 457.999 130.771 457.999 122.848C457.999 118.238 457.313 114.467 456.475 114.467C455.637 114.467 454.872 110.867 454.774 106.467C454.677 102.067 454.284 99.6669 453.901 101.134C453.408 103.019 451.673 103.8 447.981 103.8C443.736 103.8 442.759 103.217 442.759 100.684C442.759 97.9115 442.127 97.6829 437.044 98.6163C433.901 99.1934 431.1 100.253 430.821 100.971C429.916 103.296 422.947 102.428 422.947 99.9907C422.947 97.7687 419.113 97.0025 411.183 97.6393C409.322 97.7884 406.236 96.4455 404.324 94.6545L400.849 91.3981L400.402 95.6944C400.157 98.0574 399.51 101.019 398.965 102.276C397.406 105.876 397.4 105.996 397.214 137.705L397.039 167.8H393.228H389.418L389.418 134.173Z" fill="black"/>
</svg>
