<svg width="1181" height="119" viewBox="0 0 1181 119" fill="none" xmlns="http://www.w3.org/2000/svg">
<path d="M52.9309 118.181C52.8949 117.945 52.6814 113.524 52.4563 108.356C52.0426 98.8636 51.0504 93.1288 48.9726 88.2218C48.3473 86.7453 47.3541 83.7251 46.7653 81.5104C45.7246 77.5956 45.6821 77.6424 45.2414 83.1882C44.8417 88.2188 44.4007 88.8929 41.5096 88.8929C39.7064 88.8929 38.2311 88.2532 38.2311 87.4714C38.2311 86.6896 37.627 86.4232 36.8888 86.8795C36.1505 87.3358 35.5465 89.41 35.5465 91.4889C35.5465 93.5678 35.169 97.1563 34.7076 99.4634C33.8085 103.959 32.029 104.498 23.6339 102.819C19.8153 102.055 19.4393 101.521 19.4393 96.858C19.4393 94.0409 18.8352 91.3626 18.097 90.9063C17.3179 90.4248 16.7547 91.7394 16.7547 94.0392C16.7547 98.0707 14.8513 99.6312 9.93358 99.6312C7.7485 99.6312 7.35881 98.6436 7.35881 93.1059C7.35881 86.8694 7.21032 86.609 4.00314 87.2221L0.647461 87.8636V70.2574C0.647461 55.5024 0.973512 52.6513 2.66087 52.6513C4.17624 52.6513 4.67428 51.0267 4.67428 46.0835C4.67428 41.3499 5.26357 39.2895 6.7844 38.7059C7.96278 38.2537 8.78621 36.5604 8.64923 34.8711C8.51433 33.2072 8.4708 29.2788 8.55254 26.1412C8.68449 21.0748 9.05736 20.4365 11.8852 20.4365C14.5621 20.4365 15.2061 21.2918 15.9279 25.8056C16.7018 30.6453 17.1723 31.1748 20.699 31.1748C23.2965 31.1748 24.8178 31.9643 25.2254 33.5238C25.563 34.8157 25.9093 33.6076 25.9949 30.8392C26.1321 26.4064 26.5512 25.8056 29.5063 25.8056C31.5066 25.8056 32.862 26.5737 32.862 27.7072C32.862 28.7531 33.6039 29.8561 34.5107 30.1583C35.4175 30.4606 36.2202 31.87 36.2945 33.2903C36.3689 34.7107 36.5329 38.1379 36.6592 40.9063C36.8179 44.3837 37.5113 45.9399 38.9022 45.9399C40.3937 45.9399 40.9157 44.3739 40.9157 39.8996C40.9157 34.3515 41.1891 33.8593 44.2713 33.8593C47.2914 33.8593 47.627 34.3962 47.627 39.2285C47.627 43.7027 48.0744 44.5976 50.3115 44.5976C52.8635 44.5976 52.9961 43.7027 52.9961 26.4768V8.35596H56.3518C59.6634 8.35596 59.7095 8.51018 59.8664 20.1009C59.9538 26.5607 59.9538 32.2989 59.8664 32.8526C59.779 33.4063 60.3115 33.8593 61.0497 33.8593C61.788 33.8593 62.392 34.8085 62.392 35.9686C62.392 38.3225 65.5096 41.913 67.5534 41.913C68.2828 41.913 69.1843 42.6681 69.5567 43.5909C69.929 44.5137 70.2814 42.7016 70.3397 39.564C70.4289 34.7596 70.8759 33.8593 73.1723 33.8593C74.672 33.8593 76.2466 32.9533 76.6716 31.8459C77.4784 29.7432 81.0827 29.3025 86.2173 30.6785C88.7589 31.3596 89.2374 32.4076 89.2374 37.2924C89.2374 40.4848 89.8414 43.4702 90.5797 43.9264C91.3179 44.3827 91.9644 46.3815 92.0163 48.3681C92.2206 56.1905 94.4172 46.6701 94.5122 37.5506C94.6032 28.8062 94.7235 28.4902 97.9622 28.4902C100.724 28.4902 101.321 29.1439 101.336 32.1815C101.368 38.5051 102.826 41.913 105.501 41.913C107.612 41.913 108.029 40.8903 108.029 35.7204C108.029 29.6032 108.078 29.535 112.056 30.1188C115.546 30.631 116.083 30.2933 116.083 27.5866C116.083 25.15 116.821 24.4634 119.439 24.4634C122.357 24.4634 122.794 25.0552 122.794 29.009C122.794 33.0349 123.255 33.6223 126.827 34.1465C129.232 34.4995 130.793 34.1547 130.694 33.2921C130.219 29.1166 131.077 27.1479 133.373 27.1479C135.241 27.1479 136.289 28.7003 137.4 33.1114C138.226 36.3914 138.901 40.3175 138.901 41.8363C138.901 43.8868 139.765 44.5976 142.257 44.5976C145.389 44.5976 145.613 44.1502 145.613 37.8862C145.613 34.1949 146.217 31.1748 146.955 31.1748C147.693 31.1748 148.297 29.0607 148.297 26.4768C148.297 22.3604 148.713 21.7788 151.653 21.7788C154.454 21.7788 155.009 22.4166 155.009 25.6341C155.009 29.094 155.559 29.5774 160.378 30.3479C163.331 30.8202 165.747 31.8034 165.747 32.5329C165.747 33.2624 167.257 33.8593 169.103 33.8593C171.563 33.8593 172.458 34.5752 172.458 36.5439C172.458 38.0204 173.062 39.2285 173.801 39.2285C174.539 39.2285 175.143 40.1345 175.143 41.2419C175.143 42.3604 176.336 43.2553 177.827 43.2553C179.443 43.2553 180.56 44.1905 180.633 45.6043C180.699 46.8962 181.321 45.9902 182.014 43.5909C182.997 40.1857 184.001 39.2285 186.59 39.2285C189.234 39.2285 189.908 39.91 189.908 42.5842C189.908 44.9818 190.633 45.9399 192.449 45.9399C195.579 45.9399 196.619 43.4221 196.619 35.8422C196.619 32.624 197.223 29.6176 197.961 29.1613C198.7 28.705 199.304 27.1594 199.304 25.7264C199.304 21.8003 205.119 22.2949 207.321 26.4083C208.288 28.2163 210.344 29.8774 211.888 30.0996C214.313 30.4485 214.64 31.2825 214.28 36.2083C213.914 41.2219 214.201 41.913 216.651 41.913C219.238 41.913 219.438 41.149 219.438 31.2516V20.5902L226.074 20.6416C232.525 20.6919 232.721 20.811 233.121 24.9272C233.485 28.6779 233.953 29.1121 237.223 28.7297C241.214 28.2629 244.825 30.8502 243.93 33.5357C243.109 35.9988 245.858 35.5624 246.811 33.0784C247.259 31.9106 247.625 28.5885 247.625 25.6958C247.625 21.0396 247.995 20.4365 250.846 20.4365C253.623 20.4365 254.169 21.2216 254.811 26.1412C256.283 37.4252 257.335 41.913 258.511 41.913C259.168 41.913 259.706 40.705 259.706 39.2284C259.706 37.4387 260.601 36.5439 262.39 36.5439C264.628 36.5439 265.075 35.649 265.075 31.1748C265.075 26.3425 265.411 25.8056 268.431 25.8056C271.971 25.8056 272.329 26.905 271.819 36.2134C271.63 39.657 272.23 40.8213 274.653 41.7177C278.071 42.9822 282.525 42.2447 282.525 40.4142C282.525 39.762 283.733 39.2284 285.209 39.2284C286.999 39.2284 287.894 38.3336 287.894 36.5439C287.894 34.7542 288.788 33.8593 290.578 33.8593C292.055 33.8593 293.191 33.4063 293.104 32.8526C293.016 32.2989 293.016 27.4667 293.104 22.1143C293.258 12.6713 293.362 12.3828 296.618 12.3828C299.878 12.3828 299.974 12.6513 299.974 21.7788C299.974 30.1917 300.247 31.1748 302.585 31.1748C304.735 31.1748 305.285 32.3018 305.699 37.5506L306.202 43.9264L306.443 36.3017C306.659 29.5033 307.013 28.6304 309.706 28.248C311.646 27.9723 312.879 26.7398 313.155 24.7989C313.814 20.1569 322.793 21.0551 322.793 25.7631C322.793 27.5511 323.6 27.9635 326.148 27.4764C328.608 27.0061 329.504 27.4141 329.504 29.0049C329.504 30.1983 330.429 31.1748 331.56 31.1748C332.69 31.1748 334 32.1777 334.47 33.4036C335.192 35.2828 335.503 35.1534 336.455 32.5786C337.324 30.229 338.356 29.6721 340.927 30.1636C342.765 30.515 344.269 30.2822 344.269 29.6463C344.269 29.0105 345.779 28.4902 347.625 28.4902C350.707 28.4902 350.98 28.9824 350.98 34.5305C350.98 39.0047 351.502 40.5707 352.994 40.5707C354.626 40.5707 355.007 38.4082 355.007 29.1613C355.007 17.8862 355.046 17.7519 358.363 17.7519C361.472 17.7519 361.731 18.2441 361.886 24.4634C361.979 28.1546 362.205 31.7788 362.39 32.517C362.574 33.2553 362.801 35.9734 362.893 38.5573C363.059 43.2056 363.125 43.2553 369.101 43.2553C375.067 43.2553 375.141 43.1996 375.141 38.7251C375.141 29.5969 376.569 25.8056 380.007 25.8056C383.127 25.8056 383.195 26.0647 383.195 37.8862C383.195 45.045 383.742 49.9667 384.537 49.9667C385.275 49.9667 385.88 47.2486 385.88 43.9265C385.88 38.781 386.277 37.8862 388.564 37.8862C390.303 37.8862 391.249 36.9913 391.249 35.3452C391.249 32.7047 394.612 30.6066 396.739 31.9208C397.41 32.3359 397.96 32.0358 397.96 31.254C397.96 30.4722 399.47 29.8325 401.316 29.8325C404.149 29.8325 404.671 30.4589 404.671 33.8593C404.671 37.2598 405.193 37.8862 408.027 37.8862C410.861 37.8862 411.383 38.5126 411.383 41.913C411.383 44.1278 411.852 45.9399 412.427 45.9399C414.532 45.9399 418.094 40.4461 418.094 37.1997C418.094 35.3625 418.734 33.8593 419.516 33.8593C420.297 33.8593 420.625 33.3537 420.243 32.7358C419.861 32.1179 420.463 30.3058 421.582 28.7089C424.186 24.9904 428.773 24.8551 429 28.4902C429.228 32.1359 429.413 32.968 430.345 34.5305C430.785 35.2687 431.543 37.5338 432.028 39.564C432.513 41.5942 433.805 43.2553 434.898 43.2553C435.991 43.2553 436.886 43.895 436.886 44.6768C436.886 45.4586 437.49 45.725 438.228 45.2687C438.966 44.8124 439.57 41.7135 439.57 38.3822C439.57 32.5475 441.733 28.4902 444.844 28.4902C445.635 28.4902 446.282 26.0741 446.282 23.121C446.282 18.2888 446.617 17.7519 449.637 17.7519C451.725 17.7519 452.993 18.5125 452.993 19.7653C452.993 20.9071 454.197 21.7788 455.773 21.7788C460.776 21.7788 462.375 24.9783 462.604 35.4413C462.722 40.8464 463.062 43.3056 463.36 40.9063C463.702 38.1524 464.648 36.5439 465.926 36.5439C467.94 36.5439 471.088 34.1 471.545 32.1815C471.677 31.6277 471.785 29.6647 471.785 27.819C471.785 25.3582 472.501 24.4633 474.469 24.4633C476.643 24.4633 477.154 23.5685 477.154 19.7653C477.154 15.7172 477.594 15.0674 480.337 15.0674C483.379 15.0674 483.561 15.5978 484.464 27.1479C484.984 33.7922 485.968 39.2284 486.651 39.2284C487.333 39.2284 487.892 38.2793 487.892 37.1191C487.892 34.1582 491.212 31.1747 494.508 31.1747C496.942 31.1747 497.313 32.0521 497.485 38.2217L497.683 45.2687L498.867 37.215C499.519 32.7855 500.394 26.2922 500.813 22.7855C501.485 17.1588 501.953 16.4096 504.8 16.4096C507.304 16.4096 508.026 17.1255 508.026 19.6088C508.026 21.6791 508.974 23.0557 510.711 23.51C512.456 23.9663 513.395 23.5511 513.395 22.3242C513.395 21.2055 514.762 20.4365 516.751 20.4365C519.401 20.4365 520.107 21.116 520.107 23.6665C520.107 26.2357 520.656 26.7529 522.791 26.1945C524.277 25.806 525.476 24.3636 525.476 22.9645C525.476 21.1628 526.44 20.4365 528.831 20.4365C531.86 20.4365 532.202 20.9922 532.342 26.1412C532.426 29.2788 532.397 32.8542 532.276 34.0865C532.108 35.7867 532.799 36.1397 535.141 35.5503C536.839 35.123 538.71 33.9638 539.301 32.9741C539.891 31.9845 542.156 31.1747 544.334 31.1747C547.4 31.1747 548.295 31.7814 548.295 33.8593C548.295 35.6101 549.189 36.5439 550.867 36.5439C552.282 36.5439 553.745 37.2989 554.117 38.2217C554.489 39.1445 554.842 36.4264 554.9 32.1815C554.958 27.9365 555.61 24.4633 556.348 24.4633C557.144 24.4633 557.69 19.5416 557.69 12.3828C557.69 0.391732 557.716 0.302246 561.046 0.302246C564.306 0.302246 564.402 0.570716 564.402 9.69823C564.402 16.9619 564.839 19.0942 566.326 19.0942C567.427 19.0942 568.432 20.6727 568.675 22.7855C569.009 25.6848 569.892 26.5679 572.791 26.9015C576.132 27.2859 576.482 27.836 576.482 32.6944C576.482 38.477 578.387 43.2553 580.691 43.2553C581.563 43.2553 581.934 40.8952 581.641 37.215C581.183 31.4569 581.326 31.1747 584.713 31.1747C586.692 31.1747 588.237 31.9173 588.202 32.8526C588.012 37.9687 588.775 40.5707 590.464 40.5707C591.51 40.5707 592.67 41.3258 593.043 42.2486C593.415 43.1714 593.767 42.2656 593.826 40.2352C593.913 37.2209 594.547 36.5439 597.287 36.5439C600.419 36.5439 600.643 36.0965 600.643 29.8325C600.643 23.5685 600.867 23.121 603.999 23.121C605.844 23.121 607.354 22.517 607.354 21.7788C607.354 21.0405 608.865 20.4365 610.71 20.4365C614.054 20.4365 614.066 20.4812 614.066 33.1882C614.066 43.6281 614.431 45.9398 616.079 45.9398C617.187 45.9398 618.093 46.8459 618.093 47.9533C618.093 49.0607 618.999 49.9667 620.106 49.9667C621.213 49.9667 622.119 48.809 622.119 47.394C622.119 45.979 622.753 44.61 623.528 44.3517C624.303 44.0934 625.367 40.872 625.894 37.1929C626.748 31.2178 627.207 30.5036 630.19 30.5036C632.844 30.5036 633.446 31.1006 633.127 33.4153C632.803 35.7649 633.257 36.1882 635.476 35.6078C636.989 35.2122 638.227 34.4221 638.227 33.8521C638.227 33.2821 640.341 32.4192 642.925 31.9344C647.035 31.1634 647.623 30.5569 647.623 27.0871C647.623 24.4566 648.301 23.121 649.636 23.121C650.889 23.121 651.649 21.8533 651.649 19.7653C651.649 17.0808 652.321 16.4096 655.005 16.4096C658.173 16.4096 658.361 16.8176 658.361 23.713C658.361 27.7298 658.965 31.3896 659.703 31.8459C660.441 32.3022 661.045 35.3579 661.045 38.6365C661.045 41.9151 661.649 44.5976 662.388 44.5976C663.126 44.5976 663.73 43.6484 663.73 42.4883C663.73 41.3282 664.636 39.4729 665.743 38.3655C666.851 37.2582 667.757 35.1872 667.757 33.7634C667.757 31.897 668.693 31.1747 671.112 31.1747C673.946 31.1747 674.468 31.8011 674.468 35.2016C674.468 38.5387 675.011 39.2284 677.637 39.2284C680.44 39.2284 680.897 38.4515 681.604 32.4851C682.044 28.7762 682.767 25.152 683.213 24.4314C684.616 22.1601 688.891 23.0101 689.594 25.7004C690.086 27.5792 691.951 28.532 696.462 29.2085L702.656 30.1373V36.6963C702.656 42.3604 703.022 43.2553 705.34 43.2553C707.699 43.2553 708.025 42.3604 708.025 35.8727C708.025 28.9312 708.222 28.4902 711.316 28.4902C714.417 28.4902 714.631 28.9779 715.008 36.8794C715.358 44.2406 715.736 45.2687 718.092 45.2687C720.139 45.2687 720.876 44.2337 721.197 40.9063C721.541 37.3396 722.194 36.5439 724.776 36.5439C726.514 36.5439 728.272 37.2989 728.683 38.2217C729.094 39.1445 729.383 38.0875 729.324 35.8727C729.265 33.658 729.283 29.2788 729.359 26.1412C729.494 20.7291 729.708 20.4365 733.528 20.4365H737.555V31.6781V42.9197L741.749 43.7586C747.872 44.9832 748.293 44.8645 748.293 41.913C748.293 40.4365 748.897 39.2284 749.635 39.2284C750.374 39.2284 750.978 36.4418 750.978 33.0358C750.978 26.9187 751.03 26.8504 755.004 27.4342L759.031 28.0252V19.5329C759.031 11.3692 759.161 11.0405 762.387 11.0405C764.475 11.0405 765.743 11.8011 765.743 13.0539C765.743 14.3067 767.01 15.0673 769.098 15.0673C772.305 15.0673 772.454 15.4253 772.454 23.121C772.454 30.2799 772.752 31.1747 775.138 31.1747C777.422 31.1747 777.849 32.1266 777.994 37.5506L778.165 43.9264L779.454 35.5371C780.623 27.9204 781.04 27.1479 783.98 27.1479C787.322 27.1479 787.742 28.2224 787.26 35.5371C787.071 38.4101 787.609 39.2284 789.69 39.2284C791.386 39.2284 792.858 40.5794 793.712 42.9197C794.993 46.4242 795.066 46.3223 795.167 40.9063C795.255 36.1318 795.71 35.2016 797.957 35.2016C799.449 35.2016 800.642 34.3067 800.642 33.1882C800.642 31.9354 801.909 31.1747 803.997 31.1747C806.682 31.1747 807.353 31.8459 807.353 34.5304C807.353 39.4548 809.796 38.626 810.288 33.5347C810.742 28.8396 814.789 26.6993 816.903 30.036C817.735 31.3493 818.056 31.0172 818.071 28.8257C818.088 26.5046 818.868 25.8056 821.447 25.8056C824.566 25.8056 824.803 26.2655 824.803 32.3297C824.803 41.4624 826.29 51.309 827.67 51.309C828.308 51.309 828.829 50.384 828.829 49.2534C828.829 48.1229 829.735 46.8502 830.843 46.4252C832.397 45.8288 832.856 43.2372 832.856 35.058C832.856 24.6519 832.916 24.4633 836.212 24.4633C839.493 24.4633 839.568 24.687 839.568 34.5304C839.568 40.347 840.134 44.5976 840.91 44.5976C841.648 44.5976 842.252 43.3895 842.252 41.913C842.252 39.9443 843.147 39.2284 845.608 39.2284C847.453 39.2284 848.973 39.9835 848.984 40.9063C849.002 41.9852 849.356 42.0893 849.991 41.1979C851.306 39.3493 864.594 36.0907 866.362 37.1833C867.128 37.657 867.755 38.915 867.755 39.9788C867.755 41.0426 868.315 41.913 868.999 41.913C869.683 41.913 870.519 42.97 870.857 44.262C871.305 45.9765 871.513 45.7693 871.626 43.495C871.822 39.5785 874.778 36.5439 878.398 36.5439C880.68 36.5439 881.178 37.3847 881.178 41.2419C881.178 43.8258 881.782 45.9399 882.52 45.9399C883.259 45.9399 883.863 44.1278 883.863 41.913C883.863 38.0909 884.144 37.8862 889.388 37.8862C894.558 37.8862 894.872 37.6703 894.272 34.5305C893.718 31.6312 894.116 31.1747 897.202 31.1747C900.493 31.1747 900.73 31.5433 900.225 35.8727C899.504 42.0419 902.093 41.972 903.252 35.7909C904.044 31.5701 904.571 31.0599 907.758 31.4285C910.588 31.7559 911.514 32.7142 912.052 35.8727C912.537 38.7179 913.598 40.0222 915.668 40.3177C917.425 40.5686 918.825 41.9108 919.167 43.6734L919.738 46.611L919.921 43.5908C920.068 41.1529 920.9 40.5707 924.233 40.5707C928.046 40.5707 928.345 40.2365 928.124 36.2083C927.993 33.8089 927.946 31.0908 928.021 30.168C928.181 28.1861 933.449 27.8745 933.694 29.8324C933.786 30.5707 934.012 31.7787 934.197 32.517C934.381 33.2552 934.608 36.8794 934.7 40.5707C934.825 45.5669 935.382 47.2821 936.881 47.2821C937.988 47.2821 938.894 46.7163 938.894 46.0248C938.894 45.3334 940.857 44.5783 943.257 44.347C947.093 43.9772 947.67 43.3998 948.04 39.564C948.356 36.2888 949.108 35.2015 951.06 35.2015C952.894 35.2015 953.659 36.1308 953.659 38.3569C953.659 40.0924 954.381 43.5656 955.264 46.0751C956.847 50.5773 956.881 50.5933 957.814 47.2821C958.335 45.4365 958.821 41.0785 958.895 37.5978C958.999 32.6384 959.634 30.945 961.828 29.7709C965.27 27.9285 966.076 28.6487 966.377 33.8369C966.506 36.064 966.718 39.7338 966.847 41.9922C967.167 47.5879 969.766 45.6542 969.766 39.8203C969.766 36.0774 970.281 35.2015 972.484 35.2015C974.431 35.2015 975.431 36.345 976.008 39.2284C977.168 45.0311 979.162 44.1826 979.162 37.8861C979.162 33.3501 979.594 32.517 981.943 32.517C985.244 32.517 988.076 35.0627 988.767 38.6522C989.608 43.0156 993.21 41.7146 993.677 36.8794C994.021 33.3105 994.673 32.517 997.261 32.517C1000.16 32.517 1000.5 33.2356 1001.36 41.2418C1001.87 46.0405 1002.83 49.9667 1003.48 49.9667C1004.13 49.9667 1004.67 46.0405 1004.67 41.2418V32.517H1013.39H1022.11V40.5707C1022.11 45.0449 1022.71 48.6243 1023.46 48.6243C1024.2 48.6243 1024.8 45.9419 1024.8 42.6633C1024.8 39.3847 1025.42 36.319 1026.18 35.8507C1026.94 35.3823 1027.47 34.2896 1027.36 33.4225C1027.25 32.5553 1027.24 29.5807 1027.33 26.8123C1027.45 22.8014 1028.01 21.7787 1030.06 21.7787C1033.24 21.7787 1035.54 31.0687 1035.54 43.9132C1035.54 48.632 1036.14 52.8661 1036.88 53.3223C1037.64 53.7909 1038.22 52.6915 1038.22 50.7962C1038.22 48.9506 1038.83 47.0672 1039.56 46.6109C1040.3 46.1546 1040.91 42.4949 1040.91 38.478C1040.91 31.6876 1041.13 31.1747 1044.09 31.1747C1046.77 31.1747 1047.41 32.03 1048.13 36.5438C1048.61 39.4968 1049.55 41.9129 1050.22 41.9129C1052.12 41.9129 1055.67 37.918 1055.67 35.7768C1055.67 34.6263 1057.01 33.8592 1059.03 33.8592C1061.71 33.8592 1062.38 34.5304 1062.38 37.215C1062.38 39.0606 1062.99 40.5707 1063.73 40.5707C1064.46 40.5707 1065.07 37.8525 1065.07 34.5304C1065.07 28.9823 1065.34 28.4901 1068.42 28.4901C1071.6 28.4901 1071.78 28.8928 1071.78 35.8727C1071.78 39.9331 1072.38 43.2552 1073.12 43.2552C1073.86 43.2552 1074.46 41.4431 1074.46 39.2284C1074.46 37.0136 1075.15 35.2015 1075.99 35.2015C1078.06 35.2015 1081.08 31.0556 1081.13 28.1545C1081.16 26.7678 1082.21 25.8056 1083.69 25.8056C1086.68 25.8056 1087.89 30.4606 1087.89 42.0015C1087.89 49.8457 1090.11 54.0221 1091.49 48.7594C1091.91 47.1539 1093.31 45.9398 1094.75 45.9398C1096.97 45.9398 1097.28 44.8648 1097.28 37.215C1097.28 28.8033 1097.4 28.4901 1100.64 28.4901C1103.58 28.4901 1103.99 29.0717 1103.99 33.1881C1103.99 35.772 1104.6 37.8861 1105.34 37.8861C1106.07 37.8861 1106.68 36.9801 1106.68 35.8727C1106.68 34.7653 1107.84 33.8592 1109.27 33.8592C1110.69 33.8592 1112.76 32.9532 1113.87 31.8458C1114.98 30.7384 1117.13 29.8324 1118.66 29.8324C1120.86 29.8324 1121.44 30.681 1121.44 33.8592C1121.44 36.074 1122.05 37.8861 1122.79 37.8861C1123.58 37.8861 1124.13 33.1881 1124.13 26.4767C1124.13 15.3883 1124.22 15.0673 1127.29 15.0673C1130.21 15.0673 1130.51 15.7482 1131.29 24.0311C1131.75 28.9611 1132.65 33.3403 1133.29 33.7626C1133.94 34.1849 1134.81 35.4364 1135.23 36.5438C1135.69 37.7421 1136.04 37.1072 1136.1 34.9757C1136.25 29.9237 1137.53 27.1478 1139.71 27.1478C1140.96 27.1478 1141.58 25.5571 1141.58 22.3565C1141.58 18.1771 1141.96 17.6199 1144.55 17.9941C1147.85 18.4716 1149.21 22.2902 1150.9 35.8727C1151.45 40.3022 1152 42.8693 1152.11 41.5774C1152.22 40.2854 1153.22 39.2284 1154.33 39.2284C1155.44 39.2284 1156.34 38.4566 1156.34 37.5133C1156.34 36.57 1157.55 34.7638 1159.03 33.4996C1160.5 32.2353 1161.71 30.289 1161.71 29.1744C1161.71 28.0598 1162.88 27.1478 1164.32 27.1478C1166.3 27.1478 1167.19 28.4796 1168.03 32.7479C1169.38 39.5496 1172.45 41.3343 1172.45 35.3134C1172.45 31.8639 1172.97 31.1747 1175.6 31.1747C1178.62 31.1747 1178.8 31.7066 1179.63 43.4614C1180.96 62.2062 1180.7 84.866 1179.16 84.866C1178.39 84.866 1177.82 89.1165 1177.82 94.9331C1177.82 104.777 1177.74 105 1174.46 105H1171.11V89.564V74.1277L1168.42 76.8123C1166.33 78.9003 1165.74 81.2866 1165.74 87.5505C1165.74 94.7094 1165.44 95.6042 1163.05 95.6042C1160.69 95.6042 1160.37 96.4991 1160.37 102.987C1160.37 109.967 1160.19 110.369 1157.01 110.369C1153.88 110.369 1153.66 109.922 1153.66 103.658C1153.66 99.9667 1153.05 96.9465 1152.32 96.9465C1151.58 96.9465 1150.97 97.7363 1150.97 98.7016C1150.97 100.574 1142.17 105 1138.44 105C1136.85 105 1136.16 103.749 1136.05 100.638C1135.97 98.2385 1135.62 97.3324 1135.28 98.6244C1134.95 99.9163 1134.11 100.973 1133.43 100.973C1132.74 100.973 1132.18 102.827 1132.18 105.094C1132.18 108.585 1131.73 109.148 1129.2 108.785C1126.84 108.445 1125.97 107.094 1125.05 102.316C1123.68 95.1736 1121.44 92.0608 1121.44 97.2884C1121.44 100.328 1120.72 100.987 1116.53 101.773C1112.77 102.479 1111.24 102.179 1110.01 100.492C1109.12 99.2802 1107.71 98.2888 1106.87 98.2888C1106.02 98.2888 1105.34 96.4767 1105.34 94.262C1105.34 91.5774 1104.66 90.2351 1103.32 90.2351C1102.22 90.2351 1101.31 89.3575 1101.31 88.2849C1101.31 85.2608 1087.9 87.1918 1084.87 90.6535C1083.57 92.1258 1082.52 93.8822 1082.52 94.5565C1082.52 95.2308 1080.86 95.5914 1078.83 95.3578C1075.52 94.9778 1075.09 94.333 1074.72 89.2284C1074.44 85.3442 1073.69 83.5237 1072.37 83.5237C1070.97 83.5237 1070.44 85.1967 1070.44 89.564C1070.44 95.1121 1070.16 95.6042 1067.08 95.6042C1065.15 95.6042 1063.73 94.8312 1063.73 93.777C1063.73 92.5659 1062.63 92.1599 1060.47 92.5729C1057.61 93.1184 1057.14 92.6342 1056.65 88.6955C1056.29 85.7656 1056.03 86.8885 1055.89 91.913C1055.68 99.1935 1055.48 99.6311 1052.32 99.6311C1049.38 99.6311 1048.96 99.0495 1048.96 94.9331C1048.96 92.3492 1048.36 90.2351 1047.62 90.2351C1046.88 90.2351 1046.28 92.9952 1046.28 96.3687C1046.28 101.962 1046.01 102.465 1043.26 102.073C1041.09 101.766 1040.12 100.596 1039.81 97.9532C1039.48 95.054 1038.69 94.262 1036.12 94.262C1034.11 94.262 1032.85 95.0372 1032.85 96.2754C1032.85 97.5282 1031.59 98.2888 1029.5 98.2888C1026.48 98.2888 1026.14 97.7519 1026.14 92.9197C1026.14 88.4454 1025.69 87.5505 1023.46 87.5505C1021.22 87.5505 1020.77 88.4454 1020.77 92.9197C1020.77 97.7519 1020.44 98.2888 1017.42 98.2888C1015.34 98.2888 1014.06 97.5271 1014.06 96.2912C1014.06 95.0029 1012.18 93.9927 1008.76 93.4459C1005.5 92.9249 1003.23 91.7549 1002.88 90.4099C1002.55 89.2064 1002.22 94.413 1002.14 101.98C1001.98 115.719 1001.98 115.738 998.626 115.738C995.368 115.738 995.27 115.465 995.27 106.422C995.27 101.298 994.666 96.7316 993.927 96.2754C993.189 95.8191 992.484 92.9143 992.36 89.8203L992.134 84.1948L991.608 89.2284C991.199 93.1339 990.498 94.262 988.478 94.262C986.397 94.262 985.874 93.3184 985.874 89.564C985.874 86.9801 985.27 84.866 984.532 84.866C983.756 84.866 983.189 89.1165 983.189 94.9331C983.189 104.777 983.115 105 979.834 105C976.7 105 976.468 104.534 976.322 97.9532C976.237 94.0774 975.891 91.9633 975.553 93.2552C975.185 94.6613 973.658 95.6042 971.749 95.6042C968.81 95.6042 968.524 94.9946 968.121 87.8861L967.684 80.168L966.539 87.215C965.532 93.4129 965.01 94.262 962.211 94.262C960.277 94.262 959.028 93.4722 959.028 92.2485C959.028 91.13 957.835 90.2351 956.344 90.2351C954.256 90.2351 953.659 91.13 953.659 94.262C953.659 97.9692 953.286 98.2888 948.961 98.2888C944.625 98.2888 944.263 97.9752 944.263 94.2198C944.263 91.8412 943.427 89.8299 942.25 89.3782C941.143 88.9533 940.237 87.1602 940.237 85.3935C940.237 83.6269 939.633 82.1814 938.894 82.1814C938.156 82.1814 937.552 82.7854 937.552 83.5237C937.552 84.262 936.386 84.866 934.961 84.866C933.296 84.866 932.216 85.9452 931.941 87.8861C931.471 91.1941 925.811 92.9565 924.173 90.305C923.66 89.476 921.025 88.4381 918.316 87.9985C914.208 87.3319 913.391 87.591 913.391 89.5599C913.391 91.5622 912.576 91.7902 908.022 91.0619C903.747 90.3783 902.653 90.6169 902.653 92.2327C902.653 93.5024 901.397 94.262 899.297 94.262C897.209 94.262 895.942 93.5013 895.942 92.2485C895.942 91.1412 894.774 90.2351 893.346 90.2351C891.513 90.2351 890.626 91.3187 890.326 93.9264C890.023 96.5693 889.044 97.7395 886.881 98.0466C884.048 98.449 883.86 97.9921 883.841 90.664C883.805 77.9116 881.538 77.4695 880.445 90.0024C879.618 99.4851 879.147 100.973 876.976 100.973C874.986 100.973 874.446 99.9291 874.371 95.9398C874.18 85.7724 871.973 85.1789 871.875 95.2687C871.783 104.729 871.688 105 868.425 105C865.485 105 865.069 104.419 865.069 100.302C865.069 96.4991 864.558 95.6042 862.385 95.6042C860.492 95.6042 859.7 94.7094 859.7 92.5714C859.7 89.3788 855.13 85.5564 852.934 86.9132C852.226 87.3509 851.647 93.7136 851.647 101.053C851.647 114.391 851.645 114.396 848.291 114.396C845.271 114.396 844.935 113.859 844.935 109.027C844.935 106.074 844.331 103.658 843.593 103.658C842.855 103.658 842.251 100.702 842.251 97.0901C842.251 92.4903 841.647 90.2908 840.237 89.7497C838.686 89.1544 838.224 90.0459 838.224 93.6329C838.224 97.3062 837.688 98.2888 835.683 98.2888C832.63 98.2888 831.513 95.775 831.513 88.9093C831.513 83.9182 831.421 83.8192 828.167 85.3278C825.292 86.6615 824.821 87.7747 824.812 93.2552C824.8 98.8061 824.441 99.6311 822.021 99.6311C818.726 99.6311 815.405 102.615 815.405 105.575C815.405 106.76 814.276 107.685 812.831 107.685C808.83 107.685 806.009 106.238 806.009 104.185C806.009 103.157 804.88 102.316 803.499 102.316C801.503 102.316 800.843 101.02 800.276 95.9838C799.883 92.5013 798.899 89.4308 798.088 89.1605C797.277 88.8903 796.515 87.6624 796.395 86.432C796.275 85.2016 795.821 87.517 795.388 91.5774C794.711 97.925 794.177 99.0201 791.58 99.3889C788.686 99.7999 788.55 99.3795 788.318 89.3218L788.076 78.8257L787.311 88.8928C786.616 98.0381 786.27 98.9992 783.526 99.3889C780.939 99.7564 780.484 99.1795 780.35 95.362C780.265 92.9114 779.918 91.9633 779.581 93.2552C778.555 97.1796 769.859 95.8769 769.662 91.7694C769.595 90.3767 769.306 90.1823 768.879 91.2418C768.507 92.1646 767.346 92.9197 766.3 92.9197C764.841 92.9197 764.399 95.1042 764.399 102.316V111.712H758.55H752.701L751.838 103.461C751.364 98.9232 750.976 93.185 750.976 90.7094C750.976 87.7186 750.337 86.2083 749.072 86.2083C748.025 86.2083 746.213 85.8416 745.046 85.3935C743.299 84.7232 742.922 85.6753 742.922 90.7627C742.922 96.4231 742.646 96.9465 739.648 96.9465C736.852 96.9465 736.296 96.2102 735.847 91.913C735.456 88.1788 735.262 88.8717 735.094 94.5975C734.882 101.875 734.678 102.316 731.513 102.316C728.595 102.316 728.157 101.724 728.157 97.7742C728.157 94.3617 727.49 93.0583 725.473 92.5308C723.996 92.1446 722.788 92.3762 722.788 93.0453C722.788 93.7145 721.278 94.2619 719.433 94.2619C716.815 94.2619 716.077 93.5753 716.077 91.1387C716.077 88.432 715.54 88.0943 712.05 88.6065C708.607 89.1118 708.023 88.7652 708.023 86.217C708.023 84.0506 707.444 83.459 705.9 84.0512C704.732 84.4993 703.524 84.866 703.216 84.866C702.907 84.866 702.654 86.093 702.654 87.5927C702.654 89.0923 701.748 90.667 700.641 91.092C699.328 91.5957 698.627 93.6835 698.627 97.0901C698.627 101.769 698.276 102.316 695.271 102.316C692.454 102.316 691.916 101.684 691.916 98.3732C691.916 94.6455 691.669 94.4707 687.389 95.1654C684.738 95.5956 682.479 95.2823 681.94 94.4099C680.599 92.2401 676.224 92.5861 675.323 94.9331C674.898 96.0405 673.022 96.9465 671.153 96.9465C668.65 96.9465 667.755 96.2395 667.755 94.262C667.755 92.4723 666.86 91.5774 665.07 91.5774C663.102 91.5774 662.386 90.6826 662.386 88.2217C662.386 86.3761 661.861 84.866 661.219 84.866C659.731 84.866 658.393 92.9129 658.374 101.98C658.356 108.598 658.155 109.027 655.003 109.027C652.17 109.027 651.648 108.401 651.648 105C651.648 102.785 651.044 100.973 650.305 100.973C649.567 100.973 648.963 98.5966 648.963 95.6916C648.963 92.7867 648.312 88.7095 647.517 86.6312L646.07 82.8526L644.163 87.3647C642.383 91.5749 641.941 91.8179 637.556 90.9952L632.856 90.1135V97.5569C632.856 104.602 632.676 105 629.5 105C626.265 105 626.145 104.687 626.145 96.2754C626.145 90.8304 625.59 87.5506 624.67 87.5506C621.612 87.5506 614.064 91.9581 614.064 93.7438C614.064 94.8334 612.674 95.6043 610.708 95.6043C608.024 95.6043 607.353 94.9331 607.353 92.2485C607.353 90.1606 606.592 88.8928 605.339 88.8928C603.794 88.8928 603.326 90.608 603.326 96.2754V103.658H598.628H593.93V96.4011C593.93 89.805 593.686 89.2081 591.245 89.8462C588.915 90.4557 588.561 91.6771 588.561 99.1165C588.561 107.361 588.434 107.685 585.205 107.685H581.85V94.262C581.85 78.4083 579.461 75.9745 578.886 91.2418C578.523 100.869 578.269 101.676 575.474 102.073C573.813 102.309 572.454 101.856 572.454 101.067C572.454 100.277 571.548 99.6311 570.44 99.6311C569.149 99.6311 568.411 98.3071 568.384 95.9398C568.344 92.4042 568.258 92.3584 566.371 94.8541C565.287 96.2872 564.4 100.062 564.4 103.243C564.4 108.518 564.105 109.027 561.044 109.027C557.813 109.027 557.689 108.707 557.689 100.412C557.689 95.6737 557.322 90.8415 556.874 89.6738C555.193 85.2935 553.662 87.8007 553.662 94.9331C553.662 101.459 553.345 102.316 550.935 102.316C549.435 102.316 547.861 101.41 547.436 100.302C546.331 97.4231 541.457 97.8026 540.666 100.829C539.916 103.696 533.705 105.433 528.699 104.176C526.224 103.555 525.474 102.464 525.474 99.4856C525.474 97.3509 524.87 95.6043 524.132 95.6043C523.394 95.6043 522.79 94.6982 522.79 93.5909C522.79 92.4835 521.884 91.5774 520.776 91.5774C519.669 91.5774 518.763 92.4428 518.763 93.5004C518.763 94.558 517.555 95.8068 516.078 96.2754C514.363 96.8198 513.394 98.3063 513.394 100.393C513.394 102.763 512.658 103.658 510.709 103.658C508.08 103.658 507.516 105.638 507.556 114.732C507.561 116.364 506.51 117.082 504.104 117.084L500.642 117.087L501.089 106.073C501.467 96.7497 501.169 94.7914 499.154 93.3178C496.028 91.0325 494.602 91.1179 494.602 93.5909C494.602 94.8181 493.351 95.6043 491.399 95.6043C488.631 95.6043 488.072 94.7824 487.29 89.564C485.708 79.0197 483.864 82.9948 483.864 96.9466V110.369H480.508C477.208 110.369 477.152 110.19 477.152 99.6311V88.8928H473.225C470.617 88.8928 469.086 88.103 468.669 86.5438C468.138 84.5545 467.893 84.6572 467.072 87.215C466.539 88.876 465.61 90.2351 465.01 90.2351C464.409 90.2351 463.724 91.5942 463.488 93.2552C463.16 95.57 462.041 96.3736 458.697 96.696C456.247 96.9322 454.335 96.4911 454.335 95.6893C454.335 94.9042 453.41 94.2619 452.279 94.2619C451.149 94.2619 449.876 93.3559 449.451 92.2485C448.182 88.9407 444.939 89.9054 444.939 93.5908C444.939 96.2283 444.257 96.9465 441.751 96.9465C438.476 96.9465 436.885 93.1605 436.885 85.3693C436.885 81.7517 434.451 81.2979 427.69 83.655C424.946 84.6113 423.462 86.0248 423.462 87.6818C423.462 91.3482 416.761 91.2334 415.798 87.5505C415.188 85.2197 413.967 84.866 406.528 84.866C400.127 84.866 397.959 85.3358 397.959 86.7228C397.959 87.7441 396.751 88.8956 395.275 89.2817C392.994 89.8782 392.59 91.1126 392.59 97.492C392.59 104.105 392.27 105 389.906 105C387.619 105 387.221 105.895 387.221 111.04C387.221 116.589 386.948 117.081 383.865 117.081C381.032 117.081 380.51 116.454 380.51 113.054C380.51 110.369 379.839 109.027 378.496 109.027C377.154 109.027 376.483 107.685 376.483 105C376.483 101.868 375.886 100.973 373.798 100.973C371.639 100.973 371.114 100.078 371.114 96.401C371.114 92.4896 370.726 91.9302 368.429 92.5307C366.528 93.028 365.745 94.3616 365.745 97.1031C365.745 100.608 365.315 100.973 361.19 100.973C355.67 100.973 355.148 99.8731 354.077 85.9756C353.095 73.2455 350.98 73.4585 350.98 86.2874C350.98 95.3305 350.881 95.6042 347.624 95.6042C344.915 95.6042 344.268 94.9394 344.268 92.1526C344.268 89.0428 341.63 84.8659 339.666 84.8659C339.244 84.8659 338.899 86.678 338.899 88.8928C338.899 92.0248 338.303 92.9196 336.215 92.9196C334.738 92.9196 333.53 93.7571 333.53 94.7806C333.53 95.9572 331.309 96.9748 327.49 97.5475C323.55 98.1383 321.45 99.1247 321.45 100.384C321.45 101.55 320.119 102.316 318.094 102.316C315.064 102.316 314.738 101.785 314.738 96.8506C314.738 93.8448 313.873 90.5199 312.815 89.4619C311.145 87.7919 310.835 88.0257 310.466 91.2356C310.132 94.1415 309.25 95.024 306.349 95.3578C303.033 95.7394 302.658 95.3642 302.658 91.6665C302.658 88.9027 301.997 87.5505 300.645 87.5505C299.526 87.5505 298.631 88.7436 298.631 90.2351C298.631 91.7265 297.736 92.9196 296.618 92.9196C295.212 92.9196 294.604 94.3365 294.604 97.6176C294.604 101.734 294.189 102.316 291.249 102.316C288.117 102.316 287.893 101.868 287.893 95.6042C287.893 89.7876 287.535 88.8928 285.208 88.8928C283.732 88.8928 282.524 89.4525 282.524 90.1368C282.524 93.0779 274.106 95.544 266.173 94.9271C256.766 94.1957 255.76 93.7174 255.428 89.8203C255.291 88.2028 254.838 92.0136 254.422 98.2888C253.723 108.831 253.435 109.731 250.645 110.127C247.715 110.543 247.625 110.214 247.625 99.0533C247.625 89.7234 247.245 87.5505 245.611 87.5505C244.504 87.5505 243.598 88.1545 243.598 88.8928C243.598 89.631 242.692 90.2351 241.585 90.2351C240.477 90.2351 239.571 91.1411 239.571 92.2485C239.571 93.5013 238.304 94.2619 236.216 94.2619C233.275 94.2619 232.86 94.8436 232.86 98.9599C232.86 103.076 232.444 103.658 229.504 103.658C226.82 103.658 226.149 102.987 226.149 100.302C226.149 97.6176 225.477 96.9465 222.793 96.9465C220.947 96.9465 219.427 96.1914 219.414 95.2686C219.382 92.9038 213.447 87.5505 210.859 87.5505C209.48 87.5505 208.699 88.7035 208.699 90.7384C208.699 97.7753 207.054 102.316 204.504 102.316C203.043 102.316 201.943 101.331 201.882 99.9666C201.818 98.5633 201.503 98.2931 201.099 99.2955C200.726 100.218 198.962 100.973 197.178 100.973C194.218 100.973 193.925 100.416 193.828 94.5975C193.77 91.0908 193.417 88.9767 193.045 89.8995C192.673 90.8223 190.908 91.5773 189.124 91.5773C186.547 91.5773 185.88 90.8781 185.88 88.1744C185.88 85.226 185.534 84.9571 183.284 86.161C178.506 88.7179 175.362 87.8615 174.832 83.8592C174.494 81.3078 174.004 82.5512 173.246 87.8861C172.271 94.7436 171.802 95.6042 169.041 95.6042C166.885 95.6042 165.755 94.6789 165.351 92.5841C165.029 90.9116 164.688 92.0397 164.587 95.1121C164.437 99.6516 163.855 100.807 161.384 101.47C155.159 103.138 153.666 102.522 153.666 98.2888C153.666 94.7093 153.218 94.2619 149.639 94.2619C146.06 94.2619 145.612 93.8145 145.612 90.2351C145.612 87.688 144.925 86.2082 143.742 86.2082C142.714 86.2082 141.51 85.2639 141.067 84.1097C139.255 79.3861 137.559 84.332 137.559 94.3411C137.559 104.816 137.501 105 134.203 105C131.121 105 130.847 104.508 130.847 98.9599C130.847 93.8145 130.45 92.9196 128.163 92.9196C126.075 92.9196 125.478 92.0248 125.478 88.8928C125.478 86.2082 124.807 84.8659 123.465 84.8659C122.212 84.8659 121.451 86.1336 121.451 88.2216C121.451 90.9062 120.78 91.5773 118.096 91.5773C116.25 91.5773 114.731 90.8223 114.719 89.8995C114.705 88.6797 114.38 88.7247 113.532 90.0644C112.769 91.2686 110.683 91.7108 107.512 91.3406L102.659 90.7741V98.5583V106.342H97.9611H93.2632V92.0248C93.2632 84.1501 92.8534 78.1168 92.3527 78.6176C91.8519 79.1184 91.0969 85.4104 90.6748 92.5997C89.955 104.863 89.7208 105.698 86.8874 106.1C84.2394 106.476 83.8673 105.939 83.8673 101.738C83.8673 97.5219 83.4643 96.9465 80.5116 96.9465C78.4595 96.9465 77.1559 96.1827 77.1559 94.9803C77.1559 93.8989 75.9479 92.3676 74.4714 91.5774C72.3287 90.4306 71.7869 90.5566 71.7869 92.2013C71.7869 93.5044 70.5533 94.2619 68.4312 94.2619C66.3432 94.2619 65.0755 95.0226 65.0755 96.2753C65.0755 97.3827 64.4715 98.2888 63.7332 98.2888C62.995 98.2888 62.3909 99.1948 62.3909 100.302C62.3909 101.41 61.4411 102.316 60.2802 102.316C58.5634 102.316 58.2372 103.756 58.5325 110.034C58.8644 117.091 58.6428 117.789 55.9453 118.181C54.3226 118.417 52.9657 118.417 52.9299 118.181L52.9309 118.181Z" fill="black"/>
</svg>
