<svg width="1336" height="170" viewBox="0 0 1336 170" fill="none" xmlns="http://www.w3.org/2000/svg">
<path d="M102.797 162.975C102.271 113.868 102.172 112.366 99.4369 111.838C97.589 111.482 96.7699 112.294 96.7699 114.483C96.7699 116.608 95.7892 117.642 93.7735 117.642C91.0068 117.642 90.7438 118.899 90.3444 134.023C89.9349 149.533 89.7354 150.429 86.5929 150.876C83.9464 151.253 83.1745 150.481 82.7829 147.067C82.4331 144.017 81.3331 142.649 78.9608 142.311C75.5261 141.822 75.0299 139.825 73.398 119.928C72.9261 114.174 72.8838 114.243 72.6419 121.177C72.4088 127.861 72.0776 128.477 68.9567 128.034C66.1062 127.629 65.4486 126.454 65.0591 121.071C64.4607 112.802 61.7177 112.577 61.7177 120.796C61.7177 126.355 61.3628 126.947 58.2886 126.51C55.005 126.044 54.8241 125.248 54.0231 107.738C53.5631 97.6804 53.0004 92.5376 52.7727 96.309C51.4496 118.228 49.8864 123.737 44.9899 123.737C43.3924 123.737 41.6616 124.423 41.1435 125.261C40.6254 126.099 38.8705 126.785 37.2435 126.785C34.5003 126.785 34.2855 125.604 34.2855 110.531C34.2855 101.592 34.0294 94.563 33.7164 94.9122C33.4035 95.2614 32.7315 99.9553 32.2231 105.343C31.7147 110.731 30.5433 115.606 29.6198 116.176C28.6963 116.747 28.0576 120.567 28.2005 124.666C28.3434 128.765 28.3993 137.09 28.3248 143.166C28.2038 153.039 27.875 154.213 25.2313 154.213C23.6044 154.213 21.8494 154.899 21.3314 155.737C20.8136 156.575 19.0584 157.261 17.4314 157.261C15.156 157.261 14.4733 156.199 14.4733 152.657C14.4733 149.257 13.5025 147.611 10.7604 146.361C5.49485 143.963 2.58464 145.631 1.86619 151.459C1.52462 154.231 1.13524 126.23 1.00109 89.234C0.734977 15.8292 0.222102 20.1191 9.26393 20.1191C11.2909 20.1191 12.9493 19.4334 12.9493 18.5953C12.9493 17.7572 15.3041 17.0714 18.1821 17.0714C22.7577 17.0714 23.4755 17.5977 23.8971 21.2619C24.3562 25.2533 24.7233 25.4306 31.6184 24.9951C37.4866 24.6244 38.8575 25.009 38.8575 27.0268C38.8575 31.6371 42.6626 28.315 43.1568 23.2733C43.5853 18.9007 44.1053 18.3691 47.3478 18.9889C49.8012 19.4578 51.0496 18.9968 51.0496 17.6221C51.0496 16.4252 52.6614 15.5477 54.8596 15.5477C56.9551 15.5477 58.6696 16.2334 58.6696 17.0714C58.6696 17.9095 60.0412 18.5953 61.7176 18.5953C64.4754 18.5953 64.7657 19.6111 64.7657 29.2619C64.7657 35.1285 65.3781 39.9285 66.1266 39.9285C68.0638 39.9285 69.3377 35.9495 69.3377 29.8991C69.3377 26.2851 70.0376 24.6905 71.6237 24.6905C73.2747 24.6905 73.9097 22.9974 73.9097 18.5953C73.9097 13.1096 74.2907 12.5 77.7198 12.5C81.2758 12.5 81.5298 13.008 81.5298 20.1191C81.5298 26.6633 81.95 27.738 84.5088 27.738C86.7136 27.738 87.751 29.1411 88.5008 33.1377C90.2292 42.3493 92.9269 38.2639 93.405 25.711C93.8286 14.5879 94.0229 14.0239 97.4293 14.0239C101.31 14.0239 101.921 15.95 103.837 34.2142C104.672 42.1689 105.09 42.9761 108.383 42.9761C111.8 42.9761 112.01 42.4466 112.01 33.8332C112.01 26.7222 112.518 24.6905 114.296 24.6905C116.074 24.6905 116.582 22.6587 116.582 15.5477C116.582 6.81119 116.751 6.40484 120.392 6.40484C123.73 6.40484 124.202 7.06515 124.202 11.7381C124.202 14.6715 124.769 17.0714 125.462 17.0714C126.155 17.0714 127.687 26.8428 128.865 38.7856C130.754 57.9191 131.131 59.5943 132.044 52.8808C132.613 48.6903 133.139 38.9189 133.213 31.1666C133.344 17.2819 133.402 17.0714 137.06 17.0714C140.107 17.0714 140.883 17.9596 141.388 22.0238C141.765 25.0647 142.097 23.5944 142.246 18.2143C142.476 9.94923 142.706 9.45245 146.3 9.45245C149.639 9.45245 150.11 10.1128 150.11 14.7858C150.11 17.7191 150.796 20.1191 151.634 20.1191C152.473 20.1191 153.158 21.1476 153.158 22.4047C153.158 23.6746 154.513 24.6905 156.206 24.6905C158.273 24.6905 159.254 23.6746 159.254 21.5369C159.254 16.8638 165.669 18.2065 167.041 23.1666C167.841 26.0599 168.131 25.2354 168.247 19.7381C168.386 13.0739 168.7 12.5 172.208 12.5C175.871 12.5 176.028 12.8986 176.275 22.7857C176.432 29.0938 176.736 30.7143 177.062 26.9761C177.962 16.6417 178.953 14.0239 181.965 14.0239C184.669 14.0239 185.852 19.5923 187.327 39.2692C187.394 40.1637 188.624 42.0741 190.062 43.5146C192.53 45.9887 192.699 45.2667 193.11 30.4596C193.522 15.6118 193.722 14.7606 196.908 14.3075C200.093 13.8544 200.298 14.4574 200.792 25.7359L201.313 37.6428L201.62 25.0714C201.92 12.7596 202.005 12.5 205.737 12.5C209.377 12.5 209.547 12.9064 209.547 21.6428C209.547 26.7222 210.224 30.7857 211.071 30.7857C211.909 30.7857 212.595 29.3285 212.595 27.5476C212.595 24.7403 213.222 24.435 217.312 25.2528C221.215 26.0333 222.17 25.658 222.845 23.0776C224.104 18.2636 229.994 19.7773 230.603 25.0714C230.982 28.3628 231.881 29.2619 234.794 29.2619C236.834 29.2619 238.503 28.5761 238.503 27.738C238.503 26.9 239.91 26.2143 241.63 26.2143C243.745 26.2143 245.281 27.7165 246.376 30.8549C248.963 38.2748 251.414 35.3203 251.908 24.1881C252.336 14.5349 252.546 14.0239 256.099 14.0239C259.617 14.0239 259.839 14.5226 259.839 22.4047C259.839 29.6948 260.225 30.7857 262.808 30.7857C265.301 30.7857 265.865 32.0646 266.336 38.7856L266.895 46.7856L267.177 37.2618C267.332 32.0238 268.145 27.738 268.983 27.738C269.821 27.738 270.507 26.3666 270.507 24.6905C270.507 22.4555 271.523 21.6428 274.317 21.6428C277.535 21.6428 278.127 22.354 278.127 26.2143C278.127 30.0745 278.72 30.7857 281.937 30.7857C285.377 30.7857 285.747 30.1832 285.747 24.5845C285.747 19.0252 286.102 18.4337 289.176 18.8702C292.164 19.2944 292.665 20.3877 293.066 27.3571C293.549 35.75 296.415 38.6838 296.415 30.7857C296.415 26.9254 297.008 26.2143 300.225 26.2143C303.425 26.2143 304.036 26.9318 304.036 30.6899C304.036 34.9538 304.288 35.1245 309.37 34.3C314.514 33.4652 314.704 33.604 314.704 38.2053C314.704 41.4301 315.444 42.9761 316.99 42.9761C318.683 42.9761 319.276 41.1983 319.276 36.119C319.276 32.3476 319.961 29.2619 320.8 29.2619C321.638 29.2619 322.324 28.2333 322.324 26.9761C322.324 25.5539 323.763 24.6905 326.134 24.6905C329.812 24.6905 329.944 25.0376 329.944 34.7221C329.944 42.0684 330.454 44.5848 331.849 44.1224C333.156 43.6892 333.891 38.8654 334.19 28.7574C334.591 15.1952 334.868 14.0239 337.668 14.0239C339.398 14.0239 341.304 15.5023 342.088 17.4524C342.846 19.3381 343.51 20.0238 343.563 18.9762C343.616 17.9286 345.55 17.0714 347.861 17.0714C351.426 17.0714 352.349 17.9902 353.957 23.1426C354.999 26.4818 355.879 30.4247 355.912 31.9045C355.948 33.5402 356.779 32.7408 358.03 29.8658C359.662 26.1184 361.512 24.7783 366.943 23.4108C370.713 22.4617 374.196 20.6471 374.683 19.3783C375.17 18.1095 377.304 17.0714 379.426 17.0714C382.983 17.0714 383.284 16.5354 383.284 10.2144C383.284 3.91598 383.595 3.35726 387.094 3.35726C389.865 3.35726 390.904 4.17351 390.904 6.35123C390.904 7.99792 392.25 10.0655 393.895 10.9459C395.72 11.9221 396.534 13.4646 395.984 14.8999C395.385 16.4605 396.174 17.5392 398.326 18.102C400.831 18.757 401.572 20.1274 401.572 24.1063C401.572 26.9418 402.258 29.2619 403.096 29.2619C403.934 29.2619 404.62 28.5761 404.62 27.738C404.62 26.9 405.649 26.2143 406.906 26.2143C408.503 26.2143 409.192 24.6058 409.192 20.881C409.192 16.5635 409.773 15.5477 412.24 15.5477C413.917 15.5477 415.288 16.2334 415.288 17.0714C415.288 17.9095 416.317 18.5953 417.574 18.5953C419.098 18.5953 419.86 20.119 419.86 23.1666C419.86 26.2142 420.622 27.738 422.146 27.738C423.569 27.738 424.432 26.2989 424.432 23.9286C424.432 21.1349 425.245 20.1191 427.48 20.1191C429.948 20.1191 430.528 21.1349 430.528 25.4524C430.528 30.1254 431 30.7857 434.338 30.7857C437.387 30.7857 438.149 31.5476 438.149 34.5952C438.149 36.6904 439.006 38.3928 440.054 38.3783C443.054 38.3366 448.817 31.4492 448.817 27.9042C448.817 25.5175 449.769 24.6905 452.517 24.6905C455.859 24.6905 456.319 25.5013 457.265 33.0713C458.117 39.8952 458.846 41.4523 461.184 41.4523C463.519 41.4523 464.057 40.3122 464.057 35.3571C464.057 30.955 464.692 29.2619 466.343 29.2619C468.098 29.2619 468.629 27.3148 468.629 20.881V12.5H474.725C478.078 12.5 480.821 11.8143 480.821 10.9762C480.821 10.1382 482.535 9.45245 484.631 9.45245C488.143 9.45245 488.45 10.0179 488.561 16.6905C488.627 20.6714 489.027 23.0714 489.45 22.0238C489.873 20.9762 491.502 20.1191 493.071 20.1191C495.124 20.1191 496.203 21.6136 496.924 25.4524C497.975 31.0563 500.633 32.8278 500.633 27.9246C500.633 23.8227 504.531 21.1432 508.902 22.2402C510.957 22.7559 513.064 22.4896 513.584 21.6484C515.06 19.2607 520.445 19.8543 520.445 22.4047C520.445 23.6619 521.474 24.6904 522.731 24.6904C524.154 24.6904 525.017 23.2513 525.017 20.8809C525.017 17.8333 525.779 17.0714 528.827 17.0714C531.198 17.0714 532.637 17.9349 532.637 19.3571C532.637 20.7521 534.058 21.6428 536.284 21.6428C538.29 21.6428 540.326 20.6143 540.808 19.3571C541.291 18.1 543.033 17.0714 544.68 17.0714C546.814 17.0714 547.813 15.8671 548.157 12.881C548.502 9.8806 549.613 8.55224 552.068 8.20359C555.334 7.73985 555.512 8.24729 555.796 18.8702L556.094 30.0237L556.627 19.7381C557.124 10.1507 557.401 9.45243 560.694 9.45243C563.742 9.45243 564.36 10.4233 565.196 16.5222C565.729 20.4106 566.165 27.2677 566.165 31.7602C566.165 38.005 566.704 39.9284 568.451 39.9284C569.709 39.9284 570.656 39.4141 570.557 38.7856C569.842 34.2574 571.052 29.2618 572.863 29.2618C575.009 29.2618 576.103 24.6233 577.805 8.30957C578.557 1.10525 579.005 0.309621 582.309 0.309621C585.581 0.309621 585.997 1.00909 586.154 6.78578C586.252 10.3477 586.645 12.0619 587.028 10.5953C587.411 9.12863 589.046 7.92864 590.661 7.92864C593.769 7.92864 594.048 9.0374 593.624 19.7381C593.475 23.5018 594.054 26.2142 595.006 26.2142C595.908 26.2142 596.646 28.3203 596.646 30.8945C596.646 35.0547 596.9 35.3208 598.932 33.289C600.462 31.7593 601.218 27.9436 601.218 21.7517C601.218 12.8991 601.382 12.5 605.028 12.5C608.245 12.5 608.838 13.2111 608.838 17.0714C608.838 20.119 609.6 21.6428 611.124 21.6428C612.381 21.6428 613.41 20.6143 613.41 19.3571C613.41 17.9349 614.849 17.0714 617.22 17.0714C620.712 17.0714 621.052 17.6758 621.296 24.3095L621.562 31.5475L622.146 25.0714C622.654 19.428 623.196 18.5952 626.359 18.5952C629.453 18.5952 630.06 19.4386 630.463 24.2968C630.817 28.5687 631.696 30.1427 633.968 30.574C637.97 31.3338 641.64 36.7466 641.075 41.0557C640.827 42.95 641.359 44.4998 642.257 44.4998C643.155 44.4998 643.89 42.7856 643.89 40.6903C643.89 38.5951 644.576 36.8808 645.414 36.8808C646.303 36.8808 646.938 31.8015 646.938 24.6904C646.938 12.7032 647.004 12.5 650.748 12.5C653.796 12.5 654.558 13.2619 654.558 16.3095C654.558 18.6799 655.422 20.119 656.844 20.119C658.482 20.119 659.13 21.7899 659.13 26.0136C659.13 31.7864 659.263 31.9259 665.538 32.7676C669.063 33.2403 672.492 33.2901 673.159 32.8784C673.825 32.4665 674.37 27.3701 674.37 21.5529C674.37 11.4354 674.527 10.9762 677.99 10.9762C681.839 10.9762 683.514 15.2796 683.514 25.1683V29.8365L686.622 26.5016C690.853 21.9609 701.802 21.6888 701.802 26.1243C701.802 27.751 702.488 29.5057 703.326 30.0237C704.165 30.5417 704.85 29.5535 704.85 27.8279C704.85 25.4971 705.83 24.6904 708.66 24.6904C711.732 24.6904 712.47 25.4463 712.47 28.5899C712.47 30.9639 713.106 32.0963 714.096 31.4847C714.99 30.9323 715.62 26.6061 715.495 21.8711C715.153 8.84734 715.319 7.92861 718.017 7.92861C721.627 7.92861 724.558 12.4986 724.614 18.2143C724.654 22.468 725.2 23.1666 728.473 23.1666C731.69 23.1666 732.283 23.8777 732.283 27.738C732.283 31.7843 732.799 32.3094 736.779 32.3094C741.183 32.3094 741.284 32.1309 741.732 23.5476C742.136 15.7858 742.58 14.7301 745.618 14.2988C748.915 13.8306 749.047 14.2564 749.047 25.3463C749.047 32.0201 749.689 36.8808 750.571 36.8808C751.43 36.8808 752.095 32.5634 752.095 26.9761C752.095 17.8716 752.358 17.0714 755.356 17.0714C757.149 17.0714 759.378 18.0907 760.309 19.3366C761.239 20.5824 764.291 22.0518 767.089 22.6018C772.092 23.5849 772.173 23.5145 771.888 18.4318C771.431 10.2852 771.716 9.4524 774.955 9.4524C778.342 9.4524 778.334 9.41862 778.018 22.7857C777.879 28.6687 778.415 32.3094 779.422 32.3094C780.318 32.3094 781.051 33.338 781.051 34.5951C781.051 35.8522 781.737 36.8808 782.575 36.8808C783.413 36.8808 784.099 34.8237 784.099 32.3094C784.099 28.4491 784.692 27.738 787.909 27.738C790.957 27.738 791.719 28.4999 791.719 31.5475C791.719 33.9179 792.583 35.357 794.005 35.357C795.425 35.357 796.291 33.9199 796.291 31.5655C796.291 28.3204 797.17 27.6336 802.387 26.7993C806.981 26.0648 808.483 25.1219 808.483 22.9719C808.483 16.2899 818.985 21.4847 819.103 28.2249C819.136 30.2185 820.115 30.8607 822.58 30.5106C825.66 30.0733 826.055 29.0538 826.463 20.4999C826.712 15.2619 827.514 10.9762 828.243 10.9762C832.198 10.9762 834.391 13.2244 834.391 17.2769V21.7277L844.166 20.7264C853.546 19.7655 853.961 19.8663 854.453 23.2313C854.735 25.1596 855.823 27.0197 856.871 27.3647C858.295 27.8339 858.776 24.6948 858.776 14.9127C858.776 1.97731 858.815 1.83339 862.586 1.83339C866.351 1.83339 866.396 1.98579 866.396 14.7857C866.396 22.4047 867.023 27.738 867.92 27.738C868.758 27.738 869.444 24.9952 869.444 21.6428C869.444 15.9363 869.725 15.5476 873.853 15.5476C879.141 15.5476 880.112 17.5763 880.112 28.6245C880.112 35.8649 880.487 36.8808 883.16 36.8808C885.627 36.8808 886.208 35.8649 886.208 31.5475C886.208 27.8227 886.897 26.2142 888.494 26.2142C890.291 26.2142 890.78 24.0978 890.78 16.3095C890.78 6.76034 890.916 6.40479 894.59 6.40479C898.089 6.40479 898.4 6.96352 898.4 13.2619C898.4 18.3412 898.993 20.119 900.686 20.119C902.331 20.119 903.023 21.9349 903.153 26.5952L903.334 33.0713L904.793 25.0713C906.079 18.0224 906.691 17.0714 909.946 17.0714C913.034 17.0714 913.64 17.8209 913.64 21.6428C913.64 24.1571 914.275 26.2142 915.052 26.2142C915.829 26.2142 916.778 27.4142 917.161 28.8809C917.545 30.3475 917.938 24.8618 918.035 16.6905C918.211 1.90594 918.23 1.83339 922.022 1.83339C925.581 1.83339 925.832 2.33814 925.832 9.50023C925.832 14.9095 926.505 17.4253 928.118 18.0441C929.608 18.616 930.404 20.9861 930.404 24.8534C930.404 29.1106 931.049 30.7856 932.69 30.7856C933.947 30.7856 934.976 31.8142 934.976 33.0713C934.976 34.3284 935.662 35.357 936.5 35.357C937.338 35.357 938.024 32.6546 938.024 29.3517C938.024 26.0488 938.776 22.8819 939.694 22.3142C940.613 21.7465 941.075 19.306 940.72 16.891C940.12 12.803 940.426 12.5 945.146 12.5C949.538 12.5 950.216 11.9906 950.216 8.69051C950.216 5.6429 950.978 4.881 954.026 4.881C957.111 4.881 957.836 5.63338 957.836 8.83315C957.836 11.5038 958.824 13.0437 960.884 13.5823C963.043 14.1468 963.932 15.6608 963.932 18.7729C963.932 21.1894 964.618 23.1666 965.456 23.1666C966.294 23.1666 966.98 26.2118 966.98 29.9338C966.98 33.6557 967.666 37.1248 968.504 37.6427C969.342 38.1607 970.028 39.6012 970.028 40.8439C970.028 42.0867 971.4 44.5755 973.076 46.3746L976.124 49.6459V33.3586V17.0714H979.934C982.834 17.0714 983.773 17.8908 983.865 20.4999C983.931 22.3856 984.332 23.0671 984.757 22.0143C985.181 20.9614 986.161 20.4906 986.933 20.968C987.706 21.4454 988.749 20.7639 989.252 19.4537C990.182 17.0317 995.251 16.3193 999.622 17.9963C1001.05 18.5448 1002.03 20.7155 1002.03 23.3296C1002.03 26.1679 1002.82 27.738 1004.25 27.738C1005.89 27.738 1006.6 30.1995 1007 37.2618C1007.51 46.2016 1007.56 46.0267 1007.83 34.4089L1008.13 22.0323L1014.22 21.0577C1019.69 20.183 1020.32 19.634 1020.32 15.7073C1020.32 12.4577 1021.2 11.0952 1023.75 10.4128C1031.09 8.44679 1032.51 9.15832 1032.51 14.7857C1032.51 18.5105 1033.2 20.119 1034.8 20.119C1036.06 20.119 1037.08 20.8047 1037.08 21.6428C1037.08 22.4809 1037.77 23.1666 1038.61 23.1666C1039.45 23.1666 1040.13 21.1095 1040.13 18.5952C1040.13 14.7349 1040.73 14.0238 1043.94 14.0238C1046.74 14.0238 1047.75 14.8365 1047.75 17.0714C1047.75 18.7476 1048.44 20.119 1049.28 20.119C1050.11 20.119 1050.8 19.4333 1050.8 18.5952C1050.8 17.7571 1052.52 17.0714 1054.61 17.0714C1057.83 17.0714 1058.42 17.7825 1058.42 21.6428C1058.42 24.1571 1059.11 26.2142 1059.94 26.2142C1060.78 26.2142 1061.47 23.1285 1061.47 19.3571C1061.47 13.0587 1061.78 12.5 1065.28 12.5C1068.95 12.5 1069.09 12.8555 1069.09 22.4047C1069.09 30.193 1069.58 32.3094 1071.37 32.3094C1073.17 32.3094 1073.66 30.193 1073.66 22.4047C1073.66 12.8556 1073.8 12.5 1077.47 12.5C1080.97 12.5 1081.28 13.0587 1081.28 19.3571C1081.28 25.1009 1081.76 26.2142 1084.2 26.2142C1089.75 26.2142 1091.95 24.4384 1091.95 19.956C1091.95 16.2696 1092.57 15.5476 1095.76 15.5476C1098.55 15.5476 1099.57 16.3603 1099.57 18.5952C1099.57 20.2883 1100.58 21.6428 1101.85 21.6428C1103.11 21.6428 1104.14 22.7119 1104.14 24.0185C1104.14 25.3251 1104.83 25.9703 1105.66 25.4523C1106.5 24.9343 1107.19 23.1796 1107.19 21.5529C1107.19 19.6466 1108.23 18.5952 1110.13 18.5952C1112.02 18.5952 1113.25 17.37 1113.56 15.1667C1113.94 12.4812 1115.04 11.7381 1118.62 11.7381C1121.16 11.7381 1123.28 12.5847 1123.38 13.6428C1123.49 14.6905 1123.66 17.2619 1123.76 19.3571C1124.07 25.6045 1128.52 24.1806 1128.52 17.8333C1128.52 13.6383 1129.13 12.5 1131.38 12.5C1133.65 12.5 1134.43 14.0543 1135.25 20.1688C1136.16 27.0581 1136.5 27.6001 1138.6 25.5021C1139.88 24.2175 1142.12 23.1666 1143.57 23.1666C1147.63 23.1666 1154.27 26.7151 1154.97 29.2618C1155.45 30.9859 1155.65 30.8923 1155.78 28.8809C1155.89 27.289 1157.19 26.2142 1159.01 26.2142C1160.7 26.2142 1162.05 25.1983 1162.05 23.9285C1162.05 22.5063 1163.49 21.6428 1165.86 21.6428C1169.29 21.6428 1169.67 21.0333 1169.67 15.5476C1169.67 10.0619 1170.05 9.4524 1173.48 9.4524C1177.12 9.4524 1177.29 9.85876 1177.29 18.5952C1177.29 27.6941 1177.31 27.738 1181.77 27.738C1185.68 27.738 1186.32 28.3669 1186.86 32.6904C1187.2 35.4142 1187.58 33.3355 1187.72 28.0711C1187.99 17.4 1190.02 15.2104 1196.45 18.6502C1199.04 20.0389 1200.22 22.0425 1200.36 25.3288C1200.52 28.9183 1200.72 29.2165 1201.23 26.5952C1201.7 24.1612 1202.96 23.1666 1205.59 23.1666C1209.19 23.1666 1209.31 23.5244 1209.6 35.7379L1209.91 48.3093L1210.43 36.4998C1210.72 30.0046 1211.61 24.6904 1212.41 24.6904C1213.21 24.6904 1213.87 22.9761 1213.87 20.8809C1213.87 17.664 1214.58 17.0714 1218.44 17.0714C1220.96 17.0714 1223.01 16.3857 1223.01 15.5476C1223.01 13.1945 1228.68 13.7468 1229.62 16.1913C1230.07 17.3834 1232.03 18.5834 1233.97 18.8579C1236.93 19.2772 1237.57 20.3942 1237.96 25.8332C1238.42 32.2222 1241.3 35.1763 1241.3 29.2618C1241.3 27.5687 1242.32 26.2142 1243.59 26.2142C1245.28 26.2142 1245.87 24.4364 1245.87 19.3571C1245.87 13.0587 1246.19 12.5 1249.68 12.5C1252.73 12.5 1253.49 13.2619 1253.49 16.3095C1253.49 19.0479 1254.32 20.119 1256.42 20.119C1258.02 20.119 1259.69 20.9761 1260.12 22.0237C1260.59 23.1666 1261.33 22.5252 1261.97 20.42C1262.72 17.955 1264 17.0486 1266.27 17.3724C1268.92 17.7505 1269.66 19.201 1270.4 25.4523C1270.9 29.6427 1271.41 31.4485 1271.54 29.4651C1271.74 26.4808 1272.44 25.9845 1275.59 26.5871C1279.31 27.2969 1279.4 27.0891 1279.4 18.3839C1279.4 9.98074 1279.62 9.45235 1283.05 9.45235C1287.5 9.45235 1288.28 12.0476 1288.69 28.1189C1288.91 36.8862 1289.52 39.9284 1291.06 39.9284C1292.24 39.9284 1293.21 41.721 1293.34 44.1188C1293.78 52.2583 1295.84 29.8225 1296 15.1666C1296.17 0.379058 1296.18 0.30957 1299.98 0.30957C1302.07 0.30957 1303.79 0.94754 1303.79 1.72738C1303.79 2.50719 1305.33 3.36433 1307.22 3.63213C1310.43 4.08905 1310.67 4.94054 1311.09 17.4523C1311.33 24.7856 1312.18 30.7856 1312.99 30.7856C1313.8 30.7856 1314.45 28.3856 1314.45 25.4523C1314.45 20.8283 1314.94 20.119 1318.14 20.119C1320.16 20.119 1322.17 20.9761 1322.59 22.0237C1323.01 23.0713 1323.41 19.9379 1323.48 15.0606C1323.59 6.76481 1323.82 6.22422 1327.03 6.67974C1330.31 7.14507 1330.5 7.97718 1331.39 25.4523C1331.91 35.5093 1332.42 44.9784 1332.54 46.4945C1332.66 48.1769 1333.43 48.8239 1334.52 48.1549C1335.86 47.3273 1336.04 54.6772 1335.28 78.16C1334.73 95.2657 1334.27 117.383 1334.27 127.309C1334.27 144.262 1334.08 145.406 1331.12 146.179C1328.71 146.809 1328.03 148.114 1328.23 151.75C1328.96 165.422 1328.25 169.451 1325.12 169.451C1322.66 169.451 1322.08 168.436 1322.08 164.118C1322.08 159.801 1321.49 158.785 1319.03 158.785C1316.27 158.785 1315.98 157.769 1315.98 148.118C1315.98 139.653 1315.51 137.452 1313.69 137.452C1312.44 137.452 1311.41 138.48 1311.41 139.737C1311.41 140.994 1310.72 142.023 1309.88 142.023C1309.04 142.023 1308.36 144.335 1308.36 147.162C1308.36 151.991 1307.99 152.36 1302.17 153.29C1298.77 153.834 1295.34 153.881 1294.55 153.394C1293.76 152.908 1293.12 149.465 1293.12 145.743C1293.12 139.991 1292.66 138.975 1290.07 138.975C1288.38 138.975 1287.02 137.96 1287.02 136.69C1287.02 135.267 1285.58 134.404 1283.21 134.404C1279.49 134.404 1279.4 134.15 1279.4 122.975C1279.4 115.864 1278.79 111.547 1277.77 111.547C1274.52 111.547 1271.78 116.018 1271.78 121.343C1271.78 125.712 1271.2 126.785 1268.83 126.785C1266.45 126.785 1265.69 125.365 1264.92 119.547C1263.4 107.996 1263 107.232 1262.82 115.5C1262.72 119.77 1262.19 130.57 1261.64 139.5C1260.72 154.664 1260.44 155.736 1257.45 155.725C1254.1 155.713 1250.54 150.062 1250.33 144.386C1250.26 142.667 1249.86 142.118 1249.44 143.166C1249.01 144.213 1247.35 145.071 1245.75 145.071C1243.61 145.071 1242.83 143.997 1242.83 141.083C1242.83 137.692 1242.31 137.233 1239.4 138.015C1237.51 138.52 1235.11 138.943 1234.06 138.955C1233.02 138.966 1232.16 140.347 1232.16 142.023C1232.16 145.255 1227.06 146.389 1225.3 143.547C1224.78 142.709 1222.77 142.023 1220.83 142.023C1218.13 142.023 1217.09 140.952 1216.38 137.452C1215.88 134.937 1214.77 132.88 1213.91 132.88C1213.05 132.88 1212.35 134.937 1212.35 137.452C1212.35 141.312 1211.75 142.023 1208.54 142.023H1204.73V126.023V110.023H1200.92C1197.13 110.023 1197.11 110.125 1197.11 123.737C1197.11 136.33 1196.86 137.452 1194.13 137.452C1191.93 137.452 1190.89 138.85 1190.15 142.785C1189.34 147.112 1188.46 148.118 1185.51 148.118C1183.14 148.118 1181.78 149.054 1181.63 150.785C1181.51 152.252 1181.24 154.137 1181.05 154.975C1180.85 155.813 1180.61 157.699 1180.52 159.166C1180.41 160.758 1179.11 161.832 1177.29 161.832C1174.06 161.832 1173.79 160.802 1174.22 150.023C1174.42 145.036 1173.92 143.547 1172.07 143.547C1170.28 143.547 1169.67 145.12 1169.67 149.748C1169.67 155.307 1169.32 155.899 1166.24 155.462C1163.19 155.028 1162.73 153.909 1162.05 145.071C1161.6 139.225 1160.79 135.947 1160.06 137.071C1159.38 138.118 1157.59 138.975 1156.09 138.975C1153.74 138.975 1153.22 140.771 1152.5 151.377C1151.67 163.452 1150.36 166.323 1145.67 166.38C1144.56 166.394 1143.77 164.477 1143.77 161.785C1143.77 159.084 1142.82 156.801 1141.48 156.288C1139.84 155.659 1139.19 153.092 1139.19 147.193C1139.19 139.991 1138.82 138.975 1136.15 138.975C1134.47 138.975 1133.1 138.311 1133.1 137.499C1133.1 136.688 1132.07 136.418 1130.81 136.901C1129.26 137.496 1128.53 139.927 1128.53 144.472C1128.53 150.596 1128.2 151.166 1124.72 151.166C1121.5 151.166 1120.91 150.455 1120.91 146.594C1120.91 142.801 1120.29 142.023 1117.29 142.023C1114.31 142.023 1113.52 141.038 1112.74 136.309C1112.22 133.166 1111.79 128.406 1111.78 125.732C1111.76 123.058 1111.08 120.446 1110.24 119.928C1109.27 119.33 1108.71 123.468 1108.71 131.266C1108.71 143.214 1108.61 143.547 1105.05 143.547C1102.11 143.547 1101.1 142.427 1099.88 137.833L1098.36 132.118L1098.2 140.118C1098.07 147.05 1097.64 148.118 1095 148.118C1092.76 148.118 1091.95 149.134 1091.95 151.928C1091.95 154.975 1091.19 155.737 1088.14 155.737C1084.44 155.737 1084.33 155.432 1084.33 145.071C1084.33 136.969 1083.82 134.404 1082.21 134.404C1079.75 134.404 1078.23 137.649 1078.23 142.91C1078.23 145.824 1077.44 146.594 1074.42 146.594C1072.15 146.594 1070.61 145.722 1070.61 144.436C1070.61 143.248 1069.91 142.042 1069.04 141.754C1068.18 141.466 1067.32 136.948 1067.14 131.712C1066.7 119.388 1063.86 119.341 1063.42 131.651C1062.99 143.695 1062.41 145.071 1057.71 145.071C1054.01 145.071 1053.85 144.694 1053.85 135.928C1053.85 130.848 1053.17 126.785 1052.33 126.785C1051.48 126.785 1050.8 130.848 1050.8 135.928C1050.8 143.925 1050.44 145.071 1047.88 145.071C1042.64 145.071 1040.13 143.29 1040.13 139.574C1040.13 137.349 1039.24 135.928 1037.85 135.928C1036.34 135.928 1035.56 137.432 1035.56 140.321C1035.56 143.59 1034.68 144.95 1032.13 145.634C1023.46 147.959 1023.37 147.819 1023.37 131.371C1023.37 116.294 1023.34 116.173 1020.32 118.758C1018.63 120.205 1017.27 123.253 1017.27 125.6C1017.27 127.928 1016.59 129.833 1015.75 129.833C1014.91 129.833 1014.23 133.548 1014.23 138.089C1014.23 142.63 1013.81 147.43 1013.3 148.755C1011.93 152.331 1006.61 151.825 1006.61 148.118C1006.61 146.086 1005.59 145.071 1003.56 145.071C1001.19 145.071 1000.51 146.086 1000.51 149.642C1000.51 155.542 996.393 155.777 990.811 150.196C987.523 146.909 986.743 144.624 986.518 137.625L986.243 129.071L985.672 136.309C985.159 142.815 984.725 143.547 981.375 143.547C977.874 143.547 977.649 143.04 977.649 135.166C977.649 128.732 977.117 126.785 975.363 126.785C973.548 126.785 973.077 128.986 973.077 137.452C973.077 147.813 972.968 148.118 969.267 148.118C965.902 148.118 965.457 148.765 965.457 153.651C965.457 159.159 965.437 159.18 959.934 158.287C956.896 157.795 954.191 157.172 953.923 156.904C953.656 156.636 953.304 150.418 953.142 143.086C952.771 126.237 950.216 123.9 950.216 140.409V152.69H935.738H921.26V143.547C921.26 135.323 920.944 134.404 918.113 134.404C915.202 134.404 914.981 135.235 915.176 145.452C915.293 151.528 915.337 157.699 915.276 159.166C915.137 162.488 909.742 162.724 906.565 159.547C905.308 158.29 902.613 157.261 900.578 157.261C897.481 157.261 896.877 156.514 896.877 152.69C896.877 149.215 896.182 148.118 893.982 148.118C890.74 148.118 889.332 140.97 889.39 124.808C889.41 119.949 888.87 112.749 888.196 108.808C887.039 102.045 886.928 102.412 886.208 115.356C885.498 128.149 885.216 129.103 882.017 129.558C879.765 129.877 878.588 131.092 878.588 133.095C878.588 134.773 877.56 137.174 876.302 138.431C875.045 139.688 874.016 142.382 874.016 144.418C874.016 147.102 873.18 148.118 870.968 148.118C869.275 148.118 867.92 147.102 867.92 145.832C867.92 144.575 867.234 143.547 866.396 143.547C865.558 143.547 864.872 144.575 864.872 145.832C864.872 147.255 863.433 148.118 861.062 148.118C857.724 148.118 857.252 148.778 857.252 153.451C857.252 158.124 856.781 158.785 853.442 158.785C849.943 158.785 849.632 158.226 849.632 151.928C849.632 146.848 849.039 145.071 847.346 145.071C845.75 145.071 845.06 143.462 845.06 139.737C845.06 136.012 844.371 134.404 842.774 134.404C841.517 134.404 840.488 135.433 840.488 136.69C840.488 139.998 833.27 139.659 832.394 136.309C832.011 134.842 831.618 136.556 831.521 140.118C831.423 143.68 830.706 146.594 829.926 146.594C829.146 146.594 828.289 148.137 828.021 150.023C827.708 152.226 826.309 153.625 824.105 153.938C820.778 154.411 820.676 154.037 820.676 141.367V128.309H816.104H811.532V140.336C811.532 149.925 811.04 152.552 809.108 153.294C804.982 154.877 803.912 152.841 803.912 143.409C803.912 136.27 803.357 134.095 801.336 133.32C799.898 132.768 798.496 133.126 798.161 134.13C797.832 135.119 796.59 135.928 795.403 135.928C793.746 135.928 793.244 138.408 793.244 146.594C793.244 156.956 793.135 157.261 789.434 157.261C785.652 157.261 785.624 157.159 785.624 143.547C785.624 129.934 785.597 129.833 781.813 129.833C778.211 129.833 778.004 130.29 778.004 138.214C778.004 142.823 777.318 146.594 776.479 146.594C775.641 146.594 774.955 147.623 774.955 148.88C774.955 150.302 773.516 151.166 771.145 151.166C768.351 151.166 767.335 150.353 767.335 148.118C767.335 145.883 766.319 145.071 763.525 145.071C759.839 145.071 759.706 144.713 759.422 134.023L759.128 122.976L758.587 132.499C758.084 141.349 757.791 142.023 754.436 142.023C752.45 142.023 750.478 141.166 750.052 140.118C749.45 138.634 748.961 138.667 747.838 140.268C745.444 143.68 740.719 141.698 740.183 137.058C739.805 133.78 738.902 132.88 735.992 132.88C732.613 132.88 732.283 132.272 732.283 126.023C732.283 120.944 731.69 119.166 729.997 119.166C728.104 119.166 727.711 122.044 727.711 135.928C727.711 152.534 727.678 152.69 724.108 152.69C720.978 152.69 720.379 151.763 719.536 145.62C719.004 141.731 718.567 136.246 718.567 133.429C718.567 130.613 717.881 128.309 717.043 128.309C716.205 128.309 715.519 129.691 715.519 131.38C715.519 137.51 711.769 146.594 709.239 146.594C707.869 146.594 705.866 147.658 704.787 148.957C703.696 150.272 701.078 151.117 698.886 150.862C695.664 150.488 694.806 149.431 694.183 145.071C693.269 138.672 688.087 136.873 688.087 142.954C688.087 144.956 687.401 146.594 686.563 146.594C685.692 146.594 685.039 151.166 685.039 157.261C685.039 167.623 684.93 167.928 681.229 167.928C677.556 167.928 677.419 167.572 677.419 158.023C677.419 148.565 677.253 148.118 673.736 148.118C671.71 148.118 669.707 147.261 669.284 146.214C668.862 145.166 668.461 146.88 668.395 150.023C668.289 155.07 667.83 155.737 664.465 155.737H660.655V139.737C660.655 130.087 660.05 123.737 659.131 123.737C658.293 123.737 657.607 120.652 657.607 116.88C657.607 111.797 657.015 110.023 655.318 110.023C653.416 110.023 653.051 112.787 653.16 126.361C653.244 136.856 652.701 142.896 651.639 143.25C650.73 143.553 649.987 146.487 649.987 149.769C649.987 155.119 649.592 155.737 646.177 155.737H642.366V135.166C642.366 115.611 642.216 114.595 639.318 114.595C637.083 114.595 636.27 115.611 636.27 118.404C636.27 120.775 635.407 122.214 633.984 122.214C632.155 122.214 631.698 124.499 631.698 133.642C631.698 144.522 631.531 145.071 628.225 145.071C626.314 145.071 623.762 143.699 622.554 142.023C621.346 140.347 619.48 138.975 618.408 138.975C617.335 138.975 616.376 137.433 616.275 135.547C616.167 133.531 615.45 134.788 614.535 138.595C613.093 144.586 612.602 145.071 607.961 145.071C603.658 145.071 602.854 144.474 602.31 140.88C601.951 138.515 601.575 140.088 601.446 144.489L601.218 152.288L594.802 153.149C591.273 153.622 586.473 153.627 584.134 153.16C580.19 152.371 579.882 151.78 579.882 145.005C579.882 140.988 579.466 136.617 578.957 135.291C577.179 130.658 575.31 132.937 575.31 139.738C575.31 146.091 575.021 146.595 571.383 146.595C567.913 146.595 567.488 147.171 567.728 151.547C567.877 154.271 567.929 157.357 567.845 158.404C567.593 161.504 561.883 160.574 560.832 157.262C560.3 155.586 558.539 154.214 556.919 154.214C554.336 154.214 553.974 153.092 553.974 145.071C553.974 139.992 553.297 135.928 552.45 135.928C551.612 135.928 550.926 139.357 550.926 143.547C550.926 150.997 550.824 151.166 546.354 151.166H541.782V136.69V122.214H537.21H532.638V132.029C532.638 137.427 531.935 142.278 531.076 142.808C528.391 144.468 520.446 141.94 520.446 139.426C520.446 137.601 519.374 137.285 515.683 138.023C513.064 138.547 509.678 138.976 508.16 138.976C506.159 138.976 505.267 140.339 504.921 143.928C504.555 147.724 503.643 148.994 501.014 149.367C497.814 149.822 497.585 149.294 497.585 141.457C497.585 136.839 496.9 132.637 496.061 132.119C495.223 131.601 494.537 129.16 494.537 126.695C494.537 123.728 493.765 122.214 492.251 122.214C490.372 122.214 489.965 124.923 489.965 137.452C489.965 146.595 489.356 152.69 488.441 152.69C487.603 152.69 486.917 154.061 486.917 155.738C486.917 158.993 485.469 159.334 477.988 157.838C475.383 157.317 473.597 156.33 474.021 155.644C474.444 154.959 474.34 151.579 473.789 148.132C472.947 142.869 472.27 141.939 469.565 142.325C466.879 142.709 466.299 143.925 466.079 149.642C465.934 153.414 465.762 157.699 465.698 159.166C465.627 160.778 464.375 161.833 462.533 161.833C460.693 161.833 459.436 160.776 459.361 159.166C459.293 157.699 459.122 153.817 458.98 150.538C458.74 144.972 454.913 140.425 454.913 145.706C454.913 147.371 453.496 148.119 450.341 148.119C446.277 148.119 445.769 148.626 445.769 152.69C445.769 156.55 445.176 157.261 441.959 157.261C438.367 157.261 438.149 156.792 438.149 149.058C438.149 142.137 437.673 140.73 435.101 140.058C432.679 139.425 432.053 137.98 432.053 133.023C432.053 126.745 430.123 124.72 428.406 129.196C427.897 130.521 427.481 138.064 427.481 145.957C427.481 160.25 427.466 160.309 423.671 160.309H419.861L419.605 136.309C419.464 123.109 419.079 114.881 418.751 118.023C418.422 121.166 417.508 123.738 416.721 123.738C415.914 123.738 415.289 131.059 415.289 140.5V157.261H411.479H407.669L407.365 134.785L407.061 112.309L406.222 129.833C405.408 146.821 405.272 147.372 401.777 147.867C399.788 148.148 397.829 149.685 397.408 151.295C396.989 152.9 395.451 154.214 393.992 154.214C391.864 154.214 391.145 152.358 390.36 144.847C389.821 139.696 389.38 132.153 389.38 128.086C389.38 121.787 388.943 120.69 386.429 120.69C384.241 120.69 383.319 119.409 382.863 115.738C382.473 112.594 382.159 113.899 382.004 119.313C381.87 124.003 381.315 134.118 380.77 141.789C379.937 153.525 379.368 155.738 377.184 155.738C375.05 155.738 374.412 153.66 373.602 144.079C373.06 137.667 372.616 129.781 372.616 126.555C372.616 123.33 371.931 120.69 371.092 120.69C370.254 120.69 369.568 119.319 369.568 117.643C369.568 115.576 368.552 114.595 366.413 114.595C363.56 114.595 363.279 115.436 363.489 123.357C363.617 128.176 363.666 138.509 363.597 146.32C363.476 160.145 363.381 160.508 360.043 160.034C356.825 159.577 356.587 158.726 356.174 146.214C355.712 132.24 352.804 127.309 352.804 140.5C352.804 147.103 352.398 148.119 349.756 148.119C347.118 148.119 346.684 147.043 346.528 140.119C346.429 135.719 346.429 131.604 346.528 130.976C346.627 130.347 345.445 129.833 343.9 129.833C341.482 129.833 341.047 131.261 340.765 140.119C340.585 145.776 339.963 150.865 339.382 151.429C338.801 151.992 335.754 152.925 332.611 153.503L326.896 154.553V146.002C326.896 138.404 326.549 137.452 323.779 137.452C322.064 137.452 318.947 139.166 316.851 141.261C314.756 143.357 312.338 145.071 311.478 145.071C308.759 145.071 305.831 141.124 305.15 136.542C304.611 132.913 304.448 133.213 304.243 138.214C303.832 148.277 302.556 151.166 298.524 151.166C295.122 151.166 294.88 150.587 294.701 142.023C294.597 136.995 294.339 132.195 294.13 131.357C293.92 130.519 293.663 128.804 293.558 127.547C293.454 126.29 292.682 125.262 291.844 125.262C291.006 125.262 290.32 126.29 290.32 127.547C290.32 128.804 289.337 129.833 288.136 129.833C285.057 129.833 283.985 134.336 284.237 146.212C284.578 162.285 284.619 162.101 280.795 161.558C277.511 161.091 277.33 160.295 276.529 142.785C276.069 132.728 275.555 125.357 275.386 126.404C275.218 127.452 273.742 128.309 272.108 128.309C269.559 128.309 269.071 129.556 268.679 137.071C268.246 145.365 267.998 145.859 264.031 146.315C259.903 146.79 259.84 146.669 259.84 138.315C259.84 130.849 259.474 129.833 256.792 129.833C254.76 129.833 253.743 128.817 253.743 126.785C253.743 125.109 253.058 123.738 252.219 123.738C251.381 123.738 250.695 124.766 250.695 126.023C250.695 127.446 249.256 128.309 246.885 128.309C243.677 128.309 243.075 127.595 243.075 123.786C243.075 120.391 242.505 119.481 240.789 120.139C239.532 120.621 238.503 122.314 238.503 123.901C238.503 125.948 237.417 126.785 234.76 126.785C231.178 126.785 230.994 126.311 230.491 115.738C230.202 109.662 229.829 116.519 229.662 130.976L229.359 157.261H225.549C221.824 157.261 221.739 157.007 221.739 145.833V134.404H217.167C212.958 134.404 212.595 134.828 212.595 139.738C212.595 144.411 212.124 145.071 208.785 145.071C205.343 145.071 204.96 144.445 204.82 138.595L204.664 132.119L203.098 136.991C202.083 140.149 200.395 142.025 198.301 142.324C195.898 142.667 194.948 144.042 194.595 147.686C194.184 151.945 193.426 152.717 188.809 153.583C185.887 154.131 183.178 154.261 182.788 153.871C182.398 153.481 181.491 148.085 180.771 141.879C179.657 132.272 179.433 131.671 179.265 137.833C179.084 144.438 178.742 145.071 175.345 145.071C172.056 145.071 171.568 144.317 171.154 138.608C170.812 133.893 169.963 132.008 168.018 131.639C165.646 131.189 165.351 132.579 165.351 144.197V157.261H158.642C152.487 157.261 151.795 156.865 150.26 152.463C149.34 149.823 148.467 144.166 148.321 139.891C148.058 132.235 148.045 132.216 147.471 138.595C146.956 144.311 146.445 145.071 143.117 145.071C141.044 145.071 138.952 146.1 138.47 147.357C137.987 148.614 135.989 149.642 134.029 149.642C130.874 149.642 130.4 148.813 129.895 142.404C129.378 135.855 129.298 136.072 129.049 144.69C128.788 153.76 128.593 154.214 124.965 154.214C122.594 154.214 121.155 153.35 121.155 151.928C121.155 150.658 119.8 149.642 118.107 149.642C116.075 149.642 115.059 148.626 115.059 146.595C115.059 142.962 112.718 142.553 111.412 145.957C110.903 147.283 110.486 153.112 110.486 158.91C110.486 169.139 110.373 169.452 106.676 169.452C103.221 169.452 102.86 168.849 102.797 162.976L102.797 162.975Z" fill="black"/>
</svg>
