<svg width="60" height="63" viewBox="0 0 60 63" fill="none" xmlns="http://www.w3.org/2000/svg">
<path d="M30 6L54.5 19V44.5L30 57L6 44.5V19L30 6Z" fill="white"/>
<path d="M54.5 19L30 6L6 19M54.5 19V44.5L30 57M54.5 19L30 32.5M30 57V32.5M30 57L6 44.5V19M30 32.5L6 19" stroke="black" stroke-width="2" stroke-linecap="round" stroke-linejoin="round"/>
<path d="M59 16.549L29.701 1L1 16.549V47.049L29.701 62L59 47.049V16.549Z" stroke="black" stroke-linecap="round" stroke-linejoin="round" stroke-dasharray="5 5"/>
<circle cx="30" cy="32" r="12" fill="white" stroke="black" stroke-width="2"/>
<path d="M25.428 36.18C27.42 36.18 29.34 34.968 29.34 33.144C29.34 31.548 28.044 31.044 26.76 30.828C28.08 30.48 28.812 29.628 28.848 28.536C28.884 27.372 27.84 27.012 27.036 27.012C26.556 27.012 25.728 27.216 25.02 27.216C24.372 27.216 23.496 27.12 22.848 27.036C22.476 26.988 22.212 27.012 22.236 27.384C22.248 27.612 22.476 28.248 22.44 28.98C22.404 29.664 22.056 30.6 22.5 30.756C22.872 30.888 23.136 30.552 23.82 29.304C24.36 28.308 25.2 28.044 25.8 28.044C26.304 28.044 26.676 28.272 26.676 28.656C26.676 29.196 25.896 30.048 23.928 31.236C23.652 31.404 23.64 31.632 23.724 31.788C23.868 32.052 24.084 32.076 24.384 31.992C25.896 31.572 27.252 31.68 27.252 32.928C27.252 33.912 26.328 34.536 25.032 34.536C23.856 34.536 22.896 34.032 22.092 33.192C21.828 32.916 21.684 32.796 21.492 32.916C21.3 33.036 21.324 33.288 21.492 33.648C22.212 35.184 23.328 36.18 25.428 36.18ZM33.7214 36.18C34.6454 36.18 35.3654 35.82 35.8814 35.232C37.1294 36.084 37.5614 36.252 38.0294 35.784C38.5094 35.304 38.1254 35.1 37.6214 34.308C37.2734 33.768 37.1054 32.988 37.1054 31.98V30.492C37.1054 27.408 37.8134 26.544 37.3934 26.16C36.9494 25.752 36.4094 26.388 35.6294 26.676C34.3574 27.144 33.8654 27.06 34.0694 27.696C34.2734 28.32 35.3534 27.408 35.3534 29.544V30.132C35.0054 29.64 34.4414 29.208 33.4814 29.208C31.6694 29.208 30.2414 30.768 30.2414 32.688C30.2414 34.704 31.7894 36.18 33.7214 36.18ZM32.4854 32.496C32.4134 31.176 32.7014 30.336 33.6014 30.372C34.8014 30.408 35.4014 31.824 35.4494 33.012C35.4974 34.176 35.1134 34.956 34.3094 34.944C33.2654 34.932 32.5694 33.756 32.4854 32.496Z" fill="black"/>
</svg>
