<svg width="1205" height="149" viewBox="0 0 1205 149" fill="none" xmlns="http://www.w3.org/2000/svg">
<path d="M1152.45 143.282C1152.2 140.601 1151.7 137.84 1151.32 137.146C1150.95 136.451 1150.64 134.085 1150.64 131.889C1150.63 129.692 1150.18 126.613 1149.64 125.046C1149.09 123.479 1148.59 119.774 1148.52 116.811C1148.45 113.849 1148.15 110.958 1147.86 110.388C1147.2 109.111 1146.01 101.374 1145.48 94.9288C1145.26 92.2847 1144.79 89.8278 1144.43 89.4689C1144.07 89.11 1143.74 85.7105 1143.7 81.9143C1143.56 70.0264 1142.31 67.9117 1139.19 74.2741C1137.17 78.3804 1136.22 79.0854 1136.22 76.4716C1136.22 74.0836 1135.44 70.548 1134.91 70.548C1134.65 70.548 1133.14 73.2522 1131.54 76.5574C1129.06 81.6755 1128.58 83.3816 1128.3 88.061C1128.12 91.0829 1127.68 96.0277 1127.32 99.0495C1126.97 102.071 1126.52 107.246 1126.34 110.55C1126.16 113.853 1125.83 116.837 1125.62 117.18C1124.92 118.317 1119.46 117.126 1118.36 115.596C1117.75 114.736 1117.17 111.814 1116.93 108.321C1116.7 105.11 1116.16 100.629 1115.72 98.3628C1115.29 96.0964 1114.74 91.9242 1114.51 89.0912C1114.28 86.2582 1113.9 83.7271 1113.66 83.4665C1113.41 83.2063 1111.67 82.8967 1109.78 82.7797L1106.34 82.5669L1105.98 78.4463L1105.62 74.3256L1105.1 78.7897C1104.81 81.245 1104.28 93.1435 1103.92 105.231C1103.56 117.318 1103.06 128.985 1102.82 131.157L1102.37 135.106H1095.03C1089.64 135.106 1087.67 134.877 1087.63 134.247C1087.35 129.645 1085.85 115.304 1085.56 114.502C1085.36 113.936 1085.05 111 1084.88 107.978C1084.71 104.956 1084.22 101.866 1083.81 101.11C1083.09 99.8244 1083.02 99.8682 1082.58 101.797C1082.33 102.93 1082.08 105.418 1082.04 107.325C1082 109.233 1081.59 111.16 1081.14 111.609C1080.26 112.49 1080.06 113.378 1079.34 119.653L1078.87 123.774L1075.69 123.98C1072.57 124.182 1072.5 124.138 1072.11 121.92C1071.89 120.673 1071.53 115.945 1071.32 111.412C1071.11 106.879 1070.74 100.544 1070.49 97.3328C1070.24 94.1221 1070.11 91.2193 1070.19 90.8822C1070.35 90.2451 1068.86 71.0017 1068.63 70.7473C1068.56 70.668 1067.83 70.7777 1067.01 70.9946C1065.13 71.484 1064.94 72.6252 1064.45 86.3444C1064.24 92.1993 1063.9 98.0711 1063.71 99.3932C1062.58 106.963 1063.03 106.261 1059.26 106.261C1057.39 106.261 1055.83 106.03 1055.81 105.746C1055.78 105.463 1055.32 99.8226 1054.79 93.2123C1053.64 78.8541 1053.16 75.356 1052.36 75.356C1051.31 75.356 1047.75 84.0484 1046.94 88.5618C1046.52 90.9308 1045.91 96.8525 1045.58 101.721C1045.19 107.401 1044.68 110.761 1044.14 111.095C1043.67 111.382 1043.48 112.112 1043.71 112.716C1044.06 113.615 1043.58 113.835 1041.07 113.919C1039.38 113.974 1037.61 114.053 1037.14 114.091C1036.13 114.172 1036.13 114.222 1036.02 106.155C1035.94 100.063 1035.9 99.9035 1034.65 101.028C1033.42 102.142 1033.36 102.058 1032.95 98.9021C1032.72 97.0949 1032.33 92.8347 1032.09 89.4352C1031.85 86.0356 1031.55 83.0733 1031.42 82.8522C1031.29 82.631 1031.14 79.2715 1031.08 75.3862C1030.78 56.5755 1028.41 66.1383 1027.27 90.7413C1027.03 95.9925 1026.64 101.865 1026.4 103.79C1025.98 107.252 1025.95 107.294 1023.4 107.505C1021.01 107.702 1020.82 107.874 1020.82 109.908C1020.82 111.113 1020.62 113.721 1020.38 115.705L1019.95 119.31H1016.9C1011.55 119.31 1011.78 120.393 1010.77 90.9468C1010.28 76.5518 1009.55 63.8639 1009.17 62.7514C1008.78 61.6389 1008.46 58.5599 1008.46 55.9092C1008.46 53.2586 1008.32 51.2271 1008.16 51.3949C1007.72 51.8306 1006.53 62.1932 1006.04 69.8618C1005.47 78.6552 1005.37 78.9276 1002.77 78.6637C1000.81 78.4657 1000.58 78.6576 1000.13 80.8503C999.863 82.1724 999.502 85.1084 999.331 87.3748C999.161 89.6412 998.822 91.9633 998.578 92.535C998.335 93.1067 998.063 98.126 997.975 103.689L997.814 113.803L994.012 113.809C990.867 113.813 990.2 113.608 990.155 112.614C989.834 105.555 988.902 98.7062 988.262 98.7062C987.461 98.7062 985.477 92.2437 984.731 87.2026C984.471 85.4426 983.935 84.2838 983.383 84.2838C982.476 84.2838 980.85 88.1499 980.638 90.8082C980.577 91.5637 980.116 92.1818 979.612 92.1818C979.108 92.1818 978.637 91.5637 978.566 90.8082C978.209 87.0104 975.87 78.1375 975.433 78.9259C974.98 79.7446 973.944 90.9586 972.972 105.574C972.595 111.241 969.994 119.31 968.545 119.31C968.229 119.31 967.495 118.392 966.915 117.27C966.334 116.148 965.293 114.927 964.601 114.556C963.533 113.985 963.213 112.34 962.491 103.719C962.023 98.129 961.588 90.8641 961.525 87.5746C961.435 82.9505 961.154 81.3927 960.283 80.7068C959.664 80.2187 958.918 78.5835 958.624 77.0726L958.09 74.3255L957.598 76.3858C957.328 77.519 957.071 80.0504 957.026 82.0112C956.983 83.972 956.659 85.7533 956.308 85.9697C955.958 86.186 955.643 89.6811 955.607 93.7365C955.571 97.7919 955.267 102.295 954.929 103.744C954.052 107.508 951.23 113.793 950.419 113.785C950.041 113.782 948.882 112.097 947.844 110.042C946.193 106.778 945.952 105.5 945.936 99.9306L945.918 93.5551L943.894 95.9589L941.87 98.3625L941.834 95.9589L941.797 93.5551L939.424 97.3324C937.137 100.973 937.049 101.035 936.981 99.0494C936.913 97.0458 936.885 97.0649 935.934 99.7409C934.971 102.451 934.91 102.489 931.931 102.252C929.086 102.026 928.88 101.87 928.458 99.6253C928.212 98.3126 928.018 94.401 928.027 90.9328C928.033 87.4645 927.749 84.1633 927.39 83.5967C926.944 82.8924 926.734 84.2019 926.727 87.7355C926.721 90.5783 926.424 95.3687 926.065 98.3806C925.527 102.912 924.789 112.141 924.682 115.704C924.664 116.271 923.509 116.562 921.282 116.562H917.908L917.535 113.987C917.331 112.57 916.977 107.394 916.749 102.483C916.522 97.5728 916.217 91.3917 916.071 88.7476C915.925 86.1035 915.595 79.6776 915.338 74.4678C915.015 67.9226 914.632 65.075 914.097 65.2531C913.671 65.3951 913.278 66.9373 913.225 68.6808C912.652 87.2515 911.196 112.734 910.499 116.391C910.32 117.335 909.707 117.936 908.925 117.936C907.365 117.936 906.819 119.73 906.806 124.89C906.8 128.664 906.745 128.763 904.65 129.182C900.969 129.918 900.122 129.684 899.377 127.722C897.717 123.352 895.975 105.09 895.398 86.0004C894.804 66.3599 893.522 65.5351 892.728 84.2835C892.095 99.228 890.989 110.649 890.12 111.201C889.658 111.494 888.165 111.739 886.801 111.744L884.321 111.756L883.887 108.151C883.649 106.168 883.452 101.686 883.449 98.1923C883.443 94.4189 883.164 91.8396 882.756 91.8396C882.378 91.8396 882.069 91.2813 882.069 90.5994C882.069 89.9173 881.334 88.3638 880.437 87.1471C878.84 84.983 878.795 84.9689 878.382 86.4986C878.15 87.3586 877.755 92.0026 877.505 96.8187L877.049 105.575H873.77H870.491L870.068 101.626C868.87 90.4396 869.027 91.0017 867.229 91.4529C865.799 91.8112 865.574 91.6162 865.514 89.9639C865.46 88.3835 865.337 88.5243 864.805 90.7975C864.453 92.3019 863.866 93.8317 863.5 94.1971C863.135 94.5621 862.836 96.0358 862.836 97.4711C862.836 99.913 862.704 100.081 860.775 100.081H858.719L858.671 105.404C858.622 110.641 858.377 113.897 857.463 121.371L857.002 125.149L853.797 125.356C851.196 125.523 850.521 125.331 850.217 124.326C850.011 123.645 849.514 117.371 849.113 110.383C848.711 103.395 848.232 97.191 848.048 96.5965C847.864 96.0023 847.288 90.1301 846.769 83.5477C845.745 70.5756 845.627 69.7385 844.719 69.0794C844.13 68.6516 843.333 64.8533 842.364 57.8532C842.021 55.3736 841.559 54.3647 840.688 54.1972C839.674 54.0022 839.472 54.5361 839.395 57.622C839.346 59.6328 839.209 63.4413 839.095 66.0854C837.784 96.4087 837.406 106.25 837.008 120.513L836.543 137.168H833.207C830.783 137.168 829.87 136.901 829.87 136.193C829.87 135.657 829.724 131.253 829.545 126.406C829.365 121.56 829.053 112.495 828.851 106.262C828.358 91.0468 828.139 89.7795 826.002 89.7795C825.03 89.7795 824.379 90.1433 824.467 90.6379C824.6 91.3926 824.225 97.9704 823.34 110.383C822.589 120.929 822.421 121.221 817.659 120.269C815.809 119.899 815.522 119.501 815.052 116.663C814.761 114.909 814.562 113.284 814.61 113.052C814.659 112.821 814.279 103.442 813.77 92.212C812.926 73.618 812.366 69.2792 810.988 70.6571C810.79 70.8545 810.445 77.0152 810.22 84.347C809.996 91.6788 809.714 97.8398 809.593 98.0381C809.472 98.2361 809.172 105.345 808.925 113.834C808.678 122.324 808.354 129.656 808.205 130.128C808.04 130.648 806.708 130.986 804.82 130.986H801.708V124.563C801.708 116.635 801.021 109.696 800.236 109.696C799.912 109.696 799.648 110.623 799.648 111.757C799.648 112.89 799.32 113.817 798.92 113.817C798.52 113.817 798.364 113.539 798.574 113.2C798.784 112.86 798.05 111.614 796.943 110.429C795.836 109.245 794.805 107.745 794.652 107.097C794.461 106.292 794.21 106.572 793.861 107.979C793.581 109.112 793.232 110.426 793.086 110.898C792.927 111.416 791.612 111.757 789.77 111.757C786.767 111.757 786.711 111.714 786.342 109.181C785.584 103.978 785.246 99.5017 784.823 89.0927C784.585 83.2379 784.25 78.2158 784.079 77.9324C783.124 76.3515 782.678 78.4791 781.9 88.3369C780.824 101.955 780.481 102.816 776.121 102.823L772.859 102.827V98.0857V93.3445L769.431 93.1068C765.599 92.8411 765.303 93.1434 765.303 97.3553C765.303 98.8167 764.968 101.573 764.559 103.48L763.815 106.948H760.438H757.06L757.054 100.939C757.048 97.6335 756.856 93.7758 756.623 92.3662L756.199 89.8032L754.581 91.3361C753.692 92.1791 752.959 93.4097 752.952 94.0708C752.94 95.3275 752.02 95.5744 748.304 95.3187C746.123 95.1688 746.071 95.2303 746.071 97.9817C746.071 99.6009 745.138 103.021 743.876 106.027L741.681 111.256L740.071 106.526C739.186 103.925 738.187 99.6663 737.853 97.0621C737.519 94.4579 736.99 92.14 736.678 91.9113C736.366 91.6821 736.023 91.0317 735.915 90.4651C735.807 89.8983 735.112 87.987 734.37 86.2171C733.484 84.1047 732.995 81.2736 732.946 77.9758C732.869 72.7909 731.927 63.5448 731.748 66.2154C731.693 67.043 731.377 67.8867 731.048 68.0902C730.718 68.2938 730.395 71.0162 730.328 74.1402C730.137 83.105 729.16 103.12 728.524 111.069C728.388 112.768 728.263 114.545 728.244 115.018C728.22 115.586 727.05 115.876 724.777 115.876C721.992 115.876 721.329 115.649 721.27 114.674C721.227 114.013 721.128 113.009 721.044 112.442C720.96 111.875 720.838 109.171 720.774 106.433C720.661 101.644 720.592 101.454 718.98 101.454C716.829 101.454 716.643 101.101 715.834 95.4884C715.463 92.9144 714.722 88.9542 714.187 86.6878L713.216 82.5671L713.155 87.0782C713.124 89.5593 712.655 93.1135 712.115 94.9762C711.575 96.839 710.919 100.217 710.658 102.484C709.975 108.401 709.417 108.989 708.003 105.285C707.061 102.82 706.463 102.14 705.234 102.14C703.353 102.14 702.99 100.23 702.358 87.0313C701.754 74.4307 700.469 74.7337 699.69 87.6599C699.502 90.7969 699.118 93.7157 698.838 94.1463C698.558 94.5772 698.174 97.2471 697.985 100.08L697.642 105.231L694.036 105.594C692.052 105.793 690.429 105.948 690.429 105.937C690.428 105.925 689.942 103.6 689.348 100.767C688.741 97.8735 688.291 92.55 688.319 88.6181C688.35 84.7689 688.107 81.4567 687.785 81.2576C686.902 80.7122 685.627 85.6754 685.575 89.8586C685.533 93.4045 683.874 109.934 683.276 112.786C683.118 113.542 682.963 115.473 682.931 117.079L682.876 119.997H679.529H676.183L675.687 117.079C675.414 115.473 675.065 112.614 674.912 110.726C674.76 108.837 674.488 105.747 674.31 103.858C674.132 101.969 673.782 94.552 673.534 87.3751C673.285 80.1982 672.822 73.8627 672.505 73.2961C672.08 72.537 671.922 72.7543 671.907 74.1203C671.895 75.1403 671.434 76.2278 670.882 76.5369C670.122 76.9617 669.789 79.1048 669.514 85.3276C668.944 98.2277 668.384 101.132 666.368 101.659C665.171 101.972 665.016 102.624 665.01 107.399C665.006 110.362 664.81 113.945 664.576 115.362C664.152 117.927 664.137 117.937 660.806 117.937C658.085 117.937 657.458 117.713 657.445 116.735C657.439 116.074 657.289 113.988 657.118 112.099C656.947 110.211 656.614 104.416 656.377 99.222C656.039 91.7989 655.742 89.7788 654.987 89.7788C654.459 89.7788 654.027 90.2426 654.027 90.809C654.027 92.1021 653.517 92.1139 652.253 90.8516C651.71 90.308 651.071 88.3764 650.834 86.5592C650.597 84.7422 650.088 82.8567 649.704 82.3693C649.319 81.8818 648.786 79.5641 648.519 77.2184L648.033 72.9537L647.939 76.5146C647.815 81.222 646.867 83.5989 645.115 83.5989C643.973 83.5989 643.716 84.0602 643.681 86.1743C643.598 91.1559 642.954 94.9679 641.564 98.7081C640.791 100.786 639.794 104.649 639.348 107.293L638.536 112.1L635.027 112.305C631.628 112.504 631.493 112.44 630.752 110.314C630.33 109.106 629.986 106.175 629.986 103.801C629.986 97.3865 629.251 95.9609 625.946 95.9609H623.246L622.861 92.6987C622.65 90.9045 622.279 86.8868 622.039 83.7705L621.6 78.1046H618.668C615.361 78.1046 615.475 77.837 614.464 87.8911C614.14 91.1168 613.713 92.5269 613.062 92.5269C612.481 92.5269 612.127 93.3066 612.127 94.5874C612.127 96.6019 612.05 96.6477 608.692 96.6477C606.803 96.6477 605.258 96.3387 605.258 95.9609C605.258 95.5831 604.639 95.2742 603.884 95.2742C602.698 95.2742 602.51 95.7319 602.51 98.6222C602.51 100.464 602.317 102.936 602.081 104.116C601.673 106.157 601.491 106.263 598.409 106.263H595.166L594.72 97.5062C594.474 92.6901 594.267 85.6592 594.259 81.8819C594.241 71.6732 593.134 71.5018 592.559 81.618C592.293 86.2956 592.167 90.4318 592.277 90.8096C592.761 92.461 591.373 94.5869 589.81 94.5869C588.573 94.5869 588.088 95.0695 587.741 96.6472C587.314 98.5914 587.101 98.7076 583.955 98.7076C580.828 98.7076 580.607 98.59 580.403 96.819C580.223 95.2546 579.784 94.8713 577.848 94.5869C575.647 94.2639 574.03 92.3405 574.817 90.9812C574.981 90.6979 574.512 90.4664 573.774 90.4664C572.372 90.4664 571.599 89.2193 571.599 86.9546C571.599 86.2182 571.17 85.4511 570.646 85.2498C570.02 85.0097 569.504 83.0702 569.144 79.6054L568.596 74.327L568.076 78.4476C567.79 80.714 567.373 85.1802 567.15 88.3725C566.927 91.5647 566.607 94.3129 566.441 94.4797C566.274 94.646 565.715 94.4309 565.199 94.0043C563.97 92.9843 563.357 93.674 563.357 96.0752C563.357 97.9086 563.187 98.0212 560.418 98.0212C557.576 98.0212 555.114 96.4237 555.114 94.5794C555.114 94.2058 554.805 93.9004 554.427 93.9004C554.045 93.9004 553.74 92.069 553.74 89.7797C553.74 86.5747 553.511 85.659 552.71 85.659C552.137 85.659 551.68 85.0485 551.68 84.2854C551.68 83.219 551.222 82.9119 549.632 82.9119C547.951 82.9119 547.514 83.2501 547.192 84.8006C546.506 88.107 544.626 91.1733 543.043 91.5706C541.482 91.9625 541.307 92.5552 539.659 103C539.274 105.442 539.121 105.575 536.709 105.565C535.309 105.561 533.822 105.328 533.404 105.05C532.621 104.53 531.493 94.2303 531.705 89.5298C531.771 88.0703 531.519 85.2889 531.146 83.3488C530.772 81.4088 530.291 74.5902 530.076 68.1965C529.861 61.8028 529.517 56.4034 529.311 56.1977C528.304 55.19 527.792 58.5768 527.42 68.7208C526.786 85.9904 525.738 97.4975 524.743 98.1126C524.196 98.4508 523.78 100.699 523.622 104.173C523.434 108.319 523.133 109.697 522.414 109.697C521.887 109.697 521.418 110.315 521.37 111.07C521.323 111.826 521.228 112.676 521.158 112.959C521.089 113.242 520.802 114.865 520.52 116.564C519.224 124.397 519.577 124.166 516.428 119.244C514.229 115.805 513.497 113.875 513.07 110.383C512.124 102.655 511.205 89.0028 511.175 82.2253C511.15 76.7617 510.837 74.5557 509.421 69.8631C509.363 69.6742 509.136 69.0561 508.916 68.4895C508.695 67.9228 508.379 66.9958 508.213 66.4292C508.047 65.8625 507.716 70.0349 507.478 75.7008C506.809 91.5769 505.698 110.537 505.323 112.444C503.751 120.452 502.646 124.724 502.216 124.458C501.935 124.284 501.314 122.669 500.835 120.868L499.964 117.595L499.277 119.827C498.629 121.933 498.407 122.059 495.344 122.059H492.097L491.579 117.766C491.009 113.047 490.892 111.39 490.685 105.141C490.571 101.691 490.316 100.868 489.277 100.597C487.614 100.162 487.146 97.1665 487.051 86.3457C487.01 81.6241 486.774 76.0612 486.527 73.9836C486.131 70.6487 485.982 71.3727 485.256 80.1647C484.804 85.6418 484.45 90.5866 484.47 91.1532C484.49 91.72 484.318 96.9738 484.089 102.829C483.86 108.683 483.673 114.932 483.675 116.714C483.677 119.313 483.473 119.877 482.647 119.56C482.08 119.342 481.617 119.505 481.617 119.925C481.617 120.801 476.903 120.942 475.585 120.105C475.008 119.739 474.565 117.077 474.301 112.389C474.015 107.311 473.606 104.998 472.892 104.427C471.807 103.561 470.516 95.701 470.569 90.2944C470.6 87.1451 470.533 87.0322 468.609 87.0322H466.617L466.569 93.2666C466.542 96.6955 466.344 99.7861 466.128 100.134C465.913 100.483 465.027 100.768 464.159 100.768C462.702 100.768 462.546 101.146 462.122 105.707C461.869 108.423 461.593 110.7 461.508 110.766C461.423 110.833 459.892 111.044 458.105 111.236C454.9 111.58 454.854 111.556 454.55 109.438C453.542 102.412 452.759 91.8704 452.757 85.3153C452.754 73.5652 451.688 67.4276 450.46 72.0946C450.237 72.9445 449.727 81.2117 449.327 90.4661C448.928 99.7205 448.427 110.46 448.214 114.332L447.827 121.371H444.459H441.09L441.014 117.422C440.972 115.25 440.986 112.846 441.044 112.079C441.135 110.881 440.702 110.665 437.985 110.546C436.244 110.47 434.567 110.253 434.258 110.061C433.949 109.871 433.458 107.933 433.167 105.756C432.732 102.503 432.546 102.104 432.125 103.515C431.842 104.459 431.58 106.176 431.543 107.33C431.485 109.111 424.72 121.715 424.136 121.131C424.032 121.027 423.601 115.553 423.178 108.966C422.631 100.45 422.139 96.7762 421.475 96.2488C420.902 95.7942 420.386 93.4045 420.14 90.0678C419.918 87.0761 419.596 83.6928 419.422 82.5494C419.248 81.4061 419.084 76.9633 419.057 72.6765C419.009 65.0252 418.214 63.1929 417.391 68.8397C417.172 70.3466 416.727 73.4337 416.403 75.7001C416.078 77.9665 414.996 82.06 413.996 84.7969C412.997 87.5337 412.251 90.1606 412.339 90.6345C412.564 91.8509 411.569 111.508 411.107 114.98C410.804 117.254 410.413 117.905 409.25 118.071C407.989 118.251 407.747 118.801 407.569 121.886L407.361 125.492H404.042H400.724L400.249 120.169C399.987 117.242 399.664 113.765 399.531 112.443C399.091 108.072 398.245 91.5087 398.427 90.8255C398.525 90.4568 398.235 85.8208 397.782 80.5237C397.329 75.2266 396.945 70.5063 396.929 70.0341C396.857 67.9677 395.87 69.4467 395.449 72.25C395.196 73.9409 394.282 77.4164 393.42 79.9735L391.851 84.6227L390.953 81.9026C390.113 79.3579 390.018 79.2845 389.469 80.7661C389.147 81.6371 388.697 84.5622 388.47 87.2663C388.129 91.3096 387.763 92.4312 386.412 93.5808C384.875 94.8875 384.739 95.5905 384.318 104.354C384.071 109.511 383.684 114.012 383.458 114.357C382.87 115.254 377.287 115.873 376.806 115.095C376.584 114.736 376.265 109.898 376.097 104.343C375.686 90.7786 375.503 89.7792 373.431 89.7792C371.667 89.7792 371.246 88.5987 370.859 82.568C370.665 79.547 369.439 79.0812 369.088 81.8955C368.952 82.9945 368.263 83.8994 367.278 84.2739C365.787 84.8406 365.658 85.3642 365.217 92.6514C364.576 103.231 364.703 102.941 360.837 102.692L357.632 102.484L357.156 98.3637C356.895 96.0973 356.478 89.4086 356.232 83.4997C355.985 77.5908 355.56 71.1007 355.288 69.0772C354.874 65.9982 354.706 67.0783 354.26 75.6999C353.501 90.3818 353.397 91.5996 352.812 92.5452C352.524 93.0114 352.161 98.2198 352.005 104.12C351.849 110.019 351.352 117.628 350.899 121.028L350.076 127.209L346.851 127.416C343.68 127.621 343.621 127.587 343.266 125.356C343.067 124.109 342.602 118.217 342.233 112.264C341.864 106.31 341.373 101.134 341.142 100.76C340.145 99.1479 339.561 100.402 339.121 105.093C338.863 107.85 338.409 110.497 338.114 110.975C337.775 111.524 336.459 111.765 334.553 111.629L331.53 111.413L330.698 104.281C330.241 100.359 329.763 96.8408 329.637 96.4626C329.511 96.0848 328.031 97.8921 326.348 100.48L323.287 105.184L323.083 100.915C322.909 97.2773 322.689 96.6467 321.595 96.6467C320.889 96.6467 320.185 96.2683 320.03 95.8055C319.855 95.2789 318.71 95.0392 316.973 95.1646C313.499 95.415 313.387 95.1524 312.967 85.7271C312.789 81.723 312.437 76.1291 312.185 73.2961C311.759 68.5034 311.693 68.3363 311.23 70.8923C310.957 72.4033 310.528 79.0479 310.278 85.6582C309.894 95.813 308.877 103.851 307.416 108.277C307.212 108.898 306.281 107.945 304.902 105.701C303.697 103.743 302.356 102.141 301.921 102.141C301.383 102.141 300.97 98.951 300.632 92.1861C300.358 86.711 299.895 82.3791 299.602 82.56C299.31 82.7403 298.857 87.7612 298.596 93.7167C298.111 104.798 297.119 115.901 296.409 118.189C296.081 119.249 295.535 119.408 293.279 119.106C291.776 118.904 290.367 118.56 290.148 118.341C289.928 118.121 289.601 113.848 289.42 108.844C289.184 102.284 288.832 99.5537 288.158 99.0551C287.528 98.5883 287.08 95.9682 286.777 90.9808L286.33 83.5979H283.687C281.124 83.5979 281.044 83.5247 281.044 81.1941C281.044 79.5153 280.733 78.7904 280.013 78.7904C279.447 78.7904 278.961 78.2498 278.935 77.5885C278.893 76.561 278.801 76.586 278.298 77.7604C277.974 78.5158 277.692 83.3061 277.671 88.4055C277.63 98.6984 277.176 112.544 276.528 123.26L276.103 130.299H272.835H269.568L268.749 122.23C268.298 117.791 267.76 110.297 267.551 105.575C267.343 100.853 267.036 96.7686 266.869 96.4977C266.702 96.2265 265.681 96.1819 264.601 96.3983C262.156 96.887 261.96 96.3496 261.519 87.9587C261.338 84.502 260.978 80.0815 260.72 78.1353C260.28 74.8226 260.136 74.6102 258.455 74.8052C256.845 74.9923 256.642 75.3335 256.492 78.104C256.057 86.148 255.568 88.4058 254.264 88.4058C253.186 88.4058 252.942 89.1426 252.619 93.3849C252.189 99.021 251.534 116.789 251.518 123.26L251.507 127.552H248.122H244.737L244.361 123.947C243.891 119.43 243.307 109.027 243.283 104.717L243.265 101.455H240.25C237.326 101.455 237.221 101.38 236.766 98.9513C236.507 97.5745 236.317 93.0759 236.343 88.9544C236.368 84.8329 236.136 81.6171 235.827 81.8083C235.518 81.9997 234.855 83.3973 234.354 84.9147C233.853 86.432 233.221 87.5362 232.949 87.3683C232.678 87.2007 232.229 85.4335 231.953 83.442C231.496 80.1459 231.389 79.975 230.764 81.5379C230.387 82.4823 229.962 85.3786 229.82 87.9742C229.636 91.3197 229.235 92.9317 228.441 93.5119C227.538 94.1724 227.202 96.4431 226.703 105.275C226.362 111.295 225.894 118.152 225.662 120.513L225.24 124.805H221.977H218.714L218.284 120.856C218.048 118.684 217.681 112.89 217.469 107.979C217.258 103.069 216.641 92.5608 216.099 84.6285C215.557 76.6961 215.111 69.2016 215.108 67.9739C215.1 64.8895 213.86 65.1567 213.598 68.2994C213.397 70.7105 213.218 70.8896 210.465 71.4303L207.546 72.0038L207.483 77.286C207.341 89.2348 206.657 99.4996 205.76 103.172C205.47 104.358 204.961 104.513 202.02 104.307L198.617 104.069V101.086C198.617 99.4448 198.308 97.9111 197.93 97.6776C197.552 97.4442 197.243 96.5108 197.243 95.6035C197.243 94.6962 196.626 93.3796 195.873 92.6778C195.017 91.8801 194.359 90.1322 194.119 88.0153C193.253 80.3868 193.175 80.1647 191.373 80.1647C189.89 80.1647 189.682 80.4748 189.646 82.7401C189.523 90.4154 188.839 97.4744 187.85 101.283C186.742 105.551 186.722 105.576 184.262 105.565C182.901 105.561 181.438 105.327 181.011 105.05C180.299 104.587 178.903 92.7288 179.306 90.5601C179.523 89.3927 176.659 82.2252 175.975 82.2252C175.7 82.2252 174.682 84.0022 173.714 86.1742L171.954 90.1231L171.868 87.376L171.782 84.6289L170.513 86.1485C169.785 87.0211 169.052 89.3605 168.791 91.6428C167.909 99.3747 167.899 99.3947 164.984 99.3947C162.137 99.3947 161.553 100.287 161.534 104.661C161.518 108.379 160.968 109.01 157.747 109.01C155.264 109.01 154.746 108.768 154.43 107.464C154.224 106.615 153.869 99.2745 153.642 91.1533C153.414 83.032 153.031 74.9968 152.79 73.297L152.353 70.2064L151.831 73.297C150.387 81.8342 147.536 111.488 148.035 112.787C148.361 113.637 147.66 113.817 144.033 113.817C140.438 113.817 139.572 113.598 139.285 112.615C138.932 111.41 138.537 105.816 137.776 91.2184C137.354 83.1099 136.757 80.4606 135.067 79.1906C134.523 78.7823 133.812 77.2116 133.486 75.7006C132.976 73.3382 132.824 74.0594 132.402 80.8515C132.131 85.1955 131.964 89.5222 132.03 90.4665C132.096 91.4109 131.958 96.9738 131.723 102.829C131.488 108.683 131.297 116.505 131.299 120.21C131.301 124.832 131.07 126.804 130.564 126.492C130.066 126.183 129.861 127.446 129.932 130.4C129.989 132.8 130.011 135.15 129.982 135.623C129.923 136.555 123.081 136.893 123.03 135.966C123.014 135.682 122.88 133.442 122.731 130.986C122.583 128.531 122.26 122.815 122.013 118.284C121.767 113.754 121.289 109.876 120.953 109.668C120.347 109.294 119.321 98.8668 118.524 84.9721C118.296 81.0058 117.833 77.6577 117.493 77.5318C117.154 77.4063 116.876 76.7287 116.876 76.027C116.876 75.3254 116.567 74.5604 116.19 74.3269C115.812 74.0935 115.503 73.2928 115.503 72.5478C115.503 71.8027 115.039 71.0153 114.472 70.7979C113.906 70.5803 113.442 69.8175 113.442 69.1024C113.442 68.3874 113.033 67.8024 112.532 67.8024C111.906 67.8024 111.333 69.8361 110.694 74.3269L109.767 80.8512H107.483H105.199V85.2147C105.199 87.6145 105.001 91.4776 104.758 93.7994C104.355 97.6516 104.175 98.0209 102.697 98.0209C101.236 98.0209 101.078 98.3226 101.078 101.111C101.078 103.383 100.808 104.202 100.061 104.202C99.5012 104.202 98.8572 105.052 98.6296 106.091C97.7366 110.165 97.6444 110.177 94.492 106.624L91.4615 103.209L91.3756 97.5245C91.3287 94.3979 91.2125 91.5307 91.118 91.153C91.0236 90.7752 90.9077 88.921 90.8604 87.0323C90.7777 83.7239 90.7021 83.5984 88.7903 83.5984C87.088 83.5984 86.7518 83.9152 86.4239 85.8304C86.2137 87.058 86.0397 89.9168 86.0372 92.1832C86.0344 94.4496 85.8298 98.5125 85.582 101.212C85.1433 105.99 85.0765 106.131 83.0589 106.535C79.0451 107.337 78.6173 107.123 77.8052 103.898C77.3825 102.22 77.0269 99.3608 77.0149 97.545C77.0033 95.7292 76.5862 93.7078 76.089 93.0532C75.5918 92.3985 75.108 89.7715 75.0138 87.2155C74.5795 75.4232 73.8647 76.8523 73.3878 90.4662C73.1167 98.2096 72.6993 109.722 72.4606 116.049L72.0266 127.552H68.794H65.5613L65.1344 122.573C64.8996 119.835 64.3638 113.603 63.9436 108.725C63.5235 103.848 62.9064 99.1382 62.5724 98.2598C62.2382 97.3813 61.7682 92.1006 61.5277 86.5248C61.287 80.9491 60.8544 76.1335 60.5661 75.8234C60.2779 75.5132 59.9015 77.9341 59.7299 81.2029C59.5582 84.4717 59.102 87.3524 58.7157 87.6044C58.3294 87.8561 57.8111 90.0463 57.5636 92.4709C57.3164 94.8955 57.0372 96.9504 56.9436 97.0371C56.8502 97.1243 55.3826 97.3034 53.6825 97.4362L50.5915 97.6776L50.0497 94.2437C49.7518 92.355 49.2104 86.9466 48.8468 82.225C48.4831 77.5034 48.0256 72.9448 47.83 72.0949C47.219 69.4403 46.1267 70.4052 46.1267 73.5996C46.1267 75.2771 45.8175 76.8406 45.4398 77.0741C45.0621 77.3075 44.7529 78.4074 44.7529 79.5183C44.7529 80.6292 44.4772 81.5382 44.1405 81.5382C43.2914 81.5382 42.7812 83.9004 42.3456 89.8481C41.8414 96.7335 40.7045 108.164 40.2519 110.898C39.8998 113.025 39.7393 113.13 36.8356 113.13C33.2569 113.13 33.4129 113.49 32.3673 102.829C31.9783 98.8623 31.3714 92.6812 31.0186 89.0928C30.6658 85.5043 30.3662 81.5457 30.3527 80.2958C30.3368 78.9607 30.0451 78.1983 29.6413 78.4477C29.2636 78.6811 28.9544 79.9355 28.9544 81.2353C28.9544 83.4075 28.7865 83.5986 26.8767 83.5986C24.5296 83.5986 23.2951 85.7177 23.4891 89.4138C23.5488 90.5593 23.567 92.9593 23.5287 94.7472C23.4606 97.9334 23.3916 98.0321 20.0475 99.7263C18.1711 100.677 16.5146 101.455 16.3665 101.455C16.111 101.455 15.7288 97.1559 14.7601 83.387C14.0304 73.0165 12.9389 77.4294 12.2874 93.3841C11.956 101.499 11.3303 108.894 10.8781 110.04C10.4307 111.173 10.0364 112.409 10.0018 112.787C9.40805 119.262 8.75035 123.432 8.32273 123.432C7.53322 123.432 2.56116 117.181 1.76776 115.191C1.39119 114.246 0.982728 106.725 0.859866 98.4767L0.636719 83.4799L3.08157 83.6907C4.42627 83.8065 5.66077 83.756 5.82495 83.578C5.98928 83.4007 6.33616 78.6192 6.59615 72.9533C6.85629 67.2873 7.34707 60.4882 7.68707 57.8441C8.02706 55.2 8.31485 52.8048 8.3265 52.5215C8.37099 51.4438 13.9195 52.0681 16.5692 53.4493C19.2228 54.8322 19.338 55.0304 19.338 58.2162C19.338 61.886 19.9631 62.6449 22.468 62.0163C23.6835 61.7116 24.1462 61.1254 24.1462 59.8913C24.1462 58.3434 24.4134 58.1881 27.0655 58.195C28.6711 58.1989 31.0805 58.384 32.4197 58.6052L34.8546 59.0081L35.6826 65.9805C36.1381 69.8154 36.5106 74.4431 36.5105 76.2644C36.5103 79.0145 36.6647 79.4213 37.421 78.665C38.6451 77.4412 39.1814 74.494 39.9603 64.7117C40.3212 60.1789 41.0796 54.9664 41.6456 53.1283C42.2116 51.2901 42.5275 49.5481 42.3476 49.2571C42.1677 48.9664 42.4808 48.346 43.0433 47.8792C43.6058 47.4124 44.0661 46.4503 44.0661 45.7411C44.0661 44.654 44.5976 44.4516 47.4511 44.4516H50.8361L51.2595 48.4005C51.4924 50.5725 51.9783 54.2293 52.3393 56.5266C52.7003 58.8239 52.9957 62.128 52.9957 63.869C52.9957 69.1367 54.1672 68.1388 54.5249 62.5665C54.7087 59.7029 55.1686 57.1599 55.547 56.9152C55.9256 56.6708 56.4262 54.0554 56.6598 51.1039C57.0356 46.3577 57.4239 45.1894 60.0201 40.9954C62.8282 36.459 62.9751 36.3342 63.4038 38.1203C63.6503 39.1472 64.2154 44.9324 64.6593 50.976C65.1033 57.0197 65.7517 62.2581 66.1001 62.617C66.4486 62.9759 66.7755 64.2121 66.8268 65.3642C66.9611 68.379 67.9303 58.5172 68.4097 49.259C69.4096 29.9504 69.491 29.3423 71.0737 29.3423C71.8694 29.3423 73.1806 28.5146 73.9874 27.503L75.4543 25.6636L76.9868 30.0785C78.2145 33.615 78.7095 37.4992 79.4749 49.6024C80.0005 57.9125 80.4397 65.8707 80.4509 67.2872C80.4625 68.7037 80.7804 69.8626 81.1582 69.8626C81.536 69.8626 81.8451 69.3988 81.8451 68.8324C81.8451 68.1197 82.5613 67.8022 84.1691 67.8022C86.6377 67.8022 87.3107 66.7649 87.3309 62.9286C87.3363 61.9478 87.8265 60.1708 88.4209 58.9796C89.5197 56.7774 90.7989 56.3786 94.0061 57.2383C95.8248 57.7259 96.0707 59.1874 96.6488 72.9437C97.0351 82.1354 97.2272 83.5568 97.981 82.8031C98.3216 82.4625 98.9933 71.9258 99.009 66.6783C99.0175 63.8396 99.0199 63.8371 102.108 63.374C104.55 63.0077 105.199 62.6306 105.199 61.5791C105.199 60.8468 105.466 60.2476 105.791 60.2476C106.298 60.2476 107.119 55.3616 107.493 50.1175C107.594 48.7129 107.952 48.5723 111.434 48.5723H115.265L114.956 50.6749C114.71 52.351 114.929 52.851 116.033 53.1397C117.164 53.4359 117.526 54.3406 118.006 58.0767L118.594 62.6514L121.513 62.8623L124.432 63.0731L124.449 66.2959C124.478 71.6919 125.204 83.9111 125.514 84.2215C125.675 84.3818 125.812 81.294 125.818 77.3593C125.833 68.7138 126.945 57.4606 127.877 56.5288C128.249 56.1565 128.554 54.8499 128.554 53.6257C128.554 52.4015 128.824 51.2327 129.155 51.0285C129.485 50.8243 129.769 49.9561 129.784 49.0993C129.81 47.6573 132.468 38.0073 133.882 34.2221C134.39 32.8611 134.834 33.9856 136.457 40.7465C137.536 45.2392 138.344 49.583 138.253 50.3994C138.162 51.2158 138.411 54.9245 138.805 58.6408C139.199 62.3572 139.587 66.7113 139.667 68.3168C139.782 70.6185 140.075 71.2355 141.052 71.2355C142.014 71.2355 142.307 71.8114 142.36 73.811C142.398 75.2275 142.641 77.1495 142.901 78.0823L143.374 79.7782L144.19 77.7389C144.895 75.9768 146.753 51.1504 146.303 49.5101C145.876 47.956 147.435 25.9057 148 25.5027C148.072 25.454 149.462 25.2401 151.089 25.0323C154.903 24.5454 155.014 24.8482 155.615 37.3237C156.366 52.9331 157.777 63.383 158.87 61.4301C159.195 60.8499 160.002 60.482 160.664 60.613C165.609 61.5913 165.47 61.4842 165.947 64.6698C166.448 68.0096 167.647 68.8743 170.711 68.1056C172.352 67.6936 172.47 67.3718 172.658 62.7552L172.858 57.8433L176.121 57.6337C178.447 57.4844 179.389 57.6825 179.402 58.3206C179.45 60.8017 180.798 73.0281 181.142 74.111C181.359 74.7957 181.955 75.356 182.467 75.356C183.495 75.356 184.025 73.1683 184.13 68.4882C184.264 62.5327 185.057 59.8616 188.197 54.796C191.029 50.2269 191.404 49.865 191.754 51.3621C192.068 52.7034 192.644 53.0775 194.658 53.2466C197.094 53.4507 197.183 53.5555 197.586 56.6805C197.814 58.4531 198.338 62.0667 198.749 64.7108C199.603 70.1932 199.704 71.4125 199.87 78.2176C199.936 80.9247 200.123 83.0077 200.284 82.8466C200.445 82.6857 200.752 79.0026 200.966 74.6625C201.18 70.3223 201.507 64.6079 201.691 61.9638C201.875 59.3197 202.193 53.7567 202.397 49.6017C202.602 45.4466 202.953 39.8065 203.178 37.0679L203.586 32.0887H206.94H210.294V36.84C210.294 42.6473 210.681 43.764 212.692 43.764C214.074 43.764 214.312 43.3215 214.729 39.9867L215.201 36.2094H218.144H221.087L221.525 41.5319C221.766 44.4593 221.994 53.4992 222.03 61.6204C222.088 74.4623 222.978 89.9588 223.251 82.8763C223.303 81.5353 223.645 80.1378 224.013 79.7706C224.38 79.4037 224.867 75.8647 225.096 71.907C225.485 65.1522 225.672 64.4371 228.139 60.2468C229.584 57.7915 231.724 54.5813 232.895 53.1128C234.065 51.6444 235.022 50.1799 235.022 49.8585C235.022 49.1252 237.229 46.5111 237.848 46.5111C238.47 46.5111 240.517 55.7377 240.517 58.5406C240.517 61.0846 241.358 61.6204 245.348 61.6204H248.005L248.47 65.7277C248.725 67.9867 249.204 69.6683 249.534 69.4645C249.864 69.2609 250.134 68.494 250.134 67.7609C250.134 67.0277 250.427 66.4278 250.785 66.4278C251.143 66.4278 251.529 64.8054 251.643 62.8223C251.845 59.3258 251.917 59.2102 254.03 59.0054C256.464 58.7695 256.6 58.3569 257.359 48.9149C257.572 46.2707 257.918 42.9327 258.128 41.497L258.509 38.8867L261.697 39.0932C264.833 39.2962 264.893 39.3443 265.355 42.047C265.614 43.558 266.005 48.3483 266.224 52.6922C266.444 57.0361 266.805 63.449 267.029 66.943L267.434 73.2957H269.431C271.146 73.2957 271.43 73.0294 271.448 71.407C271.525 64.4279 272.81 40.1899 273.182 38.7075C273.594 37.0687 273.947 36.8961 276.895 36.8961H280.153L280.659 42.5622C280.937 45.6785 281.129 49.2092 281.086 50.4084C281.043 51.6076 281.325 52.7849 281.713 53.0244C282.101 53.2639 282.418 54.2917 282.418 55.3082C282.419 56.3246 282.872 59.3286 283.426 61.9838C283.98 64.6389 284.509 67.8066 284.602 69.0233C284.698 70.282 285.152 71.2353 285.655 71.2353C286.141 71.2353 286.539 71.6991 286.539 72.2655C286.539 72.9523 287.226 73.2957 288.6 73.2957C290.158 73.2957 290.66 73.6102 290.66 74.5852C290.66 75.2944 291.124 76.2594 291.691 76.7296C292.257 77.2001 292.741 78.0875 292.765 78.7023C292.791 79.3917 293.068 79.1698 293.486 78.1228C293.858 77.1891 294.475 76.2325 294.857 75.9968C295.687 75.4837 296.122 70.9573 297.131 52.349C297.545 44.7041 297.692 44.451 301.724 44.451C305.015 44.451 305.085 44.4937 305.085 46.552C305.085 47.7776 305.371 48.4759 305.772 48.2283C306.15 47.9949 306.455 46.6632 306.451 45.269C306.447 43.8748 306.963 39.2536 307.598 34.9997L308.752 27.2654L310.795 32.4243C311.919 35.2616 313.228 37.5831 313.705 37.5831C314.623 37.5831 315.348 41.584 315.51 47.5415C315.561 49.4302 315.997 52.0571 316.478 53.3792L317.352 55.7829L317.401 51.7981L317.449 47.8131L320.992 48.0209C325.188 48.2665 324.863 47.3632 325.517 60.5907L325.993 70.2056L326.701 63.6811C327.09 60.0926 327.64 57.2339 327.924 57.3284C328.207 57.4228 329.652 57.5002 331.135 57.5002H333.831L334.359 63.853L334.887 70.2057L335.947 66.6C336.53 64.617 337.406 62.9945 337.892 62.9945C338.379 62.9945 339.96 61.1248 341.405 58.8396L344.032 54.6848L344.478 62.9604C344.724 67.5119 345.124 74.9446 345.369 79.4773C345.613 84.01 346.047 87.7187 346.331 87.7187C346.811 87.7187 347.85 73.9981 347.606 70.8924C347.546 70.137 347.838 65.5012 348.254 60.5908C348.669 55.6802 349.34 47.3358 349.744 42.0476C350.57 31.2439 351.007 28.513 351.83 29.0215C352.142 29.2141 352.387 28.8241 352.374 28.155C352.362 27.4859 352.618 25.5649 352.944 23.8864L353.535 20.8344L356.507 25.7516L359.478 30.6689L360.096 40.479C360.436 45.8745 361.044 54.6157 361.448 59.9039C361.851 65.1922 362.158 70.3689 362.128 71.4076C362.093 72.6609 362.425 73.2963 363.116 73.2963C363.769 73.2963 364.157 72.6556 364.157 71.5793C364.157 70.635 364.431 69.8624 364.766 69.8624C366.316 69.8624 367.562 64.9033 368.012 56.9368L368.485 48.572H371.988C375.129 48.572 375.503 48.7317 375.605 50.1173C375.667 50.9672 376.119 54.9849 376.61 59.0455C377.436 65.8899 377.61 66.4284 378.992 66.4284C380.978 66.4284 381.292 67.8637 381.4 77.417C381.449 81.7609 381.617 84.6968 381.775 83.9413C381.932 83.1859 382.538 79.9409 383.122 76.7301C383.706 73.5194 384.825 68.8477 385.61 66.3486C386.788 62.5947 387.256 61.8624 388.304 62.1364C389.45 62.4362 389.584 61.948 389.699 57.0652C389.769 54.0937 389.876 51.0444 389.937 50.289C391.378 32.5308 391.111 33.4628 394.755 33.4628C396.438 33.4628 397.843 33.5397 397.878 33.6347C397.913 33.7292 398.223 36.8969 398.568 40.6742C399.619 52.1891 399.949 54.0665 400.921 54.0665C401.419 54.0665 402.009 54.9164 402.232 55.9551C402.84 58.795 404.67 80.5566 404.729 85.6585C404.798 91.6197 405.943 89.0864 406.009 82.8255C406.084 75.8237 406.612 73.9833 408.548 73.9833C409.839 73.9833 410.179 73.6176 410.179 72.2302C410.179 71.266 410.634 68.4072 411.191 65.8774C412.293 60.865 414.113 42.9868 414.917 29.2721C415.404 20.9772 415.55 20.3488 418.431 14.1629C420.085 10.6131 421.651 7.45028 421.912 7.13453C422.173 6.81885 422.601 9.75469 422.862 13.659C423.124 17.5632 423.611 21.8392 423.945 23.1612C424.279 24.4833 424.752 34.8366 424.995 46.1686C425.238 57.5004 425.643 70.0171 425.893 73.9833L426.349 81.1945L426.956 68.489C427.29 61.501 427.643 54.0836 427.741 52.0061L427.918 48.2289H431.584C434.176 48.2289 435.199 48.4835 435.075 49.0982C434.668 51.1191 436.574 63.1503 437.349 63.4477C437.807 63.6233 439.297 63.3003 440.662 62.7307C443.13 61.6993 443.144 61.7032 443.549 63.5464C444.244 66.7056 444.413 66.8547 444.479 64.3683C444.571 60.8648 445.239 58.8741 446.321 58.8741C447.014 58.8741 447.271 57.86 447.271 55.1309C447.271 52.7146 447.6 51.193 448.2 50.8384C448.71 50.5361 450.361 47.0781 451.868 43.1534L454.607 36.0176L456.061 43.1534C457.001 47.7619 457.797 55.6403 458.309 65.3984C459.311 84.4968 460.17 88.2422 460.277 73.9833C460.361 62.8286 461.202 46.7725 461.731 46.2538C461.9 46.0875 463.43 45.8448 465.13 45.7162L468.221 45.4816L468.862 49.0873C469.502 52.6917 469.503 52.6929 472.111 52.6929C474.267 52.6929 474.775 52.9616 475.033 54.2382C475.204 55.088 475.705 63.3552 476.146 72.6096C476.587 81.864 477.166 89.6701 477.432 89.9565C478.163 90.74 481.616 28.5406 481.616 14.6029V12.1726H485.008H488.4L488.756 15.0915C489.756 23.291 491.775 44.1948 492.222 50.9759C492.397 53.6201 492.745 61.5412 492.996 68.5784C493.248 75.6157 493.698 81.7693 493.997 82.2532C494.405 82.9134 495.285 82.9758 497.523 82.503L500.505 81.8731L500.629 75.6961C500.697 72.2988 501.067 66.1196 501.451 61.9646C501.834 57.8095 502.359 50.6175 502.618 45.9823C502.876 41.3471 503.356 37.3884 503.685 37.1852C504.014 36.9823 504.29 36.1388 504.299 35.3112C504.312 34.042 510.276 26.7805 510.784 27.4143C511.004 27.6885 512.373 40.4815 512.938 47.5421C513.179 50.564 513.624 53.3467 513.926 53.726C514.227 54.105 514.616 55.4959 514.789 56.8164C514.962 58.137 515.119 56.8993 515.138 54.0666C515.157 51.2335 515.195 48.507 515.223 48.0075C515.259 47.3613 516.314 47.1304 518.879 47.2075C520.863 47.2684 522.963 47.2898 523.546 47.2563C524.692 47.1929 525.734 39.3028 526.91 21.7867C527.227 17.0651 527.708 12.661 527.979 12C528.341 11.1159 529.258 10.7981 531.448 10.7981C533.085 10.7981 534.596 11.0755 534.806 11.4144C535.015 11.7532 535.206 17.0844 535.229 23.2614C535.252 29.4383 535.549 38.398 535.889 43.1717C536.229 47.9454 536.548 56.2898 536.598 61.7148C536.715 74.556 536.88 75.3558 539.4 75.3558H541.375L541.385 70.3766C541.391 67.638 541.623 65.0557 541.901 64.638C542.178 64.2206 543.578 63.6629 545.012 63.3992C546.889 63.0543 547.795 62.457 548.247 61.2679C548.743 59.9627 553.276 56.8126 554.658 56.8126C554.91 56.8126 556.03 63.6222 556.748 69.5181C556.899 70.7602 557.349 71.496 557.881 71.3706C559.357 71.0232 559.899 72.723 559.91 77.7252C559.918 81.1674 560.129 82.2898 560.669 81.7505C561.099 81.3202 561.845 74.3281 562.425 65.302C562.979 56.6667 563.599 47.9789 563.804 45.9958C564.169 42.4443 564.209 42.3902 566.457 42.3902C567.711 42.3902 569.208 42.2098 569.783 41.9892C570.565 41.6887 570.947 42.2488 571.302 44.2212C571.564 45.6693 572.096 47.2553 572.486 47.7458C572.876 48.2364 573.249 49.4724 573.314 50.4929C574.076 62.4145 574.641 67.801 575.13 67.801C575.455 67.801 575.72 68.7282 575.72 69.8613C575.72 71.2349 576.063 71.9217 576.75 71.9217C577.536 71.9217 577.802 72.8584 577.871 75.8707L577.961 79.8197L578.654 76.2141L579.347 72.6085H582.588H585.829L586.589 64.5388C587.007 60.1005 587.522 52.2969 587.735 47.1975C587.947 42.0981 588.291 35.9944 588.5 33.6335L588.88 29.3411H592.26H595.639V32.3055C595.639 33.9359 595.931 36.9492 596.288 39.0016C596.644 41.0541 597.09 45.6694 597.278 49.2578C597.98 62.6407 598.541 67.1142 599.516 67.1142C600.191 67.1142 600.474 65.9298 600.544 62.8218C600.715 55.1841 601.051 48.3529 601.541 42.5618L602.019 36.8957H605.254H608.489L609.277 41.6639C609.71 44.2863 610.089 49.9264 610.118 54.1976C610.173 62.5019 610.427 62.9702 611.33 56.4535L611.898 52.3484L614.064 57.0298C615.255 59.6046 616.506 61.5404 616.844 61.3317C617.369 61.0075 618.274 55.3753 618.646 50.1212C618.839 47.3989 619.498 47.7076 621.835 51.614C623.117 53.7566 624.616 55.439 625.243 55.439C626.418 55.439 627.236 59.1123 627.236 64.3895C627.236 67.2466 627.971 67.801 631.757 67.801C633.151 67.801 634.126 68.1496 634.155 68.6594C634.186 69.1317 634.312 70.5996 634.442 71.9217C634.573 73.2438 634.903 77.9655 635.176 82.4143C636.02 96.1624 636.607 93.6557 637.954 70.5482C638.371 63.3898 638.446 63.1546 640.41 62.8751C642.075 62.638 642.492 61.0822 643.231 52.3484C643.39 50.4598 643.704 48.4509 643.928 47.8842C644.861 45.5181 645.775 41.2129 645.779 39.1684C645.783 36.5108 646.05 36.3419 649.639 36.7225L652.464 37.0224L652.944 42.6251C653.207 45.7066 653.555 50.5457 653.717 53.3786C654.365 64.7011 654.857 69.8611 655.289 69.8539C655.539 69.85 656.971 67.9182 658.473 65.5615L661.203 61.2767L661.655 65.7408C661.904 68.1961 662.163 72.6773 662.231 75.6992C662.374 82.0615 663.416 80.9332 663.758 74.0458C663.885 71.475 664.269 69.8615 664.754 69.8615C665.922 69.8615 666.272 67.3888 667.09 53.3786C667.498 46.3906 668.126 39.7772 668.484 38.6821C668.843 37.587 669.137 34.6123 669.137 32.0718C669.137 29.5313 669.333 26.4716 669.572 25.2726C669.994 23.1642 670.112 23.0994 673.154 23.2981L676.299 23.5034L677.097 27.5009C677.536 29.6996 678.094 38.353 678.339 46.7309C678.864 64.7201 679.45 73.6882 680.042 72.7826C680.278 72.4224 680.907 71.9872 681.44 71.8156C682.553 71.4579 682.632 71.0933 683.46 62.4013C684.093 55.7616 684.601 54.7829 687.427 54.7625C688.405 54.7564 689.178 54.0568 689.759 52.6535C690.237 51.4993 690.845 50.804 691.11 51.1083C691.846 51.9533 693.854 61.9722 693.944 65.2451C693.987 66.8397 694.165 67.6035 694.338 66.9424C694.511 66.2815 695.087 65.7406 695.619 65.7406C696.675 65.7406 696.854 65.131 698.034 57.4992C698.472 54.6662 699.142 51.962 699.522 51.4898C700.246 50.5921 703.962 50.3319 705.829 51.048C706.563 51.3296 706.935 52.3889 706.974 54.3102C707.035 57.1093 707.044 57.1221 707.674 55.0952C708.027 53.962 708.263 52.1077 708.2 50.9745C708.137 49.8413 708.32 47.7553 708.607 46.3387C709.123 43.7989 709.174 43.7632 712.381 43.7632C716.945 43.7632 717.869 45.0021 718.333 51.7454C718.538 54.721 718.99 59.937 719.339 63.3366C719.687 66.7362 719.99 70.0585 720.012 70.7196C720.036 71.5683 720.617 71.9215 721.974 71.9215C723.889 71.9215 723.896 71.9031 724.02 66.965C724.089 64.2391 724.427 61.8347 724.771 61.6219C725.116 61.4093 725.606 59.9309 725.861 58.3368C726.116 56.7428 726.557 55.4386 726.842 55.4386C727.126 55.4386 727.575 52.4254 727.839 48.7425C728.119 44.8331 729.054 39.6168 730.086 36.2086L731.852 30.371L734.475 36.0663C737.049 41.6556 737.118 42.0195 738.173 55.6396C738.764 63.2726 739.314 70.7277 739.395 72.2067C739.477 73.6856 739.905 75.0166 740.347 75.1645C740.899 75.3492 741.303 73.4873 741.638 69.2133L742.124 62.9932H745.47C748.33 62.9932 748.816 63.1882 748.816 64.3326C748.816 65.0693 749.234 65.9193 749.746 66.2213C750.257 66.5236 750.851 67.2342 751.065 67.8008C751.28 68.3675 751.48 63.5472 751.51 57.0894C751.54 50.6316 751.765 42.5189 752.01 39.0613C752.434 33.0881 752.535 32.7747 754.037 32.7747C754.906 32.7747 755.864 33.2038 756.166 33.7284C756.468 34.2531 757.333 34.7978 758.089 34.9394C759.68 35.2374 760.103 37.6596 760.741 50.1291C761.258 60.2559 761.951 67.5199 762.475 68.3263C762.707 68.6841 764.366 69.1371 766.16 69.3341L769.423 69.6924V66.4386C769.423 64.6491 769.62 61.7511 769.86 59.9986L770.297 56.8122H773.565C775.836 56.8122 776.953 56.4977 777.228 55.782C777.445 55.2152 778.36 54.7519 779.26 54.7519C780.841 54.7519 780.914 54.5209 781.367 48.0783C782.066 38.1414 782.005 38.269 785.983 38.269H789.343L789.392 43.5917C789.422 46.5191 789.507 50.3049 789.585 52.0047C789.664 53.7045 789.796 57.7995 789.878 61.1046L790.028 67.1139H793.462C796.439 67.1139 796.897 67.2968 796.897 68.4876C796.897 70.809 798.181 70.0082 798.674 67.3792C799.126 64.9702 799.215 64.9073 801.704 65.2411L804.268 65.5848L804.641 57.5929C804.847 53.1973 805.032 43.4199 805.053 35.8652C805.072 28.3106 805.299 19.2707 805.553 15.7768C805.945 10.3781 806.194 9.42407 807.209 9.42407C807.865 9.42407 809.336 9.23759 810.477 9.00905L812.551 8.59403L813.004 16.7351C814.5 43.645 814.796 47.2723 815.793 50.9741C816.302 52.8627 817.079 57.4984 817.519 61.2757C818.29 67.8871 819.496 72.2476 819.544 68.5944C819.556 67.5879 820.066 66.8538 820.902 66.6351C821.908 66.3718 822.291 65.5795 822.448 63.4371L822.655 60.589L825.873 60.3818L829.091 60.174L829.568 65.0172C829.881 68.1889 830.343 69.8605 830.907 69.8605C832.097 69.8605 832.59 67.6054 832.634 61.9626C832.683 55.7052 834.354 37.6035 835.033 35.9704C835.442 34.9886 836.023 34.7947 837.608 35.1119C838.735 35.3368 840.236 35.5214 840.944 35.5214C842.01 35.5214 842.232 36.0468 842.232 38.5705C842.232 41.5982 842.25 41.6211 844.808 41.8327L847.383 42.0461L847.908 47.1969C848.659 54.5689 849.457 59.1352 851.088 65.3966C851.875 68.4186 852.573 71.6636 852.64 72.6079C852.706 73.5522 852.963 69.6157 853.211 63.8601C853.46 58.1044 853.847 53.2107 854.073 52.9854C854.298 52.7599 855.744 52.4064 857.287 52.1996C858.829 51.993 860.096 51.787 860.101 51.7425C860.107 51.6999 860.414 46.4344 860.785 40.0459C861.156 33.6574 861.563 28.3276 861.688 28.2018C861.814 28.0763 863.361 27.7752 865.125 27.5335C868.222 27.1093 868.334 27.1543 868.334 28.8468C868.334 29.811 868.6 30.703 868.924 30.8288C869.248 30.9543 869.716 38.8485 869.963 48.3706C870.423 66.0762 870.874 71.9214 871.782 71.9214C872.691 71.9214 873.123 68.9756 873.14 62.6498C873.146 59.2502 873.351 55.2946 873.588 53.8596L874.02 51.2503L877.187 51.4558C880.3 51.6575 880.363 51.7087 880.825 54.4083C881.338 57.4037 882.739 67.7818 883.258 72.4364C883.438 74.0417 883.859 75.3552 884.194 75.3552C884.529 75.3552 885.003 76.6018 885.246 78.1254C885.49 79.649 885.787 80.7977 885.907 80.6781C886.214 80.3709 888.119 59.7629 888.526 52.348C888.712 48.9484 889.254 38.9679 889.731 30.1691L890.597 14.1714L894.405 14.3731C898.118 14.5699 898.216 14.6266 898.276 16.6352C898.313 17.7684 898.536 19.6228 898.777 20.756C899.018 21.8892 899.39 27.143 899.603 32.4312C899.942 40.8551 900.582 53.9489 901.634 73.9816C901.802 77.1923 902.126 85.5879 902.353 92.6384C902.773 105.649 903.402 110.729 904.255 107.977C904.812 106.177 905.935 87.978 906.5 71.5779C906.773 63.6673 907.235 58.3506 907.673 58.076C908.071 57.8267 908.579 55.509 908.801 52.9251L909.204 48.2272L912.174 48.0133C915.372 47.783 917.104 48.7041 917.104 50.6347C917.104 51.2999 917.722 52.0058 918.477 52.2033C919.282 52.4136 919.851 53.1401 919.851 53.9556C919.851 55.655 921.137 59.1888 921.591 58.7354C921.77 58.5556 922.089 54.8812 922.298 50.5705C922.507 46.2597 922.99 40.9171 923.371 38.6978C923.752 36.4786 924.017 33.0789 923.96 31.1431C923.905 29.2073 923.882 21.5198 923.911 14.0596L923.972 0.495605H927.406H930.841L930.822 3.071C930.816 4.48749 930.966 11.364 931.159 18.352C931.352 25.34 931.564 38.3202 931.629 47.1969C931.695 56.0735 931.873 62.4864 932.025 61.4476C932.283 59.6851 932.524 59.5589 935.63 59.5589H938.959L939.438 62.3961C939.738 64.1734 940.117 64.9096 940.453 64.367C941.213 63.137 947.322 64.0897 947.322 65.4387C947.322 66.0638 948.031 66.4268 949.252 66.4268H951.182L951.989 59.3873C952.433 55.5155 952.982 49.9526 953.209 47.0252L953.621 41.7026H956.914C959.902 41.7026 960.283 41.8872 961.034 43.6999C961.489 44.7985 961.861 47.1642 961.861 48.9571C961.861 52.6009 962.877 54.0646 965.406 54.0646H967.102L967.604 67.1394C967.88 74.3305 968.188 80.1252 968.288 80.0166C968.388 79.9081 968.676 75.9559 968.928 71.2343C969.179 66.5126 969.688 58.4773 970.06 53.3779C970.431 48.2786 971.047 39.7796 971.428 34.4914C971.809 29.2032 972.29 23.4084 972.498 21.6142L972.875 18.352H976.227C979.153 18.352 979.62 18.5488 979.894 19.8972C980.579 23.2661 980.966 30.9012 981 41.7026C981.048 56.3801 981.241 57.4986 983.761 57.4986C985.959 57.4986 986.034 57.7886 986.871 69.5075L987.312 75.6788L988.923 72.5981C990.129 70.2919 990.542 69.8957 990.565 71.0221C990.583 71.8497 990.905 72.7178 991.283 72.9513C991.661 73.1847 991.97 74.81 991.97 76.563C991.97 82.0069 993.361 78.8941 993.765 72.5466C993.967 69.3696 994.342 64.2978 994.597 61.2759L995.061 55.7816L997.808 55.4386C1000.13 55.1485 1000.58 54.8287 1000.72 53.3782C1001.33 46.9928 1002.51 40.3293 1003.03 40.3293C1003.37 40.3293 1003.65 39.8655 1003.65 39.2991C1003.65 38.7323 1003.92 38.2689 1004.24 38.2689C1004.57 38.2689 1005.05 36.4122 1005.31 34.1427C1005.74 30.3554 1005.88 30.0739 1007.09 30.7175C1008.14 31.2818 1008.55 31.1289 1009.19 29.938C1009.95 28.5162 1010.06 28.5789 1011.88 31.5096C1013.87 34.7053 1014.19 36.913 1014.99 53.1337C1015.16 56.5877 1015.62 60.2608 1016.02 61.2962C1016.41 62.3316 1016.75 65.9956 1016.76 69.4386C1016.79 75.0186 1016.99 76.0155 1018.63 78.6162C1019.65 80.2209 1020.71 81.5344 1020.99 81.5351C1021.27 81.5358 1021.54 79.4502 1021.58 76.9005C1021.68 70.9964 1022.02 67.8992 1022.82 65.7403C1023.17 64.796 1023.64 60.9328 1023.87 57.1555C1024.58 45.5517 1025.51 41.8188 1028.6 38.1143C1030.09 36.3295 1031.54 35.0122 1031.82 35.187C1032.11 35.3619 1032.55 36.9767 1032.82 38.7757C1033.09 40.5744 1033.72 43.6619 1034.23 45.6366C1035.8 51.7176 1037.67 68.5611 1037.88 78.6175C1037.98 83.0497 1038.14 83.5966 1039.32 83.5966C1040.97 83.5966 1041.21 81.9406 1041.79 66.7705C1042.02 60.7268 1042.49 55.4883 1042.85 55.1295C1043.2 54.7705 1043.49 53.6117 1043.49 52.5541C1043.49 50.7043 1043.62 50.6311 1046.92 50.6311H1050.36V52.9787C1050.36 56.5298 1050.96 57.4989 1053.17 57.4989C1054.94 57.4989 1055.19 57.781 1055.58 60.2036C1055.82 61.6913 1056.44 63.0723 1056.96 63.2726C1057.48 63.4725 1057.91 64.5737 1057.91 65.7188C1057.91 66.8638 1058.22 67.8007 1058.6 67.8007C1058.98 67.8007 1059.28 66.895 1059.28 65.788C1059.28 64.2334 1059.63 63.7255 1060.81 63.556C1062.19 63.3573 1062.41 62.7376 1063.11 57.0355C1063.53 53.5699 1063.95 48.9342 1064.02 46.7338C1064.1 44.5334 1064.39 41.6514 1064.67 40.3293C1065.17 37.9616 1065.23 37.9225 1069.03 37.7217L1072.88 37.5181L1073.3 41.4993C1073.53 43.689 1073.87 48.1074 1074.07 51.3181C1074.39 56.6493 1075.58 72.5507 1076.89 89.0912L1077.4 95.6157L1078.27 90.4648C1078.96 86.3945 1080.49 69.048 1080.56 64.5011C1080.58 63.862 1081.51 63.665 1083.84 63.8143C1087.02 64.0185 1087.11 64.0854 1087.33 66.4213C1087.46 67.7401 1087.78 68.9763 1088.06 69.1686C1088.34 69.3611 1088.95 75.2354 1089.43 82.2234C1089.9 89.2114 1090.47 96.8604 1090.68 99.2212L1091.08 103.514H1094C1097.55 103.514 1097.78 102.909 1097.69 94.1141C1097.66 90.7849 1097.81 85.8977 1098.04 83.2536C1098.27 80.6095 1098.62 76.2827 1098.82 73.6387C1099.03 70.9945 1099.47 65.2769 1099.82 60.9331C1100.17 56.5891 1100.63 50.2536 1100.86 46.854C1101.08 43.4544 1101.56 37.9826 1101.92 34.6945C1102.28 31.4063 1102.52 28.4704 1102.45 28.1701C1102.38 27.8696 1102.56 26.4959 1102.85 25.1171C1103.34 22.7813 1103.58 22.5784 1106.46 22.1468C1108.16 21.892 1109.71 21.8439 1109.91 22.0408C1110.41 22.5393 1111.5 41.9724 1111.51 50.423L1111.52 57.4255L1114.77 57.6339L1118.01 57.843L1118.44 62.307C1118.67 64.7622 1119.09 69.5526 1119.38 72.9522C1119.67 76.3518 1120.3 81.2966 1120.78 83.9407L1121.64 88.7482L1121.79 84.2841C1122.17 72.4205 1122.54 67.5252 1123.13 66.821C1123.48 66.3981 1124.07 60.805 1124.45 54.3926C1124.83 47.9802 1125.49 41.5373 1125.93 40.0752C1126.69 37.4879 1126.78 37.4262 1129.34 37.77L1131.98 38.1234L1132.45 34.076L1132.92 30.0285H1136.29C1138.14 30.0285 1139.65 29.7195 1139.65 29.3417C1139.65 28.7786 1146.46 28.2699 1146.55 28.8267C1146.61 29.2295 1147.92 51.6646 1148.33 59.2169C1148.57 63.7497 1149.03 67.7969 1149.36 68.2107C1149.68 68.6245 1150.05 72.4361 1150.18 76.6811C1150.32 81.6554 1150.69 84.5778 1151.22 84.9014C1151.71 85.2067 1152.04 87.2699 1152.06 90.1666C1152.09 95.9053 1153.28 105.644 1154.07 106.602C1154.38 106.982 1154.76 108.064 1154.91 109.009C1155.28 111.332 1156.05 99.8615 1156.9 79.1336C1158.41 42.4147 1159.08 34.0482 1160.73 31.3859C1161.56 30.0549 1162.56 27.0007 1162.94 24.5989C1163.33 22.197 1163.73 20.1462 1163.84 20.0417C1163.95 19.9375 1165.4 19.7547 1167.06 19.6365C1169.6 19.4549 1170.16 19.6486 1170.61 20.8614C1171.15 22.3175 1171.61 31.0487 1172.28 52.3493C1172.48 58.7707 1172.83 66.7288 1173.05 70.0339C1173.44 75.8023 1173.52 76.0433 1175.1 76.0433C1176.32 76.0433 1176.77 75.6405 1176.85 74.4981C1176.91 73.6482 1177.02 72.1802 1177.09 71.2358C1177.29 68.6164 1178.42 34.9849 1178.44 30.8874C1178.46 27.3068 1178.48 27.2809 1180.69 27.1591C1185.74 26.8818 1185.9 26.9171 1186.03 28.3119C1186.1 29.0674 1186.53 33.5486 1186.98 38.2702C1187.44 42.9919 1187.8 47.4732 1187.79 48.2287C1187.79 48.9841 1187.95 54.1811 1188.17 59.7775C1188.49 67.9842 1188.75 69.8831 1189.51 69.5926C1190.02 69.3945 1190.75 69.7602 1191.13 70.4059C1191.52 71.0748 1191.82 71.2101 1191.84 70.721C1191.85 70.2017 1192.81 69.8626 1194.26 69.8626C1195.88 69.8626 1196.66 69.5438 1196.66 68.8896C1196.66 68.3545 1197 67.8062 1197.4 67.6711C1197.83 67.5273 1198.39 63.6421 1198.75 58.257C1199.08 53.2141 1199.5 48.9411 1199.68 48.7612C1199.86 48.5814 1200.71 49.0829 1201.56 49.8768C1202.41 50.6702 1203.36 51.3194 1203.66 51.3194C1204.65 51.3194 1204.29 73.5926 1203.19 79.9923C1202.35 84.9411 1201.77 89.2848 1201.51 92.6981C1201.39 94.2258 1200.13 92.8066 1199.07 89.9509C1197.23 85.0143 1196.65 84.893 1196.7 89.4634C1196.73 91.7145 1196.43 94.636 1196.02 95.9556C1195.62 97.2752 1195.29 99.1295 1195.29 100.076C1195.29 101.767 1195.19 101.798 1189.86 101.816L1184.43 101.834L1183.82 96.6652L1183.21 91.4962L1182.68 98.0207C1181.15 117.046 1178.95 135.134 1178.17 135.079C1177.95 135.061 1176.62 133.07 1175.2 130.646C1172.8 126.539 1172.58 125.673 1171.9 117.839C1171.5 113.218 1171.02 109.186 1170.83 108.88C1170.64 108.573 1169.93 108.322 1169.25 108.322C1167.89 108.322 1167.59 105.13 1166.71 81.881C1166.49 75.8373 1166.24 69.6562 1166.17 68.1453C1166.09 66.6344 1165.92 61.8441 1165.79 57.5002L1165.55 49.6022L1165 54.753C1164.22 62.0613 1163.78 69.3062 1163.38 81.5376C1162.94 95.098 1162.59 101.333 1160.92 124.263C1160.55 129.441 1160.3 133.923 1160.37 134.221C1160.44 134.519 1160.26 137.777 1159.96 141.459L1159.41 148.156H1156.15H1152.9L1152.45 143.283L1152.45 143.282Z" fill="black"/>
</svg>
