<svg width="1333" height="145" viewBox="0 0 1333 145" fill="none" xmlns="http://www.w3.org/2000/svg">
<path d="M541.15 136.46C541.045 131.792 540.788 127.287 540.579 126.449C540.369 125.611 540.112 118.776 540.007 111.259C539.847 99.7859 539.45 97.7335 537.531 98.4698C536.274 98.9526 535.245 100.666 535.245 102.279C535.245 103.892 534.045 105.595 532.578 106.064C531.111 106.533 528.414 107.631 526.585 108.504C522.226 110.585 518.481 109.041 518.481 105.164C518.481 103.461 517.795 102.068 516.957 102.068C516.119 102.068 515.433 104.731 515.433 107.986C515.433 112.563 514.762 114.079 512.473 114.677C508.525 115.709 507.819 114.748 507.779 108.291L507.744 102.83L504.965 106.445C502.51 109.636 502.068 109.755 501.188 107.463C500.641 106.035 500.192 103.019 500.192 100.761C500.192 96.8903 499.843 96.688 494.104 97.2351C490.714 97.5583 488.419 98.4657 488.924 99.2827C489.423 100.09 488.39 101.127 486.629 101.587C484.869 102.047 483.428 103.326 483.428 104.429C483.428 105.532 482.13 106.846 480.544 107.35C477.594 108.286 475.866 112.354 475.829 118.449C475.811 121.085 474.927 121.878 471.998 121.878C468.453 121.878 468.188 121.359 468.188 114.422C468.188 109.2 467.503 106.703 465.902 106.089C464.284 105.468 463.616 102.944 463.616 97.455C463.616 92.6718 463.032 90.0593 462.092 90.64C461.254 91.1579 460.568 93.9413 460.568 96.8251C460.568 101.402 460.083 102.068 456.758 102.068C454.191 102.068 452.908 101.198 452.827 99.4018C452.755 97.8088 452.398 97.5021 451.938 98.64C451.516 99.6876 449.512 100.545 447.487 100.545C444.293 100.545 443.804 101.254 443.804 105.878C443.804 110.551 443.332 111.211 439.994 111.211C437.065 111.211 436.179 110.418 436.163 107.783C436.134 102.738 434.499 97.4971 432.958 97.4971C432.217 97.4971 431.612 101.314 431.612 105.979C431.612 114.333 431.548 114.454 427.421 113.979C423.694 113.551 423.134 112.736 422.373 106.64L421.517 99.7827L420.849 105.878C420.311 110.791 419.516 112.068 416.752 112.46C413.763 112.885 413.323 112.271 413.323 107.671C413.323 104.386 412.46 102.063 411.037 101.517C409.78 101.035 408.751 99.5902 408.751 98.3068C408.751 97.0091 407.432 95.9733 405.779 95.9733C403.23 95.9733 402.742 97.2201 402.35 104.735C401.945 112.497 401.502 113.553 398.464 113.984C395.458 114.41 395.035 113.8 395.035 109.032C395.035 104.608 394.466 103.592 391.987 103.592C389.752 103.592 388.939 102.576 388.939 99.7827C388.939 97.4124 388.076 95.9733 386.653 95.9733C384.856 95.9733 384.367 98.0897 384.367 105.878C384.367 115.352 384.206 115.783 380.663 115.783C377.982 115.783 376.825 114.836 376.472 112.354C376.081 109.6 374.861 108.833 370.27 108.453C364.865 108.005 364.555 107.695 364.555 102.738C364.555 98.0917 364.099 97.4971 360.539 97.4971C358.212 97.4971 355.037 99.1 352.991 101.307C351.049 103.402 348.056 105.116 346.34 105.116C343.835 105.116 343.219 104.139 343.219 100.164C343.219 95.3067 343.086 95.2113 336.33 95.2113C331.13 95.2113 329.491 95.7717 329.647 97.4971C330.084 102.332 329.395 103.592 326.312 103.592C324.403 103.592 322.801 102.368 322.324 100.545C321.886 98.8685 320.579 97.4971 319.419 97.4971C318.249 97.4971 317.309 95.9704 317.308 94.0685C317.305 91.0249 316.578 90.659 310.831 90.8088C307.27 90.9016 303.499 91.0731 302.452 91.1896C301.116 91.338 300.547 94.8164 300.547 102.83C300.547 114.005 300.462 114.259 296.737 114.259C293.398 114.259 292.926 113.598 292.926 108.925C292.926 105.201 292.237 103.592 290.64 103.592C289.321 103.592 288.304 102.142 288.234 100.164C288.168 98.2779 287.768 97.5922 287.345 98.6398C286.922 99.6874 285.308 100.545 283.758 100.545C282.208 100.545 280.492 101.956 279.944 103.681C278.571 108.006 272.524 107.084 271.865 102.449C271.12 97.2021 259.398 98.4437 259.398 103.77C259.398 105.796 258.305 106.64 255.68 106.64C252.484 106.64 251.896 105.838 251.489 100.925C250.959 94.518 246.787 92.7944 245.957 98.6398C245.345 102.953 238.133 103.638 237.942 99.4017C237.87 97.8087 237.512 97.5019 237.053 98.6398C236.63 99.6874 234.627 100.545 232.601 100.545C229.737 100.545 228.918 99.7375 228.918 96.9128C228.918 94.5626 227.843 92.9998 225.87 92.4841C223.1 91.7597 222.822 92.4377 222.822 99.9253C222.822 107.697 222.606 108.164 219.012 108.164C216.916 108.164 215.202 107.478 215.202 106.64C215.202 105.802 212.516 105.116 209.233 105.116C205.884 105.116 202.926 104.28 202.495 103.211C202.007 102.002 201.683 102.216 201.606 103.795C201.539 105.19 199.811 106.604 197.676 107.013C194.516 107.617 193.833 107.126 193.675 104.143C193.354 98.0692 193.162 97.4218 191.352 96.2984C190.389 95.7003 189.282 93.4968 188.893 91.4015C188.197 87.6575 188.181 87.6642 187.977 91.7824C187.811 95.1406 187.038 95.9729 184.087 95.9729C182.061 95.9729 180.114 95.1157 179.76 94.068C179.407 93.0204 177.808 94.5635 176.208 97.4967L173.299 102.83L172.818 97.8776C172.52 94.8118 171.502 92.9253 170.147 92.9253C168.452 92.9253 167.957 95.3355 167.957 103.592C167.957 113.882 167.826 114.258 164.241 114.258C161.004 114.258 160.391 113.373 159.496 107.401C158.38 99.9644 154.241 97.5637 154.241 104.354C154.241 107.401 153.479 108.163 150.431 108.163C147.637 108.163 146.621 107.351 146.621 105.116C146.621 100.387 143.606 101.525 142.583 106.639C141.883 110.137 140.84 111.211 138.145 111.211C135.285 111.211 134.532 110.28 134.145 106.258C133.746 102.119 133.042 101.306 129.857 101.306C126.673 101.306 125.969 102.119 125.57 106.258C125.174 110.36 124.454 111.211 121.378 111.211C118.457 111.211 117.665 110.417 117.665 107.491C117.665 105.446 116.979 103.348 116.141 102.83C115.303 102.312 114.617 103.254 114.617 104.923C114.617 107.675 109.309 110.983 107.614 109.288C107.241 108.915 106.778 104.622 106.585 99.7484C106.235 90.9008 103.138 86.3289 102.161 93.2183C101.757 96.0717 100.585 96.824 95.9478 97.2077C92.4757 97.4951 90.2328 98.4684 90.2328 99.6878C90.2328 102.615 86.1794 105.664 84.9446 103.666C83.1689 100.793 81.0888 101.986 81.0888 105.878C81.0888 108.925 80.3267 109.687 77.2787 109.687C73.7743 109.687 73.4545 109.107 73.2919 102.449C73.1946 98.4681 72.8018 96.411 72.4182 97.8776C71.996 99.4933 70.2636 100.544 68.0229 100.544C64.7243 100.544 64.3246 101.203 64.3246 106.639C64.3246 112.125 63.9439 112.735 60.5146 112.735C58.4191 112.735 56.7046 112.049 56.7046 111.211C56.7046 110.373 55.7262 109.687 54.5303 109.687C53.3345 109.687 52.0952 108.487 51.7764 107.02C51.4574 105.554 50.6744 110.011 50.0359 116.925C48.9296 128.906 48.7009 129.497 45.1697 129.497C41.4845 129.497 41.4645 129.412 41.4645 113.751C41.4645 105.09 41.1252 97.6656 40.7111 97.2513C40.297 96.8374 37.8965 96.8003 35.3771 97.1699C31.1865 97.7845 30.7964 98.3465 30.7964 103.764C30.7964 109.066 30.3967 109.687 26.9864 109.687C23.5574 109.687 23.1763 109.077 23.1763 103.591C23.1763 99.1893 22.5413 97.4962 20.8903 97.4962C19.633 97.4962 18.6855 98.0107 18.7848 98.6391C18.8838 99.2676 18.8838 103.382 18.7848 107.782C18.6166 115.251 18.3516 115.782 14.7943 115.782C11.0689 115.782 10.9842 115.528 10.9842 104.353C10.9842 97.7502 10.3408 92.9248 9.46023 92.9248C8.56489 92.9248 7.93624 98.2166 7.93624 105.752C7.93624 120.576 7.17822 123.401 3.20114 123.401C0.454115 123.401 0.316162 121.725 0.316162 88.3533V53.306H4.8882H9.46023V41.8775C9.46023 30.703 9.5449 30.449 13.2703 30.449C16.8263 30.449 17.0803 30.957 17.0803 38.068C17.0803 43.8246 17.639 45.687 19.3663 45.687C20.6363 45.687 21.6523 44.3325 21.6523 42.6394C21.6523 40.4045 22.6684 39.5918 25.4623 39.5918C27.833 39.5918 29.2724 40.4553 29.2724 41.8775C29.2724 43.1346 30.3011 44.1632 31.5584 44.1632C33.0824 44.1632 33.8444 45.687 33.8444 48.7346C33.8444 51.2489 34.5302 53.306 35.3684 53.306C36.2066 53.306 36.8924 54.3346 36.8924 55.5917C36.8924 56.8488 37.8734 57.8774 39.0724 57.8774C40.2714 57.8774 41.4716 59.4203 41.7394 61.3059C42.4721 66.4637 45.2079 65.4247 45.7521 59.7821C46.1749 55.3967 46.7551 54.8298 50.8199 54.8298C54.8786 54.8298 55.3783 54.3444 55.1339 50.6394C54.9818 48.3346 54.93 43.1918 55.0193 39.2109C55.1678 32.5492 55.4841 31.9727 58.9908 31.9727C62.4309 31.9727 62.8008 32.5748 62.8008 38.1768C62.8008 44.552 65.4243 48.7346 69.423 48.7346C70.6703 48.7346 71.9374 47.9953 72.2386 47.0917C72.5399 46.188 75.1409 45.3309 78.0188 45.1869C82.6393 44.9558 83.2584 45.3703 83.3131 48.7346C83.3595 51.5005 84.3136 52.6774 86.8015 53.0307C88.9392 53.334 90.5777 54.9104 91.1577 57.2211C92.5057 62.5909 96.3291 61.9495 96.3291 56.3535C96.3291 52.4933 96.9217 51.7822 100.139 51.7822C102.235 51.7822 104.035 51.0965 104.14 50.2584C104.244 49.4203 104.501 48.0489 104.711 47.2108C104.921 46.3727 105.178 44.6584 105.282 43.4013C105.563 40.0258 113.06 40.3859 113.213 43.7821C113.285 45.3752 113.643 45.6819 114.102 44.544C115.133 41.9892 124.975 42.1114 127.575 44.7116C128.715 45.8512 129.922 49.4512 130.258 52.7115C130.594 55.9718 130.984 52.6393 131.125 45.3061L131.381 31.9728H135.953C140.177 31.9728 140.525 32.3861 140.525 37.396C140.525 40.3788 141.133 42.4436 141.876 41.9845C142.619 41.5255 143.558 42.4163 143.963 43.9646C144.849 47.3514 152.717 49.3945 152.717 46.2376C152.717 45.0967 154.089 44.1632 155.765 44.1632C158.233 44.1632 158.813 43.1473 158.813 38.8299C158.813 34.631 159.421 33.4966 161.671 33.4966C164.875 33.4966 166.433 38.7377 166.433 49.5094C166.433 55.3749 166.835 56.0752 170.616 56.7978C175.755 57.7802 177.102 57.0342 177.102 53.2028C177.102 50.498 177.853 50.3201 185.484 51.2168C191.309 51.9014 193.866 51.6731 193.866 50.4681C193.866 49.5147 195.181 48.7346 196.789 48.7346C202.336 48.7346 204.534 46.9588 204.534 42.4764C204.534 38.7899 205.158 38.068 208.344 38.068C211.094 38.068 212.154 38.8874 212.154 41.0144C212.154 43.024 213.38 44.1141 216.011 44.4429C218.133 44.7085 219.958 45.6108 220.067 46.4489C220.176 47.287 222.212 48.9155 224.591 50.0678C226.987 51.2277 228.918 53.3981 228.918 54.9301C228.918 56.4522 229.604 58.1214 230.442 58.6393C231.381 59.2195 231.966 56.6234 231.966 51.8721C231.966 44.6651 232.214 44.1632 235.776 44.1632C238.507 44.1632 239.586 44.9854 239.586 47.0679C239.586 49.3978 241.094 50.1798 247.206 51.0203C251.397 51.5965 254.826 52.6895 254.826 53.449C254.826 54.2084 255.855 54.8298 257.112 54.8298C258.369 54.8298 259.398 54.1441 259.398 53.306C259.398 52.468 261.065 51.7822 263.102 51.7822C265.747 51.7822 266.98 52.7622 267.413 55.2108C267.786 57.3162 268.491 55.5525 269.24 50.6394C270.315 43.5806 270.884 42.6394 274.073 42.6394C276.332 42.6394 277.686 43.5312 277.686 45.0185C277.686 46.9746 278.906 47.2148 284.544 46.3692L291.402 45.341V50.0854C291.402 55.551 295.731 56.85 297.057 51.7822C297.945 48.3879 302.004 47.7538 304.82 50.5695C305.829 51.5786 309.052 52.2428 311.983 52.0455C316.978 51.7091 317.311 51.9752 317.311 56.3058C317.311 58.8464 317.996 60.925 318.835 60.925C319.673 60.925 320.359 58.8679 320.359 56.3536C320.359 52.7981 321.036 51.7822 323.407 51.7822C325.439 51.7822 326.455 50.7663 326.455 48.7346C326.455 46.7028 327.471 45.687 329.503 45.687C332.238 45.687 332.551 44.6711 332.551 35.7823C332.551 26.3927 332.737 25.8776 336.144 25.8776C339.422 25.8776 339.822 26.6968 340.716 35.2439C341.254 40.3954 341.695 47.2525 341.695 50.4819C341.695 54.6854 342.344 56.3536 343.981 56.3536C345.852 56.3536 346.267 53.7293 346.267 41.8775C346.267 27.4521 346.278 27.4013 350.077 27.4013C353.8 27.4013 353.887 27.6603 353.887 38.7609V50.1203L359.135 51.1047C362.865 51.8044 364.568 53.0367 365.023 55.3643C365.536 57.9865 365.705 57.8041 365.871 54.4489C366.041 51.03 366.793 50.2584 369.956 50.2584C372.173 50.2584 373.727 49.4431 373.585 48.3536C373.449 47.306 373.419 41.7404 373.518 35.9856C373.696 25.6825 373.757 25.5335 377.509 26.2506C380.962 26.9109 381.319 26.4989 381.319 21.8568C381.319 17.4092 381.821 16.7348 385.129 16.7348C388.918 16.7348 388.94 16.8156 389.146 31.5918C389.261 39.7632 389.651 44.9061 390.014 43.0203C390.413 40.9525 391.783 39.5918 393.467 39.5918C395.746 39.5918 396.455 37.9109 397.321 30.449C398.289 22.1068 398.703 21.3062 402.043 21.3062C405.526 21.3062 405.713 21.8042 405.904 31.5918C406.056 39.3879 406.332 40.5866 407.047 36.5442C407.756 32.5304 408.837 31.0904 411.418 30.7239C414.492 30.2875 414.847 30.8789 414.847 36.4383C414.847 39.8488 415.533 42.7252 416.371 42.8299C417.209 42.9345 421.324 43.106 425.515 43.2107C431.829 43.3683 433.135 42.9438 433.135 40.7345C433.135 38.9059 434.333 38.0679 436.945 38.0679C440.374 38.0679 440.755 38.6772 440.755 44.163C440.755 48.4058 441.412 50.2583 442.914 50.2583C444.102 50.2583 445.419 51.1154 445.842 52.163C446.265 53.2107 446.665 51.4964 446.731 48.3536C446.831 43.6117 447.393 42.6392 450.036 42.6392C453.974 42.6392 458.925 48.3244 458.993 52.925C459.021 54.8106 459.782 56.3534 460.684 56.3534C461.587 56.3534 462.203 54.1249 462.054 51.4011C461.602 43.1489 462.002 41.098 463.997 41.4964C465.188 41.7348 466.079 39.7366 466.375 36.1631C466.781 31.2507 467.369 30.4488 470.566 30.4488C473.887 30.4488 474.284 29.7991 474.284 24.3536C474.284 18.8679 474.664 18.2584 478.094 18.2584H481.904V34.4577V50.657L486.987 49.8322C493.247 48.8165 494.794 49.7586 496.443 55.5916L497.736 60.163L498.303 55.9725C498.746 52.7044 499.687 51.7821 502.579 51.7821C504.619 51.7821 506.288 52.4678 506.288 53.3059C506.288 54.144 507.66 54.8297 509.336 54.8297C511.012 54.8297 512.384 53.8416 512.384 52.6339C512.384 49.3881 514.957 48.3731 518.449 50.2414C520.917 51.5623 521.528 51.4251 521.528 49.55C521.528 48.2634 522.557 47.2107 523.814 47.2107C525.072 47.2107 526.1 46.525 526.1 45.6869C526.1 44.8488 527.815 44.163 529.91 44.163C532.281 44.163 533.72 45.0265 533.72 46.4488C533.72 47.7059 534.455 48.7344 535.353 48.7344C538.028 48.7344 540.762 45.2 542.753 39.1687C543.782 36.049 545.257 33.4965 546.031 33.4965C546.804 33.4965 547.436 32.125 547.436 30.4488C547.436 28.214 548.452 27.4013 551.246 27.4013C554.92 27.4013 555.056 27.757 555.056 37.306C555.056 42.8933 555.721 47.2107 556.58 47.2107C557.461 47.2107 558.105 42.3853 558.105 35.7822C558.105 24.6076 558.189 24.3536 561.915 24.3536C565.334 24.3536 565.725 24.9689 565.725 30.3589C565.725 33.6618 566.41 36.788 567.249 37.306C568.087 37.8239 568.773 39.6276 568.773 41.3143C568.773 43.0009 569.801 45.4093 571.059 46.6664C573.091 48.6981 573.345 48.1782 573.345 41.9863C573.345 35.6327 573.669 35.0203 577.034 35.0203C579.893 35.0203 580.948 36.0479 581.727 39.5916C583.37 47.0731 585.537 44.7934 585.537 35.5828V27.0025L591.252 27.947C594.395 28.4662 597.824 28.8991 598.872 28.9083C600.088 28.9215 600.873 31.541 601.043 36.1631L601.309 43.4011L601.893 36.9249C602.405 31.2328 602.927 30.4488 606.198 30.4488C609.327 30.4488 609.921 31.1857 609.921 35.068C609.921 37.7683 610.87 40.0516 612.207 40.5644C613.808 41.1783 614.493 43.6756 614.493 48.8974C614.493 54.5091 615.058 56.3534 616.779 56.3534C618.375 56.3534 619.065 54.745 619.065 51.0201C619.065 48.0868 619.751 45.6868 620.589 45.6868C621.427 45.6868 622.113 43.2868 622.113 40.3535C622.113 36.0679 622.701 35.0202 625.107 35.0202C629.254 35.0202 631.257 39.5153 631.257 48.8209C631.257 55.2618 631.636 56.4121 633.302 55.0295C635.728 53.0163 637.353 54.2605 637.353 58.1312C637.353 61.8593 639.599 61.6578 643.39 57.5901C645.39 55.4433 646.497 52.1858 646.497 48.4473C646.497 43.2681 646.91 42.6394 650.307 42.6394C653.909 42.6394 654.117 43.0964 654.117 51.0203C654.117 57.4542 654.648 59.4012 656.403 59.4012C657.673 59.4012 658.689 58.0468 658.689 56.3536C658.689 54.5988 659.705 53.306 661.084 53.306C662.634 53.306 663.381 52.0964 663.202 49.8775C662.646 43.0189 663.282 41.1156 666.131 41.1156C667.72 41.1156 669.358 42.4765 669.799 44.1632C670.257 45.9143 671.878 47.2108 673.609 47.2108C675.34 47.2108 676.961 45.9143 677.419 44.1632C677.999 41.9441 679.498 41.1156 682.931 41.1156C687.785 41.1156 688.333 42.1217 687.705 49.8775C687.525 52.0964 688.273 53.306 689.822 53.306C691.377 53.306 692.217 51.9348 692.217 49.3963C692.217 42.6429 694.843 39.5918 700.653 39.5918C703.557 39.5918 705.933 38.9061 705.933 38.068C705.933 37.2299 707.648 36.5442 709.744 36.5442C711.839 36.5442 713.554 37.2703 713.554 38.1579C713.554 39.0455 714.284 39.3202 715.177 38.7686C716.083 38.209 716.704 33.6231 716.581 28.3929C716.46 23.2381 716.415 14.6872 716.481 9.3909C716.594 0.304954 716.795 -0.211404 720.03 0.248093C723.405 0.727591 723.466 1.12281 723.878 25.4967C724.128 40.2832 724.895 50.2585 725.783 50.2585C726.6 50.2585 727.269 48.5443 727.269 46.449C727.269 43.4364 728.04 42.6396 730.952 42.6396C732.978 42.6396 734.894 43.4167 735.211 44.3666C735.575 45.4575 739.588 46.0112 746.109 45.8698C751.786 45.7467 756.077 46.2189 755.644 46.9186C755.212 47.6185 756.195 49.3353 757.827 50.7337C760.657 53.1561 760.797 53.097 760.797 49.4817C760.797 46.703 761.613 45.6871 763.846 45.6871C766.461 45.6871 766.893 44.6712 766.893 38.5323V31.3774L772.228 37.2C775.161 40.4024 777.562 43.6221 777.562 44.3549C777.562 45.0876 778.213 45.6871 779.01 45.6871C779.806 45.6871 780.705 49.63 781.007 54.449C781.434 61.246 781.622 60.2209 781.845 49.8776C782.13 36.7481 782.192 36.5443 785.944 36.5443C789.538 36.5443 789.754 37.0106 789.754 44.7826C789.754 52.2706 790.031 52.9482 792.802 52.2238C795.312 51.5675 795.85 50.1454 795.85 44.1586V36.8904L802.847 35.8412C806.696 35.2643 810.066 35.0148 810.335 35.2869C810.604 35.5591 811.282 42.637 811.841 51.0152C812.917 67.134 814.138 72.2185 814.138 60.5799C814.138 55.8096 814.854 53.3569 816.424 52.7548C817.681 52.272 818.71 50.8696 818.71 49.6375C818.71 48.1507 821.016 47.0515 825.568 46.3691L832.426 45.3408V36.371C832.426 27.8191 832.604 27.4011 836.236 27.4011C839.831 27.4011 840.046 27.8667 840.046 35.6574C840.046 45.3149 841.085 48.7344 844.019 48.7344C845.362 48.7344 846.142 50.4143 846.142 53.3058C846.142 55.8201 846.828 57.8772 847.666 57.8772C848.504 57.8772 849.19 54.0416 849.19 49.3537C849.19 42.3044 849.684 40.701 852.044 40.0837C854.495 39.4433 855.176 36.6939 856.857 20.6742C858.779 2.34886 858.879 2.02336 862.384 2.69333C865.872 3.35999 865.958 3.78429 866.131 21.1027C866.228 30.8525 866.621 37.6297 867.005 36.1631C867.415 34.5919 869.151 33.4964 871.23 33.4964C874.076 33.4964 874.994 34.6019 875.971 39.2107C876.918 43.6726 877.313 44.1735 877.771 41.4963C878.192 39.0423 879.411 38.0678 882.062 38.0678C885.043 38.0678 885.802 38.8858 885.947 42.2582C886.046 44.563 886.015 47.311 885.878 48.3648C885.74 49.4186 886.324 51.4757 887.175 52.9362C888.3 54.866 888.735 51.5326 888.769 40.7345C888.815 25.9152 888.828 25.8774 892.625 25.8774C895.419 25.8774 896.435 26.6901 896.435 28.925C896.435 30.6181 897.451 31.9726 898.721 31.9726C900.129 31.9726 901.007 33.4018 901.007 35.6921C901.007 37.7379 901.693 39.8355 902.531 40.3535C903.462 40.929 904.055 38.5916 904.055 34.3482C904.055 27.954 904.358 27.4011 907.865 27.4011C910.703 27.4011 911.675 28.2066 911.675 30.5576C911.675 32.2937 912.704 34.7427 913.961 35.9998C915.218 37.257 916.247 40.6365 916.247 43.5099C916.247 46.3834 916.933 48.7344 917.771 48.7344C918.609 48.7344 919.295 45.6487 919.295 41.8773C919.295 35.5789 919.606 35.0202 923.105 35.0202C925.995 35.0202 926.952 35.848 927.067 38.4487C927.211 41.7011 927.273 41.6816 928.27 38.0679C929.008 35.3961 930.555 34.1144 933.452 33.7762C937.25 33.3325 937.583 32.7499 937.583 26.5382C937.583 20.3479 937.902 19.7823 941.393 19.7823H945.203V35.0203V50.2584H949.013C952.231 50.2584 952.823 49.5473 952.823 45.687C952.823 41.8583 953.427 41.1155 956.537 41.1155C959.591 41.1155 960.335 41.9732 960.728 45.9506C961.595 54.7333 964.818 52.7465 965.317 43.1209C965.725 35.2557 966.163 34.2037 969.206 33.7715C972.291 33.333 972.65 33.9457 972.777 39.8667C972.854 43.4869 972.803 49.3631 972.661 52.925C972.439 58.5462 972.822 59.4011 975.568 59.4011C978.348 59.4011 978.731 58.4777 978.731 51.7821C978.731 46.0255 979.29 44.1631 981.017 44.1631C982.275 44.1631 983.303 43.1346 983.303 41.8774C983.303 40.4552 984.743 39.5917 987.113 39.5917C989.209 39.5917 990.923 40.2775 990.923 41.1155C990.923 41.9537 991.609 42.6393 992.447 42.6393C993.286 42.6393 993.971 41.2679 993.971 39.5917C993.971 37.3568 994.987 36.5441 997.781 36.5441C1000.19 36.5441 1001.59 37.4044 1001.59 38.8776C1001.59 40.1611 1002.62 41.6059 1003.88 42.0883C1005.13 42.5711 1006.16 44.6063 1006.16 46.6119C1006.16 49.1906 1007.02 50.2584 1009.09 50.2584C1010.69 50.2584 1013.1 50.675 1014.42 51.1833C1016.4 51.9442 1016.83 50.8634 1016.83 45.0881C1016.83 38.6158 1017.13 38.0679 1020.64 38.0679C1023.69 38.0679 1024.45 38.8298 1024.45 41.8774C1024.45 43.9726 1025.14 45.687 1025.98 45.687C1026.81 45.687 1027.5 44.6584 1027.5 43.4012C1027.5 38.9673 1038.55 41.2694 1040.94 46.2002C1042.47 49.3592 1042.54 49.3219 1042.64 45.3059C1042.72 41.9307 1043.45 41.1155 1046.39 41.1155C1048.39 41.1155 1050.43 42.1441 1050.91 43.4012C1051.39 44.6584 1052.84 45.687 1054.12 45.687C1055.41 45.687 1056.46 46.3727 1056.46 47.2107C1056.46 48.0488 1057.48 48.7345 1058.74 48.7345C1060 48.7345 1061.03 48.0488 1061.03 47.2107C1061.03 46.3727 1062.4 45.687 1064.08 45.687C1065.75 45.687 1067.12 45.0013 1067.12 44.1631C1067.12 43.3251 1068.17 42.6393 1069.46 42.6393C1070.74 42.6393 1072.19 41.6108 1072.67 40.3537C1073.15 39.0964 1075.19 38.0679 1077.19 38.0679C1080.43 38.0679 1080.84 38.7501 1080.84 44.1631C1080.84 49.2425 1081.35 50.2584 1083.89 50.2584C1086.09 50.2584 1086.94 49.2425 1086.94 46.6119C1086.94 44.6063 1087.96 42.5707 1089.22 42.0883C1090.91 41.4412 1091.51 38.7725 1091.51 31.9146C1091.51 23.1453 1091.7 22.6456 1094.94 23.1049C1098.19 23.5665 1098.39 24.3548 1098.8 38.4489C1099.06 47.3951 1099.87 53.3059 1100.82 53.3059C1101.68 53.3059 1102.27 51.7631 1102.12 49.8774C1101.63 43.8733 1102.1 42.8622 1105.61 42.3644C1108.47 41.9584 1109.11 40.7869 1109.51 35.3074C1109.92 29.5325 1110.38 28.7948 1113.32 29.2122C1116.47 29.6606 1116.68 30.5531 1117.09 45.3059C1117.33 54.0253 1118.17 60.925 1118.99 60.925C1119.8 60.925 1120.57 58.3535 1120.7 55.2107C1120.82 52.0678 1121 48.4679 1121.08 47.2107C1121.25 44.5471 1132.66 42.9555 1132.66 45.595C1132.66 46.4836 1133.34 47.2107 1134.18 47.2107C1135.02 47.2107 1135.7 43.7821 1135.7 39.5917C1135.7 32.4806 1135.96 31.9727 1139.51 31.9727C1143.01 31.9727 1143.32 32.5317 1143.32 38.8298C1143.32 44.6711 1143.78 45.687 1146.37 45.687C1148.74 45.687 1149.42 44.6711 1149.42 41.1155C1149.42 37.2839 1150.02 36.5441 1153.14 36.5441C1156.41 36.5441 1156.94 37.3281 1157.45 43.0203C1157.77 46.5822 1158.15 42.0795 1158.3 33.0143L1158.56 16.5323L1162.64 17.0145C1166.68 17.492 1166.71 17.5986 1166.35 28.5442C1166.06 37.2616 1166.44 39.5917 1168.15 39.5917C1169.45 39.5917 1170.95 42.2072 1171.88 46.0679C1173.38 52.2893 1173.45 52.3492 1173.62 47.5917C1173.78 43.3738 1174.37 42.6393 1177.61 42.6393C1179.99 42.6393 1181.42 41.7759 1181.42 40.3537C1181.42 39.0964 1182.11 38.0679 1182.95 38.0679C1183.79 38.0679 1184.47 37.0394 1184.47 35.7823C1184.47 33.1878 1191.34 32.5711 1192.86 35.029C1193.38 35.8718 1193.81 41.0146 1193.81 46.4574C1193.81 55.1975 1194.15 56.3535 1196.73 56.3535C1199.43 56.3535 1201.88 51.6514 1201.15 47.8744C1200.26 43.2472 1201.49 41.1156 1205.05 41.1156C1207.49 41.1156 1208.86 40.2591 1208.86 38.7239C1208.86 34.8064 1215.62 36.6587 1216.2 40.7346C1216.55 43.2161 1217.71 44.1631 1220.39 44.1631C1223.08 44.1631 1224.1 44.9991 1224.1 47.2108C1224.1 48.8869 1224.86 50.2584 1225.78 50.2584C1226.71 50.2584 1227.08 49.2298 1226.59 47.9727C1225.96 46.3214 1226.76 45.687 1229.48 45.687C1231.81 45.687 1233.24 44.8157 1233.24 43.4012C1233.24 41.9791 1234.68 41.1156 1237.05 41.1156C1240.41 41.1156 1240.88 41.7972 1241.04 46.8298L1241.21 52.5441L1242.47 46.4489C1243.17 43.0965 1243.77 37.0965 1243.82 33.1156C1243.9 26.4343 1244.2 25.8775 1247.72 25.8775C1251.27 25.8775 1251.54 26.4153 1251.74 33.8775C1251.85 38.2775 1252.24 40.3346 1252.6 38.4489C1253.07 36.0362 1254.34 35.0203 1256.9 35.0203C1259.88 35.0203 1260.74 36.0481 1261.68 40.7346C1262.31 43.8775 1262.94 46.9631 1263.08 47.5917C1263.22 48.2202 1263.43 49.7631 1263.53 51.0203C1263.64 52.2774 1264.46 53.3059 1265.35 53.3059C1266.25 53.3059 1266.86 51.7631 1266.71 49.8774C1265.99 40.9736 1266.75 38.0679 1269.82 38.0679C1271.83 38.0679 1272.86 39.0838 1272.86 41.0619C1272.86 42.7086 1274.19 44.7658 1275.81 45.6333C1280.02 47.8856 1280.48 47.6642 1280.48 43.4012C1280.48 40.3537 1281.25 39.5917 1284.3 39.5917C1287.09 39.5917 1288.11 40.4045 1288.11 42.6393C1288.11 44.3325 1289.12 45.687 1290.39 45.687C1292.22 45.687 1292.72 43.2319 1292.87 33.4965C1292.97 26.7918 1293.23 20.6205 1293.44 19.7823C1293.65 18.9443 1293.91 16.2014 1294.01 13.6871C1294.17 9.87762 1294.84 9.11573 1298.01 9.11573H1301.82V30.4489V51.7821H1307.16H1312.49V41.9801C1312.49 33.3244 1312.87 32.0579 1315.73 31.1504C1320.19 29.7353 1321.58 32.5511 1321.61 43.0203C1321.63 50.8595 1321.97 51.7821 1324.79 51.7821C1331.63 51.7821 1332.3 54.4905 1332.3 82.0467C1332.3 106.933 1332.18 107.997 1329.14 108.961C1325.06 110.256 1324.92 110.062 1324.37 102.141C1323.68 92.3197 1320.11 92.1513 1320.11 101.941C1320.11 107.81 1319.56 109.687 1317.82 109.687C1316.05 109.687 1315.54 111.718 1315.54 118.829C1315.54 127.566 1315.37 127.972 1311.73 127.972C1307.95 127.972 1307.92 127.848 1307.74 113.877C1307.64 106.125 1307.64 99.2676 1307.74 98.6391C1307.84 98.0106 1306.89 97.4962 1305.63 97.4962C1303.9 97.4962 1303.35 99.3587 1303.35 105.115C1303.35 112.226 1303.09 112.734 1299.54 112.734C1295.77 112.734 1295.72 112.584 1295.45 98.6391C1295.3 90.8867 1294.92 87.7354 1294.61 91.6362C1294.13 97.6691 1293.49 98.8685 1290.31 99.6652C1286.87 100.528 1286.58 101.316 1286.58 109.716C1286.58 118.421 1286.41 118.829 1282.77 118.829C1279.11 118.829 1278.95 118.434 1278.72 108.544C1278.58 102.887 1278.19 100.557 1277.85 103.367L1277.22 108.476L1270.15 107.415C1265.92 106.782 1261.97 105.091 1260.35 103.216C1258.18 100.723 1257.62 100.571 1257.62 102.475C1257.62 103.9 1255.77 105.28 1253.05 105.877C1249.06 106.754 1248.48 107.541 1248.48 112.093C1248.48 116.637 1247.99 117.306 1244.67 117.306C1241.23 117.306 1240.86 116.704 1240.86 111.083C1240.86 102.94 1237.25 103.769 1236.56 112.07C1236.07 117.919 1234.36 120.284 1230.57 120.33C1229.26 120.35 1228.58 117.138 1228.37 110.068L1228.08 99.7819L1227.54 109.306C1227.03 118.252 1226.77 118.829 1223.26 118.829C1219.71 118.829 1219.52 118.376 1219.52 109.687C1219.52 102.576 1219.02 100.544 1217.24 100.544C1215.98 100.544 1214.95 101.23 1214.95 102.068C1214.95 102.906 1212.21 103.591 1208.86 103.591C1203.78 103.591 1202.76 104.099 1202.76 106.639C1202.76 108.671 1201.74 109.687 1199.71 109.687C1197.34 109.687 1196.66 110.703 1196.66 114.258C1196.66 118.118 1196.07 118.829 1192.85 118.829C1189.52 118.829 1189.04 118.169 1189.04 113.496C1189.04 109.233 1188.45 108.163 1186.09 108.163C1184.46 108.163 1182.7 108.849 1182.19 109.687C1181.67 110.525 1179.91 111.21 1178.29 111.21C1175.91 111.21 1175.33 110.139 1175.33 105.765C1175.33 101.401 1174.8 100.422 1172.66 100.83C1170.41 101.261 1169.93 103.393 1169.55 114.656C1169.12 127.669 1169.03 127.972 1165.36 127.972C1161.69 127.972 1161.61 127.711 1161.61 115.878V103.783L1156.28 104.649C1152.01 105.341 1150.94 105.018 1150.94 103.029C1150.94 101.662 1150.28 100.544 1149.48 100.544C1148.67 100.544 1147.81 106.887 1147.57 114.639C1147.16 127.942 1146.94 128.761 1143.71 129.221C1140.36 129.696 1140.28 129.364 1140.28 115.465C1140.28 103.107 1139.87 100.876 1137.23 98.6117C1134.29 96.0977 1134.18 96.1483 1134.18 99.9962C1134.18 103.71 1133.81 103.929 1128.85 103.125C1123.97 102.334 1123.51 102.58 1123.51 105.973C1123.51 108.502 1122.66 109.68 1120.84 109.666C1115.46 109.626 1111.58 107.808 1110.84 104.974C1109.82 101.082 1105.22 101.198 1105.22 105.115C1105.22 106.809 1104.21 108.163 1102.94 108.163C1101.68 108.163 1100.65 108.849 1100.65 109.687C1100.65 110.525 1099.62 111.211 1098.37 111.211C1097.11 111.211 1096.08 111.896 1096.08 112.734C1096.08 113.572 1094.37 114.258 1092.27 114.258C1088.64 114.258 1088.46 113.84 1088.46 105.288V96.3186L1081.41 95.261C1077.53 94.6795 1073.41 93.8425 1072.26 93.4013C1070.73 92.8125 1070.17 94.0636 1070.17 98.0952C1070.17 101.118 1069.54 103.592 1068.77 103.592C1068 103.592 1066.29 104.008 1064.96 104.516C1063.35 105.135 1062.55 104.589 1062.55 102.866C1062.55 98.6799 1058.79 101.166 1058.25 105.705C1057.86 109 1057.07 109.771 1054.44 109.397C1052.35 109.099 1050.94 107.66 1050.63 105.496C1050.37 103.611 1049.17 102.068 1047.97 102.068C1046.27 102.068 1045.79 104.601 1045.79 113.496C1045.79 124.671 1045.7 124.925 1041.98 124.925C1038.53 124.925 1038.16 124.309 1038.05 118.449C1037.98 114.887 1037.61 112.73 1037.23 113.656C1036.85 114.582 1034.85 115.016 1032.78 114.621C1030.2 114.127 1029.02 112.888 1029 110.652C1028.98 107.995 1028.71 107.818 1027.5 109.687C1026.69 110.944 1026.01 114.201 1026 116.925C1025.98 120.76 1025.32 121.877 1023.09 121.877C1019.61 121.877 1018.36 119.022 1018.36 111.086C1018.36 106.795 1017.71 105.115 1016.07 105.115C1014.68 105.115 1013.78 103.696 1013.78 101.484C1013.78 99.1334 1012.71 97.5706 1010.74 97.0549C1008.47 96.4635 1007.69 97.0085 1007.69 99.1628C1007.69 101.201 1006.61 102.068 1004.08 102.068C1000.95 102.068 1000.35 102.994 999.51 109.152C998.404 117.223 996.377 120.353 992.26 120.353C989.843 120.353 989.399 119.172 989.399 112.734C989.399 106.131 988.992 105.115 986.351 105.115C984.675 105.115 983.303 105.801 983.303 106.639C983.303 107.477 981.955 108.163 980.307 108.163C977.863 108.163 977.126 106.76 976.301 100.544C975.745 96.3535 974.743 92.925 974.074 92.925C973.406 92.925 970.664 96.7598 967.982 101.447C963.81 108.737 962.574 109.867 959.423 109.264C957.397 108.878 952.639 109.225 948.849 110.03C943.913 111.082 940.689 110.974 937.485 109.646C933.163 107.857 933.003 107.422 932.777 96.9307L932.544 86.068L931.045 100.163C929.621 113.541 929.362 114.258 925.944 114.258C922.732 114.258 922.337 113.559 922.289 107.782C922.262 104.22 921.255 99.5918 920.057 97.4966L917.879 93.6871L917.826 98.6394C917.793 102.002 917.038 103.592 915.486 103.592C913.686 103.592 913.2 105.72 913.2 113.602C913.2 123.112 913.028 123.589 909.77 123.126C906.726 122.694 906.243 121.53 905.461 112.735L904.582 102.83L904.319 113.877C904.064 124.575 903.935 124.925 900.245 124.925C896.499 124.925 896.436 124.722 896.436 112.735V100.544H891.863C887.799 100.544 887.291 100.036 887.291 95.9727C887.291 93.4584 886.777 91.4231 886.148 91.4497C883.866 91.5464 879.671 95.6 879.671 97.7091C879.671 98.8984 878.3 100.86 876.623 102.068C874.501 103.598 873.575 106.013 873.575 110.023C873.575 115.15 873.157 115.782 869.765 115.782C866.154 115.782 865.955 115.336 865.955 107.238C865.955 100.27 865.534 98.8561 863.669 99.5714C862.412 100.054 861.335 99.6111 861.276 98.5916C860.996 93.7433 858.536 103.706 858.442 110.068C858.351 116.254 857.892 117.306 855.287 117.306C853.611 117.306 852.239 116.725 852.239 116.015C852.239 115.305 851.029 113.33 849.551 111.625C847.351 109.09 845.758 108.704 840.788 109.505C835.593 110.343 834.643 111.089 834.231 114.657C833.488 121.086 828.462 120.257 827.194 113.497C826.643 110.563 825.562 108.163 824.79 108.163C824.019 108.163 822.933 104.735 822.377 100.544C821.397 93.1557 818.212 89.4548 818.771 96.3538C818.923 98.2394 818.972 103.382 818.879 107.782C818.724 115.157 818.426 115.782 815.064 115.782C811.39 115.782 809.566 113.275 809.566 108.225C809.566 106.72 808.538 104.635 807.28 103.592C805.701 102.281 804.994 102.223 804.994 103.405C804.994 104.346 803.28 105.115 801.184 105.115C798.39 105.115 797.374 104.303 797.374 102.068C797.374 100.392 796.385 99.0202 795.176 99.0202C793.68 99.0202 792.828 101.085 792.509 105.483C792.153 110.383 791.347 112.078 789.175 112.49C784.906 113.301 783.707 110.111 783.681 97.8773L783.662 86.8297L780.614 89.8773C778.937 91.5535 777.566 94.2963 777.566 95.9725C777.566 98.0042 776.55 99.0202 774.518 99.0202C772.147 99.0202 771.469 100.036 771.469 103.592C771.469 106.732 770.72 108.163 769.075 108.163C767.758 108.163 765.651 109.192 764.394 110.449C760.929 113.913 754.705 113.424 754.705 109.687C754.705 107.323 753.689 106.639 750.177 106.639C746.347 106.639 745.45 107.403 744.365 111.591C742.818 117.56 737.474 118.622 736.692 113.115C736.38 110.912 735.154 109.687 733.263 109.687C731.141 109.687 730.321 108.625 730.321 105.877C730.321 103.574 729.452 102.068 728.123 102.068C726.626 102.068 725.775 104.135 725.456 108.544C725.066 113.928 724.409 115.102 721.558 115.507C719.355 115.82 718.129 117.045 718.129 118.936C718.129 121.057 717.067 121.877 714.319 121.877C710.722 121.877 710.509 121.414 710.509 113.586C710.509 109.026 709.823 104.871 708.985 104.353C708.024 103.759 707.461 107.385 707.461 114.168C707.461 124.588 707.343 124.925 703.701 124.925C699.954 124.925 699.939 124.865 699.51 107.906C699.212 96.147 698.501 90.6959 697.21 90.2676C696.032 89.8762 694.975 91.9413 694.349 95.8578C693.616 100.44 692.64 102.068 690.627 102.068C684.162 102.068 683.077 103.625 683.077 112.897C683.077 121.46 682.9 121.877 679.267 121.877C676.243 121.877 675.457 121.109 675.457 118.158C675.457 116.112 674.771 114.014 673.933 113.496C673.095 112.978 672.409 111.224 672.409 109.597C672.409 107.97 671.38 106.639 670.123 106.639C668.472 106.639 667.837 108.332 667.837 112.734C667.837 118.22 667.456 118.83 664.027 118.83C660.418 118.83 660.217 118.381 660.217 110.322C660.217 104.197 659.684 101.989 658.312 102.441C657.264 102.786 656.188 104.557 655.92 106.378C654.958 112.914 648.025 109.593 648.025 102.596C648.025 98.9145 644.011 95.9725 638.989 95.9725C634.773 95.9725 634.309 96.4401 634.309 100.687V105.401L626.688 104.353C620.849 103.55 619.018 103.785 618.852 105.353C618.733 106.48 618.145 104.658 617.544 101.306L616.453 95.2107L616.236 101.487C616.029 107.505 615.784 107.803 610.305 108.709C600.828 110.275 600.782 110.244 600.757 102.449C600.745 98.4678 600.068 94.182 599.256 92.9249C598.215 91.3142 597.772 93.4521 597.755 100.163C597.732 109.3 597.577 109.687 593.922 109.687C590.993 109.687 590.107 108.894 590.091 106.258C590.063 101.214 588.427 95.9725 586.886 95.9725C586.146 95.9725 585.54 100.087 585.54 105.115C585.54 113.852 585.37 114.258 581.73 114.258C578.936 114.258 577.92 113.445 577.92 111.21C577.92 109.223 576.904 108.163 574.999 108.163C573.392 108.163 571.732 107.306 571.309 106.258C570.821 105.049 570.496 105.263 570.42 106.842C570.354 108.211 568.928 109.69 567.252 110.128C565.575 110.567 564.204 112.066 564.204 113.46C564.204 115.216 563.151 115.844 560.775 115.507C557.737 115.076 557.293 114.02 556.889 106.258C556.465 98.1268 556.166 97.4962 552.737 97.4962H549.043L548.622 120.734C548.21 143.527 548.136 143.982 544.773 144.459C541.587 144.911 541.33 144.343 541.153 136.459L541.15 136.46Z" fill="black"/>
</svg>
