<svg width="1205" height="150" viewBox="0 0 1205 150" fill="none" xmlns="http://www.w3.org/2000/svg">
<path d="M467.121 144.755C467.117 132.165 466.242 112.282 465.682 112.076C465.341 111.95 465.062 110.352 465.062 108.526C465.062 103.964 464.584 103.033 462.241 103.033C460.339 103.033 460.25 102.892 460.174 99.7707C460.131 97.9765 460.16 95.9127 460.238 95.1845C460.506 92.7055 459.47 86.5502 458.785 86.5502C458.379 86.5502 458.166 88.7014 458.259 91.8727C458.39 96.3644 458.237 97.2299 457.273 97.4173C456.52 97.5636 456.132 98.3228 456.132 99.6494C456.132 101.603 456.037 101.659 452.698 101.659H449.263V94.7916C449.263 90.6709 448.988 87.9237 448.576 87.9237C448.198 87.9237 447.889 88.7133 447.889 89.6783C447.889 91.3428 447.722 91.4221 444.63 91.2235C441.629 91.0309 441.336 90.8512 440.933 88.9539C440.537 87.0879 440.488 87.1644 440.415 89.7646C440.346 92.1894 440.093 92.6697 438.788 92.8551C437.255 93.0726 437.175 93.3012 436.967 98.0537C436.93 98.9036 436.497 99.5991 436.007 99.5991C434.902 99.5991 433.465 103.414 433.465 106.344C433.465 108.506 433.431 108.527 430.03 108.527H426.596V110.931C426.596 112.877 426.334 113.335 425.222 113.335C423.989 113.335 423.848 113.792 423.848 117.799V122.263H420.414C417.002 122.263 416.979 122.245 416.956 120.031C416.943 118.803 416.94 110.922 416.949 102.518L416.966 87.2369H415.255C413.592 87.2369 413.545 87.1016 413.545 82.315C413.545 79.6079 413.426 77.5217 413.28 77.6792C413.134 77.8364 412.669 82.2921 412.246 87.5803C410.82 105.43 411.057 104.407 408.344 104.407H405.989V109.901C405.989 114.101 405.767 115.395 405.046 115.395C404.388 115.395 404.083 116.38 404.037 118.65C404.002 120.44 403.653 122.011 403.263 122.141C402.851 122.278 402.555 124.796 402.555 128.158V133.938H399.12H395.686L395.632 125.868C395.602 121.43 395.626 115.794 395.685 113.343C395.904 104.251 394.874 91.3576 393.928 91.3576C393.436 91.3576 392.935 90.6623 392.814 89.8124C392.675 88.8346 392.043 88.1885 391.091 88.0532C390.187 87.9246 389.472 87.24 389.296 86.3363C389.135 85.5096 388.962 87.3632 388.91 90.4556L388.817 96.078L386.584 96.2932L384.352 96.5083L384.155 103.204L383.959 109.901H380.549C378.674 109.901 377.14 109.592 377.14 109.214C377.14 108.836 376.81 108.527 376.407 108.527C375.95 108.527 375.711 110.274 375.772 113.163C375.826 115.712 375.847 120.039 375.818 122.778L375.766 127.757H372.332H368.897L368.821 112.133C368.779 103.539 368.801 95.8129 368.871 94.9631C369.049 92.7669 367.333 91.3574 364.482 91.3574C362.323 91.3574 362.029 91.1515 362.029 89.6405C362.029 88.6962 361.72 87.9235 361.342 87.9235C360.928 87.9235 360.655 90.7495 360.655 95.0279C360.655 98.9353 360.453 105.425 360.207 109.45L359.759 116.768H356.772H353.785V111.274V105.78H350.645H347.506L347.726 111.962L347.947 118.145L346.058 118.144C344.5 118.142 344.169 118.444 344.169 119.859C344.169 121.459 343.937 121.576 340.78 121.576C337.61 121.576 337.372 121.454 337.105 119.687C336.947 118.649 336.772 120.967 336.716 124.838L336.613 131.878H333.612C330.677 131.878 330.601 131.823 330.185 129.302C329.951 127.886 329.756 122.168 329.751 116.597C329.747 110.306 329.484 106.467 329.057 106.467C328.679 106.467 328.365 104.999 328.36 103.204C328.354 101.41 328.05 99.4786 327.683 98.912C327.149 98.0856 327.015 98.2003 327.007 99.4916C327 100.518 326.499 101.231 325.623 101.46C324.468 101.762 324.235 102.436 324.165 105.688C324.119 107.816 323.887 113.884 323.65 119.172L323.218 128.787L319.956 128.997L316.693 129.207V126.422V123.637H313.602H310.511L310.487 120.718C310.473 119.113 310.396 113.009 310.315 107.154L310.168 96.5091H307.763H305.359L305.157 101.488L304.956 106.468H302.968C301.416 106.468 300.52 107.108 298.884 109.386C296.837 112.236 296.707 112.3 293.346 112.067L289.904 111.829V107.432V103.034H286.813H283.722L283.649 99.7716C283.609 97.9775 283.507 96.0458 283.423 95.4793C283.339 94.9125 283.217 93.1357 283.153 91.5303C283.047 88.906 282.862 88.6115 281.318 88.6115C279.747 88.6115 279.601 88.3549 279.601 85.5944C279.601 82.8885 278.877 81.7436 277.165 81.7436C277.02 81.7436 276.813 84.9114 276.706 88.7832L276.51 95.8227L273.762 96.1664L271.015 96.5094L270.867 107.155C270.786 113.009 270.709 118.959 270.696 120.375L270.671 122.951H267.237H263.803L263.754 120.375C263.728 118.959 263.747 115.405 263.798 112.477L263.89 107.155H261.513H259.135L258.639 97.8831C258.254 90.6998 257.928 88.6115 257.194 88.6115C256.673 88.6115 256.247 88.3025 256.247 87.9247C256.247 87.5469 255.636 87.2379 254.89 87.2379C253.611 87.2379 253.533 87.7236 253.55 95.6499C253.56 100.276 253.356 107.23 253.097 111.103C252.627 118.114 252.617 118.143 250.83 118.148C248.458 118.155 247.317 120.652 247.317 125.835V129.818H244.267C242.589 129.818 241.034 129.524 240.812 129.165C240.59 128.805 240.415 123.628 240.424 117.661C240.446 103.545 239.871 96.8528 238.636 96.8528C238.122 96.8528 237.701 97.1619 237.701 97.5397C237.701 97.9175 236.155 98.2264 234.266 98.2264C230.811 98.2264 230.523 97.9845 230.796 95.3076C230.892 94.3649 230.39 94.1058 228.471 94.1058C226.49 94.1058 226.023 93.8468 226.023 92.7469C226.023 91.5468 225.823 91.4794 224.306 92.1704L222.589 92.9526L222.487 110.87C222.431 120.725 222.286 131.261 222.167 134.283C222.047 137.304 221.938 140.472 221.925 141.322C221.905 142.692 221.552 142.867 218.811 142.867C215.274 142.867 215.576 143.885 215.716 132.449C215.778 127.34 215.569 125.677 214.811 125.238C213.54 124.502 213.015 116.761 212.991 98.3982L212.973 84.4908H211.221H209.47L209.559 90.8435C209.673 98.8869 208.97 104.989 207.695 107.027C207.053 108.054 206.735 110.24 206.798 113.208C206.851 115.733 206.871 122.358 206.843 127.93L206.791 138.06H203.74C202.063 138.06 200.521 137.786 200.314 137.452C200.107 137.117 199.923 125.837 199.904 112.384C199.875 91.3968 199.727 87.9246 198.866 87.9246C198.313 87.9246 197.861 88.5426 197.861 89.298C197.861 90.4884 197.403 90.6716 194.427 90.6716H190.992V95.7663C190.992 102.517 190.743 103.034 187.484 103.034H184.81V109.558V116.083H181.376H177.941V106.468C177.941 100.516 177.68 96.8527 177.254 96.8527C176.877 96.8527 176.567 96.2345 176.567 95.4791C176.567 94.4718 176.11 94.1056 174.85 94.1056C173.269 94.1056 173.128 93.8471 173.065 90.8433C173.027 89.0491 172.749 86.8085 172.446 85.8642C171.943 84.2933 171.541 88.2348 171.483 95.3074C171.476 96.1573 171.071 96.8527 170.584 96.8527C170.097 96.8527 169.699 97.1678 169.699 97.5526C169.699 97.956 168.972 98.07 167.981 97.8213C166.387 97.4216 166.264 97.5684 166.264 99.8686C166.264 101.232 165.939 102.347 165.541 102.347C165.073 102.347 164.844 105.074 164.893 110.073C164.934 114.323 164.951 120.813 164.929 124.496L164.89 131.192H161.455H158.021L157.962 124.496C157.929 120.813 157.838 116.872 157.758 115.739C157.678 114.606 157.55 111.747 157.473 109.386L157.334 105.094H154.243C151.267 105.094 151.152 105.018 151.152 103.034C151.152 101.05 151.038 100.973 148.061 100.973C145.085 100.973 144.97 100.897 144.97 98.913C144.97 97.3104 144.665 96.8526 143.596 96.8526C142.31 96.8526 142.223 97.3103 142.223 104.064V111.275H138.788H135.354L135.293 103.892C135.259 99.8315 135.282 95.0411 135.344 93.2469C135.454 90.0474 135.416 89.9847 133.372 89.9847H131.288L131.298 96.289C131.306 101.287 131.087 102.717 130.24 103.191C129.313 103.71 129.178 106.179 129.223 121.783L129.274 139.776L125.789 139.984L122.303 140.192V131.228C122.303 123.718 122.136 122.264 121.273 122.264C120.639 122.264 120.243 121.62 120.243 120.593C120.243 119.304 119.832 118.871 118.449 118.704L116.656 118.487L116.764 108.684C116.885 97.8514 116.551 96.8533 112.811 96.8533C110.556 96.8533 110.78 97.4778 109.277 86.9637C108.85 83.9796 108.097 80.7657 107.602 79.8217C106.761 78.2163 106.674 78.4116 106.261 82.8435C106.019 85.4496 105.829 91.6908 105.84 96.713C105.852 101.735 105.678 106.139 105.455 106.5C105.232 106.86 103.677 107.155 102 107.155C98.9712 107.155 98.9491 107.137 98.9491 104.751C98.9491 103.429 98.676 102.348 98.3423 102.348C98.0086 102.348 97.5619 101.684 97.3497 100.872C96.9897 99.4959 96.6733 99.4272 92.633 99.8488C90.2511 100.097 88.1992 100.607 88.0733 100.981C87.9474 101.355 86.3246 101.661 84.4671 101.661H81.0899L80.98 97.3684C80.919 94.9985 80.746 94.0757 80.593 95.3081C80.4249 96.6619 79.9277 97.5401 79.3291 97.5401C78.5725 97.5401 78.3423 98.5815 78.3423 102.004V106.468H74.9078H71.4734V101.661C71.4734 98.0255 71.2417 96.8533 70.5232 96.8533C70.0005 96.8533 69.4113 97.4714 69.2137 98.2269C68.9202 99.349 68.2768 99.6004 65.6991 99.6004C62.3415 99.6004 62.1625 99.3396 62.5169 94.9647C62.6169 93.7303 62.2867 93.4194 60.8757 93.4194C59.4495 93.4194 59.1093 93.0891 59.1093 91.7025C59.1093 90.7581 58.8274 89.9855 58.4828 89.9855C58.1382 89.9855 57.6474 88.7493 57.3921 87.2384C57.0479 85.2017 56.6024 84.4912 55.6692 84.4912C54.6308 84.4912 54.3292 85.25 53.9462 88.8257C53.6909 91.2097 53.5459 93.9139 53.6241 94.835C53.7023 95.7562 53.7321 99.5232 53.6902 103.206L53.6142 109.902H50.609C47.7928 109.902 47.5769 109.768 47.1746 107.756C46.9384 106.576 46.7032 102.79 46.6517 99.343C46.6005 95.8962 46.4364 93.8486 46.2877 94.793C45.5268 99.6234 45.8264 99.3927 40.4052 99.3221L35.4116 99.2568L35.1984 101.832L34.9852 104.408H31.6718H28.3583L28.0382 95.3079C27.6334 83.8012 26.1695 79.2838 26.2021 89.6419C26.2143 93.4192 26.2045 100.605 26.1808 105.61L26.1381 114.709H22.7037H19.2692V108.528V102.347H15.8742H12.4793L12.2681 99.4286C12.0791 96.8168 11.8582 96.4869 10.1679 96.2925C8.38128 96.0871 8.27895 96.226 8.27895 98.8679C8.27895 101.203 8.05373 101.661 6.90517 101.661C5.83667 101.661 5.53138 102.118 5.53138 103.721C5.53138 105.13 5.19249 105.781 4.45971 105.781C3.56377 105.781 3.40225 106.767 3.47474 111.791C3.5911 119.854 3.6512 119.517 2.09693 119.517C0.739505 119.517 0.723145 119.059 0.723145 81.0572V42.5973H2.44037C3.53777 42.5973 4.1576 42.9843 4.1576 43.668C4.1576 45.4347 5.34248 44.1634 7.89893 39.6539L10.3184 35.3861L10.3288 41.3954L10.3392 47.4047H13.7736C17.1318 47.4047 17.2081 47.4536 17.2081 49.4652C17.2081 51.205 17.4752 51.5255 18.9253 51.5255C20.2991 51.5255 20.6425 51.1818 20.6425 49.8085C20.6425 48.206 20.8715 48.0916 24.077 48.0916H27.5115L27.5657 50.667C27.5956 52.0835 27.5749 55.1467 27.5206 57.4742C27.4335 61.1883 27.5942 61.7609 28.8341 62.1544C30.931 62.8198 31.633 62.0489 31.633 59.0801C31.633 57.6137 31.9569 56.2139 32.3527 55.9692C32.7486 55.7249 33.0221 55.011 32.9606 54.3835C32.7199 51.9304 33.0532 51.5255 35.3131 51.5255H37.6193L38.0606 47.304C38.3033 44.9822 38.5019 40.9646 38.5019 38.3759V33.6691H41.9364H45.3708V46.3746C45.3708 57.2105 45.5224 59.0801 46.4012 59.0801C47.2447 59.0801 47.4315 57.8973 47.4315 52.5556V46.0312H50.866H54.3004L54.3732 49.6368C54.4134 51.6199 54.3897 54.0923 54.3214 55.1311C54.222 56.6383 54.4918 57.0198 55.6574 57.0198C56.6883 57.0198 57.4474 56.262 58.2375 54.4443C59.0359 52.6075 59.4343 52.2135 59.6266 53.0707C60.2288 55.7551 61.0304 53.9868 61.2895 49.4023C61.4979 45.7149 61.8504 44.3721 62.7408 43.8739C63.6266 43.3784 63.9169 42.292 63.9169 39.4727V35.7294H67.3513H70.7858V39.5068C70.7858 41.5843 71.0949 43.2841 71.4727 43.2841C71.8791 43.2841 72.1596 45.7778 72.1596 49.3917C72.1596 54.1247 72.3862 55.5862 73.1668 55.8856C74.0321 56.2178 74.153 54.5344 74.0254 43.9402L73.8768 31.6083L77.483 31.6085L81.0891 31.6088V39.8501C81.0891 47.6337 81.1655 48.0916 82.4629 48.0916C83.5627 48.0916 83.8367 48.5493 83.8367 50.3872C83.8367 52.6564 83.8666 52.678 86.4126 52.2649L88.9884 51.8468L89.1778 41.4196L89.3673 30.9924L92.9557 30.7852C96.0792 30.6048 96.5727 30.3781 96.7637 29.0329C96.9526 27.7032 97.3964 27.4877 99.9464 27.4877C102.439 27.4877 102.975 27.7333 103.324 29.0329C103.551 29.8828 103.742 37.7636 103.747 46.5459C103.753 56.7269 104.006 62.5136 104.443 62.5136C104.821 62.5136 105.13 61.4319 105.13 60.1099C105.13 57.8286 105.251 57.7061 107.493 57.7061C109.727 57.7061 109.867 57.5665 110.069 55.1306C110.24 53.0619 110.586 52.5121 111.828 52.3358C112.678 52.2151 113.373 51.6456 113.373 51.0704C113.373 50.2337 114.115 50.0715 117.082 50.2597L120.792 50.4948L121.204 47.4802C121.43 45.8221 121.616 42.3452 121.616 39.7539C121.616 36.0236 121.83 35.0422 122.646 35.0422C123.213 35.0422 123.676 34.7333 123.676 34.3555C123.676 33.9776 125.222 33.6686 127.111 33.6686H130.545L130.598 43.4554C130.626 48.838 130.606 55.3281 130.551 57.8778C130.456 62.3879 130.5 62.5136 132.166 62.5136C133.22 62.5136 134 62.9761 134.193 63.7154C134.39 64.4688 134.537 64.2255 134.587 63.0627C134.662 61.3189 134.912 61.1805 138.773 60.7437C142.773 60.2909 142.891 60.219 143.316 57.9543C143.556 56.6756 143.591 55.0151 143.395 54.2641C143.199 53.5131 143.318 52.8986 143.661 52.8986C144.013 52.8986 144.283 46.6401 144.283 38.4762V24.0537H147.718H151.152L151.199 28.0028C151.225 30.1747 151.206 34.5015 151.156 37.6177C151.08 42.4247 151.236 43.2837 152.182 43.2837C153.128 43.2837 153.284 42.4247 153.208 37.6177C153.159 34.5015 153.14 29.8657 153.165 27.316L153.212 22.6801H156.647H160.081L160.163 27.316C160.207 29.8657 160.194 32.3381 160.133 32.8102C160.06 33.374 160.975 33.6686 162.799 33.6686H165.577V40.0557C165.577 43.5687 165.86 46.7365 166.207 47.0954C166.553 47.4543 167.016 51.5841 167.235 56.2731C167.454 60.962 167.711 64.8598 167.807 64.935C167.903 65.01 169.312 65.2422 170.939 65.4494L173.897 65.8272L173.815 59.5346C173.769 56.0736 173.751 52.0831 173.776 50.6666L173.819 48.0911H177.254H180.688V44.6572V41.2233H183.749H186.81L187.012 36.2441L187.214 31.2649H190.454H193.695L194.119 48.0911C194.353 57.3455 194.827 65.0203 195.172 65.1462C195.517 65.2717 195.8 66.2765 195.8 67.3782C195.8 68.651 196.156 69.3814 196.776 69.3814C197.473 69.3814 197.864 68.155 198.145 65.0891C198.596 60.1721 199.234 35.7559 199.234 23.4403V15.1255H202.669H206.103L206.185 23.5386C206.229 28.1658 206.23 32.181 206.187 32.4611C206.014 33.5685 208.557 35.729 210.034 35.729C211.422 35.729 211.598 36.0654 211.598 38.7159C211.598 44.1627 212.478 52.2117 213.073 52.2117C213.395 52.2117 213.659 46.2284 213.659 38.9154C213.659 31.6024 213.856 24.1852 214.096 22.4327L214.533 19.2463H217.457H220.38L220.881 31.2649C221.157 37.8752 221.653 43.2837 221.985 43.2837C222.317 43.2837 222.589 44.3874 222.589 45.7364C222.589 47.0855 223.052 48.6527 223.619 49.2194C224.345 49.945 224.649 51.7168 224.649 55.2134V60.1774L226.981 59.905L229.312 59.6326L229.805 50.771L230.298 41.9094H233.656H237.013V45.3434C237.013 48.701 237.059 48.7773 239.074 48.7773C240.897 48.7773 241.135 48.5439 241.135 46.7574C241.135 45.6466 241.462 44.5355 241.862 44.2885C242.294 44.0216 242.554 41.4275 242.503 37.8953C242.456 34.626 242.438 30.3286 242.464 28.3455L242.509 24.7399H244.913C246.235 24.7399 247.317 24.4309 247.317 24.0532C247.317 23.6753 248.862 23.3663 250.751 23.3663H254.186L254.227 27.6587C254.25 30.0195 254.263 35.0417 254.257 38.819C254.251 42.5963 254.519 46.3049 254.854 47.0603C255.288 48.0386 255.477 47.0969 255.512 43.7982L255.56 39.1624H257.67C259.772 39.1624 259.78 39.1441 259.672 35.5567C259.613 33.5737 259.59 31.5648 259.622 31.0927C259.686 30.1649 265.843 29.8275 265.888 30.749C266.038 33.8542 266.374 42.2616 266.452 44.828L266.55 48.0902H269.297C271.282 48.0902 272.045 48.3767 272.045 49.1204C272.045 49.8072 272.732 50.1506 274.106 50.1506H276.166V54.6146C276.166 58.6208 276.307 59.0788 277.54 59.0788C278.731 59.0788 278.914 59.5364 278.914 62.5127C278.914 65.8702 278.96 65.9465 280.975 65.9465C282.959 65.9465 283.035 65.8319 283.035 62.856C283.035 60.5667 283.302 59.7655 284.066 59.7655C284.901 59.7655 285.096 58.6591 285.096 53.9279C285.096 48.4992 285.195 48.0902 286.505 48.0902C287.85 48.0902 287.911 47.724 287.841 40.0205C287.801 35.5822 287.785 25.3834 287.806 17.3567L287.843 2.76254L290.076 2.76858C291.304 2.77187 293.931 2.96973 295.914 3.20741L299.521 3.64075V23.3883C299.521 40.3081 299.668 43.1925 300.551 43.5312C301.369 43.8451 301.581 43.313 301.581 40.9433C301.581 39.3026 301.774 36.9945 302.011 35.814C302.421 33.7625 302.588 33.6679 305.788 33.6679H309.137V37.7886C309.137 40.9936 309.366 41.9092 310.167 41.9092C310.74 41.9092 311.198 42.5198 311.198 43.2828C311.198 44.0459 311.656 44.6564 312.228 44.6564C312.8 44.6564 313.258 44.0459 313.258 43.2828C313.258 42.1709 313.716 41.9092 315.663 41.9092C317.876 41.9092 318.067 41.7459 318.067 39.8489C318.067 38.2214 318.366 37.7886 319.492 37.7886C320.73 37.7886 320.903 37.4034 320.802 34.8697C320.739 33.2644 320.715 29.0922 320.751 25.5982L320.814 19.2454H324.249H327.683L327.73 25.5981C327.756 29.0921 327.773 34.4234 327.769 37.4452C327.764 40.467 328.006 45.2574 328.308 48.0903L328.856 53.2412L328.956 49.2922C329.012 47.1202 329.366 45.3431 329.744 45.3431C330.188 45.3431 330.431 37.3306 330.431 22.6793V0.015485H333.865H337.3L337.284 5.33802C337.255 15.2596 338.091 47.737 338.383 48.029C338.543 48.1887 338.673 45.9498 338.673 43.0539C338.673 38.1825 338.78 37.7886 340.099 37.7886C341.336 37.7886 341.509 37.4034 341.409 34.8697C341.345 33.2644 341.322 27.856 341.357 22.8511L341.421 13.7512H344.855H348.29L348.363 22.8511C348.403 27.856 348.383 32.7718 348.318 33.7751C348.22 35.2908 348.556 35.6775 350.305 36.0617L352.411 36.5242V41.9234C352.411 44.8929 352.72 47.5136 353.098 47.747C353.476 47.9805 353.785 49.2349 353.785 50.5346C353.785 52.44 354.051 52.8978 355.159 52.8978C356.074 52.8978 356.532 52.4402 356.532 51.5244C356.532 50.334 356.99 50.1508 359.967 50.1508C362.763 50.1508 363.409 50.3744 363.445 51.3527C363.556 54.3948 363.975 57.1339 364.392 57.5514C365.046 58.205 366.173 56.2408 366.078 54.6148C366.033 53.8594 366.031 51.9278 366.073 50.3224C366.142 47.6872 366.316 47.4036 367.866 47.4036H369.583V35.0416V22.6795H373.018H376.452L376.494 27.3153C376.516 29.865 376.499 35.1432 376.455 39.0447C376.38 45.6607 376.469 46.1631 377.787 46.5077C378.582 46.7155 379.2 47.4427 379.2 48.1704C379.2 48.8819 379.643 49.4639 380.185 49.4639C380.749 49.4639 381.263 50.2717 381.387 51.3527C381.543 52.7049 382.043 53.3036 383.15 53.4607C384.398 53.6381 384.695 54.1188 384.695 55.9577C384.695 58.6436 386.512 62.6412 387.032 61.1008C387.587 59.4567 388.055 52.2915 388.093 44.8282L388.13 37.7887L390.019 37.7948C392.96 37.813 394.999 38.5412 394.999 39.5824C394.999 40.1047 395.596 40.5324 396.327 40.5324C397.265 40.5324 397.719 39.9779 397.872 38.6439C398.071 36.9143 398.365 36.7375 401.353 36.5458C403.936 36.38 404.615 36.5581 404.615 37.4044C404.615 38.0698 405.229 38.4722 406.243 38.4722C408.323 38.4722 408.719 40.6164 408.729 51.9409L408.736 60.2587L410.376 59.9455C412.279 59.5816 412.672 57.8552 412.835 49.1346C412.892 46.1221 413.102 43.4951 413.302 43.2969C413.503 43.0988 414.489 42.9361 415.495 42.9361C417.215 42.9361 417.335 42.7247 417.53 39.3305L417.738 35.7249H421.136H424.535V38.266C424.535 40.1119 424.741 40.6006 425.289 40.0527C425.722 39.62 425.942 37.6569 425.805 35.4504L425.565 31.6024L429.171 31.6032L432.778 31.6041V26.1099V20.6157H436.212H439.646L439.669 26.2816C439.681 29.3979 439.689 38.0374 439.685 45.4806C439.68 55.0686 439.912 59.1582 440.481 59.5095C440.922 59.7819 441.404 59.6418 441.553 59.1969C441.711 58.7227 443.22 58.3885 445.199 58.3885H448.577V55.9471V53.5058L451.839 53.7154C454.845 53.908 455.119 54.0768 455.323 55.8543C455.481 57.2287 455.876 57.7201 456.697 57.5626C457.545 57.3998 457.876 56.554 457.949 54.3657C458.004 52.7291 458.391 51.0487 458.808 50.6315C459.225 50.214 459.567 48.0803 459.567 45.8895V41.9061H462.314H465.062V31.0134C465.062 25.0225 465.259 18.6869 465.499 16.9344L465.936 13.748H468.933H471.931V16.4951C471.931 18.4791 472.217 19.2423 472.961 19.2423C473.797 19.2423 474.007 20.4421 474.073 25.595C474.117 29.089 474.097 32.3635 474.028 32.8716C473.926 33.6162 475.044 33.7004 479.785 33.3055L485.669 32.8155V35.9467C485.669 39.9818 486.896 40.7936 487.174 36.9427C487.364 34.3062 487.58 33.986 489.294 33.7891C490.344 33.6684 491.157 33.2052 491.102 32.7588C491.046 32.3127 491.038 29.3982 491.083 26.2819L491.164 20.6159H494.182C496.3 20.6159 497.324 20.9396 497.616 21.7023C497.846 22.2996 498.033 28.1718 498.033 34.7512C498.033 44.7667 498.196 46.7136 499.033 46.7136C499.799 46.7136 500.081 45.5436 500.235 41.7345L500.437 36.7553L503.103 36.5371C504.57 36.4171 506.031 36.5798 506.35 36.8992C506.67 37.2185 506.963 41.8753 507.003 47.2477C507.07 56.3108 507.168 57.0157 508.361 57.0157C509.467 57.0157 509.681 57.6642 509.888 61.6515L510.128 66.2873L510.342 60.4496C510.459 57.2389 510.627 54.3029 510.715 53.9252C510.803 53.5474 510.922 51.4613 510.98 49.2894L511.084 45.3404H513.832H516.579V22.6765V0.0126953H520.014H523.448L523.471 4.99191C523.507 12.8867 524.253 31.2327 524.552 31.5475C524.701 31.7047 524.823 29.7733 524.823 27.2551V22.6765H528.257H531.692L531.7 28.3425C531.711 36.0182 532.06 37.099 534.518 37.099H536.498V42.2499C536.498 46.3706 536.704 47.4007 537.529 47.4007C538.353 47.4007 538.559 48.431 538.559 52.5516V57.7025H540.62C542.585 57.7025 542.681 57.5666 542.691 54.7836C542.707 51 543.151 50.4912 546.458 50.4912H549.206L549.35 41.2196C549.43 36.1203 549.507 30.1711 549.522 27.9992L549.55 24.0501H552.984H556.418L556.411 27.9992C556.407 30.1711 556.538 36.8929 556.705 42.9366C556.872 48.9803 557.03 56.6294 557.057 59.9346L557.106 65.9439H559.166H561.227V61.8231V57.7025H564.318C567.157 57.7025 567.409 57.563 567.409 55.9855C567.409 54.383 567.638 54.2686 570.844 54.2686C574.049 54.2686 574.278 54.3831 574.278 55.9855C574.278 57.0538 574.668 57.7025 575.308 57.7025C576.028 57.7025 576.339 58.4274 576.339 60.1062C576.339 61.785 576.65 62.51 577.369 62.51C577.936 62.51 578.399 62.0462 578.399 61.4797C578.399 60.7697 579.112 60.4496 580.693 60.4496H582.986L583.43 38.6475C583.71 24.9164 584.133 16.7595 584.572 16.6132C584.955 16.4858 585.268 15.9432 585.268 15.408C585.268 14.6984 586.197 14.4352 588.703 14.4352H592.137V23.0199C592.137 28.2853 592.403 31.6047 592.824 31.6047C593.202 31.6047 593.511 30.0595 593.511 28.1708C593.511 24.8132 593.553 24.7369 595.572 24.7369H597.632V16.4955V8.25414H601.067C603.887 8.25414 604.498 8.46923 604.482 9.45596C604.47 10.1169 604.624 17.9206 604.821 26.7972C605.018 35.6739 605.216 45.8726 605.262 49.4611C605.311 53.4899 605.644 56.1785 606.125 56.4901C606.555 56.7674 607.91 56.9996 609.138 57.0051C611.229 57.0173 611.37 57.1672 611.37 59.4193C611.37 61.9008 611.787 62.1526 614.633 61.3901C615.646 61.1189 616.179 60.4518 616.179 59.456C616.179 58.0851 616.667 57.874 621.159 57.304L626.139 56.6721L626.351 54.0967C626.468 52.6802 626.855 51.5213 627.21 51.5213C627.565 51.5213 627.855 49.8215 627.855 47.744V43.9667H631.29H634.724V46.3299C634.724 49.1029 635.117 49.458 637.647 48.9743C639.075 48.7013 639.533 48.2166 639.533 46.9771C639.533 45.4949 639.825 45.3402 642.624 45.3402H645.715V36.412V27.4838H649.149C653.129 27.4838 652.692 25.6694 652.585 41.7345L652.52 51.5213H654.294H656.067L655.981 40.8229C655.932 34.9388 655.999 30.0375 656.128 29.9311C656.256 29.8251 657.829 29.5454 659.624 29.3107C662.664 28.9127 662.888 28.9883 662.912 30.4158C662.93 31.2585 663.004 36.4292 663.084 41.9063L663.23 51.8646L665.463 52.0798C666.846 52.2133 667.695 52.6703 667.695 53.2816C667.695 53.824 668.298 54.2682 669.035 54.2682C670.308 54.2682 670.376 53.7119 670.39 43.1081C670.396 36.97 670.414 30.7889 670.426 29.3724L670.445 26.797H673.879H677.313L677.395 29.3724C677.438 30.7889 677.438 32.1797 677.395 32.463C677.352 32.7464 678.193 32.9779 679.268 32.9779H681.222L681.672 42.358C681.92 47.5171 682.122 53.7185 682.122 56.1389C682.122 61.4071 682.923 63.1964 685.282 63.1964C686.99 63.1964 687.018 63.1117 686.925 58.2172C686.87 55.4787 686.852 51.9245 686.882 50.3192L686.931 47.4004H689.589H692.247L692.612 44.1607C692.813 42.3788 693.317 40.8078 693.732 40.6695C694.147 40.5311 694.486 39.8087 694.486 39.0641C694.486 37.8773 694.889 37.736 697.749 37.9195L701.012 38.1292L701.49 43.28C701.754 46.113 701.999 50.8261 702.036 53.7534C702.101 58.9296 702.149 59.076 703.79 59.076C705.449 59.076 705.477 58.9797 705.477 53.2384V47.4007H708.911H712.346L712.401 50.3195C712.547 57.9722 712.673 58.705 713.891 58.9424C715.001 59.1587 715.093 58.1844 715.093 46.0775L715.093 32.9783H717.153C718.287 32.9783 719.177 32.7468 719.133 32.4634C719.09 32.18 719.09 28.317 719.133 23.8786L719.214 15.8088H722.305C725.144 15.8088 725.396 15.9484 725.396 17.5258C725.396 18.7849 725.762 19.2428 726.769 19.2428C728.04 19.2428 728.148 19.72 728.202 25.5955C728.232 29.0895 728.208 33.5708 728.153 35.5539C728.049 38.9972 728.123 39.1595 729.812 39.1595C731.448 39.1595 731.579 38.931 731.579 36.069V32.9785H734.926H738.272L738.772 45.3405L739.272 57.7027H741.264C742.836 57.7027 743.255 58.0098 743.255 59.1602C743.255 60.3781 743.425 60.4773 744.286 59.763C744.853 59.2931 745.316 58.0188 745.316 56.9319C745.316 55.1875 745.561 54.9555 747.407 54.9555C748.681 54.9555 749.454 54.6204 749.386 54.0971C749.325 53.6248 749.311 47.7529 749.356 41.0481L749.437 28.8577H752.871C756.413 28.8577 756.811 29.3094 756.357 32.8068C756.284 33.3663 757.18 33.6653 758.928 33.6653H761.611L762.079 38.8293C762.337 41.6695 762.537 49.5611 762.523 56.3662C762.498 68.5669 762.523 68.7472 764.038 69.316C766.552 70.2573 767.265 66.8594 767.258 53.9815C767.252 47.8437 767.449 42.3069 767.691 41.6775C767.932 41.0481 768.715 40.5332 769.43 40.5332C770.145 40.5332 770.73 40.0693 770.73 39.5029C770.73 38.9185 771.347 38.4728 772.155 38.4728C773.413 38.4728 773.567 38.0895 773.468 35.2106C773.406 33.4163 773.383 27.0808 773.419 21.1316L773.48 10.3146H775.783C777.05 10.3146 779.987 10.5133 782.309 10.7559L786.531 11.1971V20.3708V29.5446H788.935H791.339V33.6653V37.786H794.335H797.33L797.763 41.3916C798.002 43.3746 798.199 48.6103 798.203 53.0263C798.209 57.6315 798.501 61.2365 798.896 61.48C799.343 61.7567 799.598 57.6417 799.627 49.6735C799.651 42.9465 799.813 31.4161 799.985 24.0503C800.158 16.6846 800.292 8.26296 800.284 5.33551L800.266 0.0128813H803.701H807.135V21.6466V43.2802H809.883H812.63V39.1219V34.9635L815.893 35.1732L819.156 35.3828L819.356 40.7054L819.557 46.028H821.589C823.398 46.028 823.62 46.2583 823.62 48.1339C823.62 50.0262 823.812 50.2178 825.509 50.0225L827.398 49.8056L827.513 40.1907C827.576 34.9024 827.801 25.94 828.013 20.274C828.225 14.608 828.406 8.81325 828.414 7.39676L828.433 4.82137H831.867H835.301L835.381 18.3853C835.423 25.8455 835.405 32.4922 835.338 33.1559C835.271 33.8194 835.698 34.5479 836.289 34.7746C837.145 35.1031 837.364 36.3522 837.364 40.9104C837.364 44.0584 837.673 46.8251 838.05 47.0585C838.428 47.292 838.737 49.01 838.737 50.8764C838.737 54.1889 838.786 54.2697 840.798 54.2697C841.931 54.2697 842.822 54.0381 842.778 53.7547C842.735 53.4714 842.735 51.1896 842.778 48.6839C842.848 44.743 843.044 44.0799 844.232 43.7692C845.34 43.4797 845.634 42.7647 845.75 40.0834C845.829 38.2538 845.958 35.6752 846.038 34.3531C846.117 33.0311 846.207 29.8633 846.238 27.3136L846.292 22.6778H849.727H853.161V26.7571V30.8363L855.727 31.0496L858.293 31.2629L858.079 34.1818C857.878 36.9159 857.976 37.1006 859.634 37.1006H861.404L861.548 45.1703L861.692 53.24L861.917 46.5438L862.141 39.8477H865.551H868.961V43.2816C868.961 45.1702 869.27 46.7155 869.647 46.7155C870.025 46.7155 870.334 47.6427 870.334 48.7759C870.334 50.7218 870.487 50.8362 873.082 50.8362C875.22 50.8362 875.842 51.1032 875.885 52.0381C876.203 58.8865 875.94 58.3908 879.264 58.3908H881.325V53.24C881.325 48.6202 881.461 48.0892 882.642 48.0892C885.866 48.0892 886.133 47.565 886.133 41.2212C886.133 36.3814 886.346 35.1056 887.207 34.775C887.798 34.5483 888.226 33.8199 888.158 33.1563C888.09 32.4927 888.071 30.4817 888.116 28.6875L888.195 25.4252H891.286H894.377L894.482 28.6875C894.543 30.4817 894.658 32.2587 894.746 32.6364C894.834 33.0143 895.002 36.5683 895.12 40.5345C895.296 46.4767 895.376 46.93 895.574 43.1099L895.814 38.4741H899.217H902.62L902.675 45.8571C902.706 49.9176 902.681 55.1716 902.627 57.5324C902.496 63.0619 903.771 63.1859 904.392 57.7043L904.858 53.5836H907.814C910.167 53.5836 910.859 53.8639 911.206 54.9571C911.743 56.6505 915.671 56.9525 915.671 55.3008C915.671 54.671 916.312 54.2707 917.32 54.2707C918.826 54.2707 919.012 53.9099 919.449 50.1499C919.885 46.3895 920.071 46.0292 921.577 46.0292H923.228L923.204 28.3446C923.191 18.6181 923.185 8.72836 923.203 6.36762L923.227 2.07515H926.648H930.069L930.254 16.6693C930.405 28.5457 930.616 31.2634 931.39 31.2634C932.1 31.2634 932.36 32.4751 932.42 36.071L932.5 40.8784L935.763 41.088L939.026 41.2977L939.09 47.2694C939.126 50.5539 939.102 54.5821 939.035 56.2211C938.933 58.7717 939.097 59.1663 940.173 58.9598C941.306 58.7423 941.45 57.8022 941.626 49.49C941.733 44.4142 941.9 40.1811 941.998 40.0831C942.096 39.985 944.713 39.693 947.814 39.4347L953.451 38.9649L953.457 42.6693C953.476 48.9547 953.788 49.4641 957.649 49.4641C960.832 49.4641 961.008 49.561 961.083 51.3528C961.248 55.2853 961.256 55.2951 964.267 55.5129L967.186 55.7237V58.7748C967.186 60.4528 967.495 61.8258 967.873 61.8258C968.291 61.8258 968.56 58.7354 968.56 53.9279V46.0299H970.964H973.368V38.8186V31.6074H976.974H980.58L980.611 36.9299C980.684 49.5447 981.086 56.9986 981.673 56.6362C982.016 56.4241 982.297 55.8052 982.297 55.2608C982.297 54.5458 983.155 54.2713 985.388 54.2713C987.088 54.2713 988.442 54.0397 988.398 53.7563C988.355 53.4729 988.355 47.7555 988.398 41.0508L988.479 28.8604H991.87C995.193 28.8604 995.265 28.8177 995.476 26.6284C995.682 24.4882 995.826 24.3877 998.954 24.187L1002.22 23.9773L1002.28 27.9639C1002.31 30.1566 1002.28 33.5731 1002.23 35.5562C1002.12 39.147 1002.13 39.1618 1004.23 39.1618C1005.88 39.1618 1006.34 39.461 1006.34 40.5223C1006.34 41.3922 1006.95 42.0346 1008.02 42.3038C1009.16 42.5902 1009.79 43.3098 1009.98 44.549L1010.26 46.373L1010.36 44.4844C1010.46 42.694 1010.64 42.5957 1013.84 42.5957H1017.22L1017.58 47.5749C1017.78 50.3135 1017.97 53.2495 1017.99 54.0994C1018.02 54.9492 1018.29 55.6446 1018.6 55.6446C1018.91 55.6446 1019.57 56.4173 1020.08 57.3616C1021.52 60.0514 1022.06 59.4203 1022.28 54.7861L1022.48 50.4937L1024.75 50.2761L1027.01 50.0586L1026.95 41.0047C1026.91 36.025 1026.89 30.1738 1026.92 28.0018L1026.95 24.0528H1030.39H1033.82L1033.89 38.6468C1033.92 46.6737 1033.95 54.4772 1033.95 55.9881C1033.95 57.5135 1034.09 58.0481 1034.27 57.19C1034.46 56.3401 1034.86 55.6447 1035.17 55.6447C1035.48 55.6447 1035.93 54.5631 1036.18 53.2411C1036.62 50.9223 1036.74 50.8372 1039.68 50.8372C1042.71 50.8372 1042.74 50.8556 1043.17 53.5844C1043.59 56.1994 1044.81 57.4778 1044.81 55.3013C1044.81 54.5382 1045.61 54.2711 1047.9 54.2711H1050.99V50.4938V46.7165H1054.35C1056.71 46.7165 1057.83 47.0256 1058.11 47.7468C1058.33 48.3135 1059.26 48.7769 1060.17 48.7769C1061.09 48.7769 1062 49.1962 1062.19 49.7087C1062.39 50.2212 1063.84 50.8133 1065.42 51.0245C1068.97 51.5011 1069.17 51.7009 1068.97 54.6388C1068.88 55.9476 1069.13 57.0184 1069.52 57.0184C1069.97 57.0184 1070.23 53.7652 1070.23 48.0902V39.162H1073.66H1077.1L1077.17 45.5147C1077.21 49.0087 1077.47 53.7217 1077.76 55.9881L1078.27 60.1088L1078.37 56.5032C1078.45 53.3891 1078.66 52.8976 1079.84 52.8976C1081.17 52.8976 1081.22 52.44 1081.22 38.8186V24.7395H1084.65C1087.25 24.7395 1088.08 24.9912 1088.08 25.7697C1088.08 26.3365 1088.39 26.7998 1088.77 26.7998C1089.15 26.7998 1089.46 27.8816 1089.46 29.2037C1089.46 30.6693 1089.79 31.607 1090.32 31.6064C1090.97 31.6056 1091.16 34.1839 1091.1 42.4232C1091.05 48.373 1091.15 52.2365 1091.31 51.0089C1091.59 48.8704 1091.73 48.7769 1094.65 48.7769H1097.7V44.9996V41.2223H1100.84H1103.98L1103.88 36.5865C1103.82 34.0368 1103.8 29.092 1103.83 25.5979L1103.88 19.2453H1107.32H1110.75V25.4263V31.6073H1114.46H1118.17L1118.41 40.0204C1118.55 44.6476 1118.89 48.7908 1119.17 49.2276C1119.45 49.6645 1120.32 49.8561 1121.09 49.6541C1122.42 49.3067 1122.49 48.8042 1122.43 40.6187C1122.39 35.8514 1122.37 28.3196 1122.4 23.8812L1122.43 15.8115H1125.87H1129.3L1129.36 23.8812C1129.38 28.3196 1129.36 34.037 1129.31 36.5867C1129.21 41.1314 1129.24 41.2224 1130.97 41.2224C1132.3 41.2224 1132.74 41.5759 1132.74 42.6438C1132.74 43.7249 1133.11 44.0126 1134.28 43.8457C1135.47 43.6775 1135.88 43.1049 1136.04 41.3942C1136.24 39.3623 1136.46 39.1622 1138.56 39.1622C1143.23 39.1622 1143.04 38.5179 1143.04 54.3449C1143.04 63.453 1143.29 68.6938 1143.73 68.6938C1144.13 68.6938 1144.45 66.056 1144.51 62.3411C1144.64 53.4942 1144.94 50.5459 1145.77 50.2721C1146.15 50.1423 1146.47 48.9519 1146.47 47.6265V45.2169L1150.77 45.4515L1155.06 45.6861L1155.26 40.3635L1155.46 35.0409H1157.88C1159.99 35.0409 1160.29 34.8367 1160.15 33.4957C1160.06 32.6458 1160.23 27.5464 1160.53 22.1638L1161.07 12.3771H1164.42H1167.77V20.9619V29.5467H1170.17C1172.61 29.5467 1172.93 30.0141 1172.61 33.1523C1172.52 34.0619 1173 34.3542 1174.59 34.3542H1176.7V43.3314C1176.7 50.1959 1176.93 52.5395 1177.68 53.2897C1179.63 55.2396 1179.98 54.2166 1180.09 46.2244C1180.15 41.7989 1180.26 38.1219 1180.34 38.0534C1180.41 37.9851 1183.49 37.7054 1187.17 37.4334L1193.87 36.9379L1193.95 45.0894C1193.99 49.5726 1193.99 53.4725 1193.95 53.7558C1193.91 54.0392 1194.49 54.2708 1195.24 54.2708C1196.5 54.2708 1196.62 53.7789 1196.72 48.2614C1196.77 44.9562 1196.92 39.7796 1197.04 36.7577C1197.16 33.7359 1197.27 30.5682 1197.28 29.7183C1197.3 28.3539 1197.66 28.173 1200.32 28.173C1202.44 28.173 1203.46 28.4972 1203.76 29.2594C1203.98 29.8566 1204.17 45.9276 1204.17 64.9721V99.5984H1201.08C1197.71 99.5984 1197.77 99.6978 1197.91 94.1042C1197.97 91.9777 1197.89 91.8787 1197.32 93.2457C1196.96 94.0956 1196.17 94.7909 1195.58 94.7909C1194.98 94.7909 1194.55 95.1773 1194.61 95.6493C1194.86 97.5717 1194.49 98.2249 1193.15 98.2249C1191.78 98.2249 1191.74 98.5327 1191.94 108.184L1192.15 118.144L1190.26 118.142L1188.37 118.141V129.165V140.19L1184.89 139.982L1181.4 139.775L1181.46 120.717C1181.51 102.084 1181.48 101.658 1180.14 101.658C1179.02 101.658 1178.74 101.176 1178.68 99.0829C1178.64 97.6664 1178.66 95.9941 1178.71 95.3665C1178.77 94.7389 1178.5 94.0252 1178.1 93.7806C1177.62 93.4808 1177.38 95.799 1177.38 100.891C1177.38 105.186 1177.09 108.628 1176.7 108.87C1176.32 109.103 1176.01 111.439 1176.01 114.061C1176.01 118.659 1175.95 118.828 1174.33 118.828C1172.81 118.828 1172.63 119.145 1172.44 122.09L1172.23 125.352L1168.97 125.562L1165.71 125.772L1165.64 121.785C1165.61 119.592 1165.63 116.33 1165.69 114.536C1165.8 111.327 1165.77 111.274 1163.69 111.274H1161.58L1161.5 104.063C1161.38 94.6335 1161.5 95.1652 1159.43 94.9248L1157.62 94.7152L1157.14 102.136C1156.34 114.622 1156.16 118.326 1156.12 122.434L1156.09 126.384H1153.07H1150.05L1149.56 120.265C1149.04 113.623 1148.84 113.367 1144.24 113.344C1142.42 113.338 1142.35 113.201 1142.34 109.729C1142.34 107.746 1142.14 104.485 1141.9 102.483C1141.51 99.2852 1141.29 98.8681 1140.02 99.0494C1138.5 99.2657 1138.39 101.934 1138.24 144.412L1138.23 149.734H1134.79H1131.36V144.966V140.198L1128.56 139.987L1125.77 139.777L1125.39 129.131C1125.19 123.277 1124.83 118.332 1124.58 118.143C1124.34 117.954 1124.15 113.009 1124.15 107.154C1124.15 98.1499 1123.99 96.5092 1123.12 96.5092C1122.26 96.5092 1122.05 98.0634 1121.89 105.609L1121.7 114.709H1119.61C1117.87 114.709 1117.54 114.963 1117.65 116.254C1117.72 117.104 1117.74 120.967 1117.7 124.839L1117.62 131.879H1114.19H1110.75L1110.7 124.839C1110.68 120.967 1110.7 115.431 1110.75 112.536C1110.79 109.64 1110.63 106.163 1110.37 104.809C1109.92 102.383 1109.86 102.347 1106.55 102.347C1103.43 102.347 1103.2 102.227 1103.2 100.63C1103.2 99.6856 1102.89 98.9131 1102.51 98.9131C1102.13 98.9131 1101.82 97.1875 1101.82 95.0786C1101.82 92.3176 1101.58 91.3234 1100.96 91.5274C1099.8 91.912 1099.19 99.3931 1099.17 113.666C1099.16 121.226 1098.9 125.414 1098.43 125.57C1098.03 125.704 1097.7 127.503 1097.7 129.57V133.327L1094.44 133.118L1091.18 132.908L1090.96 129.989C1090.75 127.08 1090.74 127.07 1088.02 127.07C1086.23 127.07 1085.16 126.717 1084.9 126.04C1084.68 125.474 1083.84 125.005 1083.03 125C1082.22 124.996 1081.2 124.76 1080.76 124.479C1080.06 124.036 1079.56 114.664 1079.21 95.307C1079.18 93.6837 1078.89 93.4183 1077.16 93.4183C1076.05 93.4183 1075.04 93.7388 1074.91 94.1314C1074.78 94.5238 1072.45 95.0307 1069.73 95.2584C1067.02 95.4863 1064.82 95.8605 1064.84 96.0906C1065.11 98.3311 1064.59 98.9126 1062.35 98.9126C1059.45 98.9126 1058.55 100.293 1058.55 104.705V107.841H1055.46H1052.37V104.75C1052.37 103.05 1052.06 101.66 1051.68 101.66C1051.3 101.66 1050.99 101.186 1050.99 100.608C1050.99 100.03 1050.53 99.3783 1049.96 99.1609C1049.22 98.8769 1048.93 97.7205 1048.93 95.0617V91.3579H1045.84H1042.75L1042.73 88.7825C1042.71 86.7215 1042.57 86.4439 1042.02 87.3931C1041.15 88.8823 1040.74 94.7206 1040.71 105.952L1040.69 114.709H1037.26H1033.83V105.78V96.8522H1032.07C1031.1 96.8522 1030.47 96.5865 1030.68 96.2617C1030.88 95.9369 1030.66 94.84 1030.2 93.8237C1029.58 92.4624 1028.97 92.0482 1027.86 92.2501C1026.48 92.5024 1026.32 92.1673 1025.87 88.0191C1025.46 84.1197 1024.47 81.7428 1023.28 81.7428C1023.09 81.7428 1022.77 84.2925 1022.56 87.4087C1022.36 90.525 1022.05 94.0019 1021.88 95.1351C1021.71 96.2683 1021.54 99.0998 1021.51 101.427L1021.46 105.659L1018.79 106.11C1015.83 106.611 1015.28 107.809 1015.28 113.764V116.768H1012.29H1009.3L1008.93 104.716C1008.73 98.0877 1008.38 92.4682 1008.14 92.2284C1007.9 91.9889 1007.33 92.1583 1006.89 92.605C1005.78 93.716 1004.98 93.625 1004.98 92.3874C1004.98 91.8206 1004.68 91.3573 1004.33 91.3573C1003.94 91.3573 1003.66 98.0497 1003.63 108.012C1003.61 117.172 1003.4 126.598 1003.16 128.959L1002.72 133.251H999.808C996.22 133.251 996.067 132.84 996.054 123.161L996.048 116.161L991.328 116.557L986.607 116.952L986.054 106.73C985.749 101.108 985.569 96.1215 985.653 95.6493C985.751 95.0972 984.95 94.7909 983.41 94.7909C981.092 94.7909 981.007 94.6977 980.753 91.872C980.608 90.2667 980.418 93.898 980.331 99.9417C980.243 105.985 980.027 117.266 979.851 125.009C979.674 132.753 979.537 140.865 979.546 143.037L979.565 146.986H976.573H973.58L973.141 141.664C972.9 138.736 972.689 125.672 972.672 112.631C972.642 89.0986 972.629 88.8957 971.006 85.5034L969.369 82.0855L969.314 91.5287C969.284 97.3303 968.996 100.972 968.573 100.972C968.186 100.972 967.886 102.918 967.886 105.436C967.886 108.882 967.659 109.9 966.888 109.9C966.065 109.9 965.887 111.536 965.871 119.216C965.859 124.339 965.673 128.821 965.455 129.174C965.237 129.528 963.685 129.817 962.007 129.817H958.957L958.92 123.807C958.902 120.502 958.914 113.858 958.957 109.042L959.026 100.285H956.949H954.871L954.682 111.445L954.493 122.606L952.261 122.821L950.029 123.036V136.385V149.733H946.594H943.16L943.184 144.411C943.196 141.483 943.059 130.435 942.879 119.858C942.699 109.282 942.534 98.8514 942.513 96.6794C942.483 93.2615 942.298 92.7304 941.161 92.7304C940.001 92.7304 939.842 93.2697 939.811 97.3104C939.793 99.843 939.441 102.098 939.026 102.354C938.549 102.649 938.304 105.55 938.355 110.308C938.495 123.589 938.875 122.262 934.927 122.262H931.501L931.061 119.515C930.139 113.748 929.491 117.19 929.477 127.928C929.47 134.066 929.452 141.483 929.44 144.411L929.422 149.733H925.987H922.553L922.472 123.121C922.429 108.484 922.429 96.2759 922.472 95.9927C922.514 95.7093 922.244 95.4777 921.866 95.4777C921.479 95.4777 921.179 97.4049 921.179 99.8857C921.179 106.018 920.917 106.466 917.328 106.466C914.812 106.466 914.31 106.247 914.31 105.15C914.31 104.426 913.984 103.725 913.585 103.592C913.132 103.441 912.868 100.457 912.881 95.6367L912.899 87.9231H910.951H909.012L908.573 95.6034C908.33 99.8455 907.804 103.488 907.397 103.739C906.942 104.02 906.692 106.805 906.743 110.996C906.786 114.737 906.808 119.884 906.786 122.434L906.743 127.07H903.309H899.875L899.832 122.434C899.807 119.884 899.826 115.094 899.875 111.789C899.923 108.484 899.82 105.779 899.642 105.779C898.855 105.779 895.757 112.04 895.757 113.628C895.757 114.797 895.381 115.394 894.647 115.394C893.874 115.394 893.646 115.813 893.895 116.768C894.215 117.988 893.914 118.142 891.228 118.142H888.201V124.323V130.504H884.767H881.332L881.296 124.151C881.277 120.657 881.29 113.703 881.326 108.698L881.394 99.5984H877.551H873.707L873.775 108.698C873.889 123.936 874.313 122.262 870.338 122.262H866.904V115.394V108.527H864.593C862.365 108.527 862.267 108.413 861.845 105.34C861.605 103.588 861.363 99.0292 861.308 95.2101L861.207 88.2665L860.559 92.3872C860.203 94.6536 859.797 104.852 859.657 115.051C859.517 125.25 859.207 136.453 858.968 139.947L858.533 146.3H855.506H852.479L852.398 142.694C852.355 140.711 852.379 138.635 852.462 138.082C852.542 137.528 852.399 135.133 852.145 132.759L851.683 128.443H848.714H845.746L845.329 124.494C845.099 122.322 844.591 113.901 844.199 105.779C843.806 97.6583 843.191 90.9107 842.831 90.7847C842.47 90.6592 842.152 87.5682 842.122 83.9168C842.091 80.2654 841.912 77.6644 841.721 78.1365C841.531 78.6088 840.936 78.995 840.401 78.995C839.621 78.995 839.43 80.4624 839.436 86.3778C839.442 90.4385 839.065 97.3922 838.603 101.83L837.762 109.9H835.921C834.908 109.9 833.902 110.364 833.685 110.93C833.434 111.583 832.38 111.96 830.812 111.96C828.337 111.96 828.334 111.963 828.45 114.879C828.514 116.485 828.537 123.593 828.498 130.675L828.436 143.553H825.001C821.589 143.553 821.567 143.534 821.543 141.321C821.531 140.093 821.531 130.358 821.549 119.687C821.58 100.56 821.556 100.285 820.165 100.285C818.811 100.285 818.756 100.642 818.823 109.042C818.86 113.858 818.878 124.984 818.86 133.766L818.823 149.734H815.389H811.954L811.972 144.411C812.009 135.152 811.16 92.3966 810.939 92.1748C810.822 92.0578 810.508 94.1441 810.24 96.8106C809.825 100.944 809.56 101.659 808.449 101.659C807.342 101.659 807.145 102.178 807.145 105.093V108.527H803.71H800.276V102.002C800.276 98.1103 799.998 95.4777 799.589 95.4777C799.211 95.4777 798.939 95.7093 798.983 95.9927C799.026 96.2761 799.026 97.8501 798.983 99.4908C798.918 101.884 798.623 102.547 797.492 102.842C796.176 103.187 796.088 103.694 796.158 110.505C796.201 114.516 796.213 119.73 796.195 122.09L796.158 126.383H792.724C789.747 126.383 789.29 126.2 789.29 125.009C789.29 124.254 788.966 123.636 788.571 123.636C788.108 123.636 787.881 126.499 787.931 131.705C787.974 136.144 787.789 142.016 787.521 144.754L787.031 149.733H783.695H780.36L780.335 144.411C780.215 117.39 780.051 105.497 779.849 109.385L779.609 114.021H776.206C772.899 114.021 772.803 113.966 772.803 112.004C772.803 110.23 772.533 109.961 770.57 109.772L768.338 109.557L768.149 98.0229C768.005 89.2051 767.765 86.6101 767.129 87.0032C766.671 87.286 765.288 87.4304 764.055 87.3237L761.812 87.1306L761.806 91.8189C761.806 94.3976 761.604 98.5934 761.364 101.143C760.959 105.43 760.804 105.779 759.308 105.779C757.748 105.779 757.69 105.97 757.687 111.102C757.687 114.029 757.483 119.901 757.238 124.15L756.793 131.877H753.463H750.134L750.109 124.837C750.097 120.965 750.091 111.23 750.097 103.203C750.103 94.0667 749.857 88.6094 749.433 88.6094C749.061 88.6094 748.756 89.3819 748.756 90.3262C748.756 91.8033 748.444 92.0447 746.524 92.0537C743.283 92.072 742.651 92.7453 742.698 96.1516C742.723 97.8278 742.394 99.3146 741.97 99.4558C741.547 99.5965 741.201 100.923 741.201 102.402V105.092H738.15C736.472 105.092 734.945 104.842 734.756 104.537C734.568 104.232 734.344 102.068 734.26 99.7294C734.12 95.8393 733.976 95.4772 732.58 95.4772C731.297 95.4772 730.979 95.9709 730.59 98.5678C730.335 100.268 729.836 101.658 729.481 101.658C729.127 101.658 728.837 103.513 728.837 105.779C728.837 109.716 728.76 109.9 727.119 109.9H725.402V123.53C725.402 131.026 725.201 139.989 724.956 143.447L724.51 149.733H721.522H718.533L718.497 144.411C718.479 141.483 718.491 135.65 718.533 131.448C718.636 121.069 718.031 116.767 716.471 116.767C714.756 116.767 714.439 114.874 714.428 104.577C714.422 98.9746 714.155 95.4772 713.732 95.4772C713.354 95.4772 713.081 95.7088 713.126 95.9922C713.169 96.2756 713.169 97.6831 713.126 99.1203L713.044 101.733L709.782 101.524C706.794 101.332 706.5 101.156 706.301 99.4257C706.106 97.7223 705.819 97.5372 703.382 97.5372H700.68L700.592 101.486C700.544 103.658 700.396 108.371 700.263 111.96C700.129 115.548 700.014 123.059 700.007 128.652L699.988 138.819L696.726 138.61L693.463 138.4L693.279 122.432L693.094 106.465H689.672H686.251L686.19 101.485C686.153 98.747 686.177 95.0383 686.238 93.244C686.305 91.3075 686.051 89.9818 685.613 89.9818C685.198 89.9818 684.875 91.3116 684.875 93.0162C684.875 97.1078 684.344 98.2232 682.397 98.2232H680.754V109.212V120.2H677.321C674.521 120.2 673.879 119.978 673.85 118.998C673.832 118.337 673.846 113.856 673.887 109.04C673.954 100.649 673.899 100.284 672.549 100.284C671.628 100.284 671.141 99.8362 671.141 98.9901C671.141 98.2742 670.528 97.5362 669.768 97.3374C668.481 97.001 668.394 97.3191 668.394 102.328C668.394 107.16 668.256 107.714 666.972 108.05C665.697 108.384 665.561 108.903 665.651 113.109C665.705 115.687 665.727 120.655 665.699 124.149L665.644 130.502H662.627C660.458 130.502 659.487 130.184 659.175 129.37C658.936 128.748 658.737 123.803 658.733 118.382L658.727 108.525H656.704C654.554 108.525 654.257 107.974 653.749 103.031C653.613 101.709 653.452 103.486 653.392 106.98C653.321 111.109 653.015 113.332 652.52 113.332C652.054 113.332 651.867 114.265 652.038 115.736L652.319 118.14H648.679H645.039L644.91 108.697C644.838 103.503 644.668 101.03 644.532 103.202L644.284 107.151H641.527H638.77L638.862 112.474C638.911 115.401 638.933 120.346 638.905 123.462L638.856 129.128H635.422H631.987V125.351V121.574H628.896H625.805L625.757 109.04C625.732 102.146 625.653 94.8065 625.585 92.729L625.46 88.9517L622.841 88.7359C620.116 88.5116 617.561 86.8802 617.561 85.3651C617.561 84.8824 616.802 84.4875 615.875 84.4875C614.461 84.4875 614.12 84.9026 613.761 87.063C613.085 91.1267 612.92 91.3554 610.661 91.3554C608.631 91.3554 608.532 91.4815 608.646 93.9308C608.711 95.3473 608.735 100.138 608.7 104.576L608.634 112.646H606.177C603.775 112.646 603.723 112.701 603.84 115.221C603.905 116.638 603.929 120.037 603.895 122.776L603.828 127.755H601.826C599.841 127.755 599.82 127.797 599.361 132.734C599.106 135.473 598.962 138.022 599.04 138.4C599.447 140.361 598.875 140.804 595.929 140.804C592.872 140.804 592.47 140.447 592.831 138.057C592.916 137.49 592.764 129.532 592.492 120.372C592.09 106.863 591.817 103.717 591.044 103.717C590.308 103.717 590.09 105.01 590.088 109.383C590.086 112.5 589.884 118.526 589.639 122.776L589.194 130.502H586.208H583.222L583.159 124.149C583.122 120.655 583.029 117.024 582.949 116.08C582.869 115.135 582.742 110.863 582.669 106.586C582.549 99.5901 582.414 98.8323 581.333 99.0383C580.672 99.1645 580.032 99.9596 579.911 100.806C579.722 102.134 579.277 102.344 576.648 102.344C573.628 102.344 573.605 102.362 573.605 104.748V107.151H570.171H566.736L566.691 101.829C566.667 98.9014 566.683 93.7986 566.732 90.4893C566.799 85.8643 566.571 84.2242 565.746 83.3996C563.844 81.4975 562.294 82.4623 562.06 85.6953C561.874 88.2532 561.648 88.6082 560.201 88.6082H558.553L558.542 97.0868C558.534 101.75 558.334 106.077 558.095 106.702C557.78 107.52 556.815 107.838 554.641 107.838C551.664 107.838 551.624 107.808 551.624 105.491C551.624 101.936 551.021 100.97 548.802 100.97C547.03 100.97 546.809 100.73 546.76 98.7382C546.571 91.1684 546.536 91.0209 544.871 90.7853C543.392 90.5756 543.279 90.7839 543.389 93.5324C543.694 101.156 543.78 100.97 539.946 100.97H536.512V96.8497C536.512 93.6446 536.283 92.729 535.482 92.729C534.633 92.729 534.434 94.089 534.353 100.455C534.299 104.705 534.156 110.499 534.034 113.332C533.913 116.165 533.803 122.424 533.789 127.24L533.766 135.996H530.331H526.897V127.068C526.897 120.383 526.681 118.14 526.038 118.142C525.404 118.143 525.238 116.706 525.404 112.647C525.617 107.42 525.556 107.151 524.158 107.151C522.775 107.151 522.694 107.465 522.781 112.474C522.831 115.401 522.851 118.183 522.824 118.655C522.793 119.207 521.674 119.513 519.685 119.513C516.61 119.513 516.594 119.526 516.594 121.917V124.321H513.159H509.725L509.68 110.414C509.657 102.765 509.577 94.6519 509.508 92.3855L509.382 88.2648L506.214 88.0911L503.046 87.9175L502.649 91.525C502.43 93.5091 502.22 99.7529 502.181 105.4C502.132 112.311 501.839 115.994 501.281 116.666C500.825 117.215 500.529 117.771 500.624 117.902C500.718 118.033 500.795 119.067 500.795 120.2C500.795 122.184 500.681 122.26 497.704 122.26C495.654 122.26 494.613 121.965 494.613 121.383C494.613 120.574 492.287 118.14 491.515 118.14C491.33 118.14 491.179 119.53 491.179 121.23C491.179 124.304 491.166 124.321 488.775 124.321H486.371V127.755V131.189H483.317H480.264L480.007 127.926C479.865 126.132 479.694 128.277 479.626 132.694L479.502 140.725L476.583 140.936L473.663 141.146L473.459 145.439L473.254 149.731H470.196H467.138L467.136 144.752L467.121 144.755Z" fill="black"/>
</svg>
