<svg width="1181" height="130" viewBox="0 0 1181 130" fill="none" xmlns="http://www.w3.org/2000/svg">
<path d="M170.817 122.682C170.763 118.806 170.593 112.917 170.439 109.595C170.285 106.273 170.026 98.8302 169.865 93.056C169.621 84.289 169.276 82.8537 167.777 84.3534C166.789 85.3412 165.551 90.3475 165.025 95.4785C164.499 100.609 163.872 105.005 163.631 105.245C163.391 105.486 161.005 106.038 158.33 106.472L153.465 107.262L153.311 101.381C153.225 98.1471 153.015 94.897 152.844 94.1587C152.672 93.4205 152.44 90.5512 152.327 87.7828C152.194 84.4991 151.48 82.7493 150.272 82.7493C148.152 82.7493 145.07 89.3239 145.459 93.0175C145.603 94.3834 145.651 97.162 145.566 99.1922C145.429 102.477 144.901 102.883 140.774 102.883C136.538 102.883 136.061 102.478 135.256 98.1855C134.455 93.914 133.962 93.4875 129.826 93.4875C126.219 93.4875 125.278 92.9488 125.278 90.8822C125.278 89.4492 124.674 87.9035 123.935 87.4472C123.197 86.9911 122.593 85.4453 122.593 84.0124C122.593 79.2321 118.718 81.2267 117.224 86.7761C116.161 90.7238 115.081 92.1452 113.145 92.1452C111.256 92.1452 110.513 93.0614 110.513 95.3912C110.513 101.572 109.221 102.883 103.136 102.883C96.7437 102.883 97.0092 103.396 94.9463 87.0815C93.7736 77.8073 91.7208 76.7082 91.7208 85.3546C91.7208 91.7031 91.5021 92.1452 88.3651 92.1452C86.5195 92.1452 85.0094 91.5412 85.0094 90.803C85.0094 90.0647 84.3622 89.4607 83.5711 89.4607C82.78 89.4607 82.2428 90.8197 82.3774 92.4808C83.0598 100.906 82.4131 102.883 78.9692 102.883C77.1235 102.883 75.6135 102.28 75.6135 101.541C75.6135 100.803 74.4054 100.199 72.9289 100.199C70.6241 100.199 70.2415 99.2973 70.2238 93.8231C70.2139 90.3164 69.6403 86.557 68.9523 85.469C67.8974 83.8009 67.1641 83.9954 64.2749 86.7096C61.0863 89.7052 60.8362 89.7494 60.6718 87.3457C60.5744 85.925 60.1216 86.8768 59.6651 89.4607C59.0596 92.8882 58.0673 94.2683 55.9962 94.5639C53.4575 94.9262 53.04 94.075 52.0469 86.5102L50.9364 78.0513L50.0857 86.105C49.0405 95.9993 47.843 98.8566 44.7412 98.8566C41.8994 98.8566 40.7144 96.2707 40.7144 90.0692C40.7144 86.8451 39.9055 85.0953 37.925 84.0354C33.8587 81.8591 31.3185 83.4129 31.3185 88.0763C31.3185 91.1664 30.7104 92.1452 28.7905 92.1452C25.6094 92.1452 24.649 95.6272 24.6255 107.246C24.6102 115.861 24.452 116.306 21.4467 116.306C18.383 116.306 18.263 115.886 17.5301 102.585C17.0897 94.5909 16.1677 88.6609 15.3215 88.3788C14.5226 88.1127 13.869 86.9685 13.869 85.8366C13.869 84.3155 12.9935 83.9945 10.5134 84.6062C8.66769 85.0611 5.64759 85.8063 3.80198 86.2614L0.446289 87.0891V72.1675C0.446289 59.7987 0.790757 57.2459 2.45972 57.2459C3.56709 57.2459 4.4731 56.6419 4.4731 55.9036C4.4731 55.1653 5.36765 54.5613 6.46092 54.5613C7.55423 54.5613 8.8278 53.0512 9.29097 51.2056C9.89564 48.7963 11.0386 47.8498 13.3434 47.8498C15.109 47.8498 16.5728 48.6049 16.5962 49.5278C16.6216 50.4972 17.4451 50.1409 18.5483 48.684C19.7541 47.0915 21.4588 46.4242 23.175 46.8731C25.5547 47.4953 26.0007 46.7663 26.7649 41.0053C27.4576 35.7838 28.1556 34.4271 30.1492 34.4271C32.1248 34.4271 32.6608 35.4297 32.6608 39.1251C32.6608 43.2414 33.0763 43.823 36.0165 43.823C39.7156 43.823 39.7819 44.1601 39.3854 60.9372C39.1739 69.8824 41.0804 72.005 44.4623 66.5898C45.4022 65.0847 46.7336 64.2006 47.4207 64.6253C49.4332 65.8691 54.1371 60.2307 54.1371 56.5748C54.1371 53.8902 54.8083 53.219 57.4928 53.219C60.3491 53.219 60.8485 53.8371 60.8485 57.3716C60.8485 60.3719 61.581 61.7156 63.4886 62.2145C64.9407 62.5937 66.4914 64.0477 66.9347 65.4445C67.8851 68.4388 71.5867 68.8779 71.5867 65.9961C71.5867 64.9028 73.0967 63.6293 74.9424 63.1661C78.0839 62.3776 78.298 61.7763 78.298 53.7445C78.298 45.6036 78.4614 45.1652 81.4924 45.1652C84.4417 45.1652 84.732 45.7912 85.277 53.3255C85.8882 61.7751 87.3285 63.8984 92.475 63.9366C95.8091 63.96 100.424 58.0859 101.726 52.1591C102.595 48.2018 103.102 47.8497 107.935 47.8497H113.197L113.412 60.937C113.53 68.135 113.877 71.9102 114.183 69.3263C114.846 63.7309 119.223 58.588 123.322 58.588C125.684 58.588 126.433 57.5893 127.1 53.5544C127.558 50.7859 127.952 46.4068 127.977 43.8229L128.023 39.1249L130.675 42.4805C132.134 44.3262 133.818 47.6484 134.416 49.8632C135.141 52.5446 136.487 54.0333 138.445 54.319C140.326 54.5933 141.386 55.6967 141.386 57.3811C141.386 58.8295 142.292 60.3622 143.399 60.7872C144.507 61.2122 145.455 62.5522 145.507 63.7651C145.58 65.4872 145.854 65.3823 146.755 63.2857C147.389 61.8092 147.951 53.7286 148.003 45.3289L148.097 30.0566L153.751 30.9608C156.861 31.4578 159.553 32.0122 159.733 32.1922C159.913 32.3721 160.164 37.7806 160.29 44.2112C160.455 52.5456 161.002 55.903 162.198 55.903C163.121 55.903 164.628 56.8092 165.547 57.9165C166.466 59.0239 168.05 59.9299 169.067 59.9299C170.5 59.9299 170.916 57.2156 170.916 47.8494C170.916 35.8583 170.941 35.7688 174.271 35.7688C177.291 35.7688 177.627 36.3057 177.627 41.138C177.627 45.9061 177.987 46.5071 180.839 46.5071C184.252 46.5071 185.681 44.2966 185.681 39.0148C185.681 36.4474 186.382 35.7688 189.036 35.7688C192.241 35.7688 192.399 36.1469 192.551 44.1581C192.638 48.7722 192.597 53.3751 192.455 54.3868C192.315 55.3984 192.938 58.0063 193.839 60.1821C195.872 65.0903 197.711 62.9156 197.741 55.5675C197.761 51.0987 198.138 50.5339 201.117 50.5339C202.962 50.5339 204.473 51.138 204.473 51.8763C204.473 52.6146 205.379 53.2186 206.486 53.2186C207.821 53.2186 208.499 54.5538 208.499 57.1822C208.499 59.3622 209.195 62.6717 210.044 64.5366C211.569 67.8824 211.619 67.8923 213.878 65.2878C216.154 62.6641 216.182 62.6641 218.582 65.317C219.909 66.7843 222.385 67.9847 224.083 67.9847C226.548 67.9847 227.347 67.0385 228.051 63.2868C228.876 58.8865 229.259 58.5888 234.085 58.5888C237.5 58.5888 239.661 59.3437 240.491 60.8275C241.519 62.6643 241.939 62.2426 242.831 58.4785C243.429 55.9552 243.952 53.4881 243.994 52.9959C244.034 52.504 244.523 51.648 245.076 51.0943C245.63 50.5404 246.083 45.9601 246.083 40.9153C246.083 32.1615 246.228 31.7431 249.263 31.7431C251.895 31.7431 252.586 32.6106 253.275 36.7766C253.733 39.5451 254.114 44.0373 254.122 46.7594C254.137 51.664 254.179 51.7017 258.834 50.9462C262.595 50.336 263.532 50.6203 263.532 52.3729C263.532 53.5769 264.438 54.562 265.546 54.562C266.799 54.562 267.559 55.8297 267.559 57.9176C267.559 60.6022 268.23 61.2733 270.915 61.2733C273.749 61.2733 274.271 61.8998 274.271 65.3002C274.271 67.515 274.825 69.3271 275.503 69.3271C278.791 69.3271 280.982 67.3909 280.982 64.4854C280.982 62.5251 281.767 61.2733 282.995 61.2733C284.103 61.2733 285.009 60.3673 285.009 59.2599C285.009 58.1414 286.202 57.2465 287.693 57.2465C289.781 57.2465 290.378 56.3516 290.378 53.2197C290.378 50.5351 291.049 49.1928 292.391 49.1928C293.499 49.1928 294.405 48.5456 294.405 47.7547C294.405 45.3858 298.049 42.4814 301.02 42.4814C303.312 42.4814 303.801 43.3214 303.801 47.2586C303.801 49.8861 304.324 51.7124 304.964 51.3171C305.603 50.922 307.207 51.7919 308.527 53.2513C312.612 57.7651 314.362 56.544 314.804 48.8698C315.129 43.2349 315.712 41.7399 317.734 41.3552C319.122 41.0908 320.774 41.6893 321.404 42.6848C322.139 43.8447 322.565 42.3249 322.59 38.4545C322.646 29.8102 323.836 26.3739 326.776 26.3739C329.285 26.3739 329.908 28.5169 329.373 35.3062C329.248 36.8968 329.785 38.5935 330.567 39.0767C331.349 39.5597 331.988 43.4957 331.988 47.8231C331.988 55.5144 332.081 55.7112 336.111 56.5964C338.379 57.0947 340.634 57.1018 341.123 56.6141C341.612 56.1252 342.239 51.2353 342.516 45.7481C342.989 36.3772 343.208 35.7713 346.108 35.7713C349.029 35.7713 349.245 36.4103 350.081 47.5162C351.229 62.7655 351.547 63.6871 354.497 60.3047C357.086 57.3362 369.572 54.7361 369.572 57.1656C369.572 57.9491 370.186 58.59 370.936 58.59C371.686 58.59 372.282 56.929 372.262 54.8988C372.242 52.8686 372.6 48.9425 373.059 46.174C373.751 41.9936 374.436 41.1404 377.101 41.1404C379.415 41.1404 380.31 40.3918 380.31 38.4558C380.31 36.9793 381.191 35.7713 382.267 35.7713C383.779 35.7713 384.313 33.4079 384.616 25.3686C384.979 15.7414 385.233 14.9339 388.028 14.537C390.597 14.1724 391.048 14.7234 391.048 18.2282C391.048 21.3499 391.653 22.3484 393.544 22.3484C395.816 22.3484 396.128 24.0725 397.012 41.4754C397.546 51.9953 398.194 60.8142 398.453 61.073C399.556 62.1762 401.787 59.5637 401.787 57.1686C401.787 55.458 402.709 54.5632 404.471 54.5632C406.398 54.5632 407.156 53.6683 407.156 51.3913C407.156 48.4446 407.799 48.1658 416.216 47.4654C426.414 46.6168 428.857 47.8634 429.292 54.1389C429.436 56.2179 429.649 58.6739 429.764 59.5967C430.064 61.9929 434.001 61.6812 434.001 59.2615C434.001 58.154 434.907 57.248 436.014 57.248C437.122 57.248 438.028 56.644 438.028 55.9057C438.028 55.1675 439.538 54.5634 441.384 54.5634C444.426 54.5634 444.739 55.0857 444.739 60.1563C444.739 63.2324 445.007 65.4818 445.333 65.1552C445.862 64.6259 447.393 36.8565 447.415 27.3822C447.425 23.972 447.833 23.6909 452.793 23.6909C455.746 23.6909 458.173 24.1441 458.186 24.6976C458.364 32.0474 459.799 53.2712 460.274 55.5701C460.752 57.8872 461.829 58.5903 464.899 58.5903C467.48 58.5903 468.9 59.2739 468.9 60.5162C468.9 61.5756 469.616 64.1428 470.49 66.221L472.08 69.9997L472.839 64.6305C473.449 60.3179 474.209 59.1749 476.701 58.8217C478.947 58.5034 479.739 57.5778 479.572 55.4659C479.445 53.8622 479.408 43.0366 479.49 31.4091L479.639 10.268H482.994C486.305 10.268 486.352 10.4245 486.517 22.013C486.608 28.4727 487.117 37.9862 487.648 43.1539C488.49 51.3557 488.656 51.7823 488.957 46.5097C489.487 37.2357 490.814 33.8078 494.057 33.3377C496.731 32.9502 496.987 33.574 497.357 41.3914C497.719 49.0135 498.063 49.9085 500.779 50.2943C503.241 50.6437 503.799 51.5746 503.799 55.3278C503.799 57.8604 504.403 59.9325 505.142 59.9325C505.88 59.9325 506.484 61.7446 506.484 63.9594C506.484 66.1742 507.088 67.9862 507.826 67.9862C508.565 67.9862 509.169 67.0801 509.169 65.9727C509.169 64.8542 510.362 63.9594 511.853 63.9594C513.345 63.9594 514.538 63.0645 514.538 61.946C514.538 60.709 515.795 59.9325 517.797 59.9325C520.741 59.9325 521.145 59.2182 521.978 52.55C522.806 45.923 523.228 45.1674 526.102 45.1674C529.001 45.1674 529.303 44.5976 529.303 39.1271C529.303 34.1226 529.733 33.0868 531.812 33.0868C534.44 33.0868 535.968 38.3511 535.999 47.5164C536.009 49.9157 536.618 51.8788 537.356 51.8788C538.095 51.8788 538.699 50.6288 538.699 49.1009C538.699 46.9879 539.421 46.4256 541.719 46.752C544.26 47.1125 544.865 48.2456 545.535 53.8922C546.283 60.2006 546.343 60.0192 546.541 50.8721C546.746 41.4429 546.856 41.1406 550.108 41.1406C553.06 41.1406 553.463 41.7162 553.463 45.9267C553.463 52.0746 555.543 55.9056 558.88 55.9056C561.282 55.9056 561.517 54.9468 561.517 45.1674C561.517 34.6081 561.573 34.4291 564.873 34.4291C568.187 34.4291 568.228 34.5686 568.228 45.7593C568.228 51.9909 568.833 57.4628 569.571 57.9191C570.309 58.3751 570.913 60.7567 570.913 63.2109C570.913 66.5442 571.592 67.8507 573.598 68.3752C575.371 68.8389 576.282 68.4162 576.282 67.1305C576.282 66.0421 577.282 65.3578 578.551 65.5783C580.109 65.8491 581.221 64.6058 582.101 61.6104C583.832 55.7154 586.694 56.0474 592.519 62.8189C599.354 70.7645 601.785 69.49 601.785 57.9612C601.785 49.5634 601.923 49.1943 605.059 49.1943C607.909 49.1943 608.449 49.9744 609.238 55.2344C609.811 59.0534 610.828 61.2748 612.005 61.2748C613.028 61.2748 613.866 62.1808 613.866 63.2882C613.866 64.6305 615.208 65.3016 617.893 65.3016C620.577 65.3016 621.919 64.6305 621.919 63.2882C621.919 62.1808 622.825 61.2748 623.933 61.2748C625.051 61.2748 625.946 60.0816 625.946 58.5902C625.946 56.6215 626.841 55.9056 629.302 55.9056C631.763 55.9056 632.657 56.6215 632.657 58.5902C632.657 60.0816 633.552 61.2748 634.671 61.2748C636.013 61.2748 636.684 59.9325 636.684 57.248C636.684 55.0332 637.288 53.2211 638.027 53.2211C638.816 53.2211 639.369 48.5231 639.369 41.8117C639.369 30.6966 639.451 30.4022 642.557 30.4022C646.596 30.4022 647.423 34.0675 647.423 51.9674C647.423 59.3034 648.017 65.5108 648.765 65.9727C649.526 66.4429 650.107 65.3155 650.107 63.3674C650.107 61.4782 650.711 59.9325 651.449 59.9325C652.188 59.9325 652.792 56.6103 652.792 52.55C652.792 45.57 652.974 45.1674 656.147 45.1674C659.404 45.1674 659.508 45.4558 659.662 54.8989L659.82 64.6305L661.176 58.1069C662.52 51.6412 662.572 51.5899 667.058 52.3179C670.439 52.8665 671.584 52.5646 671.584 51.1232C671.584 49.9604 672.917 49.1943 674.939 49.1943C676.785 49.1943 678.295 49.7983 678.295 50.5365C678.295 51.2748 679.201 51.8788 680.308 51.8788C681.416 51.8788 682.322 51.2748 682.322 50.5365C682.322 49.7983 683.832 49.1943 685.677 49.1943C688.511 49.1943 689.033 49.8206 689.033 53.2211C689.033 55.4359 689.637 57.248 690.375 57.248C691.114 57.248 691.718 55.7378 691.718 53.8922C691.718 51.2077 692.389 50.5365 695.073 50.5365C697.984 50.5365 698.429 51.1319 698.429 55.0292C698.429 57.5 699.504 60.7607 700.817 62.275C702.816 64.5802 703.581 64.7534 705.515 63.3392C706.785 62.4101 707.825 60.3575 707.825 58.7778C707.825 52.2263 718.278 56.8188 721.268 64.6841C723.999 71.8667 725.304 68.6363 727.39 49.5298C728.228 41.8556 728.577 41.1406 731.488 41.1406C734.365 41.1406 734.67 41.7203 734.67 47.1808C734.67 52.6962 734.956 53.2211 737.959 53.2211C739.768 53.2211 741.79 52.253 742.452 51.0697C744.338 47.7006 748.698 49.3177 749.189 53.5681C749.689 57.9018 752.714 58.4098 755.116 54.5633C757.465 50.8023 761.516 51.0573 761.516 54.9661C761.516 56.6641 762.077 58.6272 762.762 59.3285C763.448 60.0298 764.257 62.7177 764.561 65.3016C764.865 67.8855 765.21 54.4459 765.328 35.4358L765.542 0.87207H768.898H772.254V24.4442V48.0164L778.211 47.123L784.169 46.2296L785.096 54.4233C785.606 58.9299 786.549 62.617 787.192 62.617C787.835 62.617 788.361 61.409 788.361 59.9325C788.361 58.4166 789.256 57.248 790.416 57.248C791.547 57.248 792.82 56.3418 793.245 55.2344C793.67 54.1271 794.715 53.2211 795.569 53.2211C796.422 53.2211 797.717 51.8956 798.445 50.2754C800.064 46.6762 806.112 44.856 812.857 45.9381L817.891 46.7456V56.0236C817.891 61.3141 818.468 65.3016 819.233 65.3016C819.971 65.3016 820.575 63.421 820.575 61.1224C820.575 57.2247 820.852 56.9838 824.68 57.5456C828.31 58.0785 828.873 57.7074 829.546 54.3423C830.125 51.4447 831.068 50.5364 833.495 50.5364C835.804 50.5364 836.683 51.2879 836.683 53.2632C836.683 54.7629 837.589 56.3375 838.696 56.7625C839.803 57.1875 840.78 58.8295 840.865 60.4117C840.988 62.6806 841.15 62.792 841.635 60.9392C842.103 59.1483 843.66 58.5903 848.191 58.5903C853.451 58.5903 854.135 58.9362 854.153 61.6104C854.17 64.0526 854.422 64.2452 855.475 62.6171C856.19 61.5097 856.785 56.8285 856.796 52.2144C856.814 44.6302 857.083 43.8251 859.597 43.8251C864.039 43.8251 866.089 47.0388 866.979 55.3976C867.437 59.6887 868.659 64.411 869.696 65.8916C871.481 68.4392 871.582 68.3494 871.582 64.2159C871.582 61.7215 872.383 59.5407 873.451 59.1311C874.815 58.6076 875.363 55.4931 875.478 47.6135C875.654 35.53 876.008 34.4291 879.715 34.4291C881.989 34.4291 882.322 35.4085 882.338 42.1473C882.362 52.4285 883.415 55.9056 886.503 55.9056C887.894 55.9056 889.031 56.5529 889.031 57.3439C889.031 58.1349 889.937 57.8762 891.045 56.7683C892.152 55.6609 893.058 54.1077 893.058 53.3167C893.058 52.5257 893.662 51.8785 894.4 51.8785C895.139 51.8785 895.743 50.3685 895.743 48.5229C895.743 45.8383 896.414 45.1672 899.098 45.1672C902.249 45.1672 902.455 45.598 902.475 52.2141C902.486 56.09 903.081 60.1672 903.796 61.2745C904.848 62.9026 905.101 62.71 905.118 60.2679C905.136 57.9529 905.916 57.2477 908.469 57.2477C911.766 57.2477 912.319 58.2074 913.494 65.9726C913.717 67.4491 914.798 68.6571 915.895 68.6571C917.411 68.6571 917.949 66.7236 918.137 60.6035C918.273 56.1739 918.424 51.7947 918.472 50.8719C918.525 49.9491 920.071 49.194 921.917 49.194C924.932 49.194 925.272 49.7339 925.272 54.521C925.272 60.2034 925.773 60.3579 932.99 56.8991C936.844 55.0521 942.722 57.8993 942.722 61.6131C942.722 63.0713 943.448 63.9416 944.4 63.6253C945.608 63.2238 946.182 57.9313 946.451 44.7216L946.824 26.3752H950.142H953.46V45.3108C953.46 61.2121 953.769 64.1279 955.387 63.507C956.446 63.1002 957.654 63.4893 958.071 64.37C958.648 65.5893 959.016 65.5713 959.612 64.2945C960.043 63.3716 961.855 62.6166 963.639 62.6166C966.067 62.6166 966.917 63.3757 967.02 65.6368C967.132 68.1176 967.36 67.9378 968.295 64.6301C968.92 62.4153 969.776 58.9421 970.197 56.9119C970.779 54.0995 971.742 53.2206 974.244 53.2206C976.185 53.2206 978.131 52.0903 979.007 50.4546C979.954 48.6851 981.542 47.8388 983.416 48.1056C985.74 48.4362 986.432 49.564 986.762 53.5562C987.013 56.5862 987.875 58.5897 988.929 58.5897C989.892 58.5897 991.609 60.8548 992.744 63.6233C994.37 67.5845 994.837 68.0135 994.94 65.6368C995.025 63.6659 995.914 62.6166 997.498 62.6166C998.834 62.6166 1001.1 61.7298 1002.53 60.6459C1005.98 58.037 1011.18 58.0113 1011.18 60.6048C1011.18 61.7121 1011.78 62.6181 1012.52 62.6181C1013.26 62.6181 1013.86 59.598 1013.86 55.9067C1013.86 49.6427 1014.09 49.1954 1017.22 49.1954C1020.3 49.1954 1020.57 49.6872 1020.57 55.2356C1020.57 59.7099 1021.1 61.2759 1022.59 61.2759C1023.69 61.2759 1024.6 60.3699 1024.6 59.2625C1024.6 56.7934 1030.79 56.5036 1031.77 58.9271C1032.14 59.85 1032.49 58.3399 1032.55 55.5714C1032.63 51.5222 1033.16 50.5379 1035.26 50.5379C1037.31 50.5379 1038.05 49.2678 1038.76 44.4976C1039.45 39.9411 1040.26 38.4573 1042.06 38.4573C1045.3 38.4573 1046.08 41.0766 1046.08 51.9899C1046.08 60.3813 1046.34 61.2762 1048.76 61.2762C1050.55 61.2762 1051.45 60.3813 1051.45 58.5915C1051.45 56.6229 1052.34 55.907 1054.8 55.907C1056.89 55.907 1058.16 56.6677 1058.16 57.9204C1058.16 59.4119 1059.72 59.9339 1064.2 59.9339C1067.52 59.9339 1070.24 60.5379 1070.24 61.2762C1070.24 62.0144 1071.75 62.6184 1073.59 62.6184C1076.05 62.6184 1076.95 61.9026 1076.95 59.9339C1076.95 57.9899 1077.84 57.2493 1080.19 57.2493C1081.98 57.2493 1083.74 56.4942 1084.11 55.5714C1084.49 54.6486 1084.85 56.3096 1084.92 59.2627C1085 62.8849 1085.43 64.0284 1086.22 62.7771C1087.06 61.4539 1088.78 61.1828 1092.24 61.8312C1096.52 62.6345 1097.08 62.4212 1097.08 59.9947C1097.08 57.9611 1097.95 57.2493 1100.44 57.2493C1103.28 57.2493 1103.83 57.9135 1104.02 61.6117C1104.14 64.0111 1104.6 62.35 1105.03 57.9204C1105.76 50.3571 1106.03 49.8409 1109.5 49.4421C1112.74 49.0687 1113.19 48.447 1113.19 44.3151C1113.19 40.2065 1113.57 39.667 1116.21 40.0418C1118.72 40.3988 1119.3 41.4332 1119.64 46.1755C1119.91 49.9298 1120.69 51.8801 1121.91 51.8801C1123.01 51.8801 1123.93 53.633 1124.18 56.2426C1124.5 59.5462 1125.31 60.7065 1127.54 61.0233C1129.51 61.3041 1130.61 62.5344 1130.89 64.7564C1131.63 70.5848 1133.96 68.3453 1135.15 60.6628C1136.09 54.6761 1136.81 53.2225 1138.85 53.2225C1140.24 53.2225 1141.38 54.1474 1141.38 55.278C1141.38 56.4085 1142.43 57.7346 1143.73 58.2248C1145.02 58.7149 1147.86 60.7722 1150.03 62.7964C1152.21 64.8206 1154.47 66.177 1155.07 65.8107C1155.66 65.4443 1156.14 62.1601 1156.14 58.5124C1156.14 52.0677 1156.25 51.8801 1160.09 51.8801C1164.9 51.8801 1165.44 52.6823 1166.46 61.2442C1166.9 64.9531 1167.63 67.9875 1168.08 67.9875C1170.15 67.9875 1172.25 56.1604 1172.25 44.5187C1172.25 31.7892 1172.26 31.7459 1175.61 31.7459H1178.96L1178.97 55.5714C1178.98 68.6754 1179.37 83.4742 1179.84 88.4574L1180.69 97.5178H1177.14C1173.98 97.5178 1173.59 97.0049 1173.59 92.8198C1173.59 88.4947 1173.28 88.1218 1169.57 88.1218C1165.58 88.1218 1165.43 88.3457 1165 94.8332C1164.92 96.0503 1163.54 96.8467 1161.51 96.8467C1158.8 96.8467 1158.24 96.2646 1158.58 93.8265C1158.81 92.1655 1158.36 90.8064 1157.57 90.8064C1156.79 90.8064 1156.15 89.3668 1156.15 87.6072C1156.15 85.5656 1155.2 84.1607 1153.53 83.7244C1151.29 83.1388 1150.86 83.8393 1150.51 88.6014C1150.18 93.1967 1149.58 94.2365 1147.08 94.591C1144.53 94.9545 1144.06 94.4017 1144.06 90.979C1144.06 87.0912 1142.05 84.3196 1140.41 85.956C1139.98 86.3892 1139.49 89.0167 1139.32 91.7951C1139.06 96.1273 1138.56 96.8467 1135.83 96.8467C1132.87 96.8467 1132.63 96.274 1132.26 88.4574C1131.79 78.6368 1129.95 77.394 1128.96 86.2251C1128.57 89.6115 1127.74 92.8648 1127.1 93.4547C1126.47 94.0446 1122.47 94.9416 1118.23 95.448L1110.51 96.3687V89.9633C1110.51 83.7402 1108.64 82.9878 1107.6 88.7929C1107.32 90.3567 1105.87 91.6566 1104.12 91.9065C1101.37 92.2986 1101.11 91.7928 1101.11 86.0374C1101.11 80.5914 1100.84 79.9655 1099.1 81.4104C1097.99 82.3295 1097.09 84.8119 1097.09 86.927C1097.09 90.7235 1097 90.7672 1090.04 90.3601C1083.52 89.9785 1082.96 89.6789 1082.57 86.3502C1082.23 83.5095 1081.43 82.7527 1078.75 82.7527C1076.49 82.7527 1075.12 83.6461 1074.66 85.4373C1073.75 88.9132 1067.6 89.1993 1067.45 85.7726C1067.37 83.9016 1067.19 83.8332 1066.58 85.4373C1066.16 86.5446 1065.34 87.764 1064.76 88.1469C1063.46 89.0048 1062.44 94.9705 1062.3 102.593C1062.22 106.551 1061.52 108.597 1060.04 109.165C1056.94 110.354 1055.52 107.239 1055.5 99.1956C1055.48 93.5137 1055.04 92.1486 1053.23 92.1486C1052 92.1486 1049.88 91.1491 1048.53 89.9272C1046.18 87.7948 1046.08 88.0906 1046.08 97.3097C1046.08 102.592 1045.52 106.914 1044.85 106.914C1040.35 106.914 1039.36 105.081 1039.14 96.3675L1038.9 87.4507L1038.13 96.1755C1037.46 103.725 1036.97 104.955 1034.53 105.304C1032.05 105.657 1031.6 104.849 1030.88 98.7858C1030.43 94.979 1029.44 91.1124 1028.68 90.1933C1027.91 89.2741 1026.91 85.7334 1026.44 82.3251L1025.59 76.128L1023.08 79.3165C1021.7 81.0702 1020.58 83.4668 1020.58 84.6423C1020.58 85.8178 1019.72 86.7796 1018.67 86.7796C1017.63 86.7796 1016.52 87.5218 1016.22 88.429C1015.82 89.6406 1014.73 89.4625 1012.13 87.7578C1007.8 84.9201 1007.15 84.8802 1007.15 87.4507C1007.15 88.5924 1005.95 89.4641 1004.37 89.4641C1001.48 89.4641 997.757 86.5778 997.757 84.3345C997.757 83.6225 996.851 82.6922 995.743 82.2673C994.636 81.8423 993.73 80.5698 993.73 79.4392C993.73 78.3086 993.23 77.3836 992.62 77.3836C991.044 77.3836 988.361 93.0264 988.361 102.212V109.952L982.881 109.217C979.867 108.812 977.119 108.2 976.774 107.855C976.43 107.511 975.785 100.815 975.341 92.9772C974.831 83.9818 973.99 78.7334 973.058 78.7464C969.593 78.7992 968.399 81.3132 967.496 90.48C966.602 99.545 966.322 100.202 963.355 100.202C961.279 100.202 960.119 99.3865 960.018 97.8534C959.933 96.5615 959.723 94.9004 959.552 94.1621C959.38 93.4239 959.148 89.9317 959.035 86.4018C958.892 81.89 958.193 79.739 956.682 79.1593C953.545 77.9554 952.047 81.1796 952.207 88.793C952.496 102.512 952.404 102.887 948.764 102.887C945.963 102.887 945.408 102.249 945.408 99.0278C945.408 93.0023 943.86 86.7485 942.566 87.5482C941.921 87.9468 940.698 86.7481 939.849 84.8839C937.717 80.2059 936.248 81.673 935.207 89.5193C934.492 94.9121 933.829 96.1756 931.717 96.1756C928.707 96.1756 926.545 94.2108 924.334 89.4641C923.475 87.6185 922.73 86.8635 922.68 87.7863C922.547 90.2463 915.878 89.9172 915.878 87.451C915.878 85.2524 912.351 84.6461 911.628 86.7204C911.354 87.5046 909.224 87.5596 906.147 86.8617C901.313 85.7656 901.113 85.8612 901.098 89.2701C901.087 91.2226 900.709 95.0851 900.252 97.8536C899.516 102.307 898.976 102.887 895.568 102.887C891.741 102.887 891.717 102.834 891.697 94.4979C891.679 88.5861 891.292 86.7032 890.375 88.122C889.659 89.2294 889.065 91.4945 889.053 93.1556C889.036 95.4767 888.256 96.1756 885.677 96.1756C882.843 96.1756 882.321 95.5493 882.321 92.1489C882.321 89.0169 881.725 88.122 879.637 88.122C878.145 88.122 876.952 89.0168 876.952 90.1354C876.952 91.3882 875.685 92.1489 873.597 92.1489C871.509 92.1489 870.241 91.3882 870.241 90.1354C870.241 89.028 869.685 88.122 869.005 88.122C868.326 88.122 867.372 86.3099 866.885 84.0951C865.814 79.2167 863.53 78.7598 863.53 83.424C863.53 87.6875 858.286 88.22 857.2 84.0668C856.064 79.7256 853.22 83.271 852.158 90.3503C850.886 98.8371 850.209 100.203 847.279 100.203C845.881 100.203 844.716 100.051 844.689 99.8673C844.666 99.6826 844.287 95.9075 843.854 91.4779C842.915 81.8572 842.053 80.1454 842.053 87.8985C842.053 94.0253 841.217 94.464 834.2 92.0178C831.875 91.2074 829.973 89.6973 829.973 88.6622C829.973 87.627 829.01 86.78 827.834 86.78C826.657 86.78 825.403 85.6645 825.046 84.3012C824.58 82.5158 823.5 81.994 821.189 82.436C817.695 83.1039 816.219 86.1243 816.594 91.8389C817.251 101.839 816.526 106.914 814.441 106.914C812.03 106.914 808.497 103.78 808.497 101.641C808.497 100.85 807.591 100.203 806.483 100.203C805.148 100.203 804.47 98.8679 804.47 96.2426C804.47 94.0646 803.652 91.7995 802.653 91.209C801.654 90.6187 800.494 89.2296 800.075 88.1223C799.6 86.868 799.266 87.3741 799.188 89.4646C798.937 96.2438 797.561 98.8606 794.246 98.8606C791.485 98.8606 791.047 98.2176 791.047 94.1626C791.047 91.2043 790.401 89.4646 789.303 89.4646C786.863 89.4646 784.336 97.1951 784.336 104.661C784.336 110.465 784.081 110.941 780.98 110.941C777.745 110.941 777.624 111.254 777.624 119.666C777.624 128.078 777.504 128.391 774.269 128.391C771.033 128.391 770.913 128.078 770.913 119.666C770.913 112.805 770.483 110.941 768.9 110.941C767.362 110.941 766.849 109.118 766.727 103.223C766.639 98.978 766.659 94.7814 766.768 93.8971C766.879 93.0128 765.743 91.6324 764.243 90.8297C761.799 89.522 761.515 89.7662 761.515 93.1757C761.515 97.5164 759.378 100.203 755.925 100.203C752.406 100.203 750.777 95.9849 750.777 86.8682C750.777 78.8687 749.391 76.6448 747.032 80.8599C746.375 82.0335 745.288 82.7886 744.616 82.5378C743.944 82.287 743.194 84.1937 742.949 86.7747C742.421 92.3391 740.639 94.8337 737.19 94.8337C735.098 94.8337 734.67 95.8599 734.67 100.874C734.67 106.422 734.397 106.914 731.314 106.914C727.986 106.914 727.959 106.816 727.959 94.9679V83.0216H723.35C720.815 83.0216 718.119 82.6371 717.359 82.1675C716.456 81.6094 715.843 85.8688 715.592 94.4492C715.227 106.915 715.053 107.607 712.187 108.014C709.662 108.373 709.167 107.817 709.167 104.622C709.167 102.52 708.32 99.5916 707.286 98.1146C706.251 96.6375 705.194 93.936 704.937 92.1112C704.588 89.6362 703.533 88.6856 700.784 88.3692C697.271 87.9647 697.109 88.2004 697.313 93.4064C697.554 99.5615 697.447 99.7695 693.731 100.411C691.34 100.824 691.002 100.03 690.644 93.1558C690.423 88.9109 689.667 85.4377 688.966 85.4377C688.264 85.4377 687.69 86.3738 687.69 87.5178C687.69 88.6618 686.765 91.3867 685.635 93.573C683.946 96.8384 682.987 97.3997 680.266 96.7166C677.201 95.9474 676.952 96.2488 676.952 100.728C676.952 104.918 676.526 105.572 673.798 105.572C670.787 105.572 670.604 105.029 669.798 93.6729C668.749 78.8904 668.287 77.6166 664.255 78.3874C660.191 79.1644 659.543 81.8264 659.521 97.8538C659.503 110.766 659.459 110.941 656.283 110.941C653.282 110.941 653 110.304 652.12 101.545C651.601 96.3773 650.664 92.1491 650.038 92.1491C649.411 92.1491 648.717 95.6223 648.496 99.8673C648.115 107.174 647.897 107.608 644.402 108.01C641.347 108.362 640.686 107.899 640.568 105.326C640.433 102.38 640.348 102.41 638.967 105.908C638.164 107.938 636.505 109.599 635.28 109.599C633.473 109.599 632.887 107.655 632.183 99.3293C631.706 93.681 631.315 86.1306 631.315 82.5507C631.315 77.6599 630.814 76.0418 629.302 76.0418C628.063 76.0418 627.288 77.2999 627.288 79.3107C627.288 81.8165 626.212 82.9688 622.676 84.2473C619.74 85.3089 617.779 87.0483 617.281 89.0322C616.194 93.3648 609.839 93.5048 609.839 89.1963C609.839 87.1295 609.414 86.6673 608.426 87.6561C607.22 88.8624 606.544 91.6334 605.856 98.1897C605.779 98.928 604.23 97.7201 602.415 95.5051C600.326 92.9567 599.104 89.7534 599.087 86.7803C599.069 83.8057 598.655 82.7197 597.957 83.8202C597.235 84.9575 595.039 85.3385 591.602 84.9226C588.713 84.5732 585.896 84.2441 585.342 84.1914C584.788 84.1386 584.336 82.8876 584.336 81.4111C584.336 79.9346 583.732 78.7265 582.993 78.7265C582.255 78.7265 581.651 79.6733 581.651 80.8304C581.651 82.2911 580.866 82.6853 579.085 82.1198C577.039 81.4706 576.335 82.1374 575.615 85.4205L574.711 89.5359L572.043 86.1446C568.107 81.1409 566.66 81.9815 566.906 89.1292C567.39 103.247 567.144 104.453 563.866 103.988C561.925 103.712 560.692 102.48 560.417 100.539C560.106 98.3527 559.087 97.5185 556.726 97.5185C554.721 97.5185 553.463 98.2945 553.463 99.5319C553.463 100.785 552.196 101.545 550.108 101.545C548.02 101.545 546.752 100.785 546.752 99.5319C546.752 98.2938 545.494 97.5185 543.485 97.5185C541.02 97.5185 540.115 96.7046 539.794 94.198C539.465 91.6229 538.917 91.1599 537.356 92.1354C535.89 93.0513 535.214 96.5099 534.869 104.852C534.412 115.917 534.285 116.31 531.178 116.31C528.066 116.31 527.96 115.977 527.96 106.147C527.96 98.9035 527.382 95.4062 525.947 93.9711C524.157 92.1813 523.933 92.192 523.933 94.0666C523.933 95.3908 522.749 96.176 520.752 96.176C517.973 96.176 517.484 95.4052 516.883 90.0693C516.143 83.5097 514.954 81.2736 513.458 83.63C512.944 84.4387 510.444 85.552 507.902 86.1038C502.168 87.3487 499.772 89.6459 499.772 93.8988C499.772 101.641 498.182 105.572 495.049 105.572C492.18 105.572 491.948 104.873 491.048 93.4914C490.522 86.8471 489.605 81.4108 489.01 81.4108C487.766 81.4108 486.532 89.0056 486.501 96.8471C486.491 99.8001 486.087 106.293 485.608 111.277C484.796 119.701 484.509 120.337 481.516 120.337C478.406 120.337 478.296 119.996 478.296 110.333C478.296 99.8756 476.434 93.4914 473.383 93.4914C472.229 93.4914 471.585 91.8374 471.585 88.8726C471.585 84.1832 469.778 81.589 468.243 84.0736C467.049 86.0042 461.205 85.7707 460.393 83.76C460.021 82.8371 459.669 86.1592 459.61 91.1425C459.51 99.6814 459.326 100.203 456.405 100.203C454.701 100.203 452.134 99.316 450.7 98.2321C449.267 97.1482 446.434 96.2422 444.404 96.2187C442.374 96.1952 440.784 95.7228 440.871 95.1694C441.372 91.9975 440.296 90.67 439.511 93.4914C438.785 96.1032 437.699 96.8471 434.612 96.8471C431.828 96.8471 430.774 96.261 431.077 94.8825C432.01 90.6301 429.876 84.3829 427.257 83.6979C425.544 83.25 424.605 83.6744 424.605 84.8923C424.605 85.9305 423.699 86.78 422.592 86.78C421.484 86.78 420.578 87.6861 420.578 88.7935C420.578 91.2633 414.421 91.549 413.343 89.1288C412.931 88.2059 412.643 89.263 412.702 91.4777C412.761 93.6926 412.743 100.186 412.666 105.907C412.527 116.071 412.447 116.31 409.169 116.31C405.888 116.31 405.81 116.077 405.694 105.907C405.628 100.186 405.64 92.7865 405.719 89.4644C405.953 79.7777 403.641 78.5842 402.593 87.8505C401.732 95.4619 401.481 95.9009 397.541 96.6889C390.316 98.1339 389.704 97.8317 389.704 92.8201C389.704 89.6017 389.088 88.1221 387.749 88.1221C386.255 88.1221 385.702 90.4071 385.4 97.8394C385.065 106.108 384.63 107.629 382.482 108.039C379.101 108.684 377.669 106.066 377.644 99.1959C377.634 96.0583 377.06 93.4912 376.371 93.4912C375.681 93.4912 374.882 91.8301 374.595 89.7999C374.142 86.5925 373.931 86.8564 372.992 91.8133C371.868 97.7466 371.302 98.0659 364.369 96.6791C360.427 95.8908 360.165 95.4658 360.018 89.6321C359.933 86.2177 359.587 84.4811 359.249 85.773C358.877 87.1962 357.351 88.1221 355.378 88.1221C352.235 88.1221 351.994 88.5477 351.579 94.8335C351.499 96.0506 350.119 96.8469 348.092 96.8469C344.623 96.8469 344.514 96.6207 344.235 88.7933C344.101 85.046 343.524 84.0952 341.382 84.0952C339.593 84.0952 338.698 83.2004 338.698 81.4106C338.698 79.9341 338.169 78.7261 337.523 78.7261C336.266 78.7261 334.671 85.1371 334.671 90.1914C334.671 91.8833 333.918 93.5185 332.998 93.8253C331.885 94.1963 331.164 98.2818 330.846 106.018C330.384 117.267 330.262 117.652 327.151 117.652C324.29 117.652 323.933 117.055 323.933 112.267V106.882L318.564 107.741L313.195 108.599L313.086 102.723C312.971 96.5386 312.54 92.8661 311.111 85.9007C310.288 81.8864 310.11 81.7795 307.692 83.8499C306.181 85.1435 305.141 87.7695 305.141 90.2902C305.141 92.8351 304.331 94.8569 303.127 95.3189C301.926 95.7803 301.114 97.8005 301.114 100.328C301.114 104.32 300.881 104.518 297.087 103.76C294.816 103.305 293.06 103.525 293.06 104.263C293.06 104.983 291.635 105.572 289.893 105.572C287.059 105.572 286.648 104.829 285.994 98.525C284.875 87.7296 282.752 84.0953 277.565 84.0953C272.844 84.0953 271.637 86.2009 271.602 94.4981C271.587 98.2516 271.116 98.8605 268.228 98.8605C265.146 98.8605 264.873 98.3681 264.873 92.8202C264.873 89.498 264.269 86.7799 263.53 86.7799C262.792 86.7799 262.188 88.894 262.188 91.4779C262.188 94.0618 261.584 96.1758 260.846 96.1758C260.108 96.1758 259.504 99.4981 259.504 103.558C259.504 110.538 259.321 110.941 256.148 110.941C253.208 110.941 252.792 110.36 252.792 106.243C252.792 103.659 252.188 101.545 251.45 101.545C250.712 101.545 250.108 104.867 250.108 108.928C250.108 115.783 249.882 116.31 246.951 116.31C243.962 116.31 243.749 115.723 242.932 105.236C242.458 99.1457 242.067 90.9913 242.062 87.1155C242.058 83.2397 241.45 80.0685 240.712 80.0685C239.974 80.0685 239.37 79.1624 239.37 78.0551C239.37 76.9477 238.766 76.0416 238.027 76.0416C237.289 76.0416 236.685 77.2497 236.685 78.7262C236.685 80.2027 236.081 81.4108 235.343 81.4108C234.605 81.4108 234 82.9209 234 84.7665C234 87.8233 233.489 88.1222 228.255 88.1222C223.008 88.1222 222.364 87.7429 220.844 83.7598C219.504 80.2462 218.928 79.7892 217.886 81.4108C216.736 83.2005 216.575 83.2005 216.438 81.4108C216.119 77.2531 214.126 86.3784 213.946 92.8202L213.759 99.5316L211.685 95.7045C209.62 91.893 209.603 91.8889 207.636 94.6978C206.545 96.2549 204.191 97.5181 202.381 97.5181C199.615 97.5181 199.101 98.1639 199.101 101.638C199.101 105.143 198.65 105.695 196.081 105.33C194.14 105.054 192.908 103.822 192.632 101.881C192.328 99.7383 191.297 98.8605 189.084 98.8605C185.451 98.8605 184.336 96.6289 184.336 89.3547C184.336 86.4621 183.732 84.0953 182.994 84.0953C182.248 84.0953 181.652 87.6748 181.652 92.149C181.652 96.5786 181.125 100.203 180.482 100.203C179.839 100.203 178.882 106.847 178.356 114.968C177.419 129.421 177.33 129.733 174.156 129.733C171.152 129.733 170.906 129.215 170.816 122.686L170.817 122.682Z" fill="black"/>
</svg>
