<svg width="1333" height="167" viewBox="0 0 1333 167" fill="none" xmlns="http://www.w3.org/2000/svg">
<path d="M158.788 161.06C158.724 157.917 158.77 150.785 158.885 145.211C159.006 139.457 158.397 134.642 157.477 134.073C156.421 133.421 155.855 135.497 155.855 140.018C155.855 143.839 155.169 146.965 154.331 146.965C153.493 146.965 152.807 150.736 152.807 155.346C152.807 163.27 152.599 163.727 148.997 163.727C146.626 163.727 145.187 162.863 145.187 161.441C145.187 160.184 144.501 159.156 143.663 159.156C142.825 159.156 142.139 156.467 142.139 153.181C142.139 147.782 141.699 147.111 137.566 146.203C133.672 145.348 132.85 144.31 132.037 139.225C130.625 130.396 128.917 131.95 127.717 143.156C126.835 151.396 126.182 153.06 123.836 153.06C122.106 153.06 120.826 151.78 120.528 149.751C119.602 143.463 116.231 144.764 116.231 151.41C116.231 157.031 115.863 157.632 112.421 157.632C109.627 157.632 108.611 156.819 108.611 154.584C108.611 152.552 107.595 151.536 105.563 151.536C103.886 151.536 102.515 150.851 102.515 150.013C102.515 149.175 101.143 148.489 99.4667 148.489C96.8263 148.489 96.3971 147.419 96.2572 140.489C96.1685 136.089 96.2227 130.606 96.3712 128.304C96.6679 123.803 92.8503 118.737 90.3342 120.291C89.4895 120.813 88.7984 122.978 88.7984 125.103C88.7984 127.676 87.7871 129.229 85.7675 129.757C84.1006 130.193 83.1123 131.157 83.5715 131.9C84.0306 132.643 83.6798 133.251 82.7923 133.251C81.9047 133.251 81.1784 135.394 81.1784 138.013C81.1784 142.533 80.937 142.726 76.4158 141.822C73.7964 141.299 71.0988 140.87 70.421 140.87C69.7433 140.87 68.9031 138.984 68.5539 136.679C68.2048 134.375 67.8162 136.481 67.6906 141.36C67.4234 151.748 65.6281 154.11 56.9452 155.499L50.6981 156.497V141.065C50.6981 128.363 50.2938 125.632 48.4121 125.632C46.7188 125.632 46.1261 127.41 46.1261 132.489C46.1261 138.706 45.7857 139.346 42.4791 139.346C38.2495 139.346 36.9821 136.858 36.9821 128.555C36.9821 124.264 36.3391 122.584 34.696 122.584C33.2499 122.584 32.3619 121.045 32.279 118.394L32.1483 114.203L30.7265 118.775C29.9445 121.289 29.4775 125.746 29.6886 128.68C30.1194 134.664 30.2024 134.645 14.5031 132.065C10.1025 131.341 6.50203 131.312 6.50203 131.999C6.50203 132.686 5.13045 133.249 3.45405 133.249C0.458653 133.249 0.406006 132.233 0.406006 74.4559C0.406006 28.1025 0.80921 15.7952 2.31102 16.2898C3.35878 16.6349 4.43516 18.4062 4.70306 20.2263C5.27503 24.1122 5.95846 24.2968 8.89694 21.3587C10.3111 19.9447 11.0741 15.9024 11.0741 9.82407C11.0741 0.991513 11.2665 0.493829 14.5031 0.953458C17.8176 1.42368 17.9599 2.12764 18.7619 22.0117C19.2181 33.3259 19.8183 41.7259 20.0954 40.6783C20.3724 39.6307 20.7706 38.0879 20.9801 37.2497C21.1898 36.4117 21.4467 32.6402 21.5515 28.8688C21.7122 23.0911 22.2218 22.0117 24.7901 22.0117C27.3805 22.0117 27.8381 23.0275 27.8381 28.7788C27.8381 32.5008 28.5239 35.9698 29.3621 36.4878C30.2484 37.0355 30.8861 35.5215 30.8861 32.8695C30.8861 29.0276 31.5462 28.2334 35.0771 27.8271C39.196 27.3529 39.273 27.1521 39.5496 16.1321C39.8981 2.25141 40.485 0.678481 45.3164 0.678481C49.1735 0.678481 49.1743 0.681434 49.1743 15.1546C49.1743 27.5388 49.5343 29.6307 51.6665 29.6307C55.3116 29.6307 61.3663 36.8136 61.3663 41.1378C61.3663 43.1898 62.0522 44.8687 62.8904 44.8687C63.7286 44.8687 64.4144 43.4973 64.4144 41.8212C64.4144 40.145 65.1002 38.7736 65.9384 38.7736C66.7766 38.7736 67.3812 38.259 67.2819 37.6307C67.1828 37.0022 67.1828 33.1529 67.2819 29.0768C67.4605 21.7402 67.5082 21.6726 72.0344 22.3368L76.6065 23.0077V11.8431C76.6065 0.950023 76.6992 0.678481 80.4165 0.678481C84.1158 0.678481 84.2265 0.986485 84.2265 11.2926V21.9067L92.0475 22.9441C97.8474 23.7134 100.06 24.7114 100.607 26.8061C101.073 28.5884 102.726 29.6307 105.086 29.6307C108.65 29.6307 108.815 29.2181 108.594 20.8688C108.064 0.933852 108.123 0.678481 113.183 0.678481C117.712 0.678481 117.756 0.759993 117.932 9.44036C118.029 14.2594 118.422 17.0022 118.805 15.5355C119.189 14.0689 120.824 12.8688 122.439 12.8688C125.071 12.8688 125.392 14.0905 125.536 24.6784C125.625 31.1736 125.577 38.3606 125.425 40.6495C125.086 45.8105 126.635 50.9639 128.526 50.9639C129.326 50.9639 129.947 42.972 129.947 32.6783V14.3927H133.757C135.852 14.3927 137.567 15.0784 137.567 15.9165C137.567 16.7546 138.939 17.4404 140.615 17.4404C142.986 17.4404 143.663 18.4561 143.663 22.0117C143.663 25.0593 144.425 26.5831 145.949 26.5831C147.371 26.5831 148.235 25.144 148.235 22.7736C148.235 20.6783 148.921 18.9641 149.759 18.9641C150.597 18.9641 151.283 16.5641 151.283 13.6308C151.283 8.95782 151.755 8.2975 155.093 8.2975C158.695 8.2975 158.903 8.75509 158.903 16.6784C158.903 23.1122 159.434 25.0593 161.189 25.0593C162.874 25.0593 163.475 23.2997 163.475 18.3652C163.475 13.8207 164.209 11.3895 165.761 10.794C167.07 10.292 168.047 8.01754 168.047 5.47355C168.047 1.15735 168.266 1.03006 175.667 1.03006H183.287L183.408 6.56861C183.474 9.61474 183.425 16.4441 183.298 21.7449C183.094 30.3127 183.42 31.4744 186.226 32.2083C187.963 32.6619 189.383 33.6395 189.383 34.3798C189.383 35.1202 190.755 35.7259 192.431 35.7259C194.506 35.7259 195.48 34.7101 195.48 32.5444C195.48 29.6769 196.081 29.4644 201.576 30.3926L207.672 31.4225V21.3838C207.672 11.6917 207.803 11.3451 211.482 11.3451C215.074 11.3451 215.292 11.814 215.292 19.5483C215.292 26.4699 215.768 27.876 218.34 28.5484C221.153 29.2841 221.388 28.5948 221.388 19.5834C221.388 10.1864 221.53 9.82134 225.198 9.82134C228.963 9.82134 229.008 9.97362 229.008 22.7736C229.008 30.3925 229.635 35.7259 230.532 35.7259C231.37 35.7259 232.056 34.088 232.056 32.086C232.056 29.1325 233.062 28.2574 237.39 27.4455L242.724 26.445V13.5618C242.724 0.835488 242.77 0.678481 246.534 0.678481H250.344L250.619 25.4403C250.77 39.0592 251.15 46.9449 251.464 42.9639C251.977 36.4581 252.412 35.7259 255.761 35.7259C258.72 35.7259 259.488 36.5106 259.488 39.5354C259.488 42.2738 260.309 43.3449 262.409 43.3449C264.016 43.3449 265.676 44.202 266.099 45.2496C266.521 46.2972 266.922 41.9437 266.988 35.5749C267.054 29.2062 267.552 18.7489 268.094 12.3369C269.019 1.39014 269.298 0.678481 272.666 0.678481C275.705 0.678481 276.252 1.4436 276.252 5.69093C276.252 10.1116 276.728 10.6963 280.288 10.6433L284.324 10.5837L284.005 22.184L283.685 33.7843L288.594 34.766C291.294 35.3058 293.849 35.4018 294.272 34.9793C294.694 34.5567 295.357 27.0847 295.745 18.375L296.449 2.53925L301.972 1.62599C305.009 1.12398 309.723 0.705135 312.447 0.695863C317.095 0.675994 317.4 1.0078 317.4 6.01239C317.4 11.0918 317.655 11.3457 322.735 11.3457C327.408 11.3457 328.069 11.8172 328.069 15.1553C328.069 17.5257 328.932 18.9647 330.355 18.9647C331.612 18.9647 332.641 17.7092 332.641 16.1746C332.641 12.8561 339.056 9.03363 342.444 10.3335C344.32 11.0535 344.833 13.7114 344.833 22.7265V34.2027H350.167H355.501L355.741 24.679C355.873 19.4409 355.949 14.2981 355.91 13.2505C355.87 12.2029 356.406 11.3457 357.098 11.3457C357.79 11.3457 358.571 9.11711 358.833 6.39338C359.281 1.74496 359.708 1.41228 365.788 0.972457C370.836 0.607536 372.265 1.03205 372.265 2.87719C372.265 4.23468 373.57 5.25052 375.313 5.25052C378.205 5.25052 378.361 6.26636 378.361 25.0599C378.361 36.2054 378.979 44.8693 379.773 44.8693C380.55 44.8693 381.499 46.0694 381.883 47.536C382.266 49.0027 382.659 46.6027 382.756 42.2027C382.91 35.2775 383.343 34.2027 385.981 34.2027C388.431 34.2027 389.092 33.0807 389.348 28.4885C389.523 25.3456 389.81 20.3742 389.986 17.4409C390.162 14.5076 390.362 10.9076 390.43 9.44096C390.513 7.64536 391.798 6.77426 394.363 6.77426C398.092 6.77426 398.173 7.02063 398.173 18.3117C398.173 26.5353 398.83 30.5055 400.459 32.1347C402.491 34.1664 402.745 34.1543 402.745 32.0261C402.745 30.7091 403.774 29.6315 405.031 29.6315C406.289 29.6315 407.317 28.603 407.317 27.3459C407.317 26.0887 408.346 25.0602 409.603 25.0602C411.358 25.0602 411.889 23.1131 411.889 16.6793C411.889 8.75553 412.097 8.29841 415.699 8.29841C419.34 8.29841 419.509 8.70438 419.509 17.4412C419.509 30.856 422.353 28.6024 422.874 14.7746C423.286 3.84547 423.575 2.92873 426.748 2.47811C430.436 1.9549 430.794 3.60623 430.21 18.4793C429.968 24.6413 430.127 24.8668 435.022 25.3365L440.084 25.822L440.526 38.3933C440.77 45.3075 441.567 50.9647 442.298 50.9647C443.028 50.9647 444.118 42.7362 444.718 32.6791C445.639 17.2503 446.196 14.401 448.281 14.4419C452.71 14.5286 456.086 18.3701 456.086 23.3233C456.086 27.0918 456.733 28.1077 459.134 28.1077C460.827 28.1077 462.182 27.0918 462.182 25.822C462.182 24.5649 462.868 23.5362 463.706 23.5362C464.587 23.5362 465.23 18.7108 465.23 12.1077C465.23 0.933118 465.315 0.679189 469.04 0.679189C472.837 0.679189 472.85 0.732211 472.85 15.1554C472.85 23.7902 473.465 29.6315 474.374 29.6315C475.212 29.6315 475.898 30.66 475.898 31.9171C475.898 33.1744 476.584 34.2028 477.422 34.2028C478.282 34.2028 478.946 29.8854 478.946 24.2981C478.946 13.6919 479.478 13.1484 487.709 15.3538C490.26 16.0373 491.138 17.3981 491.138 20.6664C491.138 24.5324 491.687 25.06 495.71 25.06C498.225 25.06 500.282 25.7458 500.282 26.5838C500.282 27.4219 501.75 28.1077 503.543 28.1077C505.337 28.1077 507.78 29.3076 508.973 30.7743C510.551 32.7147 511.358 32.9222 511.935 31.5362C512.371 30.4886 514.321 29.6315 516.268 29.6315C519.356 29.6315 519.941 28.6673 520.847 22.0827C521.418 17.9309 521.468 13.8588 520.958 13.0336C520.448 12.2083 521.01 10.9767 522.202 10.2966C523.396 9.61658 524.611 7.34587 524.901 5.25072C525.259 2.66561 526.531 1.28458 528.858 0.954166C532.663 0.413737 532.725 0.817752 532.299 23.1553L532.088 34.2028H536.859H541.63L541.419 23.1553C540.992 0.817819 541.055 0.413804 544.86 0.954166C547.696 1.35684 548.421 2.62782 549.051 8.29821C549.668 13.8473 550.435 15.2439 553.071 15.6198C555.727 15.9986 556.581 15.0138 557.692 10.2865C558.937 4.98839 559.543 4.44794 564.721 4.0158C569.554 3.61247 570.387 3.99597 570.387 6.6346C570.387 8.58398 571.138 9.43842 572.418 8.9472C573.535 8.51869 577.307 8.81016 580.8 9.59497L587.151 11.0218V5.8505C587.151 1.3503 587.646 0.679189 590.961 0.679189C594.461 0.679189 594.771 1.23813 594.771 7.53623C594.771 11.3076 595.457 14.3934 596.295 14.3934C597.134 14.3934 597.819 13.3648 597.819 12.1077C597.819 10.8506 598.505 9.82195 599.344 9.82195C600.182 9.82195 600.868 7.76487 600.868 5.25062C600.868 1.39027 601.46 0.679189 604.678 0.679189C608.234 0.679189 608.488 1.1871 608.488 8.2981C608.488 14.9013 608.894 15.9172 611.536 15.9172C614.33 15.9172 614.584 16.933 614.584 28.1076C614.584 35.2186 615.219 40.298 616.108 40.298C616.946 40.298 617.632 38.5837 617.632 36.4885C617.632 33.4409 618.394 32.679 621.442 32.679C624.236 32.679 625.252 33.4917 625.252 35.7266C625.252 37.7583 626.268 38.7742 628.3 38.7742C631.154 38.7742 631.348 37.7583 631.348 22.7743V6.77436H635.158C638.934 6.77436 638.969 6.89755 639.145 20.8695C639.242 28.6218 639.635 33.7647 640.018 32.298C640.402 30.8313 641.351 29.6314 642.128 29.6314C642.904 29.6314 643.54 28.6028 643.54 27.3456C643.54 26.0758 644.895 25.06 646.588 25.06C649.064 25.06 649.667 26.1321 649.805 30.7743C649.897 33.9171 649.851 38.0314 649.696 39.917C649.516 42.136 650.264 43.3456 651.813 43.3456C653.763 43.3456 654.208 41.3604 654.208 32.679C654.208 22.4564 654.359 22.0124 657.841 22.0124C660.191 22.0124 661.754 20.937 662.27 18.9648C663.154 15.5847 668.726 14.7569 669.963 17.822C670.386 18.8696 670.786 15.4409 670.852 10.2028L670.973 0.679189H677.831H684.689V15.9172C684.689 25.06 685.298 31.1552 686.213 31.1552C687.051 31.1552 687.812 32.3551 687.904 33.8218C687.996 35.2885 688.674 33.4045 689.412 29.6365C690.15 25.8678 691.447 22.5536 692.294 22.2714C693.14 21.9893 693.833 17.0156 693.833 11.2188C693.833 0.992351 693.946 0.679189 697.643 0.679189C701.44 0.679189 701.453 0.73211 701.453 15.1553C701.453 28.6155 701.667 29.6314 704.501 29.6314C707.323 29.6314 707.549 28.6156 707.549 15.9172C707.549 2.30459 707.575 2.20293 711.359 2.20293C713.886 2.20293 715.169 3.05093 715.169 4.72189C715.169 6.79247 715.675 6.65676 718.015 3.95991C719.58 2.15551 722.323 0.679189 724.111 0.679189C727.302 0.679189 727.361 1.15142 727.361 26.8751C727.361 50.2353 727.604 52.7507 729.599 50.113C730.829 48.4862 731.858 44.5836 731.885 41.4408C731.924 36.3744 732.365 35.7266 735.743 35.7266C739.172 35.7266 739.553 35.1173 739.553 29.6314C739.553 23.9337 739.839 23.5361 743.935 23.5361C747.623 23.5361 748.467 24.2898 749.269 28.2981C749.792 30.9171 750.275 35.5456 750.342 38.5837C750.408 41.6217 750.808 43.2504 751.231 42.2027C751.653 41.1551 753.314 40.298 754.92 40.298C757.649 40.298 757.841 38.995 757.841 20.4886V0.679189H761.651C764.887 0.679189 765.496 1.42577 765.69 5.6315C765.902 10.2409 765.962 10.2937 766.553 6.39338C767.046 3.14385 768.021 2.20293 770.897 2.20293C774.551 2.20293 774.605 2.40433 774.605 15.9172C774.605 29.5299 774.632 29.6314 778.415 29.6314C780.511 29.6314 782.225 28.9456 782.225 28.1076C782.225 27.2694 785.312 26.5837 789.084 26.5837C792.855 26.5837 795.942 27.2694 795.942 28.1076C795.942 28.9456 796.627 29.6314 797.466 29.6314C798.304 29.6314 798.99 26.2029 798.99 22.0124C798.99 14.9013 799.244 14.3934 802.8 14.3934C806.356 14.3934 806.61 14.9014 806.61 22.0124C806.61 26.4114 807.299 29.6314 808.241 29.6314C809.239 29.6314 809.783 26.2256 809.641 20.8695C809.11 0.887867 809.208 0.424978 813.849 0.958915L818.04 1.44106L818.802 18.9648C819.406 32.8579 819.78 35.0746 820.608 29.6642C821.183 25.9107 822.383 22.5965 823.275 22.2991C824.214 21.9865 824.898 17.3165 824.898 11.2188C824.898 0.992351 825.011 0.679189 828.708 0.679189C832.469 0.679189 832.518 0.843425 832.518 13.4537C832.518 24.7584 832.854 26.3161 835.437 26.9915C837.042 27.4114 838.663 29.377 839.039 31.3597C839.415 33.3425 839.816 31.0219 839.93 26.2028C840.126 17.9281 840.35 17.441 843.948 17.441C847.03 17.441 847.804 18.2414 847.997 21.6315C848.129 23.9362 848.643 22.3933 849.14 18.2028C849.901 11.7926 850.588 10.5066 853.473 10.0969C856.615 9.65054 856.902 10.2142 856.902 16.8271C856.902 20.7965 857.17 23.7584 857.497 23.4092C858.047 22.8231 859.693 11.5571 859.872 7.15535C859.912 6.10767 861.321 5.25062 862.998 5.25062C865.968 5.25062 866.822 7.80656 866.144 14.6656C865.971 16.414 867.242 17.3786 870.159 17.7132C874.053 18.1603 874.466 18.8049 874.858 25.06C875.094 28.8313 875.71 32.9457 876.227 34.2028C876.744 35.46 877.036 37.8808 876.875 39.5825C876.619 42.3026 877.31 42.6074 882.592 42.1037C888.273 41.562 888.601 41.2535 888.601 36.444C888.601 29.8895 889.789 28.1076 894.16 28.1076C897.011 28.1076 897.908 27.057 898.711 22.7743C899.267 19.8122 900.625 17.441 901.766 17.441C904.175 17.441 905.67 14.1445 905.67 8.82946C905.67 5.76982 906.332 5.13249 909.099 5.5255C912.137 5.95665 912.58 7.0126 912.985 14.7744C913.32 21.2027 914.031 23.5362 915.652 23.5362C917.337 23.5362 917.862 21.3646 917.862 14.3934C917.862 5.65692 918.031 5.25062 921.672 5.25062C925.804 5.25062 925.968 5.85194 925.504 19.3457C925.285 25.7339 925.627 26.5837 928.417 26.5837C930.156 26.5837 931.578 27.1811 931.578 27.9113C931.578 28.6414 934.931 29.6834 939.028 30.2268C944.891 31.0046 946.726 31.9391 947.641 34.6136C948.659 37.5874 948.875 37.3456 949.366 32.679C950.415 22.7051 951.343 20.4886 954.467 20.4886C956.135 20.4886 957.486 19.4654 957.486 18.2028C957.486 16.7806 958.926 15.9172 961.296 15.9172C964.344 15.9172 965.106 16.6791 965.106 19.7267C965.106 21.8933 965.986 23.5362 967.147 23.5362C968.533 23.5362 969.833 27.6873 971.202 36.4885C972.311 43.6122 973.793 49.4408 974.496 49.4408C975.199 49.4408 975.78 42.7551 975.788 34.5837C975.793 26.4123 976.233 16.1268 976.762 11.7268C977.617 4.60657 978.119 3.72678 981.321 3.72678C983.3 3.72678 984.918 3.04106 984.918 2.20293C984.918 1.36487 987.62 0.679189 990.923 0.679189C996.76 0.679189 996.94 0.837495 997.4 6.39338C997.834 11.6384 998.217 12.0674 1002.06 11.6176C1006.06 11.1507 1006.26 11.4355 1006.3 17.7128C1006.36 25.102 1009.49 30.4689 1012.98 29.1325C1014.71 28.466 1015.38 25.1719 1015.72 15.6082C1016.13 3.81354 1016.39 2.93217 1019.59 2.47791C1021.9 2.15008 1023.02 2.77394 1023.02 4.38264C1023.02 5.91796 1024.38 6.77436 1026.83 6.77436C1028.92 6.77436 1030.66 7.63158 1030.69 8.67919C1030.72 9.7268 1031.14 16.0696 1031.62 22.7743C1032.11 29.479 1032.54 35.8218 1032.59 36.8694C1032.73 40.0295 1034.82 39.0106 1035.72 35.3456C1036.19 33.4599 1037.03 28.3172 1037.61 23.9171C1038.18 19.5172 1039.25 15.9172 1039.98 15.9172C1040.71 15.9172 1041.31 13.86 1041.31 11.3458C1041.31 7.48544 1041.9 6.77436 1045.12 6.77436C1048.36 6.77436 1048.95 7.50813 1049.11 11.7268C1050.39 47.1526 1051.39 57.6546 1053.09 53.7474C1054.06 51.5066 1055.34 39.3352 1055.93 26.6999C1056.99 3.90069 1057.03 3.72678 1060.58 3.72678C1064.16 3.72678 1064.17 3.75326 1064.17 23.5362C1064.17 35.7266 1064.75 43.3456 1065.69 43.3456C1066.58 43.3456 1067.22 38.3078 1067.22 31.2798C1067.22 17.227 1068.01 14.3934 1071.95 14.3934C1074.37 14.3934 1074.84 13.2443 1074.84 7.32462V0.255859L1084.1 1.09585C1089.2 1.55746 1093.71 2.28019 1094.13 2.70114C1094.55 3.12236 1094.87 7.63938 1094.85 12.7395C1094.83 17.8396 1095.46 22.0124 1096.25 22.0124C1097.05 22.0124 1097.83 28.3552 1097.99 36.1076C1098.22 47.3836 1098.38 48.2217 1098.74 40.298C1099.54 23.2972 1100.37 20.4886 1104.62 20.4886C1108.14 20.4886 1108.36 20.9866 1108.36 28.8695C1108.36 36.2346 1108.73 37.2504 1111.41 37.2504C1113.8 37.2504 1114.46 36.2345 1114.46 32.5363C1114.46 29.1037 1115.29 27.6056 1117.51 27.0253C1119.48 26.5094 1120.56 24.9469 1120.56 22.5966C1120.56 19.9807 1121.41 18.9648 1123.6 18.9648C1126.2 18.9648 1126.65 17.9489 1126.65 12.1077C1126.65 5.50451 1126.82 5.25062 1131.22 5.25062H1135.8V20.4886C1135.8 33.0176 1136.2 35.7266 1138.08 35.7266C1139.98 35.7266 1140.37 32.7637 1140.37 18.2028V0.679189H1144.18C1146.77 0.679189 1148 1.53022 1148.04 3.34589C1148.08 5.88551 1148.18 5.88551 1150.11 3.34589C1151.22 1.87918 1153.26 0.679189 1154.63 0.679189C1157.3 0.679189 1157.59 3.04522 1157.15 21.6315C1156.94 30.2319 1157.22 31.1552 1159.99 31.1552C1162.49 31.1552 1163.16 32.3521 1163.64 37.6313C1164.06 42.2977 1164.29 41.2332 1164.49 33.8219C1164.7 25.5858 1165.23 23.5362 1167.15 23.5362C1168.96 23.5362 1169.49 22.1203 1169.29 17.822C1168.75 6.14638 1169.07 5.00321 1172.75 5.5255C1175.83 5.96261 1176.23 6.98237 1176.64 15.5362C1176.97 22.6386 1177.65 25.06 1179.3 25.06C1180.94 25.06 1181.52 23.0863 1181.52 17.441C1181.52 9.99127 1181.62 9.82195 1186.09 9.82195C1190.21 9.82195 1190.67 10.3148 1190.78 14.7744C1190.85 17.4981 1191.25 18.8696 1191.67 17.822C1192.09 16.7743 1194.06 15.9172 1196.05 15.9172C1199.04 15.9172 1199.83 16.9018 1200.62 21.6315C1202.06 30.3368 1202.51 31.1552 1205.85 31.1552C1207.56 31.1552 1208.95 31.8813 1208.95 32.7689C1208.95 33.6565 1209.68 33.9317 1210.57 33.3808C1211.49 32.8126 1212.1 27.9969 1211.98 22.2434C1211.63 5.65783 1211.7 5.25082 1215.04 5.25082C1216.74 5.25082 1218.09 4.23488 1218.09 2.965C1218.09 1.5428 1219.53 0.679391 1221.9 0.679391C1225.7 0.679391 1225.71 0.732383 1225.71 15.1264V29.5735L1229.9 30.5746C1236.33 32.1096 1237.9 34.0597 1237.9 40.4848C1237.9 43.7344 1238.59 46.3934 1239.43 46.3934C1240.38 46.3934 1240.95 37.7585 1240.95 23.5364V0.679391H1244.76C1247.96 0.679391 1248.57 1.39791 1248.57 5.13905C1248.57 8.11836 1249.43 9.76374 1251.15 10.0958C1253.28 10.5051 1253.66 12.1327 1253.33 19.3502C1252.97 27.1682 1253.24 28.1078 1255.91 28.1078C1257.82 28.1078 1259.8 30.0227 1261.42 33.4411C1265.87 42.8107 1268.38 40.4113 1268.38 26.7967C1268.38 20.2089 1268.82 11.6375 1269.35 7.74916C1270.2 1.60557 1270.79 0.679391 1273.93 0.679391H1277.53L1277.85 28.4887C1278.09 48.5587 1278.32 51.5319 1278.67 39.1719C1279.14 22.5228 1279.25 22.02 1282.83 21.1238C1284.85 20.6171 1287.17 20.6138 1287.98 21.118C1288.8 21.6214 1289.94 27.1717 1290.53 33.4518C1291.12 39.7319 1292.14 44.8702 1292.79 44.8702C1293.45 44.8702 1294.48 35.613 1295.08 24.2988C1296.17 3.95872 1296.23 3.72758 1299.81 3.72758C1301.81 3.72758 1303.44 3.0418 1303.44 2.20374C1303.44 1.36568 1305.49 0.679896 1308.01 0.679896C1313.17 0.679896 1312.75 -1.74125 1312.73 27.7274C1312.72 36.6394 1313.34 43.3464 1314.17 43.3464C1314.97 43.3464 1315.63 41.2892 1315.63 38.775C1315.63 36.2607 1316.31 34.2036 1317.15 34.2036C1317.99 34.2036 1318.68 32.4892 1318.68 30.394C1318.68 28.2988 1319.36 26.5845 1320.2 26.5845C1321.04 26.5845 1321.73 25.556 1321.73 24.2988C1321.73 21.0615 1328.74 21.3779 1330.18 24.6797C1331.98 28.8294 1332.88 94.8541 1331.64 132.676L1330.53 166.774H1326.89C1323.38 166.774 1323.25 166.378 1323.25 155.345C1323.25 144.171 1323.16 143.917 1319.44 143.917C1315.94 143.917 1315.63 143.358 1315.63 137.06C1315.63 133.288 1314.94 130.203 1314.11 130.203C1313.17 130.203 1312.58 137.314 1312.58 148.488V166.774H1304.28H1295.97L1295.42 158.012L1294.87 149.25L1294.58 158.012C1294.31 166.265 1294.07 166.774 1290.48 166.774C1286.7 166.774 1286.67 166.672 1286.67 153.06C1286.67 141.885 1286.25 139.345 1284.39 139.345C1282.66 139.345 1282.1 137.483 1282.1 131.726C1282.1 127.536 1281.42 124.108 1280.58 124.108C1279.73 124.108 1279.05 128.171 1279.05 133.25C1279.05 138.33 1278.38 142.393 1277.53 142.393C1276.64 142.393 1276 147.472 1276 154.583C1276 166.571 1275.94 166.774 1272.19 166.774C1269.82 166.774 1268.39 165.91 1268.39 164.488C1268.39 163.218 1267.03 162.202 1265.34 162.202C1263.66 162.202 1262.29 161.345 1262.29 160.298C1262.29 158.959 1260.04 158.549 1254.73 158.917L1247.18 159.44L1246.66 146.726C1246.16 134.457 1246.13 134.586 1245.84 150.393C1245.53 166.767 1245.52 166.774 1241.72 166.774C1238.5 166.774 1237.91 166.063 1237.91 162.203C1237.91 159.688 1237.22 157.631 1236.38 157.631C1235.54 157.631 1234.86 155.231 1234.86 152.298C1234.86 148.663 1234.16 146.965 1232.65 146.965C1231.12 146.965 1230.28 144.759 1229.88 139.726C1229.57 135.746 1229.19 140.203 1229.04 149.631L1228.76 166.774H1222.66H1216.57V148.488C1216.57 138.4 1215.94 130.203 1215.17 130.203C1214.4 130.203 1212.69 129.786 1211.36 129.278C1209.78 128.671 1208.95 129.195 1208.95 130.802C1208.95 132.148 1208.26 133.25 1207.42 133.25C1206.54 133.25 1205.9 138.33 1205.9 145.441V157.631H1200.57C1195.26 157.631 1195.23 157.598 1195.23 150.774C1195.23 143.577 1193.92 142.402 1190.12 146.203C1188.86 147.46 1186.41 148.488 1184.67 148.488C1182.18 148.488 1181.52 149.452 1181.52 153.06C1181.52 156.92 1180.92 157.631 1177.71 157.631C1175.61 157.631 1173.9 156.945 1173.9 156.107C1173.9 155.269 1172.52 154.583 1170.85 154.583C1168.21 154.583 1167.8 153.568 1167.8 146.965C1167.8 142.774 1167.11 139.346 1166.28 139.346C1165.44 139.346 1164.75 141.323 1164.75 143.739C1164.75 147.216 1163.96 148.285 1160.94 148.861C1157.34 149.549 1157.13 149.217 1157.13 142.854C1157.13 138.751 1156.54 136.486 1155.61 137.06C1154.77 137.578 1154.08 139.259 1154.08 140.796C1154.08 142.333 1153.06 143.986 1151.8 144.468C1150.09 145.122 1149.51 147.839 1149.51 155.135C1149.51 166.021 1148.83 166.774 1138.95 166.774H1133.2L1132.27 145.822C1131.76 134.298 1130.9 123.327 1130.35 121.441C1128.3 114.45 1126.65 118.37 1126.65 130.203C1126.65 141.377 1126.4 142.393 1123.6 142.393C1121.06 142.393 1120.56 143.409 1120.56 148.488C1120.56 151.841 1119.87 154.583 1119.03 154.583C1118.19 154.583 1117.51 157.326 1117.51 160.679C1117.51 166.164 1117.13 166.774 1113.7 166.774C1110.42 166.774 1109.88 166.078 1109.85 161.822C1109.77 151.655 1108.49 135.919 1107.68 135.107C1107.22 134.645 1106.84 141.58 1106.84 150.52V166.774H1103.03C1099.47 166.774 1099.22 166.266 1099.22 159.155C1099.22 152.044 1098.97 151.536 1095.41 151.536C1092.19 151.536 1091.6 150.825 1091.6 146.965C1091.6 143.917 1090.84 142.393 1089.31 142.393C1088.06 142.393 1087.03 143.079 1087.03 143.917C1087.03 144.755 1085.31 145.441 1083.22 145.441C1079.79 145.441 1079.38 144.792 1079.16 138.965C1078.94 132.953 1078.88 132.871 1078.37 137.822C1077.29 148.374 1076.5 150.012 1072.52 150.012C1068.95 150.012 1068.74 150.487 1068.74 158.393V166.774H1062.64C1056.65 166.774 1056.54 166.681 1056.37 161.06C1056.27 157.917 1056.3 154.723 1056.45 153.961C1056.76 152.323 1053.53 150.068 1050.83 150.035C1049.54 150.016 1048.93 152.692 1048.93 158.393C1048.93 166.317 1048.72 166.774 1045.12 166.774C1041.52 166.774 1041.31 166.317 1041.31 158.393C1041.31 151.028 1040.94 150.012 1038.26 150.012C1035.58 150.012 1035.21 148.996 1035.21 141.631C1035.21 137.022 1034.53 133.25 1033.69 133.25C1032.85 133.25 1032.16 135.993 1032.16 139.346C1032.16 143.748 1031.53 145.441 1029.88 145.441C1028.1 145.441 1027.59 147.472 1027.59 154.583C1027.59 163.32 1027.42 163.726 1023.78 163.726C1020.73 163.726 1019.97 162.964 1019.97 159.917C1019.97 157.123 1019.16 156.107 1016.92 156.107C1014.06 156.107 1013.88 155.091 1013.88 139.346C1013.88 125.462 1013.48 122.584 1011.59 122.584C1009.66 122.584 1009.3 126.055 1009.3 144.679V166.774H1000.92H992.539L992.419 159.536C992.353 155.555 991.953 153.155 991.53 154.203C991.107 155.25 989.104 156.107 987.078 156.107C983.729 156.107 983.395 155.486 983.395 149.25C983.395 142.952 983.084 142.393 979.585 142.393C977.49 142.393 975.775 141.707 975.775 140.869C975.775 140.031 974.746 139.346 973.489 139.346C972.232 139.346 971.203 138.66 971.203 137.822C971.203 136.984 970.174 136.298 968.917 136.298C967.66 136.298 966.631 136.984 966.631 137.822C966.631 138.66 965.259 139.346 963.583 139.346C961.116 139.346 960.535 140.361 960.535 144.679C960.535 147.612 959.806 150.012 958.915 150.012C958.024 150.012 957.417 151.212 957.567 152.679C957.716 154.145 957.759 157.917 957.662 161.06C957.508 166.092 957.032 166.774 953.677 166.774C950.338 166.774 949.866 166.114 949.866 161.441C949.866 156.531 949.504 156.107 945.294 156.107C940.769 156.107 940.722 156.023 940.722 147.726C940.722 143.117 940.037 139.346 939.198 139.346C938.36 139.346 937.674 138.054 937.674 136.476C937.674 134.887 936.313 133.25 934.626 132.809C932.019 132.127 931.578 132.762 931.578 137.202C931.578 140.057 930.893 142.393 930.054 142.393C929.216 142.393 928.53 143.765 928.53 145.441C928.53 147.633 927.514 148.488 924.911 148.488C920.896 148.488 919.406 144.241 919.363 132.679C919.343 128.059 918.948 126.999 917.862 128.679C917.05 129.936 916.374 136.622 916.362 143.536C916.342 155.923 916.283 156.107 912.528 156.107C909.099 156.107 908.718 155.498 908.718 150.012C908.718 145.61 908.083 143.917 906.432 143.917C905.01 143.917 904.146 145.356 904.146 147.726C904.146 149.822 903.571 151.536 902.869 151.536C902.167 151.536 901.501 153.965 901.389 156.934C901.162 162.981 898.225 166.774 893.771 166.774C891.011 166.774 890.72 165.194 889.694 144.679C888.826 127.313 888.134 122.584 886.462 122.584C885.291 122.584 884.334 123.955 884.334 125.631C884.334 127.324 883.318 128.679 882.048 128.679C880.207 128.679 879.762 131.049 879.762 140.869C879.762 152.793 879.68 153.06 876.025 153.06C872.505 153.06 872.261 152.506 871.834 143.536C871.404 134.514 871.179 134.012 867.57 134.012C864.001 134.012 863.731 134.566 863.303 142.774C862.877 150.932 862.588 151.536 859.112 151.536C855.771 151.536 855.378 150.894 855.378 145.441C855.378 140.914 854.761 139.346 852.981 139.346C851.076 139.346 850.634 140.984 850.825 147.345C850.958 151.745 851.007 157.917 850.936 161.06L850.806 166.774H843.948H837.09V148.488C837.09 137.314 836.497 130.203 835.566 130.203C834.728 130.203 834.042 132.205 834.042 134.653C834.042 138.33 833.27 139.273 829.598 140.079C822.234 141.697 818.828 138.392 818.65 129.455C818.43 118.402 816.105 126.458 815.906 138.965C815.763 147.927 815.541 148.488 812.14 148.488C808.654 148.488 808.482 147.934 807.271 132.869L806.015 117.25L804.542 126.012C803.239 133.76 802.656 134.774 799.505 134.774C796.72 134.774 795.942 133.942 795.942 130.965C795.942 128.869 795.256 127.155 794.417 127.155C793.579 127.155 792.893 128.527 792.893 130.203C792.893 132.438 791.878 133.25 789.083 133.25C785.866 133.25 785.273 132.539 785.273 128.679C785.273 124.295 782.025 122.257 780.073 125.416C779.314 126.643 777.718 150.862 777.674 161.822L777.654 166.774H768.51H759.366L759.248 161.06C758.861 142.17 758.756 141.653 755.174 141.144C752.186 140.72 751.745 139.757 751.745 133.652C751.745 121.521 750.148 127.647 749.419 142.572C749.036 150.436 748.716 159.098 748.709 161.822C748.696 165.754 748.069 166.774 745.649 166.774C743.172 166.774 742.571 165.704 742.439 161.06C742.35 157.917 742.124 154.317 741.938 153.06C741.752 151.803 741.481 148.25 741.338 145.166C741.126 140.606 740.436 139.466 737.648 139.07C735.193 138.722 734.083 137.394 733.737 134.393C733.472 132.088 732.615 130.203 731.832 130.203C731.05 130.203 730.409 129.174 730.409 127.917C730.409 126.66 729.724 125.631 728.885 125.631C728.047 125.631 727.361 128.031 727.361 130.965C727.361 133.898 726.676 136.298 725.837 136.298C724.948 136.298 724.313 141.377 724.313 148.488C724.313 160.516 724.26 160.679 720.456 160.679C715.777 160.679 714.789 158.416 714.573 147.21C714.447 140.632 713.865 138.584 712.121 138.584C709.859 138.584 709.55 140.946 709.179 161.06C709.095 165.578 708.48 166.774 706.238 166.774C703.143 166.774 701.745 159.786 701.21 141.631C701.019 135.137 700.768 134.144 700.343 138.203C700.014 141.345 699.101 143.917 698.313 143.917C697.526 143.917 696.881 146.317 696.881 149.25C696.881 153.772 696.359 154.58 693.452 154.56C689.249 154.534 687.058 153.126 685.769 149.631C683.846 144.42 681.641 147.064 681.641 154.583C681.641 161.695 681.387 162.203 677.831 162.203H674.021L673.733 139.726C673.575 127.365 673.197 121.193 672.895 126.012C672.385 134.145 672.077 134.774 668.611 134.774C665.644 134.774 664.877 133.992 664.877 130.965C664.877 128.677 664.006 127.155 662.697 127.155C661.498 127.155 660.22 125.612 659.857 123.727C659.493 121.841 659.103 126.298 658.989 133.631C658.822 144.375 658.337 146.965 656.495 146.965C655.238 146.965 654.209 147.993 654.209 149.25C654.209 150.672 652.77 151.536 650.399 151.536H646.589V134.012C646.589 123.346 645.993 116.489 645.065 116.489C644.227 116.489 643.541 114.774 643.541 112.679C643.541 110.584 642.855 108.869 642.017 108.869C641.179 108.869 640.493 110.241 640.493 111.917C640.493 113.593 639.807 114.965 638.969 114.965C638.131 114.965 637.445 118.05 637.445 121.822C637.445 127.663 636.993 128.679 634.397 128.679C631.511 128.679 631.349 129.695 631.349 147.726V166.774H622.205H613.061V156.107C613.061 145.746 612.952 145.441 609.251 145.441C605.813 145.441 605.423 144.808 605.26 138.965C605.161 135.403 605.161 131.974 605.26 131.346C605.359 130.717 604.412 130.203 603.155 130.203C601.261 130.203 600.869 133.081 600.869 146.965C600.869 163.609 600.845 163.726 597.236 163.726C593.274 163.726 591.781 160.516 591.745 151.917C591.728 147.987 591.095 146.965 588.676 146.965C586.195 146.965 585.628 145.949 585.628 141.504C585.628 137.817 585.01 136.248 583.723 136.673C582.544 137.062 581.646 140.882 581.365 146.705C580.946 155.381 580.639 156.107 577.391 156.107C574.201 156.107 573.779 155.228 572.891 146.741C572.353 141.59 571.912 134.047 571.912 129.979C571.912 125.912 571.227 122.584 570.388 122.584C569.445 122.584 568.864 130.666 568.864 143.783V164.982L562.666 166.029C559.256 166.606 556.204 166.814 555.883 166.492C555.562 166.171 555.185 158.046 555.047 148.436C554.699 124.369 553.649 114.964 551.307 114.964C548.924 114.964 547.528 118.386 547.528 124.232C547.528 126.677 546.842 128.679 546.004 128.679C545.166 128.679 544.48 131.764 544.48 135.536C544.48 141.834 544.17 142.393 540.67 142.393C536.924 142.393 536.86 142.189 536.86 130.202C536.86 123.091 536.225 118.012 535.336 118.012C534.384 118.012 533.812 127.155 533.812 142.393V166.774H530.214C527.012 166.774 526.511 165.894 525.656 158.774C525.127 154.374 524.689 146.145 524.681 140.488C524.675 134.656 524.008 130.202 523.144 130.202C522.306 130.202 521.62 128.871 521.62 127.245C521.62 125.618 520.934 123.863 520.096 123.345C519.258 122.827 518.572 120.387 518.572 117.922C518.572 115.457 517.886 113.441 517.048 113.441C516.102 113.441 515.524 121.855 515.524 135.637V157.833L511.41 157.351C507.418 156.883 507.309 156.61 507.711 148.107C508.048 140.98 507.676 139.345 505.728 139.345C504.41 139.345 503.332 138.317 503.332 137.06C503.332 135.79 501.977 134.774 500.284 134.774C498.607 134.774 497.236 134.093 497.236 133.26C497.236 132.428 495.521 133.24 493.426 135.059C490.01 138.028 489.616 139.527 489.616 149.525C489.616 160.406 489.523 160.678 485.806 160.678C483.012 160.678 481.996 161.491 481.996 163.726C481.996 165.961 480.98 166.774 478.186 166.774C474.387 166.774 474.375 166.727 474.101 151.155C473.95 142.564 473.569 138.793 473.255 142.774C472.742 149.28 472.308 150.012 468.958 150.012C466.908 150.012 465.232 149.326 465.232 148.488C465.232 147.65 463.86 146.964 462.183 146.964C459.652 146.964 459.135 145.948 459.135 140.972C459.135 136.381 458.444 134.76 456.182 134.042C454.483 133.503 452.961 131.355 452.6 128.987C452.029 125.243 451.951 125.319 451.744 129.821C451.55 134.027 450.941 134.774 447.705 134.774C445.335 134.774 443.895 133.91 443.895 132.488C443.895 131.066 442.456 130.202 440.085 130.202C436.289 130.202 436.275 130.255 436.275 144.679C436.275 159.104 436.264 159.155 432.465 159.155C429.127 159.155 428.655 158.494 428.655 153.821C428.655 150.888 427.969 148.488 427.131 148.488C426.24 148.488 425.599 143.268 425.586 135.917C425.563 121.746 424.493 116.102 421.984 116.924C421.043 117.233 420.042 119.489 419.76 121.939C419.478 124.389 418.278 126.941 417.093 127.611C415.691 128.404 414.939 131.465 414.939 136.373C414.939 141.869 414.352 143.917 412.778 143.917C408.337 143.917 405.795 141.961 405.795 138.545C405.795 134.026 404.323 130.202 402.584 130.202C401.835 130.202 401.223 132.26 401.223 134.774C401.223 137.288 400.537 139.345 399.699 139.345C398.861 139.345 398.175 141.698 398.175 144.573C398.175 148.833 397.541 149.89 394.746 150.287C392.86 150.554 391.225 151.802 391.112 153.059C390.999 154.317 390.827 156.202 390.731 157.25C390.634 158.297 389.184 159.155 387.507 159.155C384.244 159.155 384.02 158.459 384.429 149.615C384.575 146.464 384.202 141.664 383.599 138.949C382.641 134.631 382.353 134.394 381.303 137.06C380.642 138.736 380.053 142.336 379.994 145.06C379.903 149.298 379.338 150.012 376.077 150.012C372.664 150.012 372.267 149.392 372.267 144.068C372.267 138.467 371.941 138.047 366.611 136.787C362.479 135.81 360.671 134.434 359.904 131.683C359.071 128.692 358.824 129.25 358.703 134.393C358.594 139.066 357.915 140.869 356.265 140.869C354.423 140.869 353.979 143.239 353.979 153.059C353.979 165.047 353.915 165.25 350.169 165.25C346.577 165.25 346.359 164.78 346.359 157.056C346.359 151.27 345.614 148.246 343.825 146.77C341.85 145.139 341.15 145.098 340.65 146.583C340.298 147.631 338.694 148.488 337.088 148.488C334.858 148.488 334.167 149.57 334.167 153.059C334.167 156.92 333.574 157.631 330.357 157.631C326.61 157.631 326.547 157.427 326.547 145.44C326.547 138.329 325.912 133.25 325.023 133.25C324.185 133.25 323.499 132.221 323.499 130.964C323.499 129.707 322.171 128.679 320.547 128.679C318.36 128.679 317.437 127.397 316.981 123.726C316.643 121.002 316.251 123.574 316.109 129.44C315.968 135.307 315.42 143.707 314.891 148.107C314.007 155.469 313.613 156.107 309.951 156.109C306.028 156.112 305.973 155.958 305.973 145.062C305.973 132.108 303.137 129.318 302.468 141.613C302.216 146.232 301.316 150.012 300.467 150.012C299.618 150.012 299.045 151.212 299.194 152.678C299.343 154.145 299.387 157.916 299.29 161.059C299.148 165.699 298.541 166.774 296.066 166.774C293.635 166.774 292.98 165.694 292.828 161.44C292.514 152.646 292.382 152.315 289.001 151.833C285.185 151.289 283.874 146.489 283.874 133.059C283.874 126.261 283.343 124.107 281.668 124.107C280.093 124.107 279.301 121.816 278.902 116.107C278.593 111.693 278.216 115.109 278.06 123.726C277.779 139.295 277.766 139.345 273.968 139.345C270.469 139.345 270.158 138.786 270.158 132.488C270.158 128.717 269.472 125.631 268.634 125.631C267.738 125.631 267.11 130.964 267.11 138.583C267.11 151.383 267.064 151.535 263.3 151.535C259.962 151.535 259.49 150.875 259.49 146.202C259.49 142.018 258.879 140.869 256.654 140.869C254.378 140.869 253.636 139.326 252.892 133.043C252.382 128.739 251.617 124.87 251.192 124.445C249.625 122.878 245.774 127.643 245.774 131.151C245.774 133.999 244.96 134.774 241.964 134.774C238.916 134.774 238.154 134.012 238.154 130.964C238.154 128.594 237.29 127.155 235.868 127.155C234.611 127.155 233.582 126.469 233.582 125.631C233.582 124.793 232.502 124.107 231.181 124.107C229.511 124.107 228.864 125.383 229.057 128.298C229.608 136.665 229.14 137.821 225.2 137.821C221.983 137.821 221.39 137.11 221.39 133.25C221.39 129.739 220.703 128.679 218.429 128.679C216.054 128.679 215.354 127.398 214.886 122.202C214.437 117.22 214.241 117.972 214.036 125.463C213.748 135.991 211.625 139.204 204.896 139.297C201.617 139.343 201.374 139.934 201.597 147.345C202.146 165.616 201.918 166.774 197.768 166.774C194.212 166.774 193.958 166.266 193.958 159.155C193.958 152.551 193.552 151.535 190.91 151.535C188.146 151.535 187.837 150.433 187.602 139.726C187.353 128.416 187.297 128.625 186.272 144.678C185.683 153.897 185.114 162.64 185.007 164.107C184.854 166.223 183.397 166.774 177.956 166.774H171.097V151.535C171.097 142.393 170.488 136.297 169.573 136.297C168.735 136.297 168.049 132.412 168.049 127.663C168.049 112.717 166.599 119.73 165.784 138.622C165.353 148.582 165.001 158.991 165.001 161.753C165.001 165.758 164.385 166.774 161.953 166.774C159.468 166.774 158.884 165.719 158.79 161.059L158.788 161.06Z" fill="black"/>
</svg>
