<svg width="1199" height="62" viewBox="0 0 1199 62" fill="none" xmlns="http://www.w3.org/2000/svg">
<path d="M518.307 54.6922C518.2 41.3217 517.333 33.2846 515.902 32.4005C515.102 31.9062 514.255 28.4478 514.02 24.7154C513.784 20.9831 512.984 17.9293 512.241 17.9293C511.498 17.9293 510.03 21.1482 508.978 25.0823C507.379 31.0631 506.555 32.2355 503.955 32.2355C502.14 32.2355 500.586 31.2433 500.223 29.8511C499.629 27.5803 499.592 27.5803 499.441 29.8511C499.239 32.8979 492.47 33.2287 492.47 30.1912C492.47 29.0672 491.269 28.1475 489.802 28.1475C487.416 28.1475 487.091 29.2669 486.735 38.7068C486.349 48.9555 486.237 49.266 482.931 49.266C479.75 49.266 479.502 48.7694 479.193 41.7723C478.368 23.1265 476.275 18.8024 471.425 25.7256C470.258 27.3911 469.304 28.0043 469.304 27.0882C469.304 26.1721 468.691 25.4225 467.941 25.4225C467.192 25.4225 466.578 26.6488 466.578 28.1475C466.578 30.1481 465.67 30.8724 463.161 30.8724C460.433 30.8724 459.293 29.7479 457.514 25.3036L455.286 19.7349L452.623 23.9395C451.159 26.2521 449.425 27.8133 448.77 27.4089C448.116 27.0048 447.189 28.2314 446.711 30.1355C445.546 34.7777 443.829 34.5079 442.731 29.5099C441.722 24.9161 439.369 24.2194 437.105 27.8442C436.273 29.176 433.686 30.4109 431.357 30.5883C427.724 30.865 427.006 30.375 426.312 27.1449C425.867 25.0735 425.02 22.1525 424.43 20.6538C423.5 18.2921 423.221 18.5406 422.339 22.5171C421.363 26.921 421.113 27.0772 416.116 26.4072C411.068 25.7301 410.874 25.8586 409.701 30.6751L408.492 35.6412L406.672 30.1912C404.522 23.7537 399.019 15.1953 398.064 16.8033C397.696 17.4224 396.964 20.5346 396.437 23.7194C395.673 28.3343 394.912 29.5099 392.688 29.5099C391.154 29.5099 388.513 28.015 386.819 26.1878C385.125 24.3607 383.383 23.2222 382.947 23.6578C382.512 24.0935 381.768 23.4427 381.296 22.2113C379.87 18.4974 378.206 19.6613 376.42 25.6199C375.489 28.7259 374.494 30.5653 374.208 29.7073C373.922 28.8494 372.206 28.1475 370.394 28.1475C368.444 28.1475 367.101 27.3513 367.101 26.1955C367.101 23.7453 361.298 21.7098 360.567 23.9036C360.28 24.7657 359.158 26.357 358.075 27.4397C356.993 28.5224 355.742 33.3163 355.295 38.0927C354.526 46.3266 354.317 46.7451 351.254 46.1597C348.245 45.5844 348.022 44.9228 348 36.5042C347.98 28.7449 347.513 27.0265 344.698 24.3588L341.42 21.2514L340.518 24.0932C340.022 25.6562 338.902 26.6941 338.028 26.3997C335.363 25.5013 333.123 29.8751 333.077 36.0681C333.034 41.8689 332.977 41.9395 328.61 41.5181C324.4 41.1116 324.132 40.7434 323.043 33.8605C322.143 28.1658 321.418 26.7292 319.631 27.0976C318.384 27.3554 316.646 26.6241 315.77 25.4737C314.411 23.6878 314.041 23.9295 313.238 27.1272C312.54 29.9064 311.457 30.8724 309.039 30.8724C307.05 30.8724 305.78 30.0756 305.78 28.8287C305.78 27.7046 305.167 26.785 304.417 26.785C303.668 26.785 303.054 29.8506 303.054 33.5974C303.054 39.9418 302.822 40.4098 299.674 40.4098C297.229 40.4098 296.062 39.4922 295.46 37.0943C294.963 35.1114 293.911 34.0539 292.845 34.4631C291.633 34.9281 290.761 33.3683 290.124 29.5979C289.608 26.5457 288.717 24.3383 288.143 24.6928C287.57 25.0469 286.395 23.7889 285.533 21.8967C283.952 18.4282 281.251 18.514 281.251 22.0327C281.251 25.7726 278.045 30.8724 275.693 30.8724C271.564 30.8724 268.987 29.3097 268.987 26.8061C268.987 25.4793 268.067 23.6305 266.943 22.6976C265.531 21.5257 264.899 21.4741 264.899 22.5312C264.899 23.3723 263.795 24.0604 262.446 24.0604C261.097 24.0604 259.326 24.727 258.512 25.5416C257.445 26.6083 256.76 26.5855 256.064 25.46C255.378 24.35 254.643 24.5068 253.526 26.0012C252.58 27.2662 249.375 28.2493 245.487 28.467C241.931 28.6663 239.018 29.3586 239.014 30.0057C239.01 30.6528 237.183 30.9144 234.953 30.587C232.722 30.2604 230.664 30.6498 230.378 31.4543C230.092 32.2585 228.468 30.5915 226.769 27.7498C225.071 24.9081 222.99 22.816 222.146 23.1007C221.302 23.3853 219.898 22.6516 219.027 21.4686C217.648 19.5958 217.225 19.7997 215.743 23.052C214.807 25.1053 213.22 26.7853 212.216 26.7853C211.108 26.7853 210.391 28.3472 210.391 30.7612C210.391 36.8071 209.062 39.0477 205.476 39.0477C202.513 39.0477 202.215 38.4797 202.215 32.836C202.215 29.381 201.656 26.9699 200.955 27.4028C200.262 27.8307 199.441 27.1005 199.129 25.7801C198.71 24.004 198.281 24.3919 197.479 27.2706C196.458 30.9389 196.081 31.112 190.918 30.2865C183.98 29.1772 183.137 28.6232 183.137 25.1756C183.137 22.831 182.797 22.6459 181.093 24.0604C179.938 25.0186 179.049 25.1602 179.049 24.3858C179.049 23.6321 177.506 22.7206 175.621 22.3603C172.961 21.852 172.031 22.357 171.463 24.6168C170.873 26.9665 169.709 27.5283 165.429 27.5283C161.123 27.5283 159.802 26.882 158.404 24.091C156.724 20.737 156.665 20.8022 155.942 26.7851C155.283 32.2436 154.79 32.9635 151.454 33.3474C148.087 33.735 147.707 33.3513 147.707 29.6006C147.707 25.8936 147.163 25.25 144.226 25.4825C143.811 25.5129 142.357 24.1675 140.997 22.4874L138.523 19.4326L137.578 22.7683C135.661 29.539 133.629 32.235 130.443 32.235C128.334 32.235 127.259 31.4338 127.246 29.8507C127.217 26.5887 123.313 15.9686 123.238 18.9508C123.163 21.948 121.914 21.9907 119.777 19.069C118.324 17.0814 117.813 17.4995 115.617 22.4752C113.287 27.7561 110.914 29.9307 110.914 26.7848C110.914 26.0354 109.994 25.4222 108.87 25.4222C107.507 25.4222 106.826 26.7848 106.826 29.5097C106.826 32.9413 106.289 33.5972 103.481 33.5972C100.731 33.5972 99.9748 32.7407 99.2329 28.7863C98.4099 24.4002 98.1676 24.1897 96.489 26.4019C94.7726 28.6641 94.645 28.6154 94.6046 25.6825C94.5802 23.9254 93.9554 22.9108 93.1889 23.3845C92.4341 23.8513 91.4487 23.2742 90.9991 22.1024C89.672 18.6447 87.1135 19.6529 85.1672 24.4004L83.3519 28.8285L82.3011 24.3313C80.8669 18.1938 79.8552 17.5597 78.8941 22.196C76.9617 31.517 73.653 43.9768 72.6102 45.8596C71.7019 47.4994 71.4677 47.3649 71.4249 45.1784C71.3626 41.9965 64.7804 22.5157 64.6618 25.1621C64.6179 26.1431 64.0329 26.6064 63.3619 26.1918C62.691 25.7774 61.7502 26.4587 61.2713 27.7065C60.5771 29.5153 59.9019 29.0452 57.9397 25.3869C55.2308 20.3367 52.3175 18.5312 52.3175 21.9025C52.3175 23.089 51.7043 24.0598 50.9548 24.0598C50.2053 24.0598 49.5921 24.9794 49.5921 26.1035C49.5921 27.3508 48.3213 28.1473 46.3312 28.1473C44.4884 28.1473 42.6655 29.1842 42.1397 30.5316C41.4321 32.3446 40.4649 31.1646 38.1034 25.6077L34.9977 18.2996L31.9163 21.5203C30.2215 23.2917 28.0601 26.5292 27.1131 28.7148C25.4955 32.4483 25.3359 32.5143 24.4763 29.8063C23.9091 28.0196 22.8108 27.2118 21.587 27.6813C20.21 28.2097 19.6064 27.4674 19.5918 25.2274C19.5589 20.2123 17.1505 24.8886 16.0635 32.0775L15.1602 38.0514L13.4499 33.9845C12.5092 31.7477 10.7516 29.5385 9.544 29.0752C8.33643 28.612 7.34842 27.3788 7.34842 26.3352C7.34842 25.0458 6.25652 24.6463 3.94166 25.0888C0.613973 25.7248 0.534912 25.5502 0.534912 17.5651C0.534912 10.2392 0.853326 9.30488 3.601 8.56863C8.22839 7.32881 8.71112 7.49134 8.71112 10.2892C8.71112 12.8772 11.8221 15.0452 13.3473 13.5201C13.7953 13.0722 14.1806 11.4284 14.2034 9.86717C14.243 7.20134 14.3332 7.18068 15.6976 9.5271C17.0871 11.9166 17.2857 11.8983 20.2578 9.10603L23.3652 6.18712L24.2898 9.87033C24.9446 12.4789 25.6384 13.1296 26.6677 12.1004C27.467 11.3013 28.9041 10.9479 29.8612 11.315C30.8183 11.6819 32.0062 11.3211 32.501 10.5273C33.854 8.33825 40.0471 8.77854 40.7773 11.1154C42.7629 17.47 43.0793 17.9817 43.7266 15.8842C45.6847 9.53874 45.5612 9.69297 46.9659 11.8349C48.0919 13.5517 48.5647 13.4693 50.2502 11.2626C51.3332 9.84494 52.4647 8.00557 52.7648 7.17516C53.0649 6.34475 54.645 7.32691 56.2761 9.35674C59.2212 13.0228 59.2602 13.0297 61.9118 10.3785C63.3803 8.91023 65.1512 7.70902 65.8472 7.70902C68.3054 7.70902 71.3968 12.0371 71.5125 15.6406L71.6296 19.2901L72.7272 15.6559C73.3309 13.6571 75.5538 9.85511 77.667 7.20715L81.5092 2.3927L83.4732 6.754C84.9514 10.0364 85.5778 10.5328 86.0053 8.76103C86.5207 6.62462 86.8628 6.59666 89.7048 8.45816C92.6847 10.4103 92.92 10.3078 94.5636 6.34056C96.6975 1.18967 97.9498 1.87087 98.479 8.47025C98.5726 9.63858 99.1729 10.2709 99.8128 9.87544C100.453 9.47992 101.666 10.6702 102.509 12.52C104.594 17.0957 108.953 16.8122 113.639 11.7962C115.987 9.28253 118.822 7.70874 120.999 7.70874C122.947 7.70874 125.001 7.59053 125.563 7.44548C126.125 7.30044 127.954 9.59978 129.628 12.5547C131.302 15.5097 132.682 17.1989 132.694 16.3084C132.733 13.5187 140.471 5.92294 141.529 7.63556C142.055 8.48614 143.58 8.83461 144.918 8.4099C146.816 7.80778 147.557 8.62081 148.285 12.1014L149.218 16.565L151.386 12.4774C154.315 6.95376 156.053 6.07792 158.926 8.67762C161.669 11.16 162.052 10.9761 163.88 6.29639L165.19 2.94005L166.802 7.36812C168.399 11.757 170.834 13.3705 170.914 10.0931C170.937 9.14791 171.573 9.45105 172.344 10.7743C174.483 14.445 176.112 13.6272 177.095 8.39C178 3.56558 179.654 2.20575 180.823 5.32444C181.265 6.50436 182.124 6.19045 183.618 4.30256C185.758 1.59926 185.776 1.60136 185.819 4.57921C185.843 6.22997 186.568 9.13065 187.432 11.025C188.706 13.822 189.667 14.3156 192.542 13.6508C194.489 13.2004 196.797 11.9392 197.671 10.8479C198.545 9.75677 200.28 8.71417 201.528 8.53116C202.775 8.34833 204.35 7.32186 205.028 6.25054C206.084 4.58284 206.264 4.58029 206.282 6.23836C206.293 7.30005 206.726 7.74535 207.243 7.22807C207.761 6.71067 208.861 7.94283 209.688 9.96583L211.191 13.6439L216.87 7.73525L222.548 1.82657L224.247 8.17668C226.121 15.1811 227.355 16.1065 228.628 11.4612C229.275 9.10152 229.744 8.82333 230.666 10.253C231.678 11.821 231.979 11.821 232.603 10.253C233.14 8.90268 233.371 8.86556 233.449 10.1165C233.533 11.4561 234.614 11.396 238.326 9.84522C243.081 7.85891 243.096 7.86408 243.254 11.53C243.353 13.8366 243.644 14.3187 244.035 12.8231C244.756 10.0629 247.285 9.72207 249.631 12.0686C250.896 13.3334 251.74 13.1046 253.396 11.0468C254.91 9.16704 255.738 8.89085 256.24 10.0981C257.28 12.5941 260.047 12.1783 262.826 9.10836C264.166 7.62732 265.729 6.70332 266.298 7.0552C266.868 7.40684 267.775 6.01307 268.315 3.95747C269.216 0.52529 269.385 0.442576 270.387 2.94507C270.987 4.44378 272.244 8.65251 273.179 12.2979L274.879 18.9257L276.746 15.3635C277.773 13.4042 279.469 11.8012 280.516 11.8012C281.563 11.8012 283.23 11.0348 284.22 10.0981C286.928 7.53645 291.288 8.04873 292.916 11.1199C295.006 15.0638 301.586 14.2398 305.342 9.56392L308.312 5.8677L308.782 11.2188L309.252 16.5699L311.194 12.707C312.808 9.4979 313.769 8.97079 316.877 9.5921C319.79 10.1747 320.806 9.74443 321.473 7.64458C322.82 3.3996 324.323 5.58921 326.231 14.5754C327.316 19.6889 328.403 22.2158 329.061 21.1523C330.15 19.3909 332.386 6.50279 331.925 4.64812C331.265 1.99332 333.99 4.10934 336.323 8.06295L338.931 12.4825L340.536 7.03251L342.14 1.58256L344.928 7.71367C346.462 11.0858 348.814 15.1409 350.155 16.7248L352.595 19.6049L355.079 14.7337C356.445 12.0546 357.584 8.91919 357.611 7.76621C357.646 6.29158 358.555 6.71843 360.677 9.20581C365.565 14.9333 368.392 15.2125 372.786 10.4018C374.906 8.08144 376.64 5.60778 376.64 4.90468C376.64 1.54898 382.671 7.19017 384.186 11.9629C385.121 14.906 386.95 15.3072 388.11 12.8231C388.742 11.4689 389.069 11.4746 389.709 12.8474C390.663 14.9009 394.762 10.1883 397.297 4.12383C398.845 0.420151 398.958 0.376414 399.463 3.28235C400.044 6.6283 401.902 7.34539 402.992 4.64477C403.516 3.34553 403.705 3.3686 403.787 4.74232C403.93 7.13487 407.982 11.2347 407.982 8.98672C407.982 7.07574 412.429 12.5657 414.122 16.5668C415.223 19.1673 415.3 19.1467 415.826 16.117C416.403 12.7932 420.682 7.71051 422.904 7.71051C423.617 7.71051 424.795 6.64622 425.523 5.34546C426.679 3.28065 426.966 3.45365 427.783 6.70788C428.764 10.6191 430.532 11.6013 431.479 8.76122C431.893 7.51914 432.919 7.66431 435.452 9.32372C437.683 10.7854 439.536 11.1367 440.799 10.3375C443.896 8.37711 444.775 8.85033 444.775 12.4791C444.775 17.0158 446.679 16.7783 450.225 11.7992C452.599 8.46552 453.604 7.96364 455.679 9.07414C459.378 11.0535 462.49 10.7417 462.49 8.39167C462.49 5.3544 464.59 5.91818 466.295 9.41355L467.791 12.4791L468.72 9.35906C469.59 6.44185 469.81 6.38409 472.116 8.47071C473.473 9.6981 475.215 10.312 475.987 9.83471C476.759 9.35753 478.172 10.2174 479.126 11.745C481.709 15.881 482.666 15.1775 483.683 8.39167C484.189 5.01952 485.049 2.26047 485.595 2.26047C486.141 2.26047 487.337 4.76329 488.254 7.82238C489.472 11.8872 490.477 13.1708 491.988 12.5911C493.125 12.1547 495.232 11.7979 496.669 11.7979C498.229 11.7979 499.305 10.8368 499.338 9.41355C499.376 7.71361 499.976 8.1047 501.425 10.7761C503.938 15.4068 505.127 15.4739 507.459 11.1161C511.385 3.78209 519.724 8.40282 519.724 17.9122C519.724 23.2788 521.91 22.9739 524.493 17.2472C525.827 14.2906 527.445 12.1976 528.09 12.5961C528.735 12.9947 529.263 11.7555 529.263 9.84252C529.263 7.08839 529.853 6.45447 532.1 6.79733C533.661 7.03501 535.476 8.10165 536.134 9.16657C537.128 10.7747 537.652 10.6635 539.227 8.51005C541.033 6.04119 541.169 6.0997 542.082 9.73568C542.802 12.6029 543.429 13.1655 544.6 11.9944C545.458 11.1366 547.802 10.4348 549.809 10.4348C551.816 10.4348 554.221 9.51514 555.154 8.39111C556.087 7.26708 557.644 6.34735 558.614 6.34735C559.584 6.34735 560.638 5.58096 560.956 4.64421C561.275 3.70752 561.999 6.00081 562.565 9.74051L563.595 16.5399L566.993 10.7882C570.472 4.89693 572.366 4.85974 574.554 10.6401C575.501 13.1435 586.074 15.5297 587.857 13.6426C588.462 13.0025 589.17 11.3736 589.43 10.0226C589.69 8.67167 590.516 7.63484 591.265 7.71869C592.015 7.80279 592.963 6.4554 593.373 4.72511C594.055 1.843 594.341 2.03623 596.78 7.02898C600.059 13.7419 602.75 13.9648 605.008 7.71023C606.168 4.49519 606.777 3.82931 606.876 5.66656C607.255 12.6962 614.194 15.392 619.407 10.5353C620.957 9.09176 623.078 8.2376 624.12 8.63745C625.162 9.03723 626.024 8.83849 626.035 8.19676C626.047 7.55461 626.648 6.10952 627.372 4.98549C628.475 3.27239 629.244 3.58212 632.121 6.90046C634.009 9.07771 635.553 11.377 635.553 12.0098C635.553 12.6426 636.43 13.1604 637.502 13.1604C638.575 13.1604 639.687 14.5399 639.974 16.2259C640.421 18.8485 640.712 18.6024 641.99 14.5228C642.811 11.9 643.539 10.5205 643.607 11.4572C643.776 13.8051 647.818 13.6181 647.818 11.2629C647.818 9.02578 651.122 7.4958 653.764 8.50958C655.015 8.98981 655.92 7.74974 656.531 4.71991C657.242 1.19156 657.72 0.659385 658.739 2.26084C659.455 3.38487 660.06 5.53086 660.084 7.02963C660.109 8.52833 661.619 11.167 663.439 12.8932L666.75 16.0318L668.902 11.8712C670.085 9.58306 671.907 7.71088 672.951 7.71088C676.435 7.71088 679.16 9.34299 679.16 11.4296C679.16 13.0469 679.573 13.1507 681.071 11.908C682.54 10.6896 683.12 10.7299 683.574 12.0818C683.899 13.0497 684.959 11.4419 685.93 8.50884L687.695 3.17588L690.581 9.1901C692.169 12.4978 694.335 15.2042 695.394 15.2042C696.492 15.2042 698.306 12.2738 699.612 8.39167C701.602 2.47345 702.032 1.98166 702.887 4.64486C703.428 6.33097 704.372 7.71051 704.984 7.71051C705.595 7.71051 706.426 8.97201 706.829 10.5139C707.469 12.9596 707.915 13.097 710.327 11.591C711.847 10.6416 713.619 7.69397 714.265 5.04082L715.439 0.216797L717.957 7.71051C720.131 14.1781 723.081 18.4268 725.491 18.562C726.202 18.6046 730.046 9.40263 731.667 3.78358C732.388 1.28309 732.877 0.970292 733.796 2.42116C734.452 3.45688 734.998 5.74945 735.009 7.51569C735.022 9.6504 735.648 10.4899 736.874 10.0196C737.888 9.63076 739.755 10.5236 741.023 12.0044C744.645 16.2342 748.932 14.7345 751.349 8.39167C754.087 1.21035 757.624 0.858472 758.711 7.65909C759.589 13.1453 759.318 13.0269 772.163 13.533C778.833 13.7956 779.997 13.4843 779.998 11.4574C779.999 10.146 780.919 8.99642 782.043 8.90275C789.636 8.27004 792.98 8.62174 794.579 10.2196C796.108 11.7483 796.657 11.3287 797.938 7.65481L799.47 3.26236L801.269 6.50832C802.395 8.5396 803.102 8.98952 803.158 7.71051C803.229 6.09193 803.537 6.16281 804.637 8.05058C806.55 11.3347 808.213 11.0377 810.309 7.03772L812.09 3.64046L815.435 9.76264C817.274 13.1298 819.544 15.8848 820.479 15.8848C821.413 15.8848 823.364 13.5856 824.813 10.7755L827.448 5.66619L828.386 9.3572C828.902 11.3873 830.113 13.7028 831.077 14.5031C832.416 15.6134 833.056 15.0625 833.78 12.1762C834.65 8.70993 834.876 8.59452 836.483 10.7922C838.36 13.3585 839.991 12.2983 841.748 7.36932C842.983 3.90454 844.617 4.40428 849.231 9.65859C853.107 14.0727 853.455 14.1991 855.504 11.9356C856.697 10.6176 857.673 8.82097 857.673 7.94327C857.673 7.06557 858.323 6.34744 859.116 6.34744C859.91 6.34744 860.111 5.58106 859.564 4.6443C859.016 3.70761 859.794 4.01413 861.294 5.32556C862.793 6.63693 864.663 7.70995 865.45 7.70995C866.236 7.70995 867.618 8.60094 868.522 9.68992C869.426 10.7789 871.968 11.5453 874.172 11.393C877.327 11.1748 878.512 10.1916 879.756 6.7606C881.72 1.34156 882.893 1.91778 883.338 8.51972C883.526 11.3185 884.215 14.5631 884.868 15.7301C885.792 17.3809 886.326 16.8019 887.274 13.1216C888.246 9.34673 889.249 8.30253 892.241 7.95229C894.303 7.71095 896.371 6.52052 896.837 5.30696C897.461 3.68155 898.107 4.33525 899.29 7.78955C900.366 10.9289 901.636 12.3462 903.132 12.0782C904.362 11.8576 905.387 12.4713 905.409 13.4408C905.434 14.4308 906.1 14.0867 906.931 12.6558C907.969 10.8699 908.709 10.5881 909.404 11.7135C910.071 12.7929 911.755 11.7744 914.542 8.59839L918.688 3.87778L919.589 9.51389C920.183 13.2293 920.869 14.5373 921.602 13.3519C922.213 12.3631 924.176 11.6765 925.964 11.8265C932.183 12.3476 933.807 11.7777 934.802 8.73174C935.738 5.86231 935.877 5.9462 936.963 10.0418C938.333 15.2055 941.345 14.8492 943.271 9.29583L944.529 5.66619L946.289 9.41309C948.411 13.9293 951.136 14.1649 955.36 10.1974C957.406 8.27561 958.513 7.87123 958.513 9.04615C958.513 10.3217 959.337 10.1123 961.297 8.33829C964.017 5.87724 964.099 5.88766 964.859 8.79293C965.287 10.4285 966.185 11.4281 966.854 11.0144C967.524 10.6006 968.439 11.221 968.889 12.3922C970.595 16.8375 976.27 14.0194 978.264 7.73645L979.297 4.48389L981.213 8.14059C982.613 10.8128 984.182 11.7973 987.038 11.7973C990.415 11.7973 991.125 11.1014 992.253 6.68798C993.633 1.28417 993.658 1.31449 997.019 12.4786L999.071 19.291L1000.7 14.9528C1002.7 9.61083 1008.72 5.16567 1010.36 7.81912C1011.25 9.25396 1011.85 9.24962 1013.6 7.79467C1015.4 6.29663 1015.75 6.36508 1015.75 8.22317C1015.75 9.43898 1016.67 10.4337 1017.79 10.4337C1019 10.4337 1019.83 11.6809 1019.83 13.4831C1019.83 16.14 1020.29 15.8866 1023.41 11.5152C1026.8 6.74602 1027.13 6.59884 1030.09 8.53981C1032.21 9.9262 1033.5 10.1134 1034.11 9.12305C1035.45 6.95208 1037.54 8.80618 1037.6 12.2173C1037.65 15.1689 1037.67 15.1661 1039.44 11.9693L1041.23 8.73574L1042.02 11.7658C1042.86 14.9429 1045.73 14.4093 1045.73 11.0776C1045.73 9.93026 1046.55 9.47281 1047.77 9.94128C1049.12 10.4575 1049.81 9.89258 1049.81 8.29868C1049.81 6.12515 1050.14 6.1811 1052.97 8.83431C1056.68 12.3178 1057.99 12.5582 1057.99 9.75307C1057.99 8.62904 1058.6 7.7093 1059.35 7.7093C1060.1 7.7093 1060.72 8.44506 1060.72 9.34428C1060.72 10.616 1061.08 10.616 1062.35 9.34428C1064.82 6.87195 1068.66 7.38117 1070.57 10.4342C1071.51 11.9331 1073.61 13.1592 1075.24 13.1592C1076.87 13.1592 1078.47 13.9256 1078.8 14.8624C1079.13 15.7991 1080.35 14.3414 1081.5 11.6225C1084.03 5.66519 1086.01 4.18524 1087.22 7.33836C1087.92 9.15939 1088.36 9.28163 1089.22 7.8911C1090.02 6.60307 1091.22 7.55533 1093.54 11.3081L1096.76 16.5106L1098.15 11.5402C1099.61 6.3796 1101.6 3.29201 1101.6 6.20014C1101.6 7.11855 1102.17 7.51737 1102.87 7.08626C1103.56 6.65478 1104.48 6.8632 1104.9 7.54759C1105.33 8.23234 1107.89 8.68813 1110.61 8.56045C1113.53 8.42333 1115.82 9.03458 1116.21 10.0548C1116.57 11.0044 1117.4 11.4531 1118.05 11.0521C1118.7 10.6511 1119.62 11.8809 1120.1 13.785C1121.11 17.7893 1121.12 17.7923 1125.07 15.5437C1130.09 12.6906 1131.92 10.4408 1132.9 5.91243L1133.85 1.57828L1135.98 6.52134C1139.07 13.6922 1140.49 13.8461 1143.72 7.363C1146.33 2.13398 1146.68 1.87286 1147.43 4.64393C1147.88 6.33004 1148.79 7.70949 1149.45 7.70949C1150.11 7.70949 1150.65 9.16718 1150.65 10.9488C1150.65 14.578 1153.87 17.9482 1156.05 16.6025C1156.83 16.1193 1157.47 14.6086 1157.47 13.2458C1157.47 9.29337 1160.84 7.22921 1164.28 9.072C1166.39 10.1996 1167.67 10.2153 1168.98 9.13291C1170.37 7.97889 1170.97 8.40046 1171.62 10.9865C1172.36 13.9343 1172.93 14.2004 1176.36 13.2164C1178.5 12.6019 1181.53 11.4147 1183.1 10.5781C1185.4 9.34564 1186.19 9.4989 1187.24 11.386C1188.35 13.3658 1188.88 13.4402 1190.75 11.8821C1191.97 10.874 1193.19 10.2899 1193.46 10.584C1194.85 12.0751 1198.35 24.6748 1198.35 28.1974C1198.35 31.5716 1197.8 32.2373 1195.02 32.2373C1192.17 32.2373 1191.63 31.511 1191.24 27.128L1190.79 22.0186L1188.93 28.1498C1187.09 34.2528 1187.07 34.2639 1185.79 30.5342C1184.5 26.7995 1182.79 25.7675 1181.46 27.9227C1180.41 29.6083 1172.01 28.1512 1170.28 25.9856C1169.07 24.4634 1168.43 24.8115 1166.91 27.8331L1165.03 31.5561L1164.38 26.1061C1163.74 20.7465 1163.72 20.7804 1162.98 28.1498C1162.35 34.5057 1161.79 35.7072 1159.3 36.0625C1157 36.3903 1156.16 35.5963 1155.47 32.4295C1154.98 30.2009 1153.69 28.0389 1152.61 27.6252C1151.54 27.2114 1150.65 26.0815 1150.65 25.1141C1150.65 24.1468 1149.45 22.6034 1147.98 21.6842C1145.54 20.1643 1145.15 20.5108 1143.65 25.5117C1142.22 30.281 1141.54 30.9561 1138.49 30.6019C1135.63 30.2692 1134.9 29.3737 1134.56 25.7654C1134.06 20.5895 1131.58 19.7389 1131.58 24.7437C1131.58 27.2415 1130.85 28.1498 1128.85 28.1498C1126.66 28.1498 1126.13 29.0582 1126.13 32.7596C1126.13 36.3462 1125.47 37.5413 1123.16 38.1438C1118.96 39.2431 1117.95 38.1926 1117.95 32.7105C1117.95 29.0406 1117.3 27.7252 1115.22 27.1822C1113.72 26.7873 1112.5 25.3237 1112.5 23.9035C1112.5 19.4584 1106.1 20.7054 1100.96 26.1513L1096.42 30.9652L1091.55 23.0856C1088.87 18.7519 1086.66 16.1841 1086.64 17.3794C1086.62 18.5746 1085.38 20.6623 1083.88 22.0186C1081.87 23.8383 1081.16 26.215 1081.16 31.0859C1081.16 37.219 1080.91 37.6872 1077.75 37.6872C1074.57 37.6872 1074.34 37.2332 1074.34 30.8748C1074.34 24.5026 1072.72 21.8972 1071.16 25.7654C1070.75 26.7828 1070.43 26.5087 1070.36 25.0842C1070.3 23.7728 1069.33 22.6999 1068.21 22.6999C1067.09 22.6999 1066.12 21.6269 1066.06 20.3155C1066 19.0041 1064.89 20.9632 1063.58 24.6692C1062 29.1621 1060.94 30.6936 1060.39 29.2656C1059.84 27.8215 1058.44 27.3389 1056.12 27.7838C1053.28 28.3262 1052.51 27.8082 1051.77 24.8904C1050.71 20.6706 1048.48 20.2401 1047.48 24.0624C1046.68 27.1382 1044.93 27.6364 1043.9 25.0842C1043.49 24.0668 1043.17 24.3411 1043.11 25.7654C1043.03 27.391 1041.88 28.1498 1039.49 28.1498C1036.69 28.1498 1035.52 27.0545 1033.7 22.7137C1030.93 16.113 1028.82 15.7806 1027.14 21.678C1026.15 25.153 1025.05 26.2023 1022.01 26.5532C1019.88 26.7994 1017.5 26.3606 1016.72 25.5787C1015.73 24.5916 1014.79 24.8478 1013.64 26.4171C1012.2 28.3952 1011.87 28.1202 1011.01 24.212C1010.05 19.8555 1009.97 19.8103 1007.6 22.3501C1006.27 23.7818 1004.77 26.2543 1004.26 27.8445C1003.76 29.4347 1002.56 30.4351 1001.6 30.0678C1000.64 29.7009 999.184 30.8046 998.357 32.5216C997.426 34.4537 996.81 34.8645 996.74 33.5998C996.678 32.4758 996.047 30.6394 995.339 29.519C994.234 27.7714 993.759 27.8683 991.996 30.2002C990.441 32.2576 989.92 32.4216 989.853 30.8748C989.717 27.7425 984.143 21.6373 983.388 23.7939C982.929 25.105 982.279 24.9268 980.903 23.1127C979.155 20.8079 979.038 20.8035 978.997 23.0408C978.973 24.3522 978.064 25.4252 976.977 25.4252C975.89 25.4252 974.447 26.4147 973.77 27.6241C972.029 30.7351 967.166 28.874 966.117 24.6951C965.271 21.3228 962.601 19.9685 962.601 22.9114C962.601 23.7993 961.404 23.4014 959.853 21.9981C957.182 19.5817 957.023 19.5977 954.263 22.5606C952.689 24.2493 950.526 25.2665 949.415 24.8404C948.312 24.4174 946.552 24.9275 945.505 25.9742C943.376 28.1034 927.171 28.7022 927.171 26.6516C927.171 25.9772 926.558 25.4253 925.808 25.4253C925.059 25.4253 924.446 26.3089 924.446 27.3886C924.446 28.4685 923.857 29.7154 923.138 30.1597C921.404 31.2314 916.269 27.9567 916.269 25.7787C916.269 23.182 914.414 23.7202 912.433 26.8914C911.013 29.1638 910.279 29.3989 908.698 28.0871C907.616 27.1889 906.73 26.9425 906.73 27.5397C906.73 28.137 905.351 27.3837 903.664 25.8659C899.158 21.8104 895.833 20.9213 895.808 23.7649C895.796 25.6584 895.556 25.7406 894.576 24.194C893.762 22.9077 893.047 25.2495 892.394 31.347C891.445 40.2056 891.334 40.4125 887.494 40.4125C884.036 40.4125 883.565 39.922 883.565 36.3251C883.565 34.077 882.951 32.2376 882.202 32.2376C881.452 32.2376 880.839 30.7447 880.839 28.9201C880.839 24.205 878.233 17.9243 876.894 19.4127C876.278 20.0968 874.987 24.5036 874.025 29.2057C873.063 33.9078 872.02 37.4993 871.708 37.1867C871.395 36.8741 869.664 32.4139 867.86 27.275C864.67 18.1847 864.556 18.0515 863.682 22.3595C863.088 25.2841 861.99 26.7876 860.447 26.7876C859.162 26.7876 857.393 28.3623 856.516 30.2869C855.372 32.797 854.059 33.6635 851.869 33.3524C849.374 32.9983 848.666 31.7976 847.998 26.7876C847.548 23.4155 847.089 21.6272 846.976 22.8137C846.749 25.2053 842.709 25.8401 842.64 23.495C842.616 22.6831 841.755 23.1288 840.727 24.4849C839.323 26.3358 838.596 26.5283 837.81 25.2565C836.307 22.8257 834.722 27.4569 834.603 34.6219C834.517 39.8252 834.17 40.4125 831.184 40.4125C828.247 40.4125 827.762 39.6595 827.009 33.9407C826.541 30.3811 826.044 26.6001 825.904 25.5381C825.45 22.0858 822.367 22.4132 821.464 26.0097C820.84 28.4975 819.68 29.5127 817.461 29.5127C815.006 29.5127 814.09 28.474 813.18 24.6611C811.804 18.8922 809.469 18.3604 808.872 23.6798C808.638 25.7638 807.674 28.082 806.729 28.8315C805.784 29.5808 804.38 31.3356 803.608 32.7312C802.342 35.0194 802.125 34.8857 801.394 31.3686C800.448 26.8124 794.673 23.1813 789.352 23.7977C785.876 24.2005 785.729 24.5847 784.801 35.7194C783.891 46.6432 783.679 47.2251 780.616 47.2251C777.536 47.2251 777.37 46.746 776.991 36.7751C776.594 26.3832 774.402 22.1715 772.503 28.1547C770.982 32.9451 765.788 31.2027 765.261 25.7253L764.831 21.2566L762.196 24.3628C759.691 27.3159 759.467 27.3485 757.663 25.0253C755.978 22.8561 755.66 23.7747 754.825 33.2048C754.307 39.0473 754.007 44.4389 754.158 45.1859C754.308 45.9327 754.359 47.9659 754.269 49.7041C754.144 52.1671 753.431 52.7684 751.042 52.4291C748.158 52.0195 747.952 51.2679 747.578 39.8022C747.126 25.9569 745.652 22.6604 741.565 26.3585C739.314 28.3956 738.777 28.4475 737.693 26.7334C736.712 25.1827 736.43 25.4415 736.414 27.9067C736.389 30.8191 736.218 30.8952 734.191 28.8677C730.675 25.3524 728.947 27.1452 728.217 35.0683C727.585 41.918 727.262 42.4875 723.788 42.8872C720.261 43.2931 720.04 43.0024 720.04 37.9511C720.04 34.9992 718.701 29.5936 717.065 25.9389L714.09 19.2939L712.111 24.4031C710.598 28.3086 709.373 29.5124 706.91 29.5124C704.52 29.5124 703.651 28.7208 703.543 26.447C703.409 23.6235 703.282 23.6771 701.917 27.1281C700.715 30.1697 699.582 30.8749 695.896 30.8749C691.934 30.8749 691.251 30.3503 690.532 26.7591C689.663 22.4146 687.336 19.7903 687.336 23.1551C687.336 25.3059 684.522 26.7875 680.437 26.7875C678.759 26.7875 677.504 28.1062 676.868 30.5344C675.983 33.9194 675.732 33.5576 674.27 26.7875C673.237 22.0062 672.596 20.65 672.499 23.0407C672.385 25.8282 671.648 26.7875 669.62 26.7875C668.121 26.7875 666.895 27.4007 666.895 28.15C666.895 28.8994 665.079 29.5124 662.859 29.5124C659.312 29.5124 658.648 28.8608 657.372 24.1201C655.386 16.7452 653.775 16.2599 652.741 22.7248C652.068 26.931 651.267 28.15 649.175 28.15C647.692 28.15 645.712 29.3762 644.776 30.8749C641.853 35.5541 637.567 34.3331 635.761 28.307C633.994 22.4099 629.598 20.0462 627.469 23.8487C626.398 25.763 625.96 25.4848 624.589 22.0188L622.972 17.9313L621.19 22.7001C620.21 25.3229 619.361 26.9339 619.304 26.2801C619.249 25.6263 618.356 25.7926 617.323 26.6494C615.839 27.8806 615.261 27.5583 614.569 25.1131C613.707 22.0717 613.663 22.0654 612.017 24.7437C610.107 27.8529 606.936 28.9582 606.936 26.515C606.936 25.2433 606.572 25.2433 605.301 26.515C602.408 29.4071 597.956 28.397 595.993 24.4031L594.15 20.6563L593.711 24.0625C591.687 39.7761 591.942 39.0498 588.456 39.0498C585.449 39.0498 585.133 38.4927 585.133 33.1911C585.133 26.9145 583.345 24.0625 579.41 24.0625C578.061 24.0625 576.957 23.5798 576.957 22.9899C576.957 22.4 575.73 21.8249 574.231 21.7121C572.508 21.5823 571.498 22.3526 571.485 23.8065C571.467 25.6972 571.246 25.7618 570.238 24.1692C569.336 22.7448 568.584 23.82 567.396 28.2312L565.78 34.2304L563.809 30.4685C562.725 28.3995 561.254 27.0676 560.54 27.5088C559.826 27.95 559.242 27.0487 559.242 25.5055C559.242 21.8047 556.472 21.8942 555.496 25.6268C554.778 28.3724 554.621 28.4043 552.969 26.1442C551.358 23.9425 551.045 24.1302 549.329 28.3272L547.451 32.9189L546.519 29.2202C545.912 26.8104 544.922 25.7763 543.68 26.2531C542.589 26.6718 541.429 25.9216 540.97 24.5019C540.529 23.1363 538.688 21.3357 536.879 20.5006C533.61 18.9917 533.584 19.0415 532.634 28.503C531.859 36.2177 531.19 38.1514 529.107 38.6959C527.693 39.0658 526.468 40.0628 526.385 40.9121C525.554 49.3302 524.73 52.1101 521.78 56.452L518.361 61.4824L518.306 54.6943L518.307 54.6922Z" fill="black"/>
</svg>
