<svg width="1333" height="91" viewBox="0 0 1333 91" fill="none" xmlns="http://www.w3.org/2000/svg">
<path d="M1310.66 80.7553C1310.12 69.5318 1307.36 68.0079 1306.69 78.564C1306.27 85.1269 1305.87 85.8468 1302.88 85.4212C1300.5 85.0827 1299.39 83.7181 1299.05 80.6781C1298.57 76.5411 1298.35 76.4416 1291.81 77.4227L1285.06 78.4346V73.1922C1285.06 68.2341 1284.81 67.9863 1280.49 68.6208C1277.71 69.0281 1275.91 70.1997 1275.91 71.6038C1275.91 73.3952 1274.71 73.7211 1270.58 73.0504C1266.66 72.4146 1265.25 72.7385 1265.25 74.269C1265.25 75.4151 1263.7 76.572 1261.82 76.8398C1259.61 77.1524 1258.21 78.5519 1257.9 80.7553C1257.31 84.8842 1252.37 85.408 1250.22 81.5689C1249.17 79.7052 1247.01 79.0233 1242.69 79.1955C1237.13 79.4174 1236.56 79.069 1235.74 74.9534C1234.64 69.4593 1230.19 68.7879 1230.19 74.1161C1230.19 76.1216 1229.16 78.1571 1227.91 78.6396C1226.57 79.1522 1225.62 81.4356 1225.62 84.1359C1225.62 88.0473 1225.04 88.7552 1221.81 88.7552C1218.04 88.7552 1218 88.6155 1217.95 75.422C1217.91 64.0069 1217.61 62.4723 1215.88 64.7554C1214.77 66.222 1213.07 67.4221 1212.12 67.4221C1211.16 67.4221 1210.38 69.4791 1210.38 71.9934C1210.38 74.5076 1209.75 76.5648 1208.98 76.5648C1208.21 76.5648 1206.5 76.9813 1205.17 77.4897C1203.28 78.2144 1202.76 77.3593 1202.76 73.5375C1202.76 69.942 1201.96 68.4511 1199.71 67.8635C1198.04 67.425 1196.66 66.2019 1196.66 65.1451C1196.66 64.0884 1195.67 62.4014 1194.46 61.3964C1192.61 59.8575 1191.96 61.0302 1190.35 68.8289C1188.68 76.9209 1187.99 78.0886 1184.93 78.0886C1183 78.0886 1181.42 77.4029 1181.42 76.5648C1181.42 75.7267 1180.11 75.041 1178.5 75.041C1172.4 75.041 1170.76 73.3421 1170.6 66.878C1170.48 61.7552 1170.25 61.2832 1169.4 64.3744C1168.66 67.0462 1167.12 68.3279 1164.22 68.6661C1160.39 69.1125 1160.07 68.719 1159.88 63.3328C1159.75 59.8032 1159.41 58.865 1159.01 60.9458C1158.5 63.5933 1157.31 64.3744 1153.78 64.3744C1151.26 64.3744 1148.17 65.4029 1146.92 66.6601C1145.66 67.9172 1143.31 68.9457 1141.69 68.9457C1140.07 68.9457 1138.75 67.9172 1138.75 66.6601C1138.75 65.2544 1137.32 64.3744 1135.04 64.3744C1132.17 64.3744 1131.19 63.4335 1130.7 60.1839C1130.3 57.5251 1129.98 58.5793 1129.84 63.0685C1129.68 67.9618 1128.86 70.4287 1127.2 71.0684C1123.27 72.5765 1119.25 72.1277 1118.43 70.0887C1118 69.041 1117.6 70.1151 1117.54 72.4803C1117.44 76.0372 1116.83 76.6929 1113.99 76.2898C1111.78 75.9772 1110.38 74.5777 1110.07 72.3744C1109.8 70.4886 1108.95 68.9457 1108.17 68.9457C1107.39 68.9457 1106.75 66.5588 1106.75 63.6415C1106.75 59.1195 1106.13 58.186 1102.56 57.3117C1100.25 56.7481 1097.86 55.5346 1097.25 54.616C1096.6 53.6587 1096.12 54.4094 1096.1 56.3745C1096.08 59.3547 1095.28 59.8029 1089.98 59.8029C1084.03 59.8029 1083.89 59.6764 1083.89 54.4696C1083.89 51.5364 1083.2 49.1365 1082.36 49.1365C1081.53 49.1365 1080.84 49.822 1080.84 50.6601C1080.84 51.4982 1079.81 52.184 1078.55 52.184C1077.28 52.184 1076.27 53.5385 1076.27 55.2316C1076.27 57.4665 1075.25 58.2792 1072.46 58.2792C1068.96 58.2792 1068.65 57.7202 1068.65 51.4221C1068.65 46.5997 1068.02 44.5649 1066.54 44.5649C1065.38 44.5649 1064.09 45.8833 1063.66 47.4947C1063.18 49.3472 1061.29 50.6077 1058.53 50.9232C1055.11 51.3147 1054.07 52.2878 1053.7 55.439C1053.34 58.5502 1052.18 59.6667 1048.56 60.3914C1040.1 62.0828 1039.69 61.8087 1039.69 54.4696C1039.69 50.6982 1039.01 47.6126 1038.17 47.6126C1037.33 47.6126 1036.64 50.9479 1036.64 55.0244V62.4363L1029.63 63.3979C1021.08 64.569 1019.88 63.9263 1019.88 58.1893C1019.88 54.7236 1019.19 53.7078 1016.83 53.7078C1014.57 53.7078 1013.74 52.633 1013.61 49.5173C1013.5 46.9392 1013.16 46.3529 1012.73 47.9935C1012.35 49.4602 1011.1 50.6601 1009.95 50.6601C1008.65 50.6601 1007.7 52.7903 1007.4 56.3745C1007.02 60.8915 1006.23 62.1872 1003.63 62.5588C1001.45 62.8694 1000.11 62.0932 999.689 60.2731C999.338 58.7573 998.517 60.7744 997.863 64.7554C996.933 70.412 996.045 71.9934 993.798 71.9934C991.657 71.9934 990.923 70.8909 990.923 67.676C990.923 65.3014 990.541 62.976 990.073 62.5083C988.545 60.9806 983.303 63.1534 983.303 65.314C983.303 68.7317 978.605 67.7306 974.657 63.4716C972.45 61.0908 970.061 59.88 968.643 60.424C967.349 60.9208 965.317 61.3268 964.128 61.3268C962.936 61.3268 961.967 62.7885 961.967 64.5873C961.967 67.9378 958.109 71.8589 954.728 71.945C951.277 72.0324 946.727 65.9945 946.727 61.3268C946.727 58.1867 945.977 56.7554 944.332 56.7554C943.015 56.7554 940.858 55.6761 939.539 54.3571C937.799 52.6182 936.839 52.4462 936.044 53.7319C935.441 54.7071 932.626 55.272 929.788 54.9874C924.835 54.4906 924.571 54.729 923.193 60.946C921.775 67.3407 921.675 67.4223 915.192 67.4223C911.581 67.4223 908.627 66.8553 908.627 66.1623C908.627 65.4693 906.569 65.2043 904.055 65.5735C901.54 65.9424 899.483 65.5868 899.483 64.7825C899.483 62.8301 885.312 63.1233 883.885 65.105C883.269 65.9603 882.755 68.5458 882.742 70.8505C882.722 73.938 881.959 75.0411 879.833 75.0411C876.813 75.0411 875.098 72.2361 875.098 67.2974C875.098 65.6898 874.413 64.3745 873.574 64.3745C872.736 64.3745 872.05 67.1172 872.05 70.4696C872.05 75.9553 871.67 76.5648 868.24 76.5648C864.555 76.5648 864.43 76.2284 864.407 66.2792C864.387 59.7843 863.891 56.7716 863.046 58.1046C861.162 61.0803 854.325 59.0717 853.325 55.2484C852.857 53.4595 851.247 52.184 849.458 52.184C844.379 52.184 841.57 50.4977 841.57 47.4496C841.57 45.1688 840.453 44.565 836.236 44.565C833.036 44.565 830.863 43.8029 830.805 42.6603C830.752 41.6127 830.057 42.3821 829.261 44.3706C828.035 47.4341 827.091 47.8409 823.071 47.0372C820.463 46.5153 817.386 46.0889 816.233 46.0889C815.014 46.0889 814.138 44.4958 814.138 42.2793C814.138 39.909 813.274 38.4699 811.852 38.4699C810.271 38.4699 809.566 40.0572 809.566 43.6127C809.566 53.8523 807.905 58.4765 804.406 57.9772C801.734 57.5958 801.105 56.3071 800.725 50.4317C800.28 43.5493 800.149 43.3775 796.153 44.4391C793.535 45.1348 791.863 46.7411 791.553 48.8581C791.216 51.154 789.997 52.184 787.616 52.184C785.718 52.184 783.698 51.7171 783.127 51.1454C782.555 50.5738 778.397 50.2778 773.885 50.4871C768.425 50.7401 765.02 50.1579 763.702 48.7468C762.612 47.5807 760.141 46.9284 758.211 47.2974C754.817 47.9465 753.967 46.6802 754.588 41.8987C754.723 40.8511 754.119 39.994 753.244 39.994C752.369 39.994 751.653 41.0226 751.653 42.2797C751.653 43.5369 750.692 44.5653 749.518 44.5653C748.343 44.5653 745.857 47.1368 743.992 50.2796C740.837 55.5991 740.519 55.7705 739.392 52.761C737.882 48.7321 732.017 47.1714 723.299 48.4787C717.12 49.405 716.601 49.2246 716.601 46.1505C716.601 41.6412 711.441 42.6136 710.78 47.2476C710.513 49.1247 709.711 50.6605 708.999 50.6605C708.288 50.6605 706.223 53.0598 704.41 55.992C701.585 60.5628 700.534 61.1813 697.047 60.3276C694.809 59.7799 692.75 58.7522 692.471 58.0438C692.191 57.3354 690.991 56.7558 689.804 56.7558C688.616 56.7558 687.645 55.4404 687.645 53.8328C687.645 49.8516 686.085 46.0892 684.434 46.0892C683.685 46.0892 683.073 47.1178 683.073 48.3749C683.073 49.6447 681.718 50.6605 680.025 50.6605C678.331 50.6605 676.977 51.6764 676.977 52.9463C676.977 54.3412 675.556 55.2319 673.33 55.2319C671.324 55.2319 669.288 54.2034 668.806 52.9463C668.323 51.6892 666.878 50.6605 665.595 50.6605C664.311 50.6605 663.261 49.9749 663.261 49.1368C663.261 48.2987 661.546 47.613 659.451 47.613C656.657 47.613 655.641 46.8003 655.641 44.5653C655.641 42.8722 654.625 41.5177 653.355 41.5177C651.661 41.5177 651.069 43.2956 651.069 48.3749C651.069 54.6733 650.758 55.2319 647.259 55.2319C645.037 55.2319 643.449 54.3562 643.449 53.1316C643.449 51.9699 640.835 50.3681 637.6 49.547C630.6 47.7703 609.866 51.3434 607.94 54.6586C606.519 57.1029 600.776 57.5072 600.776 55.1633C600.776 54.1772 598.803 53.9406 595.597 54.5421C591.512 55.3082 590.072 54.9202 588.785 52.7063C587.282 50.1207 587.149 50.1096 587.107 52.5659C587.083 54.0326 586.031 55.2326 584.774 55.2326C583.517 55.2326 582.488 56.2611 582.488 57.5182C582.488 58.7755 581.459 59.804 580.202 59.804C578.932 59.804 577.916 61.1584 577.916 62.8515C577.916 65.0864 576.9 65.8991 574.106 65.8991C571.108 65.8991 570.296 65.1254 570.296 62.2673C570.296 59.7892 569.207 58.3437 566.867 57.7168C559.311 55.6922 558.104 56.3996 558.104 62.8515C558.104 67.8051 557.567 68.9467 555.234 68.9467C552.196 68.9467 550.54 65.078 550.505 57.8992C550.481 53.0413 548.163 52.2869 546.994 56.7564C546.456 58.8158 544.916 59.804 542.245 59.804C540.071 59.804 538.292 60.4897 538.292 61.3278C538.292 62.1659 537.336 62.8515 536.169 62.8515C535.001 62.8515 533.651 63.8802 533.169 65.1374C532.199 67.6643 526.1 68.3216 526.1 65.8992C526.1 65.0611 525.071 64.3754 523.814 64.3754C522.544 64.3754 521.528 65.7298 521.528 67.423C521.528 69.116 520.512 70.4706 519.242 70.4706C517.768 70.4706 516.949 71.9602 516.937 74.661C516.92 78.5861 516.679 78.4315 513.127 72.2198C511.042 68.5723 509.336 64.67 509.336 63.5479C509.336 59.7917 505.84 59.2628 503.13 62.6091C501.664 64.4187 499.032 65.8992 497.28 65.8992C494.758 65.8992 494.096 64.9487 494.096 61.3278C494.096 58.8135 493.41 56.7564 492.572 56.7564C491.733 56.7564 491.047 54.3564 491.047 51.4231C491.047 48.4897 490.362 46.0898 489.524 46.0898C488.685 46.0898 487.999 48.8327 487.999 52.185C487.999 57.6707 487.619 58.2802 484.189 58.2802C482.094 58.2802 480.379 57.396 480.379 56.3154C480.379 55.1732 478.625 54.3757 476.188 54.4106C472.856 54.457 471.888 53.6902 471.463 50.6611C471.168 48.5659 470.202 46.4008 469.315 45.8499C467.02 44.4244 463.615 46.0307 463.615 48.5386C463.615 51.1969 456.551 51.3856 455.456 48.7565C454.867 47.3419 454.142 47.4863 452.641 49.318C451.342 50.9015 448.07 51.8354 443.499 51.9271C437.309 52.0517 436.295 51.6298 435.727 48.6991C435.269 46.3307 435.012 46.801 434.867 50.2804C434.69 54.4917 434.089 55.2328 430.849 55.2328C428.15 55.2328 427.039 54.4061 427.039 52.3966C427.039 50.1966 426.188 49.7228 423.248 50.2849C420.652 50.7809 419.151 50.2133 418.488 48.4846C417.702 46.4379 416.256 46.1491 410.849 46.9598C406.366 47.6319 404.179 47.4034 404.179 46.263C404.179 45.3298 402.464 44.5662 400.369 44.5662C397.031 44.5662 396.559 45.2266 396.559 49.8995C396.559 54.8095 396.196 55.2328 391.987 55.2328C388.776 55.2328 387.415 55.9726 387.415 57.7179C387.415 59.7376 386.347 60.0296 381.712 59.2775C378.575 58.7682 375.775 57.6504 375.489 56.7925C375.203 55.9347 373.997 55.2328 372.81 55.2328C371.622 55.2328 370.651 54.2384 370.651 53.0231C370.651 51.402 368.317 50.6918 361.888 50.3565L353.124 49.8988L352.21 43.0418C351.647 38.8137 351.209 37.7913 351.067 40.3752C350.858 44.21 350.321 44.5655 344.742 44.5655C339.472 44.5655 338.63 44.1007 338.526 41.1371C338.46 39.2514 338.06 38.5656 337.637 39.6132C337.214 40.6609 335.97 41.5179 334.872 41.5179C332.334 41.5179 331.026 44.9288 331.026 51.5474C331.026 56.0874 330.537 56.756 327.216 56.756C324.352 56.756 323.406 55.9551 323.406 53.5306C323.406 51.087 322.689 50.493 320.445 51.0797C318.685 51.54 316.425 50.6843 314.875 48.9717C310.411 44.0405 308.166 45.3709 308.166 52.9465C308.166 59.5497 307.997 59.8035 303.594 59.8035C300.038 59.8035 299.022 60.4808 299.022 62.8511C299.022 65.0861 298.006 65.8988 295.212 65.8988C291.447 65.8988 291.402 65.7458 291.402 52.9465C291.402 41.0874 291.149 39.9942 288.408 39.9942C284.759 39.9942 282.258 44.291 282.258 50.5605C282.258 54.4847 281.669 55.2322 278.575 55.2322C276.549 55.2322 274.546 54.3751 274.123 53.3274C273.7 52.2798 273.3 53.3075 273.234 55.6131C273.136 59.035 272.415 59.8035 269.304 59.8035C266.933 59.8035 265.494 58.94 265.494 57.5178C265.494 56.0956 264.055 55.2322 261.684 55.2322C258.466 55.2322 257.874 54.521 257.874 50.6607C257.874 45.4682 254.435 44.5207 249.402 48.3267C244.137 52.3081 241.11 51.2726 241.11 45.4905C241.11 42.3004 240.234 39.9843 238.824 39.4431C237.062 38.7673 236.538 39.7796 236.538 43.8515C236.538 48.4734 236.06 49.1371 232.728 49.1371C230.632 49.1371 228.918 48.2798 228.919 47.2322C228.92 45.9812 226.697 45.3841 222.442 45.4925C216.338 45.6482 215.936 45.9344 215.486 50.4449C215.189 53.4213 214.162 55.2322 212.771 55.2322C211.541 55.2322 210.139 56.2607 209.657 57.5178C209.027 59.1586 206.46 59.8035 200.56 59.8035C196.04 59.8035 192.341 60.4893 192.341 61.3274C192.341 62.1655 190.627 62.8511 188.531 62.8511C185.314 62.8511 184.721 62.1401 184.721 58.2798C184.721 55.3905 183.941 53.7084 182.6 53.7084C181.434 53.7084 180.049 51.994 179.523 49.8988C178.998 47.8037 177.551 46.0894 176.31 46.0894C175.069 46.0894 174.053 44.7822 174.053 43.1845C174.053 40.9227 173.294 40.4777 170.624 41.1742C165.753 42.4453 163.385 45.2636 163.385 49.79C163.385 52.9914 162.662 53.7084 159.432 53.7084C156.761 53.7084 155.221 54.6966 154.683 56.756C153.86 59.9001 146.621 61.2685 146.621 58.2798C146.621 57.4417 145.249 56.756 143.573 56.756C141.338 56.756 140.525 57.7719 140.525 60.5655C140.525 62.9359 139.661 64.375 138.239 64.375C136.982 64.375 135.953 65.4035 135.953 66.6607C135.953 68.0889 134.509 68.9463 132.105 68.9463C129.048 68.9463 128.069 68.006 127.342 64.375C126.499 60.1596 123.761 57.8294 123.761 61.3274C123.761 62.1655 122.046 62.8511 119.951 62.8511C116.522 62.8511 116.141 62.2418 116.141 56.756C116.141 53.4036 115.455 50.6607 114.617 50.6607C113.779 50.6607 113.093 52.375 113.093 54.4703C113.093 56.6474 112.214 58.2798 111.041 58.2798C107.458 58.2798 99.3767 53.5646 99.3767 51.4742C99.3767 49.7928 96.2951 47.6132 93.918 47.6132C93.5672 47.6132 93.2806 49.5846 93.2806 51.994C93.2806 55.6817 92.5269 56.5258 88.5181 57.3274C81.3564 58.7596 79.5645 58.5022 79.5645 56.0419C79.5645 54.6787 78.671 54.1468 77.2785 54.6811C76.0212 55.1639 74.9924 54.799 74.9924 53.8715C74.9924 52.9437 72.9922 52.1846 70.5474 52.1846C68.1027 52.1846 65.7565 51.3274 65.3337 50.2798C64.9109 49.2322 64.5109 51.9751 64.4447 56.3751C64.3318 63.8604 64.0795 64.375 60.5143 64.375C57.7203 64.375 56.7043 63.5622 56.7043 61.3274C56.7043 59.6342 55.6883 58.2798 54.4183 58.2798C53.161 58.2798 52.1323 57.5941 52.1323 56.756C52.1323 55.9179 51.1349 55.2322 49.9159 55.2322C48.2402 55.2322 47.5896 57.7411 47.2489 65.5178L46.7985 75.8034L41.8455 68.2671C39.1213 64.1221 36.8924 58.8078 36.8924 56.4576C36.8924 53.6752 36.095 52.1846 34.6064 52.1846C33.184 52.1846 32.3204 53.6238 32.3204 55.9941C32.3204 58.7325 31.4991 59.8035 29.3994 59.8035C27.7928 59.8035 26.2498 60.4281 25.9704 61.1909C25.691 61.9538 22.2048 63.0602 18.2233 63.6496C12.3164 64.5238 10.9842 64.2987 10.9842 62.4254C10.9842 58.868 6.82789 58.0497 5.94303 61.4329C5.51967 63.0511 4.08064 64.375 2.74488 64.375C0.647134 64.375 0.316162 61.6752 0.316162 44.5655C0.316162 33.6704 0.70439 24.7563 1.17838 24.7563C1.65244 24.7563 3.36708 25.466 4.98836 26.3336C7.11998 27.4742 7.93624 27.4186 7.93624 26.1329C7.93624 24.9451 9.9132 24.62 13.8914 25.1535C17.1667 25.5926 20.5064 25.2927 21.3129 24.4861C22.9643 22.8348 33.426 24.3702 34.7132 26.4527C36.1395 28.7602 39.9405 27.9356 39.9405 25.3187C39.9405 23.3296 41.0051 23.0064 45.2745 23.6991C50.2014 24.4986 50.6085 24.268 50.6085 20.6821V16.7995L53.4854 20.3519C55.8419 23.2616 57.565 23.8215 63.0105 23.447C66.667 23.1953 70.3102 22.3587 71.1065 21.5872C71.9028 20.8159 73.6409 20.1847 74.9689 20.1847C76.297 20.1847 78.644 18.0513 80.1844 15.4438C83.3627 10.0643 85.597 11.6259 85.6374 19.2551L85.6606 23.6588L94.4236 22.4829C99.2434 21.8358 105.719 21.2082 108.814 21.0877C111.909 20.9672 114.938 20.3717 115.545 19.7647C117.611 17.6986 120.567 18.6538 124.607 22.6931C129.159 27.2442 131.315 25.8343 131.358 18.28C131.381 13.8406 134.867 12.6963 140.244 15.3621C141.656 16.0621 145.726 16.0218 149.288 15.2721C154.216 14.2356 155.765 13.2022 155.765 10.9519C155.765 8.70543 156.826 7.99401 160.174 7.99401C162.599 7.99401 164.957 8.96785 165.414 10.1582C165.915 11.4643 169.586 12.7399 174.672 13.3753C181.03 14.1696 183.324 15.1347 184.013 17.3062C184.515 18.8892 185.909 20.1843 187.11 20.1843C188.311 20.1843 189.293 20.7956 189.293 21.543C189.293 24.2525 197.466 25.0985 199.308 22.5797C200.271 21.2623 201.933 20.1843 203 20.1843C205.357 20.1843 212.149 12.5511 212.152 9.89873C212.155 7.52079 216.27 7.46256 222.827 9.74765C227.081 11.2303 228.144 11.1124 229.7 8.98578C232.013 5.82243 238.062 5.65586 238.062 8.75537C238.062 10.0125 239.399 11.041 241.034 11.041C242.669 11.041 244.555 11.8982 245.225 12.9457C245.978 14.1225 249.939 14.8505 255.588 14.8505C260.617 14.8505 266.522 15.3539 268.709 15.9688C272.248 16.9637 272.854 16.5431 274.201 12.1594L275.715 7.23153L276.866 11.422C278.107 15.9441 281.394 17.0134 282.799 13.3524C283.906 10.4696 288.078 11.9313 292.213 16.6499C295.621 20.5393 300.48 21.162 305.599 18.3649C307.43 17.3645 310.814 16.7305 313.119 16.956C315.424 17.1818 317.31 16.6719 317.31 15.8238C317.31 14.9756 319.522 14.0668 322.226 13.8042C326.147 13.4234 327.837 12.0937 330.583 7.23153C332.768 3.36204 334.033 2.16217 334.049 3.94565C334.061 5.49077 335.407 7.10346 337.037 7.52945C338.666 7.9553 340.209 9.72335 340.466 11.4579C340.723 13.1926 341.79 14.8941 342.837 15.2391C344.163 15.6756 344.75 13.8569 344.766 9.26329C344.8 -0.776817 346.881 -2.59392 349.849 4.82253C352.641 11.7983 357.498 13.3542 358.966 7.74278C359.694 4.95699 360.195 4.74927 362.191 6.40559C364.176 8.05204 364.555 7.9322 364.555 5.65817C364.555 3.183 364.784 3.15578 367.222 5.34226C368.689 6.65836 372.46 8.21232 375.604 8.79559C378.955 9.41748 381.319 10.7312 381.319 11.972C381.319 16.0615 387.289 14.1804 389.816 9.29492C391.477 6.08315 392.672 5.11146 393.437 6.3498C394.657 8.32389 420.943 9.80921 420.943 7.90407C420.943 7.32456 425.487 6.85014 431.042 6.85014C439.634 6.85014 441.252 7.27607 441.887 9.70733C442.704 12.8304 444.609 13.4348 446.089 11.0406C447.571 8.6429 452.523 9.26121 453.564 11.9741C454.275 13.827 455.006 14.0177 456.535 12.7493C457.649 11.8241 459.013 11.5182 459.565 12.0696C460.116 12.6213 460.567 12.2611 460.567 11.2693C460.567 8.8339 478.909 10.1856 480.486 12.7371C481.372 14.1693 482.556 14.011 485.53 12.063C492.016 7.81373 495.62 9.43689 495.62 16.6074C495.62 19.5447 499.328 23.231 502.282 23.231C503.552 23.231 505.658 21.707 506.963 19.8444L509.336 16.4578V20.2397C509.336 22.3714 510.666 24.8522 512.384 25.925C514.19 27.0531 515.432 27.2024 515.432 26.2912C515.432 25.4461 516.46 24.7547 517.718 24.7547C518.975 24.7547 520.004 23.9849 520.004 23.0442C520.004 21.8624 520.71 21.9202 522.29 23.231C523.869 24.5416 524.576 24.5994 524.576 23.4178C524.576 22.4771 526.29 21.7074 528.386 21.7074C530.756 21.7074 532.196 22.5708 532.196 23.9931C532.196 25.2502 533.225 26.2788 534.482 26.2788C535.739 26.2788 536.768 25.2744 536.768 24.0467C536.768 22.819 538.139 21.0806 539.816 20.1835C541.492 19.2865 542.864 17.5481 542.864 16.3204C542.864 13.3733 548.542 13.453 551.532 16.4417C554.465 19.3748 556.897 18.6863 558.846 14.3703C560.4 10.9305 564.829 9.88354 566.486 12.5642C567.57 14.3172 580.96 14.6693 580.972 12.945C580.983 10.9336 593.678 10.9451 594.956 12.9582C595.734 14.1831 596.166 13.5477 596.181 11.1561L596.204 7.46204L599.731 10.7752C604.105 14.8842 605.348 14.943 605.348 11.0415C605.348 7.58461 610.505 6.7619 612.512 9.89863C613.182 10.9462 615.365 12.7237 617.364 13.8486C620.403 15.5596 621.209 15.5596 622.293 13.8486C623.006 12.7237 623.6 11.2112 623.613 10.4875C623.641 8.97297 637.728 10.7796 638.876 12.4449C639.296 13.0522 640.839 13.9923 642.305 14.5334C644.24 15.2469 644.973 14.742 644.973 12.6952C644.973 8.97081 650.79 7.49738 653.762 10.469C656.165 12.8716 662.171 12.559 674.691 9.3796C679.272 8.21629 683.189 8.39448 690.453 10.0963C699.919 12.3139 704.409 12.0753 704.409 9.35474C704.409 8.60629 706.123 7.99391 708.219 7.99391C710.59 7.99391 712.029 8.85742 712.029 10.2796C712.029 11.5368 712.715 12.5652 713.553 12.5652C714.391 12.5652 715.077 10.851 715.077 8.75578C715.077 4.01392 720.481 3.41358 721.935 7.99391C722.887 10.9918 727.269 12.3597 727.269 9.65872C727.269 8.89822 731.042 8.041 735.653 7.75389C740.574 7.44725 744.038 7.86188 744.04 8.75578C744.041 9.60357 748.135 10.2796 753.269 10.2796C761.314 10.2796 762.87 9.79144 765.422 6.47006L768.35 2.66061L768.383 6.85095C768.403 9.15578 769.151 11.0415 770.049 11.0415C770.948 11.0415 772.638 11.8986 773.807 12.9462C780.298 18.767 780.391 18.7864 780.892 14.4384C781.267 11.1808 782.279 10.1752 785.562 9.79748C788.937 9.40937 789.753 9.9279 789.753 12.4641C789.753 14.2472 790.744 15.6128 792.039 15.6128C793.488 15.6128 794.325 14.1545 794.325 11.6305C794.325 8.07224 794.812 7.7194 798.897 8.31891C801.411 8.6878 803.469 8.49515 803.469 7.88982C803.469 6.34927 815.724 5.33936 816.63 6.80527C817.038 7.46491 818.9 7.6214 820.767 7.1523C822.634 6.6834 825.997 6.99804 828.24 7.8504C830.832 8.83582 832.647 8.86663 833.223 7.93519C834.422 5.99608 840.045 6.04401 840.045 7.99471C840.045 8.83277 841.074 9.51846 842.331 9.51846C843.925 9.51846 844.671 11.2479 844.794 15.2327C844.891 18.3756 845.291 19.7118 845.683 18.2021C846.263 15.9659 847.702 15.5422 853.446 15.9164C859.542 16.3131 860.617 16.8915 861.383 20.1852C861.973 22.7246 863.498 24.171 865.956 24.5236C867.985 24.8144 870.408 26.0976 871.342 27.3748C872.784 29.3461 873.528 28.9263 876.27 24.5962C879.701 19.1795 880.496 19.7634 881.675 28.566C882.247 32.8296 882.365 32.9065 883.442 29.7088C884.077 27.8231 885.374 26.214 886.324 26.1328C892.193 25.6314 900.409 26.831 901.362 28.3291C901.978 29.2975 902.494 27.8615 902.506 25.1375C902.526 20.8771 903.062 20.1852 906.34 20.1852C908.71 20.1852 910.15 21.0486 910.15 22.4708C910.15 23.7279 911.178 24.7566 912.436 24.7566C913.693 24.7566 914.722 25.4423 914.722 26.2803C914.722 27.1184 915.408 27.8041 916.246 27.8041C917.084 27.8041 917.77 26.1396 917.77 24.1052C917.77 20.2965 924.036 14.0899 927.881 14.0899C929.026 14.0899 929.962 13.0614 929.962 11.8043C929.962 10.3821 931.401 9.51846 933.772 9.51846C935.867 9.51846 937.582 10.2821 937.582 11.2153C937.582 12.2338 939.41 12.6438 942.154 12.241C946.554 11.5953 946.726 11.7887 946.726 17.4013C946.726 22.8647 947.015 23.2327 951.298 23.2327C954.425 23.2327 955.87 23.9844 955.87 25.6104C955.87 27.4262 957.221 27.8764 961.585 27.5151C966.602 27.0999 967.361 26.5113 967.797 22.6954L968.295 18.3486L971.803 21.6441C974.728 24.391 976.167 24.7191 980.45 23.6151C984.048 22.6877 985.734 21.2898 986.075 18.9522C986.65 15.0116 993.97 14.0355 993.97 17.8994C993.97 19.1565 994.656 20.1852 995.494 20.1852C996.333 20.1852 997.018 17.7051 997.018 14.6741C997.018 9.65891 997.327 9.25897 1000.45 10.2291C1005.23 11.7151 1014.02 11.2162 1016.3 9.33009C1017.34 8.46368 1021.29 7.94531 1025.08 8.17823C1028.87 8.4107 1032.45 8.11857 1033.04 7.53642C1033.62 6.95029 1035.69 6.47107 1037.63 6.47107C1040.21 6.47107 1041.43 7.59267 1042.18 10.6615C1043.49 16.0116 1045.19 17.0856 1052.41 17.1143C1056.99 17.1342 1058.44 16.4766 1059.06 14.0901C1059.88 10.9459 1067.12 9.57753 1067.12 12.5662C1067.12 13.4043 1068.15 14.0901 1069.41 14.0901C1070.67 14.0901 1071.7 13.0615 1071.7 11.8044C1071.7 9.25721 1077.08 8.65899 1078.55 11.0425C1079.07 11.8806 1080.83 12.5662 1082.45 12.5662C1084.54 12.5662 1085.41 13.6182 1085.41 16.1217C1085.41 18.0773 1085.83 20.0941 1086.34 20.6034C1087.62 21.8848 1093.03 18.321 1093.03 16.1958C1093.03 13.9996 1095.87 11.7133 1100.27 10.3643C1102.89 9.56181 1103.7 9.92191 1103.7 11.8882C1103.7 14.0043 1104.11 14.1251 1105.99 12.5662C1107.96 10.9255 1108.27 11.6436 1108.27 17.8826V25.0958L1113.49 24.1169C1117.25 23.4111 1120.03 23.9421 1123.45 26.019C1127.24 28.3252 1129.47 28.652 1134.61 27.6566C1138.15 26.9727 1141.51 26.3834 1142.08 26.3468C1142.65 26.3137 1143.34 24.3948 1143.6 22.0901C1144.08 17.9637 1144.25 17.8995 1154.75 17.8995C1165.26 17.8995 1165.43 17.9658 1165.9 22.0901C1166.24 25.0504 1167.25 26.2804 1169.33 26.2804C1170.95 26.2804 1172.28 25.5947 1172.28 24.7567C1172.28 23.9186 1173.99 23.2328 1176.09 23.2328C1178.81 23.2328 1179.9 24.0574 1179.9 26.1028C1179.9 27.6911 1181.26 29.3284 1182.95 29.7695C1184.93 30.2874 1186 29.8159 1186 28.4235C1186 27.1535 1187.55 26.2804 1189.81 26.2804C1192.52 26.2804 1193.62 27.105 1193.62 29.1504C1193.62 32.1724 1199.1 34.6042 1200.56 32.2326C1202.25 29.5024 1207.33 30.7537 1207.33 33.8994C1207.33 37.1367 1211.25 38.1604 1212.24 35.1828C1212.92 33.1485 1223.05 33.0419 1223.72 35.0616C1223.97 35.8021 1226.13 36.1205 1228.52 35.769C1230.92 35.418 1233.34 35.8815 1233.91 36.8002C1235.28 39.0104 1241.97 38.9494 1242.71 36.7194C1243.49 34.3831 1254.57 36.434 1254.6 38.9201C1254.62 40.1275 1255.09 40.0215 1255.98 38.6101C1257.37 36.4242 1272.53 35.5597 1285.82 36.9091C1289.17 37.2495 1293.11 36.9813 1294.58 36.3124C1296.5 35.4392 1297.25 35.7613 1297.25 37.4551C1297.25 41.3911 1300.01 41.8592 1307.85 39.2548C1312.54 37.6951 1317.3 37.1382 1320.61 37.7593C1323.61 38.3223 1327.27 38.0083 1329.09 37.0321C1332.21 35.3639 1332.3 35.6125 1332.3 45.8056C1332.3 64.7321 1330.53 79.6126 1328.27 79.6126C1327.13 79.6126 1326.2 80.984 1326.2 82.6602C1326.2 84.8951 1325.19 85.7078 1322.39 85.7078C1320.02 85.7078 1318.58 86.5713 1318.58 87.9936C1318.58 89.4039 1317.15 90.2793 1314.85 90.2793C1311.33 90.2793 1311.08 89.7256 1310.66 80.7555L1310.66 80.7553Z" fill="black"/>
</svg>
