<svg width="465" height="39" viewBox="0 0 465 39" fill="none" xmlns="http://www.w3.org/2000/svg">
<path d="M35.8093 30.1809C35.8175 25.9351 35.9227 21.9864 36.0429 21.4057C36.1632 20.8252 36.2867 20.5283 36.3176 20.746C36.3503 20.9637 36.4546 20.8544 36.5528 20.5033C36.7876 19.6632 37.9029 19.5191 37.9088 20.328C37.9107 20.6306 38.0238 21.0535 38.1599 21.2684C38.3438 21.5591 38.4575 21.3569 38.6054 20.4767C38.7974 19.3335 38.81 19.3205 38.9829 20.0861C39.1174 20.6813 39.1691 20.7343 39.1928 20.2997C39.2335 19.5745 39.6437 19.2923 39.8559 19.8454C39.9436 20.0741 40.0422 24.2004 40.0744 29.0149L40.1335 37.7684L40.2725 28.883C40.3492 23.996 40.4975 19.9115 40.6027 19.8063C40.7079 19.7011 40.9753 19.7652 41.1963 19.9491C41.5285 20.2247 41.5986 20.2084 41.5986 19.8549C41.5986 19.6025 41.8155 19.4266 42.1263 19.4266C42.5376 19.4266 42.6627 19.6158 42.6935 20.2843C42.7261 20.9967 42.7506 21.0286 42.8374 20.4724C42.9984 19.4401 43.8019 19.0608 44.7684 19.5608C45.2016 19.785 45.556 19.8747 45.556 19.761C45.556 19.6468 45.7879 19.4087 46.0716 19.2317C46.4922 18.9687 46.7348 18.9936 47.389 19.3663C48.1666 19.809 48.1916 19.8828 48.2135 21.8021C48.2379 23.8777 48.2807 23.9193 48.6278 22.198C48.8341 21.176 48.8459 21.2012 48.9988 22.9898L49.1565 24.8372L49.2034 22.4538L49.2498 20.0704L50.1073 19.7141C50.5789 19.5184 51.0538 19.3732 51.1626 19.3924C51.2715 19.4128 51.3603 19.3108 51.3603 19.1685C51.3603 19.0116 51.6188 19.0282 52.0199 19.2109C52.4711 19.4164 52.6825 19.7275 52.689 20.195L52.6972 20.8784L53.2813 20.1751C53.7112 19.6576 54.1093 19.4723 54.7888 19.4737C55.2967 19.4746 55.831 19.4411 55.9761 19.3991C56.1212 19.3571 56.4908 19.4072 56.7976 19.5132C57.574 19.7787 57.6765 20.949 57.7376 30.2476L57.7886 38.0331L57.9691 31.0393C58.0686 27.1928 58.1652 23.0659 58.184 21.8684C58.2206 19.4841 58.5211 19.0665 58.9406 20.8127L59.2101 21.9343L59.2427 20.6808C59.259 19.9913 59.3931 19.4272 59.5382 19.4272C59.6833 19.4272 59.8019 19.6017 59.8019 19.8149C59.8019 20.051 59.9564 20.1432 60.1977 20.0506C60.5271 19.9242 60.5996 20.2468 60.6294 21.9723C60.6661 24.1812 60.7293 24.0503 60.9979 21.1933L61.1666 19.3963L61.7943 19.8077C62.5745 20.3191 62.7043 20.3212 62.7043 19.824C62.7043 19.3423 63.2438 19.415 63.6843 19.9561C63.9709 20.308 64.008 20.308 64.019 19.9561C64.0312 19.6043 64.0598 19.6043 64.2872 19.9561C64.5147 20.308 64.544 20.308 64.5509 19.9561C64.5546 19.7384 64.6683 19.3876 64.8016 19.1766C65.0095 18.848 65.1408 18.8447 65.721 19.1562C66.3469 19.4914 66.3977 19.6551 66.3977 21.3369C66.3977 22.4819 66.4952 23.0949 66.6615 22.9921C66.8066 22.9024 66.9272 22.3313 66.9293 21.723C66.9333 20.2025 67.432 19.4423 67.4801 20.8808C67.5005 21.4614 67.606 22.2927 67.7169 22.7282C67.8746 23.3479 67.9317 23.1184 67.9806 21.6726C68.0295 20.2266 68.087 19.9972 68.2444 20.6169L68.4457 21.4087L68.4783 20.5792C68.5109 19.6884 69.2311 19.1596 69.6057 19.7502C69.7239 19.9365 69.8344 20.7423 69.8511 21.5406C69.8756 22.6682 69.9286 22.8449 70.0928 22.3323C70.209 21.9694 70.3158 21.2418 70.3305 20.7152C70.3468 20.1887 70.5351 19.61 70.7525 19.4293C71.0904 19.1488 71.1524 19.2307 71.1764 19.9908C71.2049 20.8666 71.209 20.87 71.4731 20.2065C71.7083 19.6157 71.8929 19.534 72.9621 19.5467C74.1466 19.5589 74.1872 19.5882 74.3429 20.4849C74.4896 21.3302 74.5063 21.2977 74.541 20.102C74.5695 19.086 74.6486 18.866 74.8948 19.1124C75.0688 19.2865 75.5438 19.4292 75.9501 19.4292H76.6889L76.7296 21.6065C76.75 22.804 76.8112 23.4275 76.8625 22.992C76.9139 22.5566 77.0235 21.5768 77.1059 20.8147C77.249 19.4929 77.2913 19.4292 78.0284 19.4292H78.8009L78.8522 21.6065L78.904 23.7837L78.9851 21.9363C79.03 20.9203 79.1278 19.8207 79.2028 19.4928C79.3304 18.9346 79.3781 18.922 79.9483 19.2958C80.2833 19.5151 80.6381 19.6143 80.7368 19.5156C80.8355 19.4169 81.0654 19.5401 81.2479 19.7896C81.5602 20.2166 81.6099 20.2147 82.1026 19.7569C82.5378 19.3529 82.9477 19.2893 84.5386 19.3798L86.4514 19.4887L86.4799 20.3166C86.5003 20.8533 86.5562 20.9654 86.6405 20.6355C86.9132 19.5655 87.8709 19.1091 88.5075 19.7459C88.7537 19.9921 88.8242 19.9885 88.8242 19.7296C88.8242 19.2828 91.6967 19.4829 91.9851 19.9497C92.1417 20.2029 92.2627 20.1642 92.479 19.7915C92.7403 19.3413 92.7664 19.3386 92.7737 19.7589C92.7775 20.0129 92.9005 20.2208 93.0456 20.2208C93.1907 20.2208 93.3093 20.0883 93.3093 19.926C93.3093 19.7612 93.5421 19.6923 93.8367 19.7694C94.1269 19.8452 94.4306 19.7979 94.5118 19.6683C94.8987 19.0421 95.3951 19.4897 95.4906 20.5508L95.5917 21.6724L95.6378 20.4467C95.6802 19.3165 95.7352 19.224 96.3433 19.2591C96.9035 19.2918 97.0027 19.4263 97.0028 20.1549C97.003 20.6267 97.1214 21.0127 97.267 21.0127C97.4121 21.0127 97.5307 20.7158 97.5307 20.3528C97.5307 19.9899 97.6493 19.693 97.7944 19.693C97.9485 19.693 98.0581 20.578 98.0581 21.8199C98.0581 23.1707 98.1543 23.8873 98.3219 23.7837C98.467 23.694 98.5856 22.9814 98.5856 22.2002C98.5856 20.8472 98.9158 20.1037 99.2018 20.8131C99.2752 20.9953 99.3543 20.7291 99.3771 20.2209C99.4016 19.7129 99.4868 19.4753 99.5695 19.693C99.6523 19.9108 99.8381 20.166 99.9827 20.2601C100.127 20.3543 100.329 21.4826 100.432 22.7674L100.619 25.1033L100.689 22.86C100.741 21.2092 100.812 20.8259 100.96 21.4085C101.071 21.8439 101.176 22.0448 101.193 21.8548C101.209 21.6648 101.343 21.5828 101.488 21.6725C101.64 21.7663 101.753 21.5208 101.755 21.0943C101.76 20.033 102.037 19.1471 102.31 19.3159C102.438 19.3954 102.56 20.8488 102.58 22.5458L102.617 25.6313L102.838 23.1318C103.101 20.1665 103.344 19.4159 103.61 20.7489C103.786 21.6334 103.795 21.6398 103.829 20.9017C103.865 20.0723 104.521 19.1655 105.082 19.1655C105.71 19.1655 105.974 20.155 106.01 22.645C106.051 25.3672 106.128 25.1755 106.38 21.7387C106.506 20.0073 106.642 19.4294 106.921 19.4294C107.126 19.4294 107.295 19.5778 107.297 19.7593C107.301 19.9807 107.388 19.9591 107.566 19.6932C107.795 19.3507 107.883 19.3662 108.221 19.8094C108.436 20.0912 108.612 20.1752 108.612 19.9958C108.612 19.8164 108.761 19.6941 108.942 19.7238C109.123 19.7524 109.598 19.6427 109.997 19.4779C110.878 19.1142 112.294 19.3552 112.505 19.9048C112.626 20.2212 112.703 20.1865 112.868 19.7396C113.164 18.9386 113.835 19.2875 113.963 20.3092L114.068 21.1444L114.111 20.2207C114.147 19.4226 114.243 19.297 114.812 19.297C115.175 19.297 115.472 19.4308 115.472 19.5947C115.472 19.7643 115.812 19.8634 116.263 19.8251C117.036 19.7594 117.055 19.7883 117.073 20.979C117.106 23.1402 117.543 23.4643 117.564 21.3427C117.572 20.2904 117.65 19.4294 117.733 19.4294C117.816 19.4294 118.054 19.599 118.261 19.8065C118.558 20.1038 118.649 21.2887 118.693 25.4147L118.748 30.6458L118.891 25.316C119.027 20.2383 119.061 19.9603 119.621 19.4394L120.209 18.8926L120.346 19.4909C120.422 19.8199 120.519 21.0393 120.563 22.2006L120.642 24.3119L120.695 21.8707C120.748 19.4568 120.756 19.4294 121.408 19.4294C121.849 19.4294 122.078 19.5827 122.098 19.8913C122.127 20.3201 122.139 20.3207 122.248 19.8995C122.347 19.5215 122.452 19.4995 122.877 19.765C123.249 19.9974 123.395 20.4057 123.418 21.2737L123.451 22.4637L123.79 21.1442L124.129 19.8246L124.196 20.8803L124.264 21.936L124.384 21.0122C124.485 20.2338 124.537 20.1716 124.719 20.6163C124.902 21.0646 124.937 21.0248 124.957 20.3525C124.993 19.1366 125.305 18.8117 125.841 19.4374C126.195 19.8515 126.301 20.5622 126.343 22.7967L126.395 25.6308L126.541 22.5958C126.682 19.6383 126.692 19.5978 126.936 21.0123L127.186 22.4638L127.355 21.0123C127.447 20.214 127.542 19.8873 127.566 20.2865C127.617 21.1541 128.129 21.2687 128.155 20.4186C128.172 19.852 128.184 19.849 128.401 20.3525L128.627 20.8804L128.696 20.3525C128.733 20.0622 128.838 20.9529 128.928 22.3319L129.091 24.8391L129.142 22.2659C129.17 20.7601 129.302 19.6928 129.456 19.6928C129.601 19.6928 129.736 20.0194 129.756 20.4185C129.788 21.0408 129.808 21.0596 129.906 20.5507C129.969 20.2241 130.116 19.9569 130.233 19.9569C130.571 19.9569 130.772 21.4081 130.813 24.1465L130.85 26.6866L131.142 23.1443C131.333 20.827 131.544 19.5655 131.754 19.4967C131.933 19.438 132.146 19.7193 132.238 20.136C132.496 21.3025 132.578 21.4546 132.6 20.8146C132.612 20.472 132.788 20.2208 133.017 20.2208C133.317 20.2208 133.423 20.5861 133.459 21.7383L133.505 23.2558L133.676 21.4084L133.847 19.561L133.923 21.5403C133.994 23.3526 134.019 23.4306 134.218 22.464C134.339 21.8834 134.443 20.963 134.452 20.4187C134.46 19.8744 134.586 19.429 134.731 19.429C135.067 19.429 135.029 19.0592 135.244 24.4434L135.429 29.0619L135.521 25.631C135.602 22.648 135.636 22.424 135.786 23.9155L135.959 25.631L136.023 23.5197C136.067 22.0626 136.158 21.5719 136.314 21.9362C136.489 22.3431 136.549 22.1915 136.577 21.2765C136.61 20.2224 136.646 20.1556 136.9 20.6826C137.206 21.3176 137.633 21.4805 137.633 20.9619C137.633 20.7891 137.808 20.8784 138.02 21.1601C138.338 21.58 138.419 23.1238 138.47 29.7218C138.503 34.1489 138.567 36.7023 138.608 35.3959C138.838 28.0566 139.228 21.2982 139.453 20.7343C139.659 20.2174 139.721 20.4827 139.76 22.0682L139.811 24.0476L140.028 22.3713C140.147 21.4494 140.301 20.5587 140.369 20.392C140.438 20.2252 140.52 24.008 140.552 28.7981C140.588 34.1226 140.687 36.9431 140.81 36.0557C140.921 35.2574 141.023 32.1696 141.039 29.1939C141.055 26.2183 141.154 22.9524 141.261 21.9363L141.454 20.0889L141.613 21.4085C141.767 22.6888 141.773 22.6731 141.819 20.8806L141.866 19.0332L142.35 19.6629C142.67 20.0797 142.897 20.1912 143.019 19.9928C143.399 19.3789 143.675 19.7294 143.771 20.9466L143.869 22.2001L143.917 20.8429C143.95 19.9128 144.089 19.4377 144.361 19.3336C144.601 19.241 144.756 19.3331 144.756 19.5693C144.756 20.0421 145.189 20.0827 145.373 19.6272C145.446 19.4458 145.515 19.8543 145.527 20.5353C145.539 21.2162 145.667 21.8467 145.811 21.9364C145.973 22.0363 146.075 21.6315 146.075 20.8964C146.075 20.2346 146.192 19.6932 146.334 19.6932C146.494 19.6932 146.622 22.0869 146.669 25.9611L146.745 32.2291L146.806 25.8292C146.838 22.3092 146.951 19.4292 147.055 19.4292C147.158 19.4292 147.51 19.7559 147.837 20.1551L148.431 20.8808L148.439 20.1551C148.443 19.7559 148.563 19.4292 148.703 19.4292C149.344 19.4292 149.506 20.7512 149.549 26.3397L149.595 32.2291L149.758 26.2884C149.848 23.021 150.021 20.1877 150.142 19.9922C150.531 19.3621 150.811 20.2128 150.868 22.2004L150.921 24.0478L151.087 21.8045C151.178 20.5707 151.283 19.9769 151.32 20.4849C151.357 20.9929 151.49 21.6461 151.614 21.9364C151.788 22.3401 151.846 22.1848 151.864 21.2766C151.876 20.6235 151.973 19.9664 152.08 19.8163C152.246 19.5835 152.786 19.5044 153 19.6821C153.036 19.7107 153.333 19.7666 153.659 19.8033C154.047 19.8461 154.259 19.7242 154.271 19.4514C154.284 19.1444 154.35 19.1733 154.517 19.5615C154.641 19.8518 154.764 21.3363 154.788 22.8604C154.841 26.115 155.241 25.5399 155.282 22.1502C155.298 20.9613 155.427 19.9151 155.572 19.8254C155.717 19.7357 155.838 19.8172 155.84 20.0077C155.844 20.2588 155.914 20.2449 156.099 19.9571C156.292 19.6594 156.357 19.7907 156.363 20.4849C156.367 21.1793 156.435 21.3103 156.627 21.0128C156.768 20.795 156.885 20.3068 156.887 19.9278C156.89 19.3357 156.984 19.2563 157.55 19.3647C158.169 19.483 158.212 19.5984 158.253 21.2415L158.296 22.9921L158.46 21.5406L158.625 20.089L158.921 21.0128L159.218 21.9364L159.242 20.7357C159.271 19.3734 159.68 18.7429 160.239 19.2069C160.433 19.3679 161.184 19.4996 161.908 19.4996H163.223L163.274 21.5097L163.325 23.5199L163.421 21.8118C163.487 20.6267 163.591 20.2225 163.761 20.4921C163.942 20.7784 164.017 20.6377 164.042 19.957L164.079 19.0333L164.28 19.8251C164.437 20.4406 164.489 20.4881 164.513 20.0388C164.546 19.4199 165.069 18.9008 165.076 19.4798C165.08 19.7203 165.139 19.7354 165.274 19.5287C165.599 19.0307 166.653 19.596 166.671 20.2787C166.688 20.8796 166.688 20.8797 166.917 20.3154C167.348 19.2475 167.709 19.3462 167.729 20.5368C167.741 21.3926 167.801 21.5434 167.963 21.1462C168.139 20.7182 168.201 20.818 168.296 21.674C168.389 22.5066 168.422 22.3857 168.458 21.1022C168.503 19.4399 168.708 19.1352 169.623 19.3726C169.95 19.4574 170.092 19.7725 170.109 20.4512L170.133 21.4101L170.397 20.4905L170.661 19.5709L171.023 20.2266C171.378 20.8665 171.387 20.8682 171.395 20.2975C171.4 19.9762 171.642 19.5859 171.932 19.4305C172.351 19.2063 172.46 19.2299 172.46 19.5447C172.46 19.7889 172.612 19.8832 172.856 19.7898C173.171 19.6687 173.259 19.8974 173.288 20.9197C173.308 21.6247 173.404 25.5862 173.502 29.723L173.68 37.2446L173.729 28.485C173.78 19.6417 173.879 18.7668 174.712 19.8658C175.008 20.2564 175.087 21.8843 175.11 28.0076C175.126 32.2171 175.233 36.1955 175.349 36.8487C175.476 37.5616 175.573 34.3351 175.593 28.7774C175.613 23.6849 175.703 19.441 175.798 19.3465C176.264 18.8802 176.668 20.2525 176.717 22.4654L176.768 24.8406L176.923 22.2893C177.008 20.8861 177.166 19.6491 177.275 19.5402C177.384 19.4314 177.473 19.4811 177.473 19.6504C177.473 19.8196 177.643 19.9582 177.85 19.9582C178.058 19.9582 178.279 20.2253 178.342 20.552C178.441 21.0669 178.461 21.0505 178.492 20.4284C178.517 19.9067 178.636 19.7524 178.924 19.8629C179.258 19.9913 179.328 20.9827 179.369 26.2545L179.418 32.4942L179.596 26.9521C179.694 23.9038 179.79 20.8813 179.81 20.2354C179.839 19.3675 179.925 19.1382 180.144 19.3571C180.307 19.5202 180.603 19.5903 180.803 19.5137C181.084 19.4056 181.174 19.7236 181.199 20.9198L181.231 22.4656L181.529 20.7924C181.808 19.2252 182.196 18.8312 182.243 20.0684C182.255 20.3709 182.324 20.4692 182.398 20.2865C182.829 19.217 183.019 20.9317 183.058 26.2418C183.095 31.3061 183.132 31.8026 183.29 29.4592C183.392 27.935 183.492 25.1215 183.509 23.2068C183.53 21.2073 183.654 19.6561 183.806 19.5624C183.951 19.4727 184.07 19.5642 184.07 19.7666C184.07 19.9689 184.248 20.134 184.465 20.134C184.683 20.134 184.861 20.0394 184.861 19.9232C184.861 19.8074 185.109 19.5803 185.411 19.4183C186.06 19.0705 186.87 19.643 187.053 20.5793C187.139 21.0214 187.172 20.9829 187.2 20.4044C187.22 19.9966 187.346 19.7314 187.481 19.8149C187.617 19.8985 187.81 19.8353 187.91 19.6706C188.04 19.4606 188.159 19.4785 188.32 19.7321C188.491 20.0016 188.549 19.9596 188.555 19.5621C188.559 19.1535 188.616 19.1175 188.796 19.4027C188.925 19.6053 189.219 19.6979 189.452 19.609C189.773 19.4858 189.878 19.6171 189.891 20.1643C189.907 20.8264 189.923 20.8386 190.134 20.3217C190.325 19.8491 191.146 19.4321 191.918 19.4166C192.027 19.4147 192.189 19.8619 192.277 20.411C192.437 21.4024 192.438 21.4034 192.475 20.5517C192.508 19.787 192.735 19.5623 193.37 19.6627C193.479 19.679 193.577 19.4862 193.589 19.2321C193.601 18.9357 193.736 19.0544 193.959 19.562C194.329 20.4019 194.558 20.4857 194.92 19.9143C195.048 19.7116 195.168 21.4139 195.202 23.9164L195.262 28.271L195.41 24.1804L195.559 20.0897L195.694 23.1247L195.83 26.1597L195.886 22.7948C195.939 19.6246 195.973 19.4299 196.47 19.4299C196.761 19.4299 196.998 19.5571 196.998 19.7124C196.998 19.8678 197.206 19.7875 197.46 19.5331C197.9 19.093 197.929 19.1077 198.088 19.8442C198.201 20.3671 198.265 20.4416 198.286 20.0745C198.311 19.644 198.477 19.5427 199.09 19.585C199.514 19.6136 199.979 19.711 200.122 19.7999C200.266 19.8884 200.429 19.8244 200.484 19.6576C200.56 19.4297 200.726 19.4293 201.149 19.6558C201.634 19.9155 201.738 19.8768 201.896 19.3773C202.08 18.7975 202.08 18.7975 202.513 19.3316C202.751 19.6256 203.091 19.8173 203.27 19.7578C203.485 19.686 203.606 19.9894 203.63 20.6613C203.659 21.4329 203.698 21.5164 203.802 21.0132L203.939 20.3533L204.136 21.0132C204.296 21.5481 204.339 21.4482 204.363 20.4853C204.404 18.9343 204.886 19.5839 204.951 21.2771C204.988 22.2535 205.017 22.3121 205.104 21.6069C205.163 21.1352 205.314 20.7492 205.439 20.7492C205.565 20.7492 205.719 20.4822 205.783 20.1554C205.845 19.8288 205.927 20.215 205.964 21.0132C206 21.8115 206.079 22.2271 206.138 21.9368C206.547 19.9365 206.825 19.4668 207.588 19.4885C208.003 19.5007 208.343 19.5908 208.343 19.6899C208.343 19.7886 208.521 19.8697 208.739 19.8697C208.957 19.8697 209.135 19.7707 209.135 19.65C209.135 19.2128 209.663 19.4416 209.693 19.8918C209.722 20.3205 209.734 20.3212 209.843 19.8999C209.942 19.5219 210.047 19.4999 210.472 19.7653C210.952 20.0654 210.984 20.4626 211.013 26.5523C211.029 30.1099 211.13 33.7927 211.236 34.7362C211.364 35.8736 211.452 34.0504 211.496 29.3259C211.532 25.4068 211.646 22.4972 211.749 22.8601L211.935 23.5198L212.114 22.8601C212.213 22.4972 212.313 21.6064 212.337 20.8807L212.38 19.5611L212.54 20.7487L212.701 21.9363L213.032 20.6827C213.287 19.7195 213.486 19.4292 213.888 19.4292C214.199 19.4292 214.424 19.6163 214.443 19.8909C214.471 20.316 214.483 20.3149 214.597 19.8787C214.802 19.0854 215.462 19.8828 215.507 20.9807C215.544 21.8505 215.555 21.8657 215.645 21.1463C215.828 19.6813 216.009 19.1445 216.266 19.3037C216.408 19.3905 216.537 19.8409 216.554 20.3041L216.587 21.1463L216.788 20.3546C216.899 19.9191 217.003 19.7258 217.021 19.925C217.045 20.2121 217.131 20.2211 217.437 19.9678C217.945 19.5454 218.083 20.1518 218.185 23.2577L218.262 25.6329L218.335 22.73C218.376 21.1333 218.51 19.5893 218.634 19.299C218.822 18.8631 218.867 18.9321 218.897 19.695C218.929 20.5201 218.957 20.5552 219.17 20.0248C219.302 19.6982 219.519 19.431 219.653 19.431C220.046 19.431 220.214 20.1471 220.264 22.0257L220.311 23.7855L220.481 21.9382C220.612 20.5222 220.671 21.1694 220.733 24.7093C220.873 32.645 221.173 34.1577 221.284 27.4803C221.349 23.6097 221.426 22.4221 221.516 23.9176L221.651 26.1608L221.807 23.5217C221.912 21.7324 221.991 23.3899 222.051 28.6679L222.14 36.4534L222.462 28.198C222.64 23.6575 222.86 19.8671 222.952 19.7748C223.044 19.6822 223.136 20.0125 223.156 20.5086C223.181 21.1269 223.228 21.2237 223.307 20.8165C223.436 20.1454 223.657 20.074 224.134 20.5502C224.395 20.8112 224.513 20.7977 224.714 20.4842C224.938 20.1356 224.997 20.1356 225.227 20.486C225.37 20.7038 225.489 21.0828 225.491 21.3282C225.493 21.5737 225.601 21.8401 225.731 21.9205C226.035 22.1088 226.286 21.4461 226.286 20.4533C226.286 19.411 226.794 18.845 227.287 19.338C227.483 19.5341 227.872 19.6944 228.152 19.6944C228.449 19.6944 228.673 19.8864 228.691 20.1562C228.72 20.5699 228.734 20.572 228.838 20.1766C228.959 19.7216 230.342 19.0895 230.617 19.364C230.701 19.4488 230.794 20.5378 230.822 21.7837C230.867 23.8116 230.881 23.8692 230.955 22.3335C231.001 21.39 231.11 20.3211 231.198 19.9583C231.349 19.3385 231.372 19.3305 231.574 19.8262C231.765 20.2954 231.791 20.301 231.808 19.8768C231.82 19.5913 231.946 19.4735 232.124 19.5836C232.57 19.8588 234.464 19.9179 234.464 19.6566C234.464 19.5322 234.643 19.4303 234.86 19.4303C235.108 19.4303 235.267 19.7006 235.287 20.156C235.307 20.6025 235.364 20.7041 235.438 20.4199C235.504 20.1658 235.655 19.958 235.772 19.958C236.136 19.958 236.302 21.04 236.359 23.7847L236.415 26.4238L236.575 23.6528C236.664 22.1287 236.776 21.238 236.825 21.6735C236.909 22.4193 236.925 22.404 237.103 21.4097C237.274 20.4514 237.295 20.5123 237.333 22.0695C237.413 25.3879 238.07 24.3671 238.182 20.7499C238.234 19.0495 238.625 20.9236 238.705 23.2571L238.777 25.3684L238.942 23.6529L239.107 21.9375L239.242 23.521L239.377 25.1045L239.43 23.1251C239.459 22.0365 239.568 20.8488 239.672 20.486C239.85 19.859 239.868 19.8721 240.029 20.7498C240.18 21.5709 240.203 21.518 240.234 20.2723C240.254 19.4132 240.371 18.9343 240.532 19.0343C240.697 19.1363 240.819 22.3805 240.856 27.6931L240.917 36.1888L241.06 28.0074C241.139 23.5077 241.245 20.4199 241.297 21.1457L241.39 22.4652L241.669 21.4661C241.837 20.8646 242.077 20.5159 242.27 20.5901C242.446 20.6578 242.65 20.4841 242.724 20.2035C242.916 19.4673 243.434 19.5768 243.434 20.3536C243.434 21.2704 243.754 21.1773 244.339 20.0898C244.973 18.9114 245.543 18.8804 245.549 20.0237C245.553 20.6746 245.614 20.786 245.808 20.4856C246.036 20.1337 246.066 20.1337 246.076 20.4856C246.084 20.7649 246.175 20.7261 246.383 20.3535C246.822 19.5679 246.871 19.5426 247.138 19.9653C247.273 20.179 247.405 23.9757 247.432 28.4029L247.48 36.4523L247.661 28.6457C247.776 23.7139 247.951 20.6526 248.137 20.3324C248.39 19.8945 248.437 19.9692 248.473 20.8814L248.516 21.937L248.679 21.0343C248.941 19.5851 249.502 19.6904 249.503 21.1892L249.505 22.4648L249.899 21.7089C250.116 21.2931 250.294 20.4688 250.294 19.877C250.294 18.8743 250.318 18.836 250.681 19.3134C250.894 19.5951 251.072 20.0999 251.077 20.4351C251.081 20.7703 251.196 20.9761 251.331 20.8924C251.466 20.8089 251.627 21.069 251.687 21.4706C251.784 22.1106 251.803 22.0868 251.841 21.2774C251.897 20.1064 252.297 19.3706 252.538 19.9979C252.627 20.2295 252.792 24.2048 252.906 28.8317L253.112 37.2442L253.154 28.469C253.179 23.6427 253.291 19.6939 253.408 19.6939C254.142 19.6939 254.254 20.5114 254.31 26.2786L254.368 32.2299L254.508 26.4237C254.585 23.2303 254.723 20.8551 254.815 21.1454C254.923 21.4871 254.999 21.2543 255.031 20.4857C255.068 19.5643 255.131 19.4164 255.307 19.8259C255.484 20.2381 255.538 20.2587 255.552 19.9201C255.573 19.4685 256.362 18.9932 256.362 19.4332C256.362 19.5784 256.862 19.6151 257.55 19.5209C258.717 19.3606 258.737 19.3704 258.754 20.1197C258.77 20.814 258.79 20.8313 258.999 20.3146C259.291 19.5913 259.792 19.2724 259.792 19.8102C259.792 20.335 260.216 20.3455 260.415 19.8265C260.626 19.2775 261.373 19.3284 261.384 19.8926C261.392 20.3105 261.429 20.3056 261.779 19.842C262.125 19.3853 262.173 19.9007 262.226 24.5925L262.286 29.8552L262.364 25.0388C262.412 22.1313 262.545 20.2224 262.701 20.2224C262.842 20.2224 262.959 20.0442 262.959 19.8264C262.959 19.2677 263.482 19.331 263.505 19.8925C263.521 20.2876 263.557 20.2778 263.75 19.8264C263.917 19.4374 263.989 19.6797 264.022 20.7502C264.054 21.8571 264.114 22.0451 264.266 21.5419L264.466 20.8821L264.659 21.6738C264.96 22.9081 265.026 23.0365 265.048 22.4245C265.061 22.1118 265.336 21.3523 265.663 20.7372C266.141 19.8361 266.272 19.725 266.338 20.1653C266.383 20.4658 266.591 20.8538 266.8 21.0272C267.115 21.2886 267.186 21.2128 267.215 20.5845C267.247 19.8671 267.26 19.876 267.444 20.75L267.638 21.6738L267.675 20.8004C267.695 20.2925 267.82 19.9954 267.973 20.0902C268.118 20.1799 268.237 20.0698 268.237 19.8419C268.237 19.3172 268.371 19.3245 269.025 19.8852C269.452 20.2505 269.56 20.6776 269.575 22.0624C269.603 24.7196 270.043 25.2777 270.065 22.6852C270.086 20.2139 270.337 19.1383 270.639 20.2224C270.805 20.8195 270.825 20.8278 270.849 20.3104C270.885 19.5515 272.037 19.1559 273.088 19.5425C273.675 19.7586 273.887 19.748 273.972 19.4992C274.169 18.9234 274.833 19.8446 274.833 20.6929C274.833 21.1175 274.914 22.2245 275.014 23.153C275.237 25.24 275.558 24.4568 275.598 21.7246C275.614 20.7362 275.73 19.9933 275.86 20.0737C275.99 20.154 276.174 20.0158 276.27 19.7666C276.741 18.5394 276.939 20.6332 276.987 27.3483L277.04 34.6059L277.215 28.7998C277.407 22.4472 277.688 19.5081 278.023 20.3645C278.208 20.839 278.227 20.8419 278.244 20.3972C278.252 20.1309 278.411 19.9625 278.592 20.0225C278.818 20.0975 278.968 21.0772 279.067 23.1454L279.212 26.1592L279.274 23.2562C279.315 21.3247 279.463 20.1323 279.713 19.6933C279.921 19.3305 280.095 19.1947 280.1 19.3916C280.104 19.5967 280.275 19.686 280.496 19.6012C281.021 19.3998 281.256 19.8446 281.452 21.4088L281.618 22.7284L281.695 21.2769L281.771 19.8253L281.956 21.013L282.14 22.2006L282.181 20.815C282.21 19.777 282.32 19.4295 282.617 19.4295C282.85 19.4295 283.014 19.6733 283.016 20.0233C283.02 20.3499 283.136 20.7952 283.276 21.013C283.467 21.309 283.546 21.1426 283.586 20.3532C283.614 19.7726 283.714 20.3654 283.804 21.6727L283.968 24.048L284.049 21.9367C284.093 20.7755 284.184 20.0346 284.25 20.2904C284.317 20.546 284.481 20.6875 284.616 20.6048C284.762 20.5142 284.883 23.7427 284.92 28.7169L284.98 36.9798L285.118 28.9304C285.194 24.5033 285.326 21.2967 285.411 21.8047C285.551 22.638 285.577 22.5864 285.669 21.2769C285.726 20.4786 285.836 23.5664 285.915 28.1387L286.058 36.452L286.16 28.1387C286.216 23.5482 286.343 20.4163 286.443 21.1449L286.624 22.4645L286.707 21.013L286.789 19.5615L286.97 20.8811L287.151 22.2006L287.193 20.8529C287.234 19.5342 287.251 19.5059 288.025 19.5334C288.46 19.5497 288.816 19.6504 288.817 19.7593C288.817 20.1059 289.368 19.9725 289.826 19.5142C290.23 19.1097 290.276 19.1085 290.351 19.4979C290.399 19.745 290.592 19.8653 290.808 19.7825C291.125 19.661 291.195 20.7137 291.258 26.5929L291.333 33.5472L291.413 26.1576C291.457 22.0933 291.573 18.9589 291.672 19.1921C291.771 19.4254 292.059 19.5844 292.313 19.5453C292.567 19.5045 292.775 19.639 292.775 19.8404C292.775 20.3121 294.311 20.0399 294.884 19.4666C295.238 19.113 295.291 19.1195 295.369 19.5265C295.439 19.889 295.534 19.9192 295.831 19.6733C296.149 19.4091 296.208 19.7883 296.226 22.2325C296.25 25.5367 296.357 25.5422 296.606 22.2528C296.75 20.3547 296.886 19.8336 297.351 19.3982L297.92 18.8655L298.229 19.8728C298.399 20.4268 298.571 20.7019 298.612 20.4842C298.652 20.2664 298.756 21.5135 298.843 23.2553L299.001 26.4223L299.072 22.5955C299.153 18.2695 299.563 18.1765 299.653 22.4634L299.708 25.1025L300.001 22.2406C300.162 20.6665 300.383 19.469 300.492 19.5795C300.601 19.69 300.694 20.0277 300.698 20.3301C300.706 20.8703 300.714 20.871 301.094 20.3668C301.459 19.8834 301.483 19.9056 301.512 20.7627C301.528 21.2632 301.592 21.4339 301.654 21.1432C301.715 20.8529 301.824 20.3433 301.895 20.0107C301.966 19.678 302.139 19.4773 302.281 19.5644C302.422 19.6513 302.545 19.5682 302.555 19.3773C302.563 19.1873 302.667 19.2693 302.78 19.5596C302.98 20.0706 302.993 20.0685 303.175 19.4935C303.376 18.8607 303.856 18.6765 303.856 19.2321C303.856 19.4148 304.093 19.7129 304.384 19.8942C304.696 20.0895 304.911 20.1155 304.911 19.9573C304.911 19.5757 305.634 19.6283 305.792 20.021C305.869 20.2122 305.934 20.1502 305.946 19.8733C305.958 19.6107 306.085 19.4693 306.23 19.559C306.375 19.6487 306.517 20.6949 306.546 21.8838L306.597 24.0455L306.691 22.1981C306.8 20.0633 307.17 19.4054 307.417 20.9102C307.715 22.7297 307.751 22.7511 307.81 21.1426C307.86 19.753 307.892 19.6658 308.073 20.4302C308.355 21.6204 308.605 21.797 308.605 20.8062C308.605 19.6831 309.127 19.4218 309.151 20.533C309.159 21.0133 309.272 21.6438 309.396 21.9341C309.559 22.3137 309.628 22.0364 309.642 20.9444C309.658 19.7797 309.752 19.4269 310.056 19.4269C310.356 19.4269 310.463 19.7926 310.499 20.9444C310.545 22.4133 310.55 22.4224 310.645 21.2294C310.743 19.9989 311.463 18.9091 311.704 19.6265C311.766 19.8088 311.954 19.8712 312.123 19.7652C312.292 19.6592 312.698 19.5356 313.024 19.4908C313.588 19.4133 313.619 19.4989 313.636 21.1996C313.657 23.2112 314.092 22.8135 314.131 20.7467C314.147 19.8782 314.222 19.6655 314.409 19.955C314.613 20.2702 314.67 20.2167 314.688 19.6912C314.73 18.4549 315.158 19.9464 315.218 21.5386L315.273 22.9901L315.461 21.3364C315.679 19.4169 315.778 19.2506 316.357 19.8294C316.74 20.2127 316.784 20.2139 316.784 19.8417C316.784 19.0802 317.574 19.3827 317.596 20.1528C317.608 20.5664 317.68 20.7083 317.764 20.4826C318.071 19.6505 318.403 19.4279 318.922 19.7057C319.263 19.8883 319.422 19.8867 319.422 19.7016C319.422 19.4728 320.146 19.2905 320.246 19.4944C320.262 19.5311 320.363 20.8074 320.466 22.3315L320.653 25.1027L320.697 22.6458C320.726 20.9816 320.832 20.2453 321.023 20.3632C321.178 20.459 321.367 20.2987 321.443 20.0072C321.707 18.9973 323.099 19.1625 323.126 20.207C323.13 20.4447 323.302 20.3122 323.531 19.8901C323.959 19.1002 324.286 18.9813 324.618 19.4942C324.735 19.6757 324.899 21.2493 324.982 22.9911L325.133 26.1581L325.18 22.9886C325.223 20.073 325.271 19.7912 325.786 19.4701C326.422 19.0726 326.713 19.2719 326.883 20.22C327 20.8664 327.002 20.8651 327.038 20.154C327.07 19.5378 327.189 19.4282 327.837 19.4282C328.765 19.4282 328.914 19.7605 328.941 21.891C328.966 23.8398 329.083 23.6239 329.319 21.1946C329.463 19.7146 329.571 19.4129 329.932 19.4815C330.254 19.5427 330.413 19.9511 330.526 21.014L330.681 22.4632L330.724 20.9457C330.749 20.1111 330.817 19.4282 330.877 19.4282C331.632 19.4282 331.825 19.8576 331.867 21.6337L331.911 23.5188L332.085 22.0674C332.582 17.9106 333.117 18.9289 333.194 24.1787L333.254 28.2693L333.395 23.9147L333.537 19.5601L334.263 19.4765C334.791 19.4158 334.988 19.5091 334.988 19.8219C334.988 20.058 335.107 20.1774 335.252 20.0877C335.397 19.998 335.516 20.1081 335.516 20.336C335.516 20.9486 335.95 20.8334 336.203 20.1538C336.335 19.7999 336.483 22.8093 336.57 27.6094L336.715 35.6588L336.777 28.9289C336.843 21.8129 337.023 19.1486 337.398 19.7394C337.565 20.0033 337.619 20.0077 337.623 19.7598C337.626 19.5783 337.805 19.4299 338.022 19.4299C338.296 19.4299 338.431 19.7345 338.46 20.4196C338.502 21.394 338.504 21.3961 338.609 20.5517C338.667 20.08 338.827 19.694 338.963 19.694C339.11 19.694 339.23 23.1762 339.259 28.3372L339.309 36.9804L339.488 28.6671C339.703 18.6396 339.672 19.1848 340.001 19.694C340.141 19.9117 340.277 19.9713 340.302 19.8261C340.327 19.681 340.429 20.156 340.528 20.8817L340.709 22.2013L340.751 20.8158C340.783 19.7786 340.892 19.4303 341.188 19.4303C341.406 19.4303 341.585 19.6382 341.588 19.8921C341.592 20.262 341.638 20.2803 341.825 19.9855C341.954 19.7829 342.241 19.687 342.464 19.7727C342.687 19.8583 342.927 19.7849 342.997 19.6132C343.068 19.4399 343.161 22.4453 343.205 26.2919L343.284 33.2856L343.43 26.8197C343.553 21.3996 343.595 20.8873 343.69 23.6527L343.804 26.9516L343.947 23.1249C344.067 19.91 344.14 19.4037 344.403 19.958C344.667 20.5144 344.718 20.5375 344.733 20.1055C344.749 19.5984 344.753 19.5984 345.137 20.1055C345.47 20.547 345.525 20.5571 345.532 20.1781C345.549 19.2769 346.98 19.3903 347.228 20.3127C347.312 20.6258 347.402 23.7917 347.427 27.3479C347.464 32.5427 347.512 33.295 347.664 31.1747C347.768 29.7232 347.867 26.4191 347.884 23.8323C347.913 19.5565 347.953 19.1666 348.33 19.5436C348.8 20.0142 349.234 20.0866 349.234 19.6945C349.234 19.5493 349.65 19.4307 350.158 19.4307C350.853 19.4307 351.086 19.5448 351.102 19.8926C351.114 20.1686 351.176 20.2216 351.256 20.0246C351.452 19.5372 351.87 19.6243 351.889 20.1568C351.902 20.4887 351.987 20.4333 352.193 19.9586C352.439 19.3943 352.498 19.3684 352.595 19.7796C352.706 20.2448 352.722 20.2448 353.074 19.7796C353.401 19.3486 353.444 19.4355 353.485 20.6183L353.531 21.9379L353.72 20.8823L353.909 19.8266L353.989 20.8823C354.065 21.8909 354.077 21.8732 354.247 20.4864C354.345 19.688 354.445 19.295 354.468 19.6131C354.527 20.4071 354.947 20.6037 355.125 19.9209C355.258 19.4142 355.31 19.4002 355.683 19.7733C355.909 19.9996 356.11 20.5793 356.129 21.0614L356.166 21.938L356.36 21.0143C356.467 20.5062 356.579 23.5347 356.609 27.7441C356.637 31.9535 356.758 35.932 356.874 36.5852C357.001 37.3009 357.098 34.181 357.118 28.7338C357.139 22.9057 357.245 19.6947 357.415 19.6947C357.56 19.6947 357.688 19.9027 357.699 20.1566C357.716 20.526 357.751 20.539 357.874 20.2226C358.282 19.1737 360.129 18.8957 360.638 19.8066C360.873 20.2271 360.928 20.2289 361.367 19.8311C361.628 19.595 362.092 19.3829 362.398 19.3597C362.705 19.3353 362.959 19.1946 362.963 19.0442C362.967 18.8937 363.092 18.9781 363.241 19.2321C363.389 19.4862 363.675 19.694 363.876 19.694C364.106 19.694 364.282 20.0642 364.346 20.6836L364.45 21.6733L364.494 20.5517C364.538 19.4533 364.824 19.195 365.726 19.4389C365.871 19.4797 366.34 19.5221 366.769 19.5364C367.465 19.5608 367.578 19.6872 367.841 20.7499L368.136 21.9375L368.294 20.794C368.489 19.3813 368.695 19.1518 369.178 19.8111C369.548 20.3176 369.552 20.3175 369.556 19.8105C369.56 19.3842 369.602 19.3647 369.812 19.6943C370.007 20.0006 370.17 20.0242 370.532 19.7983C370.897 19.5712 371.072 19.6001 371.323 19.9304C371.534 20.2072 371.649 20.2399 371.654 20.0242C371.67 19.3872 372.156 19.7021 372.265 20.4201C372.373 21.1294 372.376 21.1274 372.415 20.33C372.451 19.5389 372.494 19.5127 373.773 19.4674L375.092 19.4209L375.137 20.4154L375.181 21.41L375.335 20.3543C375.419 19.7737 375.55 23.5147 375.626 28.6676L375.762 38.0366L375.823 28.7142C375.88 19.9965 375.914 19.3977 376.346 19.4807C376.771 19.5622 376.818 20.2633 376.945 28.4072L377.082 37.2448L377.193 28.6676C377.268 22.9447 377.359 20.9247 377.467 22.5976L377.63 25.1048L377.681 22.6959C377.718 20.9771 377.84 20.1972 378.109 19.9734C378.422 19.7137 378.505 19.8103 378.595 20.5349C378.697 21.3677 378.705 21.359 378.749 20.3543C378.781 19.5662 378.86 19.399 379.051 19.6945C379.263 20.0227 379.308 20.0002 379.315 19.5623C379.327 18.712 379.827 19.6618 379.869 20.618L379.906 21.4097L380.095 20.618L380.284 19.8262L380.477 20.8819C380.583 21.4626 380.708 22.1157 380.754 22.3335C380.8 22.5512 380.853 21.9575 380.873 21.0138C380.897 19.8003 380.982 19.4143 381.163 19.6943C381.366 20.0091 381.42 19.9577 381.422 19.4435C381.426 18.9405 381.497 18.8673 381.743 19.1137C381.917 19.2878 382.137 20.3508 382.231 21.4757C382.392 23.4011 382.405 23.4329 382.442 22.019C382.463 21.193 382.601 20.4437 382.746 20.354C382.891 20.2643 383.01 20.3255 383.01 20.4861C383.01 20.6484 383.128 20.7079 383.273 20.6182C383.418 20.5285 383.537 20.2247 383.537 19.9428C383.537 19.6611 383.656 19.4306 383.801 19.4306C383.946 19.4306 384.065 19.5492 384.065 19.6944C384.065 19.8396 384.243 19.9582 384.46 19.9582C384.803 19.9582 384.864 21.1507 384.917 28.8654L384.977 37.7724L385.114 29.1952C385.245 21.0469 385.574 18.5946 385.698 24.8407L385.756 27.7437L385.844 25.4253C385.897 24.0317 386.033 23.1694 386.186 23.2636C386.332 23.3541 386.458 22.8852 386.484 22.1511C386.526 20.9261 386.532 20.9182 386.634 21.9224C386.711 22.6766 386.807 22.8581 386.982 22.5821C387.137 22.3363 387.239 23.1829 387.269 24.9725C387.32 28.0764 387.41 27.6632 387.728 22.8612L387.946 19.5623L388.032 24.5766L388.117 29.591L388.298 25.3683C388.397 23.0459 388.494 20.8785 388.514 20.5519C388.535 20.2253 388.669 19.9581 388.814 19.9581C388.959 19.9581 389.082 20.2252 389.086 20.5519C389.094 21.1239 389.107 21.1274 389.473 20.6465C389.68 20.3721 389.898 20.0157 389.956 19.8548C390.206 19.1601 390.461 20.0896 390.648 22.3803L390.85 24.8406L390.929 21.9375C390.991 19.6514 391.043 19.3149 391.175 20.354C391.301 21.3528 391.376 21.5132 391.482 21.0138L391.622 20.354L391.933 21.097C392.119 21.5405 392.264 23.5084 392.292 25.9794L392.339 30.1189L392.522 25.2365C392.622 22.5512 392.719 20.1462 392.738 19.8922C392.78 19.3245 393.299 19.272 393.299 19.8355C393.299 20.1589 393.406 20.1837 393.827 19.9583C394.248 19.7328 394.355 19.7576 394.355 20.081C394.355 20.3036 394.473 20.4863 394.618 20.4863C394.77 20.4863 394.899 21.4139 394.921 22.6636L394.962 24.8409L395.215 22.1358C395.355 20.648 395.574 19.4306 395.704 19.4306C395.834 19.4306 395.951 19.7572 395.966 20.1564C395.99 20.8692 395.994 20.8708 396.17 20.2437C396.312 19.7369 396.551 19.5885 397.331 19.5245C397.872 19.48 398.33 19.4706 398.35 19.5041C398.371 19.5367 398.467 21.9981 398.565 24.9737L398.744 30.3839L398.793 25.0806C398.837 20.2686 398.887 19.7358 399.336 19.3299C399.804 18.906 399.838 18.9141 399.992 19.4869C400.081 19.8192 400.175 20.6257 400.202 21.2789C400.247 22.4005 400.255 22.4128 400.352 21.4994C400.456 20.5136 401.198 19.837 401.236 20.6934C401.248 20.9429 401.406 20.7301 401.59 20.2232C401.954 19.2139 402.61 18.9891 402.745 19.8273C402.929 20.9671 403.143 21.1584 403.337 20.3551L403.528 19.5634L403.561 20.3174C403.585 20.8724 403.697 21.0313 403.988 20.9195C404.314 20.7943 404.39 21.0818 404.419 22.5407L404.455 24.3139L404.678 22.2026C404.947 19.6458 405.104 18.9869 405.15 20.2232C405.175 20.9229 405.247 21.0509 405.44 20.751C405.612 20.486 405.711 21.9275 405.74 25.1056C405.788 30.3638 405.796 30.3492 406.249 24.2415C406.423 21.8793 406.669 19.883 406.795 19.8054C406.921 19.7279 407.023 19.8494 407.023 20.0757C407.023 20.302 407.142 20.4872 407.287 20.4872C407.432 20.4872 407.551 20.3681 407.551 20.2234C407.551 19.6725 408.08 19.9873 408.105 20.5532C408.129 21.1188 408.141 21.1158 408.314 20.49C408.725 19.0121 409.007 20.7865 409.151 25.7656L409.301 30.9119L409.353 25.6336C409.382 22.7306 409.521 20.1772 409.661 19.9595C409.855 19.6598 409.918 19.776 409.921 20.437C409.925 20.9511 410.034 21.2432 410.189 21.1471C410.334 21.0574 410.453 20.6871 410.453 20.3242C410.453 19.9613 410.561 19.7316 410.694 19.8136C410.827 19.8956 410.995 19.8136 411.069 19.6314C411.142 19.4491 411.229 19.8344 411.261 20.4874L411.319 21.6751L411.508 20.6194C411.691 19.5965 411.7 19.6128 411.779 21.1472L411.861 22.7307L412.024 21.1472C412.165 19.7826 412.217 19.6641 412.404 20.2895C412.523 20.6887 412.726 21.0153 412.856 21.0153C412.985 21.0153 413.091 22.7967 413.091 24.9739C413.091 27.4372 413.191 28.9327 413.355 28.9327C413.518 28.9327 413.618 27.4922 413.618 25.1389C413.618 23.0523 413.693 20.974 413.784 20.5205C414.097 18.9535 414.41 19.7042 414.459 22.1368L414.507 24.5781L414.674 22.4668C414.792 20.9783 414.868 20.6669 414.932 21.4112L415.023 22.4668L415.132 21.5706C415.242 20.6675 415.989 19.5455 415.998 20.2707C416.001 20.5283 416.069 20.5157 416.257 20.2238C416.435 19.9478 416.519 20.4272 416.532 21.8072C416.545 22.8959 416.65 24.2617 416.77 24.8423C416.956 25.7411 417.002 25.5253 417.078 23.3907C417.128 22.0118 417.233 24.2088 417.313 28.2731L417.457 35.6627L417.517 29.3504C417.554 25.6706 417.714 22.3137 417.906 21.301L418.236 19.564L418.385 21.6753L418.535 23.7866L418.601 21.5433C418.669 19.2658 419.074 19.1709 419.164 21.4112L419.207 22.4668L419.457 21.5432C419.845 20.1146 420.257 19.1679 420.491 19.1679C420.608 19.1679 420.897 19.3604 421.132 19.5952C421.366 19.8301 421.642 19.9377 421.744 19.8346C421.846 19.731 422.066 20.2215 422.234 20.9247L422.538 22.2032L422.563 20.7956C422.595 18.9497 423.144 19.0877 423.522 21.037C423.756 22.2468 423.827 22.3654 423.981 21.8073C424.081 21.4444 424.184 20.8506 424.209 20.4877C424.233 20.1248 424.335 20.4217 424.434 21.1475L424.615 22.4671L424.683 21.2794C424.851 18.3462 425.177 18.9547 425.25 22.3351L425.327 25.8979L425.476 23.3908C425.558 22.0118 425.694 21.1805 425.778 21.5434C425.908 22.1045 425.965 22.0255 426.155 21.0156C426.354 19.9607 426.401 19.9017 426.568 20.4877C426.721 21.0244 426.767 20.9258 426.814 19.9599C426.864 18.93 426.894 18.8746 427.038 19.5423C427.241 20.4829 427.793 20.7251 428.064 19.9928C428.211 19.5973 428.369 19.5184 428.658 19.6968C428.921 19.8595 429.103 20.5748 429.207 21.8633L429.362 23.7867L429.405 21.889C429.453 19.7325 429.955 18.94 430.01 20.9341C430.03 21.6322 430.126 24.9348 430.225 28.2733L430.406 34.3433L430.514 27.4815L430.622 20.6198L430.767 27.7455L430.912 34.8712L431.002 28.4053C431.053 24.6932 431.173 22.3621 431.284 22.9319C431.578 24.4484 431.749 24.3675 431.952 22.6155C432.054 21.736 432.245 21.0825 432.376 21.1634C432.507 21.2445 432.614 21.1797 432.614 21.0154C432.614 20.8531 432.733 20.7935 432.878 20.8832C433.023 20.9729 433.155 20.7719 433.172 20.437C433.197 19.9603 433.23 19.9324 433.327 20.3085C433.447 20.7737 433.463 20.7737 433.805 20.3085C434.288 19.6519 434.427 20.0859 434.535 22.5988C434.613 24.4244 434.624 24.3731 434.68 21.9391C434.73 19.8028 434.802 19.3798 435.063 19.7189C435.24 19.9493 435.518 20.0928 435.68 20.0381C436.187 19.8673 436.3 20.9756 436.319 26.2938C436.331 29.1243 436.436 31.9152 436.556 32.4958C436.707 33.2223 436.792 31.9882 436.831 28.537C436.864 25.7791 436.973 23.8196 437.078 24.1824C437.206 24.6238 437.317 24.0304 437.415 22.3896C437.572 19.7638 437.739 19.2991 438.268 20.0222C438.452 20.2737 438.683 20.3989 438.781 20.301C438.879 20.2027 439.194 20.0866 439.48 20.0429C439.938 19.9732 440.007 20.1314 440.05 21.3473L440.099 22.7312L440.209 21.2797C440.291 20.197 440.375 19.9623 440.538 20.356C440.728 20.8169 440.766 20.7834 440.835 20.0922C440.879 19.6567 440.979 23.457 441.056 28.5374L441.199 37.7744L441.268 28.4054C441.338 19.0497 441.339 19.0374 441.857 19.6596C442.144 20.0041 442.376 20.128 442.376 19.9368C442.376 19.1483 442.875 20.1598 442.973 21.148L443.079 22.2036L443.123 21.0664C443.152 20.3364 443.268 19.9915 443.449 20.1033C443.604 20.1991 443.794 20.0368 443.87 19.7432C444.081 18.9372 445.542 19.3002 445.542 20.1585C445.542 20.5198 445.604 20.5067 445.929 20.077C446.303 19.5819 446.317 19.5869 446.344 20.2246C446.368 20.8274 446.389 20.8388 446.588 20.3567C446.754 19.9534 446.832 20.1406 446.918 21.1484L447.03 22.468L447.098 20.8845C447.135 20.0136 447.227 19.4495 447.3 19.6309C447.373 19.8124 447.601 19.9608 447.807 19.9608C448.085 19.9608 448.19 20.3806 448.217 21.6102L448.254 23.2597L448.579 21.1484C448.758 19.9872 448.92 19.1855 448.938 19.367C448.954 19.5484 449.149 19.6968 449.367 19.6968C449.651 19.6968 449.773 20.0129 449.798 20.8185L449.834 21.9401L450.029 21.0166C450.135 20.5085 450.239 20.2483 450.258 20.4383C450.278 20.6283 450.393 20.7213 450.517 20.6451C450.812 20.4624 451.072 24.8989 451.132 31.1522L451.181 36.1915L451.361 30.1215C451.461 26.783 451.558 23.0123 451.577 21.7422C451.609 19.4528 451.948 18.7301 452.316 20.1587L452.502 20.8845L452.69 20.2247C452.86 19.6258 452.883 19.6501 452.931 20.4885L452.985 21.4122L453.251 20.4103C453.568 19.2128 454.055 19.2597 454.281 20.5094L454.444 21.4121L454.48 20.39C454.509 19.5133 454.571 19.4147 454.911 19.6966C455.134 19.8821 455.307 19.9098 455.307 19.7598C455.307 19.6138 455.604 19.4377 455.966 19.3684C456.448 19.2762 456.627 19.3561 456.63 19.6676C456.633 20.0118 456.678 20.0236 456.864 19.7292C456.991 19.529 457.227 19.4471 457.388 19.5469C457.549 19.6468 457.683 19.5714 457.686 19.3831C457.689 19.1078 457.736 19.1102 457.916 19.3953C458.058 19.6199 458.352 19.6872 458.704 19.5755C459.162 19.4299 459.268 19.5087 459.285 20.0092C459.297 20.3455 459.366 20.4722 459.439 20.2909C459.513 20.1094 459.74 19.961 459.946 19.961C460.151 19.961 460.32 19.7702 460.32 19.5369C460.32 19.2682 460.465 19.1683 460.716 19.2649C460.933 19.3485 461.111 19.2813 461.111 19.1173C461.111 18.9526 461.201 18.9065 461.309 19.015C461.418 19.1235 461.576 20.5388 461.659 22.16L461.812 25.1075L461.857 22.6663C461.882 21.3236 462.005 20.225 462.129 20.225C462.254 20.225 462.477 20.7298 462.625 21.3466L462.895 22.4683L462.927 20.7623C462.956 19.1376 462.981 19.0783 463.421 19.5178C463.836 19.9333 463.897 20.8786 464.027 29.0093C464.125 35.1169 464.17 31.8899 464.167 19.0375C464.164 5.01365 464.123 2.45552 464.011 9.27264C463.927 14.353 463.834 18.5539 463.804 18.6079C463.65 18.8893 462.976 17.9797 462.886 17.3687C462.785 16.6783 462.777 16.6822 462.569 17.5411C462.221 18.9801 461.917 17.981 461.86 15.2106L461.808 12.7034L461.658 15.3425C461.575 16.794 461.413 18.1283 461.297 18.3075C461.072 18.6553 459.793 18.666 459.793 18.3198C459.793 17.8673 459.318 18.1493 459.178 18.6847C459.052 19.1672 458.965 19.2032 458.619 18.9163C458.394 18.7296 458.21 18.6733 458.21 18.7915C458.21 18.9098 458.036 18.7752 457.823 18.4939C457.44 17.9884 457.435 17.9886 457.423 18.5102C457.415 18.8869 457.349 18.9407 457.195 18.6977C457.039 18.4531 456.796 18.427 456.327 18.6056C455.919 18.761 455.508 18.7598 455.228 18.6019C454.982 18.4641 454.778 18.4461 454.776 18.5611C454.773 18.6773 454.657 18.5937 454.516 18.3763C454.313 18.0616 454.26 18.1126 454.257 18.6271C454.253 19.5164 453.702 18.9533 453.293 17.6396L452.989 16.661L452.926 17.7167L452.864 18.7723L452.67 17.8486L452.475 16.9249L452.438 17.9674C452.41 18.8006 452.337 18.9438 452.074 18.6813C451.836 18.4444 451.665 15.9761 451.46 9.85331L451.175 1.35392L451.101 7.81981C451.032 13.752 450.701 20.6783 450.6 18.2884C450.552 17.1564 450.032 17.0626 449.733 18.1323C449.616 18.5515 449.545 18.6131 449.528 18.3104C449.512 18.0564 449.353 17.8783 449.172 17.9145C448.958 17.9573 448.791 17.5182 448.697 16.6609L448.552 15.3413L448.336 17.2254C448.129 19.037 448.101 19.0931 447.624 18.6842C447.29 18.3988 447.113 17.8666 447.083 17.0641L447.038 15.8692L446.932 16.9097C446.855 17.6639 446.759 17.8456 446.585 17.5695C446.41 17.2935 446.343 17.4199 446.34 18.0309C446.336 19.0504 445.952 19.3499 445.382 18.7801C445.137 18.5342 444.752 18.4245 444.461 18.5171C444.106 18.6296 443.961 18.5456 443.961 18.2341C443.961 17.9581 443.819 17.8467 443.582 17.9376C443.338 18.0314 443.162 17.8769 443.09 17.5041C443.011 17.0946 442.967 17.1717 442.942 17.767C442.909 18.5151 442.378 19.3537 442.378 18.6559C442.378 18.5022 442.289 18.3905 442.18 18.4076C441.348 18.5389 441.33 18.371 441.257 9.73323L441.183 1.09L441.103 9.93114C441.055 15.1713 440.929 18.5573 440.795 18.2444L440.569 17.7166L440.504 18.2444C440.467 18.5348 440.362 17.9411 440.268 16.9249L440.097 15.0775L440.051 16.8281C440.01 18.3248 439.929 18.5984 439.486 18.7144C439.124 18.809 438.916 18.6858 438.797 18.3144C438.665 17.8997 438.577 17.8595 438.406 18.1362C438.224 18.4314 438.161 18.4257 438.046 18.1036C437.66 17.0226 437.377 15.1606 437.368 13.6245C437.36 12.4177 437.281 12.0264 437.102 12.3048C436.931 12.5691 436.83 10.9892 436.799 7.5544C436.759 3.05347 436.728 2.72255 436.561 4.91528C436.456 6.29427 436.356 9.82735 436.34 12.7667C436.311 17.7154 436.174 18.6947 435.629 17.8114C435.509 17.6181 435.32 17.7348 435.095 18.1413C434.781 18.7075 434.74 18.5453 434.687 16.5274C434.638 14.6793 434.613 14.5631 434.546 15.8677C434.501 16.7386 434.4 17.835 434.321 18.3042C434.194 19.0565 434.12 19.1212 433.69 18.8525C433.364 18.6491 433.15 18.1026 433.044 17.2078C432.514 12.723 432.092 11.2721 432.085 13.9103C432.082 14.9306 432.008 15.2265 431.825 14.944C431.627 14.6373 431.563 14.7271 431.539 15.3399C431.511 16.1177 431.507 16.12 431.298 15.472C431.181 15.1091 431.047 12.3182 431 9.27003L430.914 3.72781L430.77 11.5133L430.626 19.2988L430.519 11.9091L430.412 4.51958L430.254 11.0366C430.167 14.6209 430.016 17.6337 429.918 17.7316C429.712 17.9375 429.498 17.113 429.367 15.604C429.316 15.0145 429.255 15.3838 429.231 16.4401C429.163 19.3517 428.747 19.9764 428.127 18.0979C427.655 16.6692 427.342 16.5381 427.331 17.7656C427.323 18.7068 427.299 18.7382 426.936 18.2586C426.552 17.7514 426.548 17.7514 426.522 18.2586C426.506 18.5403 426.342 18.2382 426.153 17.5833L425.809 16.3956L425.728 17.4513C425.684 18.0319 425.578 16.9037 425.493 14.9441L425.337 11.3813L425.283 14.7462C425.251 16.7773 425.124 18.1111 424.965 18.1111C424.82 18.1111 424.68 17.547 424.654 16.8575L424.606 15.6039L424.492 16.9234L424.379 18.243L424.033 17.3193L423.686 16.3956L423.666 17.2689C423.653 17.7798 423.536 18.0746 423.382 17.9791C423.237 17.8894 423.118 17.9425 423.118 18.0954C423.118 18.2491 423 18.3747 422.855 18.3747C422.709 18.3747 422.574 17.9292 422.553 17.3849L422.517 16.3953L422.356 17.4509C422.195 18.5137 421.759 18.8035 421.082 18.2986C420.871 18.1421 420.6 18.2175 420.302 18.5156C419.868 18.9495 419.832 18.9343 419.593 18.2187C419.365 17.5339 419.323 17.5123 419.138 17.9855C418.946 18.4793 418.934 18.4763 418.916 17.9284C418.892 17.1383 418.377 16.8736 418.343 17.6332C418.323 18.0836 418.252 18.0014 418.073 17.3188C417.94 16.8108 417.734 13.2479 417.615 9.40137L417.4 2.40769L417.301 10.3251C417.206 17.8919 417.195 18.0379 417.051 13.624L416.9 9.00548L416.817 13.2281C416.772 15.5506 416.639 17.7477 416.523 18.1105C416.407 18.4734 416.3 18.6021 416.286 18.3964C416.269 18.1909 416.178 18.1036 416.079 18.2027C415.865 18.4168 415.219 16.971 415.169 16.1667C415.149 15.8279 415.057 15.9713 414.94 16.5267C414.771 17.3325 414.736 17.2315 414.667 15.735C414.609 14.4871 414.562 14.3073 414.496 15.0752C414.445 15.6558 414.327 16.4277 414.233 16.7906L414.063 17.4504L413.873 16.6587C413.769 16.2232 413.648 14.2042 413.606 12.1721L413.528 8.47732L413.344 12.3041C413.242 14.4088 413.143 16.6653 413.122 17.3185C413.085 18.4965 412.736 19.4243 412.44 19.1287C412.356 19.0443 412.184 18.4537 412.059 17.8168C411.858 16.7927 411.824 16.7503 411.763 17.4502C411.706 18.1086 411.664 18.0419 411.51 17.0542C411.347 16.0061 411.321 15.9696 411.286 16.7431C411.266 17.2253 411.068 17.7979 410.851 18.0156C410.499 18.3675 410.455 18.2904 410.455 17.3214C410.455 16.6619 410.35 16.2957 410.191 16.3944C410.046 16.4841 409.927 16.9592 409.927 17.4501C409.927 17.941 409.812 18.4143 409.67 18.5019C409.507 18.6022 409.383 16.9786 409.333 14.0969L409.255 9.53264L409.196 14.3491C409.136 19.1402 408.888 20.2765 408.389 18.0438C408.226 17.3154 408.128 17.1489 408.109 17.5688C408.069 18.5044 407.609 17.9114 407.506 16.7903C407.402 15.6587 406.954 15.5807 406.747 16.6582C406.614 17.3505 406.569 17.2701 406.383 16.0165C406.267 15.228 406.085 13.209 405.979 11.5299C405.786 8.48067 405.786 8.48333 405.703 13.6232C405.649 17.0251 405.561 18.2775 405.443 17.318C405.345 16.5196 405.246 16.2128 405.222 16.6362C405.151 17.9095 404.837 17.1694 404.644 15.2717L404.463 13.4912L404.426 15.6497C404.397 17.3169 404.283 17.9139 403.927 18.2729C403.486 18.7162 403.461 18.6988 403.382 17.8957C403.279 16.8422 402.806 16.7819 402.806 17.8223C402.806 18.6339 402.184 18.8118 401.758 18.122C401.601 17.8672 401.493 17.9365 401.351 18.3842L401.158 18.9925L400.804 18.3531C400.609 18.0012 400.432 17.3574 400.411 16.922C400.379 16.2586 400.336 16.318 400.145 17.2881C399.88 18.6408 399.799 18.7551 399.255 18.5461C398.915 18.4156 398.838 17.7004 398.792 14.2249L398.736 10.06L398.594 14.4146C398.474 18.1101 398.392 18.7535 398.056 18.6659C397.839 18.6092 397.343 18.5807 396.955 18.6027C396.481 18.6312 396.209 18.4902 396.128 18.1781C396.036 17.8254 396 17.8564 395.976 18.3074C395.917 19.4522 395.418 18.8883 395.392 17.6476C395.375 16.9581 395.271 16.0971 395.154 15.7342C394.987 15.2123 394.937 15.3595 394.916 16.4384C394.9 17.1886 394.818 17.9902 394.73 18.2199C394.525 18.7558 393.938 18.7586 393.733 18.2239C393.646 17.9968 393.464 17.8802 393.328 17.9642C393.191 18.0486 392.998 17.9845 392.898 17.8227C392.798 17.6608 392.631 14.5412 392.527 10.8907L392.338 4.25317L392.283 10.851C392.242 15.7893 392.137 17.648 391.866 18.2406C391.511 19.0163 391.502 18.9975 391.442 17.317C391.382 15.6295 391.378 15.6209 391.196 16.7891C391.064 17.6446 390.988 16.9804 390.927 14.4139L390.841 10.851L390.669 14.4139C390.498 17.9678 390.072 19.6123 389.426 19.2099C388.941 18.9078 388.533 16.8695 388.315 13.6615L388.107 10.5872L388.028 14.282L387.949 17.9767L387.634 14.1499L387.32 10.3232L387.253 13.7541C387.212 15.8063 387.106 16.9199 386.987 16.5252L386.788 15.8655L386.657 16.6572C386.532 17.4128 386.525 17.4051 386.487 16.4895C386.467 15.9619 386.274 15.1306 386.062 14.6422L385.677 13.7542L385.669 15.2561C385.665 16.0821 385.542 16.8303 385.398 16.9187C385.231 17.0222 385.112 14.2924 385.065 9.21478L384.99 1.35019L384.929 9.89375C384.874 17.4537 384.821 18.3995 384.471 18.1087C384.152 17.8437 384.074 17.8503 384.071 18.1414C384.067 18.426 384.012 18.4186 383.811 18.1087C383.626 17.8213 383.555 17.8075 383.552 18.0582C383.548 18.2482 383.429 18.3302 383.284 18.2405C383.138 18.1503 383.02 18.3404 383.02 18.6647C383.02 18.9876 382.943 19.1748 382.849 19.0804C382.754 18.9858 382.593 17.8677 382.492 16.5953L382.307 14.2818L382.264 16.1291C382.217 18.1423 381.877 19.137 381.538 18.2524C381.35 17.7622 381.341 17.7623 381.146 18.2606C381.019 18.5851 380.927 18.1488 380.892 17.0536L380.836 15.3382L380.51 17.4494C380.294 18.8467 380.167 19.2484 380.133 18.6371C380.091 17.8797 380.042 17.8084 379.864 18.2411C379.652 18.7574 379.643 18.7579 379.441 18.2615C379.237 17.7595 379.232 17.7595 379.035 18.2615C378.894 18.6236 378.821 18.4279 378.783 17.5824L378.73 16.3949L378.535 17.3185C378.38 18.0578 378.333 18.1105 378.302 17.5824C378.27 17.059 378.212 17.0042 378.014 17.3177C377.844 17.5852 377.736 16.8174 377.678 14.9425L377.591 12.1719L377.475 15.7348C377.397 18.1067 377.311 16.1659 377.216 9.92865L377.074 0.559726L376.996 9.79669C376.939 16.5563 376.844 18.8567 376.641 18.3739C376.428 17.8675 376.325 17.8061 376.196 18.1101C376.104 18.3278 375.967 14.6462 375.891 9.92878L375.753 1.35156L375.674 10.0607C375.627 15.2255 375.503 18.5551 375.369 18.2421C375.152 17.7384 375.141 17.7414 375.123 18.3081C375.107 18.82 374.962 18.9019 374.068 18.9019C373.478 18.9019 372.853 18.7233 372.617 18.4872C372.247 18.1174 372.203 18.1166 372.203 18.4791C372.203 19.0332 371.417 18.7123 371.393 18.148C371.376 17.781 371.346 17.7753 371.195 18.1113C371.096 18.329 370.689 18.5295 370.29 18.5568C369.706 18.5976 369.563 18.4936 369.556 18.029C369.548 17.4643 369.54 17.4632 369.254 17.9793C369.091 18.2696 368.91 18.5631 368.852 18.6314C368.662 18.8512 368.254 18 368.224 17.3195C368.204 16.9167 368.074 17.1735 367.885 17.9793C367.694 18.7938 367.497 19.1746 367.37 18.9744C367.208 18.7175 367.056 18.7175 366.642 18.9744C366.222 19.2345 366.075 19.2296 365.9 18.9499C365.781 18.7575 365.462 18.6384 365.192 18.6861C364.83 18.7493 364.654 18.5634 364.525 17.9806C364.355 17.2093 364.349 17.2144 364.319 18.1788C364.282 19.2967 363.977 19.4355 363.391 18.5986C363.058 18.1222 362.925 18.0842 362.585 18.367C362.36 18.5529 362.177 18.6288 362.177 18.535C362.177 18.4412 361.868 18.5676 361.489 18.8155C360.844 19.2384 360.786 19.2387 360.552 18.8196C360.384 18.5207 360.106 18.4228 359.707 18.5227C358.521 18.8204 358.084 18.824 357.894 18.539C357.761 18.3384 357.698 18.3551 357.696 18.592C357.692 18.7821 357.573 18.864 357.428 18.7743C357.266 18.674 357.152 16.1621 357.131 12.2269C357.111 8.71547 357.013 5.01125 356.909 3.99516C356.785 2.78281 356.692 4.86935 356.641 10.0652C356.597 14.4197 356.477 17.5076 356.373 16.9269L356.184 15.8713L356.147 17.2568C356.115 18.4369 356.035 18.6424 355.601 18.6424C355.28 18.6424 355.053 18.423 354.987 18.0486C354.883 17.4562 354.882 17.4563 354.589 18.1147C354.34 18.677 354.287 18.4625 354.23 16.6631C354.168 14.7114 354.156 14.6697 354.067 16.1113C354.014 16.969 353.799 17.9158 353.589 18.2153L353.208 18.7599V18.1733C353.208 17.8508 353.089 17.5868 352.944 17.5868C352.799 17.5868 352.681 17.8245 352.681 18.1147C352.681 18.405 352.562 18.6424 352.417 18.6424C352.272 18.6424 352.151 18.4345 352.149 18.1806C352.145 17.8153 352.097 17.7949 351.915 18.0824C351.788 18.2826 351.552 18.3645 351.391 18.2646C351.212 18.1541 351.097 18.2932 351.097 18.6267C351.097 19.2159 350.354 19.3767 349.87 18.8921C349.717 18.7392 349.248 18.5778 348.828 18.5333L348.063 18.4522L347.873 12.0198C347.768 8.48193 347.634 5.4072 347.574 5.18698C347.514 4.9668 347.451 7.71817 347.434 11.3012C347.418 14.8843 347.289 18.1184 347.148 18.4881L346.893 19.1601L346.225 18.541C345.858 18.2005 345.554 17.7572 345.551 17.5561C345.547 17.3551 345.352 17.5806 345.116 18.0616C344.392 19.5296 344.119 18.6835 343.955 14.4724L343.803 10.5926L343.698 13.8916C343.613 16.5424 343.563 15.8943 343.446 10.5926L343.3 3.99478L343.241 11.2745C343.187 18.0056 343.148 18.5547 342.721 18.5621C342.467 18.5659 342.11 18.4528 341.929 18.3097C341.694 18.1242 341.599 18.1723 341.599 18.4777C341.599 18.7134 341.421 18.9059 341.204 18.9059C340.899 18.9059 340.798 18.5271 340.763 17.2564L340.719 15.6069L340.565 17.1698C340.481 18.0295 340.282 18.7754 340.123 18.8276C339.839 18.921 339.571 15.4288 339.431 9.80086C339.399 8.49445 339.31 9.97901 339.233 13.0997C339.118 17.7452 339.036 18.6543 338.78 18.1142C338.486 17.4957 338.465 17.4899 338.45 18.0204C338.438 18.4542 338.279 18.5773 337.774 18.5482C337.411 18.5278 337.098 18.3916 337.077 18.2461C337.057 18.1009 336.96 14.4786 336.863 10.1966L336.687 2.41124L336.636 10.4291L336.586 18.4471L335.663 18.2974C334.966 18.1845 334.74 18.2407 334.74 18.527C334.74 18.9783 334.608 18.9955 333.931 18.633C333.463 18.3826 333.416 18.0145 333.371 14.2124L333.321 10.0651L333.148 14.1557C333.053 16.4056 332.957 18.2724 332.934 18.3041C332.91 18.3367 332.72 18.2959 332.51 18.2148C332.255 18.1169 332.095 17.569 332.032 16.5736L331.937 15.0795L331.888 16.8765C331.855 17.996 331.738 18.612 331.574 18.5104C331.429 18.4207 331.31 18.4941 331.31 18.6707C331.31 19.3822 330.997 18.6189 330.795 17.4145L330.581 16.1351L330.548 17.6619C330.52 19.103 330.487 19.1728 329.989 18.9062C329.587 18.6905 329.462 18.3536 329.462 17.4841C329.462 16.8573 329.373 15.5848 329.264 14.6563L329.066 12.9681L328.934 15.7292L328.801 18.4903L327.944 18.6648C327.197 18.8169 327.082 18.7672 327.051 18.2791C327.014 17.7284 327.014 17.7286 326.902 18.2994C326.834 18.6497 326.65 18.8252 326.437 18.7434C326.243 18.6691 326.006 18.7352 325.91 18.8901C325.415 19.6926 325.235 18.8616 325.186 15.5432L325.133 11.9144L324.989 15.2134L324.844 18.5122L323.459 18.5285C322.697 18.5367 322.074 18.4682 322.074 18.3744C322.074 18.2806 321.896 18.204 321.678 18.204C321.46 18.204 321.282 18.31 321.282 18.4397C321.282 18.5693 321.163 18.6019 321.019 18.5122C320.874 18.4225 320.733 17.3764 320.705 16.1874C320.663 14.3635 320.642 14.2732 320.574 15.6092C320.449 18.0278 320.248 18.9081 319.819 18.9081C319.608 18.9081 319.432 18.7597 319.428 18.5782C319.424 18.3968 319.297 18.4588 319.148 18.7157C318.81 19.2955 318.387 19.0708 318.362 18.2987C318.341 17.7412 318.333 17.7394 318.116 18.2481L317.89 18.776L317.853 18.2481C317.82 17.7592 317.8 17.7641 317.579 18.3142C317.296 19.0188 316.8 19.1014 316.786 18.4463C316.778 18.074 316.713 18.1001 316.446 18.5808C315.927 19.5167 315.483 18.7941 315.44 16.9421L315.403 15.3454L315.236 16.7147C315.049 18.2581 314.695 18.8689 314.667 17.6985C314.651 17.0301 314.618 16.9983 314.422 17.4568C314.25 17.8564 314.182 17.6639 314.143 16.6651L314.091 15.3455L313.694 17.1028C313.357 18.5931 313.202 18.8782 312.672 18.9795C312.225 19.0652 312.046 18.9785 312.043 18.6737C312.039 18.3296 311.995 18.3177 311.808 18.6121C311.486 19.1215 311.043 18.7691 310.756 17.7736L310.511 16.9289L310.487 18.0694C310.467 19.0831 310.419 19.1659 310.067 18.814C309.821 18.5673 309.665 17.8887 309.653 17.0137C309.641 15.9855 309.574 15.7507 309.408 16.1372C309.283 16.4275 309.165 17.0212 309.146 17.4567C309.113 18.1992 309.095 18.2115 308.872 17.6544C308.74 17.3278 308.566 17.0606 308.484 17.0606C308.402 17.0606 308.228 17.3277 308.096 17.6544C307.872 18.2126 307.855 18.2008 307.814 17.4567C307.774 16.7192 307.754 16.7369 307.525 17.716C307.155 19.2978 306.776 19.4823 306.729 18.1034L306.689 16.929L306.517 18.1166L306.345 19.3042L306.126 18.2908L305.908 17.2774L305.436 18.2908C305.176 18.8482 304.952 19.126 304.938 18.9083C304.914 18.5564 304.883 18.5564 304.648 18.9083C304.417 19.2537 304.349 19.2451 304.111 18.8423C303.961 18.5883 303.667 18.3804 303.456 18.3804C303.243 18.3804 303.062 18.1174 303.047 17.7866C303.023 17.2169 303.011 17.2196 302.81 17.8527C302.694 18.2156 302.587 18.4088 302.572 18.2822C302.556 18.1558 302.368 18.1999 302.15 18.3805C301.932 18.5611 301.746 18.6056 301.736 18.4787C301.728 18.3519 301.615 18.4869 301.49 18.7764C301.281 19.2628 301.262 19.2658 301.245 18.8131C301.233 18.491 301.092 18.3747 300.833 18.4738C300.359 18.6561 300.231 18.2142 299.933 15.3444L299.713 13.2331L299.677 15.8503C299.656 17.2897 299.578 18.4038 299.5 18.3261C299.422 18.2482 299.26 17.2487 299.139 16.1047L298.92 14.0249L298.864 16.4001C298.832 17.7064 298.747 18.621 298.671 18.4323C298.563 18.1628 298.391 18.1828 297.867 18.5262C297.058 19.0568 296.758 18.7402 296.728 17.3238C296.716 16.8157 296.611 15.925 296.491 15.3444C296.3 14.42 296.269 14.545 296.242 16.3497C296.222 17.6494 296.114 18.3504 295.948 18.2475C295.803 18.1578 295.684 18.1871 295.684 18.3131C295.684 18.4391 295.09 18.5284 294.365 18.5121C293.44 18.4917 293.046 18.5851 293.046 18.8265C293.046 19.0161 292.978 19.171 292.895 19.171C292.611 19.171 291.99 18.4174 291.986 18.0682C291.983 17.811 291.916 17.8232 291.729 18.1152C291.563 18.3757 291.45 16.2976 291.399 12.0451L291.321 5.5792L291.24 12.3091C291.194 16.0105 291.098 18.8905 291.025 18.7094C290.942 18.5055 290.648 18.4411 290.254 18.5402C289.875 18.6352 289.616 18.5846 289.616 18.4162C289.616 18.2596 289.438 18.2002 289.22 18.2838C289.003 18.3673 288.825 18.6193 288.825 18.8441C288.825 19.1899 288.744 19.1793 288.297 18.7748C287.998 18.5041 287.769 18.4291 287.769 18.602C287.769 18.7696 287.651 18.9065 287.506 18.9065C287.36 18.9065 287.225 18.3425 287.204 17.653L287.168 16.3994L286.979 17.4551L286.789 18.5107L286.717 17.0591C286.65 15.7053 286.632 15.6698 286.451 16.5314C286.344 17.0394 286.213 13.6547 286.161 9.00977L286.066 0.564517L285.923 9.2737C285.845 14.0637 285.733 17.3297 285.675 16.5314C285.572 15.0968 285.569 15.0922 285.417 16.1355C285.333 16.7161 285.202 13.4501 285.126 8.87781L284.989 0.564517L284.925 9.2737C284.888 14.0637 284.789 18.2487 284.702 18.5737C284.355 19.8713 284.074 18.7172 284.025 15.79L283.973 12.7046L283.812 15.4757C283.696 17.4791 283.63 17.8447 283.574 16.7952C283.511 15.6307 283.454 15.4741 283.285 16.0034C283.169 16.3663 283.062 17.0492 283.047 17.521C283.015 18.5924 282.313 18.6962 282.155 17.6531C282.075 17.1256 282.023 17.2519 281.964 18.1149L281.883 19.3026L281.702 17.983L281.521 16.6634L281.479 17.8174C281.443 18.7955 281.379 18.9227 281.054 18.6524C280.842 18.4771 280.561 18.4004 280.429 18.4819C280.297 18.5635 279.999 18.4208 279.768 18.1643C279.448 17.8116 279.325 16.9952 279.261 14.8056L279.176 11.9128L279.116 15.2118C279.075 17.4573 278.974 18.3843 278.8 18.1148C278.576 17.7678 278.543 17.7707 278.54 18.1352C278.536 18.3652 278.373 18.5531 278.173 18.5531C277.686 18.5531 277.455 15.8056 277.226 7.29277L277.045 0.562962L276.995 9.27214C276.962 14.9062 276.845 18.121 276.665 18.3771C276.453 18.6768 276.352 18.6923 276.25 18.4415C276.177 18.2593 276.007 18.1769 275.874 18.2593C275.735 18.3453 275.616 17.202 275.592 15.5559C275.559 13.2954 275.513 12.9771 275.369 14.0228C275.27 14.7485 275.153 15.1048 275.111 14.8145C275.068 14.5242 274.941 15.1717 274.828 16.2531C274.601 18.4244 274.171 19.0387 273.151 18.6507C272.82 18.5247 272.379 18.5373 272.123 18.6792C271.831 18.8427 271.675 18.8366 271.675 18.6588C271.675 18.5112 271.497 18.4586 271.279 18.5422C271.052 18.6295 270.872 18.5419 270.857 18.3359C270.841 18.139 270.742 18.2747 270.634 18.6376C270.417 19.3641 270.3 18.6254 269.902 14.0191L269.696 11.6439L269.621 14.5019C269.58 16.0738 269.428 17.4989 269.282 17.6689C269.137 17.8389 268.848 18.2154 268.64 18.5057C268.269 19.0244 268.262 19.023 268.254 18.4241C268.249 18.0865 268.127 17.8875 267.981 17.9778C267.828 18.0724 267.701 17.7748 267.678 17.2676C267.641 16.5005 267.616 16.5387 267.454 17.582C267.306 18.5321 267.261 18.6068 267.23 17.9559C267.168 16.6991 266.842 16.6505 266.54 17.8532C266.39 18.4513 266.148 18.9616 266.003 18.9872C265.858 19.0116 265.636 18.2673 265.511 17.3305C265.305 15.7902 265.248 15.6751 264.917 16.1273C264.584 16.5838 264.552 16.5871 264.552 16.164C264.552 15.91 264.433 15.7754 264.288 15.8651C264.143 15.9548 264.022 16.5854 264.02 17.2663C264.016 18.1629 263.945 18.3951 263.76 18.1084C263.554 17.7884 263.504 17.8263 263.501 18.3066C263.499 18.6332 263.378 18.9004 263.233 18.9004C263.088 18.9004 262.967 18.6925 262.965 18.4386C262.961 18.0447 262.924 18.0349 262.71 18.3725C262.542 18.6387 262.432 17.7317 262.375 15.6014L262.291 12.4344L262.213 15.8653C262.171 17.7523 262.076 19.1477 262.003 18.9663C261.929 18.7849 261.711 18.6365 261.518 18.6365C261.324 18.6365 261.111 18.488 261.043 18.3066C260.96 18.0844 260.857 18.13 260.726 18.4465C260.54 18.8966 260.517 18.8966 260.176 18.4465C259.839 18.0021 259.819 18.0052 259.8 18.5048C259.784 18.9084 259.661 18.8151 259.275 18.1089L258.769 17.1851L258.757 18.0146C258.745 19.0046 258.232 19.2764 257.434 18.7171C256.978 18.3974 256.715 18.3721 256.216 18.5993C255.65 18.8574 255.577 18.8248 255.554 18.3008C255.529 17.7426 255.517 17.7462 255.316 18.3726C255.137 18.932 255.097 18.8517 255.048 17.8448C255.011 17.0688 254.933 16.8401 254.824 17.1849C254.732 17.4753 254.591 16.2283 254.512 14.4139L254.368 11.1149L254.31 14.8098C254.278 16.8419 254.138 18.6827 253.997 18.9004C253.797 19.2099 253.74 19.1414 253.737 18.586C253.735 18.1954 253.614 17.8025 253.469 17.7128C253.304 17.6105 253.187 14.3346 253.156 8.92205L253.107 0.294434L252.928 7.55203C252.829 11.5437 252.733 15.6212 252.714 16.6131C252.689 17.9267 252.589 18.3867 252.348 18.3068C252.167 18.2464 251.944 17.8505 251.852 17.427L251.685 16.6571L251.653 17.3829C251.636 17.782 251.503 18.1086 251.357 18.1086C251.212 18.1086 251.09 18.3756 251.084 18.7024C251.076 19.2887 251.068 19.2879 250.698 18.6364C250.49 18.2735 250.307 17.5609 250.291 17.0529C250.274 16.5449 250.196 16.2911 250.117 16.489C249.997 16.7928 249.939 16.7928 249.747 16.489C249.602 16.2611 249.517 16.6569 249.515 17.5675C249.511 19.1552 249.096 19.1404 248.718 17.539L248.509 16.6568L248.465 17.4486L248.421 18.2403L248.157 17.5805C248.011 17.2176 247.811 13.2391 247.712 8.73938L247.531 0.558046L247.399 9.45232C247.303 15.9458 247.18 18.4333 246.946 18.6681C246.692 18.9209 246.569 18.8532 246.369 18.3508C246.227 17.9961 246.106 17.8925 246.097 18.118C246.068 18.7948 245.032 18.6777 244.706 17.961C244.544 17.6067 244.313 17.3167 244.191 17.3167C244.069 17.3167 243.959 17.1087 243.946 16.8548C243.934 16.6008 243.765 16.9669 243.572 17.6689C243.118 19.3209 242.986 19.4209 242.771 18.2762C242.608 17.4013 242.564 17.3654 242.161 17.7702C241.758 18.1751 241.715 18.1416 241.564 17.2995C241.421 16.5065 241.388 16.4756 241.306 17.0529C241.254 17.4158 241.146 14.0904 241.067 9.66324L240.924 1.61387L240.863 10.1407C240.823 15.7431 240.713 18.6115 240.539 18.5044C240.394 18.4147 240.26 17.8435 240.241 17.2352L240.204 16.1291L240.038 17.0529C239.905 17.7837 239.83 17.8756 239.676 17.4931C239.57 17.2273 239.482 16.6037 239.482 16.1075C239.482 15.6114 239.371 15.2054 239.235 15.2054C239.098 15.2054 238.94 14.7601 238.883 14.2158C238.826 13.6714 238.76 14.2582 238.735 15.5198C238.711 16.7813 238.572 17.8868 238.427 17.9765C238.282 18.0662 238.152 17.9847 238.138 17.7943C238.126 17.6043 237.964 16.2018 237.779 14.6777L237.445 11.9067L237.381 14.8097C237.329 17.1942 237.272 17.5477 237.066 16.789C236.928 16.281 236.72 14.7965 236.605 13.4901L236.396 11.1149L236.341 13.886C236.282 16.8259 235.975 19.0432 235.718 18.3725C235.634 18.1547 235.507 17.7985 235.435 17.5808C235.362 17.363 235.293 17.5685 235.282 18.0343C235.265 18.6763 235.164 18.8467 234.865 18.7319C234.647 18.6483 234.469 18.3906 234.469 18.1595C234.469 17.8325 234.399 17.8097 234.153 18.056C233.979 18.2301 233.622 18.3728 233.361 18.3728C233.1 18.3728 232.886 18.5509 232.886 18.7687C232.886 19.6123 232.008 18.9962 231.758 17.977C231.664 17.5953 231.62 17.6622 231.598 18.2188C231.537 19.7408 231.18 18.5576 231.021 16.3111L230.859 14.0182L230.817 16.2966C230.776 18.5596 230.77 18.576 230.05 18.7144C229.651 18.7911 229.176 18.7307 228.995 18.5811C228.754 18.3821 228.665 18.4245 228.665 18.7364C228.665 19.2726 228.222 19.2875 227.704 18.769C227.486 18.5513 227.079 18.3732 226.799 18.3732C226.381 18.3732 226.29 18.1843 226.29 17.3175C226.29 16.7368 226.172 16.2618 226.027 16.2618C225.882 16.2618 225.763 16.4343 225.763 16.6452C225.763 17.2621 225.178 18.369 224.933 18.2171C224.809 18.1405 224.707 17.8473 224.707 17.5657C224.707 16.7941 224.356 16.9489 223.923 17.911L223.537 18.7687L223.362 17.977C223.198 17.234 223.183 17.2259 223.125 17.8449C222.974 19.4623 222.624 16.1507 222.581 12.6985C222.556 10.6664 222.45 7.81615 222.345 6.36462C222.182 4.08688 222.15 4.47797 222.113 9.22056C222.076 14.1051 222.025 14.6716 221.673 14.3197C221.352 13.998 221.269 12.9441 221.229 8.69278L221.181 3.46158L220.999 9.39962C220.9 12.6656 220.782 16.1097 220.738 17.0532L220.659 18.7686L220.486 17.0532L220.313 15.3377L220.268 17.0194C220.227 18.4817 220.17 18.6584 219.826 18.3727C219.499 18.1012 219.424 18.1297 219.396 18.5383C219.376 18.8103 219.274 18.617 219.167 18.1087C219.037 17.493 218.961 17.383 218.938 17.7789C218.917 18.1055 218.79 18.3727 218.651 18.3727C218.513 18.3727 218.358 17.571 218.307 16.5913L218.215 14.8098L218.163 16.6999C218.126 18.04 218.015 18.5753 217.781 18.5398C216.977 18.4179 216.79 18.0171 216.744 16.3117L216.697 14.546L216.546 16.5253L216.396 18.5046L215.945 17.7129L215.494 16.9211L215.481 18.0428C215.469 19.1884 215.138 19.5262 214.825 18.71C214.726 18.4507 214.572 18.3658 214.467 18.5122C213.948 19.2377 212.875 18.4617 212.815 17.3172L212.778 16.6574L212.567 17.3172C212.395 17.8526 212.351 17.7377 212.329 16.7079C212.313 16.0098 212.2 15.5024 212.074 15.5801C211.667 15.8321 211.511 13.4151 211.511 6.81178C211.511 3.2516 211.43 0.420381 211.33 0.520156C211.23 0.620054 211.082 4.88302 211 9.99361L210.852 19.2857L210.258 18.6475C209.771 18.1233 209.665 18.09 209.665 18.4612C209.665 18.8824 209.62 18.8837 209.005 18.4816C208.4 18.0853 208.345 18.0848 208.345 18.4775C208.345 19.5792 206.257 18.502 206.197 17.3713C206.169 16.8345 206.114 16.9188 205.971 17.7162C205.802 18.6614 205.778 18.6877 205.745 17.967C205.725 17.5243 205.598 17.0492 205.464 16.9113C205.33 16.7735 205.17 16.3043 205.108 15.8689C205.032 15.3402 204.97 15.5594 204.918 16.5287L204.841 17.9802L204.652 16.9246L204.463 15.8689L204.426 17.1753C204.39 18.4497 204.059 18.5924 203.785 17.4525C203.715 17.1622 203.645 17.4281 203.628 18.0463C203.595 19.1804 203.073 19.6722 203.066 18.5742C203.062 18.094 203.013 18.0561 202.806 18.376C202.665 18.5938 202.548 18.6692 202.546 18.5436C202.545 18.418 202.236 18.5151 201.861 18.7621C201.216 19.1848 201.16 19.1828 200.814 18.7254C200.613 18.46 200.441 18.1244 200.431 17.9792C200.423 17.834 200.131 18.0608 199.786 18.4827C199.243 19.1471 199.108 19.1997 198.782 18.8738C198.575 18.667 198.337 18.3215 198.253 18.1064C198.137 17.8116 198.094 17.8365 198.078 18.2079C198.062 18.5671 197.914 18.663 197.53 18.5626C197.239 18.4868 197.002 18.5341 197.002 18.6637C197.002 18.7954 196.765 18.9031 196.474 18.9031C195.986 18.9031 195.943 18.7106 195.897 16.3299C195.853 14.0709 195.829 13.9501 195.699 15.3402C195.608 16.3141 195.498 14.79 195.411 11.3815L195.271 5.83933L195.213 12.3868C195.18 16.2613 195.056 18.8733 194.914 18.785C194.781 18.7031 194.612 18.7851 194.539 18.9673C194.465 19.1496 194.395 19.0081 194.384 18.6521C194.368 18.1492 194.293 18.0759 194.047 18.3223C193.571 18.7982 192.573 18.7084 192.434 18.1771C192.344 17.833 192.306 17.868 192.283 18.3149C192.255 18.904 192.24 18.9064 191.547 18.4523C190.986 18.0849 190.817 18.0625 190.724 18.3443C190.625 18.6387 190.567 18.6378 190.374 18.3402C190.194 18.0605 190.108 18.1049 189.988 18.5392C189.855 19.025 189.753 19.0595 189.205 18.803C188.858 18.6407 188.525 18.33 188.465 18.1123C188.402 17.8827 188.343 17.9594 188.326 18.2945C188.293 18.8773 187.768 19.453 187.768 18.9039C187.768 18.7417 187.649 18.6821 187.504 18.7718C187.348 18.8676 187.238 18.5753 187.234 18.0616L187.23 17.1883L186.822 18.0157C186.427 18.816 186.382 18.8337 185.443 18.5542C184.909 18.3951 184.399 18.1611 184.31 18.0343C184.222 17.9075 184.056 18.0808 183.942 18.4196C183.82 18.785 183.648 16.6743 183.521 13.2296C183.222 5.1249 183.112 4.85114 183.063 12.0924C183.038 15.9291 182.919 18.4078 182.757 18.5079C182.612 18.5976 182.493 18.5532 182.493 18.4092C182.493 18.2653 182.256 18.072 181.965 17.98C181.536 17.8438 181.429 17.558 181.392 16.4447C181.347 15.0792 181.347 15.0799 181.194 16.7925C181.059 18.3158 180.975 18.5174 180.448 18.5923C179.926 18.6665 179.85 18.5556 179.82 17.6686C179.8 17.1142 179.704 14.8791 179.603 12.7018L179.42 8.74317L179.373 13.5596C179.333 17.6441 179.267 18.376 178.931 18.376C178.68 18.376 178.527 18.1102 178.514 17.6503L178.494 16.9244L178.228 17.6519C178.082 18.0519 177.854 18.3122 177.721 18.2301C177.589 18.1482 177.48 18.2057 177.48 18.3606C177.48 18.5143 177.366 18.6399 177.227 18.6399C177.088 18.6399 176.934 17.7195 176.884 16.5946L176.794 14.5493L176.713 17.0564C176.644 19.1806 176.588 19.4527 176.345 18.8379C176.187 18.4387 175.963 18.112 175.846 18.112C175.729 18.112 175.622 14.6977 175.61 10.5246C175.597 6.35142 175.494 2.34322 175.381 1.61748C175.257 0.822781 175.162 3.76501 175.14 9.01432C175.111 16.465 175.045 17.8166 174.691 18.3217C174.463 18.6467 174.167 18.8443 174.031 18.7607C173.892 18.6743 173.765 15.5741 173.737 11.5646L173.689 4.52051L173.507 10.3267C173.407 13.52 173.308 16.8453 173.287 17.7162C173.263 18.8277 173.175 19.1817 173 18.9038C172.862 18.6861 172.526 18.5079 172.253 18.5079C171.98 18.5079 171.56 18.3448 171.32 18.1458C170.941 17.8315 170.883 17.8469 170.883 18.2645C170.883 18.8535 170.461 18.47 170.28 17.7162C170.201 17.3847 170.142 17.518 170.123 18.0742C170.098 18.8049 170.011 18.9286 169.63 18.7804C169.376 18.6817 169.05 18.5798 168.905 18.5541C168.76 18.5296 168.568 18.1513 168.478 17.7159L168.315 16.9242L168.249 17.8479L168.183 18.7716L167.981 17.9798L167.78 17.1881L167.747 18.0458C167.715 18.9686 167.284 19.1947 166.995 18.4417C166.84 18.0397 166.798 18.0564 166.673 18.5714C166.538 19.1267 166.485 19.1397 165.803 18.785C165.404 18.5771 165.074 18.4894 165.069 18.5897C165.065 18.69 164.887 18.5412 164.674 18.2599C164.29 17.7528 164.286 17.7528 164.282 18.2599C164.274 19.3361 163.767 17.9948 163.728 16.7929C163.691 15.6328 163.685 15.6412 163.492 17.1537C163.297 18.6773 162.891 19.2879 162.241 19.0335C162.06 18.9625 161.734 18.832 161.516 18.744C161.298 18.6559 161.12 18.6975 161.12 18.8365C161.12 18.9906 160.76 18.9763 160.197 18.7998C159.418 18.556 159.27 18.3861 159.253 17.7175L159.233 16.9244L158.886 17.8481L158.54 18.7718L158.426 17.4522L158.313 16.1326L158.265 17.6501C158.241 18.4848 158.129 19.1639 158.02 19.1592C157.552 19.1388 156.898 18.4061 156.898 17.9005C156.898 17.5984 156.78 17.2781 156.635 17.1883C156.481 17.0929 156.371 17.3616 156.371 17.8325C156.371 18.623 155.946 18.8278 155.518 18.244C155.411 18.0988 155.305 16.5549 155.282 14.8131L155.241 11.6461L154.948 14.9709C154.66 18.2525 154.359 19.1676 153.568 19.1676C153.368 19.1676 153.205 19.049 153.205 18.9038C153.205 18.7587 153.072 18.6698 152.909 18.7061C152.504 18.7966 151.937 17.1771 151.87 15.737C151.82 14.673 151.784 14.7554 151.52 16.5288L151.226 18.5082L151.077 16.2649L150.928 14.0216L150.874 16.001C150.846 17.0896 150.719 18.1414 150.594 18.3384C150.11 19.1028 149.903 17.9033 149.759 13.4938L149.612 9.00722L149.562 13.8392C149.529 16.9809 149.418 18.6142 149.246 18.5082C149.101 18.4185 148.983 18.1652 148.983 17.9459C148.983 17.7265 148.805 17.3686 148.587 17.1509C148.235 16.799 148.191 16.8467 148.191 17.5812C148.191 18.0356 148.08 18.3385 147.944 18.2543C147.808 18.1703 147.574 18.3114 147.424 18.5686C147.274 18.8259 147.124 18.9766 147.089 18.9042C147.057 18.8316 146.959 15.6844 146.875 11.9104L146.723 5.04874L146.644 12.1744C146.57 18.9101 146.543 19.2495 146.15 18.3763C145.736 17.4572 145.733 17.4559 145.538 18.1125C145.411 18.5401 145.333 18.6098 145.316 18.3107C145.287 17.8187 144.762 17.6516 144.762 18.1346C144.762 18.8071 144.088 18.1223 143.939 17.2999L143.776 16.3972L143.739 17.4864C143.695 18.8941 143.119 19.4366 142.381 18.7679C141.951 18.3789 141.849 17.9141 141.809 16.1583L141.761 14.022L141.611 16.1332L141.462 18.2446L141.266 16.3972C141.158 15.3811 141.05 11.4026 141.026 7.55608C140.998 2.93812 140.919 1.18987 140.794 2.40968C140.689 3.42574 140.589 7.63186 140.571 11.7566C140.551 15.8814 140.469 19.1869 140.384 19.1021C140.3 19.0173 140.14 16.7113 140.03 13.9777L139.829 9.00753L139.78 12.8343C139.752 15.0233 139.638 16.4917 139.513 16.2652C139.25 15.788 138.686 7.86967 138.602 3.46538C138.569 1.72354 138.516 3.91714 138.485 8.34007C138.431 15.9454 138.161 19.1682 137.576 19.1682C137.464 19.1682 137.373 18.6211 137.373 17.9524C137.373 16.98 137.293 16.767 136.977 16.8885C136.663 17.0092 136.573 16.7841 136.541 15.7951L136.501 14.5498L136.316 15.7373C136.139 16.879 136.129 16.8892 136.073 16.0011C136.025 15.2302 135.977 15.1648 135.788 15.6053C135.651 15.9245 135.531 13.5784 135.483 9.66722L135.405 3.20133L135.267 10.8548C135.145 17.5835 135.085 18.4126 134.771 17.7165C134.574 17.2811 134.322 16.331 134.21 15.6053L134.007 14.2856L133.928 16.1331L133.849 17.9805L133.678 16.1331L133.508 14.2856L133.461 16.463C133.418 18.4631 133.187 19.0758 132.745 18.3605C132.634 18.1811 132.458 18.2374 132.254 18.5163C131.668 19.3173 131.302 18.323 131.07 15.3063L130.85 12.4382L130.794 15.3413C130.737 18.3316 130.32 20.4476 130.249 18.1124C130.216 17.0584 130.18 16.9916 129.926 17.5186C129.382 18.646 129.193 18.1023 129.142 15.2753L129.092 12.4382L128.929 14.9454C128.839 16.3244 128.727 17.2151 128.681 16.9248C128.624 16.575 128.541 16.6997 128.433 17.2967C128.328 17.8735 128.104 18.2202 127.808 18.263C127.427 18.318 127.342 18.1142 127.325 17.0996C127.301 15.7726 127.242 15.8239 126.91 17.4527C126.714 18.412 126.68 18.3036 126.542 16.265L126.389 14.0218L126.34 16.3154C126.311 17.5769 126.172 18.6825 126.027 18.7722C125.882 18.8619 125.763 18.8089 125.763 18.656C125.763 18.5023 125.619 18.4061 125.442 18.4423C125.261 18.479 125.045 18.1039 124.949 17.5846C124.855 17.0766 124.745 16.839 124.705 17.0568C124.665 17.2745 124.548 16.9777 124.444 16.397L124.255 15.3413L124.186 16.7929C124.129 17.9924 124.086 18.107 123.938 17.4527C123.774 16.7318 123.741 16.7849 123.564 18.0465C123.457 18.8085 123.277 19.432 123.163 19.432C123.049 19.432 122.764 19.0459 122.529 18.5743C122.258 18.0294 122.096 17.885 122.086 18.1784C122.069 18.6188 121.967 18.6853 121.211 18.7458C120.974 18.7662 120.841 17.9591 120.736 15.8691L120.59 12.9661L120.538 15.8031C120.485 18.6815 120.295 19.1356 119.483 18.3235C119.237 18.0772 119.154 18.1213 119.109 18.5217C119.077 18.8047 118.985 16.6017 118.903 13.6261L118.755 8.21582L118.697 13.4282C118.664 16.2949 118.544 18.6404 118.428 18.6404C117.846 18.6404 117.581 17.8481 117.549 16.0145L117.517 14.022L117.277 16.1333C117.146 17.2945 116.922 18.2849 116.78 18.3342C116.637 18.3835 116.353 18.5914 116.148 18.7964C115.828 19.1173 115.764 19.0892 115.691 18.5917C115.61 18.0329 115.592 18.0298 115.128 18.4951C114.589 19.0375 114.259 18.8339 114.082 17.8488C113.982 17.2915 113.958 17.3213 113.928 18.0405C113.896 18.8353 113.849 18.875 113.233 18.6408C112.87 18.5029 112.573 18.4932 112.573 18.6204C112.573 18.9633 111.715 19.2259 111.537 18.9372C111.333 18.6065 109.149 18.6979 109.135 19.0375C109.131 19.1827 108.955 19.0049 108.747 18.6416C108.46 18.1381 108.368 18.0912 108.361 18.4435C108.349 19.0988 107.851 19.0161 107.568 18.3113C107.415 17.9305 107.324 17.8674 107.313 18.1356C107.305 18.3656 107.133 18.5535 106.934 18.5535C106.565 18.5535 106.302 16.9627 106.189 14.0502C106.16 13.3095 106.071 13.9915 105.991 15.5658L105.846 18.4282L104.87 18.763C103.956 19.0766 103.887 19.0627 103.785 18.5395C103.702 18.1186 103.658 18.1758 103.606 18.7732C103.436 20.7227 103 16.9195 102.833 12.0434L102.658 6.89707L102.603 12.4897C102.575 15.5656 102.443 18.1473 102.314 18.2268C102.013 18.4128 101.765 17.4765 101.76 16.1413L101.756 15.0929L101.295 15.7454C100.84 16.3878 100.831 16.355 100.687 13.6269L100.54 10.8557L100.47 14.2866C100.433 16.1736 100.298 17.9551 100.173 18.2454L99.9464 18.7732L99.9097 18.2454L99.873 17.7175L99.6464 18.2454C99.4368 18.7334 99.416 18.7234 99.3704 18.1132C99.3337 17.6455 99.286 17.5888 99.2 17.9187C98.9452 18.8956 98.591 18.0109 98.591 16.398C98.591 15.4716 98.4724 14.6403 98.3272 14.5506C98.1613 14.4483 98.0619 15.0546 98.0595 16.1845C98.0576 17.1728 97.94 18.1596 97.7998 18.3773C97.6005 18.686 97.543 18.613 97.5401 18.0475C97.5383 17.6483 97.4252 17.3218 97.2899 17.3218C97.1541 17.3218 97.0062 17.6483 96.9601 18.0475C96.839 19.1003 95.8861 19.0521 95.6572 17.9814C95.4925 17.2114 95.4869 17.2166 95.4567 18.1731C95.4282 19.1089 95.3939 19.1441 94.7659 18.9054C94.3039 18.7296 94.1063 18.7439 94.1063 18.9523C94.1063 19.1162 93.8923 19.0032 93.6308 18.7015C93.1936 18.1972 93.1311 18.1887 92.8548 18.5951C92.5825 18.9959 92.552 18.9882 92.5304 18.5095C92.5059 17.9822 92.5059 17.9821 92.1087 18.5084C91.8164 18.8954 91.6576 18.9488 91.5099 18.7099C91.3652 18.4758 91.072 18.4526 90.465 18.6267C89.856 18.8012 89.6199 18.7821 89.617 18.5574C89.6151 18.3694 89.5021 18.4028 89.3333 18.6418C89.1319 18.9264 89.017 18.9488 88.924 18.7209C88.8311 18.493 88.604 18.4766 88.116 18.6625C87.7426 18.8044 87.4145 18.8876 87.3865 18.8473C87.358 18.8065 87.1375 18.4803 86.8955 18.1214L86.4553 17.4689V18.1537C86.4553 18.7529 86.3183 18.8603 85.3572 19.0141C84.7072 19.118 84.1472 19.0777 83.9852 18.9158C83.8348 18.765 83.3196 18.6418 82.8408 18.6418C82.3619 18.6418 81.9701 18.5232 81.9701 18.378C81.9701 17.9161 81.4843 18.0942 81.3184 18.6169C81.1557 19.1289 81.0624 19.1395 79.805 18.7894C79.1335 18.6022 79.0854 18.4857 78.9992 16.8348L78.9075 15.079L78.8557 17.0015C78.8052 18.8803 78.7893 18.9219 78.1544 18.8369C77.251 18.7158 77.1789 18.5975 76.958 16.8707L76.7627 15.343L76.7261 17.1088C76.7057 18.08 76.5826 18.9419 76.4497 19.0241C75.915 19.3548 74.8609 18.6485 74.6148 17.7946C74.3942 17.0296 74.3612 17.0049 74.3368 17.5863C74.3123 18.1757 73.8033 19.3403 73.7934 18.8306C73.7915 18.7164 73.5468 18.7535 73.2501 18.9121C72.7931 19.1567 72.5919 19.0732 71.9309 18.3656C71.2124 17.5963 71.151 17.5755 71.151 18.1018C71.151 19.1318 70.6658 18.4003 70.3245 16.8559L69.9902 15.3431L69.817 17.0197C69.6605 18.535 69.3418 19.1529 68.7108 19.1658C68.602 19.1677 68.5132 18.8661 68.5132 18.4944C68.5132 18.1116 68.399 17.8897 68.2494 17.9822C68.0839 18.0845 67.9743 17.428 67.9551 16.2164C67.9225 14.0706 67.8349 14.2204 67.585 16.8605C67.3914 18.9062 66.9457 19.2491 66.8994 17.3884C66.8831 16.6989 66.7775 15.7785 66.6666 15.3431C66.5215 14.7722 66.4563 15.1539 66.4339 16.7102L66.4013 18.8691L65.6296 18.6477C65.2052 18.5262 64.7897 18.4948 64.7062 18.578C64.6227 18.6616 64.5526 18.5617 64.5505 18.3557C64.5468 18.0442 64.5057 18.0467 64.3002 18.372C64.0993 18.6901 64.0064 18.6416 63.7934 18.1082L63.5329 17.4548L63.5166 18.0926C63.5084 18.4432 63.4228 18.6534 63.3287 18.5593C63.2345 18.4651 62.9459 18.6318 62.6875 18.9303C62.3109 19.3649 62.1136 19.4169 61.6942 19.1925C61.2678 18.9642 61.1397 18.5331 61.0023 16.8641C60.7459 13.7462 60.673 13.5611 60.6334 15.9292C60.6049 17.7396 60.5319 18.0731 60.2017 17.9463C59.9511 17.8501 59.806 17.95 59.806 18.2182C59.806 18.9638 59.279 18.6718 59.2616 17.9165C59.2453 17.2189 59.2371 17.2138 59.0064 17.7844C58.4591 19.1464 58.2224 18.3079 58.1868 14.8814C58.1664 12.9581 58.0698 8.94991 57.972 5.97427L57.7934 0.564019L57.7294 8.87731C57.6666 16.9997 57.4531 20.0178 57.0331 18.7081C56.9284 18.3815 56.6932 18.1143 56.51 18.1143C56.3269 18.1143 55.9959 18.3814 55.7744 18.7081C55.4239 19.2246 55.2997 19.2587 54.8188 18.9699C54.4907 18.7729 54.266 18.746 54.266 18.9038C54.266 19.3588 53.782 19.1958 53.6203 18.6861C53.441 18.1212 52.683 18.0288 52.683 18.5719C52.683 18.8333 52.5122 18.8871 52.1 18.7562C51.7792 18.6543 51.0968 18.5654 50.583 18.5584C49.4146 18.5421 49.2717 18.3305 49.2176 16.5304L49.174 15.0788L48.9999 16.2664C48.8381 17.371 48.7394 17.371 48.3713 16.2664C48.2987 16.0487 48.2299 16.5335 48.2185 17.3441C48.194 19.0586 48.0558 19.285 47.3395 18.783C47.0064 18.5498 46.6088 18.4903 46.2528 18.6204C45.3187 18.9616 43.2141 18.7292 42.859 18.2461C42.7522 18.1009 42.6589 18.2787 42.6516 18.642L42.6393 19.3018L41.9906 18.51C41.6339 18.0745 41.3412 17.8752 41.3404 18.067C41.3397 18.2586 41.1725 18.5823 40.9691 18.786C40.6516 19.1036 40.5766 19.0979 40.4414 18.7452C40.3546 18.5193 40.2584 14.633 40.227 10.1088L40.1704 1.88308L40.0163 10.1964C39.9315 14.7687 39.8308 18.5691 39.7925 18.6416C39.7558 18.7142 39.6038 18.4765 39.4579 18.1138C39.1998 17.4724 39.1819 17.4683 38.815 17.9662C38.4608 18.447 38.4359 18.4226 38.4123 17.5703C38.3878 16.6768 38.3837 16.6814 38.0825 17.8495C37.8473 18.7667 37.6429 19.056 37.1845 19.1197C36.7517 19.1801 36.5908 19.0692 36.5908 18.7107C36.5908 18.4404 36.4425 18.0707 36.2611 17.8895C36.014 17.6428 35.9113 15.4066 35.8518 8.99559C35.8037 3.82665 35.6729 0.431186 35.522 0.431186C35.3716 0.431186 35.2612 3.08721 35.2453 7.09505C35.229 10.7602 35.1242 14.0558 35.0076 14.4187C34.8295 14.9754 34.7887 14.893 34.7476 13.8909C34.7007 12.7509 34.6889 12.735 34.4602 13.4949C34.3294 13.9304 34.1455 15.0587 34.0524 16.0021C33.8612 17.9388 33.4592 19.015 33.4119 17.7175L33.3834 16.9258L33.114 17.6648C32.9656 18.0713 32.708 18.3583 32.5411 18.3028C32.3263 18.231 32.1975 16.0107 32.0997 10.7021L31.9615 3.20226L31.8983 10.328C31.8616 14.2471 31.7634 17.7209 31.6757 18.0475C31.3476 19.2715 31.0489 18.5697 31.0014 16.464L30.9524 14.2867L30.787 16.5299C30.6663 18.1625 30.5929 17.0131 30.5167 12.3073L30.4119 5.84138L30.2591 9.93208C30.1751 12.1819 30.0634 13.3696 30.0113 12.5713C29.8971 10.8314 29.8115 11.4299 29.5859 15.5402C29.4624 17.7903 29.3234 18.6413 29.0789 18.6413C28.8938 18.6413 28.6505 18.2551 28.5385 17.7835L28.3351 16.9258L28.1762 17.7175C28.073 18.2304 27.8309 18.5418 27.4893 18.6016C27.1991 18.6526 26.8816 18.8231 26.7838 18.9805C26.6612 19.1782 26.4683 19.1525 26.1607 18.8973C25.9157 18.6938 25.3234 18.5613 24.8443 18.6024C24.1848 18.6591 23.9431 18.5609 23.8491 18.1976C23.7472 17.8045 23.7195 17.8221 23.6942 18.2955C23.6575 19.0022 23.2604 19.2805 22.6616 19.0205C22.4146 18.9132 21.9751 18.7807 21.6849 18.7257C21.3946 18.6706 21.1179 18.5112 21.07 18.3717C21.0141 18.209 20.8124 18.2087 20.5095 18.371C20.1031 18.5887 20.0133 18.486 19.8741 17.6431C19.7848 17.1034 19.6967 15.7711 19.6788 14.6825C19.6503 12.9192 19.6217 12.8184 19.4273 13.7588C19.3071 14.3394 19.2023 15.6628 19.1937 16.6996C19.1815 18.1065 19.08 18.6226 18.7898 18.734C18.5758 18.8159 18.2956 18.6932 18.1667 18.4644C18.0057 18.1766 17.8748 18.1387 17.7484 18.3434C17.4806 18.7768 17.0679 18.7079 17.0679 18.2296C17.0679 18.0033 16.9485 17.892 16.8022 17.9825C16.6558 18.073 16.465 17.9621 16.3782 17.7342C16.1678 17.1861 15.8164 17.2104 15.6667 17.7835C15.6003 18.0376 15.5122 17.5327 15.4711 16.6619C15.4128 15.4331 15.3765 15.3148 15.3084 16.134C15.2603 16.7147 15.1523 17.7077 15.0683 18.3407C14.92 19.4601 14.9049 19.4759 14.5131 18.9164C14.2914 18.6 14.0142 18.0226 13.8968 17.6334C13.6979 16.9737 13.6816 16.9928 13.6608 17.9156C13.6363 19.0256 13.6241 19.0305 12.3821 18.5806C11.5741 18.2882 11.4549 18.3082 11.188 18.7783C10.9173 19.2552 10.8635 19.2085 10.5701 18.2453C10.3733 17.5981 10.2408 17.4084 10.2286 17.7552C10.2123 18.2298 9.8829 18.5211 9.15298 18.7092C9.08043 18.7296 8.94591 18.3936 8.8542 17.9664L8.68748 17.1897L8.65487 18.0978C8.62634 18.9549 8.60188 18.9772 8.23633 18.4937C7.93184 18.0909 7.83931 18.066 7.80315 18.3775C7.77869 18.5953 7.6723 18.298 7.56836 17.7177C7.38656 16.701 7.378 16.6938 7.34213 17.52C7.29933 18.4985 6.87084 18.6745 6.69939 17.7838C6.60523 17.2952 6.57874 17.3241 6.54898 17.9465C6.52045 18.566 6.41732 18.678 5.98541 18.565C5.59409 18.4626 5.45771 18.5569 5.45771 18.9299C5.45771 19.5274 4.97803 19.6013 4.76162 19.0371C4.67806 18.8194 4.32795 18.6413 3.98343 18.6413C3.22889 18.6413 3.11431 18.2551 3.00491 15.3423C2.92665 13.2594 2.92461 13.2666 2.86428 15.8702C2.80884 18.2544 2.76522 18.4598 2.4154 17.997C2.04039 17.5008 2.02695 17.505 1.99748 18.1291C1.97709 18.5758 1.9298 18.6318 1.84624 18.3118C1.74189 17.9122 1.67545 17.9008 1.34919 18.227C0.917113 18.6591 0.844845 19.433 1.23669 19.433C1.3818 19.433 1.51224 19.641 1.52692 19.8949C1.54322 20.2027 1.62352 20.1366 1.76456 19.6971C1.96389 19.074 1.97734 19.0698 2.0022 19.6229C2.02258 20.0298 2.14935 20.1621 2.42425 20.0565C2.75319 19.9305 2.82738 20.2547 2.86464 21.9782L2.90908 24.0517L3.06233 21.9203C3.17524 20.3484 3.34319 19.6617 3.70124 19.3044C4.10764 18.8991 4.22535 18.8806 4.42272 19.1927C4.55234 19.3978 4.66036 19.6671 4.6628 19.7915C4.66468 19.9159 4.84502 19.9493 5.06269 19.8657C5.34028 19.7593 5.46011 19.8902 5.46459 20.2993C5.46867 20.7778 5.55346 20.7164 5.92411 19.9634L6.37766 19.042L6.54642 19.8314L6.71517 20.6208L6.74778 19.8795C6.78447 19.0248 7.29048 19.1649 7.33785 20.0426C7.36231 20.4921 7.41407 20.4447 7.57059 19.829C7.68554 19.3762 7.78542 19.2471 7.80335 19.5272C7.82373 19.8485 7.97089 19.965 8.23029 19.8652C8.52949 19.7507 8.63098 19.9207 8.64688 20.5628C8.66726 21.4461 8.73655 21.3711 8.99946 20.175C9.10952 19.6735 9.30967 19.4773 9.68211 19.5054C9.97193 19.5258 10.2089 19.7125 10.2089 19.9171C10.2089 20.2181 10.2847 20.2262 10.6047 19.9608C10.8782 19.7336 11.0005 19.7239 11.0005 19.9282C11.0005 20.0912 11.1191 20.2246 11.2642 20.2246C11.4093 20.2246 11.5279 19.995 11.5279 19.7147C11.5279 19.311 11.6792 19.2249 12.2535 19.3006C12.6526 19.3532 13.1274 19.4046 13.3088 19.4148C13.5069 19.427 13.6467 19.8282 13.659 20.4227L13.6793 21.4123L13.9965 20.3604L14.3132 19.3085L14.7675 19.9573C15.1014 20.4341 15.2321 21.2027 15.2607 22.8566L15.3014 25.1071L15.4836 22.8419C15.687 20.3153 15.8191 19.9609 16.5584 19.9609C16.8401 19.9609 17.0799 19.8124 17.0914 19.631C17.1077 19.3688 17.1394 19.3692 17.2458 19.6329C17.3192 19.8151 17.4888 19.8967 17.6229 19.8139C17.7566 19.7311 18.0704 19.8677 18.3199 20.1173C18.7489 20.5464 18.7832 20.5366 18.9511 19.9362C19.0559 19.5615 19.146 20.1666 19.1704 21.4126C19.1949 22.5739 19.3029 23.999 19.4138 24.5796C19.5772 25.4353 19.6384 25.1104 19.735 22.8642C19.8617 19.9125 20.2195 18.6661 20.5299 20.093C20.6974 20.8625 20.7031 20.8651 20.7333 20.1872C20.7618 19.5248 21.4029 18.9719 21.6594 19.3871C21.7255 19.4939 22.17 19.6114 22.6469 19.648C23.1238 19.6847 23.606 19.8588 23.7183 20.0358C23.876 20.2841 23.9233 20.2808 23.9266 20.0195C23.9306 19.6146 25.2732 19.0556 25.4917 19.3673C25.6939 19.656 26.9174 19.6292 27.1337 19.3307C27.2266 19.2026 27.3881 19.3673 27.4924 19.6956C27.64 20.1608 27.7333 20.2124 27.913 19.9284C28.0687 19.6825 28.1514 19.908 28.1665 20.6193C28.1869 21.4525 28.237 21.5637 28.416 21.1471C28.5407 20.8568 28.6512 20.2927 28.6613 19.8936C28.6736 19.4326 28.8244 19.1677 29.0756 19.1677C29.3683 19.1677 29.478 19.4939 29.4962 20.4213C29.5084 21.1108 29.6364 22.8032 29.7774 24.1821C29.9185 25.5611 30.1215 28.4114 30.2283 30.5161C30.4158 34.2127 30.4256 34.096 30.5201 27.0852C30.58 22.629 30.6844 20.4897 30.7904 21.543L30.9632 23.2584L31.0125 21.543C31.0537 20.1215 31.4288 18.6677 31.6255 19.1677C31.6541 19.2403 31.7503 22.7438 31.8387 26.9532L32.0001 34.6068L32.0548 27.2831C32.1016 20.9735 32.164 19.9596 32.505 19.9596C32.7512 19.9596 32.9008 20.2087 32.9008 20.6194C32.9008 21.5589 33.6833 21.496 33.7227 20.5533C33.774 19.3218 34.1868 21.73 34.2088 23.3904C34.221 24.429 34.3009 24.7293 34.484 24.446C34.6246 24.2283 34.7497 23.7532 34.7624 23.3904C34.7828 22.7846 34.8035 22.7739 35.0118 23.2583C35.1366 23.5486 35.247 26.963 35.2572 30.8458C35.2695 35.364 35.3709 37.9055 35.5397 37.9055C35.7093 37.9055 35.8091 35.1463 35.8189 30.186L35.8093 30.1809Z" fill="black"/>
</svg>
