<svg width="464" height="38" viewBox="0 0 464 38" fill="none" xmlns="http://www.w3.org/2000/svg">
<path d="M106.902 37.5178C106.902 37.9324 108.743 37.8992 108.77 37.4844C108.786 37.2205 108.817 37.2205 108.923 37.4844C109.12 37.9716 109.537 37.885 109.559 37.3525C109.575 36.9692 109.607 36.9589 109.756 37.292C109.855 37.5128 110.114 37.6909 110.331 37.6879C110.662 37.683 110.75 36.9269 110.868 33.0638C110.946 30.5237 111.035 28.992 111.066 29.6602C111.177 32.0528 111.466 34.1195 111.688 34.1195C111.812 34.1195 111.915 33.4366 111.916 32.602C111.92 29.9137 112.246 26.6774 112.478 27.0435C112.599 27.2339 112.723 29.6461 112.753 32.404C112.782 35.1619 112.842 36.5871 112.882 35.571C113.155 28.597 113.772 21.2637 114.002 22.2434C114.133 22.7991 114.807 33.9013 114.811 35.571L114.815 37.6823L115.87 37.717C116.838 37.7488 116.927 37.6941 116.946 37.0572C116.959 36.66 117.028 36.5321 117.109 36.7585C117.265 37.1949 117.961 37.8142 118.295 37.8142C118.413 37.8142 118.532 36.3593 118.561 34.5812C118.598 32.2472 118.639 31.8985 118.706 33.3273C118.757 34.4158 118.911 35.4193 119.049 35.5574C119.187 35.6954 119.318 36.2894 119.34 36.8773C119.39 38.2101 119.721 35.4762 119.85 32.6678C119.916 31.2285 119.969 31.5782 120.091 34.2513L120.247 37.6822L120.355 32.6678L120.462 27.6535L120.619 30.9524L120.776 34.2513L120.85 30.8204C120.891 28.9334 120.984 27.538 121.058 27.7194C121.459 28.7147 121.675 27.6889 121.675 24.7807C121.675 22.4954 121.791 21.245 122.06 20.6241C122.349 19.9587 122.448 19.8739 122.456 20.2858C122.468 20.9216 123.256 21.0506 123.262 20.4178C123.266 20.0739 123.307 20.0651 123.499 20.3681C123.686 20.6635 123.755 20.6375 123.85 20.2362C123.964 19.7555 123.978 19.7565 124.207 20.2639C124.338 20.5542 124.623 20.7917 124.841 20.7917C125.09 20.7917 125.29 21.1338 125.38 21.7154C125.522 22.6344 125.523 22.6325 125.749 21.3195C125.946 20.1732 126.002 20.0866 126.174 20.6597C126.362 21.2896 126.373 21.2926 126.398 20.7257C126.43 19.9819 127.212 19.9283 127.402 20.6568C127.478 20.9455 127.645 21.1166 127.773 21.0371C127.902 20.9576 128.007 21.3816 128.007 21.9793C128.007 23.2542 128.513 23.1817 128.576 21.8977C128.605 21.2755 128.665 21.4002 128.799 22.3751L128.98 23.6947L129.021 22.2176C129.062 20.778 129.774 19.3476 130.225 19.7991C130.327 19.9012 130.514 19.8175 130.64 19.6134C130.798 19.3578 130.978 19.3224 131.219 19.4997C131.412 19.6414 132.4 19.7224 133.416 19.6797C134.432 19.637 136.272 19.5844 137.505 19.5627C138.739 19.5411 139.824 19.4075 139.916 19.266C140.013 19.1178 140.237 19.1038 140.444 19.2329C141.211 19.7121 142.909 19.7633 144.337 19.3504C144.829 19.208 145.346 19.162 145.485 19.248C145.624 19.3341 149.555 19.3915 154.22 19.3757C179.746 19.289 201.399 19.3418 201.998 19.492C202.389 19.5901 202.84 19.5295 203.057 19.3489C203.305 19.1433 203.919 19.0904 204.835 19.1957C205.604 19.2842 213.832 19.4001 223.119 19.4533C232.406 19.5063 240.212 19.6341 240.466 19.7371C240.725 19.8422 240.928 20.2019 240.928 20.556C240.928 20.9034 241.047 21.1876 241.192 21.1876C241.347 21.1876 241.475 22.2975 241.504 23.8927L241.552 26.5978L241.719 24.4865C241.825 23.1573 241.918 25.2591 241.972 30.1607C242.059 38.0222 242.431 38.9018 242.485 31.3703C242.501 29.3502 242.577 27.7633 242.657 27.8438C242.738 27.9243 242.916 30.1613 243.054 32.8148C243.191 35.4684 243.363 37.6985 243.435 37.7708C243.779 38.1152 243.889 37.2323 244.075 32.6237L244.275 27.6535L244.325 32.7998C244.369 37.3878 244.416 37.8905 244.762 37.4338C245.145 36.9267 245.149 36.9267 245.168 37.4338C245.188 37.9302 245.192 37.9297 245.413 37.4183C245.538 37.128 245.668 37.0093 245.704 37.1544C245.74 37.2996 245.845 36.6464 245.94 35.7029L246.113 33.9875L246.159 35.9009C246.183 36.9532 246.293 37.8124 246.402 37.8102C247.116 37.7955 247.247 37.2321 247.326 33.8449L247.408 30.2927L247.466 34.0534C247.539 38.7825 248.029 39.1883 248.104 34.5813L248.157 31.3483L248.302 34.3833C248.446 37.3883 248.449 37.4014 248.646 35.7029C248.755 34.7594 248.885 33.5718 248.933 33.0638C248.982 32.5557 249.041 33.3447 249.064 34.8169C249.101 37.0473 249.18 37.522 249.546 37.6627C249.788 37.7555 250.078 37.7386 250.191 37.6252C250.304 37.5116 250.482 35.6966 250.586 33.5918C250.691 31.4871 250.819 29.8955 250.873 30.0549C250.927 30.2143 251.068 31.8769 251.188 33.7497L251.404 37.1547L251.441 32.4858C251.466 29.7008 251.586 27.7511 251.743 27.6538C251.894 27.5609 252.007 27.7881 252.007 28.1816C252.007 28.575 252.121 28.8023 252.271 28.7094C252.416 28.6198 252.556 27.6329 252.583 26.5166L252.631 24.4868L252.782 26.5981L252.932 28.7094L253.162 26.4661C253.46 23.5661 253.808 22.6396 253.856 24.6188C253.88 25.6409 253.954 25.9142 254.104 25.5425C254.334 24.9723 254.388 25.255 254.863 29.5012C255.082 31.458 255.105 31.2553 255.188 26.7301C255.27 22.1879 255.288 22.0408 255.437 24.6188L255.598 27.3898L255.65 24.9487C255.678 23.5316 255.812 22.5074 255.965 22.5074C256.11 22.5074 256.249 23.0122 256.273 23.6291L256.318 24.7507L256.422 23.7555C256.479 23.2081 256.637 22.8292 256.773 22.9134C256.916 23.0021 257.02 22.4069 257.02 21.4956C257.02 20.3067 257.122 19.8858 257.438 19.7646C258.168 19.4843 258.339 19.5868 258.379 20.3302L258.42 21.0559L258.53 20.3257C258.591 19.9241 258.751 19.6638 258.887 19.7474C259.021 19.831 259.132 19.7964 259.132 19.6705C259.132 19.5445 261.002 19.429 263.288 19.4137C269.019 19.3754 275.7 19.3921 276.809 19.4476C277.317 19.4729 278.207 19.4068 278.788 19.3008C279.368 19.1947 280.283 19.2227 280.82 19.363C281.488 19.5373 282.178 19.5223 282.998 19.3158C283.926 19.082 284.378 19.088 284.992 19.3423C285.627 19.6052 286.023 19.6047 286.968 19.3403C287.717 19.1305 288.272 19.0997 288.482 19.2562C288.664 19.3921 289.11 19.4705 289.473 19.4304C289.836 19.3905 292.963 19.3522 296.423 19.3456C300.155 19.3386 302.917 19.2243 303.214 19.0651C303.578 18.8705 303.925 18.9053 304.479 19.1919C305.294 19.6134 307.445 19.5338 308.775 19.0331C309.315 18.8296 309.628 18.8686 310.138 19.2028C310.702 19.5725 311.007 19.5927 312.207 19.3398C313.984 18.965 314.173 18.9663 315.481 19.363C316.392 19.6395 316.685 19.6247 317.403 19.2664C318.132 18.9028 318.388 18.892 319.231 19.1894C319.941 19.44 320.669 19.4726 321.873 19.3079C322.787 19.1828 323.974 19.1767 324.511 19.294C325.047 19.4115 325.783 19.4346 326.146 19.3452C326.509 19.2558 328.646 19.2124 330.895 19.2487C334.492 19.3069 345.45 19.344 347.252 19.3041C349.526 19.2538 365.014 19.6232 366.013 19.7515L367.229 19.9076L367.396 22.0653C367.489 23.2521 367.565 27.2217 367.566 30.8868C367.566 35.1524 367.663 37.5507 367.831 37.5507C367.994 37.5507 368.118 35.8618 368.154 33.1301L368.213 28.7096L368.293 33.1409C368.36 36.8836 368.437 37.597 368.788 37.7318C369.017 37.8196 369.311 37.7257 369.441 37.5232C369.591 37.2901 369.751 37.2517 369.876 37.4187C370.238 37.9012 370.996 37.865 371.016 37.3643C371.032 36.9462 371.061 36.9525 371.261 37.4187C371.458 37.8768 371.493 37.8419 371.528 37.1548C371.548 36.7194 371.626 36.5412 371.699 36.7589C372.099 37.9599 372.103 37.9634 372.327 37.4187C372.497 37.0042 372.547 36.9848 372.562 37.3281C372.578 37.6842 372.85 37.7593 374.032 37.7325C374.83 37.7145 375.483 37.6203 375.483 37.5233C375.483 37.4265 376.017 37.3872 376.67 37.4361L377.857 37.5249V34.3447C377.857 32.1213 377.973 30.9143 378.24 30.3329C378.451 29.8755 378.67 29.0856 378.726 28.5776C378.782 28.0695 378.858 29.3759 378.893 31.4806C379.015 38.5883 379.367 38.3255 379.424 31.0847C379.456 26.9747 379.568 24.4347 379.704 24.7508C379.886 25.1734 379.941 25.0682 379.98 24.223C380.029 23.195 380.035 23.1881 380.231 23.9591C380.374 24.5197 380.452 24.0188 380.5 22.2436C380.537 20.8647 380.619 20.0037 380.681 20.3303C380.816 21.0326 381.465 21.1238 381.62 20.4622C381.679 20.2073 381.811 20.4736 381.914 21.056C382.248 22.9506 382.601 24.0225 383.003 24.356C383.346 24.6405 383.398 24.4735 383.398 23.0828C383.398 21.2875 384.184 19.5179 384.866 19.7796C385.16 19.8925 385.253 20.5799 385.282 22.8657C385.314 25.3992 385.346 25.6054 385.519 24.3549C385.63 23.5566 385.731 22.1018 385.746 21.122C385.774 19.1816 386.273 18.6284 386.341 20.4622L386.383 21.5839L386.564 20.2643C386.725 19.0881 386.752 19.0451 386.812 19.8684C386.864 20.5686 386.921 20.6644 387.051 20.2643C387.224 19.7321 387.992 19.5789 388.601 19.9552C388.778 20.0647 389.194 19.9849 389.524 19.778C390.181 19.3666 392.565 19.324 412.683 19.3647C418.56 19.3765 423.487 19.3822 423.632 19.3777C425.851 19.305 427.721 19.4537 427.721 19.7029C427.721 19.8296 427.87 19.8223 428.051 19.6866C428.233 19.5511 428.559 19.4553 428.777 19.4738C428.994 19.4926 429.371 19.4115 429.613 19.2943C429.892 19.1593 430.102 19.2014 430.186 19.4087C430.289 19.6612 430.371 19.664 430.544 19.421C430.693 19.212 431.078 19.1698 431.686 19.2961C432.19 19.401 433.137 19.4677 433.79 19.4444C435.343 19.3892 443.818 19.3028 445.596 19.324C446.721 19.3375 446.987 19.4274 447.012 19.8024C447.04 20.2423 447.049 20.2423 447.163 19.8024C447.273 19.381 447.796 19.3384 453.135 19.3158C458.6 19.2925 461.326 19.2958 462.742 19.3276L463.332 19.3406L463.405 28.6436C463.446 33.7602 463.478 29.3957 463.478 18.9448C463.478 8.49376 463.446 4.17955 463.406 9.35761L463.333 18.7723L462.215 18.7829C461.6 18.789 460.889 18.7898 460.635 18.7859C459.433 18.7655 458.39 18.7716 457.667 18.803C457.232 18.8217 454.709 18.8287 452.061 18.8176C447.699 18.7993 447.244 18.7549 447.225 18.3437C447.209 17.9777 447.175 17.9664 447.053 18.2856C446.835 18.8601 446.41 19.07 445.941 18.8351C445.715 18.7222 443.116 18.643 440.165 18.6592C437.214 18.6755 434.75 18.6079 434.689 18.509C434.627 18.4102 434.152 18.4468 433.632 18.5904C432.602 18.875 430.727 18.6645 430.461 18.2344C430.356 18.0645 430.214 18.0957 430.076 18.319C429.94 18.5388 429.403 18.6617 428.658 18.6436C427.998 18.6273 427.458 18.7081 427.458 18.8225C427.458 19.0633 427.069 19.0035 426.139 18.6197C425.776 18.47 425.396 18.3964 425.294 18.4562C425.134 18.5502 417.179 18.8511 415.718 18.8184C415.427 18.8114 412.103 18.8041 408.33 18.8008C404.558 18.7978 401.352 18.7939 401.207 18.791C401.062 18.789 398.365 18.7383 395.214 18.6787C391.715 18.6127 389.423 18.669 389.328 18.8239C389.029 19.3077 388.147 19.1027 388.147 18.5492C388.147 18.2589 387.979 18.0214 387.773 18.0214C387.568 18.0214 387.28 17.6948 387.135 17.2957L386.87 16.5699L386.809 17.2297C386.773 17.646 386.681 17.4513 386.564 16.7019L386.38 15.5142L386.339 16.9154C386.314 17.7735 386.197 18.2533 386.036 18.1534C385.882 18.0582 385.772 16.5672 385.772 14.575C385.772 12.474 385.67 11.1597 385.508 11.1597C385.346 11.1597 385.244 12.4404 385.244 14.4742C385.244 16.6166 385.151 17.731 384.981 17.6256C384.836 17.5359 384.717 17.6276 384.717 17.8299C384.717 18.4275 383.927 18.2497 383.907 17.6475C383.887 17.1067 383.887 17.1064 383.662 17.6255C383.462 18.0898 383.432 18.0641 383.416 17.412C383.404 16.9886 383.285 16.7406 383.134 16.8338C382.989 16.9234 382.856 16.8419 382.839 16.6514C382.822 16.4614 382.717 16.6624 382.606 17.0977C382.426 17.8051 382.398 17.7488 382.338 16.5699C382.274 15.2903 382.266 15.2783 382.078 16.174C381.891 17.063 381.882 17.0688 381.849 16.3279C381.803 15.3061 381.587 15.5718 381.308 16.9953L381.08 18.1534L381.048 16.9657C381.023 16.0948 380.947 15.8837 380.759 16.174C380.578 16.4549 380.489 16.0717 380.455 14.8544C380.418 13.599 380.377 13.4221 380.297 14.1946L380.187 15.2503L379.818 14.1946C379.544 13.4133 379.44 11.4931 379.418 6.80507C379.401 3.21321 379.296 0.756742 379.176 1.13089C379.06 1.49378 378.93 4.70035 378.888 8.25659C378.829 13.1768 378.772 14.0916 378.649 12.0833L378.487 9.44418L378.392 11.4235L378.296 13.4029L378.109 10.6318C378.007 9.1077 377.891 6.19806 377.852 4.16592C377.805 1.67966 377.72 0.816418 377.593 1.52678L377.404 2.58244L377.348 1.39482C377.305 0.48973 377.241 0.332786 377.075 0.735038C376.886 1.1965 376.836 1.20842 376.681 0.829981C376.539 0.484214 376.122 0.398874 374.608 0.405724C373.565 0.410617 372.505 0.520344 372.251 0.649925C371.946 0.805031 371.789 0.785444 371.789 0.592499C371.789 0.420146 371.435 0.334766 370.931 0.385286L370.074 0.471145L369.932 4.56181L369.789 8.65247L369.734 4.49583L369.678 0.339183H369.019H368.359L368.301 4.75972L368.242 9.18029L368.162 5.09563C368.019 -2.15271 367.634 0.302293 367.526 9.15338C367.451 15.2953 367.332 17.8352 367.109 18.0585C366.889 18.2779 364.77 18.3986 359.993 18.4637C356.251 18.5148 352.247 18.5969 351.096 18.6461C349.945 18.6954 348.615 18.6482 348.142 18.5414C347.593 18.4175 347.043 18.4702 346.625 18.6867C346.266 18.8735 345.898 18.9535 345.809 18.8644C345.72 18.7753 342.951 18.7362 339.656 18.7774C336.361 18.8187 333.369 18.8265 333.006 18.7949C332.643 18.7631 331.99 18.753 331.555 18.7725C331.119 18.7917 330.288 18.7998 329.708 18.7905C329.127 18.7807 328.089 18.7782 327.399 18.7843C325.484 18.8015 324.665 18.8007 323.442 18.7804C322.825 18.7702 321.727 18.7755 321.001 18.7926C320.276 18.8094 319.118 18.8191 318.429 18.8143C317.74 18.8094 316.79 18.8148 316.318 18.8269C315.847 18.8387 315.016 18.7685 314.473 18.6706C313.929 18.5726 313.276 18.5804 313.022 18.6881C312.094 19.0795 310.964 19.0779 309.98 18.6842C309.323 18.4214 308.816 18.3634 308.523 18.5174C307.667 18.9676 305.392 19.138 304.84 18.7933C304.443 18.5457 303.847 18.5311 302.37 18.7329C301.299 18.8792 300.126 18.9159 299.763 18.8144C299.4 18.713 296.815 18.6551 294.018 18.6859C291.221 18.7169 288.879 18.6553 288.813 18.5497C288.664 18.3089 287.424 18.4966 286.637 18.879C286.194 19.0944 285.885 19.0828 285.419 18.8334C284.605 18.3973 283.736 18.3967 282.694 18.8314C282.017 19.1138 281.731 19.1187 281.241 18.8562C280.574 18.4995 276.814 18.5333 276.811 18.8962C276.811 19.0136 276.661 19.0161 276.48 18.9023C276.005 18.6026 267.557 18.5425 267.011 18.835C266.747 18.9764 266.491 18.9813 266.408 18.8468C266.328 18.7181 264.962 18.5935 263.372 18.5699C260.039 18.5205 259.385 18.4278 259.09 17.9639C258.973 17.7789 258.873 17.7465 258.869 17.8917C258.865 18.0368 258.746 17.9775 258.605 17.7597C258.399 17.4396 258.349 17.4775 258.346 17.9577C258.342 18.573 258.151 18.6642 257.44 18.3912C257.114 18.2661 257.016 17.7901 256.991 16.214C256.967 14.7248 256.907 14.4041 256.758 14.9886C256.61 15.5709 256.539 15.187 256.488 13.5371L256.418 11.2938L256.096 13.669L255.773 16.0443L255.684 12.6134L255.595 9.1825L255.44 12.7453C255.354 14.7049 255.26 15.9388 255.23 15.4873C255.202 15.0358 255.097 14.0908 255.001 13.3873C254.783 11.7972 254.45 12.4281 254.364 14.5927L254.307 16.0443L254.09 14.5927C253.97 13.7944 253.767 12.488 253.638 11.6897L253.403 10.2382L253.331 12.2175L253.258 14.1969L253.009 12.8773C252.872 12.1515 252.706 9.95446 252.64 7.9949C252.575 6.03534 252.408 4.19455 252.271 3.90424C252.134 3.61392 251.98 2.7826 251.931 2.05683C251.882 1.33107 251.796 2.75621 251.741 5.2238L251.641 9.71034L251.488 6.67531L251.335 3.64031L251.199 5.88357L251.062 8.12686L250.977 5.48772C250.917 3.62312 250.833 3.08093 250.691 3.64031C250.542 4.22532 250.482 3.90661 250.458 2.41971C250.43 0.457482 250.411 0.407373 249.768 0.407373H249.108V3.93721C249.108 6.1145 249.007 7.46705 248.844 7.46705C248.684 7.46705 248.562 6.09445 248.534 3.97022C248.493 0.989251 248.462 0.745903 248.317 2.32076L248.146 4.16813L248.1 2.25478C248.056 0.419154 247.674 -0.308373 247.409 0.935189C247.339 1.26179 247.232 1.76653 247.171 2.05683C247.109 2.34715 247.045 2.07152 247.029 1.44419C247 0.430419 246.954 0.347687 246.602 0.699574C246.32 0.982386 246.192 1.76034 246.156 3.42352L246.105 5.75164L245.958 3.11729L245.811 0.482935L245.086 0.427967L244.36 0.372998L244.314 6.7571C244.273 12.3098 244.244 12.7288 244.086 9.97424C243.985 8.2324 243.888 5.37222 243.868 3.61829C243.84 0.975504 243.765 0.429335 243.437 0.429335C243.099 0.429335 243.035 1.24201 242.999 5.99354C242.971 9.9974 242.905 11.0397 242.768 9.71031C242.664 8.69424 242.564 6.17058 242.546 4.10215C242.526 1.79277 242.412 0.341392 242.249 0.341392C242.08 0.341392 241.972 3.24741 241.948 8.45674C241.928 12.9202 241.826 16.097 241.722 15.5164C241.548 14.5472 241.528 14.6013 241.477 16.1762C241.436 17.4034 241.356 17.7414 241.194 17.3638C240.991 16.8916 240.965 16.9103 240.949 17.5422C240.932 18.1882 240.835 18.2514 239.809 18.2844C239.192 18.3044 237.56 18.3765 236.181 18.4451C234.803 18.5137 233.259 18.5483 232.751 18.522C232.243 18.4955 231.472 18.4832 231.036 18.4946C230.212 18.5158 227.035 18.5369 225.892 18.5285C222.974 18.5073 208.026 18.7463 207.819 18.8175C207.674 18.8674 206.625 18.8126 205.489 18.6967C203.971 18.5414 203.256 18.5747 202.794 18.822C202.311 19.0804 202.078 19.0868 201.792 18.8493C201.484 18.5935 197.261 18.5817 195.921 18.833C195.79 18.8575 195.624 18.8497 195.551 18.8155C195.478 18.7812 184.081 18.7105 170.223 18.6579C156.365 18.6053 144.908 18.5618 144.763 18.5611C144.618 18.5603 143.906 18.6051 143.181 18.6606C142.384 18.7216 141.584 18.6171 141.157 18.3963C140.607 18.1118 140.422 18.1032 140.319 18.3571C140.216 18.6113 140.133 18.6077 139.945 18.3408C139.751 18.0661 139.636 18.0801 139.361 18.4119C139.125 18.6953 138.759 18.7799 138.197 18.6808C137.534 18.5641 134.924 18.3661 132.495 18.248C132.277 18.2374 131.607 18.3102 131.006 18.4097C129.639 18.6356 129.546 18.5028 129.167 15.7802C128.888 13.777 128.871 13.7399 128.837 15.0545C128.817 15.8165 128.682 16.44 128.537 16.44C128.392 16.44 128.265 16.2915 128.256 16.1101C128.231 15.683 127.83 16.6196 127.622 17.5856C127.497 18.1645 127.357 18.2927 127.009 18.148C126.761 18.0449 126.415 17.955 126.238 17.948C126.062 17.9411 125.856 17.4506 125.78 16.8578C125.493 14.614 125.442 14.5042 125.403 16.0441C125.375 17.1736 125.29 17.5141 125.108 17.2317C124.892 16.8987 124.851 16.9144 124.848 17.33C124.844 17.7133 124.764 17.7582 124.49 17.5302C124.295 17.3686 124.058 17.3144 123.962 17.4099C123.867 17.5055 123.788 17.3708 123.788 17.1107C123.788 16.7268 123.64 16.6674 123.002 16.7952C121.9 17.0156 121.678 16.4548 121.678 13.4591C121.678 12.0909 121.589 10.3907 121.48 9.68098L121.282 8.39057L121.129 9.97405C120.994 11.3597 120.963 11.1949 120.875 8.65446L120.775 5.75143L120.622 9.84209C120.473 13.8442 120.467 13.7843 120.358 7.07098C120.249 0.338089 120.244 0.288516 120.105 4.43184C119.982 8.07687 119.936 8.42356 119.765 6.9663C119.656 6.03781 119.543 4.25639 119.513 3.0076C119.464 0.909096 119.448 0.987006 119.303 4.03598C119.168 6.88383 119.139 7.04224 119.093 5.19446C119.02 2.29544 118.758 0.472557 118.477 0.915747C118.309 1.18086 118.255 1.15374 118.252 0.803041C118.25 0.549016 118.069 0.341205 117.852 0.341205C117.521 0.341205 117.451 0.934216 117.425 3.97C117.388 8.18052 117.008 7.56804 116.959 3.22104L116.927 0.426722L116.032 0.393281C115.318 0.36637 115.104 0.477778 114.974 0.944335C114.884 1.26592 114.687 4.55317 114.537 8.24934C114.387 11.9455 114.21 15.0234 114.144 15.0891C114.078 15.1548 114.025 14.6642 114.025 13.999C114.025 13.3318 113.891 12.7446 113.725 12.6896C113.453 12.5988 113.149 8.50002 112.935 2.05687C112.902 1.0408 112.785 3.35664 112.677 7.20319C112.465 14.7837 112.091 20.837 111.82 21.1082C111.727 21.2019 111.645 20.5165 111.639 19.5852C111.615 15.5745 111.11 1.73204 110.965 1.09366C110.808 0.398476 110.792 0.394189 108.227 0.362919L105.647 0.331531L105.452 9.24359C105.329 14.8472 105.156 18.2192 104.985 18.3267C104.836 18.4207 104.358 18.3734 103.922 18.2215C103.361 18.0259 102.892 18.0309 102.311 18.2386C101.861 18.4 100.305 18.5367 98.8539 18.5424C97.4028 18.5485 94.6721 18.5733 92.7857 18.5987C90.8993 18.624 89.0168 18.5588 88.6024 18.454C88.0934 18.3253 87.6469 18.3958 87.2265 18.6713C86.3913 19.2187 85.7433 19.185 85.0718 18.5592C84.6939 18.2069 84.4796 18.1416 84.4079 18.3568C84.3325 18.5834 83.2107 18.6813 80.4969 18.6981C78.4041 18.7111 76.4753 18.8182 76.2105 18.9362C75.9284 19.0619 75.2981 19.0084 74.688 18.807C73.8793 18.54 73.3602 18.5295 72.3632 18.7596C71.4071 18.9804 70.8755 18.979 70.2801 18.7547C69.6574 18.5196 69.2377 18.5331 68.3823 18.8155C67.4271 19.1308 67.1381 19.1241 66.166 18.7636C65.2024 18.4064 64.9056 18.3982 64.0156 18.7043C63.4477 18.8996 62.7432 19.0077 62.4501 18.9445C61.2476 18.6853 59.4005 18.619 59.2699 18.8305C59.1928 18.9549 58.9854 19.0083 58.8087 18.9491C58.6318 18.8899 57.3107 18.7832 55.8725 18.7119C53.9499 18.6167 53.0707 18.6793 52.5518 18.9475C51.9441 19.2618 51.7394 19.2573 51.0803 18.9153C50.4903 18.609 49.8904 18.562 48.4648 18.7099C47.4474 18.8156 46.3775 18.877 46.0873 18.8466C45.067 18.7397 43.7073 18.7263 43.1851 18.8181C42.8949 18.869 41.9025 18.8171 40.9798 18.7021C39.8292 18.5589 39.1203 18.5908 38.7234 18.8032C38.2666 19.0478 37.8983 19.0282 36.975 18.71C36.2241 18.4512 35.7142 18.398 35.5509 18.5613C35.0139 19.0985 34.8914 18.7384 34.8071 16.3746L34.7203 13.9334L34.6657 16.5066C34.6155 18.8589 34.567 19.0797 34.0988 19.0797C33.8171 19.0797 33.5133 18.961 33.4237 18.8159C33.334 18.6707 32.9862 18.5519 32.6509 18.5519C32.1253 18.5519 32.0158 18.379 31.8569 17.2983C31.3257 13.6861 31.253 13.5643 31.2163 16.2249C31.1756 19.1126 30.9314 19.4413 29.3905 18.6724C28.7507 18.3531 28.4375 18.3258 28.0144 18.5523C27.7132 18.7136 27.2636 18.8191 27.0154 18.7868C26.7671 18.7546 25.9911 18.8223 25.291 18.9369C24.4378 19.0768 23.92 19.0477 23.7211 18.8487C23.3343 18.4618 21.6831 18.4632 21.6831 18.8508C21.6831 19.0545 21.3264 19.0921 20.5618 18.9692C19.539 18.8049 17.2285 18.7414 15.2192 18.8225C14.7838 18.8401 13.4185 18.7956 12.1851 18.7241C10.5235 18.6275 9.79236 18.6902 9.36272 18.9658C8.61234 19.4474 8.05834 19.2201 7.82543 18.3351C7.65953 17.7041 7.61917 17.6831 7.45123 18.1387C7.32039 18.494 7.2038 18.5528 7.06766 18.3324C6.96005 18.1582 6.76155 18.084 6.62638 18.1675C6.48738 18.2535 6.36224 17.6548 6.33779 16.7862L6.29498 15.2532L6.11726 16.7047C6.00109 17.653 5.90816 16.2805 5.84905 12.746L5.75855 7.33575L5.60163 12.746C5.51521 15.7216 5.32892 18.3548 5.18731 18.5975C4.7801 19.2957 4.06392 18.5803 3.93789 17.3492L3.8315 16.3088L3.78707 17.446C3.75854 18.1275 3.63707 18.5179 3.47891 18.4201C3.3338 18.3305 3.21518 18.3748 3.21518 18.5187C3.21518 18.9406 2.36746 19.081 1.30243 18.8356C0.523142 18.656 0.313049 18.6858 0.313049 18.9757C0.313049 19.2226 0.660747 19.3568 1.36837 19.3834C2.99693 19.4444 3.07038 19.4582 3.27713 19.7396C3.3933 19.8976 3.49155 19.8446 3.52253 19.6076C3.55106 19.3899 3.65011 20.1025 3.74305 21.1911L3.91179 23.1705L3.95948 21.2571C4.00188 19.5554 4.06384 19.3437 4.51911 19.3437C4.80077 19.3437 5.12728 19.4922 5.24468 19.6737C5.36207 19.8551 5.52511 22.3788 5.60704 25.2818L5.75624 30.5601L5.84754 25.1499C5.89768 22.1742 6.00161 20.1553 6.07865 20.6633L6.21888 21.587L6.36604 20.4199C6.5246 19.1652 7.11438 18.6671 7.35447 19.5854C7.44944 19.9491 7.60597 20.0671 7.79873 19.9207C8.32097 19.5243 10.9532 19.1153 12.3176 19.2184C15.2686 19.4416 16.1681 19.4244 16.4528 19.1396C16.6469 18.9454 16.9106 18.9257 17.2049 19.0833C17.9481 19.4811 21.7517 19.532 21.881 19.1458C22.0131 18.7522 22.9034 18.7053 23.1348 19.0799C23.3577 19.4405 27.8352 19.4188 28.1986 19.0554C28.4073 18.8468 28.6766 18.8913 29.1728 19.2165C29.6088 19.5023 30.0996 19.6055 30.5202 19.4999L31.1817 19.3339L31.2306 22.3079C31.2591 23.9437 31.3235 24.6288 31.3773 23.8305C31.4311 23.0321 31.5877 22.2661 31.7242 22.1282C31.8612 21.9903 31.9729 21.3037 31.9729 20.6025C31.9729 19.17 32.1787 19.0003 33.5559 19.2968L34.4793 19.4956L34.6272 21.8609L34.7752 24.2263L34.8249 21.7851C34.8702 19.5726 34.9223 19.3439 35.3805 19.3439C35.6585 19.3439 35.9361 19.1954 35.9972 19.014C36.0848 18.7539 36.1973 18.7576 36.529 19.0315C36.7605 19.2226 37.3437 19.3805 37.8251 19.3823C38.8518 19.3862 50.4098 19.3862 51.7601 19.3824C52.268 19.3814 53.0991 19.3555 53.6069 19.3256C54.1148 19.2959 56.6167 19.293 59.1666 19.3187C61.9268 19.3468 64.1017 19.2524 64.5413 19.0853C65.0676 18.8851 65.3791 18.887 65.6256 19.0914C65.8159 19.2493 66.3653 19.3762 66.8467 19.3734C67.3281 19.3704 69.4435 19.3774 71.5476 19.3889C73.6516 19.4003 75.6699 19.3919 76.0327 19.371C77.5266 19.2838 83.4177 19.3707 85.1606 19.5055C86.6745 19.6227 87.1154 19.5681 87.4629 19.2204C87.8204 18.8629 87.9938 18.8453 88.4926 19.1157C88.9007 19.337 90.8631 19.4628 94.633 19.5094C97.6802 19.5469 100.685 19.6016 101.31 19.6304C101.935 19.6593 102.573 19.5564 102.727 19.4019C103.052 19.0769 103.571 19.2246 104.593 19.9323L105.318 20.4352V28.6424C105.318 36.1111 105.36 36.8901 105.78 37.3002C106.101 37.6136 106.342 37.6708 106.571 37.488C106.796 37.3093 106.901 37.32 106.901 37.5215L106.902 37.5178Z" fill="black"/>
</svg>
