<svg width="465" height="39" viewBox="0 0 465 39" fill="none" xmlns="http://www.w3.org/2000/svg">
<path d="M0.725963 20.268C0.897573 20.0964 0.993336 20.274 1.00557 20.7876C1.01577 21.2169 1.12648 21.8062 1.25154 22.0973C1.41639 22.4809 1.49249 22.1897 1.52822 21.0389C1.55532 20.1658 1.63069 19.6532 1.69569 19.8998C1.76069 20.1464 1.96881 20.2887 2.15819 20.216C2.37739 20.1319 2.58053 20.4016 2.71721 20.9583L2.9319 21.8327L3.0349 20.9677C3.0916 20.492 3.24926 20.1717 3.38536 20.2558C3.52145 20.3399 3.64541 22.2174 3.66082 24.428C3.67622 26.6386 3.77642 29.5188 3.88347 30.8285C4.03617 32.6965 4.0923 31.7841 4.1439 26.5952C4.1895 22.0079 4.28475 20.2401 4.4546 20.8275C4.8471 22.1847 5.21938 22.1348 5.22871 20.7238C5.23671 19.5475 5.26641 19.4902 5.62558 19.965C5.83924 20.2475 6.01587 20.3665 6.01809 20.2296C6.02009 20.0926 6.13757 20.1592 6.27864 20.3774C6.46501 20.6658 6.53622 20.6796 6.53917 20.4279C6.54117 20.2375 6.66228 20.1552 6.8078 20.2451C6.95332 20.335 7.08311 20.1932 7.09624 19.93C7.10934 19.6668 7.24382 19.8681 7.39503 20.3774C7.55751 20.9247 7.71865 21.1411 7.78901 20.9066C8.13598 19.7499 8.261 19.8838 8.40647 21.5681L8.56643 23.4201L8.64154 21.3035C8.71614 19.1992 8.71813 19.1937 8.98669 20.3774C9.19426 21.2924 9.29926 21.4507 9.44017 21.0613C9.70425 20.3316 10.5054 20.2841 10.539 20.9962C10.5595 21.4294 10.6329 21.3595 10.8419 20.7082C11.1462 19.7595 11.5703 19.5578 11.5703 20.3618C11.5703 21.1281 12.0608 21.285 12.2389 20.5757C12.3291 20.2161 12.6083 19.9425 12.9081 19.9199C13.346 19.8869 13.4224 20.0555 13.4224 21.0553C13.4224 21.7011 13.5415 22.2295 13.687 22.2295C13.8325 22.2295 13.9634 21.5449 13.978 20.7082C13.9981 19.5471 14.0545 19.3435 14.2162 19.8483C14.3327 20.2121 14.4417 20.3311 14.4584 20.1129C14.4836 19.7837 14.5283 19.7782 14.7198 20.0807C14.8468 20.2812 15.0831 20.3634 15.2449 20.2635C15.4067 20.1635 15.5391 20.2205 15.5391 20.3902C15.5391 20.5598 15.7177 20.6302 15.936 20.5464C16.1909 20.4486 16.3395 20.5567 16.3514 20.8488C16.3669 21.2281 16.4077 21.2158 16.5974 20.7743C16.807 20.2865 16.8277 20.2969 16.862 20.9066C16.8963 21.5163 16.917 21.5266 17.1266 21.0389C17.2707 20.7034 17.3704 21.8174 17.3989 24.0816C17.4478 27.9628 17.8316 27.9628 17.9171 24.0816C17.9444 22.8447 18.0594 21.2373 18.1727 20.5097L18.3788 19.1868L18.4141 20.2957C18.4568 21.6336 18.967 22.1175 19.005 20.8561C19.0298 20.0329 19.044 20.0201 19.2432 20.642C19.4516 21.2927 19.4556 21.2905 19.4898 20.5097C19.523 19.7533 19.5429 19.7401 19.9131 20.2296C20.2976 20.738 20.3055 20.738 20.69 20.2296C21.051 19.7523 21.0809 19.8001 21.1132 20.9066C21.1323 21.5614 21.2434 22.3949 21.3599 22.7587C21.5469 23.3427 21.5779 23.2963 21.6244 22.3618C21.6894 21.057 22.0758 19.6849 22.1458 20.5097L22.1908 21.0389L22.4214 20.5097C22.6454 19.9956 22.657 19.9975 22.8305 20.5758C23.0767 21.3963 23.4766 21.324 23.4766 20.4591C23.4766 19.7994 23.5026 19.7826 23.8309 20.2316C24.1734 20.7 24.1922 20.6995 24.3936 20.216C24.7716 19.309 25.3181 22.1637 25.3235 25.0737C25.3265 26.7019 25.4344 27.7857 25.5932 27.7857C25.7576 27.7857 25.8682 26.1579 25.8852 23.4862C25.9123 19.2214 25.9462 19.1617 26.5992 22.2294L26.8526 23.4201L26.8844 22.0612C26.9019 21.3139 27.094 20.3614 27.3114 19.9446L27.7067 19.1867L27.7087 20.1506C27.7107 21.6306 28.4334 21.7239 28.9866 20.3156L29.4265 19.1958L29.5954 19.985C29.6884 20.4191 29.7956 21.6672 29.8337 22.7586L29.903 24.743L30.094 22.5516C30.1991 21.3464 30.3606 20.2847 30.4529 20.1924C30.5452 20.1001 30.6207 20.223 30.6207 20.4655C30.6207 20.9784 30.916 21.0346 31.3469 20.6037C31.6557 20.2949 31.77 20.5664 32.032 22.2294C32.0893 22.5932 32.1524 22.3295 32.1722 21.6434C32.1993 20.7045 32.3348 20.3283 32.72 20.1221C33.4035 19.7563 33.5311 19.7756 33.5311 20.2451C33.5311 20.4633 33.6502 20.6419 33.7957 20.6419C33.9412 20.6419 34.0603 20.4704 34.0603 20.2607C34.0603 19.3645 34.5932 19.6458 34.7497 20.6247C34.9255 21.7238 35.3832 21.8612 35.3832 20.8149C35.3832 20.4151 35.5535 20.2126 35.9124 20.1855C36.2034 20.1636 36.4416 20.2492 36.4416 20.3757C36.4416 20.6399 37.4981 20.5732 37.9741 20.2791C38.2125 20.1317 38.3072 20.6398 38.3469 22.28L38.4001 24.4784L38.4915 22.3627C38.5913 20.0519 39.0695 18.943 39.1138 20.9198C39.1351 21.8708 39.1778 21.97 39.3356 21.4357C39.4431 21.0719 39.6694 20.804 39.8384 20.8404C40.0075 20.8768 40.1457 20.7209 40.1457 20.494C40.1457 20.2672 40.2546 20.1489 40.3877 20.2311C40.5208 20.3134 40.6767 20.2401 40.7341 20.0676C40.7915 19.8954 40.9802 19.8422 41.1535 19.9493C41.3585 20.076 41.4793 21.0399 41.4991 22.7081C41.5238 24.7894 41.5707 25.0729 41.7484 24.2138C41.8688 23.6318 41.9859 22.3221 42.0085 21.3034L42.0497 19.4513L42.3908 20.642L42.7319 21.8326L42.9439 20.9066L43.1558 19.9805L43.4769 21.1711C43.7221 22.0805 43.804 22.195 43.8239 21.6558C43.8382 21.2675 43.926 20.7515 44.019 20.5091C44.2755 19.8407 44.627 20.5492 44.6756 21.8326C44.7006 22.493 44.7538 22.6423 44.8172 22.2295C44.873 21.8657 44.9907 21.1513 45.0788 20.642L45.2391 19.7159L45.5827 20.642C45.8126 21.2616 45.9329 21.3921 45.9464 21.0363C45.9575 20.7439 46.2047 20.356 46.4957 20.1742C47.0068 19.855 47.0261 19.9138 47.062 21.8965L47.0992 23.9492L47.3928 21.8752C47.6981 19.7182 48.066 19.4123 48.1069 21.2814L48.1306 22.3618L48.4821 21.0826C48.9262 19.4665 49.1405 19.2459 49.1457 20.3994C49.1477 20.8966 49.2651 21.482 49.4062 21.7003C49.6125 22.0196 49.6635 21.9777 49.6667 21.4862C49.6687 21.1471 49.7885 20.9481 49.9354 21.0388C50.0902 21.1345 50.1999 20.8589 50.1999 20.3741C50.1999 19.6378 50.244 19.5899 50.5968 19.9427C50.8433 20.1892 51.0016 20.8729 51.0146 21.7475C51.0393 23.4119 51.1495 23.2108 51.4032 21.0388C51.5718 19.5945 51.6147 19.511 51.8791 20.1128C52.0389 20.4766 52.2444 20.8338 52.3358 20.9066C52.4272 20.9794 52.5698 21.2174 52.6529 21.4357C52.7437 21.6743 52.8123 21.5554 52.8249 21.1374C52.8477 20.3787 53.6395 19.4484 53.6395 20.1803C53.6395 20.3986 53.8181 20.7254 54.0364 20.9066C54.368 21.1817 54.4333 21.1435 54.4333 20.6743C54.4333 20.0447 54.7005 19.9567 55.1741 20.4303C55.4211 20.6772 55.4916 20.6738 55.4916 20.4147C55.4916 20.2315 55.6107 20.1552 55.7562 20.2451C55.9017 20.335 56.0208 20.6397 56.0208 20.9222C56.0208 21.6271 56.7574 21.5737 56.8623 20.8612C56.989 19.9996 57.6083 19.9275 57.6083 20.7743C57.6083 21.9368 58.2546 21.3875 58.4108 20.0923L58.5519 18.9222L58.7773 20.1128C58.9012 20.7677 59.0889 22.1964 59.1945 23.2878L59.3863 25.2722L59.4233 23.2519C59.4454 22.0431 59.6191 20.9272 59.8556 20.4738C60.073 20.057 60.2516 19.8483 60.2525 20.01C60.2533 20.1761 60.5258 20.2521 60.8785 20.1847C61.3554 20.0935 61.5505 20.2115 61.7046 20.6844C61.8922 21.2603 61.9201 21.2389 62.1037 20.3774C62.277 19.5645 62.3054 19.5384 62.3359 20.1634C62.3836 21.1389 62.8909 21.3889 62.936 20.4592C62.9662 19.8352 62.9904 19.8114 63.0867 20.3112C63.232 21.066 63.6937 21.0916 63.6937 20.3449C63.6937 19.8758 63.759 19.8376 64.0906 20.1128C64.3088 20.2939 64.5013 20.6955 64.5181 21.0051C64.5425 21.4522 64.5737 21.4727 64.6698 21.1049C64.7363 20.8503 64.9607 20.6419 65.1683 20.6419C65.3759 20.6419 65.5458 20.4563 65.5458 20.2294C65.5458 20.0026 65.6648 19.8906 65.8103 19.9805C65.9559 20.0704 66.0749 20.4942 66.0749 20.9221C66.0749 21.3501 66.194 21.7003 66.3395 21.7003C66.485 21.7003 66.6041 21.3193 66.6041 20.8536C66.6041 20.2279 66.6815 20.0844 66.9009 20.3038C67.0642 20.467 67.343 20.5448 67.5206 20.4767C67.7078 20.4048 67.9608 20.7192 68.1228 21.225L68.4022 22.0971L68.4292 21.2372C68.4441 20.7643 68.557 20.3773 68.6803 20.3773C68.8036 20.3773 69.0253 20.1095 69.1731 19.782C69.4084 19.2603 69.4681 19.3667 69.6553 20.6419L69.869 22.0971L70.319 20.6433L70.769 19.1894L70.9585 20.3112C71.1727 21.5786 71.6312 22.0852 71.6312 21.0544C71.6312 19.9475 72.1161 20.2856 72.2729 21.5018C72.5776 23.8655 72.6196 23.8853 72.6931 21.7003C72.7347 20.4634 72.8196 19.8085 72.8818 20.2451C73.0306 21.2899 73.4748 21.7486 73.5096 20.8933L73.536 20.2451L73.7294 20.9065C73.9195 21.557 73.926 21.5537 74.1209 20.7081C74.4218 19.4024 75.0259 19.7429 75.0981 21.2589C75.1154 21.6212 75.2225 21.467 75.389 20.8404C75.6416 19.8893 76.2362 19.508 76.4529 20.1581C76.5979 20.593 77.6663 20.6256 77.8296 20.2C78.0838 19.5375 78.5104 19.8476 78.5104 20.6948C78.5104 21.5822 78.885 21.4675 79.1154 20.5096C79.2213 20.0694 79.2495 20.0917 79.2828 20.6419L79.3229 21.3034L79.701 20.6419C80.0682 19.9995 80.0801 20.0185 80.1145 21.3034L80.1498 22.6263L80.4664 21.4391C80.9569 19.5997 81.2439 20.5415 81.4324 24.6087L81.5981 28.1825L81.6603 23.9492C81.6946 21.6209 81.8136 19.9487 81.9249 20.2333C82.1258 20.7468 82.1296 20.7468 82.4275 20.2333C82.6783 19.8009 82.7296 19.9551 82.7397 21.1711C82.7484 22.2104 82.8251 22.5128 83.0083 22.2294C83.1493 22.0111 83.2684 21.2372 83.2729 20.5096C83.2831 18.8357 83.773 19.4094 83.8376 21.1711C83.8686 22.016 83.9101 22.1313 83.9804 21.568C84.0349 21.1314 84.1497 20.4765 84.2356 20.1127C84.3822 19.4919 84.4051 19.4838 84.6075 19.9805C84.7261 20.2715 84.8481 21.1645 84.8786 21.9648L84.934 23.42L85.1987 21.7664C85.3443 20.8569 85.5658 20.1127 85.691 20.1127C85.8162 20.1127 85.9187 20.2388 85.9187 20.3929C85.9187 20.547 86.0304 20.6041 86.167 20.5197C86.3035 20.4353 86.4621 20.8152 86.5194 21.364C86.6155 22.2849 86.6269 22.2649 86.668 21.1049C86.7047 20.0662 86.7989 19.8481 87.2108 19.8481C87.901 19.8481 88.0214 20.4968 88.0706 24.4784C88.1063 27.3611 88.1451 27.6609 88.3101 26.3304C88.4185 25.4573 88.5242 23.6119 88.5452 22.2294C88.5794 19.9734 88.6197 19.7815 88.9384 20.3569L89.2936 20.998L89.4761 20.4231C89.7289 19.6263 90.3199 19.704 90.6383 20.5758C90.8861 21.2544 90.9054 21.2622 90.9249 20.6924C90.9373 20.3303 91.0608 20.1526 91.2282 20.256C91.3864 20.3538 91.5855 20.157 91.681 19.8086C91.8447 19.2115 91.8586 19.2184 92.0288 19.9805C92.1263 20.417 92.222 23.1554 92.2414 26.0659C92.265 29.5909 92.3624 31.225 92.5333 30.9607C92.6759 30.7399 92.7916 28.2962 92.7938 25.4549C92.7967 21.7748 92.8801 20.3969 93.092 20.5279C93.2538 20.6279 93.501 20.5456 93.6413 20.3451C93.8387 20.0631 93.9269 20.0554 94.0307 20.3112C94.2257 20.7919 94.6499 20.7164 94.6499 20.2009C94.6499 19.4432 95.0334 20.0982 95.3461 21.3899L95.6454 22.6263L95.6768 21.3943C95.7048 20.2994 95.7672 20.1777 96.2374 20.3007C96.5564 20.3841 96.7666 20.3087 96.7666 20.1112C96.7666 19.8512 96.8487 19.8515 97.1635 20.1132C97.4832 20.3786 97.567 20.372 97.5943 20.0795C97.6129 19.8798 97.7786 20.4308 97.9623 21.3039L98.2964 22.8914L98.3523 20.907C98.4098 18.8635 98.4382 18.8794 99.0604 21.3039C99.2544 22.0596 99.2685 22.0416 99.3558 20.9264L99.4474 19.7551L100.091 20.5045C100.585 21.0785 100.735 21.1477 100.735 20.8003C100.735 20.5508 100.854 20.4202 101 20.5101C101.145 20.6 101.266 20.4582 101.269 20.195C101.272 19.7892 101.312 19.7768 101.529 20.1133C101.67 20.3316 101.801 21.6413 101.821 23.0237C101.876 26.9469 102.255 27.6653 102.292 23.916C102.316 21.4264 102.411 20.634 102.717 20.3805C103.032 20.119 103.133 20.1257 103.225 20.4142C103.555 21.4554 103.606 21.511 103.625 20.8565C103.652 19.9472 104.175 19.588 104.175 20.4789C104.175 20.8427 104.294 21.214 104.44 21.3039C104.594 21.3993 104.704 21.1303 104.704 20.6581C104.704 19.651 105.159 19.5983 105.41 20.5762L105.597 21.3038L105.753 20.662C106.013 19.5924 106.5 19.7332 106.774 20.9573L107.029 22.0976L107.088 20.7747C107.196 18.3951 107.548 20.7056 107.583 24.0158C107.602 25.803 107.72 26.9924 107.879 26.9924C108.041 26.9924 108.144 25.7577 108.144 23.8174C108.144 21.8771 108.247 20.6424 108.408 20.6424C108.554 20.6424 108.673 20.7685 108.673 20.9226C108.673 21.0767 108.792 21.1292 108.937 21.0393C109.083 20.9494 109.21 20.4363 109.221 19.8992C109.252 18.2766 109.691 19.7221 109.713 21.5179C109.724 22.471 109.832 22.9928 109.996 22.8914C110.141 22.8015 110.26 22.2557 110.26 21.6786C110.26 20.7827 110.367 20.5857 110.988 20.3308C112.541 19.6937 112.552 19.7031 112.736 21.8804C112.829 22.9897 112.925 25.1592 112.947 26.7016L112.988 29.506L113.185 27.257C113.294 26.0201 113.403 24.115 113.428 23.0236C113.459 21.6508 113.543 21.2024 113.7 21.5685C113.889 22.0094 113.93 21.9516 113.946 21.2221C113.956 20.7405 114.07 20.4118 114.199 20.4915C114.328 20.5712 114.509 20.3699 114.6 20.0441C114.764 19.4607 114.772 19.4598 115.093 19.9809C115.316 20.3412 115.467 22.4945 115.567 26.7278L115.715 32.9455L115.766 26.3814C115.799 22.0854 115.908 19.8739 116.081 19.9809C116.227 20.0708 116.346 20.4946 116.346 20.9225C116.346 22.2084 116.792 21.7999 117.013 20.3116C117.131 19.5213 117.272 19.1459 117.342 19.4407C117.409 19.7257 117.659 20.2578 117.897 20.6233L118.33 21.2878L118.476 20.2375L118.622 19.1872L118.911 20.3778C119.126 21.2669 119.207 21.3881 119.228 20.8564C119.255 20.1672 119.785 19.4876 119.785 20.1417C119.785 20.32 119.864 20.3876 119.959 20.2919C120.055 20.1961 120.293 20.2504 120.489 20.4125C120.753 20.6323 120.844 20.6231 120.844 20.3764C120.844 20.1398 121.139 20.0928 121.88 20.2113C122.593 20.3253 122.958 20.2738 123.05 20.0467C123.124 19.8639 123.193 19.9412 123.204 20.2198C123.223 20.6851 123.264 20.6779 123.744 20.1243L124.264 19.5254L124.737 20.5167L125.209 21.508L125.52 20.4798C125.73 19.7822 125.837 19.6431 125.85 20.047C125.865 20.4592 126.034 20.6423 126.4 20.6423C126.771 20.6423 126.93 20.4646 126.933 20.047C126.936 19.5686 126.986 19.5297 127.188 19.8486C127.326 20.0669 127.567 20.2455 127.723 20.2455C127.879 20.2455 128.12 20.4241 128.258 20.6423C128.45 20.9459 128.514 20.8527 128.53 20.2455C128.552 19.482 128.563 19.4744 128.84 20.047C129.151 20.6927 129.572 20.8435 129.579 20.3116C129.582 20.0911 129.669 20.1132 129.84 20.3777C130.057 20.7136 130.097 20.7006 130.1 20.2927C130.104 19.8781 130.156 19.8629 130.477 20.1836C130.682 20.3887 130.904 20.8437 130.97 21.1947C131.069 21.7182 131.097 21.6811 131.126 20.9887C131.168 20.0109 131.683 19.5163 131.71 20.4283L131.727 21.0392L132.015 20.4439C132.172 20.1164 132.389 19.8486 132.495 19.8486C132.718 19.8486 132.987 20.7417 133.052 21.7007C133.077 22.0645 133.18 21.7667 133.281 21.0392C133.443 19.874 133.492 19.7951 133.688 20.3777L133.911 21.0392L134.098 20.3777C134.266 19.7816 134.289 19.8076 134.329 20.6423C134.37 21.5069 134.392 21.5289 134.66 20.9731C134.818 20.6456 135.16 20.3777 135.421 20.3777C135.681 20.3777 135.967 20.2587 136.057 20.1132C136.45 19.4776 136.719 19.9548 136.719 21.2882C136.719 22.0799 136.838 22.8013 136.983 22.8913C137.144 22.9905 137.249 22.6065 137.252 21.9147C137.258 20.2108 137.665 19.8205 137.871 21.3214C137.965 22.0072 138.055 22.9981 138.072 23.5235C138.111 24.7179 138.224 24.2117 138.45 21.8411C138.608 20.1779 138.662 20.0467 138.995 20.5026C139.319 20.946 139.365 20.9531 139.365 20.5606C139.365 20.3145 139.484 20.1131 139.629 20.1131C139.775 20.1131 139.894 20.7014 139.894 21.4204C139.894 22.1395 140.013 22.8013 140.158 22.8913C140.325 22.9941 140.433 22.3368 140.449 21.1209L140.475 19.1871L140.796 20.3777L141.118 21.5684L141.321 20.7749C141.5 20.0772 141.563 20.0341 141.843 20.4176C142.132 20.8131 142.216 20.7929 142.744 20.2008C143.475 19.3804 143.857 19.6009 143.881 20.8564C143.917 22.7373 144.352 23.0104 144.384 21.1715L144.413 19.4517L144.854 20.2454L145.294 21.0392L145.449 20.2454L145.604 19.4517L145.988 20.047C146.473 20.8004 146.71 20.8004 146.835 20.047C146.924 19.5134 146.978 19.5476 147.361 20.3777C147.783 21.2928 147.788 21.2952 147.81 20.5761C147.832 19.8363 148.36 19.5188 148.36 20.2454C148.36 20.726 148.793 20.7723 148.979 20.3115C149.052 20.1296 149.122 20.3085 149.133 20.7084C149.163 21.7342 149.676 21.6181 149.718 20.5761L149.753 19.7162L149.937 20.6422C150.083 21.372 150.166 21.4702 150.328 21.1053C150.616 20.4568 151 20.5284 151.038 21.2376C151.055 21.565 151.211 21.2376 151.385 20.51L151.702 19.187L151.883 20.08C151.983 20.5712 152.073 21.345 152.083 21.7998C152.099 22.5015 152.136 22.5466 152.329 22.0975C152.454 21.8064 152.565 21.1772 152.575 20.6991C152.592 19.9116 152.644 19.8567 153.127 20.1152C153.546 20.3395 153.693 20.3135 153.816 19.9937C154.117 19.2094 154.446 19.8933 154.446 21.3037C154.446 22.0869 154.565 22.8013 154.71 22.8912C154.874 22.9925 154.975 22.5118 154.975 21.628C154.975 20.0174 155.06 19.851 155.784 20.0404C156.187 20.1459 156.299 20.4102 156.302 21.2684C156.308 22.8793 156.813 21.922 156.842 20.2454C156.858 19.2602 156.922 19.0575 157.092 19.4516C157.217 19.7427 157.327 20.3748 157.338 20.8563C157.361 21.9745 157.885 21.7064 157.885 20.5761C157.885 19.7906 157.906 19.7742 158.274 20.261C158.649 20.7574 158.663 20.7524 158.692 20.1131C158.722 19.4633 158.729 19.4657 159.086 20.2454C159.285 20.682 159.468 21.3963 159.492 21.8329C159.524 22.4285 159.589 22.3064 159.75 21.344C159.973 20.0144 160.256 19.4855 160.452 20.0321C160.514 20.2058 160.736 20.2824 160.945 20.2022C161.19 20.1084 161.328 20.2315 161.334 20.5478C161.343 20.9926 161.374 20.9864 161.665 20.4826C162.007 19.8911 162.482 19.9221 163.243 20.5855C163.667 20.9547 163.706 20.9369 163.706 20.3746C163.706 19.5651 163.98 19.8656 164.239 20.9595L164.446 21.8329L164.473 20.8407C164.503 19.7437 164.854 19.5553 165.303 20.3947C165.537 20.8316 165.671 20.8781 165.974 20.6269C166.285 20.3685 166.352 20.4329 166.352 20.9911C166.352 21.3641 166.471 21.7429 166.617 21.8329C166.762 21.9228 166.881 21.7526 166.881 21.4546C166.881 20.9077 167.618 19.8485 167.998 19.8485C168.111 19.8485 168.218 20.0568 168.235 20.3115C168.26 20.6972 168.287 20.6879 168.397 20.2558C168.512 19.8045 168.574 19.8389 168.874 20.5204C169.158 21.1654 169.223 21.2063 169.241 20.7525C169.295 19.3564 170.309 19.953 170.345 21.4022L170.368 22.362L170.629 21.4532C170.828 20.7616 170.948 20.6351 171.131 20.924C171.307 21.2031 171.378 21.0933 171.397 20.5099L171.422 19.7162L171.758 20.4767C172.072 21.1866 172.104 21.1998 172.241 20.6751C172.454 19.86 173.231 19.9502 173.231 20.7901C173.231 21.1741 173.346 21.3965 173.496 21.3037C173.641 21.2138 173.76 20.8495 173.76 20.4943C173.76 19.8388 174.418 19.5732 174.611 20.151C174.686 20.3762 174.854 20.3775 175.268 20.156C175.988 19.7706 176.127 20.1186 176.186 22.45C176.213 23.5118 176.266 23.7929 176.318 23.1559C176.507 20.8825 176.715 19.8448 176.952 19.9914C177.089 20.0756 177.2 20.3756 177.2 20.658C177.2 21.4618 177.726 21.2595 177.756 20.444C177.777 19.8816 177.888 20.0402 178.243 21.1425C178.703 22.5694 179.052 22.5222 179.052 21.0332C179.052 20.6899 179.171 20.3355 179.317 20.2455C179.462 20.1556 179.581 20.3342 179.581 20.6424C179.581 21.3114 180.047 21.1019 180.377 20.2846C180.583 19.7729 180.608 19.7953 180.627 20.5101C180.638 20.9467 180.763 21.4825 180.904 21.7007C181.088 21.9855 181.169 21.6866 181.192 20.6424C181.222 19.2126 181.227 19.2034 181.488 20.1133C181.955 21.7396 182.071 21.8629 182.167 20.8353C182.283 19.5898 182.745 19.8024 182.788 21.121L182.82 22.0976L183.086 20.994C183.319 20.0274 183.438 19.896 184.046 19.9357C184.481 19.9641 184.805 20.1785 184.913 20.5101C185.007 20.8011 185.118 24.254 185.158 28.183L185.231 35.3268L185.485 27.9846C185.688 22.0815 185.809 20.6424 186.099 20.6424C186.298 20.6424 186.46 20.4995 186.46 20.3249C186.46 19.8654 186.911 20.3975 187.065 21.0393C187.165 21.4539 187.199 21.417 187.223 20.8691C187.264 19.9393 188.048 19.6059 188.048 20.5184C188.048 20.8776 188.167 21.1716 188.312 21.1716C188.458 21.1716 188.577 20.9533 188.577 20.6865C188.577 20.029 188.857 19.7964 189.252 20.1248C189.432 20.2742 189.738 20.3624 189.932 20.321C190.126 20.2795 190.325 20.5134 190.375 20.8409C190.503 21.6812 190.954 21.5825 190.979 20.7086C191.003 19.8675 191.111 20.1011 191.345 21.5023C191.589 22.9558 192.013 22.7122 192.037 21.1054C192.049 20.3414 192.118 19.8652 192.192 20.0471C192.35 20.4398 193.075 20.4941 193.075 20.1132C193.075 19.6395 193.604 19.8348 193.613 20.3116C193.62 20.7479 193.641 20.7484 193.966 20.3206C194.513 19.6002 194.927 20.2811 194.927 21.9013C194.927 22.7792 195.028 23.2569 195.192 23.1557C195.337 23.0658 195.464 22.136 195.473 21.0895C195.485 19.6868 195.552 19.3426 195.728 19.7794C195.931 20.285 196.064 20.3344 196.637 20.1166C197.168 19.915 197.308 19.9433 197.308 20.2518C197.308 20.4665 197.427 20.6422 197.573 20.6422C197.718 20.6422 197.837 20.4636 197.837 20.2453C197.837 19.603 198.241 19.7899 198.552 20.576C198.817 21.2461 198.842 21.2566 198.868 20.7083C198.883 20.3809 199.058 20.113 199.256 20.113C199.681 20.113 199.948 21.9364 199.952 24.8534C199.953 25.9327 200.004 26.7661 200.064 26.7054C200.125 26.6447 200.325 25.1395 200.508 23.3605C200.767 20.8513 200.915 20.1867 201.168 20.3969C201.395 20.5851 201.556 20.5683 201.696 20.3418C201.841 20.1076 201.955 20.1598 202.101 20.5274C202.294 21.0117 202.314 21.0073 202.483 20.4437C202.771 19.484 203.126 19.7579 203.169 20.9728C203.198 21.8003 203.238 21.8997 203.321 21.3489C203.398 20.8343 203.551 20.6458 203.81 20.7453C204.018 20.8249 204.187 20.7747 204.187 20.6338C204.187 20.4929 204.307 20.3775 204.452 20.3775C204.598 20.3775 204.717 20.58 204.717 20.8273C204.717 21.4661 205.173 20.9277 205.322 20.1129C205.443 19.4525 205.443 19.4524 205.64 20.0468C205.872 20.75 205.951 20.7687 206.474 20.2453C207.044 19.6758 207.278 19.7506 207.509 20.576L207.713 21.3036L207.903 20.5099C208.02 20.0246 208.106 19.9157 208.125 20.2297C208.155 20.7318 208.164 20.7321 208.522 20.2431C208.851 19.7935 208.914 19.9423 209.148 21.7139L209.408 23.6849L209.444 21.7667C209.464 20.6879 209.595 19.8485 209.744 19.8485C209.889 19.8485 210.008 20.1391 210.008 20.4943C210.008 20.8495 210.127 21.2138 210.273 21.3037C210.431 21.4015 210.541 21.0621 210.546 20.4594C210.554 19.5158 210.579 19.4843 210.943 19.9652C211.227 20.3411 211.337 20.3765 211.352 20.0975C211.368 19.8127 211.408 19.8027 211.51 20.058C211.619 20.3292 211.728 20.3327 212.039 20.075C212.351 19.8155 212.479 19.8266 212.674 20.1301C212.878 20.4471 212.957 20.4505 213.15 20.151C213.312 19.9006 213.436 19.8806 213.563 20.0849C213.836 20.5279 214.242 20.4356 214.242 19.9303C214.242 19.5383 214.293 19.5465 214.655 19.9964C214.95 20.3624 215.108 20.4145 215.207 20.1778C215.303 19.9477 215.498 20.0291 215.843 20.4423L216.341 21.0391L216.35 20.4438C216.365 19.4151 216.887 19.7977 216.892 20.8407C216.894 21.3864 217.011 22.0115 217.152 22.2297C217.333 22.509 217.41 22.1268 217.413 20.9406C217.416 19.4721 217.468 19.2971 217.814 19.5839C218.032 19.7651 218.211 20.0773 218.211 20.2778C218.211 20.4782 218.33 20.6422 218.475 20.6422C218.621 20.6422 218.74 20.5232 218.74 20.3777C218.74 19.906 219.268 20.0982 219.286 20.5761C219.298 20.9092 219.383 20.8535 219.591 20.3777L219.88 19.7162L220.038 20.4955L220.195 21.2749L220.518 20.5669C220.974 19.5652 221.592 19.909 221.766 21.261C222.06 23.5514 222.108 23.6378 222.143 21.9431C222.182 20.0573 222.333 19.6916 222.883 20.1478C223.144 20.3645 223.238 20.3639 223.238 20.1458C223.238 19.9824 223.357 19.8488 223.502 19.8488C223.648 19.8488 223.767 20.0237 223.767 20.2374C223.767 20.4616 223.923 20.5659 224.137 20.4839C224.34 20.4058 224.582 20.4639 224.675 20.6129C224.767 20.762 225.008 20.8203 225.211 20.7425C225.46 20.6468 225.616 20.8435 225.692 21.3494C225.773 21.8903 225.815 21.7808 225.844 20.9544C225.881 19.883 225.912 19.839 226.329 20.2561C226.746 20.6732 226.796 20.6712 227.122 20.2244C227.441 19.7886 227.474 19.8145 227.511 20.5258L227.55 21.304L227.66 20.5764C227.803 19.6335 228.257 19.6335 228.291 20.5764L228.317 21.304L228.501 20.6452C228.637 20.1567 228.741 20.0785 228.904 20.3427C229.084 20.634 229.164 20.636 229.338 20.3538C229.486 20.1147 229.605 20.2482 229.725 20.7886C230.185 22.8547 230.286 22.9663 230.489 21.6295C230.594 20.9355 230.791 20.4365 230.928 20.5207C231.064 20.6049 231.185 20.5177 231.196 20.3274C231.213 20.0474 231.243 20.0465 231.354 20.3224C231.459 20.5848 231.577 20.5927 231.862 20.3561C232.145 20.1213 232.233 20.1224 232.233 20.3611C232.233 20.533 232.341 20.6071 232.473 20.5257C232.605 20.4443 232.82 21.2409 232.952 22.296L233.192 24.2143L233.409 22.3622C233.607 20.6795 233.854 20.1288 234.416 20.1173C234.525 20.1153 234.617 20.9765 234.619 22.0315C234.622 23.3677 234.701 23.8293 234.879 23.5529C235.02 23.3346 235.139 22.3225 235.144 21.3039C235.156 18.4458 235.658 19.7525 235.702 22.7591C235.734 24.9021 235.77 25.0971 235.951 24.082C236.068 23.4272 236.172 22.2068 236.183 21.3701C236.202 19.8307 236.537 19.3521 236.829 20.444C236.917 20.7714 236.999 22.2895 237.011 23.8174C237.036 26.9268 237.473 26.811 237.51 23.6852C237.522 22.6665 237.61 21.5418 237.705 21.1858C237.866 20.5863 237.893 20.5765 238.08 21.0535C238.239 21.4595 238.286 21.3865 238.3 20.7086C238.31 20.2356 238.423 19.8487 238.55 19.8487C238.848 19.8487 239.103 21.1327 239.149 22.8583C239.184 24.1877 239.237 24.0367 239.53 21.7618C239.61 21.1405 239.779 20.696 239.905 20.774C240.031 20.852 240.302 20.6765 240.507 20.384C240.958 19.74 241.229 19.947 241.229 20.9355C241.229 21.3392 241.348 21.7431 241.494 21.8331C241.657 21.9342 241.771 21.4098 241.79 20.4596L241.822 18.9226L242.072 20.1133C242.633 22.7934 242.761 23.007 242.79 21.3171C242.81 20.1104 242.889 19.8155 243.128 20.054C243.367 20.2926 243.528 20.2919 243.818 20.0511C244.118 19.802 244.268 19.8342 244.54 20.2055C244.74 20.4788 244.951 20.5642 245.046 20.4102C245.136 20.2649 245.445 20.1914 245.733 20.2469C246.021 20.3024 246.26 20.2057 246.265 20.0322C246.27 19.8574 246.43 19.9233 246.625 20.1797C247.065 20.7596 247.482 20.7699 247.796 20.2086C248.205 19.4768 248.637 20.0781 248.642 21.3859C248.644 22.0685 248.761 22.8056 248.902 23.0239C249.085 23.3071 249.161 23.0038 249.167 21.9656C249.177 20.0345 249.488 19.5551 250.018 20.6497L250.421 21.4822L250.6 20.7666C250.699 20.3731 250.853 20.1236 250.941 20.2123C251.03 20.301 251.262 20.2409 251.458 20.0788C251.732 19.8515 251.813 19.8896 251.813 20.2458C251.813 20.6192 251.886 20.6466 252.196 20.389C252.514 20.1253 252.624 20.2221 252.834 20.9519L253.088 21.8333L253.112 20.9817C253.13 20.3388 253.233 20.1674 253.532 20.2824C253.751 20.3662 253.929 20.3029 253.929 20.1418C253.929 19.5748 254.417 19.8574 254.68 20.5765C254.925 21.2478 254.948 21.2573 254.967 20.6995C254.985 20.1855 255.064 20.1359 255.499 20.3688C256.195 20.7413 256.311 20.7163 256.311 20.1929C256.311 19.3935 256.797 20.1959 256.904 21.1718L257.005 22.0979L257.221 20.9696C257.397 20.0556 257.507 19.8984 257.8 20.1421C258 20.3075 258.163 20.6069 258.163 20.8074C258.163 21.5626 258.662 21.1352 258.741 20.312L258.824 19.4521L259.341 20.0417C259.722 20.4766 259.915 20.5461 260.074 20.3063C260.234 20.0645 260.361 20.1037 260.571 20.4596C260.839 20.9158 260.874 20.9132 261.316 20.403C261.847 19.7911 262.396 20.1014 262.396 21.0131C262.396 21.7912 262.862 21.1966 262.997 20.2458C263.108 19.4692 263.112 19.472 263.169 20.3781C263.217 21.151 263.265 21.2166 263.454 20.775C263.644 20.3337 263.691 20.3997 263.738 21.1718L263.794 22.0979L263.983 21.0396C264.128 20.2297 264.194 20.6334 264.262 22.7594L264.351 25.5375L264.498 22.8916C264.615 20.7816 264.725 20.2458 265.042 20.2458C265.351 20.2458 265.456 20.6699 265.516 22.164C265.623 24.8041 266.098 24.5919 266.109 21.8994C266.116 20.0439 266.169 19.785 266.463 20.1726C266.667 20.4402 267.046 20.5831 267.381 20.5185C267.926 20.4136 267.954 20.5085 267.998 22.5761C268.024 23.7683 268.083 24.2079 268.13 23.5531C268.286 21.3739 268.511 20.1135 268.744 20.1135C268.87 20.1135 269.026 20.3814 269.091 20.7088L269.208 21.3041L269.405 20.7088C269.513 20.3814 269.766 20.1135 269.967 20.1135C270.169 20.1135 270.423 20.1065 270.532 20.0979C270.641 20.0889 270.797 20.3572 270.879 20.6932C271.02 21.2736 271.038 21.2651 271.228 20.5242C271.546 19.2864 271.908 20.2179 271.943 22.3625C271.96 23.3811 272.064 24.8694 272.174 25.6698C272.357 26.9894 272.382 26.8661 272.444 24.3469C272.482 22.8189 272.588 21.2711 272.68 20.9073C272.903 20.0255 273.773 19.9435 273.773 20.8044C273.773 21.7512 274.254 21.5661 274.365 20.5766C274.461 19.7229 274.464 19.7214 274.739 20.3683L275.017 21.02L275.34 20.4174C275.594 19.9427 275.74 19.8794 276.029 20.1192C276.231 20.2867 276.52 20.3469 276.672 20.253C276.829 20.1562 276.948 20.3113 276.948 20.6115C276.948 20.9025 277.067 21.2142 277.213 21.3042C277.371 21.4021 277.479 21.0635 277.481 20.4599C277.484 19.7215 277.552 19.5582 277.736 19.849C278.031 20.3156 279.055 20.4387 279.086 20.0113C279.098 19.8492 279.271 20.0739 279.471 20.5104C279.701 21.0126 279.839 21.1341 279.847 20.8412C279.864 20.1745 280.628 20.2706 280.898 20.9734C281.126 21.5662 281.128 21.5656 281.41 20.8462C281.602 20.3578 281.825 20.1741 282.099 20.2792C282.322 20.3648 282.504 20.3029 282.504 20.1418C282.504 19.9808 282.623 19.849 282.769 19.849C282.914 19.849 283.035 20.1168 283.038 20.4443C283.041 20.7717 283.157 21.2182 283.298 21.4365C283.49 21.7341 283.571 21.5688 283.62 20.775C283.655 20.1929 283.749 23.9434 283.827 29.1094L283.97 38.5021L284.049 29.7708C284.093 24.9687 284.223 21.2777 284.338 21.5688C284.517 22.0229 284.575 21.9667 284.747 21.1719C285.023 19.9012 285.107 19.8074 285.695 20.1221C286.08 20.3278 286.22 20.7097 286.253 21.6442C286.297 22.882 286.299 22.8794 286.473 21.3042C286.574 20.3944 286.676 20.0555 286.712 20.5104C286.766 21.1952 286.804 21.2315 286.988 20.775C287.158 20.3535 287.236 20.4881 287.368 21.4365C287.459 22.0913 287.571 23.2224 287.617 23.95C287.694 25.1651 287.706 25.1328 287.768 23.5531L287.836 21.8333L288.193 22.7594L288.549 23.6854L288.57 22.0318C288.581 21.1191 288.708 20.3781 288.854 20.3781C289 20.3781 289.119 20.5118 289.119 20.6751C289.119 20.8803 289.241 20.8703 289.516 20.6427C289.734 20.4615 289.914 20.4172 289.917 20.5442C289.92 20.6712 290.025 20.611 290.152 20.4104C290.451 19.9375 290.971 20.2626 290.971 20.9229C290.971 21.6229 291.463 21.5717 291.756 20.8412C291.934 20.398 292 20.3621 292.012 20.7006C292.033 21.2457 292.823 21.0408 292.823 20.4904C292.823 20.2789 292.987 20.193 293.22 20.2824C293.438 20.3662 293.617 20.6076 293.617 20.8189C293.617 21.0302 293.736 21.1295 293.881 21.0396C294.027 20.9497 294.146 20.6304 294.146 20.3301C294.146 19.9034 294.223 19.8485 294.501 20.0789C294.696 20.2409 294.934 20.2952 295.03 20.1994C295.126 20.1036 295.204 20.7666 295.204 21.6725C295.204 22.7033 295.303 23.2586 295.469 23.1562C295.614 23.0664 295.739 22.1961 295.745 21.2224C295.757 19.5531 295.776 19.4969 296.092 20.2368C296.367 20.8806 296.458 20.94 296.601 20.5676C296.859 19.8945 297.321 20.0175 297.321 20.7594C297.321 21.1146 297.44 21.4788 297.585 21.5688C297.743 21.6661 297.85 21.351 297.85 20.7906C297.85 20.2727 297.918 19.849 298.001 19.849C298.284 19.849 298.908 20.6033 298.917 20.9545C298.921 21.1468 299.219 20.9701 299.578 20.5618C300.173 19.8859 300.231 19.8681 300.231 20.3634C300.231 20.6625 300.35 20.9073 300.496 20.9073C300.641 20.9073 300.772 21.1752 300.786 21.5026C300.802 21.8544 300.94 21.6213 301.124 20.9327C301.424 19.8067 301.451 19.7836 301.915 20.248C302.27 20.603 302.448 20.6449 302.594 20.4085C302.808 20.0614 303.194 20.3925 303.482 21.1719C303.579 21.4333 303.636 21.3656 303.65 20.9734C303.673 20.3218 304.2 20.1316 304.2 20.775C304.2 20.9933 304.319 21.1719 304.465 21.1719C304.61 21.1719 304.729 20.9192 304.729 20.6103C304.729 20.1412 304.795 20.1029 305.126 20.3781C305.445 20.6427 305.523 20.6386 305.523 20.3576C305.523 20.0855 305.594 20.0783 305.84 20.3252C306.263 20.7481 306.46 20.7263 306.988 20.1981C307.405 19.7816 307.449 19.7819 307.685 20.2041C307.823 20.4517 308.049 20.5852 308.185 20.5008C308.328 20.4127 308.447 21.0021 308.466 21.8843L308.499 23.4213L308.702 22.0345C308.813 21.2717 308.976 20.4605 309.064 20.2318C309.376 19.4176 309.757 20.1687 309.783 21.651C309.803 22.804 309.859 23.0018 310.021 22.4952C310.137 22.1314 310.245 21.3803 310.259 20.826C310.286 19.8126 310.815 19.6534 310.815 20.6588C310.815 20.9412 310.934 21.1723 311.079 21.1723C311.225 21.1723 311.344 20.9379 311.344 20.6515C311.344 19.9491 312.07 20.2354 312.218 20.9962C312.292 21.3727 312.35 21.2516 312.387 20.6432C312.418 20.1338 312.513 19.8936 312.598 20.1093C312.682 20.3249 312.911 20.6609 313.106 20.8558C313.402 21.1519 313.461 21.1309 313.461 20.7282C313.461 20.3756 313.675 20.2387 314.255 20.2181C314.87 20.1963 315.048 20.3038 315.048 20.6967C315.048 20.9755 315.167 21.13 315.313 21.04C315.458 20.9501 315.577 20.6454 315.577 20.3629C315.577 19.7876 315.98 19.6725 316.217 20.1801C316.309 20.3778 316.424 20.4044 316.503 20.2462C316.576 20.1007 317.082 19.9931 317.627 20.007C318.508 20.0295 318.653 20.1316 318.913 20.9143L319.206 21.7962L319.458 20.7566L319.71 19.7171L320.146 20.5108C320.534 21.2151 320.584 21.2392 320.594 20.7249C320.604 20.14 321.133 19.5536 321.133 20.1266C321.133 20.2963 321.298 20.3722 321.498 20.2952C321.699 20.2182 321.996 20.2882 322.159 20.4511C322.377 20.6692 322.557 20.6116 322.844 20.232C323.058 19.9488 323.237 19.8548 323.242 20.023C323.247 20.1976 323.477 20.2696 323.779 20.1906C324.185 20.0844 324.308 20.1826 324.308 20.6122C324.308 20.9203 324.427 21.1723 324.573 21.1723C324.718 21.1723 324.839 20.8449 324.842 20.4447C324.845 19.8777 324.902 19.8047 325.102 20.114C325.273 20.3785 325.36 20.4006 325.363 20.1801C325.37 19.6302 325.821 19.8089 326.031 20.4446L326.228 21.0399L326.345 20.4446C326.483 19.7433 326.952 19.642 326.958 20.3123C326.961 20.6785 327.011 20.6991 327.193 20.4107C327.32 20.2102 327.557 20.1279 327.718 20.2279C327.88 20.3279 328.017 20.2538 328.022 20.0634C328.027 19.8729 328.201 20.0147 328.409 20.3785C328.783 21.0316 328.788 21.0324 328.797 20.4446C328.808 19.7521 329.204 19.6529 329.445 20.2822C329.597 20.6773 329.656 20.6741 330.13 20.2457C330.63 19.793 330.658 19.7988 330.904 20.4081L331.161 21.0399L331.337 20.4446C331.563 19.6852 332.249 19.6731 332.446 20.4251L332.597 21.0009L332.826 20.3802C332.999 19.9139 333.131 19.8349 333.359 20.0627C333.575 20.2783 333.76 20.2845 334.001 20.0842C334.26 19.8696 334.387 19.9814 334.534 20.5536L334.727 21.3045L334.915 20.643C335.099 19.9986 335.105 20.0021 335.15 20.7753C335.195 21.5444 335.207 21.5363 335.514 20.5177L335.831 19.4663L336.214 20.65C336.595 21.827 336.597 21.8289 336.685 20.9963C336.783 20.0729 337.538 19.5195 337.538 20.3712C337.538 20.649 337.657 20.95 337.802 21.0399C337.948 21.1298 338.082 21.5834 338.101 22.0477C338.125 22.6409 338.212 22.4395 338.395 21.3706C338.539 20.5339 338.762 19.8493 338.891 19.8493C339.02 19.8493 339.125 19.9683 339.125 20.1139C339.125 20.2594 339.304 20.3784 339.522 20.3784C339.74 20.3784 339.919 20.2594 339.919 20.1139C339.919 19.6375 340.361 19.8364 340.654 20.4446C340.931 21.0191 340.943 21.0121 340.981 20.2462L341.02 19.4524L341.384 20.2462C341.583 20.6827 341.766 21.3971 341.79 21.8337C341.834 22.6583 341.89 22.5088 342.162 20.8415C342.285 20.0886 342.449 19.8493 342.841 19.8493C343.291 19.8493 343.362 20.0464 343.385 21.3706C343.425 23.7044 343.829 24.6279 343.861 22.4614C343.879 21.2988 344.014 20.603 344.262 20.3969C344.562 20.1478 344.673 20.2009 344.82 20.6641C344.964 21.1165 345.054 21.1626 345.235 20.8764C345.39 20.6324 345.48 20.9069 345.507 21.7014C345.544 22.8246 345.565 22.7871 345.876 21.0399C346.058 20.0213 346.22 19.4487 346.237 19.7675C346.269 20.3416 346.798 20.9334 346.798 20.3941C346.798 20.24 346.977 20.1139 347.195 20.1139C347.413 20.1139 347.592 20.2567 347.592 20.4314C347.592 20.6769 347.664 20.6763 347.912 20.4284C348.162 20.178 348.304 20.2385 348.564 20.7062C348.895 21.3023 348.896 21.302 348.905 20.5764C348.91 20.1763 349.034 19.8488 349.179 19.8488C349.325 19.8488 349.444 19.9679 349.444 20.1134C349.444 20.259 349.622 20.378 349.841 20.378C350.059 20.378 350.238 20.5636 350.238 20.7905C350.238 21.0174 350.357 21.1294 350.502 21.0395C350.648 20.9496 350.767 20.6303 350.767 20.33C350.767 19.89 350.839 19.8442 351.14 20.0939C351.426 20.3311 351.559 20.3293 351.71 20.0859C351.852 19.8563 352.005 19.9034 352.262 20.2559C352.458 20.524 352.619 20.6016 352.619 20.4283C352.619 20.2549 352.857 20.1131 353.148 20.1131C353.533 20.1131 353.677 20.2895 353.677 20.759C353.677 21.1142 353.796 21.4784 353.942 21.5683C354.092 21.6614 354.206 21.4336 354.206 21.0392C354.206 20.6447 354.32 20.4169 354.471 20.51C354.616 20.5999 354.736 20.4879 354.736 20.261C354.736 19.6627 355.464 19.7545 355.662 20.3777C355.886 21.0858 356.323 21.0524 356.323 20.3271C356.323 19.7606 356.332 19.7591 356.711 20.261C357.009 20.6544 357.103 20.6817 357.114 20.3777C357.124 20.1081 357.294 20.1929 357.646 20.6423L358.163 21.3038L358.169 20.5778C358.174 19.9762 358.277 19.8672 358.77 19.9413C359.27 20.0163 359.389 20.2393 359.511 21.3287C359.63 22.3899 359.689 22.506 359.835 21.9652C359.934 21.6014 360.047 20.9466 360.087 20.51C360.132 20.0131 360.308 19.7163 360.556 19.7163C360.877 19.7163 360.968 20.2141 361.029 22.3056C361.13 25.7463 361.615 25.4151 361.615 21.9055C361.615 19.2083 361.754 18.9244 362.322 20.4629C362.58 21.1605 362.636 21.2024 362.653 20.7085C362.673 20.1081 363.045 19.9096 363.319 20.3529C363.515 20.6689 364.525 20.3977 364.525 20.0294C364.525 19.5941 364.982 20.1562 365.13 20.7746C365.245 21.2528 365.261 21.2464 365.288 20.7085C365.33 19.9006 365.848 19.9474 365.848 20.759C365.848 21.1142 365.967 21.4784 366.113 21.5684C366.267 21.6635 366.377 21.3999 366.377 20.9381C366.377 19.9213 366.789 19.6643 367.197 20.4267L367.515 21.0196L367.757 20.3679C367.981 19.7663 368.02 19.7533 368.27 20.1986C368.531 20.6617 368.563 20.6621 369.063 20.2091C369.511 19.8037 369.619 19.7917 369.829 20.1236C369.963 20.3361 370.077 20.8076 370.081 21.1714C370.087 21.6962 370.143 21.7509 370.346 21.436C370.487 21.2177 370.609 20.7415 370.616 20.3777L370.629 19.7162L371.008 20.3777C371.215 20.7415 371.39 20.8823 371.395 20.6906C371.401 20.4595 371.589 20.4006 371.952 20.5159C372.371 20.6488 372.535 20.5545 372.65 20.1144C372.85 19.35 373.242 19.9407 373.264 21.0391L373.28 21.8329L373.829 20.7925L374.377 19.7521L374.711 20.3752L375.044 20.9984L375.227 20.4234C375.327 20.1072 375.49 19.8503 375.59 19.8526C376.198 19.8663 376.528 20.5058 376.698 22.0042C376.869 23.516 376.892 23.5653 376.928 22.4944C376.949 21.8395 377.041 20.8524 377.132 20.3008C377.288 19.3594 377.316 19.3337 377.593 19.883C377.938 20.5697 378.548 20.8482 378.548 20.319C378.548 19.7036 380.233 19.8733 380.443 20.51C380.609 21.0128 380.627 21.0084 380.81 20.4215C380.929 20.0426 381.074 19.9187 381.187 20.101C381.319 20.3144 381.576 20.3202 382.098 20.1215C382.931 19.8048 383.307 19.9496 383.319 20.5918C383.327 20.9934 383.361 20.9968 383.65 20.6259C384.018 20.1543 384.881 19.7701 384.932 20.0553C384.951 20.1598 385.049 22.0313 385.15 24.2141L385.334 28.1829L385.381 23.7155L385.428 19.248L385.976 19.9452C386.571 20.7018 387.015 20.849 387.015 20.2896C387.015 19.8619 387.882 19.8892 388.417 20.3337C388.728 20.5914 388.836 20.575 388.96 20.2521C389.208 19.6064 389.584 19.7818 389.937 20.7084L390.265 21.5683L390.426 20.7964C390.607 19.9287 391.244 19.5401 391.257 20.2895C391.265 20.7522 391.283 20.7514 391.645 20.2723C391.949 19.8715 392.103 19.834 392.407 20.0867C392.705 20.3336 392.834 20.3298 392.995 20.0695C393.138 19.8377 393.304 19.9754 393.536 20.5197C393.815 21.1735 393.872 21.2095 393.882 20.7367C393.897 20.0587 394.642 19.6867 394.859 20.2498C395.066 20.79 395.48 20.7438 395.491 20.1793C395.498 19.8219 395.581 19.8625 395.856 20.3573L396.211 20.9984L396.393 20.4234C396.58 19.8347 397.069 19.6231 397.069 20.131C397.069 20.2863 397.278 20.3485 397.532 20.2693C398.551 19.9523 398.765 20.4816 398.935 23.7361L399.099 26.86L399.142 23.5099C399.182 20.4844 399.231 20.1664 399.649 20.2263C399.93 20.2667 400.145 20.5686 400.196 20.9967C400.319 22.03 400.773 21.8552 400.773 20.7746C400.773 19.6712 401.464 19.4774 401.723 20.5081C401.909 21.2516 402.361 21.1482 402.361 20.3621C402.361 19.7808 402.886 19.6853 403.377 20.177C403.639 20.4387 403.755 20.4268 403.945 20.1186C404.213 19.6845 404.252 19.7127 404.672 20.6423L404.971 21.3037L404.989 20.5761C405.008 19.7866 405.026 19.7711 405.647 20.0091C405.916 20.1127 406.065 20.4943 406.065 21.0831C406.065 21.6246 406.173 21.9298 406.33 21.8329C406.475 21.743 406.598 21.2299 406.603 20.6928C406.611 19.7615 406.63 19.7408 407.016 20.2454C407.404 20.7529 407.435 20.7549 407.776 20.2957C408.026 19.9582 408.187 19.9079 408.322 20.1255C408.463 20.3533 408.57 20.3407 408.733 20.0774C408.906 19.797 409.022 19.7896 409.276 20.0429C409.514 20.2813 409.69 20.2884 409.953 20.0703C410.41 19.6908 411.228 20.3855 411.505 21.3893C411.698 22.0895 411.704 22.0861 412.004 21.0797C412.455 19.568 412.867 20.3119 413.159 23.1663L413.402 25.5371L413.447 22.6266C413.488 19.9597 413.524 19.7716 413.87 20.3777C414.078 20.7415 414.273 21.5154 414.302 22.0975C414.347 22.9679 414.384 22.8776 414.51 21.5889C414.598 20.6904 414.805 19.9756 414.995 19.9132C415.177 19.8534 415.326 19.9929 415.326 20.2234C415.326 20.7586 415.558 20.7533 416.165 20.2043C416.615 19.7969 416.648 19.7969 416.648 20.2043C416.648 20.8385 417.09 20.7421 417.266 20.0695C417.39 19.594 417.483 19.5528 417.813 19.8268C418.032 20.0084 418.454 20.0794 418.752 19.9848C419.207 19.8405 419.299 19.9326 419.325 20.5583C419.348 21.1093 419.389 21.1657 419.483 20.7745C419.716 19.8053 420.086 19.6768 420.626 20.3777L421.135 21.0391L421.141 20.4413C421.146 19.9112 421.253 19.8567 422.09 19.9605C422.609 20.0249 423.205 20.2192 423.413 20.3923C423.713 20.641 423.792 20.6263 423.792 20.3219C423.792 19.8715 424.629 19.7949 424.913 20.2193C425.02 20.3792 425.124 20.8671 425.145 21.3037C425.181 22.0829 425.187 22.0793 425.46 21.1053C425.622 20.5257 425.911 20.1001 426.154 20.0818C426.886 20.0267 427.359 20.1576 427.559 20.4703C427.697 20.6877 427.754 20.6757 427.757 20.4282C427.76 20.2377 427.88 20.1554 428.026 20.2453C428.171 20.3352 428.29 21.1757 428.29 22.113C428.29 24.3273 428.726 24.3232 428.867 22.108C428.926 21.1677 429.042 20.3315 429.124 20.2497C429.455 19.9187 430.156 20.485 430.383 21.2662L430.624 22.0979L430.666 21.3041C430.702 20.6394 430.742 20.5953 430.913 21.0328C431.097 21.5032 431.143 21.4769 431.379 20.7689L431.641 19.9826L432 20.6434L432.359 21.3041L432.515 20.6623C432.737 19.748 433.219 19.6985 433.461 20.565L433.668 21.3041L433.847 20.5104L434.025 19.7166L434.229 20.4442C434.461 21.2717 434.808 21.3929 434.987 20.7088C435.06 20.4302 435.12 20.5417 435.139 20.989C435.179 21.9732 435.699 21.6375 435.699 20.627C435.699 19.3757 436.575 19.7986 436.828 21.1718C436.917 21.6594 436.959 21.5725 436.985 20.8411C437.026 19.7346 437.441 19.5339 437.807 20.4442L438.046 21.0396L438.063 20.4286C438.085 19.6151 438.609 19.9622 438.609 20.7906C438.609 21.1458 438.728 21.4364 438.874 21.4364C439.019 21.4364 439.138 21.0792 439.138 20.6427C439.138 19.7912 439.819 19.5106 440.101 20.2458C440.309 20.7889 440.721 20.7465 440.744 20.1797C440.76 19.7838 440.796 19.7934 440.99 20.2458C441.193 20.7182 441.22 20.7236 441.236 20.2963C441.264 19.5857 441.784 20.0402 441.784 20.7749C441.784 21.1216 441.903 21.4788 442.049 21.5687C442.194 21.6586 442.313 21.4968 442.313 21.2091C442.313 20.4198 442.593 19.8489 442.981 19.8489C443.171 19.8489 443.373 19.985 443.428 20.1514C443.503 20.376 443.681 20.3724 444.121 20.1373C444.658 19.8496 444.738 19.8943 444.994 20.6282C445.317 21.5547 445.753 21.4617 445.753 20.4664C445.753 19.9604 445.857 19.8323 446.171 19.9529C446.401 20.0412 446.699 20.1134 446.833 20.1134C446.966 20.1134 447.08 20.3218 447.085 20.5764C447.09 20.8311 447.265 21.3371 447.472 21.7009C447.829 22.3253 447.853 22.2585 447.9 20.5103C447.927 19.4917 447.998 18.9877 448.059 19.3903C448.12 19.793 448.281 20.0538 448.417 19.97C448.557 19.8833 448.678 20.4804 448.697 21.3546L448.731 22.8916L449.051 21.304L449.371 19.7166L449.567 21.304C449.835 23.4893 449.941 23.6696 449.965 21.9876C449.993 20.0658 450.207 20.3939 450.484 22.7844L450.711 24.7437L450.745 22.2433C450.777 19.9365 451.039 19.3358 451.385 20.7749C451.5 21.2531 451.515 21.2467 451.543 20.7088C451.58 19.9787 452.367 19.9007 452.367 20.627C452.367 20.9094 452.486 21.2141 452.632 21.3041C452.78 21.3957 452.896 21.1892 452.896 20.8346C452.896 20.0063 453.122 19.8095 453.711 20.1245C454.065 20.3142 454.251 20.2745 454.42 19.9729C454.611 19.6313 454.706 19.6718 454.999 20.2202L455.35 20.876L455.82 20.2963C456.384 19.6007 456.619 19.7802 456.876 21.1027L457.069 22.0978L457.099 21.0878C457.126 20.2039 457.196 20.0987 457.659 20.2457C458.004 20.3552 458.191 20.2923 458.197 20.0651C458.203 19.8311 458.32 19.8687 458.556 20.1796C458.987 20.7471 459.511 20.7834 459.511 20.2457C459.511 19.3516 460.042 19.926 460.061 20.841C460.072 21.3867 460.142 21.6843 460.215 21.5024C460.289 21.3205 460.514 21.1717 460.716 21.1717C460.918 21.1717 461.193 20.7848 461.328 20.3118L461.572 19.4519L461.771 20.3397L461.97 21.2274L462.335 20.3576L462.701 19.4879L463.105 20.0652C463.62 20.8004 463.918 20.7955 464.19 20.0472C464.313 19.7086 464.465 23.5594 464.543 28.9769C464.636 35.4429 464.68 32.3839 464.679 19.4519C464.679 8.9744 464.647 4.33096 464.61 9.13315C464.539 18.2901 464.419 19.293 463.457 18.7784C463.149 18.6135 462.925 18.6175 462.819 18.7898C462.584 19.1702 461.628 19.1178 461.627 18.7244C461.627 18.5124 461.198 18.3852 460.436 18.3702C459.607 18.3539 459.246 18.4542 459.246 18.7009C459.246 19.1234 458.82 19.1702 458.575 18.7746C458.466 18.5974 458.268 18.6705 458.039 18.9731C457.803 19.2835 457.673 19.3301 457.667 19.1056C457.662 18.9151 457.54 18.8328 457.394 18.9228C457.237 19.0202 457.122 18.6787 457.109 18.0785L457.089 17.0707L456.779 17.9967C456.428 19.0422 455.385 19.3928 454.841 18.6481C454.564 18.2703 454.513 18.2836 454.358 18.772C454.21 19.2363 454.099 19.2741 453.627 19.0213C453.173 18.7781 453.006 18.8117 452.719 19.2044C452.387 19.6582 452.367 19.6527 452.367 19.1056C452.367 18.7868 452.248 18.5259 452.103 18.5259C451.957 18.5259 451.831 18.3175 451.821 18.0629C451.809 17.7294 451.724 17.785 451.515 18.2613C451.249 18.868 451.207 18.7935 451.007 17.3619C450.705 15.202 450.515 15.1918 450.515 17.3353C450.515 19.6176 450.311 19.4443 450.017 16.9133C449.824 15.2453 449.785 15.1409 449.756 16.2108C449.737 16.902 449.602 17.4676 449.457 17.4676C449.311 17.4676 449.174 17.3188 449.151 17.1368C449.128 16.9549 449.039 17.4014 448.952 18.129L448.795 19.452L448.361 18.5576C447.946 17.7026 447.919 17.6896 447.737 18.2618C447.59 18.7239 447.496 18.7773 447.322 18.496C447.14 18.2019 447.022 18.2335 446.708 18.6595C446.349 19.1477 446.306 19.1527 446.141 18.7259C445.91 18.1297 445.491 18.3887 445.477 19.1369C445.468 19.6272 445.394 19.5813 444.998 18.8393L444.531 17.9621L444.221 18.6409C443.847 19.4627 443.526 19.4977 443.018 18.772C442.8 18.4607 442.591 18.353 442.535 18.5225C442.397 18.9366 441.575 18.577 441.433 18.0404C441.369 17.7981 441.293 17.9571 441.265 18.3936C441.236 18.8302 441.151 19.0336 441.076 18.8456C440.966 18.5709 440.86 18.569 440.539 18.8356C440.212 19.1066 440.078 19.0844 439.808 18.7144C439.338 18.0724 439.141 18.1508 439.117 18.989L439.096 19.7166L438.831 18.989C438.546 18.2095 438.08 18.0042 438.08 18.6582C438.08 18.8765 437.961 19.0551 437.815 19.0551C437.67 19.0551 437.551 18.8765 437.551 18.6582C437.551 18.44 437.432 18.2614 437.286 18.2614C437.141 18.2614 437.021 18.4362 437.021 18.6499C437.021 18.8866 436.866 18.979 436.625 18.8862C436.406 18.8024 436.228 18.568 436.228 18.3653C436.228 18.1626 436.109 17.9968 435.963 17.9968C435.818 17.9968 435.699 18.2419 435.699 18.5415C435.699 18.8412 435.579 19.0128 435.434 18.9228C435.288 18.8329 435.169 18.5282 435.169 18.2457C435.169 17.9633 435.05 17.7322 434.905 17.7322C434.759 17.7322 434.64 17.9703 434.64 18.2614C434.64 18.5524 434.521 18.7905 434.376 18.7905C434.23 18.7905 434.111 18.6644 434.111 18.5103C434.111 18.3562 434.002 18.2974 433.869 18.3797C433.736 18.4619 433.567 18.3797 433.493 18.1969C433.419 18.0141 433.35 18.0966 433.338 18.3804C433.322 18.7701 433.243 18.8217 433.012 18.5912C432.802 18.3813 432.555 18.3677 432.218 18.5476C431.792 18.7757 431.73 18.7045 431.73 17.9905C431.73 17.5121 431.62 17.2398 431.465 17.3353C431.32 17.4252 431.201 17.7428 431.201 18.0411C431.201 18.4837 431.082 18.5536 430.555 18.4214C430.193 18.3305 429.83 18.3884 429.729 18.5532C429.414 19.0629 429.092 18.22 429.088 16.8723C429.086 16.1811 428.965 15.6155 428.819 15.6155C428.674 15.6155 428.555 16.2108 428.555 16.9384C428.555 18.1759 428.239 18.6818 427.936 17.9306C427.863 17.7487 427.793 17.9075 427.782 18.2834C427.764 18.8842 427.649 18.9669 426.835 18.9669C425.999 18.9669 425.909 18.8954 425.909 18.2329C425.909 17.8292 425.79 17.4253 425.644 17.3353C425.482 17.2352 425.376 17.6654 425.37 18.4442C425.361 19.6428 425.341 19.68 425.011 19.0855C424.761 18.6345 424.603 18.5485 424.458 18.7839C424.329 18.9927 423.929 19.0606 423.367 18.9694C422.878 18.8902 422.406 18.9444 422.316 19.0898C422.216 19.2511 421.969 19.1883 421.682 18.9286C421.265 18.5511 421.194 18.5486 421.057 18.9069C420.856 19.4291 420.233 19.185 419.875 18.4444C419.696 18.0737 419.588 18.0077 419.575 18.2614C419.564 18.4796 419.229 18.8097 418.83 18.9949C418.201 19.2873 418.06 19.2698 417.759 18.8626C417.437 18.428 417.393 18.4261 417.161 18.8357C416.931 19.241 416.842 19.2434 416.084 18.8654C415.629 18.6386 415.199 18.2313 415.128 17.9604C414.898 17.0805 414.533 17.4394 414.486 18.5922L414.439 19.7166L414.338 18.5861C414.282 17.9643 414.124 17.5249 413.987 17.6096C413.85 17.6943 413.738 17.6375 413.738 17.4833C413.738 17.3292 413.5 17.2031 413.209 17.2031C412.839 17.2031 412.677 17.3826 412.67 17.7984L412.661 18.3937L412.313 17.7661L411.966 17.1385L411.794 17.997C411.649 18.7234 411.561 18.8049 411.225 18.5261C410.929 18.2806 410.828 18.2763 410.828 18.5092C410.828 18.6811 410.717 18.7533 410.582 18.6696C410.446 18.5859 410.261 18.6378 410.17 18.7849C409.907 19.2112 408.185 18.9883 408.171 18.526C408.164 18.3077 408.013 18.4701 407.835 18.887L407.511 19.6448L407.136 18.6885C406.67 17.5013 406.337 17.4625 406.309 18.5921C406.298 19.0651 406.228 19.3032 406.155 19.1213C406.081 18.9394 405.853 18.7906 405.647 18.7906C405.44 18.7906 405.264 18.5822 405.254 18.3275C405.24 17.9636 405.173 17.9942 404.944 18.4707C404.783 18.8042 404.498 19.0177 404.309 18.9453C404.12 18.8729 403.895 18.9288 403.808 19.0695C403.713 19.2229 403.425 19.1682 403.09 18.9332C402.704 18.663 402.43 18.624 402.208 18.808C401.978 18.999 401.728 18.8735 401.33 18.368L400.774 17.6609L400.77 18.2919C400.767 18.6389 400.667 19.0782 400.547 19.2682C400.265 19.712 399.553 17.8892 399.223 15.8801L398.984 14.4249L398.913 16.8062C398.874 18.1159 398.793 18.86 398.732 18.4598C398.608 17.6408 398.128 17.4606 398.128 18.2331C398.128 18.8593 397.392 19.1678 396.89 18.7516C396.586 18.4986 396.481 18.5608 396.344 19.0778L396.174 19.7166L396.026 19.1057C395.84 18.3309 395.392 18.3163 395.212 19.0791C395.077 19.6494 395.066 19.6466 394.755 18.9624C394.408 18.2013 393.895 18.0198 393.895 18.6582C393.895 18.8765 393.776 19.0551 393.63 19.0551C393.484 19.0551 393.365 18.936 393.365 18.7905C393.365 18.645 393.246 18.526 393.101 18.526C392.955 18.526 392.836 18.7191 392.836 18.9552C392.836 19.3011 392.761 19.3223 392.451 19.0647C392.239 18.8889 391.944 18.8203 391.795 18.9123C391.646 19.0043 391.269 18.9427 390.956 18.7755C390.513 18.5382 390.34 18.5484 390.171 18.822C390.001 19.0976 389.917 19.0751 389.779 18.717C389.561 18.1471 389.132 18.1207 389.132 18.6772C389.132 18.9748 388.925 19.0691 388.404 19.0089C388.004 18.9626 387.588 18.8053 387.478 18.6592C387.363 18.5052 387.213 18.6374 387.121 18.9741L386.962 19.5544L386.327 18.9199C385.845 18.438 385.686 17.9804 385.666 17.0166C385.615 14.5761 385.218 14.2925 385.186 16.6739C385.169 17.9108 385.068 18.8038 384.961 18.6583C384.581 18.1413 383.736 18.3791 383.548 19.0559C383.373 19.6837 383.363 19.6869 383.338 19.1213C383.31 18.4941 382.935 18.3288 382.637 18.812C382.533 18.9794 382.17 19.0236 381.761 18.9187C380.384 18.5653 379.872 18.5192 379.872 18.749C379.872 18.8774 379.575 18.9498 379.211 18.9099C378.848 18.87 378.483 18.9468 378.401 19.0806C378.206 19.3956 377.575 18.7647 377.453 18.1323C377.314 17.4144 376.862 17.3789 376.558 18.0619C376.38 18.4613 376.097 18.6374 375.701 18.5952C375.294 18.5518 375.107 18.6755 375.101 18.9921C375.094 19.4001 375.047 19.3924 374.693 18.9241C374.418 18.559 374.236 18.4908 374.105 18.7031C373.881 19.0653 373.179 18.6461 372.921 17.9968C372.802 17.6957 372.719 17.7451 372.581 18.2014C372.409 18.7664 372.377 18.7744 372.038 18.3336C371.7 17.8927 371.668 17.9003 371.511 18.4598C371.309 19.1764 371.175 19.1987 370.715 18.5921C370.397 18.1735 370.361 18.2052 370.338 18.9228C370.316 19.6388 370.291 19.6609 370.084 19.1483C369.738 18.2917 369.353 18.1794 368.835 18.7843C368.37 19.3274 368.367 19.326 368.066 18.4648L367.765 17.5999L367.57 18.3346C367.409 18.942 367.308 19.0137 366.989 18.7485C366.682 18.494 366.552 18.5063 366.362 18.8075C366.163 19.1224 366.121 19.1108 366.117 18.74C366.111 18.0546 365.567 17.8714 365.403 18.4993C365.257 19.0598 364.79 19.2813 364.79 18.7905C364.79 18.645 364.622 18.5259 364.416 18.5259C364.209 18.5259 363.981 18.3771 363.907 18.1952C363.834 18.0133 363.764 18.1081 363.753 18.4059C363.738 18.7894 363.558 18.9433 363.137 18.9333C362.271 18.913 361.88 18.5799 361.88 17.8645C361.88 17.5178 361.761 17.1607 361.615 17.0707C361.456 16.972 361.351 17.3298 361.351 17.9728C361.351 18.8344 361.271 19.0078 360.934 18.8784C360.704 18.7904 360.386 18.4072 360.226 18.0268L359.936 17.3353L359.779 18.2614C359.633 19.1189 359.598 19.1483 359.304 18.6582C359.11 18.3363 358.983 18.2713 358.978 18.4922C358.972 18.7849 358.893 18.7914 358.573 18.5259C358.247 18.2551 358.176 18.2763 358.176 18.6447C358.176 19.0192 358.118 19.0346 357.821 18.7385C357.627 18.5436 357.398 18.2077 357.313 17.992C357.227 17.7719 357.147 17.9481 357.13 18.3936C357.106 19.0645 357.06 19.1157 356.832 18.7243C356.461 18.0876 356.059 18.1433 356.059 18.8315C356.059 19.3517 356.019 19.3663 355.596 18.9983C355.341 18.7764 354.984 18.6488 354.802 18.7147C354.618 18.7816 354.463 18.6203 354.453 18.3495C354.436 17.9093 354.413 17.9134 354.207 18.3936C354.082 18.6846 353.971 18.7669 353.961 18.5764C353.95 18.3651 353.814 18.3119 353.612 18.44C353.43 18.5555 353.192 18.6667 353.083 18.6872C352.973 18.7076 352.795 18.7529 352.686 18.7878C352.577 18.8227 352.279 18.8302 352.024 18.8043C351.77 18.7784 351.559 18.9134 351.557 19.1045C351.554 19.3735 351.5 19.368 351.318 19.0801C351.023 18.6145 349.717 18.4498 349.688 18.8746C349.676 19.0466 349.503 18.8301 349.303 18.3935L348.939 17.5998L348.927 18.3274C348.913 19.2087 348.571 19.2693 348.18 18.4597C347.896 17.8698 347.893 17.8708 347.875 18.5671C347.858 19.2192 347.81 19.2478 347.203 18.964C346.708 18.7323 346.507 18.3789 346.375 17.507C346.177 16.1908 345.751 16.4956 345.745 17.9588C345.742 18.6592 345.652 18.8131 345.322 18.6864C345.092 18.5981 344.735 18.5258 344.528 18.5258C344.261 18.5258 344.144 18.1636 344.123 17.269L344.094 16.0123L343.793 17.4243C343.627 18.2009 343.402 18.7466 343.293 18.637C343.184 18.5274 343.095 18.595 343.095 18.7873C343.095 19.0341 342.939 18.9961 342.565 18.6581C342.265 18.3865 342.036 18.3115 342.036 18.4848C342.036 18.6529 341.917 18.7904 341.772 18.7904C341.626 18.7904 341.507 18.6118 341.507 18.3935C341.507 18.1752 341.388 17.9967 341.243 17.9967C341.097 17.9967 340.978 18.2348 340.978 18.5258C340.978 19.1053 340.59 19.2324 340.292 18.7503C340.161 18.5383 339.998 18.5894 339.758 18.9185C339.435 19.3604 339.391 19.3466 339.101 18.7086C338.66 17.7407 338.068 17.5757 338.068 18.4207C338.068 19.0181 338.023 19.0487 337.671 18.6959C337.452 18.4776 337.274 18.1119 337.274 17.8833C337.274 17.6546 337.155 17.4675 337.009 17.4675C336.864 17.4675 336.745 17.7581 336.745 18.1133C336.745 19.0654 336.297 19.1753 335.842 18.3352L335.443 17.5998L335.406 18.3936C335.37 19.1694 335.364 19.1724 335.169 18.5258L334.97 17.8644L334.836 18.6581C334.711 19.4014 334.69 19.4142 334.503 18.8595C334.268 18.1631 333.834 18.3191 333.834 19.0999C333.834 19.6196 333.812 19.6162 333.314 19.0181L332.793 18.3935L332.784 18.9888L332.775 19.5841L332.206 19.0147C331.68 18.4889 331.612 18.4794 331.311 18.8902C331.018 19.2918 330.97 19.294 330.824 18.9137C330.735 18.6819 330.553 18.5601 330.419 18.643C330.285 18.7259 330.114 18.644 330.041 18.4613C329.954 18.2453 329.899 18.2777 329.886 18.554C329.86 19.0872 328.279 19.1059 328.278 18.5731C328.278 18.3165 328.163 18.3382 327.847 18.6545C327.609 18.8916 327.243 19.0191 327.031 18.938C326.82 18.8569 326.427 18.7905 326.158 18.7905C325.889 18.7905 325.482 18.6034 325.254 18.3747C324.876 17.9967 324.838 18.0203 324.838 18.6336C324.838 19.2707 324.797 19.2905 324.11 18.9886C323.71 18.8128 323.31 18.5672 323.221 18.4429C323.132 18.3186 322.99 18.3988 322.904 18.621C322.736 19.0591 321.34 18.9696 321.178 18.5103C321.033 18.1015 320.604 18.2284 320.604 18.6802C320.604 19.3806 319.949 18.9323 319.859 18.1703C319.758 17.3151 319.282 17.4993 319.282 18.3936C319.282 18.7402 319.162 19.0974 319.017 19.1873C318.871 19.2772 318.752 19.1653 318.752 18.9384C318.752 18.4282 318.476 18.4153 317.82 18.895C317.381 19.2153 317.271 19.2066 316.984 18.8289C316.771 18.5498 316.649 18.5123 316.644 18.7244C316.632 19.1994 315.842 19.1343 315.842 18.6583C315.842 17.9351 315.313 18.2474 315.282 18.989C315.263 19.4367 315.205 19.5385 315.13 19.2536C315.064 18.9989 314.929 18.7815 314.83 18.7703C314.732 18.7592 314.416 18.7062 314.129 18.6527C313.841 18.5991 313.531 18.6774 313.438 18.8266C313.346 18.9758 313.182 18.7013 313.073 18.2166L312.876 17.3354L312.626 18.2184C312.431 18.9057 312.276 19.0599 311.926 18.9145C311.679 18.8117 311.326 18.7219 311.142 18.715C310.958 18.708 310.706 18.3353 310.583 17.8866L310.359 17.0708L310.153 18.1009L309.948 19.131L309.324 18.1009L308.701 17.0708L308.663 18.2614C308.643 18.9163 308.574 19.1841 308.511 18.8567C308.396 18.256 307.904 18.0113 307.904 18.5543C307.904 18.7154 307.726 18.7786 307.508 18.6949C307.289 18.6111 307.111 18.6579 307.111 18.7989C307.111 19.1865 306.671 19.1064 306.197 18.6326C305.964 18.4002 305.599 18.2774 305.384 18.3597C305.137 18.4545 304.986 18.3428 304.973 18.0547C304.957 17.6956 304.924 17.6834 304.82 17.9969C304.747 18.2151 304.628 18.5723 304.555 18.7906C304.462 19.0682 304.316 18.9489 304.068 18.3937L303.714 17.6L303.676 18.526C303.642 19.3542 303.612 19.3891 303.398 18.8568C303.12 18.1648 302.737 18.0853 302.511 18.6728C302.372 19.0362 302.278 19.0285 301.703 18.6067C301.345 18.3441 301 17.9506 300.937 17.7323C300.874 17.514 300.808 17.6856 300.791 18.1136C300.763 18.8307 300.733 18.8537 300.406 18.4072C300.063 17.9382 300.046 17.9385 299.863 18.4152C299.703 18.8321 299.636 18.848 299.428 18.5185C299.236 18.2157 299.176 18.2762 299.159 18.7905C299.138 19.4464 299.135 19.4471 298.857 18.8721C298.474 18.079 297.85 17.8698 297.85 18.5342C297.85 18.8207 297.731 19.0551 297.586 19.0551C297.44 19.0551 297.321 18.9222 297.321 18.7597C297.321 18.5919 297.086 18.5257 296.777 18.6064C296.369 18.7132 296.159 18.5728 295.933 18.0419L295.631 17.3353L295.533 18.0629C295.415 18.9287 295.109 18.9889 294.59 18.2482C294.217 17.7155 294.207 17.7188 294.028 18.4328C293.899 18.945 293.782 19.0578 293.632 18.8145C293.503 18.6063 293.203 18.5378 292.874 18.642C292.393 18.7948 292.306 18.6681 292.122 17.5459L291.914 16.277L291.773 17.3353C291.654 18.2326 291.534 18.3986 290.982 18.4263C290.625 18.4443 290.283 18.6066 290.223 18.787C290.139 19.0376 290.054 19.0299 289.861 18.7543C289.663 18.4729 289.578 18.4667 289.473 18.726C289.215 19.3617 288.854 18.7523 288.836 17.6504C288.803 15.6622 288.368 15.2902 288.313 17.203C288.251 19.386 288.113 18.8593 287.83 15.3509L287.605 12.5728L287.568 15.6972C287.545 17.704 287.437 18.7632 287.267 18.6582C287.121 18.5683 287.001 18.0552 286.998 17.5181C286.995 16.7902 286.929 16.6426 286.738 16.9384C286.597 17.1567 286.479 17.7024 286.477 18.1511C286.474 18.698 286.342 18.9669 286.076 18.9669C285.858 18.9669 285.679 18.8677 285.679 18.7464C285.679 18.6251 285.382 18.5259 285.018 18.5259C284.654 18.5259 284.34 18.4366 284.32 18.3275C284.3 18.2183 284.203 14.2 284.106 9.39777L283.928 0.666504L283.863 8.604C283.794 16.8617 283.644 18.7127 283.054 18.5821C282.864 18.5403 282.562 18.7081 282.381 18.9551C282.097 19.3433 281.998 19.1925 281.643 17.8405L281.234 16.2769L281.208 17.4896C281.175 18.9843 280.98 19.2092 280.349 18.4806L279.859 17.9157L279.851 18.5515C279.844 19.1176 279.812 19.1357 279.569 18.7166C279.312 18.2767 279.261 18.2853 278.787 18.8489L278.28 19.4519L278.113 18.8566C277.932 18.2164 277.615 18.0891 277.334 18.5439C277.238 18.6994 276.996 18.7641 276.798 18.6878C276.599 18.6115 276.365 18.6638 276.278 18.8041C276.188 18.9502 275.933 18.8713 275.681 18.619C275.27 18.2086 275.23 18.2218 275.081 18.8154C274.934 19.4025 274.904 19.3801 274.704 18.5259L274.487 17.5999L274.24 18.3289L273.993 19.058L273.495 18.4612C273.123 18.0157 272.987 17.965 272.956 18.2613C272.933 18.4796 272.765 17.8843 272.583 16.9384L272.25 15.2186L272.207 17.203L272.164 19.1873L271.717 18.3936L271.269 17.5999L271.124 18.6582C270.998 19.577 270.951 19.6375 270.769 19.1174C270.64 18.7485 270.44 18.593 270.248 18.7128C269.412 19.2353 269.055 19.0427 268.874 17.9702L268.692 16.8955L268.322 17.6086C268.119 18.0009 267.952 18.4868 267.952 18.6884C267.952 19.391 267.423 19.0497 267.392 18.3275C267.374 17.8798 267.315 17.778 267.241 18.0629C267.026 18.8831 266.365 18.6 266.365 17.688C266.365 16.6731 266.107 16.8555 265.854 18.0494L265.669 18.9228L265.223 18.076C264.978 17.6103 264.777 16.9852 264.777 16.687C264.777 16.3887 264.658 16.1447 264.513 16.1447C264.367 16.1447 264.231 16.7697 264.211 17.5337L264.173 18.9228L263.983 17.8644C263.845 17.0885 263.784 16.9927 263.756 17.5054C263.717 18.2387 263.052 18.7237 262.831 18.1803C262.76 18.0066 262.679 18.2811 262.651 18.7905C262.622 19.2998 262.545 19.5082 262.478 19.2535C262.412 18.9988 262.277 18.7814 262.178 18.7702C262.08 18.7591 261.791 18.7101 261.536 18.6613C261.281 18.6125 261.073 18.6664 261.073 18.7808C261.073 19.1448 259.662 19.0046 259.258 18.6004C258.916 18.2588 258.835 18.2754 258.582 18.7387C258.343 19.1777 258.24 19.2057 257.964 18.9069C257.782 18.7096 257.633 18.298 257.633 17.9923C257.633 17.1819 257.11 17.6337 257.074 18.4754C257.054 18.9233 256.998 19.0157 256.922 18.7243C256.726 17.9737 256.049 18.1733 256.025 18.9889C256.004 19.6762 255.975 19.6579 255.502 18.6582C255.034 17.6681 255.001 17.6468 254.995 18.3275C254.988 19.1096 254.464 19.3637 254.45 18.592C254.442 18.1708 254.407 18.1748 254.057 18.6368C253.679 19.1364 253.664 19.1365 253.116 18.6408C252.581 18.1571 252.544 18.1559 252.211 18.6118C251.987 18.9177 251.801 18.9857 251.687 18.8025C251.591 18.6458 251.401 18.5862 251.265 18.6699C251.13 18.7536 251.019 18.6729 251.019 18.4914C251.019 18.3006 250.871 18.3625 250.67 18.6374C250.344 19.0842 250.294 19.0862 249.877 18.6691C249.632 18.4243 249.419 18.0837 249.404 17.9122C249.388 17.7407 249.224 18.0766 249.039 18.6587C248.715 19.6752 248.694 19.69 248.52 19.0335C248.34 18.3584 247.579 18.0578 247.579 18.6619C247.579 19.0037 246.584 19.0295 246.058 18.7014C245.876 18.588 245.727 18.608 245.727 18.746C245.727 19.053 244.866 19.0117 244.634 18.6936C244.542 18.5673 244.226 18.705 243.931 18.9995L243.396 19.5352L243.228 18.6432C242.989 17.3684 242.556 17.2449 242.532 18.4446L242.512 19.4525L242.195 18.5771C241.863 17.6621 241.501 17.6925 241.485 18.6367C241.476 19.1551 241.454 19.1501 241.123 18.5526C240.787 17.9467 240.758 17.9406 240.489 18.4204C240.173 18.9836 240.143 18.9334 239.69 17.0712C239.439 16.0424 239.43 16.0646 239.369 17.865C239.334 18.8836 239.251 19.4194 239.185 19.0556C239.119 18.6918 238.912 18.2155 238.726 17.9973C238.54 17.779 238.322 17.4218 238.242 17.2035C238.16 16.9812 238.075 17.1559 238.049 17.6004C238.002 18.3839 237.999 18.3856 237.79 17.7327C237.673 17.3689 237.552 16.1187 237.521 14.9545C237.471 13.0838 237.439 12.9608 237.245 13.8962C237.125 14.4783 237.007 15.907 236.984 17.0712C236.941 19.2354 236.916 19.2261 236.287 16.8066C236.103 16.0987 236.071 16.163 235.995 17.4019C235.889 19.1341 235.41 19.2414 235.404 17.5342C235.398 15.8088 234.896 16.6051 234.862 18.3941C234.837 19.6694 234.825 19.6906 234.511 18.9832C234.333 18.5796 234.104 18.3315 234.004 18.432C233.903 18.5324 233.821 18.4162 233.821 18.1736C233.821 17.5189 233.347 17.6395 233.214 18.328C233.151 18.6554 233.063 18.1494 233.019 17.2035C232.96 15.9485 232.913 15.7698 232.846 16.542C232.705 18.1616 232.508 18.8286 232.224 18.6528C232.082 18.5649 231.895 18.676 231.809 18.8997C231.567 19.5301 230.912 18.7441 230.907 17.8177C230.899 16.3757 230.463 16.3082 230.276 17.72C230.082 19.1785 229.597 19.3133 229.573 17.9155L229.558 17.0712L229.242 17.9774C228.864 19.0632 228.268 19.3681 228.256 18.4823C228.248 17.9154 228.219 17.9025 227.899 18.3239C227.708 18.5763 227.476 18.7081 227.385 18.6168C227.294 18.5255 227.143 18.6498 227.049 18.8932C226.893 19.3011 226.851 19.2989 226.522 18.8649C226.326 18.606 226.152 18.156 226.135 17.865C226.111 17.4401 226.038 17.4874 225.766 18.105C225.538 18.6204 225.381 18.7513 225.288 18.5018C225.192 18.2432 225.065 18.3314 224.872 18.791C224.674 19.2613 224.589 19.3187 224.577 18.9894C224.559 18.4679 224.036 18.3432 224.023 18.8571C224.018 19.0434 223.845 18.9636 223.626 18.6743C223.271 18.2044 223.238 18.2006 223.238 18.6302C223.238 19.4438 222.584 18.9228 222.417 17.9762L222.257 17.0712L222.061 17.8919C221.901 18.5585 221.745 18.6995 221.228 18.6428C220.878 18.6044 220.583 18.7113 220.572 18.8804C220.561 19.0495 220.332 18.7116 220.063 18.1295L219.573 17.0712L219.553 18.0303C219.536 18.8648 219.45 18.9894 218.889 18.9894C218.437 18.9894 218.132 18.7559 217.865 18.2059L217.486 17.4223L217.314 18.1067C217.128 18.8495 216.623 19.048 216.623 18.3785C216.623 18.1516 216.504 18.0396 216.359 18.1295C216.213 18.2194 216.092 18.6134 216.09 19.005C216.087 19.5238 216.022 19.6162 215.851 19.3453C215.514 18.813 214.295 18.7427 214.017 19.2394C213.833 19.5691 213.749 19.5022 213.599 18.9042C213.461 18.3515 213.353 18.2519 213.187 18.5212C213.063 18.7215 212.476 18.9128 211.882 18.9463C210.942 18.9993 210.802 18.9352 210.802 18.4517C210.802 17.9158 210.789 17.9137 210.439 18.393C210.091 18.869 210.067 18.863 209.872 18.2495L209.669 17.609L209.421 18.2661L209.173 18.9232L208.819 18.1295L208.464 17.3357L208.443 18.035C208.416 18.8924 207.689 19.2404 207.231 18.6144C206.932 18.2061 206.862 18.2365 206.481 18.9406C206.25 19.3676 206.056 19.5597 206.05 19.3674C206.04 19.0278 205.418 18.2618 205.152 18.2618C205.08 18.2618 204.97 18.4701 204.91 18.7248C204.811 19.1382 204.778 19.1311 204.603 18.6587C204.035 17.1177 203.96 17.0433 203.937 17.9972C203.92 18.6962 203.852 18.8259 203.659 18.5264C203.431 18.1736 203.401 18.1736 203.394 18.5264C203.387 18.8792 203.356 18.8792 203.12 18.5264C202.89 18.1829 202.802 18.1986 202.463 18.6431C202.114 19.1008 202.071 19.107 202.071 18.6999C202.071 18.3331 201.972 18.2962 201.568 18.5122C201.103 18.761 201.049 18.637 200.847 16.8679L200.628 14.9545L200.467 16.4097C200.326 17.6742 200.295 17.5181 200.225 15.2191C200.15 12.7496 200.131 12.6702 199.943 14.0284C199.833 14.8288 199.73 16.1683 199.716 17.005C199.696 18.1693 199.597 18.5264 199.293 18.5264C199.075 18.5264 198.888 18.7347 198.877 18.9894C198.862 19.3684 198.826 19.3804 198.679 19.0555C198.488 18.6328 197.838 18.385 197.838 18.7347C197.838 18.8493 197.372 18.9616 196.802 18.9843C195.82 19.0235 195.753 18.9753 195.507 18.0484C195.25 17.0839 195.246 17.0919 195.182 18.6586C195.127 19.9904 195.091 20.0966 194.956 19.3176C194.78 18.3023 194.169 18.0692 193.875 18.9056C193.758 19.2402 193.631 19.3129 193.509 19.1156C193.407 18.9498 193.16 18.8765 192.961 18.9529C192.723 19.0442 192.491 18.7634 192.283 18.1339C191.927 17.0555 191.519 17.0391 191.01 18.0829C190.612 18.899 190.256 18.993 190.083 18.3279C189.999 18.0076 189.952 18.0646 189.931 18.5132C189.907 19.0173 189.83 19.0908 189.583 18.8439C189.166 18.4271 188.318 18.4359 188.295 18.8571C188.285 19.039 188.148 18.9199 187.99 18.5925C187.626 17.8383 187.254 17.8256 187.254 18.5674C187.254 19.1208 187.239 19.1235 186.725 18.6587C186.312 18.2848 186.187 18.2613 186.156 18.5515C186.062 19.4192 185.726 15.2675 185.694 12.8379C185.675 11.3827 185.543 10.0134 185.402 9.79514C185.23 9.52793 185.144 10.5653 185.139 12.9702C185.13 17.4664 184.977 18.4578 184.256 18.6866C183.934 18.7888 183.664 18.7363 183.605 18.5598C183.433 18.0436 183.022 18.5221 182.996 19.2696C182.978 19.7665 182.878 19.5945 182.665 18.7C182.352 17.3864 181.98 17.2857 181.941 18.5043L181.92 19.1879L181.556 18.3941C181.326 17.8919 181.188 17.7704 181.181 18.0634C181.166 18.6438 180.743 18.6642 180.427 18.0999C180.237 17.7594 180.149 17.8527 179.993 18.5629L179.797 19.4525L179.517 18.6587C179.1 17.4732 178.682 17.3416 178.492 18.3351C178.336 19.1483 178.327 19.1364 178.293 18.079C178.244 16.5184 177.729 16.3288 177.729 17.8714C177.729 19.2292 177.136 19.4583 176.983 18.1596C176.874 17.2378 176.328 17.3978 176.107 18.416C176.015 18.8405 175.926 18.9663 175.909 18.6956C175.881 18.2545 175.823 18.2683 175.357 18.8279C175.071 19.1714 174.833 19.3164 174.828 19.1501C174.815 18.6951 174.008 18.4761 173.598 18.8163C173.321 19.0461 173.198 19.0114 173.066 18.6664C172.939 18.3368 172.84 18.3039 172.692 18.5428C172.387 19.0363 171.648 18.6232 171.613 17.9394C171.587 17.4418 171.546 17.4752 171.379 18.1296C171.268 18.5661 171.163 18.7079 171.146 18.4447C171.104 17.7998 170.586 18.152 170.586 18.8255C170.586 19.3003 170.542 19.3147 170.186 18.9587C169.967 18.7391 169.677 18.2841 169.542 17.9476C169.333 17.4279 169.291 17.5151 169.263 18.5265C169.237 19.454 169.18 19.5949 169.006 19.1642C168.768 18.5773 167.777 18.4632 167.454 18.9856C167.352 19.1505 167.048 18.8053 166.747 18.1842L166.22 17.0932L166.061 18.2729C165.974 18.9217 165.885 19.2314 165.863 18.9612C165.837 18.6404 165.685 18.5227 165.426 18.6221C165.185 18.7149 165.029 18.6225 165.029 18.3858C165.029 17.5887 164.499 18.0312 164.464 18.8572C164.438 19.4781 164.396 19.5518 164.314 19.1223C164.221 18.6402 164.108 18.5761 163.72 18.7839C163.361 18.976 163.085 18.9051 162.619 18.5015C162.164 18.1062 161.973 18.0554 161.905 18.3107C161.634 19.3264 161.586 19.382 161.232 19.0877C161.038 18.9271 160.805 18.8706 160.713 18.9623C160.621 19.054 160.401 18.7851 160.223 18.3647L159.9 17.6004L159.753 18.7773L159.605 19.9543L159.222 18.9677C158.844 17.9936 158.835 17.9888 158.504 18.5846C158.192 19.1473 158.168 19.1523 158.151 18.6588C158.135 18.1648 158.11 18.1601 157.785 18.5885C157.362 19.1457 157.099 18.9359 157.072 18.0193C157.055 17.4665 156.99 17.5381 156.73 18.3941C156.486 19.2013 156.367 19.3426 156.23 18.9894C156.131 18.7348 155.868 18.5264 155.645 18.5264C155.387 18.5264 155.24 18.281 155.24 17.8493C155.24 17.4653 155.125 17.243 154.975 17.3358C154.83 17.4257 154.711 17.797 154.711 18.1608C154.711 18.9669 154.192 18.7379 154.156 17.9155C154.14 17.5656 154.009 17.7709 153.825 18.4335C153.511 19.5654 153.239 19.5556 152.734 18.3941C152.534 17.9343 152.482 17.9863 152.337 18.791L152.17 19.717L151.956 18.5579C151.712 17.2345 151.306 17.5164 151.239 19.0556C151.197 20.0294 151.154 19.8614 150.854 17.5342C150.646 15.9165 150.213 16.149 150.213 17.8786V19.3474L149.583 18.6682L148.954 17.9889L148.798 18.5844C148.644 19.1728 148.637 19.1737 148.245 18.6548C148.026 18.364 147.845 18.2772 147.84 18.4603C147.829 18.89 147.122 18.89 146.948 18.4603C146.869 18.2627 146.807 18.316 146.794 18.5926C146.761 19.3274 146.008 19.1297 145.808 18.3336C145.63 17.6221 145.622 17.6268 145.306 18.6644L144.984 19.717L144.786 18.8516C144.515 17.6669 144.132 17.5121 144.106 18.5769C144.095 19.0585 144.018 19.2739 143.934 19.0556C143.777 18.6411 143.342 18.2728 143.003 18.2659C142.894 18.2639 142.795 18.5893 142.784 18.9894C142.772 19.3896 142.702 19.5675 142.629 19.3846C142.555 19.2018 142.4 19.111 142.283 19.1828C142.075 19.3115 141.622 18.3702 141.395 17.3358C141.331 17.0447 141.264 17.2769 141.248 17.8517C141.217 18.9043 140.864 18.9117 140.612 17.8649C140.507 17.4272 140.479 17.45 140.45 17.9972C140.431 18.361 140.3 18.8373 140.159 19.0555C139.95 19.3782 139.901 19.344 139.898 18.8727C139.891 17.9095 139.366 17.8793 139.354 18.8415L139.344 19.717L138.958 18.8268C138.745 18.3371 138.556 17.4441 138.537 16.8424C138.509 15.9495 138.442 16.1133 138.174 17.7327L137.846 19.717L137.808 18.2618C137.78 17.2157 137.697 16.9182 137.513 17.2035C137.285 17.5563 137.252 17.5563 137.217 17.2035C137.196 16.9852 137.105 17.1985 137.015 17.6769C136.925 18.1556 136.746 18.5324 136.616 18.5142C136.487 18.496 136.279 18.6402 136.153 18.8345C136.008 19.0595 135.853 19.0917 135.727 18.9232C135.618 18.7777 135.231 18.6166 134.867 18.5652C134.503 18.5138 134.118 18.3353 134.011 18.1684C133.882 17.967 133.815 18.0058 133.813 18.2837C133.809 18.7058 133.136 18.7958 132.575 18.4492C132.41 18.3471 132.197 18.4708 132.097 18.7263C131.94 19.1307 131.873 19.106 131.55 18.5264C131.187 17.8741 131.181 17.8732 131.172 18.4603C131.159 19.2826 130.73 19.2068 130.424 18.328L130.17 17.6004L129.981 18.3088C129.697 19.3744 129.117 19.4471 128.893 18.4452L128.704 17.6004L128.366 18.5264C128.129 19.1765 128.016 19.2948 127.987 18.9233C127.962 18.6067 127.89 18.5326 127.808 18.7389C127.704 18.9968 127.579 18.9636 127.308 18.6066C126.969 18.159 126.946 18.1581 126.938 18.5926C126.92 19.5672 125.871 18.7997 125.871 17.8121C125.871 17.4774 125.752 17.2035 125.606 17.2035C125.461 17.2035 125.342 17.6798 125.342 18.2618C125.342 19.3479 124.774 19.761 124.448 18.9119C124.325 18.5906 124.178 18.5644 123.758 18.7889C123.289 19.0401 123.225 18.9939 123.225 18.4034C123.225 18.0345 123.106 17.7327 122.961 17.7327C122.815 17.7327 122.696 18.1081 122.696 18.5669V19.4012L122.197 18.8261C121.796 18.3633 121.67 18.3266 121.55 18.6383C121.411 19.0001 120.581 19.009 119.587 18.6594C119.405 18.5954 119.256 18.673 119.256 18.8318C119.256 19.0222 119.121 19.0083 118.86 18.7911C118.555 18.5385 118.376 18.5339 118.089 18.7715C117.834 18.9833 117.662 18.9935 117.545 18.8039C117.284 18.3818 116.926 18.472 116.809 18.9894C116.578 20.01 116.091 17.1591 115.87 13.4994L115.639 9.66287L115.596 14.3916C115.557 18.5619 115.505 19.0815 115.155 18.791C114.851 18.5384 114.672 18.5339 114.385 18.7714C113.857 19.2097 113.787 18.9764 113.575 16.0793C113.471 14.6607 113.278 13.4333 113.146 13.3518C113.009 13.2667 112.906 14.3936 112.906 15.9972C112.906 17.6833 112.802 18.791 112.642 18.791C112.496 18.791 112.377 18.6537 112.377 18.4859C112.377 18.3181 112.141 18.4533 111.852 18.7863C111.418 19.2869 111.258 19.3341 110.926 19.0589C110.706 18.8759 110.523 18.4729 110.521 18.1633C110.519 17.8537 110.402 17.4217 110.261 17.2035C110.07 16.9089 110.003 17.0663 110 17.8144C109.996 18.8726 109.489 18.9639 109.439 17.9155C109.421 17.5297 109.303 17.6869 109.087 18.3857L108.762 19.4356L108.585 18.5511C108.488 18.0645 108.409 16.6028 108.409 15.3027C108.409 13.7942 108.313 12.9981 108.144 13.1024C107.998 13.1923 107.879 14.2044 107.879 15.3514C107.879 17.3413 107.517 18.411 107.273 17.1412C107.209 16.8101 107.142 17.0381 107.122 17.6509C107.081 18.9118 106.78 19.2413 106.2 18.6611C105.68 18.1409 105.5 18.157 105.49 18.7248C105.482 19.1438 105.444 19.1389 105.093 18.6742C104.708 18.1658 104.704 18.1658 104.703 18.6742C104.701 19.0894 104.6 19.0357 104.175 18.394L103.65 17.6003L103.627 18.7909C103.615 19.4458 103.536 19.803 103.453 19.5847C103.37 19.3664 103.204 19.1233 103.085 19.0444C102.965 18.9655 102.735 17.7155 102.573 16.2664C102.412 14.8174 102.23 13.5822 102.169 13.5215C102.108 13.4608 102.059 14.562 102.059 15.9687C102.059 17.4974 101.952 18.5263 101.794 18.5263C101.648 18.5263 101.515 18.0203 101.498 17.4019L101.467 16.2774L101.25 17.5747C101.042 18.818 100.437 19.6717 100.253 18.9809C100.206 18.8037 100.035 18.3868 99.8732 18.0547L99.5786 17.4507L99.2646 18.187L98.9506 18.9232L98.7566 18.1974C98.5077 17.2664 98.0953 17.5135 98.0712 18.6081C98.0583 19.1946 97.9972 19.3125 97.871 18.994C97.7091 18.5857 97.6121 18.5757 96.9822 18.9025C96.1263 19.3466 95.9732 19.2249 95.9732 18.101C95.9732 16.8552 95.452 16.6841 95.408 17.9155C95.3861 18.5285 95.327 18.6901 95.2573 18.3279C95.1134 17.581 94.6502 17.5441 94.6502 18.2796C94.6502 18.7062 94.5338 18.7897 94.1211 18.6587C93.7819 18.551 93.5919 18.6111 93.5919 18.8261C93.5919 19.0663 93.5108 19.0803 93.306 18.8755C93.1475 18.7169 92.9296 16.8373 92.8169 14.6554L92.6137 10.7212L92.5498 15.0868C92.4976 18.652 92.4341 19.2826 92.2033 18.5264L91.9208 17.6003L91.653 18.3107C91.4488 18.8524 91.223 19.0095 90.7026 18.9722C90.3272 18.9453 89.9326 18.8042 89.8257 18.6587C89.7053 18.4948 89.6297 18.52 89.6272 18.7248C89.6198 19.3252 88.8305 19.074 88.7958 18.4602C88.7772 18.1328 88.6785 16.5552 88.5762 14.9545L88.3904 12.044L88.3453 15.525C88.3021 18.8651 88.2788 19.0004 87.7711 18.8676C87.48 18.7915 87.2419 18.512 87.2419 18.2465C87.2419 17.981 87.1229 17.6902 86.9773 17.6003C86.8282 17.5081 86.7127 17.7225 86.7127 18.0918C86.7127 19.1203 86.0983 19.0842 85.6079 18.027L85.1645 17.0712L85.1449 18.0634C85.1232 19.1591 84.5961 19.4618 84.5961 18.3785C84.5961 17.3997 84.0732 17.8603 84.0351 18.8727C84.0051 19.6699 83.9883 19.6543 83.733 18.5925C83.3986 17.2021 83.0156 17.1341 82.9877 18.4602C82.9762 19.0059 82.8992 19.2738 82.8166 19.0555C82.734 18.8373 82.5053 18.5635 82.3083 18.4471C82.0748 18.3091 81.9488 17.7111 81.9462 16.7273C81.9433 15.6559 81.8679 15.334 81.6857 15.616C81.5446 15.8342 81.4274 16.4663 81.4251 17.0206C81.4227 17.6243 81.315 17.9629 81.1565 17.8649C81.011 17.775 80.8901 17.381 80.8879 16.9894C80.8803 15.6601 80.3727 16.9759 80.3459 18.3941C80.3322 19.1217 80.2614 19.5384 80.1886 19.3201C80.1158 19.1018 79.9997 18.748 79.9307 18.5338C79.8201 18.1909 79.7752 18.1909 79.5548 18.5338C79.3349 18.8758 79.2727 18.8749 79.0439 18.5268C78.8785 18.2749 78.7819 18.2477 78.7793 18.4523C78.7772 18.6296 78.6087 18.7108 78.4051 18.6327C78.2016 18.5546 77.9486 18.6307 77.8429 18.8015C77.7 19.0328 77.5863 19.0205 77.3991 18.7534C77.212 18.4865 77.1142 18.4759 77.0177 18.7119C76.9256 18.9373 76.6962 18.9565 76.2269 18.778C75.3287 18.4365 75.3388 18.4313 75.3118 19.2543C75.2882 19.9734 75.2851 19.972 75.043 19.135C74.7869 18.2494 74.2773 17.7084 74.2773 18.3221C74.2773 18.5178 74.04 18.6779 73.75 18.6779C73.3836 18.6779 73.1309 18.4 72.9222 17.7675L72.6217 16.8571L72.1138 17.4935C71.8345 17.8435 71.4987 18.368 71.3676 18.659C71.135 19.1756 71.1252 19.1743 70.9552 18.6023C70.8063 18.1016 70.7274 18.07 70.4125 18.3849C70.2098 18.5876 70.0349 18.9703 70.0237 19.2354C70.0125 19.5004 69.857 19.2414 69.6782 18.659C69.3558 17.6092 69.3516 17.6065 69.1644 18.3282C68.9421 19.185 68.5611 19.2731 68.323 18.5228C68.2299 18.2297 68.0535 18.0518 67.9309 18.1276C67.8083 18.2034 67.6476 18.1158 67.5739 17.933C67.5002 17.7502 67.4305 17.935 67.4191 18.3438C67.3936 19.2515 66.869 19.0325 66.869 18.1142C66.869 17.7589 66.7499 17.4683 66.6044 17.4683C66.4589 17.4683 66.3318 17.9743 66.3219 18.5928C66.3062 19.5786 66.2694 19.6458 66.0238 19.1374C65.565 18.188 65.0547 18.1858 64.7811 19.1324L64.5355 19.9821L64.5116 19.2389C64.498 18.8154 64.3739 18.566 64.2231 18.6592C64.0725 18.7523 63.9585 18.5245 63.9585 18.13C63.9585 17.7356 63.8446 17.5078 63.694 17.6009C63.5484 17.6908 63.4276 18.0848 63.4253 18.4764C63.4223 19.0333 63.3654 19.1019 63.1648 18.7915C63.0237 18.5732 62.9027 18.5137 62.8959 18.6592C62.8889 18.8047 62.7086 18.6927 62.4949 18.4102C62.1825 17.9972 62.1065 17.9782 62.1065 18.3132C62.1065 19.2359 60.2879 18.9825 60.2231 18.0508C60.2059 17.8033 60.11 17.958 60.0101 18.3946C59.8677 19.0166 59.7751 18.7017 59.5818 16.9394L59.3351 14.6905L59.1994 17.204C59.0707 19.5885 59.0511 19.6564 58.8169 18.5269C58.6811 17.8721 58.5236 17.5446 58.4668 17.7993C58.3734 18.2178 58.2168 18.3083 57.7043 18.2397C57.6114 18.2273 57.4346 18.3761 57.3115 18.5704C57.1506 18.8242 57.0863 18.756 57.0834 18.3285C57.0814 18.001 56.9603 17.7332 56.8148 17.7332C56.6693 17.7332 56.5502 17.8831 56.5502 18.0664C56.5502 18.2496 56.3121 18.5483 56.021 18.7301C55.5971 18.9948 55.4911 18.9943 55.4878 18.7271C55.4848 18.4815 55.4235 18.4892 55.2542 18.7566C55.0683 19.05 54.9731 19.0272 54.7546 18.6368C54.5263 18.2287 54.4198 18.2085 54.0623 18.5052C53.7588 18.757 53.6398 18.7677 53.6398 18.5432C53.6398 18.3712 53.5207 18.3041 53.3752 18.3941C53.2297 18.484 53.1056 18.3422 53.0995 18.0789C53.0925 17.763 52.9161 17.9151 52.5815 18.5264C52.1933 19.2354 52.0697 19.3284 52.054 18.9232C52.0427 18.6322 51.8634 18.0964 51.6554 17.7326C51.2912 17.0955 51.2757 17.1247 51.2331 18.5264C51.1926 19.8591 51.1725 19.9036 50.994 19.0555C50.8868 18.5462 50.7693 18.3081 50.7329 18.5264C50.6965 18.7446 50.5759 18.5661 50.4648 18.1295C50.2658 17.3474 50.2624 17.346 50.2315 18.0351C50.2143 18.4197 50.0216 18.8029 49.8033 18.8867C49.5034 19.0018 49.4014 18.831 49.3856 18.1874C49.3741 17.719 49.2971 17.5144 49.2145 17.7327C49.1319 17.9509 48.9032 18.2248 48.7062 18.3411C48.5093 18.4575 48.3463 18.8147 48.3441 19.1349C48.3411 19.6078 48.2919 19.6425 48.0835 19.3202C47.9425 19.1019 47.8252 18.3648 47.823 17.6821C47.821 16.9995 47.6999 16.3674 47.5544 16.2775C47.3901 16.1759 47.2898 16.6716 47.2898 17.5847V19.0556L46.711 18.4768C46.3385 18.1043 46.0949 18.01 46.0275 18.2122C45.859 18.7177 45.4386 18.5748 45.2003 17.9311C44.9965 17.3805 44.9647 17.4052 44.7771 18.2585L44.5743 19.1811L44.1071 17.7293L43.6399 16.2775L43.5948 17.6004C43.5547 18.7768 43.5171 18.8555 43.2552 18.3112L42.9606 17.6992L42.621 18.3112C42.3007 18.8885 42.2809 18.8602 42.272 17.8144C42.2564 15.9652 41.7354 16.1842 41.7167 18.0478C41.7045 19.2623 41.6375 19.5622 41.4707 19.1488C41.2268 18.5442 40.6752 18.0713 40.6752 18.4667C40.6752 18.5966 40.4966 18.7028 40.2783 18.7028C40.06 18.7028 39.8814 18.5573 39.8814 18.3794C39.8814 18.2016 39.6742 18.0726 39.4208 18.0928C39.0914 18.1191 38.913 17.8658 38.7942 17.2035C38.6671 16.4946 38.619 16.4326 38.5893 16.9389C38.5679 17.3027 38.435 17.779 38.2939 17.9973C38.0876 18.3165 38.0366 18.2747 38.0334 17.7832C38.0314 17.444 37.9116 17.245 37.7647 17.3358C37.6192 17.4257 37.5002 17.864 37.5002 18.3098C37.5002 19.0003 37.4414 19.0716 37.1033 18.791C36.8291 18.5634 36.7064 18.5534 36.7064 18.7586C36.7064 19.3013 36.1704 19.0655 35.8611 18.3866C35.4953 17.5838 35.1347 17.9699 35.1126 19.1879L35.0982 19.9816L34.6657 19.0556C34.2759 18.2208 34.2229 18.1882 34.1285 18.7249C34.0142 19.3748 33.654 19.5135 33.4413 18.9894C33.3377 18.734 33.2489 18.742 33.0512 19.0246C32.8565 19.303 32.7427 19.1764 32.576 18.4955L32.3569 17.6003L32.1901 18.791L32.0234 19.9816L31.9796 18.791C31.9197 17.1621 31.4243 16.4025 31.4188 17.9311C31.4138 19.3416 31.0752 19.3735 30.6239 18.006C30.2271 16.8038 29.831 16.8398 29.8192 18.079C29.8122 18.8153 29.7744 18.86 29.5237 18.4285C29.2916 18.029 29.192 18.0035 29.0066 18.2962C28.832 18.5719 28.7746 18.532 28.7671 18.1295C28.7581 17.6436 28.7149 17.6544 28.2397 18.2618L27.7224 18.9232L27.7124 18.2618C27.7054 17.775 27.6408 17.6978 27.4687 17.9695C27.2809 18.2661 27.2097 18.2401 27.1065 17.8372C26.9977 17.4123 26.9735 17.4266 26.9475 17.9311C26.9306 18.2585 26.751 18.5264 26.5484 18.5264C26.2718 18.5264 26.126 17.8513 25.9628 15.8144C25.8434 14.3228 25.7172 13.4001 25.6826 13.7639C25.6479 14.1277 25.5337 15.4969 25.4288 16.8066C25.3238 18.1163 25.1874 18.9497 25.1257 18.6587C24.9348 17.7598 24.575 17.6156 24.3874 18.3629C24.2397 18.9515 24.1444 19.0153 23.8178 18.7443C23.1933 18.226 22.4189 18.204 22.4189 18.7045C22.4189 19.7534 22.1296 18.7125 21.9209 16.9138L21.6938 14.9546L21.6306 17.2035L21.5674 19.4525L21.2439 17.865L20.9204 16.2775L20.7084 17.9398C20.5239 19.3867 20.4529 19.54 20.1608 19.123C19.9762 18.8594 19.7701 18.3495 19.7028 17.9898C19.6024 17.4532 19.574 17.4929 19.5444 18.2113C19.5235 18.7203 19.3976 19.0184 19.2438 18.9233C19.0983 18.8334 18.9719 18.9153 18.9629 19.1061C18.9424 19.5402 18.305 17.4682 17.9706 15.8806C17.7284 14.7305 17.7188 14.7604 17.6881 16.7561C17.6681 18.0588 17.5585 18.7618 17.3917 18.6587C17.2462 18.5688 17.1271 18.2116 17.1271 17.865C17.1271 17.5184 17.0081 17.1612 16.8626 17.0712C16.702 16.972 16.598 17.3507 16.598 18.0346C16.598 19.1551 16.2526 19.2093 15.9929 18.1296C15.9196 17.8248 15.8396 18.0492 15.8042 18.6587C15.7704 19.2408 15.6867 19.5 15.6181 19.2346C15.5495 18.9693 15.3441 18.8094 15.1618 18.8794C14.7455 19.0391 14.3883 18.8078 14.0037 18.1296C13.7119 17.615 13.7034 17.6169 13.6956 18.1957C13.6876 18.7998 13.0664 19.0197 12.7615 18.5264C12.4725 18.0588 12.1002 18.2438 12.096 18.8571C12.093 19.3385 12.0429 19.3765 11.8355 19.0555C11.6944 18.8373 11.5653 18.361 11.5486 17.9972L11.5182 17.3358L11.3063 17.9972C11.1898 18.361 11.0743 18.5396 11.0495 18.3941C11.0248 18.2486 10.9022 18.3676 10.7772 18.6587C10.5827 19.1112 10.5471 19.1208 10.5312 18.7248C10.5105 18.2105 10.4716 18.1926 9.87275 18.4224C9.64257 18.5107 9.43815 18.7786 9.41848 19.0177C9.39878 19.2568 9.23434 18.619 9.05297 17.6003L8.7232 15.7482L8.6878 17.468C8.6636 18.6422 8.57431 19.0643 8.40625 18.7986C8.27087 18.5845 8.07529 18.4942 7.97162 18.5979C7.86796 18.7015 7.63917 18.6669 7.46318 18.5208C7.2419 18.3371 7.04079 18.3786 6.81112 18.6554C6.33702 19.2266 5.81562 19.1496 5.60209 18.4769C5.42477 17.9182 5.40592 17.9154 5.0551 18.3952C4.85526 18.6685 4.679 18.8396 4.66339 18.7754C4.64779 18.7112 4.48654 17.1704 4.30504 15.3513L3.97504 12.0441L3.93654 15.1088C3.91534 16.7944 3.81492 18.2567 3.71334 18.3583C3.61176 18.4598 3.37786 18.2714 3.19355 17.9393C2.87058 17.3576 2.85742 17.3693 2.83046 18.2618C2.81366 18.8188 2.73086 19.0297 2.62265 18.7909C2.39642 18.2917 1.73982 18.2781 1.35872 18.7648C1.1097 19.0829 1.03439 19.0829 0.829555 18.7648C0.698205 18.5609 0.526743 14.3459 0.448543 9.39819C0.355343 3.49991 0.308511 6.96188 0.312611 19.4524C0.315611 29.9299 0.351916 34.4586 0.392216 29.5162C0.436716 24.0634 0.568204 20.4274 0.726574 20.269L0.725963 20.268Z" fill="black"/>
</svg>
