<svg width="464" height="39" viewBox="0 0 464 39" fill="none" xmlns="http://www.w3.org/2000/svg">
<path d="M4.04396 23.3603L4.29425 26.3953L4.53066 23.0964C4.66069 21.282 4.80133 19.762 4.84331 19.7186C4.88489 19.6754 5.23014 19.7178 5.61009 19.8132C6.08007 19.931 6.30458 20.1671 6.31266 20.5518C6.32081 21.0227 6.38031 20.9866 6.6579 20.3349C6.90003 19.7671 7.05044 19.6483 7.20664 19.9012C7.33178 20.1035 7.49116 20.1442 7.58695 19.9982C7.82581 19.6341 9.01969 19.3891 9.40241 19.6255C9.61029 19.754 9.79249 20.8579 9.90223 22.6533C9.9972 24.2073 10.1093 25.4446 10.1513 25.4027C10.1929 25.3608 10.3473 24.1525 10.4941 22.7173C10.737 20.3423 10.9805 19.6842 11.6216 19.6694C11.7182 19.6676 11.9167 19.9919 12.0624 20.3911L12.3274 21.1169L12.3559 20.3252C12.3845 19.5938 12.413 19.5701 12.7497 20.0145C13.1023 20.4796 13.1182 20.4796 13.2383 20.0145C13.3068 19.7498 13.3973 21.4338 13.4401 23.7562L13.5176 27.9789L13.7006 24.0202C13.8013 21.8429 13.8991 20.0318 13.9179 19.9955C13.9382 19.9588 14.1302 19.9294 14.3476 19.9294C14.5653 19.9294 14.7434 19.8397 14.7434 19.7296C14.7434 19.62 15.2777 19.5722 15.9307 19.6244C16.8176 19.695 17.119 19.8291 17.122 20.1541C17.1257 20.4277 17.1982 20.4816 17.3197 20.2989C17.6983 19.7316 18.5875 19.4979 19.954 19.6064C21.3026 19.7137 21.3397 19.7386 21.3629 20.5488L21.3873 21.3811L21.6348 20.5233L21.8822 19.6656H24.513H27.1438L27.198 22.3707L27.2522 25.0759L27.3407 22.7411C27.4328 20.307 27.9755 18.8084 28.555 19.3881C28.7075 19.5406 29.0461 19.6654 29.3073 19.6654C29.5775 19.6654 29.7822 19.8578 29.7822 20.1117C29.7822 20.5166 29.8148 20.519 30.1119 20.1362C30.2933 19.9054 30.7089 19.6371 31.0354 19.5401C31.5902 19.375 31.6313 19.4468 31.6649 20.6351C31.6853 21.3344 31.7497 21.6096 31.8096 21.2467C32.0232 19.9526 32.2413 19.7674 32.4308 20.7189L32.6146 21.6426L32.6513 20.6529C32.6757 19.9646 32.8066 19.6632 33.0818 19.6632C33.4017 19.6632 33.4861 20.1302 33.5219 22.1044C33.5643 24.4301 33.5745 24.4707 33.7412 22.9621C33.8724 21.7738 33.9275 22.3281 33.9609 25.1834C33.9853 27.2761 34.0942 28.8992 34.203 28.7904C34.3118 28.6815 34.4602 26.5338 34.5328 24.0174C34.6053 21.5011 34.7439 19.3633 34.8405 19.2669C35.112 18.9961 36.1157 20.127 36.1157 20.7033C36.1157 21.3823 36.5707 21.6428 36.7247 21.0519C36.7916 20.7963 36.8617 21.0026 36.8809 21.5105C36.9498 23.3443 37.4268 23.317 37.4311 21.4779L37.4348 19.7309L38.7982 19.6983C39.548 19.682 40.3791 19.5985 40.645 19.5141C40.9185 19.4272 41.1285 19.4896 41.1285 19.658C41.1285 19.8215 41.2471 19.8818 41.3922 19.7921C41.5373 19.7024 41.6588 19.8439 41.6621 20.1065C41.6661 20.5211 41.7289 20.5049 42.1312 19.9817L42.5944 19.3797L43.1838 19.929C43.6876 20.3985 43.796 20.4191 43.9297 20.0709C44.186 19.4028 44.5562 19.8849 44.589 20.9294C44.6053 21.4652 44.6697 21.666 44.7313 21.3757C45.1148 19.5608 45.0908 19.5996 45.7646 19.7285C46.1897 19.81 46.5058 19.704 46.6678 19.4271C46.872 19.0773 46.9193 19.1192 46.9291 19.6603C46.9372 20.1715 46.9963 20.2327 47.1867 19.9319C47.5299 19.3888 47.792 19.7472 48.0043 21.0508L48.1861 22.1675L48.2587 21.1118L48.3313 20.0562L48.5159 21.2438L48.7005 22.4315L48.7413 21.1694C48.7739 20.1223 48.8819 19.869 49.3746 19.6826C49.7011 19.5591 50.0138 19.4995 50.0696 19.5505C50.1251 19.6015 50.2567 20.6268 50.3615 21.829L50.5518 24.0148L50.5885 22.2742C50.6391 19.9634 50.9293 19.7119 53.5286 19.7273C55.0847 19.7354 55.5457 19.8293 55.6867 20.1615C55.8432 20.5301 55.8685 20.5251 55.8844 20.1207C55.8925 19.8666 56.0809 19.6588 56.2987 19.6588C56.6215 19.6588 56.7038 20.1581 56.7455 22.364L56.7965 25.0691L56.9583 22.4299C57.0472 20.9784 57.1429 19.9657 57.1711 20.1794C57.2078 20.4587 57.3386 20.402 57.636 19.9771C58.1395 19.2581 58.5377 19.4421 58.5516 20.4003C58.5598 21.1 58.5679 21.0976 58.9401 20.2396C59.2707 19.4781 59.3855 19.4047 59.8532 19.6551C60.1475 19.8125 60.388 20.1381 60.388 20.3785C60.388 20.7589 60.4345 20.752 60.7463 20.325C61.2902 19.581 62.1745 19.5427 62.3154 20.257L62.4315 20.8464L62.6276 20.2526C62.758 19.8579 63.0344 19.6588 63.4526 19.6588H64.0814L64.1434 27.906L64.2053 36.1534L64.2791 27.906C64.3472 20.2543 64.4621 19.0442 65.031 19.965C65.1349 20.1334 65.3 24.2604 65.3974 29.136L65.5747 38.0008L65.6195 28.8731L65.6644 19.7454L67.239 19.6887C68.9885 19.6255 68.9781 19.6137 69.1774 21.9022C69.2557 22.8004 69.2761 22.7488 69.3136 21.5568C69.338 20.7497 69.464 20.2214 69.6083 20.3107C69.746 20.3959 69.982 20.2356 70.1325 19.9543C70.4582 19.3457 71.4519 19.4894 71.499 20.1517C71.5275 20.5345 71.543 20.5329 71.6469 20.1354C71.8063 19.5316 72.5533 19.4001 73.1172 19.8768C73.5316 20.2271 73.581 20.2157 73.5997 19.7643C73.6119 19.4858 73.68 19.4087 73.7537 19.5914C73.8271 19.7728 74.1145 19.9213 74.3925 19.9213C74.796 19.9213 74.9039 20.1215 74.9264 20.9109L74.955 21.9006L75.2061 20.779C75.579 19.1128 75.9477 19.4194 75.9993 21.4388L76.045 23.2202L76.1974 21.5286C76.3173 20.1993 76.4473 19.8231 76.8047 19.7716C77.4518 19.6782 79.4541 19.5799 79.8455 19.6219C80.0844 19.6463 80.1839 20.4384 80.2067 22.4944L80.2393 25.3315L80.5377 22.7803C80.8572 20.0463 81.1054 19.4047 81.374 20.6159C81.643 21.8286 81.7164 21.9458 81.7388 21.1965C81.7714 20.1284 82.0278 19.6573 82.5794 19.6573C82.9421 19.6573 83.086 19.8563 83.1051 20.3831L83.1295 21.1089L83.3117 20.4491C83.4238 20.0438 83.7189 19.7567 84.0769 19.7049C84.5727 19.6332 84.6649 19.7514 84.6944 20.4967L84.7311 21.3728L84.9256 20.4491C85.1155 19.5469 85.1208 19.5545 85.1547 20.7789C85.1913 22.0872 85.714 22.5747 85.7211 21.3068C85.7229 20.9076 85.8401 20.4029 85.9807 20.1851C86.165 19.9001 86.2388 20.1566 86.2445 21.1089C86.2485 22.0592 86.3239 22.3176 86.5082 22.0325C86.6488 21.8148 86.7674 21.1616 86.7719 20.581C86.776 19.8013 86.8469 19.6288 87.0357 19.9212C87.1844 20.1516 87.3177 24.0155 87.3548 29.1582L87.418 37.9993L87.5655 28.8943C87.6467 23.8865 87.7429 19.7299 87.7791 19.6573C87.8158 19.5847 88.0787 19.8057 88.3641 20.1484C88.8519 20.7342 88.883 20.7398 88.883 20.2426C88.883 19.9518 89.0566 19.6471 89.269 19.5656C89.6497 19.4196 89.6842 19.5199 90.0291 21.7686C90.085 22.1315 90.1465 21.7808 90.1661 20.99C90.2028 19.4843 90.5954 19.3949 90.8018 20.8449C90.8804 21.3999 90.9318 21.2421 90.9717 20.3171C91.0223 19.1604 91.0647 19.0708 91.3154 19.5913C91.6092 20.2005 92.4174 20.392 92.7082 19.9212C92.9765 19.4872 93.6294 19.6227 93.6623 20.1189C93.6908 20.5588 93.699 20.5588 93.8135 20.1189C93.9256 19.6899 94.8793 19.4911 96.2699 19.6069C97.0864 19.6746 98.2185 19.6787 107.579 19.6477C112.856 19.6273 117.267 19.7133 117.381 19.8344C117.495 19.9555 117.646 20.2923 117.716 20.5826C117.8 20.9304 117.853 20.8232 117.873 20.2682C117.906 19.3448 118.368 18.8653 118.702 19.4064C118.819 19.5952 119.327 19.7587 119.831 19.7701L120.748 19.7905L120.998 24.5409L121.247 29.2914L121.291 24.5541C121.331 20.2643 121.526 19.1372 121.937 20.8462C122.033 21.245 122.071 21.1968 122.094 20.6484C122.119 20.1088 122.26 19.9226 122.653 19.9226C122.943 19.9226 123.184 20.0711 123.188 20.2525C123.192 20.434 123.319 20.372 123.468 20.1151C123.618 19.8578 123.852 19.7168 123.988 19.8007C124.124 19.8847 124.235 19.7681 124.235 19.5422C124.235 18.5588 125.254 19.671 125.309 20.7142L125.345 21.374L125.556 20.7142C125.759 20.0813 125.769 20.0786 125.794 20.6482C125.81 20.9883 125.989 21.242 126.216 21.242C126.558 21.242 126.62 22.3606 126.671 29.4893L126.731 37.7366L126.876 30.7429C127.002 24.6462 127.036 24.2231 127.138 27.444L127.256 31.1388L127.396 25.4863C127.499 21.3009 127.621 19.8054 127.865 19.7242C128.082 19.6521 128.203 19.9154 128.219 20.4943L128.243 21.374L128.503 20.4674C128.677 19.8608 128.832 19.6718 128.971 19.8961C129.23 20.3164 129.53 20.3241 129.782 19.9165C129.921 19.6906 131.491 19.5972 135.345 19.585L140.714 19.5687L140.892 20.2074C141.066 20.8306 141.071 20.8317 141.097 20.2523C141.117 19.8019 141.282 19.6585 141.783 19.6585C142.344 19.6585 142.447 19.7857 142.473 20.5162L142.506 21.3739L142.673 20.604C142.764 20.1805 142.988 19.7846 143.169 19.7242C143.409 19.6447 143.512 20.1075 143.545 21.4179L143.59 23.2214L143.743 21.5059L143.895 19.7905L145.016 19.7701L146.138 19.7497L146.162 20.9561L146.187 22.1626L146.515 20.843C146.878 19.3868 147.117 19.5962 147.268 21.5028L147.363 22.6904L147.409 21.2893C147.433 20.5027 147.563 19.9548 147.7 20.04C147.836 20.1236 148.026 20.0645 148.123 19.9055C148.22 19.7481 148.466 19.6828 148.669 19.7611C148.872 19.839 149.061 19.7574 149.089 19.5813C149.117 19.4043 149.213 20.4473 149.302 21.8988L149.464 24.5379L149.515 22.1361L149.565 19.7341L151.544 19.7056C152.633 19.6892 153.539 19.7018 153.558 19.7341C153.578 19.7627 153.675 21.1534 153.776 22.8226L153.959 25.8577L154.005 22.7786C154.052 19.6065 154.2 19.2015 155.138 19.6826C155.374 19.8033 155.928 19.798 156.371 19.6704C156.814 19.5432 157.227 19.4897 157.288 19.5509C157.35 19.6125 158.012 19.6765 158.759 19.6932C159.95 19.7218 160.122 19.7935 160.145 20.2832C160.169 20.8235 160.177 20.8245 160.343 20.3158C160.542 19.7032 161.963 19.3985 161.969 19.9672C161.973 20.2497 162.017 20.2477 162.2 19.959C162.386 19.665 164.739 19.4469 165.395 19.663C165.468 19.6875 165.903 19.725 166.363 19.7478C166.822 19.7723 167.286 19.8771 167.394 19.9847C167.501 20.0924 167.761 20.0381 167.97 19.8644C168.402 19.5056 169.089 19.3522 169.089 19.6145C169.089 19.7103 170.298 19.7764 171.776 19.7609C175.404 19.7242 175.412 19.7242 175.462 21.2056L175.504 22.4284L175.66 21.1088L175.817 19.7893L177.111 19.7073C177.967 19.6531 178.478 19.744 178.624 19.9711C178.791 20.2349 178.844 20.2386 178.847 19.9875C178.849 19.806 178.951 19.6576 179.073 19.6576C179.518 19.6576 179.89 21.726 180.116 25.4637L180.348 29.2904L180.428 26.1235C180.484 23.9418 180.564 23.2849 180.686 24.0121C180.846 24.9615 180.882 25.0014 181.041 24.4081C181.139 24.0452 181.259 23.2139 181.308 22.5607C181.357 21.9075 181.436 23.5702 181.485 26.2555L181.571 31.1379L181.798 27.1792C182.16 20.8466 182.275 19.9215 182.698 19.9215C182.951 19.9215 183.079 20.2416 183.093 20.9112L183.113 21.9009L183.461 20.8452L183.808 19.7895L183.878 21.1092L183.947 22.4287L184.128 21.1092C184.227 20.3834 184.329 19.9083 184.354 20.0535C184.379 20.1986 184.501 20.1583 184.624 19.9638C184.799 19.687 184.993 19.755 185.516 20.2789L186.185 20.9477L186.402 20.3687C186.529 20.0327 186.681 23.2768 186.765 28.1031L186.909 36.4164L186.974 27.9711C187.016 22.3997 187.125 19.6605 187.294 19.9217C187.504 20.2475 187.55 20.2516 187.553 19.9421C187.555 19.7366 187.635 19.6465 187.731 19.7419C187.827 19.8377 188.056 19.79 188.24 19.6371C188.488 19.4312 188.652 19.5009 188.867 19.9033C189.2 20.5245 189.668 20.6286 189.668 20.0812C189.668 19.808 190.107 19.7077 191.383 19.6885C192.418 19.6722 193.098 19.7725 193.098 19.9392C193.098 20.0913 193.217 20.1423 193.362 20.0526C193.532 19.9474 193.644 21.2721 193.678 23.7978L193.73 27.7061L193.876 23.8344C194.024 19.8775 194.394 18.211 194.446 21.2622L194.474 22.9557L194.808 21.3722C195.128 19.8483 195.143 19.9627 195.193 24.4072C195.222 26.9474 195.348 29.2632 195.472 29.5535C195.611 29.8753 195.706 28.2011 195.718 25.2649C195.73 22.2423 195.834 20.4485 196 20.4485C196.145 20.4485 196.278 20.7155 196.295 21.0423C196.323 21.5722 196.337 21.5793 196.44 21.1084C196.503 20.818 196.697 20.2944 196.871 19.9448C197.164 19.3562 197.208 19.4345 197.468 21.0004L197.749 22.6918L198.085 21.1542C198.411 19.6629 198.436 19.6303 198.925 20.0734C199.219 20.3393 199.43 20.4029 199.43 20.2255C199.43 19.7295 199.955 19.8785 199.984 20.3825C200 20.6903 200.081 20.6243 200.222 20.1848C200.338 19.8219 200.447 19.7031 200.463 19.921C200.488 20.2561 200.53 20.2598 200.73 19.9454C200.93 19.629 201.029 19.6359 201.385 19.9927C201.75 20.3572 201.812 21.5528 201.856 29.0745L201.908 37.7365L202.069 29.1593C202.22 21.1019 202.342 19.6585 202.867 19.6585C202.985 19.6585 203.258 19.5908 203.474 19.5072C203.725 19.4114 203.933 19.5602 204.046 19.917C204.178 20.3314 204.31 20.4058 204.556 20.2019C204.803 19.9968 204.978 20.1123 205.239 20.6499L205.589 21.3736L205.776 20.5819C205.906 20.0344 205.979 19.953 206.012 20.3181C206.056 20.8098 206.076 20.8053 206.298 20.252C206.58 19.5507 207.341 19.4557 207.355 20.1199C207.363 20.4726 207.453 20.4257 207.741 19.9221C208.086 19.3187 208.122 19.5217 208.167 22.2973L208.215 25.3323L208.535 22.6933C208.712 21.2417 208.874 20.2916 208.896 20.5819C208.929 21.0224 208.978 21.0442 209.192 20.714C209.362 20.4502 209.449 20.4282 209.452 20.648C209.456 21.1469 209.93 21.0431 210.051 20.5159C210.109 20.2618 210.247 20.8853 210.357 21.9014C210.946 27.339 210.969 27.4176 211.005 24.0787C211.026 22.2096 211.143 20.9777 211.302 20.9777C211.448 20.9777 211.575 20.6511 211.585 20.2519C211.601 19.6089 211.629 19.5863 211.83 20.0542C211.998 20.4448 212.076 20.4791 212.129 20.1863C212.169 19.9686 212.271 21.2155 212.358 22.9574L212.516 26.1244L212.569 23.1333C212.61 20.8766 212.703 20.1691 212.952 20.2511C213.133 20.3111 213.428 20.6474 213.607 20.9989C213.928 21.628 213.934 21.6237 213.986 20.7143C214.015 20.2063 214.114 20.8003 214.205 22.0338L214.37 24.2771L214.419 22.0998C214.448 20.857 214.582 19.9226 214.732 19.9226C214.877 19.9226 215.005 19.7146 215.017 19.4607C215.029 19.1822 215.091 19.1305 215.171 19.3303C215.245 19.5125 215.413 19.5945 215.546 19.5125C215.679 19.4305 215.789 19.5166 215.792 19.7086C215.795 19.9598 215.866 19.946 216.051 19.6581C216.237 19.3706 216.318 19.6254 216.346 20.5818C216.382 21.8416 216.393 21.8596 216.579 20.9777C216.686 20.4697 216.789 20.1576 216.808 20.2842C216.828 20.4106 217.002 20.3821 217.197 20.2206C217.652 19.8427 217.897 20.0979 217.902 20.9558C217.906 21.4929 217.96 21.5536 218.162 21.2416C218.353 20.946 218.43 21.1132 218.466 21.9014C218.507 22.7754 218.545 22.6846 218.689 21.3736L218.864 19.7901L218.951 21.3736L219.037 22.9571L219.217 21.6375L219.398 20.3179L219.484 21.7694L219.57 23.221L219.745 21.6375C219.842 20.7666 219.957 20.3509 220.002 20.7138C220.065 21.2244 220.126 21.1349 220.269 20.3178L220.454 19.2622L220.667 20.1521C220.876 21.0268 220.885 21.0318 221.2 20.4421C221.438 19.9985 221.56 19.9385 221.668 20.2117C221.781 20.4979 221.819 20.4853 221.835 20.1566C221.859 19.6425 224.447 19.2886 225.434 19.6641C225.823 19.8117 226.119 19.804 226.218 19.6438C226.306 19.5019 226.511 19.468 226.673 19.5687C226.836 19.6695 227.481 19.7253 228.106 19.6927C228.865 19.6519 229.243 19.7424 229.243 19.9601C229.243 20.1514 229.381 20.0976 229.577 19.8309C229.855 19.4505 230.16 19.4044 231.423 19.5528L232.937 19.7306L232.974 23.3231L233.01 26.9155L233.246 23.7486C233.511 20.1885 233.706 19.367 234 20.5816L234.191 21.3733L234.223 20.5242C234.252 19.7587 234.313 19.6966 234.848 19.8946C235.471 20.1245 235.763 21.0969 235.851 23.2207C235.893 24.2615 235.898 24.2662 236.181 23.5506C236.338 23.1514 236.563 22.8249 236.68 22.8249C236.797 22.8249 236.915 22.3796 236.942 21.8352C236.971 21.2909 237.066 21.8556 237.157 23.0888L237.323 25.3321L237.372 22.5742C237.408 20.5159 237.497 19.8923 237.721 20.116C237.944 20.3399 238.116 20.3195 238.399 20.0369C238.607 19.8286 238.885 19.6581 239.017 19.6581C239.15 19.6581 239.291 21.9829 239.334 24.8704L239.411 30.0827L239.471 24.8045L239.531 19.5262L242.763 19.5547C244.541 19.571 246.362 19.6652 246.811 19.7643C247.394 19.8935 247.722 19.8287 247.964 19.5371C248.422 18.9851 248.853 19.0248 249.439 19.673C249.828 20.1024 250.142 20.187 250.935 20.0762C251.487 19.9991 252.166 19.8141 252.444 19.6656C253.076 19.3275 253.772 19.5754 253.797 20.1474C253.813 20.4834 253.864 20.4622 254.032 20.0532C254.262 19.4951 254.394 19.6634 254.656 20.845C254.727 21.1679 254.784 21.0395 254.803 20.5151C254.835 19.5556 255.349 19.3222 255.382 20.2513C255.394 20.5779 255.463 20.6959 255.536 20.5135C255.61 20.3312 255.779 20.2497 255.913 20.3325C256.047 20.4152 256.227 20.2958 256.315 20.0703C256.441 19.7416 256.922 19.6577 258.687 19.6577C260.086 19.6577 260.902 19.762 260.902 19.9406C260.902 20.0964 261.083 20.0417 261.305 19.8199C261.907 19.2175 262.443 19.581 262.558 20.6702C262.657 21.6081 262.661 21.6025 262.704 20.4847C262.746 19.4164 262.792 19.3462 263.342 19.5228C263.669 19.6276 264.553 19.6945 265.306 19.6712L266.676 19.6292L266.776 20.8971L266.875 22.165L266.923 20.7639C266.947 19.9933 267.065 19.4217 267.182 19.4938C267.298 19.5659 269.139 19.654 271.271 19.6903L275.149 19.756L275.209 26.2389L275.269 32.7218L275.343 27.4435C275.383 24.5405 275.505 21.9871 275.613 21.7694C275.721 21.5517 275.873 23.0956 275.952 25.2003L276.095 29.0271L276.153 24.4085C276.194 21.3106 276.297 19.9204 276.468 20.1859C276.609 20.4037 276.726 20.4465 276.728 20.2809C276.732 20.1154 277.147 19.9315 277.655 19.8721C278.358 19.7902 278.58 19.8598 278.583 20.173C278.586 20.5334 278.615 20.5347 278.842 20.1852C278.983 19.9675 279.102 19.9079 279.106 20.0531C279.11 20.1983 279.229 20.1387 279.37 19.921C279.583 19.592 279.629 19.614 279.646 20.0531C279.662 20.5044 279.705 20.4852 279.932 19.921C280.19 19.2796 280.208 19.2755 280.575 19.7734C280.783 20.0552 280.953 20.144 280.953 19.9712C280.953 19.7983 281.131 19.6568 281.348 19.6568C281.678 19.6568 281.752 20.2426 281.792 23.1537L281.84 26.6505L282.017 23.0877C282.115 21.1281 282.212 19.491 282.233 19.4495C282.254 19.4079 282.539 19.5173 282.865 19.6922C283.192 19.8671 283.518 19.9601 283.591 19.8993C283.663 19.8385 283.782 21.4514 283.855 23.4835L283.987 27.1783L284.128 23.6941C284.263 20.3553 284.411 19.5985 284.844 20.0298C284.953 20.1383 285.107 22.3848 285.186 25.0222L285.329 29.8175L285.384 24.7401L285.438 19.6627L286.097 19.7173C286.559 19.754 286.763 19.9326 286.775 20.3082C286.796 20.841 286.796 20.841 287.021 20.3163C287.23 19.8283 287.251 19.8382 287.297 20.4484C287.334 20.9162 287.381 20.9729 287.467 20.6434C287.534 20.3877 287.69 20.2409 287.813 20.3171C287.937 20.3938 288.112 20.2238 288.202 19.94C288.342 19.4969 288.541 19.4429 289.606 19.5579C290.288 19.6317 290.995 19.7398 291.176 19.7981C291.43 19.8796 291.518 21.9578 291.559 28.8196L291.613 37.7349L291.78 28.7619C291.871 23.8267 291.966 19.7534 291.99 19.7101C292.015 19.6669 292.5 19.7019 293.068 19.7855C293.918 19.9123 294.124 19.8557 294.225 19.4683C294.292 19.209 294.361 23.2496 294.378 28.4473C294.399 34.6728 294.499 37.8422 294.673 37.7347C294.84 37.6316 294.936 34.3914 294.936 28.8848V20.1981L295.763 19.7706C296.365 19.4591 296.64 19.4256 296.777 19.6466C296.989 19.9904 297.311 28.518 297.311 33.8031C297.311 35.8549 297.42 37.3755 297.574 37.471C297.749 37.5786 297.838 34.6241 297.838 28.8057C297.838 20.8021 297.879 19.9614 298.279 19.8081C298.521 19.7151 298.788 19.7408 298.872 19.8652C299.181 20.3205 299.905 20.4148 300.057 20.0193C300.244 19.5319 300.7 19.7828 301.006 20.5416C301.218 21.066 301.236 21.0537 301.251 20.3772L301.268 19.6461L302.296 20.1711L303.325 20.6961L303.474 20.1011C303.568 19.7276 303.824 19.506 304.161 19.506C304.591 19.506 304.706 19.6903 304.74 20.4392L304.782 21.3723L304.888 20.5146C305.009 19.5463 305.336 19.4182 305.798 20.1582C305.97 20.4338 306.26 20.6022 306.443 20.5321C306.671 20.4448 306.808 20.7654 306.878 21.5481C306.971 22.5896 306.984 22.5589 307.026 21.2052C307.068 19.8535 307.131 19.7072 307.718 19.5949C308.447 19.4554 308.919 19.8053 308.919 20.4858C308.919 20.7386 309.037 21.0187 309.182 21.1084C309.328 21.1981 309.465 22.5412 309.487 24.093L309.529 26.9145L309.718 23.8795C309.907 20.854 310.246 19.3929 310.759 19.3929C310.908 19.3929 311.029 19.5189 311.029 19.6726C311.029 19.8264 311.148 19.8786 311.293 19.7889C311.466 19.682 311.578 22.1986 311.618 27.0969L311.68 34.5681L311.754 27.3193C311.799 23.0256 311.935 19.9647 312.088 19.811C312.259 19.6405 312.358 20.3196 312.379 21.7815C312.411 24.2262 312.483 24.1534 312.774 21.3724C312.933 19.8451 312.999 19.6621 313.154 20.3167C313.291 20.8954 313.359 20.9665 313.407 20.5806C313.444 20.2903 313.618 21.1216 313.796 22.428L314.119 24.8032L314.183 22.0321C314.226 20.1903 314.319 19.4822 314.459 19.9207C314.599 20.3606 314.679 20.4266 314.696 20.1185C314.713 19.8412 314.934 19.6567 315.25 19.6567C315.676 19.6567 315.778 19.8324 315.778 20.5648C315.778 21.9247 316.302 22.0174 316.327 20.6618C316.339 20.0363 316.412 19.6865 316.49 19.8844C316.611 20.1881 316.673 20.1881 316.885 19.8844C317.082 19.6038 317.167 19.5973 317.272 19.8558C317.346 20.0381 317.515 20.1205 317.648 20.0381C317.781 19.9561 317.898 20.2224 317.907 20.6302C317.924 21.2823 317.953 21.308 318.153 20.8439C318.306 20.4883 318.387 20.4451 318.402 20.7118C318.423 21.0637 318.453 21.0637 318.681 20.7118C318.893 20.3823 318.94 20.4047 318.959 20.8439L318.983 21.3717L319.21 20.8439C319.389 20.4273 319.442 20.5385 319.46 21.3717C319.5 23.1994 319.991 23.4326 320.016 21.6355C320.033 20.504 320.103 20.2027 320.266 20.5799C320.39 20.8702 320.501 20.9595 320.511 20.7781C320.536 20.3793 321.321 20.3302 321.321 20.7275C321.321 20.8812 321.44 20.9334 321.585 20.8437C321.748 20.743 321.862 21.2664 321.882 22.2136C321.903 23.0569 321.999 25.0531 322.101 26.6498C322.285 29.5201 322.287 29.501 322.332 24.9552C322.368 21.0899 322.446 20.2806 322.813 19.8748C323.34 19.2923 323.696 19.254 323.696 19.7798C323.696 20.007 323.851 20.1076 324.072 20.0228C324.354 19.9147 324.491 20.1982 324.617 21.1527C324.894 23.2562 324.952 23.3025 324.984 21.4438L325.013 19.669L325.805 19.8273C326.275 19.9214 326.596 19.8749 326.596 19.7135C326.596 19.5638 326.833 19.5035 327.124 19.5793C327.524 19.6841 327.656 19.9496 327.672 20.6763C327.684 21.2338 327.767 21.4694 327.87 21.2393C327.967 21.0215 328.109 24.525 328.185 29.0247L328.322 37.2061L328.382 28.5629C328.419 23.0169 328.537 19.9197 328.706 19.9197C328.851 19.9197 328.991 19.9483 329.016 19.9858C329.041 20.0225 329.136 23.1395 329.226 26.9135L329.391 33.7753L329.444 26.9267C329.477 22.7089 329.592 20.1744 329.742 20.3288C329.877 20.4667 330.085 22.7173 330.204 25.33L330.421 30.0805L330.553 25.1536C330.626 22.4437 330.759 20.1524 330.851 20.0616C330.942 19.9711 331.311 19.843 331.67 19.7778C332.219 19.6783 332.369 19.7982 332.599 20.5152L332.874 21.3712L332.903 20.5135C332.935 19.4817 333.352 19.3996 333.78 20.3406C334.06 20.9551 334.112 20.9754 334.284 20.5384C334.433 20.1584 334.484 20.2252 334.513 20.8434C334.533 21.2788 334.652 21.8727 334.776 22.1629C334.947 22.5593 335.012 22.3619 335.04 21.3712C335.06 20.6455 335.174 19.8141 335.292 19.5238C335.488 19.0422 335.525 19.0617 335.704 19.7468C335.83 20.2271 335.972 20.3834 336.097 20.1805C336.24 19.9497 336.343 19.944 336.476 20.1601C336.577 20.3232 336.77 20.388 336.905 20.3045C337.05 20.2152 337.171 21.3244 337.199 23.0053L337.248 25.8579L337.398 22.9097C337.48 21.2881 337.636 19.8729 337.744 19.7647C337.853 19.6566 337.959 20.627 337.979 21.9212L338.016 24.2744L338.213 22.2064C338.413 20.1067 338.979 18.7827 339.016 20.3289C339.024 20.7571 339.137 21.345 339.261 21.6353C339.444 22.0615 339.501 21.9599 339.556 21.1075C339.592 20.5077 339.695 21.0206 339.789 22.2951L339.954 24.5384L340.003 22.4774C340.036 21.1821 340.15 20.4771 340.316 20.5796C340.472 20.6755 340.599 22.5032 340.626 25.0158L340.671 29.2888L340.855 26.2537C341.154 21.2986 341.215 21.3766 341.372 26.9136L341.52 32.1918L341.609 26.1218C341.66 22.6273 341.783 20.3878 341.899 20.8436C342.055 21.4591 342.107 21.5066 342.132 21.0572C342.181 20.1383 342.691 20.0497 342.691 20.9602C342.691 22.081 343.121 21.9725 343.342 20.7962C343.477 20.0774 343.586 19.923 343.763 20.2024C343.957 20.5099 344.002 20.4928 344.006 20.1091C344.009 19.7201 344.102 19.6871 344.537 19.9203C344.952 20.1421 345.074 20.4977 345.105 21.579L345.145 22.9553L345.33 21.7677L345.515 20.5801L345.573 21.7677C345.618 22.6933 345.681 22.8389 345.858 22.4275C346.061 21.9548 346.087 21.9731 346.103 22.604C346.145 24.1997 346.519 24.2573 346.671 22.6917C346.791 21.4538 346.844 21.857 346.913 24.5391C346.994 27.7067 347.013 27.8146 347.155 25.9456C347.322 23.7503 347.684 22.8925 347.739 24.5611C347.759 25.1296 347.855 28.2669 347.955 31.5328L348.136 37.4709L348.24 28.8937C348.328 21.6427 348.366 20.9693 348.486 24.5391L348.628 28.7617L348.825 25.9906C349.17 21.135 349.34 19.8419 349.581 20.2234C349.757 20.5007 349.809 20.4771 349.812 20.1187C349.816 19.4343 350.449 19.6852 350.642 20.4485C350.734 20.8114 350.823 21.6794 350.84 22.3775C350.882 24.0939 351.391 23.7225 351.425 21.9505C351.445 20.8684 351.495 20.7191 351.663 21.2403C351.872 21.8946 351.875 21.8935 351.94 21.1081L352.005 20.3164L352.12 21.0919L352.234 21.8675L352.718 20.8281L353.202 19.7886L353.255 21.2401C353.3 22.4768 353.337 22.5745 353.509 21.8999C353.677 21.2372 353.723 21.3663 353.786 22.6916L353.861 24.2751L354.036 22.6916C354.132 21.8207 354.247 21.2863 354.29 21.504C354.334 21.7217 354.457 21.4836 354.564 20.9761C354.672 20.4629 354.8 23.2775 354.852 27.3101L354.947 34.5677L355.085 27.1782L355.223 19.7886L356.279 19.7764C356.859 19.7682 357.542 19.6679 357.796 19.5501C358.822 19.074 359.047 19.5134 359.097 22.0891C359.121 23.4364 359.181 23.9448 359.227 23.219C359.416 20.2163 359.568 19.6562 360.194 19.6562C361.323 19.6562 361.661 20.471 361.754 23.4091L361.84 26.1221L361.896 23.0421L361.951 19.962L362.677 19.8157C363.076 19.7354 364.055 19.6587 364.853 19.6456C367.013 19.6089 367.692 19.5437 367.89 19.3451C367.988 19.2469 368.437 19.3904 368.888 19.664C369.488 20.0293 369.797 20.0861 370.048 19.8776C370.237 19.7211 370.629 19.6558 370.92 19.7317C371.21 19.8079 371.52 19.7561 371.607 19.613C371.695 19.4715 371.929 19.4185 372.128 19.4948C372.327 19.571 372.869 19.5029 373.332 19.3394C374.097 19.0727 374.231 19.1094 374.768 19.7349C375.252 20.2972 375.416 20.3586 375.657 20.0677C375.94 19.7268 377.474 19.3553 378.309 19.4258C379.339 19.5131 384.05 19.6167 387.015 19.6171C388.829 19.6175 391.085 19.6253 392.028 19.6375C392.971 19.6497 394.188 19.6538 394.732 19.6497L395.722 19.6456L395.774 28.823L395.826 38.0004L395.971 28.7192C396.051 23.6144 396.21 19.3453 396.323 19.2321C396.436 19.1187 396.877 19.2319 397.302 19.4833C397.875 19.8217 398.385 19.898 399.272 19.7777L400.47 19.6153L400.503 22.7381C400.539 26.2365 400.916 25.7306 400.968 22.1155C400.984 20.9266 401.118 19.8804 401.263 19.7907C401.413 19.6978 401.538 19.9469 401.553 20.369L401.578 21.1103L401.789 20.4505C401.923 20.0312 402.029 21.0889 402.08 23.3536L402.16 26.9164L402.304 23.7494C402.459 20.3447 402.82 19.1578 403.453 19.9696C403.678 20.2587 403.925 20.3342 404.163 20.1866C404.402 20.039 404.645 20.1139 404.865 20.4034C405.17 20.8043 405.203 20.7896 405.21 20.2526C405.214 19.8375 405.377 19.6588 405.746 19.6588C406.201 19.6588 406.28 19.8501 406.32 21.0443C406.364 22.3781 406.37 22.3878 406.467 21.3025C406.523 20.6823 406.68 20.2439 406.817 20.3283C406.953 20.4128 407.065 20.2399 407.065 19.9443C407.065 19.4664 407.139 19.44 407.725 19.7069C408.337 19.9858 408.388 20.152 408.433 22.0106L408.481 24.0135L408.631 22.0341C408.727 20.7622 408.898 20.0312 409.11 19.9888C409.291 19.9521 409.454 20.0712 409.471 20.2526C409.488 20.4341 409.593 20.2282 409.704 19.7908L409.905 18.999L409.968 19.9228L410.03 20.8464L410.231 20.0547C410.427 19.286 410.434 19.2937 410.476 20.3185C410.5 20.8991 410.672 21.7305 410.859 22.1659L411.199 22.9576L411.349 21.6485C411.456 20.7106 411.674 20.1967 412.118 19.8363C412.653 19.4022 412.749 19.3897 412.82 19.7454C412.868 19.9811 413.065 20.0948 413.282 20.0117C413.491 19.9317 413.661 19.9913 413.661 20.1499C413.661 20.3061 413.83 20.3688 414.037 20.2893C414.296 20.1903 414.449 20.3782 414.526 20.8915C414.619 21.51 414.644 21.4663 414.677 20.6366C414.709 19.841 414.811 19.6513 415.178 19.7129C415.432 19.7557 415.727 19.909 415.834 20.0542C415.942 20.2022 416.029 20.108 416.032 19.8405C416.035 19.5779 416.141 19.4279 416.268 19.507C416.396 19.5861 417.524 19.6652 418.775 19.6827C420.681 19.7113 421.053 19.7846 421.079 20.1484C421.103 20.5206 421.127 20.5166 421.23 20.1199C421.297 19.8658 421.58 19.658 421.859 19.658C422.291 19.658 422.374 19.8663 422.411 21.0435L422.453 22.429L422.631 20.9775C422.746 20.0412 422.824 19.8249 422.852 20.3682C422.907 21.4496 423.353 21.7371 423.497 20.7841C423.599 20.1109 423.61 20.1221 423.647 20.9272C423.667 21.4075 423.796 21.7326 423.93 21.6497C424.065 21.5669 424.229 21.7084 424.296 21.9641C424.362 22.2197 424.431 21.8797 424.448 21.2079C424.476 20.0642 424.969 19.1812 425.36 19.5724C425.455 19.6678 425.555 23.8532 425.582 28.8731L425.63 38L425.788 29.2909C425.941 20.8759 426.135 18.986 426.745 19.9541C426.872 20.1543 427.038 21.8024 427.114 23.6168L427.253 26.9157L427.473 23.4197C427.593 21.4968 427.8 19.8569 427.932 19.7753C428.064 19.6938 428.18 20.0795 428.19 20.6322C428.207 21.4349 428.255 21.5311 428.436 21.1096C428.6 20.7271 428.676 21.0174 428.712 22.1652C428.765 23.8993 428.844 23.7493 429.101 21.4173C429.194 20.5704 429.331 19.9381 429.405 20.0122C429.479 20.0864 429.63 21.9666 429.739 24.191L429.938 28.2353L429.979 24.1002C429.999 21.826 430.091 19.7773 430.179 19.5477C430.499 18.7143 430.812 19.1612 430.857 20.5158C430.899 21.7967 430.911 21.8188 431.003 20.8082C431.088 19.8761 431.178 19.7347 431.616 19.8493C431.899 19.9231 432.134 20.1183 432.138 20.2827C432.142 20.4471 432.267 20.3741 432.415 20.1201C432.884 19.3145 433.155 19.616 433.245 21.0438L433.333 22.4293L433.573 20.9778L433.813 19.5263L434.072 20.7139C434.215 21.3671 434.363 21.7233 434.401 21.5056C434.437 21.2879 434.541 20.6689 434.629 20.1301L434.788 19.1505L435.372 19.7339C435.945 20.3075 435.957 20.4685 436.087 29.2907L436.219 38.2641L436.448 29.5899C436.583 24.5022 436.772 21.0649 436.906 21.2766C437.066 21.529 437.142 21.3993 437.157 20.8459C437.177 20.1802 437.213 20.1382 437.388 20.5821C437.57 21.0433 437.62 21.0017 437.786 20.2522C438.15 18.6117 438.462 19.4111 438.508 22.0996C438.533 23.5874 438.592 24.2702 438.638 23.6171C438.872 20.3189 439.018 19.6175 439.406 19.9396C439.612 20.1109 439.781 20.5332 439.781 20.8783C439.781 21.2232 439.9 21.5058 440.045 21.5058C440.19 21.5058 440.309 21.1494 440.309 20.714C440.309 20.2786 440.427 19.9223 440.572 19.9223C440.725 19.9223 440.852 20.8933 440.874 22.2316L440.911 24.5407L441.181 22.0336C441.4 19.9929 441.486 19.6885 441.64 20.3975C441.916 21.6713 442.15 21.7416 442.18 20.5602C442.205 19.6537 442.232 19.6077 442.418 20.1863C442.558 20.6261 442.638 20.6922 442.656 20.3845C442.692 19.7067 443.203 19.8206 443.245 20.5166L443.282 21.1104L443.396 20.5166C443.459 20.19 443.621 19.9228 443.756 19.9228C443.893 19.9228 444.02 21.4183 444.044 23.2877C444.087 26.7359 444.126 26.6398 444.445 22.298C444.588 20.3405 444.668 19.9933 444.808 20.7145L444.988 21.6383L445.065 20.5826C445.139 19.5775 445.152 19.5965 445.321 20.9785C445.464 22.1473 445.507 22.2415 445.542 21.4619C445.598 20.2026 445.818 19.6589 446.273 19.6589C446.554 19.6589 446.651 20.1723 446.685 21.8362C446.709 23.0337 446.768 23.5385 446.817 22.9579C446.865 22.3773 446.968 21.4201 447.045 20.8308L447.186 19.7594L449.486 19.704C450.75 19.6755 452.023 19.6297 452.313 19.6065C452.603 19.582 453.523 19.5861 454.358 19.6106C455.758 19.6538 455.875 19.7052 455.875 20.2735C455.875 21.2614 456.234 21.3435 456.542 20.4264C456.803 19.651 456.925 19.5782 458 19.5532C458.645 19.5369 459.262 19.4072 459.371 19.2621C459.501 19.0884 459.636 19.0949 459.766 19.2824C459.875 19.4382 460.172 19.6421 460.426 19.736C460.821 19.8816 460.894 20.3012 460.932 22.6199L460.976 25.3332L461.163 22.5621C461.267 21.038 461.365 19.7613 461.383 19.725C461.399 19.6883 461.77 19.659 462.204 19.659H462.992L463.065 28.962C463.105 34.0786 463.139 29.7141 463.14 19.2631C463.143 6.41524 463.099 3.30991 463.005 9.67459C462.929 14.8518 462.777 19.1772 462.668 19.2865C462.288 19.6653 461.182 18.2944 461.078 17.3169C461.007 16.6463 460.963 16.814 460.932 17.8776C460.908 18.7122 460.824 19.3951 460.747 19.3951C460.669 19.3951 460.324 19.2104 459.98 18.9849C459.635 18.7594 459.288 18.6803 459.209 18.8096C459.129 18.9388 458.538 19.0644 457.896 19.0889C456.929 19.1256 456.705 19.0424 456.59 18.6043C456.417 17.9411 455.978 17.9181 455.809 18.5631C455.652 19.1653 454.193 19.5016 453.454 19.1062C453.163 18.95 452.668 18.8852 452.355 18.9626C450.885 19.3255 449.279 19.4245 449.279 19.1526C449.279 18.9957 449.19 18.8811 449.081 18.8982C447.635 19.1266 447.117 18.6079 446.903 16.7168L446.713 15.0402L446.676 16.9213C446.652 18.1632 446.516 18.9053 446.275 19.1053C445.804 19.4963 445.6 19.0025 445.542 17.3279L445.499 16.0959L445.321 17.5474L445.144 18.9989L445.066 17.8113L444.988 16.6237L444.809 17.5474C444.68 18.2109 444.575 17.58 444.433 15.3042C444.156 10.8408 444.068 10.794 444.033 15.0905C444.017 17.268 443.892 18.9039 443.739 18.9988C443.593 19.0885 443.47 18.947 443.465 18.6844C443.457 18.3044 443.379 18.3415 443.079 18.8667C442.707 19.5181 442.702 19.5189 442.693 18.9327C442.689 18.6061 442.572 18.3389 442.436 18.3389C442.3 18.3389 442.141 17.9528 442.083 17.4812L441.976 16.6235L441.934 17.5976C441.852 19.4971 441.409 18.8379 441.237 16.5584C440.997 13.3883 440.882 13.273 440.857 16.1772C440.845 17.7429 440.741 18.5748 440.573 18.4708C440.428 18.3811 440.296 18.0475 440.28 17.7295C440.264 17.4114 440.137 17.6691 439.996 18.3014C439.75 19.4029 439.722 19.4284 439.355 18.9035C439.144 18.6021 438.886 17.5501 438.783 16.5657L438.594 14.776L438.46 16.8873C438.332 18.9129 438.311 18.9688 437.953 18.2654C437.683 17.736 437.52 17.626 437.365 17.8695C437.212 18.1105 437.141 18.0558 437.116 17.679C437.091 17.3214 437.015 17.4066 436.879 17.9428C436.757 18.4239 436.652 17.0257 436.613 14.38C436.577 11.985 436.467 7.88774 436.366 5.275C436.198 0.942105 436.177 1.32493 436.131 9.62961C436.102 14.6374 435.984 18.8859 435.866 19.0708C435.583 19.5172 434.86 18.7315 434.707 17.8109C434.592 17.1212 434.604 17.1079 434.067 18.5367C433.945 18.8625 433.797 18.6093 433.565 17.679L433.236 16.3594L433.211 17.8037C433.187 19.1104 433.152 19.1983 432.822 18.7273C432.622 18.4411 432.398 17.9693 432.325 17.679C432.252 17.3887 432.178 17.6545 432.162 18.2728C432.145 18.8897 432.013 19.3943 431.867 19.3943C431.722 19.3943 431.604 19.2688 431.604 19.1151C431.604 18.9613 431.485 18.9091 431.34 18.9988C431.177 19.0995 431.058 18.5731 431.029 17.6289C430.982 16.1288 430.979 16.1228 430.882 17.3496C430.813 18.2213 430.667 18.6032 430.402 18.6032C430.085 18.6032 430.013 17.7725 429.974 13.6548L429.927 8.70644L429.742 13.3249C429.64 15.8651 429.543 18.1116 429.525 18.3173C429.471 18.9373 429.159 18.409 428.954 17.3525C428.769 16.3951 428.76 16.4113 428.701 17.8114C428.668 18.6098 428.582 19.0379 428.512 18.7628C428.42 18.4044 428.326 18.3555 428.181 18.5908C427.971 18.9308 427.427 14.3193 427.296 11.0814C427.255 10.0654 427.184 11.0733 427.138 13.3247C427.093 15.5746 426.976 17.7717 426.878 18.2071L426.7 18.9988L426.343 18.3502C426.074 17.8639 425.94 15.5841 425.804 9.24511L425.623 0.788792L425.579 9.41042C425.554 14.1523 425.462 18.2199 425.374 18.4495C425.134 19.0757 424.483 18.9518 424.449 18.2729C424.424 17.7697 424.398 17.7555 424.29 18.1796C424.187 18.5816 424.116 18.6073 423.929 18.3117C423.747 18.025 423.695 18.0568 423.692 18.456C423.688 18.9631 423.683 18.9631 423.3 18.456C422.918 17.9504 422.912 17.9505 422.862 18.4723C422.833 18.7626 422.73 18.3467 422.632 17.5486L422.455 16.097L422.411 17.6146C422.387 18.4492 422.279 19.1303 422.171 19.1281C421.832 19.1199 421.399 18.7537 421.242 18.3403C421.136 18.0623 421.085 18.1083 421.07 18.4965C421.05 19.0168 420.917 19.0454 418.741 18.9967C415.897 18.9331 416.038 18.964 416.028 18.4065C416.02 17.9667 416.008 17.9667 415.752 18.4065C415.375 19.0531 414.776 18.982 414.64 18.2744C414.561 17.8646 414.514 17.9584 414.489 18.5769L414.453 19.4732L413.817 18.7869C413.31 18.2405 413.15 18.1807 413.03 18.4937C412.897 18.8399 412.784 18.8378 412.083 18.4733C411.464 18.1532 411.279 17.8719 411.251 17.2105C411.222 16.5195 411.192 16.4791 411.095 16.996C411.002 17.4885 410.921 17.5483 410.739 17.2598C410.572 16.9964 410.493 17.1574 410.468 17.8108L410.431 18.7345L410.23 17.9428L410.028 17.1511L409.996 17.8924C409.975 18.3169 409.851 18.5635 409.699 18.4694C409.552 18.3789 409.362 18.4898 409.275 18.7177C408.939 19.5936 408.666 19.0578 408.577 17.3489L408.485 15.5675L408.433 17.4809C408.384 19.2715 408.051 19.9507 407.686 18.9999C407.603 18.783 407.428 18.6713 407.298 18.7516C407.168 18.8319 407.062 18.7639 407.062 18.6024C407.062 18.4401 406.951 18.3761 406.815 18.4605C406.678 18.5445 406.52 18.1657 406.463 17.6183C406.365 16.6712 406.357 16.682 406.315 17.8401C406.274 18.9874 406.233 19.0499 405.611 18.931C405.239 18.8597 404.944 18.6171 404.935 18.3738C404.927 18.1067 404.816 18.1935 404.651 18.6025L404.383 19.2623L404.05 18.4706C403.73 17.7085 403.711 17.7008 403.528 18.2651C403.366 18.766 403.265 18.8057 402.835 18.5374C402.423 18.2797 402.317 17.8434 402.245 16.1037C402.157 13.9857 402.157 13.9863 402.066 16.7549C401.996 18.8804 401.931 19.28 401.786 18.4703C401.634 17.6218 401.59 17.5601 401.56 18.1559C401.496 19.4244 400.995 18.6501 400.995 17.2826C400.995 16.574 400.876 15.9208 400.731 15.8311C400.565 15.7288 400.467 16.3185 400.467 17.4179C400.467 19.0739 400.435 19.1646 399.874 19.1096C399.547 19.077 399.064 19.1423 398.8 19.2577C398.369 19.4432 397.963 19.3282 396.51 18.6089C396.174 18.4425 396.093 17.0622 395.977 9.46847L395.839 0.523997L395.779 9.79872C395.725 17.9765 395.669 19.0923 395.301 19.2336C394.689 19.4684 393.66 19.4289 393.497 19.1643C393.34 18.9098 389.942 18.993 388.773 19.2797C388.331 19.3881 387.777 19.3278 387.41 19.1309C387.04 18.9331 386.436 18.8679 385.912 18.969C385.428 19.0619 384.884 19.1272 384.703 19.1141C383.344 19.0134 382.243 19.0464 381.343 19.2144C380.71 19.3327 379.79 19.2821 379.032 19.0876C378.058 18.8377 377.702 18.836 377.458 19.0795C377.094 19.444 375.502 19.5042 375.29 19.1614C375.054 18.7789 373.786 18.6414 373.005 18.9139C372.518 19.0835 372.101 19.0754 371.754 18.8895C371.362 18.6795 371.201 18.6987 371.098 18.9674C370.853 19.6045 369.568 19.6503 368.757 19.0509C368.245 18.6717 367.927 18.5847 367.739 18.7721C367.578 18.9339 366.544 19.0036 365.191 18.9441C363.641 18.8756 362.855 18.9423 362.725 19.1521C362.202 19.999 361.944 18.9087 361.891 15.6169L361.835 12.1356L361.75 15.1148C361.699 16.945 361.568 18.0331 361.411 17.9362C361.269 17.8486 361.156 18.1201 361.156 18.5493C361.156 19.2356 361.081 19.3057 360.475 19.1897C359.625 19.027 359.578 18.9003 359.325 16.0485L359.119 13.7191L359.082 16.2892C359.045 18.7789 359.027 18.8583 358.452 18.8246C357.686 18.7797 357.112 18.9338 356.889 19.2442C356.782 19.3922 356.561 19.367 356.337 19.1806C356.131 19.0098 355.878 18.9547 355.775 19.0579C355.254 19.5786 355.091 17.8483 355.032 11.2118L354.969 3.9542L354.824 11.4758C354.745 15.6126 354.639 18.5816 354.589 18.0735L354.498 17.1499L354.297 17.9416C354.137 18.5676 354.08 18.3465 354.02 16.886L353.944 15.0386L353.769 16.622C353.613 18.0381 353.586 18.0939 353.513 17.1499L353.431 16.0942L353.242 17.1499C353.138 17.7305 353.036 17.9977 353.016 17.7437C352.995 17.4897 352.86 17.2818 352.715 17.2818C352.569 17.2818 352.439 17.0148 352.424 16.688C352.4 16.1184 352.388 16.121 352.187 16.7541C351.977 17.4087 351.975 17.4077 351.907 16.622C351.859 16.0528 351.794 16.2011 351.679 17.1498L351.519 18.4694L351.278 16.49L351.037 14.5106L350.844 16.4596C350.661 18.3097 350.196 19.2229 349.78 18.5491C349.671 18.3733 349.552 18.4557 349.474 18.7611C349.403 19.0363 349.332 18.4835 349.315 17.5326C349.299 16.5819 349.169 15.689 349.029 15.5484C348.888 15.4077 348.736 13.7512 348.69 11.8669L348.608 8.44083L348.49 12.6635C348.389 16.294 348.353 15.7388 348.229 8.7047L348.086 0.523438L347.981 9.10058C347.922 13.9571 347.801 16.9909 347.702 16.0943C347.605 15.2234 347.484 14.7484 347.432 15.0387C347.38 15.329 347.264 14.4383 347.174 13.0593L347.011 10.5521L346.961 13.2384C346.924 15.2218 346.806 16.0283 346.514 16.3205C346.297 16.5383 346.11 16.9327 346.1 17.1971C346.084 17.6298 346.059 17.6251 345.855 17.1502C345.645 16.6614 345.624 16.6711 345.572 17.2823C345.531 17.7573 345.463 17.6464 345.327 16.8864L345.138 15.8308L345.092 16.8864C345.067 17.467 344.879 18.239 344.677 18.6018L344.309 19.2616L344.043 18.6018C343.815 18.0336 343.774 18.0153 343.75 18.4697C343.73 18.8785 343.608 18.7894 343.217 18.0738C342.741 17.2052 342.71 17.1894 342.688 17.8099C342.664 18.4563 342.66 18.4536 342.303 17.6778C341.941 16.8863 341.94 16.8863 341.859 17.5458C341.814 17.9087 341.713 14.5834 341.634 10.1562L341.49 2.10679L341.43 9.87027C341.397 14.1402 341.285 17.5492 341.182 17.4458C341.079 17.3427 340.92 15.9272 340.829 14.3008L340.664 11.3438L340.621 14.6295C340.593 16.6885 340.486 17.8216 340.33 17.6645C340.193 17.5267 340.037 16.7606 339.983 15.9623C339.905 14.8108 339.866 15.0017 339.796 16.886C339.721 18.9131 339.681 19.0871 339.527 18.0735L339.347 16.886L339.142 17.7243C338.79 19.1664 338.239 18.5137 338.135 16.5323L338.044 14.7747L337.992 16.864C337.963 18.0131 337.851 18.8648 337.742 18.7566C337.634 18.6486 337.477 17.4113 337.394 16.0075L337.243 13.4551L337.187 16.4901L337.131 19.5251L336.613 18.9021C336.327 18.5596 336.094 18.4151 336.094 18.5815C336.094 18.8021 335.951 18.8075 335.566 18.602C335.208 18.4103 335.037 18.0466 335.034 17.471C335.031 16.8262 334.969 16.7176 334.775 17.0185C334.634 17.2362 334.517 17.7479 334.515 18.1557C334.511 18.5634 334.4 18.8287 334.265 18.7452C334.13 18.6616 333.948 18.7085 333.861 18.85C333.549 19.3555 332.927 18.7962 332.895 17.9799L332.862 17.1504L332.584 18.1429C332.351 18.9755 332.219 19.1088 331.76 18.9709C331.46 18.8804 331.116 18.7157 330.996 18.6048C330.876 18.4938 330.702 16.993 330.609 15.2695C330.465 12.5856 330.415 12.3253 330.257 13.4554C330.156 14.1812 330.062 15.3888 330.05 16.1389C330.038 16.8891 329.938 17.7205 329.829 17.9864C329.72 18.2522 329.569 15.2632 329.493 11.3441L329.354 4.21843L329.294 11.3945C329.241 17.8842 329.067 19.656 328.603 18.4467C328.515 18.2179 328.416 14.8636 328.383 10.9927L328.321 3.95451L328.246 10.4863C328.199 14.5364 328.072 17.0182 327.911 17.0182C327.769 17.0182 327.652 17.4183 327.652 17.9074C327.652 18.7303 327.578 18.8086 326.663 18.9577C326.098 19.0499 325.635 19.0071 325.585 18.8587C325.536 18.7155 325.388 18.6654 325.255 18.7477C325.122 18.8297 325.004 18.4444 324.993 17.8917C324.969 16.7731 324.881 16.9066 324.61 18.4699C324.436 19.4715 324.414 19.4921 324.179 18.8719C323.981 18.3496 323.884 18.2952 323.695 18.6004C323.566 18.8104 323.414 18.9261 323.357 18.858C322.415 17.7078 322.375 17.4406 322.335 12.0112L322.294 6.59368L322.073 12.6637C321.952 16.0022 321.778 18.9118 321.688 19.1296C321.573 19.4073 321.381 19.2099 321.046 18.4698C320.783 17.8892 320.559 17.5626 320.548 17.744C320.536 17.9255 320.41 18.0739 320.265 18.0739C320.12 18.0739 319.982 17.3911 319.959 16.5565C319.93 15.4933 319.883 15.3153 319.805 15.9622L319.694 16.8855L319.329 16.2261L318.964 15.5668L318.956 16.3915C318.944 17.601 318.651 18.8656 318.386 18.8656C318.259 18.8656 318.141 18.5986 318.124 18.2718C318.099 17.7918 318.054 17.8297 317.891 18.4696C317.78 18.9051 317.675 19.1087 317.658 18.9222C317.634 18.6694 317.497 18.6527 317.117 18.8562C316.354 19.2643 316.308 19.2194 316.308 18.0737C316.308 17.493 316.189 17.018 316.044 17.018C315.899 17.018 315.78 17.4337 315.78 17.9418C315.78 18.4498 315.731 18.8654 315.67 18.8654C315.227 18.8654 314.72 18.4724 314.699 18.1114C314.682 17.8578 314.584 17.952 314.461 18.3377C314.317 18.7886 314.227 18.2036 314.179 16.4903C314.139 15.1114 314.07 14.4582 314.022 15.0388C313.775 18.0509 313.602 18.9932 313.391 18.4697C313.189 17.9663 313.178 17.9653 313.16 18.4493C313.124 19.4632 312.794 18.5696 312.611 16.958L312.423 15.3043L312.386 17.0066C312.362 18.1252 312.261 18.6196 312.09 18.4487C311.933 18.2917 311.801 14.7955 311.756 9.62078L311.683 1.05296L311.617 10.0261C311.573 15.939 311.464 18.8641 311.295 18.6033C311.124 18.3395 311.038 18.3174 311.035 18.5372C311.031 18.7186 310.866 18.8671 310.665 18.8671C310.243 18.8671 310.012 17.9515 309.734 15.1723L309.535 13.193L309.492 15.604C309.444 18.2587 308.994 19.6952 308.456 18.9098C308.207 18.5457 308.114 18.533 307.908 18.8348C307.429 19.5379 307.073 18.8185 307.036 17.0699L307 15.3042L306.832 16.6832C306.74 17.4417 306.519 18.2077 306.342 18.3854C306.164 18.5632 306.018 18.9224 306.018 19.1837C306.018 19.6236 305.978 19.6196 305.491 19.1307C305.201 18.8404 304.963 18.4115 304.963 18.1778C304.963 17.8528 304.839 17.8996 304.436 18.3755C303.944 18.9557 303.884 18.9674 303.555 18.5447C303.227 18.1236 303.162 18.1398 302.657 18.7678C302.122 19.4334 302.11 19.4354 301.936 18.888C301.839 18.5818 301.649 18.3992 301.514 18.4823C301.38 18.5655 301.252 18.2406 301.23 17.7604L301.189 16.8871L301.08 17.6788C300.938 18.7146 300.29 19.2453 299.785 18.74C299.585 18.5398 299.413 18.16 299.403 17.8956C299.391 17.5229 299.317 17.5629 299.081 18.0746C298.773 18.7416 298.398 19.1189 298.036 19.1263C297.927 19.1281 297.836 15.1815 297.834 10.3551C297.831 5.52882 297.73 1.42268 297.608 1.23034C297.485 1.03504 297.324 4.6441 297.244 9.4116C297.166 14.1037 297.018 18.1505 296.914 18.4045C296.811 18.6586 296.509 18.8664 296.242 18.8664C295.976 18.8664 295.672 19.007 295.566 19.1787C295.097 19.9363 294.972 17.9574 294.95 9.4974C294.934 3.6 294.84 0.660013 294.672 0.920194C294.52 1.15505 294.414 4.8856 294.412 10.1028C294.409 16.9902 294.337 18.875 294.079 18.8226C293.897 18.7859 293.471 18.909 293.133 19.0961C292.794 19.2833 292.444 19.364 292.355 19.2751C292.098 19.0183 291.814 13.6853 291.728 7.51804C291.653 2.09047 291.643 2.21667 291.512 10.4211L291.374 18.9983L289.923 18.9356C288.915 18.8919 288.371 18.7354 288.142 18.4233C287.837 18.0073 287.811 18.012 287.794 18.486C287.773 18.9825 287.769 18.982 287.548 18.4697C287.351 18.0098 287.315 18.0438 287.272 18.7335L287.222 19.5253L287.021 18.7335C286.91 18.2981 286.805 18.1357 286.788 18.3727C286.772 18.6096 286.53 18.8632 286.252 18.9359C285.557 19.1177 285.454 18.5873 285.396 14.5108L285.347 11.0799L285.188 15.0891C285.1 17.2941 284.943 19.1843 284.837 19.2896C284.732 19.3948 284.646 19.105 284.646 18.6454C284.646 18.1857 284.531 17.8097 284.392 17.8097C284.253 17.8097 284.099 16.7705 284.05 15.5004C283.964 13.2445 283.961 13.2592 283.908 16.1369L283.854 19.0828L283.176 19.0082C282.803 18.967 282.392 18.8279 282.262 18.6983C282.133 18.5686 281.988 17.2173 281.941 15.6949L281.855 12.9272L281.799 16.0281C281.753 18.5839 281.674 19.1291 281.347 19.1291C281.13 19.1291 280.942 18.9807 280.931 18.7992C280.915 18.5517 280.875 18.5558 280.772 18.8155C280.664 19.0842 280.522 19.0606 280.133 18.7087C279.737 18.3503 279.627 18.3332 279.606 18.6268C279.59 18.8307 279.485 18.7006 279.369 18.3377C279.219 17.8703 279.15 17.8171 279.131 18.1554C279.115 18.418 278.986 18.5594 278.841 18.4697C278.696 18.38 278.577 18.5509 278.577 18.8502C278.577 19.6619 277.444 19.5752 276.991 18.7287C276.733 18.2456 276.577 18.1554 276.423 18.3988C276.306 18.5831 276.186 16.4773 276.155 13.7194L276.1 8.70507L275.931 13.3235C275.838 15.8637 275.72 18.0014 275.667 18.074C275.614 18.1466 275.499 16.959 275.411 15.4349L275.25 12.6637L275.199 15.8392L275.147 19.0145L274.487 19.0691C274.124 19.0977 273.828 18.9917 273.828 18.8306C273.828 18.6157 273.733 18.6157 273.475 18.8299C272.963 19.2547 270.165 19.2821 267.166 18.8915C267.057 18.8752 266.946 18.1829 266.919 17.3482L266.87 15.8308L266.772 17.2645C266.706 18.2121 266.522 18.8133 266.227 19.0375C265.738 19.409 264.271 19.5111 263.956 19.1958C263.847 19.0869 263.649 18.9829 263.516 18.9649C263.383 18.9445 263.155 18.9172 263.01 18.8989C262.865 18.8785 262.728 18.2424 262.705 17.4804L262.663 16.0948L262.507 17.4144C262.366 18.6042 262.286 18.734 261.691 18.734C261.328 18.734 260.957 18.8363 260.866 18.9614C260.548 19.3985 258.954 19.3582 258.609 18.9044C258.403 18.6341 258.275 18.5925 258.27 18.7947C258.266 18.9998 257.966 19.085 257.459 19.0259C256.574 18.9227 256.612 18.9476 256.198 18.2059L255.903 17.678L255.87 18.2059C255.842 18.6484 255.802 18.627 255.625 18.0738L255.414 17.414L255.389 18.1242C255.349 19.1781 254.842 19.319 254.801 18.2873L254.764 17.414L254.599 18.3377C254.505 18.8663 254.352 19.1336 254.241 18.9626C253.99 18.5728 252.074 18.5521 251.18 18.93C250.299 19.3023 249.556 19.3853 249.556 19.1115C249.556 18.6364 248.449 18.5674 247.958 19.0116C247.498 19.4276 247.271 19.4382 245.457 19.1278C243.954 18.8705 243.387 18.8611 243.159 19.0911C242.786 19.4638 240.942 19.4939 240.718 19.1319C240.628 18.9867 240.325 18.8681 240.043 18.8681C239.556 18.8681 239.528 18.6202 239.471 13.7877L239.411 8.70743L239.333 13.7019C239.259 18.4076 239.108 19.3959 238.461 19.3959C238.343 19.3959 238.167 19.1427 238.069 18.8332C237.928 18.3912 237.84 18.3487 237.659 18.6354C237.518 18.8585 237.408 17.8214 237.377 15.9651C237.332 13.2237 237.312 13.1089 237.17 14.7776L237.012 16.625L236.799 15.3054C236.479 13.3185 236.411 13.2988 236.348 15.1733C236.294 16.7509 236.274 16.804 236.101 15.8331C235.983 15.1724 235.898 15.0162 235.875 15.4156C235.802 16.6562 235.226 19.5233 235.114 19.198C235.052 19.0165 234.834 18.8681 234.628 18.8681C234.406 18.8681 234.238 18.5742 234.215 18.1424L234.174 17.4166L234.063 18.1468C233.875 19.3908 233.461 18.6534 233.459 17.0711C233.458 16.2451 233.369 14.7379 233.262 13.7219C233.075 11.9635 233.06 12.0462 232.934 15.4372C232.816 18.6228 232.753 18.9962 232.34 18.9634C232.086 18.943 231.879 19.0221 231.879 19.1383C231.879 19.2545 231.52 19.2146 231.082 19.049C230.472 18.8191 230.162 18.8244 229.766 19.0735C229.075 19.505 228.058 19.4843 227.682 19.0311C227.469 18.7751 227.123 18.7221 226.528 18.855C226.061 18.9598 225.247 18.9944 224.72 18.932C224.187 18.8692 223.683 18.9483 223.583 19.1082C223.323 19.5289 222.483 19.4621 222.004 18.9826C221.627 18.6054 221.588 18.6116 221.571 19.0487C221.555 19.4466 221.504 19.4254 221.262 18.9247C221.101 18.5891 220.815 18.3799 220.621 18.4546C220.386 18.5447 220.26 18.3522 220.239 17.8717L220.206 17.1542L220.005 17.9459C219.841 18.5877 219.789 18.4127 219.731 17.0222L219.658 15.3068L219.477 16.6264L219.296 17.9459L219.208 16.4944L219.12 15.0428L218.949 16.8902C218.829 18.1924 218.762 18.4261 218.722 17.682L218.665 16.6264L218.279 17.5143C218.067 18.0028 217.894 18.6444 217.894 18.9403C217.894 19.458 217.874 19.4554 217.366 18.8698C217.076 18.535 216.823 18.3684 216.804 18.4995C216.784 18.6304 216.682 18.3222 216.575 17.8142L216.38 16.8904L216.348 17.733C216.319 18.4254 216.219 18.5574 215.785 18.4739C215.495 18.4181 215.258 18.4658 215.258 18.5771C215.258 18.6896 215.08 18.7818 214.862 18.7818C214.545 18.7818 214.456 18.3314 214.415 16.5165L214.364 14.2513L214.202 16.8904C214.114 18.3419 214.008 19.1139 213.969 18.6058C213.928 18.0978 213.837 17.8306 213.764 18.012C213.69 18.1935 213.41 18.3419 213.14 18.3419C212.755 18.3419 212.628 18.1013 212.549 17.2202C212.454 16.1679 212.444 16.1883 212.381 17.5501C212.344 18.3484 212.252 18.8469 212.176 18.6578C212.073 18.3997 211.953 18.4306 211.697 18.7809C211.343 19.2659 211.358 19.362 210.946 14.2514C210.897 13.6439 210.842 13.9521 210.817 14.9771C210.792 15.9592 210.654 16.7585 210.509 16.7585C210.363 16.7585 210.233 17.0852 210.218 17.4843L210.194 18.2101L209.994 17.5502C209.804 16.9247 209.788 16.9373 209.69 17.7905C209.62 18.3973 209.436 18.7121 209.125 18.7568C208.735 18.8126 208.658 18.5916 208.632 17.3289C208.576 14.6392 208.204 13.9973 208.148 16.4945C208.116 17.9644 208.024 18.5558 207.881 18.2099C207.674 17.707 207.65 17.7133 207.388 18.342C207.237 18.7049 207.106 18.8335 207.097 18.6278C207.089 18.4223 207.002 18.3322 206.907 18.4276C206.811 18.523 206.574 18.4692 206.379 18.3074C206.105 18.0798 206.02 18.1247 206.004 18.5076C205.992 18.7857 205.925 18.8574 205.85 18.6719C205.632 18.1324 205.235 18.2968 205.212 18.9357C205.191 19.4307 205.119 19.3759 204.76 18.6058L204.331 17.6821L204.237 18.4078C204.156 19.0346 204.073 19.0963 203.632 18.8604C203.255 18.6582 203.122 18.6728 203.122 18.9171C203.122 19.1307 202.96 19.0842 202.661 18.7854C202.245 18.3705 202.185 17.439 202.057 9.55781L201.915 0.791716L201.823 10.2926C201.772 15.5181 201.681 19.5329 201.619 19.2143C201.553 18.8759 201.365 18.6893 201.166 18.7656C200.969 18.841 200.646 18.5295 200.397 18.0252L199.968 17.1544L199.94 18.078C199.923 18.586 199.853 18.8533 199.78 18.6718C199.568 18.147 199.163 18.2894 199.163 18.8888C199.163 19.3741 199.119 19.3912 198.768 19.0405C198.551 18.8231 198.255 18.3326 198.109 17.95C197.82 17.1881 197.316 17.2792 197.316 18.0936C197.316 18.7036 197.102 18.7261 196.393 18.1906C195.903 17.8196 195.853 17.361 195.678 11.567C195.574 8.14311 195.425 5.27799 195.347 5.20002C195.27 5.12215 195.19 8.3144 195.17 12.294C195.138 19.1349 195.117 19.4072 194.81 17.2863L194.486 15.043L194.449 16.972C194.425 18.1826 194.315 18.8402 194.149 18.7378C193.997 18.6436 193.862 16.9347 193.83 14.6976L193.775 10.8204L193.622 14.9111C193.538 17.161 193.442 18.8237 193.41 18.6059C193.359 18.2663 193.316 18.2638 193.111 18.5855C192.98 18.7935 192.328 19.0089 191.663 19.0647C190.383 19.172 189.82 18.8605 189.603 17.9251C189.501 17.4821 189.461 17.5016 189.299 18.0755C189.12 18.7091 187.999 19.4886 187.699 19.1882C187.619 19.1087 187.542 18.6771 187.528 18.2295C187.503 17.4407 187.495 17.436 187.29 18.0754C187.172 18.4432 187.04 14.7663 186.992 9.76213L186.905 0.789041L186.768 9.76213C186.661 16.7419 186.557 18.7206 186.301 18.6693C186.119 18.6326 185.967 18.8111 185.963 19.0652C185.955 19.505 185.942 19.505 185.686 19.0651C185.538 18.8111 185.067 18.4221 184.639 18.2007C183.867 17.8015 183.86 17.8043 183.856 18.5305C183.852 19.1004 183.795 19.1752 183.596 18.8673C183.456 18.6496 183.325 18.1745 183.305 17.8117C183.269 17.1555 183.269 17.1559 183.104 17.8704C182.987 18.3746 182.835 18.5248 182.594 18.3743C182.346 18.2198 182.179 16.7278 181.995 13.0373C181.644 5.99406 181.583 5.69662 181.486 10.554C181.439 12.8765 181.339 14.361 181.263 13.8529C181.153 13.1216 181.059 13.4239 180.812 15.3045L180.5 17.6797L180.439 14.7767C180.366 11.3251 179.974 11.9247 179.921 15.5684C179.884 17.943 179.491 19.1331 178.865 18.7462C178.71 18.6508 178.583 18.6683 178.583 18.787C178.582 18.9044 177.93 19.0006 177.132 19.0006H175.682L175.641 17.945L175.6 16.8894L175.442 17.9738C175.308 18.8908 175.207 19.0312 174.79 18.8829C174.519 18.7867 173.72 18.7818 173.014 18.8707C172.264 18.967 171.62 18.9237 171.463 18.7663C171.281 18.5841 171.194 18.5963 171.194 18.803C171.194 19.1957 168.412 19.0297 167.902 18.6065C167.625 18.3761 167.507 18.4308 167.373 18.8516C167.155 19.5392 166.925 19.5361 166.491 18.8393C166.192 18.3616 166.102 18.3393 165.833 18.6758C165.424 19.1879 164.104 19.4854 163.707 19.1552C163.534 19.0121 163.16 18.9309 162.875 18.9746C162.589 19.0186 162.269 18.9224 162.162 18.7618C162.027 18.5575 161.967 18.5689 161.964 18.7984C161.96 19.275 161.181 19.2046 160.992 18.7104C160.863 18.374 160.788 18.3609 160.608 18.6443C160.45 18.8935 160.376 18.8038 160.355 18.3365L160.326 17.6767L160.142 18.3365C160.041 18.6994 159.785 18.9994 159.575 19.0033C159.364 19.007 159.045 19.1015 158.867 19.2132C158.689 19.325 158.314 19.2936 158.033 19.1436C157.753 18.9935 156.918 18.9184 156.177 18.9767C154.365 19.1191 154.06 18.7774 153.998 16.536L153.949 14.7735L153.8 17.0167C153.654 19.2256 153.641 19.2586 152.992 19.1683C152.629 19.1177 152.184 18.955 152.002 18.8062C151.806 18.6451 151.672 18.6378 151.672 18.7858C151.672 18.9244 151.198 19.0321 150.617 19.0255L149.562 19.0133L149.511 16.3647L149.46 13.7161L149.313 16.3552C149.177 18.8048 149.129 18.9886 148.639 18.9151C148.348 18.8715 147.963 18.8222 147.781 18.805C147.567 18.7846 147.435 18.2589 147.404 17.3008L147.356 15.8273L147.256 17.1468C147.142 18.6576 146.66 19.4463 146.66 18.1234C146.66 17.6589 146.541 17.2789 146.396 17.2789C146.251 17.2789 146.133 17.7538 146.133 18.3344C146.133 19.0777 146.02 19.3901 145.752 19.3901C145.543 19.3901 145.294 19.2641 145.199 19.11C145.104 18.9559 144.747 18.7235 144.405 18.5939C143.87 18.3904 143.772 18.147 143.689 16.8287C143.596 15.3327 143.593 15.3409 143.544 17.2047C143.503 18.7433 143.421 19.0817 143.113 18.9636C142.904 18.8833 142.68 18.6199 142.616 18.3781C142.532 18.0588 142.491 18.0931 142.469 18.5041C142.416 19.4837 141.124 19.6218 141.116 18.6484C141.112 18.3002 141.062 18.2802 140.887 18.5571C140.602 19.0064 136.629 19.4892 136.259 19.1195C135.891 18.7517 134.163 18.8006 133.774 19.1896C133.513 19.4505 133.399 19.4408 133.214 19.1407C133.024 18.8337 132.906 18.8259 132.577 19.0995C132.346 19.2911 132.026 19.3437 131.831 19.2226C131.34 18.9172 129.512 18.9446 129.507 19.2593C129.505 19.4045 129.388 19.3454 129.247 19.1273C129.106 18.9095 128.98 18.8499 128.967 18.9951C128.955 19.1403 128.783 18.8434 128.587 18.3353C128.235 17.4219 128.231 17.4199 128.211 18.1563C128.191 18.8182 128.147 18.8569 127.795 18.5049C127.512 18.2215 127.398 17.5236 127.396 16.0449C127.392 14.6147 127.313 14.1023 127.136 14.3766C126.966 14.6387 126.86 12.4111 126.82 7.77872L126.761 0.784997L126.619 9.28344C126.513 15.5702 126.39 17.8676 126.147 18.1114C125.965 18.2928 125.807 18.7437 125.796 19.1138C125.784 19.5266 125.716 19.6355 125.622 19.3955C125.354 18.7139 124.754 18.2692 124.102 18.2692C123.57 18.2692 123.454 18.1171 123.369 17.3125C123.28 16.476 123.261 16.5133 123.223 17.6093C123.186 18.6723 123.098 18.863 122.651 18.863C122.26 18.863 122.114 18.675 122.087 18.1372C122.054 17.5149 122.035 17.4961 121.937 18.0051C121.873 18.3317 121.712 18.5989 121.577 18.5989C121.437 18.5989 121.311 16.696 121.285 14.1783L121.238 9.75778L121.085 14.2013C120.947 18.1863 120.878 18.6833 120.421 19.0177C119.818 19.459 119.573 19.484 119.352 19.127C119.263 18.9818 118.908 18.8631 118.564 18.8631C118.125 18.8631 117.904 18.6858 117.824 18.2693C117.741 17.8399 117.699 17.913 117.673 18.5332C117.637 19.4043 117.209 19.6488 116.668 19.1078C116.467 18.9064 116.072 18.9092 115.298 19.1159C114.656 19.2888 114.02 19.3157 113.747 19.182C113.492 19.0572 112.928 19.0299 112.493 19.1217C112.057 19.213 111.443 19.1775 111.128 19.0417C110.759 18.8831 110.263 18.8974 109.733 19.0825C109.198 19.2689 108.684 19.2827 108.261 19.1233C107.904 18.9875 107.612 18.9704 107.612 19.0866C107.612 19.2015 106.929 19.2191 106.095 19.1273C105.26 19.0339 103.806 19.0087 102.863 19.0711C100.067 19.2566 96.3039 19.0833 95.7554 18.7445C95.6013 18.6491 95.4754 18.7118 95.4754 18.879C95.4754 19.0482 95.3009 19.12 95.0882 19.038C94.875 18.9565 94.6307 19.0014 94.5449 19.1416C94.2433 19.6297 93.8922 19.3863 93.8619 18.6682C93.8415 18.2217 93.7848 18.1201 93.7106 18.4044C93.6442 18.6584 93.4306 18.8663 93.2356 18.8663C93.0407 18.8663 92.8213 19.0147 92.7481 19.1961C92.6686 19.3931 92.6066 19.3401 92.594 19.064C92.5818 18.7554 92.3584 18.6021 91.9256 18.6021C91.3825 18.6021 91.2513 18.4424 91.1125 17.6125C90.8532 16.0621 90.7697 15.9981 90.7472 17.3332C90.7106 19.4431 90.2285 19.048 90.1312 16.8295L90.0411 14.7756L89.9881 16.8963C89.9396 18.8234 89.887 19.0171 89.4074 19.0171C89.1171 19.0171 88.8797 18.8646 88.8797 18.6779C88.8797 18.1931 88.4393 18.2582 88.2421 18.7721C87.8132 19.8903 87.6824 18.1657 87.5523 9.67354L87.412 0.524184L87.3542 9.8427C87.3175 15.9735 87.2062 19.1055 87.0325 18.9982C86.8874 18.9084 86.7688 18.4334 86.7688 17.9425C86.7688 17.4516 86.6502 16.9765 86.5051 16.8868C86.3457 16.7882 86.2414 17.1531 86.2414 17.8106C86.2414 18.4679 86.137 18.8329 85.9776 18.7342C85.8325 18.6445 85.7139 18.1554 85.7139 17.6474C85.7139 16.49 85.1986 16.7155 85.155 17.8921L85.1224 18.7342L84.921 17.9425L84.7197 17.1507L84.6871 18.0085C84.6708 18.4802 84.5371 18.884 84.392 18.9058C83.6248 19.0207 83.4772 18.9425 83.3089 18.3383L83.1254 17.6786L83.101 18.4044C83.0847 18.8481 82.9269 19.1301 82.6946 19.1301C82.2337 19.1301 81.9973 18.7762 81.7405 17.7016L81.5457 16.8868L81.5131 17.6786C81.4968 18.1141 81.3732 18.6423 81.2404 18.8524C80.9819 19.261 80.9925 19.2896 80.4716 16.7549L80.2274 15.5673L80.1989 17.2827L80.1703 18.9982L78.7193 19.0185C77.9212 19.0307 77.2683 18.9537 77.2683 18.8501C77.2683 18.7466 77.0616 18.6781 76.8091 18.6985C76.4805 18.7229 76.3026 18.4721 76.1842 17.8114L76.0183 16.8878L75.9816 17.8618C75.938 19.0872 75.5466 19.3597 75.1988 18.4068L74.9334 17.6795L74.913 18.5372C74.8886 19.585 74.5021 19.6511 74.1435 18.6693C73.9662 18.1831 73.8716 18.1011 73.8577 18.421C73.8455 18.6836 73.7273 18.8305 73.5928 18.7475C73.4587 18.6644 73.0345 18.7394 72.6505 18.9152C72.0787 19.1757 71.9086 19.1643 71.7113 18.8524C71.545 18.5894 71.4692 18.5735 71.4664 18.8014C71.4541 19.8327 69.3815 18.2664 69.3204 17.1794C69.3041 16.874 69.1737 17.1756 69.0331 17.8513C68.7897 19.0158 68.7318 19.0785 67.8945 19.0785C67.4093 19.0785 66.8965 19.1502 66.7548 19.2375C66.613 19.3252 66.3085 19.3244 66.0778 19.2356C65.7068 19.0933 65.6513 18.011 65.5992 9.93186L65.5405 0.789041L65.4016 9.57411C65.2842 16.9946 65.201 18.3971 64.8668 18.6037C64.5196 18.8186 64.4543 17.858 64.3334 10.7424L64.1961 2.63651L64.1357 10.7341C64.0766 18.7034 64.0669 18.8344 63.5213 19.0076C62.9021 19.2041 62.6047 18.9872 62.4168 18.2074C62.2974 17.7101 62.288 17.7123 62.2595 18.2441C62.2351 18.6747 62.0712 18.8009 61.5695 18.7719C61.2067 18.7515 60.91 18.6366 60.9099 18.5171C60.9098 18.398 60.7281 18.4804 60.5064 18.7038C60.0615 19.1488 59.3738 19.0141 58.865 18.3825C58.5768 18.0249 58.5353 18.0465 58.5353 18.5513C58.5353 19.123 58.1338 19.3577 57.9636 18.8857C57.9151 18.7515 57.6974 18.6031 57.4799 18.5558C57.2199 18.4995 57.0311 18.0179 56.9293 17.1505L56.7744 15.8309L56.7316 17.4804C56.699 18.7515 56.5979 19.1298 56.2929 19.1298C56.0752 19.1298 55.8971 18.9973 55.8971 18.8355C55.8971 18.6512 55.6647 18.6932 55.2753 18.9488C54.7114 19.3186 54.6132 19.3157 54.22 18.9243C53.9265 18.6307 53.7864 18.5977 53.7864 18.822C53.7864 19.2697 51.1494 19.0295 50.8481 18.5541C50.727 18.3637 50.6092 16.9013 50.5856 15.3047L50.5428 12.4016L50.3414 15.4063C50.1441 18.3531 49.968 18.8524 49.1226 18.8634C48.9518 18.8653 48.7578 18.6595 48.6915 18.4056C48.6055 18.0757 48.5533 18.132 48.5089 18.6038C48.4502 19.2312 48.4371 19.2248 48.2456 18.4717L48.0442 17.6799L48.0018 18.6036L47.9594 19.5273L47.4539 18.6036C47.1074 17.9705 46.9448 17.8341 46.9373 18.17C46.9291 18.495 46.793 18.6089 46.5305 18.508C46.3128 18.4244 46.1347 18.4795 46.1347 18.63C46.1347 18.7808 45.8681 18.866 45.5427 18.8195C45.1284 18.7604 44.9003 18.4978 44.7824 17.9435L44.6141 17.1517L44.5774 17.9435C44.5264 19.0908 44.1426 19.6068 43.923 18.8234C43.7706 18.2791 43.7196 18.2589 43.4882 18.6502C43.282 18.9988 43.0587 19.0449 42.4371 18.8667C41.8792 18.7064 41.6469 18.7313 41.644 18.9519C41.6421 19.1349 41.5344 19.1003 41.3844 18.8675C41.2437 18.6498 41.1231 18.5902 41.1161 18.7353C41.108 18.8805 40.9295 18.768 40.7163 18.487C40.3396 17.9889 40.329 17.9917 40.329 18.5837C40.329 19.0888 40.2178 19.1716 39.6787 19.0684C39.3208 18.9999 38.9913 19.0562 38.9461 19.1907C38.8988 19.3322 38.5576 19.2979 38.1453 19.11C37.4732 18.8037 37.4269 18.6745 37.4269 17.1094C37.4269 16.17 37.3111 15.4364 37.1631 15.4364C37.018 15.4364 36.8876 16.1193 36.8729 16.9539C36.8525 18.0999 36.7959 18.3099 36.6394 17.8116C36.4347 17.1606 36.4294 17.1633 36.2354 18.0163C36.0707 18.7417 35.9488 18.8538 35.4797 18.7125C35.172 18.6199 34.8417 18.4682 34.7454 18.3756C34.6492 18.2831 34.4605 15.7133 34.3258 12.6651L34.0813 7.12296L34.0393 11.1476C34.0148 13.6268 33.8958 15.1723 33.7331 15.1723C33.5807 15.1723 33.4694 16.008 33.4694 17.1517C33.4694 18.5944 33.3802 19.1131 33.1397 19.065C32.9583 19.0283 32.7365 18.6428 32.6468 18.2073C32.4935 17.464 32.4813 17.4787 32.4487 18.4491C32.4059 19.724 32.114 19.4996 31.8704 18.0044L31.6886 16.8876L31.656 17.8465C31.6315 18.5975 31.4974 18.8383 31.0431 18.9571C30.7243 19.0407 30.3086 18.9816 30.1197 18.8238C29.86 18.6081 29.7761 18.6501 29.7761 18.995C29.7761 19.3249 29.6481 19.3995 29.3144 19.2641C29.0604 19.1614 28.5323 18.9608 28.1407 18.819C27.5295 18.5976 27.4149 18.3866 27.3308 17.3284C27.2334 16.1007 27.233 16.1016 27.1853 17.5727L27.1376 19.0493L24.4333 19.0085L21.729 18.9677L21.5623 18.191C21.4001 17.4348 21.3948 17.4394 21.3646 18.3675C21.332 19.4169 21.5452 19.3655 18.827 18.9744C18.1015 18.87 17.4206 18.6543 17.3141 18.4952C17.1934 18.3154 17.1188 18.375 17.1159 18.6522C17.1119 19.2714 16.6909 19.4692 16.0786 19.1414C15.7945 18.9893 15.1688 18.8222 14.688 18.7704L13.814 18.6757L13.6652 16.4616L13.5164 14.2475L13.4671 16.7767C13.4263 18.827 13.3432 19.3059 13.0222 19.3059C12.8046 19.3059 12.6264 19.1982 12.6264 19.0665C12.6264 18.9348 12.4185 18.8712 12.1647 18.9246C11.9038 18.9797 11.5637 18.7872 11.3826 18.4821C11.0659 17.9485 11.0622 17.9484 11.0487 18.4699C11.0365 18.9082 10.9921 18.9305 10.7797 18.602C10.6391 18.3842 10.5184 17.5529 10.5119 16.7546C10.5038 15.6134 10.441 15.4046 10.2237 15.7779C10.0717 16.0393 9.88294 16.8788 9.80398 17.6438C9.66132 19.0241 9.65358 19.0346 8.76982 19.0163C8.27999 19.0081 7.87884 18.9086 7.87844 18.7997C7.87799 18.6909 7.75901 18.602 7.61389 18.602C7.46878 18.602 7.35016 18.7765 7.35016 18.9898C7.35016 19.5293 6.56347 19.1891 6.54084 18.6399C6.52861 18.3247 6.44464 18.3684 6.23676 18.8002C6.07942 19.1268 5.87276 19.394 5.77774 19.394C5.38357 19.394 4.71335 17.2708 4.52613 15.4295L4.32559 13.4559L4.02722 16.0951C3.75003 18.5464 3.72191 18.0957 3.63509 9.76114L3.54173 0.788108L3.38888 9.76114C3.30491 14.6963 3.21198 18.7602 3.18263 18.7919C2.96496 19.0259 2.33237 18.4368 2.31113 17.9802C2.28668 17.4621 2.26996 17.4683 2.1061 18.0548C1.83259 19.0339 1.33268 19.017 1.21044 18.0263C1.11913 17.2854 1.09631 17.3311 1.06085 18.3268C0.991147 20.2601 0.551562 19.2233 0.282819 16.4926C0.0627044 14.2559 0.036208 14.6261 0.0358004 19.9234C0.0353113 26.1303 0.0887906 26.4982 0.370455 22.2324C0.464615 20.804 0.646827 19.7247 0.77967 19.8068C0.911331 19.8879 1.02954 20.2742 1.04258 20.6648C1.06704 21.3402 1.07926 21.3325 1.3165 20.5078C1.48403 19.9274 1.67236 19.707 1.88632 19.8414C2.06201 19.9519 2.39613 20.0111 2.62831 19.9728C3.20953 19.8774 3.37804 22.1503 3.45406 31.1134L3.5148 38.2653L3.65216 29.2922C3.77771 21.0806 3.81032 20.5766 4.03941 23.3541L4.04396 23.3603Z" fill="black"/>
</svg>
