<svg width="1205" height="161" viewBox="0 0 1205 161" fill="none" xmlns="http://www.w3.org/2000/svg">
<path d="M1053.72 146.192C1053.71 138.543 1053.7 123.863 1053.7 113.57C1053.7 101.905 1053.44 94.855 1053.03 94.855C1052.64 94.855 1052.36 92.2038 1052.36 88.6249C1052.36 84.0027 1052.09 82.1289 1051.33 81.3646C1050.41 80.4489 1050.3 80.5307 1050.3 82.1004C1050.3 83.7618 1050.09 83.8664 1046.86 83.8664H1043.43V77.6854C1043.43 71.9622 1043.33 71.5043 1042.05 71.5043C1041.14 71.5043 1040.68 71.0465 1040.68 70.1308C1040.68 69.1235 1040.22 68.7572 1038.96 68.7572C1037.51 68.7572 1037.25 69.0777 1037.25 70.8176C1037.25 72.1139 1036.89 72.8779 1036.3 72.8779C1034.86 72.8779 1034.52 75.1353 1034.51 84.6448C1034.5 93.0583 1034.45 93.3338 1032.95 93.7353C1030.29 94.4494 1028.48 94.2086 1028.05 93.0819C1027.82 92.4844 1027.63 89.162 1027.62 85.6989C1027.61 82.2358 1027.38 79.7525 1027.1 80.1804C1026.83 80.6083 1024.28 81.2264 1021.45 81.5539C1016.91 82.0781 1016.27 82.3274 1016.09 83.6335C1015.9 84.9206 1015.36 85.1484 1012 85.3505C1009.87 85.4786 1006.79 85.475 1005.17 85.3425L1002.22 85.1017V80.6333C1002.22 76.8408 1002.05 76.2279 1001.13 76.5817C1000.53 76.811 998.831 76.9986 997.351 76.9986C994.669 76.9986 994.66 77.0083 994.66 79.7457V82.4928H991.225H987.791V78.4308V74.3686L982.467 73.8973C979.539 73.6381 976.246 72.9936 975.15 72.4652C974.053 71.9367 973.048 71.5043 972.917 71.5043C972.786 71.5043 972.679 73.5132 972.679 75.9684V80.4325H969.932C968.421 80.4325 967.184 80.7415 967.184 81.1193C967.184 81.497 965.639 81.8061 963.75 81.8061C961.093 81.8061 960.315 81.563 960.315 80.7324C960.315 79.9348 959.741 79.714 958.083 79.8739C955.906 80.0838 955.845 80.1786 955.643 83.6947L955.435 87.3003H952.036H948.638V79.7457V72.1911H946.921C945.679 72.1911 945.203 71.8221 945.203 70.8581C945.203 70.1249 944.894 69.334 944.517 69.1006C944.139 68.8671 943.83 69.1579 943.83 69.7468C943.83 70.3357 943.385 70.8175 942.841 70.8175C942.194 70.8175 941.778 71.7083 941.639 73.393C941.428 75.9436 941.394 75.9704 938.163 76.1777C935.261 76.3639 934.9 76.2307 934.9 74.9759C934.9 74.1997 934.591 73.5647 934.213 73.5647C933.781 73.5647 933.526 78.1432 933.526 85.9268C933.526 97.831 933.478 98.2889 932.152 98.2889C931.397 98.2889 930.779 98.5979 930.779 98.9756C930.779 99.3534 929.233 99.6624 927.344 99.6624H923.91V86.6135V73.5647H921.203C919.714 73.5647 918.323 73.2846 918.111 72.9424C917.899 72.6001 917.14 72.4733 916.424 72.6606C915.35 72.9413 915.038 72.5078 914.647 70.1923C913.987 66.2891 912.919 66.6757 912.919 70.8175V74.2515H910.172H907.424V78.3721V82.4928H903.99H900.555V77.3825C900.555 74.5718 900.246 72.0811 899.868 71.8477C899.49 71.6142 899.181 72.0596 899.181 72.8374C899.181 74.0555 898.753 74.2515 896.09 74.2515H892.999V79.0589C892.999 83.7291 892.951 83.8664 891.282 83.8664C889.679 83.8664 889.565 84.0954 889.565 87.3003V90.7342H886.131H882.696L882.69 84.7249C882.684 81.4197 882.454 77.4793 882.175 75.9684C881.759 73.7174 881.605 74.4618 881.324 80.0891L880.981 86.9569L877.718 87.1663C875.755 87.2922 874.455 87.0869 874.455 86.6512C874.455 86.2527 873.682 85.9268 872.738 85.9268C871.073 85.9268 871.021 85.7831 871.021 81.2147V76.5027L868.378 77.2078C864.26 78.3069 863.465 77.6655 863.465 73.2428C863.465 70.3239 863.226 69.444 862.435 69.444C861.61 69.444 861.404 70.4742 861.404 74.5948V79.7457H858.007H854.611L854.353 76.4835C854.212 74.6893 854.04 76.6981 853.972 80.9476L853.848 88.6739H850.414H846.979V81.8061C846.979 75.3961 846.888 74.9382 845.605 74.9382C844.384 74.9382 844.232 75.3961 844.232 79.0589V83.1797H840.797C837.439 83.1797 837.363 83.1339 837.363 81.1193C837.363 79.2274 837.169 79.0589 834.989 79.0589H832.615L832.413 74.0798C832.256 70.2014 831.983 69.1006 831.181 69.1006C830.334 69.1006 830.116 70.5411 829.957 77.1703L829.763 85.24H826.35H822.938V97.9455V110.651H819.503H816.069L815.988 104.298C815.945 100.804 815.976 97.4819 816.061 96.9153C816.146 96.3487 815.995 90.554 815.725 84.0381C815.27 73.046 815.141 72.1911 813.935 72.1911C812.724 72.1911 812.635 72.8245 812.635 81.4627V90.7343H809.2H805.766V87.0371C805.766 83.9174 805.551 83.2837 804.392 82.9807C803.154 82.6569 803.006 81.9886 802.895 76.2044C802.826 72.6751 802.656 71.2226 802.517 72.9768L802.263 76.1663L799.206 76.6245C796.386 77.0473 796.15 77.2389 796.15 79.101C796.15 80.8857 795.911 81.1193 794.089 81.1193C792.956 81.1193 792.028 81.4727 792.028 81.9047C792.028 82.4631 790.614 82.5587 787.134 82.2352C784.442 81.9851 781.969 81.6134 781.639 81.4093C781.308 81.2052 781.038 77.8114 781.038 73.8675C781.038 69.391 780.771 66.6968 780.329 66.6968C779.86 66.6968 779.635 71.9975 779.665 82.3211C779.696 90.9145 779.702 98.3317 779.69 98.8039C779.672 99.3731 778.509 99.6624 776.232 99.6624H772.797V85.5833C772.797 73.5265 772.649 71.5043 771.767 71.5043C771.2 71.5043 770.737 71.2381 770.737 70.9127C770.737 70.1763 767.419 70.76 766.908 71.5863C766.703 71.9189 765.007 72.1911 763.14 72.1911H759.746V75.9684V79.7457H756.312C752.969 79.7457 752.877 79.692 752.877 77.7259C752.877 76.615 752.568 75.515 752.191 75.2816C751.757 75.0139 751.504 76.648 751.504 79.7051V84.5532H748.069C746.18 84.5532 744.635 84.2441 744.635 83.8664C744.635 83.4887 744.204 83.1796 743.678 83.1796C742.311 83.1796 741.887 81.6212 741.887 76.599C741.887 72.6489 741.744 72.1911 740.513 72.1911C739.401 72.1911 739.14 72.6489 739.14 74.5948V76.9985H735.705C733.11 76.9985 732.271 76.7467 732.271 75.9684C732.271 75.2816 731.584 74.9382 730.21 74.9382H728.149V70.4525C728.149 67.0989 727.889 65.8672 727.119 65.5716C726.552 65.3542 726.084 64.6685 726.078 64.0479C726.072 63.0684 725.979 63.0554 725.402 63.9497C725.035 64.5163 724.731 68.0101 724.725 71.7136L724.713 78.4474L721.45 78.2381C718.463 78.0464 718.169 77.8697 717.97 76.1401C717.802 74.6706 717.391 74.2515 716.121 74.2515C714.692 74.2515 714.462 74.6145 714.278 77.1703L714.067 80.0891L710.804 80.2984L707.541 80.5078L707.461 76.8645C707.419 74.8607 707.24 73.7621 707.068 74.4232C706.835 75.3104 706.047 75.625 704.056 75.625H701.359V82.4928V89.3607H697.925H694.49V83.8664C694.49 77.5977 695.048 77.976 687.035 78.8134L682.813 79.2546V84.2641V89.2737L680.581 89.4889C678.12 89.726 678.204 89.3265 678.05 101.551L678.007 105.157H674.572H671.138L671.101 101.551C671.083 99.568 671.097 93.696 671.131 88.5022L671.198 79.0589H669.105H667.012V87.3003V95.5417H664.565C662.645 95.5417 662.144 95.801 662.24 96.7436C662.307 97.4046 662.327 100.959 662.282 104.642L662.203 111.338H658.769H655.334L655.304 104.642C655.285 100.959 655.3 93.3869 655.334 87.8154C655.395 78.0483 655.346 77.6854 653.993 77.6854C652.89 77.6854 652.588 77.2426 652.588 75.625C652.588 73.7282 652.397 73.5647 650.184 73.5647C648.862 73.5647 647.78 73.8737 647.78 74.2515C647.78 74.6292 647.316 74.9382 646.75 74.9382C645.906 74.9382 645.719 76.121 645.719 81.4627V87.9871H642.285H638.85V82.8362V77.6854H636.79C634.805 77.6854 634.729 77.7998 634.729 80.7759V83.8664H631.338C628.015 83.8664 627.943 83.8219 627.732 81.6344C627.53 79.5349 627.341 79.3897 624.565 79.1895L621.613 78.9767L621.721 88.8045L621.828 98.6322L618.319 98.8399L614.809 99.0474V83.9023V68.7572H613.092C612.024 68.7572 611.375 68.368 611.375 67.727C611.375 67.1604 610.911 66.6968 610.345 66.6968C609.778 66.6968 609.314 67.0059 609.314 67.3836C609.314 67.7613 608.85 68.0704 608.284 68.0704C607.449 68.0704 607.254 69.1769 607.254 73.9081V79.7457H603.222H599.19L598.765 82.3212C598.531 83.7376 598.336 85.901 598.332 87.1286C598.326 89.3124 598.258 89.3607 595.257 89.3607H592.19L591.994 82.3212L591.799 75.2816L589.566 75.0664C587.523 74.8694 587.334 74.6518 587.334 72.491C587.334 71.1929 587.025 70.1308 586.647 70.1308C586.269 70.1308 585.96 69.0059 585.96 67.631C585.96 66.0558 585.516 64.7939 584.758 64.219C582.718 62.6708 581.839 63.0948 581.839 65.6261C581.839 66.9259 581.53 68.1804 581.152 68.4138C580.774 68.6473 580.465 70.4983 580.465 72.5273C580.465 75.83 580.303 76.2393 578.919 76.4357C577.469 76.6417 577.362 77.0254 577.176 82.6646L576.977 88.6739H573.991H571.004L570.328 84.7249L569.651 80.7759L569.563 85.4117L569.475 90.0475H566.384H563.293L563.283 86.0985C563.269 79.7874 562.863 78.9502 559.941 79.1945L557.454 79.4024L557.309 88.6739C557.23 93.7733 557.153 99.7225 557.138 101.895L557.111 105.843H553.676H550.242V93.5575V81.2714L544.463 81.6319C538.784 81.9861 538.681 81.9643 538.453 80.361C538.096 77.8502 536.036 77.8734 535.482 80.3945C535.053 82.3488 534.812 82.4931 531.985 82.4931H528.946V79.0592C528.946 77.1705 528.637 75.6253 528.259 75.6253C527.873 75.6253 527.572 73.708 527.572 71.247C527.572 66.9318 527.543 66.8629 525.512 66.4567C524.036 66.1617 523.451 65.6497 523.451 64.6539C523.451 63.889 523.142 63.2632 522.764 63.2632C522.317 63.2632 522.077 73.9083 522.077 93.825V124.387H518.643H515.208L515.174 111.166C515.154 103.895 515.169 93.8508 515.207 88.8459L515.275 79.746H512.532H509.789L509.579 76.4838C509.398 73.6547 509.156 73.1912 507.755 72.9929C504.354 72.5117 502.942 73.3943 502.714 76.1431C502.503 78.6905 502.469 78.7179 499.238 78.9251L495.976 79.1345V71.9697C495.976 66.4389 495.741 64.61 494.945 63.95C494.053 63.2092 493.915 63.5589 493.915 66.5695C493.915 69.9875 493.879 70.0475 491.683 70.2592L489.45 70.4744L489.261 81.2088L489.073 91.9432L486.943 92.369C482.062 93.345 482.238 93.6237 482.238 84.8968V76.9988H480.49H478.743L478.805 87.4723C478.839 93.2326 478.852 100.65 478.835 103.955L478.804 109.964H475.369H471.935V102.41V94.8552H470.218C468.525 94.8552 468.499 94.7705 468.398 88.8458C468.341 85.5407 468.166 83.6864 468.008 84.7251C467.771 86.2913 467.378 86.6138 465.707 86.6138C464.599 86.6138 463.692 86.9228 463.692 87.3006C463.692 87.6783 462.337 87.9873 460.681 87.9873C457.069 87.9873 456.9 87.6069 456.717 79.0592C456.649 75.8485 456.471 74.3805 456.323 75.7969C456.062 78.2916 455.969 78.3724 453.347 78.3724C451.859 78.3724 450.641 78.6814 450.641 79.0592C450.641 79.4369 449.096 79.7459 447.207 79.7459H443.772V75.7004V71.6548L441.347 71.3717C439.287 71.1313 438.864 71.3211 438.534 72.6339C438.222 73.8778 437.59 74.2196 435.293 74.3871L432.439 74.5951L432.237 79.5742L432.035 84.5534H428.974C427.29 84.5534 425.913 84.2444 425.913 83.8666C425.913 83.4889 425.604 83.1798 425.226 83.1798C424.848 83.1798 424.537 84.1843 424.533 85.4119C424.53 86.6395 424.332 89.2665 424.094 91.2496L423.661 94.8552H420.731H417.802L417.311 87.6439C416.94 82.2065 416.586 80.4327 415.871 80.4327C415.172 80.4327 414.922 79.3712 414.922 76.3964V72.36L411.66 72.7183C409.865 72.9154 408.17 73.4182 407.892 73.8358C407.615 74.2534 407.383 76.2176 407.377 78.2007L407.367 81.8063H404.619H401.871V91.7646V101.723H398.437C395.335 101.723 395.002 101.573 394.997 100.178C394.993 99.3278 394.874 95.2329 394.73 91.0778C394.587 86.9228 394.435 81.4371 394.393 78.8875C394.306 73.64 393.326 72.7332 392.645 77.2703C392.176 80.4 391.275 81.0879 387.618 81.1101C386.312 81.118 386.073 81.4911 386.073 83.5232V85.927H382.639H379.204V81.8063V77.6856H376.84C375.54 77.6856 374.286 77.3765 374.052 76.9988C373.127 75.5017 372.335 76.4517 372.335 79.0591V81.8063H368.901C367.012 81.8063 365.466 81.4973 365.466 81.1195C365.466 80.7418 365.003 80.4327 364.436 80.4327C363.869 80.4327 363.406 80.1237 363.406 79.7459C363.406 79.3682 362.182 79.0591 360.687 79.0591H357.968L357.768 73.7366L357.567 68.414L355.335 68.1988C353.453 68.0174 353.087 67.6938 353.005 66.1385C352.861 63.3911 351.875 71.2381 351.796 75.7555L351.728 79.6631L349.153 79.8762L346.577 80.0893L346.383 88.159L346.19 96.2288H342.777H339.364L339.234 87.4723C339.163 82.6562 338.993 80.4928 338.857 82.6648L338.609 86.6138H335.209H331.808V80.2038C331.808 76.6783 331.636 73.6214 331.425 73.4107C331.215 73.1999 330.442 73.1845 329.708 73.3765C328.674 73.647 328.374 74.3296 328.374 76.416V79.1067L324.94 78.6511L321.505 78.1956V82.0614V85.9272H318.071H314.636V83.5234C314.636 82.2014 314.327 81.1197 313.949 81.1197C313.572 81.1197 313.262 79.4199 313.262 77.3424C313.262 74.0229 313.096 73.5651 311.889 73.5651C310.637 73.5651 310.515 74.0229 310.515 78.7159V83.8668H307.08H303.646V77.3424C303.646 70.8845 303.629 70.8179 301.971 70.8179C300.492 70.8179 300.244 70.4356 299.856 67.5557C299.21 62.7567 298.953 62.4824 298.892 66.5255C298.845 69.6552 298.656 70.1311 297.464 70.1311C296.177 70.1311 296.09 70.589 296.09 77.3424C296.09 81.692 295.818 84.5536 295.403 84.5536C295.016 84.5536 294.716 86.4995 294.716 89.0177V93.4818H291.282H287.847V83.5233V73.565H284.804C282.194 73.565 281.719 73.3449 281.463 72.0197C281.3 71.1698 281.124 72.5605 281.072 75.1102L280.979 79.746H277.544H274.11L274.099 73.0499C274.094 69.367 273.783 65.8902 273.41 65.3236C272.953 64.6309 272.739 69.8056 272.756 81.1196C272.769 90.374 272.771 99.7228 272.759 101.895L272.736 105.844H269.302H265.867L265.835 101.895C265.818 99.7228 265.83 93.31 265.862 87.644L265.92 77.3423L263.844 76.4313C259.671 74.5995 259.363 75.0991 259.148 84.0467L258.955 92.1081H255.542H252.129V86.2705V80.4328H249.725C247.779 80.4328 247.321 80.6944 247.321 81.8064C247.321 82.9949 246.863 83.1799 243.921 83.1799H240.521L240.315 79.2309C240.16 76.2701 239.851 75.2819 239.078 75.2819C238.306 75.2819 237.996 76.2701 237.842 79.2309L237.636 83.1799H235.266H232.896V86.9572V90.7345H229.462H226.027V85.2403C226.027 82.0353 225.741 79.746 225.34 79.746C224.963 79.746 224.653 79.2824 224.653 78.7158C224.653 78.1493 224.216 77.6857 223.68 77.6857C223.145 77.6857 222.551 77.2994 222.361 76.8272C222.17 76.355 221.99 77.9003 221.96 80.2611L221.906 84.5535H218.471H215.037V80.8497C215.037 78.1909 214.746 77.0343 214.007 76.7505C213.36 76.5024 212.976 75.4522 212.976 73.9299C212.976 71.616 212.866 71.5046 210.572 71.5046H208.168V79.0592V86.6138H204.734H201.299V81.1196V75.6253H199.238C197.258 75.6253 197.178 75.7444 197.178 78.6744C197.178 81.702 197.159 81.7249 194.602 81.9366C192.533 82.1078 191.983 82.4538 191.807 83.695C191.613 85.0589 191.19 85.2403 188.2 85.2403H184.814V79.4026C184.814 74.6715 184.618 73.565 183.783 73.565C182.948 73.565 182.753 74.6715 182.753 79.4026V85.2403H179.662C177.344 85.2403 176.571 84.9772 176.571 84.1886C176.571 83.6101 176.107 82.9589 175.541 82.7415C174.869 82.4838 174.51 81.4156 174.51 79.6725C174.51 78.202 174.201 76.9989 173.823 76.9989C173.446 76.9989 173.137 78.0619 173.137 79.3612C173.137 81.5952 172.997 81.735 170.561 81.9366C168.06 82.1435 167.979 82.2353 167.774 85.0686L167.562 87.9874H164.612H161.661L161.216 82.7211C160.971 79.8246 160.589 77.2749 160.367 77.0551C160.145 76.8353 157.364 76.7432 154.186 76.8505C148.43 77.0448 148.408 77.0391 148.408 75.3294C148.408 73.7506 146.764 72.1914 145.099 72.1914C144.741 72.1914 144.18 74.2775 143.852 76.8272L143.257 81.463L140.36 81.6731C137.749 81.8625 137.42 81.7102 137.023 80.1278C136.781 79.1624 136.307 78.3725 135.97 78.3725C135.633 78.3725 135.315 77.2135 135.264 75.797C135.208 74.2755 135.05 73.8393 134.877 74.731C134.633 75.9904 134.051 76.2748 131.365 76.448L128.145 76.6555L127.998 87.3007C127.917 93.1555 127.84 100.512 127.826 103.649L127.802 109.353L124.539 109.144L121.276 108.934L121.091 93.9968L120.906 79.0592H119.242C117.783 79.0592 117.545 78.6989 117.314 76.1404C117.17 74.535 116.997 76.8529 116.931 81.2913L116.811 89.361H113.377H109.942V86.2705C109.942 83.2944 109.866 83.1799 107.882 83.1799C105.906 83.1799 105.821 83.0559 105.821 80.1752C105.821 75.3566 105.108 72.7828 103.84 73.0243C103.229 73.1405 102.631 73.9278 102.511 74.7739C102.39 75.6199 102.003 76.3121 101.652 76.3121C101.3 76.3121 101.013 76.9302 101.013 77.6856C101.013 78.6929 100.555 79.0592 99.2956 79.0592C97.7183 79.0592 97.5784 79.311 97.5784 82.1497V85.2403H94.1729H90.7673L90.5332 79.9177C90.315 74.9571 90.2897 75.0739 90.1609 81.6347C90.0482 87.3727 89.8322 88.6742 88.9923 88.6742C88.1909 88.6742 87.962 89.5899 87.962 92.7949V96.9156H84.871C81.7963 96.9156 81.7799 96.9028 81.7799 94.5119C81.7799 92.1208 81.7635 92.1081 78.6889 92.1081H75.5979V85.2403V78.3724H73.8807C72.1701 78.3724 72.1635 78.3974 72.1635 84.8658V91.3591L69.7645 91.8091C66.5594 92.4103 65.2945 91.8206 65.2945 89.7259C65.2945 88.1233 65.0529 87.9874 62.2035 87.9874H59.1125V81.463C59.1125 74.9614 59.1064 74.9385 57.3953 74.9385C56.136 74.9385 55.6781 75.3048 55.6781 76.3121C55.6781 77.5025 55.2201 77.6857 52.2436 77.6857H48.8091V72.8782C48.8091 70.2341 48.5206 68.0707 48.1679 68.0707C47.8152 68.0707 47.3978 67.2208 47.2405 66.1821C47.0831 65.1433 46.908 67.3067 46.8514 70.9895L46.7484 77.6857H43.314H39.8795L39.8637 74.7669L39.8478 71.848L38.6915 74.2518C38.0555 75.5738 37.1353 76.9026 36.6465 77.2047C36.0482 77.5745 35.7578 79.4257 35.7578 82.8707V87.9874H32.7403C29.178 87.9874 28.8889 87.5156 28.8889 81.7024C28.8889 77.8307 28.7985 77.603 27.3434 77.8096C26.0245 77.9969 25.7671 78.5074 25.5885 81.2913L25.3791 84.5535H22.3257H19.2724L19.262 81.6347C19.2562 80.0293 18.9519 78.2523 18.5856 77.6857C18.0903 76.9194 17.9171 77.3152 17.9092 79.2309C17.9019 81.0577 17.5992 81.8064 16.8684 81.8064C16.0333 81.8064 15.8381 82.9129 15.8381 87.644V93.4817H12.747H9.65603V90.1336C9.65603 84.4283 9.02538 82.4932 7.16605 82.4932C5.64657 82.4932 5.53468 82.2341 5.53468 78.7158V74.9385H2.78711H0.0395508V50.9011C0.0395508 32.1385 0.227953 26.8598 0.898161 26.846C1.37042 26.8362 2.32317 25.6 3.01541 24.0989C4.16952 21.5961 4.49752 21.3695 6.96504 21.3695C8.89911 21.3695 9.65603 21.0797 9.65603 20.3393C9.65603 19.5609 10.4956 19.3091 13.0905 19.3091H16.5249V23.132C16.5249 26.8973 16.5536 26.9517 18.4139 26.7376C20.0539 26.549 20.331 26.1809 20.516 23.9449L20.7292 21.3695H24.1222C26.6802 21.3695 27.5152 21.623 27.5152 22.3996C27.5152 23.1768 28.3514 23.4298 30.9195 23.4298H34.3239L34.5257 18.4506L34.7275 13.4714L37.9903 13.2621L41.253 13.0528V18.2413V23.4298H43.6571C45.9468 23.4298 46.0612 23.5442 46.0612 25.8335C46.0612 27.7661 46.3261 28.2373 47.4125 28.2373C48.6647 28.2373 48.7781 28.804 48.9586 35.9636C49.1361 43.0026 49.207 43.3703 49.7548 40.0973C50.0855 38.1215 50.6262 36.6717 50.9562 36.8757C51.2863 37.0796 51.6166 36.0693 51.6902 34.6305C51.7638 33.1918 51.8899 31.2419 51.9705 30.2976C52.0511 29.3533 52.1454 24.9493 52.1802 20.5109L52.2433 12.4412H55.2609C58.9235 12.4412 59.0823 12.7547 59.2027 20.2237C59.2684 24.3041 59.4208 25.1782 59.7615 23.4298L60.2299 21.026L61.1551 22.9147C62.308 25.2681 63.2336 25.3445 63.2336 23.0864C63.2336 21.4839 63.4626 21.3695 66.6681 21.3695H70.1025L70.144 24.9751C70.2777 36.5852 70.44 38.1956 71.4762 38.1956C72.2348 38.1956 72.5613 37.2449 72.7142 34.59C72.9063 31.253 73.0503 30.9844 74.6463 30.9844C76.0404 30.9844 76.3296 30.6884 76.1559 29.4392C75.9545 27.9909 76.1888 27.8939 79.8919 27.8939H83.8428L83.8414 24.2883L83.8402 20.6827H87.2404H90.6406L90.8884 24.6317C91.0248 26.8036 91.1947 24.9493 91.2661 20.511L91.396 12.4413H94.8305H98.265V19.9397C98.265 24.0639 98.4526 27.927 98.6819 28.5245C99.0162 29.3957 100.241 29.6109 104.864 29.6109C108.035 29.6109 110.592 29.3791 110.548 29.0958C110.503 28.8125 110.503 27.84 110.548 26.9346C110.628 25.3069 110.687 25.2935 115.896 25.7338C118.793 25.9786 121.283 26.299 121.43 26.4457C121.924 26.9391 122.211 30.6002 122.259 36.9938C122.297 42.1618 122.498 43.3465 123.336 43.3465C124.023 43.3465 124.367 42.6597 124.367 41.2862C124.367 39.9126 124.71 39.2258 125.397 39.2258C126.176 39.2258 126.427 38.3864 126.427 35.7919C126.427 33.09 126.664 32.358 127.536 32.358C128.377 32.358 128.571 31.8606 128.342 30.2976L128.039 28.2373H131.698H135.357V31.6389V35.0404L138.724 34.6417C141.627 34.2979 142.141 34.4209 142.451 35.5325C142.648 36.2418 142.808 34.9677 142.805 32.7014C142.787 17.64 142.733 18.0475 144.802 17.8094C146.674 17.5941 146.693 17.5405 146.89 11.9262L147.09 6.26021H150.052H153.015L153.459 11.5147C153.703 14.4047 153.903 18.5984 153.903 20.8341C153.903 24.6521 153.997 24.8856 155.442 24.6794C156.714 24.4981 157.064 23.8809 157.456 21.1306C157.716 19.2995 158.028 17.7314 158.149 17.646C158.269 17.5606 159.836 17.6216 161.631 17.7823C163.83 17.9787 164.893 18.3871 164.893 19.0348C164.893 19.7302 165.843 19.9959 168.328 19.9959H171.762L171.823 24.2882C171.857 26.6491 171.836 30.0173 171.776 31.7732C171.716 33.529 171.998 35.1698 172.402 35.4193C172.891 35.7216 173.136 34.5207 173.136 31.8195C173.136 29.5901 173.338 24.009 173.585 19.4169L174.034 11.0677H176.931H179.828L180.311 17.2487C180.577 20.6483 181.081 23.4298 181.43 23.4298C181.779 23.4298 182.065 24.0479 182.065 24.8033C182.065 25.5588 182.35 26.1769 182.698 26.1769C183.045 26.1769 183.538 27.1259 183.793 28.2857C184.12 29.7736 184.557 30.2791 185.278 30.0027C185.84 29.7872 187.336 29.6108 188.603 29.6108C190.701 29.6108 190.927 29.4107 191.123 27.3788C191.32 25.341 191.563 25.1282 193.914 24.9336C195.599 24.7941 196.49 24.3785 196.49 23.7317C196.49 23.0792 197.308 22.7079 198.894 22.6399C200.216 22.5833 201.685 22.506 202.157 22.4683C202.629 22.4305 203.106 23.1739 203.217 24.1203C203.415 25.8197 203.486 25.8379 208.884 25.5928C214.062 25.3577 214.349 25.4208 214.349 26.791C214.349 27.5864 214.658 28.2373 215.036 28.2373C215.414 28.2373 215.723 26.692 215.723 24.8033V21.3694H219.158H222.592V24.8033C222.592 26.692 222.901 28.2373 223.279 28.2373C223.657 28.2373 223.966 27.6191 223.966 26.8637C223.966 25.948 224.424 25.4901 225.34 25.4901C226.561 25.4901 226.713 25.0322 226.713 21.3694V17.2487H229.117C230.44 17.2487 231.522 16.9397 231.522 16.5619C231.522 16.1842 233.067 15.8752 234.956 15.8752H238.39V18.5422C238.39 20.6316 238.688 21.287 239.764 21.5684C241.04 21.902 241.138 21.5897 241.138 17.1844V12.4412H244.139C247.074 12.4412 247.15 12.4985 247.566 15.0167C247.8 16.4332 247.995 20.4077 247.999 23.849C248.01 33.0766 248.593 36.4787 250.161 36.4787C251.31 36.4787 251.441 35.8789 251.441 30.641V24.8033H254.189C256.784 24.8033 256.937 24.6889 256.937 22.743C256.937 20.7284 257.013 20.6826 260.371 20.6826H263.805V25.1467C263.805 28.7471 264.014 29.6108 264.885 29.6108C265.479 29.6108 266.483 30.1304 267.117 30.7653C268.197 31.8463 268.282 31.3209 268.461 22.5239L268.652 13.128H272.043H275.433L275.629 19.8242L275.826 26.5203L278.574 26.8637C281.308 27.2054 281.322 27.2222 281.531 30.4693C281.707 33.2163 281.959 33.7315 283.129 33.7315C284.297 33.7315 284.498 33.3221 284.398 31.1561C284.077 24.2202 284.375 22.2261 285.786 21.8572C286.703 21.6176 287.16 20.9204 287.16 19.7624C287.16 18.3795 287.544 17.9825 289.049 17.8094L290.938 17.5921L291.135 11.2393L291.333 4.88659H294.741H298.15V12.9906C298.15 17.6594 298.451 21.3959 298.861 21.8054C299.252 22.1963 299.584 24.885 299.599 27.7804C299.621 31.8662 299.846 33.0447 300.606 33.0447C301.144 33.0447 301.585 33.3537 301.585 33.7315C301.585 34.1092 303.308 34.4183 305.414 34.4183H309.244L309.129 31.4994C308.945 26.8541 309.077 26.1769 310.171 26.1769C310.743 26.1769 311.201 25.5664 311.201 24.8033C311.201 23.6151 311.659 23.4297 314.593 23.4297H317.986L318.439 26.4532C318.958 29.9121 320.145 30.4619 325.694 29.8132L328.853 29.4439L329.293 32.1028C329.534 33.5652 329.735 36.1609 329.74 37.8712C329.745 40.1522 330.123 41.3028 331.159 42.1891L332.57 43.3975L332.492 35.989C332.449 31.9144 332.432 26.1854 332.454 23.258L332.495 17.9354H335.929H339.363V20.6091C339.363 23.4997 340.09 24.1165 343.495 24.1165C345.105 24.1165 345.505 24.4532 345.74 26.0052C345.898 27.0439 346.073 25.6918 346.129 23.0005C346.186 20.3091 346.426 17.1414 346.662 15.9609C347.072 13.9094 347.239 13.8147 350.44 13.8147H353.788V19.309V24.8033H356.879C359.78 24.8033 359.974 24.9197 360.026 26.6919C360.056 27.7307 360.147 29.6623 360.226 30.9843C360.305 32.3064 360.435 34.7015 360.514 36.3069C360.618 38.4351 360.948 39.2257 361.731 39.2257C362.621 39.2257 362.789 38.3119 362.713 33.9032C362.662 30.9758 362.643 28.2148 362.669 27.7677C362.696 27.3207 363.568 26.8571 364.606 26.7376L366.495 26.5202L366.839 14.8449L367.182 3.1696L370.417 2.96141L373.651 2.75323L373.851 8.45569C374.038 13.7758 374.155 14.1728 375.597 14.3776C377.075 14.5874 377.142 14.88 377.142 21.0737C377.142 27.0925 377.239 27.5504 378.516 27.5504C379.775 27.5504 379.89 27.0925 379.89 22.0561V16.5619H381.95C383.324 16.5619 384.011 16.2185 384.011 15.5317C384.011 14.7686 384.812 14.5015 387.102 14.5015C390.177 14.5015 390.193 14.5143 390.193 16.9053C390.193 19.2518 390.259 19.309 392.941 19.309H395.688V14.5016V9.69412H399.1H402.512L402.706 17.4204L402.901 25.1467L406.134 25.5185C409.916 25.9531 410.285 26.2229 410.285 28.552C410.285 29.9044 410.633 30.2976 411.83 30.2976C413.568 30.2976 414.234 28.2638 414.234 22.9629V19.9206L417.497 20.1299L420.76 20.3393L420.953 23.4298C421.06 25.1296 421.338 26.9839 421.572 27.5505C422.065 28.7481 422.25 29.5367 423.02 33.7315L423.587 36.8221L424.098 33.128L424.608 29.4338L427.836 29.8752C429.611 30.1179 431.166 30.6213 431.292 30.9939C431.765 32.3937 433.565 31.6666 433.44 30.126C433.372 29.2761 433.349 26.4946 433.391 23.9449L433.467 19.3091H436.901H440.336L440.335 23.2581L440.335 27.2071L444.113 26.9719C447.582 26.7559 447.892 26.601 447.892 25.0832C447.892 23.557 448.156 23.4298 451.326 23.4298H454.761L454.842 26.0053C454.887 27.4217 454.882 28.9297 454.831 29.3562C454.78 29.7827 455.362 30.2946 456.123 30.4938C457.431 30.8356 457.508 30.5328 457.508 25.0825V19.3091H460.901H464.294L464.507 21.8846C464.651 23.6212 465.056 24.46 465.751 24.46C466.607 24.46 466.814 22.8779 466.972 15.1035L467.162 5.74708L469.719 5.32444C473.571 4.68776 473.994 4.77377 473.994 6.1949C473.994 7.31868 474.371 7.45255 476.667 7.14456L479.341 6.78598L479.819 9.61361C480.248 12.1536 480.496 12.4413 482.256 12.4413C483.334 12.4413 484.407 12.7503 484.64 13.128C484.874 13.5058 485.807 13.8148 486.713 13.8148C488.29 13.8148 488.371 14.0427 488.595 19.1374C488.79 23.5751 488.852 23.1754 488.967 16.7337L489.105 9.00733H492.54H495.974L496.068 17.4204C496.119 22.0476 496.295 25.1382 496.459 24.2883C496.72 22.9349 497.177 22.743 500.143 22.743H503.53L503.606 25.6618C503.648 27.2672 503.626 29.276 503.557 30.1259C503.448 31.4633 503.761 31.6712 505.885 31.6712C508.231 31.6712 508.338 31.5659 508.338 29.2674C508.338 26.9782 508.452 26.8637 510.742 26.8637H513.148V23.4297C513.148 20.8352 513.399 19.9958 514.178 19.9958C514.898 19.9958 515.208 19.2709 515.208 17.5921C515.208 16.27 515.517 15.1883 515.895 15.1883C516.273 15.1883 516.582 13.6884 516.582 11.8552C516.582 10.0219 516.781 6.62235 517.023 4.30056L517.465 0.0791016H520.378H523.292L523.873 13.9865C524.193 21.6355 524.561 26.6576 524.691 25.1467C524.821 23.6358 525.368 22.1524 525.906 21.8503C526.678 21.4174 526.885 19.3456 526.885 12.0637V2.82623H530.32H533.754V10.0375C533.754 14.3871 534.027 17.2487 534.441 17.2487C534.837 17.2487 535.162 19.6483 535.208 22.9146C535.252 26.0309 535.429 28.0398 535.602 27.3787C535.847 26.4392 536.654 26.1769 539.3 26.1769C542.641 26.1769 542.685 26.2055 542.777 28.4089C542.845 30.023 542.953 30.2132 543.169 29.0957C543.332 28.2458 543.754 27.5504 544.105 27.5504C544.47 27.5504 544.745 23.2899 544.745 17.6262C544.745 10.1198 544.966 7.56817 545.655 7.15276C546.156 6.85067 546.764 6.06269 547.007 5.40167C547.339 4.49884 548.223 4.1998 550.562 4.1998H553.674V7.52689C553.674 9.35678 553.876 14.1471 554.122 18.172L554.57 25.4901H556.526C558.024 25.4901 558.482 25.8116 558.482 26.8637C558.482 27.9756 558.94 28.2372 560.886 28.2372H563.291L563.3 23.258C563.314 15.7359 563.573 15.1883 567.112 15.1883H570.088L570.34 18.7939C570.479 20.777 570.649 17.532 570.719 11.5827L570.846 0.765889H574.185H577.524L577.957 4.37151C578.195 6.35459 578.393 12.3481 578.397 17.6903C578.401 25.4511 578.599 27.4788 579.38 27.7783C579.978 28.0078 580.213 28.7024 579.986 29.5688C579.667 30.7906 579.931 30.9852 581.928 30.9903C583.2 30.9938 585.892 31.1945 587.91 31.4368C591.472 31.8645 591.574 31.8294 591.44 30.2289C591.364 29.3223 591.336 26.0309 591.377 22.9146L591.453 17.2487H594.112H596.771L597.254 11.0676L597.738 4.88659H600.777H603.817L603.898 9.17897C604.028 15.9844 604.545 17.5564 606.74 17.8094C608.56 18.0191 608.625 18.1686 608.625 22.1018C608.625 25.9907 608.704 26.1769 610.343 26.1769C611.287 26.1769 612.06 25.8856 612.06 25.5296C612.06 25.1736 613.374 24.7872 614.979 24.6711L617.898 24.4599L618.096 18.1072L618.293 11.7544H621.702H625.111V15.8751V19.9958H628.545H631.98V27.8533C631.98 32.3508 632.273 35.8923 632.667 36.1352C633.096 36.4004 633.364 34.9339 633.382 32.2268L633.413 27.8938L634.729 30.2976L636.045 32.7013L636.07 29.0957C636.1 25.7152 636.205 25.4901 637.816 25.4901C639.527 25.4901 639.533 25.4669 639.533 18.9657V12.4412H642.967H646.402V14.7888C646.402 18.6949 646.921 19.309 650.222 19.309C653.091 19.309 653.226 19.4034 653.659 21.7128C654.093 24.0263 654.224 24.1165 657.125 24.1165C658.783 24.1165 660.14 23.8075 660.14 23.4297C660.14 23.052 661.199 22.743 662.493 22.743C664.185 22.743 664.915 22.4051 665.088 21.5411C665.263 20.6683 665.815 21.1505 667.107 23.3019C668.766 26.0647 668.915 26.1573 669.312 24.6754C669.546 23.8014 669.741 21.1548 669.747 18.7939L669.753 14.5016H672.764C675.943 14.5016 676.589 15.2801 676.612 19.1373C676.619 20.3067 677.021 20.6826 678.266 20.6826C679.17 20.6826 680.087 21.1462 680.305 21.7128C680.553 22.3594 681.603 22.743 683.126 22.743C685.027 22.743 685.551 23.0174 685.551 24.0114C685.551 25.2438 687.676 28.2372 688.551 28.2372C688.79 28.2372 688.986 27.6191 688.986 26.8637C688.986 25.6566 689.444 25.4901 692.764 25.4901H696.542V21.026V16.5619H699.976H703.411L703.429 22.2279C703.453 29.3813 704.022 39.1979 704.507 40.771C705.177 42.9444 706.159 42.0262 706.159 39.2258C706.159 37.2417 706.445 36.4787 707.189 36.4787C707.933 36.4787 708.22 35.7155 708.22 33.7315C708.22 31.2591 708.391 30.9844 709.937 30.9844C710.881 30.9844 711.654 30.6753 711.654 30.2976C711.654 29.9199 712.89 29.6108 714.402 29.6108C715.913 29.6108 717.113 29.379 717.068 29.0957C716.816 27.5024 717.379 26.9286 719.382 26.7355C721.344 26.5463 721.64 26.2509 721.829 24.2882C722.04 22.1005 722.112 22.0562 725.435 22.0562C727.992 22.0562 728.826 22.3098 728.826 23.0864C728.826 23.8304 729.589 24.1166 731.574 24.1166C734.199 24.1166 734.325 24.216 734.403 26.3486C734.445 27.5762 734.445 28.8124 734.403 29.0957C734.36 29.379 735.712 29.6108 737.412 29.6108H740.503V32.5824C740.503 35.4935 740.546 35.5478 742.564 35.2516C743.697 35.0853 744.645 34.5979 744.67 34.1687C745.087 27.0572 745.533 24.3907 746.388 23.9124C746.929 23.6094 747.372 22.6042 747.372 21.6787C747.372 20.1421 747.641 19.9959 750.463 19.9959H753.554V24.1166C753.554 28.1929 753.572 28.2373 755.519 28.2373C757.214 28.2373 757.442 28.4605 757.175 29.8561C756.914 31.2238 757.206 31.5434 759.074 31.9165C760.288 32.1593 762.194 32.358 763.308 32.358C765.091 32.358 765.32 32.131 765.21 30.4693C765.142 29.4306 765.118 25.1038 765.161 20.8544L765.234 13.1281H768.668H772.103V20.6827C772.103 25.2612 772.373 28.2373 772.79 28.2373C773.168 28.2373 773.477 27.3101 773.477 26.1769C773.477 24.3455 773.706 24.1166 775.537 24.1166C777.098 24.1166 777.598 23.8024 777.598 22.8231C777.598 21.3327 779.366 20.7057 783.608 20.692C786.396 20.6829 786.528 20.7755 786.528 22.743C786.528 24.3455 786.833 24.8034 787.901 24.8034C789.391 24.8034 789.475 25.2732 789.283 32.5297C789.198 35.7056 789.389 36.4787 790.257 36.4787C790.851 36.4787 791.336 36.7877 791.336 37.1655C791.336 37.5432 791.666 37.8522 792.069 37.8522C792.525 37.8522 792.765 36.1048 792.704 33.2164C792.527 24.9023 792.266 25.4902 796.144 25.4902C798.61 25.4902 799.579 25.758 799.579 26.4402C799.579 26.9627 800.197 27.5519 800.952 27.7495C802.201 28.076 802.326 27.7702 802.326 24.3957C802.326 22.3535 802.624 20.6827 802.988 20.6827C803.354 20.6827 803.738 17.6891 803.847 13.9865L804.044 7.29039L807.217 7.08472C811.042 6.83686 811.233 7.24554 811.247 15.7035C811.253 20.2779 811.454 21.3695 812.286 21.3695C812.978 21.3695 813.317 22.0615 813.317 23.4776C813.317 25.2709 813.548 25.5529 814.862 25.3662C816.386 25.1499 816.41 24.9848 816.596 13.6431L816.784 2.13951H819.785C823.376 2.13951 823.62 2.5736 823.62 8.95668C823.62 11.5111 823.821 16.8943 824.068 20.9192L824.516 28.2373H828.045C831.435 28.2373 831.573 28.311 831.547 30.1071C831.529 31.3812 831.919 32.0568 832.774 32.2278C834.524 32.5779 835.937 30.429 835.963 27.3788L835.987 24.8034H839.421C842.398 24.8034 842.856 24.9865 842.856 26.1769C842.856 26.94 843.314 27.5505 843.886 27.5505C844.756 27.5505 844.917 25.948 844.917 17.2488V6.94697H848.329H851.742L851.936 15.0167L852.129 23.0864L855.735 23.294L859.341 23.5016V26.5562C859.341 28.2483 859.666 29.6109 860.069 29.6109C860.469 29.6109 860.605 29.3018 860.372 28.9241C860.124 28.5234 860.823 28.2373 862.048 28.2373C863.204 28.2373 864.15 27.8996 864.15 27.487C864.15 27.0068 865.51 26.8213 867.928 26.9719L871.707 27.2071V21.5411C871.707 15.9551 871.732 15.8752 873.423 15.8752C874.797 15.8752 875.141 15.5318 875.141 14.1582C875.141 12.5557 875.37 12.4413 878.575 12.4413H882.01L882.091 20.511C882.134 24.9493 882.134 28.8125 882.091 29.0957C882.049 29.3791 882.901 29.6108 883.991 29.6108C886.662 29.6108 886.798 28.8748 886.809 14.3299L886.815 2.13951H889.826C893.615 2.13951 893.662 2.29167 893.674 14.6864L893.681 24.1427L895.323 23.7306C896.226 23.5039 897.172 23.6526 897.424 24.0609C897.676 24.4693 898.638 24.8034 899.56 24.8034C901.058 24.8034 901.236 24.5109 901.236 22.0563V19.3091H905.358H909.479V22.743C909.479 25.3179 909.733 26.177 910.496 26.177C911.056 26.177 911.708 25.4043 911.945 24.46C912.322 22.9546 912.747 22.743 915.392 22.743C918.286 22.743 918.409 22.8268 918.409 24.8034C918.409 26.177 918.752 26.8637 919.439 26.8637C920.528 26.8637 920.691 27.4226 920.49 30.4693C920.392 31.963 920.664 32.358 921.791 32.358C922.904 32.358 923.217 31.924 923.217 30.3835C923.217 29.2975 923.418 27.4032 923.664 26.1738L924.111 23.9386L928.947 24.388C931.607 24.6352 933.913 24.967 934.071 25.1253C934.23 25.2837 934.349 27.5167 934.336 30.0875C934.324 32.6583 934.56 36.1525 934.861 37.8523L935.409 40.9428L935.494 37.6806L935.58 34.4183H938.328C940.312 34.4183 941.076 34.1322 941.076 33.3882C941.076 32.6098 941.915 32.358 944.51 32.358C947.868 32.358 947.945 32.4037 947.945 34.4183C947.945 35.5515 948.254 36.4787 948.631 36.4787C949.009 36.4787 949.318 35.397 949.318 34.0749C949.318 31.9688 949.531 31.6712 951.035 31.6712C951.98 31.6712 952.753 31.3622 952.753 30.9844C952.753 30.6067 953.249 30.2976 953.857 30.2976C954.556 30.2976 954.815 29.9198 954.565 29.2675C954.243 28.4299 954.866 28.2373 957.892 28.2373H961.614L961.82 32.1863L962.026 36.1353L966.623 36.3374L971.22 36.5396L971.487 39.0846C971.657 40.6967 971.8 39.9932 971.88 37.1654C972.045 31.231 972.536 29.6108 974.167 29.6108C974.901 29.6108 975.31 29.3018 975.077 28.924C974.843 28.5463 975.126 28.2373 975.699 28.2373C976.556 28.2373 976.781 26.961 976.942 21.1977L977.137 14.1582L979.114 16.9053C981.052 19.5978 981.164 19.6478 984.781 19.4172L988.471 19.1819L988.544 23.8813C988.586 26.466 988.592 29.5078 988.562 30.641C988.531 31.7742 988.679 32.315 988.89 31.8429C989.12 31.3264 990.602 30.9844 992.61 30.9844H995.948L996.239 33.9032C996.47 36.2269 996.537 35.9818 996.565 32.7013C996.584 30.435 996.626 27.8485 996.658 26.9537L996.712 25.3268L1003.41 25.8222C1007.09 26.0947 1010.23 26.4368 1010.38 26.5824C1010.54 26.728 1010.61 28.5507 1010.54 30.6328L1010.42 34.4183H1013.18C1015.94 34.4183 1015.95 34.411 1015.95 31.7315C1015.95 29.1385 1016.04 29.0288 1018.65 28.5871C1021.18 28.1604 1021.38 27.9588 1021.57 25.6079L1021.78 23.0864L1027.21 22.8839C1030.2 22.7725 1032.93 22.9669 1033.28 23.3159C1033.63 23.6648 1033.9 26.4602 1033.88 29.5277C1033.86 32.5953 1034.12 35.1051 1034.46 35.1051C1034.8 35.1051 1035.18 35.7973 1035.3 36.6433C1035.56 38.4915 1037.5 38.9983 1039.73 37.8039C1041.23 37.0031 1041.36 36.5065 1041.36 31.6113C1041.36 25.694 1041.74 24.1165 1043.15 24.1165C1043.93 24.1165 1044.11 22.1624 1044.11 13.8148C1044.11 4.19983 1044.19 3.51304 1045.39 3.51304C1046.1 3.51304 1047.64 3.32199 1048.81 3.08846L1050.93 2.66386L1051.12 10.4714C1051.31 17.9771 1051.38 18.2874 1052.86 18.4983C1053.9 18.646 1054.41 18.3649 1054.41 17.6399C1054.41 16.8191 1055.15 16.5619 1057.52 16.5619C1059.66 16.5619 1060.76 16.2378 1061.03 15.5317C1061.3 14.8383 1062.39 14.5016 1064.36 14.5016C1067.46 14.5016 1068.12 15.3043 1068.14 19.1374C1068.14 20.0489 1068.57 20.6826 1069.18 20.6826C1069.88 20.6826 1070.21 21.3927 1070.22 22.9147C1070.24 26.7905 1070.91 28.2372 1072.69 28.2372C1073.87 28.2372 1074.33 28.6215 1074.33 29.6108C1074.33 30.6652 1074.79 30.9844 1076.3 30.9844C1078.25 30.9844 1078.27 30.9326 1078.37 26.7431C1078.42 24.4104 1078.6 22.3674 1078.76 22.203C1078.93 22.0387 1081.09 21.7416 1083.57 21.5428L1088.07 21.1813V24.0225C1088.07 26.0901 1088.35 26.8637 1089.1 26.8637C1089.79 26.8637 1090.13 27.5568 1090.13 28.9812C1090.13 30.3711 1090.42 30.9998 1090.99 30.8108C1091.88 30.5121 1091.98 30.1113 1092.11 26.3109L1092.19 24.0413L1095.45 24.2506C1098.46 24.4434 1098.73 24.6116 1098.94 26.3898C1099.11 27.9288 1099.46 28.2766 1100.65 28.1068C1101.98 27.9177 1102.17 27.412 1102.35 23.6014L1102.56 19.309H1105.27C1107.92 19.309 1107.99 19.247 1107.99 16.9053C1107.99 14.9594 1108.25 14.5016 1109.36 14.5016C1110.37 14.5016 1110.74 14.0437 1110.74 12.7846C1110.74 11.1821 1110.96 11.0676 1114.17 11.0676H1117.6V14.3979C1117.6 20.1398 1118.47 28.2372 1119.08 28.2372C1119.4 28.2372 1119.67 26.8465 1119.67 25.1467V22.0562H1123.1H1126.53V25.2202C1126.53 27.8232 1126.73 28.3102 1127.62 27.9673C1128.22 27.738 1128.99 27.5505 1129.34 27.5505C1129.68 27.5505 1129.97 25.7734 1129.97 23.6015C1129.97 21.4295 1130.31 18.4597 1130.71 17.0018C1131.4 14.5164 1131.58 14.3772 1133.54 14.7697C1134.69 15 1136.06 15.1883 1136.58 15.1883C1137.12 15.1883 1137.52 15.9002 1137.52 16.8648C1137.52 17.7868 1137.83 18.7322 1138.21 18.9657C1138.59 19.1991 1138.9 18.7538 1138.9 17.976C1138.9 16.7644 1139.33 16.5619 1141.9 16.5619H1144.89L1145.33 19.7483C1145.57 21.5008 1145.77 25.364 1145.77 28.3331C1145.77 32.6738 1145.97 33.7315 1146.8 33.7315C1147.44 33.7315 1147.83 34.3777 1147.83 35.4269C1147.83 36.6832 1148.11 37.0155 1148.9 36.7098C1149.72 36.3962 1149.95 35.3719 1149.88 32.4389C1149.82 30.3169 1149.8 27.2672 1149.84 25.6618L1149.89 22.743H1153.32H1156.76L1156.82 25.6618C1156.86 27.2672 1156.87 29.9714 1156.84 31.6712C1156.82 33.371 1156.97 34.3754 1157.18 33.9032C1157.39 33.431 1158.46 33.0447 1159.56 33.0447C1161.48 33.0447 1161.56 32.9106 1161.56 29.9542V26.8637H1165C1167.26 26.8637 1168.45 27.1574 1168.49 27.7222C1168.52 28.1943 1168.5 30.3577 1168.44 32.5296L1168.34 36.4787H1172.78C1177.67 36.4787 1178.05 36.1502 1178.05 31.9584C1178.05 29.7977 1178.22 29.6108 1180.15 29.6108C1181.38 29.6108 1182.08 29.3247 1181.83 28.924C1181.59 28.5463 1181.88 28.2372 1182.47 28.2372C1183.3 28.2372 1183.54 27.4556 1183.54 24.8033V21.3694H1186.98C1188.87 21.3694 1190.41 21.6785 1190.41 22.0562C1190.41 22.4339 1191.5 22.743 1192.82 22.743H1195.22V28.8353V34.9276L1200.03 35.4013L1204.84 35.875V57.8105V79.746H1201.75H1198.66V76.6554V73.5649H1195.95C1194.46 73.5649 1193.05 73.2559 1192.82 72.8781C1192.27 71.9856 1187.87 71.9856 1187.32 72.8781C1187.09 73.2559 1185.54 73.5649 1183.89 73.5649C1182.23 73.5649 1180.69 73.2559 1180.45 72.8781C1179.43 71.2231 1178.74 72.4725 1178.74 75.9687V79.746H1175.3H1171.87L1171.75 76.1404C1171.66 73.1742 1171.59 72.9915 1171.37 75.1102L1171.1 77.6856H1167.7C1165.15 77.6856 1164.31 77.4321 1164.31 76.6554C1164.31 76.0889 1163.85 75.6253 1163.28 75.6253C1162.5 75.6253 1162.25 74.7859 1162.25 72.1913C1162.25 69.2153 1162.07 68.7574 1160.88 68.7574C1160.09 68.7574 1159.5 69.2153 1159.5 69.8367C1159.5 70.4302 1159.04 71.3795 1158.47 71.9461C1157.91 72.5127 1157.44 74.1904 1157.44 75.6743C1157.44 77.1582 1157.13 78.3724 1156.76 78.3724C1156.34 78.3724 1156.07 81.1195 1156.07 85.2402V92.1081H1152.66H1149.24L1149.05 84.0384L1148.86 75.9687H1146.8H1144.74L1144.54 83.695L1144.35 91.4213H1140.93H1137.52V85.5836C1137.52 82.1497 1137.24 79.746 1136.84 79.746C1136.46 79.746 1136.15 81.2912 1136.15 83.1799V86.6138H1133.06C1130.1 86.6138 1129.97 86.5271 1129.97 84.6096C1129.97 81.4081 1129.31 80.4327 1127.15 80.4327C1125.29 80.4327 1125.16 80.2575 1125.16 77.6856C1125.16 75.3963 1124.93 74.9385 1123.78 74.9385C1122.78 74.9385 1122.41 74.4806 1122.41 73.2215C1122.41 72.1532 1122.02 71.5046 1121.38 71.5046C1120.57 71.5046 1120.35 72.4584 1120.35 75.9687V80.4327H1117C1113.8 80.4327 1113.63 80.3357 1113.08 78.2007C1112.56 76.1525 1112.49 76.2939 1112.28 79.9177L1112.04 83.8667H1108.64H1105.24V76.6149C1105.24 71.9553 1104.99 69.5149 1104.55 69.7876C1104.15 70.0352 1103.86 73.9154 1103.86 79.0997V87.9874H1100.43H1097V79.7865C1097 72.2151 1096.27 69.0065 1095.2 71.8044C1094.96 72.4358 1093.97 72.8781 1092.8 72.8781C1091.05 72.8781 1090.81 73.124 1090.81 74.9385C1090.81 76.8036 1090.6 76.9995 1088.58 77.0064C1087.35 77.0107 1085.21 77.2028 1083.81 77.4335C1081.71 77.7804 1081.24 78.166 1081.06 79.658C1080.87 81.2889 1080.54 81.4831 1077.59 81.6722L1074.33 81.8816L1074.25 78.2383C1074.21 76.2346 1074.03 75.1359 1073.86 75.797C1073.68 76.458 1073.1 76.9988 1072.56 76.9988C1071.86 76.9988 1071.58 77.8707 1071.58 80.0894C1071.58 82.3434 1071.31 83.1799 1070.58 83.1799C1069.78 83.1799 1069.53 84.5061 1069.37 89.5326L1069.18 95.8854L1065.94 96.0937L1062.7 96.3019L1062.51 90.0805C1062.39 86.3685 1062.03 83.9299 1061.62 84.0346C1060.98 84.1982 1060.64 105.148 1060.6 146.192L1060.59 160.1H1057.16H1053.72L1053.7 146.192L1053.72 146.192Z" fill="black"/>
</svg>
