<svg width="1203" height="148" viewBox="0 0 1203 148" fill="none" xmlns="http://www.w3.org/2000/svg">
<path d="M780.368 145.887C780.138 144.968 779.941 134.306 779.931 122.193L779.913 100.169H777.527H775.142V107.037V113.904H771.789H768.435L767.929 94.6745C767.651 84.098 767.179 75.4446 766.882 75.4446C766.583 75.4446 766.12 78.3805 765.851 81.969L765.361 88.4935H762.009H758.656L758.607 82.8275C758.577 79.7112 758.297 76.5434 757.976 75.788C757.642 74.9997 757.371 85.1791 757.341 99.6772C757.311 113.572 757.089 126.629 756.847 128.694L756.405 132.448H753.485H750.565L750.095 117.167C749.837 108.762 749.571 96.6575 749.504 90.2675C749.413 81.6724 749.158 78.5748 748.523 78.3632C748.029 78.1989 747.664 78.6541 747.664 79.4345C747.664 80.9976 746.403 81.63 743.315 81.6151C740.24 81.5992 739.555 80.9554 739.301 77.8394C739.097 75.3275 738.899 75.0838 736.918 74.8913L734.758 74.6815L734.277 83.8194C734.012 88.8453 733.861 93.2665 733.942 93.6442C734.023 94.0219 734.052 96.2626 734.008 98.6234C733.931 102.722 733.849 102.916 732.209 102.916C730.541 102.916 730.492 103.053 730.492 107.723C730.492 110.47 730.198 112.531 729.805 112.531C729.427 112.531 729.117 114.307 729.115 116.48C729.115 118.652 728.912 123.906 728.667 128.155L728.221 135.881H725.33H722.439L722.006 131.589C721.768 129.228 721.559 118.643 721.54 108.067C721.504 86.1517 721.295 83.7046 719.516 84.1699C717.913 84.589 717.396 82.5094 716.834 73.3841L716.39 66.1729L715.897 71.9627C715.625 75.147 715.088 77.9474 714.702 78.1858C714.282 78.4455 713.844 84.3863 713.61 92.9996C713.396 100.909 713.098 107.766 712.947 108.238C712.784 108.753 711.471 109.097 709.668 109.097H706.66L706.216 101.371C705.971 97.1211 705.733 90.5537 705.687 86.7764C705.563 76.6795 704.572 74.0189 704.472 83.5142C704.43 87.7637 704.111 91.2405 703.768 91.2405C703.426 91.2405 703.109 95.009 703.063 99.6149C703.014 104.221 702.911 108.043 702.827 108.108C702.743 108.174 701.206 108.385 699.411 108.578C696.929 108.844 696.148 108.702 696.148 107.982C696.148 107.462 695.593 107.037 694.913 107.037C693.659 107.037 693.222 103.358 691.529 78.535C691.349 75.8908 690.971 73.4814 690.689 73.1807C690.174 72.6296 689.29 83.0111 689.283 89.6952L689.277 93.3008H686.873C685.551 93.3008 684.505 93.5325 684.55 93.8159C684.593 94.0994 684.593 95.799 684.55 97.5932L684.472 100.855H681.038C679.149 100.855 677.599 100.624 677.594 100.34C677.48 93.8554 676.669 75.7109 676.483 75.5017C675.835 74.7709 675.533 76.3861 675.11 82.8381C674.777 87.9176 674.389 89.8991 673.672 90.174C673.029 90.4208 672.768 91.3193 672.915 92.7841C673.123 94.8568 672.977 95.0333 670.906 95.233C668.696 95.446 668.674 95.4849 668.674 99.0784C668.674 101.075 668.474 105.073 668.229 107.963L667.785 113.218H664.837H661.889L661.52 110.299C661.318 108.693 661.024 100.486 660.868 92.0607C660.711 83.6352 660.396 76.5547 660.167 76.3262C659.939 76.0977 659.132 76.4718 658.374 77.1576C657.015 78.3873 656.995 78.3629 656.932 75.3792C656.896 73.7153 656.92 71.0405 656.981 69.4351C657.088 66.7268 656.969 66.5163 655.328 66.5163C653.809 66.5163 653.558 66.2161 653.558 64.3987C653.558 63.0092 653.263 62.38 652.7 62.5686C652.129 62.7593 651.806 64.5656 651.736 67.9483C651.681 70.7491 651.542 77.831 651.434 83.6859C651.164 98.3335 651.483 97.4216 646.61 97.4216C642.757 97.4216 642.568 97.5017 642.568 99.1385C642.568 100.741 642.339 100.855 639.134 100.855H635.699L635.614 97.7649C635.565 96.0651 635.45 94.3654 635.356 93.9876C635.262 93.61 635.146 90.2103 635.098 86.433C635.013 79.588 635.007 79.5651 633.295 79.5651C631.77 79.5651 631.577 79.277 631.571 76.9897C631.567 75.5732 631.369 73.2402 631.132 71.8052C630.72 69.3114 630.606 69.2151 628.564 69.6245C627.388 69.86 625.886 70.205 625.224 70.3911C624.268 70.6602 624.022 70.3008 624.022 68.6361V66.5425L620.76 66.9696C618.965 67.2043 617.377 67.4988 617.23 67.6237C617.083 67.7487 616.845 69.0186 616.7 70.4458C616.405 73.3536 615.858 77.101 615.402 79.33C615.179 80.4176 614.734 80.7165 613.73 80.4539C612.861 80.2265 612.207 80.5002 611.936 81.2042C611.687 81.8554 610.725 82.3123 609.605 82.3123C607.704 82.3123 607.698 82.3282 607.212 88.3217C606.751 93.9922 606.543 94.5967 603.524 99.0429L600.324 103.755L599.835 100.417C598.946 94.3524 598.627 87.624 598.593 74.2426C598.563 61.5676 598.505 61.022 597.21 61.022C596.056 61.022 595.84 61.5463 595.726 64.6277C595.652 66.6107 595.492 69.3149 595.371 70.637C595.25 71.9591 595.003 78.1401 594.822 84.3727C594.255 103.979 593.687 116.132 593.089 121.459C592.771 124.292 592.492 126.996 592.468 127.468C592.444 128.022 591.327 128.327 589.335 128.327C586.313 128.327 586.243 128.277 586.206 126.095C586.188 124.867 585.867 117.373 585.497 109.44C585.128 101.508 584.85 93.7043 584.88 92.099C584.928 89.3016 584.849 89.1802 582.872 89.1802C580.35 89.1802 580.284 88.8698 579.749 74.4687C579.54 68.8326 579.206 64.058 579.006 63.8584C578.678 63.5306 572.368 63.6899 572.014 64.0352C571.933 64.1146 571.667 67.4097 571.424 71.3574C571.181 75.3052 570.706 78.6382 570.37 78.7641C570.034 78.8899 569.758 81.5943 569.758 84.7735V90.5539H565.68H561.6L561.243 87.6351C561.047 86.0297 560.734 81.4712 560.547 77.5051C560.361 73.5389 560.003 69.5984 559.752 68.7485C558.892 65.8404 558.133 67.2015 558.166 71.5896C558.185 74.0021 557.983 77.7108 557.718 79.831L557.237 83.6861H553.881H550.526V81.2346C550.526 79.0851 550.335 78.8101 548.98 79.0025C547.661 79.1898 547.404 79.7004 547.226 82.4842L547.016 85.7465H543.698H540.381L539.786 75.273L539.192 64.7995L537.134 64.5659C536.002 64.4375 534.847 63.9738 534.568 63.5358C534.29 63.0977 534.048 66.9115 534.031 72.0108C533.982 86.7392 533.346 102.293 532.649 105.806C532.296 107.585 532.011 115.311 532.016 122.976C532.02 130.641 532.015 138.534 532.002 140.517L531.98 144.123H528.545H525.111V139.316V134.508H523.139H521.167L520.716 128.499C520.468 125.194 520.24 120.249 520.209 117.51C520.178 114.772 519.916 112.531 519.628 112.531C518.745 112.531 518.254 107.615 518.197 98.1881C518.146 89.7703 518.056 89.1804 516.819 89.1804C515.625 89.1804 515.494 88.6546 515.492 83.8578C515.489 80.9304 515.288 75.0585 515.043 70.809C514.658 64.1324 514.437 63.0827 513.416 63.0827C511.976 63.0827 511.73 64.8378 510.439 84.2709C509.918 92.1271 509.2 98.443 508.8 98.6934C508.408 98.9383 507.863 102.152 507.588 105.835L507.089 112.531H504.822C500.679 112.531 500.383 112.16 500.383 106.963C500.383 104.069 500.098 102.229 499.651 102.229C499.166 102.229 498.992 104.556 499.135 109.099L499.353 115.968L495.746 115.967L492.14 115.965L492.097 105.148C492.016 84.9841 492.064 85.434 489.971 85.1919C488.45 85.0159 488.081 85.3017 487.755 86.9088C487.271 89.3019 486.631 111.954 486.639 126.438L486.645 137.255L483.039 137.256L479.433 137.256L479.605 119.986C479.717 108.839 479.526 102.412 479.067 101.859C478.676 101.388 478.346 98.3445 478.334 95.0956C478.319 90.9848 478.021 88.8973 477.355 88.2311C476.654 87.5304 476.371 85.0447 476.298 78.9556C476.208 71.4977 476.072 70.6373 474.984 70.6373C473.923 70.6373 473.758 71.3931 473.679 76.6466C473.629 79.9518 473.395 84.7421 473.159 87.2917L472.73 91.9275H469.791H466.853L466.766 101.302C466.718 106.458 466.517 110.94 466.318 111.261C466.12 111.581 464.66 111.844 463.075 111.844C458.669 111.844 458.529 111.168 458.461 89.4217C458.405 71.5669 458.346 70.7618 457.069 70.4278C456.111 70.1775 455.735 69.4802 455.735 67.9544C455.735 66.5237 455.399 65.8298 454.705 65.8298C453.944 65.8298 453.674 66.6248 453.674 68.8642C453.674 72.4905 453.153 74.0712 451.957 74.0712C450.551 74.0712 450.171 75.9285 449.745 84.888C449.524 89.5152 449.082 93.3012 448.762 93.3012C448.441 93.3012 448.216 93.5328 448.261 93.8162C448.652 96.2944 448.121 96.735 444.745 96.735C442.15 96.735 441.31 96.4831 441.31 95.7049C441.31 94.9172 440.443 94.6747 437.626 94.6747H433.941L433.505 97.8611C433.264 99.6136 433.068 104.095 433.068 107.819V114.591H429.633H426.199L426.185 106.865C426.177 102.616 425.86 94.503 425.48 88.8371C425.101 83.1711 424.777 74.5176 424.761 69.6071C424.745 64.6966 424.337 58.8246 423.853 56.5583L422.974 52.4375L422.564 61.7091C422.338 66.8085 422.124 72.4175 422.088 74.1736C422.052 75.9297 421.725 78.4 421.363 79.6633C421 80.9266 420.704 84.7964 420.704 88.2629V94.5656L418.643 95.0181C417.226 95.3292 416.583 95.8825 416.583 96.7897C416.583 97.8706 416.087 98.1087 413.835 98.1087C411.545 98.1087 411.087 98.3376 411.087 99.4822C411.087 100.65 410.629 100.856 408.037 100.856C406.359 100.856 404.828 100.599 404.633 100.284C404.439 99.9703 404.096 95.2572 403.871 89.8111C403.646 84.3649 403.169 75.1238 402.81 69.2755C402.451 63.4271 402.158 57.9414 402.158 57.085C402.158 54.6923 401.071 55.2241 399.23 58.5183C397.673 61.3039 397.503 62.6197 396.754 77.746C396.312 86.6767 395.757 95.3904 395.522 97.1099L395.093 100.236L391.928 100.031L388.763 99.8258L388.563 94.5033L388.362 89.1807H385.38C382.04 89.1807 381.578 88.4703 381.56 83.3087C381.555 81.7789 381.234 80.2105 380.847 79.8234C380.46 79.4363 380.127 76.668 380.107 73.6717C380.088 70.6753 379.818 67.1443 379.508 65.825C378.949 63.449 378.942 63.4588 378.756 66.8602C378.653 68.7489 378.5 70.7577 378.415 71.3243C378.331 71.8909 378.23 73.0499 378.19 73.8998C378.135 75.048 377.697 75.445 376.485 75.445C374.436 75.445 373.995 77.3298 373.995 86.0801C373.995 89.5687 373.799 93.8568 373.558 95.6093L373.122 98.7957H369.784H366.443V91.9279C366.443 88.1169 366.157 85.06 365.8 85.06C365.446 85.06 365.032 84.0556 364.879 82.8279C364.709 81.4574 364.56 82.1201 364.492 84.5449L364.382 88.4939H361.291H358.2V91.8831C358.2 93.7472 357.835 96.1424 357.388 97.2057C356.941 98.2691 356.399 104.147 356.184 110.267C355.92 117.772 355.513 121.674 354.936 122.251C354.464 122.722 354.079 123.664 354.079 124.344C354.079 125.37 353.494 125.58 350.644 125.58H347.21L347.194 120.944C347.148 107.587 346.399 97.058 345.443 96.3151C344.695 95.7345 344.419 93.3836 344.29 86.5032C344.18 80.6762 343.842 77.2805 343.34 76.9651C342.912 76.6956 342.407 75.8571 342.218 75.1016C342.029 74.3462 341.839 75.6451 341.795 77.9881C341.751 80.3312 341.356 83.0354 340.918 83.9975C340.228 85.5119 339.686 85.7468 336.883 85.7468C333.805 85.7468 333.623 85.6401 333.215 83.6006C332.979 82.4202 332.736 79.716 332.676 77.5913C332.606 75.1561 332.478 74.6166 332.33 76.1318C331.678 82.7692 331.291 84.3732 330.339 84.3732C329.576 84.3732 329.351 85.4438 329.351 89.0848C329.351 91.6762 329.155 95.2303 328.914 96.9829L328.478 100.169H325.48C322.669 100.169 322.482 100.051 322.475 98.2806C322.47 97.2418 322.275 95.233 322.041 93.8165C321.628 91.3138 321.534 91.2411 318.712 91.2411H315.809L315.368 87.0196C315.125 84.6978 314.917 80.9119 314.905 78.6065C314.892 75.9312 314.672 74.7875 314.297 75.445C313.748 76.4091 313.412 81.5644 312.287 106.35L311.835 116.309H308.401C305.201 116.309 304.982 116.2 305.19 114.713C305.349 113.578 305.012 113.012 304.024 112.753C302.978 112.48 302.564 111.685 302.348 109.542C302.053 106.604 302.045 106.867 301.929 123.348L301.875 131.074H298.44H295.006L294.958 123.348C294.932 119.099 294.951 113.225 295.002 110.295C295.076 106.038 294.878 104.884 294.02 104.555C293.201 104.241 292.946 103.101 292.946 99.7524C292.946 95.5497 292.874 95.3617 291.261 95.3617H289.577L289.3 84.2015C289.147 78.0634 288.901 70.7234 288.752 67.8904L288.481 62.7396H285.046H281.612L281.513 67.8904C281.459 70.7234 281.052 74.3849 280.61 76.0271C280.167 77.6692 279.529 83.2322 279.191 88.3892C278.854 93.5461 278.228 100.238 277.8 103.26C277.373 106.282 276.92 110.454 276.794 112.531L276.565 116.309L273.415 116.518C271.287 116.659 270.161 116.437 269.947 115.831C269.772 115.338 269.512 109.372 269.369 102.573C269.226 95.7737 268.746 86.8111 268.302 82.6561C267.859 78.5011 267.414 74.2442 267.314 73.1963C267.214 72.1485 266.913 71.2986 266.645 71.3077C266.376 71.3156 265.745 71.3235 265.241 71.3235C264.081 71.3235 264.134 70.8685 263.655 84.8875L263.251 96.7345H259.895C257.371 96.7345 256.54 96.4795 256.54 95.7044C256.54 95.1378 256.13 94.6742 255.629 94.6742C255.008 94.6742 254.813 94.0206 255.019 92.6218C255.234 91.1528 254.997 90.4453 254.183 90.1332C253.558 89.8933 252.938 89.8124 252.804 89.9537C252.364 90.4208 251.784 95.6471 251.758 99.3926L251.732 103.081L247.618 102.783L243.505 102.486L242.337 105.543C241.379 108.052 241.078 108.367 240.66 107.303C240.38 106.59 240.129 105.156 240.103 104.118C240.067 102.703 239.71 102.229 238.681 102.229C237.765 102.229 237.307 102.687 237.307 103.603C237.307 104.768 236.849 104.976 234.292 104.976C231.374 104.976 231.263 104.897 230.813 102.499C230.557 101.137 230.366 96.3861 230.388 91.9419L230.428 83.8615L228.2 84.3139C226.064 84.7478 225.965 84.9141 225.764 88.3829L225.556 91.9995L222.33 91.7916L219.104 91.5837L218.678 81.2818C218.443 75.6159 218.211 69.3576 218.163 67.3745C218.05 62.8105 216.7 62.5991 216.7 67.1455C216.7 69.1269 216.366 70.6337 215.891 70.792C215.35 70.9722 214.994 73.7851 214.819 79.2623C214.674 83.7726 214.264 88.081 213.908 88.8365C213.184 90.3683 212.695 93.7085 212.625 97.5929C212.585 99.8373 212.368 100.168 210.938 100.168C208.784 100.168 208.46 101.988 208.5 113.892C208.519 119.793 208.268 123.239 207.807 123.392C207.394 123.53 207.084 125.667 207.084 128.384V133.134H203.727H200.369L199.94 116.479C199.139 85.4577 198.907 75.1174 198.874 68.977C198.856 65.6089 198.721 62.9819 198.574 63.1393C198.427 63.2966 198.117 66.0524 197.884 69.2631C197.652 72.4739 197.138 79.5818 196.744 85.0587C196.349 90.5355 195.732 95.3104 195.373 95.6695C195.014 96.0285 194.72 98.2694 194.72 100.649V104.976H192.294C190.772 104.976 189.721 105.359 189.473 106.006C189.206 106.701 188.115 107.036 186.117 107.036H183.156L182.376 103.431C181.687 100.248 181.104 88.8464 180.751 71.6669C180.661 67.291 180.429 66.1726 179.608 66.1726C178.568 66.1726 178.423 67.2105 178.287 75.6159L178.235 78.8781H174.8C172.006 78.8781 171.357 78.6542 171.317 77.6762C171.276 76.6485 171.184 76.6734 170.679 77.8479C170.354 78.6033 170.067 81.7265 170.04 84.7881L169.992 90.3548L165.356 90.7926C157.3 91.5533 157.851 91.8283 157.31 86.7761C156.97 83.6014 156.55 82.312 155.856 82.312C155.104 82.312 154.88 81.1847 154.88 77.39C154.88 74.683 154.728 72.6209 154.541 72.8076C154.114 73.2347 152.713 98.4522 152.344 112.359L152.066 122.832H148.665H145.264L145.227 119.57C145.207 117.776 145.107 114.299 145.005 111.844C144.904 109.389 144.766 104.521 144.699 101.027C144.588 95.2786 144.452 94.6741 143.267 94.6741C142.296 94.6741 142.051 94.3194 142.317 93.3006C142.515 92.5451 142.373 91.927 142.002 91.927C141.288 91.927 140.213 76.2451 140.401 68.5764C140.511 64.0907 139.331 59.1895 138.051 58.8176C137.651 58.7012 137.155 61.3428 136.862 65.1424C135.265 85.8952 134.7 89.8385 133.2 90.7272C132.702 91.0223 132.327 92.5591 132.327 94.3058C132.327 95.9896 132.171 97.6202 131.98 97.9295C131.789 98.2386 131.555 102.321 131.461 107.001C131.222 118.955 131.301 118.712 127.668 118.712C125.28 118.712 124.645 118.463 124.601 117.51C124.571 116.849 124.447 115.381 124.328 114.247C124.208 113.114 124.065 106.105 124.01 98.6703C123.955 91.236 123.658 85.0549 123.35 84.9346C122.932 84.7714 122.075 71.995 121.919 63.6111C121.914 63.3355 120.673 62.4793 119.162 61.7085L116.414 60.307V63.7764C116.414 66.1858 116.108 67.3635 115.411 67.631C114.692 67.9066 114.42 69.0792 114.452 71.763C114.518 77.2802 112.821 96.7344 112.274 96.7344C111.732 96.7344 106.133 85.3928 106.067 84.162C106.043 83.7111 105.72 84.1028 105.349 85.0326C104.978 85.9624 104.697 88.5893 104.726 90.8703C104.755 93.1513 104.611 99.6532 104.406 105.319C104.202 110.985 104.038 116.007 104.042 116.479C104.048 117.053 102.91 117.338 100.616 117.338H97.1815V111.268C97.1815 107.929 96.9776 98.1942 96.7285 89.6342C96.3697 77.3062 96.0841 74.0706 95.3547 74.0706C94.4212 74.0706 94.1769 73.3252 94.398 71.1517C94.5796 69.3666 93.8093 69.6969 93.0336 71.7367C92.5693 72.9577 92.0132 73.3926 91.2772 73.1103C90.6849 72.8829 89.1437 72.697 87.8523 72.697C85.7681 72.697 85.4954 72.4848 85.4247 70.8084C85.3759 69.6464 85.2241 69.3822 85.0309 70.1216C84.7853 71.0611 83.978 71.3235 81.3326 71.3235H77.9485V67.0883C77.9485 60.9573 77.4399 62.4003 76.9391 69.9521C76.7012 73.5393 76.1722 81.1101 75.7635 86.776C75.3548 92.442 74.8924 102.255 74.7359 108.581L74.4514 120.085L71.22 120.074C69.4427 120.07 67.5509 119.786 67.0158 119.447C66.0001 118.805 65.1439 103.836 64.8523 81.6241C64.7804 76.147 64.4996 68.5752 64.2283 64.7979L63.7351 57.9301L63.4859 62.7376C63.3489 65.3817 63.1863 68.6267 63.1246 69.9488C63.063 71.2709 62.7841 73.5115 62.5048 74.928C62.001 77.4836 61.9713 77.5034 58.6391 77.5034C55.546 77.5034 55.2811 77.3726 55.2811 75.8437C55.2811 74.9309 54.9028 74.0579 54.4404 73.9038C53.9633 73.7449 53.4435 71.8638 53.2384 69.5542C52.9721 66.5554 52.6059 65.4847 51.8466 65.4847C51.041 65.4847 50.6443 67.1323 50.0279 73.0393C49.5942 77.1944 49.2078 80.6712 49.1692 80.7657C49.1308 80.8599 48.4808 80.9374 47.7253 80.9374C46.5009 80.9374 46.3363 81.4416 46.2122 85.5732C46.1357 88.1229 46.0078 91.1361 45.928 92.2693C45.8482 93.4025 45.7563 97.0338 45.7238 100.339L45.6646 106.348H42.2302H38.7957V102.677C38.7957 100.657 38.596 96.1914 38.3519 92.7528C37.9498 87.089 37.7721 86.4814 36.4629 86.2945C35.3636 86.1376 34.9633 85.5137 34.79 83.6873C34.6647 82.3667 34.2704 80.9349 33.9139 80.5054C33.5574 80.0758 33.2522 76.8765 33.2357 73.3956C33.2192 69.9148 33.0394 66.6336 32.8362 66.1041C32.2299 64.5243 30.6118 65.0115 30.1332 66.918C29.7373 68.4952 29.4373 68.6477 27.4595 68.2767L25.2317 67.8588L24.9249 73.7022C24.7562 76.916 24.4737 79.69 24.2971 79.8666C24.1204 80.0429 22.679 80.395 21.0939 80.6484C17.9416 81.1524 17.9279 81.1384 17.181 76.645C16.8565 74.6933 16.4277 74.0695 15.4103 74.0695C14.1916 74.0695 14.0618 74.5927 14.0047 79.7355C13.8787 91.0819 13.3476 97.3268 12.3453 99.2482C11.7861 100.32 11.3266 101.893 11.3243 102.743C11.3204 104.139 10.988 104.288 7.88557 104.288H4.45111L4.39808 99.6522C4.36882 97.1025 4.25234 93.9348 4.13885 92.6127C4.02535 91.2906 3.87986 84.2269 3.81555 76.9155C3.70822 64.714 3.59637 63.5953 2.45369 63.2965C0.742201 62.849 0.32959 57.1839 0.32959 34.1325V15.693H2.39027C4.21279 15.693 4.45094 15.9266 4.45094 17.7128C4.45094 18.8237 4.71499 19.8958 5.03773 20.0952C5.79718 20.5645 6.65233 27.9711 6.53252 33.0418C6.46151 36.0458 6.69581 37.0971 7.50565 37.4077C8.09231 37.6328 8.57227 38.5383 8.57227 39.4199C8.57227 40.3015 8.88136 41.2139 9.25916 41.4473C9.63695 41.6809 9.94605 42.7807 9.94605 43.8916C9.94605 45.4535 10.2575 45.9114 11.3198 45.9114C12.5625 45.9114 12.6936 45.4535 12.6936 41.1137C12.6936 38.4751 13.0668 34.921 13.523 33.2158L14.3523 30.1154H17.6443C20.0543 30.1154 20.9363 30.3809 20.9363 31.1061C20.9363 31.7806 21.8679 32.1642 23.8556 32.3079L26.7749 32.519L27.1183 36.9831L27.4617 41.4472L28.3203 33.4725C28.7926 29.0864 29.1789 24.0644 29.1789 22.3123V19.1267H32.2294C33.9072 19.1267 35.4396 19.3849 35.6347 19.7007C35.8299 20.0165 36.0434 22.7979 36.1093 25.8818C36.1751 28.9656 36.4974 31.4888 36.8253 31.4888C37.1533 31.4888 37.4216 32.8538 37.4216 34.5221C37.4216 36.1904 37.7682 37.6709 38.1918 37.8121C38.7052 37.983 39.0816 42.2389 39.3207 50.5748L39.6793 63.0808H41.3202C42.3798 63.0808 43.1811 63.6282 43.5823 64.6261C44.0443 65.7754 44.249 64.7635 44.3811 60.6771C44.7122 50.4392 46.2001 39.0434 47.2058 39.0434C47.5421 39.0434 47.773 36.9573 47.719 34.4076C47.5429 26.0935 47.2811 26.6813 51.1595 26.6813H54.5939V36.2557C54.5939 41.8979 54.876 46.0045 55.2808 46.2546C55.6586 46.4882 55.9677 47.279 55.9677 48.0121C55.9677 48.7453 56.32 49.3452 56.7506 49.3452C58.5351 49.3452 59.3589 46.8441 59.3803 41.3613C59.412 33.3218 59.8838 31.4888 61.9223 31.4888C62.853 31.4888 63.5347 31.1112 63.4723 30.6303C63.411 30.1581 63.3974 28.3038 63.4424 26.5096L63.5238 23.2474H66.9582H70.3927L70.3893 26.5096C70.3826 33.2605 71.125 50.3065 71.4391 50.6206C71.6191 50.8005 71.8027 46.6467 71.8473 41.3899C71.8918 36.1332 72.1238 27.6674 72.3625 22.5771L72.7968 13.322L75.5444 17.5919C77.5701 20.74 78.698 21.8634 79.8374 21.8678C81.2514 21.8717 81.3894 22.2101 81.459 25.8228C81.501 27.9948 81.4785 30.4683 81.4096 31.3197C81.3395 32.184 81.7609 33.0504 82.3639 33.2818C83.1594 33.5871 83.458 34.7167 83.498 37.5716C83.5278 39.7032 83.7081 41.0608 83.8987 40.5887C84.0892 40.1165 85.0897 39.7302 86.1219 39.7302H87.9988L88.8123 31.9272C89.2597 27.6356 89.6258 22.8453 89.6258 21.2821V18.4399H93.0603H96.4947L96.5643 24.1059C96.6027 27.2221 96.579 30.7763 96.5119 32.0039C96.4039 33.9762 96.5957 34.2359 98.1595 34.2359C99.9226 34.2359 99.9294 34.2591 99.9294 40.0736C99.9294 45.4534 100.037 45.9112 101.303 45.9112C102.419 45.9112 102.691 46.3944 102.753 48.4867C102.795 49.9031 102.773 51.7575 102.704 52.6074C102.558 54.4026 103.253 54.557 105.121 53.1443C107.101 51.6468 107.485 51.8535 107.485 54.4175C107.485 55.6964 107.911 57.5646 108.433 58.5692L109.38 60.3956L109.775 57.4458C109.992 55.8234 110.184 52.1972 110.201 49.3875C110.236 43.7152 111.319 40.417 113.148 40.417C114.019 40.417 114.354 39.8673 114.354 38.4367C114.354 37.0827 114.758 36.3506 115.633 36.1219C116.779 35.8225 116.947 34.8288 117.243 26.6397C117.547 18.2254 117.692 17.4131 119.055 16.5086C119.869 15.9678 120.536 14.8233 120.536 13.9655C120.536 12.2 121.697 11.572 124.963 11.572H127.217L127.713 18.955C127.986 23.0156 128.177 29.8704 128.138 34.1879C128.099 38.5054 128.343 42.214 128.68 42.4292C129.212 42.7696 129.726 48.9449 130.257 61.3639C130.345 63.4232 130.602 61.9112 130.899 57.5866C131.806 44.382 132.181 42.4773 133.878 42.4773C136.306 42.4773 137.021 41.1176 137.021 36.5023V32.1752H140.456H143.89V36.2832C143.89 41.1504 145.312 50.0316 146.091 50.0316C146.392 50.0316 146.638 54.8734 146.638 60.7912C146.638 66.709 146.785 71.404 146.964 71.2246C147.143 71.0451 147.494 63.8082 147.744 55.1424C148.17 40.3658 148.286 39.3098 149.62 38.1533C150.71 37.208 151.107 35.8854 151.324 32.4874C151.479 30.0493 151.879 28.0545 152.213 28.0545C152.547 28.0545 152.824 25.9684 152.829 23.4188C152.843 16.6165 153.216 15.6924 155.95 15.6924C157.206 15.6924 158.425 15.3833 158.658 15.0057C158.892 14.628 160.411 14.3189 162.033 14.3189H164.984L165.469 23.7621C165.735 28.9559 166.241 34.4991 166.592 36.0804C166.943 37.6616 167.259 42.6744 167.293 47.2198L167.355 55.4843L169.736 55.9309C171.045 56.1766 172.241 56.2529 172.394 56.1007C172.876 55.6181 173.327 50.5591 173.378 45.0524L173.426 39.7299H175.83H178.235V32.8621V25.9942H181.669C185.622 25.9942 185.231 24.6849 185.106 37.4978C185.06 42.2026 185.297 45.2241 185.713 45.2241C186.088 45.2241 186.49 46.3831 186.608 47.7996C186.809 50.2351 186.961 50.3866 189.397 50.5882L191.972 50.8012V46.639V42.4768H194.033C195.166 42.4768 196.094 42.1424 196.094 41.734C196.094 41.3255 197.135 41.6347 198.407 42.4208C199.68 43.2071 201.534 43.8504 202.529 43.8504C204.24 43.8504 204.336 43.6674 204.336 40.4165C204.336 37.0017 204.349 36.9825 206.569 36.975C207.797 36.9711 209.942 36.7788 211.336 36.5484L213.871 36.1293L213.911 26.454C213.943 18.4042 214.131 16.6796 215.029 16.1772C215.817 15.7364 216.079 14.6168 216.002 12.0283C215.944 10.0784 215.923 7.16966 215.955 5.5643L216.014 2.64539H219.448H222.883L222.919 5.5643C222.938 7.16966 222.923 12.4504 222.884 17.2993C222.842 22.5211 223.106 26.4677 223.53 26.9792C223.978 27.5179 224.273 33.7609 224.317 43.5739C224.355 52.226 224.62 59.9232 224.906 60.6786L225.427 62.0522L225.834 60.6786C226.058 59.9232 226.455 55.0556 226.716 49.8618L227.189 40.4185H230.481C233.038 40.4185 233.842 40.6868 234.086 41.6204C234.259 42.2814 234.436 41.0839 234.48 38.9591C234.524 36.8344 234.753 34.1301 234.989 32.9497C235.389 30.9498 235.617 30.8036 238.339 30.8036H241.259L241.38 23.8017C241.446 19.9507 241.813 15.3421 242.195 13.5603C242.578 11.7785 242.834 9.9073 242.765 9.40195C242.696 8.89655 242.676 7.47869 242.721 6.25108C242.8 4.07558 242.881 4.01897 245.893 4.01897C248.909 4.01897 248.986 4.07325 249.052 6.25108C249.089 7.47869 249.187 9.10121 249.269 9.85668C249.351 10.6122 249.475 13.9344 249.544 17.2396L249.671 23.2489H251.636C253.494 23.2489 253.625 23.4459 254.034 26.8545C254.273 28.8376 254.47 34.8389 254.473 40.1907C254.477 45.5424 254.667 50.41 254.896 51.0075C255.39 52.2925 258.302 52.4752 258.529 51.2353C258.692 50.344 259.284 31.0319 259.286 26.511L259.288 23.9357H262.722C265.923 23.9357 266.157 24.0517 266.157 25.6445C266.157 27.107 266.553 27.4166 268.904 27.7926C270.415 28.034 271.677 28.4242 271.708 28.6592C271.739 28.8944 271.9 30.0137 272.066 31.1469C272.586 34.6819 273.591 53.4224 273.723 62.0521C273.859 70.9189 274.895 70.7815 275.018 61.8804C275.06 58.8281 275.372 56.9012 275.825 56.9012C276.254 56.9012 276.515 55.6787 276.448 53.9823C276.279 49.7181 276.33 49.5407 277.834 49.1476C278.925 48.8622 279.208 48.2108 279.208 45.977C279.208 43.2571 279.281 43.1656 281.463 43.1656C283.707 43.1656 283.722 43.1424 284.545 38.5297C285 35.98 285.346 32.2497 285.315 30.2402C285.283 28.2306 285.417 26.4265 285.612 26.231C286.335 25.5086 294.138 25.1473 294.552 25.8171C294.784 26.192 295.001 32.8756 295.035 40.6698C295.086 52.4912 295.26 54.8408 296.081 54.8408C296.643 54.8408 297.069 54.177 297.073 53.2956C297.079 51.6648 298.466 33.7333 298.813 30.8034C298.924 29.8591 299.041 28.7002 299.072 28.228C299.108 27.6631 300.302 27.3695 302.562 27.3695H305.996V33.894C305.996 39.2356 306.183 40.4184 307.027 40.4184C307.851 40.4184 308.057 41.4486 308.057 45.5693C308.057 48.5453 308.347 50.7202 308.744 50.7202C309.125 50.7202 309.431 48.8888 309.431 46.5994C309.431 44.3102 309.736 42.4788 310.118 42.4788C310.537 42.4788 310.805 39.2737 310.805 34.2373V25.996H314.616H318.428L318.358 17.2395C318.32 12.4234 318.304 7.78762 318.324 6.93773C318.356 5.54605 318.701 5.39245 321.794 5.39245H325.229V17.3621C325.229 27.0861 325.422 29.525 326.26 30.362C326.981 31.0834 327.29 32.8474 327.29 36.2486C327.29 38.9197 327.555 41.1052 327.88 41.1052C328.204 41.1052 328.695 34.6923 328.971 26.8544C329.246 19.0165 329.776 12.2358 330.148 11.7862C330.52 11.3365 330.766 10.4093 330.695 9.7258C330.624 9.04224 330.602 6.8435 330.645 4.83975L330.724 1.19649L333.987 1.40596L337.25 1.61542L337.615 15.3511C337.816 22.9057 338.048 28.5459 338.131 27.8849C338.215 27.2094 338.858 26.683 339.599 26.683C340.711 26.683 340.991 26.0058 341.379 22.3806C341.633 20.0143 341.735 15.8414 341.606 13.1075L341.371 8.13676L345.149 8.13829L348.927 8.13978L348.738 30.2885C348.634 42.4704 348.745 55.4506 348.984 59.1335C349.371 65.0914 349.562 65.8297 350.718 65.8297C351.673 65.8297 352.024 65.3287 352.039 63.941C352.133 55.2025 352.987 42.7446 353.515 42.4115C353.873 42.1857 354.126 39.2495 354.077 35.887C354.028 32.5246 354.008 29.2327 354.033 28.5716C354.07 27.5933 354.717 27.3698 357.513 27.3698C360.983 27.3698 361.364 27.7198 361.011 30.5802C360.956 31.0239 361.228 31.583 361.616 31.8226C362.004 32.0621 362.321 33.8933 362.321 35.8915C362.321 37.8897 362.521 41.8892 362.765 44.7791L363.21 50.0337H366.09H368.97L369.428 31.7151C369.68 21.6399 369.988 13.2944 370.113 13.1697C370.237 13.0451 371.781 13.1423 373.543 13.3819C376.329 13.7638 376.746 14.0324 376.746 15.4445C376.746 16.8422 377.08 17.0681 379.15 17.0681H381.554L381.565 21.7039C381.572 24.9505 381.775 26.0309 382.241 25.3095C382.986 24.1568 383.072 25.5088 382.931 36.1324C382.863 41.3105 383.046 42.5674 383.918 42.902C384.507 43.1278 384.988 44.0341 384.988 44.9157C384.988 45.7974 385.298 46.7097 385.675 46.9432C386.053 47.1768 386.362 49.5128 386.362 52.1346V56.9015H388.339C390.773 56.9015 392.009 55.5196 391.84 52.9871C391.77 51.9293 391.745 48.5387 391.785 45.4525L391.857 39.8411L393.962 39.3789C396.066 38.9168 396.067 38.9154 395.971 34.3451C395.918 31.8307 395.898 24.906 395.927 18.9567L395.979 8.13992L399.585 8.13946L403.191 8.13904L402.954 11.5696C402.77 14.2275 402.963 15.0949 403.812 15.4208C404.626 15.7331 404.909 16.7826 404.909 19.4881C404.909 21.6328 405.235 23.2434 405.701 23.3988C406.177 23.5573 406.624 25.9178 406.82 29.2937C406.999 32.3906 407.367 34.9244 407.636 34.9244C407.906 34.9244 408.328 40.2405 408.573 46.738L409.019 58.5515L411.362 62.0798C413.187 64.8276 413.825 66.6582 414.246 70.3547L414.787 75.1013L415.256 72.0107C415.819 68.3064 416.447 54.5617 417.012 33.5509C417.338 21.4281 417.633 17.9799 418.381 17.5491C419.009 17.1866 419.334 15.7265 419.334 13.2566V9.51354H422.425C425.293 9.51354 425.516 9.64162 425.516 11.2948C425.516 12.4984 425.961 13.1925 426.889 13.4353C428.141 13.7627 428.265 14.3817 428.285 20.4104C428.3 24.8205 428.611 27.4272 429.219 28.2284C430.424 29.8154 431.011 29.7469 431.011 28.0189C431.011 26.7638 431.372 26.6308 434.273 26.817L437.536 27.0265L438.051 30.2887C438.335 32.0829 438.798 35.0189 439.082 36.8132C439.595 40.0651 439.605 40.0747 442.087 39.8597C445.126 39.5965 445.157 39.6884 445.827 50.8922C446.092 55.3306 446.576 58.9619 446.903 58.9619C447.229 58.9619 447.498 58.2665 447.5 57.4167C447.502 56.5668 447.913 55.0886 448.413 54.1319C448.912 53.1751 449.374 50.3936 449.439 47.9508C449.504 45.508 449.748 41.2653 449.982 38.5228C450.441 33.1286 451.125 32.4008 455.052 33.13C455.996 33.3056 457.465 33.4719 458.315 33.4999C459.74 33.5468 459.86 33.8713 459.86 37.6716C459.86 39.938 460.152 41.7924 460.509 41.7924C460.866 41.7924 461.264 43.2603 461.392 45.0546L461.625 48.3168L462.205 44.7112C462.672 41.805 463.042 41.1056 464.112 41.1056C465.325 41.1056 465.432 40.6131 465.351 35.4396C465.218 27.0086 465.256 26.6831 466.386 26.6831C467.225 26.6831 467.416 25.5385 467.416 20.5021V14.321H470.129H472.842L473.048 10.372L473.255 6.42298L476.517 6.21351C478.881 6.06207 479.78 6.2562 479.78 6.9189C479.78 7.42192 479.936 11.2248 480.127 15.3696C480.317 19.5144 480.775 30.6319 481.143 40.0752C481.512 49.5185 481.846 57.3994 481.886 57.5882C481.926 57.7771 482.22 57.0628 482.538 56.001C482.857 54.9391 483.148 47.9929 483.185 40.5651C483.241 29.4359 483.43 26.9603 484.264 26.4938C484.888 26.1446 485.275 24.8899 485.275 23.2149C485.275 20.5076 485.281 20.5019 488.023 20.5019C489.534 20.5019 490.77 20.1928 490.77 19.8152C490.77 19.4375 492.316 19.1284 494.205 19.1284H497.639L497.698 24.4509C497.73 27.3783 497.709 31.3761 497.65 33.3348L497.544 36.8961L500.167 37.1122L502.791 37.3283L503.283 41.7924C503.554 44.2476 503.799 48.6425 503.828 51.5586C503.882 56.9505 505.264 61.5619 506.141 59.2771C506.376 58.6643 506.569 55.5515 506.569 52.3598C506.569 47.9525 506.806 46.4658 507.554 46.1787C508.849 45.682 510.002 40.1321 510.007 34.3757C510.01 31.8446 510.21 27.224 510.453 24.1077L510.894 18.4418H513.883H516.872V12.2607V6.0797H520.307C523.132 6.0797 523.736 6.29302 523.71 7.28152C523.693 7.94253 523.875 22.6998 524.114 40.0755C524.353 57.4511 524.505 73.4445 524.452 75.6165C524.366 79.1445 524.503 79.5655 525.735 79.5655C527.029 79.5655 527.114 79.1135 527.124 72.1826C527.139 60.6297 527.857 29.3143 528.328 19.6436L528.755 10.8872H532.087H535.418V14.9507C535.418 17.1855 535.718 19.1171 536.085 19.243C536.452 19.3688 536.796 22.3307 536.851 25.8247C536.906 29.3187 537.224 32.1774 537.558 32.1774C537.892 32.1774 538.166 34.0317 538.166 36.2981V40.4188H540.84C543.703 40.4188 544.341 41.1447 544.357 44.424C544.372 47.3125 545.111 49.347 546.145 49.347C546.708 49.347 547.096 48.6267 547.096 47.581C547.096 46.6097 547.559 45.3514 548.126 44.7848C548.817 44.0939 549.159 42.3571 549.166 39.5113C549.171 37.1775 549.37 34.5402 549.608 33.6507C550 32.1854 550.303 32.0755 552.836 32.4803C554.373 32.726 555.711 33.0083 555.811 33.1076C555.91 33.2068 556.198 35.5106 556.45 38.227C556.84 42.4159 557.103 43.166 558.184 43.166C559.002 43.166 559.46 43.6592 559.46 44.5395C559.46 45.3026 559.917 45.9131 560.49 45.9131C561.462 45.9131 561.922 48.6428 561.559 52.2489C561.396 53.8657 563.64 61.7091 564.265 61.7091C564.867 61.7091 565.642 56.4866 565.642 52.428C565.642 50.8284 566.105 48.2058 566.672 46.5999C567.239 44.994 567.702 42.3642 567.702 40.756C567.702 37.3575 567.941 37.2327 575.773 36.5382L580.753 36.0966V40.583C580.753 43.0572 581.178 45.8887 581.701 46.8963L582.649 48.7232L583.112 46.2534C583.367 44.895 583.54 40.6314 583.497 36.7787C583.454 32.9259 583.436 26.4514 583.46 22.3908L583.503 15.0078H586.938H590.372L590.436 22.3908C590.473 26.4514 590.448 31.0872 590.387 32.6926C590.301 34.8526 590.534 35.6114 591.279 35.6114C592.818 35.6114 593.068 33.5073 593.075 20.4918C593.079 13.8872 593.093 6.70637 593.106 4.53442L593.124 0.585449H596.558H599.993L600.054 4.53442C600.084 6.70637 600.066 10.106 600.005 12.089C599.898 15.6476 599.923 15.6946 601.921 15.6946C604.502 15.6946 604.804 17.0308 604.804 28.4446V36.902L607.38 37.115L609.956 37.328L610.387 44.5392C610.624 48.5054 610.856 53.373 610.902 55.3561C611.009 59.9555 612.36 60.1145 612.36 55.5278C612.36 52.1701 612.403 52.0938 614.421 52.0938C615.554 52.0938 616.481 51.7846 616.481 51.407C616.481 51.0294 616.921 50.7203 617.459 50.7203C619.046 50.7203 619.841 46.7851 620.024 38.0148C620.119 33.482 620.384 29.0008 620.614 28.0564L621.03 26.3394L621.871 27.8847C622.957 29.8815 626.423 30.0163 627.448 28.1016C627.839 27.371 628.159 24.1259 628.159 20.8904V15.0076H631.593H635.028L635.07 22.0471C635.119 29.4106 635.293 32.4665 636.083 39.5222C636.521 43.4308 636.703 43.7937 638.324 43.9862C640.832 44.2845 641.153 46.1783 641.24 61.1636L641.314 74.071H642.893C645.134 74.071 645.295 72.646 645.396 51.891C645.445 41.9927 645.58 32.8124 645.698 31.4904C645.815 30.1683 645.935 26.5756 645.964 23.5065C646.025 17.0371 645.316 17.5308 655.76 16.6835L661.696 16.2019L662.078 21.2707C662.288 24.0585 662.659 30.589 662.902 35.7828C663.342 45.1544 663.358 45.226 664.984 45.226C666.617 45.226 666.624 45.2571 666.624 53.1241C666.624 60.4004 666.725 61.0221 667.917 61.0221C669.134 61.0221 669.236 60.076 669.654 45.0543C669.898 36.2721 670.273 27.3096 670.489 25.1376L670.88 21.1886H675.964H681.048L681.073 25.1376C681.085 27.3096 681.213 31.0955 681.357 33.5507C681.502 36.006 681.666 42.2643 681.724 47.4581L681.828 56.9013H683.5C684.877 56.9013 685.19 56.5377 685.275 54.841C685.448 51.3851 685.5 51.0758 685.965 50.7203C686.212 50.5314 686.521 45.6663 686.652 39.9088L686.889 29.4407L690.496 29.4368L694.102 29.4329V35.3157C694.102 38.5513 694.417 41.7887 694.804 42.5101C695.19 43.2314 695.801 47.9241 696.163 52.9383C696.524 57.9526 697.032 63.4458 697.29 65.1456C697.707 67.8854 697.854 67.3397 698.58 60.3382C699.031 55.9943 699.45 49.9677 699.511 46.9459C699.662 39.4563 700.267 35.614 701.295 35.614C701.765 35.614 703.308 33.8706 704.723 31.7398C707.997 26.8091 708.498 27.4998 708.529 36.9875C708.541 40.9537 708.957 45.744 709.451 47.6326L710.349 51.0666L711.265 43.1812C712.133 35.7124 712.905 33.5536 714.711 33.5536C715.144 33.5536 715.443 32.7037 715.374 31.665C715.09 27.3585 715.326 26.6858 717.113 26.6858C718.486 26.6858 718.83 26.3423 718.83 24.9688C718.83 23.3663 719.059 23.2518 722.264 23.2518H725.699L725.723 26.5141C725.735 28.3083 725.729 35.8028 725.717 43.1686C725.674 61.2092 726.188 67.206 727.763 67.206C728.76 67.206 729.031 66.3197 729.391 61.8834C729.629 58.956 729.802 54.2746 729.775 51.4803C729.751 48.6861 730.045 46.2036 730.433 45.9638C730.976 45.6278 731.856 34.8615 731.881 28.2311C731.881 27.6592 733.031 27.3726 735.319 27.3726H738.753V30.1197C738.753 32.6921 738.88 32.8668 740.742 32.8668C742.915 32.8668 742.949 32.9692 743.989 42.6535C744.413 46.5983 744.416 46.6025 746.735 46.6025C748.341 46.6025 749.057 46.9202 749.057 47.6326C749.057 48.1992 749.514 48.6628 750.074 48.6628C751.09 48.6628 751.442 47.6965 752.072 43.1686C752.88 37.3718 753.876 33.2844 754.588 32.8444C755.011 32.5831 755.295 31.7858 755.219 31.0727C755.143 30.3597 755.116 26.1449 755.158 21.7066L755.237 13.6369H758.672H762.106L762.13 21.3632C762.143 25.6126 762.271 31.0984 762.415 33.5536C762.559 36.0089 762.724 42.2979 762.782 47.5292C762.886 56.9498 762.901 57.0368 764.386 56.6384C765.211 56.4172 766.75 56.232 767.807 56.2268C769.618 56.2189 769.723 56.0508 769.659 53.2986C769.622 51.6932 769.923 47.1347 770.328 43.1686C770.734 39.2024 771.032 34.5666 770.991 32.8668C770.948 31.167 770.942 26.763 770.973 23.0801L771.034 16.384H774.468H777.902L777.984 23.0801C778.027 26.763 778.027 30.008 777.984 30.2913C777.941 30.5748 778.521 30.8065 779.277 30.8065C780.564 30.8065 780.65 31.2643 780.65 38.1321C780.65 51.5826 781.345 45.3564 782.522 21.3631L782.867 14.3237H785.929C789.719 14.3237 790.805 15.3534 791.081 19.2097C791.292 22.1497 791.359 22.2267 793.873 22.4348C796.019 22.6123 796.449 22.9044 796.449 24.1861C796.449 25.0321 796.795 26.0711 797.22 26.4951C797.68 26.9553 797.95 29.4814 797.891 32.7632C797.795 38.0432 798.621 40.4021 799.864 38.3925C800.219 37.8172 801.359 37.7084 803.565 38.039C806.649 38.5014 806.752 38.4602 806.752 36.7634C806.752 35.2329 807.079 34.9828 809.328 34.7968C812.308 34.5503 812.091 35.6248 812.188 20.6763L812.249 11.5764H815.644H819.039L819.386 19.9895C819.577 24.6167 819.918 33.0383 820.144 38.7043C820.37 44.3703 820.773 49.4696 821.039 50.0362C821.304 50.6028 821.676 46.4306 821.865 40.7647L822.209 30.4629L824.613 30.1195C827.012 29.7769 827.018 29.7679 827.223 25.8271L827.429 21.8781H830.829H834.23L834.223 25.8271C834.223 27.999 834.351 34.2574 834.514 39.7345C834.676 45.2115 834.832 53.0151 834.862 57.0757C834.892 61.5043 835.19 64.4587 835.602 64.4587C835.98 64.4587 836.289 63.686 836.289 62.7417C836.289 61.414 836.643 61.0248 837.85 61.0248C839.17 61.0248 839.541 60.4646 840.254 57.399C840.718 55.4049 841.097 52.7779 841.097 51.5613C841.097 50.3448 841.406 49.3494 841.784 49.3494C842.182 49.3494 842.475 47.1111 842.48 44.0268C842.492 37.3291 842.937 35.6138 844.663 35.6138C845.807 35.6138 845.992 35.1748 845.893 32.6949C845.829 31.0896 845.806 25.2176 845.845 19.6461L845.91 9.51601H849.344H852.779V16.0405C852.779 21.3821 852.966 22.5649 853.809 22.5649C854.569 22.5649 854.839 23.3588 854.839 25.5891V28.6133L858.332 28.8513C860.252 28.9821 861.952 28.9603 862.109 28.8031C862.267 28.6459 862.395 26.7141 862.395 24.5107V20.5045H865.486C868.119 20.5045 868.577 20.7081 868.577 21.8781C868.577 23.0685 869.035 23.2516 872.012 23.2516H875.446L875.528 26.5139C875.571 28.3081 875.577 29.9959 875.534 30.2646C875.497 30.5333 876.652 32.9464 878.106 35.627L880.751 40.5007L881.163 37.1988C881.389 35.3826 881.593 28.6787 881.616 22.3011C881.641 15.9235 881.824 10.4378 882.027 10.1107C882.229 9.78361 883.767 9.51596 885.445 9.51596H888.495L888.483 12.4348C888.465 17.0777 890.103 68.5759 890.263 68.3973C890.343 68.3085 890.631 60.5097 890.903 51.0664C891.175 41.6231 891.672 33.5557 892.007 33.1389C892.343 32.722 892.619 31.6403 892.622 30.7351C892.628 29.1638 893.806 11.4187 893.93 11.0612C893.961 10.967 895.381 10.8895 897.081 10.8895C899.92 10.8895 900.172 11.0293 900.172 12.6064C900.172 13.5508 900.481 14.3234 900.859 14.3234C901.237 14.3234 901.546 14.787 901.546 15.3536C901.546 15.9202 901.855 16.3837 902.233 16.3837C902.642 16.3837 902.919 19.0165 902.919 22.9082C902.919 26.659 903.202 29.4326 903.585 29.4326C903.951 29.4326 904.08 29.8761 903.872 30.418C903.592 31.149 904.173 31.4592 906.126 31.6198L908.758 31.8363L909.445 47.9687C910.039 61.9314 910.281 64.1295 911.241 64.3124C912.123 64.4802 912.437 63.7068 912.771 60.5421C913.29 55.6281 914.734 31.3198 914.56 30.4264C914.491 30.0686 914.47 26.9173 914.518 23.4233L914.599 17.0705H918.033H921.468L921.516 20.3327C921.541 22.1269 921.814 24.9857 922.117 26.6855C922.524 28.9691 922.69 27.2208 922.753 19.9893L922.839 10.2027H926.274C929.632 10.2027 929.708 10.2484 929.708 12.263C929.708 14.0944 929.937 14.3234 931.769 14.3234H933.829V18.7875V23.2516H936.136H938.442L938.883 27.473C939.126 29.7948 939.325 32.7211 939.325 33.9759C939.325 35.7216 939.567 36.1645 940.355 35.862C940.922 35.6448 941.385 35.8084 941.385 36.2268C941.385 36.645 941.83 36.9871 942.374 36.9871C943.272 36.9871 944.492 32.3865 944.105 30.4523C944.031 30.0801 944.007 28.9105 944.05 27.8529C944.131 25.9539 944.181 25.9326 948.081 26.136L952.031 26.3419L952.501 34.9268C953.065 45.1972 954.281 50.4339 954.376 42.9964L954.437 38.3607H956.841H959.245V28.7457V19.1307H962.615H965.985L966.386 22.393C966.607 24.1872 966.952 28.4366 967.154 31.8362C967.577 38.9728 968.055 41.7946 968.84 41.7946C969.689 41.7946 970.34 46.2503 970.31 51.8581C970.292 54.6578 970.579 56.9038 970.947 56.9038C971.311 56.9038 971.636 58.8354 971.669 61.1962C971.7 63.557 971.97 67.0339 972.264 68.9225C972.598 71.0636 972.833 65.0923 972.891 53.0616C972.94 42.4495 973.184 30.4737 973.43 26.4488L973.878 19.1307H976.764H979.65L980.094 24.3852C980.339 27.2752 980.539 32.5291 980.539 36.0606V42.4814H983.96C986.951 42.4814 987.424 42.2871 987.717 40.9361C988.212 38.6575 988.726 29.3038 988.755 22.0496L988.78 15.6969H992.214H995.649L995.71 33.3815C995.794 58.4812 995.38 55.8343 999.257 56.083L1002.52 56.2924V59.3453C1002.52 61.0244 1002.83 62.3982 1003.21 62.3982C1003.58 62.3982 1003.92 64.3298 1003.96 66.6906C1004.08 73.9358 1005.05 67.6092 1005.52 56.5606C1006.01 45.1611 1007.14 34.7816 1007.96 34.2658C1008.77 33.7601 1009.33 29.3839 1009.36 23.4233L1009.39 18.4441H1012.82H1016.26V21.1507C1016.26 22.6393 1016.53 24.0263 1016.86 24.2328C1017.72 24.7619 1018.34 28.4586 1018.29 32.6948L1018.25 36.3005H1020.94H1023.64L1024.05 39.5627C1024.27 41.3569 1024.66 48.3878 1024.91 55.187C1025.15 61.9862 1025.47 67.6779 1025.62 67.8353C1025.76 67.9926 1025.93 64.7476 1025.99 60.6241C1026.06 56.5005 1026.18 52.663 1026.26 52.0964C1026.35 51.5299 1026.45 46.6623 1026.49 41.2796L1026.56 31.493H1028.31C1029.31 31.493 1030.01 31.1254 1029.94 30.6345C1029.88 30.1623 1029.87 27.8444 1029.91 25.4836L1029.99 21.1912H1033.38C1036.37 21.1912 1036.79 21.3727 1036.99 22.7365C1037.16 23.9208 1037.73 24.332 1039.44 24.4969C1041.5 24.6955 1041.68 24.9089 1041.75 27.2441C1041.79 28.6367 1041.78 30.2895 1041.72 30.917C1041.66 31.5446 1041.93 32.2582 1042.33 32.5028C1042.76 32.7688 1043.05 35.9446 1043.05 40.3964V47.8451L1045.97 47.4643C1049.24 47.0372 1049.89 46.4123 1049.91 43.6836C1049.91 42.6448 1050.23 41.795 1050.6 41.795C1050.98 41.795 1051.29 41.1769 1051.29 40.4214C1051.29 39.6659 1051.6 39.0478 1051.98 39.0478C1052.36 39.0478 1052.66 37.6571 1052.66 35.9572C1052.66 34.2172 1052.99 32.8667 1053.4 32.8667C1053.81 32.8667 1054.08 32.1714 1054.01 31.3215C1053.94 30.4716 1053.92 28.7718 1053.96 27.5442C1054.04 25.3337 1054.07 25.3122 1057.47 25.3122C1060.76 25.3122 1060.91 25.3955 1060.93 27.2008C1060.95 28.2395 1061.07 30.9438 1061.21 33.2101C1061.36 35.4765 1061.52 41.0395 1061.57 45.5723C1061.69 55.9812 1062.07 58.2777 1063.64 58.2777C1065.13 58.2777 1065.56 55.4733 1065.69 44.8855C1065.74 40.7304 1066.07 37.2278 1066.44 37.1019C1066.8 36.9761 1067.09 35.6883 1067.09 34.2403C1067.09 32.7924 1067.4 31.5037 1067.78 31.3767C1068.6 31.1033 1069.83 23.691 1070.3 16.2123L1070.63 10.8897H1073.92H1077.2L1077.67 16.6015C1077.92 19.743 1078.12 25.5378 1078.1 29.4787C1078.06 42.5516 1078.87 54.157 1079.84 54.157C1080.51 54.157 1080.73 51.5797 1080.79 43.0812C1080.83 36.9895 1081.02 26.7135 1081.2 20.2456C1081.39 13.7778 1081.53 7.77365 1081.53 6.90304C1081.51 5.44178 1081.77 5.33623 1084.78 5.52947C1088.01 5.73661 1088.04 5.76349 1088.25 8.31423C1088.38 9.87618 1088.82 10.8897 1089.37 10.8897C1090.44 10.8897 1091.13 13.8915 1091.13 18.5591C1091.13 22.8575 1091.9 23.6576 1095.75 23.3493C1097.43 23.2142 1099.12 23.4054 1099.48 23.7746C1099.85 24.1437 1100.14 27.2544 1100.13 30.6871C1100.11 34.12 1100.4 37.1146 1100.77 37.3419C1101.13 37.5693 1101.43 40.5003 1101.43 43.8553C1101.43 47.2103 1101.74 50.1463 1102.12 50.3797C1102.56 50.6507 1102.85 48.2433 1102.92 43.7241C1102.98 39.8301 1103.1 34.9346 1103.2 32.8453C1103.36 29.0878 1104.16 8.27853 1104.17 7.28408C1104.18 7.00063 1105.73 6.769 1107.62 6.769H1111.05L1111.14 11.4048C1111.19 13.9545 1111.37 15.3452 1111.54 14.4953C1111.79 13.1701 1112.27 12.95 1114.88 12.95H1117.92V17.3134C1117.92 19.7132 1118.12 23.5764 1118.36 25.8982C1118.76 29.6877 1118.96 30.1196 1120.35 30.1196C1122.19 30.1196 1122.73 31.2804 1122.73 35.2694C1122.73 36.9069 1123.02 38.3496 1123.38 38.4755C1123.74 38.6013 1124.06 41.7949 1124.1 45.5723C1124.23 58.3333 1124.99 71.3266 1125.61 71.3266C1125.95 71.3266 1126.2 66.7681 1126.16 61.1966C1126.12 55.625 1126.11 50.3712 1126.13 49.5213C1126.16 48.1817 1126.53 47.976 1128.91 47.976H1131.66L1131.66 40.9365C1131.66 37.0647 1131.87 30.8837 1132.11 27.2008L1132.55 20.5047H1135.5C1137.12 20.5047 1138.62 20.7792 1138.83 21.1146C1139.03 21.4502 1139.21 24.3088 1139.23 27.4674C1139.28 39.1668 1140.05 48.6628 1140.95 48.6628C1142.14 48.6628 1142.59 46.1538 1143.1 36.8157C1143.34 32.3774 1143.8 28.746 1144.13 28.746C1144.45 28.746 1144.71 27.2008 1144.71 25.3122C1144.71 22.7176 1144.96 21.8783 1145.74 21.8783C1146.46 21.8783 1146.77 21.1533 1146.77 19.4745V17.068H1150.21C1152.1 17.068 1153.64 17.3771 1153.64 17.7548C1153.64 18.1324 1154.39 18.4415 1155.32 18.4415C1156.77 18.4415 1157.04 18.8278 1157.37 21.3604C1157.78 24.5567 1158.37 47.6323 1158.42 62.5673C1158.44 68.3852 1158.71 72.0106 1159.14 72.0106C1159.51 72.0106 1159.82 70.3324 1159.82 68.2811C1159.82 64.9363 1159.98 64.5289 1161.37 64.3321C1162.87 64.1183 1162.92 63.8758 1163.04 55.1844C1163.11 50.2739 1163.49 43.3203 1163.88 39.7318C1164.27 36.1434 1164.61 28.7472 1164.63 23.296C1164.65 17.8447 1164.94 13.0544 1165.27 12.6508C1165.6 12.2473 1165.89 9.96709 1165.92 7.58379C1165.95 5.20046 1166.15 2.95983 1166.37 2.60462C1166.59 2.2495 1168.14 1.95874 1169.82 1.95874C1172.85 1.95874 1172.87 1.97463 1172.87 4.36252C1172.87 6.46863 1173.08 6.76625 1174.59 6.76625C1175.53 6.76625 1176.33 7.15251 1176.35 7.62475C1176.38 8.09687 1176.36 10.8493 1176.31 13.7412C1176.26 16.6331 1176.54 20.8053 1176.94 23.0128C1177.59 26.6345 1177.9 31.5671 1178.41 46.2563L1178.57 51.0638L1179.08 46.5996C1179.35 44.1444 1179.62 38.8905 1179.67 34.9243C1179.79 24.9953 1179.93 24.6175 1183.43 24.6444C1187.78 24.6792 1188.83 25.8464 1188.74 30.5883C1188.7 32.7842 1188.86 36.2035 1189.09 38.1866C1189.49 41.6049 1189.62 41.7922 1191.5 41.7922C1193.48 41.7922 1193.48 41.7935 1193.48 46.2563V50.7204H1196.22C1198.83 50.7204 1198.97 50.8294 1198.97 52.8139C1198.97 53.9653 1199.63 56.2059 1200.44 57.793C1201.84 60.5523 1201.92 61.8296 1202.24 86.9482L1202.57 113.218H1200.08H1197.6L1197.54 104.118C1197.49 95.1678 1197.09 89.1348 1196.52 88.5577C1196.35 88.3965 1196.22 89.3977 1196.22 90.7827V93.3009H1192.79C1189.58 93.3009 1189.35 93.1865 1189.35 91.584C1189.35 90.1418 1189.03 89.867 1187.33 89.867C1186.22 89.867 1185.17 90.1053 1184.99 90.3969C1184.81 90.6881 1184.47 94.3197 1184.24 98.4666C1184.01 102.614 1183.65 108.247 1183.44 110.986L1183.05 115.965H1179.78H1176.51L1176.07 105.835C1175.83 100.263 1175.48 94.0049 1175.3 91.9274C1175.11 89.8499 1174.78 85.9867 1174.57 83.3426C1174.35 80.6985 1173.85 77.5025 1173.45 76.2403C1172.67 73.7832 1172.51 71.6016 1172.31 60.3599C1172.19 53.5159 1172.12 53.2304 1170.98 54.3739C1169.95 55.4052 1169.76 57.146 1169.63 66.7115C1169.55 72.8368 1169.14 83.5034 1168.73 90.4151C1168.32 97.3268 1168.02 105.826 1168.06 109.302C1168.11 112.778 1168.13 116.935 1168.11 118.54L1168.06 121.459H1164.63H1161.19L1161.12 118.54C1161.08 116.935 1161.1 114.772 1161.17 113.733C1161.29 111.961 1161.12 111.844 1158.5 111.844H1155.7L1155.66 103.431C1155.61 93.441 1155.23 89.1243 1154.31 88.2066C1153.94 87.8355 1153.64 86.5322 1153.64 85.3103C1153.64 84.0884 1153.36 82.3642 1153.03 81.4787C1152.4 79.8405 1151.36 55.5522 1151.55 47.1148C1151.61 44.1782 1151.38 42.479 1150.91 42.479C1149.93 42.479 1149.65 43.4347 1149.31 48.004C1149.16 50.0984 1148.71 52.4163 1148.33 53.1549C1147.94 53.8934 1147.49 57.0165 1147.32 60.0951C1147.1 63.9569 1146.67 66.0301 1145.92 66.7808C1144.72 67.9774 1144.2 72.5148 1143.67 86.4331C1143.49 91.1547 1143.34 95.3873 1143.34 95.8387C1143.34 96.3299 1142.02 96.7437 1140.07 96.869L1136.81 97.0784L1136.61 103.088L1136.41 109.097H1134.11C1131.3 109.097 1131.1 109.706 1131.01 118.524C1130.98 122.008 1130.64 125.66 1130.27 126.638C1129.9 127.616 1129.6 129.324 1129.6 130.432C1129.6 132.353 1129.46 132.448 1126.61 132.448H1123.62L1123.18 125.752C1122.94 122.069 1122.73 116.969 1122.73 114.42C1122.73 110.927 1122.49 109.784 1121.78 109.784C1120.59 109.784 1120 106.021 1119.91 97.7652C1119.87 94.3656 1119.31 87.2574 1118.67 81.9691C1117.61 73.2427 1117.45 72.6645 1117.02 75.7123C1116.76 77.5592 1116.55 80.8815 1116.55 83.0952V87.1201H1113.11H1109.68V80.2522C1109.68 76.1315 1109.4 73.3844 1108.99 73.3844C1108.58 73.3844 1108.3 76.2459 1108.3 80.5956C1108.3 84.9452 1108.03 87.8069 1107.62 87.8069C1107.24 87.8069 1106.93 89.2778 1106.93 91.0755C1106.93 93.6005 1106.62 94.5395 1105.56 95.2021C1104.55 95.8272 1104.18 96.8037 1104.18 98.8012V101.543H1100.82C1098.27 101.543 1097.34 101.254 1096.96 100.341C1096.69 99.6796 1096.21 92.8032 1095.9 85.0597C1095.59 77.3162 1095.32 70.7202 1095.29 70.402C1095.27 70.0838 1093.55 69.9292 1091.47 70.0585C1089.36 70.1898 1087.57 69.9904 1087.42 69.607C1087.27 69.2294 1087.13 75.8378 1087.1 84.2925C1087.08 92.7473 1086.97 99.7493 1086.86 99.8526C1086.75 99.9558 1085.24 100.252 1083.5 100.511C1080.98 100.887 1080.25 100.767 1079.93 99.9165C1079.7 99.3303 1079.34 95.0523 1079.13 90.4099C1078.92 85.7674 1078.58 80.0555 1078.36 77.7165C1077.99 73.5348 1077.94 73.4603 1075.8 73.2524C1074.01 73.0788 1073.65 72.7751 1073.82 71.5565C1073.93 70.7401 1073.7 69.872 1073.3 69.6273C1072.91 69.3828 1072.58 67.4495 1072.58 65.3313C1072.58 58.692 1071.97 61.7401 1071.51 70.6671C1071.27 75.3723 1070.72 81.3853 1070.28 84.0295L1069.49 88.837L1066.53 89.0507C1063.58 89.2629 1063.56 89.2808 1063.67 91.7978C1063.99 98.8282 1064.01 98.7955 1060.32 98.7955H1057L1056.5 79.4038C1056.04 61.4826 1055.87 58.9153 1055.16 59.706C1054.94 59.9462 1054.1 73.1284 1054.05 76.9901C1054.04 77.9031 1053.46 78.192 1051.64 78.192C1049.35 78.192 1049.23 78.3064 1049.23 80.5957C1049.23 81.9178 1048.92 82.9994 1048.55 82.9994C1048.13 82.9994 1047.86 86.1493 1047.86 91.0691C1047.86 95.5075 1047.65 102.616 1047.41 106.865L1046.96 114.592H1043.63H1040.3L1040.24 104.461C1040.21 98.8899 1040.23 92.686 1040.3 90.6751C1040.39 87.5911 1040.2 86.9647 1039.08 86.673C1037.9 86.3626 1037.72 85.433 1037.32 77.6238C1037.07 72.8369 1036.87 65.8844 1036.87 62.1739C1036.87 56.1205 1036.74 55.4508 1035.67 55.6553C1034.91 55.7986 1034.38 56.6459 1034.23 57.9355C1034.1 59.0642 1033.73 60.1497 1033.41 60.3476C1033.09 60.5455 1032.67 63.6371 1032.47 67.2177C1031.7 80.9424 1031.16 86.4333 1030.59 86.4333C1030.27 86.4333 1030 89.4852 1030 93.2153V99.9973L1027.85 100.427C1026.67 100.663 1024.55 100.856 1023.14 100.856H1020.58L1020.14 96.22C1019.9 93.6703 1019.7 88.88 1019.7 85.5749L1019.7 79.5655H1017.02C1013.71 79.5655 1013.71 79.5676 1013.13 66.8461C1012.89 61.5655 1012.62 57.1691 1012.53 57.0762C1012.45 56.9835 1011.99 62.7008 1011.51 69.7817C1010.61 83.1825 1009.79 87.8069 1008.3 87.8069C1007.61 87.8069 1007.41 90.4267 1007.38 99.3105C1007.37 105.638 1007.15 114.136 1006.9 118.197L1006.45 125.58H1003.54C1000.84 125.58 1000.61 125.432 1000.21 123.434C999.97 122.253 999.777 119.008 999.777 116.223C999.777 111.278 999.734 111.158 998.059 111.158C996.555 111.158 996.342 110.86 996.342 108.754C996.342 106.648 996.129 106.35 994.625 106.35C993.004 106.35 992.908 106.141 992.908 102.619C992.908 99.4912 992.686 98.8175 991.534 98.4521C990.737 98.1994 990.141 97.3862 990.113 96.5171C990.089 95.6927 989.976 93.6274 989.865 91.9276C989.754 90.2278 989.615 81.2029 989.556 71.8722C989.455 55.827 988.812 50.4448 987.802 57.1802C987.474 59.3649 986.981 60.2881 986.008 60.5428C984.798 60.859 984.663 61.5314 984.643 67.3108C984.63 70.8402 984.316 75.8912 983.945 78.5353C983.573 81.1795 983.078 84.9488 982.844 86.9117C982.463 90.12 982.238 90.5017 980.623 90.6891C979.188 90.8557 978.82 91.2722 978.795 92.7603C978.777 93.7848 978.546 94.8408 978.28 95.1068C978.014 95.3727 977.796 97.8182 977.796 100.541C977.796 108.669 977.452 109.557 974.133 110.002C972.573 110.211 971.224 110.309 971.134 110.22C971.045 110.13 970.642 107.149 970.239 103.594C969.836 100.039 969.175 96.9254 968.769 96.6744C968.363 96.4233 967.869 94.7891 967.672 93.0426C967.475 91.2961 967.085 89.8672 966.805 89.8672C966.229 89.8672 965.185 74.9335 965.377 69.4354C965.452 67.2922 965.21 65.8297 964.781 65.8297C964.383 65.8297 964.058 65.0571 964.058 64.1128C964.058 62.187 962.393 61.7484 961.722 63.4973C961.49 64.103 960.877 64.4365 960.36 64.2382C959.613 63.9517 959.325 65.5249 958.957 71.8933C958.402 81.4905 957.876 93.9858 957.876 97.5749C957.876 99.884 957.688 100.169 956.159 100.169C955.023 100.169 954.442 100.551 954.442 101.3C954.442 102.291 953.787 102.375 949.15 101.984C946.239 101.737 943.595 101.273 943.273 100.952C942.952 100.631 942.694 97.4706 942.7 93.9291C942.706 88.2879 942.498 87.1269 940.991 84.558C940.046 82.9453 939.013 81.6258 938.696 81.6258C938.18 81.6258 937.52 88.2285 937.291 95.6789C937.242 97.1756 937.131 98.4762 937.038 98.5692C936.945 98.6623 935.491 98.8285 933.807 98.9383C930.806 99.1346 930.74 99.0937 930.529 96.9066C930.127 92.7418 929.232 94.6495 928.77 100.652C928.517 103.94 927.985 106.832 927.586 107.078C927.187 107.325 926.91 109.348 926.97 111.574C927.031 113.8 927.054 116.935 927.025 118.54L926.97 121.459H923.536H920.101V118.884C920.095 111.517 919.326 88.6292 919.037 87.2915C918.781 86.1093 918.221 85.7463 916.655 85.7463C914.646 85.7463 914.607 85.814 914.583 89.3519C914.565 91.3349 914.117 93.7301 913.577 94.6744C913.002 95.6805 912.585 98.3106 912.571 101.027L912.541 105.663H909.187H905.833L905.316 100.34C905.032 97.4129 904.855 93.433 904.924 91.4961C904.993 89.5591 904.694 84.6142 904.26 80.5075C903.826 76.4008 903.425 71.9591 903.369 70.637C903.282 68.5894 903.003 68.2025 901.477 68.0255C899.694 67.8183 899.685 67.7868 899.208 59.8042C898.763 52.3647 898.501 50.7299 897.87 51.4643C897.735 51.6216 897.251 64.5762 896.795 80.252C895.474 125.642 895.227 131.404 894.593 131.646C894.264 131.772 893.995 132.777 893.995 133.878C893.995 135.824 893.897 135.881 890.56 135.881H887.126L887.04 125.923C886.938 114.148 886.985 114.67 886.019 114.051C884.845 113.297 884.456 108.809 883.983 90.5537C883.744 81.2993 883.443 72.6458 883.314 71.3238C883.186 70.0017 882.863 66.5249 882.598 63.5975C882.047 57.5394 880.979 56.4758 880.873 61.8805C880.724 69.5297 880.253 74.6789 879.53 76.5683C879.116 77.65 878.627 81.9346 878.444 86.0896C877.963 97.004 878.065 96.7348 874.405 96.7348C872.431 96.7348 871.307 96.4268 871.27 95.8763C871.24 95.4041 871.102 94.3997 870.967 93.6442C870.192 89.3124 869.238 76.9222 869.235 71.1521C869.235 67.2653 868.951 64.456 868.562 64.456C868.194 64.456 867.869 65.9239 867.84 67.7182C867.81 69.5124 867.682 71.5364 867.553 72.2159C867.424 72.8955 867.122 77.9949 866.882 83.5479C866.279 97.5301 866.488 96.9139 862.439 96.6274L859.104 96.3914L858.789 99.6687C858.616 101.471 858.326 103.095 858.145 103.277C857.963 103.458 856.372 103.41 854.611 103.168L851.407 102.729L851.408 98.5299C851.408 96.2204 851.28 90.3132 851.123 85.4027C850.966 80.4922 850.812 74.0794 850.779 71.1519L850.718 65.8293H848.314C846.084 65.8293 845.902 65.9905 845.793 68.0614C845.728 69.289 845.642 70.8278 845.601 71.4808C845.559 72.1339 845.15 73.0455 844.689 73.5068C844.227 73.9681 843.85 75.0202 843.85 75.845C843.85 76.7277 843.326 77.4815 842.576 77.6775C841.475 77.9653 841.244 78.979 840.877 85.1406C840.644 89.0621 840.432 96.2607 840.406 101.138C840.376 106.015 840.24 110.197 840.095 110.432C839.95 110.667 839.653 112.38 839.434 114.238C839.216 116.097 838.728 117.926 838.352 118.302C837.975 118.679 837.667 119.869 837.667 120.947C837.667 122.858 837.584 122.902 834.405 122.698L831.142 122.489L830.932 119.227C830.785 116.936 830.427 115.964 829.73 115.964C828.734 115.964 828.464 108.375 828.734 87.9719C828.804 82.6834 828.63 81.541 827.701 81.1846C827.087 80.9491 826.295 81.0459 825.94 81.4003C825.586 81.7546 824.926 86.895 824.474 92.8234L823.653 103.602H820.357H817.06L817.018 99.3099C816.963 93.366 816.697 89.0467 815.667 77.449C814.789 67.5671 814.756 67.4391 813.196 67.7373C811.787 68.0067 811.617 68.4236 811.634 71.5701C811.646 73.512 811.333 77.2825 810.941 79.949C810.55 82.6154 810.232 88.9134 810.235 93.9445C810.235 98.9756 810.1 103.233 809.927 103.405C809.756 103.577 808.321 103.891 806.741 104.103C803.176 104.581 802.657 103.893 802.643 98.6722C802.637 96.1332 802.273 94.4128 801.602 93.7421C800.909 93.0497 800.571 91.3268 800.571 88.4876V84.2632L798.339 84.7475C795.409 85.383 795.036 86.0561 795.119 90.5534C795.156 92.6309 795.162 95.9533 795.137 97.9364L795.082 101.542H791.684H788.285L788.033 97.9364C787.895 95.9533 787.689 100.666 787.576 108.41C787.464 116.153 787.255 125.888 787.112 130.044C786.969 134.199 786.849 139.839 786.846 142.577L786.839 147.556H783.818C781.196 147.556 780.747 147.338 780.383 145.886L780.368 145.887Z" fill="black"/>
</svg>
