<svg width="1205" height="148" viewBox="0 0 1205 148" fill="none" xmlns="http://www.w3.org/2000/svg">
<path d="M1140.92 143.062C1140.89 140.89 1140.77 137.876 1140.66 136.366C1140.55 134.855 1140.4 124.115 1140.33 112.5L1140.2 91.3812H1137.23C1134.41 91.3812 1134.23 91.2599 1133.83 89.1492C1133.61 87.9215 1133.39 82.9767 1133.36 78.1607C1133.3 70.0896 1133.2 69.4041 1132.02 69.4041C1130.95 69.4041 1130.7 70.021 1130.53 73.0098L1130.32 76.6154L1127.05 76.825C1123.51 77.0523 1123.44 76.9506 1123.77 71.9929C1123.95 69.2281 1123.23 67.5379 1121.71 67.1391C1120.56 66.8387 1120.36 66.1839 1120.35 62.7726C1120.35 58.7917 1120.34 58.7752 1119.32 60.7265C1118.76 61.8084 1118.3 63.5855 1118.3 64.6755C1118.3 66.5665 1118.16 66.6574 1115.21 66.6574H1112.11V70.4346V74.212H1108.3C1106.05 74.212 1104.64 73.9426 1104.88 73.5567C1105.11 73.1959 1105.08 69.1785 1104.82 64.6284C1104.47 58.3722 1104.13 56.3556 1103.43 56.3556C1102.92 56.3556 1102.5 56.0467 1102.5 55.6688C1102.5 55.291 1102.04 54.982 1101.47 54.982C1100.76 54.982 1100.44 55.6958 1100.44 57.2851C1100.44 58.5517 1100.24 61.4877 1100 63.8095L1099.56 68.0309H1096.61C1094.39 68.0309 1093.59 67.7378 1093.36 66.8291C1093.18 66.168 1093.01 66.7864 1092.96 68.2026C1092.9 70.2606 1092.62 70.778 1091.56 70.778C1090.22 70.778 1089.85 72.3247 1089.28 80.3931C1089.11 82.7399 1089.03 82.8017 1085.89 83.0042L1082.67 83.2113L1082.26 80.2568C1081.79 76.8356 1081.41 69.8825 1081.19 60.1327L1081.02 53.2648L1080.47 58.0724C1079.65 65.1633 1079.2 73.527 1079.17 82.6249L1079.15 90.6946H1075.77C1072.4 90.6946 1072.4 90.6942 1072.02 88.1191C1071.81 86.7026 1071.46 81.526 1071.24 76.6155C1071.02 71.7051 1070.51 64.8286 1070.1 61.3346L1069.36 54.9819H1066.41C1064.15 54.9819 1063.39 54.6985 1063.19 53.78C1063.05 53.119 1062.71 56.5731 1062.44 61.4559C1062.17 66.3387 1061.76 71.0518 1061.54 71.9294C1061.1 73.6862 1059.22 74.0107 1056.18 72.8552C1054.47 72.2042 1054.42 72.0109 1054.42 65.9562C1054.42 60.2581 1054.28 59.5832 1052.73 58.0412C1051.51 56.8152 1050.3 56.3554 1048.31 56.3554C1046.8 56.3554 1045.38 56.0464 1045.15 55.6686C1044.91 55.2908 1044.28 54.9819 1043.73 54.9819C1042.94 54.9819 1042.74 56.3278 1042.74 61.8497V68.7175H1039.31C1036.02 68.7175 1035.87 68.6371 1035.88 66.8288C1035.88 64.9687 1035.82 64.9437 1032.1 65.1754L1028.32 65.4107L1028.25 58.9944C1028.2 55.4655 1028.23 51.7589 1028.29 50.7576C1028.35 49.7563 1028.08 48.7336 1027.67 48.485C1027.27 48.2363 1026.92 48.4362 1026.9 48.9316C1026.6 55.1762 1026.27 55.9827 1022.49 59.4457L1018.75 62.8795L1018.74 76.2719C1018.73 83.6376 1018.53 93.45 1018.27 98.0772L1017.81 106.49H1014.53H1011.25L1010.91 101.168C1010.73 98.2403 1010.38 87.1917 1010.15 76.6152C1009.79 60.1507 1009.43 55.8886 1008.03 51.2043C1007.91 50.8264 1007.79 52.3718 1007.76 54.6381C1007.72 56.9045 1007.5 59.9178 1007.27 61.3343L1006.84 63.9097H1001.78H996.72V59.1881V54.4665L994.574 54.0374C989.88 53.0988 989.388 53.3384 988.914 56.7946C988.674 58.5471 988.477 61.174 988.477 62.6322V65.2835H985.417C982.464 65.2835 982.342 65.2 981.907 62.8798C981.474 60.5735 981.335 60.476 978.49 60.476H975.525L975.005 56.527C974.72 54.3551 974.557 51.939 974.645 51.158C974.769 50.0599 974.221 49.5591 972.231 48.9483C970.816 48.5138 969.536 48.2802 969.387 48.4285C968.704 49.1113 966.988 72.6518 967.554 73.5679C967.783 73.9384 966.332 74.2114 964.133 74.2114H960.315L960.233 63.3945C960.19 57.4453 960.203 52.1914 960.264 51.7192C960.336 51.1543 959.415 50.8607 957.567 50.8607C955.719 50.8607 954.797 51.1545 954.87 51.7192C955.265 54.7577 954.73 57.7286 953.789 57.7286C952.971 57.7286 952.759 58.7206 952.759 62.536V67.3435H949.416H946.074L945.467 57.6105C945.047 50.885 944.594 47.7903 944.001 47.5949C943.421 47.4042 943.142 48.1117 943.142 49.7734C943.142 51.503 942.836 52.2343 942.112 52.2343C941.368 52.2343 941.082 52.9974 941.082 54.9814C941.082 56.9655 940.795 57.7286 940.051 57.7286C939.484 57.7286 939.021 58.1923 939.021 58.7587C939.021 59.4446 938.335 59.7889 936.968 59.7889C933.09 59.7889 932.152 61.4101 932.152 68.1138V74.073L928.889 74.3692C927.095 74.5325 925.395 74.5453 925.111 74.3936C924.828 74.2467 924.55 70.8219 924.493 66.7835C924.438 62.7453 924.262 60.291 924.104 61.3298C923.837 63.0963 923.599 63.2184 920.43 63.2184C917.499 63.2184 917.041 63.0326 917.041 61.8449C917.041 61.0894 916.754 60.4713 916.403 60.4713C916.053 60.4713 915.553 58.7715 915.294 56.694L914.822 52.9167H912.153H909.485V61.4137V69.9107L906.822 70.3367L904.159 70.7627L903.387 75.947C902.963 78.7983 902.616 84.8273 902.616 89.3446V97.5578H899.182C896.388 97.5578 895.738 97.3335 895.697 96.3559C895.667 95.6949 895.583 93.7633 895.504 92.0635C895.425 90.3637 895.293 86.5427 895.21 83.5724L895.06 78.1719L891.969 78.6351L888.878 79.0982L888.797 76.4807C888.755 75.0411 888.755 73.6314 888.797 73.3481C888.84 73.0647 888.569 72.8331 888.191 72.8331C887.814 72.8331 887.504 71.4564 887.504 69.7738C887.504 66.821 887.421 66.6987 885.1 66.2634L882.696 65.8124V59.3644C882.696 55.818 882.721 52.7192 882.757 52.4781C882.847 51.809 881.127 50.8784 879.779 50.8666C879.032 50.8605 878.577 51.3754 878.577 52.2296C878.577 53.2369 878.119 53.6032 876.86 53.6032C875.325 53.6032 875.143 53.8841 875.143 56.2545C875.143 57.7126 874.946 60.3396 874.706 62.0921C874.312 64.9652 874.091 65.2785 872.461 65.2785C870.963 65.2785 870.123 66.1224 867.574 70.1899L864.496 75.1012L863.981 66.9276C863.253 55.3763 863.363 55.6635 859.675 55.6635C857.896 55.6635 856.597 55.9822 856.597 56.4182C856.597 56.8332 856.11 58.1975 855.516 59.4497C854.715 61.1371 854.493 63.3427 854.657 67.9682L854.879 74.2098L851.273 74.2084C847.725 74.2071 847.667 74.1719 847.667 72.1465C847.667 71.0133 847.358 70.0862 846.98 70.0862C846.584 70.0862 846.293 67.9358 846.293 65.0088C846.293 61.1291 846.05 59.8381 845.263 59.536C844.519 59.2508 844.232 58.0851 844.232 55.3419C844.232 51.5213 843.589 50.7148 841.893 52.4103C840.886 53.4168 840.232 60.8268 839.73 76.8954C839.534 83.1602 839.241 90.2948 839.077 92.75C838.914 95.2052 838.771 98.3731 838.758 99.7895L838.74 102.365H835.688C834.01 102.365 832.495 102.133 832.321 101.85C831.936 101.224 831.085 80.1818 831.127 72.3415C831.164 65.8098 830.835 64.5919 829.048 64.5919C828.013 64.5919 827.748 64.0873 827.748 62.1146C827.748 60.0827 827.541 59.7165 826.601 60.0775C825.053 60.6717 824.337 59.3382 824.324 55.8354C824.312 52.9363 823.455 51.957 822.684 53.965C822.463 54.5415 822.102 57.5549 821.881 60.6611C821.249 69.5674 821.327 69.3993 817.821 69.3993C815.393 69.3993 814.703 69.1263 814.354 68.0258C814.113 67.2703 813.644 66.6522 813.308 66.6522C812.973 66.6522 812.583 64.5661 812.44 62.0164C812.282 59.188 812.151 60.5938 812.103 65.622C812.06 70.1548 812.008 75.1769 811.987 76.7822L811.951 79.7011H808.516H805.082L805.033 76.7822C805.002 75.1769 805.027 71.5993 805.082 68.8321C805.169 64.2816 805.045 63.7653 803.758 63.4294C802.737 63.1625 802.338 62.5021 802.338 61.0778C802.338 59.3354 802.091 59.0976 800.277 59.0976C798.675 59.0976 798.217 59.403 798.217 60.4712C798.217 61.2266 797.908 61.8447 797.53 61.8447C797.152 61.8447 796.843 62.7719 796.843 63.9051C796.843 65.8019 796.652 65.9654 794.439 65.9654C792.388 65.9654 792.035 66.1976 792.035 67.5451C792.035 68.4138 791.711 69.4483 791.315 69.8438C790.857 70.3015 790.477 78.6635 790.268 92.8168C790.088 105.056 789.765 117.929 789.55 121.423L789.159 127.776H786.229H783.3L782.847 119.706C782.598 115.268 782.38 106.634 782.362 100.519C782.344 94.0589 782.055 89.3093 781.672 89.1816C781.276 89.05 781.014 82.7113 781.016 73.343C781.016 59.3014 780.619 55.6366 779.423 58.7542C779.205 59.321 778.554 59.7843 777.975 59.7843C777.397 59.7843 776.923 60.2914 776.923 60.9105C776.923 62.6692 774.792 63.8594 771.6 63.8832L768.68 63.9076L768.572 58.2416C768.511 55.1254 768.478 52.1894 768.496 51.7172C768.514 51.2449 767.934 50.8587 767.208 50.8587C766.483 50.8587 765.711 50.3949 765.494 49.8285C764.624 47.5624 764.011 49.0771 763.548 54.636C763.129 59.669 762.887 60.4737 761.799 60.4737C758.451 60.4737 758.429 60.6668 758.408 90.3697C758.396 105.653 758.189 119.859 757.945 121.938L757.501 125.718H754.504H751.508L751.484 122.456C751.471 120.662 751.321 116.258 751.15 112.669C750.789 105.098 750.18 74.8181 750.152 63.0491L750.134 54.9794H748.408C747.377 54.9794 746.656 54.5675 746.605 53.9493C746.556 53.3825 746.441 52.61 746.347 52.2323C746.252 51.8545 746.137 50.0002 746.09 48.1116C746.005 44.7095 744.63 43.0925 744.63 46.3946C744.63 47.339 744.242 48.1116 743.767 48.1116C742.654 48.1116 741.441 51.0441 740.885 55.0774C740.459 58.1727 740.357 58.2884 737.387 59.0363C735.483 59.5153 734.327 60.1924 734.327 60.8269C734.327 61.3882 733.902 61.8472 733.384 61.8472C732.819 61.8472 732.269 62.9242 732.011 64.5368C731.775 66.016 731.302 67.3296 730.962 67.4556C730.621 67.5818 730.139 69.8405 729.89 72.4751C729.642 75.1097 729.379 77.319 729.306 77.3846C729.234 77.4505 727.789 77.6126 726.096 77.7455C723.158 77.9758 722.996 77.8923 722.571 75.9264C722.325 74.7932 722.088 71.0074 722.044 67.5133L721.962 61.1606H718.613C715.412 61.1606 715.246 61.0661 714.835 59.0144C714.599 57.834 714.406 55.9797 714.406 54.8937C714.406 53.0114 714.262 52.9192 711.315 52.9192C708.716 52.9192 708.224 53.1306 708.224 54.2493C708.224 55.2478 707.668 55.6329 705.992 55.7945C703.815 56.0041 703.754 56.0992 703.552 59.6154L703.345 63.221H699.945H696.547V59.5229V55.8247L692.082 56.183L687.617 56.5413L687.545 54.5587C687.502 53.4682 687.526 51.7213 687.599 50.6768C687.751 48.3889 686.183 44.5859 685.219 44.9016C684.839 45.026 684.432 46.2626 684.315 47.6499C684.188 49.147 683.74 50.1723 683.212 50.1723C682.291 50.1723 681.452 56.1442 681.442 62.7704C681.438 65.4882 681.192 66.1609 680.098 66.447C679.055 66.7194 678.714 67.5028 678.553 69.9883L678.346 73.1795L674.74 68.7254L671.134 64.2712V58.9387C671.134 54.0968 671.009 53.6062 669.785 53.6062C668.55 53.6062 668.419 54.1718 668.239 60.2807L668.042 66.9553L666.328 63.7176C664.616 60.4855 664.612 60.4832 664.102 62.3656C663.821 63.4027 663.613 67.3555 663.639 71.1495C663.664 74.9436 663.469 80.2748 663.201 82.9966L662.713 87.9454H659.459H656.207L655.728 95.7135C655.465 99.986 655.288 106.553 655.334 110.308C655.383 114.062 655.399 122.001 655.377 127.95L655.334 138.767L651.728 138.767L648.122 138.767L648.103 122.456C648.073 94.7987 647.67 72.016 647.117 67.3419C646.827 64.8866 646.547 63.7277 646.495 64.7664C646.408 66.5318 646.2 66.6551 643.323 66.6551C639.846 66.6551 639.929 66.8044 639.184 59.1784C638.948 56.766 638.313 54.3487 637.771 53.8067C636.914 52.9506 636.785 53.2345 636.785 55.9702C636.785 57.7021 636.498 59.6558 636.148 60.3117C635.798 60.9675 635.344 62.045 635.139 62.7061C634.857 63.6192 634.019 63.9079 631.655 63.9079H628.542V60.1306C628.542 58.0531 628.233 56.3533 627.855 56.3533C627.477 56.3533 627.168 55.5549 627.168 54.5791C627.168 51.989 625.499 52.8846 625.231 55.6184L625.01 57.8682L621.796 57.3898C620.028 57.1265 618.505 56.837 618.41 56.7463C618.315 56.6555 618.187 55.2936 618.126 53.72C618.014 50.8798 617.995 50.859 615.379 50.859H612.744V54.6578C612.744 57.401 612.457 58.5665 611.713 58.852C611.147 59.0696 610.683 59.8323 610.683 60.5473C610.683 61.6063 610.174 61.8475 607.936 61.8475C605.655 61.8475 605.188 62.0791 605.188 63.2079C605.188 64.0864 604.58 64.7211 603.471 64.9993C602.526 65.2364 601.754 65.676 601.754 65.9763C601.754 66.2767 600.208 66.6295 598.319 66.7603C595.494 66.956 594.884 66.7969 594.884 65.87C594.885 64.5092 593.504 63.9078 590.379 63.9078C588.65 63.9078 587.757 63.4641 586.922 62.1908C586.303 61.2465 585.214 60.4739 584.502 60.4739C583.387 60.4739 583.207 59.9376 583.207 56.6165C583.207 52.9514 583.131 52.7797 581.662 53.1732C580.812 53.4011 579.885 53.5913 579.601 53.5968C579.318 53.6007 579.086 56.8081 579.086 60.7215C579.086 64.6349 578.89 69.2708 578.649 71.0233L578.212 74.2097H574.871H571.53V67.3203C571.53 61.83 571.321 60.3506 570.5 60.0355C569.816 59.7729 569.466 58.6832 569.459 56.7949C569.453 55.2299 569.036 52.5687 568.531 50.8811C567.815 48.4851 567.139 47.6192 565.45 46.9301C563.45 46.1141 563.287 46.1513 563.287 47.4231C563.287 48.3575 562.83 48.7987 561.862 48.7987C560.734 48.7987 560.462 49.1936 560.561 50.6873C560.855 55.1518 560.568 56.3533 559.205 56.3533C558.127 56.3533 557.831 56.9121 557.66 59.2721C557.455 62.1028 557.361 62.2094 554.529 62.8036L551.61 63.4163V66.7526V70.0889H548.176H544.742L544.66 61.3324C544.616 56.5163 544.616 52.3441 544.66 52.0608C544.705 51.7774 544.433 51.5459 544.055 51.5459C543.677 51.5459 543.368 51.0821 543.368 50.5157C543.368 49.8781 542.722 49.4855 541.672 49.4855C540.166 49.4855 539.986 49.7622 540.068 51.9503C540.119 53.3059 539.82 54.6253 539.404 54.8823C538.77 55.2742 536.101 92.2222 536.54 94.5212C536.607 94.871 536.625 96.0065 536.581 97.0453C536.503 98.843 536.334 98.934 533.065 98.934C529.784 98.934 529.629 98.8492 529.598 97.0453C529.58 96.0065 529.568 90.5208 529.571 84.8549C529.576 77.0378 529.404 74.9673 528.857 76.2701C528.432 77.2833 527.985 87.2769 527.766 100.651C527.562 113.182 527.098 123.888 526.728 124.598C526.19 125.633 525.532 125.81 523.324 125.514C521.819 125.312 520.44 125 520.261 124.821C520.081 124.642 519.752 121.602 519.528 118.067C519.305 114.532 518.89 111.485 518.606 111.296C518.187 111.017 517.515 94.2659 517.004 71.3251L516.923 67.6853L514.004 67.4744L511.084 67.2635V62.839C511.084 59.3638 510.863 58.4143 510.054 58.4143C509.371 58.4143 508.989 57.6628 508.921 56.1823C508.825 54.1048 508.798 54.0811 508.532 55.8386C508.284 57.4713 507.93 57.7273 505.917 57.7273H503.589L503.387 62.7065L503.185 67.6856L500.643 67.8965L498.101 68.1074L497.919 94.6808C497.818 109.296 497.725 125.195 497.713 130.011L497.69 138.767H494.043C491.965 138.767 490.566 138.492 490.792 138.127C491.009 137.775 490.985 135.767 490.737 133.663C490.314 130.064 490.177 129.839 488.41 129.839C486.54 129.839 486.531 129.815 486.049 123.658L485.566 117.477L483.041 117.477L480.517 117.477L480.657 105.903C480.735 99.537 480.612 92.1196 480.386 89.4199L479.974 84.5113H477.087H474.2L473.756 77.8151C473.512 74.1323 473.311 69.651 473.309 67.8568L473.306 64.5945H470.558C467.876 64.5945 467.811 64.5397 467.811 62.1908C467.811 60.512 467.5 59.7871 466.78 59.7871C466.208 59.7871 465.75 59.1766 465.75 58.4135C465.75 57.658 465.441 57.04 465.063 57.04C464.685 57.04 464.376 56.5762 464.376 56.0098C464.376 55.443 463.783 54.9796 463.058 54.9796C460.535 54.9796 459.568 54.182 459.568 52.1018C459.568 50.7732 459.267 50.1569 458.709 50.341C457.781 50.6475 456.997 55.691 456.888 62.0568L456.82 66.0434L453.558 65.8338L450.295 65.6241L449.951 59.6363C449.658 54.5285 449.457 53.7448 448.578 54.3032C448.011 54.6634 446.079 54.9627 444.285 54.9684L441.022 54.9806V59.7881C441.022 64.2094 440.906 64.5956 439.584 64.5956C438.723 64.5956 438.001 65.1471 437.786 65.9692C437.49 67.1029 436.849 67.3428 434.118 67.3428C431.036 67.3428 430.79 67.2136 430.524 65.4541C430.366 64.4153 430.152 65.6515 430.049 68.2012C429.945 70.7509 429.783 73.146 429.688 73.5238C429.594 73.9017 429.478 75.4468 429.431 76.9577C429.373 78.7891 429.03 79.7049 428.4 79.7049C427.342 79.7049 426.897 81.4333 426.278 87.9462C426.044 90.4015 425.693 93.7238 425.496 95.3291L425.139 98.248H422.131C420.476 98.248 418.953 97.9737 418.746 97.6386C418.538 97.3034 418.325 90.2725 418.271 82.0143C418.182 68.1804 417.341 50.7959 417.089 57.556L416.981 60.4749H413.546H410.112L410.03 56.5259C409.986 54.3539 409.999 52.1906 410.06 51.7185C410.121 51.2461 409.896 50.86 409.558 50.86C408.951 50.86 408.061 60.9121 408.054 67.8578C408.052 70.6679 407.814 71.4634 406.977 71.4634C406.356 71.4634 405.967 71.9693 406.054 72.6653C406.136 73.3263 405.961 75.7987 405.665 78.1595C405.083 82.7909 404.946 82.8955 400.581 82.0227C398.62 81.6309 398.434 81.3634 398.434 78.9322C398.434 77.0245 398.143 76.2709 397.404 76.2709C396.837 76.2709 396.349 75.7298 396.318 75.069C396.287 74.408 396.197 72.7855 396.118 71.4634C396.039 70.1414 395.909 66.6646 395.83 63.7371L395.687 58.4145H392.253H388.818V55.6674C388.818 54.1565 388.519 52.9203 388.153 52.9203C387.787 52.9203 387.666 52.4565 387.883 51.8901C388.18 51.1159 387.768 50.86 386.224 50.86C383.51 50.86 383.344 51.6283 383.333 64.2865C383.327 69.9714 383.038 74.9163 382.69 75.2751C382.341 75.634 381.975 80.2543 381.876 85.5424C381.777 90.8307 381.563 95.6983 381.399 96.3593C381.174 97.2702 380.391 97.5612 378.166 97.5612C375.642 97.5612 375.172 97.3303 374.817 95.9194C374.591 95.0164 374.386 88.0627 374.363 80.4667L374.321 66.6559H370.58H366.838V60.8934V55.131L364.413 54.8476C363.079 54.6915 361.843 54.7098 361.666 54.8902C361.488 55.0675 361.343 58.0971 361.343 61.6225V68.0323H359.045H356.748L356.279 81.9396C356.021 89.5887 355.619 98.3967 355.384 101.513L354.958 107.179H351.625H348.292L348.236 101.513C348.205 98.3967 348.083 94.9199 347.964 93.7866C347.845 92.6535 347.7 85.8937 347.641 78.765C347.527 64.8784 347.411 64.4063 343.91 63.5277C342.92 63.279 342.11 62.8003 342.11 62.4635C342.11 62.1265 341.363 61.8512 340.45 61.8512C339.537 61.8512 338.659 61.4648 338.499 60.9927C338.339 60.5204 337.978 67.397 337.697 76.2737C337.417 85.1504 337.079 93.3403 336.946 94.4735C336.594 97.4904 335.933 116.808 335.93 124.177C335.927 130.05 335.825 130.53 334.567 130.53C332.97 130.53 332.603 131.762 331.855 139.629C331.828 139.913 331.033 140.144 330.089 140.144C328.639 140.144 328.372 140.465 328.372 142.205C328.372 144.181 328.249 144.265 325.354 144.265C323.275 144.265 322.211 143.937 321.932 143.211C321.71 142.631 321.504 135.352 321.475 127.034C321.434 115.291 321.223 111.836 320.528 111.569C319.653 111.234 318.897 98.2497 318.664 79.5358L318.58 72.8396H315.314C311.265 72.8396 311.222 72.719 311.209 61.3361C311.203 56.1914 310.933 52.9229 310.513 52.9229C310.135 52.9229 309.826 54.6227 309.826 56.7002V60.4776H306.352H302.878L302.96 67.1736C303.005 70.8565 303.023 76.1104 302.999 78.849L302.956 83.8282H299.608C296.407 83.8282 296.24 83.7337 295.83 81.682C295.594 80.5016 295.401 76.3693 295.401 72.4991V65.4624L291.279 64.9962L287.158 64.53V61.4736C287.158 58.875 286.952 58.4172 285.784 58.4172C284.639 58.4172 284.397 57.932 284.329 55.4984C284.285 53.893 284.285 52.3477 284.329 52.0644C284.374 51.781 283.638 51.5494 282.693 51.5494C281.306 51.5494 280.976 51.2094 280.976 49.7821C280.976 47.1732 278.926 47.9111 277.974 50.8627C277.435 52.5318 276.726 53.3334 275.654 53.4857C273.711 53.7618 273.544 54.5566 273.117 65.6285C272.928 70.539 272.764 74.7112 272.753 74.9001C272.743 75.089 271.188 75.1365 269.299 75.0055L265.864 74.7678V71.0568C265.864 67.3828 265.844 67.3458 263.782 67.3458C262.565 67.3458 261.536 66.918 261.305 66.3156C261.079 65.7281 260.055 65.2855 258.922 65.2855H256.935L256.862 58.9327C256.75 49.1785 256.979 49.8611 253.73 49.6245L250.87 49.4161L250.804 59.5827C250.748 68.3685 249.831 85.8154 249.025 93.4434C248.885 94.7655 248.753 96.079 248.732 96.3623C248.71 96.6457 247.147 96.8773 245.258 96.8773H241.823L241.768 85.3737C241.737 79.0466 241.647 72.7884 241.568 71.4663C241.488 70.1442 241.359 66.2038 241.28 62.7098L241.137 56.357H239.076C237.942 56.357 237.015 56.048 237.015 55.6703C237.015 55.2924 236.112 54.9835 235.009 54.9835C233.339 54.9835 232.927 54.6392 232.55 52.9232C232.232 51.4748 231.691 50.8628 230.73 50.8628C228.908 50.8628 227.629 49.4891 226.821 46.6631C226.272 44.7444 226.154 45.4536 226.147 50.7245C226.142 54.2368 225.826 57.4859 225.445 57.9447C225.065 58.4036 224.566 62.9469 224.337 68.0414C223.9 77.7521 223.6 79.7077 222.544 79.7077C222.192 79.7077 221.904 81.871 221.904 84.5152V89.3226H218.469H215.035L214.991 81.5963C214.966 77.3469 214.985 71.0062 215.031 67.506C215.077 64.0058 214.903 58.9836 214.643 56.3457C214.183 51.6796 214.119 51.5496 212.272 51.5496C211.103 51.5496 210.197 52.0079 209.916 52.7413C209.664 53.3967 209.274 58.665 209.048 64.4487L208.637 74.9645L205.279 74.7603L201.921 74.5562L201.573 65.2846C201.208 55.5892 200.685 52.8962 198.339 48.6301C196.315 44.9505 194.985 45.2348 195.125 49.317C195.186 51.1111 195.209 54.6653 195.176 57.2149L195.115 61.8507H191.68H188.246V58.0734C188.246 55.9959 187.937 54.2961 187.559 54.2961C187.181 54.2961 186.872 54.9142 186.872 55.6697C186.872 56.8601 186.414 57.0433 183.438 57.0433C181.549 57.0433 180.003 56.7343 180.003 56.3565C180.003 55.9786 179.54 55.6697 178.973 55.6697C178.406 55.6697 177.943 55.3608 177.943 54.9829C177.943 54.6051 177.512 54.2961 176.986 54.2961C175.878 54.2961 175.195 52.8335 175.195 50.4626C175.195 49.5492 174.886 48.8018 174.508 48.8018C174.13 48.8018 173.821 47.5657 173.821 46.0547C173.821 44.1207 173.528 43.3076 172.832 43.3076C172.287 43.3076 171.651 43.6166 171.417 43.9944C171.184 44.3722 170.428 44.6811 169.737 44.6811C168.102 44.6811 167.602 47.0828 167.232 56.6999C167.073 60.8549 166.77 65.2904 166.56 66.5565C166.2 68.7181 166.033 68.8417 163.817 68.5831C162.477 68.4264 161.427 68.6196 161.387 69.0279C161.349 69.4241 161.203 71.4483 161.065 73.5258C160.926 75.6033 160.626 78.9257 160.399 80.9087L159.985 84.5144H156.6H153.215L153.168 79.1918C153.142 76.2643 153.106 71.2422 153.088 68.0316C153.07 64.8208 152.916 63.0438 152.746 64.0826C152.459 65.8333 152.199 65.9712 149.185 65.9712C147.397 65.9712 145.563 65.6006 145.109 65.147C144.6 64.6388 144.285 62.1405 144.285 58.6226C144.285 55.2803 144.001 52.9223 143.598 52.9223C143.22 52.9223 142.911 54.3131 142.911 56.0128V59.1034H139.477H136.042V54.2959V49.4884H133.982C131.942 49.4884 131.921 49.525 131.921 53.2657C131.921 56.1609 131.591 57.3726 130.51 58.4541C129.258 59.7055 129.107 60.658 129.177 66.8672C129.394 86.1032 129.315 87.1458 127.628 87.3854C126.249 87.581 126.074 88.0142 126.006 91.409C125.964 93.5013 125.708 97.2872 125.436 99.8221L124.943 104.431H122.642C118.344 104.431 118.189 103.869 118.133 88.0709C118.106 80.26 118.018 72.4785 117.939 70.7786C117.86 69.0789 117.728 65.1385 117.646 62.0222C117.51 56.8641 117.373 56.3563 116.122 56.3563C115.367 56.3563 114.749 56.0472 114.749 55.6695C114.749 55.2916 114.13 54.9827 113.375 54.9827C112.101 54.9827 111.662 54.0034 111.938 51.7722C111.993 51.3286 111.72 50.7695 111.332 50.5298C110.945 50.2897 110.627 49.0307 110.627 47.7309C110.627 45.668 110.409 45.3677 108.91 45.3677C107.651 45.3677 107.193 45.734 107.193 46.7412C107.193 47.4967 106.924 48.1149 106.595 48.1149C106.267 48.1149 105.839 49.5208 105.645 51.2393C105.452 52.9578 105.118 54.5393 104.903 54.7538C104.689 54.9683 103.107 55.3022 101.388 55.4959C98.2785 55.8463 98.2632 55.861 98.2632 58.5059C98.2632 59.9677 97.9541 61.1637 97.5763 61.1637C97.1729 61.1637 96.8894 63.543 96.8894 66.9279C96.8894 71.5505 96.6742 72.7746 95.8029 73.1089C94.206 73.7216 90.8445 73.6166 90.4268 72.9407C90.2278 72.619 90.0291 67.3454 89.9852 61.2218C89.9291 53.4335 89.6646 49.9989 89.1043 49.7915C87.7295 49.2826 84.1843 50.5724 84.1326 51.6001C83.4491 65.175 82.649 75.6013 82.0747 78.4168C81.728 80.1163 81.5268 80.1977 78.4799 79.8706C76.7047 79.6804 75.2027 79.4879 75.1421 79.444C75.0818 79.4013 74.8347 74.5738 74.5937 68.7196C74.2103 59.4075 73.6243 56.025 72.5786 57.089C72.4178 57.2523 72.0889 71.4485 71.8479 88.6352C71.6068 105.822 71.2417 120.447 71.0364 121.136C70.722 122.19 70.2138 122.314 67.8061 121.923C66.2347 121.669 64.7378 121.26 64.4796 121.015C64.2215 120.771 63.8475 115.162 63.6485 108.552C63.4495 101.942 63.1278 92.9792 62.9335 88.6352C62.7393 84.2914 62.3862 74.5562 62.1491 67.0016C61.9119 59.447 61.6978 52.8796 61.6734 52.4075C61.649 51.9333 60.7581 51.549 59.6828 51.549C57.7817 51.549 57.7366 51.4612 57.7366 47.7717C57.7366 43.7303 57.5292 43.4169 55.9195 45.0263C55.2511 45.6945 54.9268 47.2074 54.9992 49.3187C55.0607 51.112 55.0836 53.7381 55.0498 55.1546L54.9888 57.73H51.5543H48.1199L48.0385 55.1546C47.994 53.7381 47.994 52.3474 48.0385 52.0641C48.083 51.7807 47.8334 51.5491 47.4834 51.5491C47.1333 51.5491 46.7055 51.0079 46.5327 50.3472C46.2335 49.2026 46.2148 49.2026 46.1389 50.3472C46.0877 51.1183 45.4961 51.5491 44.4882 51.5491C43.3544 51.5491 42.8849 51.9763 42.8015 53.0842C42.7379 53.9285 42.363 54.7269 41.9684 54.8583C41.5738 54.99 41.251 56.4625 41.251 58.1307V61.164H37.8165C34.611 61.164 34.3821 61.0495 34.3821 59.4471C34.3821 57.9427 34.0844 57.7301 31.9779 57.7301H29.5738V52.9227C29.5738 49.1072 29.3612 48.1152 28.5435 48.1152C27.9024 48.1152 27.5131 48.7637 27.5131 49.8321C27.5131 51.4092 27.2613 51.5491 24.4221 51.5491C22.0862 51.5491 21.3311 51.8093 21.3311 52.6152C21.3311 53.4697 20.6156 53.64 17.7249 53.4737C14.7331 53.3018 14.1531 53.0611 14.3206 52.0642C14.4592 51.2389 14.0731 50.8623 13.0884 50.8623C12.2997 50.8623 11.7046 51.2487 11.7659 51.7208C11.8272 52.1931 11.8408 53.7382 11.7958 55.1547C11.7297 57.2452 11.4557 57.7301 10.3406 57.7301C9.06811 57.7301 8.95889 58.2238 8.8593 64.4263C8.80018 68.1092 8.67608 71.895 8.58355 72.8394C8.49103 73.7837 8.1859 77.106 7.90542 80.2223C7.46638 85.101 7.21835 85.8882 6.12048 85.8882C5.00914 85.8882 4.83918 86.4836 4.79654 90.524C4.76972 93.0737 4.61125 100.105 4.4446 106.148C4.27796 112.192 4.14539 122.313 4.15008 128.641L4.15861 140.144H2.09852H0.0378418V92.1493C0.0378418 44.252 0.0407207 44.1539 1.45414 43.7843C2.75852 43.443 2.86349 42.9349 2.78255 37.3515C2.73439 34.0171 2.71513 29.8209 2.73988 28.0267L2.78498 24.7645H5.876H8.96701V22.063C8.96701 19.6308 9.15529 19.338 10.856 19.1263C11.8949 18.9971 13.5644 19.102 14.566 19.3567C16.2892 19.7973 16.4114 19.6596 16.8405 16.7991L17.2939 13.776H20.3428H23.3917V17.4674C23.3917 21.9344 24.0347 25.4513 24.8514 25.4513C25.1819 25.4513 25.4524 24.8332 25.4524 24.0777C25.4524 23.302 25.9104 22.7042 26.5043 22.7042C27.0829 22.7042 27.7341 22.2403 27.9516 21.6739C28.2285 20.9524 29.3541 20.6438 31.7079 20.6438C34.611 20.6438 35.0689 20.4567 35.0689 19.2702C35.0689 18.0798 35.5268 17.8967 38.5034 17.8967C41.8615 17.8967 41.9378 17.9454 41.9378 19.957C41.9378 21.2946 42.2856 22.0174 42.9292 22.0174C43.4745 22.0174 44.4018 22.7042 44.9899 23.5437L46.0592 25.0701V23.4636C46.0592 22.1328 46.3244 21.9282 47.6047 22.2713C48.4547 22.4992 50.0002 22.6893 51.0391 22.6948C52.7382 22.7009 52.9281 22.9459 52.9281 25.1079C52.9281 26.43 53.2372 27.5117 53.615 27.5117C54.0025 27.5117 54.3019 25.5658 54.3019 23.0476C54.3019 19.0414 54.4428 18.5835 55.6757 18.5835C56.8484 18.5835 57.0494 18.1258 57.0494 15.4553V12.3272L60.3122 12.5368L63.5749 12.7465L64.2618 22.0181L64.9487 31.2896L65.2921 24.7652L65.6355 18.2408L68.8521 18.0329C72.0382 17.8275 72.0707 17.8471 72.2865 20.0932C72.4863 22.1718 72.7193 22.3788 75.0803 22.5742L77.6561 22.7875V26.8668C77.6561 29.1284 77.9621 30.946 78.343 30.946C78.7747 30.946 79.0299 26.4818 79.0299 18.9273V6.90856H82.4644C85.2582 6.90856 85.9082 7.13283 85.9491 8.11047C85.9765 8.77152 85.9978 11.6302 85.996 14.4632C85.9933 18.9381 86.0939 19.3663 86.7652 17.7254C87.438 16.0813 87.917 15.8368 90.4663 15.8368H93.3946L93.5965 20.816L93.7983 25.7952L96.7175 26.006C99.4461 26.2035 99.6368 26.1023 99.6368 24.4608C99.6369 23.4947 99.946 22.7043 100.324 22.7043C100.702 22.7043 101.011 22.0862 101.011 21.3307C101.011 20.1808 101.469 19.9571 103.823 19.9571C106.057 19.9571 106.708 19.675 106.994 18.5836C107.291 17.4466 107.931 17.21 110.707 17.21C113.444 17.21 114.062 17.4312 114.061 18.4119C114.061 19.428 114.591 19.577 117.496 19.3758C120.797 19.1473 120.93 19.207 120.93 20.921C120.93 24.038 122.789 23.0121 123.299 19.6138L123.762 16.5233H126.811H129.86V19.2704C129.86 20.7813 130.169 22.0175 130.547 22.0175C130.925 22.0175 131.234 21.5537 131.234 20.9873C131.234 20.209 132.073 19.9571 134.668 19.9571H138.103V22.7884C138.103 25.2272 138.246 25.5011 139.133 24.7646C139.879 24.146 140.163 22.5088 140.163 18.8429V13.7761H143.598H147.032V18.2402C147.032 22.0811 147.205 22.7043 148.269 22.7043C148.949 22.7043 149.799 22.9627 150.158 23.2778C150.517 23.5929 152.279 23.7166 154.073 23.552C157.146 23.2699 157.336 23.137 157.336 21.2616C157.336 20.1664 157.645 19.2704 158.023 19.2704C158.4 19.2704 158.71 18.4978 158.71 17.5535C158.71 15.9764 158.961 15.8365 161.801 15.8365C164.09 15.8365 164.892 16.1034 164.892 16.8667C164.892 17.5534 165.578 17.8969 166.952 17.8969C168.196 17.8969 169.013 18.2546 169.013 18.7991C169.013 19.4772 170.037 19.6274 173.134 19.4031L177.256 19.1051L177.266 21.0762C177.274 22.6014 177.427 22.8144 177.942 22.0173C178.309 21.4505 178.613 19.0555 178.619 16.6947L178.629 12.4023H181.72C184.748 12.4023 184.811 12.4511 184.821 14.6344C184.834 17.8969 185.526 19.957 186.608 19.957C187.259 19.957 187.559 19.0909 187.559 17.2099V14.4626H190.993H194.428V20.2872C194.428 25.926 194.482 26.1255 196.143 26.5423C198.747 27.1956 199.923 26.4357 199.923 24.0991C199.923 22.2438 200.147 22.0173 201.983 22.0173C203.117 22.0173 204.044 21.7278 204.044 21.374C204.044 21.0199 205.049 20.6339 206.276 20.5155C208.137 20.3363 208.545 19.9853 208.726 18.4116C208.931 16.6359 209.146 16.523 212.332 16.523C215.489 16.523 215.721 16.6406 215.721 18.24C215.721 19.2642 216.114 19.9569 216.695 19.9569C217.231 19.9569 218.158 20.1446 218.756 20.3737C219.663 20.7217 219.844 20.1824 219.852 17.1115C219.868 10.9761 220.228 10.3419 223.701 10.3419C225.919 10.3419 226.711 10.6131 226.711 11.3721C226.711 12.1352 227.513 12.4022 229.803 12.4022H232.894L232.948 16.3512C232.978 18.5232 233.158 19.9139 233.348 19.4417C233.539 18.9694 234.596 18.5832 235.698 18.5832C237.466 18.5832 237.702 18.3413 237.702 16.523C237.702 14.5084 237.778 14.4626 241.136 14.4626C244.494 14.4626 244.571 14.5053 244.571 16.523C244.571 18.5375 244.647 18.5832 248.005 18.5832C250.6 18.5832 251.44 18.3316 251.44 17.5531C251.44 16.79 252.241 16.523 254.531 16.523H257.622V12.7456V8.96832H261.056H264.491V13.7758V18.5832H267.898H271.306L271.504 24.5372C271.638 28.5416 271.984 30.5842 272.561 30.7755C273.124 30.962 273.42 30.33 273.42 28.9423C273.42 27.2825 273.717 26.8247 274.794 26.8247C275.884 26.8247 276.17 26.3633 276.178 24.5926C276.195 20.986 277.165 20.1378 278.564 22.5061C279.7 24.4294 279.931 24.5071 283.628 24.2092C285.758 24.0373 287.604 23.6284 287.73 23.3006C287.856 22.9721 288.861 22.704 289.963 22.704C291.95 22.704 291.966 22.6735 291.966 18.6394C291.966 12.8778 292.26 12.4021 295.818 12.4021C298.712 12.4021 298.835 12.4856 298.835 14.4626C298.835 16.3514 299.031 16.5229 301.191 16.5229C303.112 16.5229 303.588 16.8087 303.767 18.0681C303.944 19.3094 304.494 19.6553 306.563 19.8265C308.248 19.9661 309.138 20.3817 309.138 21.0284C309.138 21.572 309.448 22.0171 309.825 22.0171C310.235 22.0171 310.512 19.3845 310.512 15.4927V8.96827H313.603H316.694V5.53429V2.10045H320.129H323.563L323.586 5.70604C323.598 7.68912 323.596 18.3514 323.581 29.4L323.554 49.4885H325.175H326.796L327.249 64.7694C327.499 73.174 327.728 83.9907 327.76 88.8068C327.792 93.6229 328.097 97.5633 328.438 97.5633C328.779 97.5633 329.058 99.1601 329.058 101.112C329.058 103.063 329.179 104.531 329.327 104.374C329.701 103.977 330.394 93.4997 330.804 82.0732C330.992 76.8056 331.453 66.1601 331.827 58.4167C332.201 50.6731 332.656 41.2471 332.838 37.4698C333.02 33.6925 333.172 29.7521 333.174 28.7133C333.178 27.2841 333.514 26.8246 334.553 26.8246C335.76 26.8246 335.927 26.3669 335.927 23.0473V19.2699H339.361H342.796V23.0473C342.796 25.8692 343.045 26.8246 343.78 26.8246C344.327 26.8246 344.892 27.6643 345.051 28.7133C345.209 29.7521 345.384 25.8888 345.44 20.1285L345.543 9.65501H348.978H352.412V17.8964C352.412 22.9328 352.679 26.1379 353.099 26.1379C353.477 26.1379 353.786 25.6741 353.786 25.1076C353.786 24.4155 354.478 24.0774 355.896 24.0774C358.926 24.0774 359.968 22.684 359.968 18.6322C359.968 15.9942 360.218 15.1493 360.998 15.1493C361.565 15.1493 362.029 14.6856 362.029 14.1192C362.029 13.4408 362.707 13.0889 364.016 13.0889C365.148 13.0889 366.173 12.6459 366.398 12.0588C366.616 11.492 367.455 11.0286 368.262 11.0286C369.258 11.0286 369.609 10.7099 369.352 10.0412C369.105 9.39588 369.496 8.97946 370.481 8.83929C371.823 8.64854 372.011 8.15376 372.193 4.33247L372.397 0.0400391H375.456H378.514L378.582 4.67589C378.619 7.22555 378.717 9.92977 378.799 10.6852C378.881 11.4407 379.005 14.3392 379.074 17.1264L379.201 22.1941L382.807 21.72C384.791 21.4591 386.517 20.9559 386.643 20.6013C386.769 20.2466 387.333 19.9567 387.897 19.9567C388.739 19.9567 388.882 18.9764 388.698 14.4608L388.474 8.96492L392.016 8.9665C395.21 8.96797 395.523 9.10177 395.202 10.3307C394.599 12.6366 395.575 15.1492 397.074 15.1492C398.128 15.1492 398.434 15.6136 398.434 17.2095C398.434 18.3428 398.743 19.2699 399.121 19.2699C399.513 19.2699 399.808 21.3058 399.808 24.0039C399.808 27.5784 400.06 28.8348 400.838 29.1332C401.485 29.3812 401.869 30.4316 401.869 31.9539C401.869 33.6518 402.178 34.3791 402.899 34.3791C403.466 34.3791 403.929 34.0482 403.929 33.6433C403.929 33.2387 404.379 32.4583 404.928 31.9095C405.477 31.3604 406.135 29.0605 406.391 26.7982C406.9 22.2975 406.99 22.2248 412.516 21.8567L415.263 21.6739L415.856 17.7249L416.449 13.7758H419.406H422.363L422.742 18.4116C423.498 27.6387 423.988 30.9454 424.6 30.9454C424.943 30.9454 425.223 28.5116 425.223 25.537C425.223 22.5624 425.416 19.1628 425.652 17.9824C426.052 15.9827 426.281 15.8362 429.001 15.8362C431.721 15.8362 431.95 15.9825 432.35 17.9824C432.586 19.1628 432.779 21.3082 432.779 22.7499V25.3712L437.587 24.9684C441.755 24.6192 442.395 24.7155 442.395 25.6952C442.395 26.3165 442.704 26.8249 443.082 26.8249C443.46 26.8249 443.769 26.3392 443.769 25.7457C443.769 24.6745 445.326 22.7042 446.173 22.7042C447.024 22.7042 448.577 20.7318 448.577 19.6519C448.577 19.0523 448.962 17.3305 449.432 15.8255C450.252 13.1973 450.401 13.0893 453.209 13.0893H456.133L456.26 19.442C456.338 23.3272 456.471 24.3276 456.603 22.0175C456.722 19.94 456.988 17.2357 457.194 16.0081C457.551 13.8841 457.716 13.7761 460.598 13.7761H463.626L463.829 18.4118L464.032 23.0476L466.952 23.2585C468.557 23.3743 469.871 23.7222 469.871 24.0311C469.871 24.3401 470.798 24.778 471.932 25.0046C473.568 25.3319 473.992 25.7734 473.992 27.1508C473.992 28.4051 474.359 28.885 475.316 28.885C476.044 28.885 476.781 29.4261 476.953 30.0868C477.126 30.7479 477.303 29.8211 477.347 28.0265C477.406 25.62 477.697 24.7642 478.457 24.7642C479.22 24.7642 479.487 23.963 479.487 21.6737C479.487 19.041 479.691 18.5832 480.861 18.5832C482.069 18.5832 482.235 18.1255 482.235 14.8059V11.0286H485.67H489.104V19.9568C489.104 27.2311 489.285 28.885 490.084 28.885C490.623 28.885 491.205 29.4261 491.378 30.0868C491.551 30.7479 491.728 30.1294 491.772 28.7132C491.836 26.6222 492.11 26.1379 493.225 26.1379C494.534 26.1379 494.599 25.6802 494.599 16.5228V6.90791H498.034C500.83 6.90791 501.476 7.13158 501.512 8.10978C501.536 8.77082 501.518 12.1704 501.472 15.6644L501.388 22.0171H503.145C504.445 22.0171 504.902 21.6594 504.902 20.6436C504.902 19.4772 505.36 19.27 507.939 19.27C510.809 19.27 511.002 19.3925 511.453 21.5021C512.359 25.7413 514.519 26.5593 514.519 22.6634C514.519 20.7367 514.657 20.6436 517.517 20.6436H520.514L520.951 23.8299C521.191 25.5825 521.388 29.4456 521.388 32.4147C521.388 35.5558 521.675 37.8131 522.075 37.8131C522.453 37.8131 522.762 36.7646 522.762 35.4829C522.762 34.0387 523.156 33.0013 523.798 32.7548C524.369 32.536 524.796 32.1167 524.747 31.8229C524.699 31.5291 524.696 28.8935 524.741 25.9661L524.822 20.6436H528.257H531.691V25.9257C531.691 30.7176 531.785 31.0841 532.7 29.8747C533.254 29.1415 533.718 27.2579 533.73 25.689L533.752 22.8364L537.187 22.5988C539.153 22.4623 540.648 22.6536 540.683 23.0473C540.718 23.4251 541.035 22.7298 541.39 21.5021C541.76 20.2208 542.488 19.27 543.099 19.27C543.987 19.27 544.126 18.4113 543.938 14.1176C543.721 9.16475 543.772 8.96517 545.258 8.96669C546.174 8.96766 546.803 8.5492 546.803 7.93807C546.803 7.15971 547.643 6.90791 550.238 6.90791H553.672V15.6826V24.4572L556.42 24.1952C558.932 23.9557 559.167 23.7631 559.167 21.9449C559.167 20.0519 559.312 19.9567 562.202 19.9567C565.921 19.9567 567.41 20.4802 567.41 21.7886C567.41 22.5221 568.093 22.7303 569.986 22.5736C572.222 22.3883 572.59 22.1117 572.779 20.4718C572.974 18.7745 573.265 18.5832 575.652 18.5832C578.04 18.5832 578.331 18.3918 578.526 16.6945C578.707 15.1208 579.116 14.77 580.976 14.5907C582.204 14.4724 583.208 14.086 583.208 13.7322C583.208 13.3781 584.599 13.0889 586.299 13.0889C587.999 13.0889 589.39 13.379 589.39 13.7336C589.39 14.0883 590.859 14.573 592.653 14.8108C594.448 15.0485 596.534 15.5138 597.29 15.8441C600.33 17.1735 614.805 18.364 614.805 17.2847C614.805 16.8282 616.182 16.5228 618.24 16.5228H621.674V19.6134C621.674 22.246 621.878 22.7039 623.048 22.7039C624.104 22.7039 624.422 22.2462 624.422 20.7236C624.422 18.403 625.756 17.8375 629.914 18.3952L632.665 18.7639V13.2207V7.67741L635.24 7.46474C637.676 7.26302 637.828 7.11126 638.029 4.67617C638.242 2.11882 638.264 2.10073 641.292 2.10073H644.342V5.55163C644.342 8.60072 644.542 9.07857 646.059 9.65534C647.576 10.2319 647.776 10.71 647.776 13.759C647.776 16.9822 647.89 17.2099 649.493 17.2099H651.211V24.0777C651.211 28.1985 651.485 30.9456 651.898 30.9456C652.276 30.9456 652.585 30.0185 652.585 28.8853C652.585 26.9394 652.738 26.8249 655.332 26.8249H658.08V22.3609C658.08 19.6508 658.368 17.8968 658.814 17.8968C659.267 17.8968 659.509 16.2559 659.447 13.6044C659.26 5.70897 659.021 6.22145 662.888 6.22145C666.802 6.22145 666.47 5.34373 666.326 15.3213C666.254 20.3452 666.415 21.3307 667.311 21.3307C667.901 21.3307 668.383 21.0217 668.383 20.6439C668.383 20.2661 669.871 19.9571 671.689 19.9571C674.83 19.9571 675.043 20.0772 675.939 22.3609C676.458 23.683 677.134 24.7646 677.441 24.7646C677.748 24.7646 678 25.8463 678 27.1683C678 28.7351 678.325 29.5721 678.932 29.5721C679.874 29.5721 680.747 24.239 680.747 18.4828V15.8364H684.182H687.616V19.5181V23.1997L691.222 23.633C696.919 24.3171 697.233 24.2545 697.233 22.4345C697.233 20.488 698.348 19.9573 702.441 19.9573C705.355 19.9573 705.475 20.0396 705.475 22.0177C705.475 23.5729 705.791 24.0781 706.761 24.0781C707.784 24.0781 708.139 23.3791 708.502 20.6442L708.958 17.2102H712.025H715.092L715.161 20.4724C715.197 22.2666 715.476 24.5073 715.779 25.4516C716.3 27.0784 716.332 27.0513 716.397 24.9366C716.452 23.1853 716.762 22.7046 717.84 22.7046C718.595 22.7046 719.213 22.3956 719.213 22.0178C719.213 21.6399 720.932 21.331 723.033 21.331H726.852L726.709 14.9783L726.567 8.6255L730.102 8.41772L733.638 8.21048V12.751C733.638 15.7954 733.88 17.1422 734.372 16.8384C734.789 16.5806 735.028 14.7124 734.926 12.5054L734.746 8.62569H738.089H741.433L741.513 11.3728C741.757 19.6871 741.592 19.2708 744.628 19.2708C746.613 19.2708 747.376 19.5573 747.376 20.3011C747.376 20.8678 747.685 21.3312 748.063 21.3312C748.451 21.3312 748.75 19.3853 748.75 16.8671V12.403H752.184H755.619L755.625 19.0991C755.631 22.782 755.823 26.5033 756.056 27.3686C756.874 30.4238 758.026 28.3664 758.604 22.8191L759.188 17.2046L761.921 16.7676C763.476 16.519 764.997 15.7802 765.451 15.0536C766.047 14.0993 767.075 13.7766 769.518 13.7766C772.329 13.7766 772.787 13.9691 772.787 15.1501C772.787 15.9132 773.245 16.5237 773.818 16.5237C774.384 16.5237 774.848 16.8327 774.848 17.2105C774.848 17.5883 775.333 17.8973 775.925 17.8973C776.8 17.8973 776.984 17.0894 776.902 13.6049C776.698 4.97939 776.461 5.53517 780.343 5.53517H783.777V7.93895C783.777 9.82872 784.052 10.3426 785.061 10.3426C786.424 10.3426 787.094 12.71 787.298 18.2406C787.359 19.8362 787.524 20.34 787.696 19.4425C787.86 18.5926 788.282 17.8973 788.633 17.8973C788.985 17.8973 789.272 15.8884 789.272 13.4332V8.96906L792.879 8.96748L796.485 8.96595L796.259 14.1184L796.032 19.2709H799.797H803.562L804.04 23.3928C804.746 29.4682 805.757 29.1341 805.757 22.826V17.3719L810.879 16.8923C816.488 16.367 818.808 16.7753 818.808 18.2872C818.808 18.993 819.668 19.2711 821.849 19.2711C824.167 19.2711 824.964 19.5563 825.204 20.4729C825.397 21.2123 825.548 20.9482 825.598 19.7861C825.674 17.9882 825.842 17.8975 829.112 17.8975H832.546V22.6265C832.546 25.4856 832.952 28.1333 833.572 29.3227L834.599 31.2898L834.605 29.0577C834.605 27.8301 834.918 26.8257 835.296 26.8257C835.674 26.8257 835.983 25.78 835.983 24.502C835.983 22.756 836.324 22.0891 837.356 21.8192C838.539 21.5102 838.73 20.8824 838.73 17.3155C838.73 15.0361 839.058 12.9688 839.458 12.7215C839.858 12.4741 840.133 11.6062 840.069 10.7924C839.828 7.77267 840.02 7.59577 843.536 7.59577H846.97V13.09C846.97 18.4928 847.001 18.5843 848.687 18.5843C850.375 18.5843 850.405 18.6788 850.405 24.0381C850.405 27.0375 850.714 29.6828 851.092 29.9162C851.53 30.1874 851.778 28.0919 851.778 24.1191V17.8975H855.213H858.647V22.0182C858.647 25.9558 858.724 26.1389 860.365 26.1389H862.082V15.4937V4.84866H865.516C869.451 4.84866 869.12 3.84224 868.955 15.3221C868.882 20.346 869.044 21.3314 869.94 21.3314C870.611 21.3314 871.011 20.7197 871.011 19.6945C871.011 17.8287 872.454 17.2348 877.022 17.2201C879.902 17.214 879.941 17.2445 879.941 19.6145C879.941 20.9366 880.25 22.0182 880.628 22.0182C881.006 22.0182 881.315 22.7429 881.315 23.6287C881.315 24.5145 881.933 25.7986 882.689 26.4823C884.049 27.7135 884.062 27.6818 884.062 23.1548V18.5843H887.497H890.931V24.7653C890.931 28.4281 891.211 30.9463 891.618 30.9463C891.996 30.9463 892.305 30.1738 892.305 29.2294C892.305 27.66 892.563 27.5125 895.306 27.5125C898.241 27.5125 898.317 27.5673 898.733 30.0879C898.967 31.5044 899.162 33.7192 899.167 35.0098C899.173 36.3004 899.324 37.2063 899.508 37.0229C899.979 36.5518 900.462 31.3694 900.509 26.2934C900.545 22.083 900.595 21.9745 902.573 21.579C904.377 21.2182 904.621 20.8637 904.805 18.3339L905.013 15.4937L908.276 15.2841L911.539 15.0745V18.546V22.0175H913.903C916.187 22.0175 916.275 22.1163 916.479 24.883C916.818 29.471 918.091 28.7397 919.043 23.4105L919.906 18.5837H923.278C926.264 18.5837 926.65 18.4161 926.65 17.1161C926.65 15.7333 926.905 15.6689 931.043 16.0011C933.46 16.1949 935.778 16.5648 936.195 16.8224C936.613 17.0801 936.978 18.8954 937.008 20.8562C937.075 25.2721 937.401 24.4595 937.987 18.412L938.437 13.7762H941.473H944.51V16.4671C944.51 20.0099 945.073 21.3307 946.583 21.3307C947.495 21.3307 947.946 20.6026 948.288 18.5837C948.747 15.8651 948.783 15.8365 951.775 15.8365C955.253 15.8365 957.561 17.4042 957.561 19.7665C957.561 21.1371 957.922 21.3402 960.48 21.4068C964.836 21.5201 966.807 21.2721 967.063 20.5789C967.189 20.237 968.811 19.9572 970.669 19.9572H974.046V22.361C974.046 24.5739 974.209 24.7647 976.107 24.7647C978.053 24.7647 978.167 24.6123 978.167 22.0175V19.2704H981.602C984.807 19.2704 985.036 19.385 985.036 20.9874C985.036 22.0499 985.426 22.7043 986.059 22.7043C987.992 22.7043 989.845 24.9829 989.845 27.3616C989.845 28.7144 990.126 29.4793 990.531 29.2288C990.909 28.9954 991.218 28.0499 991.218 27.1279C991.218 26.2059 991.511 25.4515 991.869 25.4515C992.227 25.4515 992.614 23.829 992.728 21.8459C992.914 18.6067 993.093 18.2458 994.481 18.2948C995.946 18.3436 996.027 18.0907 996.027 13.4015C996.027 10.6802 996.22 7.48782 996.456 6.30742C996.858 4.29606 997.074 4.16123 999.89 4.16123H1002.9L1002.94 6.73667C1002.97 8.15316 1002.95 11.5225 1002.9 14.2242C1002.85 17.0527 1003.12 19.3276 1003.54 19.5873C1004.03 19.8938 1004.27 17.8313 1004.27 13.1299L1004.27 6.22154H1007.7C1010.79 6.22154 1011.14 6.37515 1011.17 7.76678C1011.19 8.61668 1011.18 12.9434 1011.14 17.3817C1011.07 25.0851 1011.13 25.4515 1012.47 25.4515C1013.67 25.4515 1013.89 25.8921 1013.9 28.3703C1013.92 30.878 1014.05 31.1274 1014.8 30.1408C1015.28 29.5093 1016.74 28.8912 1018.04 28.7673C1020.05 28.5765 1020.44 28.2529 1020.63 26.6534C1020.75 25.5723 1021.26 24.7647 1021.83 24.7647C1022.37 24.7647 1022.81 24.3624 1022.81 23.8714C1022.81 23.3802 1023.2 22.1463 1023.67 21.1297C1024.43 19.5041 1024.92 19.2805 1027.79 19.2757C1029.59 19.2728 1031.06 19.5792 1031.06 19.9572C1031.06 20.335 1031.83 20.644 1032.77 20.644C1034.4 20.644 1034.49 20.85 1034.49 24.4213C1034.49 28.1605 1034.51 28.1986 1036.55 28.1986H1038.61V22.7043V17.2101H1042.05C1045.25 17.2101 1045.48 17.3247 1045.48 18.927C1045.48 19.8714 1045.79 20.644 1046.17 20.644C1046.54 20.644 1046.85 21.5894 1046.85 22.7448C1046.85 23.9706 1047.14 24.669 1047.54 24.4213C1047.92 24.1879 1048.23 22.9516 1048.23 21.6741C1048.23 20.3967 1048.54 19.1605 1048.91 18.927C1049.29 18.6936 1049.6 17.7482 1049.6 16.8262C1049.6 15.2723 1049.85 15.1497 1053.04 15.1497H1056.47V17.4582V19.7666L1059.56 19.0595C1061.42 18.6341 1062.65 17.968 1062.65 17.3887C1062.65 15.5689 1064.58 14.4629 1067.76 14.4629H1070.9V19.2704C1070.9 23.6201 1071.03 24.0779 1072.27 24.0779C1073.46 24.0779 1073.64 24.5356 1073.64 27.5118C1073.64 29.4005 1073.95 30.9457 1074.33 30.9457C1074.71 30.9457 1075.02 30.482 1075.02 29.9156C1075.02 29.3488 1075.33 28.8854 1075.7 28.8854C1076.1 28.8854 1076.39 26.5961 1076.39 23.3912C1076.39 20.1861 1076.68 17.8969 1077.08 17.8969C1077.46 17.8969 1077.76 17.4331 1077.76 16.8667C1077.76 16.0883 1078.6 15.8365 1081.2 15.8365H1084.63V19.1331C1084.63 20.9462 1084.92 22.7232 1085.27 23.0821C1085.63 23.4411 1086.07 26.6706 1086.26 30.259C1086.45 33.8474 1086.9 38.0196 1087.26 39.5305C1087.8 41.8022 1087.92 40.8811 1087.99 34.208C1088.05 27.5279 1088.25 26.1383 1089.1 26.1383C1089.78 26.1383 1090.13 25.456 1090.13 24.1185C1090.13 23.0075 1090.44 21.9076 1090.82 21.6741C1091.19 21.4407 1091.5 19.4136 1091.5 17.1695V13.0894H1094.94H1098.37L1098.45 20.1289C1098.55 28.8501 1099.54 26.0406 1099.66 16.695L1099.75 10.3423H1102.84C1104.54 10.3423 1105.93 10.6513 1105.93 11.0291C1105.93 11.4069 1106.7 11.7158 1107.64 11.7158C1109.35 11.7158 1109.36 11.7707 1109.36 17.769V23.8222L1113.48 23.5242L1117.6 23.2262V26.3992C1117.6 28.7618 1117.87 29.5723 1118.63 29.5723C1119.47 29.5723 1119.67 28.4276 1119.67 23.3913V17.2102H1123.06C1126.38 17.2102 1126.45 17.259 1126.66 19.4366C1126.8 20.9029 1127.29 21.7407 1128.08 21.8907C1129.06 22.0765 1129.28 21.6164 1129.28 19.377C1129.28 15.0406 1129.73 14.463 1133.13 14.463H1136.15V17.5536C1136.15 19.2534 1136.46 20.6441 1136.84 20.6441C1137.22 20.6441 1137.52 19.717 1137.52 18.5838C1137.52 17.4506 1137.86 16.5234 1138.26 16.5234C1138.71 16.5234 1138.95 15.0935 1138.89 12.9178C1138.83 10.9347 1138.81 8.92589 1138.84 8.4537C1138.88 7.88937 1140.08 7.59521 1142.33 7.59521H1145.77L1145.74 19.4422C1145.71 35.1966 1146.36 71.6007 1146.68 71.9231C1146.83 72.0639 1147.16 68.5442 1147.42 64.1021C1147.78 58.2003 1148.17 55.8776 1148.89 55.4759C1149.43 55.1737 1149.85 54.2437 1149.82 53.4095C1149.66 49.0645 1150.84 40.1387 1151.65 39.4832C1152.18 39.0584 1152.73 36.6046 1152.97 33.6565C1153.19 30.8557 1153.67 28.2655 1154.04 27.9006C1154.4 27.5355 1154.7 25.7538 1154.7 23.9407V20.6441H1159.16C1163.49 20.6441 1163.63 20.5893 1163.63 18.8895C1163.63 17.2248 1163.8 17.1457 1166.89 17.3442L1170.15 17.5539L1170.35 24.25C1170.47 28.2816 1170.83 30.9462 1171.26 30.9462C1172.54 30.9462 1173.93 29.0208 1173.93 27.2584C1173.93 26.3094 1174.24 25.342 1174.62 25.1085C1175 24.8751 1175.31 23.3116 1175.31 21.6341V18.584H1178.74C1181.95 18.584 1182.17 18.6985 1182.17 20.301C1182.17 21.5601 1182.54 22.0179 1183.55 22.0179C1184.83 22.0179 1184.92 21.5603 1184.92 15.4935V8.96906H1188.53H1192.14L1191.9 12.0596C1191.74 13.9994 1191.94 15.1501 1192.41 15.1501C1192.82 15.1501 1193.17 14.2229 1193.17 13.0897C1193.17 11.0752 1193.24 11.0294 1196.6 11.0294C1199.19 11.0294 1200.03 11.2811 1200.03 12.0596C1200.03 12.7339 1200.71 13.0897 1201.99 13.0897H1203.94L1204.39 22.4699C1204.64 27.629 1204.84 36.5915 1204.84 42.3866V52.9232H1203.18C1199.8 52.9232 1199.35 53.4991 1199.35 57.8041V61.8513H1193.85C1190.65 61.8513 1188.36 62.1378 1188.36 62.5382C1188.36 62.916 1186.81 63.2249 1184.92 63.2249H1181.49L1181.48 60.6495C1181.47 57.1615 1180.82 54.9835 1179.79 54.9835C1178.67 54.9835 1178.09 63.3537 1178.08 79.7077C1178.08 86.6957 1177.87 96.5081 1177.62 101.513L1177.17 110.613H1174.25C1172.23 110.613 1171.21 110.281 1170.92 109.527C1170.69 108.929 1170.5 101.069 1170.5 92.0593V75.6783L1168.61 75.4607L1166.72 75.2438L1166.53 67.7878C1166.38 62.3625 1166.06 60.0578 1165.32 59.3256C1164.44 58.4419 1164.32 58.4508 1164.32 59.3987C1164.32 60.2 1163.61 60.478 1161.57 60.478H1158.82V64.942V69.4062H1156.84C1155.58 69.4062 1154.68 69.8474 1154.38 70.608C1153.83 72.05 1152.75 88.7178 1152.69 96.8342C1152.67 100.518 1152.35 102.812 1151.84 103.132C1151.29 103.467 1150.93 106.807 1150.76 113.133C1150.62 118.358 1150.21 122.735 1149.85 122.861C1149.5 122.986 1149.21 124.455 1149.21 126.123C1149.21 127.791 1148.9 129.156 1148.52 129.156C1148.12 129.156 1147.83 131.392 1147.83 134.479C1147.83 137.406 1147.63 141.424 1147.39 143.407L1146.95 147.013H1143.96H1140.96L1140.92 143.062Z" fill="black"/>
</svg>
