<svg width="1203" height="151" viewBox="0 0 1203 151" fill="none" xmlns="http://www.w3.org/2000/svg">
<path d="M375.548 149.849C375.548 149.374 375.085 148.986 374.518 148.986C373.728 148.986 373.488 148.113 373.488 145.248V141.51L370.656 141.299L367.824 141.088L367.944 132.675L368.063 124.262H365.967C364.005 124.262 363.87 124.098 363.859 121.687C363.835 116.879 363.231 108.284 362.893 107.946C362.708 107.761 362.055 107.802 361.442 108.037C360.522 108.39 360.367 109.361 360.554 113.618L360.78 118.771L358.23 118.769L355.68 118.768L355.482 125.121L355.285 131.474L352.022 131.683C349.145 131.868 348.759 131.732 348.759 130.515C348.759 129.758 348.312 128.888 347.764 128.582C347.079 128.198 346.705 126.532 346.562 123.225C346.361 118.558 346.303 118.419 344.466 118.208C342.583 117.991 342.577 117.976 342.577 112.542V107.093H339.83H337.082V102.285C337.082 97.615 337.033 97.4777 335.365 97.4777C333.668 97.4777 333.648 97.546 333.648 103.315C333.648 108.695 333.54 109.153 332.274 109.153C331.358 109.153 330.9 109.611 330.9 110.527C330.9 111.282 330.568 111.9 330.162 111.9C329.724 111.9 329.47 113.226 329.537 115.162C329.598 116.957 329.621 121.592 329.588 125.464C329.529 132.285 329.479 132.504 327.981 132.514C325.269 132.532 324.599 133.464 324.724 137.043C324.788 138.89 324.813 142.642 324.78 145.381L324.719 150.36H321.717C318.783 150.36 318.707 150.305 318.291 147.785C318.056 146.368 317.861 143.432 317.857 141.26L317.85 137.311H315.102H312.354L312.311 127.868C312.243 113.138 312.063 109.85 311.324 109.83C310.946 109.817 310.54 110.915 310.422 112.265L310.206 114.719L306.987 114.511L303.768 114.303L303.557 111.384C303.386 109.025 303.09 108.466 302.011 108.466C300.859 108.466 300.661 109.003 300.56 112.415C300.495 114.587 300.373 116.827 300.289 117.394C300.205 117.961 300.104 120.201 300.063 122.373C299.994 126.108 299.897 126.322 298.273 126.322C297.205 126.322 296.556 126.711 296.556 127.352C296.556 128.131 295.716 128.382 293.121 128.382H289.687L289.648 123.403C289.627 120.665 289.643 114.947 289.684 110.698C289.748 104.138 289.598 102.971 288.693 102.971C288.106 102.971 287.626 102.508 287.626 101.941C287.626 101.374 287.162 100.911 286.596 100.911C285.554 100.911 285.299 99.4506 285.548 94.9017C285.637 93.2756 285.376 92.6696 284.588 92.6696C283.963 92.6696 283.505 92.0889 283.505 91.2961C283.505 90.5407 283.173 89.9225 282.768 89.9225C282.323 89.9225 282.074 91.3524 282.14 93.5281C282.199 95.5112 282.222 101.074 282.19 105.89L282.131 114.647H278.697H275.262V107.436C275.262 102.865 274.999 100.224 274.542 100.224C274.073 100.224 273.846 103.394 273.89 109.324C273.928 114.329 273.943 121.437 273.923 125.12L273.889 131.816H270.454H267.02L266.965 125.12C266.936 121.437 266.957 116.492 267.013 114.132C267.076 111.48 266.834 109.839 266.38 109.839C265.948 109.839 265.646 111.394 265.646 113.617V117.394H263.242H260.838V122.201V127.009H257.403H253.968L253.905 122.716C253.87 120.356 253.893 117.111 253.957 115.505C254.024 113.809 253.763 112.586 253.333 112.586C252.927 112.586 252.595 111.638 252.595 110.478C252.595 108.685 252.364 108.403 251.049 108.59C249.307 108.837 249.283 109.089 249.202 128.211L249.16 137.997H245.726H242.291L242.215 128.211C242.173 122.828 242.195 117.729 242.265 116.879C242.373 115.541 242.06 115.334 239.937 115.334H237.483L237.437 109.668C237.397 104.831 237.274 104.253 236.598 105.719C236.162 106.663 235.391 107.694 234.884 108.009C234.237 108.412 233.99 110.047 234.056 113.503C234.205 121.361 234.431 120.828 230.958 120.828C228.482 120.828 227.862 120.588 227.84 119.626C227.825 118.965 227.748 114.252 227.668 109.152L227.524 99.8809L225.677 99.6676C224.659 99.55 223.686 98.9337 223.508 98.2941C223.331 97.6559 223.171 101.924 223.154 107.779C223.136 113.634 223.108 124.219 223.091 131.301L223.059 144.178H219.624C217.735 144.178 216.185 144.102 216.179 144.007C216.174 143.912 215.997 134.872 215.786 123.918C215.576 112.964 215.281 103.615 215.132 103.143C214.982 102.671 213.788 102.284 212.479 102.284C210.41 102.284 210.062 102.038 209.813 100.396C209.656 99.357 209.481 101.211 209.424 104.517L209.321 110.526H205.887H202.452V106.405C202.452 102.468 202.376 102.284 200.735 102.284C199.361 102.284 199.018 102.628 199.018 104.001C199.018 105.385 198.677 105.718 197.26 105.718H195.503L195.587 112.071C195.633 115.565 195.649 119.042 195.622 119.797C195.56 121.513 192.732 122.888 189.264 122.888C186.791 122.888 186.65 122.771 186.586 120.656C186.43 115.504 186.298 115.013 185.003 114.76C184.284 114.62 183.419 115.001 183.08 115.606C182.659 116.359 181.497 116.707 179.407 116.707H176.35V107.092C176.35 99.0032 176.187 97.477 175.32 97.477C174.6 97.477 174.289 98.2019 174.289 99.8807C174.289 101.595 173.984 102.284 173.224 102.284C172.317 102.284 172.169 103.488 172.231 110.354C172.271 114.792 172.287 120.973 172.267 124.09L172.229 129.756H169.437H166.646L166.799 135.422L166.952 141.088L163.408 141.295L159.865 141.503L159.785 129.964C159.742 123.617 159.761 117.883 159.829 117.222C159.896 116.561 159.622 116.021 159.221 116.021C158.814 116.021 158.491 114.654 158.491 112.93C158.491 109.954 158.415 109.84 156.43 109.84C154.703 109.84 154.37 110.111 154.37 111.516C154.37 112.438 154.084 113.369 153.734 113.585C153.384 113.801 153.086 116.326 153.071 119.195C153.057 122.065 152.649 125.306 152.165 126.398C151.374 128.185 150.961 128.383 148.02 128.383H144.753V123.919C144.753 121.4 144.454 119.454 144.066 119.454C143.669 119.454 143.379 117.28 143.379 114.304V109.153H140.975C138.625 109.153 138.571 109.091 138.571 106.384C138.571 104.418 138.234 103.486 137.41 103.17C136.762 102.921 136.13 103.082 135.979 103.535C135.831 103.98 134.807 104.345 133.706 104.345H131.702V108.809C131.702 112.32 131.482 113.274 130.672 113.274C129.815 113.274 129.625 114.748 129.543 122.03C129.489 126.846 129.346 133.104 129.224 135.937C129.103 138.77 128.993 143.174 128.979 145.724L128.954 150.36H125.52H122.085V147.269C122.085 144.431 121.945 144.179 120.368 144.179H118.651L118.511 131.302C118.434 124.219 118.267 120.974 118.14 124.09L117.908 129.756H114.502H111.095V124.262V118.768H109.034C107.432 118.768 106.974 118.462 106.974 117.394C106.974 116.479 106.516 116.021 105.6 116.021C104.684 116.021 104.226 116.478 104.226 117.394C104.226 118.585 103.768 118.768 100.792 118.768H97.3572V113.896C97.3572 109.602 97.1944 108.982 95.9834 108.665C94.7761 108.349 94.5943 107.671 94.4826 103.063C94.379 98.7915 94.3088 98.4885 94.1033 101.427C93.9365 103.81 93.5464 105.032 92.9527 105.032C92.3659 105.032 91.9152 106.38 91.6533 108.917C91.4328 111.053 90.8986 113.02 90.4662 113.287C90.0338 113.554 89.7387 114.82 89.8103 116.099C89.882 117.378 89.9093 120.201 89.8713 122.373L89.8017 126.322H86.3672H82.9328L82.8691 122.373C82.8343 120.201 82.8575 117.111 82.9209 115.506C83.0099 113.258 82.7876 112.587 81.9542 112.587C81.06 112.587 80.8529 111.543 80.7621 106.577C80.7017 103.272 80.5275 101.572 80.3751 102.8C80.1093 104.941 79.974 105.032 77.0506 105.032H74.0031V116.021V127.009H72.2858C70.6124 127.009 70.5685 127.136 70.5651 131.988C70.563 134.727 70.362 139.981 70.118 143.664L69.6746 150.36H66.7853H63.8961L63.4582 143.664C63.2173 139.981 62.9899 132.409 62.9529 126.837C62.898 118.619 62.703 116.707 61.9188 116.707C61.1524 116.707 60.9522 115.285 60.9522 109.84C60.9522 105.719 60.6774 102.972 60.2653 102.972C59.8875 102.972 59.5784 103.899 59.5784 105.032C59.5784 107.043 59.4973 107.092 56.1875 107.092C52.8639 107.092 52.7923 107.05 52.5813 104.86C52.4171 103.158 52.0401 102.628 50.9923 102.628C50.0042 102.628 49.5575 103.159 49.4011 104.517C49.1999 106.266 48.9545 106.406 46.0897 106.406H42.9955L43.216 112.588C43.3802 117.195 43.2176 118.771 42.5778 118.769C42.1056 118.768 41.7192 119.231 41.7192 119.798C41.7192 120.557 40.926 120.828 38.7017 120.828C35.2191 120.828 34.8503 120.298 34.8503 115.288V111.921L30.5572 112.335C22.0041 113.161 21.4559 113.385 21.4559 116.051C21.4559 118.154 21.221 118.463 19.3952 118.768C17.7625 119.04 17.2894 119.503 17.1172 121C16.9166 122.743 16.6661 122.888 13.8545 122.888C10.8928 122.888 10.8069 122.827 10.73 120.656C10.6867 119.429 10.719 117.806 10.8025 117.051C11.1383 114.008 9.94204 98.8509 9.36619 98.8509C9.01968 98.8509 8.74846 105.333 8.74846 113.617V128.383H5.39901H2.04955L1.6255 117.909C1.3923 112.149 1.00347 87.7337 0.761486 63.6534L0.321533 19.8708H1.73126C2.5066 19.8708 3.62991 19.6832 4.2275 19.4541C4.99784 19.1585 5.31401 19.4419 5.31401 20.4281C5.31401 23.0546 5.96161 23.7595 8.08794 23.4475C9.69074 23.2122 10.1223 22.8013 10.1223 21.5099C10.1223 20.0311 10.4173 19.8708 13.1403 19.8708H16.1584L16.7338 26.2236C17.0875 30.1276 17.3963 31.5836 17.5351 30.0009L17.761 27.4255H21.154H24.547L24.6198 30.0009C24.66 31.4174 24.6362 33.4263 24.5679 34.465C24.4573 36.1429 24.6791 36.3537 26.5558 36.3537C27.7177 36.3537 28.6683 36.6627 28.6683 37.0405C28.6683 37.4183 29.5956 37.7272 30.729 37.7272C31.8623 37.7272 32.7896 38.0362 32.7896 38.414C32.7896 38.7919 33.4078 39.1008 34.1634 39.1008C35.4833 39.1008 35.5372 38.6432 35.5372 27.4255V15.7502H38.9717H42.4061V19.1269C42.4061 20.9841 42.7151 22.6066 43.0929 22.7325C43.489 22.8647 43.7967 26.0133 43.8199 30.1726C43.8625 37.8377 44.7322 41.1612 46.6951 41.1612C47.6443 41.1612 47.9012 41.7462 47.9012 43.9083C47.9012 47.6212 49.0081 47.3952 49.5826 43.5646L50.0461 40.4741H53.095H56.144V46.6551C56.144 50.318 56.4238 52.8362 56.8309 52.8362C57.2561 52.8362 57.5177 49.1733 57.5177 43.2211V33.6062H60.9522H64.3867V42.5344C64.3867 48.0286 64.6508 51.4626 65.0736 51.4626C65.4648 51.4626 65.777 49.3194 65.799 46.4835C65.8203 43.7449 65.983 34.7051 66.1607 26.395C66.3385 18.0849 66.4757 8.89055 66.4656 5.96317L66.4473 0.640625H69.8818H73.3162L73.3382 16.6083C73.3808 47.8633 73.5227 60.7129 73.8088 59.1889C74.0433 57.9398 74.5547 57.6436 76.4768 57.6436C77.7846 57.6436 78.9831 57.2572 79.14 56.7851C79.4508 55.8504 80.1607 35.1404 80.1759 26.5667L80.185 21.2441H83.1753H86.1655L86.6097 26.4986C86.854 29.3886 87.0539 34.1544 87.0539 37.0892V42.4252L89.0696 42.8677C90.1783 43.1108 92.2647 42.9829 93.7062 42.5825C95.1476 42.1821 97.3315 41.8531 98.5594 41.851C100.333 41.848 100.792 41.5646 100.792 40.4736C100.792 39.7181 101.101 39.1 101.479 39.1C101.856 39.1 102.166 38.3274 102.166 37.3831C102.166 35.8122 102.422 35.6661 105.183 35.6661C107.232 35.6661 108.328 35.997 108.596 36.6962C109.1 38.0099 110.408 38.0403 110.408 36.7389C110.408 36.0944 111.483 35.5897 113.499 35.2874C115.453 34.9943 116.59 34.4738 116.59 33.8717C116.59 33.1887 117.548 32.9196 119.979 32.9196C122.951 32.9196 123.403 33.1097 123.654 34.4648C123.916 35.8832 123.942 35.8691 123.97 34.293C124.059 29.2824 123.921 29.4854 127.237 29.4854C130.311 29.4854 130.877 30.1286 130.409 33.091C130.365 33.3744 130.946 33.606 131.702 33.606C132.847 33.606 133.076 34.0636 133.076 36.3531V39.1002H135.823H138.571V43.9078V48.7152H140.631C142.578 48.7152 142.692 48.5629 142.692 45.9681C142.692 44.4571 143.001 43.221 143.379 43.221C143.815 43.221 144.066 38.0701 144.066 29.1419C144.066 17.0851 144.214 15.0628 145.096 15.0628C145.669 15.0628 146.127 14.4523 146.127 13.6893C146.127 12.5192 146.585 12.3157 149.218 12.3157H152.309L152.372 22.4458C152.407 28.0173 152.484 33.4973 152.544 34.6235C152.678 37.1632 154.427 37.6687 156.368 35.7286C157.53 34.5662 157.882 32.8776 158.471 25.6283C158.859 20.8408 159.178 14.1871 159.178 10.8424V4.76107H162.612H166.047L166.079 8.02329C166.097 9.81751 166.084 15.8208 166.049 21.3638C165.987 31.3506 166 31.4442 167.551 31.6656C168.939 31.8636 169.092 32.2177 168.902 34.8078C168.774 36.5661 168.983 37.7267 169.429 37.7267C169.835 37.7267 170.168 38.3447 170.168 39.1002C170.168 40.1075 170.626 40.4738 171.885 40.4738C173.145 40.4738 173.603 40.8401 173.603 41.8474C173.603 42.8637 174.061 43.221 175.363 43.221C177.11 43.221 177.124 43.1782 177.032 37.8983C176.862 28.0747 176.616 28.7985 180.128 28.7985H183.219V25.708V22.6174H186.654C189.859 22.6174 190.088 22.7321 190.088 24.3344C190.088 25.9115 190.34 26.0514 193.179 26.0514H196.27L196.34 29.3136C196.378 31.1079 196.348 33.6563 196.272 34.977C196.197 36.2977 196.355 41.3198 196.623 46.1373L197.11 54.8963H199.438C201.097 54.8963 201.765 55.2064 201.765 55.9768C201.765 56.6314 202.234 56.9671 202.954 56.8286C203.801 56.6652 204.198 55.8127 204.337 53.8593C204.631 49.7258 204.885 49.3735 207.234 49.8431C209.289 50.2539 209.321 50.2167 209.321 47.4275V44.5945H212.682C216.391 44.5945 216.877 44.0716 216.877 40.0742C216.877 37.9107 217.042 37.7267 218.99 37.7267C220.995 37.7267 221.097 37.5951 220.984 35.1513C220.919 33.7348 220.895 29.408 220.932 25.5363L220.998 18.4967H224.433H227.867L227.943 25.5363C227.985 29.408 227.963 33.2712 227.894 34.1211C227.799 35.2909 228.134 35.6663 229.271 35.6663C230.504 35.6663 230.715 35.3573 230.446 33.9494C230.131 32.2991 230.255 32.2324 233.629 32.2312L237.14 32.23V36.867C237.14 39.5005 237.437 41.5041 237.827 41.5041C238.503 41.5041 238.733 38.0988 238.815 26.9098L238.857 21.2439H242.291H245.726V23.6476V26.0514H249.123H252.52L252.793 29.3136C252.943 31.1079 253.083 27.631 253.104 21.5873L253.142 10.5988L256.647 10.3915L260.151 10.1838V12.9667C260.151 15.6894 260.203 15.7498 262.555 15.7498H264.959L265.003 24.1629C265.027 28.7901 265.009 35.4138 264.963 38.8823L264.88 45.1886L267.152 45.4067C269.15 45.5987 269.475 45.9138 269.848 48.0286C270.218 50.1214 270.285 50.188 270.363 48.5435C270.446 46.813 270.684 46.6548 273.201 46.6548H275.949V42.1908V37.7267H279.383H282.818V44.9856C282.818 52.1207 282.844 52.2409 284.363 52.0252C285.814 51.8192 285.921 51.4353 286.107 45.7963C286.287 40.3521 286.432 39.7871 287.653 39.7871C288.791 39.7871 289 39.3086 289 36.6965V33.606H291.747H294.495V30.8589C294.495 28.3864 294.667 28.1117 296.212 28.1117C297.472 28.1117 297.929 27.7455 297.929 26.7382C297.929 25.5477 298.387 25.3646 301.364 25.3646C304.708 25.3646 304.798 25.4194 304.798 27.3872C304.798 29.3131 304.955 29.42 308.061 29.6193L311.324 29.829L311.522 35.8384L311.721 41.8477H315.071C317.109 41.8477 318.557 42.1841 318.768 42.7062C318.959 43.1785 319.139 41.1696 319.169 38.2421C319.199 35.3147 319.52 32.9196 319.883 32.9196C320.246 32.9196 320.633 30.2153 320.742 26.9102L320.94 20.9008L324.203 20.6912C327.299 20.4925 327.466 20.5717 327.466 22.2365C327.466 23.5332 327.824 23.991 328.84 23.991C329.952 23.991 330.213 24.4487 330.213 26.3947V28.7985H333.648C336.243 28.7985 337.082 29.0502 337.082 29.8287C337.082 30.4697 337.731 30.8589 338.799 30.8589C339.744 30.8589 340.552 31.2452 340.596 31.7173C340.639 32.1896 340.717 33.0394 340.768 33.606C340.82 34.1886 341.681 34.7306 342.749 34.8535L344.638 35.071V41.5499C344.638 45.6282 344.906 48.0286 345.361 48.0286C345.829 48.0286 346.058 45.3017 346.009 40.3023C345.968 36.0528 345.951 29.2537 345.973 25.1931L346.012 17.8102H349.447H352.881L352.945 25.1931C352.98 29.2537 352.956 33.8895 352.893 35.4949C352.794 38.002 352.973 38.4137 354.163 38.4137C354.924 38.4137 355.739 38.1047 355.972 37.7269C356.206 37.3491 358.257 37.0401 360.53 37.0401H364.664L364.541 34.808C364.474 33.5804 364.45 30.3185 364.489 27.5593L364.559 22.5424L367.821 22.7521L371.084 22.9617L371.295 25.8806C371.549 29.3841 372.801 29.8125 372.801 26.3956C372.801 25.0735 373.11 23.9918 373.488 23.9918C373.866 23.9918 374.175 23.528 374.175 22.9616C374.175 22.1832 375.015 21.9314 377.609 21.9314H381.044L381.08 27.2541C381.1 30.1815 381.085 36.517 381.046 41.333C381.001 47.0309 381.228 50.0896 381.697 50.0896C382.157 50.0896 382.417 47.2764 382.417 42.2923V34.4951L387.673 34.0508C396.67 33.2904 396.155 33.1088 396.155 37.0406V40.4745H398.588C402.007 40.4745 403.859 38.5715 403.702 35.2191C403.634 33.7656 403.608 31.5721 403.645 30.3445C403.71 28.1327 403.742 28.1124 407.146 28.1124H410.58V32.2331C410.58 36.1707 410.656 36.3537 412.297 36.3537C413.994 36.3537 414.014 36.4221 414.014 42.1914C414.014 45.6254 414.297 48.0291 414.701 48.0291C415.105 48.0291 415.388 45.6254 415.388 42.1914C415.388 38.9807 415.675 36.3537 416.026 36.3537C416.377 36.3537 416.664 34.5841 416.664 32.4211C416.664 30.2351 416.991 28.3796 417.4 28.2432C417.805 28.1085 418.136 27.5432 418.136 26.9874C418.136 26.2102 418.89 26.0251 421.399 26.1861L424.661 26.3958L424.861 32.0617C424.978 35.3842 425.355 37.7277 425.772 37.7277C426.163 37.7277 426.43 36.5687 426.364 35.1522C426.299 33.7357 426.275 28.6364 426.312 23.8204L426.379 15.0638H429.813H433.248L433.317 23.8204C433.356 28.6364 433.328 33.6234 433.256 34.9025C433.183 36.2013 433.521 37.4723 434.021 37.781C434.57 38.121 435.021 40.2021 435.189 43.1816C435.631 51.0081 436.762 48.8235 436.679 40.3031C436.638 36.0536 436.621 32.019 436.643 31.3373C436.676 30.2914 437.192 30.1305 439.945 30.3072L443.208 30.5168L443.576 42.5355L443.944 54.5542L444.091 44.0808L444.238 33.6073H447.329C449.029 33.6073 450.42 33.2984 450.42 32.9206C450.42 32.5427 452.12 32.2338 454.198 32.2338H457.976V29.1432V26.0527H461.41H464.845V33.2639C464.845 39.2161 465.025 40.4751 465.875 40.4751C466.683 40.4751 466.905 39.5333 466.905 36.1196C466.905 33.7241 467.108 27.5431 467.355 22.384L467.805 13.0038H470.79H473.774V18.0511C473.774 20.8271 473.974 25.4629 474.219 28.3529C474.599 32.851 474.846 33.6073 475.936 33.6073C477.095 33.6073 477.209 34.2572 477.209 40.8829C477.209 47.5808 477.318 48.1869 478.583 48.5175C479.659 48.7991 479.956 49.4543 479.956 51.5438C479.956 53.3276 480.264 54.2108 480.886 54.2108C482.167 54.2108 482.677 44.875 482.702 20.9931C482.713 10.4668 482.891 1.58152 483.097 1.24804C483.303 0.914687 484.845 0.641648 486.522 0.641648H489.573L489.595 5.96428C489.607 8.89167 489.615 17.2361 489.613 24.5074C489.608 37.381 489.645 37.728 491.017 37.728C492.208 37.728 492.407 37.3301 492.306 35.1526C492.241 33.7361 492.217 28.3276 492.254 23.1338L492.321 13.6906H495.755H499.19V16.7333C499.19 19.3659 499.398 19.8057 500.735 19.9955C502.214 20.2052 502.289 20.5324 502.476 27.598C502.632 33.5384 502.867 34.9808 503.678 34.9808C504.339 34.9808 504.685 35.6887 504.685 37.0411C504.685 38.938 504.876 39.1015 507.089 39.1015H509.493V43.5656C509.493 47.5718 509.634 48.0296 510.867 48.0296C512.012 48.0296 512.241 48.4874 512.241 50.7769C512.241 52.7609 512.527 53.5239 513.271 53.5239C514.081 53.5239 514.301 52.5701 514.301 49.0599C514.301 45.5496 514.521 44.5958 515.332 44.5958C516.188 44.5958 516.362 43.2604 516.362 36.6978V28.7998H519.796C523.716 28.7998 523.398 27.9276 523.235 38.243L523.146 43.909H525.519C528.026 43.909 528.726 43.0724 528.726 40.0755C528.726 38.5683 529.008 38.4147 531.775 38.4147C534.791 38.4147 534.827 38.4391 535.038 40.9371C535.244 43.3678 536.969 45.154 536.969 42.936C536.969 42.3382 537.432 41.8486 537.999 41.8486C538.571 41.8486 539.029 41.2382 539.029 40.4751C539.029 39.375 539.487 39.1015 541.329 39.1015H543.629L544.421 33.4356C544.857 30.3193 545.213 24.7564 545.212 21.0735L545.211 14.3773H548.302H551.393V22.2753V30.1733H555.515C558.969 30.1733 559.641 30.3677 559.668 31.3752C559.686 32.0363 559.763 35.8221 559.84 39.7883L559.979 46.9996L561.868 47.2172C563.39 47.3927 563.757 47.1562 563.757 46.0152C563.757 44.8174 564.186 44.596 566.505 44.596C568.016 44.596 569.252 44.2871 569.252 43.9093C569.252 43.5314 570.199 43.2225 571.357 43.2225H573.461L573.369 37.9C573.32 34.9725 573.299 30.8003 573.326 28.6284L573.375 24.6793H576.81H580.244L580.293 28.6284C580.317 30.8003 580.299 35.1271 580.25 38.2433C580.176 42.9597 580.34 43.9093 581.234 43.9093C581.962 43.9093 582.306 44.5552 582.306 45.9206C582.306 47.867 583.797 50.0903 585.103 50.0903C585.454 50.0903 585.78 49.2404 585.827 48.2017C585.876 47.1629 586.106 41.8318 586.342 36.3547L586.771 26.3962L589.69 26.1854L592.61 25.9745V21.5499V17.1253H596.044H599.479V24.68C599.479 29.2586 599.749 32.2345 600.166 32.2345C600.543 32.2345 600.853 30.9983 600.853 29.4874V26.7403H604.287H607.721V29.4874C607.721 31.7767 607.951 32.2345 609.095 32.2345C610.164 32.2345 610.469 32.6922 610.469 34.2949C610.469 36.0348 610.736 36.3552 612.186 36.3552C613.629 36.3552 613.903 36.6783 613.903 38.3751C613.903 39.486 614.187 40.5703 614.534 40.7848C615.308 41.2626 616.114 37.856 615.948 34.8164C615.72 30.6583 615.95 29.4874 616.994 29.4874C617.714 29.4874 618.025 28.7625 618.025 27.0836C618.025 24.6926 618.043 24.68 621.116 24.68H624.207V28.5215C624.207 31.7523 624.42 32.4187 625.546 32.7132C626.589 32.9856 626.931 33.769 627.091 36.2545L627.298 39.4458L630.612 39.6572L633.927 39.8687L633.816 36.2234C633.756 34.2185 633.733 31.11 633.762 29.3158C633.823 26.0565 633.823 26.0536 636.224 26.0536C638.438 26.0536 638.628 25.8903 638.628 23.9932C638.628 22.86 638.957 21.9329 639.359 21.9329C639.82 21.9329 640.055 19.9706 639.997 16.6103C639.949 13.6829 639.927 9.51072 639.955 7.33879L640.003 3.38973H643.438H646.872V16.0952C646.872 24.1077 647.126 28.8007 647.559 28.8007C647.937 28.8007 648.246 29.5733 648.246 30.5176C648.246 31.6206 648.632 32.2347 649.325 32.2347C651.115 32.2347 652.367 34.0524 652.367 36.6496C652.367 38.9171 652.523 39.1025 654.428 39.1025C655.561 39.1025 656.489 39.4114 656.489 39.7892C656.489 40.6834 659.714 40.6834 660.267 39.7892C660.5 39.4114 661.314 39.1025 662.075 39.1025C663.284 39.1025 663.445 38.6899 663.348 35.8402C663.286 34.0461 663.263 30.801 663.299 28.629L663.36 24.68H666.794H670.229V27.0837C670.229 28.4058 670.538 29.4874 670.916 29.4874C671.293 29.4874 671.602 28.4058 671.602 27.0837V24.68H675.037H678.471L678.538 28.629C678.574 30.801 678.55 33.7369 678.483 35.1534C678.393 37.0907 678.632 37.7289 679.447 37.7289C680.05 37.7289 680.53 38.3029 680.53 39.0233C680.53 40.1954 680.951 40.2839 684.994 39.9595L689.459 39.6012V44.5027C689.459 47.3125 689.752 49.4041 690.146 49.4041C690.547 49.4041 690.833 47.1149 690.833 43.9099V38.4156H692.894H694.954V31.6437C694.954 27.9191 695.151 23.4378 695.391 21.6853L695.828 18.4989H698.783C701.613 18.4989 701.746 18.5922 701.952 20.731C702.112 22.3951 702.537 23.0159 703.621 23.1705C705.399 23.4241 705.777 25.8526 706.366 40.8195C706.589 46.4854 707.049 51.4147 707.389 51.7735C707.757 52.1636 708.006 50.6914 708.006 48.1189C708.006 42.8749 708.836 41.8496 713.08 41.8496H716.193L716.424 47.5156C716.551 50.6318 716.718 47.9495 716.795 41.5549C716.879 34.5929 717.266 29.0133 717.76 27.6476C718.538 25.4958 718.771 25.3667 721.881 25.3667H725.178L725.257 28.9724C725.299 30.9555 725.281 33.1189 725.214 33.7799C725.145 34.464 725.554 34.9817 726.165 34.9817C726.781 34.9817 727.239 34.3961 727.239 33.6082C727.239 32.8527 727.522 32.2346 727.867 32.2346C728.213 32.2346 728.713 29.9168 728.978 27.0837L729.461 21.9329H732.471H735.482V17.1254V12.3179H738.916H742.35L742.405 22.448C742.436 28.0195 742.411 34.3551 742.357 36.5271L742.252 40.476H744.361C746.364 40.476 746.47 40.6149 746.47 43.2231C746.47 45.2519 746.75 45.9703 747.54 45.9703C748.44 45.9703 748.596 44.9125 748.528 39.2741C748.351 24.7713 748.262 25.3667 750.592 25.3667H752.652L752.792 20.3876C752.869 17.649 752.996 14.4813 753.076 13.3482C753.156 12.2149 753.248 10.4379 753.28 9.3991C753.335 7.59842 753.5 7.51045 756.774 7.51045H760.208L760.278 20.0442C760.314 26.9378 760.296 33.5824 760.223 34.81C760.104 36.9831 760.174 37.0421 762.901 37.0421C765.243 37.0421 765.701 37.2669 765.701 38.4156C765.701 39.1711 766.033 39.7892 766.438 39.7892C766.882 39.7892 767.131 38.3594 767.066 36.1837C767.005 34.2006 766.984 30.7711 767.017 28.5627L767.078 24.5474L770.513 24.7851L773.948 25.0227L773.948 12.8323L773.947 0.641927H777.382H780.816L780.853 5.96447C780.871 8.89185 780.859 15.2275 780.816 20.0435L780.747 28.8001H782.498C783.596 28.8001 784.249 28.4161 784.249 27.7699C784.249 27.0068 785.05 26.7396 787.34 26.7396H790.431V22.9623V19.185H793.865H797.3V26.7396V34.2943H799.36H801.421V38.4555C801.421 41.2214 801.666 42.4653 802.152 42.1651C802.566 41.9092 802.841 39.7386 802.787 37.1455C802.732 34.633 802.714 30.3367 802.744 27.5981C802.793 22.7264 802.834 22.619 804.556 22.619C806.309 22.619 806.315 22.6007 806.226 16.953C806.177 13.8367 806.158 8.89185 806.183 5.96447L806.232 0.641927H809.667H813.101L813.138 5.96447C813.156 8.89185 813.144 15.5365 813.107 20.7303L813.041 30.1735H815.77C817.792 30.1735 818.581 30.485 818.814 31.3754C818.987 32.0365 819.164 30.4912 819.208 27.9416L819.287 23.3058H822.722H826.156L826.156 26.2246L826.155 29.1434L829.59 28.9057C833.565 28.6302 833.12 27.0142 833.061 41.5057C833.031 48.7385 833.189 50.2373 833.884 49.3985C834.356 48.8293 835.438 48.4642 836.288 48.5878C837.744 48.7998 837.834 48.5694 837.834 44.7002C837.834 39.9666 838.275 38.4153 839.624 38.4153C840.412 38.4153 840.581 35.8127 840.581 23.6494V8.88356H844.015C846.814 8.88356 847.457 9.10606 847.487 10.0855C847.505 10.7465 847.493 15.0732 847.45 19.7004L847.378 28.1135H850.074C852.545 28.1135 852.807 28.2933 853.2 30.2596C853.436 31.44 853.629 34.8397 853.629 37.8143C853.629 40.9621 853.916 43.2227 854.316 43.2227C854.694 43.2227 855.003 42.4501 855.003 41.5057C855.003 39.9032 855.232 39.7888 858.437 39.7888C861.664 39.7888 861.872 39.8948 861.872 41.5463C861.872 42.5332 862.17 43.1192 862.553 42.8828C862.973 42.6226 863.217 36.372 863.189 26.5313L863.146 10.6005L866.632 10.3927L870.117 10.1849V18.5194C870.117 24.8799 870.32 26.787 870.975 26.5712C871.448 26.4158 871.933 25.6173 872.054 24.797C872.241 23.5237 872.718 23.3056 875.316 23.3056H878.359V27.7697V32.2338L880.935 32.2327L883.511 32.2318L883.306 42.878C883.046 56.352 884.228 57.1127 884.909 43.9092L885.404 34.2942H888.751H892.097L892.2 44.4243C892.322 56.4129 892.681 54.9998 892.942 41.5054L893.128 31.8904H896.43H899.733L900.119 50.777C900.331 61.1646 900.622 69.7923 900.766 69.9496C900.91 70.1069 901.027 64.0032 901.027 56.3856V42.5355L903.603 42.5416C908.623 42.5598 911.331 43.307 911.331 44.6842C911.331 45.7477 911.861 45.9679 914.422 45.9679C917.496 45.9679 917.513 45.9801 917.513 48.3716C917.513 49.6937 917.822 50.7754 918.199 50.7754C918.577 50.7754 918.886 51.2391 918.886 51.8055C918.886 52.5839 919.726 52.8357 922.321 52.8357C925.526 52.8357 925.755 52.9503 925.755 54.5527C925.755 55.497 926.046 56.2697 926.4 56.2697C926.783 56.2697 927.07 49.1019 927.106 38.585C927.143 28.8584 927.353 19.7414 927.58 18.3249C927.983 15.8043 928.056 15.7495 930.995 15.7495H933.998L934.077 24.1626C934.12 28.7898 934.102 33.1165 934.035 33.7775C933.947 34.6413 934.408 34.9794 935.673 34.9794C936.641 34.9794 937.433 35.2884 937.433 35.6662C937.433 36.0441 938.515 36.3529 939.837 36.3529H942.242V40.817C942.242 44.3273 942.462 45.2812 943.272 45.2812C943.959 45.2812 944.302 45.9679 944.302 47.3415C944.302 49.1729 944.531 49.4018 946.363 49.4018C948.103 49.4018 948.424 49.1348 948.424 47.6848C948.424 46.7405 948.745 45.9679 949.138 45.9679C949.596 45.9679 949.815 43.2397 949.748 38.3753C949.693 34.1993 949.767 30.6578 949.922 30.5052C950.074 30.3529 952.736 30.0165 955.837 29.7578C962.249 29.2233 961.711 28.6113 961.483 36.1812C961.418 38.357 961.667 39.7869 962.112 39.7869C962.554 39.7869 962.848 41.4326 962.848 43.9076V48.0282H964.909H966.97V40.4737V32.919H970.404H973.839V43.5642C973.839 53.7514 973.9 54.2094 975.212 54.2094C976.532 54.2094 976.586 53.7516 976.586 42.5339C976.586 31.3165 976.641 30.8587 977.96 30.8587C979.242 30.8587 979.334 30.401 979.334 23.9908V17.123H982.768H986.203V25.3644V33.6058H988.263H990.324V39.1001C990.324 42.3051 990.61 44.5943 991.011 44.5943C991.389 44.5943 991.698 43.3777 991.698 41.8907C991.698 39.3425 991.826 39.1747 993.93 38.9719C995.641 38.8067 996.214 38.396 996.382 37.2114C996.503 36.3615 997.033 35.6662 997.559 35.6662C998.342 35.6662 998.518 33.4413 998.521 23.4757C998.521 16.771 998.533 9.97188 998.545 8.36653L998.564 5.44772H1002H1005.43V14.6817V23.9156L1008.7 24.1252L1011.96 24.3349L1012.32 38.414C1012.52 46.1575 1012.76 49.866 1012.84 46.6553C1012.93 43.4446 1013.2 39.1951 1013.43 37.212L1013.87 33.6065H1016.86C1018.51 33.6065 1019.9 33.6839 1019.96 33.7783C1020.01 33.8728 1020.27 37.9678 1020.54 42.8783L1021.02 51.8064L1021.09 42.1914C1021.13 36.9032 1021.18 32.1901 1021.2 31.7179C1021.22 31.1396 1022.46 30.8594 1025.01 30.8594H1028.79V23.6483V16.4371H1031.81H1034.82L1035.33 32.2469C1035.61 40.9422 1036.1 48.2232 1036.43 48.4268C1036.76 48.6303 1037.03 49.8604 1037.03 51.1601C1037.03 53.0655 1037.3 53.5234 1038.4 53.5234C1039.47 53.5234 1039.78 53.0657 1039.78 51.463C1039.78 49.6317 1040.01 49.4026 1041.84 49.4026H1043.9V40.5121V31.6216L1047.16 31.4119L1050.42 31.2023L1050.63 27.9401L1050.84 24.6778H1053.9H1056.95L1057.03 28.6268C1057.07 30.7987 1057.06 32.9621 1057 33.4343C1056.94 33.9066 1057.52 34.2928 1058.29 34.2928C1059.6 34.2928 1059.7 34.7091 1059.7 40.1305C1059.7 43.5644 1059.98 45.9681 1060.38 45.9681C1060.76 45.9681 1061.07 45.1955 1061.07 44.2512C1061.07 43.1829 1061.46 42.5342 1062.1 42.5342C1062.98 42.5342 1063.13 40.5883 1063.13 29.1419V15.7497H1066.57H1070V21.8735C1070 25.6547 1070.29 28.092 1070.74 28.245C1071.18 28.3888 1071.48 30.3148 1071.47 32.8399C1071.45 36.5508 1071.64 37.2373 1072.76 37.53C1073.89 37.8256 1074.1 38.6476 1074.3 43.4659C1074.48 47.7251 1074.56 46.984 1074.67 40.3583C1074.75 35.5731 1075 31.1692 1075.23 30.5716C1075.52 29.8092 1076.54 29.4853 1078.66 29.4853C1081.94 29.4853 1081.98 29.5639 1081.69 34.8079C1081.59 36.7551 1081.79 37.0399 1083.26 37.0399C1084.76 37.0399 1085.01 37.4123 1085.4 40.3021C1086.57 49.0296 1086.46 48.7152 1088.53 48.7152C1089.66 48.7152 1090.63 48.2624 1090.88 47.6191C1091.21 46.7698 1092.07 46.5763 1094.73 46.7606L1098.16 46.9983L1098.16 41.3323C1098.16 36.7535 1098.36 35.6663 1099.19 35.6663C1100.04 35.6663 1100.22 34.4072 1100.22 28.4551V21.244H1103.66H1107.09L1107.13 26.9099C1107.15 30.0262 1107.17 36.5935 1107.18 41.5041C1107.18 47.1588 1107.4 49.8027 1107.76 48.7152C1108.07 47.7709 1108.36 45.3757 1108.4 43.3926C1108.45 40.6759 1108.72 39.7871 1109.5 39.7871C1110.14 39.7871 1110.53 39.1384 1110.53 38.0701C1110.53 36.7902 1110.89 36.3531 1111.95 36.3531C1113.08 36.3531 1113.35 35.9582 1113.25 34.4645C1113.02 30.9602 1113.12 30.8589 1116.71 30.8589C1118.6 30.8589 1120.14 31.1678 1120.14 31.5456C1120.14 31.9235 1120.59 32.2325 1121.14 32.2325C1121.9 32.2325 1122.19 31.1017 1122.34 27.5967L1122.55 22.9609L1125.81 22.7513L1129.07 22.5416V27.3867C1129.07 30.2951 1129.36 32.2318 1129.79 32.2318C1130.26 32.2318 1130.49 28.6167 1130.45 21.7584C1130.35 4.86767 1129.9 6.82082 1133.88 6.82082H1137.32V17.8093C1137.32 24.6771 1137.57 28.7978 1138 28.7978C1138.38 28.7978 1138.69 27.8707 1138.69 26.7375C1138.69 24.7229 1138.77 24.6771 1142.12 24.6771C1145.1 24.6771 1145.56 24.86 1145.56 26.0508C1145.56 26.9331 1146.02 27.4243 1146.84 27.4243C1148.48 27.4243 1148.99 30.8624 1148.99 41.9426C1148.99 46.9151 1149.26 50.0882 1149.68 50.0882C1150.06 50.0882 1150.37 50.6805 1150.37 51.4045C1150.37 52.1285 1150.72 52.8386 1151.15 52.9826C1151.58 53.1264 1151.97 54.4659 1152.01 55.9587C1152.13 60.4236 1153.44 59.4186 1153.61 54.7352C1153.69 52.3756 1154.08 50.339 1154.47 50.2093C1154.9 50.0661 1155.18 46.8999 1155.18 42.133V34.2921H1158.61H1162.04V42.8769C1162.04 48.3991 1162.3 51.4617 1162.76 51.4617C1163.23 51.4617 1163.45 48.1388 1163.38 41.8029C1163.32 36.4906 1163.43 31.9841 1163.63 31.7884C1163.83 31.5928 1166.8 31.6525 1170.23 31.9207C1175.69 32.3479 1176.47 32.5684 1176.47 33.6938C1176.47 34.6066 1176.97 34.9788 1178.19 34.9788C1179.79 34.9788 1179.9 35.2079 1179.9 38.4127C1179.9 40.3014 1180.21 41.8466 1180.59 41.8466C1180.97 41.8466 1181.28 43.5464 1181.28 45.6238C1181.28 48.9433 1181.44 49.4012 1182.65 49.4012C1183.41 49.4012 1184.02 49.8588 1184.02 50.4314C1184.02 50.9982 1184.49 51.4616 1185.06 51.4616C1185.77 51.4616 1186.09 50.7366 1186.09 49.0578C1186.09 47.7358 1186.39 46.6541 1186.77 46.6541C1187.19 46.6541 1187.46 43.3347 1187.46 38.0693V29.4845H1190.55H1193.64V20.2129V10.9414L1197.25 10.941L1200.85 10.9407L1200.68 30.8577C1200.52 48.2365 1200.63 50.7748 1201.53 50.7748C1202.44 50.7748 1202.57 55.0296 1202.57 85.8007V120.827H1200.93C1199.75 120.827 1199.16 120.342 1198.85 119.11C1198.5 117.69 1198.01 117.393 1196.03 117.393H1193.64V122.2V127.008H1190.21H1186.77L1186.74 122.715C1186.72 120.354 1186.73 114.665 1186.77 110.071C1186.82 105.075 1186.56 101.546 1186.14 101.288C1185.76 101.051 1183.9 101.062 1182 101.313L1178.55 101.77L1178.56 117.178C1178.57 125.653 1178.37 134.113 1178.12 135.978L1177.67 139.369H1174.76H1171.85L1171.41 136.182C1171.17 134.43 1170.98 130.239 1170.98 126.87C1170.98 122.961 1170.73 120.898 1170.29 121.169C1169.91 121.402 1169.6 122.193 1169.6 122.926C1169.6 124.068 1169.11 124.259 1166.17 124.259H1162.73V121.34C1162.74 114.876 1161.99 97.8789 1161.68 97.5729C1161.5 97.3931 1161.36 97.8825 1161.36 98.6604C1161.36 99.4384 1160.89 100.254 1160.32 100.472C1159.43 100.813 1159.29 103.649 1159.31 120.634C1159.33 131.504 1159.33 142.639 1159.32 145.378L1159.3 150.357H1155.86H1152.43L1152.4 145.378C1152.39 142.639 1152.39 131.359 1152.41 120.31C1152.43 107.273 1152.19 100.222 1151.74 100.222C1151.36 100.222 1151.05 100.84 1151.05 101.596C1151.05 102.511 1150.6 102.969 1149.68 102.969C1148.34 102.969 1148.31 103.427 1148.31 119.215C1148.31 135.41 1148.3 135.469 1146.62 137.674C1145.69 138.89 1145 140.001 1145.08 140.142C1145.16 140.283 1144.22 141.47 1142.99 142.779L1140.75 145.159L1140.69 142.779C1140.65 141.47 1140.67 139.117 1140.73 137.55C1140.8 135.983 1140.52 134.497 1140.11 134.247C1139.68 133.98 1139.38 131.271 1139.38 127.653C1139.38 124.017 1139.1 121.512 1138.69 121.512C1138.28 121.512 1138 124.145 1138 128.037V134.561H1134.57H1131.13L1131.08 126.491C1131.05 122.053 1131.07 116.645 1131.13 114.473C1131.23 110.662 1131.17 110.524 1129.47 110.524C1127.96 110.524 1127.7 110.829 1127.7 112.584C1127.7 114.538 1127.56 114.644 1124.89 114.644C1122.66 114.644 1122 114.927 1121.72 116.018C1121.49 116.907 1120.78 117.392 1119.72 117.392C1118.22 117.392 1118.08 117.665 1118.08 120.826V124.259H1114.65H1111.22L1111.16 121.34C1111.13 119.735 1111.15 116.49 1111.21 114.129C1111.31 109.952 1111.26 109.837 1109.55 109.837C1108.24 109.837 1107.78 110.193 1107.78 111.21C1107.78 112.404 1107.32 112.584 1104.3 112.584H1100.81L1100.93 115.503C1100.99 117.108 1101.01 122.671 1100.97 127.865L1100.91 137.308H1097.47H1094.04V128.037C1094.04 122.314 1093.78 118.765 1093.35 118.765C1092.97 118.765 1092.67 117.992 1092.67 117.048C1092.67 115.789 1092.3 115.331 1091.29 115.331C1090.53 115.331 1089.92 114.874 1089.92 114.301C1089.92 113.723 1089.3 113.271 1088.52 113.271C1087.73 113.271 1086.85 112.608 1086.48 111.726C1085.97 110.526 1085.83 111.103 1085.87 114.301C1085.95 122.008 1086.16 121.512 1082.71 121.512C1079.22 121.512 1079.43 122.039 1079.61 113.786C1079.69 109.993 1079.51 109.15 1078.63 109.15C1077.81 109.15 1077.55 108.408 1077.55 106.06C1077.55 102.534 1076.65 102.155 1072.81 104.068L1070.61 105.168L1070.69 111.795C1070.93 131.771 1070.71 137.308 1069.65 137.308C1068.91 137.308 1068.62 138.071 1068.62 140.055V142.803H1065.19C1062.39 142.803 1061.75 142.58 1061.72 141.601C1061.7 140.94 1061.71 136.515 1061.75 131.768L1061.82 123.137L1057.66 123.437L1053.51 123.738V120.164C1053.51 117.61 1053.27 116.672 1052.65 116.877C1051.76 117.176 1051.68 117.454 1051.54 120.826C1051.45 122.829 1051.35 122.886 1048.02 122.886H1044.58V117.351C1044.58 113.597 1044.34 111.962 1043.85 112.27C1043.44 112.52 1043.16 114.006 1043.22 115.573C1043.28 117.14 1043.31 120.988 1043.27 124.125L1043.21 129.829L1039.95 129.619L1036.68 129.41L1036.29 123.915C1036.08 120.894 1035.85 119.117 1035.78 119.966C1035.67 121.321 1035.27 121.512 1032.56 121.512C1030.27 121.512 1029.47 121.245 1029.47 120.481C1029.47 119.795 1028.78 119.451 1027.41 119.451C1025.39 119.451 1025.35 119.385 1025.31 115.846C1025.26 112.395 1023.5 102.07 1023.36 104.472C1023.31 105.302 1022.56 105.694 1020.71 105.846L1018.14 106.059L1017.71 113.614C1017.47 117.769 1017.24 121.709 1017.19 122.37C1017.12 123.343 1016.45 123.572 1013.67 123.572H1010.24V121.168C1010.24 118.913 1010.1 118.765 1008 118.765C1005.77 118.765 1005.76 118.752 1006.01 115.674C1006.16 113.734 1005.97 112.584 1005.5 112.584C1004.98 112.584 1004.74 115.66 1004.74 122.199V131.814H1001.31H997.874L997.825 125.117C997.801 121.435 997.819 116.028 997.868 113.104C997.917 110.179 997.813 107.547 997.633 107.256C997.453 106.965 995.888 106.839 994.155 106.977C991.194 107.213 991.004 107.348 991.004 109.219C991.004 111.148 988.968 113.957 987.57 113.957C987.192 113.957 986.883 115.039 986.883 116.361C986.883 118.65 986.768 118.765 984.479 118.765C982.372 118.765 982.075 118.977 982.075 120.482C982.075 122.059 981.823 122.199 978.984 122.199C976.084 122.199 975.889 122.081 975.833 120.31C975.803 119.271 975.708 117.494 975.629 116.361C975.549 115.228 975.39 112.446 975.274 110.18L975.064 106.059L974.38 108.635C973.734 111.064 973.54 111.21 970.966 111.21H968.237L968.346 114.816C968.407 116.799 968.428 120.971 968.394 124.087L968.34 129.753H964.905H961.471L961.404 124.087C961.368 120.971 961.386 117.294 961.453 115.916C961.581 113.099 961.013 112.473 958.844 113.04C957.544 113.38 957.351 113.91 957.351 117.128V120.825H953.916C950.049 120.825 950.324 121.415 950.476 113.442C950.537 110.318 950.299 108.463 949.84 108.463C949.437 108.463 949.108 107.999 949.108 107.433C949.108 106.86 948.497 106.403 947.734 106.403C946.818 106.403 946.36 105.945 946.36 105.029C946.36 104.273 945.929 103.655 945.404 103.655C944.878 103.655 944.26 103.169 944.032 102.574C943.654 101.59 943.519 101.59 942.535 102.574C941.94 103.169 941.167 103.655 940.816 103.655C940.465 103.655 940.178 105.808 940.178 108.439C940.178 113.522 939.445 114.644 936.122 114.644C934.759 114.644 934.728 114.975 934.875 127.693L935.027 140.742L931.421 140.742L927.815 140.742V132.924C927.815 125.683 927.713 125.079 926.441 124.747C925.137 124.405 925.067 123.81 925.067 112.991C925.067 102.053 925.012 101.595 923.693 101.595C922.938 101.595 922.32 101.835 922.32 102.128C922.32 102.421 921.083 102.544 919.572 102.399C917.399 102.192 916.824 102.369 916.824 103.24C916.824 103.846 916.429 104.342 915.946 104.342C915.462 104.342 914.621 104.96 914.077 105.716C913.427 106.618 912.299 107.089 910.792 107.089H908.497L908.586 112.755C908.635 115.872 908.655 120.662 908.629 123.4L908.58 128.38H905.146H901.711V114.3V100.221H899.994C898.326 100.221 898.277 100.359 898.277 105.029V109.836H896.212C894.315 109.836 894.151 110.027 894.151 112.24C894.151 114.365 893.946 114.644 892.382 114.644C890.88 114.644 890.632 114.929 890.738 116.533C890.806 117.571 890.83 125.607 890.787 134.389L890.714 150.357H887.28H883.845L883.821 145.377C883.809 142.639 883.784 133.445 883.766 124.946C883.748 116.447 883.472 108.875 883.15 108.119C882.72 107.112 882.551 107.693 882.515 110.304C882.473 113.453 882.289 113.887 880.922 114.081C879.214 114.324 879.204 114.378 879.096 124.087C879.034 129.656 879.003 129.753 877.315 129.753C875.942 129.753 875.598 130.097 875.598 131.47C875.598 133.073 875.369 133.187 872.164 133.187H868.729V129.066V124.946H866.325C863.934 124.946 863.921 124.927 863.921 121.855V118.765H859.8H855.678V116.287C855.678 114.311 855.459 113.894 854.592 114.227C853.994 114.456 853.243 114.644 852.922 114.644C852.602 114.644 852.241 115.339 852.12 116.189C851.93 117.527 851.555 117.704 849.325 117.509C847.309 117.333 846.749 117.527 846.749 118.403C846.749 119.323 846.103 119.486 843.143 119.316C840.707 119.175 839.592 118.829 839.708 118.249C839.803 117.777 839.261 117.391 838.506 117.391C837.254 117.391 837.132 116.933 837.132 112.24V107.089H834.041H830.95V109.836C830.95 112.245 830.756 112.584 829.37 112.584C828.501 112.584 826.965 112.97 825.958 113.442L824.126 114.3V127.349C824.125 134.526 824.113 141.094 824.101 141.943C824.083 143.337 823.743 143.489 820.646 143.489C817.549 143.489 817.209 143.336 817.187 141.943C817.169 141.094 817.096 135.608 817.015 129.753C816.875 119.615 816.802 119.108 815.494 119.108C814.233 119.108 814.104 119.631 813.923 125.461L813.725 131.813H810.317H806.908V127.349V122.885H804.916H802.924L802.675 114.129C802.331 102.101 801.035 99.9785 800.364 110.344C800.007 115.847 799.602 118.098 798.923 118.359C798.165 118.65 797.978 121.426 797.978 132.393C797.978 139.912 797.785 147.03 797.549 148.21C797.147 150.222 796.931 150.357 794.115 150.357H791.11L791.079 145.377C791.061 142.639 791.061 135.608 791.085 129.753C791.122 119.196 790.538 115.828 789.06 118.078C788.688 118.645 788.379 122.585 788.373 126.834L788.361 134.561H786.592C784.951 134.561 784.831 134.771 784.938 137.479C785.002 139.085 785.026 141.712 784.987 143.317L784.924 146.236H781.489H778.055V132.5V118.765H775.117H772.18L772.442 116.017C772.697 113.346 772.646 113.27 770.571 113.27C768.659 113.27 768.438 113.484 768.438 115.331C768.438 117.345 768.362 117.391 765.004 117.391H761.57V112.927C761.57 110.409 761.27 108.463 760.883 108.463C760.505 108.463 760.196 106.918 760.196 105.029C760.196 103.088 759.882 101.595 759.474 101.595C759.006 101.595 758.778 104.543 758.824 110.008C758.962 126.148 758.91 127.006 757.792 127.006C756.962 127.006 756.761 128.074 756.761 132.5V137.999H753.751H750.741L750.236 121.517L749.731 105.034H747.751C745.946 105.034 745.771 104.821 745.771 102.63C745.771 101.308 745.462 100.226 745.084 100.226C744.706 100.226 744.398 100.844 744.398 101.6C744.398 102.355 744.089 102.973 743.711 102.973C743.309 102.973 743.024 105.29 743.024 108.55V114.127L738.859 113.826L734.694 113.524L734.804 115.975C734.865 117.323 734.885 121.866 734.847 126.072C734.786 133.111 734.671 133.747 733.407 134.077C732.585 134.292 732.033 135.014 732.033 135.874C732.033 137.119 731.621 137.312 728.962 137.312H725.898L725.706 128.212L725.515 119.112H720.822H716.129L716.014 111.214C715.949 106.757 715.599 103.167 715.212 102.973C714.834 102.784 714.428 103.634 714.309 104.862C714.102 107.012 713.983 107.094 711.047 107.094C708.254 107.094 707.999 107.238 707.999 108.811C707.999 109.879 707.61 110.528 706.969 110.528C706.159 110.528 705.939 111.481 705.939 114.992V119.456H703.534C701.855 119.456 701.13 119.767 701.13 120.486C701.13 121.264 700.291 121.516 697.696 121.516H694.261V113.962V106.407H691.514C689.224 106.407 688.766 106.636 688.766 107.781C688.766 108.971 688.309 109.154 685.332 109.154H681.897L681.817 104.175C681.775 101.436 681.585 99.8138 681.397 100.569C681.21 101.325 680.627 102.19 680.102 102.493C679.321 102.942 679.151 106.471 679.171 121.723C679.183 131.997 679.189 142.643 679.173 145.382L679.149 150.361H675.714H672.279L672.198 134.393C672.155 125.611 672.155 118.194 672.198 117.911C672.24 117.627 671.816 117.396 671.249 117.396C670.458 117.396 670.218 116.518 670.218 113.618C670.218 111.541 669.909 109.841 669.532 109.841C669.154 109.841 668.845 110.132 668.845 110.486C668.845 110.841 667.686 111.228 666.269 111.345L663.693 111.558L663.538 126.324C663.453 134.445 663.376 143.176 663.366 145.726L663.348 150.361H659.913H656.479L656.436 145.382C656.412 142.644 656.432 137.527 656.479 134.013L656.564 127.623L652.916 127.832L649.269 128.041L649.065 132.333C648.888 136.063 648.685 136.626 647.52 136.626C646.301 136.626 646.179 137.128 646.179 142.12V147.614H642.744H639.31L639.231 144.009C639.188 142.026 639.206 139.862 639.273 139.201C639.369 138.258 638.867 137.999 636.948 137.999H634.501V134.565V131.131H631.753H629.006V128.384C629.006 126.873 628.697 125.637 628.319 125.637C627.904 125.637 627.632 122.776 627.632 118.426C627.632 112.474 627.452 111.215 626.602 111.215C625.96 111.215 625.571 111.863 625.571 112.932C625.571 114 625.182 114.649 624.541 114.649C623.667 114.649 623.511 116.366 623.511 125.98V137.312H620.076H616.642L616.56 127.869C616.517 122.675 616.517 118.194 616.56 117.911C616.603 117.627 615.714 117.396 614.581 117.396H612.52V112.588C612.52 108.239 612.389 107.781 611.146 107.781C609.96 107.781 609.773 107.323 609.773 104.42C609.773 101.353 609.112 100.226 607.312 100.226C607.154 100.226 607.025 104.089 607.025 108.811V117.396H603.59H600.156V114.649C600.156 113.138 599.847 111.902 599.469 111.902C599.091 111.902 598.782 113.138 598.782 114.649C598.782 117.323 598.719 117.396 596.411 117.396H594.04L594.021 128.899C594.015 135.226 593.997 142.644 593.985 145.382L593.966 150.361H590.532H587.097V134.222C587.097 118.541 587.061 118.083 585.724 118.083C584.437 118.083 584.35 117.625 584.35 110.871C584.35 106.864 584.065 103.66 583.709 103.66C583.356 103.66 582.939 102.81 582.781 101.772C582.624 100.733 582.449 105.832 582.392 113.104L582.289 126.324H578.855H575.42V123.92C575.42 121.833 575.201 121.517 573.751 121.517C572.566 121.517 571.995 121.069 571.784 119.971C571.62 119.121 571.444 121.13 571.392 124.435L571.299 130.445H567.869H564.435L564.388 124.435C564.362 121.13 564.381 115.876 564.431 112.76L564.52 107.094H561.387C558.283 107.094 558.253 107.118 558.253 109.42C558.253 111.655 558.131 111.764 555.113 112.216L551.973 112.687L552.086 115.556C552.148 117.135 552.17 122.521 552.135 127.526L552.071 136.626H549.07C546.136 136.626 546.059 136.571 545.643 134.05C545.409 132.634 545.214 128.152 545.21 124.092L545.202 116.709H542.455C539.773 116.709 539.707 116.654 539.707 114.305C539.707 112.359 539.446 111.901 538.333 111.901C537.006 111.901 536.96 112.359 536.96 125.536C536.96 133.035 536.761 141.071 536.518 143.393L536.077 147.614H533.084H530.091L530.065 144.009C530.051 142.025 529.974 135.922 529.893 130.445L529.747 120.486L527.858 120.269L525.969 120.051L525.883 112.37C525.822 106.898 525.66 105.533 525.32 107.622C525.058 109.235 524.478 110.919 524.032 111.365C523.448 111.949 523.222 117.513 523.222 131.268V150.361H519.791H516.357L516.338 145.382C516.255 123.251 516.164 116.975 515.854 111.729L515.498 105.72H513.523C511.677 105.72 511.548 105.541 511.548 102.973C511.548 101.051 511.254 100.226 510.568 100.226C510.029 100.226 509.447 99.6849 509.274 99.0236C509.102 98.3626 508.924 103.771 508.881 111.042L508.801 124.263H505.366C502.771 124.263 501.932 124.011 501.932 123.233C501.932 122.489 501.169 122.203 499.184 122.203C496.895 122.203 496.437 121.973 496.437 120.829C496.437 119.913 495.979 119.455 495.063 119.455C494.147 119.455 493.689 119.913 493.689 120.829C493.689 121.836 493.231 122.203 491.972 122.203C490.261 122.203 490.255 122.227 490.255 128.727V135.251H486.82C484.225 135.251 483.386 135 483.386 134.221C483.386 133.655 482.966 133.191 482.453 133.191C481.534 133.191 480.638 127.887 480.638 122.445V120.142H477.204C473.502 120.142 473.571 120.233 473.753 115.579L473.864 112.733L470.726 112.484C469 112.347 467.587 112.466 467.587 112.755C467.587 113.041 467.124 113.275 466.557 113.275C465.707 113.275 465.527 114.534 465.527 120.486V127.697H462.128H458.725L458.485 123.061C458.352 120.512 458.184 123.618 458.11 129.965L457.975 141.505L454.468 141.297L450.96 141.09L451.064 131.011C451.156 122.164 451.025 120.852 449.998 120.278C448.72 119.562 448.529 118.581 448.362 111.901C448.301 109.446 448.094 107.823 447.904 108.296C447.713 108.768 446.501 109.154 445.211 109.154H442.864V113.189C442.864 119.941 442.328 121.516 440.03 121.516C438.294 121.516 438.055 121.765 438.055 123.576C438.055 125.408 437.826 125.637 435.995 125.637C434.098 125.637 433.934 125.828 433.934 128.041C433.934 130.254 433.771 130.444 431.873 130.444H429.813V138.686V146.927H426.378H422.944L422.89 143.665C422.86 141.871 422.881 138.471 422.937 136.11L423.038 131.818H419.557H416.075L416.028 125.122C416.002 121.439 416.021 115.876 416.071 112.76L416.16 107.094H413.817H411.474L411.084 117.771C410.848 124.244 410.383 128.824 409.904 129.401C409.444 129.954 409.154 132.456 409.21 135.378C409.263 138.141 409.284 142.643 409.257 145.382L409.207 150.361H405.772H402.338V146.584V142.806H399.59C397.606 142.806 396.843 143.093 396.843 143.837C396.843 144.615 396.003 144.867 393.408 144.867C389.995 144.867 389.973 144.848 389.954 142.635C389.943 141.407 389.931 134.917 389.927 128.212L389.92 116.022H387.199H384.479V110.528C384.479 106.102 384.278 105.033 383.448 105.033C382.562 105.033 382.417 107.267 382.414 121.001C382.412 129.783 382.213 139.955 381.971 143.604L381.532 150.239L378.541 150.476C376.47 150.641 375.549 150.452 375.549 149.851L375.548 149.849Z" fill="black"/>
</svg>
